G04 DipTrace 3.3.1.3*
G04 Teensy4.0TouchDisplayLoRaV0.2.gbl*
%MOIN*%
G04 #@! TF.FileFunction,Copper,L2,Bot*
G04 #@! TF.Part,Single*
%AMOUTLINE6*
4,1,4,
0.03,0.08,
-0.03,0.08,
-0.03,-0.08,
0.03,-0.08,
0.03,0.08,
0*%
G04 #@! TA.AperFunction,Conductor*
%ADD13C,0.02*%
%ADD14C,0.015*%
%ADD15C,0.008*%
%ADD17C,0.03*%
%ADD18C,0.06*%
%ADD19C,0.059055*%
G04 #@! TA.AperFunction,ViaPad*
%ADD21C,0.04*%
G04 #@! TA.AperFunction,Conductor*
%ADD22C,0.05315*%
%ADD23C,0.051181*%
%ADD24C,0.039*%
G04 #@! TA.AperFunction,CopperBalancing*
%ADD30C,0.025*%
%ADD31C,0.013*%
G04 #@! TA.AperFunction,ComponentPad*
%ADD32C,0.066*%
%ADD35R,0.059055X0.051181*%
G04 #@! TA.AperFunction,ComponentPad*
%ADD37C,0.17*%
%ADD38R,0.059055X0.059055*%
%ADD39C,0.059055*%
%ADD40C,0.07*%
%ADD41C,0.074*%
%ADD47R,0.07874X0.023622*%
G04 #@! TA.AperFunction,ComponentPad*
%ADD51C,0.076772*%
%ADD52C,0.065199*%
%ADD53C,0.05315*%
%ADD60C,0.06194*%
%ADD61C,0.074*%
%ADD62R,0.074X0.074*%
%ADD64R,0.062992X0.062992*%
%ADD65C,0.062992*%
%ADD66C,0.090551*%
G04 #@! TA.AperFunction,ViaPad*
%ADD68C,0.165*%
%ADD146OUTLINE6*%
%FSLAX26Y26*%
G04*
G70*
G90*
G75*
G01*
G04 Bottom*
%LPD*%
X3493700Y1068700D2*
D13*
Y1219700D1*
X3510707Y1236707D1*
X3599613D1*
Y1479183D2*
X3543369Y1535427D1*
D14*
Y1924789D1*
D13*
X3471861Y1996297D1*
X3462847Y1987283D1*
X3268398D1*
X3212154Y2043527D1*
X3068419D1*
X2849692Y2262254D1*
X2099771D1*
X1949787Y2112270D1*
Y1999781D1*
X1837298Y1887293D1*
Y1756057D1*
X1668566D1*
Y2099771D1*
X3430881Y1999781D2*
X3475346D1*
X3471861Y1996297D1*
X793700Y2018700D2*
Y1918700D1*
Y1818700D1*
X1668566Y2099771D2*
Y2118519D1*
X1293606D1*
X1218613Y2043527D1*
Y1918700D1*
X793700D1*
X3693700Y1068700D2*
D14*
Y943700D1*
X987388Y1487335D2*
Y1499834D1*
X1512333D1*
X1524831Y1487335D1*
X3649999Y756151D2*
Y706151D1*
Y806151D2*
Y756151D1*
X1631070Y1199865D2*
Y993637D1*
X2036898D1*
Y996898D1*
X2033700Y993700D1*
X1524831Y1487335D2*
X1574826D1*
Y1262359D1*
X1631070Y1206115D1*
Y1199865D1*
X793700Y1168700D2*
D17*
Y1268700D1*
Y1368700D1*
Y1499834D1*
X974889D1*
X987388Y1487335D1*
X3712102Y756162D2*
D13*
X3650010D1*
X3649999Y756151D1*
X3068419Y1962285D2*
D15*
X3074669D1*
Y1968535D1*
X3005926Y2037277D1*
X2949682D1*
X2924684Y2062275D1*
Y2131018D1*
X2837193Y2218508D1*
X2474731D1*
X2457124Y2200901D1*
Y2199760D1*
X2405989D1*
X3074669Y1962285D2*
X3143411Y1893543D1*
Y1293606D1*
X3080918Y1231112D1*
X2268503Y2137267D2*
X2281002Y2124768D1*
X2693459D1*
X2750390Y2181700D1*
X2817758D1*
X2855941Y2143516D1*
Y1962285D1*
X2868419D1*
Y1949808D1*
X2943432Y1874794D1*
Y1624821D1*
X3012175Y1556078D1*
Y1356099D1*
X3005926Y1349850D1*
X2349745Y2168514D2*
Y2156015D1*
X2680960D1*
X2724705Y2199760D1*
X2830944D1*
X2874690Y2156015D1*
Y2024779D1*
X2887188Y2012280D1*
X2918424D1*
X2968419Y1962285D1*
Y1931049D1*
X3043422Y1856046D1*
Y1287356D1*
X3024674Y1268608D1*
X2768419Y1962285D2*
Y1993501D1*
X2818445Y2043527D1*
X2768419Y1962285D2*
Y1937319D1*
X2843443Y1862296D1*
Y1631070D1*
X2912186Y1562327D1*
X2949682D1*
X2987178Y1524831D1*
Y1437340D1*
X2974679Y1424842D1*
X2668419Y1962285D2*
X2567878Y2062826D1*
X2242955D1*
X2149766Y2156015D1*
X2069700D1*
X2053700Y2140015D1*
Y1733700D1*
X2568419Y1962285D2*
Y1981086D1*
X2518477Y2031028D1*
X2174763D1*
X2099771Y2106020D1*
X3193700Y1893700D2*
X3241700Y1845700D1*
Y1561700D1*
X3193700Y1513700D1*
X3493700Y943700D2*
X3541700Y991700D1*
X3577700D1*
X3593700Y1007700D1*
Y1068700D1*
Y1668700D2*
Y1793700D1*
X3393700Y1668700D2*
Y1793700D1*
X3293700Y1668700D2*
Y1793700D1*
X2393700Y943700D2*
Y1068700D1*
X3493700Y1668700D2*
Y1793700D1*
X3415452Y1871947D1*
X3412050Y1868545D1*
X3299645D1*
X3155910Y2012280D1*
X3068419D1*
X2843443Y2237256D1*
X2118519D1*
X2025700Y2144438D1*
Y1945700D1*
X1893700Y1813700D1*
X2593700Y1793700D2*
Y1668700D1*
X493700Y1831700D2*
X441700Y1883700D1*
Y1957700D1*
X457700Y1973700D1*
X535700D1*
X551700Y1957700D1*
Y1289700D1*
X493700Y1231700D1*
X2493700Y1668700D2*
Y1793700D1*
X493700Y1531700D2*
X535700Y1573700D1*
Y1889700D1*
X493700Y1931700D1*
X2393700Y1668700D2*
Y1793700D1*
X493700Y1631700D2*
X441700Y1579700D1*
Y1383700D1*
X493700Y1331700D1*
X2493700Y1068700D2*
Y943700D1*
X493700Y1331700D2*
Y1289700D1*
X477700Y1273700D1*
X467700D1*
X451700Y1257700D1*
Y989700D1*
X467700Y973700D1*
X563621D1*
X599928Y937393D1*
X2593700Y943700D2*
Y1068700D1*
X2693700D2*
Y943700D1*
X2793700D2*
Y1068700D1*
X2893700Y943700D2*
Y1068700D1*
X2993700Y943700D2*
Y1068700D1*
X3093700Y943700D2*
Y1068700D1*
X3193700Y943700D2*
Y1068700D1*
X3293700Y943700D2*
Y1068700D1*
X3393700Y943700D2*
Y1068700D1*
X2118700Y1168700D2*
X1730978D1*
X1718561Y1181117D1*
X2213700Y1053700D2*
Y1089700D1*
X2218700Y1094700D1*
Y1168700D1*
X2593700Y1268700D2*
X2493388D1*
X2448388Y1313700D1*
X2163700D1*
X2118700Y1268700D1*
X2055127Y1332273D1*
Y1577700D1*
X1995507Y1637319D1*
X1381096D1*
X1318603Y1699813D1*
Y2074773D1*
X2218700Y1268700D2*
X2193603D1*
X2149766Y1224863D1*
X2007700D1*
Y1529700D1*
X1931327Y1606073D1*
X1368598D1*
X1274857Y1699813D1*
Y2024779D1*
X2118700Y1368700D2*
X2163700Y1413700D1*
X2441700D1*
X2474304Y1381096D1*
X2593700D1*
Y1368700D1*
X2118700Y1468700D2*
X2161700Y1511700D1*
X2550700D1*
X2593700Y1468700D1*
X1068629Y1631070D2*
X1131123Y1568577D1*
X1917855D1*
Y1563012D1*
X1967167Y1513700D1*
X1973700D1*
X2118700Y1568700D2*
X2017700Y1669700D1*
X1423708D1*
X1356099Y1737309D1*
X593700Y1973700D2*
X535700Y2031700D1*
X493700D1*
X2693700Y1568700D2*
X2818445Y1443955D1*
Y1137372D1*
X2841700Y1114117D1*
Y851645D1*
X2849692Y843653D1*
X2318498Y1906041D2*
X2114157Y1701700D1*
X1454201D1*
X1424842Y1731060D1*
X3193700Y1793700D2*
Y1668700D1*
Y1587031D1*
X3199655Y1581075D1*
X3093700Y1873700D2*
Y1793700D1*
Y1668700D1*
X2993700Y1793700D2*
Y1668700D1*
X2893700D2*
Y1793700D1*
X2793700Y1668700D2*
Y1793700D1*
X2693700D2*
Y1668700D1*
X2687075D1*
X2943432Y1412343D1*
Y906146D1*
X2905936Y868650D1*
Y799907D1*
X2805947Y699918D1*
X2587220D1*
X2555973Y731165D1*
Y774910D1*
X2474731Y856151D1*
Y862401D1*
X2443485Y893648D1*
X1243611Y724936D2*
D14*
Y924894D1*
X1462338Y1143621D1*
X1468587Y724936D2*
X1243611D1*
X1318603Y1312354D2*
Y1406094D1*
X1249860D1*
X1462338Y1143621D2*
X1449839D1*
X1318603Y1274857D1*
Y1312354D1*
X1018634Y524936D2*
D18*
X1243611D1*
X1468587D1*
X1736054D1*
X1799802Y588684D1*
X1866731D1*
X1900296Y622249D1*
X1984842Y706794D1*
X1018634Y524936D2*
X943642D1*
X724915Y743663D1*
X712417D1*
X661157Y794923D1*
X631175Y824905D1*
X560023D1*
X553228Y831700D1*
D19*
X493700D1*
X987388Y1287335D2*
D18*
Y1387335D1*
X1874794Y2049776D2*
Y2218529D1*
X1868566Y2224758D1*
X3693700Y1668700D2*
Y1793700D1*
X2990306Y2280624D2*
X3418760D1*
X3443380Y2256004D1*
X3449629D1*
X3593364Y2112270D1*
Y2081023D1*
X3705852Y1968535D1*
Y1805852D1*
X3693700Y1793700D1*
X987388Y1387335D2*
X1062390D1*
X1218613Y1231112D1*
Y1188787D1*
X1281107Y1126293D1*
D21*
Y1168619D1*
X1262359Y1187367D1*
X1900296Y622249D2*
D18*
X2378314D1*
X2389766Y633700D1*
D22*
X2493700D1*
D15*
Y643674D1*
X2649713D1*
D18*
X2705957D1*
X2724705Y624926D1*
X2787199D1*
X2812196Y599928D1*
X2849692D1*
X2887188Y562432D1*
Y524936D1*
X2937183Y474941D1*
X2993556D1*
Y443695D1*
X3312797D1*
D23*
Y449944D1*
X3412039D1*
Y562527D1*
X693700Y2018700D2*
D19*
X735792Y2060792D1*
D18*
Y2110648D1*
X853554Y2228410D1*
X899897Y2274752D1*
X1412343D1*
X1618571D1*
X1659899Y2233424D1*
X1668566Y2224758D1*
X1868566D2*
D17*
Y2318498D1*
X2952432D1*
X2990306Y2280624D1*
X3693700Y1668700D2*
Y1605726D1*
X3755847Y1543579D1*
Y856151D1*
Y718666D1*
X3680855Y643674D1*
X3587115D1*
X3512123Y568682D1*
X3530871D1*
Y556183D1*
X3493375D1*
X3487031Y562527D1*
X3412039D1*
X1799802Y588684D2*
X1866731D1*
X1984842Y706794D1*
X793700Y2273700D2*
D24*
X808264D1*
X853554Y2228410D1*
X1659899Y2233424D2*
D18*
X1859899D1*
X1868566Y2224758D1*
X1973700Y1233700D2*
D21*
X1937288Y1270112D1*
D18*
Y1318603D1*
D21*
Y1356099D1*
X1949787Y1368598D1*
X2983905Y835787D2*
D15*
X2962180D1*
Y787409D1*
X2937183D1*
Y668335D1*
X2983905Y621613D1*
D18*
Y484592D1*
X2993556Y474941D1*
X2994535Y728700D2*
Y632243D1*
X2983905Y621613D1*
X1949787Y1368598D2*
D13*
X1914431Y1403953D1*
X1901932D1*
X1768556Y1537330D1*
X1056130D1*
X987388Y1606073D1*
Y1620323D1*
Y1687314D1*
X1043632Y1743558D1*
X693700Y2018700D2*
D19*
Y1918700D1*
Y1818700D1*
Y1759172D1*
D18*
Y1569926D1*
Y1428228D1*
D19*
Y1368700D1*
Y1268700D1*
Y1168700D1*
Y1109172D1*
D18*
Y965573D1*
Y827466D1*
X661157Y794923D1*
X987388Y1287335D2*
X937372D1*
X912396Y1262359D1*
Y1231112D1*
X881149Y1199865D1*
Y931144D1*
X728129D1*
X693700Y965573D1*
X1406094Y2199760D2*
D17*
X1412343D1*
Y2274752D1*
X693700Y1569926D2*
D18*
X936990D1*
X987388Y1620323D1*
X3649999Y856151D2*
D13*
X3755847D1*
X1768556Y2043527D2*
D15*
Y1799802D1*
X3437401Y856151D2*
D14*
X3402151D1*
X3283414Y737414D1*
X3230755D1*
Y728700D1*
X3412039Y637330D2*
X3362138D1*
Y714590D1*
X3403700Y756151D1*
X3437401D1*
Y806151D1*
Y856151D2*
D15*
Y806151D1*
X2393700Y1168700D2*
X2525700D1*
X2541700Y1152700D1*
Y976663D1*
X2543474Y974889D1*
Y862401D1*
X2655962Y749913D1*
X2768451D1*
X2393700Y1268700D2*
X2299750D1*
Y843653D1*
X2412238D1*
Y737414D1*
X3671700Y1413700D2*
X3407241D1*
X3141700Y1148159D1*
Y907700D1*
X3073275Y839275D1*
Y728700D1*
X3671700Y1323700D2*
X3523469D1*
X3341700Y1141931D1*
Y893648D1*
X3207648D1*
X3152015Y838015D1*
Y728700D1*
X2793456Y2131018D2*
X2711700Y2049262D1*
Y1931700D1*
X2636046Y1856046D1*
X2474731D1*
X2441700Y1823015D1*
Y1616700D1*
X2393700Y1568700D1*
X1018634Y624936D2*
D18*
X1137713D1*
X1243611D1*
X1468587D1*
X1599834D1*
X1799802Y824905D1*
X1243611Y624936D2*
D3*
X1137713D2*
Y1093285D1*
X1062380Y1168619D1*
X1006104D1*
X987388Y1187335D1*
X3593700Y943700D2*
D15*
X3641700Y991700D1*
Y1120700D1*
X3593700Y1168700D1*
D21*
X3599613Y1236707D3*
Y1479183D3*
X3430881Y1999781D3*
X3712102Y756162D3*
X3080918Y1231112D3*
X3005926Y1349850D3*
X3024674Y1268608D3*
X2974679Y1424842D3*
X2443485Y893648D3*
X1043632Y1743558D3*
X1406094Y2199760D3*
X2768451Y749913D3*
X2412238Y737414D3*
D68*
X3661417Y511810D3*
X669291D3*
Y2244094D3*
X3661417D3*
D21*
X1262359Y1187367D3*
X793700Y2273700D3*
X1973700Y1233700D3*
X1949787Y1368598D3*
X1668566Y2099771D3*
X2033700Y993700D3*
X1631070Y1199865D3*
X1524831Y1487335D3*
X2405989Y2199760D3*
X2268503Y2137267D3*
X2349745Y2168514D3*
X2818445Y2043527D3*
X2149766Y2156015D3*
X2099771Y2106020D3*
X1893700Y1813700D3*
X599928Y937393D3*
X1718561Y1181117D3*
X2213700Y1053700D3*
X1318603Y2074773D3*
X1274857Y2024779D3*
X1973700Y1513700D3*
X1068629Y1631070D3*
X1356099Y1737309D3*
X593700Y1973700D3*
X2849692Y843653D3*
X1424842Y1731060D3*
X2318498Y1906041D3*
X3199655Y1581075D3*
X3093700Y1873700D3*
X1249860Y1406094D3*
X1318603Y1312354D3*
X1462338Y1143621D3*
X1768556Y1799802D3*
X2053700Y1733700D3*
X3193700Y1513700D3*
Y1893700D3*
X438718Y2294835D2*
D30*
X571441D1*
X767130D2*
X1610575D1*
X1726566D2*
X1810558D1*
X1926585D2*
X2083170D1*
X2866283D2*
X2925516D1*
X3055106D2*
X3563573D1*
X438718Y2269966D2*
X561932D1*
X776640D2*
X1610575D1*
X1726566D2*
X1810558D1*
X1926585D2*
X2054787D1*
X2894667D2*
X2924798D1*
X3055788D2*
X3554064D1*
X438718Y2245098D2*
X558810D1*
X779797D2*
X1610575D1*
X1726566D2*
X1810558D1*
X1926585D2*
X2029918D1*
X2919535D2*
X2934703D1*
X3045919D2*
X3550906D1*
X438718Y2220229D2*
X561465D1*
X777106D2*
X1610575D1*
X1726566D2*
X1810558D1*
X1926585D2*
X2005050D1*
X2944439D2*
X2966962D1*
X3013624D2*
X3553596D1*
X438718Y2195360D2*
X570401D1*
X768171D2*
X1610575D1*
X1726566D2*
X1810558D1*
X1926585D2*
X1980183D1*
X2969306D2*
X3562532D1*
X438718Y2170491D2*
X587768D1*
X750839D2*
X1610575D1*
X1726566D2*
X1810558D1*
X1926585D2*
X1955315D1*
X2994174D2*
X3134434D1*
X3239873D2*
X3579864D1*
X438718Y2145623D2*
X622432D1*
X716138D2*
X1268169D1*
X1726566D2*
X1810558D1*
X3019043D2*
X3122448D1*
X3251859D2*
X3614564D1*
X3708270D2*
X3734525D1*
X438718Y2120754D2*
X1243121D1*
X1711422D2*
X1827460D1*
X3043910D2*
X3121587D1*
X3252720D2*
X3734525D1*
X438718Y2095885D2*
X1218254D1*
X1716410D2*
X1739974D1*
X1797150D2*
X1836287D1*
X3068777D2*
X3131312D1*
X3243031D2*
X3734525D1*
X438718Y2071016D2*
X452701D1*
X534708D2*
X636176D1*
X751233D2*
X774151D1*
X813277D2*
X1193386D1*
X3237111D2*
X3734525D1*
X565461Y2046148D2*
X636176D1*
X843886D2*
X1180720D1*
X3262229D2*
X3734525D1*
X590329Y2021279D2*
X636176D1*
X851171D2*
X1180611D1*
X3506098D2*
X3734525D1*
X846506Y1996410D2*
X1180611D1*
X1706578D2*
X1731398D1*
X1805726D2*
X1848344D1*
X3524470D2*
X3734525D1*
X831686Y1971541D2*
X1180611D1*
X1706578D2*
X1736565D1*
X1800558D2*
X1868834D1*
X3549339D2*
X3734525D1*
X1706578Y1946672D2*
X1736565D1*
X1800558D2*
X1843966D1*
X3573812D2*
X3734525D1*
X583690Y1921804D2*
X636249D1*
X1706578D2*
X1736565D1*
X1800558D2*
X1819099D1*
X3581239D2*
X3734525D1*
X583690Y1896935D2*
X640662D1*
X1706578D2*
X1736565D1*
X3578872D2*
X3734525D1*
X583690Y1872066D2*
X661977D1*
X831686D2*
X1242871D1*
X1706578D2*
X1736565D1*
X3578872D2*
X3734525D1*
X583690Y1847197D2*
X644142D1*
X843276D2*
X1242871D1*
X1706578D2*
X1736565D1*
X3624444D2*
X3662936D1*
X583690Y1822329D2*
X636284D1*
X851099D2*
X1242871D1*
X1706578D2*
X1726518D1*
X583690Y1797460D2*
X640447D1*
X846973D2*
X1242871D1*
X1706578D2*
X1720633D1*
X583690Y1772591D2*
X661151D1*
X726222D2*
X761161D1*
X826231D2*
X1242871D1*
X583690Y1747722D2*
X1242871D1*
X3635532D2*
X3651884D1*
X583690Y1722854D2*
X1242871D1*
X3625700D2*
X3675208D1*
X3712217D2*
X3734525D1*
X583690Y1697985D2*
X1242906D1*
X583690Y1673116D2*
X1048737D1*
X1088508D2*
X1257331D1*
X583690Y1648247D2*
X1024012D1*
X1113268D2*
X1282200D1*
X583690Y1623378D2*
X1021285D1*
X1120553D2*
X1307067D1*
X3629898D2*
X3657518D1*
X583690Y1598510D2*
X1034347D1*
X1145420D2*
X1331935D1*
X3578872D2*
X3734525D1*
X583690Y1573641D2*
X1081822D1*
X3578872D2*
X3734525D1*
X583690Y1548772D2*
X922389D1*
X1052373D2*
X1106690D1*
X3582710D2*
X3734525D1*
X583690Y1523903D2*
X758613D1*
X1554393D2*
X1912756D1*
X3610485D2*
X3734525D1*
X583690Y1499035D2*
X750683D1*
X1608183D2*
X1928115D1*
X3643069D2*
X3734525D1*
X583690Y1474166D2*
X750683D1*
X1610336D2*
X1948676D1*
X3690004D2*
X3734525D1*
X583690Y1449297D2*
X750683D1*
X836709D2*
X922389D1*
X1052373D2*
X1233074D1*
X1266638D2*
X1497361D1*
X1610336D2*
X1975697D1*
X583690Y1424428D2*
X750683D1*
X836709D2*
X934590D1*
X1040172D2*
X1205730D1*
X1348525D2*
X1539310D1*
X1610336D2*
X1975697D1*
X583690Y1399560D2*
X636176D1*
X841770D2*
X923609D1*
X1051190D2*
X1202321D1*
X1354087D2*
X1539310D1*
X1610336D2*
X1975697D1*
X583690Y1374691D2*
X636176D1*
X850884D2*
X923680D1*
X1051082D2*
X1214451D1*
X1354087D2*
X1539310D1*
X1610336D2*
X1975697D1*
X583690Y1349822D2*
X636176D1*
X847905D2*
X934913D1*
X1039886D2*
X1283096D1*
X1354087D2*
X1539310D1*
X1610336D2*
X1975697D1*
X583690Y1324953D2*
X636176D1*
X836709D2*
X934985D1*
X1039814D2*
X1272367D1*
X1364817D2*
X1539310D1*
X1610336D2*
X1975697D1*
X583690Y1300085D2*
X646008D1*
X841410D2*
X923717D1*
X1051082D2*
X1272296D1*
X1364924D2*
X1539310D1*
X1610336D2*
X1975697D1*
X579886Y1275216D2*
X636571D1*
X850848D2*
X923573D1*
X1051190D2*
X1283096D1*
X1367401D2*
X1539310D1*
X1611127D2*
X1975697D1*
X3519196D2*
X3572867D1*
X3713653D2*
X3734525D1*
X556562Y1250347D2*
X639334D1*
X848085D2*
X934518D1*
X1040280D2*
X1293934D1*
X1392268D2*
X1541607D1*
X1635994D2*
X1975697D1*
X3645508D2*
X3734525D1*
X550892Y1225478D2*
X657133D1*
X836709D2*
X935378D1*
X1039384D2*
X1318801D1*
X1417136D2*
X1562527D1*
X1671161D2*
X1705956D1*
X1731195D2*
X1975697D1*
X3646190D2*
X3734525D1*
X541598Y1200609D2*
X646368D1*
X841015D2*
X923825D1*
X1111367D2*
X1343669D1*
X1442004D2*
X1583088D1*
X1762163D2*
X1988401D1*
X3642781D2*
X3734525D1*
X529182Y1175741D2*
X636607D1*
X850776D2*
X923465D1*
X1136234D2*
X1368537D1*
X1497050D2*
X1589978D1*
X3652218D2*
X3734525D1*
X547770Y1150872D2*
X639155D1*
X848264D2*
X934123D1*
X1161103D2*
X1393405D1*
X1509754D2*
X1595577D1*
X1666567D2*
X1682057D1*
X3655735D2*
X3734525D1*
X550928Y1126003D2*
X656487D1*
X730923D2*
X756497D1*
X830897D2*
X935773D1*
X1185037D2*
X1395558D1*
X1506775D2*
X1595577D1*
X1666567D2*
X2081483D1*
X3673210D2*
X3734525D1*
X541957Y1101134D2*
X923932D1*
X1195157D2*
X1370690D1*
X1481117D2*
X1595577D1*
X1666567D2*
X2184004D1*
X2250690D2*
X2267759D1*
X528464Y1076266D2*
X923393D1*
X1051405D2*
X1073749D1*
X1195730D2*
X1345822D1*
X1444157D2*
X1595577D1*
X1666567D2*
X2171697D1*
X547591Y1051397D2*
X933764D1*
X1041035D2*
X1079705D1*
X1195730D2*
X1320955D1*
X1419289D2*
X1595577D1*
X1666567D2*
X2165776D1*
X550999Y1026528D2*
X970438D1*
X1004325D2*
X1079705D1*
X1195730D2*
X1296087D1*
X1394422D2*
X1595577D1*
X2067717D2*
X2174710D1*
X2252700D2*
X2267759D1*
X575544Y1001659D2*
X1079705D1*
X1195730D2*
X1271218D1*
X1369554D2*
X1595577D1*
X2080994D2*
X2267759D1*
X625172Y976791D2*
X1079705D1*
X1195730D2*
X1246351D1*
X1344686D2*
X1600205D1*
X2078445D2*
X2267759D1*
X645554Y951922D2*
X1079705D1*
X1195730D2*
X1221483D1*
X1319818D2*
X2013161D1*
X2054224D2*
X2267759D1*
X646738Y927053D2*
X1079705D1*
X1294951D2*
X1755153D1*
X1844445D2*
X2267759D1*
X542638Y902184D2*
X568607D1*
X631237D2*
X1079705D1*
X1279125D2*
X1718336D1*
X1881298D2*
X2267759D1*
X438718Y877315D2*
X460415D1*
X526993D2*
X1079705D1*
X1279125D2*
X1700035D1*
X1899599D2*
X2267759D1*
X3504771D2*
X3582627D1*
X3717384D2*
X3734525D1*
X547159Y852447D2*
X1079705D1*
X1279125D2*
X1690275D1*
X1909323D2*
X2267759D1*
X3330768D2*
X3349272D1*
X3504771D2*
X3582627D1*
X3717384D2*
X3734525D1*
X551071Y827578D2*
X1079705D1*
X1279125D2*
X1686830D1*
X1912768D2*
X2272531D1*
X3504771D2*
X3582627D1*
X3717384D2*
X3734525D1*
X542961Y802709D2*
X1079705D1*
X1279125D2*
X1689054D1*
X1910544D2*
X1927469D1*
X2042203D2*
X2380255D1*
X3504771D2*
X3582627D1*
X3717384D2*
X3734525D1*
X551214Y777840D2*
X992112D1*
X1045161D2*
X1079705D1*
X1279125D2*
X1442064D1*
X1495112D2*
X1671758D1*
X2071986D2*
X2380255D1*
X2928075D2*
X2940767D1*
X3504771D2*
X3582627D1*
X551214Y752972D2*
X965234D1*
X1521990D2*
X1646890D1*
X2087739D2*
X2366978D1*
X2903208D2*
X2940480D1*
X3504771D2*
X3582627D1*
X551214Y728103D2*
X958129D1*
X1529095D2*
X1622023D1*
X1855606D2*
X1873930D1*
X2095777D2*
X2365184D1*
X2878340D2*
X2935025D1*
X3504771D2*
X3582627D1*
X551214Y703234D2*
X962256D1*
X1524968D2*
X1597155D1*
X1759112D2*
X1871884D1*
X2097788D2*
X2379717D1*
X2853473D2*
X2941054D1*
X3290255D2*
X3326629D1*
X3504771D2*
X3582627D1*
X3717384D2*
X3734525D1*
X551214Y678365D2*
X981382D1*
X2094128D2*
X2445708D1*
X2541710D2*
X2564592D1*
X2828604D2*
X2939116D1*
X3028695D2*
X3044041D1*
X3102508D2*
X3122771D1*
X3304285D2*
X3326629D1*
X3504771D2*
X3582627D1*
X3717384D2*
X3734525D1*
X438718Y653497D2*
X965522D1*
X2084151D2*
X2443018D1*
X2544367D2*
X2918231D1*
X3049579D2*
X3193822D1*
X3469567D2*
X3734525D1*
X438718Y628628D2*
X958166D1*
X2065456D2*
X2439357D1*
X2548027D2*
X2910982D1*
X3056829D2*
X3186573D1*
X3469567D2*
X3734525D1*
X438718Y603759D2*
X610125D1*
X728447D2*
X962041D1*
X1659641D2*
X1687834D1*
X1911764D2*
X1942432D1*
X2027275D2*
X2448579D1*
X2538804D2*
X2912920D1*
X3054890D2*
X3188511D1*
X3330481D2*
X3354511D1*
X3469567D2*
X3602255D1*
X3720578D2*
X3734525D1*
X438718Y578890D2*
X582134D1*
X756436D2*
X980700D1*
X1633302D2*
X1687225D1*
X1912373D2*
X2440146D1*
X2547272D2*
X2924978D1*
X3088048D2*
X3149361D1*
X3188020D2*
X3200569D1*
X3318424D2*
X3354511D1*
X3469567D2*
X3574266D1*
X438718Y554022D2*
X567386D1*
X771186D2*
X965844D1*
X1071428D2*
X1190802D1*
X1296422D2*
X1415796D1*
X1521380D2*
X1692392D1*
X1907242D2*
X2441222D1*
X2546161D2*
X2960431D1*
X3222756D2*
X3236022D1*
X3282970D2*
X3354511D1*
X3469567D2*
X3559518D1*
X438718Y529153D2*
X560209D1*
X778398D2*
X958201D1*
X1079071D2*
X1183159D1*
X1304065D2*
X1408153D1*
X1529023D2*
X1704197D1*
X1895401D2*
X2457335D1*
X2530085D2*
X3004569D1*
X3232804D2*
X3354511D1*
X3469567D2*
X3552305D1*
X438718Y504284D2*
X559061D1*
X779510D2*
X961826D1*
X1075447D2*
X1186819D1*
X1300405D2*
X1411777D1*
X1525398D2*
X1725980D1*
X1873619D2*
X3005394D1*
X3232015D2*
X3551192D1*
X438718Y479415D2*
X563762D1*
X774809D2*
X980019D1*
X1057254D2*
X1205012D1*
X1282212D2*
X1429970D1*
X1507205D2*
X1780846D1*
X1818752D2*
X3017595D1*
X3219814D2*
X3555893D1*
X438718Y454546D2*
X575209D1*
X763363D2*
X3567340D1*
X1823081Y2022436D2*
X1820679Y2016968D1*
X1815884Y2009141D1*
X1809922Y2002161D1*
X1802941Y1996199D1*
X1798041Y1993043D1*
X1798106Y1834401D1*
X1801800Y1830818D1*
X1801907Y1890078D1*
X1802779Y1895581D1*
X1804501Y1900878D1*
X1807029Y1905842D1*
X1810304Y1910348D1*
X1851170Y1951371D1*
X1894483Y1994683D1*
X1887579Y1992691D1*
X1880326Y1991539D1*
X1872986Y1991304D1*
X1865674Y1991991D1*
X1858506Y1993590D1*
X1851594Y1996074D1*
X1845048Y1999403D1*
X1838970Y2003528D1*
X1833459Y2008381D1*
X1828598Y2013886D1*
X1824465Y2019957D1*
X1823106Y2022396D1*
X1739070Y1993043D2*
X1734170Y1996199D1*
X1727190Y2002161D1*
X1721228Y2009141D1*
X1716432Y2016968D1*
X1712919Y2025449D1*
X1710776Y2034376D1*
X1710056Y2043527D1*
X1710776Y2052678D1*
X1712919Y2061604D1*
X1716432Y2070086D1*
X1721228Y2077913D1*
X1727190Y2084893D1*
X1734170Y2090855D1*
X1741997Y2095650D1*
X1750478Y2099163D1*
X1759405Y2101306D1*
X1768556Y2102027D1*
X1777707Y2101306D1*
X1786633Y2099163D1*
X1795115Y2095650D1*
X1802941Y2090855D1*
X1809922Y2084893D1*
X1815884Y2077913D1*
X1820233Y2070884D1*
X1823499Y2077902D1*
X1827427Y2084107D1*
X1832102Y2089771D1*
X1837449Y2094805D1*
X1843386Y2099129D1*
X1849817Y2102676D1*
X1856642Y2105389D1*
X1863754Y2107225D1*
X1871039Y2108155D1*
X1878382Y2108166D1*
X1885670Y2107256D1*
X1892787Y2105440D1*
X1899619Y2102747D1*
X1906061Y2099220D1*
X1912010Y2094913D1*
X1914285Y2092926D1*
X1914396Y2115054D1*
X1915267Y2120557D1*
X1916989Y2125855D1*
X1918161Y2128396D1*
X1914835Y2125123D1*
X1910246Y2122090D1*
X1905112Y2120112D1*
X1899674Y2119281D1*
X1836730Y2119325D1*
X1831318Y2120310D1*
X1826243Y2122432D1*
X1821742Y2125595D1*
X1818024Y2129649D1*
X1815262Y2134406D1*
X1813583Y2139646D1*
X1813108Y2143293D1*
X1813132Y2306594D1*
X1814117Y2312006D1*
X1816241Y2317081D1*
X1817190Y2318662D1*
X1811207Y2319704D1*
X1719322Y2319571D1*
X1722016Y2314775D1*
X1723619Y2309512D1*
X1724066Y2304758D1*
X1724001Y2142922D1*
X1723015Y2137510D1*
X1720892Y2132435D1*
X1717729Y2127934D1*
X1713675Y2124216D1*
X1708911Y2121451D1*
X1710603Y2117183D1*
X1712809Y2110393D1*
X1713926Y2103340D1*
Y2096201D1*
X1712809Y2089149D1*
X1710603Y2082359D1*
X1707361Y2075997D1*
X1704071Y2071372D1*
X1704066Y1791562D1*
X1723792Y1791557D1*
X1723056Y1799802D1*
X1723616Y1806920D1*
X1725283Y1813863D1*
X1728015Y1820459D1*
X1731746Y1826546D1*
X1736382Y1831976D1*
X1739061Y1834444D1*
X1739056Y1993039D1*
X3467066Y586238D2*
Y511436D1*
X3357011D1*
X3356976Y604735D1*
X3351940Y605945D1*
X3347157Y607927D1*
X3342741Y610632D1*
X3338804Y613995D1*
X3335440Y617932D1*
X3332735Y622348D1*
X3330754Y627132D1*
X3329544Y632167D1*
X3329138Y637340D1*
X3329241Y717179D1*
X3330050Y722293D1*
X3331650Y727218D1*
X3334002Y731833D1*
X3337045Y736022D1*
X3372525Y771646D1*
X3372531Y779880D1*
X3304846Y712321D1*
X3300657Y709276D1*
X3296043Y706926D1*
X3291117Y705326D1*
X3288566Y704819D1*
X3287751Y703019D1*
Y686476D1*
X3293762Y683541D1*
X3299995Y679655D1*
X3305793Y675145D1*
X3311092Y670058D1*
X3315836Y664449D1*
X3319973Y658378D1*
X3323457Y651913D1*
X3326254Y645120D1*
X3328330Y638074D1*
X3329666Y630850D1*
X3330245Y623527D1*
X3330057Y616107D1*
X3329106Y608823D1*
X3327405Y601676D1*
X3324973Y594746D1*
X3321835Y588103D1*
X3318027Y581822D1*
X3313587Y575970D1*
X3308565Y570609D1*
X3303014Y565798D1*
X3296994Y561588D1*
X3290570Y558024D1*
X3283812Y555146D1*
X3276792Y552983D1*
X3269585Y551561D1*
X3262270Y550892D1*
X3254924Y550986D1*
X3247629Y551839D1*
X3240460Y553445D1*
X3233498Y555785D1*
X3226814Y558835D1*
X3220483Y562561D1*
X3214573Y566922D1*
X3209146Y571873D1*
X3204262Y577360D1*
X3199972Y583323D1*
X3196323Y589699D1*
X3193356Y596418D1*
X3191100Y603409D1*
X3189582Y610596D1*
X3188817Y617902D1*
X3188813Y625249D1*
X3189570Y632554D1*
X3191081Y639743D1*
X3193329Y646737D1*
X3196289Y653460D1*
X3199931Y659839D1*
X3204213Y665808D1*
X3209506Y671708D1*
X3173759Y671704D1*
Y676045D1*
X3165321Y673279D1*
X3156487Y671880D1*
X3147543D1*
X3138709Y673279D1*
X3130204Y676043D1*
X3122234Y680103D1*
X3114999Y685360D1*
X3112675Y687507D1*
X3106776Y682590D1*
X3099150Y677917D1*
X3090888Y674494D1*
X3082191Y672406D1*
X3073275Y671704D1*
X3064359Y672406D1*
X3055662Y674494D1*
X3047399Y677917D1*
X3039773Y682590D1*
X3033935Y687507D1*
X3028389Y682847D1*
X3024016Y679926D1*
X3030203Y675145D1*
X3035502Y670058D1*
X3040246Y664449D1*
X3044382Y658378D1*
X3047867Y651913D1*
X3050663Y645120D1*
X3052739Y638074D1*
X3054075Y630850D1*
X3054654Y623527D1*
X3054466Y616107D1*
X3053515Y608823D1*
X3051814Y601676D1*
X3049382Y594746D1*
X3046245Y588103D1*
X3042436Y581822D1*
X3037997Y575970D1*
X3032974Y570609D1*
X3027423Y565798D1*
X3021403Y561588D1*
X3014980Y558024D1*
X3008221Y555146D1*
X3001201Y552983D1*
X2993994Y551561D1*
X2986679Y550892D1*
X2979334Y550986D1*
X2972039Y551839D1*
X2964869Y553445D1*
X2957907Y555785D1*
X2951224Y558835D1*
X2944893Y562561D1*
X2938982Y566922D1*
X2933556Y571873D1*
X2928671Y577360D1*
X2924381Y583323D1*
X2920733Y589699D1*
X2917766Y596418D1*
X2915510Y603409D1*
X2913991Y610596D1*
X2913226Y617902D1*
X2913222Y625249D1*
X2913980Y632554D1*
X2915490Y639743D1*
X2917738Y646737D1*
X2920699Y653460D1*
X2924340Y659839D1*
X2928623Y665808D1*
X2933502Y671300D1*
X2938923Y676256D1*
X2944829Y680624D1*
X2951155Y684356D1*
X2956037Y686671D1*
X2950640Y692344D1*
X2946329Y698289D1*
X2942819Y704741D1*
X2940167Y711590D1*
X2938419Y718722D1*
X2937602Y726020D1*
X2937730Y733364D1*
X2938801Y740629D1*
X2940797Y747696D1*
X2943686Y754448D1*
X2947419Y760772D1*
X2951934Y766565D1*
X2956040Y770726D1*
X2948010Y774789D1*
X2941881Y778838D1*
X2936204Y783501D1*
X2932525Y787116D1*
X2929802Y782567D1*
X2926789Y779041D1*
X2825106Y677486D1*
X2821360Y674764D1*
X2817235Y672663D1*
X2812834Y671233D1*
X2808262Y670508D1*
X2723270Y670418D1*
X2584905Y670508D1*
X2580333Y671233D1*
X2575931Y672663D1*
X2571806Y674764D1*
X2568061Y677486D1*
X2545629Y699789D1*
X2544336Y691544D1*
X2541810Y683772D1*
X2538102Y676491D1*
X2533298Y669880D1*
X2532225Y668718D1*
X2536594Y663228D1*
X2540321Y656901D1*
X2543121Y650112D1*
X2544938Y642998D1*
X2545737Y635699D1*
X2545483Y628199D1*
X2544195Y620969D1*
X2541902Y613994D1*
X2538651Y607410D1*
X2534384Y601199D1*
X2538102Y595909D1*
X2541810Y588628D1*
X2544336Y580856D1*
X2545615Y572785D1*
Y564615D1*
X2544336Y556544D1*
X2541810Y548772D1*
X2538102Y541491D1*
X2533298Y534880D1*
X2527520Y529102D1*
X2520909Y524298D1*
X2513628Y520590D1*
X2505856Y518064D1*
X2497785Y516785D1*
X2489615D1*
X2481544Y518064D1*
X2473772Y520590D1*
X2466491Y524298D1*
X2459880Y529102D1*
X2454102Y534880D1*
X2449298Y541491D1*
X2445590Y548772D1*
X2443064Y556544D1*
X2441785Y564615D1*
Y572785D1*
X2443064Y580856D1*
X2445590Y588628D1*
X2449298Y595909D1*
X2453044Y601178D1*
X2448789Y607340D1*
X2445528Y613919D1*
X2443225Y620892D1*
X2441926Y628119D1*
X2441655Y635456D1*
X2442419Y642759D1*
X2444204Y649882D1*
X2446972Y656683D1*
X2450669Y663028D1*
X2455141Y668697D1*
X2451570Y673091D1*
X2447301Y680058D1*
X2444174Y687608D1*
X2442267Y695554D1*
X2441665Y702695D1*
X2436012Y698619D1*
X2429650Y695377D1*
X2422860Y693171D1*
X2415808Y692054D1*
X2408669D1*
X2401616Y693171D1*
X2394826Y695377D1*
X2388464Y698619D1*
X2382688Y702815D1*
X2377640Y707864D1*
X2373443Y713640D1*
X2370201Y720002D1*
X2367995Y726792D1*
X2366878Y733844D1*
Y740983D1*
X2367995Y748036D1*
X2370201Y754826D1*
X2373443Y761188D1*
X2377640Y766964D1*
X2382743Y772056D1*
X2382738Y814170D1*
X2297435Y814243D1*
X2292863Y814968D1*
X2288461Y816398D1*
X2284336Y818499D1*
X2280591Y821221D1*
X2277318Y824494D1*
X2274596Y828239D1*
X2272495Y832364D1*
X2271065Y836766D1*
X2270340Y841338D1*
X2270250Y926330D1*
Y1113682D1*
X2248200Y1113582D1*
X2248109Y1092385D1*
X2247385Y1087813D1*
X2246752Y1085575D1*
X2252495Y1077474D1*
X2255737Y1071112D1*
X2257943Y1064322D1*
X2259060Y1057270D1*
Y1050130D1*
X2257943Y1043078D1*
X2255737Y1036288D1*
X2252495Y1029926D1*
X2248298Y1024150D1*
X2243250Y1019102D1*
X2237474Y1014905D1*
X2231112Y1011663D1*
X2224322Y1009457D1*
X2217270Y1008340D1*
X2210130D1*
X2203078Y1009457D1*
X2196288Y1011663D1*
X2189926Y1014905D1*
X2184150Y1019102D1*
X2179102Y1024150D1*
X2174905Y1029926D1*
X2171663Y1036288D1*
X2169457Y1043078D1*
X2168340Y1050130D1*
Y1057270D1*
X2169457Y1064322D1*
X2171663Y1071112D1*
X2174905Y1077474D1*
X2179102Y1083250D1*
X2184205Y1088342D1*
X2184564Y1094314D1*
X2185644Y1098815D1*
X2187415Y1103092D1*
X2188552Y1105121D1*
X2189200Y1113683D1*
X2163672Y1113672D1*
Y1136961D1*
X2157611Y1129789D1*
X2151044Y1124182D1*
X2143682Y1119670D1*
X2135704Y1116365D1*
X2127308Y1114350D1*
X2118700Y1113672D1*
X2110092Y1114350D1*
X2101696Y1116365D1*
X2093718Y1119670D1*
X2086356Y1124182D1*
X2079789Y1129789D1*
X2074182Y1136356D1*
X2072279Y1139204D1*
X1735973Y1139081D1*
X1729183Y1136875D1*
X1722130Y1135758D1*
X1714991D1*
X1707939Y1136875D1*
X1701149Y1139081D1*
X1694787Y1142322D1*
X1689011Y1146519D1*
X1683962Y1151567D1*
X1679766Y1157343D1*
X1676524Y1163705D1*
X1674318Y1170495D1*
X1673201Y1177548D1*
X1673113Y1182470D1*
X1669865Y1176091D1*
X1665669Y1170315D1*
X1664067Y1168583D1*
X1664070Y1026653D1*
X2002292Y1026637D1*
X2006956Y1030510D1*
X2013044Y1034241D1*
X2019640Y1036973D1*
X2026582Y1038640D1*
X2033700Y1039200D1*
X2040818Y1038640D1*
X2047760Y1036973D1*
X2054356Y1034241D1*
X2060444Y1030510D1*
X2065873Y1025873D1*
X2070510Y1020444D1*
X2074241Y1014356D1*
X2076973Y1007760D1*
X2078640Y1000818D1*
X2079200Y993700D1*
X2078640Y986582D1*
X2076973Y979640D1*
X2074241Y973044D1*
X2070510Y966956D1*
X2065873Y961527D1*
X2060444Y956890D1*
X2054356Y953159D1*
X2047760Y950427D1*
X2040818Y948760D1*
X2033700Y948200D1*
X2026582Y948760D1*
X2019640Y950427D1*
X2013044Y953159D1*
X2006956Y956890D1*
X2002480Y960646D1*
X1628481Y960738D1*
X1623367Y961549D1*
X1618441Y963149D1*
X1613827Y965499D1*
X1609638Y968544D1*
X1605977Y972205D1*
X1602932Y976394D1*
X1600582Y981008D1*
X1598982Y985934D1*
X1598171Y991048D1*
X1598070Y1057941D1*
Y1168573D1*
X1594260Y1173121D1*
X1590529Y1179209D1*
X1587797Y1185805D1*
X1586130Y1192747D1*
X1585570Y1199865D1*
X1585856Y1204669D1*
X1549733Y1240927D1*
X1546690Y1245116D1*
X1544338Y1249730D1*
X1542738Y1254655D1*
X1541928Y1259770D1*
X1541826Y1326663D1*
Y1445117D1*
X1535453Y1443092D1*
X1528401Y1441976D1*
X1521262D1*
X1514209Y1443092D1*
X1507419Y1445298D1*
X1501057Y1448540D1*
X1495281Y1452737D1*
X1490233Y1457785D1*
X1486036Y1463561D1*
X1484214Y1466843D1*
X1049893Y1466834D1*
X1049888Y1424835D1*
X1037553Y1424615D1*
X1041579Y1418472D1*
X1044857Y1411899D1*
X1047343Y1404987D1*
X1049001Y1397833D1*
X1049806Y1390532D1*
X1049780Y1383663D1*
X1048918Y1376368D1*
X1047207Y1369226D1*
X1044669Y1362334D1*
X1041340Y1355787D1*
X1037267Y1349675D1*
X1032504Y1344083D1*
X1027119Y1339088D1*
X1024886Y1337342D1*
X1030233Y1332838D1*
X1035275Y1327498D1*
X1039657Y1321603D1*
X1043315Y1315234D1*
X1046203Y1308480D1*
X1048276Y1301434D1*
X1049510Y1294193D1*
X1049888Y1287335D1*
X1049456Y1280003D1*
X1048167Y1272772D1*
X1046039Y1265742D1*
X1043102Y1259011D1*
X1039393Y1252670D1*
X1034968Y1246809D1*
X1029885Y1241507D1*
X1024886Y1237342D1*
X1031582Y1231529D1*
X1037915Y1224117D1*
X1066734Y1223948D1*
X1075336Y1222586D1*
X1083619Y1219894D1*
X1091378Y1215940D1*
X1098424Y1210821D1*
X1114616Y1194872D1*
X1179915Y1129330D1*
X1185035Y1122284D1*
X1188989Y1114524D1*
X1191680Y1106242D1*
X1193043Y1097640D1*
X1193213Y1074913D1*
Y753856D1*
X1196607Y759086D1*
X1202528Y766019D1*
X1209461Y771940D1*
X1210602Y772703D1*
X1210712Y927483D1*
X1211523Y932598D1*
X1213123Y937523D1*
X1215473Y942137D1*
X1218518Y946326D1*
X1265746Y993699D1*
X1409439Y1137392D1*
X1293510Y1253426D1*
X1290465Y1257615D1*
X1288115Y1262229D1*
X1286515Y1267154D1*
X1285704Y1272268D1*
X1285603Y1280994D1*
X1281793Y1285609D1*
X1278062Y1291697D1*
X1275330Y1298293D1*
X1273663Y1305235D1*
X1273103Y1312354D1*
X1273663Y1319472D1*
X1275330Y1326414D1*
X1278062Y1333010D1*
X1281793Y1339098D1*
X1285606Y1343636D1*
X1285603Y1373106D1*
X1281175Y1373094D1*
X1276604Y1369284D1*
X1270516Y1365553D1*
X1263920Y1362821D1*
X1256978Y1361154D1*
X1249860Y1360594D1*
X1242742Y1361154D1*
X1235800Y1362821D1*
X1229204Y1365553D1*
X1223116Y1369284D1*
X1217687Y1373920D1*
X1213050Y1379350D1*
X1209319Y1385438D1*
X1206587Y1392033D1*
X1204920Y1398976D1*
X1204360Y1406094D1*
X1204920Y1413212D1*
X1206587Y1420154D1*
X1209319Y1426750D1*
X1213050Y1432838D1*
X1217687Y1438267D1*
X1223116Y1442903D1*
X1229204Y1446634D1*
X1235800Y1449367D1*
X1242742Y1451033D1*
X1249860Y1451594D1*
X1256978Y1451033D1*
X1263920Y1449367D1*
X1270516Y1446634D1*
X1276604Y1442903D1*
X1281142Y1439091D1*
X1321192Y1438993D1*
X1326306Y1438182D1*
X1331231Y1436582D1*
X1335846Y1434231D1*
X1340035Y1431187D1*
X1343696Y1427525D1*
X1346741Y1423336D1*
X1349091Y1418722D1*
X1350691Y1413797D1*
X1351502Y1408683D1*
X1351603Y1343691D1*
X1355413Y1339098D1*
X1359144Y1333010D1*
X1361876Y1326414D1*
X1363543Y1319472D1*
X1364103Y1312354D1*
X1363543Y1305235D1*
X1361876Y1298293D1*
X1359144Y1291697D1*
X1355024Y1285116D1*
X1452137Y1187993D1*
X1458768Y1188981D1*
X1465907D1*
X1472960Y1187864D1*
X1479750Y1185658D1*
X1486112Y1182417D1*
X1491888Y1178220D1*
X1496936Y1173171D1*
X1501133Y1167396D1*
X1504375Y1161033D1*
X1506581Y1154243D1*
X1507697Y1147191D1*
Y1140052D1*
X1506581Y1132999D1*
X1504375Y1126209D1*
X1501133Y1119847D1*
X1496936Y1114071D1*
X1491888Y1109023D1*
X1486112Y1104826D1*
X1479750Y1101585D1*
X1472960Y1099378D1*
X1465907Y1098262D1*
X1463550Y1098169D1*
X1276616Y911230D1*
X1276611Y772781D1*
X1281343Y769116D1*
X1287791Y762669D1*
X1291377Y757945D1*
X1420771Y757936D1*
X1424407Y762669D1*
X1430855Y769116D1*
X1438230Y774474D1*
X1446354Y778613D1*
X1455024Y781431D1*
X1464028Y782857D1*
X1473146D1*
X1482150Y781431D1*
X1490821Y778613D1*
X1498944Y774474D1*
X1506319Y769116D1*
X1512767Y762669D1*
X1518125Y755293D1*
X1522264Y747170D1*
X1525082Y738499D1*
X1526508Y729495D1*
Y720377D1*
X1525082Y711373D1*
X1522264Y702703D1*
X1518125Y694579D1*
X1512767Y687204D1*
X1506319Y680756D1*
X1505914Y680438D1*
X1576850Y680436D1*
X1693016Y796607D1*
X1690663Y807619D1*
X1689644Y816235D1*
X1689302Y824905D1*
X1689644Y833574D1*
X1690663Y842191D1*
X1692355Y850700D1*
X1694710Y859052D1*
X1697713Y867191D1*
X1701346Y875070D1*
X1705586Y882641D1*
X1710406Y889855D1*
X1715777Y896669D1*
X1721667Y903040D1*
X1728039Y908930D1*
X1734852Y914301D1*
X1742066Y919121D1*
X1749637Y923361D1*
X1757516Y926994D1*
X1765655Y929997D1*
X1774007Y932352D1*
X1782516Y934044D1*
X1791133Y935064D1*
X1799802Y935405D1*
X1808472Y935064D1*
X1817088Y934044D1*
X1825598Y932352D1*
X1833949Y929997D1*
X1842088Y926994D1*
X1849968Y923361D1*
X1857539Y919121D1*
X1864752Y914301D1*
X1871566Y908930D1*
X1877938Y903040D1*
X1883827Y896669D1*
X1889199Y889855D1*
X1894019Y882641D1*
X1898259Y875070D1*
X1901892Y867191D1*
X1904894Y859052D1*
X1907250Y850700D1*
X1908941Y842191D1*
X1909961Y833574D1*
X1910302Y824905D1*
X1909961Y816235D1*
X1908941Y807619D1*
X1907250Y799109D1*
X1904894Y790758D1*
X1901892Y782619D1*
X1899039Y776431D1*
X1906469Y784691D1*
X1914616Y792109D1*
X1923462Y798679D1*
X1932919Y804336D1*
X1942892Y809022D1*
X1953283Y812692D1*
X1963986Y815309D1*
X1974897Y816846D1*
X1985907Y817289D1*
X1996907Y816634D1*
X2007787Y814886D1*
X2018438Y812064D1*
X2028755Y808193D1*
X2038636Y803317D1*
X2047982Y797478D1*
X2056700Y790739D1*
X2064703Y783165D1*
X2071911Y774831D1*
X2078255Y765822D1*
X2083670Y756225D1*
X2088102Y746136D1*
X2091506Y735655D1*
X2093850Y724889D1*
X2095111Y713943D1*
X2095280Y703121D1*
X2094365Y692140D1*
X2092361Y681305D1*
X2089288Y670722D1*
X2085176Y660499D1*
X2080066Y650737D1*
X2074010Y641532D1*
X2067066Y632976D1*
X2059306Y625153D1*
X2050805Y618142D1*
X2041648Y612014D1*
X2031924Y606827D1*
X2021734Y602636D1*
X2011178Y599478D1*
X2000357Y597389D1*
X1989385Y596388D1*
X1978365Y596485D1*
X1967411Y597678D1*
X1956630Y599956D1*
X1946130Y603297D1*
X1936015Y607667D1*
X1926385Y613023D1*
X1917336Y619312D1*
X1908960Y626469D1*
X1901336Y634427D1*
X1899439Y636464D1*
X1903701Y626304D1*
X1906932Y615768D1*
X1909096Y604964D1*
X1910175Y593998D1*
X1910165Y583175D1*
X1909067Y572210D1*
X1906884Y561410D1*
X1903634Y550881D1*
X1899354Y540728D1*
X1894082Y531050D1*
X1887873Y521948D1*
X1880789Y513508D1*
X1872898Y505815D1*
X1864281Y498948D1*
X1855024Y492972D1*
X1845217Y487948D1*
X1834959Y483926D1*
X1824350Y480945D1*
X1813498Y479036D1*
X1802508Y478217D1*
X1791494Y478497D1*
X1780561Y479872D1*
X1769819Y482330D1*
X1759376Y485844D1*
X1749334Y490382D1*
X1739794Y495898D1*
X1730852Y502335D1*
X1722595Y509632D1*
X1715106Y517714D1*
X1708459Y526503D1*
X1702720Y535910D1*
X1697945Y545842D1*
X1694186Y556199D1*
X1691476Y566880D1*
X1689842Y577776D1*
X1689302Y588783D1*
X1689861Y599787D1*
X1691514Y610682D1*
X1694243Y621357D1*
X1698023Y631708D1*
X1702813Y641632D1*
X1708569Y651028D1*
X1715231Y659804D1*
X1722735Y667873D1*
X1731006Y675155D1*
X1739960Y681577D1*
X1749508Y687075D1*
X1759558Y691595D1*
X1770008Y695091D1*
X1780754Y697529D1*
X1791690Y698886D1*
X1802705Y699146D1*
X1813692Y698308D1*
X1824541Y696380D1*
X1835144Y693380D1*
X1845396Y689339D1*
X1855193Y684298D1*
X1864441Y678306D1*
X1873046Y671423D1*
X1880922Y663717D1*
X1885249Y658926D1*
X1880976Y669083D1*
X1877737Y679615D1*
X1875562Y690418D1*
X1874474Y701382D1*
X1874483Y712402D1*
X1875591Y723365D1*
X1877785Y734163D1*
X1881043Y744690D1*
X1885334Y754839D1*
X1877938Y746770D1*
X1871566Y740880D1*
X1864752Y735508D1*
X1857539Y730688D1*
X1849968Y726448D1*
X1842088Y722815D1*
X1833949Y719813D1*
X1825598Y717457D1*
X1817088Y715766D1*
X1808472Y714746D1*
X1799802Y714405D1*
X1791133Y714746D1*
X1782516Y715766D1*
X1771560Y718148D1*
X1635878Y582734D1*
X1628833Y577615D1*
X1621073Y573661D1*
X1612791Y570969D1*
X1604188Y569607D1*
X1581461Y569436D1*
X1505924D1*
X1511129Y564506D1*
X1515781Y558823D1*
X1519679Y552599D1*
X1522760Y545932D1*
X1524977Y538930D1*
X1526292Y531704D1*
X1526687Y524936D1*
X1526222Y517607D1*
X1524838Y510394D1*
X1522553Y503414D1*
X1519407Y496779D1*
X1515449Y490592D1*
X1510742Y484955D1*
X1505361Y479956D1*
X1499393Y475676D1*
X1492932Y472183D1*
X1486083Y469533D1*
X1478955Y467770D1*
X1471659Y466918D1*
X1464315Y466994D1*
X1457040Y467995D1*
X1449949Y469907D1*
X1443155Y472697D1*
X1436770Y476323D1*
X1430890Y480726D1*
X1425615Y485835D1*
X1421025Y491569D1*
X1417196Y497835D1*
X1414187Y504535D1*
X1412048Y511561D1*
X1410813Y518800D1*
X1410499Y526137D1*
X1411116Y533456D1*
X1412649Y540638D1*
X1415077Y547569D1*
X1418360Y554140D1*
X1422445Y560242D1*
X1427268Y565781D1*
X1431230Y569431D1*
X1280949Y569436D1*
X1286153Y564506D1*
X1290805Y558823D1*
X1294703Y552599D1*
X1297784Y545932D1*
X1300001Y538930D1*
X1301315Y531704D1*
X1301710Y524936D1*
X1301246Y517607D1*
X1299861Y510394D1*
X1297577Y503414D1*
X1294431Y496779D1*
X1290473Y490592D1*
X1285766Y484955D1*
X1280385Y479956D1*
X1274417Y475676D1*
X1267956Y472183D1*
X1261107Y469533D1*
X1253978Y467770D1*
X1246683Y466918D1*
X1239339Y466994D1*
X1232064Y467995D1*
X1224973Y469907D1*
X1218179Y472697D1*
X1211793Y476323D1*
X1205914Y480726D1*
X1200638Y485835D1*
X1196049Y491569D1*
X1192220Y497835D1*
X1189210Y504535D1*
X1187071Y511561D1*
X1185836Y518800D1*
X1185523Y526137D1*
X1186140Y533456D1*
X1187672Y540638D1*
X1190100Y547569D1*
X1193384Y554140D1*
X1197469Y560242D1*
X1202292Y565781D1*
X1206254Y569431D1*
X1056004Y569436D1*
X1061176Y564506D1*
X1065829Y558823D1*
X1069726Y552599D1*
X1072808Y545932D1*
X1075024Y538930D1*
X1076339Y531704D1*
X1076734Y524936D1*
X1076270Y517607D1*
X1074885Y510394D1*
X1072600Y503414D1*
X1069455Y496779D1*
X1065497Y490592D1*
X1060789Y484955D1*
X1055409Y479956D1*
X1049440Y475676D1*
X1042980Y472183D1*
X1036130Y469533D1*
X1029002Y467770D1*
X1021707Y466918D1*
X1014363Y466994D1*
X1007087Y467995D1*
X999997Y469907D1*
X993203Y472697D1*
X986817Y476323D1*
X980938Y480726D1*
X975662Y485835D1*
X971073Y491569D1*
X967243Y497835D1*
X964234Y504535D1*
X962095Y511561D1*
X960860Y518800D1*
X960546Y526137D1*
X961163Y533456D1*
X962696Y540638D1*
X965124Y547569D1*
X968407Y554140D1*
X972493Y560242D1*
X977315Y565781D1*
X982798Y570667D1*
X989046Y574934D1*
X984485Y577932D1*
X977552Y583854D1*
X971630Y590787D1*
X966867Y598560D1*
X963378Y606982D1*
X961250Y615847D1*
X960535Y624936D1*
X961250Y634025D1*
X963378Y642890D1*
X966867Y651313D1*
X971630Y659086D1*
X977552Y666019D1*
X984485Y671940D1*
X989070Y674918D1*
X984485Y677932D1*
X977552Y683854D1*
X971630Y690787D1*
X966867Y698560D1*
X963378Y706982D1*
X961250Y715847D1*
X960535Y724936D1*
X961250Y734025D1*
X963378Y742890D1*
X966867Y751313D1*
X971630Y759086D1*
X977552Y766019D1*
X984485Y771940D1*
X992258Y776704D1*
X1000680Y780192D1*
X1009545Y782321D1*
X1018634Y783036D1*
X1027724Y782321D1*
X1036588Y780192D1*
X1045011Y776704D1*
X1052784Y771940D1*
X1059717Y766019D1*
X1065638Y759086D1*
X1070402Y751313D1*
X1073890Y742890D1*
X1076019Y734025D1*
X1076734Y724936D1*
X1076019Y715847D1*
X1073890Y706982D1*
X1070402Y698560D1*
X1065638Y690787D1*
X1059717Y683854D1*
X1055961Y680438D1*
X1082186Y680436D1*
X1082213Y1070294D1*
X1047289Y1105220D1*
X1049119Y1097112D1*
X1049888Y1087335D1*
X1049119Y1077558D1*
X1046829Y1068022D1*
X1043075Y1058961D1*
X1037951Y1050599D1*
X1031582Y1043141D1*
X1024124Y1036772D1*
X1015762Y1031648D1*
X1006701Y1027894D1*
X997165Y1025604D1*
X987388Y1024835D1*
X977611Y1025604D1*
X968074Y1027894D1*
X959014Y1031648D1*
X950651Y1036772D1*
X943193Y1043141D1*
X936825Y1050599D1*
X931700Y1058961D1*
X927947Y1068022D1*
X925657Y1077558D1*
X924888Y1087335D1*
X925657Y1097112D1*
X927947Y1106649D1*
X931700Y1115709D1*
X936825Y1124071D1*
X943193Y1131529D1*
X949914Y1137317D1*
X943193Y1143141D1*
X936825Y1150599D1*
X931700Y1158961D1*
X927947Y1168022D1*
X925657Y1177558D1*
X924888Y1187335D1*
X925657Y1197112D1*
X927947Y1206649D1*
X931700Y1215709D1*
X936825Y1224071D1*
X943193Y1231529D1*
X949914Y1237317D1*
X944716Y1241669D1*
X939654Y1246990D1*
X935250Y1252869D1*
X931566Y1259224D1*
X928654Y1265966D1*
X926553Y1273004D1*
X925292Y1280239D1*
X924888Y1287574D1*
X925348Y1294903D1*
X926665Y1302130D1*
X928819Y1309151D1*
X931783Y1315872D1*
X935515Y1322199D1*
X939962Y1328043D1*
X945066Y1333326D1*
X949896Y1337334D1*
X944716Y1341669D1*
X939654Y1346990D1*
X935250Y1352869D1*
X931566Y1359224D1*
X928654Y1365966D1*
X926553Y1373004D1*
X925292Y1380239D1*
X924888Y1387574D1*
X925348Y1394903D1*
X926665Y1402130D1*
X928819Y1409151D1*
X931783Y1415872D1*
X935515Y1422199D1*
X937393Y1424834D1*
X924888Y1424835D1*
Y1459319D1*
X834187Y1459334D1*
X834200Y1405924D1*
X838218Y1401044D1*
X842730Y1393682D1*
X846035Y1385704D1*
X848050Y1377308D1*
X848728Y1368700D1*
X848050Y1360092D1*
X846035Y1351696D1*
X842730Y1343718D1*
X838218Y1336356D1*
X834203Y1331512D1*
X834200Y1305939D1*
X838218Y1301044D1*
X842730Y1293682D1*
X846035Y1285704D1*
X848050Y1277308D1*
X848728Y1268700D1*
X848050Y1260092D1*
X846035Y1251696D1*
X842730Y1243718D1*
X838218Y1236356D1*
X834203Y1231512D1*
X834200Y1205939D1*
X838218Y1201044D1*
X842730Y1193682D1*
X846035Y1185704D1*
X848050Y1177308D1*
X848728Y1168700D1*
X848050Y1160092D1*
X846035Y1151696D1*
X842730Y1143718D1*
X838218Y1136356D1*
X832611Y1129789D1*
X826044Y1124182D1*
X818682Y1119670D1*
X810704Y1116365D1*
X802308Y1114350D1*
X793700Y1113672D1*
X785092Y1114350D1*
X776696Y1116365D1*
X768718Y1119670D1*
X761356Y1124182D1*
X754789Y1129789D1*
X749182Y1136356D1*
X744670Y1143718D1*
X743625Y1145558D1*
X740099Y1139117D1*
X735746Y1133201D1*
X730645Y1127919D1*
X724886Y1123363D1*
X718571Y1119613D1*
X711814Y1116739D1*
X704734Y1114791D1*
X697457Y1113801D1*
X690113Y1113789D1*
X682834Y1114756D1*
X675747Y1116683D1*
X668981Y1119537D1*
X662655Y1123266D1*
X656881Y1127805D1*
X651764Y1133071D1*
X647393Y1138973D1*
X643847Y1145403D1*
X641190Y1152250D1*
X639466Y1159388D1*
X638709Y1166692D1*
X638931Y1174032D1*
X640129Y1181277D1*
X642281Y1188300D1*
X645348Y1194972D1*
X649277Y1201176D1*
X653998Y1206801D1*
X659424Y1211749D1*
X665462Y1215930D1*
X670636Y1218739D1*
X664188Y1222255D1*
X658267Y1226599D1*
X652977Y1231691D1*
X648411Y1237444D1*
X644653Y1243752D1*
X641767Y1250506D1*
X639808Y1257583D1*
X638806Y1264857D1*
X638784Y1272201D1*
X639739Y1279482D1*
X641655Y1286571D1*
X644499Y1293343D1*
X648218Y1299675D1*
X652747Y1305455D1*
X658007Y1310581D1*
X661994Y1313669D1*
X638672Y1313672D1*
Y1423728D1*
X748728D1*
Y1400410D1*
X753197Y1405888D1*
X753325Y1503011D1*
X754319Y1509288D1*
X756283Y1515333D1*
X759169Y1520995D1*
X762903Y1526137D1*
X767397Y1530630D1*
X772539Y1534365D1*
X778201Y1537251D1*
X784246Y1539214D1*
X790523Y1540209D1*
X830445Y1540334D1*
X924856D1*
X924888Y1549835D1*
X1049888D1*
Y1532861D1*
X1514922Y1532733D1*
X1517504Y1532426D1*
X1524831Y1532835D1*
X1531949Y1532275D1*
X1538892Y1530608D1*
X1545487Y1527876D1*
X1551575Y1524145D1*
X1556113Y1520333D1*
X1577415Y1520234D1*
X1582529Y1519423D1*
X1587455Y1517823D1*
X1592069Y1515473D1*
X1596258Y1512428D1*
X1599919Y1508767D1*
X1602964Y1504578D1*
X1605314Y1499964D1*
X1606914Y1495039D1*
X1607725Y1489924D1*
X1607826Y1423031D1*
Y1276014D1*
X1639241Y1244613D1*
X1645130Y1243138D1*
X1651726Y1240406D1*
X1657814Y1236675D1*
X1663243Y1232039D1*
X1667880Y1226609D1*
X1671611Y1220522D1*
X1674343Y1213926D1*
X1676010Y1206983D1*
X1676570Y1199865D1*
X1676518Y1198512D1*
X1679766Y1204892D1*
X1683962Y1210667D1*
X1689011Y1215716D1*
X1694787Y1219913D1*
X1701149Y1223154D1*
X1707939Y1225360D1*
X1714991Y1226477D1*
X1722130D1*
X1729183Y1225360D1*
X1735973Y1223154D1*
X1742335Y1219913D1*
X1748111Y1215716D1*
X1753159Y1210667D1*
X1757356Y1204892D1*
X1760718Y1198203D1*
X1995050Y1198200D1*
X1990360Y1200997D1*
X1986840Y1204003D1*
X1983834Y1207523D1*
X1981415Y1211470D1*
X1979644Y1215747D1*
X1978564Y1220247D1*
X1978200Y1224863D1*
Y1468409D1*
X1970130Y1468340D1*
X1963078Y1469457D1*
X1956288Y1471663D1*
X1949926Y1474905D1*
X1944150Y1479102D1*
X1939102Y1484150D1*
X1934905Y1489926D1*
X1931663Y1496288D1*
X1929457Y1503078D1*
X1928313Y1510842D1*
X1900071Y1539075D1*
X1128808Y1539167D1*
X1124235Y1539892D1*
X1119834Y1541322D1*
X1115709Y1543423D1*
X1111964Y1546145D1*
X1072277Y1585701D1*
X1065060Y1585710D1*
X1058007Y1586827D1*
X1051217Y1589033D1*
X1044855Y1592275D1*
X1039079Y1596472D1*
X1034031Y1601520D1*
X1029834Y1607296D1*
X1026592Y1613658D1*
X1024386Y1620448D1*
X1023270Y1627501D1*
Y1634640D1*
X1024386Y1641692D1*
X1026592Y1648482D1*
X1029834Y1654844D1*
X1034031Y1660620D1*
X1039079Y1665669D1*
X1044855Y1669865D1*
X1051217Y1673107D1*
X1058007Y1675313D1*
X1065060Y1676430D1*
X1072199D1*
X1079251Y1675313D1*
X1086041Y1673107D1*
X1092403Y1669865D1*
X1098179Y1665669D1*
X1103228Y1660620D1*
X1107424Y1654844D1*
X1110666Y1648482D1*
X1112872Y1641692D1*
X1113989Y1634640D1*
X1113981Y1627431D1*
X1143357Y1598061D1*
X1334746Y1598204D1*
X1252426Y1680654D1*
X1249704Y1684399D1*
X1247603Y1688524D1*
X1246172Y1692926D1*
X1245448Y1697498D1*
X1245357Y1782490D1*
Y1895346D1*
X1241669Y1891705D1*
X1237162Y1888431D1*
X1232199Y1885902D1*
X1226901Y1884180D1*
X1221398Y1883309D1*
X1163495Y1883200D1*
X835766D1*
X829212Y1876679D1*
X829200Y1860747D1*
X835544Y1854438D1*
X840619Y1847452D1*
X844539Y1839758D1*
X847207Y1831546D1*
X848558Y1823018D1*
Y1814382D1*
X847207Y1805854D1*
X844539Y1797642D1*
X840619Y1789948D1*
X835544Y1782962D1*
X829438Y1776856D1*
X822452Y1771781D1*
X814758Y1767861D1*
X806546Y1765193D1*
X798018Y1763842D1*
X789382D1*
X780854Y1765193D1*
X772642Y1767861D1*
X764948Y1771781D1*
X757962Y1776856D1*
X751856Y1782962D1*
X746781Y1789948D1*
X743730Y1795756D1*
X740099Y1789117D1*
X735746Y1783201D1*
X730645Y1777919D1*
X724886Y1773363D1*
X718571Y1769613D1*
X711814Y1766739D1*
X704734Y1764791D1*
X697457Y1763801D1*
X690113Y1763789D1*
X682834Y1764756D1*
X675747Y1766683D1*
X668981Y1769537D1*
X662655Y1773266D1*
X656881Y1777805D1*
X651764Y1783071D1*
X647393Y1788973D1*
X643847Y1795403D1*
X641190Y1802250D1*
X639466Y1809388D1*
X638709Y1816692D1*
X638931Y1824032D1*
X640129Y1831277D1*
X642281Y1838300D1*
X645348Y1844972D1*
X649277Y1851176D1*
X653998Y1856801D1*
X659424Y1861749D1*
X665462Y1865930D1*
X670636Y1868739D1*
X664188Y1872255D1*
X658267Y1876599D1*
X652977Y1881691D1*
X648411Y1887444D1*
X644653Y1893752D1*
X641767Y1900506D1*
X639808Y1907583D1*
X638806Y1914857D1*
X638784Y1922201D1*
X639739Y1929482D1*
X641655Y1936571D1*
X644499Y1943343D1*
X648218Y1949675D1*
X652747Y1955455D1*
X658007Y1960581D1*
X661994Y1963669D1*
X638672Y1963672D1*
X638640Y1966582D1*
X636973Y1959640D1*
X634241Y1953044D1*
X630510Y1946956D1*
X625873Y1941527D1*
X620444Y1936890D1*
X614356Y1933159D1*
X607760Y1930427D1*
X600818Y1928760D1*
X593700Y1928200D1*
X586582Y1928760D1*
X581212Y1929983D1*
X581109Y1287385D1*
X580385Y1282813D1*
X578955Y1278411D1*
X576854Y1274287D1*
X574132Y1270541D1*
X547414Y1243695D1*
X548558Y1236018D1*
Y1227382D1*
X547207Y1218854D1*
X544539Y1210642D1*
X540619Y1202948D1*
X535544Y1195962D1*
X529438Y1189856D1*
X522452Y1184781D1*
X516644Y1181730D1*
X522452Y1178619D1*
X529438Y1173544D1*
X535544Y1167438D1*
X540619Y1160452D1*
X544539Y1152758D1*
X547207Y1144546D1*
X548558Y1136018D1*
Y1127382D1*
X547207Y1118854D1*
X544539Y1110642D1*
X540619Y1102948D1*
X535544Y1095962D1*
X529438Y1089856D1*
X522452Y1084781D1*
X516644Y1081730D1*
X522452Y1078619D1*
X529438Y1073544D1*
X535544Y1067438D1*
X540619Y1060452D1*
X544539Y1052758D1*
X547207Y1044546D1*
X548558Y1036018D1*
Y1027382D1*
X547207Y1018854D1*
X544539Y1010642D1*
X540759Y1003199D1*
X565936Y1003109D1*
X570508Y1002385D1*
X574910Y1000955D1*
X579035Y998854D1*
X582780Y996132D1*
X596359Y982752D1*
X603498D1*
X610550Y981636D1*
X617340Y979430D1*
X623703Y976188D1*
X629478Y971991D1*
X634527Y966943D1*
X638724Y961167D1*
X641965Y954805D1*
X644171Y948015D1*
X645288Y940962D1*
Y933823D1*
X644171Y926771D1*
X641965Y919981D1*
X638724Y913619D1*
X634527Y907843D1*
X629478Y902794D1*
X623703Y898598D1*
X617340Y895356D1*
X610550Y893150D1*
X603498Y892033D1*
X596359D1*
X589306Y893150D1*
X582516Y895356D1*
X576154Y898598D1*
X570378Y902794D1*
X565330Y907843D1*
X561133Y913619D1*
X557892Y919981D1*
X555686Y926771D1*
X554569Y933823D1*
X554577Y941032D1*
X551385Y944216D1*
X548050Y940308D1*
X548728Y931700D1*
X548050Y923092D1*
X546035Y914696D1*
X542730Y906718D1*
X538218Y899356D1*
X532611Y892789D1*
X526044Y887182D1*
X518682Y882670D1*
X516644Y881730D1*
X523067Y878237D1*
X529002Y873911D1*
X534309Y868835D1*
X538892Y863096D1*
X542670Y856800D1*
X545575Y850056D1*
X547558Y842985D1*
X548581Y835713D1*
X548606Y828028D1*
X547627Y820750D1*
X545688Y813667D1*
X542825Y806905D1*
X539086Y800585D1*
X534539Y794818D1*
X529263Y789709D1*
X525394Y786725D1*
X548728Y786728D1*
Y676672D1*
X438672D1*
Y786728D1*
X461961D1*
X455537Y792057D1*
X450598Y797491D1*
X446427Y803535D1*
X443098Y810081D1*
X440669Y817011D1*
X439186Y824204D1*
X438672Y831529D1*
X439140Y838857D1*
X440579Y846060D1*
X442964Y853004D1*
X446252Y859571D1*
X450386Y865641D1*
X455292Y871106D1*
X460881Y875869D1*
X467054Y879846D1*
X470726Y881696D1*
X464948Y884781D1*
X457962Y889856D1*
X451856Y895962D1*
X446781Y902948D1*
X442861Y910642D1*
X440193Y918854D1*
X438842Y927382D1*
Y936018D1*
X440193Y944546D1*
X442861Y952758D1*
X444140Y955532D1*
X436200Y963438D1*
Y436191D1*
X592176Y436200D1*
X587167Y441670D1*
X581917Y448330D1*
X577205Y455380D1*
X573062Y462779D1*
X569511Y470481D1*
X566577Y478436D1*
X564275Y486598D1*
X562620Y494915D1*
X561624Y503336D1*
X561291Y511810D1*
X561624Y520284D1*
X562620Y528705D1*
X564275Y537023D1*
X566577Y545184D1*
X569511Y553140D1*
X573062Y560842D1*
X577205Y568241D1*
X581917Y575291D1*
X587167Y581951D1*
X592923Y588178D1*
X599150Y593934D1*
X605810Y599184D1*
X612860Y603896D1*
X620259Y608039D1*
X627961Y611590D1*
X635917Y614524D1*
X644078Y616826D1*
X652396Y618481D1*
X660817Y619477D1*
X669291Y619810D1*
X677764Y619477D1*
X686186Y618481D1*
X694503Y616826D1*
X702665Y614524D1*
X710620Y611590D1*
X718322Y608039D1*
X725721Y603896D1*
X732771Y599184D1*
X739431Y593934D1*
X745658Y588178D1*
X751414Y581951D1*
X756665Y575291D1*
X761376Y568241D1*
X765519Y560842D1*
X769070Y553140D1*
X772004Y545184D1*
X774306Y537023D1*
X775961Y528705D1*
X776957Y520284D1*
X777291Y511810D1*
X776957Y503336D1*
X775961Y494915D1*
X774306Y486598D1*
X772004Y478436D1*
X769070Y470481D1*
X765519Y462779D1*
X761376Y455380D1*
X756665Y448330D1*
X751414Y441670D1*
X746355Y436197D1*
X3584271Y436200D1*
X3579293Y441670D1*
X3574043Y448330D1*
X3569331Y455380D1*
X3565188Y462779D1*
X3561637Y470481D1*
X3558703Y478436D1*
X3556401Y486598D1*
X3554746Y494915D1*
X3553750Y503336D1*
X3553417Y511810D1*
X3553750Y520284D1*
X3554746Y528705D1*
X3556401Y537023D1*
X3558703Y545184D1*
X3561637Y553140D1*
X3565188Y560842D1*
X3569331Y568241D1*
X3574043Y575291D1*
X3579293Y581951D1*
X3585049Y588178D1*
X3591276Y593934D1*
X3597936Y599184D1*
X3604986Y603896D1*
X3612385Y608039D1*
X3620087Y611590D1*
X3628043Y614524D1*
X3636204Y616826D1*
X3644522Y618481D1*
X3652943Y619477D1*
X3661417Y619810D1*
X3669890Y619477D1*
X3678312Y618481D1*
X3686629Y616826D1*
X3694791Y614524D1*
X3702746Y611590D1*
X3710448Y608039D1*
X3717847Y603896D1*
X3724897Y599184D1*
X3731557Y593934D1*
X3737027Y589054D1*
Y718129D1*
X3732758Y715621D1*
X3726162Y712889D1*
X3719220Y711222D1*
X3714877Y710771D1*
X3714869Y668840D1*
X3585129D1*
Y883812D1*
X3579577Y884872D1*
X3570548Y887805D1*
X3562088Y892115D1*
X3554409Y897696D1*
X3547696Y904409D1*
X3543734Y909666D1*
X3539704Y904409D1*
X3532991Y897696D1*
X3525312Y892115D1*
X3516852Y887805D1*
X3507823Y884872D1*
X3502262Y883838D1*
X3502235Y718840D1*
X3502271Y668840D1*
X3467069D1*
X3467031Y586239D1*
X3737029Y1751486D2*
X3732216Y1747044D1*
X3726279Y1742721D1*
X3719861Y1739149D1*
X3713058Y1736381D1*
X3705970Y1734457D1*
X3698701Y1733407D1*
X3691359Y1733246D1*
X3684050Y1733974D1*
X3676884Y1735585D1*
X3669966Y1738050D1*
X3663397Y1741336D1*
X3657276Y1745394D1*
X3651691Y1750163D1*
X3646725Y1755574D1*
X3643700Y1759646D1*
X3639704Y1754409D1*
X3632991Y1747696D1*
X3625312Y1742115D1*
X3623191Y1740927D1*
X3623205Y1716848D1*
X3630375Y1711640D1*
X3636640Y1705375D1*
X3641848Y1698205D1*
X3643686Y1694926D1*
X3647092Y1700585D1*
X3651625Y1706363D1*
X3656868Y1711504D1*
X3662735Y1715923D1*
X3669125Y1719543D1*
X3675931Y1722301D1*
X3683037Y1724154D1*
X3690323Y1725069D1*
X3697667Y1725031D1*
X3704944Y1724039D1*
X3712031Y1722112D1*
X3718808Y1719281D1*
X3725159Y1715595D1*
X3730980Y1711116D1*
X3736169Y1705919D1*
X3737027Y1704907D1*
Y1751451D1*
X3737022Y901506D2*
X3732991Y897696D1*
X3725312Y892115D1*
X3716852Y887805D1*
X3714885Y887079D1*
X3714869Y801586D1*
X3722724Y800405D1*
X3729514Y798199D1*
X3735876Y794957D1*
X3737024Y794190D1*
X3737027Y901498D1*
X3118682Y481226D2*
X3112894Y474506D1*
X3105436Y468137D1*
X3097074Y463012D1*
X3088014Y459259D1*
X3078477Y456969D1*
X3068700Y456200D1*
X3058923Y456969D1*
X3049386Y459259D1*
X3040326Y463012D1*
X3031964Y468137D1*
X3024506Y474506D1*
X3018137Y481964D1*
X3013012Y490326D1*
X3009259Y499386D1*
X3006969Y508923D1*
X3006200Y518700D1*
X3006969Y528477D1*
X3009259Y538014D1*
X3013012Y547074D1*
X3018137Y555436D1*
X3024506Y562894D1*
X3031964Y569263D1*
X3040326Y574388D1*
X3049386Y578141D1*
X3058923Y580431D1*
X3068700Y581200D1*
X3078477Y580431D1*
X3088014Y578141D1*
X3097074Y574388D1*
X3105436Y569263D1*
X3112894Y562894D1*
X3118682Y556174D1*
X3124506Y562894D1*
X3131964Y569263D1*
X3140326Y574388D1*
X3149386Y578141D1*
X3158923Y580431D1*
X3168700Y581200D1*
X3178477Y580431D1*
X3188014Y578141D1*
X3197074Y574388D1*
X3205436Y569263D1*
X3212894Y562894D1*
X3219263Y555436D1*
X3224388Y547074D1*
X3228141Y538014D1*
X3230431Y528477D1*
X3231200Y518700D1*
X3230431Y508923D1*
X3228141Y499386D1*
X3224388Y490326D1*
X3219263Y481964D1*
X3212894Y474506D1*
X3205436Y468137D1*
X3197074Y463012D1*
X3188014Y459259D1*
X3178477Y456969D1*
X3168700Y456200D1*
X3158923Y456969D1*
X3149386Y459259D1*
X3140326Y463012D1*
X3131964Y468137D1*
X3124506Y474506D1*
X3118718Y481226D1*
X447766Y2001474D2*
X444670Y2006718D1*
X441365Y2014696D1*
X439350Y2023092D1*
X438672Y2031700D1*
X439350Y2040308D1*
X441365Y2048704D1*
X444670Y2056682D1*
X449182Y2064044D1*
X454789Y2070611D1*
X461356Y2076218D1*
X468718Y2080730D1*
X476696Y2084035D1*
X485092Y2086050D1*
X493700Y2086728D1*
X502308Y2086050D1*
X510704Y2084035D1*
X518682Y2080730D1*
X526044Y2076218D1*
X532611Y2070611D1*
X538218Y2064044D1*
X540365Y2060831D1*
X544815Y2059756D1*
X549092Y2057985D1*
X553040Y2055566D1*
X556566Y2052553D1*
X590130Y2019060D1*
X597270D1*
X604322Y2017943D1*
X611112Y2015737D1*
X617474Y2012495D1*
X623250Y2008298D1*
X628298Y2003250D1*
X632495Y1997474D1*
X635737Y1991112D1*
X637943Y1984322D1*
X638671Y1980554D1*
X638672Y2073728D1*
X748728D1*
Y2050410D1*
X751856Y2054438D1*
X757962Y2060544D1*
X764948Y2065619D1*
X772642Y2069539D1*
X780854Y2072207D1*
X789382Y2073558D1*
X798018D1*
X806546Y2072207D1*
X814758Y2069539D1*
X822452Y2065619D1*
X829438Y2060544D1*
X835544Y2054438D1*
X840619Y2047452D1*
X844539Y2039758D1*
X847207Y2031546D1*
X848558Y2023018D1*
Y2014382D1*
X847207Y2005854D1*
X844539Y1997642D1*
X840619Y1989948D1*
X835544Y1982962D1*
X829212Y1976679D1*
X829200Y1960747D1*
X835721Y1954212D1*
X1183079Y1954200D1*
X1183222Y2046312D1*
X1184094Y2051814D1*
X1185815Y2057112D1*
X1188344Y2062075D1*
X1191619Y2066582D1*
X1232486Y2107603D1*
X1270550Y2145514D1*
X1275057Y2148788D1*
X1280020Y2151317D1*
X1285318Y2153039D1*
X1290821Y2153910D1*
X1348724Y2154019D1*
X1613082D1*
X1613132Y2306594D1*
X1614117Y2312006D1*
X1616241Y2317081D1*
X1617191Y2318662D1*
X1609107Y2319704D1*
X746415D1*
X751414Y2314234D1*
X756665Y2307574D1*
X761376Y2300524D1*
X765519Y2293125D1*
X769070Y2285423D1*
X772004Y2277468D1*
X774306Y2269306D1*
X775961Y2260989D1*
X776957Y2252567D1*
X777291Y2244094D1*
X776957Y2235620D1*
X775961Y2227199D1*
X774306Y2218881D1*
X772004Y2210720D1*
X769070Y2202764D1*
X765519Y2195062D1*
X761376Y2187663D1*
X756665Y2180613D1*
X751414Y2173953D1*
X745658Y2167726D1*
X739431Y2161970D1*
X732771Y2156720D1*
X725721Y2152008D1*
X718322Y2147865D1*
X710620Y2144314D1*
X702665Y2141380D1*
X694503Y2139078D1*
X686186Y2137423D1*
X677764Y2136427D1*
X669291Y2136094D1*
X660817Y2136427D1*
X652396Y2137423D1*
X644078Y2139078D1*
X635917Y2141380D1*
X627961Y2144314D1*
X620259Y2147865D1*
X612860Y2152008D1*
X605810Y2156720D1*
X599150Y2161970D1*
X592923Y2167726D1*
X587167Y2173953D1*
X581917Y2180613D1*
X577205Y2187663D1*
X573062Y2195062D1*
X569511Y2202764D1*
X566577Y2210720D1*
X564275Y2218881D1*
X562620Y2227199D1*
X561624Y2235620D1*
X561291Y2244094D1*
X561624Y2252567D1*
X562620Y2260989D1*
X564275Y2269306D1*
X566577Y2277468D1*
X569511Y2285423D1*
X573062Y2293125D1*
X577205Y2300524D1*
X581917Y2307574D1*
X587167Y2314234D1*
X592226Y2319707D1*
X436233Y2319704D1*
X436200Y1993923D1*
X440360Y1997566D1*
X444308Y1999985D1*
X446419Y2000957D1*
X3737027Y1632495D2*
X3732497Y1627669D1*
X3726844Y1622980D1*
X3720630Y1619066D1*
X3713961Y1615990D1*
X3706949Y1613806D1*
X3699714Y1612552D1*
X3692376Y1612246D1*
X3685061Y1612894D1*
X3677893Y1614487D1*
X3670990Y1616998D1*
X3664473Y1620382D1*
X3658449Y1624583D1*
X3653023Y1629531D1*
X3648284Y1635141D1*
X3644313Y1641319D1*
X3643701Y1642465D1*
X3639385Y1635508D1*
X3633630Y1628770D1*
X3626892Y1623015D1*
X3619336Y1618385D1*
X3611150Y1614994D1*
X3602533Y1612926D1*
X3593700Y1612230D1*
X3584867Y1612926D1*
X3576367Y1614961D1*
X3576369Y1552634D1*
X3604579Y1524422D1*
X3610235Y1523426D1*
X3617025Y1521220D1*
X3623388Y1517978D1*
X3629163Y1513781D1*
X3634212Y1508733D1*
X3638409Y1502957D1*
X3641650Y1496595D1*
X3643856Y1489805D1*
X3644973Y1482752D1*
Y1475613D1*
X3644099Y1469779D1*
X3652386Y1473141D1*
X3661923Y1475431D1*
X3671700Y1476200D1*
X3681477Y1475431D1*
X3691014Y1473141D1*
X3700074Y1469388D1*
X3708436Y1464263D1*
X3715894Y1457894D1*
X3722263Y1450436D1*
X3727388Y1442074D1*
X3731141Y1433014D1*
X3733431Y1423477D1*
X3734200Y1413700D1*
X3733431Y1403923D1*
X3731141Y1394386D1*
X3727388Y1385326D1*
X3722263Y1376964D1*
X3715894Y1369506D1*
X3715036Y1368712D1*
X3719225Y1364291D1*
X3724990Y1356356D1*
X3729443Y1347617D1*
X3732473Y1338291D1*
X3734007Y1328604D1*
Y1318796D1*
X3732473Y1309109D1*
X3729443Y1299783D1*
X3724990Y1291044D1*
X3719225Y1283109D1*
X3712291Y1276175D1*
X3704356Y1270410D1*
X3695617Y1265957D1*
X3686291Y1262927D1*
X3676604Y1261393D1*
X3666796D1*
X3657109Y1262927D1*
X3647783Y1265957D1*
X3639044Y1270410D1*
X3631109Y1276175D1*
X3624175Y1283109D1*
X3618410Y1291044D1*
X3616582Y1294200D1*
X3535663D1*
X3513703Y1272214D1*
X3571171Y1272207D1*
X3575839Y1275502D1*
X3582201Y1278743D1*
X3588991Y1280949D1*
X3596044Y1282066D1*
X3603183D1*
X3610235Y1280949D1*
X3617025Y1278743D1*
X3623388Y1275502D1*
X3629163Y1271305D1*
X3634212Y1266256D1*
X3638409Y1260481D1*
X3641650Y1254119D1*
X3643856Y1247329D1*
X3644973Y1240276D1*
Y1233137D1*
X3643856Y1226085D1*
X3641650Y1219294D1*
X3638409Y1212932D1*
X3634600Y1207650D1*
X3639385Y1201892D1*
X3644015Y1194336D1*
X3647406Y1186150D1*
X3649474Y1177533D1*
X3650170Y1168700D1*
X3649474Y1159867D1*
X3648604Y1155501D1*
X3664132Y1139859D1*
X3666854Y1136113D1*
X3668955Y1131989D1*
X3670385Y1127587D1*
X3671109Y1123015D1*
X3671200Y1120691D1*
X3676250Y1122406D1*
X3684867Y1124474D1*
X3693700Y1125170D1*
X3702533Y1124474D1*
X3711150Y1122406D1*
X3719336Y1119015D1*
X3726892Y1114385D1*
X3733630Y1108630D1*
X3737037Y1104871D1*
X3737027Y1632459D1*
X3372531Y873205D2*
Y887056D1*
X3370385Y886760D1*
X3368955Y882359D1*
X3366854Y878234D1*
X3364132Y874489D1*
X3360859Y871216D1*
X3357113Y868494D1*
X3352989Y866393D1*
X3348587Y864962D1*
X3344015Y864238D1*
X3324368Y864148D1*
X3327384Y855797D1*
X3329091Y848653D1*
X3330050Y841369D1*
X3330247Y833949D1*
X3330087Y830760D1*
X3372511Y873180D1*
X3181546Y785696D2*
X3209464D1*
X3204262Y791533D1*
X3199972Y797497D1*
X3196323Y803872D1*
X3193356Y810591D1*
X3191100Y817582D1*
X3189582Y824770D1*
X3188779Y833058D1*
X3181540Y825821D1*
X3181515Y785659D1*
X1924064Y2144401D2*
X1923392Y2138934D1*
X1922296Y2135423D1*
X1924066Y2150427D1*
Y2144847D1*
X1924692Y2137380D1*
X2076716Y2289249D1*
X2081222Y2292523D1*
X2086186Y2295052D1*
X2091483Y2296773D1*
X2096986Y2297645D1*
X2154889Y2297754D1*
X2852477Y2297645D1*
X2857980Y2296773D1*
X2863277Y2295052D1*
X2868241Y2292523D1*
X2872747Y2289249D1*
X2913768Y2248382D1*
X3083140Y2079011D1*
X3150078Y2079018D1*
X3145666Y2082439D1*
X3138578Y2089527D1*
X3132686Y2097637D1*
X3128134Y2106570D1*
X3125036Y2116104D1*
X3123468Y2126006D1*
Y2136029D1*
X3125036Y2145931D1*
X3128134Y2155465D1*
X3132686Y2164398D1*
X3138578Y2172508D1*
X3145666Y2179596D1*
X3153776Y2185489D1*
X3162709Y2190040D1*
X3172243Y2193138D1*
X3182145Y2194707D1*
X3192169D1*
X3202070Y2193138D1*
X3211604Y2190040D1*
X3220537Y2185489D1*
X3228648Y2179596D1*
X3235735Y2172508D1*
X3241628Y2164398D1*
X3246179Y2155465D1*
X3249277Y2145931D1*
X3250846Y2136029D1*
Y2126006D1*
X3249277Y2116104D1*
X3246179Y2106570D1*
X3241628Y2097637D1*
X3235735Y2089527D1*
X3228648Y2082439D1*
X3222117Y2077602D1*
X3228271Y2075158D1*
X3233020Y2072247D1*
X3237264Y2068621D1*
X3283107Y2022779D1*
X3391588Y2022783D1*
X3396283Y2029331D1*
X3401331Y2034380D1*
X3407107Y2038577D1*
X3413469Y2041818D1*
X3420259Y2044024D1*
X3427312Y2045141D1*
X3434451D1*
X3441503Y2044024D1*
X3448293Y2041818D1*
X3454655Y2038577D1*
X3459280Y2035287D1*
X3478130Y2035172D1*
X3483633Y2034301D1*
X3488931Y2032579D1*
X3493894Y2030050D1*
X3498401Y2026776D1*
X3502340Y2022836D1*
X3505615Y2018330D1*
X3508144Y2013367D1*
X3509955Y2008407D1*
X3570364Y1947844D1*
X3573638Y1943338D1*
X3576167Y1938375D1*
X3577889Y1933077D1*
X3578760Y1927574D1*
Y1922004D1*
X3577889Y1916502D1*
X3576367Y1911746D1*
X3576380Y1851627D1*
X3584235Y1853455D1*
X3593700Y1854200D1*
X3603165Y1853455D1*
X3612396Y1851239D1*
X3621166Y1847606D1*
X3629260Y1842645D1*
X3636480Y1836480D1*
X3642645Y1829260D1*
X3643704Y1827763D1*
X3648023Y1833372D1*
X3653167Y1838615D1*
X3658909Y1843195D1*
X3665162Y1847046D1*
X3671836Y1850111D1*
X3678833Y1852344D1*
X3686049Y1853714D1*
X3693377Y1854199D1*
X3700710Y1853792D1*
X3707940Y1852501D1*
X3714961Y1850342D1*
X3721667Y1847347D1*
X3727962Y1843564D1*
X3733751Y1839044D1*
X3737025Y1835918D1*
X3737027Y2166990D1*
X3731557Y2161970D1*
X3724897Y2156720D1*
X3717847Y2152008D1*
X3710448Y2147865D1*
X3702746Y2144314D1*
X3694791Y2141380D1*
X3686629Y2139078D1*
X3678312Y2137423D1*
X3669890Y2136427D1*
X3661417Y2136094D1*
X3652943Y2136427D1*
X3644522Y2137423D1*
X3636204Y2139078D1*
X3628043Y2141380D1*
X3620087Y2144314D1*
X3612385Y2147865D1*
X3604986Y2152008D1*
X3597936Y2156720D1*
X3591276Y2161970D1*
X3585049Y2167726D1*
X3579293Y2173953D1*
X3574043Y2180613D1*
X3569331Y2187663D1*
X3565188Y2195062D1*
X3561637Y2202764D1*
X3558703Y2210720D1*
X3556401Y2218881D1*
X3554746Y2227199D1*
X3553750Y2235620D1*
X3553417Y2244094D1*
X3553750Y2252567D1*
X3554746Y2260989D1*
X3556401Y2269306D1*
X3558703Y2277468D1*
X3561637Y2285423D1*
X3565188Y2293125D1*
X3569331Y2300524D1*
X3574043Y2307574D1*
X3579293Y2314234D1*
X3584172Y2319704D1*
X3040850D1*
X3045380Y2313001D1*
X3048733Y2306465D1*
X3051313Y2299588D1*
X3053086Y2292460D1*
X3054029Y2285176D1*
X3054086Y2276952D1*
X3053243Y2269655D1*
X3051569Y2262503D1*
X3049083Y2255591D1*
X3045822Y2249010D1*
X3041826Y2242847D1*
X3037150Y2237183D1*
X3031854Y2232094D1*
X3026010Y2227645D1*
X3019692Y2223898D1*
X3012987Y2220899D1*
X3005982Y2218691D1*
X2998770Y2217301D1*
X2991445Y2216749D1*
X2984106Y2217040D1*
X2976848Y2218171D1*
X2969770Y2220129D1*
X2962961Y2222886D1*
X2956515Y2226406D1*
X2950515Y2230644D1*
X2945041Y2235541D1*
X2940166Y2241035D1*
X2935953Y2247052D1*
X2932459Y2253512D1*
X2929729Y2260331D1*
X2927800Y2267418D1*
X2926697Y2274680D1*
X2926436Y2282020D1*
X2927018Y2289342D1*
X2928438Y2296549D1*
X2930674Y2303545D1*
X2933699Y2310238D1*
X2937472Y2316540D1*
X2939771Y2319704D1*
X1919254D1*
X1921871Y2315109D1*
X1923549Y2309871D1*
X1924024Y2306222D1*
X1924066Y2150427D1*
X1922785Y2135317D2*
X1924684Y2137372D1*
X3412039Y562527D2*
D31*
Y511472D1*
X3357046Y562527D2*
X3467031D1*
X1874794Y2108241D2*
Y1991312D1*
X1799802Y699149D2*
Y478220D1*
X1689338Y588684D2*
X1910267D1*
X1984842Y817259D2*
Y596330D1*
X1874377Y706794D2*
X2095306D1*
X3693700Y1854165D2*
Y1733235D1*
X2990306Y2280624D2*
Y2216773D1*
X2926456Y2280624D2*
X3054157D1*
X1018634Y524936D2*
Y466872D1*
X960570Y524936D2*
X1076699D1*
X1243611D2*
Y466872D1*
X1185546Y524936D2*
X1301675D1*
X1468587D2*
Y466872D1*
X1410523Y524936D2*
X1526651D1*
X438708Y831700D2*
X548692D1*
X2441661Y633700D2*
X2545739D1*
X693700Y2073692D2*
Y2018700D1*
X638708D2*
X693700D1*
X638708Y1918700D2*
X693700D1*
Y1818700D2*
Y1763708D1*
X638708Y1818700D2*
X693700D1*
Y1423692D2*
Y1368700D1*
X638708D2*
X693700D1*
X638708Y1268700D2*
X693700D1*
Y1168700D2*
Y1113708D1*
X638708Y1168700D2*
X693700D1*
X3693700Y1725134D2*
Y1612266D1*
X924923Y1387335D2*
X1049852D1*
X924923Y1287335D2*
X1049852D1*
X3585165Y856151D2*
X3714834D1*
X2937574Y728700D2*
X2994535D1*
X2983905Y621613D2*
Y550873D1*
X2913165Y621613D2*
X3054645D1*
X3259495D2*
Y550873D1*
X3188755Y621613D2*
X3330235D1*
X3188755Y835787D2*
X3330235D1*
X1868566Y2224758D2*
Y2119271D1*
X1813079Y2224758D2*
X1924053D1*
X1613079D2*
X1724053D1*
D32*
X1768556Y2043527D3*
D35*
X3412039Y562527D3*
Y637330D3*
D32*
X1874794Y2049776D3*
D37*
X1799802Y824905D3*
Y588684D3*
X1984842Y706794D3*
D38*
X3068419Y1962285D3*
D39*
X2968419D3*
X2868419D3*
X2768419D3*
X2668419D3*
X2568419D3*
D40*
X3693700Y1793700D3*
X3593700D3*
X3493700D3*
X3393700D3*
X3293700D3*
X3193700D3*
X3093700D3*
X2993700D3*
X2893700D3*
X2793700D3*
X2693700D3*
X2593700D3*
X2493700D3*
X2393700D3*
X3693700Y943700D3*
X3593700D3*
X3493700D3*
X3393700D3*
X3293700D3*
X3193700D3*
X3093700D3*
X2993700D3*
X2893700D3*
X2793700D3*
X2693700D3*
X2593700D3*
X2493700D3*
X2393700D3*
D38*
X2218700Y1168700D3*
D39*
X2118700D3*
X2218700Y1268700D3*
X2118700D3*
X2218700Y1368700D3*
X2118700D3*
X2218700Y1468700D3*
X2118700D3*
X2218700Y1568700D3*
X2118700D3*
D41*
X3068700Y518700D3*
X3168700D3*
D51*
X3187157Y2131018D3*
X2990306Y2280624D3*
X2793456Y2131018D3*
D52*
X1018634Y524936D3*
Y624936D3*
Y724936D3*
X1243611Y524936D3*
Y624936D3*
Y724936D3*
X1468587Y524936D3*
Y624936D3*
Y724936D3*
D38*
X493700Y731700D3*
D39*
Y831700D3*
Y931700D3*
Y1031700D3*
Y1131700D3*
Y1231700D3*
Y1331700D3*
Y1431700D3*
Y1531700D3*
Y1631700D3*
Y1731700D3*
Y1831700D3*
Y1931700D3*
Y2031700D3*
D53*
X2493700Y568700D3*
Y633700D3*
Y703700D3*
Y768700D3*
D38*
X693700Y2018700D3*
D39*
X793700D3*
X693700Y1918700D3*
X793700D3*
X693700Y1818700D3*
X793700D3*
D38*
X693700Y1368700D3*
D39*
X793700D3*
X693700Y1268700D3*
X793700D3*
X693700Y1168700D3*
X793700D3*
D60*
X3693700Y1668700D3*
X3593700D3*
X3493700D3*
X3393700D3*
X3293700D3*
X3193700D3*
X3093700D3*
X2993700D3*
X2893700D3*
X2793700D3*
X2693700D3*
X2593700D3*
X2493700D3*
X2393700D3*
Y1568700D3*
Y1468700D3*
Y1368700D3*
Y1268700D3*
Y1168700D3*
Y1068700D3*
X2493700D3*
X2593700D3*
X2693700D3*
X2793700D3*
X2893700D3*
X2993700D3*
X3093700D3*
X3193700D3*
X3293700D3*
X3393700D3*
X3493700D3*
X3593700D3*
X3693700D3*
X3593700Y1168700D3*
D61*
X3671700Y1323700D3*
D60*
X2693700Y1568700D3*
X2593700Y1468700D3*
Y1368700D3*
D61*
X3671700Y1413700D3*
D60*
X2593700Y1568700D3*
X2693700Y1468700D3*
Y1368700D3*
Y1268700D3*
Y1168700D3*
X2593700Y1268700D3*
Y1168700D3*
D62*
X987388Y1487335D3*
D41*
Y1387335D3*
Y1287335D3*
Y1087335D3*
Y1187335D3*
D47*
X3649999Y856151D3*
Y806151D3*
Y756151D3*
Y706151D3*
X3437401D3*
Y756151D3*
Y806151D3*
Y856151D3*
D64*
X3230755Y728700D3*
D65*
X3152015D3*
X3073275D3*
X2994535D3*
D66*
X2983905Y621613D3*
Y835787D3*
X3259495Y621613D3*
Y835787D3*
D146*
X1868566Y2224758D3*
X1668566D3*
M02*
