G04 DipTrace 3.3.1.3*
G04 Teensy4.0TouchDisplayLoRaV0.2.gbo*
%MOIN*%
G04 #@! TF.FileFunction,Legend,Bot*
G04 #@! TF.Part,Single*
%ADD10C,0.009843*%
%ADD138C,0.006176*%
%ADD139C,0.007*%
%FSLAX26Y26*%
G04*
G70*
G90*
G75*
G01*
G04 BotSilk*
%LPD*%
X3386468Y521167D2*
D10*
X3437609D1*
X3594888Y879579D2*
Y682724D1*
X3492512Y879579D2*
Y682724D1*
X3594888D2*
X3492512D1*
X3563394Y879579D2*
X3594888D1*
X3524006D2*
X3492512D1*
X3563394D2*
G02X3524006Y879579I-19694J9D01*
G01*
X3333483Y596318D2*
D138*
X3329681Y598220D1*
X3325834Y602066D1*
X3323933Y605869D1*
Y613518D1*
X3325834Y617365D1*
X3329681Y621167D1*
X3333483Y623113D1*
X3339231Y625014D1*
X3348826D1*
X3354530Y623113D1*
X3358377Y621167D1*
X3362179Y617365D1*
X3364125Y613518D1*
Y605869D1*
X3362179Y602066D1*
X3358377Y598220D1*
X3354530Y596318D1*
X3337330Y559074D2*
X3343078Y561019D1*
X3346925Y564822D1*
X3348826Y570570D1*
Y572471D1*
X3346925Y578219D1*
X3343078Y582021D1*
X3337330Y583967D1*
X3335429D1*
X3329681Y582021D1*
X3325878Y578219D1*
X3323977Y572471D1*
Y570570D1*
X3325878Y564822D1*
X3329681Y561019D1*
X3337330Y559074D1*
X3346925D1*
X3356475Y561019D1*
X3362223Y564822D1*
X3364125Y570570D1*
Y574372D1*
X3362223Y580120D1*
X3358377Y582021D1*
X3576670Y803657D2*
Y774961D1*
X3574769Y769213D1*
X3570922Y765411D1*
X3565174Y763465D1*
X3561372D1*
X3555624Y765411D1*
X3551777Y769213D1*
X3549876Y774961D1*
Y803657D1*
X3529875Y763465D2*
X3510730Y803613D1*
X3537524D1*
X2008251Y2283129D2*
D139*
Y2313273D1*
X2028347Y2283129D2*
X2008251Y2303225D1*
X2015414Y2296029D2*
X2028347Y2313273D1*
X2042347Y2293177D2*
Y2307536D1*
X2043773Y2311814D1*
X2046658Y2313273D1*
X2050969D1*
X2053821Y2311814D1*
X2058132Y2307536D1*
Y2293177D2*
Y2313273D1*
X2072132Y2293177D2*
Y2313273D1*
Y2301799D2*
X2073591Y2297488D1*
X2076443Y2294603D1*
X2079328Y2293177D1*
X2083639D1*
X2101950Y2283129D2*
Y2307536D1*
X2103376Y2311814D1*
X2106261Y2313273D1*
X2109113D1*
X2097639Y2293177D2*
X2107687D1*
X2130309Y2283162D2*
X2123113Y2291784D1*
X2131735Y2284588D1*
X2130309Y2283162D1*
X2161520Y2297488D2*
X2160094Y2294603D1*
X2155783Y2293177D1*
X2151472D1*
X2147161Y2294603D1*
X2145735Y2297488D1*
X2147161Y2300340D1*
X2150046Y2301799D1*
X2157209Y2303225D1*
X2160094Y2304651D1*
X2161520Y2307536D1*
Y2308962D1*
X2160094Y2311814D1*
X2155783Y2313273D1*
X2151472D1*
X2147161Y2311814D1*
X2145735Y2308962D1*
X2219465Y2283129D2*
Y2313273D1*
X2209417Y2283129D2*
X2229513D1*
X2243513Y2301799D2*
X2260724D1*
Y2298914D1*
X2259298Y2296029D1*
X2257872Y2294603D1*
X2254987Y2293177D1*
X2250676D1*
X2247824Y2294603D1*
X2244939Y2297488D1*
X2243513Y2301799D1*
Y2304651D1*
X2244939Y2308962D1*
X2247824Y2311814D1*
X2250676Y2313273D1*
X2254987D1*
X2257872Y2311814D1*
X2260724Y2308962D1*
X2274724Y2301799D2*
X2291935D1*
Y2298914D1*
X2290509Y2296029D1*
X2289083Y2294603D1*
X2286198Y2293177D1*
X2281887D1*
X2279035Y2294603D1*
X2276150Y2297488D1*
X2274724Y2301799D1*
Y2304651D1*
X2276150Y2308962D1*
X2279035Y2311814D1*
X2281887Y2313273D1*
X2286198D1*
X2289083Y2311814D1*
X2291935Y2308962D1*
X2305935Y2293177D2*
Y2313273D1*
Y2298914D2*
X2310246Y2294603D1*
X2313131Y2293177D1*
X2317409D1*
X2320294Y2294603D1*
X2321720Y2298914D1*
Y2313273D1*
X2351505Y2297488D2*
X2350079Y2294603D1*
X2345768Y2293177D1*
X2341457D1*
X2337146Y2294603D1*
X2335720Y2297488D1*
X2337146Y2300340D1*
X2340031Y2301799D1*
X2347194Y2303225D1*
X2350079Y2304651D1*
X2351505Y2307536D1*
Y2308962D1*
X2350079Y2311814D1*
X2345768Y2313273D1*
X2341457D1*
X2337146Y2311814D1*
X2335720Y2308962D1*
X2366964Y2293177D2*
X2375553Y2313273D1*
X2372701Y2319010D1*
X2369816Y2321895D1*
X2366964Y2323321D1*
X2365505D1*
X2384175Y2293177D2*
X2375553Y2313273D1*
X2446431D2*
Y2283162D1*
X2432072Y2303225D1*
X2453594D1*
X2523013Y2290292D2*
X2521587Y2287440D1*
X2518702Y2284555D1*
X2515850Y2283129D1*
X2510113D1*
X2507228Y2284555D1*
X2504376Y2287440D1*
X2502917Y2290292D1*
X2501491Y2294603D1*
Y2301799D1*
X2502917Y2306077D1*
X2504376Y2308962D1*
X2507228Y2311814D1*
X2510113Y2313273D1*
X2515850D1*
X2518702Y2311814D1*
X2521587Y2308962D1*
X2523013Y2306077D1*
Y2301799D1*
X2515850D1*
X2537013Y2298914D2*
X2549946D1*
X2554224Y2297488D1*
X2555683Y2296029D1*
X2557109Y2293177D1*
Y2288866D1*
X2555683Y2286014D1*
X2554224Y2284555D1*
X2549946Y2283129D1*
X2537013D1*
Y2313273D1*
X2605006Y2283129D2*
Y2313273D1*
X2617939D1*
X2622250Y2311814D1*
X2623676Y2310388D1*
X2625102Y2307536D1*
Y2303225D1*
X2623676Y2300340D1*
X2622250Y2298914D1*
X2617939Y2297488D1*
X2622250Y2296029D1*
X2623676Y2294603D1*
X2625102Y2291751D1*
Y2288866D1*
X2623676Y2286014D1*
X2622250Y2284555D1*
X2617939Y2283129D1*
X2605006D1*
Y2297488D2*
X2617939D1*
X2646265Y2293177D2*
X2643413Y2294603D1*
X2640528Y2297488D1*
X2639102Y2301799D1*
Y2304651D1*
X2640528Y2308962D1*
X2643413Y2311814D1*
X2646265Y2313273D1*
X2650576D1*
X2653461Y2311814D1*
X2656313Y2308962D1*
X2657772Y2304651D1*
Y2301799D1*
X2656313Y2297488D1*
X2653461Y2294603D1*
X2650576Y2293177D1*
X2646265D1*
X2688983D2*
Y2313273D1*
Y2297488D2*
X2686131Y2294603D1*
X2683246Y2293177D1*
X2678968D1*
X2676083Y2294603D1*
X2673231Y2297488D1*
X2671772Y2301799D1*
Y2304651D1*
X2673231Y2308962D1*
X2676083Y2311814D1*
X2678968Y2313273D1*
X2683246D1*
X2686131Y2311814D1*
X2688983Y2308962D1*
X2702983Y2293177D2*
Y2313273D1*
Y2301799D2*
X2704442Y2297488D1*
X2707294Y2294603D1*
X2710179Y2293177D1*
X2714490D1*
X2745701Y2283129D2*
Y2313273D1*
Y2297488D2*
X2742849Y2294603D1*
X2739964Y2293177D1*
X2735653D1*
X2732801Y2294603D1*
X2729916Y2297488D1*
X2728490Y2301799D1*
Y2304651D1*
X2729916Y2308962D1*
X2732801Y2311814D1*
X2735653Y2313273D1*
X2739964D1*
X2742849Y2311814D1*
X2745701Y2308962D1*
X644471Y2035667D2*
Y2005523D1*
X634423D1*
X630112Y2006983D1*
X627227Y2009834D1*
X625801Y2012720D1*
X624375Y2016997D1*
Y2024193D1*
X625801Y2028505D1*
X627227Y2031356D1*
X630112Y2034241D1*
X634423Y2035667D1*
X644471D1*
X607490Y2035634D2*
X591738D1*
X600327Y2024160D1*
X596016D1*
X593164Y2022734D1*
X591738Y2021308D1*
X590279Y2016997D1*
Y2014145D1*
X591738Y2009834D1*
X594590Y2006949D1*
X598901Y2005523D1*
X603212D1*
X607490Y2006949D1*
X608916Y2008409D1*
X610375Y2011260D1*
X574820Y2028471D2*
Y2029897D1*
X573394Y2032782D1*
X571968Y2034208D1*
X569083Y2035634D1*
X563346D1*
X560494Y2034208D1*
X559068Y2032782D1*
X557609Y2029897D1*
Y2027045D1*
X559068Y2024160D1*
X561920Y2019882D1*
X576279Y2005523D1*
X556183D1*
X619072Y1941927D2*
Y1911783D1*
X609024D1*
X604713Y1913242D1*
X601828Y1916094D1*
X600402Y1918979D1*
X598976Y1923257D1*
Y1930453D1*
X600402Y1934764D1*
X601828Y1937616D1*
X604713Y1940501D1*
X609024Y1941927D1*
X619072D1*
X584976Y1936157D2*
X582091Y1937616D1*
X577780Y1941894D1*
Y1911783D1*
X562321Y1934731D2*
Y1936157D1*
X560895Y1939042D1*
X559469Y1940468D1*
X556584Y1941894D1*
X550847D1*
X547995Y1940468D1*
X546569Y1939042D1*
X545110Y1936157D1*
Y1933305D1*
X546569Y1930420D1*
X549421Y1926142D1*
X563780Y1911783D1*
X543684D1*
X618671Y1835688D2*
Y1805544D1*
X608623D1*
X604312Y1807004D1*
X601427Y1809855D1*
X600001Y1812741D1*
X598575Y1817018D1*
Y1824214D1*
X600001Y1828526D1*
X601427Y1831377D1*
X604312Y1834262D1*
X608623Y1835688D1*
X618671D1*
X584575Y1829918D2*
X581690Y1831377D1*
X577379Y1835655D1*
Y1805544D1*
X563379Y1829918D2*
X560494Y1831377D1*
X556183Y1835655D1*
Y1805544D1*
X625322Y1741948D2*
Y1711804D1*
X615274D1*
X610963Y1713263D1*
X608078Y1716115D1*
X606652Y1719000D1*
X605226Y1723278D1*
Y1730474D1*
X606652Y1734785D1*
X608078Y1737637D1*
X610963Y1740522D1*
X615274Y1741948D1*
X625322D1*
X588341Y1741915D2*
X572589D1*
X581178Y1730441D1*
X576867D1*
X574015Y1729015D1*
X572589Y1727589D1*
X571130Y1723278D1*
Y1720426D1*
X572589Y1716115D1*
X575441Y1713230D1*
X579752Y1711804D1*
X584063D1*
X588341Y1713230D1*
X589767Y1714689D1*
X591226Y1717541D1*
X557130Y1736178D2*
X554245Y1737637D1*
X549934Y1741915D1*
Y1711804D1*
X626748Y1641959D2*
Y1611815D1*
X616700D1*
X612389Y1613274D1*
X609504Y1616126D1*
X608078Y1619011D1*
X606652Y1623289D1*
Y1630485D1*
X608078Y1634796D1*
X609504Y1637648D1*
X612389Y1640533D1*
X616700Y1641959D1*
X626748D1*
X592652Y1636189D2*
X589767Y1637648D1*
X585456Y1641926D1*
Y1611815D1*
X557097D2*
Y1641926D1*
X571456Y1621863D1*
X549934D1*
X625322Y1541969D2*
Y1511825D1*
X615274D1*
X610963Y1513284D1*
X608078Y1516136D1*
X606652Y1519021D1*
X605226Y1523299D1*
Y1530495D1*
X606652Y1534806D1*
X608078Y1537658D1*
X610963Y1540543D1*
X615274Y1541969D1*
X625322D1*
X591226Y1536199D2*
X588341Y1537658D1*
X584030Y1541936D1*
Y1511825D1*
X568570Y1534773D2*
Y1536199D1*
X567145Y1539084D1*
X565719Y1540510D1*
X562834Y1541936D1*
X557097D1*
X554245Y1540510D1*
X552819Y1539084D1*
X551360Y1536199D1*
Y1533347D1*
X552819Y1530462D1*
X555671Y1526184D1*
X570030Y1511825D1*
X549934D1*
X676629Y1441980D2*
Y1411836D1*
X666581D1*
X662270Y1413295D1*
X659385Y1416147D1*
X657959Y1419032D1*
X656533Y1423310D1*
Y1430506D1*
X657959Y1434817D1*
X659385Y1437669D1*
X662270Y1440554D1*
X666581Y1441980D1*
X676629D1*
X641074Y1434784D2*
Y1436210D1*
X639648Y1439095D1*
X638222Y1440521D1*
X635337Y1441947D1*
X629600D1*
X626748Y1440521D1*
X625322Y1439095D1*
X623863Y1436210D1*
Y1433358D1*
X625322Y1430473D1*
X628174Y1426195D1*
X642533Y1411836D1*
X622437D1*
X589767Y1431932D2*
X591226Y1427621D1*
X594078Y1424736D1*
X598389Y1423310D1*
X599815D1*
X604126Y1424736D1*
X606978Y1427621D1*
X608437Y1431932D1*
Y1433358D1*
X606978Y1437669D1*
X604126Y1440521D1*
X599815Y1441947D1*
X598389D1*
X594078Y1440521D1*
X591226Y1437669D1*
X589767Y1431932D1*
Y1424736D1*
X591226Y1417573D1*
X594078Y1413262D1*
X598389Y1411836D1*
X601241D1*
X605552Y1413262D1*
X606978Y1416147D1*
X562867Y1439808D2*
Y1413975D1*
X575767Y1426875D2*
X549934D1*
X626748Y1341990D2*
Y1311846D1*
X616700D1*
X612389Y1313305D1*
X609504Y1316157D1*
X608078Y1319042D1*
X606652Y1323320D1*
Y1330516D1*
X608078Y1334827D1*
X609504Y1337679D1*
X612389Y1340564D1*
X616700Y1341990D1*
X626748D1*
X592652Y1336220D2*
X589767Y1337679D1*
X585456Y1341957D1*
Y1311846D1*
X557097D2*
Y1341957D1*
X571456Y1321894D1*
X549934D1*
X612422Y1242001D2*
Y1211857D1*
X602374D1*
X598063Y1213316D1*
X595178Y1216168D1*
X593752Y1219053D1*
X592326Y1223331D1*
Y1230527D1*
X593752Y1234838D1*
X595178Y1237690D1*
X598063Y1240575D1*
X602374Y1242001D1*
X612422D1*
X578326Y1236231D2*
X575441Y1237690D1*
X571130Y1241968D1*
Y1211857D1*
X557130Y1236231D2*
X554245Y1237690D1*
X549934Y1241968D1*
Y1211857D1*
X619072Y1142011D2*
Y1111867D1*
X609024D1*
X604713Y1113326D1*
X601828Y1116178D1*
X600402Y1119063D1*
X598976Y1123341D1*
Y1130537D1*
X600402Y1134848D1*
X601828Y1137700D1*
X604713Y1140585D1*
X609024Y1142011D1*
X619072D1*
X584976Y1136241D2*
X582091Y1137700D1*
X577780Y1141978D1*
Y1111867D1*
X555158Y1141978D2*
X559469Y1140552D1*
X562354Y1136241D1*
X563780Y1129078D1*
Y1124767D1*
X562354Y1117604D1*
X559469Y1113293D1*
X555158Y1111867D1*
X552306D1*
X547995Y1113293D1*
X545143Y1117604D1*
X543684Y1124767D1*
Y1129078D1*
X545143Y1136241D1*
X547995Y1140552D1*
X552306Y1141978D1*
X555158D1*
X545143Y1136241D2*
X562354Y1117604D1*
X649337Y1054487D2*
X633585D1*
X642174Y1043013D1*
X637863D1*
X635011Y1041587D1*
X633585Y1040161D1*
X632126Y1035850D1*
Y1032999D1*
X633585Y1028687D1*
X636437Y1025802D1*
X640748Y1024376D1*
X645059D1*
X649337Y1025802D1*
X650762Y1027262D1*
X652222Y1030113D1*
X616700Y1027262D2*
X618126Y1025802D1*
X616700Y1024376D1*
X615241Y1025802D1*
X616700Y1027262D1*
X598355Y1054487D2*
X582604D1*
X591193Y1043013D1*
X586882D1*
X584030Y1041587D1*
X582604Y1040161D1*
X581145Y1035850D1*
Y1032999D1*
X582604Y1028687D1*
X585456Y1025802D1*
X589767Y1024376D1*
X594078D1*
X598355Y1025802D1*
X599781Y1027262D1*
X601241Y1030113D1*
X567145Y1044472D2*
X558522Y1024376D1*
X549934Y1044472D1*
X602700Y935783D2*
Y905639D1*
X592652D1*
X588341Y907098D1*
X585456Y909950D1*
X584030Y912835D1*
X582604Y917113D1*
Y924309D1*
X584030Y928620D1*
X585456Y931472D1*
X588341Y934357D1*
X592652Y935783D1*
X602700D1*
X549934Y925735D2*
X551393Y921424D1*
X554245Y918539D1*
X558556Y917113D1*
X559982D1*
X564293Y918539D1*
X567145Y921424D1*
X568604Y925735D1*
Y927161D1*
X567145Y931472D1*
X564293Y934324D1*
X559982Y935750D1*
X558556D1*
X554245Y934324D1*
X551393Y931472D1*
X549934Y925735D1*
Y918539D1*
X551393Y911376D1*
X554245Y907065D1*
X558556Y905639D1*
X561408D1*
X565719Y907065D1*
X567145Y909950D1*
X618126Y828630D2*
X619552Y831482D1*
X622437Y834367D1*
X625289Y835793D1*
X631026D1*
X633911Y834367D1*
X636762Y831482D1*
X638222Y828630D1*
X639648Y824319D1*
Y817123D1*
X638222Y812846D1*
X636762Y809960D1*
X633911Y807109D1*
X631026Y805649D1*
X625289D1*
X622437Y807109D1*
X619552Y809960D1*
X618126Y812846D1*
Y817123D1*
X625289D1*
X584030Y835793D2*
Y805649D1*
X604126Y835793D1*
Y805649D1*
X570030Y835793D2*
Y805649D1*
X559982D1*
X555671Y807109D1*
X552786Y809960D1*
X551360Y812846D1*
X549934Y817123D1*
Y824319D1*
X551360Y828630D1*
X552786Y831482D1*
X555671Y834367D1*
X559982Y835793D1*
X570030D1*
X2416034Y880018D2*
X2413149Y881477D1*
X2408838Y885755D1*
Y855644D1*
X2391953Y885755D2*
X2376201D1*
X2384790Y874281D1*
X2380479D1*
X2377627Y872855D1*
X2376201Y871429D1*
X2374742Y867118D1*
Y864266D1*
X2376201Y859955D1*
X2379053Y857070D1*
X2383364Y855644D1*
X2387675D1*
X2391953Y857070D1*
X2393379Y858529D1*
X2394838Y861381D1*
X2528257Y880018D2*
X2525372Y881477D1*
X2521061Y885755D1*
Y855644D1*
X2492702D2*
Y885755D1*
X2507061Y865692D1*
X2485539D1*
X2620304Y880018D2*
X2617419Y881477D1*
X2613108Y885755D1*
Y855644D1*
X2581897Y885755D2*
X2596223D1*
X2597649Y872855D1*
X2596223Y874281D1*
X2591912Y875740D1*
X2587634D1*
X2583323Y874281D1*
X2580438Y871429D1*
X2579012Y867118D1*
Y864266D1*
X2580438Y859955D1*
X2583323Y857070D1*
X2587634Y855644D1*
X2591912D1*
X2596223Y857070D1*
X2597649Y858529D1*
X2599108Y861381D1*
X2717143Y880018D2*
X2714258Y881477D1*
X2709947Y885755D1*
Y855644D1*
X2678736Y881477D2*
X2680162Y884329D1*
X2684473Y885755D1*
X2687325D1*
X2691636Y884329D1*
X2694521Y880018D1*
X2695947Y872855D1*
Y865692D1*
X2694521Y859955D1*
X2691636Y857070D1*
X2687325Y855644D1*
X2685899D1*
X2681621Y857070D1*
X2678736Y859955D1*
X2677310Y864266D1*
Y865692D1*
X2678736Y870003D1*
X2681621Y872855D1*
X2685899Y874281D1*
X2687325D1*
X2691636Y872855D1*
X2694521Y870003D1*
X2695947Y865692D1*
X2815441Y880018D2*
X2812556Y881477D1*
X2808245Y885755D1*
Y855644D1*
X2788508D2*
X2774149Y885755D1*
X2794245D1*
X2919955Y880018D2*
X2917070Y881477D1*
X2912759Y885755D1*
Y855644D1*
X2891596Y885755D2*
X2895874Y884329D1*
X2897333Y881477D1*
Y878592D1*
X2895874Y875740D1*
X2893022Y874281D1*
X2887285Y872855D1*
X2882974Y871429D1*
X2880122Y868544D1*
X2878696Y865692D1*
Y861381D1*
X2880122Y858529D1*
X2881548Y857070D1*
X2885859Y855644D1*
X2891596D1*
X2895874Y857070D1*
X2897333Y858529D1*
X2898759Y861381D1*
Y865692D1*
X2897333Y868544D1*
X2894448Y871429D1*
X2890170Y872855D1*
X2884433Y874281D1*
X2881548Y875740D1*
X2880122Y878592D1*
Y881477D1*
X2881548Y884329D1*
X2885859Y885755D1*
X2891596D1*
X3010577Y1148740D2*
X3007692Y1150199D1*
X3003381Y1154477D1*
Y1124366D1*
X2970710Y1144462D2*
X2972170Y1140151D1*
X2975022Y1137266D1*
X2979333Y1135840D1*
X2980758D1*
X2985070Y1137266D1*
X2987921Y1140151D1*
X2989381Y1144462D1*
Y1145888D1*
X2987921Y1150199D1*
X2985070Y1153051D1*
X2980758Y1154477D1*
X2979333D1*
X2975022Y1153051D1*
X2972170Y1150199D1*
X2970710Y1144462D1*
Y1137266D1*
X2972170Y1130103D1*
X2975022Y1125792D1*
X2979333Y1124366D1*
X2982184D1*
X2986495Y1125792D1*
X2987921Y1128677D1*
X3120315Y1147314D2*
Y1148740D1*
X3118889Y1151625D1*
X3117463Y1153051D1*
X3114578Y1154477D1*
X3108841D1*
X3105989Y1153051D1*
X3104563Y1151625D1*
X3103104Y1148740D1*
Y1145888D1*
X3104563Y1143003D1*
X3107415Y1138725D1*
X3121774Y1124366D1*
X3101678D1*
X3079056Y1154477D2*
X3083367Y1153051D1*
X3086252Y1148740D1*
X3087678Y1141577D1*
Y1137266D1*
X3086252Y1130103D1*
X3083367Y1125792D1*
X3079056Y1124366D1*
X3076204D1*
X3071893Y1125792D1*
X3069041Y1130103D1*
X3067582Y1137266D1*
Y1141577D1*
X3069041Y1148740D1*
X3071893Y1153051D1*
X3076204Y1154477D1*
X3079056D1*
X3069041Y1148740D2*
X3086252Y1130103D1*
X3212362Y1147314D2*
Y1148740D1*
X3210936Y1151625D1*
X3209510Y1153051D1*
X3206625Y1154477D1*
X3200888D1*
X3198037Y1153051D1*
X3196611Y1151625D1*
X3195151Y1148740D1*
Y1145888D1*
X3196611Y1143003D1*
X3199462Y1138725D1*
X3213821Y1124366D1*
X3193725D1*
X3179725Y1148740D2*
X3176840Y1150199D1*
X3172529Y1154477D1*
Y1124366D1*
X3317311Y1147314D2*
Y1148740D1*
X3315885Y1151625D1*
X3314459Y1153051D1*
X3311574Y1154477D1*
X3305837D1*
X3302985Y1153051D1*
X3301559Y1151625D1*
X3300100Y1148740D1*
Y1145888D1*
X3301559Y1143003D1*
X3304411Y1138725D1*
X3318770Y1124366D1*
X3298674D1*
X3283215Y1147314D2*
Y1148740D1*
X3281789Y1151625D1*
X3280363Y1153051D1*
X3277478Y1154477D1*
X3271741D1*
X3268889Y1153051D1*
X3267463Y1151625D1*
X3266004Y1148740D1*
Y1145888D1*
X3267463Y1143003D1*
X3270315Y1138725D1*
X3284674Y1124366D1*
X3264578D1*
X3629498Y1012737D2*
Y998389D1*
X3628548Y995515D1*
X3626624Y993614D1*
X3623750Y992641D1*
X3621849D1*
X3618975Y993614D1*
X3617052Y995515D1*
X3616101Y998389D1*
Y1012737D1*
X3588704Y1009863D2*
X3590605Y1011787D1*
X3593479Y1012737D1*
X3597304D1*
X3600178Y1011787D1*
X3602101Y1009863D1*
Y1007962D1*
X3601128Y1006039D1*
X3600178Y1005088D1*
X3598276Y1004137D1*
X3592528Y1002214D1*
X3590605Y1001263D1*
X3589654Y1000291D1*
X3588704Y998389D1*
Y995515D1*
X3590605Y993614D1*
X3593479Y992641D1*
X3597304D1*
X3600178Y993614D1*
X3602101Y995515D1*
X3574704Y1012737D2*
Y992641D1*
X3566082D1*
X3563208Y993614D1*
X3562257Y994565D1*
X3561306Y996466D1*
Y999340D1*
X3562257Y1001263D1*
X3563208Y1002214D1*
X3566082Y1003165D1*
X3563208Y1004137D1*
X3562257Y1005088D1*
X3561306Y1006989D1*
Y1008913D1*
X3562257Y1010814D1*
X3563208Y1011787D1*
X3566082Y1012737D1*
X3574704D1*
Y1003165D2*
X3566082D1*
X3479939Y1014835D2*
X3472267Y994739D1*
X3464618Y1014835D1*
X3467492Y1008136D2*
X3477065D1*
X3508286Y999514D2*
X3507336Y997613D1*
X3505412Y995689D1*
X3503511Y994739D1*
X3499687D1*
X3497763Y995689D1*
X3495862Y997613D1*
X3494889Y999514D1*
X3493939Y1002388D1*
Y1007186D1*
X3494889Y1010037D1*
X3495862Y1011961D1*
X3497763Y1013862D1*
X3499687Y1014835D1*
X3503511D1*
X3505412Y1013862D1*
X3507336Y1011961D1*
X3508286Y1010037D1*
Y1007185D1*
X3503511Y1007186D1*
X3416009Y1147314D2*
Y1148740D1*
X3414583Y1151625D1*
X3413157Y1153051D1*
X3410272Y1154477D1*
X3404535D1*
X3401683Y1153051D1*
X3400257Y1151625D1*
X3398798Y1148740D1*
Y1145888D1*
X3400257Y1143003D1*
X3403109Y1138725D1*
X3417468Y1124366D1*
X3397372D1*
X3380487Y1154477D2*
X3364735D1*
X3373324Y1143003D1*
X3369013D1*
X3366161Y1141577D1*
X3364735Y1140151D1*
X3363276Y1135840D1*
Y1132988D1*
X3364735Y1128677D1*
X3367587Y1125792D1*
X3371898Y1124366D1*
X3376209D1*
X3380487Y1125792D1*
X3381913Y1127251D1*
X3383372Y1130103D1*
X3720501Y1011947D2*
Y994725D1*
X3729101Y1003325D2*
X3711879D1*
X3686405Y1013373D2*
X3695956D1*
X3696906Y1004773D1*
X3695956Y1005723D1*
X3693081Y1006696D1*
X3690230D1*
X3687356Y1005723D1*
X3685432Y1003822D1*
X3684482Y1000948D1*
Y999047D1*
X3685432Y996173D1*
X3687356Y994249D1*
X3690230Y993299D1*
X3693081D1*
X3695956Y994249D1*
X3696906Y995222D1*
X3697879Y997123D1*
X3670482Y1013395D2*
X3662832Y993299D1*
X3655183Y1013395D1*
X3186585Y1849290D2*
Y1879401D1*
X3200944Y1859338D1*
X3179422D1*
X3082225Y1879401D2*
X3096551D1*
X3097977Y1866501D1*
X3096551Y1867927D1*
X3092240Y1869386D1*
X3087962D1*
X3083651Y1867927D1*
X3080766Y1865075D1*
X3079340Y1860764D1*
Y1857912D1*
X3080766Y1853601D1*
X3083651Y1850716D1*
X3087962Y1849290D1*
X3092240D1*
X3096551Y1850716D1*
X3097977Y1852175D1*
X3099436Y1855027D1*
X2982144Y1875123D2*
X2983570Y1877975D1*
X2987881Y1879401D1*
X2990733D1*
X2995044Y1877975D1*
X2997929Y1873664D1*
X2999355Y1866501D1*
Y1859338D1*
X2997929Y1853601D1*
X2995044Y1850716D1*
X2990733Y1849290D1*
X2989307D1*
X2985029Y1850716D1*
X2982144Y1853601D1*
X2980718Y1857912D1*
Y1859338D1*
X2982144Y1863649D1*
X2985029Y1866501D1*
X2989307Y1867927D1*
X2990733D1*
X2995044Y1866501D1*
X2997929Y1863649D1*
X2999355Y1859338D1*
X2894995Y1849290D2*
X2880636Y1879401D1*
X2900732D1*
X2793487D2*
X2797765Y1877975D1*
X2799224Y1875123D1*
Y1872238D1*
X2797765Y1869386D1*
X2794913Y1867927D1*
X2789176Y1866501D1*
X2784865Y1865075D1*
X2782013Y1862190D1*
X2780587Y1859338D1*
Y1855027D1*
X2782013Y1852175D1*
X2783439Y1850716D1*
X2787750Y1849290D1*
X2793487D1*
X2797765Y1850716D1*
X2799224Y1852175D1*
X2800650Y1855027D1*
Y1859338D1*
X2799224Y1862190D1*
X2796339Y1865075D1*
X2792061Y1866501D1*
X2786324Y1867927D1*
X2783439Y1869386D1*
X2782013Y1872238D1*
Y1875123D1*
X2783439Y1877975D1*
X2787750Y1879401D1*
X2793487D1*
X2681931Y1869386D2*
X2683390Y1865075D1*
X2686242Y1862190D1*
X2690553Y1860764D1*
X2691979D1*
X2696290Y1862190D1*
X2699142Y1865075D1*
X2700601Y1869386D1*
Y1870812D1*
X2699142Y1875123D1*
X2696290Y1877975D1*
X2691979Y1879401D1*
X2690553D1*
X2686242Y1877975D1*
X2683390Y1875123D1*
X2681931Y1869386D1*
Y1862190D1*
X2683390Y1855027D1*
X2686242Y1850716D1*
X2690553Y1849290D1*
X2693405D1*
X2697716Y1850716D1*
X2699142Y1853601D1*
X2614444Y1873664D2*
X2611558Y1875123D1*
X2607247Y1879401D1*
Y1849290D1*
X2584625Y1879401D2*
X2588936Y1877975D1*
X2591821Y1873664D1*
X2593247Y1866501D1*
Y1862190D1*
X2591821Y1855027D1*
X2588936Y1850716D1*
X2584625Y1849290D1*
X2581773D1*
X2577462Y1850716D1*
X2574611Y1855027D1*
X2573151Y1862190D1*
Y1866501D1*
X2574611Y1873664D1*
X2577462Y1877975D1*
X2581773Y1879401D1*
X2584625D1*
X2574611Y1873664D2*
X2591821Y1855027D1*
X2505664Y1873664D2*
X2502779Y1875123D1*
X2498468Y1879401D1*
Y1849290D1*
X2484468Y1873664D2*
X2481583Y1875123D1*
X2477272Y1879401D1*
Y1849290D1*
X2409785Y1873664D2*
X2406900Y1875123D1*
X2402589Y1879401D1*
Y1849290D1*
X2387130Y1872238D2*
Y1873664D1*
X2385704Y1876549D1*
X2384278Y1877975D1*
X2381393Y1879401D1*
X2375656D1*
X2372804Y1877975D1*
X2371378Y1876549D1*
X2369919Y1873664D1*
Y1870812D1*
X2371378Y1867927D1*
X2374230Y1863649D1*
X2388589Y1849290D1*
X2368493D1*
X3304390Y1879401D2*
X3288638D1*
X3297227Y1867927D1*
X3292916D1*
X3290064Y1866501D1*
X3288638Y1865075D1*
X3287179Y1860764D1*
Y1857912D1*
X3288638Y1853601D1*
X3291490Y1850716D1*
X3295801Y1849290D1*
X3300112D1*
X3304390Y1850716D1*
X3305816Y1852175D1*
X3307275Y1855027D1*
X3399648Y1872238D2*
Y1873664D1*
X3398222Y1876549D1*
X3396796Y1877975D1*
X3393911Y1879401D1*
X3388174D1*
X3385322Y1877975D1*
X3383896Y1876549D1*
X3382437Y1873664D1*
Y1870812D1*
X3383896Y1867927D1*
X3386748Y1863649D1*
X3401107Y1849290D1*
X3381011D1*
X3494538Y1873664D2*
X3491653Y1875123D1*
X3487342Y1879401D1*
Y1849290D1*
X3592247Y1879401D2*
X3596558Y1877975D1*
X3599444Y1873664D1*
X3600869Y1866501D1*
Y1862190D1*
X3599444Y1855027D1*
X3596558Y1850716D1*
X3592247Y1849290D1*
X3589396D1*
X3585085Y1850716D1*
X3582233Y1855027D1*
X3580773Y1862190D1*
Y1866501D1*
X3582233Y1873664D1*
X3585085Y1877975D1*
X3589396Y1879401D1*
X3592247D1*
X3582233Y1873664D2*
X3599444Y1855027D1*
X3717800Y1872271D2*
X3719226Y1875123D1*
X3722111Y1878008D1*
X3724963Y1879434D1*
X3730700D1*
X3733585Y1878008D1*
X3736437Y1875123D1*
X3737896Y1872271D1*
X3739322Y1867960D1*
Y1860764D1*
X3737896Y1856486D1*
X3736437Y1853601D1*
X3733585Y1850749D1*
X3730700Y1849290D1*
X3724963D1*
X3722111Y1850749D1*
X3719226Y1853601D1*
X3717800Y1856486D1*
Y1860764D1*
X3724963D1*
X3683704Y1879434D2*
Y1849290D1*
X3703800Y1879434D1*
Y1849290D1*
X3669704Y1879434D2*
Y1849290D1*
X3659656D1*
X3655345Y1850749D1*
X3652460Y1853601D1*
X3651034Y1856486D1*
X3649608Y1860764D1*
Y1867960D1*
X3651034Y1872271D1*
X3652460Y1875123D1*
X3655345Y1878008D1*
X3659656Y1879434D1*
X3669704D1*
X2066439Y1172311D2*
Y1173737D1*
X2065013Y1176622D1*
X2063587Y1178048D1*
X2060702Y1179474D1*
X2054965D1*
X2052113Y1178048D1*
X2050687Y1176622D1*
X2049228Y1173737D1*
Y1170885D1*
X2050687Y1168000D1*
X2053539Y1163722D1*
X2067898Y1149363D1*
X2047802D1*
X2019443D2*
Y1179474D1*
X2033802Y1159411D1*
X2012280D1*
X2321236Y1178561D2*
Y1179987D1*
X2319810Y1182872D1*
X2318384Y1184298D1*
X2315499Y1185724D1*
X2309762D1*
X2306910Y1184298D1*
X2305484Y1182872D1*
X2304025Y1179987D1*
Y1177135D1*
X2305484Y1174250D1*
X2308336Y1169972D1*
X2322695Y1155613D1*
X2302599D1*
X2271388Y1185724D2*
X2285714D1*
X2287140Y1172824D1*
X2285714Y1174250D1*
X2281403Y1175709D1*
X2277125D1*
X2272814Y1174250D1*
X2269929Y1171398D1*
X2268503Y1167087D1*
Y1164235D1*
X2269929Y1159924D1*
X2272814Y1157039D1*
X2277125Y1155613D1*
X2281403D1*
X2285714Y1157039D1*
X2287140Y1158498D1*
X2288599Y1161350D1*
X2069803Y1272301D2*
Y1273727D1*
X2068377Y1276612D1*
X2066951Y1278038D1*
X2064066Y1279464D1*
X2058329D1*
X2055477Y1278038D1*
X2054051Y1276612D1*
X2052592Y1273727D1*
Y1270875D1*
X2054051Y1267990D1*
X2056903Y1263712D1*
X2071262Y1249353D1*
X2051166D1*
X2019955Y1275186D2*
X2021381Y1278038D1*
X2025692Y1279464D1*
X2028544D1*
X2032855Y1278038D1*
X2035740Y1273727D1*
X2037166Y1266564D1*
Y1259401D1*
X2035740Y1253664D1*
X2032855Y1250779D1*
X2028544Y1249353D1*
X2027118D1*
X2022840Y1250779D1*
X2019955Y1253664D1*
X2018529Y1257975D1*
Y1259401D1*
X2019955Y1263712D1*
X2022840Y1266564D1*
X2027118Y1267990D1*
X2028544D1*
X2032855Y1266564D1*
X2035740Y1263712D1*
X2037166Y1259401D1*
X2314987Y1278550D2*
Y1279976D1*
X2313561Y1282861D1*
X2312135Y1284287D1*
X2309250Y1285713D1*
X2303513D1*
X2300661Y1284287D1*
X2299235Y1282861D1*
X2297776Y1279976D1*
Y1277124D1*
X2299235Y1274239D1*
X2302087Y1269961D1*
X2316446Y1255602D1*
X2296350D1*
X2276613D2*
X2262254Y1285713D1*
X2282350D1*
X2306910Y1479443D2*
X2291158D1*
X2299747Y1467969D1*
X2295436D1*
X2292584Y1466543D1*
X2291158Y1465117D1*
X2289699Y1460806D1*
Y1457954D1*
X2291158Y1453643D1*
X2294010Y1450758D1*
X2298321Y1449332D1*
X2302632D1*
X2306910Y1450758D1*
X2308336Y1452217D1*
X2309795Y1455069D1*
X2275699Y1473706D2*
X2272814Y1475165D1*
X2268503Y1479443D1*
Y1449332D1*
X2069836Y1585682D2*
X2054085D1*
X2062673Y1574208D1*
X2058362D1*
X2055510Y1572782D1*
X2054085Y1571356D1*
X2052625Y1567045D1*
Y1564193D1*
X2054085Y1559882D1*
X2056936Y1556997D1*
X2061247Y1555571D1*
X2065558D1*
X2069836Y1556997D1*
X2071262Y1558456D1*
X2072721Y1561308D1*
X2037166Y1578519D2*
Y1579945D1*
X2035740Y1582830D1*
X2034314Y1584256D1*
X2031429Y1585682D1*
X2025692D1*
X2022840Y1584256D1*
X2021414Y1582830D1*
X2019955Y1579945D1*
Y1577093D1*
X2021414Y1574208D1*
X2024266Y1569930D1*
X2038625Y1555571D1*
X2018529D1*
X2313561Y1585682D2*
X2297809D1*
X2306398Y1574208D1*
X2302087D1*
X2299235Y1572782D1*
X2297809Y1571356D1*
X2296350Y1567045D1*
Y1564193D1*
X2297809Y1559882D1*
X2300661Y1556997D1*
X2304972Y1555571D1*
X2309283D1*
X2313561Y1556997D1*
X2314987Y1558456D1*
X2316446Y1561308D1*
X2279465Y1585682D2*
X2263713D1*
X2272302Y1574208D1*
X2267991D1*
X2265139Y1572782D1*
X2263713Y1571356D1*
X2262254Y1567045D1*
Y1564193D1*
X2263713Y1559882D1*
X2266565Y1556997D1*
X2270876Y1555571D1*
X2275187D1*
X2279465Y1556997D1*
X2280891Y1558456D1*
X2282350Y1561308D1*
X2065465Y1372290D2*
Y1373716D1*
X2064039Y1376601D1*
X2062613Y1378027D1*
X2059728Y1379453D1*
X2053991D1*
X2051139Y1378027D1*
X2049714Y1376601D1*
X2048254Y1373716D1*
Y1370864D1*
X2049714Y1367979D1*
X2052565Y1363701D1*
X2066924Y1349342D1*
X2046828D1*
X2025666Y1379453D2*
X2029943Y1378027D1*
X2031403Y1375175D1*
Y1372290D1*
X2029943Y1369438D1*
X2027091Y1367979D1*
X2021355Y1366553D1*
X2017043Y1365127D1*
X2014192Y1362242D1*
X2012766Y1359390D1*
Y1355079D1*
X2014192Y1352227D1*
X2015618Y1350768D1*
X2019929Y1349342D1*
X2025666D1*
X2029943Y1350768D1*
X2031403Y1352227D1*
X2032828Y1355079D1*
Y1359390D1*
X2031403Y1362242D1*
X2028517Y1365127D1*
X2024240Y1366553D1*
X2018503Y1367979D1*
X2015618Y1369438D1*
X2014192Y1372290D1*
Y1375175D1*
X2015618Y1378027D1*
X2019929Y1379453D1*
X2025666D1*
X2314500Y1372290D2*
Y1373716D1*
X2313074Y1376601D1*
X2311648Y1378027D1*
X2308763Y1379453D1*
X2303026D1*
X2300175Y1378027D1*
X2298749Y1376601D1*
X2297289Y1373716D1*
Y1370864D1*
X2298749Y1367979D1*
X2301600Y1363701D1*
X2315959Y1349342D1*
X2295863D1*
X2263193Y1369438D2*
X2264653Y1365127D1*
X2267504Y1362242D1*
X2271815Y1360816D1*
X2273241D1*
X2277552Y1362242D1*
X2280404Y1365127D1*
X2281863Y1369438D1*
Y1370864D1*
X2280404Y1375175D1*
X2277552Y1378027D1*
X2273241Y1379453D1*
X2271815D1*
X2267504Y1378027D1*
X2264653Y1375175D1*
X2263193Y1369438D1*
Y1362242D1*
X2264653Y1355079D1*
X2267504Y1350768D1*
X2271815Y1349342D1*
X2274667D1*
X2278978Y1350768D1*
X2280404Y1353653D1*
X2069836Y1479443D2*
X2054085D1*
X2062673Y1467969D1*
X2058362D1*
X2055510Y1466543D1*
X2054085Y1465117D1*
X2052625Y1460806D1*
Y1457954D1*
X2054085Y1453643D1*
X2056936Y1450758D1*
X2061247Y1449332D1*
X2065558D1*
X2069836Y1450758D1*
X2071262Y1452217D1*
X2072721Y1455069D1*
X2030003Y1479443D2*
X2034314Y1478017D1*
X2037199Y1473706D1*
X2038625Y1466543D1*
Y1462232D1*
X2037199Y1455069D1*
X2034314Y1450758D1*
X2030003Y1449332D1*
X2027151D1*
X2022840Y1450758D1*
X2019989Y1455069D1*
X2018529Y1462232D1*
Y1466543D1*
X2019989Y1473706D1*
X2022840Y1478017D1*
X2027151Y1479443D1*
X2030003D1*
X2019989Y1473706D2*
X2037199Y1455069D1*
X777961Y1767078D2*
Y1751326D1*
X789435Y1759915D1*
Y1755604D1*
X790861Y1752752D1*
X792287Y1751326D1*
X796598Y1749867D1*
X799450D1*
X803761Y1751326D1*
X806646Y1754178D1*
X808072Y1758489D1*
Y1762800D1*
X806646Y1767078D1*
X805187Y1768504D1*
X802335Y1769963D1*
X805187Y1734441D2*
X806646Y1735867D1*
X808072Y1734441D1*
X806646Y1732982D1*
X805187Y1734441D1*
X777961Y1716097D2*
Y1700345D1*
X789435Y1708934D1*
Y1704623D1*
X790861Y1701771D1*
X792287Y1700345D1*
X796598Y1698886D1*
X799450D1*
X803761Y1700345D1*
X806646Y1703197D1*
X808072Y1707508D1*
Y1711819D1*
X806646Y1716097D1*
X805187Y1717523D1*
X802335Y1718982D1*
X787976Y1684886D2*
X808072Y1676264D1*
X787976Y1667675D1*
X774087Y1092698D2*
Y1107024D1*
X786987Y1108450D1*
X785561Y1107024D1*
X784102Y1102713D1*
Y1098435D1*
X785561Y1094124D1*
X788413Y1091239D1*
X792724Y1089813D1*
X795576D1*
X799887Y1091239D1*
X802772Y1094124D1*
X804198Y1098435D1*
Y1102713D1*
X802772Y1107024D1*
X801313Y1108450D1*
X798461Y1109909D1*
X774054Y1075813D2*
X804198Y1064339D1*
X774054Y1052865D1*
X688564Y1098472D2*
X685712Y1099898D1*
X682827Y1102783D1*
X681401Y1105635D1*
Y1111372D1*
X682827Y1114257D1*
X685712Y1117109D1*
X688564Y1118568D1*
X692875Y1119994D1*
X700071D1*
X704348Y1118568D1*
X707234Y1117109D1*
X710085Y1114257D1*
X711545Y1111372D1*
Y1105635D1*
X710085Y1102783D1*
X707234Y1099898D1*
X704348Y1098472D1*
X700071D1*
Y1105635D1*
X681401Y1064376D2*
X711545D1*
X681401Y1084472D1*
X711545D1*
X681401Y1050376D2*
X711545D1*
Y1040328D1*
X710085Y1036017D1*
X707234Y1033132D1*
X704348Y1031706D1*
X700071Y1030280D1*
X692874D1*
X688563Y1031706D1*
X685712Y1033132D1*
X682827Y1036017D1*
X681401Y1040328D1*
Y1050376D1*
X685064Y1742154D2*
X682212Y1743580D1*
X679327Y1746466D1*
X677901Y1749317D1*
Y1755054D1*
X679327Y1757939D1*
X682212Y1760791D1*
X685064Y1762250D1*
X689375Y1763676D1*
X696571D1*
X700848Y1762250D1*
X703734Y1760791D1*
X706585Y1757939D1*
X708045Y1755054D1*
Y1749317D1*
X706585Y1746465D1*
X703734Y1743580D1*
X700848Y1742154D1*
X696571D1*
Y1749317D1*
X677901Y1708059D2*
X708045Y1708058D1*
X677901Y1728155D1*
X708045Y1728154D1*
X677901Y1694059D2*
X708045D1*
Y1684011D1*
X706585Y1679700D1*
X703734Y1676815D1*
X700848Y1675389D1*
X696571Y1673963D1*
X689374D1*
X685063Y1675389D1*
X682212Y1676815D1*
X679327Y1679700D1*
X677901Y1684011D1*
Y1694059D1*
X2485657Y1192006D2*
X2488542Y1190580D1*
X2491394Y1187695D1*
X2492853Y1184843D1*
X2494279Y1180532D1*
Y1173336D1*
X2492853Y1169058D1*
X2491394Y1166173D1*
X2488542Y1163321D1*
X2485657Y1161862D1*
X2479920D1*
X2477068Y1163321D1*
X2474183Y1166173D1*
X2472757Y1169058D1*
X2471331Y1173336D1*
Y1180532D1*
X2472757Y1184843D1*
X2474183Y1187695D1*
X2477068Y1190580D1*
X2479920Y1192006D1*
X2485657D1*
X2437235D2*
Y1161862D1*
X2457331Y1192006D1*
Y1161862D1*
X2529801Y1269961D2*
X2516868D1*
X2512590Y1271387D1*
X2511131Y1272846D1*
X2509705Y1275698D1*
Y1280009D1*
X2511131Y1282861D1*
X2512590Y1284320D1*
X2516868Y1285746D1*
X2529801D1*
Y1255602D1*
X2474183Y1278583D2*
X2475609Y1281435D1*
X2478494Y1284320D1*
X2481346Y1285746D1*
X2487083D1*
X2489968Y1284320D1*
X2492820Y1281435D1*
X2494279Y1278583D1*
X2495705Y1274272D1*
Y1267076D1*
X2494279Y1262798D1*
X2492820Y1259913D1*
X2489968Y1257061D1*
X2487083Y1255602D1*
X2481346D1*
X2478494Y1257061D1*
X2475609Y1259913D1*
X2474183Y1262798D1*
Y1267076D1*
X2481346D1*
X2437235Y1255602D2*
Y1285746D1*
X2448709Y1255602D1*
X2460183Y1285746D1*
Y1255602D1*
X2542375Y1485692D2*
X2526624D1*
X2535212Y1474218D1*
X2530901D1*
X2528049Y1472792D1*
X2526624Y1471366D1*
X2525164Y1467055D1*
Y1464203D1*
X2526624Y1459892D1*
X2529475Y1457007D1*
X2533786Y1455581D1*
X2538097D1*
X2542375Y1457007D1*
X2543801Y1458466D1*
X2545260Y1461318D1*
X2509738Y1458466D2*
X2511164Y1457007D1*
X2509738Y1455581D1*
X2508279Y1457007D1*
X2509738Y1458466D1*
X2491394Y1485692D2*
X2475642D1*
X2484231Y1474218D1*
X2479920D1*
X2477068Y1472792D1*
X2475642Y1471366D1*
X2474183Y1467055D1*
Y1464203D1*
X2475642Y1459892D1*
X2478494Y1457007D1*
X2482805Y1455581D1*
X2487116D1*
X2491394Y1457007D1*
X2492820Y1458466D1*
X2494279Y1461318D1*
X2460183Y1485725D2*
X2448709Y1455581D1*
X2437235Y1485725D1*
X2528375Y1585715D2*
X2516901Y1555571D1*
X2505427Y1585715D1*
X2491427D2*
Y1555571D1*
X2478494D1*
X2474183Y1557030D1*
X2472757Y1558456D1*
X2471331Y1561308D1*
Y1565619D1*
X2472757Y1568504D1*
X2474183Y1569930D1*
X2478494Y1571356D1*
X2474183Y1572815D1*
X2472757Y1574241D1*
X2471331Y1577093D1*
Y1579978D1*
X2472757Y1582830D1*
X2474183Y1584289D1*
X2478494Y1585715D1*
X2491427D1*
Y1571356D2*
X2478494D1*
X2447283Y1585715D2*
Y1555571D1*
X2457331Y1585715D2*
X2437235D1*
X2506367Y1378573D2*
X2507793Y1381425D1*
X2510678Y1384310D1*
X2513530Y1385736D1*
X2519267D1*
X2522152Y1384310D1*
X2525004Y1381425D1*
X2526463Y1378573D1*
X2527889Y1374262D1*
Y1367066D1*
X2526463Y1362788D1*
X2525004Y1359903D1*
X2522152Y1357051D1*
X2519267Y1355592D1*
X2513530D1*
X2510678Y1357051D1*
X2507793Y1359903D1*
X2506367Y1362788D1*
Y1367066D1*
X2513530D1*
X2472271Y1385736D2*
Y1355592D1*
X2492367Y1385736D1*
Y1355592D1*
X2458271Y1385736D2*
Y1355592D1*
X2448223D1*
X2443912Y1357051D1*
X2441027Y1359903D1*
X2439601Y1362788D1*
X2438175Y1367066D1*
Y1374262D1*
X2439601Y1378573D1*
X2441027Y1381425D1*
X2443912Y1384310D1*
X2448223Y1385736D1*
X2458271D1*
X3095945Y2035634D2*
X3080193D1*
X3088782Y2024160D1*
X3084471D1*
X3081619Y2022734D1*
X3080193Y2021308D1*
X3078734Y2016997D1*
Y2014145D1*
X3080193Y2009834D1*
X3083045Y2006949D1*
X3087356Y2005523D1*
X3091667D1*
X3095945Y2006949D1*
X3097371Y2008409D1*
X3098830Y2011260D1*
X3050375Y2005523D2*
Y2035634D1*
X3064734Y2015571D1*
X3043212D1*
X2994436Y2035634D2*
X2978684D1*
X2987273Y2024160D1*
X2982962D1*
X2980110Y2022734D1*
X2978684Y2021308D1*
X2977225Y2016997D1*
Y2014145D1*
X2978684Y2009834D1*
X2981536Y2006949D1*
X2985847Y2005523D1*
X2990158D1*
X2994436Y2006949D1*
X2995862Y2008409D1*
X2997321Y2011260D1*
X2946014Y2035634D2*
X2960340D1*
X2961766Y2022734D1*
X2960340Y2024160D1*
X2956029Y2025619D1*
X2951751D1*
X2947440Y2024160D1*
X2944555Y2021308D1*
X2943129Y2016997D1*
Y2014145D1*
X2944555Y2009834D1*
X2947440Y2006949D1*
X2951751Y2005523D1*
X2956029D1*
X2960340Y2006949D1*
X2961766Y2008409D1*
X2963225Y2011260D1*
X2896791Y2035634D2*
X2881039D1*
X2889628Y2024160D1*
X2885317D1*
X2882465Y2022734D1*
X2881039Y2021308D1*
X2879580Y2016997D1*
Y2014145D1*
X2881039Y2009834D1*
X2883891Y2006949D1*
X2888202Y2005523D1*
X2892513D1*
X2896791Y2006949D1*
X2898217Y2008409D1*
X2899676Y2011260D1*
X2848369Y2031356D2*
X2849795Y2034208D1*
X2854106Y2035634D1*
X2856958D1*
X2861269Y2034208D1*
X2864154Y2029897D1*
X2865580Y2022734D1*
Y2015571D1*
X2864154Y2009834D1*
X2861269Y2006949D1*
X2856958Y2005523D1*
X2855532D1*
X2851254Y2006949D1*
X2848369Y2009834D1*
X2846943Y2014145D1*
Y2015571D1*
X2848369Y2019882D1*
X2851254Y2022734D1*
X2855532Y2024160D1*
X2856958D1*
X2861269Y2022734D1*
X2864154Y2019882D1*
X2865580Y2015571D1*
X2795731Y2035634D2*
X2779980D1*
X2788568Y2024160D1*
X2784257D1*
X2781405Y2022734D1*
X2779980Y2021308D1*
X2778520Y2016997D1*
Y2014145D1*
X2779980Y2009834D1*
X2782831Y2006949D1*
X2787142Y2005523D1*
X2791453D1*
X2795731Y2006949D1*
X2797157Y2008409D1*
X2798616Y2011260D1*
X2758783Y2005523D2*
X2744424Y2035634D1*
X2764520D1*
X2686919D2*
X2671167D1*
X2679756Y2024160D1*
X2675445D1*
X2672593Y2022734D1*
X2671167Y2021308D1*
X2669708Y2016997D1*
Y2014145D1*
X2671167Y2009834D1*
X2674019Y2006949D1*
X2678330Y2005523D1*
X2682641D1*
X2686919Y2006949D1*
X2688345Y2008409D1*
X2689804Y2011260D1*
X2648545Y2035634D2*
X2652823Y2034208D1*
X2654282Y2031356D1*
Y2028471D1*
X2652823Y2025619D1*
X2649971Y2024160D1*
X2644234Y2022734D1*
X2639923Y2021308D1*
X2637071Y2018423D1*
X2635645Y2015571D1*
Y2011260D1*
X2637071Y2008409D1*
X2638497Y2006949D1*
X2642808Y2005523D1*
X2648545D1*
X2652823Y2006949D1*
X2654282Y2008409D1*
X2655708Y2011260D1*
Y2015571D1*
X2654282Y2018423D1*
X2651397Y2021308D1*
X2647119Y2022734D1*
X2641382Y2024160D1*
X2638497Y2025619D1*
X2637071Y2028471D1*
Y2031356D1*
X2638497Y2034208D1*
X2642808Y2035634D1*
X2648545D1*
X2589647D2*
X2573895D1*
X2582484Y2024160D1*
X2578173D1*
X2575321Y2022734D1*
X2573895Y2021308D1*
X2572436Y2016997D1*
Y2014145D1*
X2573895Y2009834D1*
X2576747Y2006949D1*
X2581058Y2005523D1*
X2585369D1*
X2589647Y2006949D1*
X2591073Y2008409D1*
X2592532Y2011260D1*
X2539766Y2025619D2*
X2541225Y2021308D1*
X2544077Y2018423D1*
X2548388Y2016997D1*
X2549814D1*
X2554125Y2018423D1*
X2556977Y2021308D1*
X2558436Y2025619D1*
Y2027045D1*
X2556977Y2031356D1*
X2554125Y2034208D1*
X2549814Y2035634D1*
X2548388D1*
X2544077Y2034208D1*
X2541225Y2031356D1*
X2539766Y2025619D1*
Y2018423D1*
X2541225Y2011260D1*
X2544077Y2006949D1*
X2548388Y2005523D1*
X2551240D1*
X2555551Y2006949D1*
X2556977Y2009834D1*
M02*
