G04 DipTrace 3.3.1.3*
G04 Teensy4.0TouchDisplayLoRaV0.2.gtl*
%MOIN*%
G04 #@! TF.FileFunction,Copper,L1,Top*
G04 #@! TF.Part,Single*
%AMOUTLINE0*
4,1,4,
-0.0175,-0.025,
-0.0175,0.025,
0.0175,0.025,
0.0175,-0.025,
-0.0175,-0.025,
0*%
%AMOUTLINE1*
4,1,4,
0.0285,-0.0155,
-0.0285,-0.0155,
-0.0285,0.0155,
0.0285,0.0155,
0.0285,-0.0155,
0*%
%AMOUTLINE4*
4,1,4,
-0.03937,-0.015748,
0.03937,-0.015748,
0.03937,0.015748,
-0.03937,0.015748,
-0.03937,-0.015748,
0*%
%AMOUTLINE5*
4,1,4,
0.03937,0.015748,
-0.03937,0.015748,
-0.03937,-0.015748,
0.03937,-0.015748,
0.03937,0.015748,
0*%
%AMOUTLINE6*
4,1,4,
0.03,0.08,
-0.03,0.08,
-0.03,-0.08,
0.03,-0.08,
0.03,0.08,
0*%
%AMOUTLINE7*
4,1,4,
0.02,0.04,
-0.02,0.04,
-0.02,-0.04,
0.02,-0.04,
0.02,0.04,
0*%
G04 #@! TA.AperFunction,Conductor*
%ADD13C,0.02*%
%ADD14C,0.015*%
%ADD15C,0.008*%
%ADD16C,0.01*%
%ADD17C,0.03*%
%ADD18C,0.06*%
%ADD19C,0.059055*%
%ADD20C,0.031496*%
G04 #@! TA.AperFunction,ViaPad*
%ADD21C,0.04*%
G04 #@! TA.AperFunction,Conductor*
%ADD23C,0.051181*%
%ADD25C,0.025591*%
%ADD26C,0.015748*%
%ADD27C,0.005*%
%ADD28C,0.047244*%
%ADD29C,0.05*%
G04 #@! TA.AperFunction,ComponentPad*
%ADD32C,0.066*%
%ADD34R,0.1X0.05*%
%ADD35R,0.059055X0.051181*%
%ADD36R,0.051181X0.059055*%
G04 #@! TA.AperFunction,ComponentPad*
%ADD37C,0.17*%
%ADD38R,0.059055X0.059055*%
%ADD39C,0.059055*%
%ADD40C,0.07*%
%ADD41C,0.074*%
%ADD42R,0.027559X0.068898*%
%ADD43R,0.03937X0.061024*%
%ADD44R,0.031496X0.055118*%
%ADD45R,0.031496X0.059055*%
%ADD46R,0.057087X0.03937*%
%ADD47R,0.07874X0.023622*%
%ADD48R,0.165354X0.027559*%
G04 #@! TA.AperFunction,ComponentPad*
%ADD51C,0.076772*%
%ADD52C,0.065199*%
%ADD53C,0.05315*%
%ADD54R,0.047244X0.047244*%
%ADD56R,0.031496X0.035433*%
%ADD58R,0.025591X0.041339*%
G04 #@! TA.AperFunction,ComponentPad*
%ADD60C,0.06194*%
%ADD61C,0.074*%
%ADD62R,0.074X0.074*%
%ADD63R,0.055118X0.015748*%
G04 #@! TA.AperFunction,ComponentPad*
%ADD64R,0.062992X0.062992*%
%ADD65C,0.062992*%
%ADD66C,0.090551*%
G04 #@! TA.AperFunction,ViaPad*
%ADD68C,0.165*%
%ADD140OUTLINE0*%
%ADD141OUTLINE1*%
%ADD144OUTLINE4*%
%ADD145OUTLINE5*%
%ADD146OUTLINE6*%
%ADD147OUTLINE7*%
%FSLAX26Y26*%
G04*
G70*
G90*
G75*
G01*
G04 Top*
%LPD*%
X3599613Y1236707D2*
D13*
Y1479183D1*
X2493700Y703700D2*
X2522259D1*
X2543474Y724915D1*
X2687209D1*
X1687314Y2056025D2*
X1615700D1*
Y2058065D1*
X1562598D1*
X1668566Y2099771D2*
X1687314Y2081023D1*
Y2056025D1*
X3493700Y1068700D2*
X3437385Y1012385D1*
X2943432D1*
D14*
Y893648D1*
D13*
X2905936Y856151D1*
Y812406D1*
X2887188Y793658D1*
X2612217D1*
X2522259Y703700D1*
X3487550Y2018697D2*
X3449797D1*
X3430881Y1999781D1*
X781102Y1668700D2*
D15*
Y1806102D1*
X793700Y1818700D1*
X987388Y1487335D2*
D14*
X912396Y1412343D1*
Y1106396D1*
X887128Y1081128D1*
X465128D1*
X441700Y1057700D1*
Y783700D1*
X493700Y731700D1*
X1456088Y1474836D2*
X1512333D1*
X1524831Y1487335D1*
X3693700Y1068700D2*
X3643776Y1118624D1*
X2760624D1*
X2743453Y1101453D1*
Y1015453D1*
X2721700Y993700D1*
X2033700D1*
X1631070Y1199865D2*
D16*
Y1331102D1*
X1723057D1*
X1524831Y1487335D2*
D14*
Y1456088D1*
X1643700D1*
Y1494130D1*
X1831298Y1568700D2*
D13*
X1787427D1*
X1737309Y1518582D1*
Y1462338D1*
X1643700D1*
Y1494130D1*
X781102Y1493700D2*
D15*
Y1381298D1*
X793700Y1368700D1*
X3693700Y943700D2*
D13*
Y887052D1*
X3712102Y868650D1*
Y756162D1*
X2405989Y2199760D2*
D15*
Y2231007D1*
X2396771D1*
Y2304415D1*
X3080918Y1231112D2*
X2874222D1*
X2874015Y1230905D1*
X2268503Y2137267D2*
X2266823Y2138947D1*
Y2304428D1*
X3005926Y1349850D2*
X2874850D1*
X2874015Y1349015D1*
X2349745Y2168514D2*
Y2304415D1*
X2353424D1*
X3024674Y1268608D2*
X2875682D1*
X2874015Y1270275D1*
X2818445Y2043527D2*
X2237256D1*
X2193511Y2087272D1*
Y2193889D1*
X2180222Y2207178D1*
Y2304428D1*
X2974679Y1424842D2*
X2876928D1*
X2874015Y1427755D1*
X2149766Y2156015D2*
X2136902Y2168878D1*
Y2304428D1*
X2053700Y1733700D2*
X2059700Y1727700D1*
X2721700D1*
X2737700Y1711700D1*
Y1483700D1*
X2754275Y1467125D1*
X2874015D1*
X2093621Y2304415D2*
Y2106020D1*
X2099771D1*
X2568419Y1962285D2*
X2615004Y1915700D1*
X3171700D1*
X3193700Y1893700D1*
Y1513700D2*
X3186495Y1506495D1*
X2874015D1*
X1893700Y1813700D2*
Y1837298D1*
X1668566D1*
X1618968Y1787700D1*
X1449443D1*
X1356099Y1881044D1*
Y2131018D1*
X1271571Y2215545D1*
X924802D1*
X2593700Y1793700D2*
X2543852Y1843548D1*
X2119548D1*
X2095700Y1819700D1*
X1949700D1*
X1901700Y1867700D1*
X1493700D1*
X1449839Y1911561D1*
Y2243700D1*
X827700D1*
X701588Y2117588D1*
X457700D1*
X441700Y2101588D1*
Y1183700D1*
X493700Y1131700D1*
Y1831700D2*
X577700D1*
X609700Y1863700D1*
X819700D1*
X835700Y1847700D1*
Y1713700D1*
X874585Y1674815D1*
X1162369D1*
X1174868Y1687314D1*
X2315314D1*
X2339700Y1711700D1*
X2450700D1*
X2493700Y1668700D1*
X493700Y1531700D2*
X549325Y1587325D1*
X1129325D1*
X1210700Y1668700D1*
X2393700D1*
X2493700Y943700D2*
X2512228D1*
Y874899D1*
X2493480Y856151D1*
X2374742D1*
X2293501Y937393D1*
X1671294D1*
Y984659D1*
X1574826Y1081128D1*
X1187367D1*
X1037382Y931144D1*
X606178D1*
X599928Y937393D1*
X2593700Y943700D2*
Y887629D1*
X2543474Y837403D1*
X2343006D1*
X2236861Y852835D1*
X2231102Y893695D1*
X2243600Y806167D2*
Y893695D1*
X2231102D1*
X1718561Y1181117D2*
Y1254330D1*
X1723057D1*
X2118700Y1168700D2*
X2165700Y1121700D1*
X2546700D1*
X2593700Y1168700D1*
X1906102Y1099982D2*
Y1006136D1*
X2213700Y1053700D2*
X2275700D1*
X2305700Y1023700D1*
X2621700D1*
X2637700Y1039700D1*
Y1112700D1*
X2693700Y1168700D1*
X1906102Y1006136D2*
X1966199D1*
X2013763Y1053700D1*
X2213700D1*
X1318603Y2074773D2*
X1256571Y2136805D1*
X924802D1*
X1274857Y2024779D2*
X1241571Y2058065D1*
X924802D1*
X2218700Y1268700D2*
X2275700Y1211700D1*
X2636700D1*
X2693700Y1268700D1*
X2118700Y1368700D2*
X2041574Y1291574D1*
Y1151700D1*
X2033495Y1143621D1*
X1839779D1*
X1831298Y1152102D1*
Y1193829D1*
Y1180868D1*
X1793553Y1218613D1*
Y1305511D1*
Y1368598D1*
X1556078D1*
Y1331102D1*
X1549829D1*
X1793553Y1305511D2*
X1723057D1*
X2693700Y1368700D2*
X2662314D1*
X2612217Y1318603D1*
X2268797D1*
X2218700Y1368700D1*
X2175700Y1411700D1*
X2067700D1*
X1949923Y1293923D1*
X1906102D1*
X2118700Y1468700D2*
X1970700D1*
X1926842Y1424842D1*
X1362348D1*
X1299855Y1362348D1*
X1174868D1*
Y1174868D1*
X1031700Y1031700D1*
X493700D1*
X2693700Y1468700D2*
X2638700Y1413700D1*
X2320700D1*
X2265700Y1468700D1*
X2218700D1*
X2173700Y1513700D1*
X1973700D1*
X1068629Y1631070D2*
X1069700Y1624821D1*
X862401D1*
X849280Y1611700D1*
X643700D1*
X627514Y1627886D1*
Y1715700D1*
X611514Y1731700D1*
X493700D1*
X593700Y1973700D2*
X835700D1*
X862401Y1946999D1*
Y1724810D1*
X887398Y1699813D1*
X1122558D1*
Y1716246D1*
X1143621Y1737309D1*
X1356099D1*
X2118700Y1568700D2*
X2161700Y1611700D1*
X2550700D1*
X2593700Y1568700D1*
X2693700D2*
X2636700Y1511700D1*
X2355700D1*
X2293700Y1573700D1*
X2288700Y1568700D1*
X2218700D1*
X2168797Y714535D2*
Y762411D1*
X2324747D1*
X2374742Y812406D1*
X2549724D1*
X2574721Y837403D1*
X2849692D1*
Y843653D1*
X1424842Y1731060D2*
X1412343D1*
X1242818Y1900585D1*
X924802D1*
X3199655Y1581075D2*
Y1587325D1*
X3174658Y1612322D1*
X3062170D1*
X3045700Y1628792D1*
Y1841700D1*
X3012606Y1874794D1*
X2512228D1*
X2499729Y1887293D1*
X2337246D1*
X2318498Y1906041D1*
X3093700Y1873700D2*
Y1893543D1*
X2524726D1*
X2512228Y1906041D1*
X2377359D1*
X2323700Y1959700D1*
X2189700D1*
X2151700Y1921700D1*
X1961700D1*
X1949700Y1909700D1*
X1664907D1*
X1631070Y1943537D1*
X1511863D1*
X1481086Y1974314D1*
Y2136805D1*
X1562598D1*
X2993700Y1793700D2*
X2943700Y1743700D1*
X2247700D1*
X2216595Y1774805D1*
X1993532D1*
Y1706062D1*
X1494687D1*
Y1771700D1*
X1421697D1*
X1337351Y1856046D1*
Y1862296D1*
X1220322Y1979325D1*
X924802D1*
X2443485Y893648D2*
X2368493D1*
X2337109Y925031D1*
Y956141D1*
X1743558D1*
X1593574Y1106125D1*
X1162369D1*
X1043632Y987388D1*
X549388D1*
X493700Y931700D1*
X1249860Y1406094D2*
D14*
X1256109D1*
Y1481086D1*
X1381285D1*
Y1474836D1*
X1318603Y1312354D2*
X1362348Y1356099D1*
X1387535D1*
X1462338Y1143621D2*
Y1206115D1*
X1456088D1*
X1243611Y724936D2*
X1018634D1*
X1468587Y524936D2*
D18*
X1736054D1*
X1799802Y588684D1*
X1866731D1*
X1984842Y706794D1*
X1262359Y1187367D2*
D16*
Y1193616D1*
X1324852Y1256109D1*
X1549829D1*
Y1254330D1*
X1868566Y2224758D2*
D18*
Y2056004D1*
X1874794Y2049776D1*
X793700Y2273700D2*
D20*
X814285Y2294285D1*
X924802D1*
X1874794Y2049776D2*
D17*
X1802854Y1977835D1*
X1799466Y1981222D1*
X1687314D1*
X2493700Y633700D2*
D13*
X2543474D1*
Y637424D1*
X2687209D1*
Y650112D1*
X1668566Y2224758D2*
D14*
Y2324747D1*
X1874794D1*
Y2230986D1*
X1868566Y2224758D1*
X1973700Y1233700D2*
D23*
Y1213829D1*
X1953700Y1193829D1*
X1906102D1*
X1949787Y1368598D2*
D25*
X1931473Y1386911D1*
X1914550D1*
X1549829Y1254330D2*
D26*
Y1199865D1*
D13*
X1606073Y1143621D1*
X1693564D1*
X1774805Y1062380D1*
Y1031133D1*
X1799802Y1006136D1*
X1831298D1*
X2983905Y835787D2*
D15*
X3259495D1*
X3291396Y803886D1*
Y653514D1*
X3259495Y621613D1*
X1997125Y2299691D2*
D27*
Y1988457D1*
X1983372Y1974704D1*
D13*
X2037197D1*
X2068524Y2006031D1*
X2448108D1*
X2453818Y2000321D1*
X1802854Y1977835D2*
X1980241D1*
X1983372Y1974704D1*
X2443976Y2299691D2*
D14*
X2971239D1*
X2990306Y2280624D1*
X3693700Y1952361D2*
D28*
Y1898739D1*
D18*
Y1793700D1*
X1356081Y949892D2*
D29*
Y894892D1*
D18*
Y531186D1*
X1462338D1*
X1468587Y524936D1*
X1043632Y1743558D2*
D13*
X924802D1*
Y1743104D1*
X1562598Y1821844D2*
D17*
X1484041D1*
X1406094Y1899792D1*
Y2199760D1*
X706298Y1493700D2*
D23*
Y1440826D1*
D18*
X693700Y1428228D1*
D19*
Y1368700D1*
X706298Y1668700D2*
D23*
Y1746574D1*
D18*
X693700Y1759172D1*
D19*
Y1818700D1*
X2836200Y517451D2*
D15*
X2881340Y562591D1*
X2924882D1*
X2983905Y621613D1*
X2176200Y517451D2*
D16*
X2163501D1*
X2143516Y537435D1*
Y544306D1*
X2168797Y569587D1*
Y635364D1*
X1984842Y706794D2*
Y614868D1*
X2062275Y537435D1*
X2126243D1*
X2143516Y554708D1*
Y544306D1*
X1984842Y706794D2*
Y728724D1*
X2049776Y793658D1*
X2100697D1*
X2113207Y806167D1*
X2168797D1*
X1839747Y1386911D2*
D15*
X1831298D1*
Y1293923D1*
X1549829Y1305511D2*
X1462338D1*
Y1356099D1*
X493700Y1431700D2*
X611700Y1313700D1*
X861700D1*
X878315Y1330315D1*
Y1521700D1*
X894315Y1537700D1*
X1375700D1*
X1393595Y1555595D1*
Y1574826D1*
X1768556Y2043527D2*
Y2119700D1*
X1768566Y2119710D1*
Y2184758D1*
X1768556Y1799802D2*
X1711857Y1743104D1*
X1562598D1*
X3562354Y2018697D2*
X3599781D1*
X3618361Y2037277D1*
X3691461D1*
X3693700Y2035039D1*
X1606298Y1576808D2*
X1599823D1*
Y1568577D1*
X1468398D1*
Y1574826D1*
X1381285Y1206115D2*
Y1193805D1*
X1318603Y1131123D1*
X1212364D1*
Y1279920D1*
X1549829D1*
X2243600Y635364D2*
Y706073D1*
Y714535D1*
Y706073D2*
X2305905D1*
X2380991Y781159D1*
X2493700D1*
Y768700D1*
X1831298Y1099982D2*
X1805945D1*
X1793700Y1112228D1*
Y1162222D1*
X1768556Y1187367D1*
Y1279920D1*
X1723057D1*
X1877149Y1477462D2*
X1874794D1*
Y1504721D1*
X1906102Y1536028D1*
Y1568700D1*
Y1618571D1*
X1747571D1*
X1705808Y1576808D1*
X1681102D1*
X2768451Y749913D2*
Y531186D1*
X2651200D1*
Y517451D1*
X2412238Y737414D2*
Y517451D1*
X2361200D1*
X2223516Y2304428D2*
Y2094763D1*
X2243506Y2074773D1*
X2752627D1*
X2751700Y2075700D1*
X3094343D1*
X3098343Y2079700D1*
X3119737D1*
X3243401Y1956036D1*
Y1456088D1*
X3175697Y1388385D1*
X2874015D1*
Y1309645D2*
X3215695D1*
X3343390Y1437340D1*
Y2206010D1*
X3012175D1*
X2987178Y2181012D1*
X2737204D1*
X2674710Y2118519D1*
X2312249D1*
Y2302323D1*
X2310157Y2304415D1*
X3073275Y728700D2*
Y523275D1*
X3068700Y518700D1*
X3152015Y728700D2*
Y535385D1*
X3168700Y518700D1*
X2793456Y2131018D2*
X3187157D1*
X1018634Y624936D2*
D18*
X1243611D1*
X1468587D2*
X1599834D1*
X1799802Y824905D1*
D23*
X1868592Y893695D1*
X2156298D1*
X1531081Y949892D2*
D29*
X1587649Y893323D1*
D18*
X1600148D1*
X1643569Y849902D1*
X1774805D1*
X1799802Y824905D1*
D21*
X3599613Y1236707D3*
Y1479183D3*
X3430881Y1999781D3*
X3712102Y756162D3*
X3080918Y1231112D3*
X3005926Y1349850D3*
X3024674Y1268608D3*
X2974679Y1424842D3*
X2443485Y893648D3*
X1043632Y1743558D3*
X1406094Y2199760D3*
X2768451Y749913D3*
X2412238Y737414D3*
D68*
X3661417Y511810D3*
X669291D3*
Y2244094D3*
X3661417D3*
D21*
X1262359Y1187367D3*
X793700Y2273700D3*
X1973700Y1233700D3*
X1949787Y1368598D3*
X1668566Y2099771D3*
X2033700Y993700D3*
X1631070Y1199865D3*
X1524831Y1487335D3*
X2405989Y2199760D3*
X2268503Y2137267D3*
X2349745Y2168514D3*
X2818445Y2043527D3*
X2149766Y2156015D3*
X2099771Y2106020D3*
X1893700Y1813700D3*
X599928Y937393D3*
X1718561Y1181117D3*
X2213700Y1053700D3*
X1318603Y2074773D3*
X1274857Y2024779D3*
X1973700Y1513700D3*
X1068629Y1631070D3*
X1356099Y1737309D3*
X593700Y1973700D3*
X2849692Y843653D3*
X1424842Y1731060D3*
X2318498Y1906041D3*
X3199655Y1581075D3*
X3093700Y1873700D3*
X1249860Y1406094D3*
X1318603Y1312354D3*
X1462338Y1143621D3*
X1768556Y1799802D3*
X2053700Y1733700D3*
X3193700Y1513700D3*
Y1893700D3*
D32*
X1768556Y2043527D3*
D34*
X1531081Y949892D3*
X1356081D3*
D35*
X1687314Y2056025D3*
Y1981222D3*
X2687209Y724915D3*
Y650112D3*
D36*
X706298Y1493700D3*
X781102D3*
Y1668700D3*
X706298D3*
D32*
X1874794Y2049776D3*
D37*
X1799802Y824905D3*
Y588684D3*
X1984842Y706794D3*
D38*
X3068419Y1962285D3*
D39*
X2968419D3*
X2868419D3*
X2768419D3*
X2668419D3*
X2568419D3*
D40*
X3693700Y1793700D3*
X3593700D3*
X3493700D3*
X3393700D3*
X3293700D3*
X3193700D3*
X3093700D3*
X2993700D3*
X2893700D3*
X2793700D3*
X2693700D3*
X2593700D3*
X2493700D3*
X2393700D3*
X3693700Y943700D3*
X3593700D3*
X3493700D3*
X3393700D3*
X3293700D3*
X3193700D3*
X3093700D3*
X2993700D3*
X2893700D3*
X2793700D3*
X2693700D3*
X2593700D3*
X2493700D3*
X2393700D3*
D38*
X2218700Y1168700D3*
D39*
X2118700D3*
X2218700Y1268700D3*
X2118700D3*
X2218700Y1368700D3*
X2118700D3*
X2218700Y1468700D3*
X2118700D3*
X2218700Y1568700D3*
X2118700D3*
D41*
X3068700Y518700D3*
X3168700D3*
D42*
X2396771Y2304415D3*
X2353424D3*
X2310157D3*
X2266823Y2304428D3*
X2223516D3*
X2180222D3*
X2136902D3*
X2093621Y2304415D3*
D36*
X2443976Y2299691D3*
D38*
X1997125D3*
D43*
X1999501Y1879035D3*
D44*
X1983372Y1974704D3*
D45*
X2453818Y2000321D3*
D46*
X2441259Y1941266D3*
D47*
X2874015Y1230905D3*
Y1270275D3*
Y1309645D3*
Y1388385D3*
Y1349015D3*
Y1427755D3*
Y1467125D3*
Y1506495D3*
D48*
X2956692Y1191535D3*
Y1545865D3*
D51*
X3187157Y2131018D3*
X2990306Y2280624D3*
X2793456Y2131018D3*
D52*
X1018634Y524936D3*
Y624936D3*
Y724936D3*
X1243611Y524936D3*
Y624936D3*
Y724936D3*
X1468587Y524936D3*
Y624936D3*
Y724936D3*
D38*
X493700Y731700D3*
D39*
Y831700D3*
Y931700D3*
Y1031700D3*
Y1131700D3*
Y1231700D3*
Y1331700D3*
Y1431700D3*
Y1531700D3*
Y1631700D3*
Y1731700D3*
Y1831700D3*
Y1931700D3*
Y2031700D3*
D53*
X2493700Y568700D3*
Y633700D3*
Y703700D3*
Y768700D3*
D140*
X2651200Y517451D3*
X2836200D3*
D141*
X2610700Y442951D3*
X2876700D3*
D38*
X693700Y2018700D3*
D39*
X793700D3*
X693700Y1918700D3*
X793700D3*
X693700Y1818700D3*
X793700D3*
D38*
X693700Y1368700D3*
D39*
X793700D3*
X693700Y1268700D3*
X793700D3*
X693700Y1168700D3*
X793700D3*
D140*
X2176200Y517451D3*
X2361200D3*
D141*
X2135700Y442951D3*
X2401700D3*
D54*
X3693700Y2035039D3*
Y1952361D3*
D56*
X1681102Y1576808D3*
X1606298D3*
X1643700Y1494130D3*
D58*
X1839747Y1386911D3*
X1914550D3*
X1877149Y1477462D3*
D36*
X2243600Y635364D3*
X2168797D3*
X1906102Y1568700D3*
X1831298D3*
X1393595Y1574826D3*
X1468398D3*
X2231102Y893695D3*
X2156298D3*
X3562354Y2018697D3*
X3487550D3*
X2168797Y806167D3*
X2243600D3*
X1906102Y1293923D3*
X1831298D3*
X1456088Y1474836D3*
X1381285D3*
X1906102Y1193829D3*
X1831298D3*
Y1099982D3*
X1906102D3*
X1381285Y1206115D3*
X1456088D3*
X1462338Y1356099D3*
X1387535D3*
X1831298Y1006136D3*
X1906102D3*
X2243600Y714535D3*
X2168797D3*
D144*
X1562598Y1743104D3*
Y1821844D3*
Y1900585D3*
Y1979325D3*
Y2058065D3*
Y2136805D3*
Y2215545D3*
Y2294285D3*
D145*
X924802D3*
Y2215545D3*
Y2136805D3*
Y2058065D3*
Y1979325D3*
Y1900585D3*
Y1821844D3*
Y1743104D3*
D60*
X3693700Y1668700D3*
X3593700D3*
X3493700D3*
X3393700D3*
X3293700D3*
X3193700D3*
X3093700D3*
X2993700D3*
X2893700D3*
X2793700D3*
X2693700D3*
X2593700D3*
X2493700D3*
X2393700D3*
Y1568700D3*
Y1468700D3*
Y1368700D3*
Y1268700D3*
Y1168700D3*
Y1068700D3*
X2493700D3*
X2593700D3*
X2693700D3*
X2793700D3*
X2893700D3*
X2993700D3*
X3093700D3*
X3193700D3*
X3293700D3*
X3393700D3*
X3493700D3*
X3593700D3*
X3693700D3*
X3593700Y1168700D3*
D61*
X3671700Y1323700D3*
D60*
X2693700Y1568700D3*
X2593700Y1468700D3*
Y1368700D3*
D61*
X3671700Y1413700D3*
D60*
X2593700Y1568700D3*
X2693700Y1468700D3*
Y1368700D3*
Y1268700D3*
Y1168700D3*
X2593700Y1268700D3*
Y1168700D3*
D62*
X987388Y1487335D3*
D41*
Y1387335D3*
Y1287335D3*
Y1087335D3*
Y1187335D3*
D63*
X1549829Y1331102D3*
Y1305511D3*
Y1279920D3*
Y1254330D3*
X1723057D3*
Y1279920D3*
Y1305511D3*
Y1331102D3*
D64*
X3230755Y728700D3*
D65*
X3152015D3*
X3073275D3*
X2994535D3*
D66*
X2983905Y621613D3*
Y835787D3*
X3259495Y621613D3*
Y835787D3*
D146*
X1668566Y2224758D3*
X1868566D3*
D147*
X1768566Y2184758D3*
M02*
