G04 DipTrace 3.2.0.1*
G04 xbee_jst_opl.gts*
%MOIN*%
G04 #@! TF.FileFunction,Soldermask,Top*
G04 #@! TF.Part,Single*
%AMOUTLINE1*
4,1,40,
0.022544,-0.021,
0.023543,-0.020912,
0.024553,-0.020641,
0.025502,-0.0202,
0.026359,-0.0196,
0.0271,-0.018859,
0.0277,-0.018002,
0.028141,-0.017053,
0.028412,-0.016043,
0.0285,-0.015044,
0.0285,0.015044,
0.028412,0.016043,
0.028141,0.017053,
0.0277,0.018002,
0.0271,0.018859,
0.026359,0.0196,
0.025502,0.0202,
0.024553,0.020641,
0.023543,0.020912,
0.022544,0.021,
-0.022544,0.021,
-0.023543,0.020912,
-0.024553,0.020641,
-0.025502,0.0202,
-0.026359,0.0196,
-0.0271,0.018859,
-0.0277,0.018002,
-0.028141,0.017053,
-0.028412,0.016043,
-0.0285,0.015044,
-0.0285,-0.015044,
-0.028412,-0.016043,
-0.028141,-0.017053,
-0.0277,-0.018002,
-0.0271,-0.018859,
-0.026359,-0.0196,
-0.025502,-0.0202,
-0.024553,-0.020641,
-0.023543,-0.020912,
-0.022544,-0.021,
0.022544,-0.021,
0*%
%AMOUTLINE4*
4,1,40,
-0.021,-0.022544,
-0.020912,-0.023543,
-0.020641,-0.024553,
-0.0202,-0.025502,
-0.0196,-0.026359,
-0.018859,-0.0271,
-0.018002,-0.0277,
-0.017053,-0.028141,
-0.016043,-0.028412,
-0.015044,-0.0285,
0.015044,-0.0285,
0.016043,-0.028412,
0.017053,-0.028141,
0.018002,-0.0277,
0.018859,-0.0271,
0.0196,-0.026359,
0.0202,-0.025502,
0.020641,-0.024553,
0.020912,-0.023543,
0.021,-0.022544,
0.021,0.022544,
0.020912,0.023543,
0.020641,0.024553,
0.0202,0.025502,
0.0196,0.026359,
0.018859,0.0271,
0.018002,0.0277,
0.017053,0.028141,
0.016043,0.028412,
0.015044,0.0285,
-0.015044,0.0285,
-0.016043,0.028412,
-0.017053,0.028141,
-0.018002,0.0277,
-0.018859,0.0271,
-0.0196,0.026359,
-0.0202,0.025502,
-0.020641,0.024553,
-0.020912,0.023543,
-0.021,0.022544,
-0.021,-0.022544,
0*%
%AMOUTLINE7*
4,1,40,
-0.0185,-0.020669,
-0.018422,-0.021559,
-0.01818,-0.022464,
-0.017783,-0.023314,
-0.017245,-0.024082,
-0.016582,-0.024745,
-0.015814,-0.025283,
-0.014964,-0.02568,
-0.014059,-0.025922,
-0.013169,-0.026,
0.013169,-0.026,
0.014059,-0.025922,
0.014964,-0.02568,
0.015814,-0.025283,
0.016582,-0.024745,
0.017245,-0.024082,
0.017783,-0.023314,
0.01818,-0.022464,
0.018422,-0.021559,
0.0185,-0.020669,
0.0185,0.020669,
0.018422,0.021559,
0.01818,0.022464,
0.017783,0.023314,
0.017245,0.024082,
0.016582,0.024745,
0.015814,0.025283,
0.014964,0.02568,
0.014059,0.025922,
0.013169,0.026,
-0.013169,0.026,
-0.014059,0.025922,
-0.014964,0.02568,
-0.015814,0.025283,
-0.016582,0.024745,
-0.017245,0.024082,
-0.017783,0.023314,
-0.01818,0.022464,
-0.018422,0.021559,
-0.0185,0.020669,
-0.0185,-0.020669,
0*%
%AMOUTLINE10*
4,1,40,
0.0185,0.020669,
0.018422,0.021559,
0.01818,0.022464,
0.017783,0.023314,
0.017245,0.024082,
0.016582,0.024745,
0.015814,0.025283,
0.014964,0.02568,
0.014059,0.025922,
0.013169,0.026,
-0.013169,0.026,
-0.014059,0.025922,
-0.014964,0.02568,
-0.015814,0.025283,
-0.016582,0.024745,
-0.017245,0.024082,
-0.017783,0.023314,
-0.01818,0.022464,
-0.018422,0.021559,
-0.0185,0.020669,
-0.0185,-0.020669,
-0.018422,-0.021559,
-0.01818,-0.022464,
-0.017783,-0.023314,
-0.017245,-0.024082,
-0.016582,-0.024745,
-0.015814,-0.025283,
-0.014964,-0.02568,
-0.014059,-0.025922,
-0.013169,-0.026,
0.013169,-0.026,
0.014059,-0.025922,
0.014964,-0.02568,
0.015814,-0.025283,
0.016582,-0.024745,
0.017245,-0.024082,
0.017783,-0.023314,
0.01818,-0.022464,
0.018422,-0.021559,
0.0185,-0.020669,
0.0185,0.020669,
0*%
%ADD32C,0.167*%
%ADD34C,0.062*%
%ADD36R,0.062X0.062*%
%ADD38C,0.052*%
%ADD40C,0.061055*%
%ADD42R,0.061055X0.061055*%
%ADD44R,0.052X0.052*%
%ADD49OUTLINE1*%
%ADD52OUTLINE4*%
%ADD55OUTLINE7*%
%ADD58OUTLINE10*%
%FSLAX26Y26*%
G04*
G70*
G90*
G75*
G01*
G04 TopMask*
%LPD*%
D32*
X529488Y610236D3*
Y1791339D3*
X1316890Y610236D3*
Y1791339D3*
D44*
X873386Y876201D3*
X773386D3*
D42*
X1183386Y773701D3*
D40*
Y873701D3*
Y973701D3*
Y1073701D3*
Y1173701D3*
Y1273701D3*
Y1373701D3*
Y1473701D3*
Y1573701D3*
Y1673701D3*
D42*
X663386D3*
D40*
Y1573701D3*
Y1473701D3*
Y1373701D3*
Y1273701D3*
Y1173701D3*
Y1073701D3*
Y973701D3*
Y873701D3*
Y773701D3*
D44*
X1041496Y738700D3*
D38*
X962756D3*
X884016D3*
X805276D3*
D36*
X490315Y1600827D3*
D34*
Y1522087D3*
Y1443347D3*
Y1364607D3*
Y1285866D3*
Y1207126D3*
Y1128386D3*
Y1049646D3*
Y970906D3*
Y892166D3*
D36*
X1356457D3*
D34*
Y970906D3*
Y1049646D3*
Y1128386D3*
Y1207126D3*
Y1285866D3*
Y1364607D3*
Y1443347D3*
Y1522087D3*
Y1600827D3*
D49*
X958386Y943701D3*
Y873701D3*
D52*
Y1753701D3*
X888386D3*
D49*
X1077135Y943701D3*
Y873701D3*
D55*
X958386Y1848701D3*
X888386D3*
X1378386Y768701D3*
X1308386D3*
D58*
X473386D3*
X543386D3*
M02*
