M48
INCH
T01C0.0315
T02C0.032
T03C0.0354
T04C0.125
%
T03
X+011834Y+007737
X+011834Y+008737
X+011834Y+009737
X+011834Y+010737
X+011834Y+011737
X+011834Y+012737
X+011834Y+013737
X+011834Y+014737
X+011834Y+015737
X+011834Y+016737
X+006634Y+016737
X+006634Y+015737
X+006634Y+014737
X+006634Y+013737
X+006634Y+012737
X+006634Y+011737
X+006634Y+010737
X+006634Y+009737
X+006634Y+008737
X+006634Y+007737
T01
X+010415Y+007387
X+009628Y+007387
X+008840Y+007387
X+008053Y+007387
T02
X+004903Y+016008
X+004903Y+015221
X+004903Y+014433
X+004903Y+013646
X+004903Y+012859
X+004903Y+012071
X+004903Y+011284
X+004903Y+010496
X+004903Y+009709
X+004903Y+008922
X+013565Y+008922
X+013565Y+009709
X+013565Y+010496
X+013565Y+011284
X+013565Y+012071
X+013565Y+012859
X+013565Y+013646
X+013565Y+014433
X+013565Y+015221
X+013565Y+016008
T04
X+005295Y+006102
X+005295Y+017913
X+013169Y+006102
X+013169Y+017913
T00
M30
