G04 DipTrace 3.2.0.1*
G04 xbee_jst_opl.gtl*
%MOIN*%
G04 #@! TF.FileFunction,Copper,L1,Top*
G04 #@! TF.Part,Single*
%AMOUTLINE0*
4,1,40,
0.0225,-0.02,
0.023369,-0.019924,
0.02421,-0.019698,
0.025,-0.019331,
0.025714,-0.018831,
0.026331,-0.018214,
0.026831,-0.0175,
0.027198,-0.01671,
0.027424,-0.015869,
0.0275,-0.015,
0.0275,0.015,
0.027424,0.015869,
0.027198,0.01671,
0.026831,0.0175,
0.026331,0.018214,
0.025714,0.018831,
0.025,0.019331,
0.02421,0.019698,
0.023369,0.019924,
0.0225,0.02,
-0.0225,0.02,
-0.023369,0.019924,
-0.02421,0.019698,
-0.025,0.019331,
-0.025714,0.018831,
-0.026331,0.018214,
-0.026831,0.0175,
-0.027198,0.01671,
-0.027424,0.015869,
-0.0275,0.015,
-0.0275,-0.015,
-0.027424,-0.015869,
-0.027198,-0.01671,
-0.026831,-0.0175,
-0.026331,-0.018214,
-0.025714,-0.018831,
-0.025,-0.019331,
-0.02421,-0.019698,
-0.023369,-0.019924,
-0.0225,-0.02,
0.0225,-0.02,
0*%
%AMOUTLINE3*
4,1,40,
-0.02,-0.0225,
-0.019924,-0.023369,
-0.019698,-0.02421,
-0.019331,-0.025,
-0.018831,-0.025714,
-0.018214,-0.026331,
-0.0175,-0.026831,
-0.01671,-0.027198,
-0.015869,-0.027424,
-0.015,-0.0275,
0.015,-0.0275,
0.015869,-0.027424,
0.01671,-0.027198,
0.0175,-0.026831,
0.018214,-0.026331,
0.018831,-0.025714,
0.019331,-0.025,
0.019698,-0.02421,
0.019924,-0.023369,
0.02,-0.0225,
0.02,0.0225,
0.019924,0.023369,
0.019698,0.02421,
0.019331,0.025,
0.018831,0.025714,
0.018214,0.026331,
0.0175,0.026831,
0.01671,0.027198,
0.015869,0.027424,
0.015,0.0275,
-0.015,0.0275,
-0.015869,0.027424,
-0.01671,0.027198,
-0.0175,0.026831,
-0.018214,0.026331,
-0.018831,0.025714,
-0.019331,0.025,
-0.019698,0.02421,
-0.019924,0.023369,
-0.02,0.0225,
-0.02,-0.0225,
0*%
%AMOUTLINE6*
4,1,40,
-0.0175,-0.020625,
-0.017433,-0.021385,
-0.017236,-0.022121,
-0.016913,-0.022812,
-0.016476,-0.023437,
-0.015937,-0.023976,
-0.015312,-0.024413,
-0.014621,-0.024736,
-0.013885,-0.024933,
-0.013125,-0.025,
0.013125,-0.025,
0.013885,-0.024933,
0.014621,-0.024736,
0.015312,-0.024413,
0.015937,-0.023976,
0.016476,-0.023437,
0.016913,-0.022812,
0.017236,-0.022121,
0.017433,-0.021385,
0.0175,-0.020625,
0.0175,0.020625,
0.017433,0.021385,
0.017236,0.022121,
0.016913,0.022812,
0.016476,0.023437,
0.015937,0.023976,
0.015312,0.024413,
0.014621,0.024736,
0.013885,0.024933,
0.013125,0.025,
-0.013125,0.025,
-0.013885,0.024933,
-0.014621,0.024736,
-0.015312,0.024413,
-0.015937,0.023976,
-0.016476,0.023437,
-0.016913,0.022812,
-0.017236,0.022121,
-0.017433,0.021385,
-0.0175,0.020625,
-0.0175,-0.020625,
0*%
%AMOUTLINE9*
4,1,40,
0.0175,0.020625,
0.017433,0.021385,
0.017236,0.022121,
0.016913,0.022812,
0.016476,0.023437,
0.015937,0.023976,
0.015312,0.024413,
0.014621,0.024736,
0.013885,0.024933,
0.013125,0.025,
-0.013125,0.025,
-0.013885,0.024933,
-0.014621,0.024736,
-0.015312,0.024413,
-0.015937,0.023976,
-0.016476,0.023437,
-0.016913,0.022812,
-0.017236,0.022121,
-0.017433,0.021385,
-0.0175,0.020625,
-0.0175,-0.020625,
-0.017433,-0.021385,
-0.017236,-0.022121,
-0.016913,-0.022812,
-0.016476,-0.023437,
-0.015937,-0.023976,
-0.015312,-0.024413,
-0.014621,-0.024736,
-0.013885,-0.024933,
-0.013125,-0.025,
0.013125,-0.025,
0.013885,-0.024933,
0.014621,-0.024736,
0.015312,-0.024413,
0.015937,-0.023976,
0.016476,-0.023437,
0.016913,-0.022812,
0.017236,-0.022121,
0.017433,-0.021385,
0.0175,-0.020625,
0.0175,0.020625,
0*%
G04 #@! TA.AperFunction,Conductor*
%ADD13C,0.04*%
%ADD14C,0.01*%
%ADD15C,0.02*%
%ADD16C,0.008*%
G04 #@! TA.AperFunction,CopperBalancing*
%ADD17C,0.025*%
%ADD18C,0.012992*%
G04 #@! TA.AperFunction,ComponentPad*
%ADD20R,0.05X0.05*%
%ADD21R,0.059055X0.059055*%
%ADD22C,0.059055*%
%ADD23C,0.05*%
%ADD24R,0.06X0.06*%
%ADD25C,0.06*%
G04 #@! TA.AperFunction,ViaPad*
%ADD26C,0.165*%
%ADD48OUTLINE0*%
%ADD51OUTLINE3*%
%ADD54OUTLINE6*%
%ADD57OUTLINE9*%
%FSLAX26Y26*%
G04*
G70*
G90*
G75*
G01*
G04 Top*
%LPD*%
X884016Y738700D2*
D13*
X873386Y876201D1*
X473386Y768701D2*
D14*
Y713701D1*
X668386D1*
X723386Y658701D1*
X873386D1*
X878719Y664034D1*
X888386Y673701D1*
Y734330D1*
X884016Y738700D1*
X878719Y664034D2*
X908053D1*
X928386Y643701D1*
X1148386D1*
X1213386Y708701D1*
X1373386D1*
Y718701D1*
X1378386Y723701D1*
Y768701D1*
X805276Y738700D2*
D13*
X773386Y876201D1*
X888386Y1848701D2*
D15*
X733386D1*
X563386Y1678701D1*
Y965236D1*
X490315Y892166D1*
X958386Y1848701D2*
D16*
Y1753701D1*
X888386D2*
X853386D1*
X718386Y1618701D1*
X613386D1*
X608386Y1613701D1*
Y1228701D1*
X663386Y1173701D1*
X1077135Y943701D2*
G03X1248386Y923701I126251J337856D01*
G01*
X1308386Y768701D1*
X958386Y943701D2*
G03X623386Y918701I-100000J-917000D01*
G01*
X543386Y768701D1*
X962756Y738700D2*
Y683697D1*
X1098386D1*
Y789176D1*
X1077135Y873701D1*
X1033498Y898895D1*
Y1363701D1*
X663386Y1573701D1*
X1041496Y738700D2*
X978386Y873701D1*
X958386D1*
X1008386Y898701D1*
Y1289502D1*
X663386Y1473701D1*
D26*
X529488Y610236D3*
Y1791339D3*
X1316890Y610236D3*
Y1791339D3*
X438619Y1870116D2*
D17*
X451669D1*
X607311D2*
X841910D1*
X1004872D2*
X1239076D1*
X1394718D2*
X1411679D1*
X626724Y1845247D2*
X841910D1*
X1004872D2*
X1219662D1*
X637023Y1820378D2*
X842878D1*
X1003903D2*
X1209328D1*
X640898Y1795509D2*
X846000D1*
X1000745D2*
X1205488D1*
X638997Y1770641D2*
X824721D1*
X1007384D2*
X1207390D1*
X630994Y1745772D2*
X799817D1*
X1007384D2*
X1215392D1*
X721889Y1720903D2*
X774950D1*
X1005661D2*
X1150729D1*
X1216050D2*
X1231217D1*
X1402576D2*
X1411715D1*
X438619Y1696034D2*
X474097D1*
X584883D2*
X604859D1*
X721889D2*
X750082D1*
X841348D2*
X1129521D1*
X1237258D2*
X1261503D1*
X1372254D2*
X1411715D1*
X438619Y1671166D2*
X604859D1*
X816480D2*
X1124928D1*
X1241851D2*
X1411715D1*
X549322Y1646297D2*
X597933D1*
X791612D2*
X1132033D1*
X1234746D2*
X1320425D1*
X1392493D2*
X1411715D1*
X549322Y1621428D2*
X576402D1*
X766744D2*
X1151554D1*
X1215225D2*
X1301371D1*
X549322Y1596559D2*
X575398D1*
X741841D2*
X1129737D1*
X1237042D2*
X1297639D1*
X549322Y1571691D2*
X575398D1*
X731219D2*
X1124892D1*
X1241887D2*
X1305569D1*
X549322Y1546822D2*
X575398D1*
X775034D2*
X1131746D1*
X1235033D2*
X1303165D1*
X549322Y1521953D2*
X575398D1*
X818884D2*
X1152415D1*
X1214328D2*
X1297459D1*
X543473Y1497084D2*
X575398D1*
X716793D2*
X734113D1*
X862699D2*
X1129988D1*
X1236791D2*
X1303308D1*
X541392Y1472215D2*
X575398D1*
X733408D2*
X777964D1*
X906549D2*
X1124892D1*
X1241887D2*
X1305390D1*
X549178Y1447347D2*
X575398D1*
X779986D2*
X821779D1*
X950364D2*
X1131459D1*
X1235320D2*
X1297603D1*
X545303Y1422478D2*
X575398D1*
X826563D2*
X865629D1*
X994178D2*
X1153348D1*
X1213431D2*
X1301478D1*
X538664Y1397609D2*
X575398D1*
X716542D2*
X738671D1*
X873141D2*
X909444D1*
X1038029D2*
X1130239D1*
X1236540D2*
X1308117D1*
X548712Y1372740D2*
X575398D1*
X721889D2*
X785248D1*
X919719D2*
X953294D1*
X1065121D2*
X1124892D1*
X1241887D2*
X1298069D1*
X546774Y1347872D2*
X575398D1*
X715609D2*
X831826D1*
X966296D2*
X997109D1*
X1066485D2*
X1131172D1*
X1235607D2*
X1300007D1*
X535399Y1323003D2*
X575398D1*
X692500D2*
X878404D1*
X1066485D2*
X1154281D1*
X1212498D2*
X1311382D1*
X1401536D2*
X1411750D1*
X547958Y1298134D2*
X575398D1*
X716291D2*
X924981D1*
X1066485D2*
X1130490D1*
X1236289D2*
X1298823D1*
X547887Y1273265D2*
X575398D1*
X721889D2*
X971559D1*
X1066485D2*
X1124856D1*
X1241887D2*
X1298895D1*
X535076Y1248397D2*
X575398D1*
X715861D2*
X975399D1*
X1066485D2*
X1130921D1*
X1235858D2*
X1311669D1*
X1401248D2*
X1411750D1*
X546882Y1223528D2*
X575828D1*
X691495D2*
X975399D1*
X1066485D2*
X1155286D1*
X1211493D2*
X1299899D1*
X548676Y1198659D2*
X592802D1*
X716040D2*
X975399D1*
X1066485D2*
X1130741D1*
X1236038D2*
X1298105D1*
X538413Y1173790D2*
X604859D1*
X721889D2*
X975399D1*
X1066485D2*
X1124856D1*
X1241923D2*
X1308332D1*
X545447Y1148921D2*
X610636D1*
X716112D2*
X975399D1*
X1066485D2*
X1130634D1*
X1236109D2*
X1301335D1*
X549143Y1124053D2*
X634930D1*
X691818D2*
X975399D1*
X1066485D2*
X1154927D1*
X1211816D2*
X1297639D1*
X541176Y1099184D2*
X610995D1*
X715789D2*
X975399D1*
X1066485D2*
X1130993D1*
X1235786D2*
X1305605D1*
X543652Y1074315D2*
X604859D1*
X721889D2*
X975399D1*
X1066485D2*
X1124856D1*
X1241887D2*
X1303129D1*
X549322Y1049446D2*
X610385D1*
X716399D2*
X975399D1*
X1066485D2*
X1130383D1*
X1236397D2*
X1297459D1*
X543437Y1024578D2*
X633961D1*
X692823D2*
X975399D1*
X1066485D2*
X1153958D1*
X1212821D2*
X1303344D1*
X541427Y999709D2*
X611282D1*
X715502D2*
X975399D1*
X1066485D2*
X1131280D1*
X1235499D2*
X1305354D1*
X549178Y974840D2*
X604895D1*
X721889D2*
X760919D1*
X1241887D2*
X1297603D1*
X545303Y949971D2*
X610134D1*
X1266360D2*
X1301478D1*
X538700Y925103D2*
X589751D1*
X1283046D2*
X1297459D1*
X548712Y900234D2*
X576474D1*
X546738Y875365D2*
X563233D1*
X438655Y850496D2*
X449660D1*
X530949D2*
X549956D1*
X438691Y825628D2*
X536679D1*
X610792D2*
X632131D1*
X694653D2*
X719401D1*
X927362D2*
X964705D1*
X1037024D2*
X1055277D1*
X1241923D2*
X1251140D1*
X1321550D2*
X1411750D1*
X597550Y800759D2*
X611820D1*
X714928D2*
X830104D1*
X928367D2*
X976332D1*
X1048650D2*
X1061521D1*
X1241923D2*
X1260786D1*
X589871Y775890D2*
X604895D1*
X721853D2*
X767163D1*
X1241923D2*
X1261898D1*
X589871Y751021D2*
X609667D1*
X717116D2*
X752773D1*
X1241923D2*
X1261898D1*
X702978Y726152D2*
X752845D1*
X727846Y701284D2*
X767414D1*
X1131364D2*
X1158946D1*
X618578Y676415D2*
X658649D1*
X632860Y651546D2*
X683517D1*
X1203275D2*
X1213537D1*
X639750Y626677D2*
X898355D1*
X1178408D2*
X1206636D1*
X640647Y601809D2*
X1205739D1*
X635767Y576940D2*
X1210620D1*
X624176Y552071D2*
X1222210D1*
X438691Y527202D2*
X456370D1*
X602574D2*
X1243777D1*
X1389981D2*
X1411786D1*
X438691Y502334D2*
X511632D1*
X547348D2*
X1299038D1*
X1334755D2*
X1411786D1*
X438691Y477465D2*
X1411786D1*
X438691Y452596D2*
X1411786D1*
X924878Y829191D2*
Y824709D1*
X923981D1*
X927730Y776424D1*
X932490Y780358D1*
X939379Y784579D1*
X946844Y787671D1*
X954701Y789558D1*
X962756Y790192D1*
X970811Y789558D1*
X978668Y787671D1*
X986477Y784386D1*
X966475Y827178D1*
X932705Y827386D1*
X927310Y828416D1*
X925316Y829037D1*
X824878Y824709D2*
X721894D1*
Y908111D1*
X709119Y906038D1*
X713300Y899133D1*
X716664Y891012D1*
X718716Y882464D1*
X719406Y873701D1*
X718716Y864938D1*
X716664Y856390D1*
X713300Y848269D1*
X708707Y840774D1*
X702998Y834089D1*
X696314Y828380D1*
X688647Y823708D1*
X695050Y819913D1*
X700823Y815374D1*
X705953Y810119D1*
X710351Y804238D1*
X713942Y797832D1*
X716664Y791011D1*
X718471Y783893D1*
X719331Y776600D1*
X719285Y770029D1*
X718324Y762748D1*
X716420Y755656D1*
X713603Y748874D1*
X709924Y742518D1*
X705445Y736698D1*
X700243Y731514D1*
X697416Y729202D1*
X736454Y690169D1*
X788013Y690193D1*
X782278Y692629D1*
X775958Y696369D1*
X770235Y700969D1*
X765225Y706337D1*
X761029Y712363D1*
X757733Y718924D1*
X755403Y725888D1*
X754088Y733112D1*
X753814Y740450D1*
X754586Y747752D1*
X756389Y754870D1*
X759186Y761659D1*
X762920Y767981D1*
X767516Y773708D1*
X772879Y778723D1*
X778901Y782924D1*
X785460Y786226D1*
X792422Y788561D1*
X799645Y789883D1*
X806982Y790163D1*
X814285Y789397D1*
X821404Y787601D1*
X828196Y784809D1*
X834085Y781370D1*
X830734Y824739D1*
X1136553Y829721D2*
X1148718D1*
X1143774Y834089D1*
X1138065Y840774D1*
X1133472Y848269D1*
X1130828Y854439D1*
X1129921Y850125D1*
X1127987Y845028D1*
X1125165Y840290D1*
X1121582Y836138D1*
X1120048Y834721D1*
X1120146Y827681D1*
X1127365Y798969D1*
X1127367Y829721D1*
X1136553D1*
X1218118D2*
X1239406D1*
Y740189D1*
X1265454Y740193D1*
X1264604Y744569D1*
X1264394Y757263D1*
X1264563Y792410D1*
X1264828Y794481D1*
X1263369Y800528D1*
X1238640Y864412D1*
X1236664Y856390D1*
X1233300Y848269D1*
X1228707Y840774D1*
X1222998Y834089D1*
X1218000Y829710D1*
X1177864Y717681D2*
X1128881D1*
X1128784Y681305D1*
X1128033Y676570D1*
X1130486Y675193D1*
X1135330D1*
X1177855Y717707D1*
X1239233Y969306D2*
X1237858Y960623D1*
X1235433Y953053D1*
X1249098Y954185D1*
X1253858Y953698D1*
X1258484Y952473D1*
X1262860Y950539D1*
X1266880Y947944D1*
X1270445Y944753D1*
X1273467Y941043D1*
X1275871Y936906D1*
X1299971Y874907D1*
X1299965Y948657D1*
X1304522D1*
X1301526Y957718D1*
X1300139Y966473D1*
Y975338D1*
X1301526Y984094D1*
X1304265Y992524D1*
X1308290Y1000423D1*
X1313500Y1007594D1*
X1315958Y1010254D1*
X1310754Y1016441D1*
X1306122Y1023999D1*
X1302730Y1032189D1*
X1300660Y1040809D1*
X1299965Y1049646D1*
X1300660Y1058483D1*
X1302730Y1067103D1*
X1306122Y1075293D1*
X1310754Y1082851D1*
X1315958Y1088994D1*
X1310754Y1095181D1*
X1306122Y1102739D1*
X1302730Y1110929D1*
X1300660Y1119549D1*
X1299965Y1128386D1*
X1300660Y1137223D1*
X1302730Y1145843D1*
X1306122Y1154033D1*
X1310754Y1161591D1*
X1315958Y1167734D1*
X1310754Y1173921D1*
X1306122Y1181479D1*
X1302730Y1189669D1*
X1300660Y1198289D1*
X1299965Y1207126D1*
X1300660Y1215963D1*
X1302730Y1224583D1*
X1306122Y1232773D1*
X1310754Y1240331D1*
X1315958Y1246474D1*
X1310754Y1252661D1*
X1306122Y1260220D1*
X1302730Y1268409D1*
X1300660Y1277029D1*
X1299965Y1285866D1*
X1300660Y1294704D1*
X1302730Y1303323D1*
X1306122Y1311513D1*
X1310754Y1319072D1*
X1315958Y1325214D1*
X1310754Y1331401D1*
X1306122Y1338960D1*
X1302730Y1347150D1*
X1300660Y1355769D1*
X1299965Y1364607D1*
X1300660Y1373444D1*
X1302730Y1382063D1*
X1306122Y1390253D1*
X1310754Y1397812D1*
X1315958Y1403954D1*
X1310754Y1410142D1*
X1306122Y1417700D1*
X1302730Y1425890D1*
X1300660Y1434509D1*
X1299965Y1443347D1*
X1300660Y1452184D1*
X1302730Y1460804D1*
X1306122Y1468994D1*
X1310754Y1476552D1*
X1315958Y1482695D1*
X1310754Y1488882D1*
X1306122Y1496440D1*
X1302730Y1504630D1*
X1300660Y1513250D1*
X1299965Y1522087D1*
X1300660Y1530924D1*
X1302730Y1539544D1*
X1306122Y1547734D1*
X1310754Y1555292D1*
X1315958Y1561435D1*
X1310754Y1567622D1*
X1306122Y1575180D1*
X1302730Y1583370D1*
X1300660Y1591990D1*
X1299965Y1600827D1*
X1300660Y1609664D1*
X1302730Y1618284D1*
X1306122Y1626474D1*
X1310754Y1634032D1*
X1316511Y1640773D1*
X1323252Y1646530D1*
X1330810Y1651162D1*
X1339000Y1654554D1*
X1347620Y1656623D1*
X1356457Y1657319D1*
X1365294Y1656623D1*
X1373914Y1654554D1*
X1382104Y1651162D1*
X1389662Y1646530D1*
X1396403Y1640773D1*
X1402160Y1634032D1*
X1406792Y1626474D1*
X1410184Y1618284D1*
X1412253Y1609664D1*
X1412949Y1600827D1*
X1412253Y1591990D1*
X1410184Y1583370D1*
X1406792Y1575180D1*
X1402160Y1567622D1*
X1396956Y1561479D1*
X1402160Y1555292D1*
X1406792Y1547734D1*
X1410184Y1539544D1*
X1412253Y1530924D1*
X1412949Y1522087D1*
X1412253Y1513250D1*
X1410184Y1504630D1*
X1406792Y1496440D1*
X1402160Y1488882D1*
X1396956Y1482739D1*
X1402160Y1476552D1*
X1406792Y1468994D1*
X1410184Y1460804D1*
X1412253Y1452184D1*
X1412949Y1443347D1*
X1412253Y1434509D1*
X1410184Y1425890D1*
X1406792Y1417700D1*
X1402160Y1410142D1*
X1396956Y1403999D1*
X1402160Y1397812D1*
X1406792Y1390253D1*
X1410184Y1382063D1*
X1412253Y1373444D1*
X1412949Y1364607D1*
X1412253Y1355769D1*
X1410184Y1347150D1*
X1406792Y1338960D1*
X1402160Y1331401D1*
X1396956Y1325259D1*
X1402160Y1319072D1*
X1406792Y1311513D1*
X1410184Y1303323D1*
X1412253Y1294704D1*
X1412949Y1285866D1*
X1412253Y1277029D1*
X1410184Y1268409D1*
X1406792Y1260220D1*
X1402160Y1252661D1*
X1396956Y1246518D1*
X1402160Y1240331D1*
X1406792Y1232773D1*
X1410184Y1224583D1*
X1412253Y1215963D1*
X1412949Y1207126D1*
X1412253Y1198289D1*
X1410184Y1189669D1*
X1406792Y1181479D1*
X1402160Y1173921D1*
X1396956Y1167778D1*
X1402160Y1161591D1*
X1406792Y1154033D1*
X1410184Y1145843D1*
X1412253Y1137223D1*
X1412949Y1128386D1*
X1412253Y1119549D1*
X1410184Y1110929D1*
X1406792Y1102739D1*
X1402160Y1095181D1*
X1396956Y1089038D1*
X1402160Y1082851D1*
X1406792Y1075293D1*
X1410184Y1067103D1*
X1412253Y1058483D1*
X1412949Y1049646D1*
X1412253Y1040809D1*
X1410184Y1032189D1*
X1406792Y1023999D1*
X1402160Y1016441D1*
X1396956Y1010298D1*
X1402160Y1004111D1*
X1406792Y996553D1*
X1410184Y988363D1*
X1412253Y979743D1*
X1412949Y970906D1*
X1412253Y962068D1*
X1410184Y953449D1*
X1408351Y948642D1*
X1412949Y948657D1*
Y835673D1*
X1315165D1*
X1321163Y820160D1*
X1326658Y819760D1*
X1331837Y818414D1*
X1336753Y816167D1*
X1341165Y813126D1*
X1342724Y811736D1*
X1343716Y811410D1*
X1347888Y814822D1*
X1352560Y817443D1*
X1357658Y819227D1*
X1362937Y820091D1*
X1391511Y820193D1*
X1396658Y819760D1*
X1401837Y818414D1*
X1406753Y816167D1*
X1411165Y813126D1*
X1413601Y810865D1*
X1414268Y811136D1*
X1414003Y1741857D1*
X1409821Y1734391D1*
X1405066Y1727275D1*
X1399768Y1720554D1*
X1393959Y1714270D1*
X1387675Y1708461D1*
X1380954Y1703162D1*
X1373838Y1698408D1*
X1366371Y1694226D1*
X1358599Y1690643D1*
X1350570Y1687681D1*
X1342334Y1685358D1*
X1333940Y1683689D1*
X1325441Y1682683D1*
X1316890Y1682347D1*
X1308339Y1682683D1*
X1299840Y1683689D1*
X1291446Y1685358D1*
X1283210Y1687681D1*
X1275181Y1690643D1*
X1267409Y1694226D1*
X1259942Y1698408D1*
X1252826Y1703162D1*
X1246105Y1708461D1*
X1239821Y1714270D1*
X1234012Y1720554D1*
X1228714Y1727275D1*
X1223959Y1734391D1*
X1219777Y1741857D1*
X1216194Y1749629D1*
X1213232Y1757658D1*
X1210909Y1765895D1*
X1209240Y1774289D1*
X1208234Y1782787D1*
X1207898Y1791339D1*
X1208234Y1799890D1*
X1209240Y1808389D1*
X1210909Y1816782D1*
X1213232Y1825019D1*
X1216194Y1833048D1*
X1219777Y1840820D1*
X1223959Y1848287D1*
X1228714Y1855403D1*
X1234012Y1862123D1*
X1239821Y1868408D1*
X1246105Y1874217D1*
X1252826Y1879515D1*
X1259942Y1884270D1*
X1264288Y1886704D1*
X997028Y1886691D1*
X999628Y1882027D1*
X1001412Y1876929D1*
X1002276Y1871650D1*
X1002378Y1828076D1*
X1001945Y1822929D1*
X1000433Y1817293D1*
X998352Y1812834D1*
X995312Y1808422D1*
X991528Y1804580D1*
X989888Y1803288D1*
X995011Y1799081D1*
X998654Y1794980D1*
X1001530Y1790309D1*
X1003559Y1785180D1*
X1004656Y1779840D1*
X1004878Y1767015D1*
X1004701Y1728020D1*
X1003671Y1722625D1*
X1002278Y1718700D1*
X999689Y1713902D1*
X995950Y1709254D1*
X992165Y1705933D1*
X987495Y1703057D1*
X982365Y1701028D1*
X977025Y1699931D1*
X964200Y1699709D1*
X940205Y1699886D1*
X934810Y1700916D1*
X929714Y1702849D1*
X924968Y1705676D1*
X922165Y1705933D1*
X917495Y1703057D1*
X912365Y1701028D1*
X907025Y1699931D1*
X894200Y1699709D1*
X870205Y1699886D1*
X864810Y1700916D1*
X859714Y1702849D1*
X854975Y1705671D1*
X851762Y1708321D1*
X848964Y1706157D1*
X738189Y1595515D1*
X734318Y1592702D1*
X730055Y1590530D1*
X725504Y1589051D1*
X720778Y1588303D1*
X717489Y1588209D1*
X718716Y1582464D1*
X719274Y1577049D1*
X1050580Y1388959D1*
X1054321Y1385976D1*
X1057549Y1382444D1*
X1060185Y1378451D1*
X1062164Y1374095D1*
X1063437Y1369482D1*
X1063972Y1364718D1*
X1063990Y990183D1*
X1102816Y990016D1*
X1108211Y988986D1*
X1113308Y987053D1*
X1118421Y983964D1*
X1122199Y980648D1*
X1125666Y976399D1*
X1127366Y973701D1*
X1128056Y982464D1*
X1130108Y991012D1*
X1133472Y999133D1*
X1138065Y1006628D1*
X1143774Y1013313D1*
X1150459Y1019022D1*
X1158125Y1023694D1*
X1150459Y1028380D1*
X1143774Y1034089D1*
X1138065Y1040774D1*
X1133472Y1048269D1*
X1130108Y1056390D1*
X1128056Y1064938D1*
X1127366Y1073701D1*
X1128056Y1082464D1*
X1130108Y1091012D1*
X1133472Y1099133D1*
X1138065Y1106628D1*
X1143774Y1113313D1*
X1150459Y1119022D1*
X1158125Y1123694D1*
X1150459Y1128380D1*
X1143774Y1134089D1*
X1138065Y1140774D1*
X1133472Y1148269D1*
X1130108Y1156390D1*
X1128056Y1164938D1*
X1127366Y1173701D1*
X1128056Y1182464D1*
X1130108Y1191012D1*
X1133472Y1199133D1*
X1138065Y1206628D1*
X1143774Y1213313D1*
X1150459Y1219022D1*
X1158125Y1223694D1*
X1150459Y1228380D1*
X1143774Y1234089D1*
X1138065Y1240774D1*
X1133472Y1248269D1*
X1130108Y1256390D1*
X1128056Y1264938D1*
X1127366Y1273701D1*
X1128056Y1282464D1*
X1130108Y1291012D1*
X1133472Y1299133D1*
X1138065Y1306628D1*
X1143774Y1313313D1*
X1150459Y1319022D1*
X1158125Y1323694D1*
X1150459Y1328380D1*
X1143774Y1334089D1*
X1138065Y1340774D1*
X1133472Y1348269D1*
X1130108Y1356390D1*
X1128056Y1364938D1*
X1127366Y1373701D1*
X1128056Y1382464D1*
X1130108Y1391012D1*
X1133472Y1399133D1*
X1138065Y1406628D1*
X1143774Y1413313D1*
X1150459Y1419022D1*
X1158125Y1423694D1*
X1150459Y1428380D1*
X1143774Y1434089D1*
X1138065Y1440774D1*
X1133472Y1448269D1*
X1130108Y1456390D1*
X1128056Y1464938D1*
X1127366Y1473701D1*
X1128056Y1482464D1*
X1130108Y1491012D1*
X1133472Y1499133D1*
X1138065Y1506628D1*
X1143774Y1513313D1*
X1150459Y1519022D1*
X1158125Y1523694D1*
X1150459Y1528380D1*
X1143774Y1534089D1*
X1138065Y1540774D1*
X1133472Y1548269D1*
X1130108Y1556390D1*
X1128056Y1564938D1*
X1127366Y1573701D1*
X1128056Y1582464D1*
X1130108Y1591012D1*
X1133472Y1599133D1*
X1138065Y1606628D1*
X1143774Y1613313D1*
X1150459Y1619022D1*
X1158125Y1623694D1*
X1150459Y1628380D1*
X1143774Y1634089D1*
X1138065Y1640774D1*
X1133472Y1648269D1*
X1130108Y1656390D1*
X1128056Y1664938D1*
X1127366Y1673701D1*
X1128056Y1682464D1*
X1130108Y1691012D1*
X1133472Y1699133D1*
X1138065Y1706628D1*
X1143774Y1713313D1*
X1150459Y1719022D1*
X1157954Y1723615D1*
X1166075Y1726979D1*
X1174623Y1729031D1*
X1183386Y1729721D1*
X1192149Y1729031D1*
X1200697Y1726979D1*
X1208818Y1723615D1*
X1216314Y1719022D1*
X1222998Y1713313D1*
X1228707Y1706628D1*
X1233300Y1699133D1*
X1236664Y1691012D1*
X1238716Y1682464D1*
X1239406Y1673701D1*
X1238716Y1664938D1*
X1236664Y1656390D1*
X1233300Y1648269D1*
X1228707Y1640774D1*
X1222998Y1634089D1*
X1216314Y1628380D1*
X1208647Y1623708D1*
X1216314Y1619022D1*
X1222998Y1613313D1*
X1228707Y1606628D1*
X1233300Y1599133D1*
X1236664Y1591012D1*
X1238716Y1582464D1*
X1239406Y1573701D1*
X1238716Y1564938D1*
X1236664Y1556390D1*
X1233300Y1548269D1*
X1228707Y1540774D1*
X1222998Y1534089D1*
X1216314Y1528380D1*
X1208647Y1523708D1*
X1216314Y1519022D1*
X1222998Y1513313D1*
X1228707Y1506628D1*
X1233300Y1499133D1*
X1236664Y1491012D1*
X1238716Y1482464D1*
X1239406Y1473701D1*
X1238716Y1464938D1*
X1236664Y1456390D1*
X1233300Y1448269D1*
X1228707Y1440774D1*
X1222998Y1434089D1*
X1216314Y1428380D1*
X1208647Y1423708D1*
X1216314Y1419022D1*
X1222998Y1413313D1*
X1228707Y1406628D1*
X1233300Y1399133D1*
X1236664Y1391012D1*
X1238716Y1382464D1*
X1239406Y1373701D1*
X1238716Y1364938D1*
X1236664Y1356390D1*
X1233300Y1348269D1*
X1228707Y1340774D1*
X1222998Y1334089D1*
X1216314Y1328380D1*
X1208647Y1323708D1*
X1216314Y1319022D1*
X1222998Y1313313D1*
X1228707Y1306628D1*
X1233300Y1299133D1*
X1236664Y1291012D1*
X1238716Y1282464D1*
X1239406Y1273701D1*
X1238716Y1264938D1*
X1236664Y1256390D1*
X1233300Y1248269D1*
X1228707Y1240774D1*
X1222998Y1234089D1*
X1216314Y1228380D1*
X1208647Y1223708D1*
X1216314Y1219022D1*
X1222998Y1213313D1*
X1228707Y1206628D1*
X1233300Y1199133D1*
X1236664Y1191012D1*
X1238716Y1182464D1*
X1239406Y1173701D1*
X1238716Y1164938D1*
X1236664Y1156390D1*
X1233300Y1148269D1*
X1228707Y1140774D1*
X1222998Y1134089D1*
X1216314Y1128380D1*
X1208647Y1123708D1*
X1216314Y1119022D1*
X1222998Y1113313D1*
X1228707Y1106628D1*
X1233300Y1099133D1*
X1236664Y1091012D1*
X1238716Y1082464D1*
X1239406Y1073701D1*
X1238716Y1064938D1*
X1236664Y1056390D1*
X1233300Y1048269D1*
X1228707Y1040774D1*
X1222998Y1034089D1*
X1216314Y1028380D1*
X1208647Y1023708D1*
X1216314Y1019022D1*
X1222998Y1013313D1*
X1228707Y1006628D1*
X1233300Y999133D1*
X1236664Y991012D1*
X1238716Y982464D1*
X1239406Y973701D1*
X1239233Y969306D1*
X619388Y1729720D2*
X719406D1*
Y1662868D1*
X833583Y1776887D1*
X837454Y1779700D1*
X841726Y1781875D1*
X842760Y1783490D1*
X844494Y1788702D1*
X847356Y1793899D1*
X850506Y1797826D1*
X854607Y1801469D1*
X855695Y1802236D1*
X855795Y1804122D1*
X851924Y1807874D1*
X848765Y1812243D1*
X846426Y1817065D1*
X844947Y1822263D1*
X844399Y1827593D1*
X844563Y1872410D1*
X845557Y1877665D1*
X847467Y1882719D1*
X849251Y1885936D1*
X846351Y1886676D1*
X582351Y1886650D1*
X593552Y1879515D1*
X600273Y1874217D1*
X606557Y1868408D1*
X612367Y1862123D1*
X617665Y1855403D1*
X622419Y1848287D1*
X626601Y1840820D1*
X630184Y1833048D1*
X633146Y1825019D1*
X635469Y1816782D1*
X637139Y1808389D1*
X638144Y1799890D1*
X638480Y1791339D1*
X638144Y1782787D1*
X637139Y1774289D1*
X635469Y1765895D1*
X633146Y1757658D1*
X630184Y1749629D1*
X626601Y1741857D1*
X622419Y1734391D1*
X619281Y1729693D1*
X607367Y1648578D2*
Y1715107D1*
X600273Y1708461D1*
X593552Y1703162D1*
X586437Y1698408D1*
X578970Y1694226D1*
X571198Y1690643D1*
X563169Y1687681D1*
X554932Y1685358D1*
X546539Y1683689D1*
X538040Y1682683D1*
X529488Y1682347D1*
X520937Y1682683D1*
X512438Y1683689D1*
X504045Y1685358D1*
X495808Y1687681D1*
X487779Y1690643D1*
X480007Y1694226D1*
X472540Y1698408D1*
X465425Y1703162D1*
X458704Y1708461D1*
X452419Y1714270D1*
X446610Y1720554D1*
X441312Y1727275D1*
X436116Y1735178D1*
X436118Y1657287D1*
X546807Y1657319D1*
Y1544335D1*
X542250D1*
X545246Y1535275D1*
X546633Y1526519D1*
Y1517655D1*
X545246Y1508899D1*
X542507Y1500468D1*
X538483Y1492570D1*
X533272Y1485398D1*
X530814Y1482739D1*
X536018Y1476552D1*
X540650Y1468994D1*
X544042Y1460804D1*
X546112Y1452184D1*
X546807Y1443347D1*
X546112Y1434509D1*
X544042Y1425890D1*
X540650Y1417700D1*
X536018Y1410142D1*
X530814Y1403999D1*
X536018Y1397812D1*
X540650Y1390253D1*
X544042Y1382063D1*
X546112Y1373444D1*
X546807Y1364607D1*
X546112Y1355769D1*
X544042Y1347150D1*
X540650Y1338960D1*
X536018Y1331401D1*
X530814Y1325259D1*
X536018Y1319072D1*
X540650Y1311513D1*
X544042Y1303323D1*
X546112Y1294704D1*
X546807Y1285866D1*
X546112Y1277029D1*
X544042Y1268409D1*
X540650Y1260220D1*
X536018Y1252661D1*
X530814Y1246518D1*
X536018Y1240331D1*
X540650Y1232773D1*
X544042Y1224583D1*
X546112Y1215963D1*
X546807Y1207126D1*
X546112Y1198289D1*
X544042Y1189669D1*
X540650Y1181479D1*
X536018Y1173921D1*
X530814Y1167778D1*
X536018Y1161591D1*
X540650Y1154033D1*
X544042Y1145843D1*
X546112Y1137223D1*
X546807Y1128386D1*
X546112Y1119549D1*
X544042Y1110929D1*
X540650Y1102739D1*
X536018Y1095181D1*
X530814Y1089038D1*
X536018Y1082851D1*
X540650Y1075293D1*
X544042Y1067103D1*
X546112Y1058483D1*
X546807Y1049646D1*
X546112Y1040809D1*
X544042Y1032189D1*
X540650Y1023999D1*
X536018Y1016441D1*
X530814Y1010298D1*
X536018Y1004111D1*
X540650Y996553D1*
X544042Y988363D1*
X546112Y979743D1*
X546807Y970906D1*
X546112Y962068D1*
X544042Y953449D1*
X540650Y945259D1*
X536018Y937701D1*
X530814Y931558D1*
X535055Y926657D1*
X539152Y920562D1*
X542423Y913987D1*
X544813Y907043D1*
X546282Y899847D1*
X546807Y892166D1*
X546330Y884837D1*
X544906Y877633D1*
X542559Y870674D1*
X539330Y864078D1*
X535272Y857957D1*
X530454Y852414D1*
X524959Y847543D1*
X518877Y843426D1*
X512313Y840133D1*
X505377Y837719D1*
X498187Y836225D1*
X490864Y835676D1*
X483531Y836082D1*
X476313Y837436D1*
X469332Y839715D1*
X462705Y842881D1*
X456545Y846879D1*
X450955Y851642D1*
X446031Y857091D1*
X441855Y863132D1*
X438498Y869663D1*
X436170Y876074D1*
X436175Y808626D1*
X440244Y812822D1*
X444638Y815946D1*
X449478Y818248D1*
X454688Y819685D1*
X460023Y820192D1*
X489595Y820024D1*
X494850Y819030D1*
X499904Y817120D1*
X504509Y814385D1*
X507724Y811736D1*
X508716Y811410D1*
X512888Y814822D1*
X517560Y817443D1*
X522658Y819227D1*
X527937Y820091D1*
X530023Y820192D1*
X538096Y823578D1*
X597690Y935117D1*
X600574Y938935D1*
X604020Y942254D1*
X607943Y944993D1*
X612255Y947089D1*
X613472Y948269D1*
X610108Y956390D1*
X608056Y964938D1*
X607366Y973701D1*
X608056Y982464D1*
X610108Y991012D1*
X613472Y999133D1*
X618065Y1006628D1*
X623774Y1013313D1*
X630459Y1019022D1*
X638125Y1023694D1*
X630459Y1028380D1*
X623774Y1034089D1*
X618065Y1040774D1*
X613472Y1048269D1*
X610108Y1056390D1*
X608056Y1064938D1*
X607366Y1073701D1*
X608056Y1082464D1*
X610108Y1091012D1*
X613472Y1099133D1*
X618065Y1106628D1*
X623774Y1113313D1*
X630459Y1119022D1*
X638125Y1123694D1*
X630459Y1128380D1*
X623774Y1134089D1*
X618065Y1140774D1*
X613472Y1148269D1*
X610108Y1156390D1*
X608056Y1164938D1*
X607366Y1173701D1*
X608056Y1182464D1*
X608629Y1185346D1*
X585200Y1208898D1*
X582387Y1212769D1*
X580215Y1217032D1*
X578736Y1221583D1*
X577988Y1226309D1*
X577894Y1302192D1*
X577988Y1616093D1*
X578736Y1620819D1*
X580215Y1625370D1*
X582387Y1629633D1*
X585200Y1633504D1*
X593583Y1641887D1*
X597454Y1644700D1*
X601717Y1646872D1*
X606277Y1648352D1*
X689193Y1523997D2*
X688818Y1523615D1*
X696314Y1519022D1*
X702998Y1513313D1*
X708707Y1506628D1*
X713300Y1499133D1*
X716664Y1491012D1*
X718716Y1482464D1*
X719186Y1478489D1*
X1003002Y1326942D1*
X1003005Y1345976D1*
X689213Y1523988D1*
X690422Y1424686D2*
X688818Y1423615D1*
X696314Y1419022D1*
X702998Y1413313D1*
X708707Y1406628D1*
X713300Y1399133D1*
X716664Y1391012D1*
X718716Y1382464D1*
X719406Y1373701D1*
X718716Y1364938D1*
X716664Y1356390D1*
X713300Y1348269D1*
X708707Y1340774D1*
X702998Y1334089D1*
X696314Y1328380D1*
X688647Y1323708D1*
X696314Y1319022D1*
X702998Y1313313D1*
X708707Y1306628D1*
X713300Y1299133D1*
X716664Y1291012D1*
X718716Y1282464D1*
X719406Y1273701D1*
X718716Y1264938D1*
X716664Y1256390D1*
X713300Y1248269D1*
X708707Y1240774D1*
X702998Y1234089D1*
X696314Y1228380D1*
X688647Y1223708D1*
X696314Y1219022D1*
X702998Y1213313D1*
X708707Y1206628D1*
X713300Y1199133D1*
X716664Y1191012D1*
X718716Y1182464D1*
X719406Y1173701D1*
X718716Y1164938D1*
X716664Y1156390D1*
X713300Y1148269D1*
X708707Y1140774D1*
X702998Y1134089D1*
X696314Y1128380D1*
X688647Y1123708D1*
X696314Y1119022D1*
X702998Y1113313D1*
X708707Y1106628D1*
X713300Y1099133D1*
X716664Y1091012D1*
X718716Y1082464D1*
X719406Y1073701D1*
X718716Y1064938D1*
X716664Y1056390D1*
X713300Y1048269D1*
X708707Y1040774D1*
X702998Y1034089D1*
X696314Y1028380D1*
X688647Y1023708D1*
X696314Y1019022D1*
X702998Y1013313D1*
X708707Y1006628D1*
X713300Y999133D1*
X716664Y991012D1*
X718716Y982464D1*
X719406Y973701D1*
X719236Y969392D1*
X754990Y973987D1*
X786726Y976878D1*
X817889Y978767D1*
X848240Y979522D1*
X879461Y979395D1*
X911123Y978116D1*
X913939Y981264D1*
X918188Y984731D1*
X923004Y987420D1*
X928152Y989212D1*
X933574Y990092D1*
X977887Y990193D1*
X977817Y1271256D1*
X690486Y1424666D1*
X638125Y823708D2*
X630459Y828380D1*
X623774Y834089D1*
X618065Y840774D1*
X617120Y842188D1*
X587388Y786409D1*
X587296Y745990D1*
X592809Y745193D1*
X615164D1*
X612223Y750887D1*
X609678Y757776D1*
X608056Y764938D1*
X607385Y772251D1*
X607677Y779589D1*
X608926Y786826D1*
X611111Y793837D1*
X614194Y800503D1*
X618123Y806707D1*
X622829Y812345D1*
X628233Y817318D1*
X634240Y821542D1*
X638138Y823700D1*
X1051115Y790192D2*
X1066689D1*
X1057379Y827226D1*
X1051454Y827386D1*
X1045648Y828530D1*
X1040963Y830349D1*
X1036224Y833171D1*
X1032072Y836754D1*
X1028605Y841003D1*
X1025916Y845818D1*
X1024125Y850966D1*
X1023244Y856389D1*
X1023143Y869646D1*
X1020980Y870913D1*
X1017680Y861648D1*
X1051097Y790164D1*
X1413580Y726516D2*
X1409888Y723288D1*
X1409490Y718775D1*
X1408337Y713969D1*
X1406446Y709404D1*
X1404781Y706230D1*
X1404008Y701349D1*
X1402481Y696649D1*
X1400237Y692246D1*
X1397333Y688249D1*
X1395647Y686426D1*
X1405066Y674300D1*
X1409821Y667185D1*
X1414268Y659141D1*
X1414274Y727203D1*
X1413921Y726863D1*
X438702Y726007D2*
X436760Y728065D1*
X436181Y721678D1*
X436184Y666596D1*
X441312Y674300D1*
X446610Y681021D1*
X454064Y688826D1*
X449439Y693248D1*
X446535Y697246D1*
X444291Y701649D1*
X442764Y706349D1*
X441991Y711230D1*
X441894Y723282D1*
X439049Y725666D1*
X638144Y601685D2*
X637139Y593186D1*
X635469Y584793D1*
X633146Y576556D1*
X630184Y568527D1*
X626601Y560755D1*
X622419Y553288D1*
X617665Y546173D1*
X612367Y539452D1*
X606557Y533167D1*
X600273Y527358D1*
X593552Y522060D1*
X586437Y517305D1*
X578970Y513124D1*
X571198Y509541D1*
X563169Y506579D1*
X554932Y504256D1*
X546539Y502586D1*
X538040Y501580D1*
X529488Y501244D1*
X520937Y501580D1*
X512438Y502586D1*
X504045Y504256D1*
X495808Y506579D1*
X487779Y509541D1*
X480007Y513124D1*
X472540Y517305D1*
X465425Y522060D1*
X458704Y527358D1*
X452419Y533167D1*
X446610Y539452D1*
X441312Y546173D1*
X436182Y553959D1*
X436200Y436220D1*
X1414328Y436201D1*
X1414285Y561346D1*
X1409821Y553288D1*
X1405066Y546173D1*
X1399768Y539452D1*
X1393959Y533167D1*
X1387675Y527358D1*
X1380954Y522060D1*
X1373838Y517305D1*
X1366371Y513124D1*
X1358599Y509541D1*
X1350570Y506579D1*
X1342334Y504256D1*
X1333940Y502586D1*
X1325441Y501580D1*
X1316890Y501244D1*
X1308339Y501580D1*
X1299840Y502586D1*
X1291446Y504256D1*
X1283210Y506579D1*
X1275181Y509541D1*
X1267409Y513124D1*
X1259942Y517305D1*
X1252826Y522060D1*
X1246105Y527358D1*
X1239821Y533167D1*
X1234012Y539452D1*
X1228714Y546173D1*
X1223959Y553288D1*
X1219777Y560755D1*
X1216194Y568527D1*
X1213232Y576556D1*
X1210909Y584793D1*
X1209240Y593186D1*
X1208234Y601685D1*
X1207898Y610236D1*
X1208234Y618788D1*
X1209240Y627287D1*
X1210909Y635680D1*
X1213232Y643917D1*
X1216194Y651946D1*
X1219777Y659718D1*
X1223959Y667185D1*
X1231011Y677214D1*
X1222663Y673441D1*
X1168839Y619754D1*
X1164841Y616850D1*
X1160438Y614606D1*
X1155738Y613079D1*
X1150857Y612306D1*
X1084082Y612209D1*
X925915Y612306D1*
X921034Y613079D1*
X916335Y614606D1*
X911931Y616850D1*
X907934Y619754D1*
X895029Y632521D1*
X889841Y631850D1*
X885438Y629606D1*
X880738Y628079D1*
X875857Y627306D1*
X809082Y627209D1*
X720915Y627306D1*
X716034Y628079D1*
X711335Y629606D1*
X706932Y631850D1*
X702934Y634754D1*
X655318Y682233D1*
X611366Y682209D1*
X617665Y674300D1*
X622419Y667185D1*
X626601Y659718D1*
X630184Y651946D1*
X633146Y643917D1*
X635469Y635680D1*
X637139Y627287D1*
X638144Y618788D1*
X638480Y610236D1*
X638144Y601685D1*
X436116Y1847499D2*
X441312Y1855403D1*
X446610Y1862123D1*
X452419Y1868408D1*
X458704Y1874217D1*
X465425Y1879515D1*
X472540Y1884270D1*
X476769Y1886638D1*
X436087Y1886636D1*
X436105Y1847545D1*
X1369434Y1886736D2*
X1373838Y1884270D1*
X1380954Y1879515D1*
X1387675Y1874217D1*
X1393959Y1868408D1*
X1399768Y1862123D1*
X1405066Y1855403D1*
X1409821Y1848287D1*
X1414185Y1840425D1*
X1414195Y1886764D1*
X1369650Y1886727D1*
X773386Y876201D2*
D18*
X824853Y824734D1*
X773386Y876201D2*
X721919Y824734D1*
X623800Y813287D2*
X702972Y734115D1*
Y813287D2*
X663386Y773701D1*
X768891Y775085D2*
X805276Y738700D1*
X841661Y775085D2*
X768891Y702315D1*
X490315Y892166D2*
X530236Y852245D1*
Y932086D2*
X450395Y852245D1*
X851708Y1889282D2*
X888386Y1848701D1*
X851708Y1808120D1*
D20*
X873386Y876201D3*
X773386D3*
D21*
X1183386Y773701D3*
D22*
Y873701D3*
Y973701D3*
Y1073701D3*
Y1173701D3*
Y1273701D3*
Y1373701D3*
Y1473701D3*
Y1573701D3*
Y1673701D3*
D21*
X663386D3*
D22*
Y1573701D3*
Y1473701D3*
Y1373701D3*
Y1273701D3*
Y1173701D3*
Y1073701D3*
Y973701D3*
Y873701D3*
Y773701D3*
D20*
X1041496Y738700D3*
D23*
X962756D3*
X884016D3*
X805276D3*
D24*
X490315Y1600827D3*
D25*
Y1522087D3*
Y1443347D3*
Y1364607D3*
Y1285866D3*
Y1207126D3*
Y1128386D3*
Y1049646D3*
Y970906D3*
Y892166D3*
D24*
X1356457D3*
D25*
Y970906D3*
Y1049646D3*
Y1128386D3*
Y1207126D3*
Y1285866D3*
Y1364607D3*
Y1443347D3*
Y1522087D3*
Y1600827D3*
D48*
X958386Y943701D3*
Y873701D3*
D51*
Y1753701D3*
X888386D3*
D48*
X1077135Y943701D3*
Y873701D3*
D54*
X958386Y1848701D3*
X888386D3*
X1378386Y768701D3*
X1308386D3*
D57*
X473386D3*
X543386D3*
M02*
