G04 DipTrace 3.2.0.1*
G04 xbee_jst_opl.gto*
%MOIN*%
G04 #@! TF.FileFunction,Legend,Top*
G04 #@! TF.Part,Single*
%ADD10C,0.009843*%
%ADD14C,0.01*%
%ADD16C,0.008*%
%ADD19C,0.005*%
%ADD46C,0.006176*%
%ADD47C,0.007*%
%FSLAX26Y26*%
G04*
G70*
G90*
G75*
G01*
G04 TopSilk*
%LPD*%
X905886Y843701D2*
D19*
X740886D1*
Y908701D1*
X905886D1*
Y843701D1*
X840893Y876201D2*
X820878D1*
X830894Y886198D2*
Y866204D1*
X1233386Y1723701D2*
D10*
X1133386D1*
X1233386Y723701D2*
Y1723701D1*
Y723701D2*
X1133386D1*
Y798701D1*
Y1723701D1*
X613386Y723701D2*
X713386D1*
X613386Y1723701D2*
Y723701D1*
Y1723701D2*
X713386D1*
Y1648701D1*
Y723701D1*
X1120236Y699334D2*
D19*
Y778066D1*
Y407986D2*
D14*
Y675715D1*
Y797750D1*
X726536Y675715D2*
Y797750D1*
Y675715D2*
Y407986D1*
X1120236Y797750D2*
X726536D1*
X1120236Y675715D2*
X726536D1*
X1120236Y407986D2*
X1033622D1*
Y447352D1*
X813150D1*
Y407986D1*
X726536D1*
X450945Y1640197D2*
D19*
X529685D1*
Y852795D1*
X450945D1*
Y1640197D1*
X1395827Y852795D2*
X1317087D1*
Y1640197D1*
X1395827D1*
Y852795D1*
X993386Y843701D2*
X923386D1*
Y973701D1*
X993386D1*
Y843701D1*
X858386Y1718701D2*
Y1788701D1*
X988386D1*
Y1718701D1*
X858386D1*
X1112135Y843701D2*
X1042135D1*
Y973701D1*
X1112135D1*
Y843701D1*
X860886Y1813701D2*
Y1883701D1*
X985886D1*
Y1813701D1*
X860886D1*
X930886Y1828702D2*
Y1838698D1*
Y1848701D1*
Y1858704D1*
Y1868700D1*
X923386Y1858704D1*
X915886Y1848701D1*
X930886Y1828702D1*
X918386Y1851200D1*
X930886Y1838698D1*
X920886Y1853699D1*
X930886Y1848701D1*
X923386Y1858704D1*
X930886D1*
X1280886Y733701D2*
Y803701D1*
X1405886D1*
Y733701D1*
X1280886D1*
X1350886Y748702D2*
Y758698D1*
Y768701D1*
Y778704D1*
Y788700D1*
X1343386Y778704D1*
X1335886Y768701D1*
X1350886Y748702D1*
X1338386Y771200D1*
X1350886Y758698D1*
X1340886Y773699D1*
X1350886Y768701D1*
X1343386Y778704D1*
X1350886D1*
X570886Y803701D2*
Y733701D1*
X445886D1*
Y803701D1*
X570886D1*
X500886Y788700D2*
Y778704D1*
Y768701D1*
Y758698D1*
Y748702D1*
X508386Y758698D1*
X515886Y768701D1*
X500886Y788700D1*
X513386Y766202D1*
X500886Y778704D1*
X510886Y763703D1*
X500886Y768701D1*
X508386Y758698D1*
X500886D1*
X726518Y1900040D2*
D16*
X1120254D1*
X441104Y1650029D2*
X726518Y1900040D1*
X1405668Y1650029D2*
X1120254Y1900040D1*
X441104Y813375D2*
X1405668D1*
X826761Y957729D2*
D46*
X824860Y961531D1*
X821013Y965378D1*
X817210Y967279D1*
X809561D1*
X805714Y965378D1*
X801912Y961531D1*
X799966Y957729D1*
X798065Y951981D1*
Y942386D1*
X799966Y936682D1*
X801912Y932835D1*
X805714Y929033D1*
X809561Y927087D1*
X817210D1*
X821013Y929033D1*
X824860Y932835D1*
X826761Y936682D1*
X839112Y959586D2*
X842959Y961531D1*
X848707Y967235D1*
Y927087D1*
X924465Y1013134D2*
X941665D1*
X947413Y1015080D1*
X949358Y1016981D1*
X951260Y1020783D1*
Y1024630D1*
X949358Y1028433D1*
X947413Y1030378D1*
X941665Y1032279D1*
X924465D1*
Y992087D1*
X937862Y1013134D2*
X951260Y992087D1*
X982756D2*
Y1032235D1*
X963611Y1005485D1*
X992307D1*
X890416Y1685989D2*
X907616D1*
X913364Y1687934D1*
X915309Y1689835D1*
X917210Y1693638D1*
Y1697485D1*
X915309Y1701287D1*
X913364Y1703233D1*
X907616Y1705134D1*
X890416D1*
Y1664942D1*
X903813Y1685989D2*
X917210Y1664942D1*
X952510Y1705090D2*
X933408D1*
X931507Y1687890D1*
X933408Y1689791D1*
X939157Y1691737D1*
X944860D1*
X950608Y1689791D1*
X954455Y1685989D1*
X956356Y1680241D1*
Y1676438D1*
X954455Y1670690D1*
X950608Y1666843D1*
X944860Y1664942D1*
X939157D1*
X933408Y1666843D1*
X931507Y1668789D1*
X929562Y1672591D1*
X1045138Y1013134D2*
X1062338D1*
X1068086Y1015080D1*
X1070031Y1016981D1*
X1071932Y1020783D1*
Y1024630D1*
X1070031Y1028433D1*
X1068086Y1030378D1*
X1062338Y1032279D1*
X1045138D1*
Y992087D1*
X1058535Y1013134D2*
X1071932Y992087D1*
X1107232Y1026531D2*
X1105330Y1030334D1*
X1099582Y1032235D1*
X1095780D1*
X1090032Y1030334D1*
X1086185Y1024586D1*
X1084284Y1015035D1*
Y1005485D1*
X1086185Y997835D1*
X1090032Y993989D1*
X1095780Y992087D1*
X1097681D1*
X1103385Y993989D1*
X1107232Y997835D1*
X1109133Y1003584D1*
Y1005485D1*
X1107232Y1011233D1*
X1103385Y1015035D1*
X1097681Y1016937D1*
X1095780D1*
X1090032Y1015035D1*
X1086185Y1011233D1*
X1084284Y1005485D1*
X836453Y1820731D2*
Y1837931D1*
X834508Y1843679D1*
X832606Y1845624D1*
X828804Y1847525D1*
X824957D1*
X821154Y1845624D1*
X819209Y1843679D1*
X817308Y1837931D1*
Y1820731D1*
X857500D1*
X836453Y1834128D2*
X857500Y1847525D1*
X823056Y1886671D2*
X819209Y1882869D1*
X817308Y1877121D1*
Y1869472D1*
X819209Y1863724D1*
X823056Y1859877D1*
X826858D1*
X830705Y1861822D1*
X832606Y1863724D1*
X834508Y1867526D1*
X838354Y1879022D1*
X840256Y1882869D1*
X842201Y1884770D1*
X846004Y1886671D1*
X851752D1*
X855554Y1882869D1*
X857500Y1877121D1*
Y1869472D1*
X855554Y1863723D1*
X851752Y1859877D1*
X1423598Y735731D2*
Y752931D1*
X1421653Y758679D1*
X1419752Y760624D1*
X1415949Y762525D1*
X1412102D1*
X1408300Y760624D1*
X1406354Y758679D1*
X1404453Y752931D1*
Y735731D1*
X1444645D1*
X1423598Y749128D2*
X1444645Y762525D1*
X1404453Y774877D2*
X1444645Y801671D1*
X1404453D2*
X1444645Y774877D1*
X402308Y749128D2*
X442500D1*
X402308Y735731D2*
Y762525D1*
Y774877D2*
X442500Y801671D1*
X402308D2*
X442500Y774877D1*
X1105991Y1869688D2*
D47*
X1075847D1*
X1105991Y1849592D2*
X1085895Y1869688D1*
X1093091Y1862525D2*
X1075847Y1849592D1*
X1095943Y1835592D2*
X1081584D1*
X1077306Y1834166D1*
X1075847Y1831281D1*
Y1826970D1*
X1077306Y1824118D1*
X1081584Y1819807D1*
X1095943D2*
X1075847D1*
X1095943Y1805807D2*
X1075847D1*
X1087321D2*
X1091632Y1804348D1*
X1094517Y1801496D1*
X1095943Y1798611D1*
Y1794300D1*
X1105991Y1775989D2*
X1081584D1*
X1077306Y1774563D1*
X1075847Y1771678D1*
Y1768826D1*
X1095943Y1780300D2*
Y1770252D1*
X1105958Y1747630D2*
X1097336Y1754826D1*
X1104532Y1746204D1*
X1105958Y1747630D1*
X1091632Y1716419D2*
X1094517Y1717845D1*
X1095943Y1722156D1*
Y1726467D1*
X1094517Y1730778D1*
X1091632Y1732204D1*
X1088780Y1730778D1*
X1087321Y1727893D1*
X1085895Y1720730D1*
X1084469Y1717845D1*
X1081584Y1716419D1*
X1080158D1*
X1077306Y1717845D1*
X1075847Y1722156D1*
Y1726467D1*
X1077306Y1730778D1*
X1080158Y1732204D1*
X1098828Y1647000D2*
X1101680Y1648426D1*
X1104565Y1651311D1*
X1105991Y1654163D1*
Y1659900D1*
X1104565Y1662785D1*
X1101680Y1665637D1*
X1098828Y1667096D1*
X1094517Y1668522D1*
X1087321D1*
X1083043Y1667096D1*
X1080158Y1665637D1*
X1077306Y1662785D1*
X1075847Y1659900D1*
Y1654163D1*
X1077306Y1651311D1*
X1080158Y1648426D1*
X1083043Y1647000D1*
X1075847Y1610052D2*
X1105991D1*
X1075847Y1621526D1*
X1105991Y1633000D1*
X1075847D1*
X1095943Y1577382D2*
X1091632Y1578841D1*
X1088747Y1581693D1*
X1087321Y1586004D1*
Y1587430D1*
X1088747Y1591741D1*
X1091632Y1594593D1*
X1095943Y1596052D1*
X1097369D1*
X1101680Y1594593D1*
X1104532Y1591741D1*
X1105958Y1587430D1*
Y1586004D1*
X1104532Y1581693D1*
X1101680Y1578841D1*
X1095943Y1577382D1*
X1088747D1*
X1081584Y1578841D1*
X1077273Y1581693D1*
X1075847Y1586004D1*
Y1588856D1*
X1077273Y1593167D1*
X1080158Y1594593D1*
X1078732Y1561956D2*
X1077273Y1563382D1*
X1075847Y1561956D1*
X1077273Y1560497D1*
X1078732Y1561956D1*
X1105958Y1537875D2*
X1104532Y1542186D1*
X1100221Y1545071D1*
X1093058Y1546497D1*
X1088747D1*
X1081584Y1545071D1*
X1077273Y1542186D1*
X1075847Y1537875D1*
Y1535023D1*
X1077273Y1530712D1*
X1081584Y1527860D1*
X1088747Y1526401D1*
X1093058D1*
X1100221Y1527860D1*
X1104532Y1530712D1*
X1105958Y1535023D1*
Y1537875D1*
X1100221Y1527860D2*
X1081584Y1545071D1*
X1075847Y1498042D2*
X1105958D1*
X1085895Y1512401D1*
Y1490879D1*
X1105991Y1442982D2*
X1075847Y1422886D1*
X1105991D2*
X1075847Y1442982D1*
X1105991Y1408886D2*
X1075847D1*
Y1395953D1*
X1077306Y1391642D1*
X1078732Y1390216D1*
X1081584Y1388790D1*
X1085895D1*
X1088780Y1390216D1*
X1090206Y1391642D1*
X1091632Y1395953D1*
X1093091Y1391642D1*
X1094517Y1390216D1*
X1097369Y1388790D1*
X1100254D1*
X1103106Y1390216D1*
X1104565Y1391642D1*
X1105991Y1395953D1*
Y1408886D1*
X1091632D2*
Y1395953D1*
X1087321Y1374790D2*
Y1357579D1*
X1090206D1*
X1093091Y1359005D1*
X1094517Y1360431D1*
X1095943Y1363316D1*
Y1367627D1*
X1094517Y1370479D1*
X1091632Y1373364D1*
X1087321Y1374790D1*
X1084469D1*
X1080158Y1373364D1*
X1077306Y1370479D1*
X1075847Y1367627D1*
Y1363316D1*
X1077306Y1360431D1*
X1080158Y1357579D1*
X1087321Y1343579D2*
Y1326368D1*
X1090206D1*
X1093091Y1327794D1*
X1094517Y1329220D1*
X1095943Y1332105D1*
Y1336416D1*
X1094517Y1339268D1*
X1091632Y1342153D1*
X1087321Y1343579D1*
X1084469D1*
X1080158Y1342153D1*
X1077306Y1339268D1*
X1075847Y1336416D1*
Y1332105D1*
X1077306Y1329220D1*
X1080158Y1326368D1*
X1075847Y1255490D2*
X1105991Y1266997D1*
X1075847Y1278471D1*
X1085895Y1274160D2*
Y1259801D1*
X1105991Y1224279D2*
X1075847D1*
X1091632D2*
X1094517Y1227131D1*
X1095943Y1230016D1*
Y1234327D1*
X1094517Y1237179D1*
X1091632Y1240064D1*
X1087321Y1241490D1*
X1084469D1*
X1080158Y1240064D1*
X1077306Y1237179D1*
X1075847Y1234327D1*
Y1230016D1*
X1077306Y1227131D1*
X1080158Y1224279D1*
X1095943Y1193068D2*
X1075847D1*
X1091632D2*
X1094517Y1195920D1*
X1095943Y1198805D1*
Y1203083D1*
X1094517Y1205968D1*
X1091632Y1208820D1*
X1087321Y1210279D1*
X1084469D1*
X1080158Y1208820D1*
X1077306Y1205968D1*
X1075847Y1203083D1*
Y1198805D1*
X1077306Y1195920D1*
X1080158Y1193068D1*
X1095943Y1179068D2*
X1065799D1*
X1091632D2*
X1094484Y1176183D1*
X1095943Y1173331D1*
Y1169020D1*
X1094484Y1166135D1*
X1091632Y1163283D1*
X1087321Y1161824D1*
X1084436D1*
X1080158Y1163283D1*
X1077273Y1166135D1*
X1075847Y1169020D1*
Y1173331D1*
X1077273Y1176183D1*
X1080158Y1179068D1*
X1105991Y1143513D2*
X1081584D1*
X1077306Y1142087D1*
X1075847Y1139202D1*
Y1136350D1*
X1095943Y1147824D2*
Y1137776D1*
X1087321Y1122350D2*
Y1105139D1*
X1090206D1*
X1093091Y1106565D1*
X1094517Y1107991D1*
X1095943Y1110876D1*
Y1115187D1*
X1094517Y1118039D1*
X1091632Y1120924D1*
X1087321Y1122350D1*
X1084469D1*
X1080158Y1120924D1*
X1077306Y1118039D1*
X1075847Y1115187D1*
Y1110876D1*
X1077306Y1107991D1*
X1080158Y1105139D1*
X1095943Y1091139D2*
X1075847D1*
X1087321D2*
X1091632Y1089680D1*
X1094517Y1086828D1*
X1095943Y1083943D1*
Y1079632D1*
M02*
