G04 DipTrace 3.2.0.1*
G04 xbee_jst_opl.gbo*
%MOIN*%
G04 #@! TF.FileFunction,Legend,Bot*
G04 #@! TF.Part,Single*
%ADD47C,0.007*%
%FSLAX26Y26*%
G04*
G70*
G90*
G75*
G01*
G04 BotSilk*
%LPD*%
X818526Y1685809D2*
D47*
X802774D1*
X811363Y1674335D1*
X807052D1*
X804200Y1672909D1*
X802774Y1671483D1*
X801315Y1667172D1*
Y1664320D1*
X802774Y1660009D1*
X805626Y1657124D1*
X809937Y1655698D1*
X814248D1*
X818526Y1657124D1*
X819952Y1658583D1*
X821411Y1661435D1*
X785889Y1658583D2*
X787315Y1657124D1*
X785889Y1655698D1*
X784430Y1657124D1*
X785889Y1658583D1*
X767545Y1685809D2*
X751793D1*
X760382Y1674335D1*
X756071D1*
X753219Y1672909D1*
X751793Y1671483D1*
X750334Y1667172D1*
Y1664320D1*
X751793Y1660009D1*
X754645Y1657124D1*
X758956Y1655698D1*
X763267D1*
X767545Y1657124D1*
X768971Y1658583D1*
X770430Y1661435D1*
X736334Y1685842D2*
X724860Y1655698D1*
X713386Y1685842D1*
X838622Y1594591D2*
Y1564447D1*
X828574D1*
X824263Y1565906D1*
X821378Y1568758D1*
X819952Y1571643D1*
X818526Y1575921D1*
Y1583117D1*
X819952Y1587428D1*
X821378Y1590280D1*
X824263Y1593165D1*
X828574Y1594591D1*
X838622D1*
X795904D2*
X798789Y1593165D1*
X801641Y1590280D1*
X803100Y1587428D1*
X804526Y1583117D1*
Y1575921D1*
X803100Y1571643D1*
X801641Y1568758D1*
X798789Y1565906D1*
X795904Y1564447D1*
X790167D1*
X787315Y1565906D1*
X784430Y1568758D1*
X783004Y1571643D1*
X781578Y1575921D1*
Y1583117D1*
X783004Y1587428D1*
X784430Y1590280D1*
X787315Y1593165D1*
X790167Y1594591D1*
X795904D1*
X767578D2*
Y1573069D1*
X766152Y1568758D1*
X763267Y1565906D1*
X758956Y1564447D1*
X756104D1*
X751793Y1565906D1*
X748908Y1568758D1*
X747482Y1573069D1*
Y1594591D1*
X723434D2*
Y1564447D1*
X733482Y1594591D2*
X713386D1*
X781578Y1493342D2*
Y1463198D1*
X771530D1*
X767219Y1464657D1*
X764334Y1467509D1*
X762908Y1470394D1*
X761482Y1474672D1*
Y1481868D1*
X762908Y1486179D1*
X764334Y1489031D1*
X767219Y1491916D1*
X771530Y1493342D1*
X781578D1*
X747482D2*
Y1463198D1*
X713386Y1493342D2*
Y1463198D1*
X733482Y1493342D1*
Y1463198D1*
X839722Y1392091D2*
Y1361947D1*
X829674D1*
X825363Y1363406D1*
X822478Y1366258D1*
X821052Y1369143D1*
X819626Y1373421D1*
Y1380617D1*
X821052Y1384928D1*
X822478Y1387780D1*
X825363Y1390665D1*
X829674Y1392091D1*
X839722D1*
X805626D2*
Y1361947D1*
X783004Y1392091D2*
X785889Y1390665D1*
X788741Y1387780D1*
X790200Y1384928D1*
X791626Y1380617D1*
Y1373421D1*
X790200Y1369143D1*
X788741Y1366258D1*
X785889Y1363406D1*
X783004Y1361947D1*
X777267D1*
X774415Y1363406D1*
X771530Y1366258D1*
X770104Y1369143D1*
X768678Y1373421D1*
Y1380617D1*
X770104Y1384928D1*
X771530Y1387780D1*
X774415Y1390665D1*
X777267Y1392091D1*
X783004D1*
X754678Y1386321D2*
X751793Y1387780D1*
X747482Y1392058D1*
Y1361947D1*
X732023Y1384895D2*
Y1386321D1*
X730597Y1389206D1*
X729171Y1390632D1*
X726286Y1392058D1*
X720549D1*
X717697Y1390632D1*
X716271Y1389206D1*
X714812Y1386321D1*
Y1383469D1*
X716271Y1380584D1*
X719123Y1376306D1*
X733482Y1361947D1*
X713386D1*
X801674Y1276483D2*
X788774D1*
X784463Y1277942D1*
X783004Y1279368D1*
X781578Y1282220D1*
Y1285105D1*
X783004Y1287957D1*
X784463Y1289416D1*
X788774Y1290842D1*
X801674D1*
Y1260698D1*
X791626Y1276483D2*
X781578Y1260698D1*
X757530Y1290842D2*
Y1260698D1*
X767578Y1290842D2*
X747482D1*
X713386Y1286531D2*
X716238Y1289416D1*
X720549Y1290842D1*
X726286D1*
X730597Y1289416D1*
X733482Y1286531D1*
Y1283679D1*
X732023Y1280794D1*
X730597Y1279368D1*
X727745Y1277942D1*
X719123Y1275057D1*
X716238Y1273631D1*
X714812Y1272172D1*
X713386Y1269320D1*
Y1265009D1*
X716238Y1262157D1*
X720549Y1260698D1*
X726286D1*
X730597Y1262157D1*
X733482Y1265009D1*
X815674Y1175232D2*
X802774D1*
X798463Y1176691D1*
X797004Y1178117D1*
X795578Y1180969D1*
Y1183854D1*
X797004Y1186706D1*
X798463Y1188165D1*
X802774Y1189591D1*
X815674D1*
Y1159447D1*
X805626Y1175232D2*
X795578Y1159447D1*
X761482Y1185280D2*
X764334Y1188165D1*
X768645Y1189591D1*
X774382D1*
X778693Y1188165D1*
X781578Y1185280D1*
Y1182428D1*
X780119Y1179543D1*
X778693Y1178117D1*
X775841Y1176691D1*
X767219Y1173806D1*
X764334Y1172380D1*
X762908Y1170921D1*
X761482Y1168069D1*
Y1163758D1*
X764334Y1160906D1*
X768645Y1159447D1*
X774382D1*
X778693Y1160906D1*
X781578Y1163758D1*
X727386Y1185280D2*
X730238Y1188165D1*
X734549Y1189591D1*
X740286D1*
X744597Y1188165D1*
X747482Y1185280D1*
Y1182428D1*
X746023Y1179543D1*
X744597Y1178117D1*
X741745Y1176691D1*
X733123Y1173806D1*
X730238Y1172380D1*
X728812Y1170921D1*
X727386Y1168069D1*
Y1163758D1*
X730238Y1160906D1*
X734549Y1159447D1*
X740286D1*
X744597Y1160906D1*
X747482Y1163758D1*
X713386Y1189591D2*
Y1159447D1*
X826822Y1088342D2*
Y1058198D1*
X816774D1*
X812463Y1059657D1*
X809578Y1062509D1*
X808152Y1065394D1*
X806726Y1069672D1*
Y1076868D1*
X808152Y1081179D1*
X809578Y1084031D1*
X812463Y1086916D1*
X816774Y1088342D1*
X826822D1*
X792726D2*
Y1058198D1*
X770104Y1088342D2*
X772989Y1086916D1*
X775841Y1084031D1*
X777300Y1081179D1*
X778726Y1076868D1*
Y1069672D1*
X777300Y1065394D1*
X775841Y1062509D1*
X772989Y1059657D1*
X770104Y1058198D1*
X764367D1*
X761515Y1059657D1*
X758630Y1062509D1*
X757204Y1065394D1*
X755778Y1069672D1*
Y1076868D1*
X757204Y1081179D1*
X758630Y1084031D1*
X761515Y1086916D1*
X764367Y1088342D1*
X770104D1*
X741778Y1082572D2*
X738893Y1084031D1*
X734582Y1088309D1*
Y1058198D1*
X720582Y1082572D2*
X717697Y1084031D1*
X713386Y1088309D1*
Y1058198D1*
X800215Y972732D2*
X787315D1*
X783004Y974191D1*
X781545Y975617D1*
X780119Y978469D1*
Y981354D1*
X781545Y984206D1*
X783004Y985665D1*
X787315Y987091D1*
X800215D1*
Y956947D1*
X790167Y972732D2*
X780119Y956947D1*
X747482Y987091D2*
X766119D1*
Y956947D1*
X747482D1*
X766119Y972732D2*
X754645D1*
X713386Y982780D2*
X716238Y985665D1*
X720549Y987091D1*
X726286D1*
X730597Y985665D1*
X733482Y982780D1*
Y979928D1*
X732023Y977043D1*
X730597Y975617D1*
X727745Y974191D1*
X719123Y971306D1*
X716238Y969880D1*
X714812Y968421D1*
X713386Y965569D1*
Y961258D1*
X716238Y958406D1*
X720549Y956947D1*
X726286D1*
X730597Y958406D1*
X733482Y961258D1*
X801674Y885842D2*
Y855698D1*
X791626D1*
X787315Y857157D1*
X784430Y860009D1*
X783004Y862894D1*
X781578Y867172D1*
Y874368D1*
X783004Y878679D1*
X784430Y881531D1*
X787315Y884416D1*
X791626Y885842D1*
X801674D1*
X757530D2*
Y855698D1*
X767578Y885842D2*
X747482D1*
X733482Y871483D2*
X720582D1*
X716271Y872942D1*
X714812Y874368D1*
X713386Y877220D1*
Y880105D1*
X714812Y882957D1*
X716271Y884416D1*
X720582Y885842D1*
X733482D1*
Y855698D1*
X723434Y871483D2*
X713386Y855698D1*
X601578Y783679D2*
X603004Y786531D1*
X605889Y789416D1*
X608741Y790842D1*
X614478D1*
X617363Y789416D1*
X620215Y786531D1*
X621674Y783679D1*
X623100Y779368D1*
Y772172D1*
X621674Y767894D1*
X620215Y765009D1*
X617363Y762157D1*
X614478Y760698D1*
X608741D1*
X605889Y762157D1*
X603004Y765009D1*
X601578Y767894D1*
Y772172D1*
X608741D1*
X567482Y790842D2*
Y760698D1*
X587578Y790842D1*
Y760698D1*
X553482Y790842D2*
Y760698D1*
X543434D1*
X539123Y762157D1*
X536238Y765009D1*
X534812Y767894D1*
X533386Y772172D1*
Y779368D1*
X534812Y783679D1*
X536238Y786531D1*
X539123Y789416D1*
X543434Y790842D1*
X553482D1*
X1128525Y1685842D2*
Y1655698D1*
X1118477D1*
X1114166Y1657157D1*
X1111281Y1660009D1*
X1109855Y1662894D1*
X1108429Y1667172D1*
Y1674368D1*
X1109855Y1678679D1*
X1111281Y1681531D1*
X1114166Y1684416D1*
X1118477Y1685842D1*
X1128525D1*
X1094429D2*
Y1655698D1*
X1071807Y1685842D2*
X1074692Y1684416D1*
X1077544Y1681531D1*
X1079003Y1678679D1*
X1080429Y1674368D1*
Y1667172D1*
X1079003Y1662894D1*
X1077544Y1660009D1*
X1074692Y1657157D1*
X1071807Y1655698D1*
X1066070D1*
X1063218Y1657157D1*
X1060333Y1660009D1*
X1058907Y1662894D1*
X1057481Y1667172D1*
Y1674368D1*
X1058907Y1678679D1*
X1060333Y1681531D1*
X1063218Y1684416D1*
X1066070Y1685842D1*
X1071807D1*
X1029122Y1655698D2*
Y1685809D1*
X1043481Y1665746D1*
X1021960D1*
X1107005Y1579234D2*
X1108431Y1582086D1*
X1111316Y1584971D1*
X1114167Y1586397D1*
X1119904D1*
X1122790Y1584971D1*
X1125641Y1582086D1*
X1127101Y1579234D1*
X1128527Y1574923D1*
Y1567727D1*
X1127101Y1563449D1*
X1125641Y1560564D1*
X1122790Y1557712D1*
X1119904Y1556253D1*
X1114167D1*
X1111316Y1557712D1*
X1108431Y1560564D1*
X1107005Y1563449D1*
X1082957Y1586397D2*
Y1556253D1*
X1093005Y1586397D2*
X1072909D1*
X1038813Y1582086D2*
X1041664Y1584971D1*
X1045975Y1586397D1*
X1051712D1*
X1056023Y1584971D1*
X1058909Y1582086D1*
Y1579234D1*
X1057449Y1576349D1*
X1056023Y1574923D1*
X1053172Y1573497D1*
X1044550Y1570612D1*
X1041664Y1569186D1*
X1040239Y1567727D1*
X1038813Y1564875D1*
Y1560564D1*
X1041664Y1557712D1*
X1045975Y1556253D1*
X1051712D1*
X1056023Y1557712D1*
X1058909Y1560564D1*
X1128527Y1486953D2*
Y1456809D1*
X1118479D1*
X1114167Y1458268D1*
X1111282Y1461120D1*
X1109856Y1464005D1*
X1108431Y1468283D1*
Y1475479D1*
X1109856Y1479790D1*
X1111282Y1482642D1*
X1114167Y1485527D1*
X1118479Y1486953D1*
X1128527D1*
X1094431D2*
Y1456809D1*
X1071808Y1486953D2*
X1074694Y1485527D1*
X1077545Y1482642D1*
X1079005Y1479790D1*
X1080431Y1475479D1*
Y1468283D1*
X1079005Y1464005D1*
X1077545Y1461120D1*
X1074694Y1458268D1*
X1071808Y1456809D1*
X1066071D1*
X1063220Y1458268D1*
X1060335Y1461120D1*
X1058909Y1464005D1*
X1057483Y1468283D1*
Y1475479D1*
X1058909Y1479790D1*
X1060335Y1482642D1*
X1063220Y1485527D1*
X1066071Y1486953D1*
X1071808D1*
X1024813Y1476905D2*
X1026272Y1472594D1*
X1029124Y1469709D1*
X1033435Y1468283D1*
X1034861D1*
X1039172Y1469709D1*
X1042023Y1472594D1*
X1043483Y1476905D1*
Y1478331D1*
X1042023Y1482642D1*
X1039172Y1485494D1*
X1034861Y1486920D1*
X1033435D1*
X1029124Y1485494D1*
X1026272Y1482642D1*
X1024813Y1476905D1*
Y1469709D1*
X1026272Y1462546D1*
X1029124Y1458235D1*
X1033435Y1456809D1*
X1036287D1*
X1040598Y1458235D1*
X1042023Y1461120D1*
X1128526Y1373149D2*
X1115626D1*
X1111315Y1374608D1*
X1109856Y1376034D1*
X1108430Y1378886D1*
Y1381771D1*
X1109856Y1384623D1*
X1111315Y1386082D1*
X1115626Y1387508D1*
X1128526D1*
Y1357364D1*
X1118478Y1373149D2*
X1108430Y1357364D1*
X1075793Y1387508D2*
X1094430D1*
Y1357364D1*
X1075793D1*
X1094430Y1373149D2*
X1082956D1*
X1041697Y1383197D2*
X1044549Y1386082D1*
X1048860Y1387508D1*
X1054597D1*
X1058908Y1386082D1*
X1061793Y1383197D1*
Y1380345D1*
X1060334Y1377460D1*
X1058908Y1376034D1*
X1056056Y1374608D1*
X1047434Y1371723D1*
X1044549Y1370297D1*
X1043123Y1368838D1*
X1041697Y1365986D1*
Y1361675D1*
X1044549Y1358823D1*
X1048860Y1357364D1*
X1054597D1*
X1058908Y1358823D1*
X1061793Y1361675D1*
X1128526Y1288063D2*
Y1257919D1*
X1118478D1*
X1114167Y1259379D1*
X1111282Y1262230D1*
X1109856Y1265116D1*
X1108430Y1269393D1*
Y1276590D1*
X1109856Y1280901D1*
X1111282Y1283752D1*
X1114167Y1286638D1*
X1118478Y1288063D1*
X1128526D1*
X1094430D2*
Y1257919D1*
X1071808Y1288063D2*
X1074693Y1286638D1*
X1077545Y1283752D1*
X1079004Y1280901D1*
X1080430Y1276590D1*
Y1269393D1*
X1079004Y1265116D1*
X1077545Y1262230D1*
X1074693Y1259379D1*
X1071808Y1257919D1*
X1066071D1*
X1063219Y1259379D1*
X1060334Y1262230D1*
X1058908Y1265116D1*
X1057482Y1269393D1*
Y1276590D1*
X1058908Y1280901D1*
X1060334Y1283752D1*
X1063219Y1286638D1*
X1066071Y1288063D1*
X1071808D1*
X1026271Y1288030D2*
X1040597D1*
X1042023Y1275130D1*
X1040597Y1276556D1*
X1036286Y1278015D1*
X1032008D1*
X1027697Y1276556D1*
X1024812Y1273704D1*
X1023386Y1269393D1*
Y1266542D1*
X1024812Y1262230D1*
X1027697Y1259345D1*
X1032008Y1257919D1*
X1036286D1*
X1040597Y1259345D1*
X1042023Y1260805D1*
X1043482Y1263656D1*
X1128526Y1174261D2*
X1115626D1*
X1111315Y1175720D1*
X1109856Y1177146D1*
X1108430Y1179998D1*
Y1182883D1*
X1109856Y1185735D1*
X1111315Y1187194D1*
X1115626Y1188620D1*
X1128526D1*
Y1158476D1*
X1118478Y1174261D2*
X1108430Y1158476D1*
X1084382Y1188620D2*
Y1158476D1*
X1094430Y1188620D2*
X1074334D1*
X1040238Y1184309D2*
X1043090Y1187194D1*
X1047401Y1188620D1*
X1053138D1*
X1057449Y1187194D1*
X1060334Y1184309D1*
Y1181457D1*
X1058875Y1178572D1*
X1057449Y1177146D1*
X1054597Y1175720D1*
X1045975Y1172835D1*
X1043090Y1171409D1*
X1041664Y1169950D1*
X1040238Y1167098D1*
Y1162787D1*
X1043090Y1159935D1*
X1047401Y1158476D1*
X1053138D1*
X1057449Y1159935D1*
X1060334Y1162787D1*
X1128526Y1089175D2*
Y1059031D1*
X1118478D1*
X1114167Y1060490D1*
X1111282Y1063342D1*
X1109856Y1066227D1*
X1108430Y1070505D1*
Y1077701D1*
X1109856Y1082012D1*
X1111282Y1084864D1*
X1114167Y1087749D1*
X1118478Y1089175D1*
X1128526D1*
X1094430D2*
Y1059031D1*
X1071808Y1089175D2*
X1074693Y1087749D1*
X1077545Y1084864D1*
X1079004Y1082012D1*
X1080430Y1077701D1*
Y1070505D1*
X1079004Y1066227D1*
X1077545Y1063342D1*
X1074693Y1060490D1*
X1071808Y1059031D1*
X1066071D1*
X1063219Y1060490D1*
X1060334Y1063342D1*
X1058908Y1066227D1*
X1057482Y1070505D1*
Y1077701D1*
X1058908Y1082012D1*
X1060334Y1084864D1*
X1063219Y1087749D1*
X1066071Y1089175D1*
X1071808D1*
X1040597Y1089142D2*
X1024845D1*
X1033434Y1077668D1*
X1029123D1*
X1026271Y1076242D1*
X1024845Y1074816D1*
X1023386Y1070505D1*
Y1067653D1*
X1024845Y1063342D1*
X1027697Y1060457D1*
X1032008Y1059031D1*
X1036319D1*
X1040597Y1060457D1*
X1042023Y1061916D1*
X1043482Y1064768D1*
X1128526Y989730D2*
Y959586D1*
X1118478D1*
X1114167Y961045D1*
X1111282Y963897D1*
X1109856Y966782D1*
X1108430Y971060D1*
Y978256D1*
X1109856Y982567D1*
X1111282Y985419D1*
X1114167Y988304D1*
X1118478Y989730D1*
X1128526D1*
X1094430D2*
Y959586D1*
X1071808Y989730D2*
X1074693Y988304D1*
X1077545Y985419D1*
X1079004Y982567D1*
X1080430Y978256D1*
Y971060D1*
X1079004Y966782D1*
X1077545Y963897D1*
X1074693Y961045D1*
X1071808Y959586D1*
X1066071D1*
X1063219Y961045D1*
X1060334Y963897D1*
X1058908Y966782D1*
X1057482Y971060D1*
Y978256D1*
X1058908Y982567D1*
X1060334Y985419D1*
X1063219Y988304D1*
X1066071Y989730D1*
X1071808D1*
X1042023Y982534D2*
Y983960D1*
X1040597Y986845D1*
X1039171Y988271D1*
X1036286Y989697D1*
X1030549D1*
X1027697Y988271D1*
X1026271Y986845D1*
X1024812Y983960D1*
Y981108D1*
X1026271Y978223D1*
X1029123Y973945D1*
X1043482Y959586D1*
X1023386D1*
X1128526Y890287D2*
Y860143D1*
X1118478D1*
X1114167Y861602D1*
X1111282Y864454D1*
X1109856Y867339D1*
X1108430Y871617D1*
Y878813D1*
X1109856Y883124D1*
X1111282Y885976D1*
X1114167Y888861D1*
X1118478Y890287D1*
X1128526D1*
X1094430D2*
Y860143D1*
X1071808Y890287D2*
X1074693Y888861D1*
X1077545Y885976D1*
X1079004Y883124D1*
X1080430Y878813D1*
Y871617D1*
X1079004Y867339D1*
X1077545Y864454D1*
X1074693Y861602D1*
X1071808Y860143D1*
X1066071D1*
X1063219Y861602D1*
X1060334Y864454D1*
X1058908Y867339D1*
X1057482Y871617D1*
Y878813D1*
X1058908Y883124D1*
X1060334Y885976D1*
X1063219Y888861D1*
X1066071Y890287D1*
X1071808D1*
X1043482Y884516D2*
X1040597Y885976D1*
X1036286Y890253D1*
Y860143D1*
X1338526Y790842D2*
Y760698D1*
X1328478D1*
X1324167Y762157D1*
X1321282Y765009D1*
X1319856Y767894D1*
X1318430Y772172D1*
Y779368D1*
X1319856Y783679D1*
X1321282Y786531D1*
X1324167Y789416D1*
X1328478Y790842D1*
X1338526D1*
X1304430D2*
Y760698D1*
X1281808Y790842D2*
X1284693Y789416D1*
X1287545Y786531D1*
X1289004Y783679D1*
X1290430Y779368D1*
Y772172D1*
X1289004Y767894D1*
X1287545Y765009D1*
X1284693Y762157D1*
X1281808Y760698D1*
X1276071D1*
X1273219Y762157D1*
X1270334Y765009D1*
X1268908Y767894D1*
X1267482Y772172D1*
Y779368D1*
X1268908Y783679D1*
X1270334Y786531D1*
X1273219Y789416D1*
X1276071Y790842D1*
X1281808D1*
X1244860Y790809D2*
X1249171Y789383D1*
X1252056Y785072D1*
X1253482Y777909D1*
Y773598D1*
X1252056Y766435D1*
X1249171Y762124D1*
X1244860Y760698D1*
X1242008D1*
X1237697Y762124D1*
X1234845Y766435D1*
X1233386Y773598D1*
Y777909D1*
X1234845Y785072D1*
X1237697Y789383D1*
X1242008Y790809D1*
X1244860D1*
X1234845Y785072D2*
X1252056Y766435D1*
X1039961Y697839D2*
Y684939D1*
X1038502Y680628D1*
X1037076Y679169D1*
X1034224Y677743D1*
X1031339D1*
X1028487Y679169D1*
X1027028Y680628D1*
X1025602Y684939D1*
Y697839D1*
X1055746D1*
X1039961Y687791D2*
X1055746Y677743D1*
X1025602Y663743D2*
X1055746Y643647D1*
X1025602D2*
X1055746Y663743D1*
X948444Y687791D2*
X978588D1*
X948444Y697839D2*
Y677743D1*
Y663743D2*
X978588Y643647D1*
X948444D2*
X978588Y663743D1*
X873456Y684939D2*
X899289D1*
X886389Y697838D2*
Y672006D1*
X871317Y655120D2*
Y639369D1*
X882791Y647958D1*
Y643646D1*
X884217Y640795D1*
X885642Y639369D1*
X889954Y637910D1*
X892805D1*
X897116Y639369D1*
X900001Y642221D1*
X901427Y646532D1*
Y650843D1*
X900001Y655120D1*
X898542Y656546D1*
X895690Y658006D1*
X898542Y622484D2*
X900001Y623910D1*
X901427Y622484D1*
X900001Y621024D1*
X898542Y622484D1*
X871317Y604139D2*
Y588388D1*
X882791Y596976D1*
Y592665D1*
X884217Y589814D1*
X885643Y588388D1*
X889954Y586928D1*
X892805D1*
X897116Y588388D1*
X900002Y591239D1*
X901427Y595550D1*
Y599862D1*
X900002Y604139D1*
X898542Y605565D1*
X895690Y607024D1*
X871283Y572929D2*
X901427Y561455D1*
X871283Y549981D1*
X801288Y676317D2*
X798436Y677743D1*
X795551Y680628D1*
X794125Y683480D1*
Y689217D1*
X795551Y692102D1*
X798436Y694954D1*
X801288Y696413D1*
X805599Y697839D1*
X812795D1*
X817073Y696413D1*
X819958Y694954D1*
X822810Y692102D1*
X824269Y689217D1*
Y683480D1*
X822810Y680628D1*
X819958Y677743D1*
X817073Y676317D1*
X812795D1*
Y683480D1*
X794125Y642221D2*
X824269D1*
X794125Y662317D1*
X824269D1*
X794125Y628221D2*
X824269D1*
Y618173D1*
X822810Y613862D1*
X819958Y610977D1*
X817073Y609551D1*
X812795Y608125D1*
X805599D1*
X801288Y609551D1*
X798436Y610977D1*
X795551Y613862D1*
X794125Y618173D1*
Y628221D1*
M02*
