G04 DipTrace 3.3.1.3*
G04 T4RA8875TouchShieldcastellatedV02.gbl*
%MOIN*%
G04 #@! TF.FileFunction,Copper,L2,Bot*
G04 #@! TF.Part,Single*
G04 #@! TA.AperFunction,CopperBalancing*
%ADD13C,0.025*%
G04 #@! TA.AperFunction,Conductor*
%ADD14C,0.023622*%
%ADD16C,0.008*%
%ADD17C,0.02*%
%ADD18C,0.015*%
G04 #@! TA.AperFunction,CopperBalancing*
%ADD20C,0.013*%
%ADD25R,0.051181X0.059055*%
G04 #@! TA.AperFunction,ComponentPad*
%ADD26R,0.059055X0.059055*%
%ADD27C,0.059055*%
%ADD28C,0.17*%
%ADD32C,0.074*%
%ADD35C,0.1*%
%ADD41R,0.05X0.025*%
G04 #@! TA.AperFunction,ComponentPad*
%ADD42R,0.074803X0.074803*%
%ADD43C,0.074803*%
%ADD44C,0.06194*%
%ADD47R,0.07874X0.023622*%
G04 #@! TA.AperFunction,ComponentPad*
%ADD48C,0.074*%
%ADD49C,0.15*%
%ADD50C,0.08*%
%ADD53R,0.062992X0.062992*%
%ADD54C,0.062992*%
%ADD55C,0.137795*%
G04 #@! TA.AperFunction,ViaPad*
%ADD56C,0.04*%
%ADD58C,0.165*%
%FSLAX26Y26*%
G04*
G70*
G90*
G75*
G01*
G04 Bottom*
%LPD*%
X4093700Y655700D2*
D13*
X3993700D1*
X3893700D1*
X3793700D1*
X3693700D1*
X3593700D1*
X3493700D1*
X3393700D1*
X3293700D2*
X3393700D1*
X3193700D2*
X3293700D1*
X3093700D2*
X3193700D1*
X2308700Y2210700D2*
Y1915700D1*
X2293700D1*
X4238700Y1810700D2*
Y1675700D1*
X4427846Y1486554D1*
X4453700D1*
Y1042613D1*
X4433070D1*
X2803700Y1920700D2*
X2875231Y1992231D1*
Y2593228D1*
X2888176Y2606172D1*
X3346200Y3070700D2*
Y3100700D1*
X3366200Y3120700D1*
X3403700D1*
X748700Y750700D2*
Y850700D1*
X2896228Y891728D2*
Y755700D1*
X2908700D1*
X2308700Y1915700D2*
Y1580464D1*
X2350728Y1538436D1*
Y891728D1*
X748700Y850700D2*
X814684D1*
X855712Y891728D1*
X1192228D1*
X5188385Y2202550D2*
X5058700Y2332235D1*
Y2772865D1*
X5188385Y2902550D1*
X5083700Y970700D2*
Y1250700D1*
X5079291D1*
X1618700Y655700D2*
X1718700D1*
X1818700D1*
X1918700D1*
X2018700D1*
X2118700D1*
X2218700D1*
X2318700D1*
X2418700D1*
X2518700D1*
X2618700D1*
X2718700D1*
X2818700D1*
X1923700Y2410700D2*
X2008700Y2495700D1*
Y2550700D1*
D14*
X2113700D1*
X468700Y2495850D2*
D13*
X568700D1*
X1618700Y655700D2*
D14*
X1452885D1*
X1387196Y590011D1*
X926133D1*
X892511Y623633D1*
Y799511D1*
X928700Y835700D1*
X3593700Y3115700D2*
D13*
X3534200Y3175200D1*
Y3190200D1*
X3403700Y3320700D1*
X2818700Y655700D2*
Y637255D1*
X2848228Y607728D1*
X2928700D1*
Y500700D1*
X5368700Y790700D2*
X5348700D1*
X5313700Y825700D1*
Y1696888D1*
X5433700D1*
Y3000700D1*
X4888700D1*
Y2690700D1*
X3768700D1*
Y2695700D1*
X3683700D1*
X3641200Y2738200D1*
X3569200D1*
X3534200Y2773200D1*
Y3056200D1*
X3593700Y3115700D1*
X2113700Y2600700D2*
D14*
Y2650700D1*
Y2550700D2*
D13*
Y2600700D1*
X568700Y2495850D2*
X620728Y2547877D1*
Y2919372D1*
X568700Y2971399D1*
X3653700Y885700D2*
Y1540700D1*
X3668200Y1555200D1*
Y2612200D1*
X3633200Y2647200D1*
X3508172D1*
X3473172Y2682200D1*
Y3151228D1*
X3403700Y3220700D1*
X2476606Y807728D2*
X2477669Y808791D1*
Y2310700D1*
X1818700Y755700D2*
D16*
Y967739D1*
X1802700Y983739D1*
Y2046700D1*
X1738700Y2110700D1*
Y2960700D1*
X1853700Y3075700D1*
X1738700Y2110700D2*
X1323700D1*
X1918700Y755700D2*
X1866700Y807700D1*
Y1437672D1*
X1882700Y1453672D1*
X1950672D1*
X1966672Y1469672D1*
Y1952162D1*
X1983700D1*
Y2055700D1*
X1978700Y2060700D1*
Y2279228D1*
X2015172Y2315700D1*
X2323700D1*
X2379669Y2371669D1*
Y2504224D1*
X2395669Y2520224D1*
X2403224D1*
X2803700Y2920700D1*
X2066700Y2153672D2*
Y803700D1*
X2018700Y755700D1*
X2395669Y2153672D2*
X2411669Y2169672D1*
Y2436700D1*
X2427669Y2452700D1*
X2657243D1*
X2768216Y2563672D1*
X2830672D1*
X2846672Y2579672D1*
Y2777728D1*
X2803700Y2820700D1*
X2118700Y755700D2*
Y1810700D1*
Y2228700D1*
X2175700Y2285700D1*
X2323700D1*
X2395669Y2357669D1*
Y2488221D1*
X2411669Y2504221D1*
X2587221D1*
X2803700Y2720700D1*
X2760794Y605444D2*
X1540708D1*
X1483464Y548200D1*
X1223082D1*
X2868700Y700700D2*
X2862228Y707172D1*
Y1362172D1*
X2803700Y1420700D1*
X2183700Y3111133D2*
X2220700D1*
Y3247672D1*
X2236700Y3263672D1*
X2912023D1*
X2947050Y3298700D1*
X3058700D1*
X2273700Y3111133D2*
X2486570D1*
X2551169Y3175731D1*
X3025731D1*
X3148700Y3298700D1*
X1696653Y3220700D2*
X1668700D1*
Y2455700D1*
X1523700Y2310700D1*
X1323700D1*
X1264728Y2251728D1*
Y1469672D1*
X1280728Y1453672D1*
X1602700D1*
X1618700Y1437672D1*
Y755700D1*
X1786704Y3071291D2*
X1698700Y2983287D1*
Y2435700D1*
X1473700Y2210700D1*
X1323700D1*
X2862672Y3120700D2*
X2803700D1*
X1323700Y2210700D2*
X1280728Y2167728D1*
Y1569672D1*
X1296728Y1553672D1*
X1702700D1*
X1718700Y1537672D1*
Y755700D1*
X1323700Y1310700D2*
X1177023D1*
X1161023Y1326700D1*
Y2174700D1*
X1145023Y2190700D1*
X908700D1*
X2618700Y755700D2*
Y838980D1*
X2599881Y857798D1*
Y1353676D1*
Y1422712D1*
X2629802Y1452633D1*
Y2272700D1*
X2645802Y2288700D1*
X2717327D1*
X2733327Y2272700D1*
Y2236703D1*
X2749330Y2220700D1*
X2803700D1*
X1323700Y1210700D2*
X1098228D1*
X1082228Y1226700D1*
Y1974700D1*
X1066228Y1990700D1*
X908700D1*
X2718700Y755700D2*
Y1399672D1*
Y2035700D1*
X2803700Y2120700D1*
X908700Y2090700D2*
X1050228D1*
X2725735Y2363672D2*
X2830672D1*
X2846672Y2347672D1*
Y2063672D1*
X2803700Y2020700D1*
X1050228Y2355672D2*
X1418294D1*
X1050228Y2090700D2*
X1145019Y1995909D1*
Y1269672D1*
X1161019Y1253672D1*
X1366672D1*
X1382672Y1237672D1*
Y1126700D1*
X1366672Y1110700D1*
X1323700D1*
X1382672Y1126700D2*
X1517409Y991964D1*
Y731228D1*
X1082231Y1153672D2*
X1066228Y1169676D1*
Y1874700D1*
X1050228Y1890700D1*
X908700D1*
X1923700Y855700D2*
Y1110700D1*
X3246672Y1087672D2*
Y1447672D1*
X4098700Y980700D2*
Y755700D1*
X4093700D1*
X1923700Y1110700D2*
Y1153672D1*
X1965401D1*
X3246672Y1447672D2*
Y1571594D1*
X3297704Y1622625D1*
Y1914704D1*
X3403700Y2020700D1*
X3050172Y2120700D2*
Y1195672D1*
Y917728D1*
X3135228Y832672D1*
Y715228D1*
X3119228Y699228D1*
X3050172D1*
X3034172Y683228D1*
Y615228D1*
X3050172Y599228D1*
X4121228D1*
X4137228Y615228D1*
Y677172D1*
X4115172Y699228D1*
X4050172D1*
X3993700Y755700D1*
X5188385Y2005700D2*
Y1995700D1*
X4923700D1*
X4778700Y2140700D1*
X3858700D1*
X3848700Y2130700D1*
X3768700D1*
X3753700Y2115700D1*
X3403700Y2220700D2*
X3233700Y2050700D1*
Y1877369D1*
X3160728Y1804397D1*
Y1436200D1*
Y1057326D1*
X3235228Y982826D1*
Y715228D1*
X3251228Y699228D1*
X3837228D1*
X3893700Y755700D1*
X3403700Y2320700D2*
X3446672D1*
Y2279672D1*
X3432700Y2265700D1*
X3333700D1*
Y2260700D1*
X3793700Y755700D2*
Y880224D1*
X3688700Y985224D1*
Y1525700D1*
X3710700Y1547700D1*
Y1977731D1*
X3432700Y2265700D2*
X3458700Y2239700D1*
Y1970700D1*
X2018700Y2255700D2*
Y1861255D1*
X1998672D1*
Y1426700D1*
X1982672Y1410700D1*
X1923700D1*
X4823700Y965700D2*
Y890700D1*
X4763700Y895700D2*
Y1880700D1*
X4708700D1*
X3403700Y2420700D2*
X3281704D1*
X3265704Y2436700D1*
Y2563672D1*
X1848700Y2540700D2*
X1846200Y2543200D1*
X1813700Y2510700D1*
Y2180700D1*
X1866700Y2127700D1*
Y1567700D1*
X1923700Y1510700D1*
X3548700Y810700D2*
X3544535Y814865D1*
Y2420700D1*
X3593700Y755700D2*
Y855700D1*
X3568700Y880700D1*
Y1540700D1*
X3593700Y1565700D1*
Y2504700D1*
X3577700Y2520700D1*
X3403700D1*
X3109672Y2715672D2*
Y2520700D1*
X998224Y2396645D2*
X1272279Y2670700D1*
X1528700D1*
X908700Y1490700D2*
X1050228Y1632228D1*
Y1832229D1*
X1026756Y1855700D1*
X1013700D1*
X4998700Y780700D2*
X4608301D1*
Y755700D1*
X4448700D1*
X4433700Y770700D1*
X5103700Y915700D2*
X5123700D1*
Y1255700D1*
X5138700Y1270700D1*
X3201700Y1965672D2*
Y2847672D1*
X3217700Y2863672D1*
X3430672D1*
X3446672Y2847672D1*
Y2663672D1*
X3403700Y2620700D1*
X3758700Y1940228D2*
Y2025700D1*
X4563700D1*
X4608700Y1980700D1*
Y1880700D1*
X2371704Y1710700D2*
Y1965672D1*
X4608700Y1880700D2*
Y1135700D1*
Y965700D1*
X4525574D1*
X4495987Y936113D1*
X5163700Y1110700D2*
Y920700D1*
X5158700D1*
X3625700Y1577700D2*
Y2547672D1*
X3609700Y2563672D1*
X3376728D1*
X3360728Y2579672D1*
Y2677728D1*
X3403700Y2720700D1*
X3480535Y1577700D2*
Y813228D1*
X3464535Y797228D1*
X3435228D1*
X3393700Y755700D1*
X2030672Y1563672D2*
Y1810700D1*
X3403700Y2820700D2*
X3344728Y2761728D1*
Y2479672D1*
X3360728Y2463672D1*
X3462671D1*
X3503700Y2422644D1*
Y1875700D1*
X3478700D1*
X3374700D1*
X3346672Y1847672D1*
Y1063188D1*
X3293700Y1010216D1*
Y755700D1*
X3193700D2*
Y923082D1*
X3112728Y1004054D1*
Y2015672D1*
X3144728Y2047672D1*
Y2904700D1*
X3160728Y2920700D1*
X3403700D1*
X3093700Y755700D2*
X3018172Y831228D1*
Y2147672D1*
X3034172Y2163672D1*
X3093672D1*
X3061672Y2195672D1*
Y3004700D1*
X3077672Y3020700D1*
X3403700D1*
X891102Y1150464D2*
Y1155700D1*
X998700D1*
X1114669Y1039731D1*
X1236700D1*
X1834700Y1039735D2*
Y1663672D1*
X1236700Y1039731D2*
Y849224D1*
X1220700Y833224D1*
X1146224D1*
X1068700Y755700D1*
X2750700Y1063672D2*
Y1567700D1*
X2803700Y1620700D1*
X2168700Y805700D2*
Y1520700D1*
X2159381D1*
X1268700Y655700D2*
X1312228Y699228D1*
X2744228D1*
X2760228Y715228D1*
Y977228D1*
X2803700Y1020700D1*
X4415070Y985728D2*
X4399070Y1001728D1*
Y1335330D1*
X4113700Y1620700D1*
Y1880700D1*
X4108700D1*
X3337228Y863172D2*
X3403700Y929645D1*
Y1020700D1*
X3350676D1*
X3330676Y1000700D1*
X4185228Y1063672D2*
X4193700D1*
Y900700D1*
X4228700Y865700D1*
Y660700D1*
X4318700Y570700D1*
X4958700D1*
X4153228Y1220700D2*
Y1041172D1*
X4173700Y1020700D1*
Y880700D1*
X4203700Y850700D1*
X4208700D1*
Y655700D1*
X4335228Y529172D1*
X5017172D1*
X5058700Y570700D1*
X3778700Y1320700D2*
X3820598Y1278802D1*
X4175598D1*
X4263700Y1190700D1*
Y990700D1*
X4258700Y985700D1*
X4253700D1*
X4217228Y949228D1*
Y917172D1*
X4248700Y885700D1*
Y665700D1*
X4302172Y612228D1*
X5117172D1*
X5158700Y570700D1*
X3608700Y1425700D2*
X3603700D1*
Y955700D1*
X4253700Y935700D2*
Y925700D1*
X4268700D1*
Y675700D1*
X4316172Y628228D1*
X5201172D1*
X5258700Y570700D1*
X3446672Y853228D2*
Y1477728D1*
X3403700Y1520700D1*
X4393700Y890700D2*
X4388700D1*
Y815700D1*
X5013700D1*
X5158700Y670700D1*
X3512535Y877228D2*
Y1604700D1*
X3496535Y1620700D1*
X3403700D1*
X1563700Y2000700D2*
Y1920700D1*
X1353700Y1710700D1*
X1323700D1*
X2228700Y825700D2*
Y755700D1*
X2218700D1*
X908700Y1690700D2*
Y1590700D1*
X1834700Y1985672D2*
Y2084700D1*
X1783700Y2135700D1*
Y2580700D1*
X1793700D1*
X1323700Y1710700D2*
X1380728Y1653672D1*
X1766700D1*
X1782700Y1637672D1*
Y839228D1*
X2803700Y2520700D2*
X2719700Y2436700D1*
X2443669D1*
X2427669Y2420700D1*
Y1659885D1*
X2387700Y1619917D1*
Y857728D1*
X2371700Y841728D1*
X2318700D1*
X2208700Y951728D1*
Y1015700D1*
X1750700Y1007735D2*
Y1594700D1*
X1734700Y1610700D1*
X1323700D1*
X2318700Y755700D2*
Y841728D1*
X2418700Y755700D2*
Y1207692D1*
X2427200Y1216192D1*
Y1485672D1*
Y1607901D1*
X2443669Y1624369D1*
Y2404700D1*
X2459669Y2420700D1*
X2803700D1*
X1323700Y1410700D2*
X1240553D1*
X1224553Y1426700D1*
Y2232225D1*
X1208550Y2248228D1*
X882228D1*
X866228Y2232228D1*
Y1833172D1*
X908700Y1790700D1*
X2803700Y2320700D2*
X2613802D1*
X2597802Y2304700D1*
Y1715672D1*
X2542287D1*
X2530291Y1703676D1*
Y1405672D2*
Y1194015D1*
X2518700Y1182424D1*
Y755700D1*
X2530291Y1703676D2*
Y1405672D1*
X468700Y3071399D2*
D13*
X568700D1*
X468700D2*
X418700D1*
Y2595850D1*
Y1987062D1*
Y1545284D1*
Y1095850D1*
Y705700D1*
X438700Y685700D1*
X458550D1*
X468700Y695850D1*
Y2595850D2*
X418700D1*
X568700D2*
X468700D1*
Y1995850D2*
X427487D1*
X418700Y1987062D1*
X468700Y1095850D2*
X418700D1*
X468700Y695850D2*
X568700D1*
X1618700Y555700D2*
X1718700D1*
X1818700D1*
X1918700D1*
X2018700D1*
X2118700D1*
X2218700D1*
X2318700D1*
X2418700D1*
X2518700D1*
X2618700D1*
X2718700D1*
X2818700D1*
X3093700D2*
X3193700D1*
X3293700D1*
X3393700D1*
X3493700D1*
X3593700D1*
X3693700D1*
X3793700D1*
X3893700D1*
X3993700D1*
X4093700D1*
X568700Y695850D2*
Y620700D1*
X618700Y570700D1*
Y565700D1*
X658700Y525700D1*
Y450700D1*
X648700Y440700D1*
X1598700D1*
Y535700D1*
X1618700Y555700D1*
X3823661Y2963810D2*
X3890590D1*
X4008700Y3081920D1*
X568700Y3071399D2*
Y3130700D1*
X803700Y3365700D1*
X1604504D1*
X1932230D1*
X2758700D1*
X2803700Y3320700D1*
Y3340700D1*
X2838700Y3375700D1*
X3958700D1*
X3973700Y3390700D1*
Y3116920D1*
X4008700Y3081920D1*
X3973700Y3390700D2*
X5358700D1*
X5398700Y3350700D1*
Y3240700D1*
X5553700Y3085700D1*
Y1575700D1*
X5478700Y1500700D1*
Y1140700D1*
X5489469D1*
X5513700D1*
X4008700Y1880700D2*
Y1970700D1*
X3828700D1*
Y1890700D1*
X3798700D1*
X3768700Y1860700D1*
Y1531326D1*
X3788378Y1511648D1*
X3824326Y1475700D1*
X3828700Y1130700D2*
X3813700D1*
X3723700Y1220700D1*
Y1283525D1*
X3728700D1*
Y1365700D1*
X3843700D1*
X3873700Y1335700D1*
X3788378Y1511648D2*
X3728700D1*
Y1278525D1*
X3723700Y1283525D1*
X2928700Y2670700D2*
Y2770700D1*
X2469566Y2972393D2*
D17*
X2853700D1*
Y2950700D1*
X2878700Y2925700D1*
Y2820700D1*
X2928700Y2770700D1*
X1932230Y3365700D2*
D13*
Y2992406D1*
X1952243Y2972393D1*
X1966417D1*
X2073109Y2865700D1*
X1323700Y2410700D2*
X1548700D1*
X1633700Y2495700D1*
Y3336504D1*
X1604504Y3365700D1*
X2113700Y2500700D2*
D14*
Y2476389D1*
D13*
Y2420700D1*
X2103700Y2410700D1*
X2178700D1*
X4008700Y1880700D2*
Y1980700D1*
X4288700D1*
X4293700Y1985700D1*
X4503700D1*
Y1880700D1*
X4508700D1*
X4208700D2*
X4198700D1*
Y1985700D1*
X4293700D1*
X4673700Y740700D2*
Y715700D1*
X4381141D1*
X4359881Y736960D1*
X4508700Y1880700D2*
X4518700D1*
Y1025700D1*
X4433700Y940700D1*
X4416760D1*
X4358700D1*
X4333700Y915700D1*
Y763141D1*
X4359881Y736960D1*
X2073109Y2865700D2*
D17*
Y2725109D1*
X1923700Y2575700D1*
Y2530700D1*
X1853700Y2460700D1*
Y2360700D1*
X2053700D1*
X2103700Y2410700D1*
X683700Y1103653D2*
D13*
X720608D1*
X758503D1*
X853700Y1108653D2*
X928503D1*
X418700Y1545284D2*
X684116D1*
X693700Y1535700D1*
X720608Y1103653D2*
Y925700D1*
X1098700D1*
X1113700Y940700D1*
Y965700D1*
X1008700Y1070700D1*
X966456D1*
X928503Y1108653D1*
X1518700Y1945700D2*
D18*
X1508700D1*
X1393700Y2060700D1*
X5188385Y2508850D2*
D13*
X5278700D1*
Y1899165D1*
X5188385Y1808850D1*
X5215599D1*
Y870700D1*
X5157838D1*
X4973700D1*
X4948700Y845700D1*
X4593700D1*
X4563700Y875700D1*
X4481760D1*
X4416760Y940700D1*
X5373700Y1040700D2*
X5389469D1*
X5489469Y1140700D1*
X4093700Y555700D2*
Y515700D1*
X4138700Y470700D1*
X5398700D1*
Y690700D1*
X5405306Y697306D1*
X5468700Y760700D1*
Y967700D1*
X5395700Y1040700D1*
X5389469D1*
X5405306Y697306D2*
X5331231D1*
X5157838Y870700D1*
X4328228Y1130503D2*
D16*
Y1270700D1*
X4333700D1*
X3303700Y1263672D2*
Y1520700D1*
X3203700Y1169700D2*
Y1520700D1*
X1008700Y1690700D2*
X967172Y1732228D1*
X882228D1*
X866228Y1716228D1*
Y1653381D1*
X850228Y1637381D1*
X627169D1*
X568700Y1695850D1*
X663231Y1748228D2*
X526228D1*
X510228Y1732228D1*
Y1637377D1*
X468700Y1595850D1*
Y2395850D2*
X510231Y2437381D1*
X697094D1*
X713094Y2453381D1*
X808700Y2357775D1*
Y2190700D1*
X713094Y2453381D2*
Y2775271D1*
X468700Y995850D2*
X510231Y1037381D1*
X594228D1*
X610228Y1053381D1*
Y1392228D1*
X808700Y1590700D1*
X850700Y673708D2*
X689896D1*
X673897Y689707D1*
Y750700D1*
X1010228Y970322D2*
X824700D1*
X808700Y986322D1*
Y1390700D1*
X673897Y750700D2*
X528228D1*
X512228Y766700D1*
Y852322D1*
X468700Y895850D1*
X568700Y995850D2*
Y983850D1*
X598228Y954322D1*
X633700D1*
X649700Y970322D1*
Y1331700D1*
X808700Y1490700D1*
X649700Y970322D2*
X673897Y946125D1*
Y850700D1*
X568700Y2195850D2*
X610228D1*
X626228Y2179850D1*
Y1948228D1*
X642228Y1932228D1*
X834228D1*
X850228Y1916228D1*
Y1732228D1*
X808700Y1690700D1*
X568700Y2395850D2*
X711901D1*
Y2377700D1*
X468700Y2295850D2*
X511169Y2253381D1*
X642228D1*
X658228Y2237381D1*
Y2141172D1*
X808700Y1990700D1*
X468700Y2095850D2*
X526228Y2038322D1*
Y1853381D1*
X542228Y1837381D1*
X762019D1*
X808700Y1790700D1*
X568700Y2295850D2*
X658228D1*
X674228Y2279850D1*
Y2165172D1*
X690228Y2149172D1*
X834228D1*
X850228D1*
Y2998928D1*
X834228Y3014928D1*
X528228D1*
X512228Y2998928D1*
Y2827872D1*
X568700Y2771399D1*
X834228Y2149172D2*
X850228Y2133172D1*
Y1964228D1*
X834228Y1948228D1*
X658228D1*
X642228Y1964228D1*
Y2221381D1*
X626228Y2237381D1*
X543172D1*
X527172Y2221381D1*
Y2153381D1*
X543172Y2137381D1*
X594228D1*
X610228Y2121381D1*
Y1906700D1*
X626228Y1890700D1*
X808700D1*
X3913070Y1675204D2*
X3999196D1*
X4368700Y1305700D1*
Y1007027D1*
X4303070Y941397D1*
Y702700D1*
X4335070Y670700D1*
X4756472D1*
X4797999Y712228D1*
X5017172D1*
X5058700Y670700D1*
X3445401Y1675204D2*
X3403700D1*
Y1720700D1*
X3826700Y1820700D2*
X3823700Y1817700D1*
Y1577955D1*
X3911445D1*
X4287070Y1202330D1*
Y686700D1*
X4323070Y650700D1*
X4958700D1*
Y670700D1*
X3503700Y1820700D2*
X3403700D1*
X2163700Y2735700D2*
Y2784700D1*
X2171535Y2792535D1*
Y2865700D1*
X2122704Y2914531D1*
Y3059700D1*
X2138704Y3075700D1*
X2183700D1*
X2263700Y2735700D2*
Y2786700D1*
X2250275Y2800125D1*
Y2865700D1*
X2273700Y3075700D2*
X2823700D1*
X2928700Y2970700D1*
X2250275Y2865700D2*
Y2946157D1*
X2236700Y2959731D1*
Y3075700D1*
X2273700D1*
X2218700Y1160700D2*
X2308228D1*
Y1185700D1*
X2894228Y1163672D2*
Y1431503D1*
X2903700Y1440976D1*
Y1520700D1*
X3593700Y3015700D2*
D13*
X3763700Y2845700D1*
X4008700D1*
X2326298Y2550700D2*
D14*
X2264424D1*
Y2600700D1*
X2326298D1*
X2264424Y2550700D2*
D13*
Y2500700D1*
X2326298D1*
X2923700Y1595700D2*
Y2399645D1*
X2982172Y2458117D1*
Y3017228D1*
X2928700Y3070700D1*
X2326298Y2600700D2*
D14*
X2387480D1*
Y2757507D1*
X2348700Y2796287D1*
Y2865700D1*
X2309098Y2373672D2*
D13*
Y2381098D1*
X2303700Y2375700D1*
Y2415700D1*
X2253503D1*
Y2410700D1*
X2326298Y2500700D2*
D14*
X2351598D1*
Y2416172D1*
X2309098Y2373672D1*
X2676204Y941728D2*
D13*
X2666676Y951255D1*
Y2254700D1*
X2928228Y1358172D2*
X2936728Y1349672D1*
Y947783D1*
X2930672Y941728D1*
D56*
X2928700Y500700D3*
X5368700Y790700D3*
X1853700Y3075700D3*
X3753700Y2115700D3*
X4823700Y965700D3*
Y890700D3*
X4998700Y780700D3*
X4433700Y770700D3*
X4608700Y1135700D3*
X3603700Y955700D3*
X4253700Y935700D3*
X693700Y1535700D3*
X1518700Y1945700D3*
X1393700Y2060700D3*
X5373700Y1040700D3*
D58*
X521062Y508062D3*
X521932Y3287590D3*
X5536810Y508062D3*
Y3287590D3*
D56*
X4359881Y736960D3*
X4673700Y740700D3*
X3828700Y1130700D3*
X3824326Y1475700D3*
X3873700Y1335700D3*
X853700Y1108653D3*
X928503D3*
X683700Y1103653D3*
X758503D3*
X5513700Y1140700D3*
X5478700Y1500700D3*
X2350728Y891728D3*
X4433070Y1042613D3*
X4238700Y1810700D3*
X2888176Y2606172D3*
X3346200Y3070700D3*
X1192228Y891728D3*
X2908700Y755700D3*
X2896228Y891728D3*
X2308700Y2210700D3*
X2293700Y1915700D3*
X928700Y835700D3*
X2477669Y2310700D3*
X2476606Y807728D3*
X3653700Y885700D3*
X1983700Y2055700D3*
X2395669Y2153672D3*
X2066700D3*
X2118700Y1810700D3*
X1223082Y548200D3*
X2760794Y605444D3*
X2868700Y700700D3*
X1696653Y3220700D3*
X1786704Y3071291D3*
X2862672Y3120700D3*
X2599881Y1353676D3*
X2718700Y1399672D3*
X2725735Y2363672D3*
X1418294Y2355672D3*
X1050228D3*
Y2090700D3*
X1517409Y731228D3*
X1082231Y1153672D3*
X1965401D3*
X3246672Y1447672D3*
X1923700Y855700D3*
X4098700Y980700D3*
X3246672Y1087672D3*
X3050172Y1195672D3*
Y2120700D3*
X3160728Y1436200D3*
X2018700Y2255700D3*
X3333700Y2260700D3*
X3710700Y1977731D3*
X3458700Y1970700D3*
X1848700Y2540700D3*
X3265704Y2563672D3*
X3544535Y2420700D3*
X3548700Y810700D3*
X4763700Y895700D3*
X3109672Y2520700D3*
Y2715672D3*
X1528700Y2670700D3*
X998224Y2396645D3*
X1013700Y1855700D3*
X3758700Y1940228D3*
X4495987Y936113D3*
X2371704Y1965672D3*
Y1710700D3*
X3201700Y1965672D3*
X2030672Y1810700D3*
Y1563672D3*
X3625700Y1577700D3*
X3480535D3*
X3478700Y1875700D3*
X3112728Y2015672D3*
X3093672Y2163672D3*
X1834700Y1663672D3*
Y1039735D3*
X891102Y1150464D3*
X1236700Y1039731D3*
X2750700Y1063672D3*
X2159381Y1520700D3*
X2168700Y805700D3*
X4415070Y985728D3*
X3330676Y1000700D3*
X3337228Y863172D3*
X4185228Y1063672D3*
X4153228Y1220700D3*
X3778700Y1320700D3*
X3608700Y1425700D3*
X3446672Y853228D3*
X4393700Y890700D3*
X3512535Y877228D3*
X1782700Y839228D3*
X2228700Y825700D3*
X1793700Y2580700D3*
X1834700Y1985672D3*
X1563700Y2000700D3*
X2208700Y1015700D3*
X1750700Y1007735D3*
X2427200Y1485672D3*
X2530291Y1405672D3*
Y1703676D3*
X4333700Y1270700D3*
X4328228Y1130503D3*
X3303700Y1263672D3*
X3203700Y1169700D3*
X663231Y1748228D3*
X713094Y2775271D3*
X850700Y673708D3*
X1010228Y970322D3*
X711901Y2377700D3*
X3913070Y1675204D3*
X3445401D3*
X3826700Y1820700D3*
X3503700D3*
X2308228Y1185700D3*
X2894228Y1163672D3*
X2666676Y2254700D3*
X2676204Y941728D3*
X2930672D3*
X2928228Y1358172D3*
X2923700Y1595700D3*
X2309098Y2373672D3*
X5079291Y1250700D3*
X5083700Y970700D3*
X5138700Y1270700D3*
X5103700Y915700D3*
X5158700Y920700D3*
X5163700Y1110700D3*
X613725Y3348331D2*
D13*
X2751944D1*
X2855446D2*
X3018205D1*
X3189169D2*
X3351964D1*
X3455466D2*
X5445016D1*
X626285Y3323462D2*
X2744803D1*
X2862587D2*
X2928530D1*
X3208582D2*
X3344787D1*
X3462607D2*
X5432457D1*
X631883Y3298594D2*
X2749253D1*
X2858173D2*
X2902729D1*
X3213714D2*
X3349236D1*
X3482056D2*
X5426859D1*
X631524Y3273725D2*
X2202521D1*
X3208511D2*
X3281774D1*
X3325637D2*
X3369870D1*
X3506924D2*
X3567986D1*
X3619420D2*
X5427218D1*
X625244Y3248856D2*
X1657405D1*
X1734891D2*
X2188706D1*
X3188918D2*
X3252241D1*
X3649168D2*
X5433498D1*
X611716Y3223987D2*
X1636879D1*
X1744543D2*
X2188706D1*
X3118190D2*
X3244813D1*
X3658139D2*
X5447026D1*
X438718Y3199119D2*
X457473D1*
X586381D2*
X1636699D1*
X1739197D2*
X2188706D1*
X3093322D2*
X3249012D1*
X3656453D2*
X5472360D1*
X438718Y3174250D2*
X1636699D1*
X1700693D2*
X2188706D1*
X3068455D2*
X3269071D1*
X3338304D2*
X3369080D1*
X3642960D2*
X3945488D1*
X4071920D2*
X5605706D1*
X438718Y3149381D2*
X1636699D1*
X1700693D2*
X2188706D1*
X3041506D2*
X3338758D1*
X3648845D2*
X3918682D1*
X4098726D2*
X5605706D1*
X526239Y3124512D2*
X551813D1*
X585592D2*
X1636699D1*
X1700693D2*
X2130717D1*
X2948314D2*
X3314070D1*
X3658068D2*
X3904221D1*
X4113151D2*
X5605706D1*
X618426Y3099644D2*
X1071595D1*
X1166593D2*
X1352891D1*
X1483701D2*
X1636699D1*
X1700693D2*
X1748622D1*
X1894898D2*
X2118983D1*
X2979677D2*
X3305709D1*
X3656596D2*
X3897116D1*
X4120256D2*
X4446575D1*
X4541608D2*
X4727907D1*
X4858717D2*
X5605706D1*
X626141Y3074775D2*
X1056667D1*
X1181521D2*
X1352891D1*
X1483701D2*
X1636699D1*
X1700693D2*
X1738826D1*
X1901680D2*
X2094833D1*
X2987536D2*
X3298388D1*
X3643427D2*
X3895932D1*
X4121476D2*
X4431647D1*
X4556536D2*
X4727907D1*
X4858717D2*
X5605706D1*
X621871Y3049906D2*
X1053976D1*
X1184212D2*
X1352891D1*
X1483701D2*
X1636699D1*
X1700693D2*
X1721099D1*
X2008615D2*
X2090706D1*
X3005729D2*
X3071026D1*
X3648523D2*
X3751893D1*
X4116955D2*
X4428956D1*
X4559227D2*
X4727907D1*
X4858717D2*
X5605706D1*
X868323Y3025037D2*
X1061655D1*
X1176533D2*
X1352891D1*
X1483701D2*
X1636699D1*
X1847244D2*
X1871382D1*
X2033088D2*
X2090706D1*
X2268704D2*
X2388724D1*
X2550431D2*
X2744911D1*
X3021877D2*
X3037797D1*
X3657996D2*
X3729178D1*
X4105938D2*
X4436671D1*
X4551512D2*
X4727907D1*
X5465375D2*
X5605706D1*
X882211Y3000169D2*
X1087061D1*
X1151127D2*
X1352891D1*
X1483701D2*
X1636699D1*
X1822376D2*
X1859540D1*
X2044966D2*
X2090706D1*
X2268704D2*
X2376847D1*
X2562272D2*
X2748607D1*
X3665460D2*
X3716798D1*
X4085556D2*
X4462041D1*
X4526142D2*
X4727907D1*
X5474202D2*
X5605706D1*
X882211Y2975300D2*
X1636699D1*
X1797509D2*
X1855378D1*
X2049093D2*
X2090706D1*
X2268704D2*
X2372720D1*
X2566435D2*
X2767625D1*
X2839765D2*
X2869931D1*
X3690328D2*
X3711272D1*
X3936063D2*
X3977174D1*
X4040234D2*
X4848191D1*
X5474202D2*
X5605706D1*
X882211Y2950431D2*
X1636699D1*
X1772641D2*
X1857925D1*
X2046545D2*
X2090706D1*
X2281981D2*
X2375268D1*
X2563887D2*
X2753200D1*
X2854226D2*
X2873484D1*
X3574709D2*
X3602722D1*
X3935847D2*
X3970966D1*
X4046442D2*
X4848191D1*
X4929193D2*
X5127513D1*
X5249244D2*
X5393200D1*
X5474202D2*
X5605706D1*
X882211Y2925562D2*
X1636699D1*
X1770703D2*
X1867794D1*
X2036713D2*
X2090706D1*
X2282268D2*
X2385100D1*
X2554019D2*
X2744947D1*
X2862444D2*
X2892251D1*
X3574709D2*
X3627590D1*
X4087566D2*
X4848191D1*
X4929193D2*
X5113985D1*
X5262809D2*
X5393200D1*
X5474202D2*
X5605706D1*
X882211Y2900693D2*
X1636699D1*
X1770703D2*
X1888355D1*
X2533457D2*
X2739456D1*
X2858999D2*
X2878364D1*
X3574709D2*
X3652458D1*
X4107051D2*
X4848191D1*
X4929193D2*
X5110396D1*
X5266361D2*
X5393200D1*
X5474202D2*
X5605706D1*
X882211Y2875825D2*
X1636699D1*
X1770703D2*
X2014524D1*
X2408186D2*
X2714589D1*
X2840482D2*
X2869967D1*
X3574709D2*
X3677325D1*
X4117529D2*
X4848191D1*
X4929193D2*
X5105408D1*
X5261481D2*
X5393200D1*
X5474202D2*
X5605706D1*
X882211Y2850956D2*
X1636699D1*
X1770703D2*
X2015565D1*
X2408186D2*
X2689721D1*
X2853867D2*
X2873304D1*
X3574709D2*
X3702193D1*
X4121584D2*
X4848191D1*
X4929193D2*
X5080541D1*
X5246015D2*
X5286157D1*
X5474202D2*
X5605706D1*
X882211Y2826087D2*
X1636699D1*
X1770703D2*
X2029631D1*
X2408186D2*
X2664853D1*
X2862408D2*
X2891569D1*
X3574709D2*
X3727061D1*
X4119933D2*
X4848191D1*
X4929193D2*
X5055673D1*
X5168146D2*
X5286157D1*
X5474202D2*
X5605706D1*
X882211Y2801218D2*
X1636699D1*
X1770703D2*
X2136746D1*
X2399035D2*
X2639985D1*
X3574709D2*
X3905046D1*
X4112362D2*
X4848191D1*
X4929193D2*
X5030805D1*
X5143278D2*
X5286157D1*
X5474202D2*
X5605706D1*
X882211Y2776350D2*
X1636699D1*
X1770703D2*
X2113708D1*
X2422180D2*
X2615118D1*
X3587304D2*
X3920190D1*
X4097218D2*
X4848191D1*
X4929193D2*
X5018353D1*
X5118411D2*
X5159271D1*
X5217523D2*
X5286157D1*
X5474202D2*
X5605706D1*
X882211Y2751481D2*
X1636699D1*
X1770703D2*
X2100718D1*
X2427276D2*
X2590250D1*
X3684156D2*
X3948466D1*
X4068942D2*
X4848191D1*
X4929193D2*
X5018210D1*
X5099213D2*
X5125862D1*
X5250931D2*
X5286157D1*
X5474202D2*
X5605706D1*
X503166Y2726612D2*
X534230D1*
X882211D2*
X1636699D1*
X1770703D2*
X2099354D1*
X2427276D2*
X2565382D1*
X4929193D2*
X5018210D1*
X5099213D2*
X5113339D1*
X5263419D2*
X5290284D1*
X5474202D2*
X5605706D1*
X438718Y2701743D2*
X580233D1*
X882211D2*
X1492947D1*
X1564477D2*
X1636699D1*
X1770703D2*
X2108720D1*
X2427276D2*
X2540514D1*
X4929193D2*
X5018210D1*
X5266289D2*
X5286301D1*
X5474202D2*
X5605706D1*
X438718Y2676875D2*
X580233D1*
X882211D2*
X1234222D1*
X1576283D2*
X1636699D1*
X1770703D2*
X2046317D1*
X2187318D2*
X2240092D1*
X2427276D2*
X2515647D1*
X4926610D2*
X5018210D1*
X5099213D2*
X5116102D1*
X5260655D2*
X5294339D1*
X5474202D2*
X5605706D1*
X438718Y2652006D2*
X580233D1*
X882211D2*
X1209355D1*
X1572694D2*
X1636699D1*
X1770703D2*
X2046317D1*
X2181075D2*
X2258931D1*
X2427276D2*
X2490779D1*
X3684622D2*
X3847129D1*
X3970260D2*
X4747141D1*
X4870271D2*
X5018210D1*
X5099213D2*
X5132824D1*
X5243969D2*
X5311455D1*
X5474202D2*
X5605706D1*
X882211Y2627137D2*
X1184487D1*
X1272918D2*
X1513078D1*
X1544346D2*
X1636699D1*
X1770703D2*
X2046317D1*
X2181075D2*
X2235606D1*
X2427276D2*
X2465911D1*
X3705650D2*
X3823051D1*
X3994374D2*
X4723027D1*
X4894350D2*
X5018210D1*
X5099213D2*
X5290499D1*
X5474202D2*
X5605706D1*
X882211Y2602268D2*
X1159619D1*
X1248050D2*
X1636699D1*
X1836263D2*
X2046317D1*
X2181075D2*
X2224662D1*
X2427276D2*
X2441043D1*
X3708700D2*
X3810779D1*
X4006611D2*
X4710790D1*
X4906622D2*
X5018210D1*
X5099213D2*
X5286265D1*
X5474202D2*
X5605706D1*
X882211Y2577399D2*
X1134751D1*
X1223182D2*
X1636699D1*
X1878104D2*
X1979178D1*
X2181075D2*
X2224626D1*
X2925923D2*
X2941664D1*
X3708700D2*
X3805934D1*
X4011491D2*
X4091285D1*
X4188113D2*
X4229260D1*
X4326124D2*
X4391277D1*
X4488141D2*
X4529288D1*
X4626115D2*
X4705910D1*
X4911466D2*
X5018210D1*
X5099213D2*
X5154247D1*
X5222511D2*
X5294016D1*
X5474202D2*
X5605706D1*
X882211Y2552531D2*
X1109884D1*
X1198314D2*
X1636699D1*
X1895149D2*
X1968233D1*
X2181075D2*
X2223980D1*
X2915732D2*
X2941664D1*
X3708700D2*
X3807370D1*
X4010056D2*
X4075460D1*
X4341949D2*
X4375452D1*
X4641940D2*
X4707345D1*
X4910031D2*
X5018210D1*
X5099213D2*
X5124319D1*
X5252474D2*
X5327065D1*
X5360306D2*
X5393200D1*
X5474202D2*
X5605706D1*
X882211Y2527662D2*
X1085016D1*
X1173447D2*
X1636699D1*
X1894791D2*
X1968198D1*
X2181075D2*
X2223908D1*
X2915732D2*
X2941664D1*
X3708700D2*
X3815372D1*
X4002018D2*
X4071764D1*
X4345645D2*
X4371756D1*
X4645636D2*
X4715383D1*
X4902029D2*
X5018210D1*
X5099213D2*
X5112765D1*
X5263993D2*
X5393200D1*
X5474202D2*
X5605706D1*
X882211Y2502793D2*
X1060148D1*
X1148579D2*
X1636699D1*
X1876382D2*
X1959549D1*
X2181075D2*
X2223908D1*
X2915732D2*
X2941664D1*
X3708700D2*
X3832130D1*
X3985296D2*
X4077936D1*
X4201462D2*
X4215947D1*
X4339473D2*
X4377928D1*
X4501454D2*
X4515939D1*
X4639464D2*
X4732105D1*
X4885271D2*
X5018210D1*
X5266146D2*
X5393200D1*
X5474202D2*
X5605706D1*
X882211Y2477924D2*
X1035280D1*
X1123711D2*
X1636699D1*
X1845701D2*
X1934682D1*
X2181075D2*
X2231516D1*
X2915732D2*
X2941664D1*
X3708700D2*
X3867548D1*
X3949842D2*
X4098390D1*
X4181008D2*
X4236401D1*
X4318983D2*
X4398418D1*
X4481000D2*
X4536393D1*
X4619010D2*
X4767559D1*
X4849853D2*
X5018210D1*
X5099213D2*
X5116999D1*
X5259758D2*
X5393200D1*
X5474202D2*
X5605706D1*
X882211Y2453056D2*
X1010413D1*
X1098843D2*
X1283850D1*
X1363561D2*
X1621843D1*
X1845701D2*
X1883870D1*
X2022287D2*
X2125119D1*
X3708700D2*
X5018210D1*
X5099213D2*
X5135013D1*
X5241745D2*
X5393200D1*
X5474202D2*
X5605706D1*
X882211Y2428187D2*
X962938D1*
X1073976D2*
X1267523D1*
X1379888D2*
X1596976D1*
X1845701D2*
X1867506D1*
X1997419D2*
X2125119D1*
X3008492D2*
X3029688D1*
X3708700D2*
X5018210D1*
X5099213D2*
X5393200D1*
X5474202D2*
X5605706D1*
X882211Y2403318D2*
X950701D1*
X1049108D2*
X1265226D1*
X1382185D2*
X1572108D1*
X1845701D2*
X1865210D1*
X1982169D2*
X2125119D1*
X2983624D2*
X3029688D1*
X3708700D2*
X5018210D1*
X5099213D2*
X5393200D1*
X5474202D2*
X5605706D1*
X882211Y2378449D2*
X954003D1*
X1460197D2*
X1547240D1*
X1845701D2*
X1874863D1*
X1972552D2*
X2125119D1*
X2964211D2*
X3029688D1*
X3708700D2*
X5018210D1*
X5099213D2*
X5393200D1*
X5474202D2*
X5605706D1*
X882211Y2353581D2*
X981024D1*
X1466262D2*
X1522372D1*
X1845701D2*
X1884444D1*
X1962935D2*
X2265785D1*
X2964211D2*
X3029688D1*
X3708700D2*
X5018210D1*
X5099213D2*
X5393200D1*
X5474202D2*
X5605706D1*
X882211Y2328712D2*
X1011059D1*
X1845701D2*
X1867686D1*
X2964211D2*
X3029688D1*
X3708700D2*
X5018353D1*
X5118446D2*
X5393200D1*
X5474202D2*
X5605706D1*
X882211Y2303843D2*
X1265155D1*
X1845701D2*
X1865138D1*
X2964211D2*
X3029688D1*
X3708700D2*
X5030841D1*
X5143350D2*
X5393200D1*
X5474202D2*
X5605706D1*
X882211Y2278974D2*
X1247751D1*
X1845701D2*
X1874468D1*
X2361177D2*
X2379681D1*
X2964211D2*
X3029688D1*
X3708700D2*
X5055709D1*
X5168218D2*
X5393200D1*
X5474202D2*
X5605706D1*
X1845701Y2254106D2*
X1885090D1*
X2188323D2*
X2292555D1*
X2324863D2*
X2379681D1*
X2964211D2*
X3029688D1*
X3708700D2*
X5080577D1*
X5246051D2*
X5393200D1*
X5474202D2*
X5605706D1*
X1845701Y2229237D2*
X1867865D1*
X2163455D2*
X2264637D1*
X2352745D2*
X2379681D1*
X2964211D2*
X3029688D1*
X3708700D2*
X5105444D1*
X5261517D2*
X5393200D1*
X5474202D2*
X5605706D1*
X1845701Y2204368D2*
X1865102D1*
X2150717D2*
X2261156D1*
X2356261D2*
X2379681D1*
X2964211D2*
X3029688D1*
X3708700D2*
X5110396D1*
X5266361D2*
X5393200D1*
X5474202D2*
X5605706D1*
X1859122Y2179499D2*
X1874145D1*
X2150717D2*
X2268189D1*
X2964211D2*
X3005789D1*
X3708700D2*
X5113985D1*
X5262773D2*
X5393200D1*
X5474202D2*
X5605706D1*
X2150717Y2154630D2*
X2268189D1*
X2964211D2*
X2987021D1*
X3708700D2*
X3727635D1*
X4808981D2*
X5127549D1*
X5249244D2*
X5286157D1*
X5474202D2*
X5605706D1*
X2150717Y2129762D2*
X2268189D1*
X2964211D2*
X2986160D1*
X4833849D2*
X5165837D1*
X5210920D2*
X5286157D1*
X5474202D2*
X5605706D1*
X2150717Y2104893D2*
X2268189D1*
X2349192D2*
X2395686D1*
X2964211D2*
X2986160D1*
X3865478D2*
X4770286D1*
X4858717D2*
X5286157D1*
X5474202D2*
X5605706D1*
X1373609Y2080024D2*
X1725154D1*
X2150717D2*
X2268189D1*
X2349192D2*
X2395686D1*
X2964211D2*
X2986160D1*
X3708700D2*
X3722970D1*
X3784452D2*
X4795154D1*
X4883584D2*
X5172619D1*
X5204174D2*
X5286157D1*
X5474202D2*
X5605706D1*
X1361013Y2055155D2*
X1750022D1*
X2150717D2*
X2268189D1*
X2349192D2*
X2395686D1*
X2964211D2*
X2986160D1*
X3708700D2*
X3754584D1*
X4567839D2*
X4820021D1*
X4908452D2*
X5128841D1*
X5247917D2*
X5286157D1*
X5474202D2*
X5605706D1*
X1379171Y2030287D2*
X1526643D1*
X1600756D2*
X1770691D1*
X2150717D2*
X2268189D1*
X2349192D2*
X2395686D1*
X2964211D2*
X2986160D1*
X3708700D2*
X3727061D1*
X4603329D2*
X4844889D1*
X4933320D2*
X5114487D1*
X5262270D2*
X5291970D1*
X5474202D2*
X5605706D1*
X1382436Y2005418D2*
X1515949D1*
X1611449D2*
X1770691D1*
X2150717D2*
X2268189D1*
X2964211D2*
X2986160D1*
X4628197D2*
X4869757D1*
X5266397D2*
X5286157D1*
X5474202D2*
X5605706D1*
X1373932Y1980549D2*
X1520399D1*
X1606999D2*
X1770691D1*
X2150717D2*
X2171769D1*
X2964211D2*
X2986160D1*
X3790696D2*
X4564634D1*
X4640684D2*
X4894625D1*
X5262055D2*
X5292257D1*
X5474202D2*
X5605706D1*
X1360332Y1955680D2*
X1531702D1*
X1595696D2*
X1770691D1*
X2964211D2*
X2986160D1*
X3804009D2*
X4576691D1*
X4640684D2*
X5129343D1*
X5247450D2*
X5318130D1*
X5474202D2*
X5605706D1*
X1378955Y1930812D2*
X1529585D1*
X1595696D2*
X1770691D1*
X2150717D2*
X2163946D1*
X2964211D2*
X2986160D1*
X3805731D2*
X3851184D1*
X3966241D2*
X3983453D1*
X4033919D2*
X4083463D1*
X4133928D2*
X4183472D1*
X4233937D2*
X4283481D1*
X4333946D2*
X4383454D1*
X4433920D2*
X4483464D1*
X4533929D2*
X4576691D1*
X4640684D2*
X4683482D1*
X4733947D2*
X4783455D1*
X4833921D2*
X5176280D1*
X5200478D2*
X5292221D1*
X5474202D2*
X5605706D1*
X1382472Y1905943D2*
X1504717D1*
X1591749D2*
X1770691D1*
X2150717D2*
X2180847D1*
X2964211D2*
X2986160D1*
X3791126D2*
X3851184D1*
X4860080D2*
X5286157D1*
X5474202D2*
X5605706D1*
X1374290Y1881074D2*
X1479850D1*
X1568280D2*
X1770691D1*
X2150717D2*
X2261694D1*
X2964211D2*
X2986160D1*
X3742683D2*
X3851184D1*
X4866217D2*
X5163900D1*
X5212894D2*
X5292006D1*
X5474202D2*
X5605706D1*
X1359650Y1856205D2*
X1454982D1*
X1543413D2*
X1770691D1*
X2150717D2*
X2268189D1*
X2964211D2*
X2986160D1*
X3742683D2*
X3795743D1*
X4860475D2*
X5127082D1*
X5249675D2*
X5317197D1*
X5370210D2*
X5393200D1*
X5474202D2*
X5605706D1*
X1378776Y1831336D2*
X1430114D1*
X1518545D2*
X1770691D1*
X2161769D2*
X2268189D1*
X2964211D2*
X2986160D1*
X3742683D2*
X3779954D1*
X3966241D2*
X3981875D1*
X4035533D2*
X4081704D1*
X4335525D2*
X4381876D1*
X4435499D2*
X4481885D1*
X4535508D2*
X4576691D1*
X4640684D2*
X4681867D1*
X4835500D2*
X5113805D1*
X5262952D2*
X5393200D1*
X5474202D2*
X5605706D1*
X1382508Y1806468D2*
X1405246D1*
X1493677D2*
X1770691D1*
X2166506D2*
X2268189D1*
X2964211D2*
X2986160D1*
X3742683D2*
X3780995D1*
X3872404D2*
X4081704D1*
X4286507D2*
X4576691D1*
X4640684D2*
X4731710D1*
X4795704D2*
X5110432D1*
X5266361D2*
X5393200D1*
X5474202D2*
X5605706D1*
X1468809Y1781599D2*
X1770691D1*
X2156171D2*
X2268189D1*
X2964211D2*
X2986160D1*
X3742683D2*
X3791688D1*
X3855718D2*
X4081704D1*
X4476730D2*
X4576691D1*
X4640684D2*
X4731710D1*
X4795704D2*
X5115492D1*
X5261301D2*
X5393200D1*
X5474202D2*
X5605706D1*
X1443942Y1756730D2*
X1770691D1*
X2150717D2*
X2268189D1*
X2964211D2*
X2986160D1*
X3742683D2*
X3791688D1*
X3855718D2*
X4081704D1*
X4485880D2*
X4576691D1*
X4640684D2*
X4731710D1*
X4795704D2*
X5131245D1*
X5245512D2*
X5393200D1*
X5474202D2*
X5605706D1*
X1419074Y1731861D2*
X1770691D1*
X2150717D2*
X2268189D1*
X2964211D2*
X2986160D1*
X3742683D2*
X3791688D1*
X3855718D2*
X4081704D1*
X4482902D2*
X4576691D1*
X4640684D2*
X4731710D1*
X4795704D2*
X5296348D1*
X5474202D2*
X5605706D1*
X1394206Y1706993D2*
X1770691D1*
X2150717D2*
X2268189D1*
X2964211D2*
X2986160D1*
X3742683D2*
X3791688D1*
X3855718D2*
X3878026D1*
X3948120D2*
X4081704D1*
X4464637D2*
X4576691D1*
X4640684D2*
X4731710D1*
X4795704D2*
X5274566D1*
X5474202D2*
X5605706D1*
X2150717Y1682124D2*
X2268189D1*
X2964211D2*
X2986160D1*
X3742683D2*
X3791688D1*
X4036502D2*
X4081704D1*
X4288517D2*
X4576691D1*
X4640684D2*
X4731710D1*
X4795704D2*
X5273203D1*
X5471224D2*
X5605706D1*
X2150717Y1657255D2*
X2268189D1*
X2964211D2*
X2986160D1*
X3742683D2*
X3791688D1*
X3855718D2*
X3868768D1*
X4061370D2*
X4081704D1*
X4313385D2*
X4576691D1*
X4640684D2*
X4731710D1*
X4795704D2*
X5273203D1*
X5354206D2*
X5605706D1*
X2150717Y1632386D2*
X2268189D1*
X2964211D2*
X2986160D1*
X3742683D2*
X3791688D1*
X3855718D2*
X3895178D1*
X3930967D2*
X3997807D1*
X4338252D2*
X4576691D1*
X4640684D2*
X4731710D1*
X4795704D2*
X5273203D1*
X5354206D2*
X5605706D1*
X624993Y1607518D2*
X751185D1*
X2150717D2*
X2268189D1*
X2970132D2*
X2986160D1*
X3742683D2*
X3791688D1*
X3855718D2*
X4022675D1*
X4363120D2*
X4576691D1*
X4640684D2*
X4731710D1*
X4795704D2*
X5273203D1*
X5354206D2*
X5605706D1*
X624634Y1582649D2*
X751185D1*
X2150717D2*
X2268189D1*
X2969773D2*
X2986160D1*
X3742683D2*
X3791688D1*
X3950954D2*
X4047543D1*
X4387988D2*
X4576691D1*
X4640684D2*
X4731710D1*
X4795704D2*
X5273203D1*
X5354206D2*
X5605706D1*
X510917Y1557780D2*
X526479D1*
X610926D2*
X731557D1*
X1020006D2*
X1034240D1*
X2188251D2*
X2275725D1*
X2951329D2*
X2986160D1*
X3742683D2*
X3799691D1*
X3975822D2*
X4072410D1*
X4412856D2*
X4576691D1*
X4640684D2*
X4731710D1*
X4795704D2*
X5273203D1*
X5354206D2*
X5605706D1*
X511886Y1532911D2*
X525510D1*
X611859D2*
X706689D1*
X995138D2*
X1034240D1*
X2205727D2*
X2300019D1*
X2961340D2*
X2986160D1*
X3738735D2*
X3912259D1*
X4000726D2*
X4097278D1*
X4437723D2*
X4576691D1*
X4640684D2*
X4731710D1*
X4795704D2*
X5273203D1*
X5354206D2*
X5605706D1*
X624849Y1508043D2*
X681821D1*
X970270D2*
X1034240D1*
X2205584D2*
X2310210D1*
X2961233D2*
X2986160D1*
X3720686D2*
X3937127D1*
X4025594D2*
X4122146D1*
X4487531D2*
X4576691D1*
X4640684D2*
X4731710D1*
X4795704D2*
X5273203D1*
X5354206D2*
X5605706D1*
X624742Y1483174D2*
X656953D1*
X965713D2*
X1034240D1*
X2200703D2*
X2310210D1*
X2948386D2*
X2986160D1*
X3720686D2*
X3961995D1*
X4050461D2*
X4147014D1*
X4494205D2*
X4576691D1*
X4640684D2*
X4731710D1*
X4795704D2*
X5273203D1*
X5354206D2*
X5605706D1*
X611429Y1458305D2*
X632086D1*
X955666D2*
X1034240D1*
X2200703D2*
X2310210D1*
X2935683D2*
X2986160D1*
X3720686D2*
X3986862D1*
X4075329D2*
X4171881D1*
X4494205D2*
X4576691D1*
X4640684D2*
X4731710D1*
X4795704D2*
X5273203D1*
X5354206D2*
X5605706D1*
X945869Y1433436D2*
X1034240D1*
X2200703D2*
X2310210D1*
X2934714D2*
X2986160D1*
X3720686D2*
X4011730D1*
X4100197D2*
X4196749D1*
X4494205D2*
X4576691D1*
X4640684D2*
X4731710D1*
X4795704D2*
X5273203D1*
X5354206D2*
X5605706D1*
X963237Y1408567D2*
X1034240D1*
X2200703D2*
X2310210D1*
X2926246D2*
X2986160D1*
X3720686D2*
X4036598D1*
X4125065D2*
X4221617D1*
X4494205D2*
X4576691D1*
X4640684D2*
X4731710D1*
X4795704D2*
X5273203D1*
X5354206D2*
X5605706D1*
X965785Y1383699D2*
X1034240D1*
X2200703D2*
X2310210D1*
X2968410D2*
X2986160D1*
X3720686D2*
X4061466D1*
X4149932D2*
X4246485D1*
X4494205D2*
X4576691D1*
X4640684D2*
X4731710D1*
X4795704D2*
X5273203D1*
X5354206D2*
X5605706D1*
X721055Y1358830D2*
X761341D1*
X956060D2*
X1034240D1*
X2200703D2*
X2310210D1*
X3720686D2*
X3751390D1*
X3806018D2*
X4086333D1*
X4174800D2*
X4271352D1*
X4494205D2*
X4576691D1*
X4640684D2*
X4731710D1*
X4795704D2*
X5273203D1*
X5354206D2*
X5605706D1*
X696187Y1333961D2*
X776699D1*
X840693D2*
X1034240D1*
X2200703D2*
X2310210D1*
X3824714D2*
X4111237D1*
X4199668D2*
X4296220D1*
X4494205D2*
X4576691D1*
X4640684D2*
X4731710D1*
X4795704D2*
X5273203D1*
X5354206D2*
X5605706D1*
X681690Y1309092D2*
X776699D1*
X840693D2*
X1034240D1*
X2200703D2*
X2310210D1*
X3834510D2*
X4136105D1*
X4224535D2*
X4306770D1*
X4494205D2*
X4576691D1*
X4640684D2*
X4731710D1*
X4795704D2*
X5111796D1*
X5165634D2*
X5273203D1*
X5354206D2*
X5605706D1*
X681690Y1284224D2*
X776699D1*
X840693D2*
X1034240D1*
X2200703D2*
X2310210D1*
X3720686D2*
X3748986D1*
X4249403D2*
X4287751D1*
X4494205D2*
X4576691D1*
X4640684D2*
X4731710D1*
X4795704D2*
X5046020D1*
X5184653D2*
X5273203D1*
X5354206D2*
X5605706D1*
X681690Y1259355D2*
X776699D1*
X840693D2*
X1034240D1*
X2200703D2*
X2310210D1*
X3720686D2*
X3795815D1*
X4274271D2*
X4287141D1*
X4494205D2*
X4576691D1*
X4640684D2*
X4731710D1*
X4795704D2*
X5032133D1*
X5185263D2*
X5273203D1*
X5354206D2*
X5605706D1*
X681690Y1234486D2*
X776699D1*
X840693D2*
X1034240D1*
X2200703D2*
X2310210D1*
X3720686D2*
X4107362D1*
X4494205D2*
X4576691D1*
X4640684D2*
X4731710D1*
X4795704D2*
X5034286D1*
X5168756D2*
X5273203D1*
X5354206D2*
X5605706D1*
X681690Y1209617D2*
X776699D1*
X840693D2*
X1034240D1*
X3720686D2*
X4106608D1*
X4494205D2*
X4576691D1*
X4640684D2*
X4731710D1*
X4795704D2*
X5043185D1*
X5155694D2*
X5273203D1*
X5354206D2*
X5605706D1*
X681690Y1184749D2*
X776699D1*
X840693D2*
X858694D1*
X1006334D2*
X1034240D1*
X3720686D2*
X4121213D1*
X4494205D2*
X4576691D1*
X4640684D2*
X4731710D1*
X4795704D2*
X5043185D1*
X5155694D2*
X5273203D1*
X5354206D2*
X5605706D1*
X681690Y1159880D2*
X776699D1*
X3720686D2*
X4121213D1*
X4494205D2*
X4567648D1*
X4649727D2*
X4731710D1*
X4795704D2*
X5043185D1*
X5155694D2*
X5273203D1*
X5354206D2*
X5605706D1*
X681690Y1135011D2*
X776699D1*
X3720686D2*
X4121213D1*
X4494205D2*
X4560722D1*
X4656689D2*
X4731710D1*
X4795704D2*
X5043185D1*
X5204676D2*
X5273203D1*
X5354206D2*
X5605706D1*
X681690Y1110142D2*
X776699D1*
X840693D2*
X867522D1*
X914686D2*
X1000042D1*
X3720686D2*
X4121213D1*
X4494205D2*
X4568545D1*
X4648830D2*
X4731710D1*
X4795704D2*
X5043185D1*
X5211709D2*
X5273203D1*
X5354206D2*
X5605706D1*
X681690Y1085273D2*
X776699D1*
X840693D2*
X1024910D1*
X3720686D2*
X4121213D1*
X4494205D2*
X4576691D1*
X4640684D2*
X4731710D1*
X4795704D2*
X5043185D1*
X5203923D2*
X5273203D1*
X5354206D2*
X5605706D1*
X681690Y1060405D2*
X776699D1*
X840693D2*
X1049778D1*
X3720686D2*
X4121213D1*
X4494205D2*
X4576691D1*
X4640684D2*
X4731710D1*
X4795704D2*
X5043185D1*
X5195705D2*
X5273203D1*
X5354206D2*
X5605706D1*
X681690Y1035536D2*
X776699D1*
X840693D2*
X1074645D1*
X3720686D2*
X4121787D1*
X4493523D2*
X4576691D1*
X4640684D2*
X4731710D1*
X4795704D2*
X5043185D1*
X5195705D2*
X5273203D1*
X5354206D2*
X5486175D1*
X681690Y1010667D2*
X776699D1*
X840693D2*
X986693D1*
X1033750D2*
X1107121D1*
X3720686D2*
X4061968D1*
X4476765D2*
X4576691D1*
X4640684D2*
X4731710D1*
X4795704D2*
X4814244D1*
X4833131D2*
X5043185D1*
X5195705D2*
X5273203D1*
X5354206D2*
X5486175D1*
X681690Y985798D2*
X776699D1*
X1055531D2*
X1204690D1*
X3732348D2*
X4050987D1*
X4463058D2*
X4501442D1*
X4640684D2*
X4731710D1*
X4867006D2*
X5038269D1*
X5195705D2*
X5273203D1*
X5354206D2*
X5486175D1*
X701928Y960930D2*
X789868D1*
X1057254D2*
X1204690D1*
X3757216D2*
X4055222D1*
X4640326D2*
X4731710D1*
X4871456D2*
X5036762D1*
X5195705D2*
X5273203D1*
X5354206D2*
X5486175D1*
X705912Y936061D2*
X977794D1*
X1042685D2*
X1179499D1*
X3782083D2*
X4066705D1*
X4341949D2*
X4387653D1*
X4399729D2*
X4447974D1*
X4543977D2*
X4731710D1*
X4860726D2*
X5051690D1*
X5204030D2*
X5273203D1*
X5354206D2*
X5503795D1*
X5583613D2*
X5605706D1*
X705912Y911192D2*
X818935D1*
X2966902D2*
X2986160D1*
X3806951D2*
X4066705D1*
X4335059D2*
X4350585D1*
X4436826D2*
X4455402D1*
X4536548D2*
X4718433D1*
X4866827D2*
X5055924D1*
X5205681D2*
X5273203D1*
X5354206D2*
X5488400D1*
X2943901Y886323D2*
X2986160D1*
X3825073D2*
X4066705D1*
X4441491D2*
X4716675D1*
X4871491D2*
X5066438D1*
X5191004D2*
X5273203D1*
X5354206D2*
X5486965D1*
X2936724Y861455D2*
X2986160D1*
X3825683D2*
X4066705D1*
X4130698D2*
X4148844D1*
X4335059D2*
X4356326D1*
X4431049D2*
X4731244D1*
X4861049D2*
X5273203D1*
X5354206D2*
X5498125D1*
X5589283D2*
X5605706D1*
X2936724Y836586D2*
X2986160D1*
X3825683D2*
X4066705D1*
X4130698D2*
X4173604D1*
X4335059D2*
X4356685D1*
X5037025D2*
X5273203D1*
X5359050D2*
X5605706D1*
X2936724Y811717D2*
X2993552D1*
X3825683D2*
X4066705D1*
X4130698D2*
X4176690D1*
X4335059D2*
X4356972D1*
X5061893D2*
X5275858D1*
X5411548D2*
X5605706D1*
X2944367Y786848D2*
X3018348D1*
X4141571D2*
X4176690D1*
X4335059D2*
X4380045D1*
X5086761D2*
X5296312D1*
X5416536D2*
X5605706D1*
X2956281Y761980D2*
X3036183D1*
X4150865D2*
X4176690D1*
X4335059D2*
X4386540D1*
X5111628D2*
X5321324D1*
X5406489D2*
X5605706D1*
X2952728Y737111D2*
X3036183D1*
X4147995D2*
X4176690D1*
X4335059D2*
X4400499D1*
X4633723D2*
X4779652D1*
X5136496D2*
X5605706D1*
X2924667Y712242D2*
X3018958D1*
X4146380D2*
X4176690D1*
X4337750D2*
X4753779D1*
X5197284D2*
X5220130D1*
X5297293D2*
X5605706D1*
X625567Y687373D2*
X641990D1*
X2914691D2*
X3002452D1*
X5313656D2*
X5605706D1*
X614981Y662504D2*
X656882D1*
X2895923D2*
X3002164D1*
X5315630D2*
X5605706D1*
X438718Y637636D2*
X820478D1*
X2954630D2*
X3002164D1*
X4169238D2*
X4182862D1*
X5305188D2*
X5605706D1*
X438718Y612767D2*
X492102D1*
X550031D2*
X854316D1*
X2968876D2*
X3002272D1*
X4169130D2*
X4207407D1*
X5296683D2*
X5507850D1*
X5565779D2*
X5605706D1*
X596285Y587898D2*
X661188D1*
X2969199D2*
X3017272D1*
X4154131D2*
X4232274D1*
X5313477D2*
X5461559D1*
X616524Y563029D2*
X661188D1*
X875751D2*
X897880D1*
X1542516D2*
X1561163D1*
X2969199D2*
X3036183D1*
X4150722D2*
X4257142D1*
X5315702D2*
X5441356D1*
X627289Y538161D2*
X661188D1*
X873347D2*
X1176198D1*
X1517648D2*
X1561163D1*
X2873352D2*
X2888196D1*
X2969199D2*
X3036183D1*
X4148353D2*
X4282010D1*
X5305582D2*
X5430591D1*
X631452Y513292D2*
X661188D1*
X856266D2*
X1191413D1*
X1254760D2*
X1561163D1*
X1756278D2*
X1781133D1*
X1856251D2*
X1881142D1*
X1956260D2*
X1981152D1*
X2056269D2*
X2081125D1*
X2356261D2*
X2381117D1*
X2456270D2*
X2481126D1*
X2556280D2*
X2581135D1*
X2656253D2*
X2681145D1*
X2756262D2*
X2781118D1*
X2856271D2*
X2882491D1*
X2974940D2*
X3036183D1*
X3231261D2*
X3256117D1*
X3331270D2*
X3356126D1*
X3431280D2*
X3456135D1*
X3531253D2*
X3556145D1*
X3831281D2*
X3856136D1*
X3931254D2*
X3956146D1*
X4031263D2*
X4056119D1*
X4131272D2*
X4306878D1*
X5045494D2*
X5426428D1*
X629765Y488423D2*
X2882383D1*
X2975012D2*
X5428115D1*
X621978Y463554D2*
X2899930D1*
X2957465D2*
X5435902D1*
X606333Y438686D2*
X5451547D1*
X2178572Y2465728D2*
X2249529D1*
X2244569Y2468300D1*
X2239745Y2471805D1*
X2235529Y2476021D1*
X2232024Y2480845D1*
X2229317Y2486158D1*
X2227474Y2491829D1*
X2226541Y2497719D1*
X2226424Y2546632D1*
X2226541Y2553681D1*
X2227113Y2557753D1*
X2227228Y2603627D1*
X2228144Y2609410D1*
X2229953Y2614978D1*
X2232611Y2620195D1*
X2236053Y2624932D1*
X2240193Y2629072D1*
X2244929Y2632513D1*
X2250146Y2635171D1*
X2255714Y2636980D1*
X2258599Y2637553D1*
X2261428Y2640948D1*
Y2673208D1*
X2253923Y2673969D1*
X2244386Y2676259D1*
X2235326Y2680012D1*
X2226963Y2685136D1*
X2219506Y2691506D1*
X2213718Y2698226D1*
X2207894Y2691506D1*
X2200437Y2685136D1*
X2192074Y2680012D1*
X2183014Y2676259D1*
X2178567Y2675005D1*
X2178570Y2465733D1*
X2202411Y2355672D2*
X2127609D1*
Y2463390D1*
X2048830Y2463389D1*
Y2513390D1*
X2046700Y2504768D1*
X2046583Y2492719D1*
X2045650Y2486829D1*
X2043807Y2481158D1*
X2041100Y2475845D1*
X2037595Y2471021D1*
X2003091Y2436351D1*
X1980128Y2413388D1*
X1979996Y2406269D1*
X1978610Y2397517D1*
X1975871Y2389090D1*
X1971848Y2381195D1*
X1966640Y2374026D1*
X1960374Y2367760D1*
X1953205Y2362552D1*
X1949926Y2360715D1*
X1956892Y2356385D1*
X1963630Y2350630D1*
X1969385Y2343892D1*
X1974015Y2336337D1*
X1977406Y2328150D1*
X1979113Y2321351D1*
X1996014Y2338132D1*
X1999759Y2340853D1*
X2003883Y2342955D1*
X2008286Y2344385D1*
X2012858Y2345109D1*
X2097850Y2345200D1*
X2273574D1*
X2270303Y2349899D1*
X2267336Y2355665D1*
X2202413Y2355708D1*
X3905028Y2883694D2*
X3909463Y2894173D1*
X3902103Y2885983D1*
X3899767Y2883701D1*
X3904904Y2883700D1*
X4128205Y798515D2*
X4132610Y794610D1*
X4138218Y788044D1*
X4142730Y780682D1*
X4146034Y772704D1*
X4148050Y764308D1*
X4148728Y755700D1*
X4148050Y747092D1*
X4146034Y738696D1*
X4142730Y730718D1*
X4138218Y723356D1*
X4135805Y720294D1*
X4159660Y696331D1*
X4162381Y692586D1*
X4164482Y688462D1*
X4165913Y684059D1*
X4166637Y679487D1*
X4166728Y615228D1*
X4166364Y610613D1*
X4165284Y606112D1*
X4163512Y601835D1*
X4161094Y597888D1*
X4158081Y594362D1*
X4143274Y579555D1*
X4145576Y574056D1*
X4147558Y566985D1*
X4148581Y559713D1*
X4148605Y552028D1*
X4147627Y544750D1*
X4145689Y537667D1*
X4142825Y530905D1*
X4139086Y524584D1*
X4134538Y518818D1*
X4129263Y513709D1*
X4123355Y509347D1*
X4116919Y505811D1*
X4110069Y503164D1*
X4102928Y501452D1*
X4095622Y500706D1*
X4088282Y500940D1*
X4081039Y502149D1*
X4074021Y504312D1*
X4067354Y507390D1*
X4061155Y511328D1*
X4055537Y516057D1*
X4050598Y521491D1*
X4046427Y527535D1*
X4043704Y532725D1*
X4040099Y526117D1*
X4035747Y520202D1*
X4030645Y514919D1*
X4024886Y510363D1*
X4018571Y506614D1*
X4011814Y503739D1*
X4004734Y501790D1*
X3997457Y500801D1*
X3990113Y500789D1*
X3982834Y501756D1*
X3975747Y503683D1*
X3968981Y506537D1*
X3962655Y510266D1*
X3956881Y514805D1*
X3951764Y520072D1*
X3947393Y525973D1*
X3943704Y532725D1*
X3940099Y526117D1*
X3935747Y520202D1*
X3930645Y514919D1*
X3924886Y510363D1*
X3918571Y506614D1*
X3911814Y503739D1*
X3904734Y501790D1*
X3897457Y500801D1*
X3890113Y500789D1*
X3882834Y501756D1*
X3875747Y503683D1*
X3868981Y506537D1*
X3862655Y510266D1*
X3856881Y514805D1*
X3851764Y520072D1*
X3847393Y525973D1*
X3843704Y532725D1*
X3840099Y526117D1*
X3835747Y520202D1*
X3830645Y514919D1*
X3824886Y510363D1*
X3818571Y506614D1*
X3811814Y503739D1*
X3804734Y501790D1*
X3797457Y500801D1*
X3790113Y500789D1*
X3782834Y501756D1*
X3775747Y503683D1*
X3768981Y506537D1*
X3762655Y510266D1*
X3756881Y514805D1*
X3751764Y520072D1*
X3748724Y524006D1*
X3748728Y500672D1*
X3638673D1*
Y523990D1*
X3634538Y518818D1*
X3629263Y513709D1*
X3623355Y509347D1*
X3616919Y505811D1*
X3610069Y503164D1*
X3602928Y501452D1*
X3595622Y500706D1*
X3588282Y500940D1*
X3581039Y502149D1*
X3574021Y504312D1*
X3567354Y507390D1*
X3561155Y511328D1*
X3555537Y516057D1*
X3550598Y521491D1*
X3546427Y527535D1*
X3543704Y532725D1*
X3540099Y526117D1*
X3535747Y520202D1*
X3530645Y514919D1*
X3524886Y510363D1*
X3518571Y506614D1*
X3511814Y503739D1*
X3504734Y501790D1*
X3497457Y500801D1*
X3490113Y500789D1*
X3482834Y501756D1*
X3475747Y503683D1*
X3468981Y506537D1*
X3462655Y510266D1*
X3456881Y514805D1*
X3451764Y520072D1*
X3447393Y525973D1*
X3443704Y532725D1*
X3440099Y526117D1*
X3435747Y520202D1*
X3430645Y514919D1*
X3424886Y510363D1*
X3418571Y506614D1*
X3411814Y503739D1*
X3404734Y501790D1*
X3397457Y500801D1*
X3390113Y500789D1*
X3382834Y501756D1*
X3375747Y503683D1*
X3368981Y506537D1*
X3362655Y510266D1*
X3356881Y514805D1*
X3351764Y520072D1*
X3347393Y525973D1*
X3343704Y532725D1*
X3340099Y526117D1*
X3335747Y520202D1*
X3330645Y514919D1*
X3324886Y510363D1*
X3318571Y506614D1*
X3311814Y503739D1*
X3304734Y501790D1*
X3297457Y500801D1*
X3290113Y500789D1*
X3282834Y501756D1*
X3275747Y503683D1*
X3268981Y506537D1*
X3262655Y510266D1*
X3256881Y514805D1*
X3251764Y520072D1*
X3247393Y525973D1*
X3243704Y532725D1*
X3240099Y526117D1*
X3235747Y520202D1*
X3230645Y514919D1*
X3224886Y510363D1*
X3218571Y506614D1*
X3211814Y503739D1*
X3204734Y501790D1*
X3197457Y500801D1*
X3190113Y500789D1*
X3182834Y501756D1*
X3175747Y503683D1*
X3168981Y506537D1*
X3162655Y510266D1*
X3156881Y514805D1*
X3151764Y520072D1*
X3148724Y524006D1*
X3148728Y500672D1*
X3038673D1*
Y572060D1*
X3034759Y574075D1*
X3031014Y576796D1*
X3011740Y596069D1*
X3009019Y599814D1*
X3006918Y603938D1*
X3005487Y608341D1*
X3004763Y612913D1*
X3004672Y683228D1*
X3005036Y687842D1*
X3006116Y692344D1*
X3007888Y696620D1*
X3010306Y700567D1*
X3013319Y704093D1*
X3031014Y721660D1*
X3034759Y724381D1*
X3038673Y726401D1*
Y769032D1*
X2995740Y812069D1*
X2993019Y815814D1*
X2990918Y819938D1*
X2989487Y824341D1*
X2988763Y828913D1*
X2988672Y913905D1*
X2988763Y2149987D1*
X2989487Y2154559D1*
X2990918Y2158962D1*
X2993019Y2163086D1*
X2995740Y2166831D1*
X3015014Y2186104D1*
X3018759Y2188825D1*
X3022883Y2190927D1*
X3027286Y2192357D1*
X3031867Y2193082D1*
X3032263Y2193358D1*
X3032172Y2278350D1*
X3032263Y3007015D1*
X3032987Y3011587D1*
X3034418Y3015989D1*
X3036519Y3020114D1*
X3039240Y3023859D1*
X3058514Y3043132D1*
X3062259Y3045853D1*
X3066383Y3047955D1*
X3070786Y3049385D1*
X3075358Y3050109D1*
X3160350Y3050200D1*
X3305573D1*
X3302927Y3056640D1*
X3301260Y3063582D1*
X3300700Y3070700D1*
X3301260Y3077818D1*
X3302927Y3084760D1*
X3305659Y3091357D1*
X3308203Y3095669D1*
X3308317Y3103681D1*
X3309250Y3109571D1*
X3311093Y3115242D1*
X3313800Y3120555D1*
X3317305Y3125379D1*
X3339330Y3147570D1*
X3343864Y3151443D1*
X3348948Y3154558D1*
X3354457Y3156840D1*
X3360267Y3158234D1*
X3363770Y3160630D1*
X3370508Y3166385D1*
X3377474Y3170685D1*
X3370508Y3175015D1*
X3363770Y3180770D1*
X3358015Y3187508D1*
X3353715Y3194474D1*
X3349385Y3187508D1*
X3343630Y3180770D1*
X3336892Y3175015D1*
X3329337Y3170385D1*
X3321150Y3166994D1*
X3312534Y3164925D1*
X3303700Y3164230D1*
X3294866Y3164925D1*
X3286250Y3166994D1*
X3278063Y3170385D1*
X3270508Y3175015D1*
X3263770Y3180770D1*
X3258015Y3187508D1*
X3253385Y3195063D1*
X3249994Y3203250D1*
X3247925Y3211866D1*
X3247230Y3220700D1*
X3247925Y3229534D1*
X3249994Y3238150D1*
X3253385Y3246337D1*
X3258015Y3253892D1*
X3263770Y3260630D1*
X3270508Y3266385D1*
X3278063Y3271015D1*
X3286250Y3274406D1*
X3294866Y3276475D1*
X3303700Y3277170D1*
X3312534Y3276475D1*
X3321150Y3274406D1*
X3329337Y3271015D1*
X3336892Y3266385D1*
X3343630Y3260630D1*
X3349385Y3253892D1*
X3353685Y3246926D1*
X3358015Y3253892D1*
X3363770Y3260630D1*
X3370508Y3266385D1*
X3377474Y3270685D1*
X3370508Y3275015D1*
X3363770Y3280770D1*
X3358015Y3287508D1*
X3353385Y3295063D1*
X3349994Y3303250D1*
X3347925Y3311866D1*
X3347230Y3320700D1*
X3347925Y3329534D1*
X3349994Y3338150D1*
X3353385Y3346337D1*
X3358015Y3353892D1*
X3363770Y3360630D1*
X3370508Y3366385D1*
X3378063Y3371015D1*
X3382984Y3373201D1*
X2824497Y3373200D1*
X2830440Y3370438D1*
X2836668Y3366547D1*
X2842339Y3361881D1*
X2847357Y3356518D1*
X2851636Y3350550D1*
X2855104Y3344077D1*
X2857703Y3337208D1*
X2859389Y3330060D1*
X2860132Y3322754D1*
X2859901Y3315197D1*
X2858712Y3307950D1*
X2856592Y3300919D1*
X2853577Y3294222D1*
X2852998Y3293173D1*
X2899804Y3293172D1*
X2927892Y3321132D1*
X2931637Y3323853D1*
X2935761Y3325954D1*
X2940164Y3327385D1*
X2944736Y3328109D1*
X3003568Y3328200D1*
X3008136Y3335437D1*
X3014506Y3342894D1*
X3021963Y3349264D1*
X3030326Y3354388D1*
X3039386Y3358141D1*
X3048923Y3360431D1*
X3058700Y3361200D1*
X3068477Y3360431D1*
X3078014Y3358141D1*
X3087074Y3354388D1*
X3095437Y3349264D1*
X3102894Y3342894D1*
X3103688Y3342035D1*
X3108109Y3346225D1*
X3116044Y3351990D1*
X3124782Y3356442D1*
X3134110Y3359473D1*
X3143796Y3361007D1*
X3153604D1*
X3163290Y3359473D1*
X3172618Y3356442D1*
X3181356Y3351990D1*
X3189291Y3346225D1*
X3196225Y3339291D1*
X3201990Y3331356D1*
X3206442Y3322618D1*
X3209473Y3313290D1*
X3211007Y3303604D1*
Y3293796D1*
X3209473Y3284110D1*
X3206442Y3274782D1*
X3201990Y3266044D1*
X3196225Y3258109D1*
X3189291Y3251175D1*
X3181356Y3245410D1*
X3172618Y3240958D1*
X3163290Y3237927D1*
X3153604Y3236393D1*
X3143796D1*
X3134110Y3237927D1*
X3130585Y3238866D1*
X3044890Y3153299D1*
X3041145Y3150579D1*
X3037021Y3148477D1*
X3032618Y3147047D1*
X3028046Y3146322D1*
X2943054Y3146231D1*
X2900316D1*
X2903213Y3141357D1*
X2905946Y3134760D1*
X2907612Y3127818D1*
X2908071Y3123280D1*
X2915517Y3125610D1*
X2924269Y3126996D1*
X2933131D1*
X2941883Y3125610D1*
X2950310Y3122871D1*
X2958205Y3118848D1*
X2965374Y3113640D1*
X2971640Y3107374D1*
X2976848Y3100205D1*
X2980871Y3092310D1*
X2983610Y3083883D1*
X2984996Y3075131D1*
X2985067Y3068087D1*
X3011068Y3041907D1*
X3014573Y3037083D1*
X3017280Y3031770D1*
X3019123Y3026099D1*
X3020055Y3020209D1*
X3020173Y2971296D1*
X3020055Y2455136D1*
X3019123Y2449246D1*
X3017280Y2443575D1*
X3014573Y2438262D1*
X3011068Y2433438D1*
X2976564Y2398769D1*
X2961720Y2383925D1*
X2961700Y1620707D1*
X2964241Y1616357D1*
X2966973Y1609760D1*
X2968640Y1602818D1*
X2969200Y1595700D1*
X2968640Y1588582D1*
X2966973Y1581640D1*
X2964241Y1575043D1*
X2960510Y1568956D1*
X2955873Y1563527D1*
X2950444Y1558890D1*
X2947169Y1556734D1*
X2951848Y1550205D1*
X2955871Y1542310D1*
X2958610Y1533883D1*
X2959996Y1525131D1*
Y1516269D1*
X2958610Y1507517D1*
X2955871Y1499090D1*
X2951848Y1491195D1*
X2946640Y1484026D1*
X2940374Y1477760D1*
X2933190Y1472543D1*
X2933109Y1438661D1*
X2932385Y1434089D1*
X2930954Y1429686D1*
X2928853Y1425562D1*
X2926132Y1421817D1*
X2924553Y1420110D1*
X2923728Y1413130D1*
Y1403478D1*
X2931797Y1403532D1*
X2938849Y1402415D1*
X2945640Y1400209D1*
X2952001Y1396968D1*
X2957777Y1392771D1*
X2962826Y1387722D1*
X2967023Y1381946D1*
X2970264Y1375585D1*
X2972470Y1368794D1*
X2973587Y1361742D1*
X2973720Y1358354D1*
X2974610Y1352654D1*
X2974728Y1303741D1*
X2974915Y952349D1*
X2976032Y945297D1*
Y938158D1*
X2974915Y931106D1*
X2972709Y924315D1*
X2969468Y917954D1*
X2965271Y912178D1*
X2960222Y907129D1*
X2954446Y902932D1*
X2948085Y899691D1*
X2941361Y897504D1*
X2941728Y891728D1*
X2941167Y884610D1*
X2939501Y877667D1*
X2936768Y871071D1*
X2934224Y866759D1*
X2934228Y793369D1*
X2938250Y790298D1*
X2943298Y785250D1*
X2947495Y779474D1*
X2950737Y773112D1*
X2952943Y766322D1*
X2954060Y759270D1*
Y752130D1*
X2952943Y745078D1*
X2950737Y738288D1*
X2947495Y731926D1*
X2943298Y726150D1*
X2938250Y721102D1*
X2932474Y716905D1*
X2926112Y713663D1*
X2919322Y711457D1*
X2913143Y710444D1*
X2914060Y704270D1*
Y697130D1*
X2912943Y690078D1*
X2910737Y683288D1*
X2907495Y676926D1*
X2903298Y671150D1*
X2898250Y666102D1*
X2892474Y661905D1*
X2886112Y658663D1*
X2879322Y656457D1*
X2873725Y655512D1*
X2873050Y647092D1*
X2872777Y645718D1*
X2931681Y645610D1*
X2937571Y644678D1*
X2943242Y642835D1*
X2948555Y640128D1*
X2953379Y636623D1*
X2957595Y632407D1*
X2961100Y627583D1*
X2963807Y622270D1*
X2965650Y616598D1*
X2966583Y610709D1*
X2966700Y561796D1*
Y525732D1*
X2969241Y521357D1*
X2971973Y514760D1*
X2973640Y507818D1*
X2974200Y500700D1*
X2973640Y493582D1*
X2971973Y486640D1*
X2969241Y480043D1*
X2965510Y473956D1*
X2960873Y468527D1*
X2955444Y463890D1*
X2949357Y460159D1*
X2942760Y457427D1*
X2935818Y455760D1*
X2928700Y455200D1*
X2921582Y455760D1*
X2914640Y457427D1*
X2908043Y460159D1*
X2901956Y463890D1*
X2896527Y468527D1*
X2891890Y473956D1*
X2888159Y480043D1*
X2885427Y486640D1*
X2883760Y493582D1*
X2883200Y500700D1*
X2883760Y507818D1*
X2885427Y514760D1*
X2888159Y521357D1*
X2890703Y525669D1*
X2890700Y569705D1*
X2871895Y569728D1*
X2873191Y563366D1*
X2873728Y555700D1*
X2873238Y548373D1*
X2871776Y541176D1*
X2869370Y534238D1*
X2866061Y527682D1*
X2861908Y521625D1*
X2856986Y516175D1*
X2851382Y511429D1*
X2845196Y507472D1*
X2838538Y504373D1*
X2831527Y502188D1*
X2824288Y500957D1*
X2816948Y500700D1*
X2809640Y501423D1*
X2802494Y503113D1*
X2795636Y505739D1*
X2789189Y509255D1*
X2783267Y513598D1*
X2777977Y518691D1*
X2773411Y524444D1*
X2769653Y530752D1*
X2768625Y532558D1*
X2765099Y526117D1*
X2760747Y520202D1*
X2755645Y514919D1*
X2749886Y510363D1*
X2743571Y506614D1*
X2736814Y503739D1*
X2729734Y501790D1*
X2722457Y500801D1*
X2715113Y500789D1*
X2707834Y501756D1*
X2700747Y503683D1*
X2693981Y506537D1*
X2687655Y510266D1*
X2681881Y514805D1*
X2676764Y520072D1*
X2672393Y525973D1*
X2668704Y532725D1*
X2665099Y526117D1*
X2660747Y520202D1*
X2655645Y514919D1*
X2649886Y510363D1*
X2643571Y506614D1*
X2636814Y503739D1*
X2629734Y501790D1*
X2622457Y500801D1*
X2615113Y500789D1*
X2607834Y501756D1*
X2600747Y503683D1*
X2593981Y506537D1*
X2587655Y510266D1*
X2581881Y514805D1*
X2576764Y520072D1*
X2572393Y525973D1*
X2568704Y532725D1*
X2565099Y526117D1*
X2560747Y520202D1*
X2555645Y514919D1*
X2549886Y510363D1*
X2543571Y506614D1*
X2536814Y503739D1*
X2529734Y501790D1*
X2522457Y500801D1*
X2515113Y500789D1*
X2507834Y501756D1*
X2500747Y503683D1*
X2493981Y506537D1*
X2487655Y510266D1*
X2481881Y514805D1*
X2476764Y520072D1*
X2472393Y525973D1*
X2468704Y532725D1*
X2465099Y526117D1*
X2460747Y520202D1*
X2455645Y514919D1*
X2449886Y510363D1*
X2443571Y506614D1*
X2436814Y503739D1*
X2429734Y501790D1*
X2422457Y500801D1*
X2415113Y500789D1*
X2407834Y501756D1*
X2400747Y503683D1*
X2393981Y506537D1*
X2387655Y510266D1*
X2381881Y514805D1*
X2376764Y520072D1*
X2372393Y525973D1*
X2368704Y532725D1*
X2365099Y526117D1*
X2360747Y520202D1*
X2355645Y514919D1*
X2349886Y510363D1*
X2343571Y506614D1*
X2336814Y503739D1*
X2329734Y501790D1*
X2322457Y500801D1*
X2315113Y500789D1*
X2307834Y501756D1*
X2300747Y503683D1*
X2293981Y506537D1*
X2287655Y510266D1*
X2281881Y514805D1*
X2276764Y520072D1*
X2273724Y524006D1*
X2273728Y500672D1*
X2163673D1*
Y523990D1*
X2159538Y518818D1*
X2154263Y513709D1*
X2148355Y509347D1*
X2141919Y505811D1*
X2135069Y503164D1*
X2127928Y501452D1*
X2120622Y500706D1*
X2113282Y500940D1*
X2106039Y502149D1*
X2099021Y504312D1*
X2092354Y507390D1*
X2086155Y511328D1*
X2080537Y516057D1*
X2075598Y521491D1*
X2071427Y527535D1*
X2068704Y532725D1*
X2065099Y526117D1*
X2060747Y520202D1*
X2055645Y514919D1*
X2049886Y510363D1*
X2043571Y506614D1*
X2036814Y503739D1*
X2029734Y501790D1*
X2022457Y500801D1*
X2015113Y500789D1*
X2007834Y501756D1*
X2000747Y503683D1*
X1993981Y506537D1*
X1987655Y510266D1*
X1981881Y514805D1*
X1976764Y520072D1*
X1972393Y525973D1*
X1968704Y532725D1*
X1965099Y526117D1*
X1960747Y520202D1*
X1955645Y514919D1*
X1949886Y510363D1*
X1943571Y506614D1*
X1936814Y503739D1*
X1929734Y501790D1*
X1922457Y500801D1*
X1915113Y500789D1*
X1907834Y501756D1*
X1900747Y503683D1*
X1893981Y506537D1*
X1887655Y510266D1*
X1881881Y514805D1*
X1876764Y520072D1*
X1872393Y525973D1*
X1868704Y532725D1*
X1865099Y526117D1*
X1860747Y520202D1*
X1855645Y514919D1*
X1849886Y510363D1*
X1843571Y506614D1*
X1836814Y503739D1*
X1829734Y501790D1*
X1822457Y500801D1*
X1815113Y500789D1*
X1807834Y501756D1*
X1800747Y503683D1*
X1793981Y506537D1*
X1787655Y510266D1*
X1781881Y514805D1*
X1776764Y520072D1*
X1772393Y525973D1*
X1768704Y532725D1*
X1765099Y526117D1*
X1760747Y520202D1*
X1755645Y514919D1*
X1749886Y510363D1*
X1743571Y506614D1*
X1736814Y503739D1*
X1729734Y501790D1*
X1722457Y500801D1*
X1715113Y500789D1*
X1707834Y501756D1*
X1700747Y503683D1*
X1693981Y506537D1*
X1687655Y510266D1*
X1681881Y514805D1*
X1676764Y520072D1*
X1673724Y524006D1*
X1673728Y500672D1*
X1563673D1*
Y575950D1*
X1552897Y575944D1*
X1502623Y525768D1*
X1498878Y523047D1*
X1494753Y520945D1*
X1490350Y519515D1*
X1485778Y518791D1*
X1400787Y518700D1*
X1257680Y518650D1*
X1252632Y513602D1*
X1246856Y509405D1*
X1240494Y506163D1*
X1233704Y503957D1*
X1226652Y502840D1*
X1219512D1*
X1212460Y503957D1*
X1205670Y506163D1*
X1199308Y509405D1*
X1193532Y513602D1*
X1188483Y518650D1*
X1184287Y524426D1*
X1181045Y530788D1*
X1178839Y537578D1*
X1177722Y544630D1*
Y551770D1*
X1177832Y552698D1*
X923206Y552815D1*
X917423Y553731D1*
X911855Y555540D1*
X906638Y558198D1*
X901901Y561639D1*
X866128Y597250D1*
X862326Y601702D1*
X859267Y606694D1*
X857026Y612103D1*
X855659Y617796D1*
X855200Y623633D1*
Y628406D1*
X847130Y628348D1*
X840078Y629465D1*
X833288Y631671D1*
X826926Y634913D1*
X821150Y639109D1*
X816058Y644213D1*
X687581Y644299D1*
X683009Y645023D1*
X678606Y646453D1*
X674482Y648555D1*
X670737Y651276D1*
X651465Y670548D1*
X648744Y674293D1*
X646642Y678417D1*
X645212Y682820D1*
X644488Y687392D1*
X644397Y695699D1*
X623730Y695672D1*
X623238Y688522D1*
X621776Y681326D1*
X619370Y674388D1*
X616061Y667832D1*
X611908Y661775D1*
X606986Y656325D1*
X601382Y651579D1*
X595196Y647621D1*
X588538Y644522D1*
X581527Y642338D1*
X574288Y641106D1*
X566948Y640850D1*
X559640Y641573D1*
X552494Y643263D1*
X545636Y645889D1*
X539189Y649405D1*
X533267Y653748D1*
X527977Y658841D1*
X523411Y664593D1*
X519653Y670902D1*
X518625Y672708D1*
X515099Y666266D1*
X510747Y660351D1*
X505645Y655069D1*
X499886Y650512D1*
X493571Y646764D1*
X486814Y643889D1*
X479734Y641940D1*
X472457Y640950D1*
X465113Y640939D1*
X457834Y641906D1*
X450747Y643833D1*
X443981Y646687D1*
X437655Y650416D1*
X436196Y651449D1*
X436200Y574856D1*
X444695Y584430D1*
X450922Y590186D1*
X457581Y595436D1*
X464632Y600147D1*
X472031Y604291D1*
X479732Y607841D1*
X487688Y610776D1*
X495850Y613078D1*
X504167Y614733D1*
X512589Y615729D1*
X521062Y616062D1*
X529536Y615729D1*
X537957Y614733D1*
X546274Y613078D1*
X554436Y610776D1*
X562392Y607841D1*
X570093Y604291D1*
X577492Y600147D1*
X584543Y595436D1*
X591203Y590186D1*
X597430Y584430D1*
X603186Y578203D1*
X608436Y571543D1*
X613147Y564492D1*
X617291Y557093D1*
X620841Y549392D1*
X623776Y541436D1*
X626078Y533274D1*
X627733Y524957D1*
X628729Y516536D1*
X629062Y508062D1*
X628729Y499589D1*
X627733Y491167D1*
X626078Y482850D1*
X623776Y474688D1*
X620841Y466732D1*
X617291Y459031D1*
X613147Y451632D1*
X608436Y444581D1*
X601590Y436195D1*
X5456206Y436200D1*
X5449436Y444581D1*
X5444725Y451632D1*
X5440582Y459031D1*
X5437031Y466732D1*
X5434096Y474688D1*
X5431794Y482850D1*
X5430140Y491167D1*
X5429143Y499589D1*
X5428810Y508062D1*
X5429143Y516536D1*
X5430140Y524957D1*
X5431794Y533274D1*
X5434096Y541436D1*
X5437031Y549392D1*
X5440582Y557093D1*
X5444725Y564492D1*
X5449436Y571543D1*
X5454686Y578203D1*
X5460443Y584430D1*
X5466670Y590186D1*
X5473329Y595436D1*
X5480380Y600147D1*
X5487779Y604291D1*
X5495480Y607841D1*
X5503436Y610776D1*
X5511598Y613078D1*
X5519915Y614733D1*
X5528337Y615729D1*
X5536810Y616062D1*
X5545284Y615729D1*
X5553705Y614733D1*
X5562022Y613078D1*
X5570184Y610776D1*
X5578140Y607841D1*
X5585841Y604291D1*
X5593240Y600147D1*
X5600291Y595436D1*
X5608191Y589039D1*
X5608200Y3206555D1*
X5600291Y3200216D1*
X5593240Y3195505D1*
X5585841Y3191361D1*
X5578140Y3187811D1*
X5570184Y3184876D1*
X5562022Y3182574D1*
X5553705Y3180919D1*
X5545284Y3179923D1*
X5536810Y3179590D1*
X5528337Y3179923D1*
X5519915Y3180919D1*
X5511598Y3182574D1*
X5503436Y3184876D1*
X5495480Y3187811D1*
X5487779Y3191361D1*
X5480380Y3195505D1*
X5473329Y3200216D1*
X5466670Y3205466D1*
X5460443Y3211222D1*
X5454686Y3217449D1*
X5449436Y3224109D1*
X5444725Y3231160D1*
X5440582Y3238559D1*
X5437031Y3246260D1*
X5434096Y3254216D1*
X5431794Y3262378D1*
X5430140Y3270695D1*
X5429143Y3279116D1*
X5428810Y3287590D1*
X5429143Y3296063D1*
X5430140Y3304485D1*
X5431794Y3312802D1*
X5434096Y3320964D1*
X5437031Y3328920D1*
X5440582Y3336621D1*
X5444725Y3344020D1*
X5449436Y3351071D1*
X5454686Y3357730D1*
X5460443Y3363957D1*
X5466670Y3369714D1*
X5471066Y3373179D1*
X3424480Y3373200D1*
X3429337Y3371015D1*
X3436892Y3366385D1*
X3443630Y3360630D1*
X3449385Y3353892D1*
X3454015Y3346337D1*
X3457406Y3338150D1*
X3459475Y3329534D1*
X3460170Y3320700D1*
X3460067Y3318087D1*
X3536709Y3241431D1*
X3540410Y3248356D1*
X3546175Y3256291D1*
X3553109Y3263225D1*
X3561044Y3268990D1*
X3569782Y3273442D1*
X3579110Y3276473D1*
X3588796Y3278007D1*
X3598604D1*
X3608290Y3276473D1*
X3617618Y3273442D1*
X3626356Y3268990D1*
X3634291Y3263225D1*
X3641225Y3256291D1*
X3646990Y3248356D1*
X3651442Y3239618D1*
X3654473Y3230290D1*
X3656007Y3220604D1*
Y3210796D1*
X3654473Y3201110D1*
X3651442Y3191782D1*
X3646990Y3183044D1*
X3641225Y3175109D1*
X3634291Y3168175D1*
X3631174Y3165718D1*
X3637894Y3159894D1*
X3644264Y3152437D1*
X3649388Y3144074D1*
X3653141Y3135014D1*
X3655431Y3125477D1*
X3656200Y3115700D1*
X3655431Y3105923D1*
X3653141Y3096386D1*
X3649388Y3087326D1*
X3644264Y3078963D1*
X3637894Y3071506D1*
X3631174Y3065718D1*
X3637894Y3059894D1*
X3644264Y3052437D1*
X3649388Y3044074D1*
X3653141Y3035014D1*
X3655431Y3025477D1*
X3656200Y3015700D1*
X3655618Y3007503D1*
X3714124Y2949253D1*
X3713219Y2960234D1*
X3713411Y2971252D1*
X3714701Y2982195D1*
X3717074Y2992956D1*
X3720506Y3003426D1*
X3724965Y3013503D1*
X3730405Y3023086D1*
X3736772Y3032079D1*
X3744003Y3040393D1*
X3752027Y3047946D1*
X3760762Y3054662D1*
X3770124Y3060475D1*
X3780017Y3065326D1*
X3790345Y3069168D1*
X3801004Y3071963D1*
X3811888Y3073681D1*
X3822889Y3074308D1*
X3833898Y3073835D1*
X3844805Y3072268D1*
X3855502Y3069623D1*
X3865882Y3065926D1*
X3875843Y3061213D1*
X3885284Y3055532D1*
X3894113Y3048938D1*
X3902241Y3041498D1*
X3909325Y3033608D1*
X3905476Y3042488D1*
X3902061Y3052964D1*
X3899708Y3063729D1*
X3898438Y3074675D1*
X3898264Y3085692D1*
X3899189Y3096673D1*
X3901203Y3107506D1*
X3904286Y3118085D1*
X3908407Y3128305D1*
X3913525Y3138063D1*
X3919590Y3147263D1*
X3926541Y3155813D1*
X3934308Y3163628D1*
X3942816Y3170631D1*
X3951979Y3176752D1*
X3961706Y3181929D1*
X3971900Y3186113D1*
X3982460Y3189260D1*
X3993281Y3191339D1*
X4004255Y3192331D1*
X4015274Y3192225D1*
X4026227Y3191022D1*
X4037006Y3188734D1*
X4047503Y3185383D1*
X4057615Y3181004D1*
X4067240Y3175640D1*
X4076283Y3169344D1*
X4084654Y3162178D1*
X4092270Y3154214D1*
X4099054Y3145532D1*
X4104940Y3136216D1*
X4109869Y3126361D1*
X4113793Y3116064D1*
X4116671Y3105428D1*
X4118475Y3094557D1*
X4119188Y3083561D1*
X4118818Y3072745D1*
X4117357Y3061823D1*
X4114815Y3051101D1*
X4111218Y3040686D1*
X4106601Y3030680D1*
X4101011Y3021185D1*
X4094503Y3012293D1*
X4087142Y3004093D1*
X4079001Y2996668D1*
X4070160Y2990090D1*
X4060709Y2984425D1*
X4050740Y2979730D1*
X4040353Y2976051D1*
X4029652Y2973425D1*
X4018742Y2971878D1*
X4007732Y2971425D1*
X3996732Y2972070D1*
X3985851Y2973809D1*
X3975197Y2976622D1*
X3964876Y2980482D1*
X3954992Y2985351D1*
X3945641Y2991180D1*
X3936917Y2997912D1*
X3928907Y3005479D1*
X3923040Y3012120D1*
X3926920Y3003152D1*
X3930325Y2992672D1*
X3932669Y2981905D1*
X3933929Y2970958D1*
X3934100Y2960136D1*
X3933185Y2949155D1*
X3931180Y2938320D1*
X3928107Y2927738D1*
X3923995Y2917515D1*
X3922892Y2915202D1*
X3930565Y2923835D1*
X3936936Y2929725D1*
X3943750Y2935096D1*
X3950964Y2939917D1*
X3958534Y2944156D1*
X3966413Y2947789D1*
X3974554Y2950792D1*
X3982904Y2953147D1*
X3991414Y2954840D1*
X4000030Y2955859D1*
X4008700Y2956200D1*
X4017370Y2955859D1*
X4025986Y2954840D1*
X4034496Y2953147D1*
X4042846Y2950792D1*
X4050987Y2947789D1*
X4058866Y2944156D1*
X4066436Y2939917D1*
X4073650Y2935096D1*
X4080464Y2929725D1*
X4086835Y2923835D1*
X4092725Y2917464D1*
X4098096Y2910650D1*
X4102917Y2903436D1*
X4107156Y2895866D1*
X4110789Y2887987D1*
X4113792Y2879846D1*
X4116147Y2871496D1*
X4117840Y2862986D1*
X4118859Y2854370D1*
X4119200Y2845700D1*
X4118859Y2837030D1*
X4117840Y2828414D1*
X4116147Y2819904D1*
X4113792Y2811554D1*
X4110789Y2803413D1*
X4107156Y2795534D1*
X4102917Y2787964D1*
X4098096Y2780750D1*
X4092725Y2773936D1*
X4086835Y2767565D1*
X4080464Y2761675D1*
X4073650Y2756304D1*
X4066436Y2751483D1*
X4058866Y2747244D1*
X4050987Y2743611D1*
X4042846Y2740608D1*
X4034496Y2738253D1*
X4025986Y2736560D1*
X4017370Y2735541D1*
X4008700Y2735200D1*
X4000030Y2735541D1*
X3991414Y2736560D1*
X3982904Y2738253D1*
X3974554Y2740608D1*
X3966413Y2743611D1*
X3958534Y2747244D1*
X3950964Y2751483D1*
X3943750Y2756304D1*
X3936936Y2761675D1*
X3930565Y2767565D1*
X3924675Y2773936D1*
X3919304Y2780750D1*
X3914483Y2787964D1*
X3910244Y2795534D1*
X3906611Y2803413D1*
X3905028Y2807706D1*
X3760719Y2807817D1*
X3754829Y2808750D1*
X3749158Y2810593D1*
X3743845Y2813300D1*
X3739021Y2816805D1*
X3704351Y2851309D1*
X3601917Y2953743D1*
X3593700Y2953200D1*
X3583923Y2953969D1*
X3574386Y2956259D1*
X3572210Y2957062D1*
X3572200Y2788970D1*
X3584947Y2776193D1*
X3644181Y2776083D1*
X3650071Y2775150D1*
X3655742Y2773308D1*
X3661055Y2770600D1*
X3665879Y2767096D1*
X3699458Y2733683D1*
X3771681Y2733583D1*
X3777571Y2732650D1*
X3783242Y2730808D1*
X3785962Y2729553D1*
X3796259Y2728700D1*
X4850716D1*
X4850700Y2992809D1*
X4730405Y2992798D1*
Y3118601D1*
X4856208D1*
X4856300Y3020555D1*
X4859805Y3025379D1*
X4864021Y3029595D1*
X4868845Y3033100D1*
X4874158Y3035808D1*
X4879829Y3037650D1*
X4885719Y3038583D1*
X4934632Y3038700D1*
X5436681Y3038583D1*
X5442571Y3037650D1*
X5448242Y3035807D1*
X5453555Y3033100D1*
X5458379Y3029595D1*
X5462595Y3025379D1*
X5466100Y3020555D1*
X5468807Y3015242D1*
X5470650Y3009571D1*
X5471583Y3003681D1*
X5471700Y2954768D1*
X5471583Y1693906D1*
X5470650Y1688017D1*
X5468807Y1682346D1*
X5466100Y1677033D1*
X5462595Y1672209D1*
X5458379Y1667992D1*
X5453555Y1664487D1*
X5448242Y1661780D1*
X5442571Y1659938D1*
X5436681Y1659005D1*
X5387768Y1658888D1*
X5351705D1*
X5351700Y841445D1*
X5358154Y834986D1*
X5365130Y836060D1*
X5372270D1*
X5379322Y834943D1*
X5386112Y832737D1*
X5392474Y829495D1*
X5398250Y825298D1*
X5403298Y820250D1*
X5407495Y814474D1*
X5410737Y808112D1*
X5412943Y801322D1*
X5414060Y794270D1*
Y787130D1*
X5412943Y780078D1*
X5410737Y773288D1*
X5407495Y766926D1*
X5403298Y761150D1*
X5398250Y756102D1*
X5392474Y751905D1*
X5386112Y748663D1*
X5379322Y746457D1*
X5372270Y745340D1*
X5365130D1*
X5358078Y746457D1*
X5351288Y748663D1*
X5344926Y751905D1*
X5342755Y753168D1*
X5336957Y754560D1*
X5331448Y756842D1*
X5326364Y759957D1*
X5321830Y763830D1*
X5284805Y801021D1*
X5281300Y805845D1*
X5278593Y811158D1*
X5276750Y816829D1*
X5275817Y822719D1*
X5275700Y871632D1*
X5275817Y1699869D1*
X5276750Y1705759D1*
X5278593Y1711430D1*
X5281300Y1716743D1*
X5284805Y1721567D1*
X5289021Y1725783D1*
X5293845Y1729288D1*
X5299158Y1731995D1*
X5304829Y1733838D1*
X5310719Y1734771D1*
X5359632Y1734888D1*
X5395695D1*
X5395689Y1887683D1*
X5392825Y1880920D1*
X5389086Y1874600D1*
X5384538Y1868834D1*
X5379263Y1863724D1*
X5373355Y1859363D1*
X5366919Y1855827D1*
X5360069Y1853179D1*
X5352928Y1851467D1*
X5345622Y1850722D1*
X5338282Y1850956D1*
X5331039Y1852165D1*
X5324021Y1854327D1*
X5317354Y1857405D1*
X5311155Y1861344D1*
X5305537Y1866072D1*
X5300598Y1871507D1*
X5296427Y1877551D1*
X5293097Y1884097D1*
X5290669Y1891027D1*
X5289185Y1898219D1*
X5288673Y1905545D1*
X5289140Y1912874D1*
X5290579Y1920075D1*
X5292964Y1927021D1*
X5296253Y1933587D1*
X5300386Y1939656D1*
X5305291Y1945122D1*
X5310881Y1949885D1*
X5317054Y1953862D1*
X5320726Y1955712D1*
X5314948Y1958797D1*
X5307962Y1963872D1*
X5301857Y1969978D1*
X5296781Y1976964D1*
X5292861Y1984658D1*
X5290193Y1992870D1*
X5288842Y2001398D1*
Y2010033D1*
X5290193Y2018562D1*
X5292861Y2026774D1*
X5296781Y2034468D1*
X5301857Y2041453D1*
X5307962Y2047559D1*
X5312043Y2050693D1*
X5288673Y2050688D1*
Y2160743D1*
X5395667D1*
X5395689Y2587683D1*
X5392825Y2580920D1*
X5389086Y2574600D1*
X5384538Y2568834D1*
X5379263Y2563724D1*
X5373355Y2559363D1*
X5366919Y2555827D1*
X5360069Y2553179D1*
X5352928Y2551467D1*
X5345622Y2550722D1*
X5338282Y2550956D1*
X5331039Y2552165D1*
X5324021Y2554327D1*
X5317354Y2557405D1*
X5311155Y2561344D1*
X5305537Y2566072D1*
X5300598Y2571507D1*
X5296427Y2577551D1*
X5293097Y2584097D1*
X5290669Y2591027D1*
X5289185Y2598219D1*
X5288673Y2605545D1*
X5289140Y2612874D1*
X5290579Y2620075D1*
X5292964Y2627021D1*
X5296253Y2633587D1*
X5300386Y2639656D1*
X5305291Y2645122D1*
X5310881Y2649885D1*
X5317054Y2653862D1*
X5320726Y2655712D1*
X5314948Y2658797D1*
X5307962Y2663872D1*
X5301857Y2669978D1*
X5296781Y2676964D1*
X5292861Y2684658D1*
X5290193Y2692870D1*
X5288842Y2701398D1*
Y2710033D1*
X5290193Y2718562D1*
X5292861Y2726774D1*
X5296781Y2734468D1*
X5301857Y2741453D1*
X5307962Y2747559D1*
X5312043Y2750693D1*
X5288672Y2750688D1*
Y2860743D1*
X5395667D1*
X5395700Y2962702D1*
X5234005Y2962700D1*
X5241772Y2955937D1*
X5245796Y2951584D1*
X5249466Y2946928D1*
X5252759Y2941999D1*
X5255656Y2936827D1*
X5258138Y2931443D1*
X5260190Y2925881D1*
X5261799Y2920176D1*
X5262956Y2914361D1*
X5263652Y2908474D1*
X5263885Y2902550D1*
X5263652Y2896627D1*
X5262956Y2890740D1*
X5261799Y2884925D1*
X5260190Y2879220D1*
X5258138Y2873658D1*
X5255656Y2868274D1*
X5252759Y2863102D1*
X5249466Y2858173D1*
X5245796Y2853517D1*
X5241772Y2849164D1*
X5237418Y2845140D1*
X5232763Y2841470D1*
X5227834Y2838176D1*
X5222661Y2835279D1*
X5217278Y2832797D1*
X5211716Y2830746D1*
X5206010Y2829136D1*
X5200196Y2827980D1*
X5194309Y2827283D1*
X5188385Y2827050D1*
X5182461Y2827283D1*
X5176574Y2827980D1*
X5169177Y2829583D1*
X5096683Y2757108D1*
X5096700Y2347961D1*
X5169127Y2275549D1*
X5176574Y2277121D1*
X5182461Y2277818D1*
X5188385Y2278050D1*
X5194309Y2277818D1*
X5200196Y2277121D1*
X5206010Y2275964D1*
X5211716Y2274355D1*
X5217278Y2272303D1*
X5222661Y2269821D1*
X5227834Y2266925D1*
X5232763Y2263631D1*
X5237418Y2259961D1*
X5241772Y2255937D1*
X5245796Y2251584D1*
X5249466Y2246928D1*
X5252759Y2241999D1*
X5255656Y2236827D1*
X5258138Y2231443D1*
X5260190Y2225881D1*
X5261799Y2220176D1*
X5262956Y2214361D1*
X5263652Y2208474D1*
X5263885Y2202550D1*
X5263652Y2196627D1*
X5262956Y2190740D1*
X5261799Y2184925D1*
X5260190Y2179220D1*
X5258138Y2173658D1*
X5255656Y2168274D1*
X5252759Y2163102D1*
X5249466Y2158173D1*
X5245796Y2153517D1*
X5241772Y2149164D1*
X5237418Y2145140D1*
X5232763Y2141470D1*
X5227834Y2138176D1*
X5222661Y2135279D1*
X5217278Y2132797D1*
X5211716Y2130746D1*
X5206010Y2129136D1*
X5200196Y2127980D1*
X5194309Y2127283D1*
X5188385Y2127050D1*
X5182461Y2127283D1*
X5176574Y2127980D1*
X5170760Y2129136D1*
X5165054Y2130746D1*
X5159492Y2132797D1*
X5154109Y2135279D1*
X5148936Y2138176D1*
X5144007Y2141470D1*
X5139352Y2145140D1*
X5134998Y2149164D1*
X5130974Y2153517D1*
X5127304Y2158173D1*
X5124011Y2163102D1*
X5121114Y2168274D1*
X5118632Y2173658D1*
X5116580Y2179220D1*
X5114971Y2184925D1*
X5113815Y2190740D1*
X5113118Y2196627D1*
X5112885Y2202550D1*
X5113118Y2208474D1*
X5113815Y2214361D1*
X5115417Y2221758D1*
X5029804Y2307556D1*
X5026300Y2312380D1*
X5023592Y2317693D1*
X5021750Y2323364D1*
X5020817Y2329254D1*
X5020700Y2378167D1*
X5020817Y2775847D1*
X5021750Y2781736D1*
X5023592Y2787407D1*
X5026300Y2792720D1*
X5029804Y2797544D1*
X5064309Y2832214D1*
X5115386Y2883292D1*
X5113815Y2890740D1*
X5113118Y2896627D1*
X5112885Y2902550D1*
X5113118Y2908474D1*
X5113815Y2914361D1*
X5114971Y2920176D1*
X5116580Y2925881D1*
X5118632Y2931443D1*
X5121114Y2936827D1*
X5124011Y2941999D1*
X5127304Y2946928D1*
X5130974Y2951584D1*
X5134998Y2955937D1*
X5142825Y2962699D1*
X4926692Y2962700D1*
X4926583Y2687719D1*
X4925650Y2681829D1*
X4923808Y2676158D1*
X4921100Y2670845D1*
X4917595Y2666021D1*
X4913379Y2661805D1*
X4908555Y2658300D1*
X4903242Y2655592D1*
X4897571Y2653750D1*
X4891681Y2652817D1*
X4866775Y2652700D1*
X4873970Y2647121D1*
X4879764Y2641764D1*
X4885121Y2635970D1*
X4890006Y2629772D1*
X4894390Y2623211D1*
X4898246Y2616326D1*
X4901550Y2609160D1*
X4904281Y2601756D1*
X4906423Y2594161D1*
X4907963Y2586422D1*
X4908890Y2578585D1*
X4909200Y2570700D1*
X4908890Y2562815D1*
X4907963Y2554978D1*
X4906423Y2547239D1*
X4904281Y2539644D1*
X4901550Y2532240D1*
X4898246Y2525074D1*
X4894390Y2518189D1*
X4890006Y2511628D1*
X4885121Y2505430D1*
X4879764Y2499636D1*
X4873970Y2494279D1*
X4867772Y2489394D1*
X4861211Y2485010D1*
X4854326Y2481154D1*
X4847160Y2477850D1*
X4839756Y2475119D1*
X4832161Y2472977D1*
X4824422Y2471437D1*
X4816585Y2470510D1*
X4808700Y2470200D1*
X4800815Y2470510D1*
X4792978Y2471437D1*
X4785239Y2472977D1*
X4777644Y2475119D1*
X4770240Y2477850D1*
X4763074Y2481154D1*
X4756189Y2485010D1*
X4749628Y2489394D1*
X4743430Y2494279D1*
X4737636Y2499636D1*
X4732279Y2505430D1*
X4727394Y2511628D1*
X4723010Y2518189D1*
X4719154Y2525074D1*
X4715850Y2532240D1*
X4713119Y2539644D1*
X4710977Y2547239D1*
X4709437Y2554978D1*
X4708510Y2562815D1*
X4708200Y2570700D1*
X4708510Y2578585D1*
X4709437Y2586422D1*
X4710977Y2594161D1*
X4713119Y2601756D1*
X4715850Y2609160D1*
X4719154Y2616326D1*
X4723010Y2623211D1*
X4727394Y2629772D1*
X4732279Y2635970D1*
X4737636Y2641764D1*
X4743430Y2647121D1*
X4750678Y2652708D1*
X3966799Y2652700D1*
X3973970Y2647121D1*
X3979764Y2641764D1*
X3985121Y2635970D1*
X3990006Y2629772D1*
X3994390Y2623211D1*
X3998246Y2616326D1*
X4001550Y2609160D1*
X4004281Y2601756D1*
X4006423Y2594161D1*
X4007963Y2586422D1*
X4008890Y2578585D1*
X4009200Y2570700D1*
X4008890Y2562815D1*
X4007963Y2554978D1*
X4006423Y2547239D1*
X4004281Y2539644D1*
X4001550Y2532240D1*
X3998246Y2525074D1*
X3994390Y2518189D1*
X3990006Y2511628D1*
X3985121Y2505430D1*
X3979764Y2499636D1*
X3973970Y2494279D1*
X3967772Y2489394D1*
X3961211Y2485010D1*
X3954326Y2481154D1*
X3947160Y2477850D1*
X3939756Y2475119D1*
X3932161Y2472977D1*
X3924422Y2471437D1*
X3916585Y2470510D1*
X3908700Y2470200D1*
X3900815Y2470510D1*
X3892978Y2471437D1*
X3885239Y2472977D1*
X3877644Y2475119D1*
X3870240Y2477850D1*
X3863074Y2481154D1*
X3856189Y2485010D1*
X3849628Y2489394D1*
X3843430Y2494279D1*
X3837636Y2499636D1*
X3832279Y2505430D1*
X3827394Y2511628D1*
X3823010Y2518189D1*
X3819154Y2525074D1*
X3815850Y2532240D1*
X3813119Y2539644D1*
X3810977Y2547239D1*
X3809437Y2554978D1*
X3808510Y2562815D1*
X3808200Y2570700D1*
X3808510Y2578585D1*
X3809437Y2586422D1*
X3810977Y2594161D1*
X3813119Y2601756D1*
X3815850Y2609160D1*
X3819154Y2616326D1*
X3823010Y2623211D1*
X3827394Y2629772D1*
X3832279Y2635970D1*
X3837636Y2641764D1*
X3843430Y2647121D1*
X3850678Y2652708D1*
X3765719Y2652817D1*
X3759829Y2653750D1*
X3754158Y2655592D1*
X3751438Y2656847D1*
X3741141Y2657700D1*
X3680719Y2657817D1*
X3677744Y2658170D1*
X3679557Y2654583D1*
X3697095Y2636879D1*
X3700600Y2632055D1*
X3703307Y2626742D1*
X3705150Y2621071D1*
X3706083Y2615181D1*
X3706200Y2566268D1*
Y2023018D1*
X3714270Y2023091D1*
X3721322Y2021974D1*
X3728112Y2019768D1*
X3729189Y2019271D1*
X3729291Y2028015D1*
X3730015Y2032587D1*
X3731445Y2036989D1*
X3733547Y2041114D1*
X3736268Y2044859D1*
X3739541Y2048132D1*
X3743286Y2050853D1*
X3747411Y2052955D1*
X3751813Y2054385D1*
X3756385Y2055109D1*
X3841377Y2055200D1*
X4566015Y2055109D1*
X4570587Y2054385D1*
X4574989Y2052955D1*
X4579114Y2050853D1*
X4582859Y2048132D1*
X4629560Y2001560D1*
X4632566Y1998040D1*
X4634985Y1994093D1*
X4636756Y1989816D1*
X4637837Y1985315D1*
X4638200Y1980700D1*
Y1927125D1*
X4644438Y1922543D1*
X4650543Y1916438D1*
X4655619Y1909452D1*
X4658670Y1903643D1*
X4661781Y1909452D1*
X4666857Y1916438D1*
X4672962Y1922543D1*
X4679948Y1927619D1*
X4687642Y1931539D1*
X4695854Y1934207D1*
X4704383Y1935558D1*
X4713017D1*
X4721546Y1934207D1*
X4729758Y1931539D1*
X4737452Y1927619D1*
X4744438Y1922543D1*
X4750543Y1916438D1*
X4755122Y1910196D1*
X4764182Y1913044D1*
X4769790Y1919610D1*
X4776356Y1925218D1*
X4783718Y1929730D1*
X4791696Y1933034D1*
X4800092Y1935050D1*
X4808700Y1935728D1*
X4817308Y1935050D1*
X4825704Y1933034D1*
X4833682Y1929730D1*
X4841044Y1925218D1*
X4847610Y1919610D1*
X4853218Y1913044D1*
X4857730Y1905682D1*
X4861034Y1897704D1*
X4863050Y1889308D1*
X4863728Y1880700D1*
X4863050Y1872092D1*
X4861034Y1863696D1*
X4857730Y1855718D1*
X4853218Y1848356D1*
X4847610Y1841790D1*
X4841044Y1836182D1*
X4833682Y1831670D1*
X4825704Y1828366D1*
X4817308Y1826350D1*
X4808700Y1825672D1*
X4800092Y1826350D1*
X4793206Y1827940D1*
X4793200Y999492D1*
X4799926Y1004495D1*
X4806288Y1007737D1*
X4813078Y1009943D1*
X4820130Y1011060D1*
X4827270D1*
X4834322Y1009943D1*
X4841112Y1007737D1*
X4847474Y1004495D1*
X4853250Y1000298D1*
X4858298Y995250D1*
X4862495Y989474D1*
X4865737Y983112D1*
X4867943Y976322D1*
X4869060Y969270D1*
Y962130D1*
X4867943Y955078D1*
X4865737Y948288D1*
X4862495Y941926D1*
X4858298Y936150D1*
X4853195Y931058D1*
X4853250Y925298D1*
X4858298Y920250D1*
X4862495Y914474D1*
X4865737Y908112D1*
X4867943Y901322D1*
X4869060Y894270D1*
Y887130D1*
X4867943Y880078D1*
X4865737Y873288D1*
X4862495Y866926D1*
X4858298Y861150D1*
X4853250Y856102D1*
X4847474Y851905D1*
X4841112Y848663D1*
X4834322Y846457D1*
X4827270Y845340D1*
X4820459Y845200D1*
X5016015Y845109D1*
X5020587Y844385D1*
X5024989Y842955D1*
X5029114Y840853D1*
X5032859Y838132D1*
X5093021Y778098D1*
X5146738Y724381D1*
X5154383Y725558D1*
X5163017D1*
X5171546Y724207D1*
X5179758Y721539D1*
X5187452Y717619D1*
X5194438Y712543D1*
X5200543Y706438D1*
X5205619Y699452D1*
X5208670Y693643D1*
X5211781Y699452D1*
X5216857Y706438D1*
X5222962Y712543D1*
X5229948Y717619D1*
X5237642Y721539D1*
X5245854Y724207D1*
X5254383Y725558D1*
X5263017D1*
X5271546Y724207D1*
X5279758Y721539D1*
X5287452Y717619D1*
X5294438Y712543D1*
X5300543Y706438D1*
X5305619Y699452D1*
X5309539Y691758D1*
X5312207Y683546D1*
X5313558Y675017D1*
Y666383D1*
X5312207Y657854D1*
X5309539Y649642D1*
X5305619Y641948D1*
X5300543Y634962D1*
X5294438Y628857D1*
X5287452Y623781D1*
X5281643Y620730D1*
X5287452Y617619D1*
X5294438Y612543D1*
X5300543Y606438D1*
X5305619Y599452D1*
X5309539Y591758D1*
X5312207Y583546D1*
X5313558Y575017D1*
Y566383D1*
X5312207Y557854D1*
X5309539Y549642D1*
X5305619Y541948D1*
X5300543Y534962D1*
X5294438Y528857D1*
X5287452Y523781D1*
X5279758Y519861D1*
X5271546Y517193D1*
X5263017Y515842D1*
X5254383D1*
X5245854Y517193D1*
X5237642Y519861D1*
X5229948Y523781D1*
X5222962Y528857D1*
X5216857Y534962D1*
X5211781Y541948D1*
X5208730Y547757D1*
X5205619Y541948D1*
X5200543Y534962D1*
X5194438Y528857D1*
X5187452Y523781D1*
X5179758Y519861D1*
X5171546Y517193D1*
X5163017Y515842D1*
X5154383D1*
X5145854Y517193D1*
X5137642Y519861D1*
X5129948Y523781D1*
X5122962Y528857D1*
X5116857Y534962D1*
X5111781Y541948D1*
X5108730Y547757D1*
X5105619Y541948D1*
X5100543Y534962D1*
X5094438Y528857D1*
X5087452Y523781D1*
X5079758Y519861D1*
X5071546Y517193D1*
X5063017Y515842D1*
X5054383D1*
X5046731Y517018D1*
X5036331Y506740D1*
X5032586Y504019D1*
X5028462Y501918D1*
X5024059Y500487D1*
X5019487Y499763D1*
X4934495Y499672D1*
X4332913Y499763D1*
X4328341Y500487D1*
X4323938Y501918D1*
X4319814Y504019D1*
X4316069Y506740D1*
X4255906Y566774D1*
X4186268Y636541D1*
X4183547Y640286D1*
X4181445Y644411D1*
X4180015Y648813D1*
X4179291Y653385D1*
X4179200Y738377D1*
Y833506D1*
X4151268Y861541D1*
X4148547Y865286D1*
X4146445Y869411D1*
X4145015Y873813D1*
X4144291Y878385D1*
X4144200Y963377D1*
Y1008484D1*
X4130796Y1022014D1*
X4128075Y1025759D1*
X4125973Y1029883D1*
X4124543Y1034286D1*
X4123818Y1038858D1*
X4123728Y1123850D1*
X4123678Y1186102D1*
X4118629Y1191150D1*
X4114432Y1196926D1*
X4111191Y1203288D1*
X4108985Y1210078D1*
X4107868Y1217130D1*
Y1224270D1*
X4108985Y1231322D1*
X4111191Y1238112D1*
X4114432Y1244474D1*
X4117877Y1249296D1*
X3818283Y1249393D1*
X3813711Y1250117D1*
X3809308Y1251548D1*
X3805184Y1253649D1*
X3801439Y1256370D1*
X3782270Y1275340D1*
X3775130D1*
X3768078Y1276457D1*
X3761288Y1278663D1*
X3754926Y1281905D1*
X3749150Y1286102D1*
X3744102Y1291150D1*
X3739905Y1296926D1*
X3736663Y1303288D1*
X3734457Y1310078D1*
X3733340Y1317130D1*
Y1324270D1*
X3734457Y1331322D1*
X3736663Y1338112D1*
X3739905Y1344474D1*
X3744102Y1350250D1*
X3749150Y1355298D1*
X3754926Y1359495D1*
X3761288Y1362737D1*
X3768078Y1364943D1*
X3775130Y1366060D1*
X3782270D1*
X3789322Y1364943D1*
X3796112Y1362737D1*
X3802474Y1359495D1*
X3808250Y1355298D1*
X3813298Y1350250D1*
X3817495Y1344474D1*
X3820737Y1338112D1*
X3822943Y1331322D1*
X3824060Y1324270D1*
X3824052Y1317061D1*
X3832825Y1308294D1*
X4139357Y1308302D1*
X3899227Y1548454D1*
X3821385Y1548545D1*
X3816813Y1549270D1*
X3812411Y1550700D1*
X3808286Y1552802D1*
X3804541Y1555523D1*
X3801268Y1558796D1*
X3798547Y1562541D1*
X3796445Y1566665D1*
X3795015Y1571068D1*
X3794291Y1575640D1*
X3794200Y1660632D1*
Y1788846D1*
X3789890Y1793956D1*
X3786159Y1800043D1*
X3783427Y1806640D1*
X3781760Y1813582D1*
X3781200Y1820700D1*
X3781760Y1827818D1*
X3783427Y1834760D1*
X3786159Y1841357D1*
X3789890Y1847444D1*
X3794527Y1852873D1*
X3799956Y1857510D1*
X3806043Y1861241D1*
X3812640Y1863973D1*
X3819582Y1865640D1*
X3826700Y1866200D1*
X3833818Y1865640D1*
X3840760Y1863973D1*
X3847357Y1861241D1*
X3853674Y1857329D1*
X3853673Y1935727D1*
X3963728D1*
Y1912438D1*
X3968997Y1918802D1*
X3974424Y1923749D1*
X3980462Y1927930D1*
X3987002Y1931269D1*
X3993929Y1933708D1*
X4001119Y1935203D1*
X4008444Y1935727D1*
X4015773Y1935271D1*
X4022977Y1933843D1*
X4029926Y1931469D1*
X4036497Y1928191D1*
X4042573Y1924066D1*
X4048046Y1919170D1*
X4052818Y1913588D1*
X4056805Y1907420D1*
X4058696Y1903673D1*
X4061781Y1909452D1*
X4066857Y1916438D1*
X4072962Y1922543D1*
X4079948Y1927619D1*
X4087642Y1931539D1*
X4095854Y1934207D1*
X4104383Y1935558D1*
X4113017D1*
X4121546Y1934207D1*
X4129758Y1931539D1*
X4137452Y1927619D1*
X4144438Y1922543D1*
X4150543Y1916438D1*
X4155619Y1909452D1*
X4158703Y1903687D1*
X4162210Y1910139D1*
X4166544Y1916068D1*
X4171628Y1921366D1*
X4177373Y1925940D1*
X4183676Y1929709D1*
X4190425Y1932604D1*
X4197499Y1934576D1*
X4204773Y1935587D1*
X4212116Y1935621D1*
X4219399Y1934677D1*
X4226491Y1932772D1*
X4233266Y1929939D1*
X4239604Y1926230D1*
X4245392Y1921709D1*
X4250525Y1916458D1*
X4254914Y1910571D1*
X4258696Y1903673D1*
X4261781Y1909452D1*
X4266857Y1916438D1*
X4272962Y1922543D1*
X4279948Y1927619D1*
X4287642Y1931539D1*
X4295854Y1934207D1*
X4304383Y1935558D1*
X4313017D1*
X4321546Y1934207D1*
X4329758Y1931539D1*
X4337452Y1927619D1*
X4344438Y1922543D1*
X4350543Y1916438D1*
X4355619Y1909452D1*
X4358670Y1903643D1*
X4361781Y1909452D1*
X4366857Y1916438D1*
X4372962Y1922543D1*
X4379948Y1927619D1*
X4387642Y1931539D1*
X4395854Y1934207D1*
X4404383Y1935558D1*
X4413017D1*
X4421546Y1934207D1*
X4429758Y1931539D1*
X4437452Y1927619D1*
X4444438Y1922543D1*
X4450543Y1916438D1*
X4455619Y1909452D1*
X4458703Y1903687D1*
X4462210Y1910139D1*
X4466544Y1916068D1*
X4471628Y1921366D1*
X4477373Y1925940D1*
X4483676Y1929709D1*
X4490425Y1932604D1*
X4497499Y1934576D1*
X4504773Y1935587D1*
X4512116Y1935621D1*
X4519399Y1934677D1*
X4526491Y1932772D1*
X4533266Y1929939D1*
X4539604Y1926230D1*
X4545392Y1921709D1*
X4550525Y1916458D1*
X4554914Y1910571D1*
X4558696Y1903673D1*
X4561781Y1909452D1*
X4566857Y1916438D1*
X4572962Y1922543D1*
X4579204Y1927122D1*
X4579200Y1968509D1*
X4551479Y1996201D1*
X3788207Y1996200D1*
X3788250Y1974826D1*
X3793298Y1969777D1*
X3797495Y1964001D1*
X3800737Y1957640D1*
X3802943Y1950849D1*
X3804060Y1943797D1*
Y1936658D1*
X3802943Y1929606D1*
X3800737Y1922815D1*
X3797495Y1916454D1*
X3793298Y1910678D1*
X3788250Y1905629D1*
X3782474Y1901432D1*
X3776112Y1898191D1*
X3769322Y1895985D1*
X3762270Y1894868D1*
X3755130D1*
X3748078Y1895985D1*
X3741288Y1898191D1*
X3740211Y1898688D1*
X3740109Y1545385D1*
X3739385Y1540813D1*
X3737954Y1536411D1*
X3735853Y1532286D1*
X3733132Y1528541D1*
X3718188Y1513468D1*
X3718200Y997449D1*
X3816132Y899382D1*
X3818853Y895637D1*
X3820955Y891513D1*
X3822385Y887110D1*
X3823109Y882538D1*
X3823200Y802176D1*
X3829438Y797543D1*
X3835543Y791438D1*
X3840619Y784452D1*
X3843670Y778643D1*
X3846781Y784452D1*
X3851857Y791438D1*
X3857962Y797543D1*
X3864948Y802619D1*
X3872642Y806539D1*
X3880854Y809207D1*
X3889383Y810558D1*
X3898017D1*
X3906546Y809207D1*
X3914758Y806539D1*
X3922452Y802619D1*
X3929438Y797543D1*
X3935543Y791438D1*
X3940619Y784452D1*
X3943670Y778643D1*
X3946781Y784452D1*
X3951857Y791438D1*
X3957962Y797543D1*
X3964948Y802619D1*
X3972642Y806539D1*
X3980854Y809207D1*
X3989383Y810558D1*
X3998017D1*
X4006546Y809207D1*
X4014758Y806539D1*
X4022452Y802619D1*
X4029438Y797543D1*
X4035543Y791438D1*
X4040619Y784452D1*
X4043670Y778643D1*
X4046781Y784452D1*
X4051857Y791438D1*
X4057962Y797543D1*
X4064948Y802619D1*
X4069193Y804949D1*
X4069150Y946102D1*
X4064102Y951150D1*
X4059905Y956926D1*
X4056663Y963288D1*
X4054457Y970078D1*
X4053340Y977130D1*
Y984270D1*
X4054457Y991322D1*
X4056663Y998112D1*
X4059905Y1004474D1*
X4064102Y1010250D1*
X4069150Y1015298D1*
X4074926Y1019495D1*
X4081288Y1022737D1*
X4088078Y1024943D1*
X4095130Y1026060D1*
X4102270D1*
X4109322Y1024943D1*
X4116112Y1022737D1*
X4122474Y1019495D1*
X4128250Y1015298D1*
X4133298Y1010250D1*
X4137495Y1004474D1*
X4140737Y998112D1*
X4142943Y991322D1*
X4144060Y984270D1*
Y977130D1*
X4142943Y970078D1*
X4140737Y963288D1*
X4137495Y956926D1*
X4133298Y951150D1*
X4128195Y946058D1*
X4128200Y798588D1*
X2198229Y1215727D2*
X2273728D1*
Y1215333D1*
X2278678Y1220298D1*
X2284454Y1224495D1*
X2290815Y1227737D1*
X2297606Y1229943D1*
X2304658Y1231060D1*
X2311797D1*
X2312726Y1230950D1*
X2312727Y1522679D1*
X2279805Y1555785D1*
X2276300Y1560609D1*
X2273593Y1565922D1*
X2271750Y1571593D1*
X2270817Y1577482D1*
X2270700Y1626396D1*
Y1876472D1*
X2266956Y1878890D1*
X2261527Y1883527D1*
X2256890Y1888956D1*
X2253159Y1895043D1*
X2250427Y1901640D1*
X2249886Y1902764D1*
X2243571Y1899016D1*
X2236814Y1896141D1*
X2229734Y1894192D1*
X2222457Y1893202D1*
X2215113Y1893191D1*
X2207834Y1894158D1*
X2200747Y1896085D1*
X2193981Y1898939D1*
X2187655Y1902668D1*
X2181881Y1907206D1*
X2176764Y1912473D1*
X2172393Y1918374D1*
X2168847Y1924805D1*
X2166189Y1931651D1*
X2164466Y1938789D1*
X2163709Y1946094D1*
X2163931Y1953434D1*
X2165129Y1960680D1*
X2167281Y1967701D1*
X2170349Y1974373D1*
X2174278Y1980577D1*
X2178997Y1986203D1*
X2184424Y1991151D1*
X2190462Y1995331D1*
X2197002Y1998671D1*
X2203929Y2001110D1*
X2211119Y2002604D1*
X2218444Y2003129D1*
X2225773Y2002673D1*
X2232977Y2001245D1*
X2239926Y1998871D1*
X2246497Y1995592D1*
X2252573Y1991468D1*
X2258046Y1986571D1*
X2262818Y1980989D1*
X2266805Y1974822D1*
X2269934Y1968179D1*
X2270701Y1966083D1*
X2270700Y2185657D1*
X2268159Y2190043D1*
X2265427Y2196640D1*
X2263760Y2203582D1*
X2263200Y2210700D1*
X2263760Y2217818D1*
X2265427Y2224760D1*
X2268159Y2231357D1*
X2271890Y2237444D1*
X2276527Y2242873D1*
X2281956Y2247510D1*
X2288043Y2251241D1*
X2294640Y2253973D1*
X2301582Y2255640D1*
X2308686Y2256199D1*
X2187950Y2256200D1*
X2148222Y2216503D1*
X2148250Y1845298D1*
X2153298Y1840250D1*
X2157495Y1834474D1*
X2160737Y1828112D1*
X2162943Y1821322D1*
X2164060Y1814270D1*
Y1807130D1*
X2162943Y1800078D1*
X2160737Y1793288D1*
X2157495Y1786926D1*
X2153298Y1781150D1*
X2148195Y1776058D1*
X2148200Y1564786D1*
X2155811Y1566060D1*
X2162951D1*
X2170003Y1564943D1*
X2176793Y1562737D1*
X2183155Y1559495D1*
X2188931Y1555298D1*
X2193980Y1550250D1*
X2198176Y1544474D1*
X2201418Y1538112D1*
X2203624Y1531322D1*
X2204741Y1524270D1*
Y1517130D1*
X2203624Y1510078D1*
X2201418Y1503288D1*
X2198197Y1496963D1*
X2198200Y1215720D1*
X753673Y1577406D2*
Y1607907D1*
X624854Y1607972D1*
X622545Y1608246D1*
X623558Y1600167D1*
Y1591532D1*
X622207Y1583004D1*
X619539Y1574791D1*
X615619Y1567098D1*
X610543Y1560112D1*
X604438Y1554006D1*
X597452Y1548931D1*
X591643Y1545880D1*
X597452Y1542768D1*
X604438Y1537693D1*
X610543Y1531587D1*
X615619Y1524601D1*
X619539Y1516908D1*
X622207Y1508696D1*
X623558Y1500167D1*
Y1491532D1*
X622207Y1483004D1*
X619539Y1474791D1*
X615619Y1467098D1*
X610543Y1460112D1*
X604438Y1454006D1*
X597452Y1448931D1*
X591643Y1445880D1*
X597452Y1442768D1*
X604438Y1437693D1*
X609249Y1432988D1*
X753664Y1577384D1*
X963558Y1486383D2*
X962207Y1477854D1*
X959539Y1469642D1*
X955619Y1461948D1*
X950543Y1454962D1*
X944438Y1448857D1*
X937452Y1443781D1*
X931643Y1440730D1*
X937452Y1437619D1*
X944438Y1432543D1*
X950543Y1426438D1*
X955619Y1419452D1*
X959539Y1411758D1*
X962207Y1403546D1*
X963558Y1395017D1*
Y1386383D1*
X962207Y1377854D1*
X959539Y1369642D1*
X955619Y1361948D1*
X950543Y1354962D1*
X944438Y1348857D1*
X937452Y1343781D1*
X929758Y1339861D1*
X921546Y1337193D1*
X913017Y1335842D1*
X904383D1*
X895854Y1337193D1*
X887642Y1339861D1*
X879948Y1343781D1*
X872962Y1348857D1*
X866857Y1354962D1*
X861781Y1361948D1*
X858730Y1367757D1*
X855619Y1361948D1*
X850543Y1354962D1*
X844438Y1348857D1*
X838196Y1344278D1*
X838200Y999814D1*
X975629Y999872D1*
X980678Y1004921D1*
X986454Y1009117D1*
X992815Y1012359D1*
X999606Y1014565D1*
X1006658Y1015682D1*
X1013797D1*
X1020849Y1014565D1*
X1027640Y1012359D1*
X1034001Y1009117D1*
X1039777Y1004921D1*
X1044826Y999872D1*
X1049023Y994096D1*
X1052264Y987734D1*
X1054470Y980944D1*
X1055587Y973892D1*
Y966752D1*
X1054470Y959700D1*
X1052264Y952910D1*
X1049023Y946548D1*
X1044826Y940772D1*
X1039777Y935724D1*
X1034001Y931527D1*
X1030770Y929729D1*
X1167222Y929728D1*
X1171571Y932268D1*
X1178167Y935001D1*
X1185110Y936667D1*
X1192228Y937228D1*
X1199345Y936667D1*
X1206288Y935001D1*
X1207191Y934667D1*
X1207150Y1005133D1*
X1202058Y1010236D1*
X1112354Y1010322D1*
X1107782Y1011046D1*
X1103379Y1012477D1*
X1099255Y1014578D1*
X1095510Y1017299D1*
X1035347Y1077333D1*
X986502Y1126178D1*
X929623Y1126200D1*
X925700Y1120914D1*
X920651Y1115865D1*
X914875Y1111669D1*
X908514Y1108427D1*
X901723Y1106221D1*
X894671Y1105104D1*
X887532D1*
X880480Y1106221D1*
X873689Y1108427D1*
X867328Y1111669D1*
X861552Y1115865D1*
X856503Y1120914D1*
X852306Y1126690D1*
X849065Y1133052D1*
X846859Y1139842D1*
X845742Y1146894D1*
Y1154034D1*
X846859Y1161086D1*
X849065Y1167876D1*
X852306Y1174237D1*
X856503Y1180014D1*
X861552Y1185062D1*
X867328Y1189259D1*
X873689Y1192500D1*
X880480Y1194707D1*
X887532Y1195824D1*
X894671D1*
X901723Y1194707D1*
X908514Y1192500D1*
X914875Y1189259D1*
X920487Y1185192D1*
X1001015Y1185109D1*
X1005587Y1184385D1*
X1009989Y1182955D1*
X1014114Y1180853D1*
X1017859Y1178132D1*
X1037042Y1159077D1*
X1037543Y1162790D1*
X1036818Y1167362D1*
X1036727Y1252354D1*
Y1576998D1*
X962411Y1502691D1*
X963558Y1495017D1*
Y1486383D1*
X779204Y1344278D2*
X772962Y1348857D1*
X766857Y1354962D1*
X761781Y1361948D1*
X757861Y1369642D1*
X755193Y1377854D1*
X753842Y1386383D1*
X753806Y1394090D1*
X679219Y1319500D1*
X679200Y982511D1*
X696329Y965284D1*
X699050Y961539D1*
X701151Y957414D1*
X702582Y953012D1*
X703306Y948440D1*
X703397Y905755D1*
X799791Y905727D1*
Y889544D1*
X831033Y920623D1*
X835857Y924128D1*
X841170Y926835D1*
X846841Y928678D1*
X852730Y929611D1*
X901644Y929728D1*
X989571Y929781D1*
X983483Y933512D1*
X978054Y938149D1*
X975586Y940827D1*
X822385Y940913D1*
X817813Y941637D1*
X813411Y943068D1*
X809286Y945169D1*
X805541Y947890D1*
X786268Y967163D1*
X783547Y970908D1*
X781446Y975033D1*
X780015Y979435D1*
X779291Y984008D1*
X779200Y1068999D1*
Y1344267D1*
X436201Y2650877D2*
X523728D1*
Y2627559D1*
X527748Y2632605D1*
X533006Y2637730D1*
X538901Y2642110D1*
X545326Y2645666D1*
X552168Y2648335D1*
X559304Y2650069D1*
X566607Y2650837D1*
X573948Y2650626D1*
X581195Y2649440D1*
X582733Y2649054D1*
X582728Y2718219D1*
X577308Y2717049D1*
X568700Y2716372D1*
X560092Y2717049D1*
X551696Y2719065D1*
X543718Y2722370D1*
X536356Y2726881D1*
X529790Y2732489D1*
X524182Y2739055D1*
X519670Y2746417D1*
X518730Y2748456D1*
X515619Y2742648D1*
X510543Y2735662D1*
X504438Y2729556D1*
X497452Y2724481D1*
X489758Y2720561D1*
X481546Y2717892D1*
X473017Y2716542D1*
X464383D1*
X455854Y2717892D1*
X447642Y2720561D1*
X439948Y2724481D1*
X436210Y2726996D1*
X436200Y2650900D1*
X518670Y1572906D2*
X515619Y1567098D1*
X510543Y1560112D1*
X504438Y1554006D1*
X497452Y1548931D1*
X491643Y1545880D1*
X497452Y1542768D1*
X504438Y1537693D1*
X510543Y1531587D1*
X515619Y1524601D1*
X518670Y1518793D1*
X521781Y1524601D1*
X526857Y1531587D1*
X532962Y1537693D1*
X539948Y1542768D1*
X545757Y1545819D1*
X539948Y1548931D1*
X532962Y1554006D1*
X526857Y1560112D1*
X521781Y1567098D1*
X518730Y1572906D1*
X617538Y721196D2*
X620576Y714205D1*
X622558Y707134D1*
X622806Y705844D1*
X622807Y721186D1*
X617523Y721200D1*
X436201Y3126427D2*
X523728D1*
Y3103109D1*
X527748Y3108155D1*
X533006Y3113280D1*
X538901Y3117660D1*
X545326Y3121216D1*
X552168Y3123885D1*
X559304Y3125619D1*
X566607Y3126387D1*
X573948Y3126176D1*
X581195Y3124990D1*
X588219Y3122849D1*
X594896Y3119791D1*
X601107Y3115872D1*
X606740Y3111161D1*
X611696Y3105742D1*
X615886Y3099711D1*
X619235Y3093176D1*
X621685Y3086253D1*
X623191Y3079065D1*
X623728Y3071399D1*
X623238Y3064072D1*
X621776Y3056875D1*
X619370Y3049937D1*
X616654Y3044423D1*
X836542Y3044337D1*
X841114Y3043613D1*
X845517Y3042183D1*
X849641Y3040081D1*
X853386Y3037360D1*
X872660Y3018087D1*
X875380Y3014342D1*
X877482Y3010218D1*
X878912Y3005815D1*
X879637Y3001243D1*
X879728Y2916251D1*
X879913Y2277637D1*
X964905Y2277728D1*
X1210865Y2277637D1*
X1215437Y2276912D1*
X1219840Y2275482D1*
X1223964Y2273380D1*
X1227709Y2270660D1*
X1236895Y2261602D1*
X1239575Y2267141D1*
X1242295Y2270886D1*
X1268790Y2297517D1*
X1267404Y2306269D1*
Y2315131D1*
X1268790Y2323883D1*
X1269435Y2326166D1*
X1084826Y2326123D1*
X1079777Y2321074D1*
X1074001Y2316877D1*
X1067640Y2313636D1*
X1060849Y2311430D1*
X1053797Y2310313D1*
X1046658D1*
X1039606Y2311430D1*
X1032815Y2313636D1*
X1026454Y2316877D1*
X1020678Y2321074D1*
X1015629Y2326123D1*
X1011432Y2331899D1*
X1008191Y2338260D1*
X1005985Y2345051D1*
X1004922Y2351645D1*
X998224Y2351145D1*
X991106Y2351705D1*
X984163Y2353372D1*
X977567Y2356104D1*
X971479Y2359835D1*
X966050Y2364472D1*
X961413Y2369901D1*
X957683Y2375988D1*
X954951Y2382585D1*
X953284Y2389527D1*
X952724Y2396645D1*
X953284Y2403763D1*
X954951Y2410705D1*
X957683Y2417301D1*
X961413Y2423389D1*
X966050Y2428818D1*
X971479Y2433455D1*
X977567Y2437186D1*
X984163Y2439918D1*
X991106Y2441585D1*
X998224Y2442145D1*
X1001863Y2441996D1*
X1253120Y2693132D1*
X1256865Y2695853D1*
X1260990Y2697955D1*
X1265392Y2699385D1*
X1269964Y2700109D1*
X1354956Y2700200D1*
X1494102Y2700250D1*
X1499150Y2705298D1*
X1504926Y2709495D1*
X1511288Y2712737D1*
X1518078Y2714943D1*
X1525130Y2716060D1*
X1532270D1*
X1539322Y2714943D1*
X1546112Y2712737D1*
X1552474Y2709495D1*
X1558250Y2705298D1*
X1563298Y2700250D1*
X1567495Y2694474D1*
X1570737Y2688112D1*
X1572943Y2681322D1*
X1574060Y2674270D1*
Y2667130D1*
X1572943Y2660078D1*
X1570737Y2653288D1*
X1567495Y2646926D1*
X1563298Y2641150D1*
X1558250Y2636102D1*
X1552474Y2631905D1*
X1546112Y2628663D1*
X1539322Y2626457D1*
X1532270Y2625340D1*
X1525130D1*
X1518078Y2626457D1*
X1511288Y2628663D1*
X1504926Y2631905D1*
X1499150Y2636102D1*
X1494058Y2641205D1*
X1284508Y2641200D1*
X1044042Y2400744D1*
X1050228Y2401172D1*
X1057345Y2400612D1*
X1064288Y2398946D1*
X1070884Y2396213D1*
X1076972Y2392483D1*
X1082401Y2387846D1*
X1084869Y2385168D1*
X1273320Y2385173D1*
X1270530Y2391679D1*
X1268511Y2398740D1*
X1267426Y2406004D1*
X1267292Y2413346D1*
X1268113Y2420644D1*
X1269873Y2427774D1*
X1272544Y2434615D1*
X1276080Y2441051D1*
X1280422Y2446975D1*
X1285495Y2452284D1*
X1291215Y2456891D1*
X1297484Y2460716D1*
X1304197Y2463695D1*
X1311239Y2465778D1*
X1318492Y2466929D1*
X1325833Y2467130D1*
X1333138Y2466375D1*
X1340284Y2464680D1*
X1347149Y2462071D1*
X1353617Y2458594D1*
X1359580Y2454306D1*
X1364935Y2449281D1*
X1369593Y2443604D1*
X1373475Y2437370D1*
X1376515Y2430685D1*
X1378662Y2423661D1*
X1379879Y2416419D1*
X1380140Y2408863D1*
X1379424Y2401554D1*
X1377766Y2394400D1*
X1375194Y2387521D1*
X1374063Y2385174D1*
X1383696Y2385222D1*
X1388745Y2390271D1*
X1394521Y2394468D1*
X1400882Y2397709D1*
X1407673Y2399915D1*
X1414725Y2401032D1*
X1421864D1*
X1428916Y2399915D1*
X1435707Y2397709D1*
X1442068Y2394468D1*
X1447844Y2390271D1*
X1452893Y2385222D1*
X1457090Y2379446D1*
X1460331Y2373085D1*
X1462537Y2366294D1*
X1463654Y2359242D1*
Y2352103D1*
X1462537Y2345051D1*
X1461051Y2340211D1*
X1511482Y2340200D1*
X1639225Y2467945D1*
X1639291Y3223015D1*
X1640015Y3227587D1*
X1641445Y3231989D1*
X1643547Y3236114D1*
X1646268Y3239859D1*
X1649541Y3243132D1*
X1653286Y3245853D1*
X1657411Y3247955D1*
X1659593Y3248759D1*
X1662054Y3250250D1*
X1667103Y3255298D1*
X1672879Y3259495D1*
X1679241Y3262737D1*
X1686031Y3264943D1*
X1693083Y3266060D1*
X1700223D1*
X1707275Y3264943D1*
X1714065Y3262737D1*
X1720426Y3259495D1*
X1726203Y3255298D1*
X1731251Y3250250D1*
X1735448Y3244474D1*
X1738689Y3238112D1*
X1740896Y3231322D1*
X1742012Y3224270D1*
Y3217130D1*
X1740896Y3210078D1*
X1738689Y3203288D1*
X1735448Y3196926D1*
X1731251Y3191150D1*
X1726203Y3186102D1*
X1720426Y3181905D1*
X1714065Y3178663D1*
X1707275Y3176457D1*
X1700223Y3175340D1*
X1698201Y3175261D1*
X1698200Y3024521D1*
X1741344Y3067721D1*
Y3074860D1*
X1742461Y3081912D1*
X1744667Y3088703D1*
X1747909Y3095064D1*
X1752105Y3100840D1*
X1757154Y3105889D1*
X1762930Y3110086D1*
X1769292Y3113327D1*
X1776082Y3115533D1*
X1783134Y3116650D1*
X1790274D1*
X1797326Y3115533D1*
X1804116Y3113327D1*
X1810478Y3110086D1*
X1816254Y3105889D1*
X1818170Y3104118D1*
X1821527Y3107873D1*
X1826956Y3112510D1*
X1833043Y3116241D1*
X1839640Y3118973D1*
X1846582Y3120640D1*
X1853700Y3121200D1*
X1860818Y3120640D1*
X1867760Y3118973D1*
X1874357Y3116241D1*
X1880444Y3112510D1*
X1885873Y3107873D1*
X1890510Y3102444D1*
X1894241Y3096357D1*
X1896973Y3089760D1*
X1898640Y3082818D1*
X1899200Y3075700D1*
X1898640Y3068582D1*
X1896973Y3061640D1*
X1894241Y3055043D1*
X1890510Y3048956D1*
X1885873Y3043527D1*
X1880444Y3038890D1*
X1874357Y3035159D1*
X1867760Y3032427D1*
X1860818Y3030760D1*
X1853700Y3030200D1*
X1850061Y3030348D1*
X1768218Y2948498D1*
X1768200Y2618401D1*
X1773043Y2621241D1*
X1779640Y2623973D1*
X1786582Y2625640D1*
X1793700Y2626200D1*
X1800818Y2625640D1*
X1807760Y2623973D1*
X1814357Y2621241D1*
X1820444Y2617510D1*
X1825873Y2612873D1*
X1830510Y2607444D1*
X1834241Y2601357D1*
X1836973Y2594760D1*
X1838640Y2587818D1*
X1838956Y2585143D1*
X1845130Y2586060D1*
X1852270D1*
X1859322Y2584943D1*
X1866112Y2582737D1*
X1872474Y2579495D1*
X1878250Y2575298D1*
X1883298Y2570250D1*
X1887495Y2564474D1*
X1890737Y2558112D1*
X1892943Y2551322D1*
X1894060Y2544270D1*
Y2537130D1*
X1892943Y2530078D1*
X1890737Y2523288D1*
X1887495Y2516926D1*
X1883298Y2511150D1*
X1878250Y2506102D1*
X1872474Y2501905D1*
X1866112Y2498663D1*
X1859322Y2496457D1*
X1852270Y2495340D1*
X1845130D1*
X1843204Y2495568D1*
X1843200Y2192946D1*
X1884623Y2151497D1*
X1890508Y2156385D1*
X1897474Y2160685D1*
X1890508Y2165015D1*
X1883770Y2170770D1*
X1878015Y2177508D1*
X1873385Y2185063D1*
X1869994Y2193250D1*
X1867925Y2201866D1*
X1867230Y2210700D1*
X1867925Y2219534D1*
X1869994Y2228150D1*
X1873385Y2236337D1*
X1878015Y2243892D1*
X1883770Y2250630D1*
X1890508Y2256385D1*
X1897474Y2260685D1*
X1890508Y2265015D1*
X1883770Y2270770D1*
X1878015Y2277508D1*
X1873385Y2285063D1*
X1869994Y2293250D1*
X1867925Y2301866D1*
X1867230Y2310700D1*
X1867925Y2319534D1*
X1869994Y2328150D1*
X1873385Y2336337D1*
X1878015Y2343892D1*
X1883770Y2350630D1*
X1890508Y2356385D1*
X1897474Y2360685D1*
X1890508Y2365015D1*
X1883770Y2370770D1*
X1878015Y2377508D1*
X1873385Y2385063D1*
X1869994Y2393250D1*
X1867925Y2401866D1*
X1867230Y2410700D1*
X1867925Y2419534D1*
X1869994Y2428150D1*
X1873385Y2436337D1*
X1878015Y2443892D1*
X1883770Y2450630D1*
X1890508Y2456385D1*
X1898063Y2461015D1*
X1906250Y2464406D1*
X1914866Y2466475D1*
X1923700Y2467170D1*
X1926313Y2467067D1*
X1970693Y2511434D1*
X1970817Y2553681D1*
X1971750Y2559571D1*
X1973593Y2565242D1*
X1976300Y2570555D1*
X1979805Y2575379D1*
X1984021Y2579595D1*
X1988845Y2583100D1*
X1994158Y2585807D1*
X1999829Y2587650D1*
X2005719Y2588583D1*
X2011681D1*
X2015753Y2588012D1*
X2048854Y2588011D1*
X2048830Y2688011D1*
X2123109Y2688175D1*
X2116175Y2695109D1*
X2110410Y2703044D1*
X2105958Y2711782D1*
X2102927Y2721110D1*
X2101393Y2730796D1*
Y2740604D1*
X2102927Y2750290D1*
X2105958Y2759618D1*
X2110410Y2768356D1*
X2116175Y2776291D1*
X2123109Y2783225D1*
X2131044Y2788990D1*
X2134907Y2791154D1*
X2136446Y2795989D1*
X2138547Y2800114D1*
X2141274Y2803865D1*
X2142035Y2810907D1*
Y2816900D1*
X2134519Y2822360D1*
X2128194Y2828684D1*
X2122938Y2835920D1*
X2122348Y2836972D1*
X2118665Y2831448D1*
X2113883Y2825874D1*
X2108423Y2820962D1*
X2102378Y2816793D1*
X2095846Y2813435D1*
X2088937Y2810946D1*
X2081765Y2809365D1*
X2074450Y2808720D1*
X2067112Y2809020D1*
X2059873Y2810262D1*
X2052855Y2812424D1*
X2046173Y2815471D1*
X2039938Y2819351D1*
X2034253Y2824002D1*
X2029214Y2829344D1*
X2024904Y2835290D1*
X2021394Y2841741D1*
X2018742Y2848589D1*
X2016994Y2855722D1*
X2016176Y2863021D1*
X2016304Y2870363D1*
X2017376Y2877629D1*
X2019372Y2884696D1*
X2022261Y2891448D1*
X2025994Y2897773D1*
X2030509Y2903565D1*
X2035731Y2908728D1*
X2041574Y2913177D1*
X2047941Y2916838D1*
X2054725Y2919650D1*
X2061815Y2921566D1*
X2069092Y2922554D1*
X2076436Y2922599D1*
X2083725Y2921699D1*
X2090837Y2919869D1*
X2093211Y2919026D1*
X2093295Y3062015D1*
X2094019Y3066587D1*
X2095449Y3070989D1*
X2097551Y3075114D1*
X2100272Y3078859D1*
X2119545Y3098132D1*
X2123290Y3100853D1*
X2127415Y3102955D1*
X2131826Y3104387D1*
X2133200Y3109878D1*
Y3149133D1*
X2191225D1*
X2191291Y3249987D1*
X2192015Y3254559D1*
X2193446Y3258962D1*
X2195547Y3263086D1*
X2198268Y3266831D1*
X2217541Y3286104D1*
X2221286Y3288825D1*
X2225411Y3290927D1*
X2229813Y3292357D1*
X2234385Y3293082D1*
X2319377Y3293172D1*
X2754312Y3293319D1*
X2751177Y3299960D1*
X2748929Y3306951D1*
X2747608Y3314176D1*
X2747236Y3321510D1*
X2747819Y3328831D1*
X2749346Y3336014D1*
X2751793Y3342938D1*
X2755118Y3349486D1*
X2759265Y3355548D1*
X2764163Y3361019D1*
X2769730Y3365809D1*
X2775871Y3369836D1*
X2782918Y3373201D1*
X587763Y3373200D1*
X598300Y3363957D1*
X604056Y3357730D1*
X609306Y3351071D1*
X614017Y3344020D1*
X618161Y3336621D1*
X621711Y3328920D1*
X624646Y3320964D1*
X626948Y3312802D1*
X628603Y3304485D1*
X629599Y3296063D1*
X629932Y3287590D1*
X629599Y3279116D1*
X628603Y3270695D1*
X626948Y3262378D1*
X624646Y3254216D1*
X621711Y3246260D1*
X618161Y3238559D1*
X614017Y3231160D1*
X609306Y3224109D1*
X604056Y3217449D1*
X598300Y3211222D1*
X592073Y3205466D1*
X585413Y3200216D1*
X578362Y3195505D1*
X570963Y3191361D1*
X563262Y3187811D1*
X555306Y3184876D1*
X547144Y3182574D1*
X538827Y3180919D1*
X530406Y3179923D1*
X521932Y3179590D1*
X513459Y3179923D1*
X505037Y3180919D1*
X496720Y3182574D1*
X488558Y3184876D1*
X480602Y3187811D1*
X472901Y3191361D1*
X465502Y3195505D1*
X458451Y3200216D1*
X451792Y3205466D1*
X445565Y3211222D1*
X439808Y3217449D1*
X436220Y3222002D1*
X436200Y3126437D1*
X2324200Y3046202D2*
Y3037700D1*
X2266175D1*
X2266200Y2971959D1*
X2272707Y2965315D1*
X2275428Y2961570D1*
X2277529Y2957446D1*
X2278960Y2953043D1*
X2279684Y2948471D1*
X2279775Y2914471D1*
X2287291Y2909040D1*
X2291704Y2904783D1*
Y2922696D1*
X2389238Y2922811D1*
X2384801Y2930851D1*
X2381166Y2939283D1*
X2378367Y2948029D1*
X2376431Y2957005D1*
X2375377Y2966127D1*
X2375214Y2975309D1*
X2375943Y2984462D1*
X2377559Y2993502D1*
X2380045Y3002341D1*
X2383379Y3010898D1*
X2387528Y3019090D1*
X2392453Y3026840D1*
X2398108Y3034075D1*
X2404439Y3040726D1*
X2410719Y3046198D1*
X2324228Y3046200D1*
X1364591Y3118602D2*
X1481208D1*
Y2992798D1*
X1355405D1*
Y3118602D1*
X1364591D1*
X1181801Y3050765D2*
X1180257Y3041016D1*
X1177207Y3031629D1*
X1172726Y3022834D1*
X1166924Y3014849D1*
X1159945Y3007869D1*
X1151960Y3002068D1*
X1143165Y2997587D1*
X1133778Y2994536D1*
X1124029Y2992992D1*
X1114159D1*
X1104410Y2994536D1*
X1095022Y2997587D1*
X1086228Y3002068D1*
X1078242Y3007869D1*
X1071263Y3014849D1*
X1065461Y3022834D1*
X1060980Y3031629D1*
X1057930Y3041016D1*
X1056386Y3050765D1*
Y3060635D1*
X1057930Y3070384D1*
X1060980Y3079771D1*
X1065461Y3088566D1*
X1071263Y3096551D1*
X1078242Y3103531D1*
X1086228Y3109332D1*
X1095022Y3113813D1*
X1104410Y3116864D1*
X1114159Y3118408D1*
X1124029D1*
X1133778Y3116864D1*
X1143165Y3113813D1*
X1151960Y3109332D1*
X1159945Y3103531D1*
X1166924Y3096551D1*
X1172726Y3088566D1*
X1177207Y3079771D1*
X1180257Y3070384D1*
X1181801Y3060635D1*
Y3050765D1*
X1371857Y2081210D2*
X1366640Y2074026D1*
X1360374Y2067760D1*
X1353205Y2062552D1*
X1349926Y2060715D1*
X1356892Y2056385D1*
X1363630Y2050630D1*
X1369385Y2043892D1*
X1374015Y2036337D1*
X1377406Y2028150D1*
X1379475Y2019534D1*
X1380170Y2010700D1*
X1379475Y2001866D1*
X1377406Y1993250D1*
X1374015Y1985063D1*
X1369385Y1977508D1*
X1363630Y1970770D1*
X1356892Y1965015D1*
X1349926Y1960715D1*
X1356892Y1956385D1*
X1363630Y1950630D1*
X1369385Y1943892D1*
X1374015Y1936337D1*
X1377406Y1928150D1*
X1379475Y1919534D1*
X1380170Y1910700D1*
X1379475Y1901866D1*
X1377406Y1893250D1*
X1374015Y1885063D1*
X1369385Y1877508D1*
X1363630Y1870770D1*
X1356892Y1865015D1*
X1349926Y1860715D1*
X1356892Y1856385D1*
X1363630Y1850630D1*
X1369385Y1843892D1*
X1374015Y1836337D1*
X1377406Y1828150D1*
X1379475Y1819534D1*
X1380170Y1810700D1*
X1379475Y1801866D1*
X1377406Y1793250D1*
X1374015Y1785063D1*
X1369385Y1777508D1*
X1363630Y1770770D1*
X1356892Y1765015D1*
X1349926Y1760715D1*
X1357314Y1756053D1*
X1534183Y1932902D1*
X1534150Y1966102D1*
X1529102Y1971150D1*
X1524905Y1976926D1*
X1521663Y1983288D1*
X1519457Y1990078D1*
X1518340Y1997130D1*
Y2004270D1*
X1519457Y2011322D1*
X1521663Y2018112D1*
X1524905Y2024474D1*
X1529102Y2030250D1*
X1534150Y2035298D1*
X1539926Y2039495D1*
X1546288Y2042737D1*
X1553078Y2044943D1*
X1560130Y2046060D1*
X1567270D1*
X1574322Y2044943D1*
X1581112Y2042737D1*
X1587474Y2039495D1*
X1593250Y2035298D1*
X1598298Y2030250D1*
X1602495Y2024474D1*
X1605737Y2018112D1*
X1607943Y2011322D1*
X1609060Y2004270D1*
Y1997130D1*
X1607943Y1990078D1*
X1605737Y1983288D1*
X1602495Y1976926D1*
X1598298Y1971150D1*
X1593195Y1966058D1*
X1593109Y1918385D1*
X1592385Y1913813D1*
X1590954Y1909411D1*
X1588853Y1905286D1*
X1586132Y1901541D1*
X1526098Y1841379D1*
X1380426Y1695707D1*
X1392948Y1683172D1*
X1769015Y1683082D1*
X1771324Y1682808D1*
X1773200Y1691088D1*
Y2034464D1*
X1726500Y2081181D1*
X1371856Y2081200D1*
X2856609Y3001089D2*
X2854015Y2995063D1*
X2849385Y2987508D1*
X2843630Y2980770D1*
X2836892Y2975015D1*
X2829926Y2970715D1*
X2836892Y2966385D1*
X2843630Y2960630D1*
X2849385Y2953892D1*
X2854015Y2946337D1*
X2857406Y2938150D1*
X2859475Y2929534D1*
X2860170Y2920700D1*
X2859475Y2911866D1*
X2857406Y2903250D1*
X2854015Y2895063D1*
X2849385Y2887508D1*
X2843630Y2880770D1*
X2836892Y2875015D1*
X2829926Y2870715D1*
X2836892Y2866385D1*
X2843630Y2860630D1*
X2849385Y2853892D1*
X2854015Y2846337D1*
X2857406Y2838150D1*
X2859475Y2829534D1*
X2860170Y2820700D1*
X2859475Y2811866D1*
X2858605Y2807501D1*
X2869104Y2796886D1*
X2871825Y2793141D1*
X2873930Y2789008D1*
X2874873Y2787774D1*
X2877544Y2794615D1*
X2881080Y2801051D1*
X2885422Y2806975D1*
X2890495Y2812284D1*
X2896215Y2816891D1*
X2902453Y2820699D1*
X2895508Y2825015D1*
X2888770Y2830770D1*
X2883015Y2837508D1*
X2878385Y2845063D1*
X2874994Y2853250D1*
X2872925Y2861866D1*
X2872230Y2870700D1*
X2872925Y2879534D1*
X2874994Y2888150D1*
X2878385Y2896337D1*
X2883015Y2903892D1*
X2888770Y2910630D1*
X2895508Y2916385D1*
X2902474Y2920685D1*
X2895508Y2925015D1*
X2888770Y2930770D1*
X2883015Y2937508D1*
X2878385Y2945063D1*
X2874994Y2953250D1*
X2872925Y2961866D1*
X2872230Y2970700D1*
X2872925Y2979534D1*
X2873795Y2983899D1*
X2856661Y3001020D1*
X2777474Y2970715D2*
X2770508Y2975015D1*
X2763770Y2980770D1*
X2758015Y2987508D1*
X2753385Y2995063D1*
X2749994Y3003250D1*
X2747925Y3011866D1*
X2747230Y3020700D1*
X2747925Y3029534D1*
X2749994Y3038150D1*
X2753320Y3046195D1*
X2528409Y3046200D1*
X2535699Y3039753D1*
X2541931Y3033009D1*
X2547478Y3025691D1*
X2552288Y3017869D1*
X2556315Y3009616D1*
X2559521Y3001011D1*
X2561876Y2992136D1*
X2563358Y2983073D1*
X2563952Y2973910D1*
X2563678Y2965051D1*
X2562519Y2955942D1*
X2560481Y2946988D1*
X2557583Y2938275D1*
X2553851Y2929885D1*
X2549322Y2921896D1*
X2544038Y2914386D1*
X2538050Y2907425D1*
X2531414Y2901078D1*
X2524192Y2895406D1*
X2516453Y2890463D1*
X2508271Y2886295D1*
X2499722Y2882942D1*
X2490888Y2880435D1*
X2481853Y2878798D1*
X2472701Y2878047D1*
X2463519Y2878189D1*
X2454395Y2879222D1*
X2445414Y2881137D1*
X2436661Y2883916D1*
X2428221Y2887532D1*
X2420171Y2891950D1*
X2412589Y2897130D1*
X2405700Y2902883D1*
X2405696Y2808704D1*
X2389082D1*
X2415851Y2781739D1*
X2419293Y2777002D1*
X2421951Y2771785D1*
X2423760Y2766217D1*
X2424676Y2760434D1*
X2424791Y2711575D1*
X2424676Y2597773D1*
X2423760Y2591990D1*
X2421951Y2586422D1*
X2419292Y2581205D1*
X2415851Y2576468D1*
X2411711Y2572328D1*
X2406975Y2568887D1*
X2401758Y2566229D1*
X2396190Y2564420D1*
X2393305Y2563847D1*
X2391169Y2560452D1*
Y2549866D1*
X2748790Y2907517D1*
X2747404Y2916269D1*
Y2925131D1*
X2748790Y2933883D1*
X2751529Y2942310D1*
X2755552Y2950205D1*
X2760760Y2957374D1*
X2767026Y2963640D1*
X2774195Y2968848D1*
X2777474Y2970685D1*
X2944176Y2616398D2*
X2936537Y2614777D1*
X2932934Y2614390D1*
X2933676Y2606172D1*
X2933116Y2599055D1*
X2931449Y2592112D1*
X2928717Y2585516D1*
X2924987Y2579428D1*
X2920350Y2573999D1*
X2914921Y2569362D1*
X2913238Y2568238D1*
X2913232Y2442909D1*
X2944152Y2473837D1*
X2944172Y2616402D1*
X2046623Y2970556D2*
X2045998Y2961394D1*
X2044486Y2952337D1*
X2042101Y2943469D1*
X2038865Y2934876D1*
X2034810Y2926637D1*
X2029974Y2918831D1*
X2024402Y2911532D1*
X2018147Y2904809D1*
X2011269Y2898725D1*
X2003832Y2893339D1*
X1995906Y2888700D1*
X1987568Y2884854D1*
X1978895Y2881836D1*
X1969971Y2879675D1*
X1960878Y2878391D1*
X1951704Y2877997D1*
X1942535Y2878496D1*
X1933457Y2879883D1*
X1924558Y2882146D1*
X1915920Y2885263D1*
X1907627Y2889205D1*
X1899755Y2893933D1*
X1892380Y2899405D1*
X1885572Y2905566D1*
X1879394Y2912360D1*
X1873906Y2919723D1*
X1869159Y2927583D1*
X1865198Y2935868D1*
X1862061Y2944498D1*
X1859778Y2953393D1*
X1858369Y2962467D1*
X1857849Y2971635D1*
X1858222Y2980810D1*
X1859484Y2989905D1*
X1861625Y2998835D1*
X1864623Y3007515D1*
X1868450Y3015862D1*
X1873070Y3023798D1*
X1878439Y3031247D1*
X1884506Y3038140D1*
X1891215Y3044410D1*
X1898501Y3049999D1*
X1906296Y3054853D1*
X1914525Y3058928D1*
X1923111Y3062183D1*
X1931973Y3064589D1*
X1941027Y3066122D1*
X1950187Y3066768D1*
X1959367Y3066521D1*
X1968479Y3065384D1*
X1977437Y3063366D1*
X1986157Y3060488D1*
X1994556Y3056776D1*
X2002555Y3052266D1*
X2010077Y3047000D1*
X2017053Y3041027D1*
X2023415Y3034406D1*
X2029103Y3027197D1*
X2034064Y3019470D1*
X2038251Y3011297D1*
X2041624Y3002756D1*
X2044152Y2993928D1*
X2045809Y2984896D1*
X2046581Y2975746D1*
X2046623Y2970556D1*
X672859Y610727D2*
X773728D1*
Y587439D1*
X779790Y594610D1*
X786356Y600218D1*
X793718Y604730D1*
X801696Y608034D1*
X810092Y610050D1*
X818700Y610728D1*
X827308Y610050D1*
X835704Y608034D1*
X843682Y604730D1*
X851044Y600218D1*
X857610Y594610D1*
X863218Y588044D1*
X867730Y580682D1*
X871034Y572704D1*
X873050Y564308D1*
X873728Y555700D1*
X873050Y547092D1*
X871034Y538696D1*
X867730Y530718D1*
X863218Y523356D1*
X857610Y516790D1*
X851044Y511182D1*
X843682Y506670D1*
X835704Y503366D1*
X827308Y501350D1*
X818700Y500672D1*
X810092Y501350D1*
X801696Y503366D1*
X793718Y506670D1*
X786356Y511182D1*
X779790Y516790D1*
X774182Y523356D1*
X773722Y524043D1*
X773728Y500672D1*
X663673D1*
Y610727D1*
X672859D1*
X4058698Y1857722D2*
X4055099Y1851117D1*
X4050747Y1845202D1*
X4045645Y1839919D1*
X4039886Y1835363D1*
X4033571Y1831614D1*
X4026814Y1828739D1*
X4019734Y1826790D1*
X4012457Y1825801D1*
X4005113Y1825789D1*
X3997834Y1826756D1*
X3990747Y1828683D1*
X3983981Y1831537D1*
X3977655Y1835266D1*
X3971881Y1839805D1*
X3966764Y1845072D1*
X3963724Y1849006D1*
X3963728Y1825672D1*
X3871900D1*
X3872200Y1820700D1*
X3871640Y1813582D1*
X3869973Y1806640D1*
X3867241Y1800043D1*
X3863510Y1793956D1*
X3858873Y1788527D1*
X3853201Y1783727D1*
X3853200Y1607455D1*
X3913760Y1607364D1*
X3918332Y1606640D1*
X3922735Y1605209D1*
X3926859Y1603108D1*
X3930604Y1600387D1*
X3990767Y1540353D1*
X4298730Y1232389D1*
X4298727Y1241565D1*
X4294905Y1246926D1*
X4291663Y1253288D1*
X4289457Y1260078D1*
X4288340Y1267130D1*
Y1274270D1*
X4289457Y1281322D1*
X4291663Y1288112D1*
X4294905Y1294474D1*
X4299102Y1300250D1*
X4304150Y1305298D1*
X4309926Y1309495D1*
X4316288Y1312737D1*
X4318946Y1313717D1*
X3986997Y1645683D1*
X3947669Y1645654D1*
X3942620Y1640605D1*
X3936844Y1636409D1*
X3930482Y1633167D1*
X3923692Y1630961D1*
X3916640Y1629844D1*
X3909500D1*
X3902448Y1630961D1*
X3895658Y1633167D1*
X3889296Y1636409D1*
X3883520Y1640605D1*
X3878472Y1645654D1*
X3874275Y1651430D1*
X3871034Y1657792D1*
X3868827Y1664582D1*
X3867710Y1671634D1*
Y1678774D1*
X3868827Y1685826D1*
X3871034Y1692616D1*
X3874275Y1698978D1*
X3878472Y1704754D1*
X3883520Y1709802D1*
X3889296Y1713999D1*
X3895658Y1717240D1*
X3902448Y1719447D1*
X3909500Y1720564D1*
X3916640D1*
X3923692Y1719447D1*
X3930482Y1717240D1*
X3936844Y1713999D1*
X3942620Y1709802D1*
X3947712Y1704699D1*
X4001511Y1704613D1*
X4006083Y1703889D1*
X4010485Y1702458D1*
X4014610Y1700357D1*
X4018355Y1697636D1*
X4078517Y1637602D1*
X4084176Y1631944D1*
X4084200Y1831448D1*
X4079948Y1833781D1*
X4072962Y1838857D1*
X4066857Y1844962D1*
X4061781Y1851948D1*
X4058730Y1857757D1*
X4258698Y1857722D2*
X4256112Y1852737D1*
X4262474Y1849495D1*
X4264179Y1848355D1*
X4259670Y1855718D1*
X4258730Y1857757D1*
X4204998Y2525561D2*
X4203390Y2515409D1*
X4200214Y2505634D1*
X4195548Y2496476D1*
X4189507Y2488161D1*
X4182239Y2480893D1*
X4173924Y2474852D1*
X4164766Y2470186D1*
X4154991Y2467010D1*
X4144839Y2465402D1*
X4134561D1*
X4124409Y2467010D1*
X4114634Y2470186D1*
X4105476Y2474852D1*
X4097161Y2480893D1*
X4089893Y2488161D1*
X4083852Y2496476D1*
X4079186Y2505634D1*
X4076010Y2515409D1*
X4074402Y2525561D1*
Y2535839D1*
X4076010Y2545991D1*
X4079186Y2555766D1*
X4083852Y2564924D1*
X4089893Y2573239D1*
X4097161Y2580507D1*
X4105476Y2586548D1*
X4114634Y2591214D1*
X4124409Y2594390D1*
X4134561Y2595998D1*
X4144839D1*
X4154991Y2594390D1*
X4164766Y2591214D1*
X4173924Y2586548D1*
X4182239Y2580507D1*
X4189507Y2573239D1*
X4195548Y2564924D1*
X4200214Y2555766D1*
X4203390Y2545991D1*
X4204998Y2535839D1*
Y2525561D1*
X4642998D2*
X4641390Y2515409D1*
X4638214Y2505634D1*
X4633548Y2496476D1*
X4627507Y2488161D1*
X4620239Y2480893D1*
X4611924Y2474852D1*
X4602766Y2470186D1*
X4592991Y2467010D1*
X4582839Y2465402D1*
X4572561D1*
X4562409Y2467010D1*
X4552634Y2470186D1*
X4543476Y2474852D1*
X4535161Y2480893D1*
X4527893Y2488161D1*
X4521852Y2496476D1*
X4517186Y2505634D1*
X4514010Y2515409D1*
X4512402Y2525561D1*
Y2535839D1*
X4514010Y2545991D1*
X4517186Y2555766D1*
X4521852Y2564924D1*
X4527893Y2573239D1*
X4535161Y2580507D1*
X4543476Y2586548D1*
X4552634Y2591214D1*
X4562409Y2594390D1*
X4572561Y2595998D1*
X4582839D1*
X4592991Y2594390D1*
X4602766Y2591214D1*
X4611924Y2586548D1*
X4620239Y2580507D1*
X4627507Y2573239D1*
X4633548Y2564924D1*
X4638214Y2555766D1*
X4641390Y2545991D1*
X4642998Y2535839D1*
Y2525561D1*
X4342998D2*
X4341390Y2515409D1*
X4338214Y2505634D1*
X4333548Y2496476D1*
X4327507Y2488161D1*
X4320239Y2480893D1*
X4311924Y2474852D1*
X4302766Y2470186D1*
X4292991Y2467010D1*
X4282839Y2465402D1*
X4272561D1*
X4262409Y2467010D1*
X4252634Y2470186D1*
X4243476Y2474852D1*
X4235161Y2480893D1*
X4227893Y2488161D1*
X4221852Y2496476D1*
X4217186Y2505634D1*
X4214010Y2515409D1*
X4212402Y2525561D1*
Y2535839D1*
X4214010Y2545991D1*
X4217186Y2555766D1*
X4221852Y2564924D1*
X4227893Y2573239D1*
X4235161Y2580507D1*
X4243476Y2586548D1*
X4252634Y2591214D1*
X4262409Y2594390D1*
X4272561Y2595998D1*
X4282839D1*
X4292991Y2594390D1*
X4302766Y2591214D1*
X4311924Y2586548D1*
X4320239Y2580507D1*
X4327507Y2573239D1*
X4333548Y2564924D1*
X4338214Y2555766D1*
X4341390Y2545991D1*
X4342998Y2535839D1*
Y2525561D1*
X4504998D2*
X4503390Y2515409D1*
X4500214Y2505634D1*
X4495548Y2496476D1*
X4489507Y2488161D1*
X4482239Y2480893D1*
X4473924Y2474852D1*
X4464766Y2470186D1*
X4454991Y2467010D1*
X4444839Y2465402D1*
X4434561D1*
X4424409Y2467010D1*
X4414634Y2470186D1*
X4405476Y2474852D1*
X4397161Y2480893D1*
X4389893Y2488161D1*
X4383852Y2496476D1*
X4379186Y2505634D1*
X4376010Y2515409D1*
X4374402Y2525561D1*
Y2535839D1*
X4376010Y2545991D1*
X4379186Y2555766D1*
X4383852Y2564924D1*
X4389893Y2573239D1*
X4397161Y2580507D1*
X4405476Y2586548D1*
X4414634Y2591214D1*
X4424409Y2594390D1*
X4434561Y2595998D1*
X4444839D1*
X4454991Y2594390D1*
X4464766Y2591214D1*
X4473924Y2586548D1*
X4482239Y2580507D1*
X4489507Y2573239D1*
X4495548Y2564924D1*
X4500214Y2555766D1*
X4503390Y2545991D1*
X4504998Y2535839D1*
Y2525561D1*
X4556801Y3050765D2*
X4555257Y3041016D1*
X4552207Y3031629D1*
X4547726Y3022834D1*
X4541924Y3014849D1*
X4534945Y3007869D1*
X4526960Y3002068D1*
X4518165Y2997587D1*
X4508778Y2994536D1*
X4499029Y2992992D1*
X4489159D1*
X4479410Y2994536D1*
X4470022Y2997587D1*
X4461228Y3002068D1*
X4453242Y3007869D1*
X4446263Y3014849D1*
X4440461Y3022834D1*
X4435980Y3031629D1*
X4432930Y3041016D1*
X4431386Y3050765D1*
Y3060635D1*
X4432930Y3070384D1*
X4435980Y3079771D1*
X4440461Y3088566D1*
X4446263Y3096551D1*
X4453242Y3103531D1*
X4461228Y3109332D1*
X4470022Y3113813D1*
X4479410Y3116864D1*
X4489159Y3118408D1*
X4499029D1*
X4508778Y3116864D1*
X4518165Y3113813D1*
X4526960Y3109332D1*
X4534945Y3103531D1*
X4541924Y3096551D1*
X4547726Y3088566D1*
X4552207Y3079771D1*
X4555257Y3070384D1*
X4556801Y3060635D1*
Y3050765D1*
X5263863Y1807013D2*
X5263082Y1797865D1*
X5261196Y1788880D1*
X5258234Y1780190D1*
X5254239Y1771924D1*
X5249271Y1764204D1*
X5243402Y1757145D1*
X5236719Y1750849D1*
X5229322Y1745412D1*
X5221320Y1740912D1*
X5212831Y1737417D1*
X5203980Y1734978D1*
X5194899Y1733631D1*
X5185721Y1733397D1*
X5176583Y1734278D1*
X5167619Y1736262D1*
X5158962Y1739319D1*
X5150740Y1743404D1*
X5143075Y1748457D1*
X5136080Y1754403D1*
X5129859Y1761154D1*
X5124502Y1768610D1*
X5120090Y1776661D1*
X5116689Y1785188D1*
X5114347Y1794065D1*
X5113100Y1803161D1*
X5112966Y1812341D1*
X5113947Y1821469D1*
X5116029Y1830410D1*
X5119181Y1839033D1*
X5123356Y1847209D1*
X5128493Y1854818D1*
X5134515Y1861748D1*
X5141333Y1867895D1*
X5148848Y1873170D1*
X5156947Y1877493D1*
X5165511Y1880801D1*
X5174413Y1883046D1*
X5183522Y1884193D1*
X5192702Y1884226D1*
X5201819Y1883145D1*
X5210737Y1880965D1*
X5219325Y1877719D1*
X5227455Y1873454D1*
X5235008Y1868235D1*
X5241871Y1862137D1*
X5247943Y1855251D1*
X5253134Y1847679D1*
X5257369Y1839534D1*
X5260583Y1830934D1*
X5262730Y1822008D1*
X5263777Y1812887D1*
X5263863Y1807013D1*
X5263652Y1999776D2*
X5262956Y1993889D1*
X5261799Y1988075D1*
X5260190Y1982369D1*
X5258138Y1976807D1*
X5255656Y1971424D1*
X5252759Y1966251D1*
X5249466Y1961322D1*
X5245796Y1956667D1*
X5241772Y1952313D1*
X5237418Y1948289D1*
X5232763Y1944619D1*
X5227834Y1941326D1*
X5222661Y1938429D1*
X5217278Y1935947D1*
X5211716Y1933895D1*
X5206010Y1932286D1*
X5200196Y1931130D1*
X5194309Y1930433D1*
X5188385Y1930200D1*
X5182461Y1930433D1*
X5176574Y1931130D1*
X5170760Y1932286D1*
X5165054Y1933895D1*
X5159492Y1935947D1*
X5154109Y1938429D1*
X5148936Y1941326D1*
X5144007Y1944619D1*
X5139352Y1948289D1*
X5134998Y1952313D1*
X5130974Y1956667D1*
X5127304Y1961322D1*
X5124049Y1966194D1*
X4921385Y1966291D1*
X4916813Y1967015D1*
X4912411Y1968445D1*
X4908286Y1970547D1*
X4904541Y1973268D1*
X4844379Y2033302D1*
X4766455Y2111225D1*
X3870938Y2111200D1*
X3866040Y2106834D1*
X3862093Y2104415D1*
X3857816Y2102644D1*
X3853315Y2101563D1*
X3848700Y2101200D1*
X3796847D1*
X3794241Y2095043D1*
X3790510Y2088956D1*
X3785873Y2083527D1*
X3780444Y2078890D1*
X3774357Y2075159D1*
X3767760Y2072427D1*
X3760818Y2070760D1*
X3753700Y2070200D1*
X3746582Y2070760D1*
X3739640Y2072427D1*
X3733043Y2075159D1*
X3726956Y2078890D1*
X3721527Y2083527D1*
X3716890Y2088956D1*
X3713159Y2095043D1*
X3710427Y2101640D1*
X3708760Y2108582D1*
X3708200Y2115700D1*
X3708760Y2122818D1*
X3710427Y2129760D1*
X3713159Y2136357D1*
X3716890Y2142444D1*
X3721527Y2147873D1*
X3726956Y2152510D1*
X3733043Y2156241D1*
X3739640Y2158973D1*
X3746582Y2160640D1*
X3753700Y2161200D1*
X3760818Y2160640D1*
X3764496Y2159894D1*
X3768709Y2160200D1*
X3836485D1*
X3841360Y2164566D1*
X3845307Y2166985D1*
X3849584Y2168756D1*
X3854085Y2169837D1*
X3858709Y2170200D1*
X4781015Y2170109D1*
X4785587Y2169385D1*
X4789989Y2167955D1*
X4794114Y2165853D1*
X4797859Y2163132D1*
X4858021Y2103098D1*
X4935894Y2025226D1*
X5115429Y2025200D1*
X5118632Y2034593D1*
X5121114Y2039976D1*
X5124011Y2045149D1*
X5127304Y2050078D1*
X5130974Y2054733D1*
X5134998Y2059087D1*
X5139352Y2063111D1*
X5144007Y2066781D1*
X5148936Y2070074D1*
X5154109Y2072971D1*
X5159492Y2075453D1*
X5165054Y2077505D1*
X5170760Y2079114D1*
X5176574Y2080270D1*
X5182461Y2080967D1*
X5188385Y2081200D1*
X5194309Y2080967D1*
X5200196Y2080270D1*
X5206010Y2079114D1*
X5211716Y2077505D1*
X5217278Y2075453D1*
X5222661Y2072971D1*
X5227834Y2070074D1*
X5232763Y2066781D1*
X5237418Y2063111D1*
X5241772Y2059087D1*
X5245796Y2054733D1*
X5249466Y2050078D1*
X5252759Y2045149D1*
X5255656Y2039976D1*
X5258138Y2034593D1*
X5260190Y2029031D1*
X5261799Y2023325D1*
X5262956Y2017511D1*
X5263652Y2011624D1*
X5263885Y2005700D1*
X5263652Y1999776D1*
X5263863Y2507013D2*
X5263082Y2497865D1*
X5261196Y2488880D1*
X5258234Y2480190D1*
X5254239Y2471924D1*
X5249271Y2464204D1*
X5243402Y2457145D1*
X5236719Y2450849D1*
X5229322Y2445412D1*
X5221320Y2440912D1*
X5212831Y2437417D1*
X5203980Y2434978D1*
X5194899Y2433631D1*
X5185721Y2433397D1*
X5176583Y2434278D1*
X5167619Y2436262D1*
X5158962Y2439319D1*
X5150740Y2443404D1*
X5143075Y2448457D1*
X5136080Y2454403D1*
X5129859Y2461154D1*
X5124502Y2468610D1*
X5120090Y2476661D1*
X5116689Y2485188D1*
X5114347Y2494065D1*
X5113100Y2503161D1*
X5112966Y2512341D1*
X5113947Y2521469D1*
X5116029Y2530410D1*
X5119181Y2539033D1*
X5123356Y2547209D1*
X5128493Y2554818D1*
X5134515Y2561748D1*
X5141333Y2567895D1*
X5148848Y2573170D1*
X5156947Y2577493D1*
X5165511Y2580801D1*
X5174413Y2583046D1*
X5183522Y2584193D1*
X5192702Y2584226D1*
X5201819Y2583145D1*
X5210737Y2580965D1*
X5219325Y2577719D1*
X5227455Y2573454D1*
X5235008Y2568235D1*
X5241871Y2562137D1*
X5247943Y2555251D1*
X5253134Y2547679D1*
X5257369Y2539534D1*
X5260583Y2530934D1*
X5262730Y2522008D1*
X5263777Y2512887D1*
X5263863Y2507013D1*
X5263652Y2699776D2*
X5262956Y2693889D1*
X5261799Y2688075D1*
X5260190Y2682369D1*
X5258138Y2676807D1*
X5255656Y2671424D1*
X5252759Y2666251D1*
X5249466Y2661322D1*
X5245796Y2656667D1*
X5241772Y2652313D1*
X5237418Y2648289D1*
X5232763Y2644619D1*
X5227834Y2641326D1*
X5222661Y2638429D1*
X5217278Y2635947D1*
X5211716Y2633895D1*
X5206010Y2632286D1*
X5200196Y2631130D1*
X5194309Y2630433D1*
X5188385Y2630200D1*
X5182461Y2630433D1*
X5176574Y2631130D1*
X5170760Y2632286D1*
X5165054Y2633895D1*
X5159492Y2635947D1*
X5154109Y2638429D1*
X5148936Y2641326D1*
X5144007Y2644619D1*
X5139352Y2648289D1*
X5134998Y2652313D1*
X5130974Y2656667D1*
X5127304Y2661322D1*
X5124011Y2666251D1*
X5121114Y2671424D1*
X5118632Y2676807D1*
X5116580Y2682369D1*
X5114971Y2688075D1*
X5113815Y2693889D1*
X5113118Y2699776D1*
X5112885Y2705700D1*
X5113118Y2711624D1*
X5113815Y2717511D1*
X5114971Y2723325D1*
X5116580Y2729031D1*
X5118632Y2734593D1*
X5121114Y2739976D1*
X5124011Y2745149D1*
X5127304Y2750078D1*
X5130974Y2754733D1*
X5134998Y2759087D1*
X5139352Y2763111D1*
X5144007Y2766781D1*
X5148936Y2770074D1*
X5154109Y2772971D1*
X5159492Y2775453D1*
X5165054Y2777505D1*
X5170760Y2779114D1*
X5176574Y2780270D1*
X5182461Y2780967D1*
X5188385Y2781200D1*
X5194309Y2780967D1*
X5200196Y2780270D1*
X5206010Y2779114D1*
X5211716Y2777505D1*
X5217278Y2775453D1*
X5222661Y2772971D1*
X5227834Y2770074D1*
X5232763Y2766781D1*
X5237418Y2763111D1*
X5241772Y2759087D1*
X5245796Y2754733D1*
X5249466Y2750078D1*
X5252759Y2745149D1*
X5255656Y2739976D1*
X5258138Y2734593D1*
X5260190Y2729031D1*
X5261799Y2723325D1*
X5262956Y2717511D1*
X5263652Y2711624D1*
X5263885Y2705700D1*
X5263652Y2699776D1*
X5497859Y1050727D2*
X5598728D1*
Y940672D1*
X5575439D1*
X5582610Y934610D1*
X5588218Y928044D1*
X5592730Y920682D1*
X5596034Y912704D1*
X5598050Y904308D1*
X5598728Y895700D1*
X5598050Y887092D1*
X5596034Y878696D1*
X5592730Y870718D1*
X5588218Y863356D1*
X5582610Y856790D1*
X5576044Y851182D1*
X5568682Y846670D1*
X5560704Y843366D1*
X5552308Y841350D1*
X5543700Y840672D1*
X5535092Y841350D1*
X5526696Y843366D1*
X5518718Y846670D1*
X5511356Y851182D1*
X5504790Y856790D1*
X5499182Y863356D1*
X5494670Y870718D1*
X5491366Y878696D1*
X5489350Y887092D1*
X5488672Y895700D1*
X5489350Y904308D1*
X5491366Y912704D1*
X5494670Y920682D1*
X5499182Y928044D1*
X5504790Y934610D1*
X5511356Y940218D1*
X5512043Y940678D1*
X5488673Y940672D1*
Y1050727D1*
X5497859D1*
X2354060Y2207130D2*
X2352943Y2200078D1*
X2350737Y2193288D1*
X2347495Y2186926D1*
X2346697Y2185731D1*
X2346700Y2003684D1*
X2351047Y2006213D1*
X2357644Y2008946D1*
X2364586Y2010612D1*
X2371704Y2011172D1*
X2378822Y2010612D1*
X2385764Y2008946D1*
X2392361Y2006213D1*
X2398158Y2002677D1*
X2398169Y2108258D1*
X2392099Y2108313D1*
X2385047Y2109430D1*
X2378256Y2111636D1*
X2371895Y2114877D1*
X2366119Y2119074D1*
X2361070Y2124123D1*
X2356873Y2129899D1*
X2353632Y2136260D1*
X2351426Y2143051D1*
X2350309Y2150103D1*
Y2157242D1*
X2351426Y2164294D1*
X2353632Y2171085D1*
X2356873Y2177446D1*
X2361070Y2183222D1*
X2366119Y2188271D1*
X2371895Y2192468D1*
X2378256Y2195709D1*
X2382168Y2197231D1*
Y2302480D1*
X2342859Y2263268D1*
X2339114Y2260547D1*
X2334989Y2258445D1*
X2330587Y2257015D1*
X2326015Y2256291D1*
X2323691Y2256200D1*
X2322760Y2253973D1*
X2329357Y2251241D1*
X2335444Y2247510D1*
X2340873Y2242873D1*
X2345510Y2237444D1*
X2349241Y2231357D1*
X2351973Y2224760D1*
X2353640Y2217818D1*
X2354200Y2210700D1*
X2354060Y2207130D1*
X2308714Y2256199D2*
X2315818Y2255640D1*
X2322760Y2253973D1*
X4790850Y859209D2*
X4784357Y855159D1*
X4777760Y852427D1*
X4770818Y850760D1*
X4763700Y850200D1*
X4756582Y850760D1*
X4749640Y852427D1*
X4743043Y855159D1*
X4736956Y858890D1*
X4731527Y863527D1*
X4726890Y868956D1*
X4723159Y875043D1*
X4720427Y881640D1*
X4718760Y888582D1*
X4718200Y895700D1*
X4718760Y902818D1*
X4720427Y909760D1*
X4723159Y916357D1*
X4726890Y922444D1*
X4731527Y927873D1*
X4734205Y930342D1*
X4734197Y1831959D1*
X4729758Y1829861D1*
X4721546Y1827193D1*
X4713017Y1825842D1*
X4704383D1*
X4695854Y1827193D1*
X4687642Y1829861D1*
X4679948Y1833781D1*
X4672962Y1838857D1*
X4666857Y1844962D1*
X4661781Y1851948D1*
X4658730Y1857757D1*
X4655619Y1851948D1*
X4650543Y1844962D1*
X4644438Y1838857D1*
X4638196Y1834278D1*
X4638250Y1170298D1*
X4643298Y1165250D1*
X4647495Y1159474D1*
X4650737Y1153112D1*
X4652943Y1146322D1*
X4654060Y1139270D1*
Y1132130D1*
X4652943Y1125078D1*
X4650737Y1118288D1*
X4647495Y1111926D1*
X4643298Y1106150D1*
X4638195Y1101058D1*
X4638109Y963385D1*
X4637385Y958813D1*
X4635955Y954411D1*
X4633853Y950286D1*
X4631132Y946541D1*
X4627859Y943268D1*
X4624114Y940547D1*
X4619989Y938445D1*
X4615587Y937015D1*
X4611015Y936291D1*
X4541489Y936200D1*
X4540927Y928996D1*
X4539260Y922053D1*
X4536528Y915457D1*
X4532798Y909369D1*
X4528161Y903940D1*
X4522732Y899303D1*
X4516644Y895573D1*
X4510048Y892840D1*
X4503105Y891174D1*
X4495987Y890613D1*
X4488870Y891174D1*
X4481927Y892840D1*
X4475331Y895573D1*
X4469243Y899303D1*
X4463814Y903940D1*
X4459177Y909369D1*
X4455447Y915457D1*
X4452714Y922053D1*
X4451048Y928996D1*
X4450487Y936113D1*
X4451048Y943231D1*
X4452714Y950174D1*
X4455447Y956770D1*
X4459177Y962858D1*
X4463814Y968287D1*
X4469243Y972924D1*
X4475331Y976654D1*
X4481927Y979386D1*
X4488870Y981053D1*
X4495987Y981613D1*
X4499627Y981465D1*
X4506415Y988132D1*
X4510160Y990853D1*
X4514285Y992955D1*
X4518687Y994385D1*
X4523259Y995109D1*
X4579221Y995200D1*
X4579150Y1101102D1*
X4574102Y1106150D1*
X4569905Y1111926D1*
X4566663Y1118288D1*
X4564457Y1125078D1*
X4563340Y1132130D1*
Y1139270D1*
X4564457Y1146322D1*
X4566663Y1153112D1*
X4569905Y1159474D1*
X4574102Y1165250D1*
X4579205Y1170342D1*
X4579200Y1834257D1*
X4572962Y1838857D1*
X4566857Y1844962D1*
X4561781Y1851948D1*
X4558730Y1857757D1*
X4555099Y1851117D1*
X4550747Y1845202D1*
X4545645Y1839919D1*
X4539886Y1835363D1*
X4533571Y1831614D1*
X4526814Y1828739D1*
X4519734Y1826790D1*
X4512457Y1825801D1*
X4505113Y1825789D1*
X4497834Y1826756D1*
X4490747Y1828683D1*
X4483981Y1831537D1*
X4477655Y1835266D1*
X4471881Y1839805D1*
X4466764Y1845072D1*
X4462393Y1850973D1*
X4458704Y1857725D1*
X4455619Y1851948D1*
X4450543Y1844962D1*
X4444438Y1838857D1*
X4437452Y1833781D1*
X4429758Y1829861D1*
X4421546Y1827193D1*
X4413017Y1825842D1*
X4404383D1*
X4395854Y1827193D1*
X4387642Y1829861D1*
X4379948Y1833781D1*
X4372962Y1838857D1*
X4366857Y1844962D1*
X4361781Y1851948D1*
X4358730Y1857757D1*
X4355619Y1851948D1*
X4350543Y1844962D1*
X4344438Y1838857D1*
X4337452Y1833781D1*
X4329758Y1829861D1*
X4321546Y1827193D1*
X4313017Y1825842D1*
X4304383D1*
X4295854Y1827193D1*
X4287642Y1829861D1*
X4279948Y1833781D1*
X4276426Y1836135D1*
X4279241Y1831357D1*
X4281973Y1824760D1*
X4283640Y1817818D1*
X4284200Y1810700D1*
X4283894Y1805730D1*
X4383728Y1805727D1*
Y1782438D1*
X4389790Y1789610D1*
X4396356Y1795218D1*
X4403718Y1799730D1*
X4411696Y1803034D1*
X4420092Y1805050D1*
X4428700Y1805728D1*
X4437308Y1805050D1*
X4445704Y1803034D1*
X4453682Y1799730D1*
X4461044Y1795218D1*
X4467610Y1789610D1*
X4473218Y1783044D1*
X4477730Y1775682D1*
X4481034Y1767704D1*
X4483050Y1759308D1*
X4483728Y1750700D1*
X4483050Y1742092D1*
X4481034Y1733696D1*
X4477730Y1725718D1*
X4473218Y1718356D1*
X4467610Y1711790D1*
X4461044Y1706182D1*
X4453682Y1701670D1*
X4445704Y1698366D1*
X4437308Y1696350D1*
X4428700Y1695672D1*
X4420092Y1696350D1*
X4411696Y1698366D1*
X4403718Y1701670D1*
X4396356Y1706182D1*
X4389790Y1711790D1*
X4384182Y1718356D1*
X4383722Y1719043D1*
X4383728Y1695672D1*
X4276733D1*
X4278562Y1689579D1*
X4443568Y1524572D1*
X4456681Y1524437D1*
X4462571Y1523505D1*
X4468242Y1521662D1*
X4473555Y1518955D1*
X4478379Y1515450D1*
X4482596Y1511233D1*
X4486100Y1506409D1*
X4488808Y1501096D1*
X4490650Y1495425D1*
X4491583Y1489536D1*
X4491700Y1440623D1*
X4491583Y1039632D1*
X4490650Y1033742D1*
X4488808Y1028071D1*
X4486100Y1022758D1*
X4482596Y1017934D1*
X4478379Y1013718D1*
X4473555Y1010213D1*
X4468242Y1007506D1*
X4462571Y1005663D1*
X4459633Y1005080D1*
X4456832Y1003811D1*
X4459313Y996349D1*
X4460430Y989297D1*
Y982158D1*
X4459313Y975106D1*
X4457107Y968315D1*
X4453865Y961954D1*
X4449669Y956178D1*
X4444620Y951129D1*
X4438844Y946932D1*
X4432482Y943691D1*
X4425692Y941485D1*
X4418640Y940368D1*
X4411500D1*
X4404448Y941485D1*
X4397658Y943691D1*
X4391296Y946932D1*
X4385520Y951129D1*
X4380472Y956178D1*
X4376275Y961954D1*
X4373034Y968315D1*
X4372681Y969271D1*
X4332595Y929203D1*
X4332570Y714932D1*
X4347299Y700190D1*
X4744257Y700200D1*
X4778840Y734660D1*
X4782585Y737381D1*
X4786710Y739482D1*
X4791113Y740913D1*
X4795685Y741637D1*
X4880676Y741728D1*
X4974926Y741905D1*
X4969150Y746102D1*
X4964058Y751205D1*
X4637438Y751085D1*
X4636357Y746584D1*
X4634586Y742307D1*
X4632167Y738360D1*
X4629161Y734840D1*
X4625641Y731834D1*
X4621694Y729415D1*
X4617417Y727644D1*
X4612916Y726563D1*
X4608301Y726200D1*
X4446376Y726292D1*
X4444322Y726457D1*
X4437270Y725340D1*
X4430130D1*
X4423078Y726457D1*
X4416288Y728663D1*
X4409926Y731905D1*
X4404150Y736102D1*
X4399102Y741150D1*
X4394905Y746926D1*
X4391663Y753288D1*
X4389457Y760078D1*
X4388340Y767130D1*
Y774270D1*
X4389457Y781322D1*
X4390953Y786187D1*
X4384085Y786563D1*
X4379584Y787644D1*
X4375307Y789415D1*
X4371360Y791834D1*
X4367840Y794840D1*
X4364834Y798360D1*
X4362415Y802307D1*
X4360644Y806584D1*
X4359563Y811085D1*
X4359200Y815709D1*
X4359102Y861150D1*
X4354905Y866926D1*
X4351663Y873288D1*
X4349457Y880078D1*
X4348340Y887130D1*
Y894270D1*
X4349457Y901322D1*
X4351663Y908112D1*
X4354905Y914474D1*
X4359102Y920250D1*
X4364150Y925298D1*
X4369926Y929495D1*
X4376288Y932737D1*
X4383078Y934943D1*
X4390130Y936060D1*
X4397270D1*
X4404322Y934943D1*
X4411112Y932737D1*
X4417474Y929495D1*
X4423250Y925298D1*
X4428298Y920250D1*
X4432495Y914474D1*
X4435737Y908112D1*
X4437943Y901322D1*
X4439060Y894270D1*
Y887130D1*
X4437943Y880078D1*
X4435737Y873288D1*
X4432495Y866926D1*
X4428298Y861150D1*
X4423250Y856102D1*
X4418205Y852393D1*
X4425445Y845200D1*
X4820130Y845340D1*
X4813078Y846457D1*
X4806288Y848663D1*
X4799926Y851905D1*
X4794150Y856102D1*
X4790892Y859213D1*
X5045706Y1220054D2*
X5042480Y1223956D1*
X5038750Y1230043D1*
X5036017Y1236640D1*
X5034351Y1243582D1*
X5033791Y1250700D1*
X5034351Y1257818D1*
X5036017Y1264760D1*
X5038750Y1271357D1*
X5042480Y1277444D1*
X5047117Y1282873D1*
X5052546Y1287510D1*
X5058634Y1291241D1*
X5065230Y1293973D1*
X5072173Y1295640D1*
X5079291Y1296200D1*
X5086408Y1295640D1*
X5093351Y1293973D1*
X5098464Y1291924D1*
X5101890Y1297444D1*
X5106527Y1302873D1*
X5111956Y1307510D1*
X5118043Y1311241D1*
X5124640Y1313973D1*
X5131582Y1315640D1*
X5138700Y1316200D1*
X5145818Y1315640D1*
X5152760Y1313973D1*
X5159357Y1311241D1*
X5165444Y1307510D1*
X5170873Y1302873D1*
X5175510Y1297444D1*
X5179241Y1291357D1*
X5181973Y1284760D1*
X5183640Y1277818D1*
X5184200Y1270700D1*
X5183640Y1263582D1*
X5181973Y1256640D1*
X5179241Y1250043D1*
X5175510Y1243956D1*
X5170873Y1238527D1*
X5165444Y1233890D1*
X5159357Y1230159D1*
X5153192Y1227586D1*
X5153200Y1154973D1*
X5160130Y1156060D1*
X5167270D1*
X5174322Y1154943D1*
X5181112Y1152737D1*
X5187474Y1149495D1*
X5193250Y1145298D1*
X5198298Y1140250D1*
X5202495Y1134474D1*
X5205737Y1128112D1*
X5207943Y1121322D1*
X5209060Y1114270D1*
Y1107130D1*
X5207943Y1100078D1*
X5205737Y1093288D1*
X5202495Y1086926D1*
X5198298Y1081150D1*
X5193195Y1076058D1*
X5193298Y950250D1*
X5197495Y944474D1*
X5200737Y938112D1*
X5202943Y931322D1*
X5204060Y924270D1*
Y917130D1*
X5202943Y910078D1*
X5200737Y903288D1*
X5197495Y896926D1*
X5193298Y891150D1*
X5188250Y886102D1*
X5182474Y881905D1*
X5176112Y878663D1*
X5169322Y876457D1*
X5162270Y875340D1*
X5155130D1*
X5148078Y876457D1*
X5141288Y878663D1*
X5134497Y882192D1*
X5130444Y878890D1*
X5124357Y875159D1*
X5117760Y872427D1*
X5110818Y870760D1*
X5103700Y870200D1*
X5096582Y870760D1*
X5089640Y872427D1*
X5083043Y875159D1*
X5076956Y878890D1*
X5071527Y883527D1*
X5066890Y888956D1*
X5063159Y895043D1*
X5060427Y901640D1*
X5058760Y908582D1*
X5058200Y915700D1*
X5058760Y922818D1*
X5060427Y929760D1*
X5060982Y931266D1*
X5054150Y936102D1*
X5049102Y941150D1*
X5044905Y946926D1*
X5041663Y953288D1*
X5039457Y960078D1*
X5038340Y967130D1*
Y974270D1*
X5039457Y981322D1*
X5041663Y988112D1*
X5044905Y994474D1*
X5045703Y995669D1*
X5045700Y1219987D1*
X2178700Y2465692D2*
D20*
Y2355708D1*
X2127645Y2410700D2*
X2178700D1*
X4008700Y3192385D2*
Y2971456D1*
X3898236Y3081920D2*
X4119164D1*
X3823661Y3074274D2*
Y2963810D1*
X3713197D2*
X3934125D1*
X2218700Y2003093D2*
Y1893110D1*
X2163708Y1948102D2*
X2218700D1*
X468700Y2650841D2*
Y2595850D1*
X568700Y2650841D2*
Y2595850D1*
X468700Y695850D2*
Y640858D1*
X568700Y695850D2*
Y640858D1*
Y695850D2*
X623692D1*
X468700Y3126391D2*
Y3071399D1*
X568700Y3126391D2*
Y3071399D1*
X623692D1*
X3093700Y555700D2*
Y500708D1*
X3038709Y555700D2*
X3093700D1*
X3193700D2*
Y500708D1*
X3293700Y555700D2*
Y500708D1*
X3393700Y555700D2*
Y500708D1*
X3493700Y555700D2*
Y500708D1*
X3593700Y555700D2*
Y500708D1*
X1618700Y555700D2*
Y500708D1*
X1563709Y555700D2*
X1618700D1*
X1718700D2*
Y500708D1*
X1818700Y555700D2*
Y500708D1*
X1918700Y555700D2*
Y500708D1*
X2018700Y555700D2*
Y500708D1*
X2118700Y555700D2*
Y500708D1*
X1323700Y2467134D2*
Y2410700D1*
X1267266D2*
X1380134D1*
X2747266Y3320700D2*
X2860134D1*
X2928700Y2670700D2*
Y2614266D1*
X2113700Y2500700D2*
Y2463425D1*
X2048866Y2500700D2*
X2178534D1*
X2073109Y2922660D2*
Y2808740D1*
X2016149Y2865700D2*
X2073109D1*
X2469566Y2972393D2*
Y2878031D1*
X2375204Y2972393D2*
X2563928D1*
X1952243Y3066755D2*
Y2878031D1*
X1857882Y2972393D2*
X2046605D1*
X3693700Y555700D2*
Y500708D1*
X3793700Y555700D2*
Y500708D1*
X3893700Y555700D2*
Y500708D1*
X3993700Y555700D2*
Y500708D1*
X4093700Y555700D2*
Y500708D1*
Y555700D2*
X4148692D1*
X2218700D2*
Y500708D1*
X2318700Y555700D2*
Y500708D1*
X2418700Y555700D2*
Y500708D1*
X2518700Y555700D2*
Y500708D1*
X2618700Y555700D2*
Y500708D1*
X2718700Y555700D2*
Y500708D1*
X2818700Y555700D2*
Y500708D1*
Y555700D2*
X2873692D1*
X4008700Y1935692D2*
Y1825708D1*
X4208700Y1935692D2*
Y1880700D1*
X4508700Y1935692D2*
Y1825708D1*
X5188385Y1884314D2*
Y1733385D1*
X5112921Y1808850D2*
X5263849D1*
X5188385Y2584314D2*
Y2433385D1*
X5112921Y2508850D2*
X5263849D1*
X5343700Y1905716D2*
Y1850724D1*
X5288708Y1905716D2*
X5343700D1*
Y2605716D2*
Y2550724D1*
X5288708Y2605716D2*
X5343700D1*
D25*
X2178700Y2410700D3*
X2253503D3*
D26*
X5543700Y995700D3*
D27*
Y895700D3*
D28*
X4008700Y2845700D3*
Y3081920D3*
X3823661Y2963810D3*
D26*
X4958700Y570700D3*
D27*
Y670700D3*
X5058700Y570700D3*
Y670700D3*
X5158700Y570700D3*
Y670700D3*
X5258700Y570700D3*
Y670700D3*
D26*
X1618700Y755700D3*
D27*
X1718700D3*
X1818700D3*
X1918700D3*
X2018700D3*
X2118700D3*
X2218700D3*
X2318700D3*
X2418700D3*
X2518700D3*
X2618700D3*
X2718700D3*
X2818700D3*
D26*
X3093700D3*
D27*
X3193700D3*
X3293700D3*
X3393700D3*
X3493700D3*
X3593700D3*
X3693700D3*
X3793700D3*
X3893700D3*
X3993700D3*
X4093700D3*
D26*
X4328700Y1750700D3*
D27*
X4428700D3*
D26*
X968700Y755700D3*
D27*
X1068700D3*
X1168700D3*
X1268700D3*
X1368700D3*
D26*
X968700Y655700D3*
D27*
X1068700D3*
X1168700D3*
X1268700D3*
X1368700D3*
D26*
X2218700Y1160700D3*
D27*
Y1948102D3*
D26*
X808700Y1590700D3*
D27*
X908700D3*
X808700Y1490700D3*
X908700D3*
X808700Y1390700D3*
X908700D3*
D26*
X808700Y2190700D3*
D27*
X908700D3*
X808700Y2090700D3*
X908700D3*
X808700Y1990700D3*
X908700D3*
X808700Y1890700D3*
X908700D3*
X808700Y1790700D3*
X908700D3*
X808700Y1690700D3*
X908700D3*
D26*
X468700Y2595850D3*
D27*
X568700D3*
X468700Y2495850D3*
X568700D3*
X468700Y2395850D3*
X568700D3*
X468700Y2295850D3*
X568700D3*
X468700Y2195850D3*
X568700D3*
X468700Y2095850D3*
X568700D3*
X468700Y1995850D3*
X568700D3*
X468700Y1895850D3*
X568700D3*
X468700Y1795850D3*
X568700D3*
X468700Y1695850D3*
X568700D3*
X468700Y1595850D3*
X568700D3*
X468700Y1495850D3*
X568700D3*
X468700Y1395850D3*
X568700D3*
X468700Y1295850D3*
X568700D3*
X468700Y1195850D3*
X568700D3*
X468700Y1095850D3*
X568700D3*
X468700Y995850D3*
X568700D3*
X468700Y895850D3*
X568700D3*
X468700Y795850D3*
X568700D3*
X468700Y695850D3*
X568700D3*
D26*
X468700Y3071399D3*
D27*
X568700D3*
X468700Y2971399D3*
X568700D3*
X468700Y2871399D3*
X568700D3*
X468700Y2771399D3*
X568700D3*
D26*
X1008700Y1690700D3*
D27*
Y1790700D3*
D32*
X2163700Y2735700D3*
X2263700D3*
D35*
X5188385Y1808850D3*
Y2005700D3*
Y2202550D3*
Y2508850D3*
Y2705700D3*
Y2902550D3*
D26*
X3093700Y555700D3*
D27*
Y655700D3*
X3193700Y555700D3*
Y655700D3*
X3293700Y555700D3*
Y655700D3*
X3393700Y555700D3*
Y655700D3*
X3493700Y555700D3*
Y655700D3*
X3593700Y555700D3*
Y655700D3*
D26*
X3693700Y555700D3*
D27*
Y655700D3*
X3793700Y555700D3*
Y655700D3*
X3893700Y555700D3*
Y655700D3*
X3993700Y555700D3*
Y655700D3*
X4093700Y555700D3*
Y655700D3*
D26*
X1618700Y555700D3*
D27*
Y655700D3*
X1718700Y555700D3*
Y655700D3*
X1818700Y555700D3*
Y655700D3*
X1918700Y555700D3*
Y655700D3*
X2018700Y555700D3*
Y655700D3*
X2118700Y555700D3*
Y655700D3*
D26*
X2218700Y555700D3*
D27*
Y655700D3*
X2318700Y555700D3*
Y655700D3*
X2418700Y555700D3*
Y655700D3*
X2518700Y555700D3*
Y655700D3*
X2618700Y555700D3*
Y655700D3*
X2718700Y555700D3*
Y655700D3*
X2818700Y555700D3*
Y655700D3*
D32*
X3593700Y3215700D3*
Y3115700D3*
Y3015700D3*
D25*
X748700Y850700D3*
X673897D3*
X748700Y750700D3*
X673897D3*
D26*
X5343700Y2105716D3*
D27*
Y2005716D3*
Y1905716D3*
D26*
Y2805716D3*
D27*
Y2705716D3*
Y2605716D3*
D41*
X2183700Y3075700D3*
Y3111133D3*
X2273700Y3075700D3*
Y3111133D3*
D42*
X1418306Y3055700D3*
D43*
X1119094D3*
D42*
X4793306D3*
D43*
X4494094D3*
D44*
X1323700Y2410700D3*
Y2310700D3*
Y2210700D3*
Y2110700D3*
Y2010700D3*
Y1910700D3*
Y1810700D3*
Y1710700D3*
Y1610700D3*
Y1510700D3*
Y1410700D3*
Y1310700D3*
Y1210700D3*
Y1110700D3*
X1923700D3*
Y1210700D3*
Y1310700D3*
Y1410700D3*
Y1510700D3*
Y1610700D3*
Y1710700D3*
Y1810700D3*
Y1910700D3*
Y2010700D3*
Y2110700D3*
Y2210700D3*
Y2310700D3*
Y2410700D3*
X2803700Y3320700D3*
Y3220700D3*
Y3120700D3*
Y3020700D3*
Y2920700D3*
Y2820700D3*
Y2720700D3*
Y2620700D3*
Y2520700D3*
Y2420700D3*
Y2320700D3*
Y2220700D3*
Y2120700D3*
Y2020700D3*
X2903700Y1520700D3*
X3303700Y3220700D3*
D48*
X3148700Y3298700D3*
X3058700D3*
D44*
X3403700Y1720700D3*
Y2020700D3*
Y2120700D3*
Y2220700D3*
Y2320700D3*
Y2420700D3*
Y2520700D3*
Y2620700D3*
Y2720700D3*
Y2820700D3*
Y2920700D3*
Y3020700D3*
Y3120700D3*
Y3220700D3*
Y3320700D3*
X3303700Y1520700D3*
X2928700Y3070700D3*
Y2970700D3*
Y2870700D3*
X2803700Y1420700D3*
Y1320700D3*
Y1520700D3*
Y1620700D3*
Y1720700D3*
Y1820700D3*
Y1220700D3*
Y1120700D3*
Y1020700D3*
X3403700D3*
X2803700Y1920700D3*
X3403700Y1120700D3*
Y1920700D3*
Y1220700D3*
Y1420700D3*
Y1520700D3*
Y1620700D3*
Y1320700D3*
Y1820700D3*
X3203700Y1520700D3*
X2928700Y2770700D3*
Y2670700D3*
D27*
X4008700Y1880700D3*
X4108700D3*
X4208700D3*
D26*
X3908700D3*
D27*
X4708700D3*
X4608700D3*
X4508700D3*
X4808700D3*
X4308700D3*
X4408700D3*
D49*
X3908700Y2570700D3*
X4808700D3*
D50*
X4139700Y2530700D3*
X4577700D3*
X4277700D3*
X4439700D3*
D47*
X2113700Y2500700D3*
Y2550700D3*
Y2600700D3*
Y2650700D3*
X2326298D3*
Y2600700D3*
Y2550700D3*
Y2500700D3*
D53*
X2348700Y2865700D3*
D54*
X2250275D3*
X2171535D3*
X2073109D3*
D55*
X2469566Y2972393D3*
X1952243D3*
D26*
X718700Y555700D3*
D27*
X818700D3*
M02*
