M48
INCH
T01C0.0191
T02C0.0354
T03C0.0362
T04C0.038
T05C0.04
T06C0.0433
T07C0.0591
T08C0.0906
T09C0.1
T10C0.118
T11C0.125
%
T01
X+043599Y+007370
X+044337Y+007707
X+043937Y+008907
X+044151Y+009857
X+044331Y+010426
X+044960Y+009361
X+046087Y+011357
X+048237Y+009657
X+048237Y+008907
X+047637Y+008957
X+046737Y+007407
X+049987Y+007807
X+051037Y+009157
X+051587Y+009207
X+050837Y+009707
X+051637Y+011107
X+051387Y+012707
X+050793Y+012507
X+053737Y+010407
X+055137Y+011407
X+054787Y+015007
X+053687Y+007907
X+043282Y+011305
X+043337Y+012707
X+041532Y+012207
X+041852Y+010637
X+040987Y+009807
X+042537Y+009357
X+038287Y+011307
X+037787Y+013207
X+038737Y+013357
X+038243Y+014757
X+039131Y+016752
X+038267Y+018207
X+037587Y+019402
X+037107Y+019777
X+037537Y+021157
X+034587Y+019707
X+034787Y+018757
X+035037Y+018207
X+034454Y+016752
X+034805Y+015777
X+036257Y+015777
X+036087Y+014257
X+033037Y+012637
X+032037Y+011697
X+032467Y+010877
X+033307Y+010007
X+033372Y+008632
X+034467Y+008532
X+035125Y+008772
X+035487Y+008107
X+036537Y+008857
X+036037Y+009557
X+030502Y+011957
X+028942Y+011637
X+027507Y+010637
X+026762Y+009417
X+028962Y+008917
X+029307Y+009417
X+029087Y+007557
X+028687Y+007007
X+027608Y+006054
X+029287Y+005007
X+024766Y+008077
X+023507Y+008917
X+022287Y+008257
X+021687Y+008057
X+022087Y+010157
X+023082Y+011857
X+025303Y+014057
X+025999Y+013537
X+027187Y+013997
X+029282Y+013582
X+029237Y+015957
X+031607Y+014362
X+032467Y+014477
X+032017Y+019657
X+031127Y+020157
X+030502Y+021207
X+030937Y+021637
X+033337Y+022607
X+035445Y+024207
X+032657Y+025637
X+031097Y+025207
X+031097Y+027157
X+028882Y+026062
X+027257Y+023637
X+026667Y+022547
X+024777Y+023107
X+023957Y+021537
X+023087Y+022107
X+023091Y+023737
X+020187Y+022557
X+020667Y+021537
X+019837Y+020557
X+018347Y+019857
X+020307Y+018107
X+021187Y+018107
X+022937Y+019157
X+023717Y+019657
X+023717Y+017107
X+025303Y+017037
X+024272Y+014857
X+021594Y+015207
X+020307Y+015637
X+018347Y+016637
X+015187Y+019457
X+015637Y+020007
X+013937Y+020607
X+014183Y+023557
X+015287Y+026707
X+017937Y+025807
X+018487Y+025407
X+017867Y+030713
X+018537Y+030757
X+016967Y+032207
X+007131Y+027753
X+007119Y+023777
X+009982Y+023966
X+010502Y+023557
X+010502Y+020907
X+010137Y+018557
X+006632Y+017482
X+006937Y+015357
X+006837Y+011037
X+007585Y+011037
X+008537Y+011087
X+008911Y+011505
X+009285Y+011087
X+010822Y+011537
X+012367Y+010397
X+011922Y+008917
X+010102Y+009703
X+009287Y+008357
X+008507Y+006737
X+012231Y+005482
X+015174Y+007312
X+017827Y+008392
X+019237Y+008557
X+018347Y+010397
X+017507Y+010077
X+019654Y+011537
X+028627Y+031207
X+033462Y+030707
X+042387Y+018107
T02
X+055437Y+009957
X+055437Y+008957
X+052587Y+006707
X+051587Y+006707
X+050587Y+006707
X+050587Y+005707
X+051587Y+005707
X+052587Y+005707
X+049587Y+005707
X+049587Y+006707
X+040937Y+006557
X+040937Y+007557
X+039937Y+007557
X+038937Y+007557
X+037937Y+007557
X+037937Y+006557
X+037937Y+005557
X+038937Y+005557
X+038937Y+006557
X+039937Y+006557
X+039937Y+005557
X+040937Y+005557
X+036937Y+005557
X+035937Y+005557
X+035937Y+006557
X+035937Y+007557
X+034937Y+007557
X+034937Y+006557
X+033937Y+006557
X+032937Y+006557
X+031937Y+006557
X+031937Y+005557
X+032937Y+005557
X+033937Y+005557
X+034937Y+005557
X+033937Y+007557
X+032937Y+007557
X+031937Y+007557
X+030937Y+007557
X+030937Y+006557
X+030937Y+005557
X+028187Y+005557
X+027187Y+005557
X+027187Y+006557
X+027187Y+007557
X+028187Y+007557
X+028187Y+006557
X+026187Y+006557
X+026187Y+007557
X+025187Y+007557
X+024187Y+007557
X+024187Y+006557
X+024187Y+005557
X+025187Y+005557
X+025187Y+006557
X+026187Y+005557
X+023187Y+005557
X+022187Y+005557
X+021187Y+005557
X+021187Y+006557
X+021187Y+007557
X+022187Y+007557
X+023187Y+007557
X+023187Y+006557
X+022187Y+006557
X+020187Y+006557
X+020187Y+007557
X+019187Y+007557
X+018187Y+007557
X+018187Y+006557
X+017187Y+006557
X+017187Y+007557
X+016187Y+007557
X+016187Y+006557
X+016187Y+005557
X+017187Y+005557
X+018187Y+005557
X+019187Y+005557
X+019187Y+006557
X+020187Y+005557
X+022187Y+011607
X+022187Y+019481
X+010087Y+017907
X+010087Y+016907
X+009087Y+016907
X+008087Y+016907
X+008087Y+017907
X+008087Y+018907
X+009087Y+018907
X+009087Y+019907
X+008087Y+019907
X+008087Y+020907
X+009087Y+020907
X+009087Y+021907
X+008087Y+021907
X+005687Y+021958
X+004687Y+021958
X+004687Y+022958
X+005687Y+022958
X+005687Y+023958
X+004687Y+023958
X+004687Y+024958
X+004687Y+025958
X+005687Y+025958
X+005687Y+024958
X+005687Y+027714
X+005687Y+028714
X+005687Y+029714
X+004687Y+029714
X+004687Y+028714
X+004687Y+027714
X+004687Y+030714
X+005687Y+030714
X+005687Y+020958
X+004687Y+020958
X+004687Y+019958
X+005687Y+019958
X+005687Y+018958
X+004687Y+018958
X+004687Y+017958
X+005687Y+017958
X+005687Y+016958
X+005687Y+015958
X+004687Y+015958
X+004687Y+014958
X+005687Y+014958
X+005687Y+013958
X+004687Y+013958
X+004687Y+012958
X+004687Y+011958
X+005687Y+011958
X+005687Y+012958
X+005687Y+010958
X+004687Y+010958
X+004687Y+009958
X+004687Y+008958
X+005687Y+008958
X+005687Y+009958
X+005687Y+007958
X+005687Y+006958
X+004687Y+006958
X+004687Y+007958
X+007187Y+005557
X+008187Y+005557
X+009687Y+006557
X+009687Y+007557
X+010687Y+007557
X+011687Y+007557
X+012687Y+007557
X+012687Y+006557
X+011687Y+006557
X+010687Y+006557
X+013687Y+006557
X+013687Y+007557
X+009087Y+013907
X+009087Y+014907
X+009087Y+015907
X+008087Y+015907
X+008087Y+014907
X+008087Y+013907
X+009087Y+017907
X+004687Y+016958
X+036937Y+007557
X+036937Y+006557
X+039087Y+018807
X+040087Y+018807
X+041087Y+018807
X+042087Y+018807
X+043087Y+018807
X+044087Y+018807
X+045087Y+018807
X+046087Y+018807
X+047087Y+018807
X+048087Y+018807
X+044287Y+017507
X+043287Y+017507
X+053437Y+019057
X+053437Y+020057
X+053437Y+021057
X+053437Y+026057
X+053437Y+027057
X+053437Y+028057
T03
X+023487Y+028657
X+022503Y+028657
X+021715Y+028657
X+020731Y+028657
T04
X+013237Y+024107
X+013237Y+023107
X+013237Y+022107
X+013237Y+021107
X+013237Y+020107
X+013237Y+019107
X+013237Y+018107
X+013237Y+017107
X+013237Y+016107
X+013237Y+015107
X+013237Y+014107
X+013237Y+013107
X+013237Y+012107
X+013237Y+011107
X+019237Y+011107
X+019237Y+012107
X+019237Y+013107
X+019237Y+014107
X+019237Y+015107
X+019237Y+016107
X+019237Y+017107
X+019237Y+018107
X+019237Y+019107
X+019237Y+020107
X+019237Y+021107
X+019237Y+022107
X+019237Y+023107
X+019237Y+024107
X+028037Y+024207
X+028037Y+023207
X+028037Y+022207
X+028037Y+021207
X+028037Y+020207
X+028037Y+019207
X+028037Y+018207
X+028037Y+017207
X+028037Y+016207
X+028037Y+015207
X+029037Y+015207
X+028037Y+014207
X+028037Y+013207
X+028037Y+012207
X+028037Y+011207
X+028037Y+010207
X+034037Y+010207
X+034037Y+011207
X+034037Y+012207
X+034037Y+013207
X+034037Y+014207
X+034037Y+015207
X+034037Y+016207
X+034037Y+017207
X+034037Y+018207
X+034037Y+019207
X+034037Y+020207
X+034037Y+021207
X+034037Y+022207
X+034037Y+023207
X+034037Y+024207
X+034037Y+025207
X+034037Y+026207
X+034037Y+027207
X+034037Y+028207
X+034037Y+029207
X+034037Y+030207
X+034037Y+031207
X+034037Y+032207
X+034037Y+033207
X+033037Y+032207
X+029287Y+030707
X+029287Y+029707
X+029287Y+028707
X+029287Y+027707
X+029287Y+026707
X+028037Y+027207
X+028037Y+026207
X+028037Y+025207
X+028037Y+028207
X+028037Y+029207
X+028037Y+030207
X+028037Y+031207
X+028037Y+032207
X+028037Y+033207
X+032037Y+015207
X+033037Y+015207
T05
X+021637Y+027357
X+022637Y+027357
X+030587Y+032987
X+031487Y+032987
X+035937Y+032157
X+035937Y+031157
X+035937Y+030157
X+041397Y+025307
X+042777Y+025307
X+044397Y+025307
X+045777Y+025307
T06
X+014183Y+030557
X+011191Y+030557
X+044941Y+030557
X+047933Y+030557
T07
X+051884Y+018088
X+051884Y+020057
X+051884Y+022026
X+051884Y+025088
X+051884Y+027057
X+051884Y+029026
T08
X+024696Y+029724
X+019522Y+029724
T09
X+039087Y+025707
X+048087Y+025707
T10
X+040087Y+028457
X+038237Y+029638
X+040087Y+030819
T11
X+005211Y+005081
X+005219Y+032876
X+055368Y+032876
X+055368Y+005081
T00
M30
