G04 DipTrace 3.3.1.3*
G04 T4RA8875TouchShieldcastellatedV02.gts*
%MOIN*%
G04 #@! TF.FileFunction,Soldermask,Top*
G04 #@! TF.Part,Single*
%AMOUTLINE0*
4,1,4,
0.025,-0.0175,
-0.025,-0.0175,
-0.025,0.0175,
0.025,0.0175,
0.025,-0.0175,
0*%
%AMOUTLINE1*
4,1,4,
0.0155,0.0285,
0.0155,-0.0285,
-0.0155,-0.0285,
-0.0155,0.0285,
0.0155,0.0285,
0*%
%AMOUTLINE2*
4,1,4,
-0.010827,0.023622,
0.010827,0.023622,
0.010827,-0.023622,
-0.010827,-0.023622,
-0.010827,0.023622,
0*%
%ADD23R,0.1X0.05*%
%ADD24R,0.05X0.1*%
%ADD26R,0.059055X0.059055*%
%ADD27C,0.059055*%
%ADD28C,0.17*%
%ADD32C,0.074*%
%ADD33R,0.047244X0.047244*%
%ADD35C,0.1*%
%ADD39R,0.025X0.05*%
%ADD41R,0.05X0.025*%
%ADD44C,0.06194*%
%ADD48C,0.074*%
%ADD52R,0.021654X0.047244*%
%ADD56C,0.04*%
%ADD69C,0.167*%
%ADD71C,0.042*%
%ADD73C,0.139795*%
%ADD75C,0.064992*%
%ADD77R,0.064992X0.064992*%
%ADD81C,0.082*%
%ADD83C,0.152*%
%ADD87R,0.08074X0.025622*%
%ADD89R,0.045307X0.025622*%
%ADD93C,0.076803*%
%ADD95R,0.076803X0.076803*%
%ADD101R,0.061055X0.053181*%
%ADD103R,0.025622X0.045307*%
%ADD111R,0.025622X0.05515*%
%ADD113R,0.049244X0.08074*%
%ADD117C,0.061055*%
%ADD119R,0.061055X0.061055*%
%ADD121R,0.053181X0.061055*%
%ADD127R,0.108299X0.064992*%
%ADD131OUTLINE0*%
%ADD132OUTLINE1*%
%ADD133OUTLINE2*%
%FSLAX26Y26*%
G04*
G70*
G90*
G75*
G01*
G04 TopMask*
%LPD*%
D71*
X2928700Y500700D3*
X5368700Y790700D3*
X1853700Y3075700D3*
X3753700Y2115700D3*
X4823700Y965700D3*
Y890700D3*
X4998700Y780700D3*
X4433700Y770700D3*
X4608700Y1135700D3*
X3603700Y955700D3*
X4253700Y935700D3*
X693700Y1535700D3*
X1518700Y1945700D3*
X1393700Y2060700D3*
X5373700Y1040700D3*
D69*
X521062Y508062D3*
X521932Y3287590D3*
X5536810Y508062D3*
Y3287590D3*
D56*
X4359881Y736960D3*
X4673700Y740700D3*
X3828700Y1130700D3*
X3824326Y1475700D3*
X3873700Y1335700D3*
X853700Y1108653D3*
X928503D3*
X683700Y1103653D3*
X758503D3*
X5513700Y1140700D3*
X5478700Y1500700D3*
X2350728Y891728D3*
X4433070Y1042613D3*
X4238700Y1810700D3*
X2888176Y2606172D3*
X3346200Y3070700D3*
X1192228Y891728D3*
X2908700Y755700D3*
X2896228Y891728D3*
X2308700Y2210700D3*
X2293700Y1915700D3*
X928700Y835700D3*
X2477669Y2310700D3*
X2476606Y807728D3*
X3653700Y885700D3*
X1983700Y2055700D3*
X2395669Y2153672D3*
X2066700D3*
X2118700Y1810700D3*
X1223082Y548200D3*
X2760794Y605444D3*
X2868700Y700700D3*
X1696653Y3220700D3*
X1786704Y3071291D3*
X2862672Y3120700D3*
X2599881Y1353676D3*
X2718700Y1399672D3*
X2725735Y2363672D3*
X1418294Y2355672D3*
X1050228D3*
Y2090700D3*
X1517409Y731228D3*
X1082231Y1153672D3*
X1965401D3*
X3246672Y1447672D3*
X1923700Y855700D3*
X4098700Y980700D3*
X3246672Y1087672D3*
X3050172Y1195672D3*
Y2120700D3*
X3160728Y1436200D3*
X2018700Y2255700D3*
X3333700Y2260700D3*
X3710700Y1977731D3*
X3458700Y1970700D3*
X1848700Y2540700D3*
X3265704Y2563672D3*
X3544535Y2420700D3*
X3548700Y810700D3*
X4763700Y895700D3*
X3109672Y2520700D3*
Y2715672D3*
X1528700Y2670700D3*
X998224Y2396645D3*
X1013700Y1855700D3*
X3758700Y1940228D3*
X4495987Y936113D3*
X2371704Y1965672D3*
Y1710700D3*
X3201700Y1965672D3*
X2030672Y1810700D3*
Y1563672D3*
X3625700Y1577700D3*
X3480535D3*
X3478700Y1875700D3*
X3112728Y2015672D3*
X3093672Y2163672D3*
X1834700Y1663672D3*
Y1039735D3*
X891102Y1150464D3*
X1236700Y1039731D3*
X2750700Y1063672D3*
X2159381Y1520700D3*
X2168700Y805700D3*
X4415070Y985728D3*
X3330676Y1000700D3*
X3337228Y863172D3*
X4185228Y1063672D3*
X4153228Y1220700D3*
X3778700Y1320700D3*
X3608700Y1425700D3*
X3446672Y853228D3*
X4393700Y890700D3*
X3512535Y877228D3*
X1782700Y839228D3*
X2228700Y825700D3*
X1793700Y2580700D3*
X1834700Y1985672D3*
X1563700Y2000700D3*
X2208700Y1015700D3*
X1750700Y1007735D3*
X2427200Y1485672D3*
X2530291Y1405672D3*
Y1703676D3*
X4333700Y1270700D3*
X4328228Y1130503D3*
X3303700Y1263672D3*
X3203700Y1169700D3*
X663231Y1748228D3*
X713094Y2775271D3*
X850700Y673708D3*
X1010228Y970322D3*
X711901Y2377700D3*
X3913070Y1675204D3*
X3445401D3*
X3826700Y1820700D3*
X3503700D3*
X2308228Y1185700D3*
X2894228Y1163672D3*
X2666676Y2254700D3*
X2676204Y941728D3*
X2930672D3*
X2928228Y1358172D3*
X2923700Y1595700D3*
X2309098Y2373672D3*
X5079291Y1250700D3*
X5083700Y970700D3*
X5138700Y1270700D3*
X5103700Y915700D3*
X5158700Y920700D3*
X5163700Y1110700D3*
D127*
X2963700Y595700D3*
Y705936D3*
X1493700Y545700D3*
Y655936D3*
D23*
X873700Y3055700D3*
X698700D3*
D24*
X4583700Y1438200D3*
Y1613200D3*
D121*
X5216781Y1370700D3*
X5291585D3*
X5216781Y1035700D3*
X5291585D3*
D24*
X4333700Y1438200D3*
Y1613200D3*
D23*
X4083700Y1130700D3*
X3908700D3*
D121*
X4033700Y1335700D3*
X3958897D3*
D119*
X5543700Y995700D3*
D117*
Y895700D3*
D28*
X4008700Y2845700D3*
Y3081920D3*
X3823661Y2963810D3*
D119*
X4958700Y570700D3*
D117*
Y670700D3*
X5058700Y570700D3*
Y670700D3*
X5158700Y570700D3*
Y670700D3*
X5258700Y570700D3*
Y670700D3*
D26*
X1618700Y755700D3*
D27*
X1718700D3*
X1818700D3*
X1918700D3*
X2018700D3*
X2118700D3*
X2218700D3*
X2318700D3*
X2418700D3*
X2518700D3*
X2618700D3*
X2718700D3*
X2818700D3*
D119*
X3093700D3*
D117*
X3193700D3*
X3293700D3*
X3393700D3*
X3493700D3*
X3593700D3*
X3693700D3*
X3793700D3*
X3893700D3*
X3993700D3*
X4093700D3*
D119*
X4328700Y1750700D3*
D117*
X4428700D3*
D119*
X968700Y755700D3*
D117*
X1068700D3*
X1168700D3*
X1268700D3*
X1368700D3*
D119*
X968700Y655700D3*
D117*
X1068700D3*
X1168700D3*
X1268700D3*
X1368700D3*
D119*
X2218700Y1160700D3*
D117*
Y1948102D3*
D119*
X808700Y1590700D3*
D117*
X908700D3*
X808700Y1490700D3*
X908700D3*
X808700Y1390700D3*
X908700D3*
D119*
X808700Y2190700D3*
D117*
X908700D3*
X808700Y2090700D3*
X908700D3*
X808700Y1990700D3*
X908700D3*
X808700Y1890700D3*
X908700D3*
X808700Y1790700D3*
X908700D3*
X808700Y1690700D3*
X908700D3*
D119*
X468700Y2595850D3*
D117*
X568700D3*
X468700Y2495850D3*
X568700D3*
X468700Y2395850D3*
X568700D3*
X468700Y2295850D3*
X568700D3*
X468700Y2195850D3*
X568700D3*
X468700Y2095850D3*
X568700D3*
X468700Y1995850D3*
X568700D3*
X468700Y1895850D3*
X568700D3*
X468700Y1795850D3*
X568700D3*
X468700Y1695850D3*
X568700D3*
X468700Y1595850D3*
X568700D3*
X468700Y1495850D3*
X568700D3*
X468700Y1395850D3*
X568700D3*
X468700Y1295850D3*
X568700D3*
X468700Y1195850D3*
X568700D3*
X468700Y1095850D3*
X568700D3*
X468700Y995850D3*
X568700D3*
X468700Y895850D3*
X568700D3*
X468700Y795850D3*
X568700D3*
X468700Y695850D3*
X568700D3*
D119*
X468700Y3071399D3*
D117*
X568700D3*
X468700Y2971399D3*
X568700D3*
X468700Y2871399D3*
X568700D3*
X468700Y2771399D3*
X568700D3*
D113*
X4308700Y535700D3*
X4529172D3*
D111*
X4359881Y680385D3*
X4399251D3*
X4438621D3*
X4477991D3*
D113*
X4623700Y530700D3*
X4844172D3*
D111*
X4674881Y675385D3*
X4714251D3*
X4753621D3*
X4792991D3*
D119*
X1008700Y1690700D3*
D117*
Y1790700D3*
D32*
X2163700Y2735700D3*
X2263700D3*
D33*
X1183700Y460700D3*
X1101023D3*
X1258700D3*
X1341377D3*
D131*
X5508700Y1570700D3*
Y1755700D3*
D132*
X5583200Y1530200D3*
Y1796200D3*
D35*
X5188385Y1808850D3*
Y2005700D3*
Y2202550D3*
Y2508850D3*
Y2705700D3*
Y2902550D3*
D119*
X3093700Y555700D3*
D117*
Y655700D3*
X3193700Y555700D3*
Y655700D3*
X3293700Y555700D3*
Y655700D3*
X3393700Y555700D3*
Y655700D3*
X3493700Y555700D3*
Y655700D3*
X3593700Y555700D3*
Y655700D3*
D119*
X3693700Y555700D3*
D117*
Y655700D3*
X3793700Y555700D3*
Y655700D3*
X3893700Y555700D3*
Y655700D3*
X3993700Y555700D3*
Y655700D3*
X4093700Y555700D3*
Y655700D3*
D119*
X1618700Y555700D3*
D117*
Y655700D3*
X1718700Y555700D3*
Y655700D3*
X1818700Y555700D3*
Y655700D3*
X1918700Y555700D3*
Y655700D3*
X2018700Y555700D3*
Y655700D3*
X2118700Y555700D3*
Y655700D3*
D119*
X2218700Y555700D3*
D117*
Y655700D3*
X2318700Y555700D3*
Y655700D3*
X2418700Y555700D3*
Y655700D3*
X2518700Y555700D3*
Y655700D3*
X2618700Y555700D3*
Y655700D3*
X2718700Y555700D3*
Y655700D3*
X2818700Y555700D3*
Y655700D3*
D131*
X5508700Y1220700D3*
Y1405700D3*
D132*
X5583200Y1180200D3*
Y1446200D3*
D121*
X5013503Y960700D3*
X4938700D3*
X5023700Y1095700D3*
X4948897D3*
X5023700Y1250700D3*
X4948897D3*
X5028700Y1370700D3*
X4953897D3*
D32*
X3593700Y3215700D3*
Y3115700D3*
Y3015700D3*
D103*
X758503Y1051999D3*
X721102D3*
X683700D3*
Y945700D3*
X758503D3*
X928503Y1056999D3*
X891102D3*
X853700D3*
Y950700D3*
X928503D3*
D121*
X1483700Y460700D3*
X1408897D3*
D119*
X5343700Y2105716D3*
D117*
Y2005716D3*
Y1905716D3*
D101*
X718700Y743298D3*
Y818102D3*
X818700Y743298D3*
Y818102D3*
X4268700Y1055700D3*
Y1130503D3*
D119*
X5343700Y2805716D3*
D117*
Y2705716D3*
Y2605716D3*
D121*
X963700Y460700D3*
X1038503D3*
D39*
X843700Y2430700D3*
X808267D3*
D41*
X3748700Y1715700D3*
Y1750700D3*
Y1785700D3*
X3738700Y1380700D3*
Y1415700D3*
Y1450700D3*
Y1545700D3*
Y1580700D3*
Y1615700D3*
D95*
X1418306Y3055700D3*
D93*
X1119094D3*
D95*
X4793306D3*
D93*
X4494094D3*
D44*
X1323700Y2410700D3*
Y2310700D3*
Y2210700D3*
Y2110700D3*
Y2010700D3*
Y1910700D3*
Y1810700D3*
Y1710700D3*
Y1610700D3*
Y1510700D3*
Y1410700D3*
Y1310700D3*
Y1210700D3*
Y1110700D3*
X1923700D3*
Y1210700D3*
Y1310700D3*
Y1410700D3*
Y1510700D3*
Y1610700D3*
Y1710700D3*
Y1810700D3*
Y1910700D3*
Y2010700D3*
Y2110700D3*
Y2210700D3*
Y2310700D3*
Y2410700D3*
D89*
X783149Y2689952D3*
Y2652550D3*
Y2615149D3*
X889448D3*
Y2689952D3*
D87*
X3893700Y1625700D3*
Y1575700D3*
Y1525700D3*
Y1475700D3*
X4106298D3*
Y1525700D3*
Y1575700D3*
Y1625700D3*
D44*
X2803700Y3320700D3*
Y3220700D3*
Y3120700D3*
Y3020700D3*
Y2920700D3*
Y2820700D3*
Y2720700D3*
Y2620700D3*
Y2520700D3*
Y2420700D3*
Y2320700D3*
Y2220700D3*
Y2120700D3*
Y2020700D3*
X2903700Y1520700D3*
X3303700Y3220700D3*
D48*
X3148700Y3298700D3*
X3058700D3*
D44*
X3403700Y1720700D3*
Y2020700D3*
Y2120700D3*
Y2220700D3*
Y2320700D3*
Y2420700D3*
Y2520700D3*
Y2620700D3*
Y2720700D3*
Y2820700D3*
Y2920700D3*
Y3020700D3*
Y3120700D3*
Y3220700D3*
Y3320700D3*
X3303700Y1520700D3*
X2928700Y3070700D3*
Y2970700D3*
Y2870700D3*
X2803700Y1420700D3*
Y1320700D3*
Y1520700D3*
Y1620700D3*
Y1720700D3*
Y1820700D3*
Y1220700D3*
Y1120700D3*
Y1020700D3*
X3403700D3*
X2803700Y1920700D3*
X3403700Y1120700D3*
Y1920700D3*
Y1220700D3*
Y1420700D3*
Y1520700D3*
Y1620700D3*
Y1320700D3*
Y1820700D3*
X3203700Y1520700D3*
X2928700Y2770700D3*
Y2670700D3*
D117*
X4008700Y1880700D3*
X4108700D3*
X4208700D3*
D119*
X3908700D3*
D117*
X4708700D3*
X4608700D3*
X4508700D3*
X4808700D3*
X4308700D3*
X4408700D3*
D83*
X3908700Y2570700D3*
X4808700D3*
D81*
X4139700Y2530700D3*
X4577700D3*
X4277700D3*
X4439700D3*
D52*
X5283700Y1265700D3*
X5246298D3*
X5208897D3*
Y1163330D3*
X5283700D3*
D133*
X5246298D3*
D52*
X5283700Y920700D3*
X5246298D3*
X5208897D3*
Y818330D3*
X5283700D3*
D133*
X5246298D3*
D77*
X2348700Y2865700D3*
D75*
X2250275D3*
X2171535D3*
X2073109D3*
D73*
X2469566Y2972393D3*
X1952243D3*
D26*
X718700Y555700D3*
D27*
X818700D3*
M02*
