G04 DipTrace 3.2.0.1*
G04 DynamixelMUXX3P.gtl*
%MOIN*%
G04 #@! TF.FileFunction,Copper,L1,Top*
G04 #@! TF.Part,Single*
%AMOUTLINE0*
4,1,20,
0.03937,-0.039336,
0.037008,-0.052803,
0.030181,-0.064651,
0.019715,-0.073449,
0.00687,-0.078136,
-0.006803,-0.078148,
-0.019655,-0.073483,
-0.030136,-0.064703,
-0.036984,-0.052867,
-0.03937,-0.039404,
-0.03937,0.039336,
-0.037008,0.052803,
-0.030181,0.064651,
-0.019715,0.073449,
-0.00687,0.078136,
0.006803,0.078148,
0.019655,0.073483,
0.030136,0.064703,
0.036984,0.052867,
0.03937,0.039404,
0.03937,-0.039336,
0*%
%AMOUTLINE3*
4,1,20,
0.039336,0.03937,
0.052803,0.037008,
0.064651,0.030181,
0.073449,0.019715,
0.078136,0.00687,
0.078148,-0.006803,
0.073483,-0.019655,
0.064703,-0.030136,
0.052867,-0.036984,
0.039404,-0.03937,
-0.039336,-0.03937,
-0.052803,-0.037008,
-0.064651,-0.030181,
-0.073449,-0.019715,
-0.078136,-0.00687,
-0.078148,0.006803,
-0.073483,0.019655,
-0.064703,0.030136,
-0.052867,0.036984,
-0.039404,0.03937,
0.039336,0.03937,
0*%
G04 #@! TA.AperFunction,Conductor*
%ADD13C,0.06*%
%ADD14C,0.04*%
G04 #@! TA.AperFunction,CopperBalancing*
%ADD15C,0.025*%
%ADD16C,0.012992*%
G04 #@! TA.AperFunction,ComponentPad*
%ADD19R,0.098425X0.098425*%
%ADD20C,0.098425*%
%ADD21C,0.065199*%
G04 #@! TA.AperFunction,ViaPad*
%ADD22C,0.15748*%
G04 #@! TA.AperFunction,ComponentPad*
%ADD38OUTLINE0*%
%ADD41OUTLINE3*%
%FSLAX26Y26*%
G04*
G70*
G90*
G75*
G01*
G04 Top*
%LPD*%
X1401851Y1103701D2*
D13*
X1195158D1*
X988465D1*
X962874Y668701D2*
X1169567D1*
X1376260D1*
X962874D2*
Y661484D1*
X855379D1*
X818740Y805512D1*
X800982Y800000D1*
X918544Y1103701D1*
X988465D1*
X659292Y1102362D2*
Y997953D1*
X688544Y968701D1*
Y860158D1*
X818740Y805512D1*
X1376260Y668701D2*
X1528544D1*
X1663544Y803701D1*
X1401851Y1103701D2*
X1481294D1*
X1631250Y793448D1*
X1663544Y803701D1*
X962874Y767126D2*
D14*
X1169567D1*
X1376260D1*
X988465Y1005276D2*
X1195158D1*
X1401851D1*
D22*
X491969Y492126D3*
X1673071D3*
Y1279528D3*
X491969D3*
X587457Y1328777D2*
D15*
X1577561D1*
X596822Y1303908D2*
X1568195D1*
X599693Y1279040D2*
X1565325D1*
X596607Y1254171D2*
X957985D1*
X1018964D2*
X1164678D1*
X1225657D2*
X1371370D1*
X1432350D2*
X1568446D1*
X586954Y1229302D2*
X933476D1*
X1043437D2*
X1140169D1*
X1250130D2*
X1346862D1*
X1456823D2*
X1578099D1*
X568187Y1204433D2*
X926909D1*
X1050004D2*
X1133602D1*
X1256697D2*
X1340295D1*
X1463390D2*
X1596867D1*
X438717Y1179565D2*
X456575D1*
X527351D2*
X931359D1*
X1045590D2*
X1138051D1*
X1252283D2*
X1344744D1*
X1458976D2*
X1637703D1*
X1708443D2*
X1754219D1*
X438717Y1154696D2*
X550591D1*
X610494D2*
X629357D1*
X689224D2*
X708087D1*
X767990D2*
X950736D1*
X1026213D2*
X1157429D1*
X1232905D2*
X1364122D1*
X1439598D2*
X1754219D1*
X438717Y1129827D2*
X525724D1*
X792858D2*
X932973D1*
X1043975D2*
X1139666D1*
X1250668D2*
X1346359D1*
X1457361D2*
X1754219D1*
X438717Y1104958D2*
X519013D1*
X799568D2*
X926873D1*
X1050040D2*
X1133566D1*
X1256733D2*
X1340259D1*
X1463426D2*
X1754219D1*
X438717Y1080089D2*
X523319D1*
X795262D2*
X931789D1*
X1045124D2*
X1138482D1*
X1251816D2*
X1345175D1*
X1458509D2*
X1754219D1*
X438717Y1055221D2*
X542410D1*
X776172D2*
X952171D1*
X1024741D2*
X1158864D1*
X1231434D2*
X1365557D1*
X1438127D2*
X1608673D1*
X1718419D2*
X1754219D1*
X438717Y1030352D2*
X932471D1*
X1457863D2*
X1591448D1*
X1735643D2*
X1754219D1*
X438717Y1005483D2*
X926873D1*
X1463426D2*
X1585491D1*
X1741600D2*
X1754219D1*
X438717Y980614D2*
X932256D1*
X1458043D2*
X1588003D1*
X1739088D2*
X1754219D1*
X438717Y955746D2*
X953750D1*
X1023198D2*
X1160443D1*
X1229891D2*
X1367136D1*
X1436584D2*
X1600025D1*
X1727067D2*
X1754219D1*
X438717Y930877D2*
X564084D1*
X577308D2*
X812151D1*
X825358D2*
X1631423D1*
X1695668D2*
X1754219D1*
X438717Y906008D2*
X509145D1*
X632276D2*
X757177D1*
X880272D2*
X1754219D1*
X438717Y881139D2*
X492639D1*
X648783D2*
X740670D1*
X896814D2*
X1754219D1*
X438717Y856271D2*
X486395D1*
X655027D2*
X734426D1*
X903058D2*
X1585348D1*
X1741743D2*
X1754219D1*
X438717Y831402D2*
X486036D1*
X655385D2*
X734067D1*
X903417D2*
X1585348D1*
X1741743D2*
X1754219D1*
X438717Y806533D2*
X486036D1*
X655385D2*
X734067D1*
X903417D2*
X916323D1*
X1422805D2*
X1585348D1*
X1741743D2*
X1754219D1*
X438717Y781664D2*
X486036D1*
X655385D2*
X734067D1*
X1436046D2*
X1585348D1*
X1741743D2*
X1754219D1*
X438717Y756795D2*
X486251D1*
X655170D2*
X734283D1*
X1436943D2*
X1585348D1*
X1741743D2*
X1754219D1*
X438717Y731927D2*
X491813D1*
X649608D2*
X739881D1*
X897604D2*
X912914D1*
X1426214D2*
X1585348D1*
X1741743D2*
X1754219D1*
X438717Y707058D2*
X507315D1*
X634106D2*
X755347D1*
X882102D2*
X915426D1*
X1010316D2*
X1122119D1*
X1217009D2*
X1328812D1*
X1423702D2*
X1754219D1*
X438717Y682189D2*
X549407D1*
X592014D2*
X618197D1*
X783061D2*
X797439D1*
X839974D2*
X902831D1*
X1022911D2*
X1109524D1*
X1229604D2*
X1316216D1*
X1436297D2*
X1754219D1*
X438717Y657320D2*
X588593D1*
X812666D2*
X902400D1*
X1023378D2*
X1109093D1*
X1230071D2*
X1315786D1*
X1436764D2*
X1754219D1*
X438717Y632452D2*
X576141D1*
X825082D2*
X913704D1*
X1012038D2*
X1120396D1*
X1218731D2*
X1327089D1*
X1425424D2*
X1754219D1*
X438717Y607583D2*
X572624D1*
X828598D2*
X914565D1*
X1011213D2*
X1121258D1*
X1217906D2*
X1327951D1*
X1424599D2*
X1754219D1*
X548020Y582714D2*
X576859D1*
X824364D2*
X902615D1*
X1023127D2*
X1109308D1*
X1229819D2*
X1316001D1*
X1436512D2*
X1617034D1*
X1729112D2*
X1754219D1*
X576655Y557845D2*
X590208D1*
X811051D2*
X902615D1*
X1023127D2*
X1109308D1*
X1229819D2*
X1316001D1*
X1436512D2*
X1588398D1*
X591440Y532977D2*
X622790D1*
X778504D2*
X914529D1*
X1011213D2*
X1121222D1*
X1217906D2*
X1327915D1*
X1424599D2*
X1573578D1*
X598473Y508108D2*
X1566545D1*
X599334Y483239D2*
X1565719D1*
X594131Y458370D2*
X1570887D1*
X1589676Y879406D2*
X1739248D1*
Y727996D1*
X1587839D1*
Y879406D1*
X1589676D1*
X1739015Y994612D2*
X1738316Y988709D1*
X1737157Y982878D1*
X1735543Y977157D1*
X1733486Y971580D1*
X1730997Y966182D1*
X1728092Y960996D1*
X1724790Y956053D1*
X1721110Y951385D1*
X1717075Y947020D1*
X1712710Y942985D1*
X1708042Y939305D1*
X1703099Y936003D1*
X1697913Y933098D1*
X1692514Y930609D1*
X1686938Y928552D1*
X1681216Y926938D1*
X1675386Y925779D1*
X1669483Y925080D1*
X1663544Y924847D1*
X1657604Y925080D1*
X1651701Y925779D1*
X1645871Y926938D1*
X1640149Y928552D1*
X1634573Y930609D1*
X1629174Y933098D1*
X1623988Y936003D1*
X1619045Y939305D1*
X1614377Y942985D1*
X1610012Y947020D1*
X1605977Y951385D1*
X1602297Y956053D1*
X1598995Y960996D1*
X1596090Y966182D1*
X1593601Y971580D1*
X1591544Y977157D1*
X1589931Y982878D1*
X1588771Y988709D1*
X1588072Y994612D1*
X1587839Y1000551D1*
X1588072Y1006491D1*
X1588771Y1012394D1*
X1589931Y1018224D1*
X1591544Y1023945D1*
X1593601Y1029522D1*
X1596090Y1034921D1*
X1598995Y1040107D1*
X1602297Y1045050D1*
X1605977Y1049718D1*
X1610012Y1054083D1*
X1614377Y1058118D1*
X1619045Y1061798D1*
X1623988Y1065100D1*
X1629174Y1068005D1*
X1634573Y1070493D1*
X1640149Y1072551D1*
X1645871Y1074164D1*
X1651701Y1075324D1*
X1657604Y1076023D1*
X1663544Y1076256D1*
X1669483Y1076023D1*
X1675386Y1075324D1*
X1681216Y1074164D1*
X1686938Y1072551D1*
X1692514Y1070493D1*
X1697913Y1068005D1*
X1703099Y1065100D1*
X1708042Y1061798D1*
X1712710Y1058118D1*
X1717075Y1054083D1*
X1721110Y1049718D1*
X1724790Y1045050D1*
X1728092Y1040107D1*
X1730997Y1034921D1*
X1733486Y1029522D1*
X1735543Y1023945D1*
X1737157Y1018224D1*
X1738316Y1012394D1*
X1739015Y1006491D1*
X1739248Y1000551D1*
X1739015Y994612D1*
X1047374Y1197490D2*
X1045924Y1188331D1*
X1043059Y1179513D1*
X1038849Y1171251D1*
X1033399Y1163749D1*
X1026842Y1157192D1*
X1021134Y1152940D1*
X1026423Y1148989D1*
X1031748Y1143931D1*
X1036404Y1138251D1*
X1040319Y1132037D1*
X1043434Y1125386D1*
X1045699Y1118400D1*
X1047081Y1111186D1*
X1047557Y1103701D1*
X1047100Y1096371D1*
X1045738Y1089154D1*
X1043491Y1082162D1*
X1040394Y1075502D1*
X1036495Y1069278D1*
X1031854Y1063586D1*
X1026543Y1058514D1*
X1021174Y1054495D1*
X1024863Y1051769D1*
X1158663Y1051768D1*
X1162489Y1054462D1*
X1157139Y1058463D1*
X1151821Y1063529D1*
X1147173Y1069215D1*
X1143266Y1075433D1*
X1140160Y1082089D1*
X1137904Y1089078D1*
X1136532Y1096293D1*
X1136066Y1103623D1*
X1136513Y1110953D1*
X1137865Y1118172D1*
X1140103Y1125167D1*
X1143191Y1131831D1*
X1147082Y1138060D1*
X1151715Y1143758D1*
X1157020Y1148838D1*
X1162455Y1152911D1*
X1156781Y1157192D1*
X1150224Y1163749D1*
X1144774Y1171251D1*
X1140564Y1179513D1*
X1137699Y1188331D1*
X1136248Y1197490D1*
Y1206762D1*
X1137699Y1215921D1*
X1140564Y1224740D1*
X1144774Y1233002D1*
X1150224Y1240503D1*
X1156781Y1247060D1*
X1164282Y1252510D1*
X1172544Y1256720D1*
X1181363Y1259585D1*
X1190521Y1261036D1*
X1199794D1*
X1208952Y1259585D1*
X1217771Y1256720D1*
X1226033Y1252510D1*
X1233535Y1247060D1*
X1240091Y1240503D1*
X1245542Y1233002D1*
X1249751Y1224740D1*
X1252617Y1215921D1*
X1254067Y1206762D1*
Y1197490D1*
X1252617Y1188331D1*
X1249751Y1179513D1*
X1245542Y1171251D1*
X1240091Y1163749D1*
X1233535Y1157192D1*
X1227826Y1152940D1*
X1233116Y1148989D1*
X1238441Y1143931D1*
X1243097Y1138251D1*
X1247012Y1132037D1*
X1250127Y1125386D1*
X1252392Y1118400D1*
X1253774Y1111186D1*
X1254250Y1103701D1*
X1253793Y1096371D1*
X1252431Y1089154D1*
X1250184Y1082162D1*
X1247087Y1075502D1*
X1243188Y1069278D1*
X1238547Y1063586D1*
X1233236Y1058514D1*
X1227867Y1054495D1*
X1231556Y1051769D1*
X1365356Y1051768D1*
X1369182Y1054462D1*
X1363832Y1058463D1*
X1358514Y1063529D1*
X1353866Y1069215D1*
X1349958Y1075433D1*
X1346853Y1082089D1*
X1344597Y1089078D1*
X1343225Y1096293D1*
X1342759Y1103623D1*
X1343205Y1110953D1*
X1344558Y1118172D1*
X1346796Y1125167D1*
X1349884Y1131831D1*
X1353775Y1138060D1*
X1358408Y1143758D1*
X1363713Y1148838D1*
X1369148Y1152911D1*
X1363474Y1157192D1*
X1356917Y1163749D1*
X1351467Y1171251D1*
X1347257Y1179513D1*
X1344391Y1188331D1*
X1342941Y1197490D1*
Y1206762D1*
X1344391Y1215921D1*
X1347257Y1224740D1*
X1351467Y1233002D1*
X1356917Y1240503D1*
X1363474Y1247060D1*
X1370975Y1252510D1*
X1379237Y1256720D1*
X1388056Y1259585D1*
X1397214Y1261036D1*
X1406487D1*
X1415645Y1259585D1*
X1424464Y1256720D1*
X1432726Y1252510D1*
X1440228Y1247060D1*
X1446784Y1240503D1*
X1452235Y1233002D1*
X1456444Y1224740D1*
X1459310Y1215921D1*
X1460760Y1206762D1*
Y1197490D1*
X1459310Y1188331D1*
X1456444Y1179513D1*
X1452235Y1171251D1*
X1446784Y1163749D1*
X1440228Y1157192D1*
X1434519Y1152940D1*
X1439809Y1148989D1*
X1445134Y1143931D1*
X1449790Y1138251D1*
X1453705Y1132037D1*
X1456820Y1125386D1*
X1459085Y1118400D1*
X1460466Y1111186D1*
X1460942Y1103701D1*
X1460486Y1096371D1*
X1459124Y1089154D1*
X1456877Y1082162D1*
X1453780Y1075502D1*
X1449881Y1069278D1*
X1445240Y1063586D1*
X1439929Y1058514D1*
X1434560Y1054495D1*
X1440228Y1050210D1*
X1446784Y1043653D1*
X1452235Y1036151D1*
X1456444Y1027889D1*
X1459310Y1019071D1*
X1460760Y1009912D1*
Y1000640D1*
X1459310Y991481D1*
X1456444Y982662D1*
X1452235Y974400D1*
X1446784Y966899D1*
X1440228Y960342D1*
X1432726Y954892D1*
X1424464Y950682D1*
X1415645Y947817D1*
X1406487Y946366D1*
X1397214D1*
X1388056Y947817D1*
X1379237Y950682D1*
X1370975Y954892D1*
X1365452Y958782D1*
X1231652Y958784D1*
X1226033Y954892D1*
X1217771Y950682D1*
X1208952Y947817D1*
X1199794Y946366D1*
X1190521D1*
X1181363Y947817D1*
X1172544Y950682D1*
X1164282Y954892D1*
X1158759Y958782D1*
X1024959Y958784D1*
X1019340Y954892D1*
X1011078Y950682D1*
X1002260Y947817D1*
X993101Y946366D1*
X983828D1*
X974670Y947817D1*
X965851Y950682D1*
X957589Y954892D1*
X950088Y960342D1*
X943531Y966899D1*
X938081Y974400D1*
X933871Y982662D1*
X931006Y991481D1*
X929555Y1000640D1*
Y1009912D1*
X931006Y1019071D1*
X933871Y1027889D1*
X938081Y1036151D1*
X943531Y1043653D1*
X950088Y1050210D1*
X955796Y1054462D1*
X950446Y1058463D1*
X945128Y1063529D1*
X940480Y1069215D1*
X936573Y1075433D1*
X933467Y1082089D1*
X931211Y1089078D1*
X929839Y1096293D1*
X929373Y1103623D1*
X929820Y1110953D1*
X931172Y1118172D1*
X933410Y1125167D1*
X936498Y1131831D1*
X940389Y1138060D1*
X945022Y1143758D1*
X950327Y1148838D1*
X955762Y1152911D1*
X950088Y1157192D1*
X943531Y1163749D1*
X938081Y1171251D1*
X933871Y1179513D1*
X931006Y1188331D1*
X929555Y1197490D1*
Y1206762D1*
X931006Y1215921D1*
X933871Y1224740D1*
X938081Y1233002D1*
X943531Y1240503D1*
X950088Y1247060D1*
X957589Y1252510D1*
X965851Y1256720D1*
X974670Y1259585D1*
X983828Y1261036D1*
X993101D1*
X1002260Y1259585D1*
X1011078Y1256720D1*
X1019340Y1252510D1*
X1026842Y1247060D1*
X1033399Y1240503D1*
X1038849Y1233002D1*
X1043059Y1224740D1*
X1045924Y1215921D1*
X1047374Y1206762D1*
Y1197490D1*
X1021784Y565640D2*
X1020333Y556481D1*
X1017468Y547662D1*
X1013258Y539400D1*
X1007808Y531899D1*
X1001251Y525342D1*
X993750Y519892D1*
X985488Y515682D1*
X976669Y512817D1*
X967511Y511366D1*
X958238D1*
X949080Y512817D1*
X940261Y515682D1*
X931999Y519892D1*
X924497Y525342D1*
X917940Y531899D1*
X912490Y539400D1*
X908280Y547662D1*
X905415Y556481D1*
X903965Y565640D1*
Y574912D1*
X905415Y584071D1*
X908280Y592889D1*
X912490Y601151D1*
X917940Y608653D1*
X924497Y615210D1*
X930205Y619462D1*
X924856Y623463D1*
X919538Y628529D1*
X914889Y634215D1*
X910982Y640433D1*
X907876Y647089D1*
X905620Y654078D1*
X904249Y661293D1*
X903782Y668623D1*
X904229Y675953D1*
X905582Y683172D1*
X907819Y690167D1*
X910907Y696831D1*
X914798Y703060D1*
X919432Y708758D1*
X924736Y713838D1*
X930171Y717911D1*
X924497Y722192D1*
X917940Y728749D1*
X912490Y736251D1*
X908280Y744513D1*
X905415Y753331D1*
X903965Y762490D1*
Y771762D1*
X905415Y780921D1*
X908280Y789740D1*
X912490Y798002D1*
X917940Y805503D1*
X924497Y812060D1*
X931999Y817510D1*
X940261Y821720D1*
X949080Y824585D1*
X958238Y826036D1*
X967511D1*
X976669Y824585D1*
X985488Y821720D1*
X993750Y817510D1*
X999273Y813620D1*
X1133073Y813618D1*
X1138692Y817510D1*
X1146954Y821720D1*
X1155772Y824585D1*
X1164931Y826036D1*
X1174203D1*
X1183362Y824585D1*
X1192181Y821720D1*
X1200443Y817510D1*
X1205966Y813620D1*
X1339766Y813618D1*
X1345385Y817510D1*
X1353647Y821720D1*
X1362465Y824585D1*
X1371624Y826036D1*
X1380896D1*
X1390055Y824585D1*
X1398874Y821720D1*
X1407135Y817510D1*
X1414637Y812060D1*
X1421194Y805503D1*
X1426644Y798002D1*
X1430854Y789740D1*
X1433719Y780921D1*
X1435170Y771762D1*
Y762490D1*
X1433719Y753331D1*
X1430854Y744513D1*
X1426644Y736251D1*
X1421194Y728749D1*
X1414637Y722192D1*
X1408929Y717940D1*
X1414219Y713989D1*
X1419543Y708931D1*
X1424199Y703251D1*
X1428115Y697037D1*
X1431229Y690386D1*
X1433495Y683400D1*
X1434876Y676186D1*
X1435352Y668701D1*
X1434896Y661371D1*
X1433533Y654154D1*
X1431286Y647162D1*
X1428190Y640502D1*
X1424291Y634278D1*
X1419650Y628586D1*
X1414338Y623514D1*
X1408969Y619495D1*
X1414637Y615210D1*
X1421194Y608653D1*
X1426644Y601151D1*
X1430854Y592889D1*
X1433719Y584071D1*
X1435170Y574912D1*
Y565640D1*
X1433719Y556481D1*
X1430854Y547662D1*
X1426644Y539400D1*
X1421194Y531899D1*
X1414637Y525342D1*
X1407135Y519892D1*
X1398874Y515682D1*
X1390055Y512817D1*
X1380896Y511366D1*
X1371624D1*
X1362465Y512817D1*
X1353647Y515682D1*
X1345385Y519892D1*
X1337883Y525342D1*
X1331326Y531899D1*
X1325876Y539400D1*
X1321666Y547662D1*
X1318801Y556481D1*
X1317350Y565640D1*
Y574912D1*
X1318801Y584071D1*
X1321666Y592889D1*
X1325876Y601151D1*
X1331326Y608653D1*
X1337883Y615210D1*
X1343591Y619462D1*
X1338242Y623463D1*
X1332924Y628529D1*
X1328275Y634215D1*
X1324368Y640433D1*
X1321262Y647089D1*
X1319006Y654078D1*
X1317634Y661293D1*
X1317168Y668623D1*
X1317615Y675953D1*
X1318968Y683172D1*
X1321205Y690167D1*
X1324293Y696831D1*
X1328184Y703060D1*
X1332817Y708758D1*
X1338122Y713838D1*
X1343557Y717911D1*
X1339861Y720633D1*
X1206061Y720634D1*
X1202236Y717940D1*
X1207526Y713989D1*
X1212850Y708931D1*
X1217506Y703251D1*
X1221422Y697037D1*
X1224536Y690386D1*
X1226802Y683400D1*
X1228183Y676186D1*
X1228659Y668701D1*
X1228203Y661371D1*
X1226840Y654154D1*
X1224594Y647162D1*
X1221497Y640502D1*
X1217598Y634278D1*
X1212957Y628586D1*
X1207645Y623514D1*
X1202276Y619495D1*
X1207944Y615210D1*
X1214501Y608653D1*
X1219951Y601151D1*
X1224161Y592889D1*
X1227026Y584071D1*
X1228477Y574912D1*
Y565640D1*
X1227026Y556481D1*
X1224161Y547662D1*
X1219951Y539400D1*
X1214501Y531899D1*
X1207944Y525342D1*
X1200443Y519892D1*
X1192181Y515682D1*
X1183362Y512817D1*
X1174203Y511366D1*
X1164931D1*
X1155772Y512817D1*
X1146954Y515682D1*
X1138692Y519892D1*
X1131190Y525342D1*
X1124633Y531899D1*
X1119183Y539400D1*
X1114973Y547662D1*
X1112108Y556481D1*
X1110657Y565640D1*
Y574912D1*
X1112108Y584071D1*
X1114973Y592889D1*
X1119183Y601151D1*
X1124633Y608653D1*
X1131190Y615210D1*
X1136898Y619462D1*
X1131549Y623463D1*
X1126231Y628529D1*
X1121582Y634215D1*
X1117675Y640433D1*
X1114569Y647089D1*
X1112313Y654078D1*
X1110941Y661293D1*
X1110475Y668623D1*
X1110922Y675953D1*
X1112275Y683172D1*
X1114512Y690167D1*
X1117600Y696831D1*
X1121491Y703060D1*
X1126125Y708758D1*
X1131429Y713838D1*
X1136864Y717911D1*
X1133168Y720633D1*
X999368Y720634D1*
X995543Y717940D1*
X1000833Y713989D1*
X1006157Y708931D1*
X1010813Y703251D1*
X1014729Y697037D1*
X1017843Y690386D1*
X1020109Y683400D1*
X1021490Y676186D1*
X1021966Y668701D1*
X1021510Y661371D1*
X1020148Y654154D1*
X1017901Y647162D1*
X1014804Y640502D1*
X1010905Y634278D1*
X1006264Y628586D1*
X1000953Y623514D1*
X995583Y619495D1*
X1001251Y615210D1*
X1007808Y608653D1*
X1013258Y601151D1*
X1017468Y592889D1*
X1020333Y584071D1*
X1021784Y574912D1*
Y565640D1*
X619900Y1058327D2*
X615285Y1054556D1*
X607379Y1049711D1*
X598812Y1046163D1*
X589795Y1043998D1*
X580551Y1043271D1*
X571307Y1043998D1*
X562291Y1046163D1*
X553724Y1049711D1*
X545818Y1054556D1*
X538767Y1060578D1*
X532745Y1067629D1*
X527900Y1075535D1*
X524352Y1084102D1*
X522187Y1093118D1*
X521460Y1102362D1*
X522187Y1111606D1*
X524352Y1120623D1*
X527900Y1129190D1*
X532745Y1137096D1*
X538767Y1144147D1*
X545818Y1150169D1*
X553724Y1155014D1*
X562291Y1158562D1*
X571307Y1160727D1*
X580551Y1161454D1*
X589795Y1160727D1*
X598812Y1158562D1*
X607379Y1155014D1*
X615285Y1150169D1*
X619900Y1146398D1*
X625523Y1150855D1*
X631799Y1154670D1*
X638500Y1157676D1*
X645522Y1159828D1*
X652757Y1161092D1*
X660093Y1161449D1*
X667416Y1160893D1*
X674614Y1159433D1*
X681575Y1157092D1*
X688192Y1153905D1*
X694362Y1149922D1*
X698666Y1146424D1*
X703298Y1150169D1*
X711205Y1155014D1*
X719771Y1158562D1*
X728788Y1160727D1*
X738032Y1161454D1*
X747276Y1160727D1*
X756292Y1158562D1*
X764859Y1155014D1*
X772765Y1150169D1*
X779816Y1144147D1*
X785838Y1137096D1*
X790683Y1129190D1*
X794231Y1120623D1*
X796396Y1111606D1*
X797124Y1102362D1*
X796396Y1093118D1*
X794231Y1084102D1*
X790683Y1075535D1*
X785838Y1067629D1*
X779816Y1060578D1*
X772765Y1054556D1*
X764859Y1049711D1*
X756292Y1046163D1*
X747276Y1043998D1*
X738032Y1043271D1*
X728788Y1043998D1*
X719771Y1046163D1*
X711205Y1049711D1*
X703298Y1054556D1*
X698683Y1058327D1*
X692996Y1053825D1*
X686714Y1050019D1*
X680009Y1047022D1*
X672985Y1044879D1*
X665748Y1043624D1*
X658412Y1043277D1*
X651090Y1043843D1*
X643894Y1045312D1*
X636936Y1047663D1*
X630323Y1050858D1*
X624158Y1054850D1*
X619923Y1058296D1*
X596877Y483870D2*
X595905Y475664D1*
X594293Y467560D1*
X592051Y459608D1*
X589191Y451856D1*
X585731Y444352D1*
X581066Y436203D1*
X1583906Y436201D1*
X1579308Y444352D1*
X1575849Y451856D1*
X1572989Y459608D1*
X1570746Y467560D1*
X1569134Y475664D1*
X1568163Y483870D1*
X1567839Y492126D1*
X1568163Y500383D1*
X1569134Y508588D1*
X1570746Y516692D1*
X1572989Y524645D1*
X1575849Y532397D1*
X1579308Y539901D1*
X1583346Y547110D1*
X1587936Y553980D1*
X1593052Y560469D1*
X1598661Y566537D1*
X1604728Y572145D1*
X1611217Y577261D1*
X1618087Y581851D1*
X1625297Y585889D1*
X1632800Y589348D1*
X1640553Y592208D1*
X1648505Y594451D1*
X1656609Y596063D1*
X1664815Y597034D1*
X1673071Y597358D1*
X1681328Y597034D1*
X1689533Y596063D1*
X1697637Y594451D1*
X1705590Y592208D1*
X1713342Y589348D1*
X1720846Y585889D1*
X1728055Y581851D1*
X1734925Y577261D1*
X1741414Y572145D1*
X1747482Y566537D1*
X1753090Y560469D1*
X1756707Y555881D1*
X1756713Y1215672D1*
X1747482Y1205117D1*
X1741414Y1199509D1*
X1734925Y1194393D1*
X1728055Y1189803D1*
X1720846Y1185765D1*
X1713342Y1182306D1*
X1705590Y1179446D1*
X1697637Y1177203D1*
X1689533Y1175591D1*
X1681328Y1174620D1*
X1673071Y1174295D1*
X1664815Y1174620D1*
X1656609Y1175591D1*
X1648505Y1177203D1*
X1640553Y1179446D1*
X1632800Y1182306D1*
X1625297Y1185765D1*
X1618087Y1189803D1*
X1611217Y1194393D1*
X1604728Y1199509D1*
X1598661Y1205117D1*
X1593052Y1211185D1*
X1587936Y1217674D1*
X1583346Y1224544D1*
X1579308Y1231753D1*
X1575849Y1239257D1*
X1572989Y1247009D1*
X1570746Y1254962D1*
X1569134Y1263066D1*
X1568163Y1271271D1*
X1567839Y1279528D1*
X1568163Y1287784D1*
X1569134Y1295990D1*
X1570746Y1304094D1*
X1572989Y1312046D1*
X1575849Y1319798D1*
X1579308Y1327302D1*
X1583973Y1335451D1*
X581086Y1335453D1*
X585731Y1327302D1*
X589191Y1319798D1*
X592051Y1312046D1*
X594293Y1304094D1*
X595905Y1295990D1*
X596877Y1287784D1*
X597201Y1279528D1*
X596877Y1271271D1*
X595905Y1263066D1*
X594293Y1254962D1*
X592051Y1247009D1*
X589191Y1239257D1*
X585731Y1231753D1*
X581694Y1224544D1*
X577103Y1217674D1*
X571988Y1211185D1*
X566379Y1205117D1*
X560312Y1199509D1*
X553823Y1194393D1*
X546952Y1189803D1*
X539743Y1185765D1*
X532239Y1182306D1*
X524487Y1179446D1*
X516535Y1177203D1*
X508431Y1175591D1*
X500225Y1174620D1*
X491969Y1174295D1*
X483712Y1174620D1*
X475507Y1175591D1*
X467403Y1177203D1*
X459450Y1179446D1*
X451698Y1182306D1*
X444194Y1185765D1*
X436207Y1190323D1*
X436201Y581395D1*
X444194Y585889D1*
X451698Y589348D1*
X459450Y592208D1*
X467403Y594451D1*
X475507Y596063D1*
X483712Y597034D1*
X491969Y597358D1*
X500225Y597034D1*
X508431Y596063D1*
X516535Y594451D1*
X524487Y592208D1*
X532239Y589348D1*
X539743Y585889D1*
X546952Y581851D1*
X553823Y577261D1*
X560312Y572145D1*
X566379Y566537D1*
X571988Y560469D1*
X577103Y553980D1*
X581694Y547110D1*
X585731Y539901D1*
X589191Y532397D1*
X592051Y524645D1*
X594293Y516692D1*
X595905Y508588D1*
X596877Y500383D1*
X597201Y492126D1*
X596877Y483870D1*
X822994Y930868D2*
X828729Y930401D1*
X839282Y928401D1*
X849483Y925042D1*
X859160Y920382D1*
X868146Y914500D1*
X876289Y907497D1*
X883449Y899492D1*
X889505Y890621D1*
X894352Y881037D1*
X896940Y874019D1*
X899357Y864616D1*
X900662Y854997D1*
X900933Y839637D1*
X900706Y756784D1*
X899504Y747215D1*
X898276Y741574D1*
X894922Y731438D1*
X890285Y721822D1*
X884442Y712886D1*
X877493Y704781D1*
X869553Y697644D1*
X860756Y691594D1*
X851250Y686733D1*
X841196Y683143D1*
X830761Y680884D1*
X819386Y679983D1*
X808673Y680609D1*
X798131Y682625D1*
X787943Y685997D1*
X778280Y690666D1*
X769307Y696555D1*
X763564Y701350D1*
X756786Y708289D1*
X750863Y715969D1*
X745647Y724749D1*
X743148Y730015D1*
X739599Y740143D1*
X737398Y750648D1*
X736716Y758072D1*
X736579Y798954D1*
X736823Y854714D1*
X738094Y864392D1*
X740494Y873855D1*
X742456Y879411D1*
X747117Y889149D1*
X753015Y898191D1*
X760049Y906381D1*
X768097Y913577D1*
X777019Y919655D1*
X786662Y924510D1*
X796858Y928058D1*
X807432Y930237D1*
X814887Y930892D1*
X819812Y931002D1*
X575092Y930860D2*
X585301Y929686D1*
X592624Y928052D1*
X601329Y925117D1*
X611064Y920450D1*
X620103Y914546D1*
X628289Y907508D1*
X635480Y899456D1*
X641553Y890530D1*
X646402Y880884D1*
X649944Y870686D1*
X652117Y860111D1*
X652885Y848823D1*
X652648Y756556D1*
X651414Y746936D1*
X648901Y737037D1*
X646949Y731545D1*
X642305Y721870D1*
X636440Y712881D1*
X629455Y704734D1*
X621469Y697565D1*
X612616Y691497D1*
X603049Y686634D1*
X596035Y684030D1*
X586647Y681594D1*
X577039Y680267D1*
X571338Y679983D1*
X560625Y680609D1*
X550083Y682625D1*
X539895Y685997D1*
X530232Y690667D1*
X521259Y696555D1*
X513130Y703562D1*
X505982Y711567D1*
X499938Y720435D1*
X495100Y730015D1*
X491550Y740143D1*
X489350Y750648D1*
X488668Y758068D1*
X488531Y798954D1*
X488775Y854714D1*
X490046Y864392D1*
X492446Y873855D1*
X494408Y879411D1*
X499069Y889149D1*
X504967Y898191D1*
X509751Y903946D1*
X516724Y910778D1*
X524450Y916745D1*
X533287Y921991D1*
X538614Y924510D1*
X548810Y928057D1*
X559384Y930237D1*
X569671Y931003D1*
X575092Y930860D1*
X825980Y604754D2*
X825536Y598961D1*
X823568Y588346D1*
X820225Y578081D1*
X815564Y568343D1*
X809666Y559301D1*
X802632Y551111D1*
X794584Y543915D1*
X785662Y537837D1*
X776019Y532982D1*
X765823Y529435D1*
X755249Y527255D1*
X743925Y526480D1*
X651821Y526706D1*
X642172Y527925D1*
X635356Y529468D1*
X626721Y532385D1*
X617017Y537035D1*
X608004Y542912D1*
X599835Y549916D1*
X592652Y557927D1*
X586576Y566808D1*
X581713Y576407D1*
X578145Y586558D1*
X575933Y597089D1*
X575113Y608091D1*
X575747Y618794D1*
X577767Y629323D1*
X581140Y639500D1*
X585807Y649152D1*
X591690Y658115D1*
X598689Y666237D1*
X606684Y673380D1*
X615540Y679423D1*
X625107Y684262D1*
X635222Y687817D1*
X642520Y689472D1*
X652136Y690649D1*
X666532Y690858D1*
X749536Y690625D1*
X759182Y689391D1*
X769106Y686873D1*
X774620Y684911D1*
X784315Y680249D1*
X793317Y674360D1*
X801472Y667346D1*
X808642Y659327D1*
X814703Y650440D1*
X819550Y640837D1*
X823102Y630683D1*
X825297Y620153D1*
X825972Y612702D1*
X826095Y607777D1*
X1663544Y879370D2*
D16*
Y728032D1*
X1587875Y803701D2*
X1739213D1*
X929409Y1103701D2*
X1047521D1*
X903818Y668701D2*
X1021930D1*
X1136102Y1103701D2*
X1254214D1*
X1110511Y668701D2*
X1228623D1*
X1342795Y1103701D2*
X1460907D1*
X1317204Y668701D2*
X1435316D1*
X659292Y1161418D2*
Y1043306D1*
D38*
X818740Y805512D3*
X570709D3*
D41*
X700630Y608662D3*
D19*
X1663544Y803701D3*
D20*
Y1000551D3*
D21*
X988465Y1202126D3*
Y1103701D3*
Y1005276D3*
X962874Y570276D3*
Y668701D3*
Y767126D3*
X1195158Y1202126D3*
Y1103701D3*
Y1005276D3*
X1169567Y570276D3*
Y668701D3*
Y767126D3*
X1401851Y1202126D3*
Y1103701D3*
Y1005276D3*
X1376260Y570276D3*
Y668701D3*
Y767126D3*
X580551Y1102362D3*
X659292D3*
X738032D3*
M02*
