M48
INCH
T01C0.0394
T02C0.04
T03C0.0512
T04C0.1181
%
T01
X+008187Y+008055
X+005707Y+008055
X+007006Y+006087
T03
X+016635Y+008037
X+016635Y+010006
T02
X+009885Y+012021
X+009885Y+011037
X+009885Y+010053
X+009629Y+005703
X+009629Y+006687
X+009629Y+007671
X+011952Y+012021
X+011952Y+011037
X+011952Y+010053
X+011696Y+005703
X+011696Y+006687
X+011696Y+007671
X+014019Y+012021
X+014019Y+011037
X+014019Y+010053
X+013763Y+005703
X+013763Y+006687
X+013763Y+007671
X+005806Y+011024
X+006593Y+011024
X+007380Y+011024
T04
X+004920Y+004921
X+016731Y+004921
X+016731Y+012795
X+004920Y+012795
T00
M30
