G04 DipTrace 3.3.1.3*
G04 T41_castellated.gbl*
%MOIN*%
G04 #@! TF.FileFunction,Copper,L2,Bot*
G04 #@! TF.Part,Single*
G04 #@! TA.AperFunction,Conductor*
%ADD13C,0.008*%
G04 #@! TA.AperFunction,ComponentPad*
%ADD14R,0.035433X0.059055*%
%ADD16C,0.074*%
%ADD17R,0.035433X0.062992*%
%FSLAX26Y26*%
G04*
G70*
G90*
G75*
G01*
G04 Bottom*
%LPD*%
X640700Y902243D2*
D13*
Y963700D1*
X1318700D1*
X1343700Y988700D1*
Y1043700D1*
X1348700Y1048700D1*
X640700Y595157D2*
Y591700D1*
X653700Y578700D1*
X1448700D1*
Y448700D1*
X448700Y548700D2*
Y543700D1*
X463700Y528700D1*
X1033700D1*
Y463700D1*
X1048700Y448700D1*
D14*
X966700Y862873D3*
X866700D3*
Y634527D3*
D16*
X448700Y548700D3*
Y648700D3*
Y748700D3*
Y848700D3*
Y948700D3*
D17*
X690700Y886495D3*
X640700Y902243D3*
X540700Y595157D3*
X640700D3*
D16*
X1448700Y448700D3*
X1348700D3*
X1248700D3*
X1148700D3*
X1048700D3*
X948700D3*
X848700D3*
X748700D3*
X648700D3*
X548700D3*
X448700D3*
X1448700Y1048700D3*
X1348700D3*
X1248700D3*
X1148700D3*
X1048700D3*
X948700D3*
X848700D3*
X748700D3*
X648700D3*
X548700D3*
X448700D3*
M02*
