M48
INCH
T01C0.0315
T02C0.04
%
T01
X+009667Y+008629
X+008667Y+008629
X+006907Y+008865
X+006407Y+009022
X+006407Y+005952
X+005407Y+005952
X+008667Y+006345
T02
X+004487Y+005487
X+004487Y+006487
X+004487Y+007487
X+004487Y+008487
X+004487Y+009487
X+004487Y+010487
X+005487Y+010487
X+006487Y+010487
X+007487Y+010487
X+008487Y+010487
X+009487Y+010487
X+010487Y+010487
X+011487Y+010487
X+012487Y+010487
X+013487Y+010487
X+014487Y+010487
X+014487Y+004487
X+013487Y+004487
X+012487Y+004487
X+011487Y+004487
X+010487Y+004487
X+009487Y+004487
X+008487Y+004487
X+007487Y+004487
X+006487Y+004487
X+005487Y+004487
X+004487Y+004487
T00
M30
