M48
INCH
T01C0.0394
T02C0.04
T03C0.0512
T04C0.1181
%
T01
X+008187Y+008055
X+005707Y+008055
X+007006Y+006087
T03
X+016635Y+008037
X+016635Y+010006
T02
X+009885Y+012067
X+009885Y+011067
X+009885Y+010067
X+009885Y+007776
X+009885Y+006776
X+009885Y+005776
X+011952Y+012067
X+011952Y+011067
X+011952Y+010067
X+011952Y+007776
X+011952Y+006776
X+011952Y+005776
X+014019Y+012067
X+014019Y+011067
X+014019Y+010067
X+014019Y+007776
X+014019Y+006776
X+014019Y+005776
X+005806Y+011024
X+006593Y+011024
X+007380Y+011024
T04
X+004920Y+004921
X+016731Y+004921
X+016731Y+012795
X+004920Y+012795
T00
M30
