G04 DipTrace 3.2.0.1*
G04 DynamixelMUX.gto*
%MOIN*%
G04 #@! TF.FileFunction,Legend,Top*
G04 #@! TF.Part,Single*
%ADD10C,0.009843*%
%ADD14C,0.008*%
%ADD19C,0.005*%
%ADD35C,0.007008*%
%ADD36C,0.007*%
%FSLAX26Y26*%
G04*
G70*
G90*
G75*
G01*
G04 TopSilk*
%LPD*%
X814821Y894763D2*
D14*
Y973518D1*
X777376Y639782D2*
X814821D1*
Y718497D1*
Y974410D2*
X397491D1*
Y639782D2*
X619901D1*
X397491Y974410D2*
Y639782D1*
Y641727D1*
X1793465Y681654D2*
D10*
Y1122599D1*
X1498189D1*
Y681654D1*
X1793465D1*
G36*
X1758711Y787966D2*
X1790217D1*
Y819449D1*
X1758711D1*
Y787966D1*
G37*
G36*
Y984803D2*
X1790217D1*
Y1016287D1*
X1758711D1*
Y984803D1*
G37*
X866418Y1301575D2*
D19*
Y911811D1*
X1059330D1*
X1059465Y1030689D2*
Y1080696D1*
Y1130703D1*
Y1180709D1*
Y1230677D1*
X1059445Y1250009D1*
X1016029Y1301575D1*
X866418D1*
X1058461Y1181684D2*
X1033461Y1156700D1*
X1058461Y1131677D1*
X1059330Y1081709D2*
X1035469Y1056686D1*
X1059330Y1031703D1*
Y981696D1*
Y914968D1*
X1057457Y982709D2*
X1032457Y956712D1*
X938463Y956673D1*
Y1256713D1*
X1031473Y1256674D1*
X1056473Y1228689D1*
X866418Y872441D2*
Y482677D1*
X1059330D1*
X1059465Y601555D2*
Y651562D1*
Y701569D1*
Y751575D1*
Y801543D1*
X1059445Y820875D1*
X1016029Y872441D1*
X866418D1*
X1058461Y752550D2*
X1033461Y727566D1*
X1058461Y702543D1*
X1059330Y652575D2*
X1035469Y627553D1*
X1059330Y602569D1*
Y552562D1*
Y485834D1*
X1057457Y553575D2*
X1032457Y527578D1*
X938463Y527539D1*
Y827579D1*
X1031473Y827540D1*
X1056473Y799555D1*
X1073110Y1301575D2*
Y911811D1*
X1266023D1*
X1266158Y1030689D2*
Y1080696D1*
Y1130703D1*
Y1180709D1*
Y1230677D1*
X1266138Y1250009D1*
X1222722Y1301575D1*
X1073110D1*
X1265154Y1181684D2*
X1240154Y1156700D1*
X1265154Y1131677D1*
X1266023Y1081709D2*
X1242162Y1056686D1*
X1266023Y1031703D1*
Y981696D1*
Y914968D1*
X1264150Y982709D2*
X1239150Y956712D1*
X1145156Y956673D1*
Y1256713D1*
X1238166Y1256674D1*
X1263165Y1228689D1*
X1073110Y872441D2*
Y482677D1*
X1266023D1*
X1266158Y601555D2*
Y651562D1*
Y701569D1*
Y751575D1*
Y801543D1*
X1266138Y820875D1*
X1222722Y872441D1*
X1073110D1*
X1265154Y752550D2*
X1240154Y727566D1*
X1265154Y702543D1*
X1266023Y652575D2*
X1242162Y627553D1*
X1266023Y602569D1*
Y552562D1*
Y485834D1*
X1264150Y553575D2*
X1239150Y527578D1*
X1145156Y527539D1*
Y827579D1*
X1238166Y827540D1*
X1263165Y799555D1*
X1279803Y1301575D2*
Y911811D1*
X1472715D1*
X1472851Y1030689D2*
Y1080696D1*
Y1130703D1*
Y1180709D1*
Y1230677D1*
X1472831Y1250009D1*
X1429415Y1301575D1*
X1279803D1*
X1471847Y1181684D2*
X1446847Y1156700D1*
X1471847Y1131677D1*
X1472715Y1081709D2*
X1448855Y1056686D1*
X1472715Y1031703D1*
Y981696D1*
Y914968D1*
X1470843Y982709D2*
X1445843Y956712D1*
X1351849Y956673D1*
Y1256713D1*
X1444859Y1256674D1*
X1469858Y1228689D1*
X1279803Y872441D2*
Y482677D1*
X1472715D1*
X1472851Y601555D2*
Y651562D1*
Y701569D1*
Y751575D1*
Y801543D1*
X1472831Y820875D1*
X1429415Y872441D1*
X1279803D1*
X1471847Y752550D2*
X1446847Y727566D1*
X1471847Y702543D1*
X1472715Y652575D2*
X1448855Y627553D1*
X1472715Y602569D1*
Y552562D1*
Y485834D1*
X1470843Y553575D2*
X1445843Y527578D1*
X1351849Y527539D1*
Y827579D1*
X1444859Y827540D1*
X1469858Y799555D1*
X501811Y1161418D2*
D10*
X816772D1*
Y1017717D1*
X501811D1*
Y1161418D1*
X1530047Y661978D2*
D35*
Y618923D1*
X1508547Y640423D2*
X1551602D1*
X1539381Y1148649D2*
Y1176283D1*
X425065Y618679D2*
D36*
X423640Y621531D1*
X420754Y624416D1*
X417903Y625842D1*
X412166D1*
X409280Y624416D1*
X406429Y621531D1*
X404969Y618679D1*
X403544Y614368D1*
Y607172D1*
X404969Y602894D1*
X406429Y600009D1*
X409280Y597157D1*
X412166Y595698D1*
X417903D1*
X420754Y597157D1*
X423640Y600009D1*
X425065Y602894D1*
X439065Y607172D2*
X456276D1*
Y610057D1*
X454850Y612942D1*
X453425Y614368D1*
X450539Y615794D1*
X446228D1*
X443376Y614368D1*
X440491Y611483D1*
X439065Y607172D1*
Y604320D1*
X440491Y600009D1*
X443376Y597157D1*
X446228Y595698D1*
X450539D1*
X453425Y597157D1*
X456276Y600009D1*
X470276Y615794D2*
Y595698D1*
Y610057D2*
X474587Y614368D1*
X477473Y615794D1*
X481750D1*
X484635Y614368D1*
X486061Y610057D1*
Y595698D1*
X504372Y625842D2*
Y601435D1*
X505798Y597157D1*
X508683Y595698D1*
X511535D1*
X500061Y615794D2*
X510109D1*
X525535Y607172D2*
X542746D1*
Y610057D1*
X541320Y612942D1*
X539894Y614368D1*
X537009Y615794D1*
X532698D1*
X529846Y614368D1*
X526961Y611483D1*
X525535Y607172D1*
Y604320D1*
X526961Y600009D1*
X529846Y597157D1*
X532698Y595698D1*
X537009D1*
X539894Y597157D1*
X542746Y600009D1*
X556746Y615794D2*
Y595698D1*
Y607172D2*
X558205Y611483D1*
X561057Y614368D1*
X563942Y615794D1*
X568253D1*
X595153Y623670D2*
Y597837D1*
X582253Y610737D2*
X608086D1*
M02*
