G04 DipTrace 3.2.0.1*
G04 DynamixelMUX.gtl*
%MOIN*%
G04 #@! TF.FileFunction,Copper,L1,Top*
G04 #@! TF.Part,Single*
%AMOUTLINE0*
4,1,20,
0.03937,-0.039336,
0.037008,-0.052803,
0.030181,-0.064651,
0.019715,-0.073449,
0.00687,-0.078136,
-0.006803,-0.078148,
-0.019655,-0.073483,
-0.030136,-0.064703,
-0.036984,-0.052867,
-0.03937,-0.039404,
-0.03937,0.039336,
-0.037008,0.052803,
-0.030181,0.064651,
-0.019715,0.073449,
-0.00687,0.078136,
0.006803,0.078148,
0.019655,0.073483,
0.030136,0.064703,
0.036984,0.052867,
0.03937,0.039404,
0.03937,-0.039336,
0*%
%AMOUTLINE3*
4,1,20,
0.039336,0.03937,
0.052803,0.037008,
0.064651,0.030181,
0.073449,0.019715,
0.078136,0.00687,
0.078148,-0.006803,
0.073483,-0.019655,
0.064703,-0.030136,
0.052867,-0.036984,
0.039404,-0.03937,
-0.039336,-0.03937,
-0.052803,-0.037008,
-0.064651,-0.030181,
-0.073449,-0.019715,
-0.078136,-0.00687,
-0.078148,0.006803,
-0.073483,0.019655,
-0.064703,0.030136,
-0.052867,0.036984,
-0.039404,0.03937,
0.039336,0.03937,
0*%
G04 #@! TA.AperFunction,Conductor*
%ADD13C,0.03937*%
%ADD14C,0.008*%
G04 #@! TA.AperFunction,CopperBalancing*
%ADD15C,0.025*%
G04 #@! TA.AperFunction,ComponentPad*
%ADD17R,0.098425X0.098425*%
%ADD18C,0.098425*%
%ADD20C,0.065199*%
G04 #@! TA.AperFunction,ViaPad*
%ADD21C,0.15748*%
G04 #@! TA.AperFunction,ComponentPad*
%ADD37OUTLINE0*%
%ADD40OUTLINE3*%
%FSLAX26Y26*%
G04*
G70*
G90*
G75*
G01*
G04 Top*
%LPD*%
X1401851Y1106693D2*
D13*
X1195158D1*
X988465D1*
Y677559D2*
X1195158D1*
X1401851D1*
X988465D2*
X818740Y770891D1*
Y805512D1*
X982348Y641904D1*
X836204Y925093D1*
X988465Y1106693D1*
X659292Y1102362D2*
X813544Y818701D1*
X818740Y805512D1*
X1401851Y677559D2*
D14*
X1663544Y803701D1*
X988465Y577559D2*
D13*
X1195158D1*
X1401851D1*
X988465Y1006693D2*
X1195158D1*
X1401851D1*
D21*
X491969Y492126D3*
X1673071D3*
Y1279528D3*
X491969D3*
X587457Y1328777D2*
D15*
X1577562D1*
X596823Y1303908D2*
X1568196D1*
X599694Y1279040D2*
X1565326D1*
X596608Y1254171D2*
X950773D1*
X1026142D2*
X1157466D1*
X1232835D2*
X1364159D1*
X1439528D2*
X1568448D1*
X586954Y1229302D2*
X931360D1*
X1045555D2*
X1138053D1*
X1252248D2*
X1344746D1*
X1458941D2*
X1578100D1*
X568188Y1204433D2*
X926910D1*
X1050004D2*
X1133603D1*
X1256697D2*
X1340295D1*
X1463390D2*
X1596868D1*
X438717Y1179565D2*
X456575D1*
X527352D2*
X933477D1*
X1043474D2*
X1140170D1*
X1250167D2*
X1346862D1*
X1456860D2*
X1637704D1*
X1708444D2*
X1754219D1*
X438717Y1154696D2*
X550592D1*
X610495D2*
X708088D1*
X767991D2*
X957878D1*
X1019037D2*
X1164571D1*
X1225730D2*
X1371264D1*
X1432423D2*
X1754219D1*
X438717Y1129827D2*
X525725D1*
X635362D2*
X683221D1*
X792858D2*
X1754219D1*
X438717Y1104958D2*
X519015D1*
X642072D2*
X676509D1*
X799568D2*
X1754219D1*
X438717Y1080089D2*
X523320D1*
X637803D2*
X680816D1*
X795263D2*
X1754219D1*
X438717Y1055221D2*
X542411D1*
X618676D2*
X699906D1*
X776172D2*
X952244D1*
X1024671D2*
X1158937D1*
X1231364D2*
X1365630D1*
X1438057D2*
X1608673D1*
X1718419D2*
X1754219D1*
X438717Y1030352D2*
X931826D1*
X1458509D2*
X1591449D1*
X1735643D2*
X1754219D1*
X438717Y1005483D2*
X926874D1*
X1463427D2*
X1585492D1*
X1741600D2*
X1754219D1*
X438717Y980614D2*
X932939D1*
X1457361D2*
X1588004D1*
X1739088D2*
X1754219D1*
X438717Y955746D2*
X956012D1*
X1020902D2*
X1162705D1*
X1227595D2*
X1369398D1*
X1434288D2*
X1600025D1*
X1727067D2*
X1754219D1*
X438717Y930877D2*
X564084D1*
X577309D2*
X812152D1*
X825358D2*
X1631424D1*
X1695668D2*
X1754219D1*
X438717Y906008D2*
X509146D1*
X632277D2*
X757177D1*
X880272D2*
X1754219D1*
X438717Y881139D2*
X492639D1*
X648784D2*
X740671D1*
X896815D2*
X1754219D1*
X438717Y856271D2*
X486395D1*
X655028D2*
X734427D1*
X903059D2*
X1754219D1*
X438717Y831402D2*
X486037D1*
X655386D2*
X734068D1*
X903418D2*
X961609D1*
X1015305D2*
X1168302D1*
X1221998D2*
X1374995D1*
X1428691D2*
X1754219D1*
X438717Y806533D2*
X486037D1*
X655386D2*
X734068D1*
X903418D2*
X934481D1*
X1042469D2*
X1141173D1*
X1249162D2*
X1347866D1*
X1455855D2*
X1754219D1*
X438717Y781664D2*
X486037D1*
X655386D2*
X734068D1*
X903418D2*
X927017D1*
X1049897D2*
X1133710D1*
X1256589D2*
X1340403D1*
X1463282D2*
X1754219D1*
X438717Y756795D2*
X486252D1*
X655171D2*
X734284D1*
X903202D2*
X930642D1*
X1046272D2*
X1137335D1*
X1252965D2*
X1344028D1*
X1459658D2*
X1754219D1*
X438717Y731927D2*
X491814D1*
X649609D2*
X739881D1*
X897604D2*
X948404D1*
X1028509D2*
X1155097D1*
X1235202D2*
X1361790D1*
X1441895D2*
X1754219D1*
X438717Y707058D2*
X507315D1*
X634107D2*
X755347D1*
X882103D2*
X1754219D1*
X438717Y682189D2*
X549408D1*
X592015D2*
X618198D1*
X783062D2*
X797440D1*
X839974D2*
X1754219D1*
X438717Y657320D2*
X588593D1*
X812667D2*
X1754219D1*
X438717Y632452D2*
X576142D1*
X825083D2*
X964086D1*
X1012828D2*
X1170778D1*
X1219521D2*
X1377471D1*
X1426214D2*
X1754219D1*
X438717Y607583D2*
X572625D1*
X828599D2*
X935055D1*
X1455244D2*
X1754219D1*
X548021Y582714D2*
X576860D1*
X824365D2*
X927089D1*
X1463211D2*
X1617034D1*
X1729113D2*
X1754219D1*
X576656Y557845D2*
X590209D1*
X811051D2*
X930247D1*
X1460053D2*
X1588399D1*
X591440Y532977D2*
X622792D1*
X778504D2*
X947184D1*
X1443151D2*
X1573579D1*
X598474Y508108D2*
X1566545D1*
X599335Y483239D2*
X1565719D1*
X594131Y458370D2*
X1570887D1*
X1739015Y994612D2*
X1738316Y988709D1*
X1737156Y982878D1*
X1735544Y977158D1*
X1733486Y971580D1*
X1730996Y966183D1*
X1728092Y960996D1*
X1724790Y956053D1*
X1721110Y951385D1*
X1717075Y947020D1*
X1712710Y942984D1*
X1708042Y939305D1*
X1703099Y936003D1*
X1697912Y933099D1*
X1692515Y930609D1*
X1686937Y928551D1*
X1681217Y926939D1*
X1675386Y925778D1*
X1669483Y925080D1*
X1663544Y924847D1*
X1657604Y925080D1*
X1651701Y925778D1*
X1645870Y926939D1*
X1640150Y928551D1*
X1634572Y930609D1*
X1629175Y933099D1*
X1623988Y936003D1*
X1619045Y939305D1*
X1614377Y942984D1*
X1610012Y947020D1*
X1605977Y951385D1*
X1602297Y956053D1*
X1598995Y960996D1*
X1596091Y966183D1*
X1593601Y971580D1*
X1591544Y977158D1*
X1589931Y982878D1*
X1588771Y988709D1*
X1588072Y994612D1*
X1587839Y1000551D1*
X1588072Y1006491D1*
X1588771Y1012394D1*
X1589931Y1018225D1*
X1591544Y1023945D1*
X1593601Y1029523D1*
X1596091Y1034920D1*
X1598995Y1040107D1*
X1602297Y1045050D1*
X1605977Y1049718D1*
X1610012Y1054083D1*
X1614377Y1058118D1*
X1619045Y1061798D1*
X1623988Y1065100D1*
X1629175Y1068004D1*
X1634572Y1070494D1*
X1640150Y1072551D1*
X1645870Y1074164D1*
X1651701Y1075324D1*
X1657604Y1076023D1*
X1663544Y1076256D1*
X1669483Y1076023D1*
X1675386Y1075324D1*
X1681217Y1074164D1*
X1686937Y1072551D1*
X1692515Y1070494D1*
X1697912Y1068004D1*
X1703099Y1065100D1*
X1708042Y1061798D1*
X1712710Y1058118D1*
X1717075Y1054083D1*
X1721110Y1049718D1*
X1724790Y1045050D1*
X1728092Y1040107D1*
X1730996Y1034920D1*
X1733486Y1029523D1*
X1735544Y1023945D1*
X1737156Y1018225D1*
X1738316Y1012394D1*
X1739015Y1006491D1*
X1739248Y1000551D1*
X1739015Y994612D1*
X1047374Y1202057D2*
X1045924Y1192898D1*
X1043058Y1184080D1*
X1038849Y1175818D1*
X1033399Y1168316D1*
X1026841Y1161759D1*
X1019340Y1156309D1*
X1011078Y1152100D1*
X1002260Y1149234D1*
X993101Y1147784D1*
X983828D1*
X974670Y1149234D1*
X965852Y1152100D1*
X957589Y1156309D1*
X950088Y1161759D1*
X943530Y1168316D1*
X938080Y1175818D1*
X933872Y1184080D1*
X931005Y1192898D1*
X929555Y1202057D1*
Y1211330D1*
X931005Y1220488D1*
X933872Y1229306D1*
X938080Y1237568D1*
X943530Y1245070D1*
X950088Y1251628D1*
X957589Y1257078D1*
X965852Y1261286D1*
X974670Y1264152D1*
X983828Y1265603D1*
X993101D1*
X1002260Y1264152D1*
X1011078Y1261286D1*
X1019340Y1257078D1*
X1026841Y1251628D1*
X1033399Y1245070D1*
X1038849Y1237568D1*
X1043058Y1229306D1*
X1045924Y1220488D1*
X1047374Y1211330D1*
Y1202057D1*
X1025261Y960513D2*
X1019340Y956309D1*
X1011078Y952100D1*
X1002260Y949234D1*
X993101Y947784D1*
X983828D1*
X974670Y949234D1*
X965852Y952100D1*
X957589Y956309D1*
X950088Y961759D1*
X943530Y968316D1*
X938080Y975818D1*
X933872Y984080D1*
X931005Y992898D1*
X929555Y1002057D1*
Y1011330D1*
X931005Y1020488D1*
X933872Y1029306D1*
X938080Y1037568D1*
X943530Y1045070D1*
X950088Y1051628D1*
X957589Y1057078D1*
X965852Y1061286D1*
X974670Y1064152D1*
X983828Y1065603D1*
X993101D1*
X1002260Y1064152D1*
X1011078Y1061286D1*
X1019340Y1057078D1*
X1025261Y1052873D1*
X1158305Y1052870D1*
X1164282Y1057078D1*
X1172545Y1061286D1*
X1181362Y1064152D1*
X1190521Y1065603D1*
X1199794D1*
X1208953Y1064152D1*
X1217771Y1061286D1*
X1226033Y1057078D1*
X1231954Y1052873D1*
X1364998Y1052870D1*
X1370975Y1057078D1*
X1379238Y1061286D1*
X1388055Y1064152D1*
X1397214Y1065603D1*
X1406487D1*
X1415646Y1064152D1*
X1424463Y1061286D1*
X1432726Y1057078D1*
X1440227Y1051628D1*
X1446785Y1045070D1*
X1452235Y1037568D1*
X1456444Y1029306D1*
X1459310Y1020488D1*
X1460760Y1011330D1*
Y1002057D1*
X1459310Y992898D1*
X1456444Y984080D1*
X1452235Y975818D1*
X1446785Y968316D1*
X1440227Y961759D1*
X1432726Y956309D1*
X1424463Y952100D1*
X1415646Y949234D1*
X1406487Y947784D1*
X1397214D1*
X1388055Y949234D1*
X1379238Y952100D1*
X1370975Y956309D1*
X1365054Y960513D1*
X1232011Y960516D1*
X1226033Y956309D1*
X1217771Y952100D1*
X1208953Y949234D1*
X1199794Y947784D1*
X1190521D1*
X1181362Y949234D1*
X1172545Y952100D1*
X1164282Y956309D1*
X1158361Y960513D1*
X1025318Y960516D1*
X1047374Y772923D2*
X1045924Y763764D1*
X1043058Y754946D1*
X1038849Y746684D1*
X1033399Y739183D1*
X1026841Y732625D1*
X1019340Y727175D1*
X1011078Y722966D1*
X1002260Y720100D1*
X993101Y718650D1*
X983828D1*
X974670Y720100D1*
X965852Y722966D1*
X957589Y727175D1*
X950088Y732625D1*
X943530Y739183D1*
X938080Y746684D1*
X933872Y754946D1*
X931005Y763764D1*
X929555Y772923D1*
Y782196D1*
X931005Y791355D1*
X933872Y800172D1*
X938080Y808435D1*
X943530Y815936D1*
X950088Y822494D1*
X957589Y827944D1*
X965852Y832152D1*
X974670Y835019D1*
X983828Y836469D1*
X993101D1*
X1002260Y835019D1*
X1011078Y832152D1*
X1019340Y827944D1*
X1026841Y822494D1*
X1033399Y815936D1*
X1038849Y808435D1*
X1043058Y800172D1*
X1045924Y791355D1*
X1047374Y782196D1*
Y772923D1*
X1025261Y531379D2*
X1019340Y527175D1*
X1011078Y522966D1*
X1002260Y520100D1*
X993101Y518650D1*
X983828D1*
X974670Y520100D1*
X965852Y522966D1*
X957589Y527175D1*
X950088Y532625D1*
X943530Y539183D1*
X938080Y546684D1*
X933872Y554946D1*
X931005Y563764D1*
X929555Y572923D1*
Y582196D1*
X931005Y591355D1*
X933872Y600172D1*
X938080Y608435D1*
X943530Y615936D1*
X950088Y622494D1*
X957589Y627944D1*
X965852Y632152D1*
X974670Y635019D1*
X983828Y636469D1*
X993101D1*
X1002260Y635019D1*
X1011078Y632152D1*
X1019340Y627944D1*
X1025261Y623739D1*
X1158305Y623736D1*
X1164282Y627944D1*
X1172545Y632152D1*
X1181362Y635019D1*
X1190521Y636469D1*
X1199794D1*
X1208953Y635019D1*
X1217771Y632152D1*
X1226033Y627944D1*
X1231954Y623739D1*
X1364998Y623736D1*
X1370975Y627944D1*
X1379238Y632152D1*
X1388055Y635019D1*
X1397214Y636469D1*
X1406487D1*
X1415646Y635019D1*
X1424463Y632152D1*
X1432726Y627944D1*
X1440227Y622494D1*
X1446785Y615936D1*
X1452235Y608435D1*
X1456444Y600172D1*
X1459310Y591355D1*
X1460760Y582196D1*
Y572923D1*
X1459310Y563764D1*
X1456444Y554946D1*
X1452235Y546684D1*
X1446785Y539183D1*
X1440227Y532625D1*
X1432726Y527175D1*
X1424463Y522966D1*
X1415646Y520100D1*
X1406487Y518650D1*
X1397214D1*
X1388055Y520100D1*
X1379238Y522966D1*
X1370975Y527175D1*
X1365054Y531379D1*
X1232011Y531382D1*
X1226033Y527175D1*
X1217771Y522966D1*
X1208953Y520100D1*
X1199794Y518650D1*
X1190521D1*
X1181362Y520100D1*
X1172545Y522966D1*
X1164282Y527175D1*
X1158361Y531379D1*
X1025318Y531382D1*
X1254067Y1202057D2*
X1252617Y1192898D1*
X1249751Y1184080D1*
X1245542Y1175818D1*
X1240092Y1168316D1*
X1233534Y1161759D1*
X1226033Y1156309D1*
X1217771Y1152100D1*
X1208953Y1149234D1*
X1199794Y1147784D1*
X1190521D1*
X1181362Y1149234D1*
X1172545Y1152100D1*
X1164282Y1156309D1*
X1156781Y1161759D1*
X1150223Y1168316D1*
X1144773Y1175818D1*
X1140565Y1184080D1*
X1137698Y1192898D1*
X1136248Y1202057D1*
Y1211330D1*
X1137698Y1220488D1*
X1140565Y1229306D1*
X1144773Y1237568D1*
X1150223Y1245070D1*
X1156781Y1251628D1*
X1164282Y1257078D1*
X1172545Y1261286D1*
X1181362Y1264152D1*
X1190521Y1265603D1*
X1199794D1*
X1208953Y1264152D1*
X1217771Y1261286D1*
X1226033Y1257078D1*
X1233534Y1251628D1*
X1240092Y1245070D1*
X1245542Y1237568D1*
X1249751Y1229306D1*
X1252617Y1220488D1*
X1254067Y1211330D1*
Y1202057D1*
Y772923D2*
X1252617Y763764D1*
X1249751Y754946D1*
X1245542Y746684D1*
X1240092Y739183D1*
X1233534Y732625D1*
X1226033Y727175D1*
X1217771Y722966D1*
X1208953Y720100D1*
X1199794Y718650D1*
X1190521D1*
X1181362Y720100D1*
X1172545Y722966D1*
X1164282Y727175D1*
X1156781Y732625D1*
X1150223Y739183D1*
X1144773Y746684D1*
X1140565Y754946D1*
X1137698Y763764D1*
X1136248Y772923D1*
Y782196D1*
X1137698Y791355D1*
X1140565Y800172D1*
X1144773Y808435D1*
X1150223Y815936D1*
X1156781Y822494D1*
X1164282Y827944D1*
X1172545Y832152D1*
X1181362Y835019D1*
X1190521Y836469D1*
X1199794D1*
X1208953Y835019D1*
X1217771Y832152D1*
X1226033Y827944D1*
X1233534Y822494D1*
X1240092Y815936D1*
X1245542Y808435D1*
X1249751Y800172D1*
X1252617Y791355D1*
X1254067Y782196D1*
Y772923D1*
X1460760Y1202057D2*
X1459310Y1192898D1*
X1456444Y1184080D1*
X1452235Y1175818D1*
X1446785Y1168316D1*
X1440227Y1161759D1*
X1432726Y1156309D1*
X1424463Y1152100D1*
X1415646Y1149234D1*
X1406487Y1147784D1*
X1397214D1*
X1388055Y1149234D1*
X1379238Y1152100D1*
X1370975Y1156309D1*
X1363474Y1161759D1*
X1356916Y1168316D1*
X1351466Y1175818D1*
X1347257Y1184080D1*
X1344391Y1192898D1*
X1342941Y1202057D1*
Y1211330D1*
X1344391Y1220488D1*
X1347257Y1229306D1*
X1351466Y1237568D1*
X1356916Y1245070D1*
X1363474Y1251628D1*
X1370975Y1257078D1*
X1379238Y1261286D1*
X1388055Y1264152D1*
X1397214Y1265603D1*
X1406487D1*
X1415646Y1264152D1*
X1424463Y1261286D1*
X1432726Y1257078D1*
X1440227Y1251628D1*
X1446785Y1245070D1*
X1452235Y1237568D1*
X1456444Y1229306D1*
X1459310Y1220488D1*
X1460760Y1211330D1*
Y1202057D1*
Y772923D2*
X1459310Y763764D1*
X1456444Y754946D1*
X1452235Y746684D1*
X1446785Y739183D1*
X1440227Y732625D1*
X1432726Y727175D1*
X1424463Y722966D1*
X1415646Y720100D1*
X1406487Y718650D1*
X1397214D1*
X1388055Y720100D1*
X1379238Y722966D1*
X1370975Y727175D1*
X1363474Y732625D1*
X1356916Y739183D1*
X1351466Y746684D1*
X1347257Y754946D1*
X1344391Y763764D1*
X1342941Y772923D1*
Y782196D1*
X1344391Y791355D1*
X1347257Y800172D1*
X1351466Y808435D1*
X1356916Y815936D1*
X1363474Y822494D1*
X1370975Y827944D1*
X1379238Y832152D1*
X1388055Y835019D1*
X1397214Y836469D1*
X1406487D1*
X1415646Y835019D1*
X1424463Y832152D1*
X1432726Y827944D1*
X1440227Y822494D1*
X1446785Y815936D1*
X1452235Y808435D1*
X1456444Y800172D1*
X1459310Y791355D1*
X1460760Y782196D1*
Y772923D1*
X639461Y1097726D2*
X638011Y1088567D1*
X635145Y1079750D1*
X630936Y1071487D1*
X625486Y1063986D1*
X618928Y1057428D1*
X611427Y1051978D1*
X603164Y1047769D1*
X594347Y1044903D1*
X585188Y1043453D1*
X575915D1*
X566756Y1044903D1*
X557939Y1047769D1*
X549676Y1051978D1*
X542175Y1057428D1*
X535617Y1063986D1*
X530167Y1071487D1*
X525958Y1079750D1*
X523092Y1088567D1*
X521642Y1097726D1*
Y1106999D1*
X523092Y1116158D1*
X525958Y1124975D1*
X530167Y1133238D1*
X535617Y1140739D1*
X542175Y1147297D1*
X549676Y1152747D1*
X557939Y1156956D1*
X566756Y1159822D1*
X575915Y1161272D1*
X585188D1*
X594347Y1159822D1*
X603164Y1156956D1*
X611427Y1152747D1*
X618928Y1147297D1*
X625486Y1140739D1*
X630936Y1133238D1*
X635145Y1124975D1*
X638011Y1116158D1*
X639461Y1106999D1*
Y1097726D1*
X796941D2*
X795491Y1088567D1*
X792625Y1079750D1*
X788416Y1071487D1*
X782966Y1063986D1*
X776408Y1057428D1*
X768907Y1051978D1*
X760645Y1047769D1*
X751827Y1044903D1*
X742668Y1043453D1*
X733395D1*
X724236Y1044903D1*
X715419Y1047769D1*
X707156Y1051978D1*
X699655Y1057428D1*
X693097Y1063986D1*
X687647Y1071487D1*
X683439Y1079750D1*
X680572Y1088567D1*
X679122Y1097726D1*
Y1106999D1*
X680572Y1116158D1*
X683439Y1124975D1*
X687647Y1133238D1*
X693097Y1140739D1*
X699655Y1147297D1*
X707156Y1152747D1*
X715419Y1156956D1*
X724236Y1159822D1*
X733395Y1161272D1*
X742668D1*
X751827Y1159822D1*
X760645Y1156956D1*
X768907Y1152747D1*
X776408Y1147297D1*
X782966Y1140739D1*
X788416Y1133238D1*
X792625Y1124975D1*
X795491Y1116158D1*
X796941Y1106999D1*
Y1097726D1*
X596877Y483870D2*
X595906Y475664D1*
X594293Y467561D1*
X592050Y459608D1*
X589191Y451856D1*
X585731Y444352D1*
X581066Y436204D1*
X1583907Y436201D1*
X1579309Y444352D1*
X1575849Y451856D1*
X1572990Y459608D1*
X1570747Y467561D1*
X1569134Y475664D1*
X1568163Y483870D1*
X1567839Y492126D1*
X1568163Y500382D1*
X1569134Y508588D1*
X1570747Y516692D1*
X1572990Y524645D1*
X1575849Y532397D1*
X1579309Y539900D1*
X1583345Y547110D1*
X1587936Y553981D1*
X1593051Y560469D1*
X1598660Y566537D1*
X1604729Y572146D1*
X1611217Y577261D1*
X1618087Y581852D1*
X1625297Y585889D1*
X1632801Y589348D1*
X1640553Y592208D1*
X1648505Y594450D1*
X1656609Y596063D1*
X1664815Y597034D1*
X1673071Y597358D1*
X1681327Y597034D1*
X1689533Y596063D1*
X1697637Y594450D1*
X1705589Y592208D1*
X1713341Y589348D1*
X1720845Y585889D1*
X1728055Y581852D1*
X1734925Y577261D1*
X1741414Y572146D1*
X1747482Y566537D1*
X1753091Y560469D1*
X1756708Y555881D1*
X1756713Y1215672D1*
X1747482Y1205117D1*
X1741414Y1199508D1*
X1734925Y1194393D1*
X1728055Y1189802D1*
X1720845Y1185765D1*
X1713341Y1182306D1*
X1705589Y1179446D1*
X1697637Y1177204D1*
X1689533Y1175591D1*
X1681327Y1174620D1*
X1673071Y1174295D1*
X1664815Y1174620D1*
X1656609Y1175591D1*
X1648505Y1177204D1*
X1640553Y1179446D1*
X1632801Y1182306D1*
X1625297Y1185765D1*
X1618087Y1189802D1*
X1611217Y1194393D1*
X1604729Y1199508D1*
X1598660Y1205117D1*
X1593051Y1211185D1*
X1587936Y1217673D1*
X1583345Y1224544D1*
X1579309Y1231753D1*
X1575849Y1239257D1*
X1572990Y1247009D1*
X1570747Y1254962D1*
X1569134Y1263066D1*
X1568163Y1271272D1*
X1567839Y1279528D1*
X1568163Y1287784D1*
X1569134Y1295990D1*
X1570747Y1304093D1*
X1572990Y1312046D1*
X1575849Y1319798D1*
X1579309Y1327302D1*
X1583974Y1335450D1*
X581086Y1335453D1*
X585731Y1327302D1*
X589191Y1319798D1*
X592050Y1312046D1*
X594293Y1304093D1*
X595906Y1295990D1*
X596877Y1287784D1*
X597201Y1279528D1*
X596877Y1271272D1*
X595906Y1263066D1*
X594293Y1254962D1*
X592050Y1247009D1*
X589191Y1239257D1*
X585731Y1231753D1*
X581694Y1224544D1*
X577104Y1217673D1*
X571988Y1211185D1*
X566379Y1205117D1*
X560311Y1199508D1*
X553823Y1194393D1*
X546953Y1189802D1*
X539743Y1185765D1*
X532239Y1182306D1*
X524487Y1179446D1*
X516534Y1177204D1*
X508431Y1175591D1*
X500225Y1174620D1*
X491969Y1174295D1*
X483713Y1174620D1*
X475507Y1175591D1*
X467403Y1177204D1*
X459450Y1179446D1*
X451698Y1182306D1*
X444194Y1185765D1*
X436206Y1190323D1*
X436201Y581395D1*
X444194Y585889D1*
X451698Y589348D1*
X459450Y592208D1*
X467403Y594450D1*
X475507Y596063D1*
X483713Y597034D1*
X491969Y597358D1*
X500225Y597034D1*
X508431Y596063D1*
X516534Y594450D1*
X524487Y592208D1*
X532239Y589348D1*
X539743Y585889D1*
X546953Y581852D1*
X553823Y577261D1*
X560311Y572146D1*
X566379Y566537D1*
X571988Y560469D1*
X577104Y553981D1*
X581694Y547110D1*
X585731Y539900D1*
X589191Y532397D1*
X592050Y524645D1*
X594293Y516692D1*
X595906Y508588D1*
X596877Y500382D1*
X597201Y492126D1*
X596877Y483870D1*
X822994Y930868D2*
X828730Y930400D1*
X839282Y928400D1*
X849483Y925042D1*
X859160Y920382D1*
X868146Y914500D1*
X876289Y907498D1*
X883449Y899492D1*
X889504Y890621D1*
X894352Y881037D1*
X897908Y870903D1*
X900113Y860391D1*
X900795Y852973D1*
X900933Y812078D1*
X900706Y756784D1*
X900057Y750348D1*
X898276Y741574D1*
X894921Y731439D1*
X890285Y721822D1*
X884442Y712886D1*
X877492Y704781D1*
X869553Y697645D1*
X860756Y691595D1*
X851251Y686734D1*
X841196Y683143D1*
X830761Y680885D1*
X819386Y679983D1*
X808672Y680609D1*
X798131Y682625D1*
X787942Y685996D1*
X778280Y690667D1*
X769307Y696555D1*
X761177Y703562D1*
X754030Y711567D1*
X747986Y720436D1*
X743147Y730015D1*
X740563Y737037D1*
X738151Y746431D1*
X736849Y756042D1*
X736579Y771395D1*
X736792Y854200D1*
X737996Y863886D1*
X740494Y873855D1*
X742456Y879411D1*
X747117Y889149D1*
X753016Y898191D1*
X760049Y906381D1*
X768097Y913578D1*
X777020Y919655D1*
X786662Y924509D1*
X796858Y928058D1*
X807432Y930236D1*
X814887Y930893D1*
X819813Y931003D1*
X575092Y930860D2*
X585301Y929685D1*
X591066Y928466D1*
X601330Y925117D1*
X611065Y920450D1*
X620103Y914546D1*
X625855Y909759D1*
X632684Y902782D1*
X638646Y895053D1*
X643886Y886213D1*
X646402Y880885D1*
X649944Y870685D1*
X652117Y860110D1*
X652885Y848823D1*
X652649Y756557D1*
X651414Y746936D1*
X648902Y737037D1*
X646949Y731545D1*
X642305Y721869D1*
X636440Y712881D1*
X629456Y704734D1*
X621469Y697565D1*
X612617Y691498D1*
X603050Y686634D1*
X592931Y683058D1*
X582432Y680830D1*
X571339Y679983D1*
X560625Y680609D1*
X553255Y681899D1*
X543919Y684530D1*
X534954Y688231D1*
X526051Y693238D1*
X521259Y696555D1*
X513130Y703562D1*
X505982Y711567D1*
X499937Y720436D1*
X495100Y730015D1*
X491550Y740143D1*
X489351Y750647D1*
X488668Y758068D1*
X488530Y798954D1*
X488774Y854714D1*
X490046Y864393D1*
X492446Y873855D1*
X494408Y879411D1*
X499068Y889149D1*
X504967Y898191D1*
X512002Y906381D1*
X520049Y913578D1*
X528971Y919655D1*
X538614Y924509D1*
X545642Y927083D1*
X555103Y929487D1*
X564781Y930764D1*
X574578Y930893D1*
X575092Y930860D1*
X825979Y604755D2*
X825536Y598961D1*
X823568Y588347D1*
X820225Y578082D1*
X815565Y568343D1*
X809666Y559301D1*
X802631Y551112D1*
X794584Y543915D1*
X785662Y537837D1*
X776019Y532982D1*
X765823Y529435D1*
X755250Y527256D1*
X743925Y526481D1*
X651820Y526705D1*
X642172Y527925D1*
X632242Y530429D1*
X626721Y532385D1*
X617017Y537034D1*
X608004Y542912D1*
X602246Y547693D1*
X595432Y554634D1*
X589477Y562323D1*
X584230Y571118D1*
X581713Y576407D1*
X578145Y586558D1*
X575933Y597088D1*
X575113Y608091D1*
X575747Y618794D1*
X577768Y629323D1*
X581141Y639500D1*
X585807Y649152D1*
X591691Y658116D1*
X598689Y666238D1*
X606684Y673381D1*
X615541Y679423D1*
X625108Y684263D1*
X635222Y687816D1*
X645714Y690025D1*
X653138Y690717D1*
X694091Y690858D1*
X749537Y690625D1*
X759181Y689391D1*
X765992Y687839D1*
X774621Y684911D1*
X784315Y680248D1*
X793316Y674360D1*
X801473Y667347D1*
X808642Y659327D1*
X814702Y650440D1*
X819550Y640837D1*
X823103Y630684D1*
X825297Y620152D1*
X825973Y612702D1*
X826095Y607777D1*
D37*
X818740Y805512D3*
X570709D3*
D40*
X700630Y608662D3*
D17*
X1663544Y803701D3*
D18*
Y1000551D3*
D20*
X988465Y1206693D3*
Y1106693D3*
Y1006693D3*
Y777559D3*
Y677559D3*
Y577559D3*
X1195158Y1206693D3*
Y1106693D3*
Y1006693D3*
Y777559D3*
Y677559D3*
Y577559D3*
X1401851Y1206693D3*
Y1106693D3*
Y1006693D3*
Y777559D3*
Y677559D3*
Y577559D3*
X580551Y1102362D3*
X659292D3*
X738032D3*
M02*
