G04 DipTrace Beta 2.3.5.2*
%INTeensyDuinoV001-wide.gts*%
%MOIN*%
%ADD34C,0.0591*%
%ADD36R,0.0472X0.0591*%
%ADD42R,0.074X0.074*%
%ADD43C,0.074*%
%ADD44R,0.0472X0.0551*%
%ADD45R,0.0551X0.0472*%
%ADD47C,0.0489*%
%ADD50C,0.0619*%
%ADD69R,0.0671X0.0474*%
%ADD71R,0.058X0.058*%
%ADD73R,0.208X0.208*%
%ADD77C,0.068*%
%ADD79R,0.0749X0.0395*%
%ADD81R,0.0513X0.0474*%
%ADD85O,0.0867X0.0474*%
%ADD95C,0.0718*%
%ADD97R,0.0718X0.0718*%
%ADD99C,0.1064*%
%ADD101R,0.1064X0.1064*%
%ADD105C,0.0671*%
%ADD107R,0.0671X0.0671*%
%ADD109R,0.071X0.1143*%
%ADD111R,0.0789X0.071*%
%ADD113R,0.071X0.0789*%
%ADD115R,0.0395X0.0749*%
%FSLAX44Y44*%
G04*
G70*
G90*
G75*
G01*
%LNTopMask*%
%LPD*%
D115*
X27130Y28150D3*
X28469D3*
D113*
X36481Y13690D3*
X35379D3*
X36550Y21210D3*
X35448D3*
D111*
X8490Y5389D3*
Y6491D3*
X19550Y19491D3*
Y18389D3*
D113*
X32240Y12960D3*
X31138D3*
D111*
X26130Y5389D3*
Y6491D3*
D113*
X32040Y27160D3*
X30938D3*
D111*
X18050Y15590D3*
Y14488D3*
D113*
X36532Y27200D3*
X35430D3*
D109*
X15320Y15130D3*
X16422D3*
D111*
X12920Y18380D3*
Y17278D3*
D107*
X36430Y7690D3*
D105*
X35430D3*
X36430Y8690D3*
X35430D3*
X36430Y9690D3*
X35430D3*
X36430Y10690D3*
X35430D3*
X36430Y11690D3*
X35430D3*
X36430Y12690D3*
X35430D3*
D107*
X34430Y7690D3*
D105*
Y8690D3*
Y9690D3*
Y10690D3*
Y11690D3*
Y12690D3*
D107*
X36430Y22190D3*
D105*
X35430D3*
X36430Y23190D3*
X35430D3*
X36430Y24190D3*
X35430D3*
X36430Y25190D3*
X35430D3*
X36430Y26190D3*
X35430D3*
D107*
X34430Y22190D3*
D105*
Y23190D3*
Y24190D3*
Y25190D3*
Y26190D3*
D107*
X36430Y17190D3*
D105*
Y18190D3*
Y19190D3*
Y20190D3*
X35430Y17190D3*
Y18190D3*
Y19190D3*
Y20190D3*
D107*
X32180Y14190D3*
D105*
X31180D3*
X32180Y15190D3*
X31180D3*
X32180Y16190D3*
X31180D3*
X32180Y17190D3*
X31180D3*
X32180Y18190D3*
X31180D3*
D107*
X34430Y17190D3*
D105*
Y18190D3*
Y19190D3*
Y20190D3*
D107*
X9430Y5440D3*
D105*
Y6440D3*
X10430Y5440D3*
Y6440D3*
X11430Y5440D3*
Y6440D3*
X12430Y5440D3*
Y6440D3*
X13430Y5440D3*
Y6440D3*
X14430Y5440D3*
Y6440D3*
X15430Y5440D3*
Y6440D3*
X16430Y5440D3*
Y6440D3*
D107*
X9430Y7440D3*
D105*
X10430D3*
X11430D3*
X12430D3*
X13430D3*
X14430D3*
X15430D3*
X16430D3*
D107*
X20030Y5440D3*
D105*
Y6440D3*
X21030Y5440D3*
Y6440D3*
X22030Y5440D3*
Y6440D3*
X23030Y5440D3*
Y6440D3*
X24030Y5440D3*
Y6440D3*
X25030Y5440D3*
Y6440D3*
D107*
X20030Y7440D3*
D105*
X21030D3*
X22030D3*
X23030D3*
X24030D3*
X25030D3*
D107*
X32180Y22190D3*
D105*
X31180D3*
X32180Y23190D3*
X31180D3*
X32180Y24190D3*
X31180D3*
X32180Y25190D3*
X31180D3*
X32180Y26190D3*
X31180D3*
D113*
X18970Y13410D3*
X20072D3*
D36*
X33680Y6261D3*
Y5119D3*
X34380Y6261D3*
Y5119D3*
D107*
X29130Y11540D3*
D105*
X30130D3*
X31130D3*
X32130D3*
D101*
X6130Y14893D3*
D99*
Y12924D3*
Y10956D3*
Y8987D3*
D97*
X15430Y27940D3*
D95*
X14430D3*
X13430D3*
X12430D3*
X11430D3*
X10430D3*
D97*
X24430D3*
D95*
X23430D3*
X22430D3*
X21430D3*
X20430D3*
X19430D3*
X18430D3*
X17430D3*
D97*
X10430Y8940D3*
D95*
X11430D3*
X12430D3*
X13430D3*
X14430D3*
X15430D3*
X16430D3*
X17430D3*
D97*
X19030D3*
D95*
X20030D3*
X21030D3*
X22030D3*
X23030D3*
X24030D3*
X25030D3*
X26030D3*
X27030D3*
X28030D3*
D107*
X30180Y14190D3*
D105*
Y15190D3*
Y16190D3*
Y17190D3*
Y18190D3*
D107*
Y22190D3*
D105*
Y23190D3*
Y24190D3*
Y25190D3*
Y26190D3*
D107*
X9430Y11960D3*
D105*
Y10960D3*
X8430Y11960D3*
Y10960D3*
D42*
X30430Y5440D3*
D43*
Y6440D3*
Y7440D3*
D42*
X32180Y5440D3*
D43*
Y6440D3*
Y7440D3*
D107*
X34430Y14690D3*
D105*
X35430D3*
X36430D3*
D107*
X34430Y15690D3*
D105*
X35430D3*
X36430D3*
D107*
X17730Y7440D3*
D105*
Y6440D3*
D34*
Y5440D3*
D107*
X18730Y7440D3*
D105*
Y6440D3*
D34*
Y5440D3*
D107*
X32180Y19690D3*
D105*
X31180D3*
X30180D3*
D107*
X32180Y20690D3*
D105*
X31180D3*
X30180D3*
D107*
X24200Y26190D3*
D105*
X25200D3*
X24200Y25190D3*
X25200D3*
X24200Y24190D3*
X25200D3*
X24200Y23190D3*
X25200D3*
X24200Y22190D3*
X25200D3*
X24200Y21190D3*
X25200D3*
X30430Y8440D3*
X32180D3*
D107*
X24200Y20190D3*
D105*
X25200D3*
D107*
X8630Y28940D3*
D105*
Y27940D3*
X7630Y28940D3*
Y27940D3*
D107*
X8430Y13890D3*
D105*
Y14890D3*
X9430Y13890D3*
Y14890D3*
D44*
X30540Y28180D3*
X29359D3*
D45*
X7060Y18770D3*
Y17589D3*
G36*
X25678Y16777D2*
X25556Y16655D1*
Y16425D1*
X25678Y16303D1*
X26302D1*
X26424Y16425D1*
Y16655D1*
X26302Y16777D1*
X25678D1*
G37*
D85*
X25990Y16020D3*
Y15500D3*
D113*
X27661Y23190D3*
X26559D3*
Y22190D3*
X27661D3*
X26559Y24190D3*
X27661D3*
Y21190D3*
X26559D3*
D111*
X8140Y17538D3*
Y18640D3*
D113*
X19950Y14500D3*
X18848D3*
X26559Y25190D3*
X27661D3*
X28550Y7290D3*
X27448D3*
X26559Y26190D3*
X27661D3*
D111*
X28500Y6390D3*
Y5288D3*
D47*
X25990Y11070D3*
X27959D3*
X25930Y12280D3*
X27899D3*
D113*
X27661Y20200D3*
X26559D3*
D81*
X9110Y29790D3*
X8441D3*
D105*
X9730Y22950D3*
D79*
X5700Y17390D3*
Y18729D3*
D77*
X24010Y15140D3*
D105*
X21450D3*
G36*
X10572Y17282D2*
X10772Y17082D1*
Y16798D1*
X10572Y16598D1*
X10288D1*
X10088Y16798D1*
Y17082D1*
X10288Y17282D1*
X10572D1*
G37*
G36*
X9572D2*
X9772Y17082D1*
Y16798D1*
X9572Y16598D1*
X9288D1*
X9088Y16798D1*
Y17082D1*
X9288Y17282D1*
X9572D1*
G37*
G36*
X10572Y18282D2*
X10772Y18082D1*
Y17798D1*
X10572Y17598D1*
X10288D1*
X10088Y17798D1*
Y18082D1*
X10288Y18282D1*
X10572D1*
G37*
G36*
X9572D2*
X9772Y18082D1*
Y17798D1*
X9572Y17598D1*
X9288D1*
X9088Y17798D1*
Y18082D1*
X9288Y18282D1*
X9572D1*
G37*
G36*
X10572Y19282D2*
X10772Y19082D1*
Y18798D1*
X10572Y18598D1*
X10288D1*
X10088Y18798D1*
Y19082D1*
X10288Y19282D1*
X10572D1*
G37*
G36*
X9572D2*
X9772Y19082D1*
Y18798D1*
X9572Y18598D1*
X9288D1*
X9088Y18798D1*
Y19082D1*
X9288Y19282D1*
X9572D1*
G37*
D50*
X5030Y20440D3*
X6030D3*
X7030D3*
X8030D3*
X9030D3*
X10030D3*
X11030D3*
X12030D3*
X13030D3*
X14030D3*
X15030D3*
X16030D3*
X17030D3*
X18030D3*
Y25440D3*
Y26440D3*
X17030D3*
X16030D3*
X15030D3*
X14030D3*
X13030D3*
X12030D3*
X11030D3*
X10030D3*
X9030D3*
X8030D3*
X7030D3*
X6030D3*
X5030D3*
X6030Y25440D3*
X8030D3*
X9030D3*
X10030D3*
X17030Y23440D3*
Y24440D3*
X16030Y23440D3*
X15030D3*
X14030D3*
X13030D3*
X16030Y24440D3*
X15030D3*
X14030D3*
X13030D3*
X12030D3*
X11030D3*
X12030Y23440D3*
X11030D3*
D73*
X17205Y17440D3*
D71*
X13905Y16540D3*
Y18340D3*
D69*
X20410Y19531D3*
G36*
X20075Y18703D2*
X20767D1*
X21004Y18467D1*
X21903D1*
X22163Y18727D1*
Y19153D1*
X21903Y19413D1*
X21004D1*
X20767Y19177D1*
X20075D1*
Y18703D1*
G37*
D69*
X20410Y18349D3*
D107*
X21530Y26190D3*
D105*
Y25190D3*
Y24190D3*
M02*
