M48
INCH
T01C0.0191
T02C0.025
T03C0.0276
T04C0.03
T05C0.0354
T06C0.038
T07C0.04
T08C0.0402
T09C0.0512
T10C0.125
%
T01
X+029060Y+023010
X+028700Y+023440
X+028920Y+024340
X+028490Y+021710
X+026430Y+018350
X+025330Y+018780
X+024720Y+018590
X+024240Y+019050
X+023440Y+017830
X+024660Y+017290
X+022040Y+017180
X+021600Y+017910
X+022480Y+018990
X+022740Y+020510
X+022090Y+020830
X+022240Y+021680
X+021610Y+022910
X+022730Y+023500
X+023310Y+023450
X+023190Y+025140
X+023370Y+025910
X+022810Y+025840
X+023370Y+026650
X+024750Y+029470
X+025720Y+028860
X+026670Y+027290
X+028469Y+028180
X+031570Y+028370
X+032060Y+027460
X+032730Y+026650
X+034650Y+027570
X+035970Y+025680
X+032960Y+021600
X+035920Y+019750
X+029630Y+017750
X+029550Y+016750
X+027910Y+016820
X+027940Y+016200
X+027800Y+017590
X+028470Y+014740
X+028770Y+014090
X+028000Y+014110
X+027420Y+014540
X+027160Y+013510
X+026540Y+012280
X+027050Y+011270
X+027610Y+011620
X+025190Y+012080
X+023450Y+010600
X+022740Y+012430
X+023150Y+014890
X+020680Y+016850
X+019650Y+015700
X+018090Y+019531
X+019140Y+020160
X+018770Y+020680
X+020230Y+020550
X+020880Y+020470
X+018870Y+022910
X+018270Y+022720
X+017610Y+023000
X+018010Y+024180
X+019020Y+025190
X+019000Y+025900
X+019000Y+026540
X+019640Y+026200
X+020310Y+024190
X+015620Y+025790
X+016390Y+028010
X+016390Y+029180
X+017010Y+029170
X+015320Y+029130
X+013930Y+028440
X+012700Y+025440
X+011900Y+025350
X+010240Y+024160
X+008990Y+023780
X+007360Y+024550
X+005140Y+025340
X+007680Y+019820
X+006370Y+018729
X+006420Y+016798
X+007580Y+016180
X+011260Y+018250
X+010970Y+021750
X+011380Y+022440
X+013340Y+022300
X+013730Y+021900
X+015330Y+022660
X+010430Y+012450
X+010170Y+010670
X+007770Y+006960
X+017000Y+011300
X+020680Y+011020
X+023540Y+008390
X+027260Y+006600
X+029050Y+008950
X+029930Y+008950
X+031700Y+010500
X+032380Y+010510
X+033090Y+010712
X+032290Y+012920
X+031640Y+013640
X+030240Y+012920
X+035940Y+011250
X+035960Y+010210
T02
X+011440Y+014080
X+018240Y+012400
X+024670Y+010990
X+029690Y+018970
T03
X+025990Y+016540
X+025990Y+016020
X+025990Y+015500
T04
X+025990Y+011070
X+025930Y+012280
X+027899Y+012280
X+027959Y+011070
T05
X+036430Y+007690
X+035430Y+007690
X+034430Y+007690
X+034430Y+008690
X+035430Y+008690
X+035430Y+009690
X+035430Y+010690
X+036430Y+010690
X+036430Y+011690
X+035430Y+011690
X+034430Y+011690
X+034430Y+010690
X+034430Y+009690
X+036430Y+009690
X+036430Y+008690
X+036430Y+012690
X+035430Y+012690
X+034430Y+012690
X+034430Y+014690
X+035430Y+014690
X+036430Y+014690
X+036430Y+015690
X+035430Y+015690
X+034430Y+015690
X+034430Y+017190
X+035430Y+017190
X+036430Y+017190
X+036430Y+018190
X+036430Y+019190
X+036430Y+020190
X+035430Y+020190
X+035430Y+019190
X+035430Y+018190
X+034430Y+018190
X+034430Y+019190
X+034430Y+020190
X+034430Y+022190
X+035430Y+022190
X+036430Y+022190
X+036430Y+023190
X+036430Y+024190
X+036430Y+025190
X+035430Y+025190
X+034430Y+025190
X+034430Y+024190
X+034430Y+023190
X+035430Y+023190
X+035430Y+024190
X+035430Y+026190
X+036430Y+026190
X+034430Y+026190
X+032180Y+026190
X+031180Y+026190
X+031180Y+025190
X+031180Y+024190
X+031180Y+023190
X+032180Y+023190
X+032180Y+024190
X+032180Y+025190
X+030180Y+025190
X+030180Y+024190
X+030180Y+023190
X+030180Y+022190
X+031180Y+022190
X+032180Y+022190
X+032180Y+020690
X+032180Y+019690
X+031180Y+019690
X+030180Y+019690
X+030180Y+020690
X+031180Y+020690
X+031180Y+018190
X+032180Y+018190
X+032180Y+017190
X+032180Y+016190
X+032180Y+015190
X+031180Y+015190
X+031180Y+016190
X+031180Y+017190
X+030180Y+017190
X+030180Y+016190
X+030180Y+015190
X+030180Y+014190
X+031180Y+014190
X+032180Y+014190
X+032130Y+011540
X+031130Y+011540
X+030130Y+011540
X+029130Y+011540
X+030430Y+008440
X+032180Y+008440
X+025030Y+007440
X+025030Y+006440
X+025030Y+005440
X+024030Y+005440
X+024030Y+006440
X+024030Y+007440
X+023030Y+007440
X+023030Y+006440
X+022030Y+006440
X+021030Y+006440
X+021030Y+005440
X+022030Y+005440
X+023030Y+005440
X+022030Y+007440
X+021030Y+007440
X+020030Y+007440
X+020030Y+006440
X+020030Y+005440
X+018730Y+005440
X+017730Y+005440
X+017730Y+006440
X+017730Y+007440
X+018730Y+007440
X+018730Y+006440
X+016430Y+006440
X+015430Y+006440
X+015430Y+007440
X+016430Y+007440
X+016430Y+005440
X+015430Y+005440
X+014430Y+005440
X+013430Y+005440
X+012430Y+005440
X+012430Y+006440
X+012430Y+007440
X+013430Y+007440
X+014430Y+007440
X+014430Y+006440
X+013430Y+006440
X+011430Y+006440
X+011430Y+007440
X+010430Y+007440
X+010430Y+006440
X+010430Y+005440
X+009430Y+005440
X+009430Y+006440
X+009430Y+007440
X+011430Y+005440
X+009430Y+010960
X+009430Y+011960
X+008430Y+011960
X+008430Y+010960
X+008430Y+013890
X+008430Y+014890
X+009430Y+014890
X+009430Y+013890
X+009730Y+022950
X+008630Y+027940
X+008630Y+028940
X+007630Y+028940
X+007630Y+027940
X+021530Y+026190
X+021530Y+025190
X+021530Y+024190
X+024200Y+024190
X+024200Y+023190
X+025200Y+023190
X+025200Y+024190
X+025200Y+025190
X+024200Y+025190
X+024200Y+026190
X+025200Y+026190
X+025200Y+022190
X+024200Y+022190
X+024200Y+021190
X+024200Y+020190
X+025200Y+020190
X+025200Y+021190
X+030180Y+018190
X+030180Y+026190
X+021450Y+015140
T06
X+024010Y+015140
X+018030Y+020440
X+017030Y+020440
X+016030Y+020440
X+015030Y+020440
X+014030Y+020440
X+013030Y+020440
X+012030Y+020440
X+011030Y+020440
X+010030Y+020440
X+009030Y+020440
X+008030Y+020440
X+007030Y+020440
X+006030Y+020440
X+005030Y+020440
X+006030Y+025440
X+006030Y+026440
X+005030Y+026440
X+007030Y+026440
X+008030Y+026440
X+009030Y+026440
X+009030Y+025440
X+008030Y+025440
X+010030Y+025440
X+010030Y+026440
X+011030Y+026440
X+012030Y+026440
X+013030Y+026440
X+014030Y+026440
X+015030Y+026440
X+016030Y+026440
X+017030Y+026440
X+018030Y+026440
X+018030Y+025440
X+017030Y+024440
X+017030Y+023440
X+016030Y+023440
X+015030Y+023440
X+014030Y+023440
X+014030Y+024440
X+015030Y+024440
X+016030Y+024440
X+013030Y+024440
X+013030Y+023440
X+012030Y+023440
X+012030Y+024440
X+011030Y+024440
X+011030Y+023440
T07
X+030430Y+005440
X+030430Y+006440
X+030430Y+007440
X+032180Y+007440
X+032180Y+006440
X+032180Y+005440
X+010430Y+016940
X+009430Y+016940
X+009430Y+017940
X+010430Y+017940
X+010430Y+018940
X+009430Y+018940
T08
X+015430Y+027940
X+014430Y+027940
X+013430Y+027940
X+012430Y+027940
X+011430Y+027940
X+010430Y+027940
X+017430Y+027940
X+018430Y+027940
X+019430Y+027940
X+020430Y+027940
X+021430Y+027940
X+022430Y+027940
X+023430Y+027940
X+024430Y+027940
X+024030Y+008940
X+023030Y+008940
X+022030Y+008940
X+021030Y+008940
X+020030Y+008940
X+019030Y+008940
X+017430Y+008940
X+016430Y+008940
X+015430Y+008940
X+014430Y+008940
X+013430Y+008940
X+012430Y+008940
X+011430Y+008940
X+010430Y+008940
X+025030Y+008940
X+026030Y+008940
X+027030Y+008940
X+028030Y+008940
T09
X+006130Y+014893
X+006130Y+012924
X+006130Y+010956
X+006130Y+008987
T10
X+036430Y+005440
X+036430Y+028940
X+005430Y+028940
X+005430Y+005440
T00
M30
