G04 DipTrace Beta 2.3.5.2*
%INTeensyDuinoV001-wide.gbl*%
%MOIN*%
%ADD13C,0.04*%
%ADD15C,0.06*%
%ADD16C,0.01*%
%ADD17C,0.008*%
%ADD19C,0.055*%
%ADD20C,0.03*%
%ADD22C,0.075*%
%ADD23C,0.0591*%
%ADD24C,0.05*%
%ADD26C,0.025*%
%ADD27C,0.013*%
%ADD33R,0.0591X0.0591*%
%ADD34C,0.0591*%
%ADD37R,0.0984X0.0984*%
%ADD38C,0.0984*%
%ADD39R,0.0638X0.0638*%
%ADD40C,0.0638*%
%ADD42R,0.074X0.074*%
%ADD43C,0.074*%
%ADD46O,0.0787X0.0394*%
%ADD47C,0.0489*%
%ADD50C,0.0619*%
%ADD56C,0.165*%
%FSLAX44Y44*%
G04*
G70*
G90*
G75*
G01*
%LNBottom*%
%LPD*%
X35430Y26190D2*
D13*
Y25190D1*
Y24190D1*
Y23190D1*
Y22190D1*
X27420Y14540D2*
Y16110D1*
X26440Y17090D1*
X25282D1*
Y16780D1*
X23980D1*
X23440Y17320D1*
Y17830D1*
X27899Y12280D2*
X26540D1*
X19140Y20160D2*
X21390Y17910D1*
X21600D1*
X21610Y22910D2*
X18870D1*
X35430Y22190D2*
Y21540D1*
X32960D1*
Y21600D1*
X27899Y12280D2*
X33000D1*
X33290Y12570D1*
Y13800D1*
X36310D1*
Y14570D1*
X36430Y14690D1*
X11440Y14080D2*
Y14640D1*
X10610Y15470D1*
X8290D1*
X7580Y16180D1*
X21530Y24190D2*
X20310D1*
X34430Y22190D2*
D17*
X34300D1*
X34925Y22815D1*
Y25650D1*
X33905D1*
X33540Y26015D1*
Y26750D1*
X32470Y27820D1*
X31100D1*
X30630Y27350D1*
X29320D1*
X29080Y27110D1*
X27310D1*
X26360Y28060D1*
X25480D1*
X24910Y28630D1*
X14962D1*
Y29030D1*
X10580D1*
X9660Y28110D1*
Y27430D1*
X9150Y26920D1*
X8790D1*
X8540Y26670D1*
Y26310D1*
X9050Y25800D1*
Y25440D1*
X9030D1*
X34430Y22190D2*
Y22090D1*
X32970D1*
Y22120D1*
X32880D1*
X32330Y21570D1*
X31990D1*
X31670Y21250D1*
X28950D1*
X28490Y21710D1*
X23190Y25140D2*
Y25270D1*
X23610Y25690D1*
X32688D1*
X32913Y25465D1*
Y24707D1*
X34430Y23190D1*
X24200D2*
X23810D1*
X23550Y23450D1*
X23310D1*
X23190Y25140D2*
X22870D1*
X22420Y24690D1*
X19150D1*
X18980Y24860D1*
X17780D1*
X17520Y25120D1*
X12130D1*
X11900Y25350D1*
X34430Y24190D2*
X34100D1*
X33160Y25130D1*
Y26220D1*
X32730Y26650D1*
X31570Y28370D2*
X31540Y28340D1*
X30572D1*
Y28232D1*
X30140Y27800D1*
X27290D1*
X26650Y28440D1*
X25680D1*
X24990Y29130D1*
X16970D1*
X17010Y29170D1*
X13930Y28440D2*
Y27780D1*
X14370Y27340D1*
X14680D1*
X15060Y26960D1*
X15190D1*
X15530Y26620D1*
Y25660D1*
X15750D1*
X15620Y25790D1*
X10240Y24160D2*
Y24230D1*
X11030Y23440D1*
X23370Y26650D2*
Y26700D1*
X23500Y26830D1*
X25690D1*
X26230Y26290D1*
X29520D1*
X29880Y26650D1*
X31882D1*
Y27120D1*
X32770D1*
X33380Y26510D1*
Y25600D1*
X33790Y25190D1*
X34430D1*
X22740Y20510D2*
Y20730D1*
X22300Y21170D1*
X21900D1*
X21570Y21500D1*
X15330D1*
X13460Y23370D1*
Y23710D1*
X13300Y23870D1*
X11600D1*
X11030Y24440D1*
X12700Y25440D2*
X18030D1*
X8990Y23780D2*
X8580D1*
X8480Y23880D1*
Y25800D1*
X8490Y25810D1*
Y25910D1*
X7570D1*
Y26710D1*
X8130Y27270D1*
Y29330D1*
X8250Y29450D1*
X15889D1*
Y28850D1*
X24980D1*
X25570Y28260D1*
X26470D1*
X27380Y27350D1*
X28960D1*
X29134Y27524D1*
Y27590D1*
X30490D1*
X30940Y28040D1*
X33120D1*
X33700Y27460D1*
Y26920D1*
X34430Y26190D1*
X15030Y24440D2*
X15580Y23890D1*
X17250D1*
X17900Y23240D1*
X22070D1*
X22300Y23010D1*
X22650D1*
X23990Y21670D1*
X26360D1*
X27080Y22390D1*
Y23450D1*
X27640Y24010D1*
X30360D1*
X30180Y24190D1*
X8030Y25440D2*
X7930Y25340D1*
Y21450D1*
X7497Y21017D1*
X6777D1*
X6510Y20750D1*
Y19906D1*
X6880Y19536D1*
Y14040D1*
X7750Y13170D1*
X11640D1*
Y10160D1*
X10980Y9500D1*
Y8560D1*
X10760Y8340D1*
X9970D1*
Y6960D1*
X7770D1*
X11430Y7440D2*
X11290D1*
Y7650D1*
X12580Y8940D1*
X12430D1*
Y15560D1*
X11820Y16170D1*
X8720D1*
X8360Y16530D1*
Y20440D1*
X8030D1*
X12430Y7440D2*
X12580D1*
Y7990D1*
X13530Y8940D1*
X13430D1*
X12991Y9379D1*
X12750D1*
X12590Y9539D1*
Y15890D1*
X12070Y16410D1*
X8770D1*
X8640Y16540D1*
Y20050D1*
X9030Y20440D1*
X10030D2*
X9420Y19830D1*
X9108D1*
X8948Y19670D1*
Y17470D1*
X11460D1*
X12750Y16180D1*
Y9699D1*
X12910Y9539D1*
X13831D1*
X14430Y8940D1*
X14530D1*
X14430Y8840D1*
Y8480D1*
X13390Y7440D1*
X13430D1*
X14430D2*
Y7600D1*
X15410Y8580D1*
Y8940D1*
X15430D1*
Y10430D1*
X15270Y10590D1*
X13240D1*
X13080Y10750D1*
Y17742D1*
X11030Y19792D1*
Y20440D1*
X15430Y7440D2*
Y7760D1*
X16600Y8930D1*
X16430D1*
Y8940D1*
X16480D1*
Y11180D1*
X16460Y11200D1*
Y11440D1*
X13400Y14500D1*
Y18229D1*
X12030Y19599D1*
Y20440D1*
X24200Y24190D2*
Y24150D1*
X23870D1*
X23860Y24140D1*
X22540D1*
X21970Y23570D1*
X19010D1*
X18400Y24180D1*
X18010D1*
X23150Y14890D2*
Y14680D1*
X23820Y14010D1*
X27520D1*
X27840Y13690D1*
X29790D1*
X30200Y14100D1*
Y14190D1*
X30180D1*
X19650Y15700D2*
X17520D1*
X16420Y16800D1*
Y20139D1*
X16460Y20099D1*
Y20710D1*
X16239Y20930D1*
X12920D1*
Y23440D1*
X13030D1*
X14030D2*
X15800Y21670D1*
X21750D1*
X22070Y21350D1*
X22500D1*
X23090Y20760D1*
Y20500D1*
X23260Y20330D1*
Y19770D1*
X23660Y19370D1*
X27720D1*
X28920Y18170D1*
Y15710D1*
X29440Y15190D1*
X30180D1*
Y25190D2*
Y25330D1*
X26596D1*
Y24760D1*
X22850D1*
X21820Y23730D1*
X19560D1*
X18610Y24680D1*
X17600D1*
X17390Y24890D1*
X14480D1*
X14030Y24440D1*
X19000Y25900D2*
X19090D1*
Y25850D1*
X19860D1*
X20210Y26200D1*
Y26210D1*
X21010Y27010D1*
X22590D1*
Y26780D1*
X23040Y26330D1*
X23720D1*
Y26660D1*
X25570D1*
X26095Y26135D1*
Y26090D1*
X30180D1*
Y26190D1*
X9430Y7440D2*
Y8940D1*
X10430D1*
X10650D1*
Y9590D1*
X11320Y10260D1*
Y12930D1*
X7520D1*
X6370Y14080D1*
X5510D1*
Y16390D1*
X6030D1*
Y20440D1*
X10430Y7440D2*
X10360D1*
X11420Y8500D1*
Y8770D1*
X11430D1*
Y8940D1*
X11180D1*
X11890Y9650D1*
Y13380D1*
X7930D1*
X7080Y14230D1*
Y20440D1*
X7030D1*
X22030Y7440D2*
Y7590D1*
X20990Y8630D1*
Y8940D1*
X21030D1*
X20591Y9379D1*
X20621D1*
X19830Y10170D1*
Y12650D1*
X15490Y16990D1*
Y19470D1*
X15960Y19940D1*
Y20207D1*
X16030Y20137D1*
Y20440D1*
X22030Y8940D2*
Y9030D1*
X21620D1*
X23030Y7620D1*
Y7440D1*
X11260Y18250D2*
Y18420D1*
X9340D1*
Y17860D1*
X9430Y17770D1*
Y17940D1*
X23030Y7440D2*
X22465Y6875D1*
X14015D1*
X13920Y6970D1*
Y7540D1*
X14800Y8420D1*
X14920D1*
Y10059D1*
X14709Y10270D1*
X13080D1*
X12920Y10430D1*
Y16980D1*
X11650Y18250D1*
X11260D1*
X18030Y20440D2*
Y20194D1*
X17040Y19204D1*
Y17370D1*
X18090Y16320D1*
X19600D1*
X20170Y15750D1*
Y15322D1*
X20190D1*
Y10630D1*
X21281Y9539D1*
X22431D1*
X23030Y8940D1*
Y8250D1*
X23490Y7790D1*
X23640D1*
X24030Y7400D1*
Y7440D1*
Y8940D2*
X24090Y9000D1*
Y8380D1*
X25030Y7440D1*
X24510Y6920D1*
Y6110D1*
X24290Y5890D1*
X23324D1*
X23309Y5875D1*
X12029D1*
X11869Y6035D1*
Y6992D1*
X10890D1*
Y7620D1*
X11910Y8640D1*
Y9330D1*
X12240Y9660D1*
Y15090D1*
X11400Y15930D1*
X8590D1*
X8150Y16370D1*
Y19820D1*
X7680D1*
X15430Y27940D2*
X15530D1*
X17030Y26440D1*
Y26320D1*
X17280Y26070D1*
X17330D1*
X17500Y25900D1*
X18350D1*
X18520Y26070D1*
Y26090D1*
X18730Y26300D1*
X18760D1*
X19000Y26540D1*
X20230Y20550D2*
X21850Y18930D1*
Y18570D1*
X22480Y17940D1*
Y15140D1*
X22340Y15000D1*
Y10520D1*
X23540Y9320D1*
Y8390D1*
X29930Y8950D2*
X33170D1*
X34430Y7690D1*
X14430Y27940D2*
Y27990D1*
X15089Y27331D1*
X15219D1*
X16110Y26440D1*
X16030D1*
X34430Y8690D2*
Y8710D1*
X33760Y9380D1*
X29770D1*
X29570Y9180D1*
Y8690D1*
X28980Y8100D1*
X26230D1*
X25580Y8750D1*
Y11690D1*
X25190Y12080D1*
X22740Y12430D2*
Y18090D1*
X22160Y18670D1*
Y19190D1*
X20880Y20470D1*
X13430Y27940D2*
X14340Y27030D1*
X14440D1*
X15030Y26440D1*
X25720Y28860D2*
X25110Y29470D1*
X24750D1*
X31640Y13640D2*
Y14505D1*
X31520Y14625D1*
X29275D1*
X28710Y15190D1*
Y18030D1*
X27620Y19120D1*
X24310D1*
X24240Y19050D1*
X33090Y10712D2*
X34112Y9690D1*
X34430D1*
X12430Y27940D2*
X13500Y26870D1*
X13600D1*
X14030Y26440D1*
X35940Y11250D2*
Y11210D1*
X34950D1*
X34430Y10690D1*
X31700Y10500D2*
X31380Y10180D1*
X28270D1*
X27030Y8940D1*
X13030Y26440D2*
X12550Y25960D1*
X12030D1*
X11900Y25830D1*
X11710D1*
X10830Y24950D1*
X10810D1*
X10600Y24740D1*
Y24230D1*
X10910Y23920D1*
X11210D1*
X11510Y23620D1*
Y23260D1*
X11876Y22894D1*
X12500D1*
Y22020D1*
X12510D1*
Y19965D1*
X13560Y18914D1*
Y16260D1*
X17000Y12820D1*
Y11300D1*
X32130Y11540D2*
X33150D1*
X33630Y12020D1*
Y13195D1*
X33790Y13355D1*
X34685D1*
X34845Y13195D1*
Y12105D1*
X34430Y11690D1*
X11430Y27940D2*
X11530D1*
X13030Y26440D1*
X35960Y10210D2*
Y10120D1*
X34280D1*
X33275Y11125D1*
X32710D1*
X31545D1*
X31130Y11540D1*
X33275Y11125D2*
X33385D1*
X33790Y11530D1*
Y12050D1*
X34430Y12690D1*
X28030Y8940D2*
Y9320D1*
X28460Y9750D1*
X32710D1*
Y11125D1*
X10430Y27940D2*
X10530D1*
X12030Y26440D1*
X11030D2*
Y25500D1*
X9870Y24340D1*
Y23930D1*
X10500Y23300D1*
Y23320D1*
X11380Y22440D1*
X13730Y21900D2*
X14076D1*
Y21110D1*
X20990D1*
X21300Y20800D1*
Y20790D1*
X22058Y20032D1*
X22068D1*
X23000Y19100D1*
Y18880D1*
X24170Y17710D1*
X27030D1*
X27520Y17220D1*
X27510D1*
X27910Y16820D1*
X29550Y16750D2*
X32710D1*
Y16730D1*
X33150D1*
Y16770D1*
X34010D1*
X34430Y17190D1*
X10030Y26440D2*
Y26150D1*
X10120Y26240D1*
X10170D1*
X10510Y25900D1*
Y25250D1*
X10130Y24870D1*
X9930D1*
X9660Y24600D1*
Y23790D1*
X10260Y23190D1*
Y22460D1*
X10970Y21750D1*
X13340Y22300D2*
X14050D1*
X15040Y21310D1*
X21070D1*
X23240Y19140D1*
Y18930D1*
X24230Y17940D1*
X26910D1*
X26896Y17954D1*
X27436D1*
X27800Y17590D1*
X29630Y17750D2*
X32460D1*
Y17810D1*
X33890Y19240D1*
Y19660D1*
X34670D1*
X34920Y19410D1*
Y18680D1*
X34430Y18190D1*
X10170Y10670D2*
Y10690D1*
X9910Y10430D1*
X7200D1*
Y12880D1*
X6308Y13772D1*
X5180D1*
Y16720D1*
X5770D1*
Y19790D1*
X5520Y20040D1*
Y21240D1*
X7210D1*
Y24320D1*
X7360Y24470D1*
Y24550D1*
X23450Y10600D2*
X23330D1*
Y13020D1*
X24140Y13830D1*
X27390D1*
X27760Y13460D1*
X30620D1*
X30810Y13270D1*
X32270D1*
X32810Y13810D1*
Y15230D1*
X34080Y16500D1*
X34980D1*
Y17720D1*
X33780D1*
Y18540D1*
X34430Y19190D1*
X15320Y29130D2*
Y29040D1*
X15260D1*
X15070Y29230D1*
X10470D1*
X9300Y28060D1*
Y27740D1*
X7980Y26420D1*
Y26390D1*
X8030Y26440D1*
X35970Y25680D2*
Y26880D1*
X35280Y27570D1*
X34650D1*
X35920Y19750D2*
X35130D1*
X34690Y20190D1*
X34430D1*
X30180Y16190D2*
X29180D1*
Y18460D1*
X28070Y19570D1*
X23750D1*
X23470Y19850D1*
Y20380D1*
X23290Y20560D1*
Y21250D1*
X22540Y22000D1*
X16470D1*
X15030Y23440D1*
X22040Y17180D2*
Y18090D1*
X21530Y18600D1*
Y18630D1*
X19450Y20710D1*
X18770D1*
Y20680D1*
X24660Y17290D2*
X25024D1*
Y17430D1*
X26760D1*
X27685Y16505D1*
X27635D1*
X27940Y16200D1*
X17030Y23440D2*
Y22500D1*
X17350Y22180D1*
X22610D1*
X23490Y21300D1*
Y20630D1*
X23650Y20470D1*
Y19940D1*
X23830Y19760D1*
X28070D1*
X28050Y19780D1*
X28230D1*
X29820Y18190D1*
X30180D1*
Y22190D2*
X30650D1*
Y24510D1*
X30450Y24710D1*
X29720D1*
X29596Y24834D1*
Y25080D1*
X27490D1*
X26110Y23700D1*
X24766D1*
Y23680D1*
X23870D1*
X23690Y23860D1*
X22610D1*
X22160Y23410D1*
X18070D1*
X17040Y24440D1*
X17030D1*
X17610Y23000D2*
Y22540D1*
X17800Y22350D1*
X22750D1*
X23680Y21420D1*
Y20800D1*
X23720Y20760D1*
X26170D1*
X27680Y22270D1*
Y23590D1*
X27870Y23780D1*
X29640D1*
X30180Y23240D1*
Y23190D1*
X17430Y8940D2*
X17370D1*
X17420Y8990D1*
Y13290D1*
X14610Y16100D1*
X14630D1*
X14200Y16530D1*
Y19270D1*
X13030Y20440D1*
X22240Y21680D2*
X22200D1*
X22050Y21830D1*
X16220D1*
X15890Y22160D1*
X15830D1*
X15330Y22660D1*
X17430Y8940D2*
Y8640D1*
X16230Y7440D1*
X16430D1*
X14030Y20440D2*
X14460Y20010D1*
Y18506D1*
X14450D1*
Y16920D1*
X19260Y12110D1*
Y8710D1*
X19030Y8940D1*
X18270Y22720D2*
Y22550D1*
X22840D1*
X24200Y21190D1*
X19030Y8940D2*
Y8450D1*
X20040Y7440D1*
X20030D1*
X21030D2*
Y7710D1*
X19800Y8940D1*
X20030D1*
X19950D1*
X19580Y9310D1*
Y12220D1*
X14960Y16840D1*
Y20440D1*
X15030D1*
X16430Y5440D2*
D13*
Y4430D1*
X20030D1*
Y4547D1*
Y5440D1*
X5030Y20440D2*
Y25230D1*
X5140Y25340D1*
X25030Y8940D2*
Y8720D1*
D19*
X26080Y7670D1*
D13*
X28350D1*
Y4770D1*
X26458D1*
Y5510D1*
X25030D1*
Y5440D1*
X28350Y4770D2*
X29760D1*
X30430Y5440D1*
X30240Y12920D2*
X32290D1*
X6370Y18729D2*
D16*
Y16848D1*
X6420Y16798D1*
X18430Y27940D2*
D13*
Y27710D1*
X17980Y27260D1*
X17140D1*
X16390Y28010D1*
Y29180D2*
X16480D1*
Y29810D1*
X7060D1*
X6570Y29320D1*
Y26980D1*
X6030Y26440D1*
X29060Y23010D2*
D16*
Y22270D1*
X29600Y21730D1*
X31720D1*
X32180Y22190D1*
X18430Y27710D2*
D13*
Y27330D1*
X19430D1*
X19640D1*
X25760D1*
X26430Y26660D1*
X29210D1*
X29570Y27020D1*
X31454D1*
Y27460D1*
X32060D1*
X19640Y27330D2*
D20*
Y26200D1*
X30430Y5440D2*
D13*
X32180D1*
X36430Y26190D2*
X36610D1*
Y25190D1*
X36430D1*
Y24190D1*
Y23190D1*
Y22190D1*
Y20190D2*
Y19190D1*
Y18190D1*
Y17190D1*
Y17140D1*
X37090Y16480D1*
Y13350D1*
X36430Y12690D1*
Y11690D1*
X36490D1*
Y10690D1*
X36430D1*
X36520D1*
Y9690D1*
X36430D1*
Y8690D1*
Y7690D1*
X32180Y18190D2*
X33240Y19250D1*
Y20220D1*
X33320Y20300D1*
Y20960D1*
X35660D1*
X36430Y20190D1*
X18090Y19531D2*
D15*
X17999D1*
X20680Y16850D1*
Y11020D1*
X24670Y10990D2*
X25030Y10630D1*
Y8940D1*
X36430Y7690D2*
D13*
Y7600D1*
X35080Y6250D1*
Y5930D1*
X34470Y5320D1*
X32300D1*
X32180Y5440D1*
X16480Y29810D2*
Y29970D1*
X28469D1*
X33790D1*
X36100Y27660D1*
Y27300D1*
X36550Y26850D1*
Y26310D1*
X36430Y26190D1*
X28469Y28180D2*
Y29970D1*
X16430Y4430D2*
X8040D1*
X7560Y4910D1*
Y5750D1*
X6580Y6730D1*
Y8537D1*
X6130Y8987D1*
Y12924D2*
X6004D1*
X4850Y11770D1*
Y9030D1*
X6087D1*
X6130Y8987D1*
X10430Y12450D2*
D15*
Y11550D1*
X10790Y11190D1*
Y10370D1*
X10230Y9810D1*
X6953D1*
X6130Y8987D1*
X20030Y4547D2*
D13*
X26235D1*
X26458Y4770D1*
X30240Y12920D2*
D15*
X24960D1*
X24580Y12540D1*
X24650D1*
X24310Y12200D1*
Y11350D1*
X24670Y10990D1*
X19430Y27940D2*
D13*
Y27330D1*
X21530Y25190D2*
D17*
Y25440D1*
X22640D1*
X22610Y25410D1*
X23000D1*
X23290Y25700D1*
Y25830D1*
X23370Y25910D1*
X26670Y27290D2*
X26450D1*
X25900Y27840D1*
X25410D1*
X24960Y28290D1*
Y28300D1*
X24830Y28430D1*
X23920D1*
X23430Y27940D1*
X30430Y8440D2*
X32180D1*
X24720Y18590D2*
Y18520D1*
X24850Y18390D1*
X25710D1*
X26040Y18720D1*
X27340D1*
X28260Y17800D1*
Y15420D1*
X27900Y15060D1*
Y14810D1*
X28620Y14090D1*
X28770D1*
X27610Y11620D2*
Y11360D1*
X27300Y11050D1*
Y10560D1*
X27460Y10400D1*
X30340D1*
X30780Y10840D1*
X32050D1*
X32380Y10510D1*
X31180Y16190D2*
D13*
Y15190D1*
Y25190D2*
Y24190D1*
Y23190D1*
Y22190D1*
X30430Y7440D2*
D17*
X32180D1*
X25330Y18780D2*
X25608D1*
Y18950D1*
X27530D1*
X28470Y18010D1*
Y14740D1*
X27050Y11270D2*
Y10220D1*
X26530Y9700D1*
Y8520D1*
X26560Y8490D1*
X28670D1*
X28640Y8520D1*
X28850Y8730D1*
Y8750D1*
X29050Y8950D1*
X19020Y25190D2*
X18975Y25235D1*
X19240Y25500D1*
X20164D1*
Y25794D1*
X21080Y26710D1*
X22160D1*
X22810Y26060D1*
Y25840D1*
X22090Y20830D2*
Y20610D1*
X23440Y19260D1*
Y19010D1*
X24260Y18190D1*
X26430D1*
Y18350D1*
X28920Y24340D2*
X27410D1*
X26300Y23230D1*
Y23000D1*
X25920Y22620D1*
X23600D1*
X22997Y23223D1*
X23007D1*
X22730Y23500D1*
X24010Y15140D2*
X25630D1*
X25990Y15500D1*
X9730Y22950D2*
X9450Y22670D1*
Y24690D1*
X9460Y24680D1*
Y26600D1*
X9910Y27050D1*
Y28060D1*
X10650Y28800D1*
X14686D1*
Y28390D1*
X21980D1*
X22430Y27940D1*
X10430Y18940D2*
X10460D1*
Y20810D1*
X9730Y21540D1*
Y22950D1*
X27260Y6600D2*
X26570D1*
X25310Y7860D1*
X25220D1*
X24590Y8490D1*
Y9990D1*
X23800Y10780D1*
Y12860D1*
X24450Y13510D1*
X27160D1*
X28000Y14110D2*
X27810D1*
Y14200D1*
X27210D1*
X26895Y14515D1*
Y14590D1*
X23880D1*
X23450Y15020D1*
Y16540D1*
X23000Y16990D1*
Y18470D1*
X22480Y18990D1*
X30430Y6440D2*
D22*
X32180D1*
Y19690D2*
D15*
X31460Y18970D1*
X29690D1*
D16*
X29847D1*
X28060Y20757D1*
Y23330D1*
X28170Y23440D1*
X28700D1*
X34430Y14690D2*
D15*
Y15690D1*
X17730Y7440D2*
D23*
X18730D1*
X18240Y12400D2*
D22*
Y7950D1*
X17730Y7440D1*
D13*
X7580Y16180D3*
X20310Y24190D3*
X28490Y21710D3*
X11900Y25350D3*
X32730Y26650D3*
X31570Y28370D3*
X17010Y29170D3*
X13930Y28440D3*
X15620Y25790D3*
X10240Y24160D3*
X7770Y6960D3*
X18010Y24180D3*
X19000Y26540D3*
X20230Y20550D3*
X23540Y8390D3*
X29930Y8950D3*
X25190Y12080D3*
X22740Y12430D3*
X20880Y20470D3*
X11380Y22440D3*
X13730Y21900D3*
X27910Y16820D3*
X29550Y16750D3*
X10970Y21750D3*
X13340Y22300D3*
X27800Y17590D3*
X29630Y17750D3*
X24660Y17290D3*
X27940Y16200D3*
X22240Y21680D3*
X15330Y22660D3*
X5140Y25340D3*
X30240Y12920D3*
X32290D3*
X6420Y16798D3*
X16390Y28010D3*
Y29180D3*
X32060Y27460D3*
X19640Y26200D3*
X20680Y11020D3*
D24*
X24670Y10990D3*
D13*
X18090Y19531D3*
X28469Y28180D3*
X20680Y16850D3*
X10430Y12450D3*
X30240Y12920D3*
D24*
X24670Y10990D3*
D13*
X23370Y25910D3*
X26670Y27290D3*
X24720Y18590D3*
X28770Y14090D3*
X27610Y11620D3*
X32380Y10510D3*
X25330Y18780D3*
X28470Y14740D3*
X27050Y11270D3*
X29050Y8950D3*
X22090Y20830D3*
X26430Y18350D3*
X28920Y24340D3*
X22730Y23500D3*
X27260Y6600D3*
X27160Y13510D3*
X28000Y14110D3*
X22480Y18990D3*
D24*
X18240Y12400D3*
X29690Y18970D3*
D56*
X36430Y5440D3*
X5430D3*
Y28940D3*
X36430D3*
D13*
X29060Y23010D3*
X6370Y18729D3*
X32960Y21600D3*
D24*
X11440Y14080D3*
D13*
X23150Y14890D3*
X19650Y15700D3*
X19000Y25900D3*
X11260Y18250D3*
X7680Y19820D3*
X23440Y17830D3*
X27420Y14540D3*
X26540Y12280D3*
X21600Y17910D3*
X19140Y20160D3*
X23190Y25140D3*
X18870Y22910D3*
X23310Y23450D3*
X17610Y23000D3*
X21610Y22910D3*
X22740Y20510D3*
X23370Y26650D3*
X18270Y22720D3*
X8990Y23780D3*
X12700Y25440D3*
X22810Y25840D3*
X19020Y25190D3*
X28700Y23440D3*
X24750Y29470D3*
X25720Y28860D3*
X24240Y19050D3*
X31640Y13640D3*
X33090Y10712D3*
X35940Y11250D3*
X17000Y11300D3*
X31700Y10500D3*
X35960Y10210D3*
X7360Y24550D3*
X10170Y10670D3*
X23450Y10600D3*
X15320Y29130D3*
X34650Y27570D3*
X35970Y25680D3*
X35920Y19750D3*
X18770Y20680D3*
X22040Y17180D3*
X6350Y29546D2*
D26*
X7905D1*
X16194D2*
X16729D1*
X17291D2*
X24276D1*
X25475D2*
X35511D1*
X6475Y29298D2*
X7186D1*
X16209D2*
X16550D1*
X25869D2*
X35386D1*
X6529Y29049D2*
X7065D1*
X26158D2*
X35331D1*
X6526Y28800D2*
X7073D1*
X26197D2*
X31397D1*
X31744D2*
X35335D1*
X6463Y28552D2*
X7214D1*
X26979D2*
X30343D1*
X32014D2*
X35397D1*
X6326Y28303D2*
X7190D1*
X27229D2*
X30202D1*
X33279D2*
X35534D1*
X4592Y28054D2*
X4786D1*
X6072D2*
X7065D1*
X16029D2*
X16843D1*
X33549D2*
X35788D1*
X37072D2*
X37269D1*
X4592Y27805D2*
X7073D1*
X16108D2*
X16847D1*
X33795D2*
X34237D1*
X35483D2*
X37269D1*
X4592Y27557D2*
X7210D1*
X16354D2*
X16979D1*
X25029D2*
X25304D1*
X34002D2*
X34171D1*
X35736D2*
X37269D1*
X4592Y27308D2*
X7726D1*
X16604D2*
X25991D1*
X31029D2*
X31632D1*
X34022D2*
X34253D1*
X35983D2*
X37269D1*
X4592Y27059D2*
X7476D1*
X16854D2*
X20616D1*
X22904D2*
X23147D1*
X25901D2*
X26241D1*
X30705D2*
X31561D1*
X34022D2*
X35347D1*
X36229D2*
X37269D1*
X18483Y26811D2*
X18611D1*
X19389D2*
X20370D1*
X26151D2*
X29601D1*
X34252D2*
X35597D1*
X36291D2*
X37269D1*
X19479Y26562D2*
X20120D1*
X34861D2*
X35001D1*
X36861D2*
X37269D1*
X19420Y26313D2*
X19882D1*
X36990D2*
X37269D1*
X36990Y26065D2*
X37269D1*
X4592Y25816D2*
X5585D1*
X6475D2*
X7265D1*
X36858D2*
X37269D1*
X4592Y25567D2*
X5456D1*
X6604D2*
X7456D1*
X36854D2*
X37269D1*
X4592Y25319D2*
X5452D1*
X6608D2*
X7452D1*
X36990D2*
X37269D1*
X4592Y25070D2*
X5577D1*
X6483D2*
X7577D1*
X36990D2*
X37269D1*
X4592Y24821D2*
X6972D1*
X36861D2*
X37269D1*
X4592Y24573D2*
X6882D1*
X36850D2*
X37269D1*
X4592Y24324D2*
X6890D1*
X36990D2*
X37269D1*
X4592Y24075D2*
X6890D1*
X32744D2*
X33104D1*
X36994D2*
X37269D1*
X4592Y23826D2*
X6890D1*
X32619D2*
X33351D1*
X36869D2*
X37269D1*
X4592Y23578D2*
X6890D1*
X32596D2*
X33601D1*
X36846D2*
X37269D1*
X4592Y23329D2*
X6890D1*
X29166D2*
X29624D1*
X32736D2*
X33851D1*
X36986D2*
X37269D1*
X4592Y23080D2*
X6890D1*
X29002D2*
X29616D1*
X32744D2*
X33866D1*
X36994D2*
X37269D1*
X4592Y22832D2*
X6890D1*
X28389D2*
X29737D1*
X32623D2*
X33987D1*
X36873D2*
X37269D1*
X4592Y22583D2*
X6890D1*
X28389D2*
X29604D1*
X32756D2*
X33854D1*
X37006D2*
X37269D1*
X4592Y22334D2*
X6890D1*
X28389D2*
X29604D1*
X37006D2*
X37269D1*
X4592Y22086D2*
X6890D1*
X28772D2*
X29604D1*
X37006D2*
X37269D1*
X4592Y21837D2*
X6890D1*
X28951D2*
X29604D1*
X37006D2*
X37269D1*
X4592Y21588D2*
X6890D1*
X29053D2*
X31565D1*
X35908D2*
X37269D1*
X4592Y21340D2*
X5218D1*
X35861D2*
X37269D1*
X4592Y21091D2*
X5198D1*
X35526D2*
X37269D1*
X32756Y20842D2*
X37269D1*
X32756Y20594D2*
X34030D1*
X34830D2*
X35030D1*
X35830D2*
X36030D1*
X36830D2*
X37269D1*
X32756Y20345D2*
X33878D1*
X36983D2*
X37269D1*
X32756Y20096D2*
X33862D1*
X36998D2*
X37269D1*
X4592Y19847D2*
X5272D1*
X9881D2*
X10140D1*
X32756D2*
X33636D1*
X36885D2*
X37269D1*
X4592Y19599D2*
X5448D1*
X9627D2*
X10140D1*
X32756D2*
X33569D1*
X36822D2*
X37269D1*
X4592Y19350D2*
X5448D1*
X6350D2*
X6561D1*
X32756D2*
X33558D1*
X36983D2*
X37269D1*
X4592Y19101D2*
X5448D1*
X6350D2*
X6561D1*
X32401D2*
X33308D1*
X36998D2*
X37269D1*
X4592Y18853D2*
X5448D1*
X6350D2*
X6561D1*
X32151D2*
X33061D1*
X36889D2*
X37269D1*
X4592Y18604D2*
X5448D1*
X6350D2*
X6561D1*
X32569D2*
X32811D1*
X35819D2*
X36042D1*
X36819D2*
X37269D1*
X4592Y18355D2*
X5448D1*
X6350D2*
X6561D1*
X36979D2*
X37269D1*
X4592Y18107D2*
X5448D1*
X6350D2*
X6561D1*
X33197D2*
X33460D1*
X36998D2*
X37269D1*
X4592Y17858D2*
X5448D1*
X6350D2*
X6561D1*
X32951D2*
X33460D1*
X36893D2*
X37269D1*
X4592Y17609D2*
X5448D1*
X6350D2*
X6561D1*
X32744D2*
X33483D1*
X37006D2*
X37269D1*
X4592Y17361D2*
X5448D1*
X6350D2*
X6561D1*
X32729D2*
X33854D1*
X37006D2*
X37269D1*
X4592Y17112D2*
X5448D1*
X6350D2*
X6561D1*
X32748D2*
X33854D1*
X37006D2*
X37269D1*
X4592Y16863D2*
X4897D1*
X6350D2*
X6561D1*
X37006D2*
X37269D1*
X4592Y16615D2*
X4858D1*
X6350D2*
X6561D1*
X35299D2*
X37269D1*
X4592Y16366D2*
X4858D1*
X6350D2*
X6561D1*
X32725D2*
X33503D1*
X35268D2*
X37269D1*
X4592Y16117D2*
X4858D1*
X6166D2*
X6561D1*
X32752D2*
X33257D1*
X35803D2*
X36058D1*
X36803D2*
X37269D1*
X4592Y15868D2*
X4858D1*
X5830D2*
X6561D1*
X32651D2*
X33007D1*
X36975D2*
X37269D1*
X4592Y15620D2*
X4858D1*
X31658D2*
X31811D1*
X32549D2*
X32757D1*
X37002D2*
X37269D1*
X4592Y15371D2*
X4858D1*
X36904D2*
X37269D1*
X4592Y15122D2*
X4858D1*
X36795D2*
X37269D1*
X4592Y14874D2*
X4858D1*
X36975D2*
X37269D1*
X4592Y14625D2*
X4858D1*
X37002D2*
X37269D1*
X4592Y14376D2*
X4858D1*
X36908D2*
X37269D1*
X4592Y14128D2*
X4858D1*
X36791D2*
X37269D1*
X4592Y13879D2*
X4858D1*
X36791D2*
X37269D1*
X4592Y13630D2*
X4897D1*
X36756D2*
X37269D1*
X4592Y13382D2*
X5515D1*
X36514D2*
X37269D1*
X4592Y13133D2*
X5390D1*
X35779D2*
X36077D1*
X36779D2*
X37269D1*
X4592Y12884D2*
X5358D1*
X36971D2*
X37269D1*
X4592Y12636D2*
X5417D1*
X37002D2*
X37269D1*
X4592Y12387D2*
X5585D1*
X6674D2*
X6882D1*
X7522D2*
X8058D1*
X10006D2*
X10999D1*
X36912D2*
X37269D1*
X4592Y12138D2*
X6882D1*
X7522D2*
X7886D1*
X10006D2*
X10999D1*
X35776D2*
X36085D1*
X36776D2*
X37269D1*
X4592Y11889D2*
X6882D1*
X7522D2*
X7858D1*
X10006D2*
X10999D1*
X36967D2*
X37269D1*
X4592Y11641D2*
X5808D1*
X6451D2*
X6882D1*
X7522D2*
X7956D1*
X10006D2*
X10999D1*
X28088D2*
X28554D1*
X37002D2*
X37269D1*
X4592Y11392D2*
X5499D1*
X7522D2*
X8065D1*
X9795D2*
X10999D1*
X28365D2*
X28554D1*
X36916D2*
X37269D1*
X4592Y11143D2*
X5382D1*
X7522D2*
X7886D1*
X9975D2*
X10999D1*
X30537D2*
X30726D1*
X36768D2*
X37269D1*
X4592Y10895D2*
X5362D1*
X7522D2*
X7858D1*
X10592D2*
X10999D1*
X28451D2*
X30394D1*
X36967D2*
X37269D1*
X4592Y10646D2*
X5425D1*
X10651D2*
X10999D1*
X37002D2*
X37269D1*
X4592Y10397D2*
X5608D1*
X6651D2*
X6882D1*
X10561D2*
X10999D1*
X36920D2*
X37269D1*
X4592Y10149D2*
X7085D1*
X10022D2*
X10769D1*
X36760D2*
X37269D1*
X4592Y9900D2*
X10519D1*
X36963D2*
X37269D1*
X4592Y9651D2*
X5765D1*
X6498D2*
X10335D1*
X37002D2*
X37269D1*
X4592Y9403D2*
X5483D1*
X6776D2*
X9831D1*
X36924D2*
X37269D1*
X4592Y9154D2*
X5378D1*
X6885D2*
X9202D1*
X35752D2*
X36108D1*
X36752D2*
X37269D1*
X4592Y8905D2*
X5362D1*
X6897D2*
X9108D1*
X36963D2*
X37269D1*
X4592Y8657D2*
X5436D1*
X6826D2*
X9108D1*
X37006D2*
X37269D1*
X4592Y8408D2*
X5632D1*
X6627D2*
X9108D1*
X25268D2*
X25479D1*
X32756D2*
X33269D1*
X36928D2*
X37269D1*
X4592Y8159D2*
X9108D1*
X25361D2*
X25729D1*
X29483D2*
X29933D1*
X32678D2*
X33519D1*
X37006D2*
X37269D1*
X4592Y7910D2*
X8854D1*
X25701D2*
X25979D1*
X29233D2*
X29995D1*
X32615D2*
X33769D1*
X37006D2*
X37269D1*
X4592Y7662D2*
X8854D1*
X25951D2*
X29819D1*
X32787D2*
X33854D1*
X37006D2*
X37269D1*
X4592Y7413D2*
X8854D1*
X26197D2*
X29780D1*
X32830D2*
X33854D1*
X37006D2*
X37269D1*
X4592Y7164D2*
X7339D1*
X26447D2*
X29843D1*
X32768D2*
X33854D1*
X35006D2*
X35241D1*
X35619D2*
X35854D1*
X37006D2*
X37269D1*
X4592Y6916D2*
X7292D1*
X25330D2*
X25811D1*
X26697D2*
X26909D1*
X27611D2*
X29991D1*
X32619D2*
X37269D1*
X4592Y6667D2*
X7397D1*
X25557D2*
X26061D1*
X27736D2*
X29819D1*
X32791D2*
X37269D1*
X4592Y6418D2*
X4948D1*
X5912D2*
X8854D1*
X25604D2*
X26311D1*
X27701D2*
X29776D1*
X32834D2*
X35948D1*
X36912D2*
X37269D1*
X6252Y6170D2*
X8925D1*
X25533D2*
X27089D1*
X27432D2*
X29835D1*
X32776D2*
X35608D1*
X6420Y5921D2*
X8854D1*
X10721D2*
X11140D1*
X25322D2*
X29780D1*
X32830D2*
X35436D1*
X6510Y5672D2*
X8854D1*
X25553D2*
X29780D1*
X31080D2*
X31530D1*
X32830D2*
X35351D1*
X6533Y5424D2*
X8854D1*
X17006D2*
X17155D1*
X19307D2*
X19456D1*
X25604D2*
X29780D1*
X31080D2*
X31530D1*
X32830D2*
X35327D1*
X6502Y5175D2*
X8854D1*
X16936D2*
X17222D1*
X19236D2*
X19456D1*
X25537D2*
X29780D1*
X31080D2*
X31530D1*
X32830D2*
X35358D1*
X6404Y4926D2*
X8854D1*
X10006D2*
X10210D1*
X10651D2*
X11210D1*
X11651D2*
X12210D1*
X12651D2*
X13210D1*
X13651D2*
X14210D1*
X14651D2*
X15210D1*
X15651D2*
X16210D1*
X16651D2*
X17507D1*
X17951D2*
X18507D1*
X18951D2*
X19456D1*
X20604D2*
X20808D1*
X21252D2*
X21808D1*
X22252D2*
X22808D1*
X23252D2*
X23808D1*
X24252D2*
X24808D1*
X25252D2*
X29780D1*
X31080D2*
X31530D1*
X32830D2*
X35456D1*
X6221Y4678D2*
X35640D1*
X36746Y8240D2*
X36980D1*
Y7140D1*
X35880D1*
Y7373D1*
X35768Y7256D1*
X35662Y7191D1*
X35544Y7152D1*
X35419Y7140D1*
X35296Y7156D1*
X35179Y7200D1*
X35075Y7269D1*
X34980Y7377D1*
Y7140D1*
X33880D1*
Y7823D1*
X33045Y8655D1*
X32690D1*
X32724Y8522D1*
X32730Y8440D1*
X32716Y8316D1*
X32674Y8199D1*
X32607Y8093D1*
X32518Y8006D1*
X32482Y7984D1*
X32577Y7923D1*
X32665Y7835D1*
X32733Y7730D1*
X32780Y7615D1*
X32805Y7440D1*
X32793Y7316D1*
X32756Y7197D1*
X32696Y7087D1*
X32615Y6992D1*
X32557Y6946D1*
X32629Y6882D1*
X32707Y6785D1*
X32765Y6674D1*
X32800Y6554D1*
X32810Y6430D1*
X32796Y6306D1*
X32757Y6187D1*
X32699Y6084D1*
X32705Y6065D1*
X32805D1*
Y4815D1*
X31555D1*
Y5810D1*
X31051D1*
X31055Y5665D1*
Y4815D1*
X29805D1*
Y6065D1*
X29925D1*
X29845Y6206D1*
X29810Y6326D1*
X29800Y6450D1*
X29814Y6574D1*
X29853Y6693D1*
X29914Y6802D1*
X29996Y6896D1*
X30054Y6942D1*
X29969Y7018D1*
X29894Y7118D1*
X29841Y7231D1*
X29811Y7352D1*
X29806Y7476D1*
X29826Y7600D1*
X29870Y7717D1*
X29936Y7822D1*
X30021Y7913D1*
X30120Y7982D1*
X29990Y8110D1*
X29927Y8218D1*
X29889Y8337D1*
X29885Y8496D1*
X29779Y8481D1*
X29189Y7891D1*
X29081Y7824D1*
X28980Y7805D1*
X26230D1*
X26106Y7833D1*
X26021Y7891D1*
X25405Y8507D1*
X25318Y8443D1*
X25204Y8393D1*
X25122Y8374D1*
X25343Y8154D1*
X25479Y8102D1*
X25695Y7892D1*
X26695Y6895D1*
X26918D1*
X27006Y6978D1*
X27118Y7032D1*
X27241Y7055D1*
X27365Y7043D1*
X27481Y6998D1*
X27581Y6923D1*
X27656Y6824D1*
X27702Y6708D1*
X27715Y6600D1*
X27698Y6477D1*
X27648Y6362D1*
X27569Y6266D1*
X27467Y6195D1*
X27349Y6154D1*
X27225Y6146D1*
X27103Y6173D1*
X26993Y6232D1*
X26917Y6304D1*
X26570Y6305D1*
X26446Y6333D1*
X26361Y6391D1*
X25536Y7217D1*
X25457Y7093D1*
X25368Y7006D1*
X25258Y6940D1*
X25401Y6847D1*
X25483Y6753D1*
X25542Y6643D1*
X25574Y6522D1*
X25580Y6440D1*
X25566Y6316D1*
X25524Y6199D1*
X25457Y6093D1*
X25368Y6006D1*
X25258Y5940D1*
X25342Y5893D1*
X25436Y5811D1*
X25509Y5710D1*
X25558Y5595D1*
X25579Y5472D1*
X25575Y5365D1*
X25544Y5244D1*
X25487Y5134D1*
X25406Y5039D1*
X25306Y4964D1*
X25192Y4914D1*
X25069Y4891D1*
X24945Y4896D1*
X24824Y4930D1*
X24715Y4989D1*
X24621Y5072D1*
X24549Y5173D1*
X24530Y5210D1*
X24473Y5113D1*
X24388Y5022D1*
X24284Y4952D1*
X24168Y4907D1*
X24044Y4890D1*
X23920Y4901D1*
X23802Y4939D1*
X23695Y5004D1*
X23605Y5090D1*
X23537Y5195D1*
X23530Y5210D1*
X23473Y5113D1*
X23388Y5022D1*
X23284Y4952D1*
X23168Y4907D1*
X23044Y4890D1*
X22920Y4901D1*
X22802Y4939D1*
X22695Y5004D1*
X22605Y5090D1*
X22537Y5195D1*
X22530Y5210D1*
X22473Y5113D1*
X22388Y5022D1*
X22284Y4952D1*
X22168Y4907D1*
X22044Y4890D1*
X21920Y4901D1*
X21802Y4939D1*
X21695Y5004D1*
X21605Y5090D1*
X21537Y5195D1*
X21530Y5210D1*
X21473Y5113D1*
X21388Y5022D1*
X21284Y4952D1*
X21168Y4907D1*
X21044Y4890D1*
X20920Y4901D1*
X20802Y4939D1*
X20695Y5004D1*
X20605Y5090D1*
X20580Y5115D1*
Y4890D1*
X19480D1*
Y5581D1*
X19258Y5580D1*
X19274Y5522D1*
X19280Y5440D1*
X19266Y5316D1*
X19224Y5199D1*
X19157Y5093D1*
X19068Y5006D1*
X18962Y4941D1*
X18844Y4902D1*
X18719Y4890D1*
X18596Y4906D1*
X18479Y4950D1*
X18375Y5019D1*
X18290Y5110D1*
X18229Y5214D1*
X18157Y5093D1*
X18068Y5006D1*
X17962Y4941D1*
X17844Y4902D1*
X17719Y4890D1*
X17596Y4906D1*
X17479Y4950D1*
X17375Y5019D1*
X17290Y5110D1*
X17227Y5218D1*
X17189Y5337D1*
X17180Y5461D1*
X17198Y5581D1*
X16961Y5580D1*
X16979Y5472D1*
X16975Y5365D1*
X16944Y5244D1*
X16887Y5134D1*
X16806Y5039D1*
X16706Y4964D1*
X16592Y4914D1*
X16469Y4891D1*
X16345Y4896D1*
X16224Y4930D1*
X16115Y4989D1*
X16021Y5072D1*
X15949Y5173D1*
X15930Y5210D1*
X15873Y5113D1*
X15788Y5022D1*
X15684Y4952D1*
X15568Y4907D1*
X15444Y4890D1*
X15320Y4901D1*
X15202Y4939D1*
X15095Y5004D1*
X15005Y5090D1*
X14937Y5195D1*
X14930Y5210D1*
X14873Y5113D1*
X14788Y5022D1*
X14684Y4952D1*
X14568Y4907D1*
X14444Y4890D1*
X14320Y4901D1*
X14202Y4939D1*
X14095Y5004D1*
X14005Y5090D1*
X13937Y5195D1*
X13930Y5210D1*
X13873Y5113D1*
X13788Y5022D1*
X13684Y4952D1*
X13568Y4907D1*
X13444Y4890D1*
X13320Y4901D1*
X13202Y4939D1*
X13095Y5004D1*
X13005Y5090D1*
X12937Y5195D1*
X12930Y5210D1*
X12873Y5113D1*
X12788Y5022D1*
X12684Y4952D1*
X12568Y4907D1*
X12444Y4890D1*
X12320Y4901D1*
X12202Y4939D1*
X12095Y5004D1*
X12005Y5090D1*
X11937Y5195D1*
X11930Y5210D1*
X11873Y5113D1*
X11788Y5022D1*
X11684Y4952D1*
X11568Y4907D1*
X11444Y4890D1*
X11320Y4901D1*
X11202Y4939D1*
X11095Y5004D1*
X11005Y5090D1*
X10937Y5195D1*
X10930Y5210D1*
X10873Y5113D1*
X10788Y5022D1*
X10684Y4952D1*
X10568Y4907D1*
X10444Y4890D1*
X10320Y4901D1*
X10202Y4939D1*
X10095Y5004D1*
X10005Y5090D1*
X9980Y5115D1*
Y4890D1*
X8880D1*
Y5990D1*
X9113D1*
X8990Y6110D1*
X8927Y6218D1*
X8889Y6337D1*
X8880Y6461D1*
X8899Y6585D1*
X8932Y6668D1*
X8115Y6665D1*
X8079Y6626D1*
X7977Y6555D1*
X7859Y6514D1*
X7735Y6506D1*
X7613Y6533D1*
X7503Y6592D1*
X7413Y6678D1*
X7350Y6785D1*
X7318Y6906D1*
X7320Y7030D1*
X7356Y7150D1*
X7423Y7255D1*
X7516Y7338D1*
X7628Y7392D1*
X7751Y7415D1*
X7875Y7403D1*
X7991Y7358D1*
X8091Y7283D1*
X8112Y7255D1*
X8883D1*
X8880Y7640D1*
Y7990D1*
X9134D1*
X9135Y8940D1*
X9161Y9061D1*
X9235Y9161D1*
X9347Y9222D1*
X9430Y9235D1*
X9856Y9241D1*
Y9514D1*
X10352D1*
X10355Y9590D1*
X10383Y9714D1*
X10441Y9799D1*
X11025Y10385D1*
Y12639D1*
X10445Y12635D1*
X7516Y12636D1*
X7495Y12630D1*
Y10728D1*
X7930Y10725D1*
X7889Y10857D1*
X7880Y10981D1*
X7899Y11105D1*
X7945Y11220D1*
X8016Y11323D1*
X8109Y11407D1*
X8201Y11458D1*
X8075Y11539D1*
X7990Y11630D1*
X7927Y11738D1*
X7889Y11857D1*
X7880Y11981D1*
X7899Y12105D1*
X7945Y12220D1*
X8016Y12323D1*
X8109Y12407D1*
X8218Y12468D1*
X8337Y12502D1*
X8462Y12509D1*
X8585Y12488D1*
X8700Y12440D1*
X8801Y12367D1*
X8880Y12285D1*
Y12510D1*
X9980D1*
Y11410D1*
X9750D1*
X9801Y11367D1*
X9883Y11273D1*
X9942Y11163D1*
X9965Y11076D1*
X10028Y11102D1*
X10151Y11125D1*
X10275Y11113D1*
X10391Y11068D1*
X10491Y10993D1*
X10566Y10894D1*
X10612Y10778D1*
X10625Y10670D1*
X10608Y10547D1*
X10558Y10432D1*
X10479Y10336D1*
X10377Y10265D1*
X10259Y10224D1*
X10116Y10221D1*
X10076Y10186D1*
X9962Y10140D1*
X9660Y10135D1*
X7200D1*
X7079Y10161D1*
X6979Y10235D1*
X6918Y10347D1*
X6905Y10430D1*
X6903Y12760D1*
X6867Y12796D1*
X6827Y12655D1*
X6773Y12543D1*
X6700Y12441D1*
X6612Y12353D1*
X6510Y12281D1*
X6398Y12227D1*
X6278Y12192D1*
X6154Y12177D1*
X6029Y12184D1*
X5907Y12211D1*
X5791Y12258D1*
X5685Y12324D1*
X5591Y12406D1*
X5513Y12503D1*
X5451Y12612D1*
X5409Y12729D1*
X5386Y12852D1*
X5385Y12977D1*
X5404Y13100D1*
X5443Y13219D1*
X5502Y13329D1*
X5578Y13428D1*
X5627Y13477D1*
X5180D1*
X5059Y13503D1*
X4959Y13576D1*
X4898Y13688D1*
X4885Y13772D1*
Y16720D1*
X4911Y16841D1*
X4985Y16941D1*
X5097Y17002D1*
X5180Y17015D1*
X5473D1*
X5475Y19669D1*
X5276Y19874D1*
X5237Y19915D1*
X5117Y19882D1*
X4992Y19877D1*
X4869Y19899D1*
X4754Y19947D1*
X4653Y20020D1*
X4570Y20113D1*
X4565Y20012D1*
Y6086D1*
X4673Y6210D1*
X4767Y6292D1*
X4869Y6363D1*
X4980Y6422D1*
X5096Y6467D1*
X5217Y6499D1*
X5341Y6516D1*
X5466Y6519D1*
X5590Y6508D1*
X5712Y6482D1*
X5831Y6443D1*
X5944Y6390D1*
X6050Y6324D1*
X6148Y6247D1*
X6236Y6158D1*
X6314Y6060D1*
X6380Y5954D1*
X6433Y5841D1*
X6472Y5723D1*
X6498Y5600D1*
X6510Y5440D1*
X6503Y5315D1*
X6481Y5192D1*
X6446Y5072D1*
X6396Y4958D1*
X6334Y4849D1*
X6260Y4749D1*
X6175Y4658D1*
X6063Y4566D1*
X35797Y4565D1*
X35699Y4645D1*
X35612Y4735D1*
X35536Y4834D1*
X35472Y4942D1*
X35421Y5056D1*
X35383Y5175D1*
X35359Y5297D1*
X35350Y5422D1*
X35355Y5547D1*
X35375Y5670D1*
X35408Y5791D1*
X35456Y5906D1*
X35516Y6016D1*
X35589Y6117D1*
X35673Y6210D1*
X35767Y6292D1*
X35869Y6363D1*
X35980Y6422D1*
X36096Y6467D1*
X36217Y6499D1*
X36341Y6516D1*
X36466Y6519D1*
X36590Y6508D1*
X36712Y6482D1*
X36831Y6443D1*
X36944Y6390D1*
X37050Y6324D1*
X37148Y6247D1*
X37236Y6158D1*
X37297Y6082D1*
X37295Y7723D1*
Y28297D1*
X37175Y28158D1*
X37079Y28077D1*
X36975Y28008D1*
X36864Y27951D1*
X36747Y27907D1*
X36625Y27878D1*
X36501Y27862D1*
X36376Y27861D1*
X36252Y27875D1*
X36130Y27902D1*
X36013Y27944D1*
X35900Y27999D1*
X35795Y28066D1*
X35699Y28145D1*
X35612Y28235D1*
X35536Y28334D1*
X35472Y28442D1*
X35421Y28556D1*
X35383Y28675D1*
X35359Y28797D1*
X35350Y28922D1*
X35355Y29047D1*
X35375Y29170D1*
X35408Y29291D1*
X35456Y29406D1*
X35516Y29516D1*
X35589Y29617D1*
X35673Y29710D1*
X35762Y29795D1*
X25071Y29793D1*
X25092Y29765D1*
X25234Y29737D1*
X25319Y29679D1*
X25686Y29311D1*
X25825Y29303D1*
X25941Y29258D1*
X26041Y29183D1*
X26116Y29084D1*
X26162Y28968D1*
X26175Y28860D1*
X26156Y28733D1*
X26650Y28735D1*
X26774Y28707D1*
X26859Y28649D1*
X27415Y28095D1*
X30020Y28097D1*
X30277Y28354D1*
X30320Y28494D1*
X30405Y28584D1*
X30520Y28630D1*
X30822Y28635D1*
X31201D1*
X31316Y28748D1*
X31428Y28802D1*
X31551Y28825D1*
X31675Y28813D1*
X31791Y28768D1*
X31891Y28693D1*
X31966Y28594D1*
X32012Y28478D1*
X32025Y28370D1*
X32020Y28335D1*
X33120D1*
X33244Y28307D1*
X33329Y28249D1*
X33909Y27669D1*
X33976Y27561D1*
X33995Y27460D1*
X33997Y27040D1*
X34309Y26728D1*
X34462Y26739D1*
X34585Y26718D1*
X34700Y26670D1*
X34801Y26597D1*
X34883Y26503D1*
X34929Y26417D1*
X35016Y26553D1*
X35109Y26637D1*
X35218Y26698D1*
X35337Y26732D1*
X35462Y26739D1*
X35585Y26718D1*
X35675Y26680D1*
X35673Y26760D1*
X35155Y27275D1*
X34995D1*
X34959Y27236D1*
X34857Y27165D1*
X34739Y27124D1*
X34615Y27116D1*
X34493Y27143D1*
X34383Y27202D1*
X34293Y27288D1*
X34230Y27395D1*
X34198Y27516D1*
X34200Y27640D1*
X34236Y27760D1*
X34303Y27865D1*
X34396Y27948D1*
X34508Y28002D1*
X34631Y28025D1*
X34755Y28013D1*
X34871Y27968D1*
X34971Y27893D1*
X34992Y27865D1*
X35280D1*
X35404Y27837D1*
X35489Y27779D1*
X36179Y27089D1*
X36246Y26981D1*
X36265Y26880D1*
Y26712D1*
X36337Y26732D1*
X36462Y26739D1*
X36585Y26718D1*
X36700Y26670D1*
X36801Y26597D1*
X36883Y26503D1*
X36942Y26393D1*
X36974Y26272D1*
X36980Y26165D1*
X36960Y26042D1*
X36913Y25926D1*
X36841Y25824D1*
X36748Y25741D1*
X36660Y25690D1*
X36762Y25629D1*
X36853Y25542D1*
X36921Y25438D1*
X36964Y25321D1*
X36980Y25197D1*
X36971Y25091D1*
X36935Y24971D1*
X36873Y24863D1*
X36788Y24772D1*
X36684Y24702D1*
X36660Y24690D1*
X36762Y24629D1*
X36853Y24542D1*
X36921Y24438D1*
X36964Y24321D1*
X36980Y24197D1*
X36971Y24091D1*
X36935Y23971D1*
X36873Y23863D1*
X36788Y23772D1*
X36684Y23702D1*
X36660Y23690D1*
X36762Y23629D1*
X36853Y23542D1*
X36921Y23438D1*
X36964Y23321D1*
X36980Y23197D1*
X36971Y23091D1*
X36935Y22971D1*
X36873Y22863D1*
X36788Y22772D1*
X36755Y22740D1*
X36980D1*
Y21640D1*
X35884D1*
X35885Y21540D1*
X35868Y21417D1*
X35818Y21302D1*
X35739Y21206D1*
X35637Y21135D1*
X35484Y21088D1*
X34805Y21085D1*
X32960D1*
X32836Y21102D1*
X32758Y21132D1*
X32730Y21115D1*
X32726Y20140D1*
X32730Y19760D1*
Y19140D1*
X32414D1*
X31973Y18698D1*
X32063Y18728D1*
X32187Y18740D1*
X32311Y18725D1*
X32428Y18681D1*
X32532Y18613D1*
X32618Y18523D1*
X32671Y18437D1*
X33595Y19365D1*
Y19660D1*
X33621Y19781D1*
X33695Y19881D1*
X33807Y19942D1*
X33890Y19955D1*
X33933D1*
X33889Y20087D1*
X33880Y20211D1*
X33899Y20335D1*
X33945Y20450D1*
X34016Y20553D1*
X34109Y20637D1*
X34218Y20698D1*
X34337Y20732D1*
X34462Y20739D1*
X34585Y20718D1*
X34700Y20670D1*
X34801Y20597D1*
X34883Y20503D1*
X34929Y20417D1*
X35016Y20553D1*
X35109Y20637D1*
X35218Y20698D1*
X35337Y20732D1*
X35462Y20739D1*
X35585Y20718D1*
X35700Y20670D1*
X35801Y20597D1*
X35883Y20503D1*
X35929Y20417D1*
X35985Y20514D1*
X36069Y20606D1*
X36172Y20676D1*
X36288Y20722D1*
X36412Y20740D1*
X36536Y20730D1*
X36655Y20692D1*
X36762Y20629D1*
X36853Y20542D1*
X36921Y20438D1*
X36964Y20321D1*
X36980Y20197D1*
X36971Y20091D1*
X36935Y19971D1*
X36873Y19863D1*
X36788Y19772D1*
X36684Y19702D1*
X36660Y19690D1*
X36762Y19629D1*
X36853Y19542D1*
X36921Y19438D1*
X36964Y19321D1*
X36980Y19197D1*
X36971Y19091D1*
X36935Y18971D1*
X36873Y18863D1*
X36788Y18772D1*
X36684Y18702D1*
X36660Y18690D1*
X36762Y18629D1*
X36853Y18542D1*
X36921Y18438D1*
X36964Y18321D1*
X36980Y18197D1*
X36971Y18091D1*
X36935Y17971D1*
X36873Y17863D1*
X36788Y17772D1*
X36755Y17740D1*
X36980D1*
Y16640D1*
X35880D1*
Y16873D1*
X35768Y16756D1*
X35662Y16691D1*
X35544Y16652D1*
X35419Y16640D1*
X35278Y16663D1*
X35275Y16500D1*
X35249Y16379D1*
X35175Y16279D1*
X35063Y16218D1*
X35030Y16209D1*
X34980Y16115D1*
Y16010D1*
X35109Y16137D1*
X35218Y16198D1*
X35337Y16232D1*
X35462Y16239D1*
X35585Y16218D1*
X35700Y16170D1*
X35801Y16097D1*
X35883Y16003D1*
X35929Y15917D1*
X36016Y16053D1*
X36109Y16137D1*
X36218Y16198D1*
X36337Y16232D1*
X36462Y16239D1*
X36585Y16218D1*
X36700Y16170D1*
X36801Y16097D1*
X36883Y16003D1*
X36942Y15893D1*
X36974Y15772D1*
X36980Y15690D1*
X36966Y15566D1*
X36924Y15449D1*
X36857Y15343D1*
X36768Y15256D1*
X36658Y15190D1*
X36801Y15097D1*
X36883Y15003D1*
X36942Y14893D1*
X36974Y14772D1*
X36980Y14690D1*
X36966Y14566D1*
X36924Y14449D1*
X36857Y14343D1*
X36765Y14254D1*
Y13800D1*
X36748Y13677D1*
X36698Y13562D1*
X36619Y13466D1*
X36517Y13395D1*
X36364Y13348D1*
X35685Y13345D1*
X35103D1*
X35136Y13247D1*
X35140Y13160D1*
X35218Y13198D1*
X35337Y13232D1*
X35462Y13239D1*
X35585Y13218D1*
X35700Y13170D1*
X35801Y13097D1*
X35883Y13003D1*
X35929Y12917D1*
X35985Y13014D1*
X36069Y13106D1*
X36172Y13176D1*
X36288Y13222D1*
X36412Y13240D1*
X36536Y13230D1*
X36655Y13192D1*
X36762Y13129D1*
X36853Y13042D1*
X36921Y12938D1*
X36964Y12821D1*
X36980Y12697D1*
X36971Y12591D1*
X36935Y12471D1*
X36873Y12363D1*
X36788Y12272D1*
X36684Y12202D1*
X36660Y12190D1*
X36762Y12129D1*
X36853Y12042D1*
X36921Y11938D1*
X36964Y11821D1*
X36980Y11697D1*
X36971Y11591D1*
X36935Y11471D1*
X36873Y11363D1*
X36788Y11272D1*
X36684Y11202D1*
X36660Y11190D1*
X36762Y11129D1*
X36853Y11042D1*
X36921Y10938D1*
X36964Y10821D1*
X36980Y10697D1*
X36971Y10591D1*
X36935Y10471D1*
X36873Y10363D1*
X36788Y10272D1*
X36684Y10202D1*
X36660Y10190D1*
X36762Y10129D1*
X36853Y10042D1*
X36921Y9938D1*
X36964Y9821D1*
X36980Y9697D1*
X36971Y9591D1*
X36935Y9471D1*
X36873Y9363D1*
X36788Y9272D1*
X36684Y9202D1*
X36660Y9190D1*
X36762Y9129D1*
X36853Y9042D1*
X36921Y8938D1*
X36964Y8821D1*
X36980Y8697D1*
X36971Y8591D1*
X36935Y8471D1*
X36873Y8363D1*
X36788Y8272D1*
X36746Y8240D1*
X35930Y8919D2*
X35985Y9014D1*
X36069Y9106D1*
X36172Y9176D1*
X36201Y9190D1*
X36115Y9239D1*
X36021Y9322D1*
X35949Y9423D1*
X35930Y9460D1*
X35857Y9343D1*
X35768Y9256D1*
X35658Y9190D1*
X35801Y9097D1*
X35883Y9003D1*
X35929Y8917D1*
X35930Y11919D2*
X35985Y12014D1*
X36069Y12106D1*
X36172Y12176D1*
X36201Y12190D1*
X36115Y12239D1*
X36021Y12322D1*
X35949Y12423D1*
X35930Y12460D1*
X35857Y12343D1*
X35768Y12256D1*
X35658Y12190D1*
X35801Y12097D1*
X35883Y12003D1*
X35929Y11917D1*
X35930Y23419D2*
X35985Y23514D1*
X36069Y23606D1*
X36172Y23676D1*
X36201Y23690D1*
X36115Y23739D1*
X36021Y23822D1*
X35949Y23923D1*
X35930Y23960D1*
X35885Y23886D1*
Y23499D1*
X35930Y24419D2*
X35985Y24514D1*
X36069Y24606D1*
X36172Y24676D1*
X36201Y24690D1*
X36115Y24739D1*
X36021Y24822D1*
X35949Y24923D1*
X35930Y24960D1*
X35885Y24886D1*
Y24499D1*
X34005Y22740D2*
X34110D1*
X33990Y22860D1*
X33927Y22968D1*
X33889Y23087D1*
X33880Y23211D1*
X33895Y23308D1*
X32704Y24498D1*
X32637Y24606D1*
X32618Y24707D1*
Y24859D1*
X32556Y24789D1*
X32456Y24714D1*
X32410Y24690D1*
X32512Y24629D1*
X32603Y24542D1*
X32671Y24438D1*
X32714Y24321D1*
X32730Y24197D1*
X32721Y24091D1*
X32685Y23971D1*
X32623Y23863D1*
X32538Y23772D1*
X32434Y23702D1*
X32410Y23690D1*
X32512Y23629D1*
X32603Y23542D1*
X32671Y23438D1*
X32714Y23321D1*
X32730Y23197D1*
X32721Y23091D1*
X32685Y22971D1*
X32623Y22863D1*
X32538Y22772D1*
X32505Y22740D1*
X32730D1*
Y22374D1*
X32794Y22402D1*
X32880Y22415D1*
X33030Y22409D1*
X33089Y22390D1*
X33720Y22385D1*
X33880Y22390D1*
Y22740D1*
X34005D1*
X35930Y18419D2*
X35985Y18514D1*
X36069Y18606D1*
X36172Y18676D1*
X36201Y18690D1*
X36115Y18739D1*
X36021Y18822D1*
X35949Y18923D1*
X35930Y18960D1*
X35857Y18843D1*
X35768Y18756D1*
X35658Y18690D1*
X35801Y18597D1*
X35883Y18503D1*
X35929Y18417D1*
X31680Y15419D2*
X31735Y15514D1*
X31819Y15606D1*
X31922Y15676D1*
X31951Y15690D1*
X31865Y15739D1*
X31771Y15822D1*
X31699Y15923D1*
X31680Y15960D1*
X31635Y15886D1*
Y15499D1*
X32410Y15690D2*
X32512Y15629D1*
X32603Y15542D1*
X32646Y15482D1*
X33635Y16475D1*
X33288Y16469D1*
X33213Y16442D1*
X33150Y16435D1*
X32706Y16436D1*
X32682Y16416D1*
X32720Y16297D1*
X32730Y16190D1*
X32716Y16066D1*
X32674Y15949D1*
X32607Y15843D1*
X32518Y15756D1*
X32410Y15690D1*
X32730Y17165D2*
X32711Y17044D1*
X32835Y17025D1*
X33012Y17031D1*
X33087Y17058D1*
X33150Y17065D1*
X33880D1*
Y17425D1*
X33780D1*
X33659Y17451D1*
X33559Y17525D1*
X33498Y17637D1*
X33485Y17720D1*
X33480Y18413D1*
X32744Y17671D1*
X32713Y17598D1*
X32663Y17536D1*
X32631Y17510D1*
X32692Y17393D1*
X32724Y17272D1*
X32730Y17165D1*
X10660Y5940D2*
X10762Y5879D1*
X10853Y5792D1*
X10921Y5688D1*
X10930Y5669D1*
X10985Y5764D1*
X11069Y5856D1*
X11172Y5926D1*
X11201Y5940D1*
X11075Y6019D1*
X10990Y6110D1*
X10929Y6214D1*
X10857Y6093D1*
X10768Y6006D1*
X10658Y5940D1*
X31642Y21640D2*
X31630D1*
Y21873D1*
X31518Y21756D1*
X31412Y21691D1*
X31294Y21652D1*
X31169Y21640D1*
X31046Y21656D1*
X30929Y21700D1*
X30825Y21769D1*
X30730Y21877D1*
Y21640D1*
X29630D1*
Y22740D1*
X29860D1*
X29740Y22860D1*
X29677Y22968D1*
X29639Y23087D1*
X29630Y23211D1*
X29653Y23345D1*
X29515Y23485D1*
X29152D1*
X29155Y23440D1*
X29138Y23317D1*
X29088Y23202D1*
X29009Y23106D1*
X28907Y23035D1*
X28789Y22994D1*
X28665Y22986D1*
X28543Y23013D1*
X28433Y23072D1*
X28368Y23134D1*
X28365Y22455D1*
Y22146D1*
X28471Y22165D1*
X28595Y22153D1*
X28711Y22108D1*
X28811Y22033D1*
X28886Y21934D1*
X28932Y21818D1*
X28945Y21710D1*
X28940Y21675D1*
X29075Y21545D1*
X31550Y21547D1*
X31641Y21638D1*
X31680Y23419D2*
X31735Y23514D1*
X31819Y23606D1*
X31922Y23676D1*
X31951Y23690D1*
X31865Y23739D1*
X31771Y23822D1*
X31699Y23923D1*
X31680Y23960D1*
X31635Y23886D1*
Y23499D1*
X31680Y24419D2*
X31735Y24514D1*
X31819Y24606D1*
X31922Y24676D1*
X31951Y24690D1*
X31865Y24739D1*
X31771Y24822D1*
X31699Y24923D1*
X31680Y24960D1*
X31635Y24886D1*
Y24499D1*
X29680Y11227D2*
Y10990D1*
X28580D1*
Y11822D1*
X28105Y11825D1*
X28029Y11801D1*
X28052Y11728D1*
X28065Y11620D1*
X28057Y11562D1*
X28217Y11498D1*
X28314Y11420D1*
X28390Y11321D1*
X28439Y11207D1*
X28458Y11070D1*
X28442Y10946D1*
X28397Y10830D1*
X28324Y10729D1*
X28285Y10697D1*
X30222Y10695D1*
X30571Y11049D1*
X30679Y11116D1*
X30730Y11131D1*
X30629Y11314D1*
X30601Y11255D1*
X30524Y11156D1*
X30428Y11077D1*
X30316Y11022D1*
X30194Y10993D1*
X30069D1*
X29948Y11021D1*
X29836Y11075D1*
X29738Y11153D1*
X29680Y11223D1*
X5809Y15640D2*
X6582D1*
X6585Y16290D1*
X6583Y19416D1*
X6326Y19673D1*
X6325Y16390D1*
X6299Y16269D1*
X6225Y16169D1*
X6113Y16108D1*
X6030Y16095D1*
X5807D1*
X5805Y15636D1*
X6867Y10831D2*
X6836Y10710D1*
X6785Y10596D1*
X6716Y10492D1*
X6631Y10401D1*
X6531Y10326D1*
X6421Y10267D1*
X6302Y10229D1*
X6179Y10210D1*
X6054Y10213D1*
X5931Y10236D1*
X5814Y10279D1*
X5706Y10341D1*
X5609Y10420D1*
X5527Y10514D1*
X5462Y10621D1*
X5416Y10737D1*
X5389Y10859D1*
X5383Y10984D1*
X5398Y11108D1*
X5434Y11227D1*
X5489Y11339D1*
X5562Y11441D1*
X5650Y11529D1*
X5752Y11600D1*
X5865Y11654D1*
X5985Y11689D1*
X6109Y11703D1*
X6234Y11696D1*
X6356Y11668D1*
X6471Y11620D1*
X6577Y11554D1*
X6670Y11472D1*
X6749Y11374D1*
X6810Y11265D1*
X6852Y11148D1*
X6877Y10956D1*
X6867Y10831D1*
X6877Y8962D2*
X6862Y8838D1*
X6827Y8718D1*
X6773Y8606D1*
X6700Y8504D1*
X6612Y8416D1*
X6510Y8344D1*
X6398Y8290D1*
X6278Y8255D1*
X6154Y8240D1*
X6029Y8247D1*
X5907Y8274D1*
X5791Y8321D1*
X5685Y8387D1*
X5591Y8469D1*
X5513Y8566D1*
X5451Y8675D1*
X5409Y8792D1*
X5386Y8915D1*
X5385Y9040D1*
X5404Y9163D1*
X5443Y9282D1*
X5502Y9392D1*
X5578Y9491D1*
X5670Y9576D1*
X5774Y9644D1*
X5889Y9694D1*
X6010Y9725D1*
X6134Y9734D1*
X6259Y9723D1*
X6379Y9692D1*
X6493Y9640D1*
X6597Y9571D1*
X6687Y9485D1*
X6763Y9385D1*
X6820Y9274D1*
X6858Y9155D1*
X6876Y9032D1*
X6877Y8962D1*
X16004Y28096D2*
Y27885D1*
X16896Y26991D1*
X16994Y27004D1*
X17119Y26998D1*
X17239Y26965D1*
X17349Y26906D1*
X17443Y26825D1*
X17529Y26700D1*
X17571Y26769D1*
X17654Y26862D1*
X17756Y26934D1*
X17871Y26982D1*
X17994Y27004D1*
X18119Y26998D1*
X18239Y26965D1*
X18349Y26906D1*
X18443Y26825D1*
X18518Y26724D1*
X18557Y26635D1*
X18586Y26730D1*
X18653Y26835D1*
X18746Y26918D1*
X18858Y26972D1*
X18981Y26995D1*
X19105Y26983D1*
X19221Y26938D1*
X19321Y26863D1*
X19396Y26764D1*
X19442Y26648D1*
X19455Y26540D1*
X19438Y26417D1*
X19388Y26302D1*
X19321Y26221D1*
X19465Y26145D1*
X19740Y26147D1*
X20001Y26419D1*
X20801Y27219D1*
X20909Y27286D1*
X21010Y27305D1*
X22590D1*
X22711Y27279D1*
X22811Y27205D1*
X22872Y27093D1*
X22885Y27010D1*
X22887Y26900D1*
X22956Y26831D1*
X23023Y26945D1*
X23116Y27028D1*
X23228Y27082D1*
X23351Y27105D1*
X23397Y27106D1*
X23500Y27125D1*
X25690D1*
X25814Y27097D1*
X25899Y27039D1*
X26355Y26585D1*
X29400Y26587D1*
X29671Y26859D1*
X29779Y26926D1*
X29880Y26945D1*
X31587D1*
Y27120D1*
X31613Y27241D1*
X31687Y27341D1*
X31799Y27402D1*
X31882Y27415D1*
X32457D1*
X32345Y27525D1*
X31220Y27523D1*
X30839Y27141D1*
X30731Y27074D1*
X30630Y27055D1*
X29440Y27053D1*
X29289Y26901D1*
X29181Y26834D1*
X29080Y26815D1*
X27310D1*
X27186Y26843D1*
X27101Y26901D1*
X27010Y26993D1*
X26979Y26956D1*
X26877Y26885D1*
X26759Y26844D1*
X26635Y26836D1*
X26513Y26863D1*
X26403Y26922D1*
X26313Y27008D1*
X26281Y27048D1*
X26065Y27258D1*
X25775Y27545D1*
X25410D1*
X25286Y27573D1*
X25201Y27631D1*
X25005Y27828D1*
X25004Y27366D1*
X23856D1*
Y27558D1*
X23800Y27501D1*
X23696Y27431D1*
X23580Y27386D1*
X23456Y27367D1*
X23332Y27375D1*
X23212Y27409D1*
X23103Y27469D1*
X23008Y27551D1*
X22929Y27662D1*
X22886Y27591D1*
X22800Y27501D1*
X22696Y27431D1*
X22580Y27386D1*
X22456Y27367D1*
X22332Y27375D1*
X22212Y27409D1*
X22103Y27469D1*
X22008Y27551D1*
X21929Y27662D1*
X21886Y27591D1*
X21800Y27501D1*
X21696Y27431D1*
X21580Y27386D1*
X21456Y27367D1*
X21332Y27375D1*
X21212Y27409D1*
X21103Y27469D1*
X21008Y27551D1*
X20929Y27662D1*
X20886Y27591D1*
X20800Y27501D1*
X20696Y27431D1*
X20580Y27386D1*
X20456Y27367D1*
X20332Y27375D1*
X20212Y27409D1*
X20103Y27469D1*
X20008Y27551D1*
X19929Y27662D1*
X19886Y27591D1*
X19800Y27501D1*
X19696Y27431D1*
X19580Y27386D1*
X19456Y27367D1*
X19332Y27375D1*
X19212Y27409D1*
X19103Y27469D1*
X19008Y27551D1*
X18934Y27651D1*
X18927Y27653D1*
X18854Y27553D1*
X18760Y27470D1*
X18651Y27410D1*
X18531Y27375D1*
X18406Y27367D1*
X18283Y27385D1*
X18167Y27430D1*
X18063Y27499D1*
X17976Y27589D1*
X17930Y27658D1*
X17886Y27591D1*
X17800Y27501D1*
X17696Y27431D1*
X17580Y27386D1*
X17456Y27367D1*
X17332Y27375D1*
X17212Y27409D1*
X17103Y27469D1*
X17008Y27551D1*
X16934Y27651D1*
X16883Y27765D1*
X16859Y27887D1*
X16861Y28012D1*
X16880Y28091D1*
X16480Y28095D1*
X16007D1*
X7405Y28441D2*
X7275Y28519D1*
X7190Y28610D1*
X7127Y28718D1*
X7089Y28837D1*
X7080Y28961D1*
X7099Y29085D1*
X7145Y29200D1*
X7216Y29303D1*
X7309Y29387D1*
X7418Y29448D1*
X7537Y29482D1*
X7662Y29489D1*
X7785Y29468D1*
X7853Y29439D1*
X7921Y29539D1*
X8041Y29659D1*
X8135Y29721D1*
X8250Y29745D1*
X15889D1*
X16010Y29719D1*
X16110Y29645D1*
X16171Y29533D1*
X16184Y29450D1*
Y29141D1*
X16557Y29145D1*
X16560Y29240D1*
X16596Y29360D1*
X16663Y29465D1*
X16756Y29548D1*
X16868Y29602D1*
X16991Y29625D1*
X17115Y29613D1*
X17231Y29568D1*
X17331Y29493D1*
X17380Y29428D1*
X18720Y29425D1*
X24294D1*
X24300Y29540D1*
X24336Y29660D1*
X24403Y29765D1*
X24435Y29793D1*
X20512Y29795D1*
X6086D1*
X6236Y29658D1*
X6314Y29560D1*
X6380Y29454D1*
X6433Y29341D1*
X6472Y29223D1*
X6498Y29100D1*
X6510Y28940D1*
X6503Y28815D1*
X6481Y28692D1*
X6446Y28572D1*
X6396Y28458D1*
X6334Y28349D1*
X6260Y28249D1*
X6175Y28158D1*
X6079Y28077D1*
X5975Y28008D1*
X5864Y27951D1*
X5747Y27907D1*
X5625Y27878D1*
X5501Y27862D1*
X5376Y27861D1*
X5252Y27875D1*
X5130Y27902D1*
X5013Y27944D1*
X4900Y27999D1*
X4795Y28066D1*
X4699Y28145D1*
X4567Y28294D1*
X4565Y26758D1*
X4654Y26862D1*
X4756Y26934D1*
X4871Y26982D1*
X4994Y27004D1*
X5119Y26998D1*
X5239Y26965D1*
X5349Y26906D1*
X5443Y26825D1*
X5529Y26700D1*
X5586Y26789D1*
X5673Y26878D1*
X5778Y26945D1*
X5895Y26988D1*
X6019Y27005D1*
X6143Y26993D1*
X6262Y26955D1*
X6369Y26891D1*
X6460Y26806D1*
X6530Y26702D1*
X6571Y26769D1*
X6654Y26862D1*
X6756Y26934D1*
X6871Y26982D1*
X6994Y27004D1*
X7119Y26998D1*
X7239Y26965D1*
X7352Y26903D1*
X7538Y27095D1*
X7835Y27395D1*
Y27430D1*
X7744Y27402D1*
X7619Y27390D1*
X7496Y27406D1*
X7379Y27450D1*
X7275Y27519D1*
X7190Y27610D1*
X7127Y27718D1*
X7089Y27837D1*
X7080Y27961D1*
X7099Y28085D1*
X7145Y28200D1*
X7216Y28303D1*
X7309Y28387D1*
X7401Y28438D1*
X9927Y19281D2*
X10129Y19480D1*
X10165Y19565D1*
Y19889D1*
X10042Y19875D1*
X9899Y19893D1*
X9629Y19622D1*
X9521Y19554D1*
X9513Y19537D1*
X9621Y19532D1*
X9692Y19507D1*
X9752Y19462D1*
X9930Y19284D1*
X4565Y20760D2*
X4636Y20845D1*
X4734Y20921D1*
X4847Y20974D1*
X4969Y21001D1*
X5094D1*
X5215Y20973D1*
X5225Y20970D1*
Y21240D1*
X5251Y21361D1*
X5325Y21461D1*
X5437Y21522D1*
X5520Y21535D1*
X6915D1*
X6916Y24324D1*
X6922Y24378D1*
X6908Y24496D1*
X6910Y24620D1*
X6946Y24740D1*
X7013Y24845D1*
X7106Y24928D1*
X7218Y24982D1*
X7341Y25005D1*
X7465Y24993D1*
X7581Y24948D1*
X7634Y24908D1*
X7635Y25040D1*
X7601Y25073D1*
X7531Y25177D1*
X7485Y25293D1*
X7466Y25416D1*
X7474Y25540D1*
X7500Y25626D1*
X7449Y25641D1*
X7349Y25715D1*
X7288Y25827D1*
X7275Y25930D1*
X7166Y25892D1*
X7042Y25875D1*
X6918Y25887D1*
X6799Y25925D1*
X6692Y25988D1*
X6601Y26073D1*
X6529Y26176D1*
X6459Y26073D1*
X6368Y25987D1*
X6292Y25940D1*
X6349Y25906D1*
X6443Y25825D1*
X6518Y25724D1*
X6568Y25610D1*
X6595Y25440D1*
X6581Y25316D1*
X6540Y25198D1*
X6475Y25092D1*
X6387Y25003D1*
X6283Y24935D1*
X6166Y24892D1*
X6042Y24875D1*
X5918Y24887D1*
X5799Y24925D1*
X5692Y24988D1*
X5601Y25073D1*
X5531Y25177D1*
X5485Y25293D1*
X5466Y25416D1*
X5474Y25540D1*
X5510Y25660D1*
X5571Y25769D1*
X5654Y25862D1*
X5767Y25938D1*
X5653Y26020D1*
X5570Y26113D1*
X5530Y26177D1*
X5475Y26092D1*
X5387Y26003D1*
X5283Y25935D1*
X5166Y25892D1*
X5042Y25875D1*
X4918Y25887D1*
X4799Y25925D1*
X4692Y25988D1*
X4601Y26073D1*
X4563Y26128D1*
X4565Y20758D1*
X36430Y7690D2*
D27*
X36980Y7140D1*
Y8240D2*
X35880Y7140D1*
X36041Y9079D2*
X36819Y8301D1*
Y9079D2*
X36430Y8690D1*
Y9690D2*
X36819Y9301D1*
Y10079D2*
X36041Y9301D1*
X36430Y10690D2*
X36819Y10301D1*
Y11079D2*
X36430Y10690D1*
X36041Y12079D2*
X36819Y11301D1*
Y12079D2*
X36430Y11690D1*
X36041Y13079D2*
X36819Y12301D1*
Y13079D2*
X36041Y12301D1*
X36430Y22190D2*
X36980Y21640D1*
Y22740D2*
X35880Y21640D1*
X36041Y23579D2*
X36819Y22801D1*
Y23579D2*
X36430Y23190D1*
X36041Y24579D2*
X36819Y23801D1*
Y24579D2*
X36041Y23801D1*
X36430Y25190D2*
X36819Y24801D1*
Y25579D2*
X36041Y24801D1*
X36430Y26190D2*
X36819Y25801D1*
Y26579D2*
X36430Y26190D1*
Y17190D2*
X36980Y16640D1*
Y17740D2*
X35880Y16640D1*
X36041Y18579D2*
X36819Y17801D1*
Y18579D2*
X36430Y18190D1*
Y19190D2*
X36819Y18801D1*
Y19579D2*
X36041Y18801D1*
Y20579D2*
X36819Y19801D1*
Y20579D2*
X36430Y20190D1*
X31791Y15579D2*
X32180Y15190D1*
X32569Y15579D2*
X32180Y15190D1*
Y16190D2*
X32569Y15801D1*
X32180Y16190D2*
X31791Y15801D1*
X32569Y17579D2*
X32180Y17190D1*
X32569Y18579D2*
X32180Y18190D1*
X8880Y5990D2*
X9980Y4890D1*
X9430Y5440D2*
X8880Y4890D1*
X10430Y5440D2*
X10819Y5051D1*
Y5829D2*
X10041Y5051D1*
X11041Y5829D2*
X11819Y5051D1*
X11430Y5440D2*
X11041Y5051D1*
X12430Y5440D2*
X12819Y5051D1*
X12430Y5440D2*
X12041Y5051D1*
X13430Y5440D2*
X13819Y5051D1*
X13430Y5440D2*
X13041Y5051D1*
X14430Y5440D2*
X14819Y5051D1*
X14430Y5440D2*
X14041Y5051D1*
X15430Y5440D2*
X15819Y5051D1*
X15430Y5440D2*
X15041Y5051D1*
X16430Y5440D2*
X16819Y5051D1*
X16430Y5440D2*
X16041Y5051D1*
X20030Y5440D2*
X20580Y4890D1*
X20030Y5440D2*
X19480Y4890D1*
X21030Y5440D2*
X21419Y5051D1*
X21030Y5440D2*
X20641Y5051D1*
X22030Y5440D2*
X22419Y5051D1*
X22030Y5440D2*
X21641Y5051D1*
X23030Y5440D2*
X23419Y5051D1*
X23030Y5440D2*
X22641Y5051D1*
X24030Y5440D2*
X24419Y5051D1*
X24030Y5440D2*
X23641Y5051D1*
X25030Y5440D2*
X25419Y5051D1*
Y5829D2*
X24641Y5051D1*
X32730Y22740D2*
X31630Y21640D1*
X31791Y23579D2*
X32569Y22801D1*
Y23579D2*
X32180Y23190D1*
X31791Y24579D2*
X32569Y23801D1*
Y24579D2*
X31791Y23801D1*
X32180Y25190D2*
X32569Y24801D1*
X32180Y25190D2*
X31791Y24801D1*
X30130Y11540D2*
X30519Y11151D1*
X30130Y11540D2*
X29741Y11151D1*
X5602Y13452D2*
X6658Y12396D1*
X6130Y12924D2*
X5602Y12396D1*
Y9515D2*
X6658Y8459D1*
Y9515D2*
X5602Y8459D1*
X19430Y27940D2*
X19835Y27535D1*
X19430Y27940D2*
X19025Y27535D1*
X18430Y27940D2*
X18835Y27535D1*
X18430Y27940D2*
X18025Y27535D1*
X25030Y8940D2*
X25435Y8535D1*
X29805Y6065D2*
X31055Y4815D1*
X30430Y5440D2*
X29805Y4815D1*
X32180Y5440D2*
X32805Y4815D1*
Y6065D2*
X31555Y4815D1*
X9852Y19362D2*
X9430Y18940D1*
X4631Y20839D2*
X5030Y20440D1*
X4631Y20041D1*
X5631Y26839D2*
X6429Y26041D1*
Y26839D2*
X5631Y26041D1*
D33*
X36430Y7690D3*
D34*
X35430D3*
X36430Y8690D3*
X35430D3*
X36430Y9690D3*
X35430D3*
X36430Y10690D3*
X35430D3*
X36430Y11690D3*
X35430D3*
X36430Y12690D3*
X35430D3*
D33*
X34430Y7690D3*
D34*
Y8690D3*
Y9690D3*
Y10690D3*
Y11690D3*
Y12690D3*
D33*
X36430Y22190D3*
D34*
X35430D3*
X36430Y23190D3*
X35430D3*
X36430Y24190D3*
X35430D3*
X36430Y25190D3*
X35430D3*
X36430Y26190D3*
X35430D3*
D33*
X34430Y22190D3*
D34*
Y23190D3*
Y24190D3*
Y25190D3*
Y26190D3*
D33*
X36430Y17190D3*
D34*
Y18190D3*
Y19190D3*
Y20190D3*
X35430Y17190D3*
Y18190D3*
Y19190D3*
Y20190D3*
D33*
X32180Y14190D3*
D34*
X31180D3*
X32180Y15190D3*
X31180D3*
X32180Y16190D3*
X31180D3*
X32180Y17190D3*
X31180D3*
X32180Y18190D3*
X31180D3*
D33*
X34430Y17190D3*
D34*
Y18190D3*
Y19190D3*
Y20190D3*
D33*
X9430Y5440D3*
D34*
Y6440D3*
X10430Y5440D3*
Y6440D3*
X11430Y5440D3*
Y6440D3*
X12430Y5440D3*
Y6440D3*
X13430Y5440D3*
Y6440D3*
X14430Y5440D3*
Y6440D3*
X15430Y5440D3*
Y6440D3*
X16430Y5440D3*
Y6440D3*
D33*
X9430Y7440D3*
D34*
X10430D3*
X11430D3*
X12430D3*
X13430D3*
X14430D3*
X15430D3*
X16430D3*
D33*
X20030Y5440D3*
D34*
Y6440D3*
X21030Y5440D3*
Y6440D3*
X22030Y5440D3*
Y6440D3*
X23030Y5440D3*
Y6440D3*
X24030Y5440D3*
Y6440D3*
X25030Y5440D3*
Y6440D3*
D33*
X20030Y7440D3*
D34*
X21030D3*
X22030D3*
X23030D3*
X24030D3*
X25030D3*
D33*
X32180Y22190D3*
D34*
X31180D3*
X32180Y23190D3*
X31180D3*
X32180Y24190D3*
X31180D3*
X32180Y25190D3*
X31180D3*
X32180Y26190D3*
X31180D3*
D33*
X29130Y11540D3*
D34*
X30130D3*
X31130D3*
X32130D3*
D37*
X6130Y14893D3*
D38*
Y12924D3*
Y10956D3*
Y8987D3*
D39*
X15430Y27940D3*
D40*
X14430D3*
X13430D3*
X12430D3*
X11430D3*
X10430D3*
D39*
X24430D3*
D40*
X23430D3*
X22430D3*
X21430D3*
X20430D3*
X19430D3*
X18430D3*
X17430D3*
D39*
X10430Y8940D3*
D40*
X11430D3*
X12430D3*
X13430D3*
X14430D3*
X15430D3*
X16430D3*
X17430D3*
D39*
X19030D3*
D40*
X20030D3*
X21030D3*
X22030D3*
X23030D3*
X24030D3*
X25030D3*
X26030D3*
X27030D3*
X28030D3*
D33*
X30180Y14190D3*
D34*
Y15190D3*
Y16190D3*
Y17190D3*
Y18190D3*
D33*
Y22190D3*
D34*
Y23190D3*
Y24190D3*
Y25190D3*
Y26190D3*
D33*
X9430Y11960D3*
D34*
Y10960D3*
X8430Y11960D3*
Y10960D3*
D42*
X30430Y5440D3*
D43*
Y6440D3*
Y7440D3*
D42*
X32180Y5440D3*
D43*
Y6440D3*
Y7440D3*
D33*
X34430Y14690D3*
D34*
X35430D3*
X36430D3*
D33*
X34430Y15690D3*
D34*
X35430D3*
X36430D3*
D33*
X17730Y7440D3*
D34*
Y6440D3*
Y5440D3*
D33*
X18730Y7440D3*
D34*
Y6440D3*
Y5440D3*
D33*
X32180Y19690D3*
D34*
X31180D3*
X30180D3*
D33*
X32180Y20690D3*
D34*
X31180D3*
X30180D3*
D33*
X24200Y26190D3*
D34*
X25200D3*
X24200Y25190D3*
X25200D3*
X24200Y24190D3*
X25200D3*
X24200Y23190D3*
X25200D3*
X24200Y22190D3*
X25200D3*
X24200Y21190D3*
X25200D3*
X30430Y8440D3*
X32180D3*
D33*
X24200Y20190D3*
D34*
X25200D3*
D33*
X8630Y28940D3*
D34*
Y27940D3*
X7630Y28940D3*
Y27940D3*
D33*
X8430Y13890D3*
D34*
Y14890D3*
X9430Y13890D3*
Y14890D3*
G36*
X25695Y16737D2*
X25596Y16638D1*
Y16442D1*
X25695Y16343D1*
X26285D1*
X26384Y16442D1*
Y16638D1*
X26285Y16737D1*
X25695D1*
G37*
D46*
X25990Y16020D3*
Y15500D3*
D47*
Y11070D3*
X27959D3*
X25930Y12280D3*
X27899D3*
D34*
X9730Y22950D3*
D15*
X24010Y15140D3*
D34*
X21450D3*
G36*
X10572Y17282D2*
X10772Y17082D1*
Y16798D1*
X10572Y16598D1*
X10288D1*
X10088Y16798D1*
Y17082D1*
X10288Y17282D1*
X10572D1*
G37*
G36*
X9572D2*
X9772Y17082D1*
Y16798D1*
X9572Y16598D1*
X9288D1*
X9088Y16798D1*
Y17082D1*
X9288Y17282D1*
X9572D1*
G37*
G36*
X10572Y18282D2*
X10772Y18082D1*
Y17798D1*
X10572Y17598D1*
X10288D1*
X10088Y17798D1*
Y18082D1*
X10288Y18282D1*
X10572D1*
G37*
G36*
X9572D2*
X9772Y18082D1*
Y17798D1*
X9572Y17598D1*
X9288D1*
X9088Y17798D1*
Y18082D1*
X9288Y18282D1*
X9572D1*
G37*
G36*
X10572Y19282D2*
X10772Y19082D1*
Y18798D1*
X10572Y18598D1*
X10288D1*
X10088Y18798D1*
Y19082D1*
X10288Y19282D1*
X10572D1*
G37*
G36*
X9572D2*
X9772Y19082D1*
Y18798D1*
X9572Y18598D1*
X9288D1*
X9088Y18798D1*
Y19082D1*
X9288Y19282D1*
X9572D1*
G37*
D50*
X5030Y20440D3*
X6030D3*
X7030D3*
X8030D3*
X9030D3*
X10030D3*
X11030D3*
X12030D3*
X13030D3*
X14030D3*
X15030D3*
X16030D3*
X17030D3*
X18030D3*
Y25440D3*
Y26440D3*
X17030D3*
X16030D3*
X15030D3*
X14030D3*
X13030D3*
X12030D3*
X11030D3*
X10030D3*
X9030D3*
X8030D3*
X7030D3*
X6030D3*
X5030D3*
X6030Y25440D3*
X8030D3*
X9030D3*
X10030D3*
X17030Y23440D3*
Y24440D3*
X16030Y23440D3*
X15030D3*
X14030D3*
X13030D3*
X16030Y24440D3*
X15030D3*
X14030D3*
X13030D3*
X12030D3*
X11030D3*
X12030Y23440D3*
X11030D3*
D33*
X21530Y26190D3*
D34*
Y25190D3*
Y24190D3*
M02*
