G04 DipTrace 3.3.1.3*
G04 T4LSSArduinoShield.gbo*
%MOIN*%
G04 #@! TF.FileFunction,Legend,Bot*
G04 #@! TF.Part,Single*
%ADD10C,0.009843*%
%ADD21C,0.008*%
%ADD36C,0.006*%
%ADD131C,0.006176*%
%ADD132C,0.00772*%
%ADD133C,0.007*%
%ADD134C,0.004632*%
%FSLAX26Y26*%
G04*
G70*
G90*
G75*
G01*
G04 BotSilk*
%LPD*%
X606924Y1364330D2*
D21*
X669909D1*
X606924Y1443070D2*
G03X599043Y1431259I1971J-9850D01*
G01*
X677790D2*
G03X669909Y1443070I-9852J1961D01*
G01*
X677790Y1376141D2*
G02X669909Y1364330I-9852J-1961D01*
G01*
X606924D2*
G02X599043Y1376141I1971J9850D01*
G01*
X669909Y1443070D2*
X606924D1*
X616924Y1502330D2*
X679909D1*
X616924Y1581070D2*
G03X609043Y1569259I1971J-9850D01*
G01*
X687790D2*
G03X679909Y1581070I-9852J1961D01*
G01*
X687790Y1514141D2*
G02X679909Y1502330I-9852J-1961D01*
G01*
X616924D2*
G02X609043Y1514141I1971J9850D01*
G01*
X679909Y1581070D2*
X616924D1*
X1735700Y998704D2*
D36*
Y898696D1*
X1815700Y998704D2*
G03X1805700Y1008700I-9997J-1D01*
G01*
Y888700D2*
G03X1815700Y898696I3J9997D01*
G01*
X1745700Y888700D2*
G02X1735700Y898696I-3J9997D01*
G01*
Y998704D2*
G02X1745700Y1008700I9997J-1D01*
G01*
X1805700D1*
X1745700Y888700D2*
X1805700D1*
X1815700Y898696D2*
Y998704D1*
X2145039Y1424175D2*
D10*
Y1231225D1*
Y1424175D2*
X2325337D1*
X2145039Y1231225D2*
X2325337D1*
Y1424175D2*
G02X2325337Y1231225I280731J-96475D01*
G01*
X894108Y1424530D2*
D131*
X897910Y1428377D1*
X903658Y1430278D1*
X911308D1*
X917056Y1428377D1*
X920903Y1424530D1*
Y1420728D1*
X918957Y1416881D1*
X917056Y1414980D1*
X913253Y1413079D1*
X901757Y1409232D1*
X897910Y1407331D1*
X896009Y1405385D1*
X894108Y1401583D1*
Y1395834D1*
X897910Y1392032D1*
X903658Y1390086D1*
X911308D1*
X917056Y1392032D1*
X920903Y1395834D1*
X862611Y1430278D2*
Y1399681D1*
X864512Y1393933D1*
X866458Y1392032D1*
X870260Y1390086D1*
X874107D1*
X877910Y1392032D1*
X879811Y1393933D1*
X881756Y1399681D1*
Y1403484D1*
X850260Y1430278D2*
Y1401583D1*
X848358Y1395834D1*
X844512Y1392032D1*
X838764Y1390086D1*
X834961D1*
X829213Y1392032D1*
X825366Y1395834D1*
X823465Y1401583D1*
Y1430278D1*
X811114Y1410160D2*
X789006D1*
X776654Y1409232D2*
X759410D1*
X753707Y1411133D1*
X751761Y1413079D1*
X749860Y1416881D1*
Y1422629D1*
X751761Y1426432D1*
X753707Y1428377D1*
X759410Y1430278D1*
X776654D1*
Y1390086D1*
X720308Y1427382D2*
Y1392938D1*
X737508Y1410138D2*
X703064D1*
X883940Y1559530D2*
X887742Y1563377D1*
X893490Y1565278D1*
X901140D1*
X906888Y1563377D1*
X910734Y1559530D1*
Y1555728D1*
X908789Y1551881D1*
X906888Y1549980D1*
X903085Y1548079D1*
X891589Y1544232D1*
X887742Y1542331D1*
X885841Y1540385D1*
X883940Y1536583D1*
Y1530834D1*
X887742Y1527032D1*
X893490Y1525086D1*
X901140D1*
X906888Y1527032D1*
X910734Y1530834D1*
X852443Y1565278D2*
Y1534681D1*
X854344Y1528933D1*
X856290Y1527032D1*
X860092Y1525086D1*
X863939D1*
X867742Y1527032D1*
X869643Y1528933D1*
X871588Y1534681D1*
Y1538484D1*
X840092Y1565278D2*
Y1536583D1*
X838190Y1530834D1*
X834344Y1527032D1*
X828596Y1525086D1*
X824793D1*
X819045Y1527032D1*
X815198Y1530834D1*
X813297Y1536583D1*
Y1565278D1*
X800946Y1545160D2*
X778838D1*
X766486Y1544232D2*
X749242D1*
X743538Y1546133D1*
X741593Y1548079D1*
X739692Y1551881D1*
Y1557629D1*
X741593Y1561432D1*
X743538Y1563377D1*
X749242Y1565278D1*
X766486D1*
Y1525086D1*
X727340Y1545160D2*
X705232D1*
X1824846Y1067278D2*
Y1036681D1*
X1826748Y1030933D1*
X1828693Y1029032D1*
X1832496Y1027086D1*
X1836342D1*
X1840145Y1029032D1*
X1842046Y1030933D1*
X1843992Y1036681D1*
Y1040484D1*
X1785700Y1061530D2*
X1789503Y1065377D1*
X1795251Y1067278D1*
X1802900D1*
X1808648Y1065377D1*
X1812495Y1061530D1*
Y1057728D1*
X1810550Y1053881D1*
X1808648Y1051980D1*
X1804846Y1050079D1*
X1793350Y1046232D1*
X1789503Y1044331D1*
X1787602Y1042385D1*
X1785700Y1038583D1*
Y1032834D1*
X1789503Y1029032D1*
X1795251Y1027086D1*
X1802900D1*
X1808648Y1029032D1*
X1812495Y1032834D1*
X1746554Y1067278D2*
Y1027086D1*
X1773349Y1067278D1*
Y1027086D1*
X1734203Y1067278D2*
Y1027086D1*
X1720806D1*
X1715058Y1029032D1*
X1711211Y1032834D1*
X1709309Y1036681D1*
X1707408Y1042385D1*
Y1051980D1*
X1709309Y1057728D1*
X1711211Y1061530D1*
X1715058Y1065377D1*
X1720806Y1067278D1*
X1734203D1*
X495323Y472546D2*
D132*
X502509Y470169D1*
X507317Y462984D1*
X509694Y451046D1*
Y443861D1*
X507317Y431923D1*
X502509Y424737D1*
X495323Y422361D1*
X490570D1*
X483385Y424737D1*
X478632Y431923D1*
X476200Y443861D1*
Y451046D1*
X478632Y462984D1*
X483385Y470169D1*
X490570Y472546D1*
X495323D1*
X478632Y462984D2*
X507317Y431923D1*
X601694Y462984D2*
X596885Y465416D1*
X589700Y472546D1*
Y422361D1*
X710762Y460607D2*
Y462984D1*
X708385Y467792D1*
X706009Y470169D1*
X701200Y472546D1*
X691638D1*
X686885Y470169D1*
X684509Y467792D1*
X682077Y462984D1*
Y458231D1*
X684509Y453422D1*
X689262Y446293D1*
X713194Y422361D1*
X679700D1*
X803885Y472546D2*
X777632D1*
X791947Y453422D1*
X784762D1*
X780009Y451046D1*
X777632Y448669D1*
X775200Y441484D1*
Y436731D1*
X777632Y429546D1*
X782385Y424737D1*
X789570Y422361D1*
X796755D1*
X803885Y424737D1*
X806262Y427169D1*
X808694Y431923D1*
X890638Y422361D2*
Y472546D1*
X914570Y439108D1*
X878700D1*
X985009Y472546D2*
X1008885D1*
X1011262Y451046D1*
X1008885Y453422D1*
X1001700Y455854D1*
X994570D1*
X987385Y453422D1*
X982577Y448669D1*
X980200Y441484D1*
Y436731D1*
X982577Y429546D1*
X987385Y424737D1*
X994570Y422361D1*
X1001700D1*
X1008885Y424737D1*
X1011262Y427169D1*
X1013694Y431923D1*
X1081077Y465416D2*
X1083453Y470169D1*
X1090638Y472546D1*
X1095392D1*
X1102577Y470169D1*
X1107385Y462984D1*
X1109762Y451046D1*
Y439108D1*
X1107385Y429546D1*
X1102577Y424737D1*
X1095392Y422361D1*
X1093015D1*
X1085885Y424737D1*
X1081077Y429546D1*
X1078700Y436731D1*
Y439108D1*
X1081077Y446293D1*
X1085885Y451046D1*
X1093015Y453422D1*
X1095392D1*
X1102577Y451046D1*
X1107385Y446293D1*
X1109762Y439108D1*
X1203132Y422361D2*
X1179200Y472546D1*
X1212694D1*
X1349200D2*
X1356330Y470169D1*
X1358762Y465416D1*
Y460607D1*
X1356330Y455854D1*
X1351577Y453422D1*
X1342015Y451046D1*
X1334830Y448669D1*
X1330077Y443861D1*
X1327700Y439108D1*
Y431923D1*
X1330077Y427169D1*
X1332453Y424737D1*
X1339638Y422361D1*
X1349200D1*
X1356330Y424737D1*
X1358762Y427169D1*
X1361138Y431923D1*
Y439108D1*
X1358762Y443861D1*
X1353953Y448669D1*
X1346823Y451046D1*
X1337262Y453422D1*
X1332453Y455854D1*
X1330077Y460607D1*
Y465416D1*
X1332453Y470169D1*
X1339638Y472546D1*
X1349200D1*
X1431700Y455854D2*
X1434132Y448669D1*
X1438885Y443861D1*
X1446070Y441484D1*
X1448447D1*
X1455632Y443861D1*
X1460385Y448669D1*
X1462817Y455854D1*
Y458231D1*
X1460385Y465416D1*
X1455632Y470169D1*
X1448447Y472546D1*
X1446070D1*
X1438885Y470169D1*
X1434132Y465416D1*
X1431700Y455854D1*
Y443861D1*
X1434132Y431923D1*
X1438885Y424737D1*
X1446070Y422361D1*
X1450823D1*
X1458009Y424737D1*
X1460385Y429546D1*
X1576126Y462984D2*
X1571318Y465416D1*
X1564133Y472546D1*
Y422361D1*
X1534323Y472546D2*
X1541509Y470169D1*
X1546317Y462984D1*
X1548694Y451046D1*
Y443861D1*
X1546317Y431923D1*
X1541509Y424737D1*
X1534323Y422361D1*
X1529570D1*
X1522385Y424737D1*
X1517632Y431923D1*
X1515200Y443861D1*
Y451046D1*
X1517632Y462984D1*
X1522385Y470169D1*
X1529570Y472546D1*
X1534323D1*
X1517632Y462984D2*
X1546317Y431923D1*
X1667626Y462984D2*
X1662818Y465416D1*
X1655633Y472546D1*
Y422361D1*
X1640194Y462984D2*
X1635385Y465416D1*
X1628200Y472546D1*
Y422361D1*
X1777626Y462984D2*
X1772818Y465416D1*
X1765633Y472546D1*
Y422361D1*
X1747762Y460607D2*
Y462984D1*
X1745385Y467792D1*
X1743009Y470169D1*
X1738200Y472546D1*
X1728638D1*
X1723885Y470169D1*
X1721509Y467792D1*
X1719077Y462984D1*
Y458231D1*
X1721509Y453422D1*
X1726262Y446293D1*
X1750194Y422361D1*
X1716700D1*
X1557340Y2851954D2*
D133*
X1562149Y2849522D1*
X1569334Y2842392D1*
Y2892577D1*
X1588142Y2842392D2*
X1614395D1*
X1600081Y2861516D1*
X1607266Y2861515D1*
X1612019Y2863892D1*
X1614395Y2866269D1*
X1616827Y2873454D1*
Y2878207D1*
X1614395Y2885392D1*
X1609642Y2890200D1*
X1602457Y2892577D1*
X1595272D1*
X1588142Y2890200D1*
X1585766Y2887769D1*
X1583334Y2883015D1*
X2522744Y2886644D2*
D131*
X2501741D1*
X2513193Y2871345D1*
X2507445D1*
X2503643Y2869444D1*
X2501741Y2867543D1*
X2499796Y2861795D1*
Y2857992D1*
X2501741Y2852244D1*
X2505544Y2848397D1*
X2511292Y2846496D1*
X2517040D1*
X2522744Y2848397D1*
X2524645Y2850343D1*
X2526590Y2854145D1*
X2468299Y2846496D2*
Y2886644D1*
X2487444Y2859893D1*
X2458748D1*
X2422793Y2892694D2*
X2401790D1*
X2413242Y2877395D1*
X2407494D1*
X2403691Y2875494D1*
X2401790Y2873593D1*
X2399845Y2867845D1*
Y2864042D1*
X2401790Y2858294D1*
X2405593Y2854447D1*
X2411341Y2852546D1*
X2417089D1*
X2422793Y2854447D1*
X2424694Y2856393D1*
X2426639Y2860195D1*
X2364545Y2892694D2*
X2383647D1*
X2385548Y2875494D1*
X2383647Y2877395D1*
X2377898Y2879341D1*
X2372195D1*
X2366447Y2877395D1*
X2362600Y2873593D1*
X2360699Y2867845D1*
Y2864042D1*
X2362600Y2858294D1*
X2366447Y2854447D1*
X2372195Y2852546D1*
X2377898D1*
X2383647Y2854447D1*
X2385548Y2856393D1*
X2387493Y2860195D1*
X1457700Y2851954D2*
D133*
X1462508Y2849522D1*
X1469694Y2842392D1*
Y2892577D1*
X1507625D2*
Y2842392D1*
X1483694Y2875830D1*
X1519563D1*
X1357700Y2851954D2*
X1362508Y2849522D1*
X1369693Y2842392D1*
X1369694Y2892577D1*
X1412378Y2842392D2*
X1388502D1*
X1386125Y2863892D1*
X1388502Y2861516D1*
X1395687Y2859084D1*
X1402817D1*
X1410002Y2861515D1*
X1414810Y2866269D1*
X1417187Y2873454D1*
Y2878207D1*
X1414810Y2885392D1*
X1410002Y2890200D1*
X1402817Y2892577D1*
X1395687D1*
X1388502Y2890200D1*
X1386125Y2887769D1*
X1383693Y2883015D1*
X1255700Y2851954D2*
X1260509Y2849522D1*
X1267694Y2842392D1*
Y2892577D1*
X1310378Y2849522D2*
X1308002Y2844769D1*
X1300817Y2842392D1*
X1296064D1*
X1288879Y2844769D1*
X1284070Y2851954D1*
X1281694Y2863892D1*
Y2875830D1*
X1284070Y2885392D1*
X1288879Y2890200D1*
X1296064Y2892577D1*
X1298440D1*
X1305570Y2890200D1*
X1310378Y2885392D1*
X1312755Y2878207D1*
Y2875830D1*
X1310378Y2868645D1*
X1305570Y2863892D1*
X1298440Y2861516D1*
X1296064D1*
X1288879Y2863892D1*
X1284070Y2868645D1*
X1281694Y2875830D1*
X1157700Y2851954D2*
X1162508Y2849522D1*
X1169693Y2842392D1*
X1169694Y2892577D1*
X1193255D2*
X1217187Y2842392D1*
X1183693D1*
X1059700Y2851954D2*
X1064509Y2849522D1*
X1071694Y2842392D1*
Y2892577D1*
X1097632Y2842392D2*
X1090502Y2844769D1*
X1088070Y2849522D1*
Y2854330D1*
X1090502Y2859084D1*
X1095255Y2861516D1*
X1104817Y2863892D1*
X1112002Y2866269D1*
X1116755Y2871077D1*
X1119132Y2875830D1*
Y2883015D1*
X1116755Y2887769D1*
X1114378Y2890200D1*
X1107193Y2892577D1*
X1097632D1*
X1090502Y2890200D1*
X1088070Y2887769D1*
X1085694Y2883015D1*
Y2875830D1*
X1088070Y2871077D1*
X1092879Y2866269D1*
X1100008Y2863892D1*
X1109570Y2861515D1*
X1114378Y2859084D1*
X1116755Y2854330D1*
Y2849522D1*
X1114378Y2844769D1*
X1107193Y2842392D1*
X1097632D1*
X965700Y2851954D2*
X970508Y2849522D1*
X977693Y2842392D1*
Y2892577D1*
X1022810Y2859084D2*
X1020378Y2866269D1*
X1015625Y2871077D1*
X1008440Y2873454D1*
X1006063D1*
X998878Y2871077D1*
X994125Y2866269D1*
X991693Y2859084D1*
Y2856707D1*
X994125Y2849522D1*
X998878Y2844769D1*
X1006063Y2842392D1*
X1008440D1*
X1015625Y2844769D1*
X1020378Y2849522D1*
X1022810Y2859084D1*
Y2871077D1*
X1020378Y2883015D1*
X1015625Y2890200D1*
X1008440Y2892577D1*
X1003687D1*
X996502Y2890200D1*
X994125Y2885392D1*
X803132Y2854330D2*
Y2851954D1*
X805509Y2847145D1*
X807885Y2844769D1*
X812694Y2842392D1*
X822255D1*
X827008Y2844769D1*
X829385Y2847145D1*
X831817Y2851954D1*
Y2856707D1*
X829385Y2861516D1*
X824632Y2868645D1*
X800700Y2892577D1*
X834194D1*
X862563Y2842392D2*
X855378Y2844769D1*
X850570Y2851954D1*
X848193Y2863892D1*
Y2871077D1*
X850570Y2883015D1*
X855379Y2890200D1*
X862564Y2892577D1*
X867317D1*
X874502Y2890200D1*
X879255Y2883015D1*
X881687Y2871077D1*
Y2863892D1*
X879255Y2851954D1*
X874502Y2844769D1*
X867317Y2842392D1*
X862563D1*
X879255Y2851954D2*
X850570Y2883015D1*
X714632Y2854330D2*
Y2851954D1*
X717008Y2847145D1*
X719385Y2844769D1*
X724193Y2842392D1*
X733755D1*
X738508Y2844769D1*
X740885Y2847145D1*
X743317Y2851954D1*
Y2856707D1*
X740885Y2861516D1*
X736132Y2868645D1*
X712200Y2892577D1*
X745693D1*
X759693Y2851954D2*
X764502Y2849522D1*
X771687Y2842392D1*
Y2892577D1*
X607132Y2854330D2*
Y2851954D1*
X609509Y2847145D1*
X611885Y2844769D1*
X616694Y2842392D1*
X626255D1*
X631008Y2844769D1*
X633385Y2847145D1*
X635817Y2851954D1*
Y2856707D1*
X633385Y2861516D1*
X628632Y2868645D1*
X604700Y2892577D1*
X638194D1*
X654625Y2854330D2*
Y2851954D1*
X657002Y2847145D1*
X659378Y2844769D1*
X664187Y2842392D1*
X673749D1*
X678502Y2844769D1*
X680878Y2847145D1*
X683310Y2851954D1*
Y2856707D1*
X680878Y2861515D1*
X676125Y2868645D1*
X652194Y2892577D1*
X685687D1*
X504132Y2854330D2*
Y2851954D1*
X506509Y2847145D1*
X508885Y2844769D1*
X513694Y2842392D1*
X523255D1*
X528008Y2844769D1*
X530385Y2847145D1*
X532817Y2851954D1*
Y2856707D1*
X530385Y2861516D1*
X525632Y2868645D1*
X501700Y2892577D1*
X535194D1*
X554002Y2842392D2*
X580255D1*
X565940Y2861516D1*
X573125Y2861515D1*
X577878Y2863892D1*
X580255Y2866269D1*
X582687Y2873454D1*
Y2878207D1*
X580255Y2885392D1*
X575502Y2890200D1*
X568317Y2892577D1*
X561132D1*
X554002Y2890200D1*
X551625Y2887769D1*
X549193Y2883015D1*
X1794628Y2545422D2*
D134*
Y2515278D1*
X1774532Y2545422D2*
X1794628Y2525326D1*
X1787466Y2532523D2*
X1774532Y2515278D1*
X1765269Y2535374D2*
Y2521015D1*
X1763843Y2516738D1*
X1760958Y2515278D1*
X1756647D1*
X1753795Y2516738D1*
X1749484Y2521015D1*
Y2535374D2*
Y2515278D1*
X1740220Y2535374D2*
Y2515278D1*
Y2526752D2*
X1738761Y2531063D1*
X1735909Y2533948D1*
X1733024Y2535374D1*
X1728713D1*
X1715139Y2545422D2*
Y2521015D1*
X1713713Y2516738D1*
X1710828Y2515278D1*
X1707976D1*
X1719450Y2535374D2*
X1709402D1*
X1691516Y2545389D2*
X1698712Y2536767D1*
X1690090Y2543963D1*
X1691516Y2545389D1*
X1665042Y2531063D2*
X1666468Y2533948D1*
X1670779Y2535374D1*
X1675090D1*
X1679401Y2533948D1*
X1680827Y2531063D1*
X1679401Y2528211D1*
X1676516Y2526752D1*
X1669353Y2525326D1*
X1666468Y2523900D1*
X1665042Y2521015D1*
Y2519589D1*
X1666468Y2516738D1*
X1670779Y2515278D1*
X1675090D1*
X1679401Y2516738D1*
X1680827Y2519589D1*
X1616569Y2545422D2*
Y2515278D1*
X1626617Y2545422D2*
X1606521D1*
X1582899Y2515278D2*
Y2545389D1*
X1597258Y2525326D1*
X1575736D1*
X1565046Y2518163D2*
X1566472Y2516704D1*
X1565046Y2515278D1*
X1563587Y2516704D1*
X1565046Y2518163D1*
X1554324Y2535374D2*
X1538539Y2515278D1*
Y2535374D2*
X1554324Y2515278D1*
X1500115Y2545422D2*
Y2515278D1*
X1482904D1*
X1453544Y2541111D2*
X1456396Y2543996D1*
X1460707Y2545422D1*
X1466444D1*
X1470755Y2543996D1*
X1473640Y2541111D1*
Y2538259D1*
X1472181Y2535374D1*
X1470755Y2533948D1*
X1467903Y2532523D1*
X1459281Y2529637D1*
X1456396Y2528211D1*
X1454970Y2526752D1*
X1453544Y2523900D1*
Y2519589D1*
X1456396Y2516738D1*
X1460707Y2515278D1*
X1466444D1*
X1470755Y2516738D1*
X1473640Y2519589D1*
X1424185Y2541111D2*
X1427037Y2543996D1*
X1431348Y2545422D1*
X1437085D1*
X1441396Y2543996D1*
X1444281Y2541111D1*
Y2538259D1*
X1442822Y2535374D1*
X1441396Y2533948D1*
X1438544Y2532523D1*
X1429922Y2529637D1*
X1427037Y2528211D1*
X1425611Y2526752D1*
X1424185Y2523900D1*
Y2519589D1*
X1427037Y2516738D1*
X1431348Y2515278D1*
X1437085D1*
X1441396Y2516738D1*
X1444281Y2519589D1*
X1365665Y2541111D2*
X1368516Y2543996D1*
X1372827Y2545422D1*
X1378564D1*
X1382875Y2543996D1*
X1385761Y2541111D1*
Y2538259D1*
X1384301Y2535374D1*
X1382875Y2533948D1*
X1380024Y2532523D1*
X1371402Y2529637D1*
X1368516Y2528211D1*
X1367091Y2526752D1*
X1365665Y2523900D1*
Y2519589D1*
X1368516Y2516738D1*
X1372827Y2515278D1*
X1378564D1*
X1382875Y2516738D1*
X1385761Y2519589D1*
X1356401Y2526752D2*
X1339190D1*
Y2529637D1*
X1340616Y2532523D1*
X1342042Y2533948D1*
X1344927Y2535374D1*
X1349238D1*
X1352090Y2533948D1*
X1354975Y2531063D1*
X1356401Y2526752D1*
Y2523900D1*
X1354975Y2519589D1*
X1352090Y2516738D1*
X1349238Y2515278D1*
X1344927D1*
X1342042Y2516738D1*
X1339190Y2519589D1*
X1329927Y2535374D2*
Y2515278D1*
Y2526752D2*
X1328467Y2531063D1*
X1325616Y2533948D1*
X1322730Y2535374D1*
X1318419D1*
X1309156D2*
X1300534Y2515278D1*
X1291945Y2535374D1*
X1275518D2*
X1278370Y2533948D1*
X1281255Y2531063D1*
X1282681Y2526752D1*
Y2523900D1*
X1281255Y2519589D1*
X1278370Y2516738D1*
X1275518Y2515278D1*
X1271207D1*
X1268322Y2516738D1*
X1265470Y2519589D1*
X1264011Y2523900D1*
Y2526752D1*
X1265470Y2531063D1*
X1268322Y2533948D1*
X1271207Y2535374D1*
X1275518D1*
X1202606Y2515278D2*
X1214113Y2545422D1*
X1225587Y2515278D1*
X1221276Y2525326D2*
X1206917D1*
X1176132Y2545422D2*
Y2515278D1*
Y2531063D2*
X1178984Y2533948D1*
X1181869Y2535374D1*
X1186180D1*
X1189032Y2533948D1*
X1191917Y2531063D1*
X1193343Y2526752D1*
Y2523900D1*
X1191917Y2519589D1*
X1189032Y2516738D1*
X1186180Y2515278D1*
X1181869D1*
X1178984Y2516738D1*
X1176132Y2519589D1*
X1149657Y2535374D2*
Y2515278D1*
Y2531063D2*
X1152509Y2533948D1*
X1155394Y2535374D1*
X1159672D1*
X1162557Y2533948D1*
X1165409Y2531063D1*
X1166868Y2526752D1*
Y2523900D1*
X1165409Y2519589D1*
X1162557Y2516738D1*
X1159672Y2515278D1*
X1155394D1*
X1152509Y2516738D1*
X1149657Y2519589D1*
X1140394Y2535374D2*
Y2505230D1*
Y2531063D2*
X1137509Y2533915D1*
X1134657Y2535374D1*
X1130346D1*
X1127461Y2533915D1*
X1124609Y2531063D1*
X1123150Y2526752D1*
Y2523867D1*
X1124609Y2519589D1*
X1127461Y2516704D1*
X1130346Y2515278D1*
X1134657D1*
X1137509Y2516704D1*
X1140394Y2519589D1*
X1109575Y2545422D2*
Y2521015D1*
X1108149Y2516738D1*
X1105264Y2515278D1*
X1102412D1*
X1113886Y2535374D2*
X1103838D1*
X1093148Y2526752D2*
X1075938D1*
Y2529637D1*
X1077363Y2532523D1*
X1078789Y2533948D1*
X1081675Y2535374D1*
X1085986D1*
X1088837Y2533948D1*
X1091723Y2531063D1*
X1093148Y2526752D1*
Y2523900D1*
X1091723Y2519589D1*
X1088837Y2516738D1*
X1085986Y2515278D1*
X1081675D1*
X1078789Y2516738D1*
X1075938Y2519589D1*
X1066674Y2535374D2*
Y2515278D1*
Y2526752D2*
X1065215Y2531063D1*
X1062363Y2533948D1*
X1059478Y2535374D1*
X1055167D1*
X1016743Y2545422D2*
X1005269Y2515278D1*
X993795Y2545422D1*
X946749Y2545389D2*
X951060Y2543963D1*
X953945Y2539652D1*
X955371Y2532489D1*
Y2528178D1*
X953945Y2521015D1*
X951060Y2516704D1*
X946749Y2515278D1*
X943897D1*
X939586Y2516704D1*
X936734Y2521015D1*
X935275Y2528178D1*
Y2532489D1*
X936734Y2539652D1*
X939586Y2543963D1*
X943897Y2545389D1*
X946749D1*
X936734Y2539652D2*
X953945Y2521015D1*
X924585Y2518163D2*
X926011Y2516704D1*
X924585Y2515278D1*
X923126Y2516704D1*
X924585Y2518163D1*
X912403Y2538226D2*
Y2539652D1*
X910977Y2542537D1*
X909552Y2543963D1*
X906666Y2545389D1*
X900929D1*
X898078Y2543963D1*
X896652Y2542537D1*
X895192Y2539652D1*
Y2536800D1*
X896652Y2533915D1*
X899504Y2529637D1*
X913863Y2515278D1*
X893767D1*
X1919775Y466398D2*
D131*
Y468299D1*
X1917874Y472146D1*
X1915972Y474047D1*
X1912126Y475948D1*
X1904476D1*
X1900674Y474047D1*
X1898772Y472146D1*
X1896827Y468299D1*
Y464497D1*
X1898772Y460650D1*
X1902575Y454946D1*
X1921720Y435801D1*
X1894926D1*
X1863429D2*
Y475948D1*
X1882574Y449198D1*
X1853878D1*
X2016445Y466398D2*
Y468299D1*
X2014543Y472146D1*
X2012642Y474047D1*
X2008795Y475948D1*
X2001146D1*
X1997343Y474047D1*
X1995442Y472146D1*
X1993497Y468299D1*
Y464497D1*
X1995442Y460650D1*
X1999245Y454946D1*
X2018390Y435801D1*
X1991595D1*
X1956296Y475948D2*
X1975397D1*
X1977298Y458749D1*
X1975397Y460650D1*
X1969649Y462595D1*
X1963945D1*
X1958197Y460650D1*
X1954351Y456847D1*
X1952449Y451099D1*
Y447297D1*
X1954351Y441549D1*
X1958197Y437702D1*
X1963945Y435801D1*
X1969649D1*
X1975397Y437702D1*
X1977298Y439647D1*
X1979244Y443450D1*
X2113722Y466398D2*
Y468299D1*
X2111821Y472146D1*
X2109920Y474047D1*
X2106073Y475948D1*
X2098424D1*
X2094621Y474047D1*
X2092720Y472146D1*
X2090774Y468299D1*
Y464497D1*
X2092720Y460650D1*
X2096522Y454946D1*
X2115668Y435801D1*
X2088873D1*
X2053574Y470245D2*
X2055475Y474047D1*
X2061223Y475948D1*
X2065025D1*
X2070774Y474047D1*
X2074620Y468299D1*
X2076522Y458749D1*
Y449198D1*
X2074620Y441549D1*
X2070774Y437702D1*
X2065025Y435801D1*
X2063124D1*
X2057420Y437702D1*
X2053574Y441549D1*
X2051672Y447297D1*
Y449198D1*
X2053574Y454946D1*
X2057420Y458749D1*
X2063124Y460650D1*
X2065025D1*
X2070774Y458749D1*
X2074620Y454946D1*
X2076522Y449198D1*
X2218694Y466398D2*
Y468299D1*
X2216793Y472146D1*
X2214891Y474047D1*
X2211045Y475948D1*
X2203395D1*
X2199593Y474047D1*
X2197691Y472146D1*
X2195746Y468299D1*
Y464497D1*
X2197691Y460650D1*
X2201494Y454946D1*
X2220639Y435801D1*
X2193845D1*
X2173844D2*
X2154699Y475948D1*
X2181493D1*
X2320484Y466398D2*
Y468299D1*
X2318583Y472146D1*
X2316682Y474047D1*
X2312835Y475948D1*
X2305186D1*
X2301383Y474047D1*
X2299482Y472146D1*
X2297536Y468299D1*
Y464497D1*
X2299482Y460650D1*
X2303284Y454946D1*
X2322430Y435801D1*
X2295635D1*
X2273733Y475948D2*
X2279437Y474047D1*
X2281382Y470245D1*
Y466398D1*
X2279437Y462595D1*
X2275634Y460650D1*
X2267985Y458749D1*
X2262237Y456847D1*
X2258435Y453001D1*
X2256533Y449198D1*
Y443450D1*
X2258435Y439647D1*
X2260336Y437702D1*
X2266084Y435801D1*
X2273733D1*
X2279437Y437702D1*
X2281382Y439647D1*
X2283284Y443450D1*
Y449198D1*
X2281382Y453001D1*
X2277536Y456847D1*
X2271832Y458749D1*
X2264183Y460650D1*
X2260336Y462595D1*
X2258435Y466398D1*
Y470245D1*
X2260336Y474047D1*
X2266084Y475948D1*
X2273733D1*
X2416874Y466398D2*
Y468299D1*
X2414973Y472146D1*
X2413071Y474047D1*
X2409225Y475948D1*
X2401575D1*
X2397773Y474047D1*
X2395872Y472146D1*
X2393926Y468299D1*
Y464497D1*
X2395872Y460650D1*
X2399674Y454946D1*
X2418819Y435801D1*
X2392025D1*
X2354780Y462595D2*
X2356725Y456847D1*
X2360528Y453001D1*
X2366276Y451099D1*
X2368177D1*
X2373925Y453001D1*
X2377728Y456847D1*
X2379673Y462595D1*
Y464497D1*
X2377728Y470245D1*
X2373925Y474047D1*
X2368177Y475948D1*
X2366276D1*
X2360528Y474047D1*
X2356725Y470245D1*
X2354780Y462595D1*
Y453001D1*
X2356725Y443450D1*
X2360528Y437702D1*
X2366276Y435801D1*
X2370079D1*
X2375827Y437702D1*
X2377728Y441549D1*
X2574793Y468632D2*
X2553790D1*
X2565242Y453334D1*
X2559494D1*
X2555691Y451432D1*
X2553790Y449531D1*
X2551845Y443783D1*
Y439980D1*
X2553790Y434232D1*
X2557593Y430386D1*
X2563341Y428484D1*
X2569089D1*
X2574793Y430386D1*
X2576694Y432331D1*
X2578639Y436134D1*
X2527997Y468632D2*
X2533745Y466731D1*
X2537592Y460983D1*
X2539493Y451432D1*
Y445684D1*
X2537592Y436134D1*
X2533745Y430386D1*
X2527997Y428484D1*
X2524195D1*
X2518447Y430386D1*
X2514644Y436134D1*
X2512699Y445684D1*
Y451432D1*
X2514644Y460983D1*
X2518447Y466731D1*
X2524195Y468632D1*
X2527997D1*
X2514644Y460983D2*
X2537592Y436134D1*
X2666192Y475282D2*
X2645190D1*
X2656642Y459983D1*
X2650894D1*
X2647091Y458082D1*
X2645190Y456181D1*
X2643245Y450433D1*
Y446630D1*
X2645190Y440882D1*
X2648993Y437035D1*
X2654741Y435134D1*
X2660489D1*
X2666192Y437035D1*
X2668094Y438981D1*
X2670039Y442783D1*
X2630893Y467632D2*
X2627046Y469578D1*
X2621298Y475282D1*
Y435134D1*
X2774793Y467883D2*
X2753790D1*
X2765242Y452584D1*
X2759494D1*
X2755691Y450683D1*
X2753790Y448782D1*
X2751845Y443034D1*
Y439231D1*
X2753790Y433483D1*
X2757593Y429636D1*
X2763341Y427735D1*
X2769089D1*
X2774793Y429636D1*
X2776694Y431582D1*
X2778639Y435384D1*
X2737548Y458332D2*
Y460233D1*
X2735647Y464080D1*
X2733745Y465982D1*
X2729898Y467883D1*
X2722249D1*
X2718447Y465982D1*
X2716545Y464080D1*
X2714600Y460233D1*
Y456431D1*
X2716545Y452584D1*
X2720348Y446880D1*
X2739493Y427735D1*
X2712699D1*
X2620793Y2888694D2*
X2599790D1*
X2611242Y2873395D1*
X2605494D1*
X2601691Y2871494D1*
X2599790Y2869593D1*
X2597845Y2863845D1*
Y2860042D1*
X2599790Y2854294D1*
X2603593Y2850447D1*
X2609341Y2848546D1*
X2615089D1*
X2620793Y2850447D1*
X2622694Y2852393D1*
X2624639Y2856195D1*
X2581647Y2888694D2*
X2560644D1*
X2572096Y2873395D1*
X2566348D1*
X2562545Y2871494D1*
X2560644Y2869593D1*
X2558699Y2863845D1*
Y2860042D1*
X2560644Y2854294D1*
X2564447Y2850447D1*
X2570195Y2848546D1*
X2575943D1*
X2581647Y2850447D1*
X2583548Y2852393D1*
X2585493Y2856195D1*
X2201385Y2842392D2*
D133*
X2227638D1*
X2213324Y2861516D1*
X2220509D1*
X2225262Y2863892D1*
X2227638Y2866269D1*
X2230070Y2873454D1*
Y2878207D1*
X2227638Y2885392D1*
X2222885Y2890200D1*
X2215700Y2892577D1*
X2208515D1*
X2201385Y2890200D1*
X2199009Y2887769D1*
X2196577Y2883015D1*
X2272755Y2849522D2*
X2270378Y2844769D1*
X2263193Y2842392D1*
X2258440D1*
X2251255Y2844769D1*
X2246447Y2851954D1*
X2244070Y2863892D1*
Y2875830D1*
X2246447Y2885392D1*
X2251255Y2890200D1*
X2258440Y2892577D1*
X2260817D1*
X2267947Y2890200D1*
X2272755Y2885392D1*
X2275132Y2878207D1*
Y2875830D1*
X2272755Y2868645D1*
X2267947Y2863892D1*
X2260817Y2861516D1*
X2258440D1*
X2251255Y2863892D1*
X2246447Y2868645D1*
X2244070Y2875830D1*
X2100632Y2842392D2*
X2126885D1*
X2112570Y2861516D1*
X2119755D1*
X2124508Y2863892D1*
X2126885Y2866269D1*
X2129317Y2873454D1*
Y2878207D1*
X2126885Y2885392D1*
X2122132Y2890200D1*
X2114947Y2892577D1*
X2107762D1*
X2100632Y2890200D1*
X2098255Y2887769D1*
X2095824Y2883015D1*
X2152878Y2892577D2*
X2176810Y2842392D1*
X2143317D1*
X2002564D2*
X2028817D1*
X2014502Y2861516D1*
X2021687D1*
X2026440Y2863892D1*
X2028817Y2866269D1*
X2031249Y2873454D1*
Y2878207D1*
X2028817Y2885392D1*
X2024064Y2890200D1*
X2016879Y2892577D1*
X2009694D1*
X2002564Y2890200D1*
X2000187Y2887769D1*
X1997755Y2883015D1*
X2057187Y2842392D2*
X2050057Y2844769D1*
X2047625Y2849522D1*
Y2854330D1*
X2050057Y2859084D1*
X2054810Y2861516D1*
X2064372Y2863892D1*
X2071557Y2866269D1*
X2076310Y2871077D1*
X2078687Y2875830D1*
Y2883015D1*
X2076310Y2887769D1*
X2073934Y2890200D1*
X2066749Y2892577D1*
X2057187D1*
X2050057Y2890200D1*
X2047625Y2887769D1*
X2045249Y2883015D1*
Y2875830D1*
X2047625Y2871077D1*
X2052434Y2866269D1*
X2059564Y2863892D1*
X2069125Y2861515D1*
X2073934Y2859084D1*
X2076310Y2854330D1*
Y2849522D1*
X2073934Y2844769D1*
X2066749Y2842392D1*
X2057187D1*
X1902885D2*
X1929138D1*
X1914823Y2861516D1*
X1922008D1*
X1926762Y2863892D1*
X1929138Y2866269D1*
X1931570Y2873454D1*
Y2878207D1*
X1929138Y2885392D1*
X1924385Y2890200D1*
X1917200Y2892577D1*
X1910015D1*
X1902885Y2890200D1*
X1900509Y2887769D1*
X1898077Y2883015D1*
X1976687Y2859084D2*
X1974255Y2866269D1*
X1969502Y2871077D1*
X1962317Y2873454D1*
X1959940D1*
X1952755Y2871077D1*
X1948002Y2866269D1*
X1945570Y2859084D1*
Y2856707D1*
X1948002Y2849522D1*
X1952755Y2844769D1*
X1959940Y2842392D1*
X1962317D1*
X1969502Y2844769D1*
X1974255Y2849522D1*
X1976687Y2859084D1*
Y2871077D1*
X1974255Y2883015D1*
X1969502Y2890200D1*
X1962317Y2892577D1*
X1957564D1*
X1950379Y2890200D1*
X1948002Y2885392D1*
X1819255Y2892577D2*
Y2842392D1*
X1795324Y2875830D1*
X1831193D1*
X1859563Y2842392D2*
X1852378Y2844769D1*
X1847570Y2851954D1*
X1845193Y2863892D1*
Y2871077D1*
X1847570Y2883015D1*
X1852379Y2890200D1*
X1859564Y2892577D1*
X1864317D1*
X1871502Y2890200D1*
X1876255Y2883015D1*
X1878687Y2871077D1*
Y2863892D1*
X1876255Y2851954D1*
X1871502Y2844769D1*
X1864317Y2842392D1*
X1859563D1*
X1876255Y2851954D2*
X1847570Y2883015D1*
X1734755Y2892577D2*
Y2842392D1*
X1710823Y2875830D1*
X1746693D1*
X1760693Y2851954D2*
X1765502Y2849522D1*
X1772687Y2842392D1*
Y2892577D1*
X1836126Y868984D2*
D132*
X1831318Y871416D1*
X1824133Y878546D1*
Y828361D1*
X1794323Y878546D2*
X1801509Y876169D1*
X1806317Y868984D1*
X1808694Y857046D1*
Y849861D1*
X1806317Y837923D1*
X1801509Y830737D1*
X1794323Y828361D1*
X1789570D1*
X1782385Y830737D1*
X1777632Y837923D1*
X1775200Y849861D1*
Y857046D1*
X1777632Y868984D1*
X1782385Y876169D1*
X1789570Y878546D1*
X1794323D1*
X1777632Y868984D2*
X1806317Y837923D1*
X1785071Y1081361D2*
Y1131546D1*
X1809003Y1098108D1*
X1773133D1*
X1743323Y1131546D2*
X1750509Y1129169D1*
X1755317Y1121984D1*
X1757694Y1110046D1*
Y1102861D1*
X1755317Y1090923D1*
X1750509Y1083737D1*
X1743323Y1081361D1*
X1738570D1*
X1731385Y1083737D1*
X1726632Y1090923D1*
X1724200Y1102861D1*
Y1110046D1*
X1726632Y1121984D1*
X1731385Y1129169D1*
X1738570Y1131546D1*
X1743323D1*
X1726632Y1121984D2*
X1755317Y1090923D1*
X727727Y635448D2*
D131*
X733475Y633547D1*
X737322Y627799D1*
X739223Y618249D1*
Y612501D1*
X737322Y602950D1*
X733475Y597202D1*
X727727Y595301D1*
X723924D1*
X718176Y597202D1*
X714374Y602950D1*
X712428Y612501D1*
Y618249D1*
X714374Y627799D1*
X718176Y633547D1*
X723924Y635448D1*
X727727D1*
X714374Y627799D2*
X737322Y602950D1*
X831523Y630799D2*
X827676Y632745D1*
X821928Y638448D1*
Y598301D1*
X932777Y628898D2*
Y630799D1*
X930876Y634646D1*
X928975Y636547D1*
X925128Y638448D1*
X917479D1*
X913676Y636547D1*
X911775Y634646D1*
X909830Y630799D1*
Y626997D1*
X911775Y623150D1*
X915578Y617446D1*
X934723Y598301D1*
X907928D1*
X1118479D2*
Y638448D1*
X1137624Y611698D1*
X1108928D1*
X1215275Y638448D2*
X1234376D1*
X1236277Y621249D1*
X1234376Y623150D1*
X1228628Y625095D1*
X1222924D1*
X1217176Y623150D1*
X1213330Y619347D1*
X1211428Y613599D1*
Y609797D1*
X1213330Y604049D1*
X1217176Y600202D1*
X1222924Y598301D1*
X1228628D1*
X1234376Y600202D1*
X1236277Y602147D1*
X1238223Y605950D1*
X1314830Y632745D2*
X1316731Y636547D1*
X1322479Y638448D1*
X1326281D1*
X1332029Y636547D1*
X1335876Y630799D1*
X1337777Y621249D1*
Y611698D1*
X1335876Y604049D1*
X1332029Y600202D1*
X1326281Y598301D1*
X1324380D1*
X1318676Y600202D1*
X1314830Y604049D1*
X1312928Y609797D1*
Y611698D1*
X1314830Y617446D1*
X1318676Y621249D1*
X1324380Y623150D1*
X1326281D1*
X1332029Y621249D1*
X1335876Y617446D1*
X1337777Y611698D1*
X1429574Y598301D2*
X1410428Y638448D1*
X1437223D1*
X1035376D2*
X1014374D1*
X1025826Y623150D1*
X1020078D1*
X1016275Y621249D1*
X1014374Y619347D1*
X1012428Y613599D1*
Y609797D1*
X1014374Y604049D1*
X1018176Y600202D1*
X1023924Y598301D1*
X1029672D1*
X1035376Y600202D1*
X1037277Y602147D1*
X1039223Y605950D1*
X1590128Y638448D2*
X1595832Y636547D1*
X1597777Y632745D1*
Y628898D1*
X1595832Y625095D1*
X1592029Y623150D1*
X1584380Y621249D1*
X1578632Y619347D1*
X1574830Y615501D1*
X1572928Y611698D1*
Y605950D1*
X1574830Y602147D1*
X1576731Y600202D1*
X1582479Y598301D1*
X1590128D1*
X1595832Y600202D1*
X1597777Y602147D1*
X1599679Y605950D1*
Y611698D1*
X1597777Y615501D1*
X1593931Y619347D1*
X1588227Y621249D1*
X1580578Y623150D1*
X1576731Y625095D1*
X1574830Y628898D1*
Y632745D1*
X1576731Y636547D1*
X1582479Y638448D1*
X1590128D1*
X1675928Y625095D2*
X1677874Y619347D1*
X1681676Y615501D1*
X1687424Y613599D1*
X1689326D1*
X1695074Y615501D1*
X1698876Y619347D1*
X1700822Y625095D1*
Y626997D1*
X1698876Y632745D1*
X1695074Y636547D1*
X1689326Y638448D1*
X1687424D1*
X1681676Y636547D1*
X1677874Y632745D1*
X1675928Y625095D1*
Y615501D1*
X1677874Y605950D1*
X1681676Y600202D1*
X1687424Y598301D1*
X1691227D1*
X1696975Y600202D1*
X1698876Y604049D1*
X1813169Y630799D2*
X1809322Y632745D1*
X1803574Y638448D1*
Y598301D1*
X1779727Y638448D2*
X1785475Y636547D1*
X1789322Y630799D1*
X1791223Y621249D1*
Y615501D1*
X1789322Y605950D1*
X1785475Y600202D1*
X1779727Y598301D1*
X1775924D1*
X1770176Y600202D1*
X1766374Y605950D1*
X1764428Y615501D1*
Y621249D1*
X1766374Y630799D1*
X1770176Y636547D1*
X1775924Y638448D1*
X1779727D1*
X1766374Y630799D2*
X1789322Y605950D1*
X1906969Y627799D2*
X1903122Y629745D1*
X1897374Y635448D1*
Y595301D1*
X1885023Y627799D2*
X1881176Y629745D1*
X1875428Y635448D1*
Y595301D1*
X2014669Y627799D2*
X2010822Y629745D1*
X2005074Y635448D1*
Y595301D1*
X1990777Y625898D2*
Y627799D1*
X1988876Y631646D1*
X1986975Y633547D1*
X1983128Y635448D1*
X1975479D1*
X1971676Y633547D1*
X1969775Y631646D1*
X1967830Y627799D1*
Y623997D1*
X1969775Y620150D1*
X1973578Y614446D1*
X1992723Y595301D1*
X1965928D1*
X2113669Y627440D2*
X2109822Y629385D1*
X2104074Y635089D1*
Y594941D1*
X2087876Y635089D2*
X2066874D1*
X2078326Y619790D1*
X2072578D1*
X2068775Y617889D1*
X2066874Y615988D1*
X2064928Y610240D1*
Y606437D1*
X2066874Y600689D1*
X2070676Y596842D1*
X2076424Y594941D1*
X2082172D1*
X2087876Y596842D1*
X2089777Y598788D1*
X2091723Y602590D1*
X2176928Y625582D2*
X2178830Y629385D1*
X2182676Y633232D1*
X2186479Y635133D1*
X2194128D1*
X2197975Y633232D1*
X2201777Y629385D1*
X2203723Y625582D1*
X2205624Y619834D1*
Y610240D1*
X2203723Y604536D1*
X2201777Y600689D1*
X2197975Y596887D1*
X2194128Y594941D1*
X2186479D1*
X2182676Y596887D1*
X2178830Y600689D1*
X2176928Y604536D1*
Y610240D1*
X2186479D1*
X2412625Y627440D2*
X2408778Y629385D1*
X2403030Y635089D1*
Y594941D1*
X2381128Y635089D2*
X2386832Y633188D1*
X2388777Y629385D1*
Y625538D1*
X2386832Y621736D1*
X2383029Y619790D1*
X2375380Y617889D1*
X2369632Y615988D1*
X2365830Y612141D1*
X2363928Y608338D1*
Y602590D1*
X2365830Y598788D1*
X2367731Y596842D1*
X2373479Y594941D1*
X2381128D1*
X2386832Y596842D1*
X2388777Y598788D1*
X2390679Y602590D1*
Y608338D1*
X2388777Y612141D1*
X2384931Y615988D1*
X2379227Y617889D1*
X2371578Y619790D1*
X2367731Y621736D1*
X2365830Y625538D1*
Y629385D1*
X2367731Y633188D1*
X2373479Y635089D1*
X2381128D1*
X2512768Y627440D2*
X2508921Y629385D1*
X2503173Y635089D1*
Y594941D1*
X2465928Y621736D2*
X2467874Y615988D1*
X2471676Y612141D1*
X2477424Y610240D1*
X2479326D1*
X2485074Y612141D1*
X2488876Y615988D1*
X2490822Y621736D1*
Y623637D1*
X2488876Y629385D1*
X2485074Y633188D1*
X2479326Y635089D1*
X2477424D1*
X2471676Y633188D1*
X2467874Y629385D1*
X2465928Y621736D1*
Y612141D1*
X2467874Y602590D1*
X2471676Y596842D1*
X2477424Y594941D1*
X2481227D1*
X2486975Y596842D1*
X2488876Y600689D1*
X1915209Y2754226D2*
D134*
Y2741326D1*
X1913750Y2737015D1*
X1912324Y2735556D1*
X1909472Y2734130D1*
X1906587D1*
X1903735Y2735556D1*
X1902276Y2737015D1*
X1900850Y2741326D1*
Y2754226D1*
X1930994D1*
X1915209Y2744178D2*
X1930994Y2734130D1*
X1919520Y2724867D2*
Y2707656D1*
X1916635D1*
X1913750Y2709082D1*
X1912324Y2710508D1*
X1910898Y2713393D1*
Y2717704D1*
X1912324Y2720556D1*
X1915209Y2723441D1*
X1919520Y2724867D1*
X1922372D1*
X1926683Y2723441D1*
X1929535Y2720556D1*
X1930994Y2717704D1*
Y2713393D1*
X1929535Y2710508D1*
X1926683Y2707656D1*
X1915209Y2682607D2*
X1912324Y2684033D1*
X1910898Y2688344D1*
Y2692655D1*
X1912324Y2696966D1*
X1915209Y2698392D1*
X1918061Y2696966D1*
X1919520Y2694081D1*
X1920946Y2686918D1*
X1922372Y2684033D1*
X1925257Y2682607D1*
X1926683D1*
X1929535Y2684033D1*
X1930994Y2688344D1*
Y2692655D1*
X1929535Y2696966D1*
X1926683Y2698392D1*
X1919520Y2673344D2*
Y2656133D1*
X1916635D1*
X1913750Y2657559D1*
X1912324Y2658985D1*
X1910898Y2661870D1*
Y2666181D1*
X1912324Y2669033D1*
X1915209Y2671918D1*
X1919520Y2673344D1*
X1922372D1*
X1926683Y2671918D1*
X1929535Y2669033D1*
X1930994Y2666181D1*
Y2661870D1*
X1929535Y2658985D1*
X1926683Y2656133D1*
X1900850Y2642558D2*
X1925257D1*
X1929535Y2641132D1*
X1930994Y2638247D1*
Y2635395D1*
X1910898Y2646869D2*
Y2636821D1*
X1806022Y2719196D2*
X1831855D1*
X1818955Y2732096D2*
Y2706263D1*
X1803884Y2694114D2*
Y2678362D1*
X1815357Y2686951D1*
Y2682640D1*
X1816783Y2679788D1*
X1818209Y2678362D1*
X1822520Y2676903D1*
X1825372D1*
X1829683Y2678362D1*
X1832568Y2681214D1*
X1833994Y2685525D1*
Y2689836D1*
X1832568Y2694114D1*
X1831109Y2695540D1*
X1828257Y2696999D1*
X1831109Y2666214D2*
X1832568Y2667640D1*
X1833994Y2666214D1*
X1832568Y2664755D1*
X1831109Y2666214D1*
X1803883Y2652606D2*
Y2636854D1*
X1815357Y2645443D1*
Y2641132D1*
X1816783Y2638280D1*
X1818209Y2636854D1*
X1822520Y2635395D1*
X1825372D1*
X1829683Y2636854D1*
X1832568Y2639706D1*
X1833994Y2644017D1*
Y2648328D1*
X1832568Y2652606D1*
X1831109Y2654032D1*
X1828257Y2655491D1*
X1710022Y2704162D2*
X1735855D1*
X1722955Y2717062D2*
Y2691229D1*
X1707884Y2664755D2*
Y2679081D1*
X1720783Y2680507D1*
X1719357Y2679081D1*
X1717898Y2674770D1*
Y2670492D1*
X1719357Y2666181D1*
X1722209Y2663296D1*
X1726520Y2661870D1*
X1729372D1*
X1733683Y2663296D1*
X1736568Y2666181D1*
X1737994Y2670492D1*
Y2674770D1*
X1736568Y2679081D1*
X1735109Y2680507D1*
X1732257Y2681966D1*
X1717898Y2652606D2*
X1737994Y2643984D1*
X1717898Y2635395D1*
X1612013Y2686918D2*
X1609161Y2688344D1*
X1606276Y2691229D1*
X1604850Y2694081D1*
Y2699818D1*
X1606276Y2702703D1*
X1609161Y2705555D1*
X1612013Y2707014D1*
X1616324Y2708440D1*
X1623520D1*
X1627798Y2707014D1*
X1630683Y2705555D1*
X1633535Y2702703D1*
X1634994Y2699818D1*
Y2694081D1*
X1633535Y2691229D1*
X1630683Y2688344D1*
X1627798Y2686918D1*
X1623520D1*
Y2694081D1*
X1614898Y2677655D2*
X1634994D1*
X1620635D2*
X1616324Y2673344D1*
X1614898Y2670459D1*
Y2666181D1*
X1616324Y2663296D1*
X1620635Y2661870D1*
X1634994D1*
X1604850Y2635395D2*
X1634994D1*
X1619209D2*
X1616324Y2638247D1*
X1614898Y2641132D1*
Y2645443D1*
X1616324Y2648295D1*
X1619209Y2651180D1*
X1623520Y2652606D1*
X1626372D1*
X1630683Y2651180D1*
X1633535Y2648295D1*
X1634994Y2645443D1*
Y2641132D1*
X1633535Y2638247D1*
X1630683Y2635395D1*
X1513013Y2686918D2*
X1510161Y2688344D1*
X1507276Y2691229D1*
X1505850Y2694081D1*
Y2699818D1*
X1507276Y2702703D1*
X1510161Y2705555D1*
X1513013Y2707014D1*
X1517324Y2708440D1*
X1524520D1*
X1528798Y2707014D1*
X1531683Y2705555D1*
X1534535Y2702703D1*
X1535994Y2699818D1*
Y2694081D1*
X1534535Y2691229D1*
X1531683Y2688344D1*
X1528798Y2686918D1*
X1524520D1*
Y2694081D1*
X1515898Y2677655D2*
X1535994D1*
X1521635D2*
X1517324Y2673344D1*
X1515898Y2670459D1*
Y2666181D1*
X1517324Y2663296D1*
X1521635Y2661870D1*
X1535994D1*
X1505850Y2635395D2*
X1535994D1*
X1520209D2*
X1517324Y2638247D1*
X1515898Y2641132D1*
Y2645443D1*
X1517324Y2648295D1*
X1520209Y2651180D1*
X1524520Y2652606D1*
X1527372D1*
X1531683Y2651180D1*
X1534535Y2648295D1*
X1535994Y2645443D1*
Y2641132D1*
X1534535Y2638247D1*
X1531683Y2635395D1*
X1401850Y2696966D2*
X1431994Y2685492D1*
X1401850Y2674018D1*
Y2664755D2*
X1431994D1*
X1401850Y2635395D2*
X1431994D1*
X1401850Y2655491D1*
X1431994D1*
X1220304Y2643288D2*
X1215993Y2644714D1*
X1213108Y2649025D1*
X1211682Y2656188D1*
Y2660499D1*
X1213108Y2667662D1*
X1215993Y2671973D1*
X1220304Y2673399D1*
X1223156D1*
X1227467Y2671973D1*
X1230319Y2667662D1*
X1231778Y2660499D1*
Y2656188D1*
X1230319Y2649025D1*
X1227467Y2644714D1*
X1223156Y2643288D1*
X1220304D1*
X1230319Y2649025D2*
X1213108Y2667662D1*
X1119131Y2649025D2*
X1122017Y2647566D1*
X1126328Y2643288D1*
Y2673398D1*
X1016691Y2650451D2*
Y2649025D1*
X1018117Y2646140D1*
X1019543Y2644714D1*
X1022428Y2643288D1*
X1028165D1*
X1031017Y2644714D1*
X1032442Y2646140D1*
X1033902Y2649025D1*
Y2651877D1*
X1032442Y2654762D1*
X1029591Y2659039D1*
X1015232Y2673399D1*
X1035328Y2673398D1*
X917117Y2643288D2*
X932868D1*
X924280Y2654762D1*
X928591D1*
X931442Y2656188D1*
X932868Y2657614D1*
X934328Y2661925D1*
Y2664776D1*
X932868Y2669087D1*
X930017Y2671973D1*
X925706Y2673399D1*
X921395D1*
X917117Y2671973D1*
X915691Y2670513D1*
X914232Y2667662D1*
X826165Y2673399D2*
Y2643288D1*
X811806Y2663351D1*
X833328Y2663350D1*
X729442Y2643288D2*
X715117D1*
X713691Y2656188D1*
X715117Y2654762D1*
X719428Y2653303D1*
X723706D1*
X728017Y2654762D1*
X730902Y2657614D1*
X732328Y2661925D1*
Y2664776D1*
X730902Y2669087D1*
X728017Y2671973D1*
X723706Y2673399D1*
X719428D1*
X715117Y2671973D1*
X713691Y2670513D1*
X712232Y2667662D1*
X2020209Y2702703D2*
Y2689803D1*
X2018750Y2685492D1*
X2017324Y2684033D1*
X2014472Y2682607D1*
X2011587D1*
X2008735Y2684033D1*
X2007276Y2685492D1*
X2005850Y2689803D1*
Y2702703D1*
X2035994D1*
X2020209Y2692655D2*
X2035994Y2682607D1*
X2024520Y2673344D2*
Y2656133D1*
X2021635D1*
X2018750Y2657559D1*
X2017324Y2658985D1*
X2015898Y2661870D1*
Y2666181D1*
X2017324Y2669033D1*
X2020209Y2671918D1*
X2024520Y2673344D1*
X2027372D1*
X2031683Y2671918D1*
X2034535Y2669033D1*
X2035994Y2666181D1*
Y2661870D1*
X2034535Y2658985D1*
X2031683Y2656133D1*
X2005850Y2635395D2*
Y2638247D1*
X2007276Y2641132D1*
X2011587Y2642558D1*
X2035994D1*
X2015898Y2646869D2*
Y2636821D1*
M02*
