G04 DipTrace 3.3.1.3*
G04 T4LSSArduinoShield.gts*
%MOIN*%
G04 #@! TF.FileFunction,Soldermask,Top*
G04 #@! TF.Part,Single*
%ADD15C,0.04*%
%ADD35C,0.074*%
%ADD37R,0.031496X0.035433*%
%ADD42C,0.06194*%
%ADD43C,0.074*%
%ADD47C,0.065199*%
%ADD48R,0.074X0.074*%
%ADD69C,0.142*%
%ADD71C,0.052*%
%ADD73C,0.042*%
%ADD75R,0.037433X0.04137*%
%ADD77O,0.179165X0.08074*%
%ADD79O,0.08074X0.179165*%
%ADD81O,0.08074X0.19885*%
%ADD83R,0.072866X0.072866*%
%ADD85C,0.072866*%
%ADD87R,0.035465X0.053181*%
%ADD89R,0.033496X0.064992*%
%ADD95R,0.05515X0.025622*%
%ADD97R,0.08074X0.049244*%
%ADD99R,0.052X0.027*%
%ADD105R,0.08074X0.025622*%
%ADD109R,0.061055X0.053181*%
%ADD115C,0.06578*%
%ADD117R,0.06578X0.06578*%
%ADD119C,0.139795*%
%ADD121C,0.064992*%
%ADD123R,0.064992X0.064992*%
%ADD125C,0.061055*%
%ADD127R,0.061055X0.061055*%
%ADD129R,0.053181X0.061055*%
%FSLAX26Y26*%
G04*
G70*
G90*
G75*
G01*
G04 TopMask*
%LPD*%
D73*
X931700Y1728700D3*
X1525700Y781700D3*
X1295700D3*
X1206700Y931102D3*
X1815700Y1967700D3*
X1736700Y1580700D3*
X1249700Y1348700D3*
X833700Y800700D3*
X1751700Y851700D3*
X2129700Y1279700D3*
X1958700Y1664700D3*
X1190700Y754700D3*
X1942700Y603700D3*
X1358700Y1534700D3*
X2669700Y2108700D3*
X2398700Y1426700D3*
X1672700Y2824700D3*
X2335700Y2728700D3*
X604700Y2440700D3*
D71*
X1337700Y2405700D3*
D73*
X1780165Y1376700D3*
D3*
X1680700Y1113700D3*
X1416700Y1343700D3*
X980700Y956700D3*
X1997700Y1262700D3*
D69*
X2795275Y688976D3*
X511810D3*
Y2618109D3*
X2795275D3*
D15*
X845700Y2668700D3*
X1056834Y2668869D3*
X1897700Y1661700D3*
X2391700Y1068700D3*
X1952700Y1089700D3*
X2333700Y2447700D3*
X774700Y1632700D3*
X493700Y1671188D3*
X682700Y893700D3*
X898700Y1587700D3*
X2336700Y761700D3*
Y1121700D3*
X2068700Y1890700D3*
X1586700Y872700D3*
X1727700Y597700D3*
X1456700Y1501700D3*
X1434700Y1554700D3*
X2357700Y1542700D3*
X2617700Y2128700D3*
X1536700Y1600700D3*
X605700Y2373700D3*
X1468700Y1315700D3*
X1591700Y1393700D3*
X1636672Y1542523D3*
X1050672Y1622511D3*
X2793700Y2023767D3*
X1361700Y1479700D3*
X1356700Y1297700D3*
X2495700Y1026700D3*
X2729700Y786700D3*
X2785590Y960665D3*
D129*
X1168700Y1557700D3*
X1093897D3*
X1175700Y1457700D3*
X1100897D3*
D127*
X1593700Y2793700D3*
D125*
X1493700D3*
X1393700D3*
X1293700D3*
X1193700D3*
X1093700D3*
X993700D3*
D127*
X843700D3*
D125*
X743700D3*
X643700D3*
X543700D3*
D127*
X493700Y518700D3*
D125*
X593700D3*
X693700D3*
X793700D3*
X893700D3*
X993700D3*
X1093700D3*
X1193700D3*
D127*
X1343700D3*
D125*
X1443700D3*
X1543700D3*
X1643700D3*
X1743700D3*
D127*
X1922830Y2468700D3*
D125*
X2022830D3*
X2122830D3*
D123*
X911747Y2331495D3*
D121*
Y2233070D3*
Y2154330D3*
Y2055905D3*
D119*
X805054Y2452361D3*
Y1935039D3*
D117*
X1222834Y2588976D3*
D115*
X1122834D3*
X1022834D3*
X922834D3*
X822834D3*
X722834D3*
D117*
X2122834D3*
D115*
X2022834D3*
X1922834D3*
X1822834D3*
X1722834D3*
X1622834D3*
X1522834D3*
X1422834D3*
D117*
X722834Y688976D3*
D115*
X822834D3*
X922834D3*
X1022834D3*
X1122834D3*
X1222834D3*
X1322834D3*
X1422834D3*
D117*
X1582834D3*
D115*
X1682834D3*
X1782834D3*
X1882834D3*
X1982834D3*
X2082834D3*
X2182834D3*
X2282834D3*
X2382834D3*
X2482834D3*
D127*
X1893700Y518700D3*
D125*
X1993700D3*
X2093700D3*
X2193700D3*
X2293700D3*
X2393700D3*
D127*
X2543700D3*
D125*
X2643700D3*
X2743700D3*
D127*
X2243700Y2793700D3*
D125*
X2143700D3*
X2043700D3*
X1943700D3*
X1843700D3*
X1743700D3*
D127*
X1031700Y2118700D3*
D125*
Y2218700D3*
D35*
X1272700Y1931700D3*
X1372700D3*
X1472700D3*
D37*
X1041700Y906070D3*
X966897D3*
X1004298Y823393D3*
X605700Y887700D3*
X530897D3*
X568298Y805023D3*
X903700Y906070D3*
X828897D3*
X866298Y823393D3*
X1357700Y933070D3*
X1282897D3*
X1320298Y850393D3*
D129*
X2399700Y2587700D3*
X2324897D3*
X2320700Y2665700D3*
X2395503D3*
X1357700Y1042700D3*
X1282897D3*
X980897Y1016700D3*
X1055700D3*
D109*
X1119700Y856298D3*
Y931102D3*
X1206700Y856298D3*
Y931102D3*
D129*
X898700Y1016700D3*
X823897D3*
X678298Y1036700D3*
X753102D3*
D109*
X680700Y794298D3*
Y869102D3*
X755700Y794298D3*
Y869102D3*
D105*
X968700Y1430700D3*
Y1480700D3*
Y1530700D3*
Y1580700D3*
X756102D3*
Y1530700D3*
Y1480700D3*
Y1430700D3*
D42*
X493700Y1183700D3*
X593700D3*
X693700D3*
X793700D3*
X893700D3*
X993700D3*
X1093700D3*
X1193700D3*
X1293700D3*
X1393700D3*
X1493700D3*
X1593700D3*
X1693700D3*
X1793700D3*
X2293700Y1283700D3*
X593700Y1683700D3*
D43*
X515700Y1528700D3*
Y1438700D3*
D42*
X2093700Y1783700D3*
X1793700D3*
X1693700D3*
X1593700D3*
X1493700D3*
X1393700D3*
X1293700D3*
X1193700D3*
X1093700D3*
X993700D3*
X893700D3*
X793700D3*
X693700D3*
X593700D3*
X493700D3*
X2293700Y1683700D3*
X743700Y1308700D3*
X843700D3*
X943700D3*
X2393700Y1183700D3*
X2493700D3*
X2293700D3*
X2193700D3*
X2093700D3*
X1993700D3*
X2593700D3*
X2693700D3*
X2793700D3*
Y1783700D3*
X1893700Y1183700D3*
X2693700Y1783700D3*
X1893700D3*
X2593700D3*
X2393700D3*
X2293700D3*
X2193700D3*
X2493700D3*
X1993700D3*
X2293700Y1583700D3*
X1043700Y1308700D3*
X1143700D3*
D99*
X1522700Y1323700D3*
Y1358700D3*
Y1393700D3*
X1700700Y1323700D3*
Y1358700D3*
Y1393700D3*
D127*
X1953700Y868700D3*
D125*
Y968700D3*
X2053700Y868700D3*
Y968700D3*
X2153700Y868700D3*
Y968700D3*
D127*
X2333700Y868700D3*
D125*
Y968700D3*
X2433700Y868700D3*
Y968700D3*
X2533700Y868700D3*
Y968700D3*
D127*
X2593700Y2793700D3*
D125*
X2493700D3*
X2393700D3*
D97*
X2813385Y1898464D3*
Y2118936D3*
D95*
X2668700Y1949645D3*
Y1989015D3*
Y2028385D3*
Y2067755D3*
D97*
X2813385Y833464D3*
Y1053936D3*
D95*
X2668700Y884645D3*
Y924015D3*
Y963385D3*
Y1002755D3*
D47*
X2239700Y2214700D3*
X2139700D3*
X2039700D3*
X1939700D3*
X2247700Y1967700D3*
X2147700D3*
X2047700D3*
X1947700D3*
D35*
X1736700Y2474700D3*
D48*
Y2374700D3*
D35*
Y2274700D3*
Y2174700D3*
X1731700Y2074700D3*
D127*
X2535700Y1935700D3*
D125*
X2435700D3*
X2535700Y2035700D3*
X2435700D3*
D127*
X1658700Y1022440D3*
D125*
Y864960D3*
D129*
X1819897Y777700D3*
X1894700D3*
D89*
X1432700Y881771D3*
Y1015629D3*
D127*
X1867700Y1075700D3*
D87*
X1891700Y1376700D3*
X1816897D3*
X1854298Y1290086D3*
D109*
X1981700Y1378700D3*
Y1303897D3*
D85*
X2603700Y1327700D3*
D83*
X2210787D3*
D81*
X2447700Y2346700D3*
D79*
X2683920D3*
D77*
X2565810Y2539613D3*
D75*
X2688700Y2761700D3*
X2850117D3*
Y2824692D3*
X2688700D3*
X452991Y1012204D3*
X614409D3*
Y1075196D3*
X452991D3*
M02*
