M48
INCH
T01C0.0191
T02C0.038
%
T02
X+004437Y+004437
X+005437Y+004437
X+006437Y+004437
X+007437Y+004437
X+008437Y+004437
X+009437Y+004437
X+010437Y+004437
X+011437Y+004437
X+012437Y+004437
X+013437Y+004437
X+014437Y+004437
X+015437Y+004437
X+016437Y+004437
X+017437Y+004437
X+022437Y+005437
X+022437Y+006437
X+022437Y+007437
X+022437Y+008437
X+020437Y+010437
X+017437Y+010437
X+016437Y+010437
X+015437Y+010437
X+014437Y+010437
X+013437Y+010437
X+012437Y+010437
X+011437Y+010437
X+010437Y+010437
X+009437Y+010437
X+008437Y+010437
X+007437Y+010437
X+006437Y+010437
X+005437Y+010437
X+004437Y+010437
X+005437Y+009437
X+007437Y+009437
X+008437Y+009437
X+009437Y+009437
X+023437Y+004437
X+024437Y+004437
X+022437Y+004437
X+021437Y+004437
X+020437Y+004437
X+019437Y+004437
X+025437Y+004437
X+026437Y+004437
X+027437Y+004437
X+027437Y+010437
X+018437Y+004437
X+026437Y+010437
X+018437Y+010437
X+025437Y+010437
X+023437Y+010437
X+022437Y+010437
X+021437Y+010437
X+024437Y+010437
X+019437Y+010437
X+022437Y+009437
X+017437Y+005437
X+017437Y+006437
X+017437Y+007437
X+017437Y+008437
X+017437Y+009437
X+016437Y+007437
X+016437Y+008437
X+015437Y+007437
X+014437Y+007437
X+013437Y+007437
X+012437Y+007437
X+015437Y+008437
X+014437Y+008437
X+013437Y+008437
X+012437Y+008437
X+011437Y+008437
X+010437Y+008437
X+011437Y+007437
X+010437Y+007437
X+006937Y+007437
T01
X+015737Y+005487
X+023137Y+008337
X+023137Y+005337
X+009937Y+009937
X+009437Y+008288
X+023537Y+005937
X+027537Y+005937
X+023537Y+007937
X+023537Y+006537
T00
M30
