G04 DipTrace 3.0.0.2*
G04 Teensy-TC36--T3.2-Adapter.gtl*
%MOIN*%
G04 #@! TF.FileFunction,Copper,L1,Top*
G04 #@! TF.Part,Single*
G04 #@! TA.AperFunction,Conductor*
%ADD13C,0.008*%
%ADD14C,0.007*%
G04 #@! TA.AperFunction,ComponentPad*
%ADD16C,0.06194*%
G04 #@! TA.AperFunction,ViaPad*
%ADD17C,0.04*%
%FSLAX26Y26*%
G04*
G70*
G90*
G75*
G01*
G04 Top*
%LPD*%
X1243701Y743701D2*
D13*
Y692857D1*
X1448857Y487701D1*
X1899701D1*
X1943701Y443701D1*
X1343701Y743701D2*
Y658701D1*
X1489659Y512743D1*
X1688057D1*
Y598701D1*
X1888701D1*
X2043701Y443701D1*
X2143701D2*
X1899701Y687701D1*
X1697701D1*
X1677701Y667701D1*
X1459701D1*
X1443701Y683701D1*
Y743701D1*
X2243701Y443701D2*
X1898701Y788701D1*
X1588701D1*
X1543701Y743701D1*
X1573701Y548701D2*
Y643701D1*
X1418701D1*
X1387701Y674701D1*
Y771701D1*
X1403701Y787701D1*
X1471701D1*
X1487701Y771701D1*
Y715701D1*
X1503701Y699701D1*
X1599701D1*
X1643701Y743701D1*
X1243701Y843701D2*
D14*
X1286482Y886482D1*
X2586482D1*
X2743701Y1043701D1*
X2753701Y593701D2*
D13*
X2353701D1*
Y653701D2*
Y793701D1*
X2313701Y533701D2*
Y833701D1*
X2243701Y843701D2*
X1743701D1*
X943654Y828841D2*
X947626D1*
X996194Y877410D1*
Y994544D1*
X995352Y993701D1*
X993701D1*
X2543701Y1043701D2*
D14*
X2402138Y902138D1*
X1102138D1*
X1043701Y843701D1*
X1143701Y743701D2*
D13*
X1083701Y683701D1*
X683701D1*
X443701Y443701D1*
X1143701Y843701D2*
X1087701Y787701D1*
X659701D1*
X643701Y803701D1*
Y1043701D1*
X1743701Y943701D2*
X1943701D1*
X2043701Y1043701D1*
D17*
X1573701Y548701D3*
X2313701Y833701D3*
Y533701D3*
X993701Y993701D3*
X943654Y828841D3*
X2353701Y593701D3*
X2753701D3*
X2353701Y793701D3*
Y653701D3*
D16*
X443701Y443701D3*
X543701D3*
X643701D3*
X743701D3*
X843701D3*
X943701D3*
X1043701D3*
X1143701D3*
X1243701D3*
X1343701D3*
X1443701D3*
X1543701D3*
X1643701D3*
X1743701D3*
X2243701Y543701D3*
Y643701D3*
Y743701D3*
Y843701D3*
X2043701Y1043701D3*
X1743701D3*
X1643701D3*
X1543701D3*
X1443701D3*
X1343701D3*
X1243701D3*
X1143701D3*
X1043701D3*
X943701D3*
X843701D3*
X743701D3*
X643701D3*
X543701D3*
X443701D3*
X543701Y943701D3*
X743701D3*
X843701D3*
X943701D3*
X2343701Y443701D3*
X2443701D3*
X2243701D3*
X2143701D3*
X2043701D3*
X1943701D3*
X2543701D3*
X2643701D3*
X2743701D3*
Y1043701D3*
X1843701Y443701D3*
X2643701Y1043701D3*
X1843701D3*
X2543701D3*
X2343701D3*
X2243701D3*
X2143701D3*
X2443701D3*
X1943701D3*
X2243701Y943701D3*
X1743701Y543701D3*
Y643701D3*
Y743701D3*
Y843701D3*
Y943701D3*
X1643701Y743701D3*
Y843701D3*
X1543701Y743701D3*
X1443701D3*
X1343701D3*
X1243701D3*
X1543701Y843701D3*
X1443701D3*
X1343701D3*
X1243701D3*
X1143701D3*
X1043701D3*
X1143701Y743701D3*
X1043701D3*
X693701D3*
M02*
