G04 DipTrace 3.0.0.2*
G04 Teensy-TC36--T3.2-Adapter.gto*
%MOIN*%
G04 #@! TF.FileFunction,Legend,Top*
G04 #@! TF.Part,Single*
%ADD13C,0.008*%
%ADD14C,0.007*%
%FSLAX26Y26*%
G04*
G70*
G90*
G75*
G01*
G04 TopSilk*
%LPD*%
X443621Y693721D2*
D13*
Y793681D1*
X393701D1*
Y1093701D1*
X2793701D1*
Y393701D1*
X393701D1*
Y693721D1*
X443621D1*
X650635Y678141D2*
D14*
X663535D1*
X667846Y679601D1*
X669305Y681027D1*
X670731Y683878D1*
Y686763D1*
X669305Y689615D1*
X667846Y691075D1*
X663535Y692500D1*
X650635D1*
Y662356D1*
X660683Y678141D2*
X670731Y662356D1*
X704827Y688189D2*
X701975Y691075D1*
X697664Y692500D1*
X691927D1*
X687616Y691075D1*
X684731Y688189D1*
Y685338D1*
X686191Y682452D1*
X687616Y681027D1*
X690468Y679601D1*
X699090Y676715D1*
X701975Y675290D1*
X703401Y673830D1*
X704827Y670979D1*
Y666667D1*
X701975Y663816D1*
X697664Y662356D1*
X691927D1*
X687616Y663816D1*
X684731Y666667D1*
X728875Y692500D2*
Y662356D1*
X718827Y692500D2*
X738923D1*
X2107599Y941964D2*
X2120499D1*
X2124810Y943423D1*
X2126269Y944849D1*
X2127695Y947701D1*
Y950586D1*
X2126269Y953438D1*
X2124810Y954897D1*
X2120499Y956323D1*
X2107599D1*
Y926179D1*
X2117647Y941964D2*
X2127695Y926179D1*
X2161791Y952012D2*
X2158939Y954897D1*
X2154628Y956323D1*
X2148891D1*
X2144580Y954897D1*
X2141695Y952012D1*
Y949160D1*
X2143154Y946275D1*
X2144580Y944849D1*
X2147432Y943423D1*
X2156054Y940538D1*
X2158939Y939112D1*
X2160365Y937653D1*
X2161791Y934801D1*
Y930490D1*
X2158939Y927638D1*
X2154628Y926179D1*
X2148891D1*
X2144580Y927638D1*
X2141695Y930490D1*
X2185839Y956323D2*
Y926179D1*
X2175791Y956323D2*
X2195887D1*
X2101210Y844702D2*
X2114143D1*
X2118421Y846128D1*
X2119880Y847587D1*
X2121306Y850439D1*
Y854750D1*
X2119880Y857602D1*
X2118421Y859061D1*
X2114143Y860487D1*
X2101210D1*
Y830343D1*
X2156828Y853324D2*
X2155402Y856176D1*
X2152517Y859061D1*
X2149665Y860487D1*
X2143928D1*
X2141043Y859061D1*
X2138191Y856176D1*
X2136732Y853324D1*
X2135306Y849013D1*
Y841817D1*
X2136732Y837539D1*
X2138191Y834654D1*
X2141043Y831802D1*
X2143928Y830343D1*
X2149665D1*
X2152517Y831802D1*
X2155402Y834654D1*
X2156828Y837539D1*
Y841817D1*
X2149665D1*
X2193776Y830343D2*
Y860487D1*
X2182302Y830343D1*
X2170828Y860487D1*
Y830343D1*
X1791599Y843380D2*
X1804532D1*
X1808810Y844805D1*
X1810269Y846265D1*
X1811695Y849117D1*
Y853428D1*
X1810269Y856279D1*
X1808810Y857739D1*
X1804532Y859165D1*
X1791599D1*
Y829021D1*
X1847217Y852002D2*
X1845791Y854853D1*
X1842906Y857739D1*
X1840054Y859165D1*
X1834317D1*
X1831432Y857739D1*
X1828580Y854853D1*
X1827121Y852002D1*
X1825695Y847691D1*
Y840494D1*
X1827121Y836217D1*
X1828580Y833332D1*
X1831432Y830480D1*
X1834317Y829021D1*
X1840054D1*
X1842906Y830480D1*
X1845791Y833332D1*
X1847217Y836217D1*
Y840494D1*
X1840054D1*
X1884165Y829021D2*
Y859165D1*
X1872691Y829021D1*
X1861217Y859165D1*
Y829021D1*
X2125342Y751907D2*
X2123916Y754759D1*
X2121031Y757644D1*
X2118179Y759070D1*
X2112442D1*
X2109557Y757644D1*
X2106705Y754759D1*
X2105246Y751907D1*
X2103820Y747596D1*
Y740400D1*
X2105246Y736122D1*
X2106705Y733237D1*
X2109557Y730385D1*
X2112442Y728926D1*
X2118179D1*
X2121031Y730385D1*
X2123916Y733237D1*
X2125342Y736122D1*
Y740400D1*
X2118179D1*
X2159438Y759070D2*
Y728926D1*
X2139342Y759070D1*
Y728926D1*
X2173438Y759070D2*
Y728926D1*
X2183486D1*
X2187797Y730385D1*
X2190682Y733237D1*
X2192108Y736122D1*
X2193534Y740400D1*
Y747596D1*
X2192108Y751907D1*
X2190682Y754759D1*
X2187797Y757644D1*
X2183486Y759070D1*
X2173438D1*
X1811249Y751650D2*
X1809823Y754502D1*
X1806938Y757387D1*
X1804086Y758813D1*
X1798349D1*
X1795464Y757387D1*
X1792612Y754502D1*
X1791153Y751650D1*
X1789727Y747339D1*
Y740143D1*
X1791153Y735865D1*
X1792612Y732980D1*
X1795464Y730128D1*
X1798349Y728669D1*
X1804086D1*
X1806938Y730128D1*
X1809823Y732980D1*
X1811249Y735865D1*
Y740143D1*
X1804086D1*
X1845345Y758813D2*
Y728669D1*
X1825249Y758813D1*
Y728669D1*
X1859345Y758813D2*
Y728669D1*
X1869393D1*
X1873704Y730128D1*
X1876589Y732980D1*
X1878015Y735865D1*
X1879441Y740143D1*
Y747339D1*
X1878015Y751650D1*
X1876589Y754502D1*
X1873704Y757387D1*
X1869393Y758813D1*
X1859345D1*
X2062823Y658723D2*
Y632890D1*
X2049923Y645790D2*
X2075756D1*
X2092641Y660862D2*
X2108393D1*
X2099804Y649388D1*
X2104115D1*
X2106967Y647962D1*
X2108393Y646536D1*
X2109852Y642225D1*
Y639374D1*
X2108393Y635062D1*
X2105541Y632177D1*
X2101230Y630751D1*
X2096919D1*
X2092641Y632177D1*
X2091215Y633637D1*
X2089756Y636488D1*
X2125278Y633637D2*
X2123852Y632177D1*
X2125278Y630751D1*
X2126737Y632177D1*
X2125278Y633637D1*
X2143622Y660862D2*
X2159374D1*
X2150785Y649388D1*
X2155096D1*
X2157948Y647962D1*
X2159374Y646536D1*
X2160833Y642225D1*
Y639374D1*
X2159374Y635062D1*
X2156522Y632177D1*
X2152211Y630751D1*
X2147900D1*
X2143622Y632177D1*
X2142196Y633637D1*
X2140737Y636488D1*
X2174833Y660895D2*
X2186307Y630751D1*
X2197781Y660895D1*
X1803958Y659726D2*
Y633893D1*
X1791058Y646793D2*
X1816891D1*
X1833776Y661865D2*
X1849528D1*
X1840939Y650391D1*
X1845250D1*
X1848102Y648965D1*
X1849528Y647539D1*
X1850987Y643228D1*
Y640376D1*
X1849528Y636065D1*
X1846676Y633180D1*
X1842365Y631754D1*
X1838054D1*
X1833776Y633180D1*
X1832350Y634639D1*
X1830891Y637491D1*
X1866413Y634639D2*
X1864987Y633180D1*
X1866413Y631754D1*
X1867872Y633180D1*
X1866413Y634639D1*
X1884757Y661865D2*
X1900509D1*
X1891920Y650391D1*
X1896231D1*
X1899083Y648965D1*
X1900509Y647539D1*
X1901968Y643228D1*
Y640376D1*
X1900509Y636065D1*
X1897657Y633180D1*
X1893346Y631754D1*
X1889035D1*
X1884757Y633180D1*
X1883331Y634639D1*
X1881872Y637491D1*
X1915968Y661898D2*
X1927442Y631754D1*
X1938916Y661898D1*
X2068755Y562721D2*
X2080229Y532577D1*
X2091703Y562721D1*
X2105703D2*
Y532577D1*
X2118636D1*
X2122947Y534036D1*
X2124373Y535462D1*
X2125799Y538314D1*
Y542625D1*
X2124373Y545510D1*
X2122947Y546936D1*
X2118636Y548362D1*
X2122947Y549821D1*
X2124373Y551247D1*
X2125799Y554099D1*
Y556984D1*
X2124373Y559836D1*
X2122947Y561295D1*
X2118636Y562721D1*
X2105703D1*
Y548362D2*
X2118636D1*
X2162780Y532577D2*
X2151273Y562721D1*
X2139799Y532577D1*
X2144110Y542625D2*
X2158469D1*
X2186828Y562721D2*
Y532577D1*
X2176780Y562721D2*
X2196876D1*
X1790054Y563724D2*
X1801528Y533580D1*
X1813002Y563724D1*
X1827002D2*
Y533580D1*
X1839935D1*
X1844246Y535039D1*
X1845672Y536465D1*
X1847098Y539317D1*
Y543628D1*
X1845672Y546513D1*
X1844246Y547939D1*
X1839935Y549365D1*
X1844246Y550824D1*
X1845672Y552250D1*
X1847098Y555102D1*
Y557987D1*
X1845672Y560838D1*
X1844246Y562298D1*
X1839935Y563724D1*
X1827002D1*
Y549365D2*
X1839935D1*
X1884079Y533580D2*
X1872572Y563724D1*
X1861098Y533580D1*
X1865409Y543628D2*
X1879768D1*
X1908127Y563724D2*
Y533580D1*
X1898079Y563724D2*
X1918175D1*
X1818329Y923116D2*
X1806822Y953260D1*
X1795348Y923116D1*
X1799659Y933164D2*
X1814018D1*
X1833788Y946064D2*
Y947490D1*
X1835214Y950375D1*
X1836640Y951801D1*
X1839525Y953227D1*
X1845262D1*
X1848114Y951801D1*
X1849540Y950375D1*
X1850999Y947490D1*
Y944638D1*
X1849540Y941753D1*
X1846688Y937475D1*
X1832329Y923116D1*
X1852425D1*
X1866425Y947490D2*
X1869310Y948949D1*
X1873621Y953227D1*
Y923116D1*
X1887621D2*
X1907717Y953227D1*
X1921717Y953260D2*
Y923116D1*
X1931765D1*
X1936076Y924575D1*
X1938961Y927427D1*
X1940387Y930312D1*
X1941813Y934590D1*
Y941786D1*
X1940387Y946097D1*
X1938961Y948949D1*
X1936076Y951834D1*
X1931765Y953260D1*
X1921717D1*
X1978794Y923116D2*
X1967287Y953260D1*
X1955813Y923116D1*
X1960124Y933164D2*
X1974483D1*
X2014316Y946097D2*
X2012890Y948949D1*
X2010005Y951834D1*
X2007153Y953260D1*
X2001416D1*
X1998531Y951834D1*
X1995679Y948949D1*
X1994220Y946097D1*
X1992794Y941786D1*
Y934590D1*
X1994220Y930312D1*
X1995679Y927427D1*
X1998531Y924575D1*
X2001416Y923116D1*
X2007153D1*
X2010005Y924575D1*
X2012890Y927427D1*
X2014316Y930312D1*
X2036938Y953227D2*
X2032627Y951801D1*
X2029742Y947490D1*
X2028316Y940327D1*
Y936016D1*
X2029742Y928853D1*
X2032627Y924542D1*
X2036938Y923116D1*
X2039790D1*
X2044101Y924542D1*
X2046953Y928853D1*
X2048412Y936016D1*
Y940327D1*
X2046953Y947490D1*
X2044101Y951801D1*
X2039790Y953227D1*
X2036938D1*
X2046953Y947490D2*
X2029742Y928853D1*
X1161833Y986063D2*
Y970311D1*
X1150359Y978900D1*
Y974589D1*
X1148933Y971737D1*
X1147508Y970311D1*
X1143196Y968852D1*
X1140345D1*
X1136034Y970311D1*
X1133148Y973163D1*
X1131723Y977474D1*
Y981785D1*
X1133149Y986063D1*
X1134608Y987488D1*
X1137460Y988948D1*
X1134608Y953426D2*
X1133149Y954852D1*
X1131723Y953426D1*
X1133149Y951967D1*
X1134608Y953426D1*
X1161833Y935082D2*
Y919330D1*
X1150359Y927919D1*
Y923608D1*
X1148933Y920756D1*
X1147508Y919330D1*
X1143197Y917871D1*
X1140345D1*
X1136034Y919330D1*
X1133149Y922182D1*
X1131723Y926493D1*
Y930804D1*
X1133149Y935082D1*
X1134608Y936508D1*
X1137460Y937967D1*
X1161867Y903871D2*
X1131723Y892397D1*
X1161867Y880923D1*
X1061833Y946063D2*
Y930311D1*
X1050359Y938900D1*
Y934589D1*
X1048933Y931737D1*
X1047508Y930311D1*
X1043196Y928852D1*
X1040345D1*
X1036034Y930311D1*
X1033148Y933163D1*
X1031723Y937474D1*
Y941785D1*
X1033149Y946063D1*
X1034608Y947488D1*
X1037460Y948948D1*
X1061833Y897641D2*
Y911967D1*
X1048933Y913393D1*
X1050359Y911967D1*
X1051819Y907656D1*
Y903378D1*
X1050359Y899067D1*
X1047508Y896182D1*
X1043197Y894756D1*
X1040345D1*
X1036034Y896182D1*
X1033149Y899067D1*
X1031723Y903378D1*
Y907656D1*
X1033149Y911967D1*
X1034608Y913393D1*
X1037460Y914852D1*
X1256833Y941063D2*
Y925311D1*
X1245359Y933900D1*
Y929589D1*
X1243933Y926737D1*
X1242508Y925311D1*
X1238196Y923852D1*
X1235345D1*
X1231034Y925311D1*
X1228148Y928163D1*
X1226723Y932474D1*
Y936785D1*
X1228149Y941063D1*
X1229608Y942488D1*
X1232460Y943948D1*
X1256833Y906967D2*
Y891215D1*
X1245359Y899804D1*
Y895493D1*
X1243933Y892641D1*
X1242508Y891215D1*
X1238197Y889756D1*
X1235345D1*
X1231034Y891215D1*
X1228149Y894067D1*
X1226723Y898378D1*
Y902689D1*
X1228149Y906967D1*
X1229608Y908393D1*
X1232460Y909852D1*
X1361833Y946063D2*
Y930311D1*
X1350359Y938900D1*
Y934589D1*
X1348933Y931737D1*
X1347508Y930311D1*
X1343196Y928852D1*
X1340345D1*
X1336034Y930311D1*
X1333148Y933163D1*
X1331723Y937474D1*
Y941785D1*
X1333149Y946063D1*
X1334608Y947488D1*
X1337460Y948948D1*
X1354670Y913393D2*
X1356096D1*
X1358981Y911967D1*
X1360407Y910541D1*
X1361833Y907656D1*
Y901919D1*
X1360407Y899067D1*
X1358981Y897641D1*
X1356096Y896182D1*
X1353245D1*
X1350359Y897641D1*
X1346082Y900493D1*
X1331723Y914852D1*
Y894756D1*
X1456833Y946063D2*
Y930311D1*
X1445359Y938900D1*
Y934589D1*
X1443933Y931737D1*
X1442508Y930311D1*
X1438196Y928852D1*
X1435345D1*
X1431034Y930311D1*
X1428148Y933163D1*
X1426723Y937474D1*
Y941785D1*
X1428149Y946063D1*
X1429608Y947488D1*
X1432460Y948948D1*
X1451096Y914852D2*
X1452556Y911967D1*
X1456833Y907656D1*
X1426723D1*
X1556833Y941063D2*
Y925311D1*
X1545359Y933900D1*
Y929589D1*
X1543933Y926737D1*
X1542508Y925311D1*
X1538196Y923852D1*
X1535345D1*
X1531034Y925311D1*
X1528148Y928163D1*
X1526723Y932474D1*
Y936785D1*
X1528149Y941063D1*
X1529608Y942488D1*
X1532460Y943948D1*
X1556833Y901230D2*
X1555407Y905541D1*
X1551096Y908426D1*
X1543933Y909852D1*
X1539622D1*
X1532460Y908426D1*
X1528149Y905541D1*
X1526723Y901230D1*
Y898378D1*
X1528149Y894067D1*
X1532460Y891215D1*
X1539622Y889756D1*
X1543933D1*
X1551096Y891215D1*
X1555407Y894067D1*
X1556833Y898378D1*
Y901230D1*
X1551096Y891215D2*
X1532460Y908426D1*
X1654671Y932488D2*
X1656096D1*
X1658982Y931063D1*
X1660407Y929637D1*
X1661833Y926751D1*
Y921015D1*
X1660407Y918163D1*
X1658981Y916737D1*
X1656096Y915278D1*
X1653245D1*
X1650359Y916737D1*
X1646082Y919589D1*
X1631723Y933948D1*
Y913852D1*
X1651819Y881182D2*
X1647508Y882641D1*
X1644622Y885493D1*
X1643197Y889804D1*
Y891230D1*
X1644622Y895541D1*
X1647508Y898393D1*
X1651819Y899852D1*
X1653244D1*
X1657556Y898393D1*
X1660407Y895541D1*
X1661833Y891230D1*
Y889804D1*
X1660407Y885493D1*
X1657556Y882641D1*
X1651819Y881182D1*
X1644622D1*
X1637460Y882641D1*
X1633149Y885493D1*
X1631723Y889804D1*
Y892656D1*
X1633149Y896967D1*
X1636034Y898393D1*
X1154704Y682426D2*
X1157556Y683852D1*
X1160441Y686737D1*
X1161867Y689589D1*
Y695326D1*
X1160441Y698211D1*
X1157556Y701063D1*
X1154704Y702522D1*
X1150393Y703948D1*
X1143197D1*
X1138919Y702522D1*
X1136034Y701063D1*
X1133182Y698211D1*
X1131723Y695326D1*
Y689589D1*
X1133182Y686737D1*
X1136034Y683852D1*
X1138919Y682426D1*
X1143196D1*
Y689589D1*
X1161867Y648330D2*
X1131723D1*
X1161867Y668426D1*
X1131723D1*
X1161867Y634330D2*
X1131723D1*
Y624282D1*
X1133182Y619971D1*
X1136034Y617086D1*
X1138919Y615660D1*
X1143197Y614234D1*
X1150393D1*
X1154704Y615660D1*
X1157556Y617086D1*
X1160441Y619971D1*
X1161867Y624282D1*
Y634330D1*
X1061833Y691063D2*
Y675311D1*
X1050359Y683900D1*
Y679589D1*
X1048933Y676737D1*
X1047508Y675311D1*
X1043196Y673852D1*
X1040345D1*
X1036034Y675311D1*
X1033148Y678163D1*
X1031723Y682474D1*
Y686785D1*
X1033149Y691063D1*
X1034608Y692488D1*
X1037460Y693948D1*
X1031723Y645493D2*
X1061833D1*
X1041771Y659852D1*
Y638330D1*
X1254671Y692488D2*
X1256096D1*
X1258982Y691063D1*
X1260407Y689637D1*
X1261833Y686751D1*
Y681015D1*
X1260407Y678163D1*
X1258981Y676737D1*
X1256096Y675278D1*
X1253245D1*
X1250359Y676737D1*
X1246082Y679589D1*
X1231723Y693948D1*
Y673852D1*
Y645493D2*
X1261833D1*
X1241771Y659852D1*
Y638330D1*
X1354671Y697488D2*
X1356096D1*
X1358982Y696063D1*
X1360407Y694637D1*
X1361833Y691751D1*
Y686015D1*
X1360407Y683163D1*
X1358981Y681737D1*
X1356096Y680278D1*
X1353245D1*
X1350359Y681737D1*
X1346082Y684589D1*
X1331723Y698948D1*
Y678852D1*
X1361833Y647641D2*
Y661967D1*
X1348933Y663393D1*
X1350359Y661967D1*
X1351819Y657656D1*
Y653378D1*
X1350359Y649067D1*
X1347508Y646182D1*
X1343197Y644756D1*
X1340345D1*
X1336034Y646182D1*
X1333149Y649067D1*
X1331723Y653378D1*
Y657656D1*
X1333149Y661967D1*
X1334608Y663393D1*
X1337460Y664852D1*
X1454671Y692488D2*
X1456096D1*
X1458982Y691063D1*
X1460407Y689637D1*
X1461833Y686751D1*
Y681015D1*
X1460407Y678163D1*
X1458981Y676737D1*
X1456096Y675278D1*
X1453245D1*
X1450359Y676737D1*
X1446082Y679589D1*
X1431723Y693948D1*
Y673852D1*
X1457556Y642641D2*
X1460407Y644067D1*
X1461833Y648378D1*
Y651230D1*
X1460407Y655541D1*
X1456096Y658426D1*
X1448933Y659852D1*
X1441771D1*
X1436034Y658426D1*
X1433149Y655541D1*
X1431723Y651230D1*
Y649804D1*
X1433149Y645526D1*
X1436034Y642641D1*
X1440345Y641215D1*
X1441771D1*
X1446082Y642641D1*
X1448933Y645526D1*
X1450359Y649804D1*
Y651230D1*
X1448933Y655541D1*
X1446082Y658426D1*
X1441771Y659852D1*
X1549671Y692488D2*
X1551096D1*
X1553982Y691063D1*
X1555407Y689637D1*
X1556833Y686751D1*
Y681015D1*
X1555407Y678163D1*
X1553981Y676737D1*
X1551096Y675278D1*
X1548245D1*
X1545359Y676737D1*
X1541082Y679589D1*
X1526723Y693948D1*
Y673852D1*
Y654115D2*
X1556833Y639756D1*
Y659852D1*
X1654671Y692488D2*
X1656096D1*
X1658982Y691063D1*
X1660407Y689637D1*
X1661833Y686751D1*
Y681015D1*
X1660407Y678163D1*
X1658981Y676737D1*
X1656096Y675278D1*
X1653245D1*
X1650359Y676737D1*
X1646082Y679589D1*
X1631723Y693948D1*
Y673852D1*
X1661833Y652689D2*
X1660407Y656967D1*
X1657556Y658426D1*
X1654670D1*
X1651819Y656967D1*
X1650359Y654115D1*
X1648933Y648378D1*
X1647508Y644067D1*
X1644622Y641215D1*
X1641771Y639789D1*
X1637460D1*
X1634608Y641215D1*
X1633149Y642641D1*
X1631723Y646952D1*
Y652689D1*
X1633149Y656967D1*
X1634608Y658426D1*
X1637460Y659852D1*
X1641771D1*
X1644622Y658426D1*
X1647508Y655541D1*
X1648933Y651263D1*
X1650359Y645526D1*
X1651819Y642641D1*
X1654670Y641215D1*
X1657556D1*
X1660407Y642641D1*
X1661833Y646952D1*
Y652689D1*
M02*
