G04 DipTrace 3.0.0.2*
G04 Teensy-TC36--T3.2-Adapter.gbs*
%MOIN*%
G04 #@! TF.FileFunction,Soldermask,Bot*
G04 #@! TF.Part,Single*
%ADD16C,0.06194*%
%ADD17C,0.04*%
%FSLAX26Y26*%
G04*
G70*
G90*
G75*
G01*
G04 BotMask*
%LPD*%
D17*
X1573701Y548701D3*
X2313701Y833701D3*
Y533701D3*
X993701Y993701D3*
X943654Y828841D3*
X2353701Y593701D3*
X2753701D3*
X2353701Y793701D3*
Y653701D3*
D16*
X443701Y443701D3*
X543701D3*
X643701D3*
X743701D3*
X843701D3*
X943701D3*
X1043701D3*
X1143701D3*
X1243701D3*
X1343701D3*
X1443701D3*
X1543701D3*
X1643701D3*
X1743701D3*
X2243701Y543701D3*
Y643701D3*
Y743701D3*
Y843701D3*
X2043701Y1043701D3*
X1743701D3*
X1643701D3*
X1543701D3*
X1443701D3*
X1343701D3*
X1243701D3*
X1143701D3*
X1043701D3*
X943701D3*
X843701D3*
X743701D3*
X643701D3*
X543701D3*
X443701D3*
X543701Y943701D3*
X743701D3*
X843701D3*
X943701D3*
X2343701Y443701D3*
X2443701D3*
X2243701D3*
X2143701D3*
X2043701D3*
X1943701D3*
X2543701D3*
X2643701D3*
X2743701D3*
Y1043701D3*
X1843701Y443701D3*
X2643701Y1043701D3*
X1843701D3*
X2543701D3*
X2343701D3*
X2243701D3*
X2143701D3*
X2443701D3*
X1943701D3*
X2243701Y943701D3*
X1743701Y543701D3*
Y643701D3*
Y743701D3*
Y843701D3*
Y943701D3*
X1643701Y743701D3*
Y843701D3*
X1543701Y743701D3*
X1443701D3*
X1343701D3*
X1243701D3*
X1543701Y843701D3*
X1443701D3*
X1343701D3*
X1243701D3*
X1143701D3*
X1043701D3*
X1143701Y743701D3*
X1043701D3*
X693701D3*
M02*
