G04 DipTrace 3.0.0.2*
G04 Teensy-TC36--T3.2-Adapter.gbo*
%MOIN*%
G04 #@! TF.FileFunction,Legend,Bot*
G04 #@! TF.Part,Single*
G04 #@! TA.AperFunction,Conductor*
%ADD14C,0.007*%
%FSLAX26Y26*%
G04*
G70*
G90*
G75*
G01*
G04 BotSilk*
%LPD*%
X733923Y678141D2*
D14*
X721023D1*
X716712Y679601D1*
X715253Y681027D1*
X713827Y683878D1*
Y686763D1*
X715253Y689615D1*
X716712Y691075D1*
X721023Y692500D1*
X733923D1*
Y662356D1*
X723875Y678141D2*
X713827Y662356D1*
X679731Y688189D2*
X682583Y691075D1*
X686894Y692500D1*
X692631D1*
X696942Y691075D1*
X699827Y688189D1*
Y685338D1*
X698368Y682452D1*
X696942Y681027D1*
X694090Y679601D1*
X685468Y676715D1*
X682583Y675290D1*
X681157Y673830D1*
X679731Y670979D1*
Y666667D1*
X682583Y663816D1*
X686894Y662356D1*
X692631D1*
X696942Y663816D1*
X699827Y666667D1*
X655683Y692500D2*
Y662356D1*
X665731Y692500D2*
X645635D1*
X2190887Y941964D2*
X2177987D1*
X2173676Y943423D1*
X2172217Y944849D1*
X2170791Y947701D1*
Y950586D1*
X2172217Y953438D1*
X2173676Y954897D1*
X2177987Y956323D1*
X2190887D1*
Y926179D1*
X2180839Y941964D2*
X2170791Y926179D1*
X2136695Y952012D2*
X2139547Y954897D1*
X2143858Y956323D1*
X2149595D1*
X2153906Y954897D1*
X2156791Y952012D1*
Y949160D1*
X2155332Y946275D1*
X2153906Y944849D1*
X2151054Y943423D1*
X2142432Y940538D1*
X2139547Y939112D1*
X2138121Y937653D1*
X2136695Y934801D1*
Y930490D1*
X2139547Y927638D1*
X2143858Y926179D1*
X2149595D1*
X2153906Y927638D1*
X2156791Y930490D1*
X2112647Y956323D2*
Y926179D1*
X2122695Y956323D2*
X2102599D1*
X2188776Y844702D2*
X2175843D1*
X2171565Y846128D1*
X2170106Y847587D1*
X2168680Y850439D1*
Y854750D1*
X2170106Y857602D1*
X2171565Y859061D1*
X2175843Y860487D1*
X2188776D1*
Y830343D1*
X2133158Y853324D2*
X2134584Y856176D1*
X2137469Y859061D1*
X2140321Y860487D1*
X2146058D1*
X2148943Y859061D1*
X2151795Y856176D1*
X2153254Y853324D1*
X2154680Y849013D1*
Y841817D1*
X2153254Y837539D1*
X2151795Y834654D1*
X2148943Y831802D1*
X2146058Y830343D1*
X2140321D1*
X2137469Y831802D1*
X2134584Y834654D1*
X2133158Y837539D1*
Y841817D1*
X2140321D1*
X2096210Y830343D2*
Y860487D1*
X2107684Y830343D1*
X2119158Y860487D1*
Y830343D1*
X1879165Y843380D2*
X1866231D1*
X1861954Y844805D1*
X1860494Y846265D1*
X1859069Y849117D1*
Y853428D1*
X1860494Y856279D1*
X1861954Y857739D1*
X1866231Y859165D1*
X1879165D1*
Y829021D1*
X1823547Y852002D2*
X1824973Y854853D1*
X1827858Y857739D1*
X1830709Y859165D1*
X1836446D1*
X1839332Y857739D1*
X1842183Y854853D1*
X1843643Y852002D1*
X1845069Y847691D1*
Y840494D1*
X1843643Y836217D1*
X1842183Y833332D1*
X1839332Y830480D1*
X1836446Y829021D1*
X1830709D1*
X1827858Y830480D1*
X1824973Y833332D1*
X1823547Y836217D1*
Y840494D1*
X1830709D1*
X1786599Y829021D2*
Y859165D1*
X1798073Y829021D1*
X1809547Y859165D1*
Y829021D1*
X2167012Y751907D2*
X2168438Y754759D1*
X2171323Y757644D1*
X2174175Y759070D1*
X2179912D1*
X2182797Y757644D1*
X2185649Y754759D1*
X2187108Y751907D1*
X2188534Y747596D1*
Y740400D1*
X2187108Y736122D1*
X2185649Y733237D1*
X2182797Y730385D1*
X2179912Y728926D1*
X2174175D1*
X2171323Y730385D1*
X2168438Y733237D1*
X2167012Y736122D1*
Y740400D1*
X2174175D1*
X2132916Y759070D2*
Y728926D1*
X2153012Y759070D1*
Y728926D1*
X2118916Y759070D2*
Y728926D1*
X2108868D1*
X2104557Y730385D1*
X2101672Y733237D1*
X2100246Y736122D1*
X2098820Y740400D1*
Y747596D1*
X2100246Y751907D1*
X2101672Y754759D1*
X2104557Y757644D1*
X2108868Y759070D1*
X2118916D1*
X1852919Y751650D2*
X1854345Y754502D1*
X1857230Y757387D1*
X1860082Y758813D1*
X1865819D1*
X1868704Y757387D1*
X1871556Y754502D1*
X1873015Y751650D1*
X1874441Y747339D1*
Y740143D1*
X1873015Y735865D1*
X1871556Y732980D1*
X1868704Y730128D1*
X1865819Y728669D1*
X1860082D1*
X1857230Y730128D1*
X1854345Y732980D1*
X1852919Y735865D1*
Y740143D1*
X1860082D1*
X1818823Y758813D2*
Y728669D1*
X1838919Y758813D1*
Y728669D1*
X1804823Y758813D2*
Y728669D1*
X1794775D1*
X1790464Y730128D1*
X1787579Y732980D1*
X1786153Y735865D1*
X1784727Y740143D1*
Y747339D1*
X1786153Y751650D1*
X1787579Y754502D1*
X1790464Y757387D1*
X1794775Y758813D1*
X1804823D1*
X2179881Y658723D2*
Y632890D1*
X2192781Y645790D2*
X2166948D1*
X2150063Y660862D2*
X2134311D1*
X2142900Y649388D1*
X2138589D1*
X2135737Y647962D1*
X2134311Y646536D1*
X2132852Y642225D1*
Y639374D1*
X2134311Y635062D1*
X2137163Y632177D1*
X2141474Y630751D1*
X2145785D1*
X2150063Y632177D1*
X2151489Y633637D1*
X2152948Y636488D1*
X2117426Y633637D2*
X2118852Y632177D1*
X2117426Y630751D1*
X2115967Y632177D1*
X2117426Y633637D1*
X2099082Y660862D2*
X2083330D1*
X2091919Y649388D1*
X2087608D1*
X2084756Y647962D1*
X2083330Y646536D1*
X2081871Y642225D1*
Y639374D1*
X2083330Y635062D1*
X2086182Y632177D1*
X2090493Y630751D1*
X2094804D1*
X2099082Y632177D1*
X2100508Y633637D1*
X2101967Y636488D1*
X2067871Y660895D2*
X2056397Y630751D1*
X2044923Y660895D1*
X1921016Y659726D2*
Y633893D1*
X1933916Y646793D2*
X1908083D1*
X1891198Y661865D2*
X1875446D1*
X1884035Y650391D1*
X1879724D1*
X1876872Y648965D1*
X1875446Y647539D1*
X1873987Y643228D1*
Y640376D1*
X1875446Y636065D1*
X1878298Y633180D1*
X1882609Y631754D1*
X1886920D1*
X1891198Y633180D1*
X1892624Y634639D1*
X1894083Y637491D1*
X1858561Y634639D2*
X1859987Y633180D1*
X1858561Y631754D1*
X1857102Y633180D1*
X1858561Y634639D1*
X1840217Y661865D2*
X1824465D1*
X1833054Y650391D1*
X1828743D1*
X1825891Y648965D1*
X1824465Y647539D1*
X1823006Y643228D1*
Y640376D1*
X1824465Y636065D1*
X1827317Y633180D1*
X1831628Y631754D1*
X1835939D1*
X1840217Y633180D1*
X1841643Y634639D1*
X1843102Y637491D1*
X1809006Y661898D2*
X1797532Y631754D1*
X1786058Y661898D1*
X2191876Y562721D2*
X2180402Y532577D1*
X2168928Y562721D1*
X2154928D2*
Y532577D1*
X2141995D1*
X2137684Y534036D1*
X2136258Y535462D1*
X2134832Y538314D1*
Y542625D1*
X2136258Y545510D1*
X2137684Y546936D1*
X2141995Y548362D1*
X2137684Y549821D1*
X2136258Y551247D1*
X2134832Y554099D1*
Y556984D1*
X2136258Y559836D1*
X2137684Y561295D1*
X2141995Y562721D1*
X2154928D1*
Y548362D2*
X2141995D1*
X2097851Y532577D2*
X2109358Y562721D1*
X2120832Y532577D1*
X2116521Y542625D2*
X2102162D1*
X2073803Y562721D2*
Y532577D1*
X2083851Y562721D2*
X2063755D1*
X1913175Y563724D2*
X1901701Y533580D1*
X1890227Y563724D1*
X1876227D2*
Y533580D1*
X1863294D1*
X1858983Y535039D1*
X1857557Y536465D1*
X1856131Y539317D1*
Y543628D1*
X1857557Y546513D1*
X1858983Y547939D1*
X1863294Y549365D1*
X1858983Y550824D1*
X1857557Y552250D1*
X1856131Y555102D1*
Y557987D1*
X1857557Y560838D1*
X1858983Y562298D1*
X1863294Y563724D1*
X1876227D1*
Y549365D2*
X1863294D1*
X1819150Y533580D2*
X1830657Y563724D1*
X1842131Y533580D1*
X1837820Y543628D2*
X1823461D1*
X1795102Y563724D2*
Y533580D1*
X1805150Y563724D2*
X1785054D1*
X2020431Y923116D2*
X2031938Y953260D1*
X2043412Y923116D1*
X2039101Y933164D2*
X2024742D1*
X2004972Y946064D2*
Y947490D1*
X2003546Y950375D1*
X2002120Y951801D1*
X1999235Y953227D1*
X1993498D1*
X1990646Y951801D1*
X1989220Y950375D1*
X1987761Y947490D1*
Y944638D1*
X1989220Y941753D1*
X1992072Y937475D1*
X2006431Y923116D1*
X1986335D1*
X1972335Y947490D2*
X1969450Y948949D1*
X1965139Y953227D1*
Y923116D1*
X1951139D2*
X1931043Y953227D1*
X1917043Y953260D2*
Y923116D1*
X1906995D1*
X1902684Y924575D1*
X1899799Y927427D1*
X1898373Y930312D1*
X1896947Y934590D1*
Y941786D1*
X1898373Y946097D1*
X1899799Y948949D1*
X1902684Y951834D1*
X1906995Y953260D1*
X1917043D1*
X1859966Y923116D2*
X1871473Y953260D1*
X1882947Y923116D1*
X1878636Y933164D2*
X1864277D1*
X1824444Y946097D2*
X1825870Y948949D1*
X1828755Y951834D1*
X1831607Y953260D1*
X1837344D1*
X1840229Y951834D1*
X1843081Y948949D1*
X1844540Y946097D1*
X1845966Y941786D1*
Y934590D1*
X1844540Y930312D1*
X1843081Y927427D1*
X1840229Y924575D1*
X1837344Y923116D1*
X1831607D1*
X1828755Y924575D1*
X1825870Y927427D1*
X1824444Y930312D1*
X1801822Y953227D2*
X1806133Y951801D1*
X1809018Y947490D1*
X1810444Y940327D1*
Y936016D1*
X1809018Y928853D1*
X1806133Y924542D1*
X1801822Y923116D1*
X1798970D1*
X1794659Y924542D1*
X1791807Y928853D1*
X1790348Y936016D1*
Y940327D1*
X1791807Y947490D1*
X1794659Y951801D1*
X1798970Y953227D1*
X1801822D1*
X1791807Y947490D2*
X1809018Y928853D1*
X1156833Y883808D2*
Y899560D1*
X1145359Y890971D1*
Y895282D1*
X1143933Y898134D1*
X1142508Y899560D1*
X1138197Y901019D1*
X1135345D1*
X1131034Y899560D1*
X1128149Y896708D1*
X1126723Y892397D1*
Y888086D1*
X1128149Y883808D1*
X1129608Y882382D1*
X1132460Y880923D1*
X1129608Y916445D2*
X1128149Y915019D1*
X1126723Y916445D1*
X1128149Y917904D1*
X1129608Y916445D1*
X1156833Y934789D2*
Y950541D1*
X1145359Y941952D1*
Y946263D1*
X1143933Y949115D1*
X1142508Y950541D1*
X1138196Y952000D1*
X1135345D1*
X1131034Y950541D1*
X1128149Y947689D1*
X1126723Y943378D1*
Y939067D1*
X1128149Y934789D1*
X1129608Y933363D1*
X1132460Y931904D1*
X1156867Y966000D2*
X1126723Y977474D1*
X1156867Y988948D1*
X1056833Y897641D2*
Y913393D1*
X1045359Y904804D1*
Y909115D1*
X1043933Y911967D1*
X1042508Y913393D1*
X1038196Y914852D1*
X1035345D1*
X1031034Y913393D1*
X1028149Y910541D1*
X1026723Y906230D1*
Y901919D1*
X1028149Y897641D1*
X1029608Y896215D1*
X1032460Y894756D1*
X1056833Y946063D2*
Y931737D1*
X1043933Y930311D1*
X1045359Y931737D1*
X1046819Y936048D1*
Y940326D1*
X1045359Y944637D1*
X1042508Y947522D1*
X1038197Y948948D1*
X1035345D1*
X1031034Y947522D1*
X1028149Y944637D1*
X1026723Y940326D1*
Y936048D1*
X1028148Y931737D1*
X1029608Y930311D1*
X1032460Y928852D1*
X1251833Y892641D2*
Y908393D1*
X1240359Y899804D1*
Y904115D1*
X1238933Y906967D1*
X1237508Y908393D1*
X1233196Y909852D1*
X1230345D1*
X1226034Y908393D1*
X1223149Y905541D1*
X1221723Y901230D1*
Y896919D1*
X1223149Y892641D1*
X1224608Y891215D1*
X1227460Y889756D1*
X1251833Y926737D2*
Y942488D1*
X1240359Y933900D1*
Y938211D1*
X1238934Y941063D1*
X1237508Y942488D1*
X1233197Y943948D1*
X1230345D1*
X1226034Y942488D1*
X1223149Y939637D1*
X1221723Y935326D1*
Y931015D1*
X1223148Y926737D1*
X1224608Y925311D1*
X1227460Y923852D1*
X1356833Y897641D2*
Y913393D1*
X1345359Y904804D1*
Y909115D1*
X1343933Y911967D1*
X1342508Y913393D1*
X1338196Y914852D1*
X1335345D1*
X1331034Y913393D1*
X1328149Y910541D1*
X1326723Y906230D1*
Y901919D1*
X1328149Y897641D1*
X1329608Y896215D1*
X1332460Y894756D1*
X1349670Y930311D2*
X1351096D1*
X1353981Y931737D1*
X1355407Y933163D1*
X1356833Y936048D1*
Y941785D1*
X1355407Y944637D1*
X1353982Y946063D1*
X1351096Y947522D1*
X1348245D1*
X1345359Y946063D1*
X1341082Y943211D1*
X1326723Y928852D1*
Y948948D1*
X1451833Y910541D2*
Y926292D1*
X1440359Y917704D1*
Y922015D1*
X1438933Y924866D1*
X1437508Y926292D1*
X1433196Y927752D1*
X1430345D1*
X1426034Y926292D1*
X1423149Y923441D1*
X1421723Y919130D1*
Y914819D1*
X1423149Y910541D1*
X1424608Y909115D1*
X1427460Y907656D1*
X1446096Y941751D2*
X1447556Y944637D1*
X1451833Y948948D1*
X1421723D1*
X1551833Y892641D2*
Y908393D1*
X1540359Y899804D1*
Y904115D1*
X1538933Y906967D1*
X1537508Y908393D1*
X1533196Y909852D1*
X1530345D1*
X1526034Y908393D1*
X1523149Y905541D1*
X1521723Y901230D1*
Y896919D1*
X1523149Y892641D1*
X1524608Y891215D1*
X1527460Y889756D1*
X1551833Y932474D2*
X1550407Y928163D1*
X1546096Y925278D1*
X1538933Y923852D1*
X1534622D1*
X1527460Y925278D1*
X1523148Y928163D1*
X1521723Y932474D1*
Y935326D1*
X1523149Y939637D1*
X1527460Y942488D1*
X1534623Y943948D1*
X1538934D1*
X1546096Y942488D1*
X1550407Y939637D1*
X1551833Y935326D1*
Y932474D1*
X1546096Y942488D2*
X1527460Y925278D1*
X1649670Y882641D2*
X1651096D1*
X1653981Y884067D1*
X1655407Y885493D1*
X1656833Y888378D1*
Y894115D1*
X1655407Y896967D1*
X1653981Y898393D1*
X1651096Y899852D1*
X1648244D1*
X1645359Y898393D1*
X1641082Y895541D1*
X1626723Y881182D1*
Y901278D1*
X1646819Y933948D2*
X1642508Y932488D1*
X1639622Y929637D1*
X1638197Y925326D1*
Y923900D1*
X1639622Y919589D1*
X1642508Y916737D1*
X1646819Y915278D1*
X1648245D1*
X1652556Y916737D1*
X1655407Y919589D1*
X1656833Y923900D1*
Y925326D1*
X1655407Y929637D1*
X1652556Y932488D1*
X1646819Y933948D1*
X1639623D1*
X1632460Y932488D1*
X1628149Y929637D1*
X1626723Y925326D1*
Y922474D1*
X1628148Y918163D1*
X1631034Y916737D1*
X1149704Y635756D2*
X1152556Y634330D1*
X1155441Y631445D1*
X1156867Y628593D1*
Y622856D1*
X1155441Y619971D1*
X1152556Y617119D1*
X1149704Y615660D1*
X1145393Y614234D1*
X1138197D1*
X1133919Y615660D1*
X1131034Y617119D1*
X1128182Y619971D1*
X1126723Y622856D1*
Y628593D1*
X1128182Y631445D1*
X1131034Y634330D1*
X1133919Y635756D1*
X1138197D1*
Y628593D1*
X1156867Y669852D2*
X1126723D1*
X1156867Y649756D1*
X1126723D1*
X1156867Y683852D2*
X1126723D1*
Y693900D1*
X1128182Y698211D1*
X1131034Y701096D1*
X1133919Y702522D1*
X1138197Y703948D1*
X1145393D1*
X1149704Y702522D1*
X1152556Y701096D1*
X1155441Y698211D1*
X1156867Y693900D1*
Y683852D1*
X1056833Y641215D2*
Y656967D1*
X1045359Y648378D1*
Y652689D1*
X1043933Y655541D1*
X1042508Y656967D1*
X1038196Y658426D1*
X1035345D1*
X1031034Y656967D1*
X1028149Y654115D1*
X1026723Y649804D1*
Y645493D1*
X1028149Y641215D1*
X1029608Y639789D1*
X1032460Y638330D1*
X1026723Y686785D2*
X1056833D1*
X1036771Y672426D1*
Y693948D1*
X1249670Y639789D2*
X1251096D1*
X1253981Y641215D1*
X1255407Y642641D1*
X1256833Y645526D1*
Y651263D1*
X1255407Y654115D1*
X1253981Y655541D1*
X1251096Y657000D1*
X1248244D1*
X1245359Y655541D1*
X1241082Y652689D1*
X1226723Y638330D1*
Y658426D1*
Y686785D2*
X1256833D1*
X1236771Y672426D1*
Y693948D1*
X1349670Y646215D2*
X1351096D1*
X1353981Y647641D1*
X1355407Y649067D1*
X1356833Y651952D1*
Y657689D1*
X1355407Y660541D1*
X1353981Y661967D1*
X1351096Y663426D1*
X1348244D1*
X1345359Y661967D1*
X1341082Y659115D1*
X1326723Y644756D1*
Y664852D1*
X1356833Y696063D2*
Y681737D1*
X1343933Y680311D1*
X1345359Y681737D1*
X1346819Y686048D1*
Y690326D1*
X1345359Y694637D1*
X1342508Y697522D1*
X1338197Y698948D1*
X1335345D1*
X1331034Y697522D1*
X1328149Y694637D1*
X1326723Y690326D1*
Y686048D1*
X1328148Y681737D1*
X1329608Y680311D1*
X1332460Y678852D1*
X1449670Y642674D2*
X1451096D1*
X1453981Y644100D1*
X1455407Y645526D1*
X1456833Y648411D1*
Y654148D1*
X1455407Y657000D1*
X1453981Y658426D1*
X1451096Y659885D1*
X1448244D1*
X1445359Y658426D1*
X1441082Y655574D1*
X1426723Y641215D1*
Y661311D1*
X1452556Y692522D2*
X1455407Y691096D1*
X1456833Y686785D1*
Y683933D1*
X1455407Y679622D1*
X1451096Y676737D1*
X1443933Y675311D1*
X1436771D1*
X1431034Y676737D1*
X1428148Y679622D1*
X1426723Y683933D1*
Y685359D1*
X1428149Y689637D1*
X1431034Y692522D1*
X1435345Y693948D1*
X1436771D1*
X1441082Y692522D1*
X1443934Y689637D1*
X1445359Y685359D1*
Y683933D1*
X1443933Y679622D1*
X1441082Y676737D1*
X1436771Y675311D1*
X1544670Y641215D2*
X1546096D1*
X1548981Y642641D1*
X1550407Y644067D1*
X1551833Y646952D1*
Y652689D1*
X1550407Y655541D1*
X1548981Y656967D1*
X1546096Y658426D1*
X1543244D1*
X1540359Y656967D1*
X1536082Y654115D1*
X1521723Y639756D1*
Y659852D1*
Y679589D2*
X1551833Y693948D1*
Y673852D1*
X1649670Y641248D2*
X1651096D1*
X1653981Y642674D1*
X1655407Y644100D1*
X1656833Y646985D1*
Y652722D1*
X1655407Y655574D1*
X1653981Y657000D1*
X1651096Y658459D1*
X1648244D1*
X1645359Y657000D1*
X1641082Y654148D1*
X1626723Y639789D1*
Y659885D1*
X1656833Y681048D2*
X1655407Y676770D1*
X1652556Y675311D1*
X1649670D1*
X1646819Y676770D1*
X1645359Y679622D1*
X1643933Y685359D1*
X1642508Y689670D1*
X1639623Y692522D1*
X1636771Y693948D1*
X1632460D1*
X1629608Y692522D1*
X1628149Y691096D1*
X1626723Y686785D1*
Y681048D1*
X1628148Y676770D1*
X1629608Y675311D1*
X1632460Y673885D1*
X1636771D1*
X1639622Y675311D1*
X1642508Y678196D1*
X1643933Y682474D1*
X1645359Y688211D1*
X1646819Y691096D1*
X1649671Y692522D1*
X1652556D1*
X1655407Y691096D1*
X1656833Y686785D1*
Y681048D1*
M02*
