G04 DipTrace 3.0.0.2*
G04 microsd-Adapter-2row.gbo*
%MOIN*%
G04 #@! TF.FileFunction,Legend,Bot*
G04 #@! TF.Part,Single*
%ADD31C,0.007*%
%FSLAX26Y26*%
G04*
G70*
G90*
G75*
G01*
G04 BotSilk*
%LPD*%
X873316Y748611D2*
D31*
Y729974D1*
X843172D1*
Y748611D1*
X858957Y729974D2*
Y741448D1*
X873283Y779822D2*
X873282Y765496D1*
X860383Y764070D1*
X861809Y765496D1*
X863268Y769807D1*
Y774085D1*
X861809Y778396D1*
X858957Y781281D1*
X854646Y782707D1*
X851794D1*
X847483Y781281D1*
X844598Y778396D1*
X843172Y774085D1*
Y769807D1*
X844598Y765496D1*
X846057Y764070D1*
X848909Y762611D1*
X875355Y650935D2*
Y632298D1*
X845211Y632299D1*
Y650935D1*
X860996Y632298D2*
Y643772D1*
X875322Y667820D2*
Y683572D1*
X863848Y674983D1*
Y679294D1*
X862422Y682146D1*
X860996Y683572D1*
X856685Y685031D1*
X853833D1*
X849522Y683572D1*
X846637Y680720D1*
X845211Y676409D1*
Y672098D1*
X846637Y667820D1*
X848096Y666394D1*
X850948Y664935D1*
X876307Y557300D2*
Y538664D1*
X846163D1*
Y557300D1*
X861948Y538664D2*
Y550138D1*
X869111Y572759D2*
X870537D1*
X873422Y574185D1*
X874848Y575611D1*
X876274Y578496D1*
Y584233D1*
X874848Y587085D1*
X873422Y588511D1*
X870537Y589970D1*
X867685D1*
X864800Y588511D1*
X860522Y585659D1*
X846163Y571300D1*
Y591396D1*
X878278Y465311D2*
Y446674D1*
X848134D1*
Y465311D1*
X863919Y446674D2*
X863918Y458148D1*
X872507Y479311D2*
X873967Y482196D1*
X878244Y486507D1*
X848134D1*
X1145519Y752048D2*
Y733411D1*
X1115375D1*
Y752048D1*
X1131160Y733411D2*
Y744885D1*
X1115375Y780407D2*
X1145486D1*
X1125423Y766048D1*
Y787570D1*
X1141901Y618263D2*
X1116068D1*
X1128968Y605363D2*
X1128967Y631196D1*
X1144039Y662407D2*
Y648081D1*
X1131140Y646655D1*
X1132566Y648081D1*
X1134025Y652392D1*
Y656670D1*
X1132566Y660981D1*
X1129714Y663866D1*
X1125403Y665292D1*
X1122551D1*
X1118240Y663866D1*
X1115355Y660981D1*
X1113929Y656670D1*
Y652392D1*
X1115355Y648081D1*
X1116814Y646655D1*
X1119666Y645196D1*
X1144073Y679292D2*
X1113929Y690766D1*
X1144073Y702240D1*
X1137819Y567811D2*
X1140671Y566385D1*
X1143556Y563500D1*
X1144982Y560648D1*
Y554911D1*
X1143556Y552026D1*
X1140671Y549174D1*
X1137819Y547715D1*
X1133508Y546289D1*
X1126312D1*
X1122034Y547715D1*
X1119149Y549174D1*
X1116297Y552026D1*
X1114838Y554911D1*
Y560648D1*
X1116297Y563500D1*
X1119149Y566385D1*
X1122034Y567811D1*
X1126312D1*
Y560648D1*
X1143417Y458755D2*
Y440118D1*
X1113273D1*
Y458755D1*
X1129058Y440118D2*
Y451592D1*
X1143384Y481377D2*
X1141958Y477066D1*
X1137647Y474181D1*
X1130484Y472755D1*
X1126173D1*
X1119010Y474181D1*
X1114699Y477066D1*
X1113273Y481377D1*
Y484229D1*
X1114699Y488540D1*
X1119010Y491392D1*
X1126173Y492851D1*
X1130484D1*
X1137647Y491392D1*
X1141958Y488540D1*
X1143384Y484229D1*
Y481377D1*
X1137647Y491392D2*
X1119010Y474181D1*
M02*
