G04 DipTrace 3.0.0.2*
G04 microsd-Adapter-2row.gto*
%MOIN*%
G04 #@! TF.FileFunction,Legend,Top*
G04 #@! TF.Part,Single*
%ADD10C,0.009843*%
%ADD31C,0.007*%
%FSLAX26Y26*%
G04*
G70*
G90*
G75*
G01*
G04 TopSilk*
%LPD*%
X893701Y811701D2*
D10*
Y411701D1*
X1093701Y811701D2*
Y411701D1*
X893701Y811701D2*
X1093701D1*
X893701Y411701D2*
X1093701D1*
X851465Y754397D2*
D31*
X848613Y752971D1*
X847187Y748660D1*
Y745808D1*
X848613Y741497D1*
X852924Y738612D1*
X860087Y737186D1*
X867250D1*
X872987Y738612D1*
X875872Y741497D1*
X877298Y745808D1*
Y747234D1*
X875872Y751512D1*
X872987Y754397D1*
X868676Y755823D1*
X867250D1*
X862939Y754397D1*
X860087Y751512D1*
X858661Y747234D1*
Y745808D1*
X860087Y741497D1*
X862939Y738612D1*
X867250Y737186D1*
X847187Y772708D2*
Y788459D1*
X858661Y779871D1*
Y784182D1*
X860087Y787033D1*
X861513Y788459D1*
X865824Y789919D1*
X868676D1*
X872987Y788459D1*
X875872Y785608D1*
X877298Y781296D1*
Y776985D1*
X875872Y772708D1*
X874413Y771282D1*
X871561Y769823D1*
X851396Y657710D2*
X848544Y656284D1*
X847118Y651973D1*
Y649121D1*
X848544Y644810D1*
X852855Y641925D1*
X860018Y640499D1*
X867181D1*
X872918Y641925D1*
X875803Y644810D1*
X877229Y649121D1*
Y650547D1*
X875803Y654825D1*
X872918Y657710D1*
X868607Y659136D1*
X867181D1*
X862870Y657710D1*
X860018Y654825D1*
X858592Y650547D1*
Y649121D1*
X860018Y644810D1*
X862870Y641925D1*
X867181Y640499D1*
X852855Y673136D2*
X851396Y676021D1*
X847118Y680332D1*
X877229D1*
X848893Y551362D2*
X846041Y549936D1*
X844615Y545625D1*
Y542773D1*
X846041Y538462D1*
X850352Y535577D1*
X857515Y534151D1*
X864678D1*
X870415Y535577D1*
X873300Y538462D1*
X874726Y542773D1*
Y544199D1*
X873300Y548477D1*
X870415Y551362D1*
X866104Y552788D1*
X864678D1*
X860367Y551362D1*
X857515Y548477D1*
X856089Y544199D1*
Y542773D1*
X857515Y538462D1*
X860367Y535577D1*
X864678Y534151D1*
X844615Y575410D2*
X846041Y571099D1*
X850352Y568214D1*
X857515Y566788D1*
X861826D1*
X868989Y568214D1*
X873300Y571099D1*
X874726Y575410D1*
Y578262D1*
X873300Y582573D1*
X868989Y585425D1*
X861826Y586884D1*
X857515D1*
X850352Y585425D1*
X846041Y582573D1*
X844615Y578262D1*
Y575410D1*
X850352Y585425D2*
X868989Y568214D1*
X844184Y453434D2*
Y439108D1*
X857084Y437682D1*
X855658Y439108D1*
X854199Y443419D1*
Y447697D1*
X855658Y452008D1*
X858510Y454893D1*
X862821Y456319D1*
X865673D1*
X869984Y454893D1*
X872869Y452008D1*
X874295Y447697D1*
Y443419D1*
X872869Y439108D1*
X871410Y437682D1*
X868558Y436223D1*
X854199Y488989D2*
X858510Y487530D1*
X861395Y484678D1*
X862821Y480367D1*
Y478941D1*
X861395Y474630D1*
X858510Y471778D1*
X854199Y470319D1*
X852773D1*
X848462Y471778D1*
X845610Y474630D1*
X844184Y478941D1*
Y480367D1*
X845610Y484678D1*
X848462Y487530D1*
X854199Y488989D1*
X861395D1*
X868558Y487530D1*
X872869Y484678D1*
X874295Y480367D1*
Y477515D1*
X872869Y473204D1*
X869984Y471778D1*
X1117646Y755963D2*
X1114794Y754537D1*
X1113368Y750226D1*
Y747374D1*
X1114794Y743063D1*
X1119105Y740178D1*
X1126268Y738752D1*
X1133431D1*
X1139168Y740178D1*
X1142053Y743063D1*
X1143479Y747374D1*
Y748800D1*
X1142053Y753078D1*
X1139168Y755963D1*
X1134857Y757389D1*
X1133431D1*
X1129120Y755963D1*
X1126268Y753078D1*
X1124842Y748800D1*
Y747374D1*
X1126268Y743063D1*
X1129120Y740178D1*
X1133431Y738752D1*
X1120531Y772848D2*
X1119105D1*
X1116220Y774274D1*
X1114794Y775700D1*
X1113368Y778585D1*
Y784322D1*
X1114794Y787174D1*
X1116220Y788600D1*
X1119105Y790059D1*
X1121957D1*
X1124842Y788600D1*
X1129120Y785748D1*
X1143479Y771389D1*
Y791485D1*
X1114774Y628882D2*
X1140607D1*
X1127707Y615982D2*
Y641815D1*
X1112635Y673026D2*
Y658700D1*
X1125535Y657274D1*
X1124109Y658700D1*
X1122650Y663011D1*
Y667289D1*
X1124109Y671600D1*
X1126961Y674485D1*
X1131272Y675911D1*
X1134124D1*
X1138435Y674485D1*
X1141320Y671600D1*
X1142746Y667289D1*
Y663011D1*
X1141320Y658700D1*
X1139861Y657274D1*
X1137009Y655815D1*
X1122650Y689911D2*
X1142746Y698533D1*
X1122650Y707122D1*
X1120675Y573398D2*
X1117823Y571972D1*
X1114938Y569087D1*
X1113512Y566235D1*
Y560498D1*
X1114938Y557613D1*
X1117823Y554761D1*
X1120675Y553302D1*
X1124986Y551876D1*
X1132182D1*
X1136460Y553302D1*
X1139345Y554761D1*
X1142197Y557613D1*
X1143656Y560498D1*
Y566235D1*
X1142197Y569087D1*
X1139345Y571972D1*
X1136460Y573398D1*
X1132182D1*
Y566235D1*
X1112692Y452887D2*
Y438561D1*
X1125592Y437135D1*
X1124166Y438561D1*
X1122707Y442872D1*
Y447150D1*
X1124166Y451461D1*
X1127018Y454346D1*
X1131329Y455772D1*
X1134181D1*
X1138492Y454346D1*
X1141377Y451461D1*
X1142803Y447150D1*
Y442872D1*
X1141377Y438561D1*
X1139918Y437135D1*
X1137066Y435676D1*
X1112692Y476935D2*
X1114118Y472657D1*
X1116970Y471198D1*
X1119855D1*
X1122707Y472657D1*
X1124166Y475509D1*
X1125592Y481246D1*
X1127018Y485557D1*
X1129903Y488409D1*
X1132755Y489835D1*
X1137066D1*
X1139918Y488409D1*
X1141377Y486983D1*
X1142803Y482672D1*
Y476935D1*
X1141377Y472657D1*
X1139918Y471198D1*
X1137066Y469772D1*
X1132755D1*
X1129903Y471198D1*
X1127018Y474083D1*
X1125592Y478361D1*
X1124166Y484098D1*
X1122707Y486983D1*
X1119855Y488409D1*
X1116970D1*
X1114118Y486983D1*
X1112692Y482672D1*
Y476935D1*
M02*
