G04 DipTrace 3.0.0.2*
G04 WellMonitorSingle.gtl*
%MOIN*%
G04 #@! TF.FileFunction,Copper,L1,Top*
G04 #@! TF.Part,Single*
%AMOUTLINE0*
4,1,4,
0.025591,0.029528,
0.025591,-0.029528,
-0.025591,-0.029528,
-0.025591,0.029528,
0.025591,0.029528,
0*%
G04 #@! TA.AperFunction,CopperBalancing*
%ADD13C,0.025*%
%ADD14C,0.013*%
%ADD15R,0.051181X0.059055*%
G04 #@! TA.AperFunction,ComponentPad*
%ADD17C,0.086*%
%ADD18R,0.059055X0.051181*%
G04 #@! TA.AperFunction,ComponentPad*
%ADD19R,0.059055X0.059055*%
%ADD20C,0.059055*%
G04 #@! TA.AperFunction,ViaPad*
%ADD21C,0.165*%
%ADD42OUTLINE0*%
%FSLAX26Y26*%
G04*
G70*
G90*
G75*
G01*
G04 Top*
%LPD*%
X493701Y843701D2*
D13*
X578483Y918998D1*
X606299Y943701D1*
X806299D2*
Y884449D1*
X655549D1*
X578483Y918998D1*
X493701Y743701D2*
X593701Y756299D1*
X666083Y662746D1*
X893701Y568701D1*
X493701Y943701D2*
Y1034772D1*
X681103D1*
X1106103D1*
Y943701D1*
X681103D2*
Y1034772D1*
X593701Y831103D2*
X958319D1*
X1079446D1*
X1090551Y765551D1*
X881103Y943701D2*
X958319D1*
X1031299D1*
X958319D2*
Y831103D1*
D21*
X543701Y543701D3*
X450322Y1025332D2*
D13*
X1162070D1*
X440946Y1000463D2*
X1171444D1*
X734696Y975595D2*
X752840D1*
X1159696D2*
X1172714D1*
X734696Y950726D2*
X752743D1*
X1159696D2*
X1172714D1*
X734696Y925857D2*
X752743D1*
X1159696D2*
X1172714D1*
X1159696Y900988D2*
X1172714D1*
X998807Y876120D2*
X1172714D1*
X1114139Y851251D2*
X1172714D1*
X1124540Y826382D2*
X1172714D1*
X439726Y801513D2*
X455848D1*
X1151347D2*
X1172714D1*
X1160135Y751776D2*
X1172714D1*
X1149588Y726907D2*
X1172714D1*
X439726Y702038D2*
X455261D1*
X532158D2*
X585164D1*
X725028D2*
X767099D1*
X823416D2*
X963974D1*
X1020292D2*
X1062411D1*
X1118730D2*
X1172714D1*
X439726Y677170D2*
X604403D1*
X733134D2*
X1172714D1*
X439726Y652301D2*
X623642D1*
X793339D2*
X1172714D1*
X439726Y627432D2*
X473007D1*
X614432D2*
X649570D1*
X931474D2*
X1172714D1*
X636747Y602563D2*
X658748D1*
X955742D2*
X1052450D1*
X1128642D2*
X1172714D1*
X747635Y577694D2*
X769979D1*
X964091D2*
X1039755D1*
X1141336D2*
X1172714D1*
X745828Y552826D2*
X824570D1*
X962822D2*
X1041562D1*
X1139530D2*
X1172714D1*
X653055Y527957D2*
X666872D1*
X726786D2*
X836142D1*
X951248D2*
X1060604D1*
X1120487D2*
X1172714D1*
X735916Y503088D2*
X871542D1*
X915898D2*
X1051474D1*
X1129618D2*
X1172714D1*
X632108Y478219D2*
X645906D1*
X747831D2*
X1039559D1*
X1141532D2*
X1170028D1*
X605351Y453351D2*
X648251D1*
X745487D2*
X1041952D1*
X1139188D2*
X1155038D1*
X1139523Y564847D2*
X1138316Y557234D1*
X1135935Y549903D1*
X1132435Y543034D1*
X1127904Y536799D1*
X1122453Y531348D1*
X1116218Y526818D1*
X1109349Y523318D1*
X1102019Y520936D1*
X1094406Y519730D1*
X1086697D1*
X1079084Y520936D1*
X1071753Y523318D1*
X1064885Y526818D1*
X1058650Y531348D1*
X1053198Y536799D1*
X1048668Y543034D1*
X1045168Y549903D1*
X1042786Y557234D1*
X1041580Y564847D1*
Y572555D1*
X1042786Y580168D1*
X1045168Y587499D1*
X1048668Y594368D1*
X1053198Y600603D1*
X1058650Y606054D1*
X1064885Y610584D1*
X1071753Y614084D1*
X1079084Y616466D1*
X1086697Y617672D1*
X1094406D1*
X1102019Y616466D1*
X1109349Y614084D1*
X1116218Y610584D1*
X1122453Y606054D1*
X1127904Y600603D1*
X1132435Y594368D1*
X1135935Y587499D1*
X1138316Y580168D1*
X1139523Y572555D1*
Y564847D1*
X439494Y1008261D2*
X437191Y990763D1*
X437192Y561408D1*
X438685Y568914D1*
X440987Y577075D1*
X443921Y585030D1*
X447473Y592732D1*
X451616Y600131D1*
X456327Y607181D1*
X461578Y613841D1*
X467334Y620068D1*
X473561Y625824D1*
X480221Y631075D1*
X487271Y635786D1*
X494670Y639929D1*
X502372Y643481D1*
X510327Y646415D1*
X518488Y648717D1*
X526806Y650372D1*
X535227Y651368D1*
X543701Y651701D1*
X552175Y651368D1*
X560596Y650372D1*
X568914Y648717D1*
X577075Y646415D1*
X585030Y643481D1*
X592732Y639929D1*
X600131Y635786D1*
X607181Y631075D1*
X613841Y625824D1*
X620068Y620068D1*
X625824Y613841D1*
X631075Y607181D1*
X635786Y600131D1*
X639929Y592732D1*
X643481Y585030D1*
X647845Y572005D1*
X649086Y580168D1*
X651467Y587499D1*
X654967Y594368D1*
X659498Y600603D1*
X664949Y606054D1*
X671184Y610584D1*
X678053Y614084D1*
X681403Y615319D1*
X648861Y628873D1*
X643774Y631983D1*
X639236Y635852D1*
X628378Y649379D1*
X585204Y705184D1*
X538673Y705209D1*
Y711117D1*
X537937Y710999D1*
X532612Y704790D1*
X526045Y699183D1*
X518683Y694671D1*
X510705Y691366D1*
X502309Y689351D1*
X493701Y688673D1*
X485093Y689351D1*
X476697Y691366D1*
X468719Y694671D1*
X461357Y699183D1*
X454790Y704790D1*
X449183Y711357D1*
X444671Y718719D1*
X441366Y726697D1*
X439351Y735093D1*
X438673Y743701D1*
X439351Y752309D1*
X441366Y760705D1*
X444671Y768683D1*
X449183Y776045D1*
X454790Y782612D1*
X461357Y788219D1*
X468719Y792731D1*
X470788Y793717D1*
X464949Y796782D1*
X457963Y801857D1*
X451857Y807963D1*
X446782Y814949D1*
X442862Y822643D1*
X440194Y830855D1*
X438843Y839383D1*
Y848019D1*
X440194Y856547D1*
X442862Y864759D1*
X446782Y872453D1*
X451857Y879439D1*
X457963Y885545D1*
X462000Y888673D1*
X438673D1*
Y998729D1*
X548729D1*
Y943368D1*
X555185Y949129D1*
X555209Y998729D1*
X732193D1*
Y922429D1*
X755206Y922449D1*
X755523Y977218D1*
X757150Y982987D1*
X760079Y988217D1*
X764149Y992620D1*
X769131Y995949D1*
X774756Y998024D1*
X781045Y998715D1*
X833891Y998650D1*
X839771Y997481D1*
X843706Y995815D1*
X849559Y998024D1*
X855848Y998715D1*
X908694Y998650D1*
X914574Y997481D1*
X920017Y994971D1*
X924725Y991260D1*
X928436Y986553D1*
X930400Y982583D1*
X931103Y981701D1*
X980243D1*
X980209Y998729D1*
X1157193D1*
Y888673D1*
X996306D1*
X996320Y869042D1*
X1082427Y868986D1*
X1088316Y868053D1*
X1093988Y866210D1*
X1099301Y863503D1*
X1104125Y859998D1*
X1108341Y855781D1*
X1111847Y850957D1*
X1114553Y845645D1*
X1116395Y839974D1*
X1118503Y828062D1*
X1126343Y823957D1*
X1135038Y817639D1*
X1142639Y810038D1*
X1148957Y801343D1*
X1153837Y791765D1*
X1157159Y781542D1*
X1158840Y770925D1*
Y760177D1*
X1157159Y749561D1*
X1153837Y739337D1*
X1148957Y729760D1*
X1142639Y721065D1*
X1135038Y713463D1*
X1126343Y707146D1*
X1116765Y702265D1*
X1106542Y698944D1*
X1095925Y697263D1*
X1085177D1*
X1074561Y698944D1*
X1064337Y702265D1*
X1054760Y707146D1*
X1046065Y713463D1*
X1041358Y717932D1*
X1032390Y710134D1*
X1023225Y704517D1*
X1013294Y700404D1*
X1002841Y697895D1*
X992126Y697051D1*
X981411Y697895D1*
X970958Y700404D1*
X961028Y704517D1*
X951862Y710134D1*
X943689Y717114D1*
X936709Y725288D1*
X931349Y733995D1*
X925603Y728198D1*
X919368Y723668D1*
X912499Y720168D1*
X905168Y717786D1*
X897555Y716580D1*
X889847D1*
X882234Y717786D1*
X874903Y720168D1*
X868034Y723668D1*
X861799Y728198D1*
X856078Y733992D1*
X850693Y725288D1*
X843713Y717114D1*
X835540Y710134D1*
X826374Y704517D1*
X816444Y700404D1*
X805991Y697895D1*
X795276Y697051D1*
X784561Y697895D1*
X774108Y700404D1*
X764177Y704517D1*
X755012Y710134D1*
X746839Y717114D1*
X746083Y717932D1*
X737114Y710134D1*
X727949Y704517D1*
X718019Y700404D1*
X707566Y697895D1*
X696851Y697051D1*
X686990Y697793D1*
X692146Y693093D1*
X855554Y625578D1*
X862603Y629735D1*
X872533Y633848D1*
X882986Y636357D1*
X893701Y637201D1*
X904416Y636357D1*
X914869Y633848D1*
X924799Y629735D1*
X933965Y624118D1*
X942138Y617138D1*
X949118Y608965D1*
X954735Y599799D1*
X958848Y589869D1*
X961357Y579416D1*
X962201Y568701D1*
X961357Y557986D1*
X958848Y547533D1*
X954735Y537603D1*
X949118Y528437D1*
X942138Y520264D1*
X933965Y513284D1*
X924799Y507667D1*
X914869Y503554D1*
X904416Y501045D1*
X893701Y500201D1*
X882986Y501045D1*
X872533Y503554D1*
X862603Y507667D1*
X853437Y513284D1*
X845264Y520264D1*
X838284Y528437D1*
X832667Y537603D1*
X828554Y547533D1*
X826574Y555327D1*
X740693Y590803D1*
X743568Y583881D1*
X745368Y576385D1*
X745973Y568701D1*
X745368Y561017D1*
X743568Y553521D1*
X740618Y546400D1*
X736591Y539828D1*
X731586Y533966D1*
X725723Y528961D1*
X719151Y524933D1*
X712030Y521983D1*
X704534Y520184D1*
X696851Y519579D1*
X689167Y520184D1*
X681671Y521983D1*
X674550Y524933D1*
X667978Y528961D1*
X662116Y533966D1*
X657110Y539828D1*
X653083Y546400D1*
X651525Y549780D1*
X651368Y535227D1*
X650372Y526806D1*
X648717Y518488D1*
X646415Y510327D1*
X643481Y502372D1*
X639929Y494670D1*
X635786Y487271D1*
X631075Y480221D1*
X625824Y473561D1*
X620068Y467334D1*
X613841Y461578D1*
X607181Y456327D1*
X600131Y451616D1*
X592732Y447473D1*
X585030Y443921D1*
X577075Y440987D1*
X568914Y438685D1*
X561408Y437192D1*
X660528Y437201D1*
X654967Y444609D1*
X651467Y451478D1*
X649086Y458809D1*
X647879Y466421D1*
Y474130D1*
X649086Y481743D1*
X651467Y489074D1*
X654967Y495942D1*
X659498Y502177D1*
X664949Y507629D1*
X671184Y512159D1*
X678053Y515659D1*
X685383Y518041D1*
X692996Y519247D1*
X700705D1*
X708318Y518041D1*
X715649Y515659D1*
X722517Y512159D1*
X728752Y507629D1*
X734204Y502177D1*
X738734Y495942D1*
X742234Y489074D1*
X744616Y481743D1*
X745822Y474130D1*
Y466421D1*
X744616Y458809D1*
X742234Y451478D1*
X738734Y444609D1*
X733109Y437189D1*
X1054277Y437201D1*
X1050811Y441403D1*
X1046784Y447975D1*
X1043834Y455096D1*
X1042034Y462592D1*
X1041429Y470276D1*
X1042034Y477960D1*
X1043834Y485456D1*
X1046784Y492576D1*
X1050811Y499149D1*
X1055816Y505011D1*
X1061679Y510016D1*
X1068251Y514044D1*
X1075372Y516994D1*
X1082868Y518793D1*
X1090551Y519398D1*
X1098235Y518793D1*
X1105731Y516994D1*
X1112852Y514044D1*
X1119424Y510016D1*
X1125286Y505011D1*
X1130292Y499149D1*
X1134319Y492576D1*
X1137269Y485456D1*
X1139068Y477960D1*
X1139673Y470276D1*
X1139068Y462592D1*
X1137269Y455096D1*
X1134319Y447975D1*
X1130292Y441403D1*
X1128250Y438811D1*
X1146794Y445109D1*
X1158414Y454036D1*
X1167327Y465666D1*
X1172927Y479206D1*
X1175214Y496638D1*
X1175201Y990977D1*
X1172908Y1008263D1*
X1167294Y1021794D1*
X1158368Y1033414D1*
X1146738Y1042326D1*
X1133197Y1047925D1*
X1115764Y1050211D1*
X496425Y1050201D1*
X479139Y1047908D1*
X465608Y1042294D1*
X453988Y1033366D1*
X445075Y1021736D1*
X439477Y1008196D1*
X438673Y998729D1*
X441173D1*
X493701Y998680D2*
D14*
Y943701D1*
X438722D2*
X548680D1*
X681103Y998680D2*
Y943701D1*
X732145D1*
X1106103Y998680D2*
Y888722D1*
Y943701D2*
X1157145D1*
D15*
X606299D3*
X681103D3*
D17*
X893701Y568701D3*
X795276Y765551D3*
X696851D3*
X992126D3*
X1090551D3*
D18*
X593701Y831103D3*
Y756299D3*
D15*
X1106103Y943701D3*
X1031299D3*
D42*
X881103D3*
X806299D3*
D19*
X493701D3*
D20*
Y843701D3*
Y743701D3*
M02*
