G04 DipTrace 3.0.0.2*
G04 WellMonitorSingle.gto*
%MOIN*%
G04 #@! TF.FileFunction,Legend,Top*
G04 #@! TF.Part,Single*
%ADD10C,0.009843*%
%ADD16C,0.008*%
%ADD39C,0.006176*%
%ADD41C,0.007*%
%FSLAX26Y26*%
G04*
G70*
G90*
G75*
G01*
G04 TopSilk*
%LPD*%
X564940Y918130D2*
D10*
Y969272D1*
X657496Y863977D2*
D16*
X1129906D1*
X657496Y430914D2*
Y706504D1*
Y863977D2*
Y824622D1*
Y430914D2*
X1129906D1*
Y706504D1*
Y863977D2*
Y824622D1*
X443701Y993701D2*
D10*
X543701D1*
Y693701D1*
X443701D2*
X543701D1*
X443701Y993701D2*
Y693701D1*
X883095Y504067D2*
D39*
Y473470D1*
X881193Y467722D1*
X879248Y465821D1*
X875445Y463875D1*
X871598D1*
X867796Y465821D1*
X865895Y467722D1*
X863949Y473470D1*
Y477272D1*
X895446Y496374D2*
X899293Y498319D1*
X905041Y504023D1*
Y463875D1*
X569331Y697997D2*
X586530D1*
X592278Y699942D1*
X594224Y701843D1*
X596125Y705646D1*
Y709493D1*
X594224Y713295D1*
X592278Y715241D1*
X586530Y717142D1*
X569331D1*
Y676950D1*
X582728Y697997D2*
X596125Y676950D1*
X608477Y709448D2*
X612323Y711394D1*
X618071Y717098D1*
Y676950D1*
X966276Y910731D2*
Y927931D1*
X964330Y933679D1*
X962429Y935624D1*
X958627Y937525D1*
X954780D1*
X950977Y935624D1*
X949032Y933679D1*
X947130Y927931D1*
Y910731D1*
X987322D1*
X966276Y924128D2*
X987322Y937525D1*
X956725Y951822D2*
X954824D1*
X950977Y953724D1*
X949076Y955625D1*
X947175Y959472D1*
Y967121D1*
X949076Y970923D1*
X950977Y972825D1*
X954824Y974770D1*
X958627D1*
X962473Y972825D1*
X968177Y969022D1*
X987322Y949877D1*
Y976671D1*
X741276Y910731D2*
Y927931D1*
X739330Y933679D1*
X737429Y935624D1*
X733627Y937525D1*
X729780D1*
X725977Y935624D1*
X724032Y933679D1*
X722130Y927931D1*
Y910731D1*
X762322D1*
X741276Y924128D2*
X762322Y937525D1*
X722175Y953724D2*
Y974726D1*
X737473Y963274D1*
Y969022D1*
X739375Y972825D1*
X741276Y974726D1*
X747024Y976671D1*
X750826D1*
X756574Y974726D1*
X760421Y970923D1*
X762322Y965175D1*
Y959427D1*
X760421Y953723D1*
X758476Y951822D1*
X754673Y949877D1*
X413837Y925795D2*
D41*
X410986Y924369D1*
X408101Y921484D1*
X406675Y918632D1*
Y912895D1*
X408100Y910010D1*
X410986Y907158D1*
X413837Y905699D1*
X418148Y904273D1*
X425345D1*
X429622Y905699D1*
X432508Y907158D1*
X435359Y910010D1*
X436819Y912895D1*
Y918632D1*
X435359Y921484D1*
X432508Y924369D1*
X429622Y925795D1*
X425345D1*
Y918632D1*
X416723Y939795D2*
X436819D1*
X422460D2*
X418149Y944106D1*
X416723Y946991D1*
Y951269D1*
X418149Y954154D1*
X422460Y955580D1*
X436819D1*
X406675Y986791D2*
X436819D1*
X421034D2*
X418148Y983939D1*
X416723Y981054D1*
Y976743D1*
X418149Y973891D1*
X421034Y971006D1*
X425345Y969580D1*
X428196D1*
X432508Y971006D1*
X435359Y973891D1*
X436819Y976743D1*
Y981054D1*
X435359Y983939D1*
X432508Y986791D1*
X407597Y813430D2*
Y829182D1*
X419071Y820593D1*
Y824904D1*
X420497Y827756D1*
X421923Y829182D1*
X426234Y830641D1*
X429086D1*
X433397Y829182D1*
X436282Y826330D1*
X437708Y822019D1*
Y817708D1*
X436282Y813430D1*
X434823Y812004D1*
X431971Y810545D1*
X434823Y846067D2*
X436282Y844641D1*
X437708Y846067D1*
X436282Y847526D1*
X434823Y846067D1*
X407597Y864411D2*
Y880163D1*
X419071Y871574D1*
Y875885D1*
X420497Y878737D1*
X421923Y880163D1*
X426234Y881622D1*
X429086D1*
X433397Y880163D1*
X436282Y877311D1*
X437708Y873000D1*
Y868689D1*
X436282Y864411D1*
X434823Y862985D1*
X431971Y861526D1*
X403659Y706809D2*
X433803Y718283D1*
X403659Y729757D1*
Y743757D2*
X433803D1*
Y753805D1*
X432344Y758116D1*
X429492Y761001D1*
X426607Y762427D1*
X422329Y763853D1*
X415133D1*
X410822Y762427D1*
X407970Y761001D1*
X405085Y758116D1*
X403659Y753805D1*
Y743757D1*
M02*
