G04 DipTrace 3.0.0.2*
G04 WellMonitorSingle.gbl*
%MOIN*%
G04 #@! TF.FileFunction,Copper,L2,Bot*
G04 #@! TF.Part,Single*
G04 #@! TA.AperFunction,CopperBalancing*
%ADD13C,0.025*%
%ADD14C,0.013*%
G04 #@! TA.AperFunction,ComponentPad*
%ADD17C,0.086*%
%ADD19R,0.059055X0.059055*%
%ADD20C,0.059055*%
G04 #@! TA.AperFunction,ViaPad*
%ADD21C,0.165*%
%FSLAX26Y26*%
G04*
G70*
G90*
G75*
G01*
G04 Bottom*
%LPD*%
D21*
X543701Y543701D3*
X450322Y1025332D2*
D13*
X1162070D1*
X440946Y1000463D2*
X1171444D1*
X551248Y975595D2*
X1172714D1*
X551248Y950726D2*
X1172714D1*
X551248Y925857D2*
X1172714D1*
X551248Y900988D2*
X1172714D1*
X540654Y876120D2*
X1172714D1*
X550711Y851251D2*
X1172714D1*
X548416Y826382D2*
X662851D1*
X730839D2*
X761288D1*
X829276D2*
X958114D1*
X1026103D2*
X1056551D1*
X1124540D2*
X1172714D1*
X439726Y801513D2*
X455848D1*
X531523D2*
X636044D1*
X1151347D2*
X1172714D1*
X540263Y776645D2*
X626767D1*
X550614Y751776D2*
X627255D1*
X1160135D2*
X1172714D1*
X548612Y726907D2*
X637802D1*
X1149588D2*
X1172714D1*
X439726Y702038D2*
X455261D1*
X532158D2*
X668710D1*
X725028D2*
X767099D1*
X823416D2*
X963974D1*
X1020292D2*
X1062411D1*
X1118730D2*
X1172714D1*
X439726Y677170D2*
X1172714D1*
X439726Y652301D2*
X1172714D1*
X439726Y627432D2*
X473007D1*
X614432D2*
X855966D1*
X931474D2*
X1172714D1*
X636747Y602563D2*
X658748D1*
X734940D2*
X831650D1*
X955742D2*
X1052450D1*
X1128642D2*
X1172714D1*
X747635Y577694D2*
X823299D1*
X964091D2*
X1039755D1*
X1141336D2*
X1172714D1*
X745828Y552826D2*
X824570D1*
X962822D2*
X1041562D1*
X1139530D2*
X1172714D1*
X653055Y527957D2*
X666872D1*
X726786D2*
X836142D1*
X951248D2*
X1060604D1*
X1120487D2*
X1172714D1*
X735916Y503088D2*
X871542D1*
X915898D2*
X1051474D1*
X1129618D2*
X1172714D1*
X632108Y478219D2*
X645906D1*
X747831D2*
X1039559D1*
X1141532D2*
X1170028D1*
X605351Y453351D2*
X648251D1*
X745487D2*
X1041952D1*
X1139188D2*
X1155038D1*
X441173Y998729D2*
X548729D1*
Y888673D1*
X525418D1*
X532612Y882612D1*
X538219Y876045D1*
X542731Y868683D1*
X546036Y860705D1*
X548051Y852309D1*
X548729Y843701D1*
X548051Y835093D1*
X546036Y826697D1*
X542731Y818719D1*
X538219Y811357D1*
X532612Y804790D1*
X526045Y799183D1*
X518683Y794671D1*
X516614Y793717D1*
X522453Y790620D1*
X529439Y785545D1*
X535545Y779439D1*
X540620Y772453D1*
X544540Y764759D1*
X547208Y756547D1*
X548559Y748019D1*
Y739383D1*
X547208Y730855D1*
X544540Y722643D1*
X540620Y714949D1*
X535545Y707963D1*
X529439Y701857D1*
X522453Y696782D1*
X514759Y692862D1*
X506547Y690194D1*
X498019Y688843D1*
X489383D1*
X480855Y690194D1*
X472643Y692862D1*
X464949Y696782D1*
X457963Y701857D1*
X451857Y707963D1*
X446782Y714949D1*
X442862Y722643D1*
X440194Y730855D1*
X438843Y739383D1*
Y748019D1*
X440194Y756547D1*
X442862Y764759D1*
X446782Y772453D1*
X451857Y779439D1*
X457963Y785545D1*
X464949Y790620D1*
X470788Y793685D1*
X464949Y796782D1*
X457963Y801857D1*
X451857Y807963D1*
X446782Y814949D1*
X442862Y822643D1*
X440194Y830855D1*
X438843Y839383D1*
Y848019D1*
X440194Y856547D1*
X442862Y864759D1*
X446782Y872453D1*
X451857Y879439D1*
X457963Y885545D1*
X462045Y888679D1*
X438673Y888673D1*
Y998729D1*
X441173D1*
X961990Y563327D2*
X960309Y552710D1*
X956987Y542487D1*
X952107Y532910D1*
X945789Y524214D1*
X938188Y516613D1*
X929492Y510295D1*
X919915Y505415D1*
X909692Y502093D1*
X899075Y500412D1*
X888327D1*
X877710Y502093D1*
X867487Y505415D1*
X857910Y510295D1*
X849214Y516613D1*
X841613Y524214D1*
X835295Y532910D1*
X830415Y542487D1*
X827093Y552710D1*
X825412Y563327D1*
Y574075D1*
X827093Y584692D1*
X830415Y594915D1*
X835295Y604492D1*
X841613Y613188D1*
X849214Y620789D1*
X857910Y627107D1*
X867487Y631987D1*
X877710Y635309D1*
X888327Y636990D1*
X899075D1*
X909692Y635309D1*
X919915Y631987D1*
X929492Y627107D1*
X938188Y620789D1*
X945789Y613188D1*
X952107Y604492D1*
X956987Y594915D1*
X960309Y584692D1*
X961990Y574075D1*
Y563327D1*
X856053Y733995D2*
X850693Y725288D1*
X843713Y717114D1*
X835540Y710134D1*
X826374Y704517D1*
X816444Y700404D1*
X805991Y697895D1*
X795276Y697051D1*
X784561Y697895D1*
X774108Y700404D1*
X764177Y704517D1*
X755012Y710134D1*
X746839Y717114D1*
X746083Y717932D1*
X737114Y710134D1*
X727949Y704517D1*
X718019Y700404D1*
X707566Y697895D1*
X696851Y697051D1*
X686135Y697895D1*
X675683Y700404D1*
X665752Y704517D1*
X656587Y710134D1*
X648414Y717114D1*
X641433Y725288D1*
X635816Y734453D1*
X631704Y744383D1*
X629194Y754836D1*
X628351Y765551D1*
X629194Y776267D1*
X631704Y786719D1*
X635816Y796650D1*
X641433Y805815D1*
X648414Y813988D1*
X656587Y820969D1*
X665752Y826586D1*
X675683Y830698D1*
X686135Y833208D1*
X696851Y834051D1*
X707566Y833208D1*
X718019Y830698D1*
X727949Y826586D1*
X737114Y820969D1*
X745288Y813988D1*
X746044Y813171D1*
X755012Y820969D1*
X764177Y826586D1*
X774108Y830698D1*
X784561Y833208D1*
X795276Y834051D1*
X805991Y833208D1*
X816444Y830698D1*
X826374Y826586D1*
X835540Y820969D1*
X843713Y813988D1*
X850693Y805815D1*
X856053Y797108D1*
X861799Y802904D1*
X868034Y807435D1*
X874903Y810935D1*
X882234Y813316D1*
X889847Y814523D1*
X897555D1*
X905168Y813316D1*
X912499Y810935D1*
X919368Y807435D1*
X925603Y802904D1*
X931324Y797110D1*
X936709Y805815D1*
X943689Y813988D1*
X951862Y820969D1*
X961028Y826586D1*
X970958Y830698D1*
X981411Y833208D1*
X992126Y834051D1*
X1002841Y833208D1*
X1013294Y830698D1*
X1023225Y826586D1*
X1032390Y820969D1*
X1040563Y813988D1*
X1041319Y813171D1*
X1050288Y820969D1*
X1059453Y826586D1*
X1069383Y830698D1*
X1079836Y833208D1*
X1090551Y834051D1*
X1101267Y833208D1*
X1111719Y830698D1*
X1121650Y826586D1*
X1130815Y820969D1*
X1138988Y813988D1*
X1145969Y805815D1*
X1151586Y796650D1*
X1155698Y786719D1*
X1158208Y776267D1*
X1159051Y765551D1*
X1158208Y754836D1*
X1155698Y744383D1*
X1151586Y734453D1*
X1145969Y725288D1*
X1138988Y717114D1*
X1130815Y710134D1*
X1121650Y704517D1*
X1111719Y700404D1*
X1101267Y697895D1*
X1090551Y697051D1*
X1079836Y697895D1*
X1069383Y700404D1*
X1059453Y704517D1*
X1050288Y710134D1*
X1042114Y717114D1*
X1041358Y717932D1*
X1032390Y710134D1*
X1023225Y704517D1*
X1013294Y700404D1*
X1002841Y697895D1*
X992126Y697051D1*
X981411Y697895D1*
X970958Y700404D1*
X961028Y704517D1*
X951862Y710134D1*
X943689Y717114D1*
X936709Y725288D1*
X931349Y733995D1*
X925603Y728198D1*
X919368Y723668D1*
X912499Y720168D1*
X905168Y717786D1*
X897555Y716580D1*
X889847D1*
X882234Y717786D1*
X874903Y720168D1*
X868034Y723668D1*
X861799Y728198D1*
X856078Y733992D1*
X745822Y564847D2*
X744616Y557234D1*
X742234Y549903D1*
X738734Y543034D1*
X734204Y536799D1*
X728752Y531348D1*
X722517Y526818D1*
X715649Y523318D1*
X708318Y520936D1*
X700705Y519730D1*
X692996D1*
X685383Y520936D1*
X678053Y523318D1*
X671184Y526818D1*
X664949Y531348D1*
X659498Y536799D1*
X654967Y543034D1*
X651525Y549780D1*
X651368Y535227D1*
X650372Y526806D1*
X648717Y518488D1*
X646415Y510327D1*
X643481Y502372D1*
X639929Y494670D1*
X635786Y487271D1*
X631075Y480221D1*
X625824Y473561D1*
X620068Y467334D1*
X613841Y461578D1*
X607181Y456327D1*
X600131Y451616D1*
X592732Y447473D1*
X585030Y443921D1*
X577075Y440987D1*
X568914Y438685D1*
X561408Y437192D1*
X660528Y437201D1*
X654967Y444609D1*
X651467Y451478D1*
X649086Y458809D1*
X647879Y466421D1*
Y474130D1*
X649086Y481743D1*
X651467Y489074D1*
X654967Y495942D1*
X659498Y502177D1*
X664949Y507629D1*
X671184Y512159D1*
X678053Y515659D1*
X685383Y518041D1*
X692996Y519247D1*
X700705D1*
X708318Y518041D1*
X715649Y515659D1*
X722517Y512159D1*
X728752Y507629D1*
X734204Y502177D1*
X738734Y495942D1*
X742234Y489074D1*
X744616Y481743D1*
X745822Y474130D1*
Y466421D1*
X744616Y458809D1*
X742234Y451478D1*
X738734Y444609D1*
X733109Y437189D1*
X1054277Y437201D1*
X1050811Y441403D1*
X1046784Y447975D1*
X1043834Y455096D1*
X1042034Y462592D1*
X1041429Y470276D1*
X1042034Y477960D1*
X1043834Y485456D1*
X1046784Y492576D1*
X1050811Y499149D1*
X1055816Y505011D1*
X1061679Y510016D1*
X1068251Y514044D1*
X1075372Y516994D1*
X1082868Y518793D1*
X1090551Y519398D1*
X1098235Y518793D1*
X1105731Y516994D1*
X1112852Y514044D1*
X1119424Y510016D1*
X1125286Y505011D1*
X1130292Y499149D1*
X1134319Y492576D1*
X1137269Y485456D1*
X1139068Y477960D1*
X1139673Y470276D1*
X1139068Y462592D1*
X1137269Y455096D1*
X1134319Y447975D1*
X1130292Y441403D1*
X1128250Y438811D1*
X1146794Y445109D1*
X1158414Y454036D1*
X1167327Y465666D1*
X1172927Y479206D1*
X1175214Y496638D1*
X1175201Y990977D1*
X1172908Y1008263D1*
X1167294Y1021794D1*
X1158368Y1033414D1*
X1146738Y1042326D1*
X1133197Y1047925D1*
X1115764Y1050211D1*
X496425Y1050201D1*
X479139Y1047908D1*
X465608Y1042293D1*
X453988Y1033366D1*
X445076Y1021736D1*
X439477Y1008196D1*
X437191Y990763D1*
X437201Y561639D1*
X440987Y577075D1*
X443921Y585030D1*
X447473Y592732D1*
X451616Y600131D1*
X456327Y607181D1*
X461578Y613841D1*
X467334Y620068D1*
X473561Y625824D1*
X480221Y631075D1*
X487271Y635786D1*
X494670Y639929D1*
X502372Y643481D1*
X510327Y646415D1*
X518488Y648717D1*
X526806Y650372D1*
X535227Y651368D1*
X543701Y651701D1*
X552175Y651368D1*
X560596Y650372D1*
X568914Y648717D1*
X577075Y646415D1*
X585030Y643481D1*
X592732Y639929D1*
X600131Y635786D1*
X607181Y631075D1*
X613841Y625824D1*
X620068Y620068D1*
X625824Y613841D1*
X631075Y607181D1*
X635786Y600131D1*
X639929Y592732D1*
X643481Y585030D1*
X647845Y572005D1*
X649086Y580168D1*
X651467Y587499D1*
X654967Y594368D1*
X659498Y600603D1*
X664949Y606054D1*
X671184Y610584D1*
X678053Y614084D1*
X685383Y616466D1*
X692996Y617672D1*
X700705D1*
X708318Y616466D1*
X715649Y614084D1*
X722517Y610584D1*
X728752Y606054D1*
X734204Y600603D1*
X738734Y594368D1*
X742234Y587499D1*
X744616Y580168D1*
X745822Y572555D1*
Y564847D1*
X1139523D2*
X1138316Y557234D1*
X1135935Y549903D1*
X1132435Y543034D1*
X1127904Y536799D1*
X1122453Y531348D1*
X1116218Y526818D1*
X1109349Y523318D1*
X1102019Y520936D1*
X1094406Y519730D1*
X1086697D1*
X1079084Y520936D1*
X1071753Y523318D1*
X1064885Y526818D1*
X1058650Y531348D1*
X1053198Y536799D1*
X1048668Y543034D1*
X1045168Y549903D1*
X1042786Y557234D1*
X1041580Y564847D1*
Y572555D1*
X1042786Y580168D1*
X1045168Y587499D1*
X1048668Y594368D1*
X1053198Y600603D1*
X1058650Y606054D1*
X1064885Y610584D1*
X1071753Y614084D1*
X1079084Y616466D1*
X1086697Y617672D1*
X1094406D1*
X1102019Y616466D1*
X1109349Y614084D1*
X1116218Y610584D1*
X1122453Y606054D1*
X1127904Y600603D1*
X1132435Y594368D1*
X1135935Y587499D1*
X1138316Y580168D1*
X1139523Y572555D1*
Y564847D1*
X493701Y998680D2*
D14*
Y943701D1*
X438722D2*
X548680D1*
D17*
X893701Y568701D3*
X795276Y765551D3*
X696851D3*
X992126D3*
X1090551D3*
D19*
X493701Y943701D3*
D20*
Y843701D3*
Y743701D3*
M02*
