G04 DipTrace 3.2.0.1*
G04 WellMonitor.gtl*
%MOIN*%
G04 #@! TF.FileFunction,Copper,L1,Top*
G04 #@! TF.Part,Single*
G04 #@! TA.AperFunction,Conductor*
%ADD13C,0.04*%
G04 #@! TA.AperFunction,CopperBalancing*
%ADD14C,0.025*%
G04 #@! TA.AperFunction,Conductor*
%ADD15C,0.02*%
G04 #@! TA.AperFunction,CopperBalancing*
%ADD18C,0.012992*%
%ADD19R,0.059055X0.051181*%
G04 #@! TA.AperFunction,ComponentPad*
%ADD20C,0.085984*%
%ADD21R,0.074803X0.098425*%
%ADD22O,0.074803X0.098425*%
%ADD24R,0.035433X0.035433*%
%ADD25R,0.035433X0.045276*%
G04 #@! TA.AperFunction,ViaPad*
%ADD26C,0.165*%
%FSLAX26Y26*%
G04*
G70*
G90*
G75*
G01*
G04 Top*
%LPD*%
X2118794Y980047D2*
D13*
X2074268Y902927D1*
X2030551Y793347D1*
X1163149Y980047D2*
X1193215Y873883D1*
X1460551Y793347D1*
X2418428Y980047D2*
X2590551Y793347D1*
X2600551D1*
X636403Y972173D2*
D15*
X613026Y801494D1*
X693701Y596496D1*
X1493701Y1043701D2*
X1447402Y1123894D1*
X741009D1*
Y1030596D1*
X636403Y972173D1*
X932711D2*
X982171D1*
Y683280D1*
X1169041D1*
X1263701Y596496D1*
X1593701Y1043701D2*
X1529435Y932389D1*
Y707414D1*
X1263701Y596496D1*
X1891757Y972173D2*
X1911442Y687921D1*
X1833701Y596496D1*
X1693701Y1043701D2*
X1827034Y596496D1*
X1833701D1*
X2187576Y972173D2*
X2393701Y596496D1*
X2403701D1*
X1793701Y1043701D2*
X1813306Y1116866D1*
X2273511D1*
Y1023708D1*
X2187576Y972173D1*
X1102003Y1017449D2*
X1146457Y1053811D1*
X1163149Y1054851D1*
X805694Y1017449D2*
X866958Y1067553D1*
Y1054851D1*
X2061049Y1017449D2*
X2118794Y1054851D1*
X2356868Y1017449D2*
X2418428Y1054851D1*
X866958Y980047D2*
D13*
Y793347D1*
X890551D1*
D26*
X518701Y1043701D3*
X2568701D3*
X435262Y1131332D2*
D14*
X451398D1*
X586011D2*
X702766D1*
X1487745D2*
X1777318D1*
X2309529D2*
X2501390D1*
X2636003D2*
X2653610D1*
X683114Y1106463D2*
X702013D1*
X1534753D2*
X1552648D1*
X1634763D2*
X1652657D1*
X2312507D2*
X2359898D1*
X683114Y1081595D2*
X702013D1*
X780001D2*
X808445D1*
X979410D2*
X1104633D1*
X1221664D2*
X1232884D1*
X2312507D2*
X2359898D1*
X683114Y1056726D2*
X702013D1*
X979410D2*
X1055293D1*
X1938451D2*
X2014333D1*
X979410Y1031857D2*
X1055293D1*
X1938451D2*
X2014333D1*
X995594Y1006988D2*
X1055293D1*
X1221664D2*
X1232345D1*
X1938451D2*
X2014333D1*
X731558Y982120D2*
X758997D1*
X1019779D2*
X1055293D1*
X1221664D2*
X1251149D1*
X1336278D2*
X1351122D1*
X1436251D2*
X1451131D1*
X1636270D2*
X1651150D1*
X1938451D2*
X2014333D1*
X2277628D2*
X2310163D1*
X434867Y957251D2*
X449819D1*
X687025D2*
X808445D1*
X1021179D2*
X1104633D1*
X1221664D2*
X1499144D1*
X1588436D2*
X1678888D1*
X1760070D2*
X1845032D1*
X1938451D2*
X2049464D1*
X2239878D2*
X2359898D1*
X2637582D2*
X2653251D1*
X434831Y932382D2*
X589695D1*
X683114D2*
X808445D1*
X1021179D2*
X1104633D1*
X1227477D2*
X1490460D1*
X1574082D2*
X1686316D1*
X1767462D2*
X1845032D1*
X1938451D2*
X2035075D1*
X2253550D2*
X2359898D1*
X2528099D2*
X2653180D1*
X434760Y907513D2*
X588224D1*
X666894D2*
X817955D1*
X915967D2*
X943191D1*
X1021179D2*
X1132874D1*
X1245276D2*
X1490460D1*
X1568413D2*
X1693708D1*
X1774890D2*
X1857161D1*
X1935329D2*
X2023556D1*
X2133086D2*
X2178934D1*
X2267186D2*
X2419574D1*
X2551029D2*
X2653144D1*
X434724Y882645D2*
X584815D1*
X663485D2*
X817955D1*
X915967D2*
X943191D1*
X1021179D2*
X1139908D1*
X1327809D2*
X1490460D1*
X1568413D2*
X1701136D1*
X1782283D2*
X1858883D1*
X1937051D2*
X2013616D1*
X2118733D2*
X2192570D1*
X2280822D2*
X2442504D1*
X2573959D2*
X2653072D1*
X434652Y857776D2*
X468335D1*
X525367D2*
X581406D1*
X660076D2*
X817955D1*
X919053D2*
X943191D1*
X1021179D2*
X1038319D1*
X1095352D2*
X1147120D1*
X1410379D2*
X1432041D1*
X1568413D2*
X1608340D1*
X1665372D2*
X1708564D1*
X1789711D2*
X1860606D1*
X1938773D2*
X2002025D1*
X2108793D2*
X2178324D1*
X2294458D2*
X2465434D1*
X2629078D2*
X2653036D1*
X556479Y832907D2*
X577997D1*
X726965D2*
X817955D1*
X1126463D2*
X1168759D1*
X1568413D2*
X1577228D1*
X1696483D2*
X1715956D1*
X1940496D2*
X1970914D1*
X2098889D2*
X2147213D1*
X2308129D2*
X2370448D1*
X2436954D2*
X2488328D1*
X744117Y808038D2*
X817955D1*
X1137264D2*
X1213291D1*
X1707249D2*
X1723384D1*
X1942218D2*
X1960148D1*
X2100970D2*
X2136447D1*
X2321765D2*
X2353295D1*
X2454106D2*
X2511258D1*
X568069Y783170D2*
X578535D1*
X745265D2*
X819103D1*
X1138090D2*
X1212142D1*
X1315286D2*
X1330668D1*
X1708074D2*
X1730813D1*
X1943941D2*
X1959323D1*
X2101795D2*
X2135622D1*
X2335401D2*
X2352147D1*
X2455255D2*
X2529307D1*
X559349Y758301D2*
X588296D1*
X732024D2*
X828038D1*
X1129334D2*
X1225384D1*
X1302009D2*
X1398058D1*
X1699354D2*
X1738205D1*
X1945663D2*
X1968043D1*
X2093040D2*
X2144342D1*
X2349037D2*
X2365388D1*
X2442013D2*
X2538063D1*
X434401Y733432D2*
X459149D1*
X534553D2*
X598092D1*
X681535D2*
X852870D1*
X928239D2*
X943191D1*
X1021179D2*
X1029169D1*
X1104538D2*
X1422854D1*
X1568413D2*
X1599153D1*
X1674522D2*
X1745633D1*
X1826779D2*
X1869218D1*
X1947386D2*
X1992875D1*
X2068244D2*
X2169174D1*
X2244543D2*
X2274458D1*
X2362709D2*
X2562859D1*
X2638228D2*
X2652749D1*
X434329Y708563D2*
X607889D1*
X691332D2*
X943191D1*
X1197980D2*
X1434947D1*
X1568413D2*
X1753025D1*
X1834207D2*
X1870940D1*
X1949108D2*
X2288094D1*
X2376345D2*
X2652713D1*
X434293Y683694D2*
X617685D1*
X701092D2*
X943191D1*
X1225073D2*
X1375380D1*
X1559657D2*
X1760453D1*
X1841599D2*
X1857448D1*
X1950185D2*
X2301730D1*
X2389981D2*
X2652641D1*
X434221Y658826D2*
X627446D1*
X726929D2*
X952592D1*
X1296913D2*
X1315776D1*
X1510280D2*
X1767881D1*
X1937087D2*
X2315366D1*
X2436918D2*
X2652570D1*
X434185Y633957D2*
X461051D1*
X532652D2*
X632685D1*
X754739D2*
X854772D1*
X926337D2*
X1031071D1*
X1102636D2*
X1166354D1*
X1496357D2*
X1601055D1*
X1672656D2*
X1772689D1*
X1915951D2*
X1994777D1*
X2066342D2*
X2171076D1*
X2242641D2*
X2329038D1*
X2464728D2*
X2564761D1*
X2636326D2*
X2652534D1*
X434114Y609088D2*
X445846D1*
X547867D2*
X622852D1*
X764535D2*
X839557D1*
X941552D2*
X1015856D1*
X1117851D2*
X1192873D1*
X1391109D2*
X1409541D1*
X1511572D2*
X1585840D1*
X1687871D2*
X1762857D1*
X1904540D2*
X1979562D1*
X2081557D2*
X2155861D1*
X2257856D2*
X2332877D1*
X2474524D2*
X2549546D1*
X434078Y584219D2*
X445773D1*
X547938D2*
X622816D1*
X764607D2*
X839449D1*
X941624D2*
X1015748D1*
X1117923D2*
X1192801D1*
X1334591D2*
X1409470D1*
X1511644D2*
X1585769D1*
X1687943D2*
X1762821D1*
X1904576D2*
X1979454D1*
X2081628D2*
X2155753D1*
X2257927D2*
X2332806D1*
X2474596D2*
X2549474D1*
X434006Y559351D2*
X460728D1*
X532975D2*
X632469D1*
X754918D2*
X854413D1*
X926696D2*
X1030712D1*
X1102995D2*
X1202490D1*
X1324939D2*
X1424397D1*
X1496680D2*
X1600696D1*
X1672979D2*
X1772474D1*
X1894923D2*
X1994418D1*
X2066701D2*
X2170717D1*
X2243000D2*
X2342494D1*
X2464907D2*
X2564402D1*
X2636685D2*
X2652354D1*
X433934Y534482D2*
X459902D1*
X533800D2*
X659849D1*
X727539D2*
X853624D1*
X927485D2*
X1029923D1*
X1103784D2*
X1229869D1*
X1297559D2*
X1423608D1*
X1497470D2*
X1599907D1*
X1673769D2*
X1799854D1*
X1867543D2*
X1993628D1*
X2067490D2*
X2169927D1*
X2243789D2*
X2369874D1*
X2437528D2*
X2563613D1*
X2637474D2*
X2652318D1*
X433898Y509613D2*
X445618D1*
X548118D2*
X839270D1*
X941803D2*
X1015569D1*
X1118102D2*
X1409290D1*
X1511823D2*
X1585589D1*
X1688122D2*
X1979275D1*
X2081808D2*
X2155574D1*
X2258107D2*
X2549295D1*
X433827Y484744D2*
X446040D1*
X547651D2*
X839736D1*
X941373D2*
X1016035D1*
X1117672D2*
X1409757D1*
X1511357D2*
X1586056D1*
X1687656D2*
X1979741D1*
X2081377D2*
X2156040D1*
X2257676D2*
X2549726D1*
X433791Y459876D2*
X461912D1*
X531790D2*
X855597D1*
X925512D2*
X1031896D1*
X1101811D2*
X1425618D1*
X1495496D2*
X1601917D1*
X1671795D2*
X1995602D1*
X2065481D2*
X2171901D1*
X2241780D2*
X2565622D1*
X2635501D2*
X2652139D1*
X433719Y435007D2*
X2652103D1*
X762971Y591045D2*
X761265Y580276D1*
X757896Y569906D1*
X752946Y560191D1*
X746537Y551370D1*
X738827Y543660D1*
X730006Y537251D1*
X720291Y532301D1*
X709922Y528932D1*
X699153Y527226D1*
X688249D1*
X677480Y528932D1*
X667111Y532301D1*
X657396Y537251D1*
X648575Y543660D1*
X640865Y551370D1*
X634456Y560191D1*
X629506Y569906D1*
X626137Y580276D1*
X624431Y591045D1*
Y601948D1*
X626137Y612717D1*
X629506Y623087D1*
X634456Y632802D1*
X638107Y638125D1*
X578125Y790836D1*
X576888Y796427D1*
X576540Y802142D1*
X578118Y815547D1*
X593520Y927999D1*
X592195Y927965D1*
Y963239D1*
X582765Y955525D1*
X575649Y950770D1*
X568182Y946588D1*
X560410Y943006D1*
X552381Y940043D1*
X544145Y937720D1*
X535751Y936051D1*
X527252Y935045D1*
X518701Y934709D1*
X510150Y935045D1*
X501651Y936051D1*
X493257Y937720D1*
X485021Y940043D1*
X476992Y943006D1*
X469220Y946588D1*
X461753Y950770D1*
X454637Y955525D1*
X447916Y960823D1*
X441632Y966632D1*
X435823Y972916D1*
X432408Y977248D1*
X432073Y818481D1*
X434940Y824892D1*
X440637Y834188D1*
X447718Y842479D1*
X456009Y849561D1*
X465305Y855257D1*
X475379Y859430D1*
X485981Y861975D1*
X496851Y862831D1*
X507720Y861975D1*
X518322Y859430D1*
X528396Y855257D1*
X537692Y849561D1*
X545983Y842479D1*
X553064Y834188D1*
X558761Y824892D1*
X562934Y814818D1*
X565479Y804216D1*
X566335Y793347D1*
X565479Y782477D1*
X562934Y771875D1*
X558761Y761802D1*
X553064Y752505D1*
X545983Y744214D1*
X537692Y737133D1*
X528396Y731436D1*
X518322Y727263D1*
X507720Y724718D1*
X496851Y723863D1*
X485981Y724718D1*
X475379Y727263D1*
X465305Y731436D1*
X456009Y737133D1*
X447718Y744214D1*
X440637Y752505D1*
X434940Y761802D1*
X431970Y768616D1*
X431225Y431219D1*
X2654596Y431201D1*
X2655288Y750549D1*
X2649684Y744214D1*
X2641393Y737133D1*
X2632097Y731436D1*
X2622023Y727263D1*
X2611421Y724718D1*
X2600551Y723863D1*
X2589682Y724718D1*
X2579080Y727263D1*
X2569006Y731436D1*
X2559710Y737133D1*
X2551419Y744214D1*
X2544338Y752505D1*
X2538641Y761802D1*
X2534468Y771875D1*
X2531923Y782477D1*
X2531234Y789109D1*
X2403207Y927967D1*
X2362409Y927965D1*
Y968334D1*
X2312659Y968319D1*
Y1066579D1*
X2362431D1*
X2362409Y1106933D1*
X2474448D1*
Y1098428D1*
X2480525Y1107765D1*
X2485823Y1114486D1*
X2491632Y1120770D1*
X2497916Y1126579D1*
X2504637Y1131877D1*
X2511753Y1136632D1*
X2519220Y1140814D1*
X2526992Y1144396D1*
X2535021Y1147359D1*
X2543257Y1149682D1*
X2551651Y1151351D1*
X2560150Y1152357D1*
X2568701Y1152693D1*
X2577252Y1152357D1*
X2585751Y1151351D1*
X2594145Y1149682D1*
X2602381Y1147359D1*
X2610410Y1144396D1*
X2618182Y1140814D1*
X2625649Y1136632D1*
X2632765Y1131877D1*
X2639486Y1126579D1*
X2645770Y1120770D1*
X2651579Y1114486D1*
X2656070Y1108789D1*
X2656174Y1154604D1*
X1465747Y1155439D1*
X1471102Y1151643D1*
X1475151Y1147594D1*
X1478522Y1142951D1*
X1492156Y1119361D1*
X1498714Y1119209D1*
X1508617Y1117640D1*
X1518152Y1114542D1*
X1527085Y1109990D1*
X1535197Y1104097D1*
X1542286Y1097008D1*
X1543681Y1095238D1*
X1548521Y1100692D1*
X1556145Y1107203D1*
X1564694Y1112442D1*
X1573957Y1116278D1*
X1583706Y1118619D1*
X1593701Y1119406D1*
X1603696Y1118619D1*
X1613445Y1116278D1*
X1622708Y1112442D1*
X1631257Y1107203D1*
X1638881Y1100692D1*
X1643681Y1095238D1*
X1648521Y1100692D1*
X1656145Y1107203D1*
X1664694Y1112442D1*
X1673957Y1116278D1*
X1683706Y1118619D1*
X1693701Y1119406D1*
X1703696Y1118619D1*
X1713445Y1116278D1*
X1722708Y1112442D1*
X1729806Y1108172D1*
X1729807Y1119406D1*
X1776206D1*
X1779592Y1130831D1*
X1782191Y1135933D1*
X1785557Y1140566D1*
X1789606Y1144615D1*
X1794239Y1147981D1*
X1799341Y1150581D1*
X1804787Y1152350D1*
X1810443Y1153246D1*
X1859238Y1153358D1*
X2276374Y1153246D1*
X2282030Y1152350D1*
X2287476Y1150581D1*
X2292578Y1147981D1*
X2297210Y1144615D1*
X2301260Y1140566D1*
X2304625Y1135933D1*
X2307225Y1130831D1*
X2308995Y1125385D1*
X2309890Y1119729D1*
X2310003Y1070935D1*
X2309861Y1020496D1*
X2308911Y1014849D1*
X2307090Y1009420D1*
X2304441Y1004343D1*
X2301031Y999743D1*
X2296943Y995733D1*
X2292279Y992412D1*
X2236484Y958952D1*
X2397343Y665722D1*
X2403701Y665980D1*
X2414571Y665125D1*
X2425173Y662580D1*
X2435246Y658407D1*
X2444543Y652710D1*
X2452834Y645629D1*
X2459915Y637338D1*
X2465612Y628041D1*
X2469784Y617968D1*
X2472330Y607366D1*
X2473185Y596496D1*
X2472330Y585627D1*
X2469784Y575024D1*
X2465612Y564951D1*
X2459915Y555655D1*
X2452834Y547364D1*
X2444543Y540282D1*
X2435246Y534585D1*
X2425173Y530413D1*
X2414571Y527868D1*
X2403701Y527012D1*
X2392831Y527868D1*
X2382229Y530413D1*
X2372156Y534585D1*
X2362859Y540282D1*
X2354568Y547364D1*
X2347487Y555655D1*
X2341790Y564951D1*
X2337618Y575024D1*
X2335072Y585627D1*
X2334217Y596496D1*
X2335072Y607366D1*
X2337618Y617968D1*
X2338687Y620867D1*
X2264959Y755275D1*
X2259687Y748220D1*
X2251977Y740511D1*
X2243156Y734102D1*
X2233441Y729152D1*
X2223071Y725782D1*
X2212302Y724077D1*
X2201399D1*
X2190630Y725782D1*
X2180260Y729152D1*
X2170545Y734102D1*
X2161724Y740511D1*
X2154014Y748220D1*
X2147606Y757041D1*
X2142656Y766756D1*
X2139286Y777126D1*
X2137581Y787895D1*
Y798798D1*
X2139286Y809567D1*
X2142656Y819937D1*
X2147606Y829652D1*
X2154014Y838473D1*
X2161724Y846183D1*
X2170545Y852592D1*
X2180260Y857542D1*
X2190630Y860911D1*
X2201399Y862617D1*
X2205977Y862796D1*
X2170195Y927990D1*
X2142410Y927965D1*
X2116212Y882592D1*
X2092865Y824073D1*
X2096635Y814818D1*
X2099180Y804216D1*
X2100036Y793347D1*
X2099180Y782477D1*
X2096635Y771875D1*
X2092462Y761802D1*
X2086765Y752505D1*
X2079684Y744214D1*
X2071393Y737133D1*
X2062097Y731436D1*
X2052023Y727263D1*
X2041421Y724718D1*
X2030551Y723863D1*
X2019682Y724718D1*
X2009080Y727263D1*
X1999006Y731436D1*
X1989710Y737133D1*
X1981419Y744214D1*
X1974338Y752505D1*
X1968641Y761802D1*
X1964468Y771875D1*
X1961923Y782477D1*
X1961067Y793347D1*
X1961923Y804216D1*
X1964468Y814818D1*
X1968641Y824892D1*
X1974338Y834188D1*
X1981419Y842479D1*
X1989710Y849561D1*
X1999006Y855257D1*
X2006460Y858464D1*
X2032577Y923502D1*
X2058352Y968344D1*
X2016840Y968319D1*
Y1066579D1*
X2062808D1*
X2062775Y1080385D1*
X1935948Y1080374D1*
X1935966Y1018516D1*
X1857595Y1018356D1*
Y1016382D1*
X1935966D1*
Y927965D1*
X1931409D1*
X1947934Y688001D1*
X1947498Y682291D1*
X1946173Y676720D1*
X1943993Y671425D1*
X1941012Y666536D1*
X1909488Y629291D1*
X1899795Y617891D1*
X1902330Y607366D1*
X1903185Y596496D1*
X1902330Y585627D1*
X1899784Y575024D1*
X1895612Y564951D1*
X1889915Y555655D1*
X1882834Y547364D1*
X1874543Y540282D1*
X1865246Y534585D1*
X1855173Y530413D1*
X1844571Y527868D1*
X1833701Y527012D1*
X1822831Y527868D1*
X1812229Y530413D1*
X1802156Y534585D1*
X1792859Y540282D1*
X1784568Y547364D1*
X1777487Y555655D1*
X1771790Y564951D1*
X1767618Y575024D1*
X1765072Y585627D1*
X1764217Y596496D1*
X1765072Y607366D1*
X1767618Y617968D1*
X1771790Y628041D1*
X1777002Y636611D1*
X1677570Y970084D1*
X1669250Y972860D1*
X1660317Y977412D1*
X1652205Y983305D1*
X1645116Y990394D1*
X1643721Y992164D1*
X1638881Y986710D1*
X1631257Y980199D1*
X1622708Y974960D1*
X1613445Y971124D1*
X1603696Y968783D1*
X1593701Y967996D1*
X1592154Y968057D1*
X1565933Y922623D1*
X1565822Y704649D1*
X1564941Y698991D1*
X1563187Y693540D1*
X1560601Y688431D1*
X1557248Y683789D1*
X1553210Y679729D1*
X1548586Y676351D1*
X1543491Y673737D1*
X1474048Y644752D1*
X1479729Y642796D1*
X1486736Y639226D1*
X1493098Y634603D1*
X1498658Y629043D1*
X1503281Y622681D1*
X1506851Y615674D1*
X1509281Y608195D1*
X1510511Y600428D1*
Y592564D1*
X1509281Y584797D1*
X1506851Y577318D1*
X1503281Y570312D1*
X1498658Y563950D1*
X1493098Y558389D1*
X1486736Y553767D1*
X1479729Y550197D1*
X1472250Y547767D1*
X1469914Y547302D1*
X1476037Y545732D1*
X1483303Y542723D1*
X1490008Y538614D1*
X1495987Y533507D1*
X1501095Y527527D1*
X1505203Y520822D1*
X1508213Y513557D1*
X1510048Y505911D1*
X1510665Y498071D1*
X1510048Y490232D1*
X1508213Y482585D1*
X1505203Y475320D1*
X1501095Y468615D1*
X1495987Y462635D1*
X1490008Y457528D1*
X1483303Y453419D1*
X1476037Y450410D1*
X1468391Y448574D1*
X1460551Y447957D1*
X1452712Y448574D1*
X1445065Y450410D1*
X1437800Y453419D1*
X1431095Y457528D1*
X1425115Y462635D1*
X1420008Y468615D1*
X1415899Y475320D1*
X1412890Y482585D1*
X1411054Y490232D1*
X1410437Y498071D1*
X1411054Y505911D1*
X1412890Y513557D1*
X1415899Y520822D1*
X1420008Y527527D1*
X1425115Y533507D1*
X1431095Y538614D1*
X1437800Y542723D1*
X1445065Y545732D1*
X1451189Y547265D1*
X1445065Y548835D1*
X1437800Y551844D1*
X1431095Y555953D1*
X1425115Y561060D1*
X1420008Y567040D1*
X1415899Y573745D1*
X1412890Y581010D1*
X1411054Y588657D1*
X1410437Y596496D1*
X1411054Y604336D1*
X1412890Y611982D1*
X1415899Y619248D1*
X1416793Y620843D1*
X1332315Y585593D1*
X1329784Y575024D1*
X1325612Y564951D1*
X1319915Y555655D1*
X1312834Y547364D1*
X1304543Y540282D1*
X1295246Y534585D1*
X1285173Y530413D1*
X1274571Y527868D1*
X1263701Y527012D1*
X1252831Y527868D1*
X1242229Y530413D1*
X1232156Y534585D1*
X1222859Y540282D1*
X1214568Y547364D1*
X1207487Y555655D1*
X1201790Y564951D1*
X1197618Y575024D1*
X1195072Y585627D1*
X1194217Y596496D1*
X1195072Y607366D1*
X1195501Y609519D1*
X1154849Y646784D1*
X979308Y646900D1*
X973652Y647796D1*
X968206Y649565D1*
X963104Y652165D1*
X958471Y655531D1*
X954422Y659580D1*
X951056Y664213D1*
X948456Y669315D1*
X946687Y674761D1*
X945791Y680417D1*
X945679Y729211D1*
Y751065D1*
X939684Y744214D1*
X931393Y737133D1*
X922097Y731436D1*
X912023Y727263D1*
X901421Y724718D1*
X890551Y723863D1*
X879682Y724718D1*
X869080Y727263D1*
X859006Y731436D1*
X849710Y737133D1*
X841419Y744214D1*
X834338Y752505D1*
X828641Y761802D1*
X824468Y771875D1*
X821751Y782493D1*
X820609Y789699D1*
X820466Y820906D1*
Y927948D1*
X810939Y927965D1*
Y968335D1*
X761486Y968319D1*
Y1000364D1*
X718702Y976339D1*
X680637Y955080D1*
X680612Y927965D1*
X667155D1*
X652686Y822133D1*
X658265Y828783D1*
X664245Y833890D1*
X670950Y837999D1*
X678215Y841008D1*
X685861Y842844D1*
X693701Y843461D1*
X701541Y842844D1*
X709187Y841008D1*
X716452Y837999D1*
X723157Y833890D1*
X729137Y828783D1*
X734244Y822803D1*
X738353Y816098D1*
X741362Y808833D1*
X743198Y801186D1*
X743815Y793347D1*
X743198Y785507D1*
X741362Y777861D1*
X738353Y770595D1*
X734244Y763890D1*
X729137Y757911D1*
X723157Y752804D1*
X716452Y748695D1*
X709187Y745685D1*
X701541Y743850D1*
X693701Y743233D1*
X685861Y743850D1*
X678215Y745685D1*
X673476Y747530D1*
X705999Y664896D1*
X715173Y662580D1*
X725246Y658407D1*
X734543Y652710D1*
X742834Y645629D1*
X749915Y637338D1*
X755612Y628041D1*
X759784Y617968D1*
X762330Y607366D1*
X763185Y596496D1*
X762971Y591045D1*
X913443Y858906D2*
X922097Y855257D1*
X931393Y849561D1*
X939684Y842479D1*
X945670Y835578D1*
X945679Y927974D1*
X913441Y927965D1*
X913450Y858938D1*
X546810Y494139D2*
X545580Y486372D1*
X543150Y478893D1*
X539580Y471887D1*
X534958Y465525D1*
X529397Y459964D1*
X523035Y455342D1*
X516028Y451772D1*
X508549Y449342D1*
X500783Y448112D1*
X492919D1*
X485152Y449342D1*
X477673Y451772D1*
X470666Y455342D1*
X464304Y459964D1*
X458744Y465525D1*
X454121Y471887D1*
X450551Y478893D1*
X448121Y486372D1*
X446891Y494139D1*
Y502003D1*
X448121Y509770D1*
X450551Y517249D1*
X454121Y524256D1*
X458744Y530618D1*
X464304Y536178D1*
X470666Y540800D1*
X477673Y544370D1*
X485152Y546800D1*
X487488Y547265D1*
X481365Y548835D1*
X474099Y551844D1*
X467394Y555953D1*
X461415Y561060D1*
X456307Y567040D1*
X452199Y573745D1*
X449189Y581010D1*
X447354Y588657D1*
X446737Y596496D1*
X447354Y604336D1*
X449189Y611982D1*
X452199Y619248D1*
X456307Y625953D1*
X461415Y631932D1*
X467394Y637039D1*
X474099Y641148D1*
X481365Y644158D1*
X489011Y645993D1*
X496851Y646610D1*
X504690Y645993D1*
X512337Y644158D1*
X519602Y641148D1*
X526307Y637039D1*
X532287Y631932D1*
X537394Y625953D1*
X541503Y619248D1*
X544512Y611982D1*
X546348Y604336D1*
X546965Y596496D1*
X546348Y588657D1*
X544512Y581010D1*
X541503Y573745D1*
X537394Y567040D1*
X532287Y561060D1*
X526307Y555953D1*
X519602Y551844D1*
X512337Y548835D1*
X506213Y547302D1*
X512337Y545732D1*
X519602Y542723D1*
X526307Y538614D1*
X532287Y533507D1*
X537394Y527527D1*
X541503Y520822D1*
X544512Y513557D1*
X546348Y505911D1*
X546965Y498071D1*
X546810Y494139D1*
X940511D2*
X939281Y486372D1*
X936851Y478893D1*
X933281Y471887D1*
X928658Y465525D1*
X923098Y459964D1*
X916736Y455342D1*
X909729Y451772D1*
X902250Y449342D1*
X894483Y448112D1*
X886619D1*
X878853Y449342D1*
X871374Y451772D1*
X864367Y455342D1*
X858005Y459964D1*
X852444Y465525D1*
X847822Y471887D1*
X844252Y478893D1*
X841822Y486372D1*
X840592Y494139D1*
Y502003D1*
X841822Y509770D1*
X844252Y517249D1*
X847822Y524256D1*
X852444Y530618D1*
X858005Y536178D1*
X864367Y540800D1*
X871374Y544370D1*
X878853Y546800D1*
X881189Y547265D1*
X875065Y548835D1*
X867800Y551844D1*
X861095Y555953D1*
X855115Y561060D1*
X850008Y567040D1*
X845899Y573745D1*
X842890Y581010D1*
X841054Y588657D1*
X840437Y596496D1*
X841054Y604336D1*
X842890Y611982D1*
X845899Y619248D1*
X850008Y625953D1*
X855115Y631932D1*
X861095Y637039D1*
X867800Y641148D1*
X875065Y644158D1*
X882712Y645993D1*
X890551Y646610D1*
X898391Y645993D1*
X906037Y644158D1*
X913303Y641148D1*
X920008Y637039D1*
X925987Y631932D1*
X931095Y625953D1*
X935203Y619248D1*
X938213Y611982D1*
X940048Y604336D1*
X940665Y596496D1*
X940048Y588657D1*
X938213Y581010D1*
X935203Y573745D1*
X931095Y567040D1*
X925987Y561060D1*
X920008Y555953D1*
X913303Y551844D1*
X906037Y548835D1*
X899914Y547302D1*
X906037Y545732D1*
X913303Y542723D1*
X920008Y538614D1*
X925987Y533507D1*
X931095Y527527D1*
X935203Y520822D1*
X938213Y513557D1*
X940048Y505911D1*
X940665Y498071D1*
X940511Y494139D1*
X1244834Y663314D2*
X1252831Y665125D1*
X1263701Y665980D1*
X1274571Y665125D1*
X1285173Y662580D1*
X1295246Y658407D1*
X1304206Y652935D1*
X1482023Y727263D1*
X1471421Y724718D1*
X1460551Y723863D1*
X1449682Y724718D1*
X1439080Y727263D1*
X1429006Y731436D1*
X1419710Y737133D1*
X1411419Y744214D1*
X1404338Y752505D1*
X1398641Y761802D1*
X1397757Y763718D1*
X1313656Y789044D1*
X1312430Y781648D1*
X1310000Y774169D1*
X1306430Y767162D1*
X1301808Y760800D1*
X1296247Y755240D1*
X1289886Y750617D1*
X1282879Y747047D1*
X1275400Y744617D1*
X1267633Y743387D1*
X1259769D1*
X1252002Y744617D1*
X1244523Y747047D1*
X1237516Y750617D1*
X1231155Y755240D1*
X1225594Y760800D1*
X1220972Y767162D1*
X1217402Y774169D1*
X1214972Y781648D1*
X1213741Y789415D1*
Y797279D1*
X1214972Y805046D1*
X1217402Y812524D1*
X1219748Y817345D1*
X1176353Y830557D1*
X1169783Y833728D1*
X1163790Y837888D1*
X1158521Y842934D1*
X1154107Y848743D1*
X1150656Y855170D1*
X1149315Y858581D1*
X1129581Y927954D1*
X1107129Y927965D1*
Y968334D1*
X1057795Y968319D1*
Y1066579D1*
X1104408D1*
X1107129Y1076259D1*
Y1087419D1*
X976924Y1087402D1*
X976920Y1018516D1*
X922986D1*
X925249Y1016382D1*
X976920D1*
Y1008667D1*
X985034Y1008553D1*
X990690Y1007657D1*
X996136Y1005888D1*
X1001238Y1003288D1*
X1005871Y999922D1*
X1009920Y995873D1*
X1013285Y991241D1*
X1015885Y986138D1*
X1017655Y980692D1*
X1018550Y975037D1*
X1018663Y926242D1*
Y843385D1*
X1026009Y849561D1*
X1035305Y855257D1*
X1045379Y859430D1*
X1055981Y861975D1*
X1066851Y862831D1*
X1077720Y861975D1*
X1088322Y859430D1*
X1098396Y855257D1*
X1107692Y849561D1*
X1115983Y842479D1*
X1123064Y834188D1*
X1128761Y824892D1*
X1132934Y814818D1*
X1135479Y804216D1*
X1136335Y793347D1*
X1135479Y782477D1*
X1132934Y771875D1*
X1128761Y761802D1*
X1123064Y752505D1*
X1115983Y744214D1*
X1107692Y737133D1*
X1098396Y731436D1*
X1088322Y727263D1*
X1077720Y724718D1*
X1066851Y723863D1*
X1055981Y724718D1*
X1045379Y727263D1*
X1035305Y731436D1*
X1026009Y737133D1*
X1018673Y743332D1*
X1018663Y719800D1*
X1171904Y719659D1*
X1177560Y718764D1*
X1183006Y716994D1*
X1188108Y714394D1*
X1192749Y711021D1*
X1244777Y663352D1*
X1492933Y731904D2*
X1490645Y730767D1*
X1424525Y852748D2*
X1433961Y857542D1*
X1444331Y860911D1*
X1455100Y862617D1*
X1466003D1*
X1476772Y860911D1*
X1487142Y857542D1*
X1492933Y854789D1*
X1493055Y935252D1*
X1493951Y940908D1*
X1495720Y946354D1*
X1502425Y958590D1*
X1508617Y969762D1*
X1498714Y968193D1*
X1488688D1*
X1478785Y969762D1*
X1469250Y972860D1*
X1460317Y977412D1*
X1452205Y983305D1*
X1445116Y990394D1*
X1443721Y992164D1*
X1438881Y986710D1*
X1431257Y980199D1*
X1422708Y974960D1*
X1413445Y971124D1*
X1403696Y968783D1*
X1393701Y967996D1*
X1383706Y968783D1*
X1373957Y971124D1*
X1364694Y974960D1*
X1356145Y980199D1*
X1348521Y986710D1*
X1343721Y992164D1*
X1339286Y987119D1*
X1333846Y982183D1*
X1327876Y977904D1*
X1321455Y974339D1*
X1314666Y971534D1*
X1307601Y969527D1*
X1300352Y968344D1*
X1293015Y968000D1*
X1285687Y968501D1*
X1278465Y969840D1*
X1271444Y971998D1*
X1264718Y974948D1*
X1258374Y978651D1*
X1252498Y983057D1*
X1247165Y988108D1*
X1242448Y993738D1*
X1238408Y999873D1*
X1235099Y1006430D1*
X1232564Y1013324D1*
X1230838Y1020463D1*
X1229941Y1027753D1*
X1229808Y1046588D1*
X1230007Y1060553D1*
X1231006Y1067830D1*
X1232834Y1074944D1*
X1235466Y1081801D1*
X1238340Y1087398D1*
X1219142Y1087402D1*
X1219168Y952862D1*
X1231007Y911062D1*
X1424496Y852765D1*
X1116810Y494139D2*
X1115580Y486372D1*
X1113150Y478893D1*
X1109580Y471887D1*
X1104958Y465525D1*
X1099397Y459964D1*
X1093035Y455342D1*
X1086028Y451772D1*
X1078549Y449342D1*
X1070783Y448112D1*
X1062919D1*
X1055152Y449342D1*
X1047673Y451772D1*
X1040666Y455342D1*
X1034304Y459964D1*
X1028744Y465525D1*
X1024121Y471887D1*
X1020551Y478893D1*
X1018121Y486372D1*
X1016891Y494139D1*
Y502003D1*
X1018121Y509770D1*
X1020551Y517249D1*
X1024121Y524256D1*
X1028744Y530618D1*
X1034304Y536178D1*
X1040666Y540800D1*
X1047673Y544370D1*
X1055152Y546800D1*
X1057488Y547265D1*
X1051365Y548835D1*
X1044099Y551844D1*
X1037394Y555953D1*
X1031415Y561060D1*
X1026307Y567040D1*
X1022199Y573745D1*
X1019189Y581010D1*
X1017354Y588657D1*
X1016737Y596496D1*
X1017354Y604336D1*
X1019189Y611982D1*
X1022199Y619248D1*
X1026307Y625953D1*
X1031415Y631932D1*
X1037394Y637039D1*
X1044099Y641148D1*
X1051365Y644158D1*
X1059011Y645993D1*
X1066851Y646610D1*
X1074690Y645993D1*
X1082337Y644158D1*
X1089602Y641148D1*
X1096307Y637039D1*
X1102287Y631932D1*
X1107394Y625953D1*
X1111503Y619248D1*
X1114512Y611982D1*
X1116348Y604336D1*
X1116965Y596496D1*
X1116348Y588657D1*
X1114512Y581010D1*
X1111503Y573745D1*
X1107394Y567040D1*
X1102287Y561060D1*
X1096307Y555953D1*
X1089602Y551844D1*
X1082337Y548835D1*
X1076213Y547302D1*
X1082337Y545732D1*
X1089602Y542723D1*
X1096307Y538614D1*
X1102287Y533507D1*
X1107394Y527527D1*
X1111503Y520822D1*
X1114512Y513557D1*
X1116348Y505911D1*
X1116965Y498071D1*
X1116810Y494139D1*
X1706121Y787895D2*
X1704415Y777126D1*
X1701046Y766756D1*
X1696096Y757041D1*
X1689687Y748220D1*
X1681977Y740511D1*
X1673156Y734102D1*
X1663441Y729152D1*
X1653071Y725782D1*
X1642302Y724077D1*
X1631399D1*
X1620630Y725782D1*
X1610260Y729152D1*
X1600545Y734102D1*
X1591724Y740511D1*
X1584014Y748220D1*
X1577606Y757041D1*
X1572656Y766756D1*
X1569286Y777126D1*
X1567581Y787895D1*
Y798798D1*
X1569286Y809567D1*
X1572656Y819937D1*
X1577606Y829652D1*
X1584014Y838473D1*
X1591724Y846183D1*
X1600545Y852592D1*
X1610260Y857542D1*
X1620630Y860911D1*
X1631399Y862617D1*
X1642302D1*
X1653071Y860911D1*
X1663441Y857542D1*
X1673156Y852592D1*
X1681977Y846183D1*
X1689687Y838473D1*
X1696096Y829652D1*
X1701046Y819937D1*
X1704415Y809567D1*
X1706121Y798798D1*
Y787895D1*
X1686810Y494139D2*
X1685580Y486372D1*
X1683150Y478893D1*
X1679580Y471887D1*
X1674958Y465525D1*
X1669397Y459964D1*
X1663035Y455342D1*
X1656028Y451772D1*
X1648549Y449342D1*
X1640783Y448112D1*
X1632919D1*
X1625152Y449342D1*
X1617673Y451772D1*
X1610666Y455342D1*
X1604304Y459964D1*
X1598744Y465525D1*
X1594121Y471887D1*
X1590551Y478893D1*
X1588121Y486372D1*
X1586891Y494139D1*
Y502003D1*
X1588121Y509770D1*
X1590551Y517249D1*
X1594121Y524256D1*
X1598744Y530618D1*
X1604304Y536178D1*
X1610666Y540800D1*
X1617673Y544370D1*
X1625152Y546800D1*
X1627488Y547265D1*
X1621365Y548835D1*
X1614099Y551844D1*
X1607394Y555953D1*
X1601415Y561060D1*
X1596307Y567040D1*
X1592199Y573745D1*
X1589189Y581010D1*
X1587354Y588657D1*
X1586737Y596496D1*
X1587354Y604336D1*
X1589189Y611982D1*
X1592199Y619248D1*
X1596307Y625953D1*
X1601415Y631932D1*
X1607394Y637039D1*
X1614099Y641148D1*
X1621365Y644158D1*
X1629011Y645993D1*
X1636851Y646610D1*
X1644690Y645993D1*
X1652337Y644158D1*
X1659602Y641148D1*
X1666307Y637039D1*
X1672287Y631932D1*
X1677394Y625953D1*
X1681503Y619248D1*
X1684512Y611982D1*
X1686348Y604336D1*
X1686965Y596496D1*
X1686348Y588657D1*
X1684512Y581010D1*
X1681503Y573745D1*
X1677394Y567040D1*
X1672287Y561060D1*
X1666307Y555953D1*
X1659602Y551844D1*
X1652337Y548835D1*
X1646213Y547302D1*
X1652337Y545732D1*
X1659602Y542723D1*
X1666307Y538614D1*
X1672287Y533507D1*
X1677394Y527527D1*
X1681503Y520822D1*
X1684512Y513557D1*
X1686348Y505911D1*
X1686965Y498071D1*
X1686810Y494139D1*
X1869961Y758802D2*
X1866247Y755240D1*
X1859886Y750617D1*
X1852879Y747047D1*
X1845400Y744617D1*
X1837633Y743387D1*
X1829769D1*
X1822002Y744617D1*
X1820863Y744939D1*
X1844518Y665574D1*
X1874034Y700261D1*
X1869958Y758751D1*
X1796439Y826807D2*
X1801155Y831454D1*
X1807516Y836076D1*
X1814523Y839646D1*
X1822002Y842076D1*
X1829769Y843306D1*
X1837633D1*
X1845400Y842076D1*
X1852879Y839646D1*
X1859886Y836076D1*
X1864835Y832567D1*
X1858242Y927935D1*
X1847549Y927965D1*
Y967976D1*
X1754356Y967996D1*
X1796433Y826855D1*
X2080511Y494139D2*
X2079281Y486372D1*
X2076851Y478893D1*
X2073281Y471887D1*
X2068658Y465525D1*
X2063098Y459964D1*
X2056736Y455342D1*
X2049729Y451772D1*
X2042250Y449342D1*
X2034483Y448112D1*
X2026619D1*
X2018853Y449342D1*
X2011374Y451772D1*
X2004367Y455342D1*
X1998005Y459964D1*
X1992444Y465525D1*
X1987822Y471887D1*
X1984252Y478893D1*
X1981822Y486372D1*
X1980592Y494139D1*
Y502003D1*
X1981822Y509770D1*
X1984252Y517249D1*
X1987822Y524256D1*
X1992444Y530618D1*
X1998005Y536178D1*
X2004367Y540800D1*
X2011374Y544370D1*
X2018853Y546800D1*
X2021189Y547265D1*
X2015065Y548835D1*
X2007800Y551844D1*
X2001095Y555953D1*
X1995115Y561060D1*
X1990008Y567040D1*
X1985899Y573745D1*
X1982890Y581010D1*
X1981054Y588657D1*
X1980437Y596496D1*
X1981054Y604336D1*
X1982890Y611982D1*
X1985899Y619248D1*
X1990008Y625953D1*
X1995115Y631932D1*
X2001095Y637039D1*
X2007800Y641148D1*
X2015065Y644158D1*
X2022712Y645993D1*
X2030551Y646610D1*
X2038391Y645993D1*
X2046037Y644158D1*
X2053303Y641148D1*
X2060008Y637039D1*
X2065987Y631932D1*
X2071095Y625953D1*
X2075203Y619248D1*
X2078213Y611982D1*
X2080048Y604336D1*
X2080665Y596496D1*
X2080048Y588657D1*
X2078213Y581010D1*
X2075203Y573745D1*
X2071095Y567040D1*
X2065987Y561060D1*
X2060008Y555953D1*
X2053303Y551844D1*
X2046037Y548835D1*
X2039914Y547302D1*
X2046037Y545732D1*
X2053303Y542723D1*
X2060008Y538614D1*
X2065987Y533507D1*
X2071095Y527527D1*
X2075203Y520822D1*
X2078213Y513557D1*
X2080048Y505911D1*
X2080665Y498071D1*
X2080511Y494139D1*
X2590422Y862063D2*
X2600551Y862831D1*
X2611421Y861975D1*
X2622023Y859430D1*
X2632097Y855257D1*
X2641393Y849561D1*
X2649684Y842479D1*
X2655485Y835812D1*
X2655787Y978197D1*
X2651579Y972916D1*
X2645770Y966632D1*
X2639486Y960823D1*
X2632765Y955525D1*
X2625649Y950770D1*
X2618182Y946588D1*
X2610410Y943006D1*
X2602381Y940043D1*
X2594145Y937720D1*
X2585751Y936051D1*
X2577252Y935045D1*
X2568701Y934709D1*
X2560150Y935045D1*
X2551651Y936051D1*
X2543257Y937720D1*
X2535021Y940043D1*
X2526992Y943006D1*
X2519220Y946588D1*
X2511753Y950770D1*
X2503298Y956580D1*
X2590400Y862101D1*
X2256810Y494139D2*
X2255580Y486372D1*
X2253150Y478893D1*
X2249580Y471887D1*
X2244958Y465525D1*
X2239397Y459964D1*
X2233035Y455342D1*
X2226028Y451772D1*
X2218549Y449342D1*
X2210783Y448112D1*
X2202919D1*
X2195152Y449342D1*
X2187673Y451772D1*
X2180666Y455342D1*
X2174304Y459964D1*
X2168744Y465525D1*
X2164121Y471887D1*
X2160551Y478893D1*
X2158121Y486372D1*
X2156891Y494139D1*
Y502003D1*
X2158121Y509770D1*
X2160551Y517249D1*
X2164121Y524256D1*
X2168744Y530618D1*
X2174304Y536178D1*
X2180666Y540800D1*
X2187673Y544370D1*
X2195152Y546800D1*
X2197488Y547265D1*
X2191365Y548835D1*
X2184099Y551844D1*
X2177394Y555953D1*
X2171415Y561060D1*
X2166307Y567040D1*
X2162199Y573745D1*
X2159189Y581010D1*
X2157354Y588657D1*
X2156737Y596496D1*
X2157354Y604336D1*
X2159189Y611982D1*
X2162199Y619248D1*
X2166307Y625953D1*
X2171415Y631932D1*
X2177394Y637039D1*
X2184099Y641148D1*
X2191365Y644158D1*
X2199011Y645993D1*
X2206851Y646610D1*
X2214690Y645993D1*
X2222337Y644158D1*
X2229602Y641148D1*
X2236307Y637039D1*
X2242287Y631932D1*
X2247394Y625953D1*
X2251503Y619248D1*
X2254512Y611982D1*
X2256348Y604336D1*
X2256965Y596496D1*
X2256348Y588657D1*
X2254512Y581010D1*
X2251503Y573745D1*
X2247394Y567040D1*
X2242287Y561060D1*
X2236307Y555953D1*
X2229602Y551844D1*
X2222337Y548835D1*
X2216213Y547302D1*
X2222337Y545732D1*
X2229602Y542723D1*
X2236307Y538614D1*
X2242287Y533507D1*
X2247394Y527527D1*
X2251503Y520822D1*
X2254512Y513557D1*
X2256348Y505911D1*
X2256965Y498071D1*
X2256810Y494139D1*
X2453661Y789415D2*
X2452430Y781648D1*
X2450000Y774169D1*
X2446430Y767162D1*
X2441808Y760800D1*
X2436247Y755240D1*
X2429886Y750617D1*
X2422879Y747047D1*
X2415400Y744617D1*
X2407633Y743387D1*
X2399769D1*
X2392002Y744617D1*
X2384523Y747047D1*
X2377516Y750617D1*
X2371155Y755240D1*
X2365594Y760800D1*
X2360972Y767162D1*
X2357402Y774169D1*
X2354972Y781648D1*
X2353741Y789415D1*
Y797279D1*
X2354972Y805046D1*
X2357402Y812524D1*
X2360972Y819531D1*
X2365594Y825893D1*
X2371155Y831454D1*
X2377516Y836076D1*
X2384523Y839646D1*
X2392002Y842076D1*
X2399769Y843306D1*
X2407633D1*
X2415400Y842076D1*
X2422879Y839646D1*
X2429886Y836076D1*
X2436247Y831454D1*
X2441808Y825893D1*
X2446430Y819531D1*
X2450000Y812524D1*
X2452430Y805046D1*
X2453661Y797279D1*
Y789415D1*
X2650511Y494139D2*
X2649281Y486372D1*
X2646851Y478893D1*
X2643281Y471887D1*
X2638658Y465525D1*
X2633098Y459964D1*
X2626736Y455342D1*
X2619729Y451772D1*
X2612250Y449342D1*
X2604483Y448112D1*
X2596619D1*
X2588853Y449342D1*
X2581374Y451772D1*
X2574367Y455342D1*
X2568005Y459964D1*
X2562444Y465525D1*
X2557822Y471887D1*
X2554252Y478893D1*
X2551822Y486372D1*
X2550592Y494139D1*
Y502003D1*
X2551822Y509770D1*
X2554252Y517249D1*
X2557822Y524256D1*
X2562444Y530618D1*
X2568005Y536178D1*
X2574367Y540800D1*
X2581374Y544370D1*
X2588853Y546800D1*
X2591189Y547265D1*
X2585065Y548835D1*
X2577800Y551844D1*
X2571095Y555953D1*
X2565115Y561060D1*
X2560008Y567040D1*
X2555899Y573745D1*
X2552890Y581010D1*
X2551054Y588657D1*
X2550437Y596496D1*
X2551054Y604336D1*
X2552890Y611982D1*
X2555899Y619248D1*
X2560008Y625953D1*
X2565115Y631932D1*
X2571095Y637039D1*
X2577800Y641148D1*
X2585065Y644158D1*
X2592712Y645993D1*
X2600551Y646610D1*
X2608391Y645993D1*
X2616037Y644158D1*
X2623303Y641148D1*
X2630008Y637039D1*
X2635987Y631932D1*
X2641095Y625953D1*
X2645203Y619248D1*
X2648213Y611982D1*
X2650048Y604336D1*
X2650665Y596496D1*
X2650048Y588657D1*
X2648213Y581010D1*
X2645203Y573745D1*
X2641095Y567040D1*
X2635987Y561060D1*
X2630008Y555953D1*
X2623303Y551844D1*
X2616037Y548835D1*
X2609914Y547302D1*
X2616037Y545732D1*
X2623303Y542723D1*
X2630008Y538614D1*
X2635987Y533507D1*
X2641095Y527527D1*
X2645203Y520822D1*
X2648213Y513557D1*
X2650048Y505911D1*
X2650665Y498071D1*
X2650511Y494139D1*
X810939Y1068902D2*
Y1087419D1*
X777480Y1087402D1*
X777502Y1066587D1*
X808100Y1066579D1*
X607446Y1106933D2*
X680612D1*
Y1038645D1*
X704545Y1052029D1*
X704630Y1126757D1*
X705526Y1132413D1*
X707295Y1137859D1*
X709895Y1142961D1*
X713261Y1147594D1*
X717310Y1151643D1*
X721952Y1155014D1*
X721186Y1155982D1*
X432785Y1156192D1*
X432713Y1110649D1*
X441632Y1120770D1*
X447916Y1126579D1*
X454637Y1131877D1*
X461753Y1136632D1*
X469220Y1140814D1*
X476992Y1144396D1*
X485021Y1147359D1*
X493257Y1149682D1*
X501651Y1151351D1*
X510150Y1152357D1*
X518701Y1152693D1*
X527252Y1152357D1*
X535751Y1151351D1*
X544145Y1149682D1*
X552381Y1147359D1*
X560410Y1144396D1*
X568182Y1140814D1*
X575649Y1136632D1*
X582765Y1131877D1*
X589486Y1126579D1*
X595770Y1120770D1*
X601579Y1114486D1*
X607416Y1106959D1*
X1293701Y1043701D2*
D18*
Y968032D1*
X1229843Y1043701D2*
X1293701D1*
D20*
X693701Y596496D3*
X496851Y793347D3*
X890551D3*
X1263701Y596496D3*
X1066851Y793347D3*
X1460551D3*
X1833701Y596496D3*
X1636851Y793347D3*
X2030551D3*
X2403701Y596496D3*
X2206851Y793347D3*
X2600551D3*
D21*
X1793701Y1043701D3*
D22*
X1693701D3*
X1593701D3*
X1493701D3*
X1393701D3*
X1293701D3*
D19*
X866958Y980047D3*
Y1054851D3*
X1163149Y980047D3*
Y1054851D3*
X2118794Y980047D3*
Y1054851D3*
X2418428Y980047D3*
Y1054851D3*
D24*
X636403Y1062725D3*
D25*
X805694Y1017449D3*
D24*
X636403Y972173D3*
X932711Y1062725D3*
D25*
X1102003Y1017449D3*
D24*
X932711Y972173D3*
X1891757Y1062725D3*
D25*
X2061049Y1017449D3*
D24*
X1891757Y972173D3*
X2187576Y1062725D3*
D25*
X2356868Y1017449D3*
D24*
X2187576Y972173D3*
M02*
