G04 DipTrace 3.2.0.1*
G04 WellMonitor.gbs*
%MOIN*%
G04 #@! TF.FileFunction,Soldermask,Bot*
G04 #@! TF.Part,Single*
%ADD19R,0.059055X0.051181*%
%ADD28C,0.047244*%
%ADD31C,0.167*%
%ADD37O,0.076803X0.100425*%
%ADD39R,0.076803X0.100425*%
%ADD41C,0.087984*%
%ADD43R,0.061055X0.053181*%
%FSLAX26Y26*%
G04*
G70*
G90*
G75*
G01*
G04 BotMask*
%LPD*%
D31*
X518701Y1043701D3*
X2568701D3*
D43*
X793701Y561103D3*
Y486299D3*
X1378701Y561103D3*
Y486299D3*
X1953701Y561103D3*
Y486299D3*
X2518701Y561103D3*
Y486299D3*
D41*
X693701Y596496D3*
X496851Y793347D3*
X890551D3*
D28*
X496851Y498071D3*
Y596496D3*
X693701Y793347D3*
X890551Y498071D3*
Y596496D3*
D41*
X1263701D3*
X1066851Y793347D3*
X1460551D3*
D28*
X1066851Y498071D3*
Y596496D3*
X1263701Y793347D3*
X1460551Y498071D3*
Y596496D3*
D41*
X1833701D3*
X1636851Y793347D3*
X2030551D3*
D28*
X1636851Y498071D3*
Y596496D3*
X1833701Y793347D3*
X2030551Y498071D3*
Y596496D3*
D41*
X2403701D3*
X2206851Y793347D3*
X2600551D3*
D28*
X2206851Y498071D3*
Y596496D3*
X2403701Y793347D3*
X2600551Y498071D3*
Y596496D3*
D39*
X1793701Y1043701D3*
D37*
X1693701D3*
X1593701D3*
X1493701D3*
X1393701D3*
X1293701D3*
D43*
X593701Y486299D3*
Y561103D3*
D19*
Y641299D3*
Y716103D3*
D43*
X1143701Y641299D3*
Y716103D3*
Y486299D3*
Y561103D3*
X1713701Y641299D3*
Y716103D3*
Y486299D3*
Y561103D3*
X2273701Y641299D3*
Y716103D3*
Y486299D3*
Y561103D3*
M02*
