G04 DipTrace 3.2.0.1*
G04 WellMonitor.gbo*
%MOIN*%
G04 #@! TF.FileFunction,Legend,Bot*
G04 #@! TF.Part,Single*
%ADD10C,0.009843*%
%ADD45C,0.006176*%
%ADD46C,0.007*%
%FSLAX26Y26*%
G04*
G70*
G90*
G75*
G01*
G04 BotSilk*
%LPD*%
X819272Y602462D2*
D10*
X768130D1*
X1404272D2*
X1353130D1*
X1979272D2*
X1928130D1*
X2544272D2*
X2493130D1*
X790326Y651490D2*
D45*
X792227Y655293D1*
X796074Y659139D1*
X799877Y661041D1*
X807526D1*
X811373Y659139D1*
X815175Y655293D1*
X817121Y651490D1*
X819022Y645742D1*
Y636147D1*
X817121Y630443D1*
X815175Y626597D1*
X811373Y622794D1*
X807526Y620849D1*
X799877D1*
X796074Y622794D1*
X792227Y626597D1*
X790326Y630443D1*
X777975Y653347D2*
X774128Y655293D1*
X768380Y660996D1*
Y620849D1*
X1300146Y536811D2*
X1296343Y538712D1*
X1292496Y542559D1*
X1290595Y546361D1*
Y554011D1*
X1292496Y557857D1*
X1296343Y561660D1*
X1300146Y563605D1*
X1305894Y565507D1*
X1315488D1*
X1321192Y563605D1*
X1325039Y561660D1*
X1328842Y557857D1*
X1330787Y554010D1*
Y546361D1*
X1328842Y542559D1*
X1325039Y538712D1*
X1321192Y536811D1*
X1300190Y522514D2*
X1298289D1*
X1294442Y520613D1*
X1292541Y518711D1*
X1290639Y514865D1*
Y507215D1*
X1292540Y503413D1*
X1294442Y501511D1*
X1298289Y499566D1*
X1302091D1*
X1305938Y501511D1*
X1311642Y505314D1*
X1330787Y524459D1*
Y497665D1*
X1875146Y536811D2*
X1871343Y538712D1*
X1867496Y542559D1*
X1865595Y546361D1*
Y554011D1*
X1867496Y557857D1*
X1871343Y561660D1*
X1875146Y563605D1*
X1880894Y565507D1*
X1890488D1*
X1896192Y563605D1*
X1900039Y561660D1*
X1903842Y557857D1*
X1905787Y554010D1*
Y546361D1*
X1903842Y542559D1*
X1900039Y538712D1*
X1896192Y536811D1*
X1865639Y520613D2*
Y499610D1*
X1880938Y511062D1*
Y505314D1*
X1882839Y501511D1*
X1884740Y499610D1*
X1890488Y497665D1*
X1894291D1*
X1900039Y499610D1*
X1903886Y503413D1*
X1905787Y509161D1*
Y514909D1*
X1903886Y520612D1*
X1901940Y522514D1*
X1898138Y524459D1*
X2440146Y537761D2*
X2436343Y539663D1*
X2432496Y543509D1*
X2430595Y547312D1*
Y554961D1*
X2432496Y558808D1*
X2436343Y562610D1*
X2440146Y564556D1*
X2445894Y566457D1*
X2455488D1*
X2461192Y564556D1*
X2465039Y562610D1*
X2468842Y558808D1*
X2470787Y554961D1*
Y547312D1*
X2468842Y543509D1*
X2465039Y539663D1*
X2461192Y537761D1*
X2470787Y506265D2*
X2430639D1*
X2457390Y525410D1*
Y496714D1*
X524740Y556671D2*
Y539472D1*
X522795Y533724D1*
X520894Y531778D1*
X517091Y529877D1*
X513244D1*
X509442Y531778D1*
X507496Y533724D1*
X505595Y539472D1*
Y556671D1*
X545787D1*
X524740Y543274D2*
X545787Y529877D1*
X515190Y515580D2*
X513289D1*
X509442Y513679D1*
X507541Y511777D1*
X505639Y507931D1*
Y500281D1*
X507540Y496479D1*
X509442Y494578D1*
X513289Y492632D1*
X517091D1*
X520938Y494578D1*
X526642Y498380D1*
X545787Y517525D1*
Y490731D1*
X655941Y711671D2*
Y694472D1*
X653995Y688724D1*
X652094Y686778D1*
X648292Y684877D1*
X644445D1*
X640642Y686778D1*
X638697Y688724D1*
X636796Y694472D1*
Y711671D1*
X676988D1*
X655941Y698274D2*
X676988Y684877D1*
X636840Y668679D2*
Y647676D1*
X652138Y659128D1*
Y653380D1*
X654040Y649578D1*
X655941Y647676D1*
X661689Y645731D1*
X665491D1*
X671239Y647676D1*
X675086Y651479D1*
X676988Y657227D1*
Y662975D1*
X675086Y668679D1*
X673141Y670580D1*
X669338Y672525D1*
X1205941Y711671D2*
Y694472D1*
X1203995Y688724D1*
X1202094Y686778D1*
X1198292Y684877D1*
X1194445D1*
X1190642Y686778D1*
X1188697Y688724D1*
X1186796Y694472D1*
Y711671D1*
X1226988D1*
X1205941Y698274D2*
X1226988Y684877D1*
Y664876D2*
X1186840Y645731D1*
Y672525D1*
X1205941Y556649D2*
Y539449D1*
X1203995Y533701D1*
X1202094Y531756D1*
X1198292Y529855D1*
X1194445D1*
X1190642Y531756D1*
X1188697Y533701D1*
X1186796Y539449D1*
Y556649D1*
X1226988D1*
X1205941Y543252D2*
X1226988Y529855D1*
X1186840Y507953D2*
X1188741Y513657D1*
X1192544Y515602D1*
X1196390D1*
X1200193Y513657D1*
X1202138Y509854D1*
X1204040Y502205D1*
X1205941Y496457D1*
X1209788Y492654D1*
X1213590Y490753D1*
X1219338D1*
X1223141Y492654D1*
X1225086Y494555D1*
X1226988Y500303D1*
Y507953D1*
X1225086Y513656D1*
X1223141Y515602D1*
X1219338Y517503D1*
X1213590D1*
X1209788Y515602D1*
X1205941Y511755D1*
X1204040Y506051D1*
X1202138Y498402D1*
X1200193Y494555D1*
X1196390Y492654D1*
X1192544D1*
X1188741Y494555D1*
X1186840Y500303D1*
Y507953D1*
X1775941Y710721D2*
Y693521D1*
X1773995Y687773D1*
X1772094Y685827D1*
X1768292Y683926D1*
X1764445D1*
X1760642Y685827D1*
X1758697Y687773D1*
X1756796Y693521D1*
Y710721D1*
X1796988D1*
X1775941Y697323D2*
X1796988Y683926D1*
X1770193Y646681D2*
X1775941Y648627D1*
X1779788Y652429D1*
X1781689Y658177D1*
Y660079D1*
X1779788Y665827D1*
X1775941Y669629D1*
X1770193Y671575D1*
X1768292D1*
X1762544Y669629D1*
X1758741Y665827D1*
X1756840Y660079D1*
Y658177D1*
X1758741Y652429D1*
X1762544Y648627D1*
X1770193Y646681D1*
X1779788D1*
X1789338Y648627D1*
X1795086Y652429D1*
X1796988Y658177D1*
Y661980D1*
X1795086Y667728D1*
X1791240Y669629D1*
X1775941Y567644D2*
Y550445D1*
X1773995Y544697D1*
X1772094Y542751D1*
X1768292Y540850D1*
X1764445D1*
X1760642Y542751D1*
X1758697Y544697D1*
X1756796Y550445D1*
Y567645D1*
X1796988Y567644D1*
X1775941Y554247D2*
X1796988Y540850D1*
X1764489Y528498D2*
X1762544Y524652D1*
X1756840Y518904D1*
X1796988D1*
X1756840Y495056D2*
X1758741Y500804D1*
X1764489Y504651D1*
X1774040Y506552D1*
X1779788D1*
X1789338Y504651D1*
X1795086Y500804D1*
X1796988Y495056D1*
Y491254D1*
X1795086Y485506D1*
X1789338Y481703D1*
X1779788Y479758D1*
X1774040D1*
X1764489Y481703D1*
X1758741Y485506D1*
X1756840Y491254D1*
Y495056D1*
X1764489Y481703D2*
X1789338Y504651D1*
X2335941Y714045D2*
Y696845D1*
X2333995Y691097D1*
X2332094Y689151D1*
X2328292Y687250D1*
X2324445D1*
X2320642Y689151D1*
X2318697Y691097D1*
X2316796Y696845D1*
Y714045D1*
X2356988D1*
X2335941Y700647D2*
X2356988Y687250D1*
X2324489Y674899D2*
X2322544Y671052D1*
X2316840Y665304D1*
X2356988D1*
X2324489Y652952D2*
X2322544Y649106D1*
X2316840Y643358D1*
X2356988D1*
X2335941Y567644D2*
Y550445D1*
X2333995Y544697D1*
X2332094Y542751D1*
X2328292Y540850D1*
X2324445D1*
X2320642Y542751D1*
X2318697Y544697D1*
X2316796Y550445D1*
Y567645D1*
X2356988Y567644D1*
X2335941Y554247D2*
X2356988Y540850D1*
X2324489Y528498D2*
X2322544Y524652D1*
X2316840Y518904D1*
X2356988D1*
X2326390Y504607D2*
X2324489D1*
X2320642Y502706D1*
X2318741Y500804D1*
X2316840Y496958D1*
Y489308D1*
X2318741Y485506D1*
X2320642Y483604D1*
X2324489Y481659D1*
X2328292D1*
X2332138Y483604D1*
X2337842Y487407D1*
X2356988Y506552D1*
Y479758D1*
X1204500Y961796D2*
D46*
X1201648Y963222D1*
X1198763Y966107D1*
X1197337Y968959D1*
Y974696D1*
X1198763Y977581D1*
X1201648Y980433D1*
X1204500Y981892D1*
X1208811Y983318D1*
X1216007D1*
X1220285Y981892D1*
X1223170Y980433D1*
X1226022Y977581D1*
X1227481Y974696D1*
Y968959D1*
X1226022Y966107D1*
X1223170Y963222D1*
X1220285Y961796D1*
X1216007D1*
Y968959D1*
X1197337Y927700D2*
X1227481D1*
X1197337Y947796D1*
X1227481D1*
X1197337Y913700D2*
X1227481D1*
Y903652D1*
X1226022Y899341D1*
X1223170Y896456D1*
X1220285Y895030D1*
X1216007Y893604D1*
X1208811D1*
X1204500Y895030D1*
X1201648Y896456D1*
X1198763Y899341D1*
X1197337Y903652D1*
Y913700D1*
X1298108Y983318D2*
X1328252Y971844D1*
X1298108Y960371D1*
Y946371D2*
X1328252D1*
X1298108Y912275D2*
X1328252D1*
X1298108Y932371D1*
X1328252D1*
X1403188Y963222D2*
X1400303Y966074D1*
X1398877Y970385D1*
Y976122D1*
X1400303Y980433D1*
X1403188Y983318D1*
X1406040D1*
X1408925Y981859D1*
X1410351Y980433D1*
X1411777Y977581D1*
X1414662Y968959D1*
X1416088Y966074D1*
X1417547Y964648D1*
X1420399Y963222D1*
X1424710D1*
X1427562Y966074D1*
X1429021Y970385D1*
Y976122D1*
X1427562Y980433D1*
X1424710Y983318D1*
X1398910Y940600D2*
X1400336Y944911D1*
X1404647Y947796D1*
X1411810Y949222D1*
X1416121D1*
X1423284Y947796D1*
X1427595Y944911D1*
X1429021Y940600D1*
Y937748D1*
X1427595Y933437D1*
X1423284Y930585D1*
X1416121Y929126D1*
X1411810D1*
X1404647Y930585D1*
X1400336Y933437D1*
X1398910Y937748D1*
Y940600D1*
X1404647Y930585D2*
X1423284Y947796D1*
X1503958Y963223D2*
X1501073Y966075D1*
X1499647Y970386D1*
Y976123D1*
X1501073Y980434D1*
X1503958Y983319D1*
X1506810D1*
X1509695Y981859D1*
X1511121Y980434D1*
X1512547Y977582D1*
X1515432Y968960D1*
X1516858Y966075D1*
X1518317Y964649D1*
X1521169Y963223D1*
X1525480D1*
X1528332Y966074D1*
X1529791Y970386D1*
Y976122D1*
X1528332Y980433D1*
X1525480Y983319D1*
X1505417Y949223D2*
X1503958Y946338D1*
X1499680Y942027D1*
X1529791D1*
X1604728Y963222D2*
X1601843Y966074D1*
X1600417Y970385D1*
Y976122D1*
X1601843Y980433D1*
X1604728Y983318D1*
X1607580D1*
X1610465Y981859D1*
X1611891Y980433D1*
X1613317Y977581D1*
X1616202Y968959D1*
X1617628Y966074D1*
X1619087Y964648D1*
X1621939Y963222D1*
X1626250D1*
X1629102Y966074D1*
X1630561Y970385D1*
Y976122D1*
X1629102Y980433D1*
X1626250Y983318D1*
X1607613Y947763D2*
X1606187D1*
X1603302Y946337D1*
X1601876Y944911D1*
X1600450Y942026D1*
Y936289D1*
X1601876Y933437D1*
X1603302Y932011D1*
X1606187Y930552D1*
X1609039D1*
X1611924Y932011D1*
X1616202Y934863D1*
X1630561Y949222D1*
Y929126D1*
X1705499Y963222D2*
X1702614Y966074D1*
X1701188Y970385D1*
Y976122D1*
X1702614Y980433D1*
X1705499Y983318D1*
X1708351D1*
X1711236Y981859D1*
X1712662Y980433D1*
X1714088Y977581D1*
X1716973Y968959D1*
X1718399Y966074D1*
X1719858Y964648D1*
X1722710Y963222D1*
X1727021D1*
X1729873Y966074D1*
X1731332Y970385D1*
Y976122D1*
X1729873Y980433D1*
X1727021Y983318D1*
X1701221Y946337D2*
Y930585D1*
X1712695Y939174D1*
Y934863D1*
X1714121Y932011D1*
X1715547Y930585D1*
X1719858Y929126D1*
X1722710D1*
X1727021Y930585D1*
X1729906Y933437D1*
X1731332Y937748D1*
Y942059D1*
X1729906Y946337D1*
X1728447Y947763D1*
X1725595Y949222D1*
M02*
