M48
INCH
T01C0.0472
T02C0.0512
T03C0.125
%
T02
X+006937Y+005965
X+004969Y+007933
X+008906Y+007933
T01
X+004969Y+004981
X+004969Y+005965
X+006937Y+007933
X+008906Y+004981
X+008906Y+005965
T02
X+012637Y+005965
X+010669Y+007933
X+014606Y+007933
T01
X+010669Y+004981
X+010669Y+005965
X+012637Y+007933
X+014606Y+004981
X+014606Y+005965
T02
X+018337Y+005965
X+016369Y+007933
X+020306Y+007933
T01
X+016369Y+004981
X+016369Y+005965
X+018337Y+007933
X+020306Y+004981
X+020306Y+005965
T02
X+024037Y+005965
X+022069Y+007933
X+026006Y+007933
T01
X+022069Y+004981
X+022069Y+005965
X+024037Y+007933
X+026006Y+004981
X+026006Y+005965
T02
X+017937Y+010437
X+016937Y+010437
X+015937Y+010437
X+014937Y+010437
X+013937Y+010437
X+012937Y+010437
T03
X+005187Y+010437
X+025687Y+010437
T00
M30
