G04 DipTrace 3.2.0.1*
G04 xbee_js_basict.gbs*
%MOIN*%
G04 #@! TF.FileFunction,Soldermask,Bot*
G04 #@! TF.Part,Single*
%ADD22C,0.06*%
%ADD30C,0.166969*%
%ADD34C,0.061024*%
%ADD35C,0.051181*%
%ADD36R,0.061024X0.061024*%
%ADD37R,0.051181X0.051181*%
%ADD38C,0.064961*%
%ADD40R,0.064961X0.064961*%
%FSLAX26Y26*%
G04*
G70*
G90*
G75*
G01*
G04 BotMask*
%LPD*%
D30*
X546929Y501969D3*
Y1683071D3*
X1334331Y501969D3*
Y1683071D3*
D37*
X739449Y533228D3*
D35*
Y474173D3*
D40*
X911339Y533701D3*
D38*
X990079D3*
X1068819D3*
X1147559D3*
D36*
X1176850Y698701D3*
D34*
Y798701D3*
Y898701D3*
Y998701D3*
Y1098701D3*
Y1198701D3*
Y1298701D3*
Y1398701D3*
Y1498701D3*
Y1598701D3*
D36*
X704409D3*
D34*
Y1498701D3*
Y1398701D3*
Y1298701D3*
Y1198701D3*
Y1098701D3*
Y998701D3*
Y898701D3*
Y798701D3*
Y698701D3*
D22*
X506378Y727165D3*
Y805906D3*
Y884646D3*
Y963386D3*
Y1042126D3*
Y1120866D3*
Y1199606D3*
Y1278346D3*
Y1357087D3*
Y1435827D3*
X1372520Y727165D3*
Y805906D3*
Y884646D3*
Y963386D3*
Y1042126D3*
Y1120866D3*
Y1199606D3*
Y1278346D3*
Y1357087D3*
Y1435827D3*
M02*
