G04 DipTrace 3.2.0.1*
G04 xbee_js_basict.gto*
%MOIN*%
G04 #@! TF.FileFunction,Legend,Top*
G04 #@! TF.Part,Single*
%ADD10C,0.009843*%
%ADD14C,0.008*%
%ADD44C,0.006176*%
%ADD45C,0.007*%
%FSLAX26Y26*%
G04*
G70*
G90*
G75*
G01*
G04 TopSilk*
%LPD*%
X739449Y424961D2*
D10*
G02X739449Y424961I0J78739D01*
G01*
X727638Y613942D2*
X751260D1*
X739449Y625748D2*
Y602135D1*
X834567Y600630D2*
X1224331D1*
Y423465D1*
X834567D1*
Y600630D1*
X1226850Y1648701D2*
X1126850D1*
X1226850Y648701D2*
Y1648701D1*
Y648701D2*
X1126850D1*
Y723701D1*
Y1648701D1*
X654409Y648701D2*
X754409D1*
X654409Y1648701D2*
Y648701D1*
Y1648701D2*
X754409D1*
Y1573701D1*
Y648701D1*
X1323346Y1485029D2*
D14*
X1421732D1*
Y677960D1*
X1323346D1*
Y1485029D2*
Y677960D1*
X555551Y1485029D2*
X457165D1*
Y677960D1*
X555551D1*
Y1485029D2*
Y677960D1*
X457165D2*
Y648374D1*
X1421732Y677960D2*
Y648374D1*
X457165D2*
X1421732D1*
X742581Y1735039D2*
X714994Y1711451D1*
X742581Y1735039D2*
X1136317D1*
X1163904Y1711451D1*
X671494Y503729D2*
D44*
X667691Y501828D1*
X663844Y497981D1*
X661943Y494179D1*
Y486529D1*
X663844Y482683D1*
X667691Y478880D1*
X671494Y476935D1*
X677242Y475033D1*
X686836D1*
X692540Y476935D1*
X696387Y478880D1*
X700190Y482683D1*
X702135Y486529D1*
Y494179D1*
X700190Y497981D1*
X696387Y501828D1*
X692540Y503729D1*
X669637Y516081D2*
X667691Y519927D1*
X661987Y525675D1*
X702135D1*
X962054Y1684688D2*
D45*
X931910D1*
X962054Y1664592D2*
X941958Y1684688D1*
X949154Y1677525D2*
X931910Y1664592D1*
X952006Y1650592D2*
X937647D1*
X933369Y1649166D1*
X931910Y1646281D1*
Y1641970D1*
X933369Y1639118D1*
X937647Y1634807D1*
X952006D2*
X931910D1*
X952006Y1620807D2*
X931910D1*
X943384D2*
X947695Y1619348D1*
X950580Y1616496D1*
X952006Y1613611D1*
Y1609300D1*
X962054Y1590989D2*
X937647D1*
X933369Y1589563D1*
X931910Y1586678D1*
Y1583826D1*
X952006Y1595300D2*
Y1585252D1*
X962021Y1562630D2*
X953399Y1569826D1*
X960595Y1561204D1*
X962021Y1562630D1*
X947695Y1531419D2*
X950580Y1532845D1*
X952006Y1537156D1*
Y1541467D1*
X950580Y1545778D1*
X947695Y1547204D1*
X944843Y1545778D1*
X943384Y1542893D1*
X941958Y1535730D1*
X940532Y1532845D1*
X937647Y1531419D1*
X936221D1*
X933369Y1532845D1*
X931910Y1537156D1*
Y1541467D1*
X933369Y1545778D1*
X936221Y1547204D1*
X957743Y1463426D2*
X960628Y1466277D1*
X962054Y1470588D1*
Y1476325D1*
X960628Y1480636D1*
X957743Y1483522D1*
X954891D1*
X952006Y1482062D1*
X950580Y1480636D1*
X949154Y1477785D1*
X946269Y1469163D1*
X944843Y1466277D1*
X943384Y1464852D1*
X940532Y1463426D1*
X936221D1*
X933369Y1466277D1*
X931910Y1470588D1*
Y1476325D1*
X933369Y1480636D1*
X936221Y1483522D1*
X962054Y1449426D2*
X960628Y1448000D1*
X962054Y1446540D1*
X963513Y1448000D1*
X962054Y1449426D1*
X952006Y1448000D2*
X931910D1*
X952006Y1432540D2*
X931910D1*
X946269D2*
X950580Y1428229D1*
X952006Y1425344D1*
Y1421067D1*
X950580Y1418181D1*
X946269Y1416756D1*
X931910D1*
X946269D2*
X950580Y1412444D1*
X952006Y1409559D1*
Y1405282D1*
X950580Y1402396D1*
X946269Y1400937D1*
X931910D1*
X952006Y1386937D2*
X921862D1*
X947695D2*
X950547Y1384052D1*
X952006Y1381200D1*
Y1376889D1*
X950547Y1374004D1*
X947695Y1371152D1*
X943384Y1369693D1*
X940499D1*
X936221Y1371152D1*
X933336Y1374004D1*
X931910Y1376889D1*
Y1381200D1*
X933336Y1384052D1*
X936221Y1386937D1*
X962054Y1355693D2*
X931910D1*
X943384Y1341693D2*
Y1324482D1*
X946269D1*
X949154Y1325908D1*
X950580Y1327334D1*
X952006Y1330219D1*
Y1334530D1*
X950580Y1337382D1*
X947695Y1340267D1*
X943384Y1341693D1*
X940532D1*
X936221Y1340267D1*
X933369Y1337382D1*
X931910Y1334530D1*
Y1330219D1*
X933369Y1327334D1*
X936221Y1324482D1*
X962054Y1276585D2*
X931910Y1256489D1*
X962054D2*
X931910Y1276585D1*
X962054Y1242489D2*
X931910D1*
Y1229556D1*
X933369Y1225245D1*
X934795Y1223819D1*
X937647Y1222393D1*
X941958D1*
X944843Y1223819D1*
X946269Y1225245D1*
X947695Y1229556D1*
X949154Y1225245D1*
X950580Y1223819D1*
X953432Y1222393D1*
X956317D1*
X959169Y1223819D1*
X960628Y1225245D1*
X962054Y1229556D1*
Y1242489D1*
X947695D2*
Y1229556D1*
X943384Y1208393D2*
Y1191182D1*
X946269D1*
X949154Y1192608D1*
X950580Y1194034D1*
X952006Y1196919D1*
Y1201230D1*
X950580Y1204082D1*
X947695Y1206967D1*
X943384Y1208393D1*
X940532D1*
X936221Y1206967D1*
X933369Y1204082D1*
X931910Y1201230D1*
Y1196919D1*
X933369Y1194034D1*
X936221Y1191182D1*
X943384Y1177182D2*
Y1159971D1*
X946269D1*
X949154Y1161397D1*
X950580Y1162823D1*
X952006Y1165708D1*
Y1170019D1*
X950580Y1172871D1*
X947695Y1175756D1*
X943384Y1177182D1*
X940532D1*
X936221Y1175756D1*
X933369Y1172871D1*
X931910Y1170019D1*
Y1165708D1*
X933369Y1162823D1*
X936221Y1159971D1*
X931910Y1089093D2*
X962054Y1100600D1*
X931910Y1112074D1*
X941958Y1107763D2*
Y1093404D1*
X962054Y1057882D2*
X931910D1*
X947695D2*
X950580Y1060734D1*
X952006Y1063619D1*
Y1067930D1*
X950580Y1070782D1*
X947695Y1073667D1*
X943384Y1075093D1*
X940532D1*
X936221Y1073667D1*
X933369Y1070782D1*
X931910Y1067930D1*
Y1063619D1*
X933369Y1060734D1*
X936221Y1057882D1*
X952006Y1026671D2*
X931910D1*
X947695D2*
X950580Y1029523D1*
X952006Y1032408D1*
Y1036686D1*
X950580Y1039571D1*
X947695Y1042423D1*
X943384Y1043882D1*
X940532D1*
X936221Y1042423D1*
X933369Y1039571D1*
X931910Y1036686D1*
Y1032408D1*
X933369Y1029523D1*
X936221Y1026671D1*
X952006Y1012671D2*
X921862D1*
X947695D2*
X950547Y1009786D1*
X952006Y1006934D1*
Y1002623D1*
X950547Y999738D1*
X947695Y996886D1*
X943384Y995427D1*
X940499D1*
X936221Y996886D1*
X933336Y999738D1*
X931910Y1002623D1*
Y1006934D1*
X933336Y1009786D1*
X936221Y1012671D1*
X962054Y977116D2*
X937647D1*
X933369Y975690D1*
X931910Y972805D1*
Y969953D1*
X952006Y981427D2*
Y971379D1*
X943384Y955953D2*
Y938742D1*
X946269D1*
X949154Y940168D1*
X950580Y941594D1*
X952006Y944479D1*
Y948790D1*
X950580Y951642D1*
X947695Y954527D1*
X943384Y955953D1*
X940532D1*
X936221Y954527D1*
X933369Y951642D1*
X931910Y948790D1*
Y944479D1*
X933369Y941594D1*
X936221Y938742D1*
X952006Y924742D2*
X931910D1*
X943384D2*
X947695Y923283D1*
X950580Y920431D1*
X952006Y917546D1*
Y913235D1*
M02*
