M48
INCH
T01C0.0295
T02C0.0315
T03C0.0354
T04C0.0394
T05C0.125
%
T01
X+007394Y+005332
X+007394Y+004742
T04
X+009113Y+005337
X+009901Y+005337
X+010688Y+005337
X+011476Y+005337
T03
X+011769Y+006987
X+011769Y+007987
X+011769Y+008987
X+011769Y+009987
X+011769Y+010987
X+011769Y+011987
X+011769Y+012987
X+011769Y+013987
X+011769Y+014987
X+011769Y+015987
X+007044Y+015987
X+007044Y+014987
X+007044Y+013987
X+007044Y+012987
X+007044Y+011987
X+007044Y+010987
X+007044Y+009987
X+007044Y+008987
X+007044Y+007987
X+007044Y+006987
T02
X+005064Y+007272
X+005064Y+008059
X+005064Y+008846
X+005064Y+009634
X+005064Y+010421
X+005064Y+011209
X+005064Y+011996
X+005064Y+012783
X+005064Y+013571
X+005064Y+014358
X+013725Y+007272
X+013725Y+008059
X+013725Y+008846
X+013725Y+009634
X+013725Y+010421
X+013725Y+011209
X+013725Y+011996
X+013725Y+012783
X+013725Y+013571
X+013725Y+014358
T05
X+005469Y+005020
X+005469Y+016831
X+013343Y+005020
X+013343Y+016831
T00
M30
