G04 DipTrace 3.2.0.1*
G04 xbee_js_basict.gbl*
%MOIN*%
G04 #@! TF.FileFunction,Copper,L2,Bot*
G04 #@! TF.Part,Single*
G04 #@! TA.AperFunction,Conductor*
%ADD13C,0.04*%
%ADD14C,0.008*%
G04 #@! TA.AperFunction,CopperBalancing*
%ADD15C,0.025*%
G04 #@! TA.AperFunction,ComponentPad*
%ADD16R,0.049213X0.049213*%
%ADD17C,0.049213*%
%ADD18R,0.062992X0.062992*%
%ADD19C,0.062992*%
%ADD20R,0.059055X0.059055*%
%ADD21C,0.059055*%
%ADD22C,0.06*%
G04 #@! TA.AperFunction,ViaPad*
%ADD23C,0.165*%
%FSLAX26Y26*%
G04*
G70*
G90*
G75*
G01*
G04 Bottom*
%LPD*%
X506378Y727165D2*
D13*
X639449Y698701D1*
X704409D1*
X506378Y727165D2*
X654449Y683701D1*
X730138Y608012D1*
X902238Y598655D1*
X911339Y533701D1*
X739449Y474173D2*
X755770Y457852D1*
X911339Y499203D1*
Y533701D1*
X1176850Y1398701D2*
D14*
X1372520Y1278346D1*
X1176850Y1598701D2*
X1372520Y1435827D1*
X1176850Y1298701D2*
X1372520Y1199606D1*
X1176850Y1198701D2*
X1372520Y1120866D1*
X1176850Y1498701D2*
X1372520Y1357087D1*
X506378Y1042126D2*
X639449Y1098701D1*
X704409D1*
X1176850D2*
X1372520Y1042126D1*
X1176850Y998701D2*
X1372520Y963386D1*
X1176850Y898701D2*
X1372520Y884646D1*
X1176850Y798701D2*
X1372520Y805906D1*
X1176850Y698701D2*
X1372520Y727165D1*
X506378Y1199606D2*
X639449Y1298701D1*
X704409D1*
X506378Y1120866D2*
X639449Y1198701D1*
X704409D1*
X506378Y963386D2*
X639449Y998701D1*
X704409D1*
X506378Y884646D2*
X639449Y898701D1*
X704409D1*
X506378Y805906D2*
X639449Y798701D1*
X704409D1*
X506378Y1357087D2*
X559449Y1383701D1*
X579449Y1453701D1*
X704409Y1498701D1*
X1068819Y533701D2*
X1119449Y473701D1*
X1204449D1*
X1214449Y598701D1*
X1091505Y639524D1*
X846505Y769524D1*
Y1498701D1*
X704409D1*
X506378Y1278346D2*
X594449Y1333701D1*
X704409Y1398701D1*
X769449D1*
Y738701D1*
X1079449Y588701D1*
X1147559Y533701D1*
D23*
X546929Y501969D3*
Y1683071D3*
X1334331Y501969D3*
Y1683071D3*
X438487Y1736256D2*
D15*
X449312D1*
X644570D2*
X1236683D1*
X1431977D2*
X1451055D1*
X654689Y1711387D2*
X1226564D1*
X1442096D2*
X1451091D1*
X658350Y1686518D2*
X1222903D1*
X656304Y1661650D2*
X1224949D1*
X762916Y1636781D2*
X1133265D1*
X1220439D2*
X1233166D1*
X1435493D2*
X1451091D1*
X438487Y1611912D2*
X461871D1*
X631975D2*
X645886D1*
X762916D2*
X1119916D1*
X1233788D2*
X1249278D1*
X1419381D2*
X1451091D1*
X438487Y1587043D2*
X492875D1*
X600971D2*
X645886D1*
X762916D2*
X1119557D1*
X1241001D2*
X1280282D1*
X1388377D2*
X1451091D1*
X438487Y1562175D2*
X645886D1*
X762916D2*
X1131865D1*
X1270893D2*
X1451091D1*
X438523Y1537306D2*
X661316D1*
X747486D2*
X1133767D1*
X1300784D2*
X1451091D1*
X438523Y1512437D2*
X647608D1*
X876238D2*
X1120023D1*
X1330640D2*
X1451091D1*
X438523Y1487568D2*
X481213D1*
X531571D2*
X581007D1*
X879504D2*
X1119449D1*
X1246743D2*
X1260187D1*
X1397707D2*
X1451127D1*
X438523Y1462699D2*
X454192D1*
X749818D2*
X813501D1*
X879504D2*
X1131435D1*
X1281084D2*
X1290065D1*
X1424728D2*
X1451127D1*
X438523Y1437831D2*
X447432D1*
X627884D2*
X661818D1*
X746983D2*
X813501D1*
X879504D2*
X1134269D1*
X1431474D2*
X1451127D1*
X438523Y1412962D2*
X452219D1*
X602011D2*
X647752D1*
X798908D2*
X813501D1*
X879504D2*
X1120167D1*
X1426666D2*
X1451127D1*
X438523Y1388093D2*
X456668D1*
X594906D2*
X624032D1*
X802425D2*
X813501D1*
X879504D2*
X1119342D1*
X1254781D2*
X1275187D1*
X1422252D2*
X1451127D1*
X438523Y1363224D2*
X447734D1*
X802425D2*
X813501D1*
X879504D2*
X1131004D1*
X1295222D2*
X1309528D1*
X1431187D2*
X1451127D1*
X438559Y1338356D2*
X450568D1*
X802425D2*
X813501D1*
X879504D2*
X1134772D1*
X1428316D2*
X1451127D1*
X438559Y1313487D2*
X459647D1*
X802425D2*
X813501D1*
X879504D2*
X1120310D1*
X1233394D2*
X1254697D1*
X1419238D2*
X1451127D1*
X438559Y1288618D2*
X448339D1*
X802425D2*
X813501D1*
X879504D2*
X1119234D1*
X1266766D2*
X1295102D1*
X1430577D2*
X1451163D1*
X438559Y1263749D2*
X449312D1*
X646077D2*
X658122D1*
X802425D2*
X813501D1*
X879504D2*
X1130573D1*
X1429608D2*
X1451163D1*
X438559Y1238881D2*
X463271D1*
X612669D2*
X662859D1*
X802425D2*
X813501D1*
X879504D2*
X1135310D1*
X1415613D2*
X1451163D1*
X438559Y1214012D2*
X449240D1*
X579261D2*
X602717D1*
X802425D2*
X813501D1*
X879504D2*
X1120454D1*
X1233250D2*
X1274074D1*
X1429644D2*
X1451163D1*
X438559Y1189143D2*
X448339D1*
X802425D2*
X813501D1*
X879504D2*
X1119162D1*
X1285892D2*
X1314516D1*
X1430541D2*
X1451163D1*
X438559Y1164274D2*
X459790D1*
X643493D2*
X657727D1*
X802425D2*
X813501D1*
X879504D2*
X1130143D1*
X1419094D2*
X1451163D1*
X438559Y1139406D2*
X450532D1*
X600971D2*
X663433D1*
X802425D2*
X813501D1*
X879504D2*
X1135848D1*
X1217856D2*
X1240917D1*
X1428388D2*
X1451163D1*
X438595Y1114537D2*
X447740D1*
X565015D2*
X596258D1*
X802425D2*
X813501D1*
X879504D2*
X1120633D1*
X1234362D2*
X1303427D1*
X1431151D2*
X1451163D1*
X438595Y1089668D2*
X456776D1*
X802425D2*
X813501D1*
X879504D2*
X1119054D1*
X1422109D2*
X1451199D1*
X438595Y1064799D2*
X452147D1*
X640156D2*
X657297D1*
X802425D2*
X813501D1*
X879504D2*
X1129748D1*
X1426773D2*
X1451199D1*
X438595Y1039930D2*
X447439D1*
X581665D2*
X663971D1*
X802425D2*
X813501D1*
X879504D2*
X1136422D1*
X1217282D2*
X1267830D1*
X1431474D2*
X1451199D1*
X438595Y1015062D2*
X454300D1*
X558448D2*
X579715D1*
X802425D2*
X813501D1*
X879504D2*
X1120777D1*
X1260379D2*
X1320437D1*
X1424620D2*
X1451199D1*
X438595Y990193D2*
X454156D1*
X802425D2*
X813501D1*
X879504D2*
X1118983D1*
X1424764D2*
X1451199D1*
X438595Y965324D2*
X447439D1*
X635061D2*
X656902D1*
X802425D2*
X813501D1*
X879504D2*
X1129353D1*
X1431474D2*
X1451199D1*
X438595Y940455D2*
X452255D1*
X560493D2*
X664545D1*
X802425D2*
X813501D1*
X879504D2*
X1136997D1*
X1216707D2*
X1318391D1*
X1426666D2*
X1451199D1*
X438631Y915587D2*
X456597D1*
X802425D2*
X813501D1*
X879504D2*
X1120920D1*
X1422288D2*
X1451199D1*
X438631Y890718D2*
X447743D1*
X802425D2*
X813501D1*
X879504D2*
X1118911D1*
X1431187D2*
X1451234D1*
X438631Y865849D2*
X450604D1*
X621209D2*
X656543D1*
X802425D2*
X813501D1*
X879504D2*
X1128959D1*
X1428281D2*
X1451234D1*
X438631Y840980D2*
X459611D1*
X553173D2*
X665155D1*
X802425D2*
X813501D1*
X879504D2*
X1137607D1*
X1216097D2*
X1325747D1*
X1419310D2*
X1451234D1*
X438631Y816112D2*
X448342D1*
X802425D2*
X813501D1*
X879504D2*
X1121100D1*
X1430577D2*
X1451234D1*
X438631Y791243D2*
X449312D1*
X802425D2*
X813501D1*
X879504D2*
X1118839D1*
X1429572D2*
X1451234D1*
X438631Y766374D2*
X463522D1*
X549226D2*
X656148D1*
X802425D2*
X813680D1*
X919981D2*
X1128600D1*
X1225104D2*
X1329336D1*
X1415685D2*
X1451234D1*
X438631Y741505D2*
X736457D1*
X966882D2*
X1118337D1*
X1235367D2*
X1256778D1*
X1429644D2*
X1451234D1*
X438631Y716636D2*
X745895D1*
X1013746D2*
X1118337D1*
X1430505D2*
X1451234D1*
X438667Y691768D2*
X793944D1*
X1060611D2*
X1118337D1*
X1419058D2*
X1451234D1*
X438667Y666899D2*
X845330D1*
X1108337D2*
X1118338D1*
X1235367D2*
X1451270D1*
X438667Y642030D2*
X896716D1*
X1183228D2*
X1451270D1*
X438667Y617161D2*
X948138D1*
X1241216D2*
X1451270D1*
X438667Y592293D2*
X483438D1*
X610444D2*
X999524D1*
X1247030D2*
X1270845D1*
X1397815D2*
X1451270D1*
X438667Y567424D2*
X457278D1*
X636568D2*
X685861D1*
X793059D2*
X940387D1*
X1423975D2*
X1451270D1*
X650599Y542555D2*
X685861D1*
X793059D2*
X930268D1*
X1437969D2*
X1451270D1*
X657273Y517686D2*
X685861D1*
X793059D2*
X931847D1*
X658027Y492818D2*
X685861D1*
X793059D2*
X946452D1*
X652967Y467949D2*
X1081914D1*
X1440374D2*
X1451306D1*
X438702Y443080D2*
X452721D1*
X641125D2*
X1240128D1*
X1428532D2*
X1451306D1*
X697537Y584327D2*
X790547D1*
Y482130D1*
X688350D1*
Y584327D1*
X697537D1*
X1130017Y754720D2*
X1142182D1*
X1137238Y759089D1*
X1131530Y765773D1*
X1126936Y773268D1*
X1123573Y781390D1*
X1121520Y789937D1*
X1120831Y798701D1*
X1121520Y807464D1*
X1123573Y816012D1*
X1126936Y824133D1*
X1131530Y831628D1*
X1137238Y838313D1*
X1143923Y844022D1*
X1151590Y848694D1*
X1143923Y853380D1*
X1137238Y859089D1*
X1131530Y865773D1*
X1126936Y873268D1*
X1123573Y881390D1*
X1121520Y889937D1*
X1120831Y898701D1*
X1121520Y907464D1*
X1123573Y916012D1*
X1126936Y924133D1*
X1131530Y931628D1*
X1137238Y938313D1*
X1143923Y944022D1*
X1151590Y948694D1*
X1143923Y953380D1*
X1137238Y959089D1*
X1131530Y965773D1*
X1126936Y973268D1*
X1123573Y981390D1*
X1121520Y989937D1*
X1120831Y998701D1*
X1121520Y1007464D1*
X1123573Y1016012D1*
X1126936Y1024133D1*
X1131530Y1031628D1*
X1137238Y1038313D1*
X1143923Y1044022D1*
X1151590Y1048694D1*
X1143923Y1053380D1*
X1137238Y1059089D1*
X1131530Y1065773D1*
X1126936Y1073268D1*
X1123573Y1081390D1*
X1121520Y1089937D1*
X1120831Y1098701D1*
X1121520Y1107464D1*
X1123573Y1116012D1*
X1126936Y1124133D1*
X1131530Y1131628D1*
X1137238Y1138313D1*
X1143923Y1144022D1*
X1151590Y1148694D1*
X1143923Y1153380D1*
X1137238Y1159089D1*
X1131530Y1165773D1*
X1126936Y1173268D1*
X1123573Y1181390D1*
X1121520Y1189937D1*
X1120831Y1198701D1*
X1121520Y1207464D1*
X1123573Y1216012D1*
X1126936Y1224133D1*
X1131530Y1231628D1*
X1137238Y1238313D1*
X1143923Y1244022D1*
X1151590Y1248694D1*
X1143923Y1253380D1*
X1137238Y1259089D1*
X1131530Y1265773D1*
X1126936Y1273268D1*
X1123573Y1281390D1*
X1121520Y1289937D1*
X1120831Y1298701D1*
X1121520Y1307464D1*
X1123573Y1316012D1*
X1126936Y1324133D1*
X1131530Y1331628D1*
X1137238Y1338313D1*
X1143923Y1344022D1*
X1151590Y1348694D1*
X1143923Y1353380D1*
X1137238Y1359089D1*
X1131530Y1365773D1*
X1126936Y1373268D1*
X1123573Y1381390D1*
X1121520Y1389937D1*
X1120831Y1398701D1*
X1121520Y1407464D1*
X1123573Y1416012D1*
X1126936Y1424133D1*
X1131530Y1431628D1*
X1137238Y1438313D1*
X1143923Y1444022D1*
X1151590Y1448694D1*
X1143923Y1453380D1*
X1137238Y1459089D1*
X1131530Y1465773D1*
X1126936Y1473268D1*
X1123573Y1481390D1*
X1121520Y1489937D1*
X1120831Y1498701D1*
X1121520Y1507464D1*
X1123573Y1516012D1*
X1126936Y1524133D1*
X1131530Y1531628D1*
X1137238Y1538313D1*
X1143923Y1544022D1*
X1151590Y1548694D1*
X1143923Y1553380D1*
X1137238Y1559089D1*
X1131530Y1565773D1*
X1126936Y1573268D1*
X1123573Y1581390D1*
X1121520Y1589937D1*
X1120831Y1598701D1*
X1121520Y1607464D1*
X1123573Y1616012D1*
X1126936Y1624133D1*
X1131530Y1631628D1*
X1137238Y1638313D1*
X1143923Y1644022D1*
X1151418Y1648615D1*
X1159539Y1651979D1*
X1168087Y1654031D1*
X1176850Y1654720D1*
X1185614Y1654031D1*
X1194161Y1651979D1*
X1202283Y1648615D1*
X1209778Y1644022D1*
X1216462Y1638313D1*
X1222171Y1631628D1*
X1226764Y1624133D1*
X1230128Y1616012D1*
X1232180Y1607464D1*
X1232870Y1598701D1*
X1232437Y1592104D1*
X1355465Y1489696D1*
X1363682Y1491623D1*
X1372520Y1492319D1*
X1381357Y1491623D1*
X1389977Y1489554D1*
X1398167Y1486162D1*
X1405725Y1481530D1*
X1412466Y1475773D1*
X1418223Y1469032D1*
X1422855Y1461474D1*
X1426247Y1453284D1*
X1428316Y1444664D1*
X1429012Y1435827D1*
X1428316Y1426989D1*
X1426247Y1418370D1*
X1422855Y1410180D1*
X1418223Y1402622D1*
X1413018Y1396479D1*
X1418223Y1390292D1*
X1422855Y1382734D1*
X1426247Y1374544D1*
X1428316Y1365924D1*
X1429012Y1357087D1*
X1428316Y1348249D1*
X1426247Y1339630D1*
X1422855Y1331440D1*
X1418223Y1323881D1*
X1413018Y1317739D1*
X1418223Y1311552D1*
X1422855Y1303993D1*
X1426247Y1295803D1*
X1428316Y1287184D1*
X1429012Y1278346D1*
X1428316Y1269509D1*
X1426247Y1260889D1*
X1422855Y1252700D1*
X1418223Y1245141D1*
X1413018Y1238999D1*
X1418223Y1232812D1*
X1422855Y1225253D1*
X1426247Y1217063D1*
X1428316Y1208444D1*
X1429012Y1199606D1*
X1428316Y1190769D1*
X1426247Y1182149D1*
X1422855Y1173959D1*
X1418223Y1166401D1*
X1413018Y1160258D1*
X1418223Y1154071D1*
X1422855Y1146513D1*
X1426247Y1138323D1*
X1428316Y1129703D1*
X1429012Y1120866D1*
X1428316Y1112029D1*
X1426247Y1103409D1*
X1422855Y1095219D1*
X1418223Y1087661D1*
X1413018Y1081518D1*
X1418223Y1075331D1*
X1422855Y1067773D1*
X1426247Y1059583D1*
X1428316Y1050963D1*
X1429012Y1042126D1*
X1428316Y1033289D1*
X1426247Y1024669D1*
X1422855Y1016479D1*
X1418223Y1008921D1*
X1413018Y1002778D1*
X1418223Y996591D1*
X1422855Y989033D1*
X1426247Y980843D1*
X1428316Y972223D1*
X1429012Y963386D1*
X1428316Y954549D1*
X1426247Y945929D1*
X1422855Y937739D1*
X1418223Y930181D1*
X1413018Y924038D1*
X1418223Y917851D1*
X1422855Y910293D1*
X1426247Y902103D1*
X1428316Y893483D1*
X1429012Y884646D1*
X1428316Y875808D1*
X1426247Y867189D1*
X1422855Y858999D1*
X1418223Y851440D1*
X1413018Y845298D1*
X1418223Y839111D1*
X1422855Y831552D1*
X1426247Y823363D1*
X1428316Y814743D1*
X1429012Y805906D1*
X1428316Y797068D1*
X1426247Y788448D1*
X1422855Y780259D1*
X1418223Y772700D1*
X1413018Y766558D1*
X1418223Y760371D1*
X1422855Y752812D1*
X1426247Y744622D1*
X1428316Y736003D1*
X1429012Y727165D1*
X1428316Y718328D1*
X1426247Y709708D1*
X1422855Y701518D1*
X1418223Y693960D1*
X1412466Y687219D1*
X1405725Y681462D1*
X1398167Y676831D1*
X1389977Y673438D1*
X1381357Y671369D1*
X1372520Y670673D1*
X1363682Y671369D1*
X1355063Y673438D1*
X1346873Y676831D1*
X1339314Y681462D1*
X1332574Y687219D1*
X1329857Y690159D1*
X1232844Y676033D1*
X1232870Y642681D1*
X1178793D1*
X1226299Y626796D1*
X1230548Y624597D1*
X1234401Y621759D1*
X1237762Y618354D1*
X1240550Y614465D1*
X1242694Y610188D1*
X1244144Y605628D1*
X1244862Y600898D1*
X1244111Y587112D1*
X1241922Y559748D1*
X1246154Y566032D1*
X1251452Y572753D1*
X1257262Y579038D1*
X1263546Y584847D1*
X1270267Y590145D1*
X1277382Y594900D1*
X1284849Y599081D1*
X1292621Y602664D1*
X1300650Y605626D1*
X1308887Y607949D1*
X1317281Y609619D1*
X1325779Y610625D1*
X1334331Y610961D1*
X1342882Y610625D1*
X1351381Y609619D1*
X1359774Y607949D1*
X1368011Y605626D1*
X1376040Y602664D1*
X1383812Y599081D1*
X1391279Y594900D1*
X1398395Y590145D1*
X1405115Y584847D1*
X1411400Y579038D1*
X1417209Y572753D1*
X1422507Y566032D1*
X1427262Y558917D1*
X1431443Y551450D1*
X1435026Y543678D1*
X1437988Y535649D1*
X1440311Y527412D1*
X1441981Y519019D1*
X1442987Y510520D1*
X1443323Y501969D1*
X1442987Y493417D1*
X1441981Y484918D1*
X1440311Y476525D1*
X1437988Y468288D1*
X1435026Y460259D1*
X1431443Y452487D1*
X1427262Y445020D1*
X1421162Y436198D1*
X1453812Y436201D1*
X1453567Y1749067D1*
X1421052Y1749060D1*
X1427262Y1740019D1*
X1431443Y1732552D1*
X1435026Y1724780D1*
X1437988Y1716751D1*
X1440311Y1708515D1*
X1441981Y1700121D1*
X1442987Y1691622D1*
X1443323Y1683071D1*
X1442987Y1674519D1*
X1441981Y1666021D1*
X1440311Y1657627D1*
X1437988Y1649390D1*
X1435026Y1641361D1*
X1431443Y1633589D1*
X1427262Y1626123D1*
X1422507Y1619007D1*
X1417209Y1612286D1*
X1411400Y1606002D1*
X1405115Y1600193D1*
X1398395Y1594894D1*
X1391279Y1590140D1*
X1383812Y1585958D1*
X1376040Y1582375D1*
X1368011Y1579413D1*
X1359774Y1577090D1*
X1351381Y1575421D1*
X1342882Y1574415D1*
X1334331Y1574079D1*
X1325779Y1574415D1*
X1317281Y1575421D1*
X1308887Y1577090D1*
X1300650Y1579413D1*
X1292621Y1582375D1*
X1284849Y1585958D1*
X1277382Y1590140D1*
X1270267Y1594894D1*
X1263546Y1600193D1*
X1257262Y1606002D1*
X1251452Y1612286D1*
X1246154Y1619007D1*
X1241400Y1626123D1*
X1237218Y1633589D1*
X1233635Y1641361D1*
X1230673Y1649390D1*
X1228350Y1657627D1*
X1226680Y1666021D1*
X1225675Y1674519D1*
X1225339Y1683071D1*
X1225675Y1691622D1*
X1226680Y1700121D1*
X1228350Y1708515D1*
X1230673Y1716751D1*
X1233635Y1724780D1*
X1237218Y1732552D1*
X1241400Y1740019D1*
X1247624Y1748999D1*
X633824Y1748887D1*
X639860Y1740019D1*
X644042Y1732552D1*
X647625Y1724780D1*
X650587Y1716751D1*
X652910Y1708515D1*
X654579Y1700121D1*
X655585Y1691622D1*
X655921Y1683071D1*
X655585Y1674519D1*
X654579Y1666021D1*
X652084Y1654699D1*
X760429Y1654720D1*
Y1542681D1*
X739078D1*
X744021Y1538313D1*
X749730Y1531628D1*
X751363Y1529185D1*
X848898Y1529099D1*
X853624Y1528351D1*
X858174Y1526872D1*
X862437Y1524700D1*
X866308Y1521887D1*
X869692Y1518504D1*
X872504Y1514633D1*
X874676Y1510370D1*
X876155Y1505819D1*
X876903Y1501093D1*
X876997Y1425210D1*
X877027Y787847D1*
X1103511Y667672D1*
X1120833Y661915D1*
X1120831Y754720D1*
X1130017D1*
X1211582D2*
X1232870D1*
Y737675D1*
X1321072Y750494D1*
X1324352Y756682D1*
X1329563Y763854D1*
X1332021Y766513D1*
X1326817Y772700D1*
X1326152Y773694D1*
X1224931Y769958D1*
X1219448Y762319D1*
X1213232Y756103D1*
X1211492Y754731D1*
X1202111Y848694D2*
X1209778Y844022D1*
X1216462Y838313D1*
X1222171Y831628D1*
X1222658Y830900D1*
X1323866Y834627D1*
X1326817Y839111D1*
X1332021Y845253D1*
X1326817Y851440D1*
X1322955Y857623D1*
X1221548Y864919D1*
X1216462Y859089D1*
X1209778Y853380D1*
X1202111Y848708D1*
Y948694D2*
X1209778Y944022D1*
X1216462Y938313D1*
X1222171Y931628D1*
X1225866Y925737D1*
X1327250Y918468D1*
X1332021Y923994D1*
X1326817Y930181D1*
X1322185Y937739D1*
X1320310Y941816D1*
X1217692Y960345D1*
X1213232Y956103D1*
X1206121Y950936D1*
X1202111Y948708D1*
Y1048694D2*
X1209778Y1044022D1*
X1216462Y1038313D1*
X1222171Y1031628D1*
X1226764Y1024133D1*
X1228498Y1020373D1*
X1331113Y1001844D1*
X1329563Y1005437D1*
X1324352Y1012609D1*
X1320328Y1020507D1*
X1318412Y1026020D1*
X1213510Y1056360D1*
X1206121Y1050936D1*
X1202111Y1048708D1*
Y1148694D2*
X1209778Y1144022D1*
X1216462Y1138313D1*
X1222171Y1131628D1*
X1226764Y1124133D1*
X1230128Y1116012D1*
X1230431Y1114937D1*
X1327380Y1086919D1*
X1324352Y1091349D1*
X1320328Y1099248D1*
X1317588Y1107678D1*
X1317105Y1110108D1*
X1209238Y1153001D1*
X1202111Y1148708D1*
Y1248694D2*
X1209778Y1244022D1*
X1216462Y1238313D1*
X1222171Y1231628D1*
X1226764Y1224133D1*
X1230128Y1216012D1*
X1231741Y1209672D1*
X1322326Y1173648D1*
X1318792Y1182149D1*
X1316723Y1190769D1*
X1316354Y1193883D1*
X1204985Y1250273D1*
X1202111Y1248708D1*
X1215743Y1338977D2*
X1219448Y1335083D1*
X1224615Y1327971D1*
X1228606Y1320139D1*
X1231322Y1311778D1*
X1232510Y1304683D1*
X1318775Y1261004D1*
X1316723Y1269509D1*
X1316070Y1277256D1*
X1215853Y1338912D1*
X1226000Y1425497D2*
X1228606Y1420139D1*
X1231322Y1411778D1*
X1232697Y1403096D1*
X1232815Y1400091D1*
X1316706Y1348476D1*
X1316028Y1357087D1*
X1316152Y1360255D1*
X1226067Y1425440D1*
X1230618Y1514275D2*
X1232180Y1507464D1*
X1232870Y1498701D1*
X1232759Y1495868D1*
X1316028Y1435827D1*
X1316501Y1442789D1*
X1230696Y1514206D1*
X751363Y1468216D2*
X747007Y1462319D1*
X740791Y1456103D1*
X733680Y1450936D1*
X729842Y1448615D1*
X737337Y1444022D1*
X744021Y1438313D1*
X749730Y1431628D1*
X751363Y1429185D1*
X771841Y1429099D1*
X776567Y1428351D1*
X781118Y1426872D1*
X785381Y1424700D1*
X789252Y1421887D1*
X792635Y1418504D1*
X795448Y1414633D1*
X797620Y1410370D1*
X799099Y1405819D1*
X799847Y1401093D1*
X799941Y1325210D1*
Y757845D1*
X840388Y738250D1*
X830573Y743525D1*
X826702Y746337D1*
X823319Y749721D1*
X820506Y753591D1*
X818334Y757855D1*
X816856Y762405D1*
X816107Y767131D1*
X816013Y843014D1*
Y1468225D1*
X751376Y1468209D1*
X679149Y1448708D2*
X671482Y1453380D1*
X670551Y1454114D1*
X604508Y1430316D1*
X588020Y1373049D1*
X586002Y1368711D1*
X583330Y1364742D1*
X580070Y1361239D1*
X578237Y1359685D1*
X602657Y1373974D1*
X648468Y1401054D1*
X649079Y1407464D1*
X651132Y1416012D1*
X654496Y1424133D1*
X659089Y1431628D1*
X664798Y1438313D1*
X671482Y1444022D1*
X679149Y1448694D1*
Y1148708D2*
X671482Y1153380D1*
X664798Y1159089D1*
X659089Y1165773D1*
X657456Y1168216D1*
X647677Y1168209D1*
X562818Y1118553D1*
X562175Y1112029D1*
X560105Y1103409D1*
X557533Y1096997D1*
X630026Y1127701D1*
X634679Y1128818D1*
X639449Y1129193D1*
X657427D1*
X661812Y1135083D1*
X668028Y1141298D1*
X675139Y1146465D1*
X679149Y1148694D1*
Y1048708D2*
X671482Y1053380D1*
X664798Y1059089D1*
X659089Y1065773D1*
X657456Y1068216D1*
X645667Y1068209D1*
X562050Y1032661D1*
X560105Y1024669D1*
X556713Y1016479D1*
X552081Y1008921D1*
X550225Y1006567D1*
X633964Y1028696D1*
X638733Y1029184D1*
X657427Y1029193D1*
X661812Y1035083D1*
X668028Y1041298D1*
X675139Y1046465D1*
X679149Y1048694D1*
Y948708D2*
X671482Y953380D1*
X664798Y959089D1*
X659089Y965773D1*
X657456Y968216D1*
X643442Y968209D1*
X560105Y945929D1*
X556713Y937739D1*
X552081Y930181D1*
X546877Y924038D1*
X550418Y919960D1*
X639449Y929193D1*
X657427D1*
X661812Y935083D1*
X668028Y941298D1*
X675139Y946465D1*
X679149Y948694D1*
Y848708D2*
X671482Y853380D1*
X664798Y859089D1*
X659089Y865773D1*
X657456Y868216D1*
X641074Y868209D1*
X556899Y859320D1*
X552081Y851440D1*
X546877Y845298D1*
X552081Y839111D1*
X555468Y833775D1*
X640280Y829193D1*
X657427D1*
X661812Y835083D1*
X668028Y841298D1*
X675139Y846465D1*
X679149Y848694D1*
X738970Y754667D2*
X733680Y750936D1*
X725847Y746945D1*
X717487Y744229D1*
X708805Y742854D1*
X700014D1*
X691332Y744229D1*
X682972Y746945D1*
X675139Y750936D1*
X668028Y756103D1*
X661812Y762319D1*
X657456Y768216D1*
X639439Y768209D1*
X552198Y772888D1*
X546324Y765960D1*
X539583Y760202D1*
X532025Y755571D1*
X523835Y752178D1*
X515215Y750109D1*
X506378Y749413D1*
X497541Y750109D1*
X488921Y752178D1*
X480731Y755571D1*
X473173Y760202D1*
X466432Y765960D1*
X460675Y772700D1*
X456043Y780259D1*
X452651Y788448D1*
X450581Y797068D1*
X449886Y805906D1*
X450581Y814743D1*
X452651Y823363D1*
X456043Y831552D1*
X460675Y839111D1*
X465879Y845253D1*
X460675Y851440D1*
X456043Y858999D1*
X452651Y867189D1*
X450581Y875808D1*
X449886Y884646D1*
X450581Y893483D1*
X452651Y902103D1*
X456043Y910293D1*
X460675Y917851D1*
X465879Y923994D1*
X460675Y930181D1*
X456043Y937739D1*
X452651Y945929D1*
X450581Y954549D1*
X449886Y963386D1*
X450581Y972223D1*
X452651Y980843D1*
X456043Y989033D1*
X460675Y996591D1*
X465879Y1002734D1*
X460675Y1008921D1*
X456043Y1016479D1*
X452651Y1024669D1*
X450581Y1033289D1*
X449886Y1042126D1*
X450581Y1050963D1*
X452651Y1059583D1*
X456043Y1067773D1*
X460675Y1075331D1*
X465879Y1081474D1*
X460675Y1087661D1*
X456043Y1095219D1*
X452651Y1103409D1*
X450581Y1112029D1*
X449886Y1120866D1*
X450581Y1129703D1*
X452651Y1138323D1*
X456043Y1146513D1*
X460675Y1154071D1*
X465879Y1160214D1*
X460675Y1166401D1*
X456043Y1173959D1*
X452651Y1182149D1*
X450581Y1190769D1*
X449886Y1199606D1*
X450581Y1208444D1*
X452651Y1217063D1*
X456043Y1225253D1*
X460675Y1232812D1*
X465879Y1238954D1*
X460675Y1245141D1*
X456043Y1252700D1*
X452651Y1260889D1*
X450581Y1269509D1*
X449886Y1278346D1*
X450581Y1287184D1*
X452651Y1295803D1*
X456043Y1303993D1*
X460675Y1311552D1*
X465879Y1317694D1*
X460675Y1323881D1*
X456043Y1331440D1*
X452651Y1339630D1*
X450581Y1348249D1*
X449886Y1357087D1*
X450581Y1365924D1*
X452651Y1374544D1*
X456043Y1382734D1*
X460675Y1390292D1*
X465879Y1396435D1*
X460675Y1402622D1*
X456043Y1410180D1*
X452651Y1418370D1*
X450581Y1426989D1*
X449886Y1435827D1*
X450581Y1444664D1*
X452651Y1453284D1*
X456043Y1461474D1*
X460675Y1469032D1*
X466432Y1475773D1*
X473173Y1481530D1*
X480731Y1486162D1*
X488921Y1489554D1*
X497541Y1491623D1*
X506378Y1492319D1*
X515215Y1491623D1*
X523835Y1489554D1*
X532025Y1486162D1*
X539583Y1481530D1*
X546324Y1475773D1*
X552081Y1469032D1*
X552630Y1468211D1*
X555650Y1472764D1*
X558925Y1476252D1*
X562706Y1479185D1*
X566899Y1481490D1*
X638262Y1507289D1*
X649874Y1511458D1*
X652654Y1520139D1*
X656645Y1527971D1*
X661812Y1535083D1*
X668028Y1541298D1*
X669678Y1542681D1*
X648390D1*
Y1643264D1*
X644042Y1633589D1*
X639860Y1626123D1*
X635106Y1619007D1*
X629807Y1612286D1*
X623998Y1606002D1*
X617714Y1600193D1*
X610993Y1594894D1*
X603877Y1590140D1*
X596411Y1585958D1*
X588639Y1582375D1*
X580610Y1579413D1*
X572373Y1577090D1*
X563979Y1575421D1*
X555481Y1574415D1*
X546929Y1574079D1*
X538378Y1574415D1*
X529879Y1575421D1*
X521485Y1577090D1*
X513249Y1579413D1*
X505220Y1582375D1*
X497448Y1585958D1*
X489981Y1590140D1*
X482865Y1594894D1*
X476144Y1600193D1*
X469860Y1606002D1*
X464051Y1612286D1*
X458753Y1619007D1*
X453998Y1626123D1*
X449816Y1633589D1*
X446234Y1641361D1*
X443271Y1649390D1*
X440948Y1657627D1*
X439279Y1666021D1*
X438273Y1674519D1*
X437937Y1683071D1*
X438273Y1691622D1*
X439279Y1700121D1*
X440948Y1708515D1*
X443271Y1716751D1*
X446234Y1724780D1*
X449816Y1732552D1*
X453998Y1740019D1*
X460098Y1748841D1*
X435959Y1748844D1*
X436197Y436195D1*
X460035Y436201D1*
X453998Y445020D1*
X449816Y452487D1*
X446234Y460259D1*
X443271Y468288D1*
X440948Y476525D1*
X439279Y484918D1*
X438273Y493417D1*
X437937Y501969D1*
X438273Y510520D1*
X439279Y519019D1*
X440948Y527412D1*
X443271Y535649D1*
X446234Y543678D1*
X449816Y551450D1*
X453998Y558917D1*
X458753Y566032D1*
X464051Y572753D1*
X469860Y579038D1*
X476144Y584847D1*
X482865Y590145D1*
X489981Y594900D1*
X497448Y599081D1*
X505220Y602664D1*
X513249Y605626D1*
X521485Y607949D1*
X529879Y609619D1*
X538378Y610625D1*
X546929Y610961D1*
X555481Y610625D1*
X563979Y609619D1*
X572373Y607949D1*
X580610Y605626D1*
X588639Y602664D1*
X596411Y599081D1*
X603877Y594900D1*
X610993Y590145D1*
X617714Y584847D1*
X623998Y579038D1*
X629807Y572753D1*
X635106Y566032D1*
X639860Y558917D1*
X644042Y551450D1*
X647625Y543678D1*
X650587Y535649D1*
X652910Y527412D1*
X654579Y519019D1*
X655585Y510520D1*
X655921Y501969D1*
X655585Y493417D1*
X654579Y484918D1*
X652910Y476525D1*
X650587Y468288D1*
X647625Y460259D1*
X644042Y452487D1*
X639860Y445020D1*
X633760Y436198D1*
X1247406Y436201D1*
X1241400Y445020D1*
X1237218Y452487D1*
X1232814Y462486D1*
X1230427Y457735D1*
X1227610Y453868D1*
X1224222Y450489D1*
X1220347Y447681D1*
X1216081Y445515D1*
X1211529Y444042D1*
X1206793Y443299D1*
X1119449Y443209D1*
X1114679Y443584D1*
X1110026Y444701D1*
X1105606Y446532D1*
X1101526Y449032D1*
X1097888Y452140D1*
X1077307Y476358D1*
X1068819Y475713D1*
X1059748Y476427D1*
X1050900Y478551D1*
X1042493Y482033D1*
X1034734Y486787D1*
X1029424Y491164D1*
X1024163Y486787D1*
X1016405Y482033D1*
X1007998Y478551D1*
X999150Y476427D1*
X990079Y475713D1*
X981007Y476427D1*
X972159Y478551D1*
X963753Y482033D1*
X955994Y486787D1*
X949075Y492697D1*
X943165Y499616D1*
X938411Y507375D1*
X934929Y515781D1*
X932804Y524629D1*
X932091Y533701D1*
X932804Y542772D1*
X934929Y551620D1*
X938411Y560027D1*
X943165Y567785D1*
X949075Y574705D1*
X955994Y580614D1*
X963753Y585369D1*
X972159Y588851D1*
X981007Y590975D1*
X990079Y591689D1*
X999150Y590975D1*
X1007998Y588851D1*
X1014773Y586121D1*
X1020377Y583144D1*
X1027739Y577795D1*
X1029424Y576238D1*
X1031480Y578049D1*
X754055Y712380D1*
X750127Y715112D1*
X746675Y718425D1*
X743783Y722237D1*
X741524Y726455D1*
X739952Y730974D1*
X739106Y735683D1*
X738963Y738083D1*
X562696Y1195174D2*
X561739Y1188577D1*
X625606Y1225870D1*
X630026Y1227701D1*
X634679Y1228818D1*
X639449Y1229193D1*
X657456Y1229185D1*
X661812Y1235083D1*
X668028Y1241298D1*
X675139Y1246465D1*
X678977Y1248787D1*
X671482Y1253380D1*
X664798Y1259089D1*
X659089Y1265773D1*
X657456Y1268216D1*
X649573Y1268222D1*
X562713Y1203539D1*
X562716Y1203537D2*
X562696Y1195174D1*
X573086Y1356428D2*
X562564Y1351152D1*
X567929Y1353047D1*
X574249Y1357042D1*
X738957Y738737D2*
Y754597D1*
D16*
X739449Y533228D3*
D17*
Y474173D3*
D18*
X911339Y533701D3*
D19*
X990079D3*
X1068819D3*
X1147559D3*
D20*
X1176850Y698701D3*
D21*
Y798701D3*
Y898701D3*
Y998701D3*
Y1098701D3*
Y1198701D3*
Y1298701D3*
Y1398701D3*
Y1498701D3*
Y1598701D3*
D20*
X704409D3*
D21*
Y1498701D3*
Y1398701D3*
Y1298701D3*
Y1198701D3*
Y1098701D3*
Y998701D3*
Y898701D3*
Y798701D3*
Y698701D3*
D22*
X506378Y727165D3*
Y805906D3*
Y884646D3*
Y963386D3*
Y1042126D3*
Y1120866D3*
Y1199606D3*
Y1278346D3*
Y1357087D3*
Y1435827D3*
X1372520Y727165D3*
Y805906D3*
Y884646D3*
Y963386D3*
Y1042126D3*
Y1120866D3*
Y1199606D3*
Y1278346D3*
Y1357087D3*
Y1435827D3*
M02*
