G04 DipTrace 3.2.0.1*
G04 Teensy3.6TouchDisplayLoRaV03.gts*
%MOIN*%
G04 #@! TF.FileFunction,Soldermask,Top*
G04 #@! TF.Part,Single*
%AMOUTLINE4*
4,1,4,
-0.03937,-0.015748,
0.03937,-0.015748,
0.03937,0.015748,
-0.03937,0.015748,
-0.03937,-0.015748,
0*%
%AMOUTLINE5*
4,1,4,
0.03937,0.015748,
-0.03937,0.015748,
-0.03937,-0.015748,
0.03937,-0.015748,
0.03937,0.015748,
0*%
%AMOUTLINE6*
4,1,4,
0.08,-0.03,
0.08,0.03,
-0.08,0.03,
-0.08,-0.03,
0.08,-0.03,
0*%
%AMOUTLINE7*
4,1,4,
0.04,-0.02,
0.04,0.02,
-0.04,0.02,
-0.04,-0.02,
0.04,-0.02,
0*%
%ADD13C,0.04*%
%ADD29C,0.05*%
%ADD32C,0.066*%
%ADD36R,0.1X0.05*%
%ADD39R,0.059055X0.059055*%
%ADD40C,0.059055*%
%ADD42C,0.05315*%
%ADD43R,0.047244X0.047244*%
%ADD45R,0.031496X0.035433*%
%ADD51R,0.064173X0.064173*%
%ADD52C,0.064173*%
%ADD66C,0.167*%
%ADD68C,0.042*%
%ADD70C,0.052*%
%ADD76R,0.08074X0.025622*%
%ADD78R,0.086646X0.129953*%
%ADD80R,0.086646X0.039402*%
%ADD88C,0.076803*%
%ADD90R,0.076803X0.076803*%
%ADD92R,0.043339X0.027591*%
%ADD100C,0.061055*%
%ADD102R,0.061055X0.061055*%
%ADD104O,0.076803X0.100425*%
%ADD106R,0.076803X0.100425*%
%ADD110R,0.061055X0.053181*%
%ADD112R,0.053181X0.061055*%
%ADD124OUTLINE4*%
%ADD125OUTLINE5*%
%ADD126OUTLINE6*%
%ADD127OUTLINE7*%
%FSLAX26Y26*%
G04*
G70*
G90*
G75*
G01*
G04 TopMask*
%LPD*%
D70*
X1793583Y1685209D3*
X1892630Y1751251D3*
X1162370Y1206116D3*
D68*
X1968536Y1181118D3*
X3723819Y1602332D3*
X1237362Y1443591D3*
X3537121Y1681066D3*
X3465903Y2031122D3*
X3543370Y2218509D3*
X956142Y1268609D3*
D66*
X3661418Y511811D3*
X669292D3*
Y2244095D3*
X3661418D3*
D13*
X2249756Y2181013D3*
X1193617Y2293502D3*
X1656068Y1899793D3*
X1693701Y2273701D3*
X3349641Y1799803D3*
X1693701Y1613701D3*
D29*
X3343391Y2037278D3*
D13*
X2824696Y1006137D3*
X2953701Y913701D3*
X593701Y1513701D3*
X2313701Y1893701D3*
X2424738Y2024780D3*
Y2118520D3*
X1393596Y1143622D3*
X3468378Y1649819D3*
X2555974Y2149767D3*
X2124769Y1206116D3*
X2333701Y1833701D3*
Y1753701D3*
X2174764Y2006032D3*
X1993701Y1953701D3*
X3455879Y2093523D3*
X3368389Y1243612D3*
X668672Y1649819D3*
D29*
X1499835Y643675D3*
X1874795Y1024885D3*
X1843549Y1156121D3*
X1031134Y1593575D3*
X1287357Y1681066D3*
D13*
X624927Y1974785D3*
X2313701Y1613701D3*
X1753701D3*
X2033701Y1313701D3*
X2573701Y973701D3*
X1613701Y873701D3*
X1293701D3*
D32*
X3518701Y1756200D3*
D112*
X2256103Y1743701D3*
X2181299D3*
D110*
X3393701Y2037360D3*
Y1962557D3*
X1768557Y1974785D3*
Y1899982D3*
D112*
X1549830Y1624822D3*
X1624633D3*
X2256103Y1943701D3*
X2181299D3*
D36*
X831201Y1643701D3*
X656201D3*
D112*
X1031299Y1893701D3*
X1106103D3*
D32*
X3518701Y1906200D3*
D106*
X1836614Y524937D3*
D104*
X1936614D3*
X2036614D3*
X2136614D3*
X2236614D3*
X2336614D3*
D102*
X493701Y731701D3*
D100*
Y831701D3*
Y931701D3*
Y1031701D3*
Y1131701D3*
Y1231701D3*
Y1331701D3*
Y1431701D3*
Y1531701D3*
Y1631701D3*
Y1731701D3*
Y1831701D3*
Y1931701D3*
Y2031701D3*
D42*
X2528701Y2218701D3*
X2463701D3*
X2393701D3*
X2328701D3*
D102*
X693701Y1468701D3*
D100*
X793701D3*
X693701Y1368701D3*
X793701D3*
X693701Y1268701D3*
X793701D3*
D102*
X693701Y2018701D3*
D100*
X793701D3*
X693701Y1918701D3*
X793701D3*
X693701Y1818701D3*
X793701D3*
D43*
X1935029Y2268701D3*
X1852352D3*
D45*
X1062381Y1418593D3*
X987578D3*
X1024979Y1335916D3*
D92*
X1237362Y1318604D3*
Y1393407D3*
X1146811Y1356005D3*
D112*
X2006103Y2118701D3*
X1931299D3*
X1081129Y1262360D3*
X1006326D3*
D110*
X912397Y1331103D3*
Y1405906D3*
D112*
X1931299Y1743701D3*
X2006103D3*
X2050019Y2287439D3*
X2124822D3*
D110*
X2224759Y981139D3*
Y1055942D3*
D112*
X2412239Y1956037D3*
X2487042D3*
X2256103Y1843701D3*
X2181299D3*
D102*
X643701Y718701D3*
D100*
X743701D3*
X843701D3*
X943701D3*
X1043701D3*
X1143701D3*
X1243701D3*
D90*
X1424945Y2187055D3*
D88*
Y1887843D3*
D124*
X3262598Y1718110D3*
Y1796851D3*
Y1875591D3*
Y1954331D3*
Y2033071D3*
Y2111811D3*
Y2190551D3*
Y2269292D3*
D125*
X2624803D3*
Y2190551D3*
Y2111811D3*
Y2033071D3*
Y1954331D3*
Y1875591D3*
Y1796851D3*
Y1718110D3*
D39*
X1368698Y718704D3*
D40*
X1468698D3*
X1568698D3*
X1668698D3*
X1768698D3*
X1868698D3*
X1968698D3*
X2068698D3*
X2168698D3*
X2268698D3*
X2368698D3*
X2468698D3*
X2568698D3*
X2668698D3*
X2768698D3*
X2868698D3*
X2968698D3*
X3068698D3*
X3168698D3*
X3268698D3*
X3368698D3*
X3468698D3*
X3568698D3*
X3668698D3*
D51*
X1368698Y818704D3*
D52*
X1468698D3*
X1568698D3*
X1668698D3*
X1768698D3*
X1868698D3*
X1968698D3*
X2068698D3*
X2168698D3*
X2268698D3*
X2368698D3*
X2468698D3*
X2568698D3*
X2668698D3*
X2768698D3*
X2868698D3*
X2968698D3*
X3068698D3*
X3168698D3*
X3268698D3*
X3368698D3*
X3468698D3*
X3568698D3*
X3668698D3*
X3168698Y918704D3*
Y1018704D3*
Y1118704D3*
Y1218704D3*
Y1318704D3*
Y1418704D3*
X3268698D3*
X3368698D3*
X3468698D3*
X3568698D3*
X3668698D3*
X3068698D3*
X2968698D3*
X2868698D3*
X2768698D3*
X2668698D3*
X2568698D3*
X2468698D3*
X2368698D3*
X2268698D3*
X2168698D3*
X2068698D3*
X1968698D3*
X1868698D3*
X1768698D3*
X1668698D3*
X1568698D3*
X1468698D3*
X1368698D3*
X1468698Y1318704D3*
X1668698D3*
X1768698D3*
X1868698D3*
X1618698Y943704D3*
X1718698D3*
X1818698D3*
X1918698D3*
X2018698D3*
D80*
X954528Y1784252D3*
Y1693701D3*
Y1603150D3*
D78*
X1182874Y1693701D3*
D76*
X2075000Y1868701D3*
Y1918701D3*
Y1968701D3*
Y2018701D3*
X1862402D3*
Y1968701D3*
Y1918701D3*
Y1868701D3*
D102*
X1368698Y1518704D3*
D100*
X1468698D3*
X1568698D3*
X1668698D3*
X1768698D3*
X1868698D3*
X1968698D3*
X2068698D3*
X2168698D3*
X2268698D3*
X2368698D3*
X2468698D3*
X2568698D3*
X2668698D3*
X2768698D3*
X2868698D3*
X2968698D3*
X3068698D3*
X3168698D3*
X3268698D3*
X3368698D3*
X3468698D3*
X3568698D3*
X3668698D3*
G36*
X3616682Y1689519D2*
X3708694D1*
Y1725581D1*
X3616682D1*
Y1689519D1*
G37*
G36*
X3708746Y1835301D2*
X3616682D1*
Y1799395D1*
X3708746D1*
Y1835301D1*
G37*
D126*
X3663702Y1862449D3*
Y1662449D3*
D127*
X3623702Y1762449D3*
M02*
