G04 DipTrace 3.2.0.1*
G04 Teensy3.6TouchDisplayLoRaV03.gtl*
%MOIN*%
G04 #@! TF.FileFunction,Copper,L1,Top*
G04 #@! TF.Part,Single*
%AMOUTLINE4*
4,1,4,
-0.03937,-0.015748,
0.03937,-0.015748,
0.03937,0.015748,
-0.03937,0.015748,
-0.03937,-0.015748,
0*%
%AMOUTLINE5*
4,1,4,
0.03937,0.015748,
-0.03937,0.015748,
-0.03937,-0.015748,
0.03937,-0.015748,
0.03937,0.015748,
0*%
%AMOUTLINE6*
4,1,4,
0.08,-0.03,
0.08,0.03,
-0.08,0.03,
-0.08,-0.03,
0.08,-0.03,
0*%
%AMOUTLINE7*
4,1,4,
0.04,-0.02,
0.04,0.02,
-0.04,0.02,
-0.04,-0.02,
0.04,-0.02,
0*%
G04 #@! TA.AperFunction,ViaPad*
%ADD13C,0.04*%
G04 #@! TA.AperFunction,Conductor*
%ADD14C,0.025*%
%ADD15C,0.03*%
%ADD17C,0.02*%
%ADD18C,0.008*%
%ADD19C,0.03937*%
%ADD20C,0.06*%
%ADD21C,0.059055*%
%ADD23C,0.051181*%
%ADD24C,0.031496*%
%ADD25C,0.047244*%
%ADD27C,0.01*%
%ADD28C,0.037402*%
G04 #@! TA.AperFunction,ViaPad*
%ADD29C,0.05*%
G04 #@! TA.AperFunction,Conductor*
%ADD30C,0.019685*%
G04 #@! TA.AperFunction,ComponentPad*
%ADD32C,0.066*%
%ADD33R,0.051181X0.059055*%
%ADD34R,0.059055X0.051181*%
%ADD36R,0.1X0.05*%
G04 #@! TA.AperFunction,ComponentPad*
%ADD37R,0.074803X0.098425*%
%ADD38O,0.074803X0.098425*%
%ADD39R,0.059055X0.059055*%
%ADD40C,0.059055*%
%ADD42C,0.05315*%
%ADD43R,0.047244X0.047244*%
%ADD45R,0.031496X0.035433*%
%ADD47R,0.041339X0.025591*%
G04 #@! TA.AperFunction,ComponentPad*
%ADD48R,0.074803X0.074803*%
%ADD49C,0.074803*%
%ADD51R,0.064173X0.064173*%
%ADD52C,0.064173*%
%ADD55R,0.084646X0.037402*%
%ADD56R,0.084646X0.127953*%
%ADD57R,0.07874X0.023622*%
G04 #@! TA.AperFunction,ViaPad*
%ADD61C,0.165*%
%ADD124OUTLINE4*%
%ADD125OUTLINE5*%
%ADD126OUTLINE6*%
%ADD127OUTLINE7*%
%FSLAX26Y26*%
G04*
G70*
G90*
G75*
G01*
G04 Top*
%LPD*%
X1549830Y1624822D2*
D14*
Y1657572D1*
X1533701Y1673701D1*
X1493701D1*
D13*
Y1681066D1*
X1287357D1*
X1031134Y1593575D2*
X1012386Y1612323D1*
X947284D1*
D15*
X954528Y1603150D1*
X831201Y1643701D2*
X887399Y1606074D1*
X954528Y1603150D1*
X3343391Y2037278D2*
D14*
X3333656D1*
X3317701Y2021323D1*
X3262598D1*
Y2033071D1*
X3281701D1*
X3285990Y2037360D1*
X3393701D1*
X2393701Y2218701D2*
X2399740D1*
Y2243507D1*
X2368494Y2274753D1*
X2124822D1*
Y2287439D1*
X1843549Y1156121D2*
Y1024885D1*
X1874795D1*
X2393701Y2218701D2*
D15*
X2405990Y2318499D1*
X2955932D1*
Y2033071D1*
X3262598D1*
X1493701Y1681066D2*
Y1685209D1*
X1793583D1*
X1892630Y1751251D2*
D18*
X1931299Y1743701D1*
X793701Y1268701D2*
D15*
Y1206116D1*
X1162370D1*
X1936614Y524937D2*
D19*
Y581856D1*
X1893544Y624927D1*
X1499835D1*
Y643675D1*
D15*
X718727D1*
X643701Y718701D1*
X1568698Y1518704D2*
D18*
X1612565Y1474837D1*
X2521983D1*
Y1390708D1*
X2721701Y1151701D1*
Y1043633D1*
X3143769D1*
X3168698Y1018704D1*
X2768698Y818704D2*
X2705701Y881701D1*
Y1027633D1*
X2721701Y1043633D1*
X2953701Y913701D2*
X2824696D1*
Y1006137D1*
X2668698Y818704D2*
X2218793Y1268609D1*
X1563204D1*
Y1305230D1*
X1499835Y1368599D1*
X1299856D1*
X1270324Y1493586D1*
X862402D1*
X842819Y1410647D1*
X662044D1*
X602044Y1470647D1*
X551701Y1473701D1*
X493701Y1531701D1*
Y1631701D2*
Y1612323D1*
X581181D1*
X643675Y1549830D1*
X1078820D1*
Y1574827D1*
X2512575D1*
X2568698Y1518704D1*
X2468698Y1418704D2*
X2412344Y1362349D1*
X1543580D1*
X1518583Y1387347D1*
Y1468588D1*
X1299596D1*
Y1518583D1*
X593701D1*
Y1513701D1*
X2313701Y1893701D2*
X2469701D1*
X2487042Y1911042D1*
Y1956037D1*
X1753701Y1613701D2*
X2313701D1*
X2573701Y973701D2*
X2261701Y1285701D1*
X2037701D1*
Y1309701D1*
X2033701Y1313701D1*
X1293701Y873701D2*
X1613701D1*
X1668698Y718704D2*
X1718730Y668672D1*
X1937289D1*
X1956037Y649924D1*
X3324643D1*
Y1243612D1*
X3368389D1*
X3455879Y2093523D2*
X3437591Y2111811D1*
X3262598D1*
X2424738Y2024780D2*
X2433029Y2033071D1*
X2624803D1*
X2424738Y2118520D2*
X2431446Y2111811D1*
X2624803D1*
X1393596Y1143622D2*
X1362349Y1112376D1*
X599929D1*
X574932Y1124874D1*
X506189D1*
X513016Y1131701D1*
X493701D1*
X1768698Y818704D2*
Y1012244D1*
X1599824Y1181118D1*
X1274858D1*
X1231113Y1137373D1*
X668672D1*
X621554Y1184491D1*
Y1189701D1*
X467701D1*
X451701Y1205701D1*
Y1659701D1*
X467701Y1675701D1*
X519701D1*
X535701Y1691701D1*
Y1989701D1*
X493701Y2031701D1*
X3468378Y1649819D2*
X3174659D1*
X2870147Y1954331D1*
X2624803D1*
X3668698Y718704D2*
X3549701Y599706D1*
Y593761D1*
X3419641Y463701D1*
X2036614D1*
Y524937D1*
X3668698Y1418704D2*
X3611701Y1475701D1*
X3418383D1*
Y674383D1*
X3362677Y618677D1*
X2137242D1*
X2136614Y618050D1*
Y524937D1*
X3568698Y1418704D2*
X3518373Y1368378D1*
Y656173D1*
X3449900Y587701D1*
X2236614D1*
Y524937D1*
X3268698Y1518704D2*
X3243402D1*
Y1537331D1*
X2905142Y1875591D1*
X2624803D1*
X3068698Y1518704D2*
Y1624544D1*
X2855942Y1837299D1*
X2487231D1*
X2462234Y1812302D1*
Y1785701D1*
X2059701D1*
X2043701Y1769701D1*
Y1785701D1*
X2009701Y1819701D1*
Y1868701D1*
X2075000D1*
X2043701Y1769701D2*
Y1743701D1*
X2006103D1*
X2555974Y2149767D2*
X2596759Y2190551D1*
X2624803D1*
X1968698Y818704D2*
X1960267Y827135D1*
X1968536Y845883D1*
Y1181118D1*
X2068698Y818704D2*
Y768662D1*
X2218509D1*
Y981139D1*
X2224759D1*
X493701Y1231701D2*
X530599D1*
X556184Y1206116D1*
X687420D1*
X737415Y1156121D1*
X1199096D1*
X1266686Y1223711D1*
X2135345D1*
X2124769Y1206116D1*
Y818704D1*
X2168698D1*
X2268698D2*
Y725110D1*
X2212260Y668672D1*
X2018530D1*
Y768662D1*
X1718562D1*
Y881150D1*
X1674816Y924895D1*
Y999887D1*
X1593575Y1081129D1*
X474942D1*
X435701Y1120370D1*
Y1715701D1*
X451701Y1731701D1*
X493701D1*
X2968698Y1518704D2*
Y1649551D1*
X2868549Y1749701D1*
X2567701D1*
X2507701Y1689701D1*
X2181299D1*
Y1743701D1*
X3393701Y1962557D2*
D23*
Y1906200D1*
X3518701D1*
X2768698Y1518704D2*
D24*
Y1656953D1*
X2707541Y1718110D1*
X2624803D1*
X2463701Y2218701D2*
Y2269292D1*
X2624803D1*
X3518701Y1906200D2*
D20*
Y1866200D1*
X3551701Y1833200D1*
X3663702D1*
Y1862449D1*
X1693701Y1613701D2*
D23*
X1624633D1*
Y1624822D1*
X2249756Y2181013D2*
X2256103Y2174667D1*
Y1943701D1*
X1656068Y1899793D2*
D14*
X1768557D1*
Y1899982D1*
X1693701Y2273701D2*
D25*
X1708701D1*
X1713701Y2268701D1*
X1852352D1*
X3349641Y1799803D2*
D24*
X3346688Y1796851D1*
X3262598D1*
X1768557Y1899982D2*
D14*
X1745814Y1913411D1*
X1780149Y1918701D1*
X1862402D1*
X1193617Y2293502D2*
D27*
X1693701D1*
Y2273701D1*
X3663702Y1662449D2*
D20*
X3723819Y1602332D1*
X954528Y1693701D2*
D28*
X1015966D1*
D20*
X1182874D1*
X668672Y1649819D2*
D15*
X649924D1*
X712418Y1712313D1*
X954528D1*
Y1693701D1*
X656201Y1643701D2*
D29*
X649924D1*
Y1649819D1*
X1106103Y1893701D2*
D17*
X1179202Y1863925D1*
X1187368Y1862297D1*
X1182874Y1693701D1*
X1237362Y1393407D2*
D30*
Y1443591D1*
X493701Y831701D2*
D21*
X553229D1*
D20*
X737510D1*
X740444Y778139D1*
D21*
X743701Y718701D1*
X2224759Y1055942D2*
D18*
Y1193617D1*
X2181013Y1243612D1*
X1306105D1*
X1237362Y1318604D1*
X912397Y1331103D2*
Y1318604D1*
X668672D1*
X612428Y1412344D1*
X493701Y1431701D1*
X3262598Y1718110D2*
D17*
X3518701Y1743701D1*
Y1756200D1*
X3623702D1*
Y1762449D1*
X1935029Y2268701D2*
D18*
X1959830Y2293502D1*
X2050019D1*
Y2287439D1*
X912397Y1405906D2*
X987578Y1418593D1*
X2328701Y2218701D2*
Y1975977D1*
X2348641Y1956037D1*
X2412239D1*
X1081129Y1262360D2*
X1124874Y1312355D1*
X1146811Y1356005D1*
X1062381Y1418593D2*
X1124874D1*
X1146811Y1356005D1*
X1424945Y1887843D2*
D14*
Y1880942D1*
X1462339Y1843549D1*
X1797789D1*
X1831050Y1868701D1*
X1862402D1*
X1931299Y2118701D2*
D18*
Y2018701D1*
X1862402D1*
D14*
Y2093523D1*
X1518478D1*
X1424945Y2187055D1*
X2006103Y2118701D2*
D18*
Y2018701D1*
X2075000D1*
X2134061D1*
Y1862534D1*
X2143701Y1843701D1*
X2181299D1*
X2333701Y1833701D2*
X2323701Y1843701D1*
X2256103D1*
X2333701Y1753701D2*
X2323701Y1743701D1*
X2256103D1*
X1993701Y1953701D2*
Y1938701D1*
X2013701Y1918701D1*
X2075000D1*
Y1968701D2*
Y1965191D1*
X1999122D1*
X1993701Y1953701D1*
X2174764Y2006032D2*
X2181299Y1999496D1*
Y1943701D1*
X3168698Y1218704D2*
X3324643Y1318604D1*
Y1599824D1*
X3537121D1*
Y1681066D1*
X3465903Y2031122D2*
X3543370Y2049777D1*
Y2218509D1*
X624927Y1974785D2*
X1188617D1*
X1391701Y1771701D1*
X1769701D1*
X1891701Y1649701D1*
X2679701D1*
X2718457Y1610945D1*
Y1349851D1*
X2749604Y1318704D1*
X3168698D1*
X493701Y1031701D2*
X830701D1*
X1143701Y718701D1*
X1862402Y1968701D2*
D14*
X1748978D1*
X1768557Y1974785D1*
D13*
X1681066D1*
X1637150Y2018701D1*
X793701D1*
Y1818701D2*
X943643Y1787305D1*
X954528Y1784252D1*
X1031299Y1893701D2*
D17*
X986595Y1872003D1*
X981139Y1806053D1*
X954528Y1784252D1*
X1024979Y1335916D2*
D18*
X1018635Y1256110D1*
X1006326Y1275087D1*
Y1262360D1*
X1018635Y1256110D2*
X956142Y1268609D1*
D29*
X1793583Y1685209D3*
X1892630Y1751251D3*
X1162370Y1206116D3*
D13*
X1968536Y1181118D3*
X3723819Y1602332D3*
X1237362Y1443591D3*
X3537121Y1681066D3*
X3465903Y2031122D3*
X3543370Y2218509D3*
X956142Y1268609D3*
D61*
X3661418Y511811D3*
X669292D3*
Y2244095D3*
X3661418D3*
D13*
X2249756Y2181013D3*
X1193617Y2293502D3*
X1656068Y1899793D3*
X1693701Y2273701D3*
X3349641Y1799803D3*
X1693701Y1613701D3*
D29*
X3343391Y2037278D3*
D13*
X2824696Y1006137D3*
X2953701Y913701D3*
X593701Y1513701D3*
X2313701Y1893701D3*
X2424738Y2024780D3*
Y2118520D3*
X1393596Y1143622D3*
X3468378Y1649819D3*
X2555974Y2149767D3*
X2124769Y1206116D3*
X2333701Y1833701D3*
Y1753701D3*
X2174764Y2006032D3*
X1993701Y1953701D3*
X3455879Y2093523D3*
X3368389Y1243612D3*
X668672Y1649819D3*
D29*
X1499835Y643675D3*
X1874795Y1024885D3*
X1843549Y1156121D3*
X1031134Y1593575D3*
X1287357Y1681066D3*
D13*
X624927Y1974785D3*
X2313701Y1613701D3*
X1753701D3*
X2033701Y1313701D3*
X2573701Y973701D3*
X1613701Y873701D3*
X1293701D3*
D32*
X3518701Y1756200D3*
D33*
X2256103Y1743701D3*
X2181299D3*
D34*
X3393701Y2037360D3*
Y1962557D3*
X1768557Y1974785D3*
Y1899982D3*
D33*
X1549830Y1624822D3*
X1624633D3*
X2256103Y1943701D3*
X2181299D3*
D36*
X831201Y1643701D3*
X656201D3*
D33*
X1031299Y1893701D3*
X1106103D3*
D32*
X3518701Y1906200D3*
D37*
X1836614Y524937D3*
D38*
X1936614D3*
X2036614D3*
X2136614D3*
X2236614D3*
X2336614D3*
D39*
X493701Y731701D3*
D40*
Y831701D3*
Y931701D3*
Y1031701D3*
Y1131701D3*
Y1231701D3*
Y1331701D3*
Y1431701D3*
Y1531701D3*
Y1631701D3*
Y1731701D3*
Y1831701D3*
Y1931701D3*
Y2031701D3*
D42*
X2528701Y2218701D3*
X2463701D3*
X2393701D3*
X2328701D3*
D39*
X693701Y1468701D3*
D40*
X793701D3*
X693701Y1368701D3*
X793701D3*
X693701Y1268701D3*
X793701D3*
D39*
X693701Y2018701D3*
D40*
X793701D3*
X693701Y1918701D3*
X793701D3*
X693701Y1818701D3*
X793701D3*
D43*
X1935029Y2268701D3*
X1852352D3*
D45*
X1062381Y1418593D3*
X987578D3*
X1024979Y1335916D3*
D47*
X1237362Y1318604D3*
Y1393407D3*
X1146811Y1356005D3*
D33*
X2006103Y2118701D3*
X1931299D3*
X1081129Y1262360D3*
X1006326D3*
D34*
X912397Y1331103D3*
Y1405906D3*
D33*
X1931299Y1743701D3*
X2006103D3*
X2050019Y2287439D3*
X2124822D3*
D34*
X2224759Y981139D3*
Y1055942D3*
D33*
X2412239Y1956037D3*
X2487042D3*
X2256103Y1843701D3*
X2181299D3*
D39*
X643701Y718701D3*
D40*
X743701D3*
X843701D3*
X943701D3*
X1043701D3*
X1143701D3*
X1243701D3*
D48*
X1424945Y2187055D3*
D49*
Y1887843D3*
D124*
X3262598Y1718110D3*
Y1796851D3*
Y1875591D3*
Y1954331D3*
Y2033071D3*
Y2111811D3*
Y2190551D3*
Y2269292D3*
D125*
X2624803D3*
Y2190551D3*
Y2111811D3*
Y2033071D3*
Y1954331D3*
Y1875591D3*
Y1796851D3*
Y1718110D3*
D39*
X1368698Y718704D3*
D40*
X1468698D3*
X1568698D3*
X1668698D3*
X1768698D3*
X1868698D3*
X1968698D3*
X2068698D3*
X2168698D3*
X2268698D3*
X2368698D3*
X2468698D3*
X2568698D3*
X2668698D3*
X2768698D3*
X2868698D3*
X2968698D3*
X3068698D3*
X3168698D3*
X3268698D3*
X3368698D3*
X3468698D3*
X3568698D3*
X3668698D3*
D51*
X1368698Y818704D3*
D52*
X1468698D3*
X1568698D3*
X1668698D3*
X1768698D3*
X1868698D3*
X1968698D3*
X2068698D3*
X2168698D3*
X2268698D3*
X2368698D3*
X2468698D3*
X2568698D3*
X2668698D3*
X2768698D3*
X2868698D3*
X2968698D3*
X3068698D3*
X3168698D3*
X3268698D3*
X3368698D3*
X3468698D3*
X3568698D3*
X3668698D3*
X3168698Y918704D3*
Y1018704D3*
Y1118704D3*
Y1218704D3*
Y1318704D3*
Y1418704D3*
X3268698D3*
X3368698D3*
X3468698D3*
X3568698D3*
X3668698D3*
X3068698D3*
X2968698D3*
X2868698D3*
X2768698D3*
X2668698D3*
X2568698D3*
X2468698D3*
X2368698D3*
X2268698D3*
X2168698D3*
X2068698D3*
X1968698D3*
X1868698D3*
X1768698D3*
X1668698D3*
X1568698D3*
X1468698D3*
X1368698D3*
X1468698Y1318704D3*
X1668698D3*
X1768698D3*
X1868698D3*
X1618698Y943704D3*
X1718698D3*
X1818698D3*
X1918698D3*
X2018698D3*
D55*
X954528Y1784252D3*
Y1693701D3*
Y1603150D3*
D56*
X1182874Y1693701D3*
D57*
X2075000Y1868701D3*
Y1918701D3*
Y1968701D3*
Y2018701D3*
X1862402D3*
Y1968701D3*
Y1918701D3*
Y1868701D3*
D39*
X1368698Y1518704D3*
D40*
X1468698D3*
X1568698D3*
X1668698D3*
X1768698D3*
X1868698D3*
X1968698D3*
X2068698D3*
X2168698D3*
X2268698D3*
X2368698D3*
X2468698D3*
X2568698D3*
X2668698D3*
X2768698D3*
X2868698D3*
X2968698D3*
X3068698D3*
X3168698D3*
X3268698D3*
X3368698D3*
X3468698D3*
X3568698D3*
X3668698D3*
D126*
X3663702Y1862449D3*
Y1662449D3*
D127*
X3623702Y1762449D3*
M02*
