G04 DipTrace 3.2.0.1*
G04 Teensy3.6TouchDisplayLoRaV03.gbs*
%MOIN*%
G04 #@! TF.FileFunction,Soldermask,Bot*
G04 #@! TF.Part,Single*
%AMOUTLINE1*
4,1,4,
-0.0185,0.026,
-0.0185,-0.026,
0.0185,-0.026,
0.0185,0.026,
-0.0185,0.026,
0*%
%AMOUTLINE3*
4,1,4,
0.0285,0.0155,
-0.0285,0.0155,
-0.0285,-0.0155,
0.0285,-0.0155,
0.0285,0.0155,
0*%
%AMOUTLINE6*
4,1,4,
0.08,-0.03,
0.08,0.03,
-0.08,0.03,
-0.08,-0.03,
0.08,-0.03,
0*%
%ADD13C,0.04*%
%ADD29C,0.05*%
%ADD32C,0.066*%
%ADD39R,0.059055X0.059055*%
%ADD40C,0.059055*%
%ADD42C,0.05315*%
%ADD51R,0.064173X0.064173*%
%ADD52C,0.064173*%
%ADD58R,0.156X0.156*%
%ADD59R,0.125X0.125*%
%ADD66C,0.167*%
%ADD68C,0.042*%
%ADD70C,0.052*%
%ADD82R,0.025622X0.08074*%
%ADD88C,0.076803*%
%ADD90R,0.076803X0.076803*%
%ADD100C,0.061055*%
%ADD102R,0.061055X0.061055*%
%ADD104O,0.076803X0.100425*%
%ADD106R,0.076803X0.100425*%
%ADD110R,0.061055X0.053181*%
%ADD112R,0.053181X0.061055*%
%ADD121OUTLINE1*%
%ADD123OUTLINE3*%
%ADD126OUTLINE6*%
%FSLAX26Y26*%
G04*
G70*
G90*
G75*
G01*
G04 BotMask*
%LPD*%
D70*
X1793583Y1685209D3*
X1892630Y1751251D3*
X1162370Y1206116D3*
D68*
X1968536Y1181118D3*
X3723819Y1602332D3*
X1237362Y1443591D3*
X3537121Y1681066D3*
X3465903Y2031122D3*
X3543370Y2218509D3*
X956142Y1268609D3*
D66*
X3661418Y511811D3*
X669292D3*
Y2244095D3*
X3661418D3*
D13*
X2249756Y2181013D3*
X1193617Y2293502D3*
X1656068Y1899793D3*
X1693701Y2273701D3*
X3349641Y1799803D3*
X1693701Y1613701D3*
D29*
X3343391Y2037278D3*
D13*
X2824696Y1006137D3*
X2953701Y913701D3*
X593701Y1513701D3*
X2313701Y1893701D3*
X2424738Y2024780D3*
Y2118520D3*
X1393596Y1143622D3*
X3468378Y1649819D3*
X2555974Y2149767D3*
X2124769Y1206116D3*
X2333701Y1833701D3*
Y1753701D3*
X2174764Y2006032D3*
X1993701Y1953701D3*
X3455879Y2093523D3*
X3368389Y1243612D3*
X668672Y1649819D3*
D29*
X1499835Y643675D3*
X1874795Y1024885D3*
X1843549Y1156121D3*
X1031134Y1593575D3*
X1287357Y1681066D3*
D13*
X624927Y1974785D3*
X2313701Y1613701D3*
X1753701D3*
X2033701Y1313701D3*
X2573701Y973701D3*
X1613701Y873701D3*
X1293701D3*
D32*
X3518701Y1756200D3*
D110*
X2818701Y1206103D3*
Y1131299D3*
D32*
X3518701Y1906200D3*
D106*
X1836614Y524937D3*
D104*
X1936614D3*
X2036614D3*
X2136614D3*
X2236614D3*
X2336614D3*
D102*
X493701Y731701D3*
D100*
Y831701D3*
Y931701D3*
Y1031701D3*
Y1131701D3*
Y1231701D3*
Y1331701D3*
Y1431701D3*
Y1531701D3*
Y1631701D3*
Y1731701D3*
Y1831701D3*
Y1931701D3*
Y2031701D3*
D42*
X2528701Y2218701D3*
X2463701D3*
X2393701D3*
X2328701D3*
D102*
X693701Y1468701D3*
D100*
X793701D3*
X693701Y1368701D3*
X793701D3*
X693701Y1268701D3*
X793701D3*
D102*
X693701Y2018701D3*
D100*
X793701D3*
X693701Y1918701D3*
X793701D3*
X693701Y1818701D3*
X793701D3*
D121*
X3251211Y2233701D3*
X3436211D3*
D123*
X3210711Y2308201D3*
X3476711D3*
D112*
X2718457Y924895D3*
X2793260D3*
D121*
X902378Y2233701D3*
X1087378D3*
D123*
X861878Y2308201D3*
X1127878D3*
D102*
X643701Y718701D3*
D100*
X743701D3*
X843701D3*
X943701D3*
X1043701D3*
X1143701D3*
X1243701D3*
D90*
X1424945Y2187055D3*
D88*
Y1887843D3*
D39*
X1368698Y718704D3*
D40*
X1468698D3*
X1568698D3*
X1668698D3*
X1768698D3*
X1868698D3*
X1968698D3*
X2068698D3*
X2168698D3*
X2268698D3*
X2368698D3*
X2468698D3*
X2568698D3*
X2668698D3*
X2768698D3*
X2868698D3*
X2968698D3*
X3068698D3*
X3168698D3*
X3268698D3*
X3368698D3*
X3468698D3*
X3568698D3*
X3668698D3*
D51*
X1368698Y818704D3*
D52*
X1468698D3*
X1568698D3*
X1668698D3*
X1768698D3*
X1868698D3*
X1968698D3*
X2068698D3*
X2168698D3*
X2268698D3*
X2368698D3*
X2468698D3*
X2568698D3*
X2668698D3*
X2768698D3*
X2868698D3*
X2968698D3*
X3068698D3*
X3168698D3*
X3268698D3*
X3368698D3*
X3468698D3*
X3568698D3*
X3668698D3*
X3168698Y918704D3*
Y1018704D3*
Y1118704D3*
Y1218704D3*
Y1318704D3*
Y1418704D3*
X3268698D3*
X3368698D3*
X3468698D3*
X3568698D3*
X3668698D3*
X3068698D3*
X2968698D3*
X2868698D3*
X2768698D3*
X2668698D3*
X2568698D3*
X2468698D3*
X2368698D3*
X2268698D3*
X2168698D3*
X2068698D3*
X1968698D3*
X1868698D3*
X1768698D3*
X1668698D3*
X1568698D3*
X1468698D3*
X1368698D3*
X1468698Y1318704D3*
X1668698D3*
X1768698D3*
X1868698D3*
X1618698Y943704D3*
X1718698D3*
X1818698D3*
X1918698D3*
X2018698D3*
D82*
X2718701Y1062402D3*
X2668701D3*
X2618701D3*
X2568701D3*
Y1275000D3*
X2618701D3*
X2668701D3*
X2718701D3*
D58*
X2887457Y2013692D3*
D59*
X3197457D3*
X2577457D3*
D102*
X1368698Y1518704D3*
D100*
X1468698D3*
X1568698D3*
X1668698D3*
X1768698D3*
X1868698D3*
X1968698D3*
X2068698D3*
X2168698D3*
X2268698D3*
X2368698D3*
X2468698D3*
X2568698D3*
X2668698D3*
X2768698D3*
X2868698D3*
X2968698D3*
X3068698D3*
X3168698D3*
X3268698D3*
X3368698D3*
X3468698D3*
X3568698D3*
X3668698D3*
D126*
X3663702Y1662449D3*
Y1862449D3*
M02*
