G04 DipTrace 3.2.0.1*
G04 Teensy3.6TouchDisplayLoRaV03.gbo*
%MOIN*%
G04 #@! TF.FileFunction,Legend,Bot*
G04 #@! TF.Part,Single*
%ADD10C,0.009843*%
%ADD41C,0.005*%
%ADD116C,0.006176*%
%ADD117C,0.007*%
%FSLAX26Y26*%
G04*
G70*
G90*
G75*
G01*
G04 BotSilk*
%LPD*%
X2844272Y1247462D2*
D10*
X2793130D1*
X3243711Y2313703D2*
D41*
X3443712D1*
X3474946Y2288698D2*
Y2232456D1*
X3462446D1*
X3412446D2*
X3274977D1*
X3284699Y2315702D2*
Y2345705D1*
G02X3294712Y2355701I10011J-16D01*
G01*
X3392711D1*
G02X3402724Y2345705I2J-10012D01*
G01*
Y2315702D1*
X3231211Y2232456D2*
X3212477D1*
Y2288698D1*
X894877Y2313703D2*
X1094879D1*
X1126113Y2288698D2*
Y2232456D1*
X1113613D1*
X1063613D2*
X926144D1*
X935866Y2315702D2*
Y2345705D1*
G02X945879Y2355701I10011J-16D01*
G01*
X1043877D1*
G02X1053890Y2345705I2J-10012D01*
G01*
Y2315702D1*
X882377Y2232456D2*
X863643D1*
Y2288698D1*
X2742128Y1117513D2*
D10*
X2545274D1*
X2742128Y1219889D2*
X2545274D1*
Y1117513D2*
Y1219889D1*
X2742128Y1149007D2*
Y1117513D1*
Y1188395D2*
Y1219889D1*
Y1149007D2*
G02X2742128Y1188395I9J19694D01*
G01*
X3127459Y2183672D2*
D41*
G03X3037435Y2223692I-65029J-25019D01*
G01*
X2737479D2*
G03X2647455Y2183672I-24995J-65039D01*
G01*
Y1883706D1*
X2767487Y1763692D1*
X3007427D1*
X3127459Y1883706D1*
Y2183672D1*
X2737479Y2223692D2*
G03X3037435Y2223692I149978J149899D01*
G01*
X2871346Y1181811D2*
D116*
X2867544Y1183712D1*
X2863697Y1187559D1*
X2861796Y1191361D1*
Y1199011D1*
X2863697Y1202857D1*
X2867544Y1206660D1*
X2871346Y1208605D1*
X2877094Y1210507D1*
X2886689D1*
X2892393Y1208605D1*
X2896240Y1206660D1*
X2900042Y1202857D1*
X2901988Y1199010D1*
Y1191361D1*
X2900042Y1187559D1*
X2896240Y1183712D1*
X2892393Y1181811D1*
X2861840Y1165613D2*
Y1144610D1*
X2877138Y1156062D1*
Y1150314D1*
X2879040Y1146511D1*
X2880941Y1144610D1*
X2886689Y1142665D1*
X2890491D1*
X2896239Y1144610D1*
X2900086Y1148413D1*
X2901988Y1154161D1*
Y1159909D1*
X2900086Y1165612D1*
X2898141Y1167514D1*
X2894338Y1169459D1*
X3399107Y2174087D2*
X3381863D1*
X3376159Y2175989D1*
X3374213Y2177934D1*
X3372312Y2181737D1*
Y2187485D1*
X3374213Y2191287D1*
X3376159Y2193233D1*
X3381863Y2195134D1*
X3399107D1*
Y2154942D1*
X3331265Y2185583D2*
X3333166Y2189386D1*
X3337013Y2193233D1*
X3340815Y2195134D1*
X3348465D1*
X3352311Y2193233D1*
X3356114Y2189386D1*
X3358059Y2185583D1*
X3359961Y2179835D1*
Y2170241D1*
X3358059Y2164537D1*
X3356114Y2160690D1*
X3352311Y2156888D1*
X3348465Y2154942D1*
X3340815D1*
X3337013Y2156888D1*
X3333166Y2160690D1*
X3331265Y2164537D1*
Y2170241D1*
X3340815D1*
X3288316Y2154942D2*
Y2195134D1*
X3303615Y2154942D1*
X3318913Y2195134D1*
Y2154942D1*
X2787856Y993856D2*
X2770656D1*
X2764908Y995801D1*
X2762963Y997703D1*
X2761061Y1001505D1*
Y1005352D1*
X2762963Y1009154D1*
X2764908Y1011100D1*
X2770656Y1013001D1*
X2787856D1*
Y972809D1*
X2774459Y993856D2*
X2761061Y972809D1*
X2725762Y1007253D2*
X2727663Y1011056D1*
X2733411Y1012957D1*
X2737214D1*
X2742962Y1011056D1*
X2746809Y1005308D1*
X2748710Y995757D1*
Y986207D1*
X2746809Y978557D1*
X2742962Y974711D1*
X2737214Y972809D1*
X2735313D1*
X2729609Y974711D1*
X2725762Y978557D1*
X2723861Y984305D1*
Y986207D1*
X2725762Y991955D1*
X2729609Y995757D1*
X2735313Y997658D1*
X2737214D1*
X2742962Y995757D1*
X2746809Y991955D1*
X2748710Y986207D1*
X1047422Y2175989D2*
X1030222D1*
X1024474Y2177934D1*
X1022528Y2179835D1*
X1020627Y2183638D1*
Y2187485D1*
X1022528Y2191287D1*
X1024474Y2193233D1*
X1030222Y2195134D1*
X1047422D1*
Y2154942D1*
X1034024Y2175989D2*
X1020627Y2154942D1*
X981481Y2189386D2*
X985283Y2193233D1*
X991031Y2195134D1*
X998681D1*
X1004429Y2193233D1*
X1008276Y2189386D1*
Y2185583D1*
X1006330Y2181737D1*
X1004429Y2179835D1*
X1000626Y2177934D1*
X989130Y2174087D1*
X985283Y2172186D1*
X983382Y2170241D1*
X981481Y2166438D1*
Y2160690D1*
X985283Y2156888D1*
X991031Y2154942D1*
X998681D1*
X1004429Y2156888D1*
X1008276Y2160690D1*
X955732Y2195134D2*
Y2154942D1*
X969129Y2195134D2*
X942335D1*
X2621195Y1202622D2*
X2649891D1*
X2655639Y1200721D1*
X2659442Y1196874D1*
X2661387Y1191126D1*
Y1187323D1*
X2659442Y1181575D1*
X2655639Y1177729D1*
X2649891Y1175827D1*
X2621195D1*
X2661387Y1144331D2*
X2621239D1*
X2647990Y1163476D1*
Y1134780D1*
X2920405Y2286908D2*
Y2258212D1*
X2918504Y2252464D1*
X2914657Y2248661D1*
X2908909Y2246716D1*
X2905107D1*
X2899359Y2248661D1*
X2895512Y2252464D1*
X2893610Y2258212D1*
Y2286908D1*
X2871709Y2286864D2*
X2877412Y2284962D1*
X2879358Y2281160D1*
Y2277313D1*
X2877412Y2273511D1*
X2873610Y2271565D1*
X2865960Y2269664D1*
X2860212Y2267763D1*
X2856410Y2263916D1*
X2854509Y2260113D1*
Y2254365D1*
X2856410Y2250563D1*
X2858311Y2248617D1*
X2864059Y2246716D1*
X2871709D1*
X2877412Y2248617D1*
X2879358Y2250563D1*
X2881259Y2254365D1*
Y2260113D1*
X2879358Y2263916D1*
X2875511Y2267763D1*
X2869807Y2269664D1*
X2862158Y2271565D1*
X2858311Y2273511D1*
X2856410Y2277313D1*
Y2281160D1*
X2858311Y2284962D1*
X2864059Y2286864D1*
X2871709D1*
X2212059Y2079414D2*
D117*
Y2049270D1*
X2191963Y2079414D2*
X2212059Y2059318D1*
X2204896Y2066514D2*
X2191963Y2049270D1*
X2177963Y2069366D2*
Y2055007D1*
X2176537Y2050729D1*
X2173652Y2049270D1*
X2169341D1*
X2166489Y2050729D1*
X2162178Y2055007D1*
Y2069366D2*
Y2049270D1*
X2148178Y2069366D2*
Y2049270D1*
Y2060744D2*
X2146719Y2065055D1*
X2143867Y2067940D1*
X2140982Y2069366D1*
X2136671D1*
X2118360Y2079414D2*
Y2055007D1*
X2116934Y2050729D1*
X2114049Y2049270D1*
X2111197D1*
X2122671Y2069366D2*
X2112623D1*
X2090001Y2079381D2*
X2097197Y2070759D1*
X2088575Y2077955D1*
X2090001Y2079381D1*
X2058790Y2065055D2*
X2060216Y2067940D1*
X2064527Y2069366D1*
X2068838D1*
X2073149Y2067940D1*
X2074575Y2065055D1*
X2073149Y2062203D1*
X2070264Y2060744D1*
X2063101Y2059318D1*
X2060216Y2057892D1*
X2058790Y2055007D1*
Y2053581D1*
X2060216Y2050729D1*
X2064527Y2049270D1*
X2068838D1*
X2073149Y2050729D1*
X2074575Y2053581D1*
X2000845Y2079414D2*
Y2049270D1*
X2010893Y2079414D2*
X1990797D1*
X1976797Y2060744D2*
X1959586D1*
Y2063629D1*
X1961012Y2066514D1*
X1962438Y2067940D1*
X1965323Y2069366D1*
X1969634D1*
X1972486Y2067940D1*
X1975371Y2065055D1*
X1976797Y2060744D1*
Y2057892D1*
X1975371Y2053581D1*
X1972486Y2050729D1*
X1969634Y2049270D1*
X1965323D1*
X1962438Y2050729D1*
X1959586Y2053581D1*
X1945586Y2060744D2*
X1928375D1*
Y2063629D1*
X1929801Y2066514D1*
X1931227Y2067940D1*
X1934112Y2069366D1*
X1938423D1*
X1941275Y2067940D1*
X1944160Y2065055D1*
X1945586Y2060744D1*
Y2057892D1*
X1944160Y2053581D1*
X1941275Y2050729D1*
X1938423Y2049270D1*
X1934112D1*
X1931227Y2050729D1*
X1928375Y2053581D1*
X1914375Y2069366D2*
Y2049270D1*
Y2063629D2*
X1910064Y2067940D1*
X1907179Y2069366D1*
X1902901D1*
X1900016Y2067940D1*
X1898590Y2063629D1*
Y2049270D1*
X1868805Y2065055D2*
X1870231Y2067940D1*
X1874542Y2069366D1*
X1878853D1*
X1883164Y2067940D1*
X1884590Y2065055D1*
X1883164Y2062203D1*
X1880279Y2060744D1*
X1873116Y2059318D1*
X1870231Y2057892D1*
X1868805Y2055007D1*
Y2053581D1*
X1870231Y2050729D1*
X1874542Y2049270D1*
X1878853D1*
X1883164Y2050729D1*
X1884590Y2053581D1*
X1853346Y2069366D2*
X1844757Y2049270D1*
X1847609Y2043533D1*
X1850494Y2040648D1*
X1853346Y2039222D1*
X1854805D1*
X1836135Y2069366D2*
X1844757Y2049270D1*
X1785353Y2079381D2*
X1769601D1*
X1778190Y2067907D1*
X1773879D1*
X1771027Y2066481D1*
X1769601Y2065055D1*
X1768142Y2060744D1*
Y2057892D1*
X1769601Y2053581D1*
X1772453Y2050696D1*
X1776764Y2049270D1*
X1781075D1*
X1785353Y2050696D1*
X1786779Y2052155D1*
X1788238Y2055007D1*
X1752716Y2052155D2*
X1754142Y2050696D1*
X1752716Y2049270D1*
X1751257Y2050696D1*
X1752716Y2052155D1*
X1720046Y2079381D2*
X1734372D1*
X1735798Y2066481D1*
X1734372Y2067907D1*
X1730061Y2069366D1*
X1725783D1*
X1721472Y2067907D1*
X1718587Y2065055D1*
X1717161Y2060744D1*
Y2057892D1*
X1718587Y2053581D1*
X1721472Y2050696D1*
X1725783Y2049270D1*
X1730061D1*
X1734372Y2050696D1*
X1735798Y2052155D1*
X1737257Y2055007D1*
X1703161Y2049270D2*
X1683065Y2079381D1*
X1651854Y2075103D2*
X1653280Y2077955D1*
X1657591Y2079381D1*
X1660443D1*
X1664754Y2077955D1*
X1667639Y2073644D1*
X1669065Y2066481D1*
Y2059318D1*
X1667639Y2053581D1*
X1664754Y2050696D1*
X1660443Y2049270D1*
X1659017D1*
X1654739Y2050696D1*
X1651854Y2053581D1*
X1650428Y2057892D1*
Y2059318D1*
X1651854Y2063629D1*
X1654739Y2066481D1*
X1659017Y2067907D1*
X1660443D1*
X1664754Y2066481D1*
X1667639Y2063629D1*
X1669065Y2059318D1*
X1592483Y2079414D2*
Y2049270D1*
X1602531Y2079414D2*
X1582435D1*
X1561272Y2069366D2*
X1564124Y2067940D1*
X1567009Y2065055D1*
X1568435Y2060744D1*
Y2057892D1*
X1567009Y2053581D1*
X1564124Y2050729D1*
X1561272Y2049270D1*
X1556961D1*
X1554076Y2050729D1*
X1551224Y2053581D1*
X1549765Y2057892D1*
Y2060744D1*
X1551224Y2065055D1*
X1554076Y2067940D1*
X1556961Y2069366D1*
X1561272D1*
X1535765D2*
Y2055007D1*
X1534339Y2050729D1*
X1531454Y2049270D1*
X1527143D1*
X1524291Y2050729D1*
X1519980Y2055007D1*
Y2069366D2*
Y2049270D1*
X1488736Y2065055D2*
X1491621Y2067940D1*
X1494506Y2069366D1*
X1498784D1*
X1501669Y2067940D1*
X1504521Y2065055D1*
X1505980Y2060744D1*
Y2057892D1*
X1504521Y2053581D1*
X1501669Y2050729D1*
X1498784Y2049270D1*
X1494506D1*
X1491621Y2050729D1*
X1488736Y2053581D1*
X1474736Y2079414D2*
Y2049270D1*
Y2063629D2*
X1470425Y2067940D1*
X1467540Y2069366D1*
X1463229D1*
X1460377Y2067940D1*
X1458951Y2063629D1*
Y2049270D1*
X1390958Y2075103D2*
X1393810Y2077988D1*
X1398121Y2079414D1*
X1403858D1*
X1408169Y2077988D1*
X1411054Y2075103D1*
Y2072251D1*
X1409595Y2069366D1*
X1408169Y2067940D1*
X1405317Y2066514D1*
X1396695Y2063629D1*
X1393810Y2062203D1*
X1392384Y2060744D1*
X1390958Y2057892D1*
Y2053581D1*
X1393810Y2050729D1*
X1398121Y2049270D1*
X1403858D1*
X1408169Y2050729D1*
X1411054Y2053581D1*
X1359714Y2065055D2*
X1362599Y2067940D1*
X1365484Y2069366D1*
X1369762D1*
X1372647Y2067940D1*
X1375499Y2065055D1*
X1376958Y2060744D1*
Y2057892D1*
X1375499Y2053581D1*
X1372647Y2050729D1*
X1369762Y2049270D1*
X1365484D1*
X1362599Y2050729D1*
X1359714Y2053581D1*
X1345714Y2069366D2*
Y2049270D1*
Y2060744D2*
X1344255Y2065055D1*
X1341403Y2067940D1*
X1338518Y2069366D1*
X1334207D1*
X1320207Y2060744D2*
X1302996D1*
Y2063629D1*
X1304422Y2066514D1*
X1305847Y2067940D1*
X1308733Y2069366D1*
X1313044D1*
X1315895Y2067940D1*
X1318781Y2065055D1*
X1320207Y2060744D1*
Y2057892D1*
X1318781Y2053581D1*
X1315895Y2050729D1*
X1313044Y2049270D1*
X1308733D1*
X1305847Y2050729D1*
X1302996Y2053581D1*
X1288996Y2060744D2*
X1271785D1*
Y2063629D1*
X1273211Y2066514D1*
X1274637Y2067940D1*
X1277522Y2069366D1*
X1281833D1*
X1284685Y2067940D1*
X1287570Y2065055D1*
X1288996Y2060744D1*
Y2057892D1*
X1287570Y2053581D1*
X1284685Y2050729D1*
X1281833Y2049270D1*
X1277522D1*
X1274637Y2050729D1*
X1271785Y2053581D1*
X1257785Y2069366D2*
Y2049270D1*
Y2063629D2*
X1253474Y2067940D1*
X1250589Y2069366D1*
X1246311D1*
X1243426Y2067940D1*
X1242000Y2063629D1*
Y2049270D1*
X1172581Y2072251D2*
X1174007Y2075103D1*
X1176892Y2077988D1*
X1179744Y2079414D1*
X1185481D1*
X1188366Y2077988D1*
X1191218Y2075103D1*
X1192677Y2072251D1*
X1194103Y2067940D1*
Y2060744D1*
X1192677Y2056466D1*
X1191218Y2053581D1*
X1188366Y2050729D1*
X1185481Y2049270D1*
X1179744D1*
X1176892Y2050729D1*
X1174007Y2053581D1*
X1172581Y2056466D1*
Y2060744D1*
X1179744D1*
X1158581Y2063629D2*
X1145648D1*
X1141370Y2065055D1*
X1139911Y2066514D1*
X1138485Y2069366D1*
Y2073677D1*
X1139911Y2076529D1*
X1141370Y2077988D1*
X1145648Y2079414D1*
X1158581D1*
Y2049270D1*
X1090588Y2079414D2*
Y2049270D1*
X1077655D1*
X1073344Y2050729D1*
X1071918Y2052155D1*
X1070492Y2055007D1*
Y2059318D1*
X1071918Y2062203D1*
X1073344Y2063629D1*
X1077655Y2065055D1*
X1073344Y2066514D1*
X1071918Y2067940D1*
X1070492Y2070792D1*
Y2073677D1*
X1071918Y2076529D1*
X1073344Y2077988D1*
X1077655Y2079414D1*
X1090588D1*
Y2065055D2*
X1077655D1*
X1049329Y2069366D2*
X1052181Y2067940D1*
X1055066Y2065055D1*
X1056492Y2060744D1*
Y2057892D1*
X1055066Y2053581D1*
X1052181Y2050729D1*
X1049329Y2049270D1*
X1045018D1*
X1042133Y2050729D1*
X1039281Y2053581D1*
X1037822Y2057892D1*
Y2060744D1*
X1039281Y2065055D1*
X1042133Y2067940D1*
X1045018Y2069366D1*
X1049329D1*
X1006611D2*
Y2049270D1*
Y2065055D2*
X1009463Y2067940D1*
X1012348Y2069366D1*
X1016625D1*
X1019511Y2067940D1*
X1022362Y2065055D1*
X1023822Y2060744D1*
Y2057892D1*
X1022362Y2053581D1*
X1019511Y2050729D1*
X1016625Y2049270D1*
X1012348D1*
X1009463Y2050729D1*
X1006611Y2053581D1*
X992611Y2069366D2*
Y2049270D1*
Y2060744D2*
X991152Y2065055D1*
X988300Y2067940D1*
X985415Y2069366D1*
X981104D1*
X949893Y2079414D2*
Y2049270D1*
Y2065055D2*
X952745Y2067940D1*
X955630Y2069366D1*
X959941D1*
X962793Y2067940D1*
X965678Y2065055D1*
X967104Y2060744D1*
Y2057892D1*
X965678Y2053581D1*
X962793Y2050729D1*
X959941Y2049270D1*
X955630D1*
X952745Y2050729D1*
X949893Y2053581D1*
X1448815Y679528D2*
X1453126Y678102D1*
X1456011Y673791D1*
X1457437Y666628D1*
Y662317D1*
X1456011Y655154D1*
X1453126Y650843D1*
X1448815Y649417D1*
X1445963D1*
X1441652Y650843D1*
X1438801Y655154D1*
X1437341Y662317D1*
Y666628D1*
X1438801Y673791D1*
X1441652Y678102D1*
X1445963Y679528D1*
X1448815D1*
X1438801Y673791D2*
X1456011Y655154D1*
X1563275Y673791D2*
X1560390Y675250D1*
X1556079Y679528D1*
Y649417D1*
X1674705Y672365D2*
Y673791D1*
X1673279Y676676D1*
X1671853Y678102D1*
X1668968Y679528D1*
X1663231D1*
X1660379Y678102D1*
X1658954Y676676D1*
X1657494Y673791D1*
Y670939D1*
X1658954Y668054D1*
X1661805Y663776D1*
X1676164Y649417D1*
X1656068D1*
X1767020Y679528D2*
X1751268D1*
X1759857Y668054D1*
X1755546D1*
X1752694Y666628D1*
X1751268Y665202D1*
X1749809Y660891D1*
Y658039D1*
X1751268Y653728D1*
X1754120Y650843D1*
X1758431Y649417D1*
X1762742D1*
X1767020Y650843D1*
X1768445Y652302D1*
X1769905Y655154D1*
X1856961Y649417D2*
Y679528D1*
X1871320Y659465D1*
X1849798D1*
X1952673Y679528D2*
X1966999D1*
X1968425Y666628D1*
X1966999Y668054D1*
X1962688Y669513D1*
X1958410D1*
X1954099Y668054D1*
X1951214Y665202D1*
X1949788Y660891D1*
Y658039D1*
X1951214Y653728D1*
X1954099Y650843D1*
X1958410Y649417D1*
X1962688D1*
X1966999Y650843D1*
X1968425Y652302D1*
X1969884Y655154D1*
X2051203Y675250D2*
X2052629Y678102D1*
X2056940Y679528D1*
X2059792D1*
X2064103Y678102D1*
X2066988Y673791D1*
X2068414Y666628D1*
Y659465D1*
X2066988Y653728D1*
X2064103Y650843D1*
X2059792Y649417D1*
X2058366D1*
X2054088Y650843D1*
X2051203Y653728D1*
X2049777Y658039D1*
Y659465D1*
X2051203Y663776D1*
X2054088Y666628D1*
X2058366Y668054D1*
X2059792D1*
X2064103Y666628D1*
X2066988Y663776D1*
X2068414Y659465D1*
X2170375Y649417D2*
X2156016Y679528D1*
X2176112D1*
X2262656D2*
X2266934Y678102D1*
X2268393Y675250D1*
Y672365D1*
X2266934Y669513D1*
X2264082Y668054D1*
X2258345Y666628D1*
X2254034Y665202D1*
X2251182Y662317D1*
X2249756Y659465D1*
Y655154D1*
X2251182Y652302D1*
X2252608Y650843D1*
X2256919Y649417D1*
X2262656D1*
X2266934Y650843D1*
X2268393Y652302D1*
X2269819Y655154D1*
Y659465D1*
X2268393Y662317D1*
X2265508Y665202D1*
X2261230Y666628D1*
X2255493Y668054D1*
X2252608Y669513D1*
X2251182Y672365D1*
Y675250D1*
X2252608Y678102D1*
X2256919Y679528D1*
X2262656D1*
X2355995Y669513D2*
X2357454Y665202D1*
X2360306Y662317D1*
X2364617Y660891D1*
X2366043D1*
X2370354Y662317D1*
X2373206Y665202D1*
X2374665Y669513D1*
Y670939D1*
X2373206Y675250D1*
X2370354Y678102D1*
X2366043Y679528D1*
X2364617D1*
X2360306Y678102D1*
X2357454Y675250D1*
X2355995Y669513D1*
Y662317D1*
X2357454Y655154D1*
X2360306Y650843D1*
X2364617Y649417D1*
X2367469D1*
X2371780Y650843D1*
X2373206Y653728D1*
X2484778Y673791D2*
X2481893Y675250D1*
X2477582Y679528D1*
Y649417D1*
X2454960Y679528D2*
X2459271Y678102D1*
X2462156Y673791D1*
X2463582Y666628D1*
Y662317D1*
X2462156Y655154D1*
X2459271Y650843D1*
X2454960Y649417D1*
X2452108D1*
X2447797Y650843D1*
X2444945Y655154D1*
X2443486Y662317D1*
Y666628D1*
X2444945Y673791D1*
X2447797Y678102D1*
X2452108Y679528D1*
X2454960D1*
X2444945Y673791D2*
X2462156Y655154D1*
X2578117Y673791D2*
X2575232Y675250D1*
X2570921Y679528D1*
Y649417D1*
X2556921Y673791D2*
X2554036Y675250D1*
X2549725Y679528D1*
Y649417D1*
X2684757Y673791D2*
X2681872Y675250D1*
X2677561Y679528D1*
Y649417D1*
X2662102Y672365D2*
Y673791D1*
X2660676Y676676D1*
X2659250Y678102D1*
X2656365Y679528D1*
X2650628D1*
X2647776Y678102D1*
X2646350Y676676D1*
X2644891Y673791D1*
Y670939D1*
X2646350Y668054D1*
X2649202Y663776D1*
X2663561Y649417D1*
X2643465D1*
X2811610Y673278D2*
X2795859D1*
X2804448Y661804D1*
X2800137D1*
X2797285Y660378D1*
X2795859Y658952D1*
X2794400Y654641D1*
Y651790D1*
X2795859Y647479D1*
X2798711Y644593D1*
X2803022Y643167D1*
X2807333D1*
X2811610Y644593D1*
X2813036Y646053D1*
X2814496Y648904D1*
X2778974Y646053D2*
X2780400Y644593D1*
X2778974Y643167D1*
X2777514Y644593D1*
X2778974Y646053D1*
X2760629Y673278D2*
X2744878D1*
X2753466Y661804D1*
X2749155D1*
X2746304Y660378D1*
X2744878Y658952D1*
X2743418Y654641D1*
Y651790D1*
X2744878Y647479D1*
X2747730Y644593D1*
X2752041Y643167D1*
X2756352D1*
X2760629Y644593D1*
X2762055Y646053D1*
X2763514Y648904D1*
X2729418Y663263D2*
X2720796Y643167D1*
X2712208Y663263D1*
X2891353Y672365D2*
Y673791D1*
X2889927Y676676D1*
X2888501Y678102D1*
X2885616Y679528D1*
X2879879D1*
X2877027Y678102D1*
X2875601Y676676D1*
X2874142Y673791D1*
Y670939D1*
X2875601Y668054D1*
X2878453Y663776D1*
X2892812Y649417D1*
X2872716D1*
X2844357D2*
Y679528D1*
X2858716Y659465D1*
X2837194D1*
X2989917Y672365D2*
Y673791D1*
X2988491Y676676D1*
X2987065Y678102D1*
X2984180Y679528D1*
X2978443D1*
X2975591Y678102D1*
X2974165Y676676D1*
X2972706Y673791D1*
Y670939D1*
X2974165Y668054D1*
X2977017Y663776D1*
X2991376Y649417D1*
X2971280D1*
X2940069Y679528D2*
X2954395D1*
X2955821Y666628D1*
X2954395Y668054D1*
X2950084Y669513D1*
X2945806D1*
X2941495Y668054D1*
X2938610Y665202D1*
X2937184Y660891D1*
Y658039D1*
X2938610Y653728D1*
X2941495Y650843D1*
X2945806Y649417D1*
X2950084D1*
X2954395Y650843D1*
X2955821Y652302D1*
X2957280Y655154D1*
X3088447Y666115D2*
Y667541D1*
X3087021Y670426D1*
X3085595Y671852D1*
X3082710Y673278D1*
X3076973D1*
X3074121Y671852D1*
X3072695Y670426D1*
X3071236Y667541D1*
Y664689D1*
X3072695Y661804D1*
X3075547Y657527D1*
X3089906Y643167D1*
X3069810D1*
X3038599Y669000D2*
X3040025Y671852D1*
X3044336Y673278D1*
X3047188D1*
X3051499Y671852D1*
X3054384Y667541D1*
X3055810Y660378D1*
Y653215D1*
X3054384Y647479D1*
X3051499Y644593D1*
X3047188Y643167D1*
X3045762D1*
X3041484Y644593D1*
X3038599Y647479D1*
X3037173Y651790D1*
Y653215D1*
X3038599Y657527D1*
X3041484Y660378D1*
X3045762Y661804D1*
X3047188D1*
X3051499Y660378D1*
X3054384Y657527D1*
X3055810Y653215D1*
X3189896Y672365D2*
Y673791D1*
X3188470Y676676D1*
X3187044Y678102D1*
X3184159Y679528D1*
X3178422D1*
X3175570Y678102D1*
X3174144Y676676D1*
X3172685Y673791D1*
Y670939D1*
X3174144Y668054D1*
X3176996Y663776D1*
X3191355Y649417D1*
X3171259D1*
X3151522D2*
X3137163Y679528D1*
X3157259D1*
X2684757Y1592444D2*
X2681872Y1593903D1*
X2677561Y1598181D1*
Y1568070D1*
X2660676Y1598181D2*
X2644924D1*
X2653513Y1586707D1*
X2649202D1*
X2646350Y1585281D1*
X2644924Y1583855D1*
X2643465Y1579544D1*
Y1576692D1*
X2644924Y1572381D1*
X2647776Y1569496D1*
X2652087Y1568070D1*
X2656398D1*
X2660676Y1569496D1*
X2662102Y1570955D1*
X2663561Y1573807D1*
X2586193Y1592444D2*
X2583308Y1593903D1*
X2578997Y1598181D1*
Y1568070D1*
X2550638D2*
Y1598181D1*
X2564997Y1578118D1*
X2543475D1*
X2491027Y1598694D2*
X2488142Y1600153D1*
X2483831Y1604431D1*
Y1574320D1*
X2452620Y1604431D2*
X2466946D1*
X2468372Y1591531D1*
X2466946Y1592957D1*
X2462635Y1594416D1*
X2458357D1*
X2454046Y1592957D1*
X2451161Y1590105D1*
X2449735Y1585794D1*
Y1582942D1*
X2451161Y1578631D1*
X2454046Y1575746D1*
X2458357Y1574320D1*
X2462635D1*
X2466946Y1575746D1*
X2468372Y1577205D1*
X2469831Y1580057D1*
X2383329Y1598694D2*
X2380444Y1600153D1*
X2376133Y1604431D1*
Y1574320D1*
X2344922Y1600153D2*
X2346348Y1603005D1*
X2350659Y1604431D1*
X2353511D1*
X2357822Y1603005D1*
X2360707Y1598694D1*
X2362133Y1591531D1*
Y1584368D1*
X2360707Y1578631D1*
X2357822Y1575746D1*
X2353511Y1574320D1*
X2352085D1*
X2347807Y1575746D1*
X2344922Y1578631D1*
X2343496Y1582942D1*
Y1584368D1*
X2344922Y1588679D1*
X2347807Y1591531D1*
X2352085Y1592957D1*
X2353511D1*
X2357822Y1591531D1*
X2360707Y1588679D1*
X2362133Y1584368D1*
X2284799Y1598694D2*
X2281914Y1600153D1*
X2277603Y1604431D1*
Y1574320D1*
X2257866D2*
X2243507Y1604431D1*
X2263603D1*
X2184776Y1598694D2*
X2181891Y1600153D1*
X2177580Y1604431D1*
Y1574320D1*
X2156417Y1604431D2*
X2160695Y1603005D1*
X2162154Y1600153D1*
Y1597268D1*
X2160695Y1594416D1*
X2157843Y1592957D1*
X2152106Y1591531D1*
X2147795Y1590105D1*
X2144943Y1587220D1*
X2143517Y1584368D1*
Y1580057D1*
X2144943Y1577205D1*
X2146369Y1575746D1*
X2150680Y1574320D1*
X2156417D1*
X2160695Y1575746D1*
X2162154Y1577205D1*
X2163580Y1580057D1*
Y1584368D1*
X2162154Y1587220D1*
X2159269Y1590105D1*
X2154991Y1591531D1*
X2149254Y1592957D1*
X2146369Y1594416D1*
X2144943Y1597268D1*
Y1600153D1*
X2146369Y1603005D1*
X2150680Y1604431D1*
X2156417D1*
X2089643Y1598694D2*
X2086758Y1600153D1*
X2082447Y1604431D1*
Y1574320D1*
X2049777Y1594416D2*
X2051236Y1590105D1*
X2054088Y1587220D1*
X2058399Y1585794D1*
X2059825D1*
X2064136Y1587220D1*
X2066988Y1590105D1*
X2068447Y1594416D1*
Y1595842D1*
X2066988Y1600153D1*
X2064136Y1603005D1*
X2059825Y1604431D1*
X2058399D1*
X2054088Y1603005D1*
X2051236Y1600153D1*
X2049777Y1594416D1*
Y1587220D1*
X2051236Y1580057D1*
X2054088Y1575746D1*
X2058399Y1574320D1*
X2061251D1*
X2065562Y1575746D1*
X2066988Y1578631D1*
X1990022Y1597268D2*
Y1598694D1*
X1988596Y1601579D1*
X1987170Y1603005D1*
X1984285Y1604431D1*
X1978548D1*
X1975696Y1603005D1*
X1974270Y1601579D1*
X1972811Y1598694D1*
Y1595842D1*
X1974270Y1592957D1*
X1977122Y1588679D1*
X1991481Y1574320D1*
X1971385D1*
X1948763Y1604431D2*
X1953074Y1603005D1*
X1955959Y1598694D1*
X1957385Y1591531D1*
Y1587220D1*
X1955959Y1580057D1*
X1953074Y1575746D1*
X1948763Y1574320D1*
X1945911D1*
X1941600Y1575746D1*
X1938748Y1580057D1*
X1937289Y1587220D1*
Y1591531D1*
X1938748Y1598694D1*
X1941600Y1603005D1*
X1945911Y1604431D1*
X1948763D1*
X1938748Y1598694D2*
X1955959Y1580057D1*
X1883382Y1597268D2*
Y1598694D1*
X1881956Y1601579D1*
X1880530Y1603005D1*
X1877645Y1604431D1*
X1871908D1*
X1869056Y1603005D1*
X1867630Y1601579D1*
X1866171Y1598694D1*
Y1595842D1*
X1867630Y1592957D1*
X1870482Y1588679D1*
X1884841Y1574320D1*
X1864745D1*
X1850745Y1598694D2*
X1847860Y1600153D1*
X1843549Y1604431D1*
Y1574320D1*
X1796292Y1597268D2*
Y1598694D1*
X1794866Y1601579D1*
X1793440Y1603005D1*
X1790555Y1604431D1*
X1784818D1*
X1781966Y1603005D1*
X1780540Y1601579D1*
X1779081Y1598694D1*
Y1595842D1*
X1780540Y1592957D1*
X1783392Y1588679D1*
X1797751Y1574320D1*
X1777655D1*
X1762196Y1597268D2*
Y1598694D1*
X1760770Y1601579D1*
X1759344Y1603005D1*
X1756459Y1604431D1*
X1750722D1*
X1747870Y1603005D1*
X1746444Y1601579D1*
X1744985Y1598694D1*
Y1595842D1*
X1746444Y1592957D1*
X1749296Y1588679D1*
X1763655Y1574320D1*
X1743559D1*
X2792898Y1597301D2*
X2794324Y1600153D1*
X2797209Y1603038D1*
X2800061Y1604464D1*
X2805798D1*
X2808683Y1603038D1*
X2811535Y1600153D1*
X2812994Y1597301D1*
X2814420Y1592990D1*
Y1585794D1*
X2812994Y1581516D1*
X2811535Y1578631D1*
X2808683Y1575779D1*
X2805798Y1574320D1*
X2800061D1*
X2797209Y1575779D1*
X2794324Y1578631D1*
X2792898Y1581516D1*
Y1585794D1*
X2800061D1*
X2758802Y1604464D2*
Y1574320D1*
X2778898Y1604464D1*
Y1574320D1*
X2744802Y1604464D2*
Y1574320D1*
X2734754D1*
X2730443Y1575779D1*
X2727558Y1578631D1*
X2726132Y1581516D1*
X2724706Y1585794D1*
Y1592990D1*
X2726132Y1597301D1*
X2727558Y1600153D1*
X2730443Y1603038D1*
X2734754Y1604464D1*
X2744802D1*
X2946156Y1694677D2*
X2976300D1*
Y1684629D1*
X2974841Y1680318D1*
X2971989Y1677433D1*
X2969104Y1676007D1*
X2964826Y1674581D1*
X2957630D1*
X2953319Y1676007D1*
X2950467Y1677433D1*
X2947582Y1680318D1*
X2946156Y1684629D1*
Y1694677D1*
X2976300Y1637600D2*
X2946156Y1649107D1*
X2976300Y1660581D1*
X2966252Y1656270D2*
Y1641911D1*
X2953319Y1602078D2*
X2950467Y1603504D1*
X2947582Y1606389D1*
X2946156Y1609241D1*
Y1614978D1*
X2947582Y1617863D1*
X2950467Y1620715D1*
X2953319Y1622174D1*
X2957630Y1623600D1*
X2964826D1*
X2969104Y1622174D1*
X2971989Y1620715D1*
X2974841Y1617863D1*
X2976300Y1614978D1*
Y1609241D1*
X2974841Y1606389D1*
X2971989Y1603504D1*
X2969104Y1602078D1*
X2946189Y1579456D2*
X2947615Y1583767D1*
X2951926Y1586652D1*
X2959089Y1588078D1*
X2963400D1*
X2970563Y1586652D1*
X2974874Y1583767D1*
X2976300Y1579456D1*
Y1576604D1*
X2974874Y1572293D1*
X2970563Y1569441D1*
X2963400Y1567982D1*
X2959089D1*
X2951926Y1569441D1*
X2947615Y1572293D1*
X2946189Y1576604D1*
Y1579456D1*
X2951926Y1569441D2*
X2970563Y1586652D1*
X2852215Y1681978D2*
X2882359D1*
Y1671930D1*
X2880900Y1667619D1*
X2878048Y1664734D1*
X2875163Y1663308D1*
X2870885Y1661882D1*
X2863689D1*
X2859378Y1663308D1*
X2856526Y1664734D1*
X2853641Y1667619D1*
X2852215Y1671930D1*
Y1681978D1*
X2882359Y1624901D2*
X2852215Y1636408D1*
X2882359Y1647882D1*
X2872311Y1643571D2*
Y1629212D1*
X2859378Y1589379D2*
X2856526Y1590805D1*
X2853641Y1593690D1*
X2852215Y1596542D1*
Y1602279D1*
X2853641Y1605164D1*
X2856526Y1608016D1*
X2859378Y1609475D1*
X2863689Y1610901D1*
X2870885D1*
X2875163Y1609475D1*
X2878048Y1608016D1*
X2880900Y1605164D1*
X2882359Y1602279D1*
Y1596542D1*
X2880900Y1593690D1*
X2878048Y1590805D1*
X2875163Y1589379D1*
X2857985Y1575379D2*
X2856526Y1572494D1*
X2852248Y1568183D1*
X2882359D1*
X3093304Y1598181D2*
X3077552D1*
X3086141Y1586707D1*
X3081830D1*
X3078978Y1585281D1*
X3077552Y1583855D1*
X3076093Y1579544D1*
Y1576692D1*
X3077552Y1572381D1*
X3080404Y1569496D1*
X3084715Y1568070D1*
X3089026D1*
X3093304Y1569496D1*
X3094730Y1570955D1*
X3096189Y1573807D1*
X3043423Y1588166D2*
X3044882Y1583855D1*
X3047734Y1580970D1*
X3052045Y1579544D1*
X3053471D1*
X3057782Y1580970D1*
X3060634Y1583855D1*
X3062093Y1588166D1*
Y1589592D1*
X3060634Y1593903D1*
X3057782Y1596755D1*
X3053471Y1598181D1*
X3052045D1*
X3047734Y1596755D1*
X3044882Y1593903D1*
X3043423Y1588166D1*
Y1580970D1*
X3044882Y1573807D1*
X3047734Y1569496D1*
X3052045Y1568070D1*
X3054897D1*
X3059208Y1569496D1*
X3060634Y1572381D1*
X3194686Y1604431D2*
X3178934D1*
X3187523Y1592957D1*
X3183212D1*
X3180360Y1591531D1*
X3178934Y1590105D1*
X3177475Y1585794D1*
Y1582942D1*
X3178934Y1578631D1*
X3181786Y1575746D1*
X3186097Y1574320D1*
X3190408D1*
X3194686Y1575746D1*
X3196112Y1577205D1*
X3197571Y1580057D1*
X3156312Y1604431D2*
X3160590Y1603005D1*
X3162049Y1600153D1*
Y1597268D1*
X3160590Y1594416D1*
X3157738Y1592957D1*
X3152001Y1591531D1*
X3147690Y1590105D1*
X3144838Y1587220D1*
X3143412Y1584368D1*
Y1580057D1*
X3144838Y1577205D1*
X3146264Y1575746D1*
X3150575Y1574320D1*
X3156312D1*
X3160590Y1575746D1*
X3162049Y1577205D1*
X3163475Y1580057D1*
Y1584368D1*
X3162049Y1587220D1*
X3159164Y1590105D1*
X3154886Y1591531D1*
X3149149Y1592957D1*
X3146264Y1594416D1*
X3144838Y1597268D1*
Y1600153D1*
X3146264Y1603005D1*
X3150575Y1604431D1*
X3156312D1*
X3288459D2*
X3272708D1*
X3281296Y1592957D1*
X3276985D1*
X3274134Y1591531D1*
X3272708Y1590105D1*
X3271248Y1585794D1*
Y1582942D1*
X3272708Y1578631D1*
X3275559Y1575746D1*
X3279870Y1574320D1*
X3284182D1*
X3288459Y1575746D1*
X3289885Y1577205D1*
X3291344Y1580057D1*
X3251511Y1574320D2*
X3237152Y1604431D1*
X3257248D1*
X3386990D2*
X3371238D1*
X3379827Y1592957D1*
X3375516D1*
X3372664Y1591531D1*
X3371238Y1590105D1*
X3369779Y1585794D1*
Y1582942D1*
X3371238Y1578631D1*
X3374090Y1575746D1*
X3378401Y1574320D1*
X3382712D1*
X3386990Y1575746D1*
X3388416Y1577205D1*
X3389875Y1580057D1*
X3338568Y1600153D2*
X3339994Y1603005D1*
X3344305Y1604431D1*
X3347157D1*
X3351468Y1603005D1*
X3354353Y1598694D1*
X3355779Y1591531D1*
Y1584368D1*
X3354353Y1578631D1*
X3351468Y1575746D1*
X3347157Y1574320D1*
X3345731D1*
X3341453Y1575746D1*
X3338568Y1578631D1*
X3337142Y1582942D1*
Y1584368D1*
X3338568Y1588679D1*
X3341453Y1591531D1*
X3345731Y1592957D1*
X3347157D1*
X3351468Y1591531D1*
X3354353Y1588679D1*
X3355779Y1584368D1*
X3488438Y1604431D2*
X3472687D1*
X3481275Y1592957D1*
X3476964D1*
X3474113Y1591531D1*
X3472687Y1590105D1*
X3471227Y1585794D1*
Y1582942D1*
X3472687Y1578631D1*
X3475538Y1575746D1*
X3479849Y1574320D1*
X3484161D1*
X3488438Y1575746D1*
X3489864Y1577205D1*
X3491323Y1580057D1*
X3440017Y1604431D2*
X3454342D1*
X3455768Y1591531D1*
X3454342Y1592957D1*
X3450031Y1594416D1*
X3445753D1*
X3441442Y1592957D1*
X3438557Y1590105D1*
X3437131Y1585794D1*
Y1582942D1*
X3438557Y1578631D1*
X3441442Y1575746D1*
X3445753Y1574320D1*
X3450031D1*
X3454342Y1575746D1*
X3455768Y1577205D1*
X3457227Y1580057D1*
X3589854Y1610680D2*
X3574102D1*
X3582691Y1599206D1*
X3578380D1*
X3575528Y1597780D1*
X3574102Y1596354D1*
X3572643Y1592043D1*
Y1589191D1*
X3574102Y1584880D1*
X3576954Y1581995D1*
X3581265Y1580569D1*
X3585576D1*
X3589854Y1581995D1*
X3591280Y1583454D1*
X3592739Y1586306D1*
X3544284Y1580569D2*
Y1610680D1*
X3558643Y1590617D1*
X3537121D1*
X3694667Y1604431D2*
X3678915D1*
X3687504Y1592957D1*
X3683193D1*
X3680341Y1591531D1*
X3678915Y1590105D1*
X3677456Y1585794D1*
Y1582942D1*
X3678915Y1578631D1*
X3681767Y1575746D1*
X3686078Y1574320D1*
X3690389D1*
X3694667Y1575746D1*
X3696093Y1577205D1*
X3697552Y1580057D1*
X3660571Y1604431D2*
X3644819D1*
X3653408Y1592957D1*
X3649097D1*
X3646245Y1591531D1*
X3644819Y1590105D1*
X3643360Y1585794D1*
Y1582942D1*
X3644819Y1578631D1*
X3647671Y1575746D1*
X3651982Y1574320D1*
X3656293D1*
X3660571Y1575746D1*
X3661997Y1577205D1*
X3663456Y1580057D1*
X610376Y2035668D2*
Y2005524D1*
X600328D1*
X596017Y2006984D1*
X593132Y2009835D1*
X591706Y2012721D1*
X590280Y2016998D1*
Y2024194D1*
X591706Y2028506D1*
X593132Y2031357D1*
X596017Y2034242D1*
X600328Y2035668D1*
X610376D1*
X573395Y2035635D2*
X557643D1*
X566232Y2024161D1*
X561921D1*
X559069Y2022735D1*
X557643Y2021309D1*
X556184Y2016998D1*
Y2014146D1*
X557643Y2009835D1*
X560495Y2006950D1*
X564806Y2005524D1*
X569117D1*
X573395Y2006950D1*
X574821Y2008410D1*
X576280Y2011261D1*
X625323Y1935679D2*
Y1905535D1*
X615275D1*
X610964Y1906994D1*
X608079Y1909846D1*
X606653Y1912731D1*
X605227Y1917009D1*
Y1924205D1*
X606653Y1928516D1*
X608079Y1931368D1*
X610964Y1934253D1*
X615275Y1935679D1*
X625323D1*
X591227Y1929909D2*
X588342Y1931368D1*
X584031Y1935646D1*
Y1905535D1*
X568571Y1928483D2*
Y1929909D1*
X567146Y1932794D1*
X565720Y1934220D1*
X562835Y1935646D1*
X557098D1*
X554246Y1934220D1*
X552820Y1932794D1*
X551361Y1929909D1*
Y1927057D1*
X552820Y1924172D1*
X555672Y1919894D1*
X570031Y1905535D1*
X549935D1*
X610376Y1835689D2*
Y1805545D1*
X600328D1*
X596017Y1807005D1*
X593132Y1809856D1*
X591706Y1812742D1*
X590280Y1817019D1*
Y1824215D1*
X591706Y1828527D1*
X593132Y1831378D1*
X596017Y1834263D1*
X600328Y1835689D1*
X610376D1*
X570543Y1805545D2*
X556184Y1835656D1*
X576280D1*
X604093Y1741949D2*
Y1711805D1*
X594045D1*
X589734Y1713264D1*
X586849Y1716116D1*
X585423Y1719001D1*
X583997Y1723279D1*
Y1730475D1*
X585423Y1734786D1*
X586849Y1737638D1*
X589734Y1740523D1*
X594045Y1741949D1*
X604093D1*
X562835Y1741916D2*
X567112Y1740490D1*
X568571Y1737638D1*
Y1734753D1*
X567112Y1731901D1*
X564260Y1730442D1*
X558523Y1729016D1*
X554212Y1727590D1*
X551361Y1724705D1*
X549935Y1721853D1*
Y1717542D1*
X551361Y1714690D1*
X552787Y1713231D1*
X557098Y1711805D1*
X562835D1*
X567112Y1713231D1*
X568571Y1714690D1*
X569997Y1717542D1*
Y1721853D1*
X568571Y1724705D1*
X565686Y1727590D1*
X561409Y1729016D1*
X555672Y1730442D1*
X552787Y1731901D1*
X551361Y1734753D1*
Y1737638D1*
X552787Y1740490D1*
X557098Y1741916D1*
X562835D1*
X626749Y1641960D2*
Y1611816D1*
X616701D1*
X612390Y1613275D1*
X609505Y1616127D1*
X608079Y1619012D1*
X606653Y1623290D1*
Y1630486D1*
X608079Y1634797D1*
X609505Y1637649D1*
X612390Y1640534D1*
X616701Y1641960D1*
X626749D1*
X592653Y1636190D2*
X589768Y1637649D1*
X585457Y1641927D1*
Y1611816D1*
X557098D2*
Y1641927D1*
X571457Y1621864D1*
X549935D1*
X631572Y1560718D2*
Y1530574D1*
X621524D1*
X617213Y1532033D1*
X614328Y1534885D1*
X612902Y1537770D1*
X611476Y1542048D1*
Y1549244D1*
X612902Y1553555D1*
X614328Y1556407D1*
X617213Y1559292D1*
X621524Y1560718D1*
X631572D1*
X597476Y1554948D2*
X594591Y1556407D1*
X590280Y1560685D1*
Y1530574D1*
X574821Y1553522D2*
Y1554948D1*
X573395Y1557833D1*
X571969Y1559259D1*
X569084Y1560685D1*
X563347D1*
X560495Y1559259D1*
X559069Y1557833D1*
X557610Y1554948D1*
Y1552096D1*
X559069Y1549211D1*
X561921Y1544933D1*
X576280Y1530574D1*
X556184D1*
X602667Y1441981D2*
Y1411837D1*
X592619D1*
X588308Y1413296D1*
X585423Y1416148D1*
X583997Y1419033D1*
X582571Y1423311D1*
Y1430507D1*
X583997Y1434818D1*
X585423Y1437670D1*
X588308Y1440555D1*
X592619Y1441981D1*
X602667D1*
X551361Y1437670D2*
X552787Y1440522D1*
X557098Y1441948D1*
X559949D1*
X564260Y1440522D1*
X567146Y1436211D1*
X568571Y1429048D1*
Y1421885D1*
X567146Y1416148D1*
X564260Y1413263D1*
X559949Y1411837D1*
X558523D1*
X554246Y1413263D1*
X551361Y1416148D1*
X549935Y1420459D1*
Y1421885D1*
X551361Y1426196D1*
X554246Y1429048D1*
X558523Y1430474D1*
X559949D1*
X564260Y1429048D1*
X567146Y1426196D1*
X568571Y1421885D1*
X626749Y1341991D2*
Y1311847D1*
X616701D1*
X612390Y1313306D1*
X609505Y1316158D1*
X608079Y1319043D1*
X606653Y1323321D1*
Y1330517D1*
X608079Y1334828D1*
X609505Y1337680D1*
X612390Y1340565D1*
X616701Y1341991D1*
X626749D1*
X592653Y1336221D2*
X589768Y1337680D1*
X585457Y1341958D1*
Y1311847D1*
X557098D2*
Y1341958D1*
X571457Y1321895D1*
X549935D1*
X604127Y1242002D2*
Y1211858D1*
X594079D1*
X589768Y1213317D1*
X586883Y1216169D1*
X585457Y1219054D1*
X584031Y1223332D1*
Y1230528D1*
X585457Y1234839D1*
X586883Y1237691D1*
X589768Y1240576D1*
X594079Y1242002D1*
X604127D1*
X564294Y1211858D2*
X549935Y1241969D1*
X570031D1*
X669469Y1142012D2*
Y1111868D1*
X659421D1*
X655110Y1113327D1*
X652225Y1116179D1*
X650799Y1119064D1*
X649373Y1123342D1*
Y1130538D1*
X650799Y1134849D1*
X652225Y1137701D1*
X655110Y1140586D1*
X659421Y1142012D1*
X669469D1*
X633914Y1134816D2*
Y1136242D1*
X632488Y1139127D1*
X631062Y1140553D1*
X628177Y1141979D1*
X622440D1*
X619588Y1140553D1*
X618162Y1139127D1*
X616703Y1136242D1*
Y1133390D1*
X618162Y1130505D1*
X621014Y1126227D1*
X635373Y1111868D1*
X615277D1*
X599818Y1134816D2*
Y1136242D1*
X598392Y1139127D1*
X596966Y1140553D1*
X594081Y1141979D1*
X588344D1*
X585492Y1140553D1*
X584066Y1139127D1*
X582607Y1136242D1*
Y1133390D1*
X584066Y1130505D1*
X586918Y1126227D1*
X601277Y1111868D1*
X581181D1*
X623954Y1032122D2*
X613453D1*
X619179Y1024472D1*
X616305D1*
X614403Y1023522D1*
X613453Y1022571D1*
X612480Y1019697D1*
Y1017796D1*
X613453Y1014922D1*
X615354Y1012998D1*
X618228Y1012048D1*
X621102D1*
X623954Y1012998D1*
X624905Y1013971D1*
X625877Y1015873D1*
X597529Y1013971D2*
X598480Y1012998D1*
X597529Y1012048D1*
X596557Y1012998D1*
X597529Y1013971D1*
X580633Y1032122D2*
X570132D1*
X575858Y1024472D1*
X572984D1*
X571083Y1023522D1*
X570132Y1022571D1*
X569159Y1019697D1*
Y1017796D1*
X570132Y1014922D1*
X572033Y1012998D1*
X574907Y1012048D1*
X577781D1*
X580633Y1012998D1*
X581584Y1013971D1*
X582557Y1015873D1*
X555159Y1025445D2*
X549411Y1012048D1*
X543685Y1025445D1*
X625323Y935784D2*
Y905640D1*
X615275D1*
X610964Y907099D1*
X608079Y909951D1*
X606653Y912836D1*
X605227Y917114D1*
Y924310D1*
X606653Y928621D1*
X608079Y931473D1*
X610964Y934358D1*
X615275Y935784D1*
X625323D1*
X591227Y930014D2*
X588342Y931473D1*
X584031Y935751D1*
Y905640D1*
X552820Y935751D2*
X567146D1*
X568571Y922851D1*
X567146Y924277D1*
X562835Y925736D1*
X558557D1*
X554246Y924277D1*
X551361Y921425D1*
X549935Y917114D1*
Y914262D1*
X551361Y909951D1*
X554246Y907066D1*
X558557Y905640D1*
X562835D1*
X567146Y907066D1*
X568571Y908525D1*
X570031Y911377D1*
X618127Y828631D2*
X619553Y831483D1*
X622438Y834368D1*
X625290Y835794D1*
X631027D1*
X633912Y834368D1*
X636763Y831483D1*
X638223Y828631D1*
X639649Y824320D1*
Y817124D1*
X638223Y812847D1*
X636763Y809961D1*
X633912Y807110D1*
X631027Y805650D1*
X625290D1*
X622438Y807110D1*
X619553Y809961D1*
X618127Y812847D1*
Y817124D1*
X625290D1*
X584031Y835794D2*
Y805650D1*
X604127Y835794D1*
Y805650D1*
X570031Y835794D2*
Y805650D1*
X559983D1*
X555672Y807110D1*
X552787Y809961D1*
X551361Y812847D1*
X549935Y817124D1*
Y824320D1*
X551361Y828631D1*
X552787Y831483D1*
X555672Y834368D1*
X559983Y835794D1*
X570031D1*
X527238Y685810D2*
X515764Y655666D1*
X504290Y685810D1*
X490290D2*
Y655666D1*
X456194Y685810D2*
Y655666D1*
X476290Y685810D1*
Y655666D1*
X3289852Y672365D2*
Y673791D1*
X3288426Y676676D1*
X3287000Y678102D1*
X3284115Y679528D1*
X3278378D1*
X3275526Y678102D1*
X3274100Y676676D1*
X3272641Y673791D1*
Y670939D1*
X3274100Y668054D1*
X3276952Y663776D1*
X3291311Y649417D1*
X3271215D1*
X3250052Y679528D2*
X3254330Y678102D1*
X3255789Y675250D1*
Y672365D1*
X3254330Y669513D1*
X3251478Y668054D1*
X3245741Y666628D1*
X3241430Y665202D1*
X3238578Y662317D1*
X3237152Y659465D1*
Y655154D1*
X3238578Y652302D1*
X3240004Y650843D1*
X3244315Y649417D1*
X3250052D1*
X3254330Y650843D1*
X3255789Y652302D1*
X3257215Y655154D1*
Y659465D1*
X3255789Y662317D1*
X3252904Y665202D1*
X3248626Y666628D1*
X3242889Y668054D1*
X3240004Y669513D1*
X3238578Y672365D1*
Y675250D1*
X3240004Y678102D1*
X3244315Y679528D1*
X3250052D1*
X3394698Y666115D2*
Y667541D1*
X3393272Y670426D1*
X3391846Y671852D1*
X3388961Y673278D1*
X3383224D1*
X3380372Y671852D1*
X3378946Y670426D1*
X3377487Y667541D1*
Y664689D1*
X3378946Y661804D1*
X3381798Y657527D1*
X3396157Y643167D1*
X3376061D1*
X3343391Y663263D2*
X3344850Y658952D1*
X3347702Y656067D1*
X3352013Y654641D1*
X3353439D1*
X3357750Y656067D1*
X3360602Y658952D1*
X3362061Y663263D1*
Y664689D1*
X3360602Y669000D1*
X3357750Y671852D1*
X3353439Y673278D1*
X3352013D1*
X3347702Y671852D1*
X3344850Y669000D1*
X3343391Y663263D1*
Y656067D1*
X3344850Y648904D1*
X3347702Y644593D1*
X3352013Y643167D1*
X3354865D1*
X3359176Y644593D1*
X3360602Y647479D1*
X3482189Y673278D2*
X3466437D1*
X3475026Y661804D1*
X3470715D1*
X3467863Y660378D1*
X3466437Y658952D1*
X3464978Y654641D1*
Y651790D1*
X3466437Y647479D1*
X3469289Y644593D1*
X3473600Y643167D1*
X3477911D1*
X3482189Y644593D1*
X3483615Y646053D1*
X3485074Y648904D1*
X3442356Y673278D2*
X3446667Y671852D1*
X3449552Y667541D1*
X3450978Y660378D1*
Y656067D1*
X3449552Y648904D1*
X3446667Y644593D1*
X3442356Y643167D1*
X3439504D1*
X3435193Y644593D1*
X3432341Y648904D1*
X3430882Y656067D1*
Y660378D1*
X3432341Y667541D1*
X3435193Y671852D1*
X3439504Y673278D1*
X3442356D1*
X3432341Y667541D2*
X3449552Y648904D1*
X3588027Y673278D2*
X3572275D1*
X3580864Y661804D1*
X3576553D1*
X3573701Y660378D1*
X3572275Y658952D1*
X3570816Y654641D1*
Y651790D1*
X3572275Y647479D1*
X3575127Y644593D1*
X3579438Y643167D1*
X3583749D1*
X3588027Y644593D1*
X3589453Y646053D1*
X3590912Y648904D1*
X3556816Y667541D2*
X3553931Y669000D1*
X3549620Y673278D1*
Y643167D1*
X3694667Y673278D2*
X3678915D1*
X3687504Y661804D1*
X3683193D1*
X3680341Y660378D1*
X3678915Y658952D1*
X3677456Y654641D1*
Y651790D1*
X3678915Y647479D1*
X3681767Y644593D1*
X3686078Y643167D1*
X3690389D1*
X3694667Y644593D1*
X3696093Y646053D1*
X3697552Y648904D1*
X3661997Y666115D2*
Y667541D1*
X3660571Y670426D1*
X3659145Y671852D1*
X3656260Y673278D1*
X3650523D1*
X3647671Y671852D1*
X3646245Y670426D1*
X3644786Y667541D1*
Y664689D1*
X3646245Y661804D1*
X3649097Y657527D1*
X3663456Y643167D1*
X3643360D1*
X2255053Y586923D2*
X2266561Y617067D1*
X2278035Y586923D1*
X2273724Y596971D2*
X2259364D1*
X2241053Y611297D2*
X2238168Y612756D1*
X2233857Y617034D1*
Y586923D1*
X2216972Y617034D2*
X2201220D1*
X2209809Y605560D1*
X2205498D1*
X2202646Y604134D1*
X2201220Y602708D1*
X2199761Y598397D1*
Y595545D1*
X2201220Y591234D1*
X2204072Y588349D1*
X2208383Y586923D1*
X2212694D1*
X2216972Y588349D1*
X2218398Y589808D1*
X2219857Y592660D1*
X2050251Y586923D2*
X2061758Y617067D1*
X2073232Y586923D1*
X2068921Y596971D2*
X2054562D1*
X2036251Y611297D2*
X2033366Y612756D1*
X2029055Y617034D1*
Y586923D1*
X2000696D2*
Y617034D1*
X2015055Y596971D1*
X1993533D1*
X2348794Y586923D2*
X2360301Y617067D1*
X2371775Y586923D1*
X2367464Y596971D2*
X2353105D1*
X2334794Y611297D2*
X2331909Y612756D1*
X2327598Y617034D1*
Y586923D1*
X2296387Y617034D2*
X2310712D1*
X2312138Y604134D1*
X2310712Y605560D1*
X2306401Y607019D1*
X2302124D1*
X2297813Y605560D1*
X2294927Y602708D1*
X2293502Y598397D1*
Y595545D1*
X2294927Y591234D1*
X2297813Y588349D1*
X2302124Y586923D1*
X2306401D1*
X2310712Y588349D1*
X2312138Y589808D1*
X2313598Y592660D1*
X2153605Y586923D2*
X2165112Y617067D1*
X2176586Y586923D1*
X2172275Y596971D2*
X2157916D1*
X2139605Y611297D2*
X2136720Y612756D1*
X2132409Y617034D1*
Y586923D1*
X2101198Y612756D2*
X2102624Y615608D1*
X2106935Y617034D1*
X2109787D1*
X2114098Y615608D1*
X2116983Y611297D1*
X2118409Y604134D1*
Y596971D1*
X2116983Y591234D1*
X2114098Y588349D1*
X2109787Y586923D1*
X2108361D1*
X2104083Y588349D1*
X2101198Y591234D1*
X2099772Y595545D1*
Y596971D1*
X2101198Y601282D1*
X2104083Y604134D1*
X2108361Y605560D1*
X2109787D1*
X2114098Y604134D1*
X2116983Y601282D1*
X2118409Y596971D1*
X1414645Y1610713D2*
X1403171Y1580569D1*
X1391697Y1610713D1*
X1377697D2*
Y1580569D1*
X1343601Y1610713D2*
Y1580569D1*
X1363697Y1610713D1*
Y1580569D1*
X1485362Y1574320D2*
X1496869Y1604464D1*
X1508343Y1574320D1*
X1504032Y1584368D2*
X1489673D1*
X1449840Y1597301D2*
X1451266Y1600153D1*
X1454151Y1603038D1*
X1457003Y1604464D1*
X1462740D1*
X1465625Y1603038D1*
X1468477Y1600153D1*
X1469936Y1597301D1*
X1471362Y1592990D1*
Y1585794D1*
X1469936Y1581516D1*
X1468477Y1578631D1*
X1465625Y1575779D1*
X1462740Y1574320D1*
X1457003D1*
X1454151Y1575779D1*
X1451266Y1578631D1*
X1449840Y1581516D1*
Y1585794D1*
X1457003D1*
X1611350Y1594563D2*
X1600849D1*
X1606575Y1586913D1*
X1603701D1*
X1601800Y1585963D1*
X1600849Y1585012D1*
X1599876Y1582138D1*
Y1580237D1*
X1600849Y1577363D1*
X1602750Y1575439D1*
X1605624Y1574489D1*
X1608498D1*
X1611350Y1575439D1*
X1612301Y1576412D1*
X1613274Y1578313D1*
X1584926Y1576412D2*
X1585876Y1575439D1*
X1584926Y1574489D1*
X1583953Y1575439D1*
X1584926Y1576412D1*
X1568029Y1594563D2*
X1557528D1*
X1563254Y1586913D1*
X1560380D1*
X1558479Y1585963D1*
X1557528Y1585012D1*
X1556556Y1582138D1*
Y1580237D1*
X1557528Y1577363D1*
X1559430Y1575439D1*
X1562304Y1574489D1*
X1565178D1*
X1568029Y1575439D1*
X1568980Y1576412D1*
X1569953Y1578313D1*
X1542556Y1587886D2*
X1536808Y1574489D1*
X1531082Y1587886D1*
X1690053Y1603517D2*
Y1604943D1*
X1688627Y1607828D1*
X1687201Y1609254D1*
X1684316Y1610680D1*
X1678579D1*
X1675727Y1609254D1*
X1674301Y1607828D1*
X1672842Y1604943D1*
Y1602091D1*
X1674301Y1599206D1*
X1677153Y1594928D1*
X1691512Y1580569D1*
X1671416D1*
X1654531Y1610680D2*
X1638780D1*
X1647368Y1599206D1*
X1643057D1*
X1640205Y1597780D1*
X1638780Y1596354D1*
X1637320Y1592043D1*
Y1589191D1*
X1638780Y1584880D1*
X1641631Y1581995D1*
X1645942Y1580569D1*
X1650253D1*
X1654531Y1581995D1*
X1655957Y1583454D1*
X1657416Y1586306D1*
X1855497Y616154D2*
X1856923Y619006D1*
X1859808Y621891D1*
X1862660Y623317D1*
X1868397D1*
X1871282Y621891D1*
X1874134Y619006D1*
X1875593Y616154D1*
X1877019Y611843D1*
Y604647D1*
X1875593Y600369D1*
X1874134Y597484D1*
X1871282Y594632D1*
X1868397Y593173D1*
X1862660D1*
X1859808Y594632D1*
X1856923Y597484D1*
X1855497Y600369D1*
Y604647D1*
X1862660D1*
X1821401Y623317D2*
Y593173D1*
X1841497Y623317D1*
Y593173D1*
X1807401Y623317D2*
Y593173D1*
X1797353D1*
X1793042Y594632D1*
X1790157Y597484D1*
X1788731Y600369D1*
X1787305Y604647D1*
Y611843D1*
X1788731Y616154D1*
X1790157Y619006D1*
X1793042Y621891D1*
X1797353Y623317D1*
X1807401D1*
X1967985Y623284D2*
X1952233D1*
X1960822Y611810D1*
X1956511D1*
X1953659Y610384D1*
X1952233Y608958D1*
X1950774Y604647D1*
Y601795D1*
X1952233Y597484D1*
X1955085Y594599D1*
X1959396Y593173D1*
X1963707D1*
X1967985Y594599D1*
X1969411Y596058D1*
X1970870Y598910D1*
X1935348Y596058D2*
X1936774Y594599D1*
X1935348Y593173D1*
X1933889Y594599D1*
X1935348Y596058D1*
X1917004Y623284D2*
X1901252D1*
X1909841Y611810D1*
X1905530D1*
X1902678Y610384D1*
X1901252Y608958D1*
X1899793Y604647D1*
Y601795D1*
X1901252Y597484D1*
X1904104Y594599D1*
X1908415Y593173D1*
X1912726D1*
X1917004Y594599D1*
X1918430Y596058D1*
X1919889Y598910D1*
X693083Y673278D2*
X677331D1*
X685920Y661804D1*
X681609D1*
X678757Y660378D1*
X677331Y658952D1*
X675872Y654641D1*
Y651790D1*
X677331Y647479D1*
X680183Y644593D1*
X684494Y643167D1*
X688805D1*
X693083Y644593D1*
X694509Y646053D1*
X695968Y648904D1*
X660446Y646053D2*
X661872Y644593D1*
X660446Y643167D1*
X658987Y644593D1*
X660446Y646053D1*
X642102Y673278D2*
X626350D1*
X634939Y661804D1*
X630628D1*
X627776Y660378D1*
X626350Y658952D1*
X624891Y654641D1*
Y651790D1*
X626350Y647479D1*
X629202Y644593D1*
X633513Y643167D1*
X637824D1*
X642102Y644593D1*
X643528Y646053D1*
X644987Y648904D1*
X610891Y663263D2*
X602269Y643167D1*
X593680Y663263D1*
X741309Y654770D2*
X738457Y656196D1*
X735572Y659081D1*
X734146Y661933D1*
Y667670D1*
X735572Y670555D1*
X738457Y673407D1*
X741309Y674866D1*
X745620Y676292D1*
X752816D1*
X757094Y674866D1*
X759979Y673407D1*
X762831Y670555D1*
X764290Y667670D1*
Y661933D1*
X762831Y659081D1*
X759979Y656196D1*
X757094Y654770D1*
X752816D1*
Y661933D1*
X734146Y620674D2*
X764290D1*
X734146Y640770D1*
X764290D1*
X734146Y606674D2*
X764290D1*
Y596626D1*
X762831Y592315D1*
X759979Y589430D1*
X757094Y588004D1*
X752816Y586578D1*
X745620D1*
X741309Y588004D1*
X738457Y589430D1*
X735572Y592315D1*
X734146Y596626D1*
Y606674D1*
X832197Y659560D2*
X829312Y662412D1*
X827886Y666723D1*
Y672460D1*
X829312Y676771D1*
X832197Y679656D1*
X835049D1*
X837934Y678197D1*
X839360Y676771D1*
X840786Y673919D1*
X843671Y665297D1*
X845097Y662412D1*
X846556Y660986D1*
X849408Y659560D1*
X853719D1*
X856571Y662412D1*
X858030Y666723D1*
Y672460D1*
X856571Y676771D1*
X853719Y679656D1*
X835049Y624038D2*
X832197Y625464D1*
X829312Y628349D1*
X827886Y631201D1*
Y636938D1*
X829312Y639823D1*
X832197Y642675D1*
X835049Y644134D1*
X839360Y645560D1*
X846556D1*
X850834Y644134D1*
X853719Y642675D1*
X856571Y639823D1*
X858030Y636938D1*
Y631201D1*
X856571Y628349D1*
X853719Y625464D1*
X850834Y624038D1*
X827886Y610038D2*
X858030D1*
Y592827D1*
X932186Y657655D2*
X929301Y660507D1*
X927875Y664818D1*
Y670555D1*
X929301Y674866D1*
X932186Y677751D1*
X935038D1*
X937923Y676292D1*
X939349Y674866D1*
X940775Y672014D1*
X943660Y663392D1*
X945086Y660507D1*
X946545Y659081D1*
X949397Y657655D1*
X953708D1*
X956560Y660507D1*
X958019Y664818D1*
Y670555D1*
X956560Y674866D1*
X953708Y677751D1*
X927875Y643655D2*
X958019D1*
Y633607D1*
X956560Y629296D1*
X953708Y626411D1*
X950823Y624985D1*
X946545Y623559D1*
X939349D1*
X935038Y624985D1*
X932186Y626411D1*
X929301Y629296D1*
X927875Y633607D1*
Y643655D1*
X958019Y586578D2*
X927875Y598085D1*
X958019Y609559D1*
X947971Y605248D2*
Y590889D1*
X1227844Y679255D2*
X1257988D1*
Y669207D1*
X1256529Y664896D1*
X1253677Y662011D1*
X1250792Y660585D1*
X1246514Y659159D1*
X1239318D1*
X1235007Y660585D1*
X1232155Y662011D1*
X1229270Y664896D1*
X1227844Y669207D1*
Y679255D1*
X1233614Y645159D2*
X1232155Y642274D1*
X1227877Y637963D1*
X1257988D1*
X1232155Y606752D2*
X1229303Y608178D1*
X1227877Y612489D1*
Y615341D1*
X1229303Y619652D1*
X1233614Y622537D1*
X1240777Y623963D1*
X1247940D1*
X1253677Y622537D1*
X1256562Y619652D1*
X1257988Y615341D1*
Y613915D1*
X1256562Y609637D1*
X1253677Y606752D1*
X1249366Y605326D1*
X1247940D1*
X1243629Y606752D1*
X1240777Y609637D1*
X1239351Y613915D1*
Y615341D1*
X1240777Y619652D1*
X1243629Y622537D1*
X1247940Y623963D1*
M02*
