M48
INCH
T01C0.0191
T02C0.025
T03C0.0315
T04C0.0354
T05C0.0394
T06C0.0433
T07C0.0512
T08C0.125
%
T01
X+022498Y+021810
X+024247Y+021185
X+024247Y+020248
X+023137Y+018937
X+023337Y+018337
X+023337Y+017537
X+023137Y+016137
X+020337Y+013137
X+021248Y+012061
X+019685Y+011811
X+016137Y+008737
X+012937Y+008737
X+013936Y+011436
X+012374Y+014436
X+009561Y+012686
X+005937Y+015137
X+006687Y+016498
X+006249Y+019748
X+011936Y+022935
X+016937Y+022737
X+016561Y+018998
X+016937Y+016137
X+017537Y+016137
X+019937Y+019537
X+021748Y+020060
X+025560Y+021498
X+033496Y+017998
X+034684Y+016498
X+035371Y+016811
X+037238Y+016023
X+034659Y+020311
X+034559Y+020935
X+035434Y+022185
X+033684Y+012436
X+029537Y+009137
X+028247Y+010061
X+025737Y+009737
T02
X+033434Y+020373
X+018926Y+017513
X+017936Y+016852
X+012874Y+016811
X+010311Y+015936
X+011624Y+012061
X+014998Y+006437
X+018748Y+010249
X+018435Y+011561
T03
X+025287Y+022187
X+024637Y+022187
X+023937Y+022187
X+023287Y+022187
T04
X+004937Y+007317
X+004937Y+008317
X+004937Y+009317
X+004937Y+010317
X+004937Y+011317
X+004937Y+012317
X+004937Y+013317
X+004937Y+014317
X+004937Y+015317
X+004937Y+016317
X+004937Y+017317
X+004937Y+018317
X+004937Y+019317
X+004937Y+020317
X+006937Y+020187
X+007937Y+020187
X+007937Y+019187
X+006937Y+019187
X+006937Y+018187
X+007937Y+018187
X+007937Y+014687
X+006937Y+014687
X+006937Y+013687
X+007937Y+013687
X+007937Y+012687
X+006937Y+012687
X+007437Y+007187
X+006437Y+007187
X+008437Y+007187
X+009437Y+007187
X+010437Y+007187
X+011437Y+007187
X+012437Y+007187
X+013687Y+007187
X+014687Y+007187
X+015687Y+007187
X+016687Y+007187
X+017687Y+007187
X+018687Y+007187
X+019687Y+007187
X+020687Y+007187
X+021687Y+007187
X+022687Y+007187
X+023687Y+007187
X+024687Y+007187
X+025687Y+007187
X+026687Y+007187
X+027687Y+007187
X+028687Y+007187
X+029687Y+007187
X+030687Y+007187
X+031687Y+007187
X+032687Y+007187
X+033687Y+007187
X+034687Y+007187
X+035687Y+007187
X+036687Y+007187
X+036687Y+015187
X+035687Y+015187
X+034687Y+015187
X+033687Y+015187
X+032687Y+015187
X+031687Y+015187
X+030687Y+015187
X+029687Y+015187
X+028687Y+015187
X+027687Y+015187
X+026687Y+015187
X+025687Y+015187
X+024687Y+015187
X+023687Y+015187
X+022687Y+015187
X+021687Y+015187
X+020687Y+015187
X+019687Y+015187
X+018687Y+015187
X+017687Y+015187
X+016687Y+015187
X+015687Y+015187
X+014687Y+015187
X+013687Y+015187
T05
X+035187Y+017562
X+035187Y+019062
X+035687Y+014187
X+034687Y+014187
X+033687Y+014187
X+032687Y+014187
X+031687Y+014187
X+031687Y+013187
X+031687Y+012187
X+031687Y+011187
X+031687Y+010187
X+031687Y+009187
X+031687Y+008187
X+030687Y+008187
X+029687Y+008187
X+028687Y+008187
X+027687Y+008187
X+026687Y+008187
X+025687Y+008187
X+024687Y+008187
X+023687Y+008187
X+022687Y+008187
X+021687Y+008187
X+020687Y+008187
X+019687Y+008187
X+018687Y+008187
X+017687Y+008187
X+016687Y+008187
X+015687Y+008187
X+014687Y+008187
X+013687Y+008187
X+016187Y+009437
X+017187Y+009437
X+018187Y+009437
X+019187Y+009437
X+020187Y+009437
X+018687Y+013187
X+018687Y+014187
X+019687Y+014187
X+020687Y+014187
X+021687Y+014187
X+022687Y+014187
X+023687Y+014187
X+024687Y+014187
X+025687Y+014187
X+026687Y+014187
X+027687Y+014187
X+028687Y+014187
X+029687Y+014187
X+030687Y+014187
X+036687Y+014187
X+036687Y+008187
X+035687Y+008187
X+034687Y+008187
X+033687Y+008187
X+032687Y+008187
X+017687Y+013187
X+017687Y+014187
X+016687Y+014187
X+015687Y+014187
X+014687Y+014187
X+014687Y+013187
X+013687Y+014187
X+016687Y+013187
T06
X+014249Y+021871
X+014249Y+018878
T07
X+018366Y+005249
X+019366Y+005249
X+020366Y+005249
X+021366Y+005249
X+022366Y+005249
X+023366Y+005249
T08
X+036614Y+005118
X+036614Y+022441
X+006693Y+022441
X+006693Y+005118
T00
M30
