M48
INCH
T01C0.0191
T02C0.0354
T03C0.0362
T04C0.038
T05C0.04
T06C0.0906
T07C0.118
T08C0.125
%
T01
X+018987Y+018187
X+020187Y+017787
X+020787Y+017187
X+020987Y+016587
X+019187Y+015987
X+019187Y+013587
X+020187Y+013787
X+020987Y+014187
X+020987Y+013387
X+020987Y+011787
X+020187Y+011787
X+019087Y+011787
X+018237Y+011187
X+017937Y+010287
X+017787Y+009187
X+016787Y+009187
X+016787Y+010037
X+016087Y+010537
X+015387Y+009587
X+012987Y+009787
X+011187Y+010837
X+011187Y+011787
X+011187Y+012387
X+010187Y+012187
X+010187Y+010387
X+010587Y+008987
X+011487Y+008087
X+012587Y+007187
X+013387Y+006187
X+014137Y+006187
X+014187Y+005387
X+012987Y+005387
X+012187Y+005387
X+011587Y+005387
X+010987Y+005387
X+009987Y+005787
X+009187Y+005787
X+008187Y+005387
X+007787Y+005787
X+006987Y+006587
X+005187Y+007587
X+006787Y+009587
X+007187Y+010437
X+008987Y+009387
X+006987Y+012587
X+010187Y+015387
X+010307Y+016037
X+011387Y+014387
X+013587Y+015187
X+013987Y+014787
X+013587Y+015837
X+016137Y+015887
X+016637Y+013987
X+014987Y+012187
X+013987Y+012587
X+013937Y+007437
X+015387Y+005987
X+017787Y+007987
X+020787Y+005787
X+021987Y+005387
X+021987Y+006587
X+023187Y+004787
X+017187Y+018787
X+015387Y+020787
X+016787Y+023787
X+018087Y+025787
X+019287Y+024387
X+019787Y+024787
X+022587Y+027187
X+022787Y+027787
X+018987Y+030787
X+019587Y+031787
X+017137Y+032737
X+012387Y+032987
X+012387Y+030787
X+012387Y+029787
X+012787Y+029387
X+012787Y+028187
X+012787Y+027187
X+014187Y+028287
X+016587Y+027987
X+011387Y+030787
X+010187Y+030787
X+010187Y+030187
X+010587Y+028187
X+010787Y+026387
X+010387Y+025987
X+006987Y+025587
X+006587Y+024987
X+006587Y+023787
X+006587Y+022587
X+006137Y+019587
X+007787Y+019587
X+006637Y+017587
X+010587Y+020187
X+010587Y+020787
X+010187Y+022387
X+006987Y+027187
X+007187Y+029587
X+007487Y+030787
X+020287Y+019837
T02
X+011437Y+013137
X+012437Y+013137
X+013437Y+013137
X+014437Y+013137
X+015437Y+013137
X+016437Y+013137
X+018687Y+014487
X+019687Y+014487
X+019687Y+015487
X+018687Y+015487
X+018687Y+016487
X+019687Y+016487
X+014037Y+018487
X+009087Y+018037
X+008087Y+018037
X+008087Y+017037
X+009087Y+017037
X+009087Y+016037
X+008087Y+016037
X+008087Y+015037
X+009087Y+015037
X+009087Y+014037
X+008087Y+014037
X+008087Y+013037
X+008087Y+012037
X+009087Y+012037
X+009087Y+011037
X+008087Y+011037
X+008087Y+010037
X+009087Y+010037
X+009087Y+013037
X+010087Y+013037
X+010087Y+014037
X+005687Y+014088
X+004687Y+014088
X+004687Y+013088
X+005687Y+013088
X+005687Y+012088
X+004687Y+012088
X+004687Y+011088
X+005687Y+011088
X+005687Y+010088
X+004687Y+010088
X+004687Y+009088
X+005687Y+009088
X+005687Y+008088
X+004687Y+008088
X+004687Y+007088
X+005687Y+007088
X+005687Y+015088
X+005687Y+016088
X+005687Y+017088
X+005687Y+018088
X+004687Y+018088
X+004687Y+017088
X+004687Y+016088
X+004687Y+015088
X+004687Y+019088
X+005687Y+019088
X+005687Y+020088
X+005687Y+021088
X+004687Y+021088
X+004687Y+020088
X+004687Y+022088
X+004687Y+023088
X+004687Y+024088
X+005687Y+024088
X+005687Y+023088
X+005687Y+022088
X+005687Y+025088
X+005687Y+026088
X+004687Y+026088
X+004687Y+025088
X+004687Y+027844
X+004687Y+028844
X+004687Y+029844
X+004687Y+030844
X+005687Y+030844
X+005687Y+029844
X+005687Y+028844
X+005687Y+027844
X+014037Y+010613
X+018687Y+010237
X+018687Y+009237
X+018687Y+008237
X+019687Y+008237
X+019687Y+009237
X+019687Y+010237
X+019265Y+006259
X+020265Y+006259
X+020265Y+005259
X+019265Y+005259
X+018265Y+005259
X+018265Y+006259
X+017265Y+006259
X+017265Y+005259
X+021265Y+005259
X+021265Y+006259
T03
X+021937Y+028687
X+020953Y+028687
X+020165Y+028687
X+019181Y+028687
T04
X+008937Y+033287
X+008937Y+032287
X+008937Y+031287
X+008937Y+030287
X+008937Y+029287
X+008937Y+028287
X+008937Y+027287
X+008937Y+026287
X+008937Y+025287
X+008937Y+024287
X+008937Y+023287
X+008937Y+022287
X+008937Y+021287
X+008937Y+020287
X+007937Y+020287
X+007937Y+021287
X+007937Y+022287
X+007937Y+023287
X+007937Y+024287
X+007937Y+025287
X+007937Y+026287
X+007937Y+027287
X+007937Y+028287
X+007937Y+029287
X+007937Y+030287
X+007937Y+031287
X+007937Y+032287
X+007937Y+033287
X+014937Y+033287
X+014937Y+032287
X+014937Y+031287
X+014937Y+030287
X+014937Y+029287
X+015937Y+029287
X+015937Y+030287
X+015937Y+028287
X+015937Y+027287
X+014937Y+027287
X+014937Y+026287
X+014937Y+025287
X+015937Y+025287
X+015937Y+026287
X+015937Y+024287
X+014937Y+024287
X+014937Y+023287
X+015937Y+023287
X+015937Y+022287
X+014937Y+022287
X+014937Y+021287
X+014937Y+020287
X+015937Y+020287
X+015937Y+021287
X+014937Y+028287
X+015937Y+033287
T05
X+022687Y+020787
X+022687Y+019787
X+021687Y+019787
X+021687Y+020787
X+021687Y+018787
X+022687Y+018787
X+022687Y+017787
X+022687Y+016787
X+021687Y+016787
X+021687Y+017787
X+021687Y+015787
X+022687Y+015787
X+022687Y+014787
X+022687Y+013787
X+022687Y+012787
X+021687Y+012787
X+021687Y+013787
X+021687Y+014787
X+021687Y+011787
X+022687Y+011787
X+022687Y+010787
X+022687Y+009787
X+021687Y+009787
X+021687Y+010787
X+021687Y+008787
X+022687Y+008787
X+022687Y+007787
X+021687Y+007787
X+017937Y+021187
X+017937Y+022187
X+017937Y+023187
X+020087Y+027587
X+021087Y+027587
X+015937Y+031287
X+015937Y+032287
T06
X+023146Y+029754
X+017972Y+029754
T07
X+019837Y+023287
X+021018Y+025137
X+022199Y+023287
T08
X+005211Y+005211
X+005219Y+033006
T00
M30
