G04 DipTrace 3.0.0.2*
G04 Teensy3.6TouchDisplayLoRa.gto*
%MOIN*%
G04 #@! TF.FileFunction,Legend,Top*
G04 #@! TF.Part,Single*
%ADD10C,0.009843*%
%ADD18C,0.008*%
%ADD39C,0.005*%
%ADD45C,0.000013*%
%ADD49C,0.015431*%
%ADD110C,0.006176*%
%ADD111C,0.007*%
%ADD112C,0.003281*%
%FSLAX26Y26*%
G04*
G70*
G90*
G75*
G01*
G04 TopSilk*
%LPD*%
X2297462Y1769272D2*
D10*
Y1718130D1*
X3368130Y2078719D2*
X3419272D1*
X1742986Y2016145D2*
X1794128D1*
X1508470Y1586752D2*
Y1637894D1*
X2297462Y1969272D2*
Y1918130D1*
X637441Y1537449D2*
D18*
Y1606194D1*
Y1681208D2*
Y1749953D1*
X812451D1*
X849961Y1712446D1*
Y1681208D1*
X637441Y1537449D2*
X812451D1*
X849961Y1574956D1*
Y1606194D1*
X989940Y1868130D2*
D10*
Y1919272D1*
X953074Y791567D2*
D18*
Y874244D1*
X531813Y791567D2*
X740447D1*
X953074D2*
X925498D1*
X531813Y1145866D2*
X953074D1*
Y1063189D1*
X531813Y1145866D2*
Y791567D1*
X543701Y2081701D2*
D10*
X443701D1*
X543701Y681701D2*
Y2081701D1*
Y681701D2*
X443701D1*
Y757301D1*
Y2081701D1*
X1143701Y643701D2*
X1043701D1*
X1143701Y443701D2*
Y643701D1*
Y443701D2*
X1043701D1*
Y643701D1*
X3493701D2*
Y443701D1*
X3293701Y643701D2*
X3493701D1*
X3293701Y443701D2*
X3493701D1*
X3293701Y643701D2*
Y443701D1*
X2528695Y2293701D2*
D39*
Y2248701D1*
Y2143701D2*
Y2188701D1*
X2320689Y2149701D2*
G02X2320689Y2287701I97267J69000D01*
G01*
X643701Y1410401D2*
D10*
Y1218701D1*
Y1518701D2*
Y1218701D1*
X843701Y1518701D2*
Y1218701D1*
X643701Y1518701D2*
X843701D1*
X643701Y1218701D2*
X843701D1*
X643701Y1960401D2*
Y1768701D1*
Y2068701D2*
Y1768701D1*
X843701Y2068701D2*
Y1768701D1*
X643701Y2068701D2*
X843701D1*
X643701Y1768701D2*
X843701D1*
G36*
X1893691Y2264764D2*
X1885817D1*
Y2272638D1*
X1893691D1*
Y2264764D1*
G37*
X1068081Y878002D2*
D10*
G02X1219321Y878002I75620J66569D01*
G01*
X1068081D1*
Y1340559D2*
G02X1219321Y1340559I75620J66569D01*
G01*
X1068081D1*
X1129670Y2037449D2*
G02X1129670Y2037449I295276J0D01*
G01*
X3329555Y1718110D2*
D45*
G02X3329555Y1718110I11784J0D01*
G01*
X2624791Y2296845D2*
D39*
Y2312599D1*
X3262610D1*
Y2296845D1*
X2624791Y1690557D2*
Y1674803D1*
X3262610D1*
Y1690557D1*
X3699950Y662454D2*
D10*
Y762454D1*
X1299950Y662454D2*
X3699950D1*
X1299950D2*
Y762454D1*
X1374350D1*
X3699950D1*
D39*
Y1462454D1*
X1299930D1*
Y1262464D1*
Y1012424D1*
Y762454D1*
X3699950D1*
X1299930Y1262464D2*
X1249950D1*
Y1012424D1*
X1299930D1*
D49*
X924333Y1822581D3*
X1013583Y1823621D2*
D10*
Y1563791D1*
X1123819Y1823621D2*
Y1563791D1*
X1013583D2*
X1123819D1*
X1013583Y1823621D2*
X1123819D1*
X2019889Y1845274D2*
Y2042128D1*
X1917513Y1845274D2*
Y2042128D1*
X2019889D2*
X1917513D1*
X1988395Y1845274D2*
X2019889D1*
X1949007D2*
X1917513D1*
X1988395D2*
G03X1949007Y1845274I-19694J-9D01*
G01*
X3699950Y1462454D2*
Y1562454D1*
X1299950Y1462454D2*
X3699950D1*
X1299950D2*
Y1562454D1*
X1374350D1*
X3699950D1*
X3503498Y1807586D2*
D110*
X3488155Y1847778D1*
X3472856Y1807586D1*
X3478604Y1820983D2*
X3497750D1*
X3515849Y1834381D2*
Y1807586D1*
Y1826732D2*
X3521597Y1832480D1*
X3525444Y1834381D1*
X3531148D1*
X3534994Y1832480D1*
X3536896Y1826732D1*
Y1807586D1*
X3554995Y1847778D2*
Y1815235D1*
X3556896Y1809532D1*
X3560743Y1807586D1*
X3564546D1*
X3549247Y1834381D2*
X3562644D1*
X2320580Y1747076D2*
X2316777Y1745175D1*
X2312930Y1741328D1*
X2311029Y1737525D1*
Y1729876D1*
X2312930Y1726029D1*
X2316777Y1722227D1*
X2320580Y1720281D1*
X2326328Y1718380D1*
X2335923D1*
X2341626Y1720281D1*
X2345473Y1722227D1*
X2349276Y1726029D1*
X2351221Y1729876D1*
Y1737525D1*
X2349276Y1741328D1*
X2345473Y1745175D1*
X2341626Y1747076D1*
X2318723Y1759427D2*
X2316777Y1763274D1*
X2311073Y1769022D1*
X2351221D1*
X3388476Y1913849D2*
X3386575Y1917651D1*
X3382728Y1921498D1*
X3378925Y1923399D1*
X3371276D1*
X3367429Y1921498D1*
X3363627Y1917651D1*
X3361681Y1913849D1*
X3359780Y1908101D1*
Y1898506D1*
X3361681Y1892802D1*
X3363627Y1888955D1*
X3367429Y1885153D1*
X3371276Y1883207D1*
X3378925D1*
X3382728Y1885153D1*
X3386575Y1888955D1*
X3388476Y1892802D1*
X3402773Y1913804D2*
Y1915706D1*
X3404674Y1919552D1*
X3406575Y1921454D1*
X3410422Y1923355D1*
X3418071D1*
X3421874Y1921454D1*
X3423775Y1919552D1*
X3425721Y1915706D1*
Y1911903D1*
X3423775Y1908056D1*
X3419973Y1902353D1*
X3400827Y1883207D1*
X3427622D1*
X1690001Y1939092D2*
X1686199Y1937191D1*
X1682352Y1933344D1*
X1680451Y1929542D1*
Y1921892D1*
X1682352Y1918046D1*
X1686199Y1914243D1*
X1690001Y1912298D1*
X1695749Y1910396D1*
X1705344D1*
X1711048Y1912298D1*
X1714895Y1914243D1*
X1718697Y1918046D1*
X1720643Y1921892D1*
Y1929542D1*
X1718697Y1933344D1*
X1714895Y1937191D1*
X1711048Y1939092D1*
X1720643Y1970589D2*
X1680495D1*
X1707245Y1951444D1*
Y1980140D1*
X1574122Y1690878D2*
X1572220Y1694681D1*
X1568374Y1698528D1*
X1564571Y1700429D1*
X1556922D1*
X1553075Y1698528D1*
X1549272Y1694681D1*
X1547327Y1690878D1*
X1545426Y1685130D1*
Y1675536D1*
X1547327Y1669832D1*
X1549272Y1665985D1*
X1553075Y1662183D1*
X1556922Y1660237D1*
X1564571D1*
X1568374Y1662183D1*
X1572220Y1665985D1*
X1574122Y1669832D1*
X1609421Y1700385D2*
X1590320D1*
X1588418Y1683185D1*
X1590320Y1685086D1*
X1596068Y1687032D1*
X1601772D1*
X1607520Y1685086D1*
X1611366Y1681284D1*
X1613268Y1675536D1*
Y1671733D1*
X1611366Y1665985D1*
X1607520Y1662138D1*
X1601772Y1660237D1*
X1596068D1*
X1590320Y1662138D1*
X1588418Y1664084D1*
X1586473Y1667886D1*
X2222333Y2022256D2*
X2220432Y2026059D1*
X2216585Y2029906D1*
X2212783Y2031807D1*
X2205133D1*
X2201287Y2029906D1*
X2197484Y2026059D1*
X2195539Y2022256D1*
X2193637Y2016508D1*
Y2006914D1*
X2195539Y2001210D1*
X2197484Y1997363D1*
X2201287Y1993561D1*
X2205133Y1991615D1*
X2212783D1*
X2216585Y1993561D1*
X2220432Y1997363D1*
X2222333Y2001210D1*
X2257633Y2026059D2*
X2255731Y2029862D1*
X2249983Y2031763D1*
X2246181D1*
X2240433Y2029862D1*
X2236586Y2024114D1*
X2234685Y2014563D1*
Y2005012D1*
X2236586Y1997363D1*
X2240433Y1993516D1*
X2246181Y1991615D1*
X2248082D1*
X2253786Y1993516D1*
X2257633Y1997363D1*
X2259534Y2003111D1*
Y2005012D1*
X2257633Y2010760D1*
X2253786Y2014563D1*
X2248082Y2016464D1*
X2246181D1*
X2240433Y2014563D1*
X2236586Y2010760D1*
X2234685Y2005012D1*
X738476Y1589324D2*
X736575Y1593126D1*
X732728Y1596973D1*
X728925Y1598874D1*
X721276D1*
X717429Y1596973D1*
X713627Y1593126D1*
X711681Y1589324D1*
X709780Y1583576D1*
Y1573981D1*
X711681Y1568277D1*
X713627Y1564430D1*
X717429Y1560628D1*
X721276Y1558682D1*
X728925D1*
X732728Y1560628D1*
X736575Y1564430D1*
X738476Y1568277D1*
X758477Y1558682D2*
X777622Y1598830D1*
X750827D1*
X1055614Y1972256D2*
X1053712Y1976059D1*
X1049865Y1979906D1*
X1046063Y1981807D1*
X1038414D1*
X1034567Y1979906D1*
X1030764Y1976059D1*
X1028819Y1972256D1*
X1026918Y1966508D1*
Y1956914D1*
X1028819Y1951210D1*
X1030764Y1947363D1*
X1034567Y1943561D1*
X1038414Y1941615D1*
X1046063D1*
X1049865Y1943561D1*
X1053712Y1947363D1*
X1055614Y1951210D1*
X1077516Y1981763D2*
X1071812Y1979862D1*
X1069866Y1976059D1*
Y1972212D1*
X1071812Y1968410D1*
X1075614Y1966464D1*
X1083264Y1964563D1*
X1089012Y1962662D1*
X1092814Y1958815D1*
X1094715Y1955012D1*
Y1949264D1*
X1092814Y1945462D1*
X1090913Y1943516D1*
X1085165Y1941615D1*
X1077516D1*
X1071812Y1943516D1*
X1069866Y1945462D1*
X1067965Y1949264D1*
Y1955012D1*
X1069866Y1958815D1*
X1073713Y1962662D1*
X1079417Y1964563D1*
X1087066Y1966464D1*
X1090913Y1968410D1*
X1092814Y1972212D1*
Y1976059D1*
X1090913Y1979862D1*
X1085165Y1981763D1*
X1077516D1*
X3498700Y1988228D2*
X3496799Y1992030D1*
X3492952Y1995877D1*
X3489150Y1997778D1*
X3481500D1*
X3477654Y1995877D1*
X3473851Y1992030D1*
X3471906Y1988228D1*
X3470004Y1982480D1*
Y1972885D1*
X3471906Y1967181D1*
X3473851Y1963334D1*
X3477654Y1959532D1*
X3481500Y1957586D1*
X3489150D1*
X3492952Y1959532D1*
X3496799Y1963334D1*
X3498700Y1967181D1*
Y1972885D1*
X3489150D1*
X3511052Y1984381D2*
Y1957586D1*
Y1976732D2*
X3516800Y1982480D1*
X3520646Y1984381D1*
X3526350D1*
X3530197Y1982480D1*
X3532098Y1976732D1*
Y1957586D1*
X3567398Y1997778D2*
Y1957586D1*
Y1978633D2*
X3563595Y1982480D1*
X3559748Y1984381D1*
X3554000D1*
X3550198Y1982480D1*
X3546351Y1978633D1*
X3544450Y1972885D1*
Y1969082D1*
X3546351Y1963334D1*
X3550198Y1959532D1*
X3554000Y1957586D1*
X3559748D1*
X3563595Y1959532D1*
X3567398Y1963334D1*
X985123Y469234D2*
X1015720D1*
X1021468Y467332D1*
X1023369Y465387D1*
X1025315Y461584D1*
Y457738D1*
X1023369Y453935D1*
X1021468Y452034D1*
X1015720Y450088D1*
X1011917D1*
X990871Y508380D2*
X987024Y504577D1*
X985123Y498829D1*
Y491180D1*
X987024Y485432D1*
X990871Y481585D1*
X994673D1*
X998520Y483530D1*
X1000421Y485432D1*
X1002322Y489234D1*
X1006169Y500730D1*
X1008071Y504577D1*
X1010016Y506478D1*
X1013819Y508380D1*
X1019567D1*
X1023369Y504577D1*
X1025315Y498829D1*
Y491180D1*
X1023369Y485432D1*
X1019567Y481585D1*
X1006169Y520731D2*
Y537975D1*
X1004268Y543679D1*
X1002322Y545624D1*
X998520Y547526D1*
X992772D1*
X988969Y545624D1*
X987024Y543679D1*
X985123Y537975D1*
Y520731D1*
X1025315D1*
X985123Y559877D2*
X1025315Y569472D1*
X985123Y579022D1*
X1025315Y588573D1*
X985123Y598168D1*
X1004268Y610519D2*
Y627719D1*
X1002322Y633467D1*
X1000421Y635413D1*
X996619Y637314D1*
X992772D1*
X988969Y635413D1*
X987024Y633467D1*
X985123Y627719D1*
Y610519D1*
X1025315D1*
X1004268Y623917D2*
X1025315Y637314D1*
X2400311Y2314789D2*
Y2274597D1*
X2373516Y2314789D1*
Y2274597D1*
X2437512Y2314789D2*
X2412663D1*
Y2274597D1*
X2437512D1*
X2412663Y2295643D2*
X2427961D1*
X2461359Y2314789D2*
X2457512Y2312887D1*
X2453710Y2309041D1*
X2451764Y2305238D1*
X2449863Y2299490D1*
Y2289895D1*
X2451764Y2284191D1*
X2453710Y2280345D1*
X2457512Y2276542D1*
X2461359Y2274597D1*
X2469008D1*
X2472811Y2276542D1*
X2476658Y2280345D1*
X2478559Y2284191D1*
X2480460Y2289895D1*
Y2299490D1*
X2478559Y2305238D1*
X2476658Y2309041D1*
X2472811Y2312887D1*
X2469008Y2314789D1*
X2461359D1*
X1993265Y2210410D2*
Y2227654D1*
X1991364Y2233358D1*
X1989418Y2235303D1*
X1985615Y2237204D1*
X1979867D1*
X1976065Y2235303D1*
X1974119Y2233358D1*
X1972218Y2227654D1*
Y2210410D1*
X2012410D1*
X1972218Y2249556D2*
X2012410Y2259150D1*
X1972218Y2268701D1*
X2012410Y2278252D1*
X1972218Y2287846D1*
X1991363Y2300198D2*
Y2317398D1*
X1989418Y2323146D1*
X1987517Y2325091D1*
X1983714Y2326992D1*
X1979867D1*
X1976065Y2325091D1*
X1974119Y2323146D1*
X1972218Y2317398D1*
Y2300198D1*
X2012410D1*
X1991363Y2313595D2*
X2012410Y2326992D1*
X1258015Y946863D2*
X1259872Y943060D1*
X1263719Y939213D1*
X1267565Y937312D1*
X1273313Y935367D1*
X1282864D1*
X1288612Y937312D1*
X1292415Y939213D1*
X1296261Y943060D1*
X1298163Y946863D1*
Y954512D1*
X1296261Y958359D1*
X1292415Y962161D1*
X1288612Y964063D1*
X1282864Y966008D1*
X1273314D1*
X1267565Y964063D1*
X1263719Y962161D1*
X1259872Y958359D1*
X1258015Y954512D1*
Y946863D1*
X1290513Y952611D2*
X1302009Y964062D1*
X1265708Y978359D2*
X1263763Y982206D1*
X1258059Y987954D1*
X1298207D1*
X1120303Y1566453D2*
X1116501Y1564596D1*
X1112654Y1560750D1*
X1110753Y1556903D1*
X1108807Y1551155D1*
Y1541604D1*
X1110753Y1535856D1*
X1112654Y1532054D1*
X1116501Y1528207D1*
X1120303Y1526306D1*
X1127953D1*
X1131799Y1528207D1*
X1135602Y1532054D1*
X1137503Y1535856D1*
X1139449Y1541604D1*
Y1551155D1*
X1137503Y1556903D1*
X1135602Y1560750D1*
X1131799Y1564596D1*
X1127953Y1566453D1*
X1120303D1*
X1126051Y1533955D2*
X1137503Y1522459D1*
X1153746Y1556859D2*
Y1558760D1*
X1155647Y1562607D1*
X1157548Y1564508D1*
X1161395Y1566409D1*
X1169044D1*
X1172847Y1564508D1*
X1174748Y1562607D1*
X1176693Y1558760D1*
Y1554957D1*
X1174748Y1551111D1*
X1170945Y1545407D1*
X1151800Y1526261D1*
X1178595D1*
X2064405Y2094331D2*
Y2111531D1*
X2062460Y2117279D1*
X2060559Y2119224D1*
X2056756Y2121125D1*
X2052909D1*
X2049107Y2119224D1*
X2047161Y2117279D1*
X2045260Y2111531D1*
Y2094331D1*
X2085452D1*
X2064405Y2107728D2*
X2085452Y2121125D1*
X2052954Y2133477D2*
X2051008Y2137323D1*
X2045304Y2143072D1*
X2085452Y2143071D1*
X1110731Y1162588D2*
X1127931D1*
X1133679Y1164534D1*
X1135624Y1166435D1*
X1137525Y1170237D1*
Y1174084D1*
X1135624Y1177887D1*
X1133679Y1179832D1*
X1127931Y1181734D1*
X1110731D1*
Y1141542D1*
X1124128Y1162588D2*
X1137525Y1141542D1*
X1151822Y1172139D2*
Y1174040D1*
X1153723Y1177887D1*
X1155625Y1179788D1*
X1159471Y1181689D1*
X1167121D1*
X1170923Y1179788D1*
X1172825Y1177887D1*
X1174770Y1174040D1*
Y1170237D1*
X1172825Y1166391D1*
X1169022Y1160687D1*
X1149877Y1141542D1*
X1176671D1*
X935670Y1483617D2*
X952870D1*
X958618Y1485563D1*
X960564Y1487464D1*
X962465Y1491266D1*
Y1495113D1*
X960564Y1498916D1*
X958618Y1500861D1*
X952870Y1502762D1*
X935670D1*
Y1462570D1*
X949068Y1483617D2*
X962465Y1462570D1*
X978663Y1502718D2*
X999666D1*
X988214Y1487420D1*
X993962D1*
X997764Y1485518D1*
X999666Y1483617D1*
X1001611Y1477869D1*
Y1474066D1*
X999666Y1468318D1*
X995863Y1464472D1*
X990115Y1462570D1*
X984367D1*
X978663Y1464472D1*
X976762Y1466417D1*
X974816Y1470220D1*
X1934780Y1812662D2*
X1951980D1*
X1957728Y1814607D1*
X1959673Y1816508D1*
X1961575Y1820311D1*
Y1824158D1*
X1959673Y1827960D1*
X1957728Y1829906D1*
X1951980Y1831807D1*
X1934780D1*
Y1791615D1*
X1948177Y1812662D2*
X1961575Y1791615D1*
X1993071D2*
Y1831763D1*
X1973926Y1805012D1*
X2002622D1*
X2054450Y2225199D2*
X2071650D1*
X2077398Y2227144D1*
X2079343Y2229045D1*
X2081244Y2232848D1*
Y2236695D1*
X2079343Y2240497D1*
X2077398Y2242443D1*
X2071650Y2244344D1*
X2054450D1*
Y2204152D1*
X2067847Y2225199D2*
X2081244Y2204152D1*
X2116544Y2244300D2*
X2097443D1*
X2095541Y2227100D1*
X2097443Y2229001D1*
X2103191Y2230947D1*
X2108894D1*
X2114642Y2229001D1*
X2118489Y2225199D1*
X2120391Y2219451D1*
Y2215648D1*
X2118489Y2209900D1*
X2114642Y2206053D1*
X2108894Y2204152D1*
X2103191D1*
X2097443Y2206053D1*
X2095541Y2207999D1*
X2093596Y2211801D1*
X1110731Y846126D2*
X1127931D1*
X1133679Y848072D1*
X1135624Y849973D1*
X1137525Y853776D1*
Y857622D1*
X1135624Y861425D1*
X1133679Y863370D1*
X1127931Y865272D1*
X1110731D1*
Y825080D1*
X1124128Y846126D2*
X1137525Y825080D1*
X1157526D2*
X1176671Y865227D1*
X1149877D1*
X1210753Y846126D2*
X1227953D1*
X1233701Y848072D1*
X1235646Y849973D1*
X1237547Y853776D1*
Y857622D1*
X1235646Y861425D1*
X1233701Y863370D1*
X1227953Y865272D1*
X1210753D1*
Y825080D1*
X1224150Y846126D2*
X1237547Y825080D1*
X1259449Y865227D2*
X1253746Y863326D1*
X1251800Y859524D1*
Y855677D1*
X1253746Y851874D1*
X1257548Y849929D1*
X1265197Y848027D1*
X1270945Y846126D1*
X1274748Y842279D1*
X1276649Y838477D1*
Y832729D1*
X1274748Y828926D1*
X1272847Y826981D1*
X1267099Y825080D1*
X1259449D1*
X1253746Y826981D1*
X1251800Y828926D1*
X1249899Y832729D1*
Y838477D1*
X1251800Y842279D1*
X1255647Y846126D1*
X1261351Y848027D1*
X1269000Y849929D1*
X1272847Y851874D1*
X1274748Y855677D1*
Y859524D1*
X1272847Y863326D1*
X1267099Y865227D1*
X1259449D1*
X2405697Y2024998D2*
X2422897D1*
X2428645Y2026943D1*
X2430591Y2028844D1*
X2432492Y2032647D1*
Y2036494D1*
X2430591Y2040296D1*
X2428645Y2042242D1*
X2422897Y2044143D1*
X2405697D1*
Y2003951D1*
X2419095Y2024998D2*
X2432492Y2003951D1*
X2444843Y2036449D2*
X2448690Y2038395D1*
X2454438Y2044099D1*
Y2003951D1*
X2474439D2*
X2493584Y2044099D1*
X2466789D1*
X2314405Y1800708D2*
Y1817908D1*
X2312460Y1823656D1*
X2310559Y1825602D1*
X2306756Y1827503D1*
X2302909D1*
X2299107Y1825602D1*
X2297161Y1823656D1*
X2295260Y1817908D1*
Y1800708D1*
X2335452D1*
X2314405Y1814106D2*
X2335452Y1827503D1*
X2302954Y1839854D2*
X2301008Y1843701D1*
X2295304Y1849449D1*
X2335452D1*
X2308657Y1886694D2*
X2314405Y1884748D1*
X2318252Y1880946D1*
X2320154Y1875198D1*
Y1873297D1*
X2318252Y1867548D1*
X2314406Y1863746D1*
X2308657Y1861800D1*
X2306756D1*
X2301008Y1863746D1*
X2297206Y1867549D1*
X2295304Y1873297D1*
Y1875198D1*
X2297206Y1880946D1*
X2301008Y1884748D1*
X2308657Y1886694D1*
X2318252D1*
X2327803Y1884748D1*
X2333551Y1880946D1*
X2335452Y1875198D1*
Y1871395D1*
X2333551Y1865647D1*
X2329704Y1863746D1*
X1368650Y2054207D2*
X1364848Y2058054D1*
X1359100Y2059955D1*
X1351450D1*
X1345702Y2058054D1*
X1341856Y2054207D1*
Y2050404D1*
X1343801Y2046557D1*
X1345702Y2044656D1*
X1349505Y2042755D1*
X1361001Y2038908D1*
X1364848Y2037007D1*
X1366749Y2035061D1*
X1368650Y2031259D1*
Y2025511D1*
X1364848Y2021708D1*
X1359100Y2019763D1*
X1351450D1*
X1345702Y2021708D1*
X1341856Y2025511D1*
X1381002Y2038908D2*
X1398246D1*
X1403950Y2040809D1*
X1405895Y2042755D1*
X1407796Y2046557D1*
Y2052305D1*
X1405895Y2056108D1*
X1403950Y2058054D1*
X1398246Y2059955D1*
X1381002D1*
Y2019763D1*
X1420148Y2059955D2*
Y2019763D1*
X1446942Y2059955D2*
X1420148Y2033160D1*
X1429698Y2042755D2*
X1446942Y2019763D1*
X1459294Y2040809D2*
X1476494D1*
X1482242Y2042755D1*
X1484187Y2044656D1*
X1486088Y2048459D1*
Y2052305D1*
X1484187Y2056108D1*
X1482242Y2058054D1*
X1476494Y2059955D1*
X1459294D1*
Y2019763D1*
X1472691Y2040809D2*
X1486088Y2019763D1*
X1498440Y2052261D2*
X1502287Y2054207D1*
X1508035Y2059911D1*
Y2019763D1*
X2944908Y2016207D2*
Y1987511D1*
X2946809Y1981763D1*
X2950656Y1977960D1*
X2956404Y1976015D1*
X2960207D1*
X2965955Y1977960D1*
X2969801Y1981763D1*
X2971703Y1987511D1*
Y2016207D1*
X2984054Y2008513D2*
X2987901Y2010459D1*
X2993649Y2016163D1*
Y1976015D1*
X1035731Y1795121D2*
Y1766425D1*
X1037632Y1760677D1*
X1041479Y1756875D1*
X1047227Y1754929D1*
X1051029D1*
X1056777Y1756875D1*
X1060624Y1760677D1*
X1062525Y1766425D1*
Y1795121D1*
X1097825Y1795077D2*
X1078723D1*
X1076822Y1777877D1*
X1078723Y1779779D1*
X1084471Y1781724D1*
X1090175D1*
X1095923Y1779779D1*
X1099770Y1775976D1*
X1101671Y1770228D1*
Y1766425D1*
X1099770Y1760677D1*
X1095923Y1756831D1*
X1090175Y1754929D1*
X1084471D1*
X1078723Y1756831D1*
X1076822Y1758776D1*
X1074877Y1762579D1*
X1936703Y1966207D2*
Y1937511D1*
X1938605Y1931763D1*
X1942451Y1927960D1*
X1948199Y1926015D1*
X1952002D1*
X1957750Y1927960D1*
X1961597Y1931763D1*
X1963498Y1937511D1*
Y1966207D1*
X1998797Y1960459D2*
X1996896Y1964261D1*
X1991148Y1966163D1*
X1987346D1*
X1981597Y1964261D1*
X1977751Y1958513D1*
X1975849Y1948963D1*
Y1939412D1*
X1977751Y1931763D1*
X1981597Y1927916D1*
X1987346Y1926015D1*
X1989247D1*
X1994951Y1927916D1*
X1998797Y1931763D1*
X2000699Y1937511D1*
Y1939412D1*
X1998797Y1945160D1*
X1994951Y1948963D1*
X1989247Y1950864D1*
X1987346D1*
X1981597Y1948963D1*
X1977751Y1945160D1*
X1975849Y1939412D1*
X1562328Y473332D2*
D111*
Y443188D1*
X1582424Y473332D2*
X1562328Y453236D1*
X1569491Y460433D2*
X1582424Y443188D1*
X1596424Y463284D2*
Y448925D1*
X1597850Y444648D1*
X1600735Y443188D1*
X1605046D1*
X1607898Y444648D1*
X1612209Y448925D1*
Y463284D2*
Y443188D1*
X1626209Y463284D2*
Y443188D1*
Y454662D2*
X1627668Y458973D1*
X1630520Y461859D1*
X1633405Y463284D1*
X1637716D1*
X1656027Y473332D2*
Y448925D1*
X1657453Y444648D1*
X1660338Y443188D1*
X1663190D1*
X1651716Y463284D2*
X1661764D1*
X1684386Y473299D2*
X1677190Y464677D1*
X1685812Y471873D1*
X1684386Y473299D1*
X1715597Y458973D2*
X1714171Y461859D1*
X1709860Y463284D1*
X1705549D1*
X1701238Y461859D1*
X1699812Y458973D1*
X1701238Y456122D1*
X1704123Y454662D1*
X1711286Y453236D1*
X1714171Y451811D1*
X1715597Y448925D1*
Y447500D1*
X1714171Y444648D1*
X1709860Y443188D1*
X1705549D1*
X1701238Y444648D1*
X1699812Y447500D1*
X1773542Y473332D2*
Y443188D1*
X1763494Y473332D2*
X1783590D1*
X1797590Y454662D2*
X1814801D1*
Y457548D1*
X1813375Y460433D1*
X1811949Y461859D1*
X1809064Y463284D1*
X1804753D1*
X1801901Y461859D1*
X1799016Y458973D1*
X1797590Y454662D1*
Y451811D1*
X1799016Y447500D1*
X1801901Y444648D1*
X1804753Y443188D1*
X1809064D1*
X1811949Y444648D1*
X1814801Y447500D1*
X1828801Y454662D2*
X1846012D1*
Y457548D1*
X1844586Y460433D1*
X1843160Y461859D1*
X1840275Y463284D1*
X1835964D1*
X1833112Y461859D1*
X1830227Y458973D1*
X1828801Y454662D1*
Y451811D1*
X1830227Y447500D1*
X1833112Y444648D1*
X1835964Y443188D1*
X1840275D1*
X1843160Y444648D1*
X1846012Y447500D1*
X1860012Y463284D2*
Y443188D1*
Y457548D2*
X1864323Y461859D1*
X1867208Y463284D1*
X1871486D1*
X1874371Y461859D1*
X1875797Y457548D1*
Y443188D1*
X1905582Y458973D2*
X1904156Y461859D1*
X1899845Y463284D1*
X1895534D1*
X1891223Y461859D1*
X1889797Y458973D1*
X1891223Y456122D1*
X1894108Y454662D1*
X1901271Y453236D1*
X1904156Y451811D1*
X1905582Y448925D1*
Y447500D1*
X1904156Y444648D1*
X1899845Y443188D1*
X1895534D1*
X1891223Y444648D1*
X1889797Y447500D1*
X1921041Y463284D2*
X1929630Y443188D1*
X1926778Y437452D1*
X1923893Y434566D1*
X1921041Y433140D1*
X1919582D1*
X1938252Y463284D2*
X1929630Y443188D1*
X1989034Y473299D2*
X2004786D1*
X1996197Y461825D1*
X2000508D1*
X2003360Y460399D1*
X2004786Y458973D1*
X2006245Y454662D1*
Y451811D1*
X2004786Y447500D1*
X2001934Y444614D1*
X1997623Y443188D1*
X1993312D1*
X1989034Y444614D1*
X1987608Y446074D1*
X1986149Y448925D1*
X2021671Y446074D2*
X2020245Y444614D1*
X2021671Y443188D1*
X2023130Y444614D1*
X2021671Y446074D1*
X2054341Y473299D2*
X2040015D1*
X2038590Y460399D1*
X2040015Y461825D1*
X2044326Y463284D1*
X2048604D1*
X2052915Y461825D1*
X2055800Y458973D1*
X2057226Y454662D1*
Y451811D1*
X2055800Y447500D1*
X2052915Y444614D1*
X2048604Y443188D1*
X2044326D1*
X2040015Y444614D1*
X2038590Y446074D1*
X2037130Y448925D1*
X2071226Y443188D2*
X2091322Y473299D1*
X2122533Y469021D2*
X2121107Y471873D1*
X2116796Y473299D1*
X2113944D1*
X2109633Y471873D1*
X2106748Y467562D1*
X2105322Y460399D1*
Y453236D1*
X2106748Y447500D1*
X2109633Y444614D1*
X2113944Y443188D1*
X2115370D1*
X2119648Y444614D1*
X2122533Y447500D1*
X2123959Y451811D1*
Y453236D1*
X2122533Y457548D1*
X2119648Y460399D1*
X2115370Y461825D1*
X2113944D1*
X2109633Y460399D1*
X2106748Y457548D1*
X2105322Y453236D1*
X2181904Y473332D2*
Y443188D1*
X2171856Y473332D2*
X2191952D1*
X2213115Y463284D2*
X2210263Y461859D1*
X2207378Y458973D1*
X2205952Y454662D1*
Y451811D1*
X2207378Y447500D1*
X2210263Y444648D1*
X2213115Y443188D1*
X2217426D1*
X2220311Y444648D1*
X2223163Y447500D1*
X2224622Y451811D1*
Y454662D1*
X2223163Y458973D1*
X2220311Y461859D1*
X2217426Y463284D1*
X2213115D1*
X2238622D2*
Y448925D1*
X2240048Y444648D1*
X2242933Y443188D1*
X2247244D1*
X2250096Y444648D1*
X2254407Y448925D1*
Y463284D2*
Y443188D1*
X2285651Y458973D2*
X2282766Y461859D1*
X2279881Y463284D1*
X2275603D1*
X2272718Y461859D1*
X2269866Y458973D1*
X2268407Y454662D1*
Y451811D1*
X2269866Y447500D1*
X2272718Y444648D1*
X2275603Y443188D1*
X2279881D1*
X2282766Y444648D1*
X2285651Y447500D1*
X2299651Y473332D2*
Y443188D1*
Y457548D2*
X2303962Y461859D1*
X2306848Y463284D1*
X2311159D1*
X2314010Y461859D1*
X2315436Y457548D1*
Y443188D1*
X2383429Y469021D2*
X2380578Y471907D1*
X2376267Y473332D1*
X2370530D1*
X2366219Y471907D1*
X2363333Y469021D1*
Y466170D1*
X2364793Y463284D1*
X2366219Y461859D1*
X2369070Y460433D1*
X2377692Y457548D1*
X2380578Y456122D1*
X2382003Y454662D1*
X2383429Y451811D1*
Y447500D1*
X2380578Y444648D1*
X2376267Y443188D1*
X2370530D1*
X2366219Y444648D1*
X2363333Y447500D1*
X2414674Y458973D2*
X2411788Y461859D1*
X2408903Y463284D1*
X2404626D1*
X2401740Y461859D1*
X2398889Y458973D1*
X2397429Y454662D1*
Y451811D1*
X2398889Y447500D1*
X2401740Y444648D1*
X2404626Y443188D1*
X2408903D1*
X2411788Y444648D1*
X2414674Y447500D1*
X2428674Y463284D2*
Y443188D1*
Y454662D2*
X2430133Y458973D1*
X2432985Y461859D1*
X2435870Y463284D1*
X2440181D1*
X2454181Y454662D2*
X2471392D1*
Y457548D1*
X2469966Y460433D1*
X2468540Y461859D1*
X2465655Y463284D1*
X2461344D1*
X2458492Y461859D1*
X2455607Y458973D1*
X2454181Y454662D1*
Y451811D1*
X2455607Y447500D1*
X2458492Y444648D1*
X2461344Y443188D1*
X2465655D1*
X2468540Y444648D1*
X2471392Y447500D1*
X2485392Y454662D2*
X2502603D1*
Y457548D1*
X2501177Y460433D1*
X2499751Y461859D1*
X2496866Y463284D1*
X2492555D1*
X2489703Y461859D1*
X2486818Y458973D1*
X2485392Y454662D1*
Y451811D1*
X2486818Y447500D1*
X2489703Y444648D1*
X2492555Y443188D1*
X2496866D1*
X2499751Y444648D1*
X2502603Y447500D1*
X2516603Y463284D2*
Y443188D1*
Y457548D2*
X2520914Y461859D1*
X2523799Y463284D1*
X2528076D1*
X2530962Y461859D1*
X2532388Y457548D1*
Y443188D1*
X2601806Y466170D2*
X2600381Y469021D1*
X2597495Y471907D1*
X2594644Y473332D1*
X2588907D1*
X2586022Y471907D1*
X2583170Y469021D1*
X2581710Y466170D1*
X2580285Y461859D1*
Y454662D1*
X2581710Y450385D1*
X2583170Y447500D1*
X2586022Y444648D1*
X2588907Y443188D1*
X2594644D1*
X2597495Y444648D1*
X2600381Y447500D1*
X2601806Y450385D1*
Y454662D1*
X2594644D1*
X2615806Y457548D2*
X2628740D1*
X2633017Y458973D1*
X2634477Y460433D1*
X2635902Y463284D1*
Y467596D1*
X2634477Y470447D1*
X2633017Y471907D1*
X2628740Y473332D1*
X2615806D1*
Y443188D1*
X2683800Y473332D2*
Y443188D1*
X2696733D1*
X2701044Y444648D1*
X2702470Y446074D1*
X2703896Y448925D1*
Y453236D1*
X2702470Y456122D1*
X2701044Y457548D1*
X2696733Y458973D1*
X2701044Y460433D1*
X2702470Y461859D1*
X2703896Y464710D1*
Y467596D1*
X2702470Y470447D1*
X2701044Y471907D1*
X2696733Y473332D1*
X2683800D1*
Y458973D2*
X2696733D1*
X2725058Y463284D2*
X2722207Y461859D1*
X2719321Y458973D1*
X2717896Y454662D1*
Y451811D1*
X2719321Y447500D1*
X2722207Y444648D1*
X2725058Y443188D1*
X2729369D1*
X2732255Y444648D1*
X2735106Y447500D1*
X2736566Y451811D1*
Y454662D1*
X2735106Y458973D1*
X2732255Y461859D1*
X2729369Y463284D1*
X2725058D1*
X2767777D2*
Y443188D1*
Y458973D2*
X2764925Y461859D1*
X2762040Y463284D1*
X2757762D1*
X2754877Y461859D1*
X2752025Y458973D1*
X2750566Y454662D1*
Y451811D1*
X2752025Y447500D1*
X2754877Y444648D1*
X2757762Y443188D1*
X2762040D1*
X2764925Y444648D1*
X2767777Y447500D1*
X2781777Y463284D2*
Y443188D1*
Y454662D2*
X2783236Y458973D1*
X2786088Y461859D1*
X2788973Y463284D1*
X2793284D1*
X2824495Y473332D2*
Y443188D1*
Y458973D2*
X2821643Y461859D1*
X2818758Y463284D1*
X2814447D1*
X2811595Y461859D1*
X2808710Y458973D1*
X2807284Y454662D1*
Y451811D1*
X2808710Y447500D1*
X2811595Y444648D1*
X2814447Y443188D1*
X2818758D1*
X2821643Y444648D1*
X2824495Y447500D1*
X2872392Y473332D2*
X2883866Y443188D1*
X2895340Y473332D1*
X2917962Y473299D2*
X2913651Y471873D1*
X2910765Y467562D1*
X2909340Y460399D1*
Y456088D1*
X2910765Y448925D1*
X2913651Y444614D1*
X2917962Y443188D1*
X2920813D1*
X2925124Y444614D1*
X2927976Y448925D1*
X2929436Y456088D1*
Y460399D1*
X2927976Y467562D1*
X2925124Y471873D1*
X2920813Y473299D1*
X2917962D1*
X2927976Y467562D2*
X2910765Y448925D1*
X2944861Y446074D2*
X2943436Y444614D1*
X2944861Y443188D1*
X2946321Y444614D1*
X2944861Y446074D1*
X2961780Y466136D2*
Y467562D1*
X2963206Y470447D1*
X2964632Y471873D1*
X2967517Y473299D1*
X2973254D1*
X2976106Y471873D1*
X2977532Y470447D1*
X2978991Y467562D1*
Y464710D1*
X2977532Y461825D1*
X2974680Y457548D1*
X2960321Y443188D1*
X2980417D1*
X775312Y2108488D2*
Y2082655D1*
X762412Y2095555D2*
X788245D1*
X819456Y2110627D2*
X805130D1*
X803704Y2097727D1*
X805130Y2099153D1*
X809441Y2100613D1*
X813719D1*
X818030Y2099153D1*
X820915Y2096302D1*
X822341Y2091991D1*
Y2089139D1*
X820915Y2084828D1*
X818030Y2081943D1*
X813719Y2080517D1*
X809441D1*
X805130Y2081943D1*
X803704Y2083402D1*
X802245Y2086254D1*
X836341Y2100613D2*
X844963Y2080517D1*
X853552Y2100613D1*
X658947Y2109747D2*
X657521Y2112599D1*
X654636Y2115484D1*
X651784Y2116910D1*
X646047D1*
X643162Y2115484D1*
X640310Y2112599D1*
X638851Y2109747D1*
X637425Y2105436D1*
Y2098240D1*
X638851Y2093962D1*
X640310Y2091077D1*
X643162Y2088225D1*
X646047Y2086766D1*
X651784D1*
X654636Y2088225D1*
X657521Y2091077D1*
X658947Y2093962D1*
Y2098240D1*
X651784D1*
X693043Y2116910D2*
Y2086766D1*
X672947Y2116910D1*
Y2086766D1*
X707043Y2116910D2*
Y2086766D1*
X717091D1*
X721402Y2088225D1*
X724287Y2091077D1*
X725713Y2093962D1*
X727139Y2098240D1*
Y2105436D1*
X725713Y2109747D1*
X724287Y2112599D1*
X721402Y2115484D1*
X717091Y2116910D1*
X707043D1*
X658947Y1197343D2*
X657521Y1200195D1*
X654636Y1203080D1*
X651784Y1204506D1*
X646047D1*
X643162Y1203080D1*
X640310Y1200195D1*
X638851Y1197343D1*
X637425Y1193032D1*
Y1185836D1*
X638851Y1181558D1*
X640310Y1178673D1*
X643162Y1175821D1*
X646047Y1174362D1*
X651784D1*
X654636Y1175821D1*
X657521Y1178673D1*
X658947Y1181558D1*
Y1185836D1*
X651784D1*
X693043Y1204506D2*
Y1174362D1*
X672947Y1204506D1*
Y1174362D1*
X707043Y1204506D2*
Y1174362D1*
X717091D1*
X721402Y1175821D1*
X724287Y1178673D1*
X725713Y1181558D1*
X727139Y1185836D1*
Y1193032D1*
X725713Y1197343D1*
X724287Y1200195D1*
X721402Y1203080D1*
X717091Y1204506D1*
X707043D1*
X759048Y1204473D2*
X774800D1*
X766211Y1192999D1*
X770522D1*
X773374Y1191573D1*
X774800Y1190147D1*
X776259Y1185836D1*
Y1182984D1*
X774800Y1178673D1*
X771948Y1175788D1*
X767637Y1174362D1*
X763326D1*
X759048Y1175788D1*
X757622Y1177247D1*
X756163Y1180099D1*
X791685Y1177247D2*
X790259Y1175788D1*
X791685Y1174362D1*
X793144Y1175788D1*
X791685Y1177247D1*
X810029Y1204473D2*
X825781D1*
X817192Y1192999D1*
X821503D1*
X824355Y1191573D1*
X825781Y1190147D1*
X827240Y1185836D1*
Y1182984D1*
X825781Y1178673D1*
X822929Y1175788D1*
X818618Y1174362D1*
X814307D1*
X810029Y1175788D1*
X808603Y1177247D1*
X807144Y1180099D1*
X841240Y1194458D2*
X849862Y1174362D1*
X858451Y1194458D1*
X1445963Y648281D2*
X1441652Y646855D1*
X1438767Y642544D1*
X1437341Y635381D1*
Y631070D1*
X1438767Y623907D1*
X1441652Y619596D1*
X1445963Y618170D1*
X1448815D1*
X1453126Y619596D1*
X1455978Y623907D1*
X1457437Y631070D1*
Y635381D1*
X1455978Y642544D1*
X1453126Y646855D1*
X1448815Y648281D1*
X1445963D1*
X1455978Y642544D2*
X1438767Y623907D1*
X1543580Y642544D2*
X1546465Y644003D1*
X1550776Y648281D1*
Y618170D1*
X1645029Y641118D2*
Y642544D1*
X1646455Y645429D1*
X1647881Y646855D1*
X1650766Y648281D1*
X1656503D1*
X1659355Y646855D1*
X1660781Y645429D1*
X1662240Y642544D1*
Y639692D1*
X1660781Y636807D1*
X1657929Y632529D1*
X1643570Y618170D1*
X1663666D1*
X1740195Y648281D2*
X1755947D1*
X1747358Y636807D1*
X1751669D1*
X1754521Y635381D1*
X1755947Y633955D1*
X1757406Y629644D1*
Y626792D1*
X1755947Y622481D1*
X1753095Y619596D1*
X1748784Y618170D1*
X1744473D1*
X1740195Y619596D1*
X1738769Y621055D1*
X1737310Y623907D1*
X1851658Y618170D2*
Y648281D1*
X1837299Y628218D1*
X1858821D1*
X1954500Y648281D2*
X1940174D1*
X1938748Y635381D1*
X1940174Y636807D1*
X1944485Y638266D1*
X1948763D1*
X1953074Y636807D1*
X1955959Y633955D1*
X1957385Y629644D1*
Y626792D1*
X1955959Y622481D1*
X1953074Y619596D1*
X1948763Y618170D1*
X1944485D1*
X1940174Y619596D1*
X1938748Y621055D1*
X1937289Y623907D1*
X2054489Y644003D2*
X2053063Y646855D1*
X2048752Y648281D1*
X2045900D1*
X2041589Y646855D1*
X2038704Y642544D1*
X2037278Y635381D1*
Y628218D1*
X2038704Y622481D1*
X2041589Y619596D1*
X2045900Y618170D1*
X2047326D1*
X2051604Y619596D1*
X2054489Y622481D1*
X2055915Y626792D1*
Y628218D1*
X2054489Y632529D1*
X2051604Y635381D1*
X2047326Y636807D1*
X2045900D1*
X2041589Y635381D1*
X2038704Y632529D1*
X2037278Y628218D1*
X2149254Y618170D2*
X2163613Y648281D1*
X2143517D1*
X2244420D2*
X2240143Y646855D1*
X2238683Y644003D1*
Y641118D1*
X2240143Y638266D1*
X2242994Y636807D1*
X2248731Y635381D1*
X2253042Y633955D1*
X2255894Y631070D1*
X2257320Y628218D1*
Y623907D1*
X2255894Y621055D1*
X2254468Y619596D1*
X2250157Y618170D1*
X2244420D1*
X2240143Y619596D1*
X2238683Y621055D1*
X2237257Y623907D1*
Y628218D1*
X2238683Y631070D1*
X2241568Y633955D1*
X2245846Y635381D1*
X2251583Y636807D1*
X2254468Y638266D1*
X2255894Y641118D1*
Y644003D1*
X2254468Y646855D1*
X2250157Y648281D1*
X2244420D1*
X2362166Y638266D2*
X2360707Y633955D1*
X2357855Y631070D1*
X2353544Y629644D1*
X2352118D1*
X2347807Y631070D1*
X2344955Y633955D1*
X2343496Y638266D1*
Y639692D1*
X2344955Y644003D1*
X2347807Y646855D1*
X2352118Y648281D1*
X2353544D1*
X2357855Y646855D1*
X2360707Y644003D1*
X2362166Y638266D1*
Y631070D1*
X2360707Y623907D1*
X2357855Y619596D1*
X2353544Y618170D1*
X2350692D1*
X2346381Y619596D1*
X2344955Y622481D1*
X2430987Y642544D2*
X2433872Y644003D1*
X2438183Y648281D1*
Y618170D1*
X2460805Y648281D2*
X2456494Y646855D1*
X2453609Y642544D1*
X2452183Y635381D1*
Y631070D1*
X2453609Y623907D1*
X2456494Y619596D1*
X2460805Y618170D1*
X2463657D1*
X2467968Y619596D1*
X2470820Y623907D1*
X2472279Y631070D1*
Y635381D1*
X2470820Y642544D1*
X2467968Y646855D1*
X2463657Y648281D1*
X2460805D1*
X2470820Y642544D2*
X2453609Y623907D1*
X2537226Y642544D2*
X2540111Y644003D1*
X2544422Y648281D1*
Y618170D1*
X2558422Y642544D2*
X2561307Y644003D1*
X2565618Y648281D1*
Y618170D1*
X2630966Y642544D2*
X2633851Y644003D1*
X2638162Y648281D1*
Y618170D1*
X2653621Y641118D2*
Y642544D1*
X2655047Y645429D1*
X2656473Y646855D1*
X2659358Y648281D1*
X2665095D1*
X2667947Y646855D1*
X2669373Y645429D1*
X2670832Y642544D1*
Y639692D1*
X2669373Y636807D1*
X2666521Y632529D1*
X2652162Y618170D1*
X2672258D1*
X2624717Y1598694D2*
X2627602Y1600153D1*
X2631913Y1604431D1*
Y1574320D1*
X2648798Y1604431D2*
X2664550D1*
X2655961Y1592957D1*
X2660272D1*
X2663124Y1591531D1*
X2664550Y1590105D1*
X2666009Y1585794D1*
Y1582942D1*
X2664550Y1578631D1*
X2661698Y1575746D1*
X2657387Y1574320D1*
X2653076D1*
X2648798Y1575746D1*
X2647372Y1577205D1*
X2645913Y1580057D1*
X2524727Y1598694D2*
X2527612Y1600153D1*
X2531923Y1604431D1*
Y1574320D1*
X2560282D2*
Y1604431D1*
X2545923Y1584368D1*
X2567445D1*
X2702594Y642032D2*
X2718346D1*
X2709757Y630558D1*
X2714068D1*
X2716920Y629132D1*
X2718346Y627706D1*
X2719805Y623395D1*
Y620543D1*
X2718346Y616232D1*
X2715494Y613347D1*
X2711183Y611921D1*
X2706872D1*
X2702594Y613347D1*
X2701168Y614806D1*
X2699709Y617658D1*
X2735231Y614806D2*
X2733805Y613347D1*
X2735231Y611921D1*
X2736690Y613347D1*
X2735231Y614806D1*
X2753575Y642032D2*
X2769327D1*
X2760738Y630558D1*
X2765049D1*
X2767901Y629132D1*
X2769327Y627706D1*
X2770786Y623395D1*
Y620543D1*
X2769327Y616232D1*
X2766475Y613347D1*
X2762164Y611921D1*
X2757853D1*
X2753575Y613347D1*
X2752149Y614806D1*
X2750690Y617658D1*
X2784786Y632017D2*
X2793408Y611921D1*
X2801997Y632017D1*
X2826155Y641118D2*
Y642544D1*
X2827581Y645429D1*
X2829007Y646855D1*
X2831892Y648281D1*
X2837629D1*
X2840481Y646855D1*
X2841907Y645429D1*
X2843366Y642544D1*
Y639692D1*
X2841907Y636807D1*
X2839055Y632529D1*
X2824696Y618170D1*
X2844792D1*
X2873151D2*
Y648281D1*
X2858792Y628218D1*
X2880314D1*
X2926144Y641118D2*
Y642544D1*
X2927570Y645429D1*
X2928996Y646855D1*
X2931881Y648281D1*
X2937618D1*
X2940470Y646855D1*
X2941896Y645429D1*
X2943355Y642544D1*
Y639692D1*
X2941896Y636807D1*
X2939044Y632529D1*
X2924685Y618170D1*
X2944781D1*
X2975992Y648281D2*
X2961666D1*
X2960240Y635381D1*
X2961666Y636807D1*
X2965977Y638266D1*
X2970255D1*
X2974566Y636807D1*
X2977451Y633955D1*
X2978877Y629644D1*
Y626792D1*
X2977451Y622481D1*
X2974566Y619596D1*
X2970255Y618170D1*
X2965977D1*
X2961666Y619596D1*
X2960240Y621055D1*
X2958781Y623907D1*
X3026134Y634869D2*
Y636295D1*
X3027560Y639180D1*
X3028986Y640606D1*
X3031871Y642032D1*
X3037608D1*
X3040460Y640606D1*
X3041886Y639180D1*
X3043345Y636295D1*
Y633443D1*
X3041886Y630558D1*
X3039034Y626280D1*
X3024675Y611921D1*
X3044771D1*
X3075982Y637754D2*
X3074556Y640606D1*
X3070245Y642032D1*
X3067393D1*
X3063082Y640606D1*
X3060197Y636295D1*
X3058771Y629132D1*
Y621969D1*
X3060197Y616232D1*
X3063082Y613347D1*
X3067393Y611921D1*
X3068819D1*
X3073097Y613347D1*
X3075982Y616232D1*
X3077408Y620543D1*
Y621969D1*
X3075982Y626280D1*
X3073097Y629132D1*
X3068819Y630558D1*
X3067393D1*
X3063082Y629132D1*
X3060197Y626280D1*
X3058771Y621969D1*
X3126123Y634869D2*
Y636295D1*
X3127549Y639180D1*
X3128975Y640606D1*
X3131860Y642032D1*
X3137597D1*
X3140449Y640606D1*
X3141875Y639180D1*
X3143334Y636295D1*
Y633443D1*
X3141875Y630558D1*
X3139023Y626280D1*
X3124664Y611921D1*
X3144760D1*
X3164497D2*
X3178856Y642032D1*
X3158760D1*
X3552505Y648281D2*
X3568257D1*
X3559668Y636807D1*
X3563979D1*
X3566831Y635381D1*
X3568257Y633955D1*
X3569716Y629644D1*
Y626792D1*
X3568257Y622481D1*
X3565405Y619596D1*
X3561094Y618170D1*
X3556783D1*
X3552505Y619596D1*
X3551079Y621055D1*
X3549620Y623907D1*
X3583716Y642544D2*
X3586601Y644003D1*
X3590912Y648281D1*
Y618170D1*
X3627497Y648281D2*
X3643249D1*
X3634660Y636807D1*
X3638971D1*
X3641823Y635381D1*
X3643249Y633955D1*
X3644708Y629644D1*
Y626792D1*
X3643249Y622481D1*
X3640397Y619596D1*
X3636086Y618170D1*
X3631775D1*
X3627497Y619596D1*
X3626071Y621055D1*
X3624612Y623907D1*
X3660167Y641118D2*
Y642544D1*
X3661593Y645429D1*
X3663019Y646855D1*
X3665904Y648281D1*
X3671641D1*
X3674493Y646855D1*
X3675919Y645429D1*
X3677378Y642544D1*
Y639692D1*
X3675919Y636807D1*
X3673067Y632529D1*
X3658708Y618170D1*
X3678804D1*
X2430987Y1604943D2*
X2433872Y1606402D1*
X2438183Y1610680D1*
Y1580569D1*
X2469394Y1610680D2*
X2455068D1*
X2453642Y1597780D1*
X2455068Y1599206D1*
X2459379Y1600665D1*
X2463657D1*
X2467968Y1599206D1*
X2470853Y1596354D1*
X2472279Y1592043D1*
Y1589191D1*
X2470853Y1584880D1*
X2467968Y1581995D1*
X2463657Y1580569D1*
X2459379D1*
X2455068Y1581995D1*
X2453642Y1583454D1*
X2452183Y1586306D1*
X2324748Y1604943D2*
X2327633Y1606402D1*
X2331944Y1610680D1*
Y1580569D1*
X2363155Y1606402D2*
X2361729Y1609254D1*
X2357418Y1610680D1*
X2354566D1*
X2350255Y1609254D1*
X2347370Y1604943D1*
X2345944Y1597780D1*
Y1590617D1*
X2347370Y1584880D1*
X2350255Y1581995D1*
X2354566Y1580569D1*
X2355992D1*
X2360270Y1581995D1*
X2363155Y1584880D1*
X2364581Y1589191D1*
Y1590617D1*
X2363155Y1594928D1*
X2360270Y1597780D1*
X2355992Y1599206D1*
X2354566D1*
X2350255Y1597780D1*
X2347370Y1594928D1*
X2345944Y1590617D1*
X2224759Y1604943D2*
X2227644Y1606402D1*
X2231955Y1610680D1*
Y1580569D1*
X2251692D2*
X2266051Y1610680D1*
X2245955D1*
X2124769Y1604943D2*
X2127654Y1606402D1*
X2131965Y1610680D1*
Y1580569D1*
X2153128Y1610680D2*
X2148850Y1609254D1*
X2147391Y1606402D1*
Y1603517D1*
X2148850Y1600665D1*
X2151702Y1599206D1*
X2157439Y1597780D1*
X2161750Y1596354D1*
X2164602Y1593469D1*
X2166028Y1590617D1*
Y1586306D1*
X2164602Y1583454D1*
X2163176Y1581995D1*
X2158865Y1580569D1*
X2153128D1*
X2148850Y1581995D1*
X2147391Y1583454D1*
X2145965Y1586306D1*
Y1590617D1*
X2147391Y1593469D1*
X2150276Y1596354D1*
X2154554Y1597780D1*
X2160291Y1599206D1*
X2163176Y1600665D1*
X2164602Y1603517D1*
Y1606402D1*
X2163176Y1609254D1*
X2158865Y1610680D1*
X2153128D1*
X2031029Y1604943D2*
X2033914Y1606402D1*
X2038225Y1610680D1*
Y1580569D1*
X2070895Y1600665D2*
X2069436Y1596354D1*
X2066584Y1593469D1*
X2062273Y1592043D1*
X2060847D1*
X2056536Y1593469D1*
X2053684Y1596354D1*
X2052225Y1600665D1*
Y1602091D1*
X2053684Y1606402D1*
X2056536Y1609254D1*
X2060847Y1610680D1*
X2062273D1*
X2066584Y1609254D1*
X2069436Y1606402D1*
X2070895Y1600665D1*
Y1593469D1*
X2069436Y1586306D1*
X2066584Y1581995D1*
X2062273Y1580569D1*
X2059421D1*
X2055110Y1581995D1*
X2053684Y1584880D1*
X1920000Y1603517D2*
Y1604943D1*
X1921426Y1607828D1*
X1922852Y1609254D1*
X1925737Y1610680D1*
X1931474D1*
X1934326Y1609254D1*
X1935752Y1607828D1*
X1937211Y1604943D1*
Y1602091D1*
X1935752Y1599206D1*
X1932900Y1594928D1*
X1918541Y1580569D1*
X1938637D1*
X1961259Y1610680D2*
X1956948Y1609254D1*
X1954063Y1604943D1*
X1952637Y1597780D1*
Y1593469D1*
X1954063Y1586306D1*
X1956948Y1581995D1*
X1961259Y1580569D1*
X1964111D1*
X1968422Y1581995D1*
X1971274Y1586306D1*
X1972733Y1593469D1*
Y1597780D1*
X1971274Y1604943D1*
X1968422Y1609254D1*
X1964111Y1610680D1*
X1961259D1*
X1971274Y1604943D2*
X1954063Y1586306D1*
X1826260Y1603517D2*
Y1604943D1*
X1827686Y1607828D1*
X1829112Y1609254D1*
X1831997Y1610680D1*
X1837734D1*
X1840586Y1609254D1*
X1842012Y1607828D1*
X1843471Y1604943D1*
Y1602091D1*
X1842012Y1599206D1*
X1839160Y1594928D1*
X1824801Y1580569D1*
X1844897D1*
X1858897Y1604943D2*
X1861782Y1606402D1*
X1866093Y1610680D1*
Y1580569D1*
X1726270Y1603517D2*
Y1604943D1*
X1727696Y1607828D1*
X1729122Y1609254D1*
X1732007Y1610680D1*
X1737744D1*
X1740596Y1609254D1*
X1742022Y1607828D1*
X1743481Y1604943D1*
Y1602091D1*
X1742022Y1599206D1*
X1739170Y1594928D1*
X1724811Y1580569D1*
X1744907D1*
X1760366Y1603517D2*
Y1604943D1*
X1761792Y1607828D1*
X1763218Y1609254D1*
X1766103Y1610680D1*
X1771840D1*
X1774692Y1609254D1*
X1776118Y1607828D1*
X1777577Y1604943D1*
Y1602091D1*
X1776118Y1599206D1*
X1773266Y1594928D1*
X1758907Y1580569D1*
X1779003D1*
X1312355Y1610713D2*
X1323828Y1580569D1*
X1335302Y1610713D1*
X1349302D2*
Y1580569D1*
X1383398Y1610713D2*
Y1580569D1*
X1363302Y1610713D1*
Y1580569D1*
X1441574Y1574320D2*
X1430067Y1604464D1*
X1418593Y1574320D1*
X1422904Y1584368D2*
X1437263D1*
X1477096Y1597301D2*
X1475670Y1600153D1*
X1472785Y1603038D1*
X1469933Y1604464D1*
X1464197D1*
X1461311Y1603038D1*
X1458460Y1600153D1*
X1457000Y1597301D1*
X1455574Y1592990D1*
Y1585794D1*
X1457000Y1581516D1*
X1458460Y1578631D1*
X1461311Y1575779D1*
X1464197Y1574320D1*
X1469933D1*
X1472785Y1575779D1*
X1475670Y1578631D1*
X1477096Y1581516D1*
Y1585794D1*
X1469933D1*
X2727480Y1603550D2*
X2726054Y1606402D1*
X2723169Y1609287D1*
X2720317Y1610713D1*
X2714580D1*
X2711695Y1609287D1*
X2708843Y1606402D1*
X2707384Y1603550D1*
X2705958Y1599239D1*
Y1592043D1*
X2707384Y1587765D1*
X2708843Y1584880D1*
X2711695Y1582028D1*
X2714580Y1580569D1*
X2720317D1*
X2723169Y1582028D1*
X2726054Y1584880D1*
X2727480Y1587765D1*
Y1592043D1*
X2720317D1*
X2761576Y1610713D2*
Y1580569D1*
X2741480Y1610713D1*
Y1580569D1*
X2775576Y1610713D2*
Y1580569D1*
X2785624D1*
X2789935Y1582028D1*
X2792820Y1584880D1*
X2794246Y1587765D1*
X2795672Y1592043D1*
Y1599239D1*
X2794246Y1603550D1*
X2792820Y1606402D1*
X2789935Y1609287D1*
X2785624Y1610713D1*
X2775576D1*
X2933657Y1574231D2*
X2963801D1*
X2963802Y1584279D1*
X2962342Y1588590D1*
X2959490Y1591475D1*
X2956605Y1592901D1*
X2952328Y1594327D1*
X2945131D1*
X2940820Y1592901D1*
X2937969Y1591475D1*
X2935083Y1588590D1*
X2933657Y1584279D1*
Y1574231D1*
X2963801Y1631308D2*
X2933658Y1619801D1*
X2963801Y1608327D1*
X2953753Y1612638D2*
Y1626997D1*
X2940820Y1666830D2*
X2937969Y1665404D1*
X2935083Y1662519D1*
X2933657Y1659667D1*
Y1653930D1*
X2935083Y1651045D1*
X2937969Y1648193D1*
X2940820Y1646734D1*
X2945131Y1645308D1*
X2952328D1*
X2956605Y1646734D1*
X2959490Y1648193D1*
X2962342Y1651045D1*
X2963801Y1653930D1*
Y1659667D1*
X2962342Y1662519D1*
X2959490Y1665404D1*
X2956605Y1666830D1*
X2933691Y1689452D2*
X2935117Y1685141D1*
X2939428Y1682256D1*
X2946591Y1680830D1*
X2950902D1*
X2958064Y1682256D1*
X2962376Y1685141D1*
X2963801Y1689452D1*
Y1692304D1*
X2962376Y1696615D1*
X2958064Y1699467D1*
X2950902Y1700926D1*
X2946591D1*
X2939428Y1699467D1*
X2935117Y1696615D1*
X2933691Y1692304D1*
Y1689452D1*
X2939428Y1699467D2*
X2958064Y1682256D1*
X2827218Y1574432D2*
X2857362D1*
Y1584480D1*
X2855903Y1588791D1*
X2853051Y1591676D1*
X2850166Y1593102D1*
X2845888Y1594528D1*
X2838692D1*
X2834381Y1593102D1*
X2831529Y1591676D1*
X2828644Y1588791D1*
X2827218Y1584480D1*
Y1574432D1*
X2857362Y1631509D2*
X2827218Y1620002D1*
X2857362Y1608528D1*
X2847314Y1612839D2*
Y1627198D1*
X2834381Y1667031D2*
X2831529Y1665605D1*
X2828644Y1662720D1*
X2827218Y1659868D1*
Y1654131D1*
X2828644Y1651246D1*
X2831529Y1648394D1*
X2834381Y1646935D1*
X2838692Y1645509D1*
X2845888D1*
X2850166Y1646935D1*
X2853051Y1648394D1*
X2855903Y1651246D1*
X2857362Y1654131D1*
Y1659868D1*
X2855903Y1662720D1*
X2853051Y1665605D1*
X2850166Y1667031D1*
X2832988Y1681031D2*
X2831529Y1683916D1*
X2827251Y1688227D1*
X2857362D1*
X3027560Y1604431D2*
X3043312D1*
X3034723Y1592957D1*
X3039034D1*
X3041886Y1591531D1*
X3043312Y1590105D1*
X3044771Y1585794D1*
Y1582942D1*
X3043312Y1578631D1*
X3040460Y1575746D1*
X3036149Y1574320D1*
X3031838D1*
X3027560Y1575746D1*
X3026134Y1577205D1*
X3024675Y1580057D1*
X3077441Y1594416D2*
X3075982Y1590105D1*
X3073130Y1587220D1*
X3068819Y1585794D1*
X3067393D1*
X3063082Y1587220D1*
X3060230Y1590105D1*
X3058771Y1594416D1*
Y1595842D1*
X3060230Y1600153D1*
X3063082Y1603005D1*
X3067393Y1604431D1*
X3068819D1*
X3073130Y1603005D1*
X3075982Y1600153D1*
X3077441Y1594416D1*
Y1587220D1*
X3075982Y1580057D1*
X3073130Y1575746D1*
X3068819Y1574320D1*
X3065967D1*
X3061656Y1575746D1*
X3060230Y1578631D1*
X3127549Y1610680D2*
X3143301D1*
X3134712Y1599206D1*
X3139023D1*
X3141875Y1597780D1*
X3143301Y1596354D1*
X3144760Y1592043D1*
Y1589191D1*
X3143301Y1584880D1*
X3140449Y1581995D1*
X3136138Y1580569D1*
X3131827D1*
X3127549Y1581995D1*
X3126123Y1583454D1*
X3124664Y1586306D1*
X3165923Y1610680D2*
X3161645Y1609254D1*
X3160186Y1606402D1*
Y1603517D1*
X3161645Y1600665D1*
X3164497Y1599206D1*
X3170234Y1597780D1*
X3174545Y1596354D1*
X3177397Y1593469D1*
X3178823Y1590617D1*
Y1586306D1*
X3177397Y1583454D1*
X3175971Y1581995D1*
X3171660Y1580569D1*
X3165923D1*
X3161645Y1581995D1*
X3160186Y1583454D1*
X3158760Y1586306D1*
Y1590617D1*
X3160186Y1593469D1*
X3163071Y1596354D1*
X3167349Y1597780D1*
X3173086Y1599206D1*
X3175971Y1600665D1*
X3177397Y1603517D1*
Y1606402D1*
X3175971Y1609254D1*
X3171660Y1610680D1*
X3165923D1*
X3221289D2*
X3237041D1*
X3228452Y1599206D1*
X3232763D1*
X3235615Y1597780D1*
X3237041Y1596354D1*
X3238500Y1592043D1*
Y1589191D1*
X3237041Y1584880D1*
X3234189Y1581995D1*
X3229878Y1580569D1*
X3225567D1*
X3221289Y1581995D1*
X3219864Y1583454D1*
X3218404Y1586306D1*
X3258237Y1580569D2*
X3272596Y1610680D1*
X3252500D1*
X3321279D2*
X3337031D1*
X3328442Y1599206D1*
X3332753D1*
X3335605Y1597780D1*
X3337031Y1596354D1*
X3338490Y1592043D1*
Y1589191D1*
X3337031Y1584880D1*
X3334179Y1581995D1*
X3329868Y1580569D1*
X3325557D1*
X3321279Y1581995D1*
X3319853Y1583454D1*
X3318394Y1586306D1*
X3369701Y1606402D2*
X3368275Y1609254D1*
X3363964Y1610680D1*
X3361112D1*
X3356801Y1609254D1*
X3353916Y1604943D1*
X3352490Y1597780D1*
Y1590617D1*
X3353916Y1584880D1*
X3356801Y1581995D1*
X3361112Y1580569D1*
X3362538D1*
X3366816Y1581995D1*
X3369701Y1584880D1*
X3371127Y1589191D1*
Y1590617D1*
X3369701Y1594928D1*
X3366816Y1597780D1*
X3362538Y1599206D1*
X3361112D1*
X3356801Y1597780D1*
X3353916Y1594928D1*
X3352490Y1590617D1*
X3421268Y1610680D2*
X3437020D1*
X3428431Y1599206D1*
X3432742D1*
X3435594Y1597780D1*
X3437020Y1596354D1*
X3438479Y1592043D1*
Y1589191D1*
X3437020Y1584880D1*
X3434168Y1581995D1*
X3429857Y1580569D1*
X3425546D1*
X3421268Y1581995D1*
X3419843Y1583454D1*
X3418383Y1586306D1*
X3469690Y1610680D2*
X3455364D1*
X3453939Y1597780D1*
X3455364Y1599206D1*
X3459676Y1600665D1*
X3463953D1*
X3468264Y1599206D1*
X3471149Y1596354D1*
X3472575Y1592043D1*
Y1589191D1*
X3471149Y1584880D1*
X3468264Y1581995D1*
X3463953Y1580569D1*
X3459676D1*
X3455364Y1581995D1*
X3453939Y1583454D1*
X3452479Y1586306D1*
X3521258Y1616929D2*
X3537010D1*
X3528421Y1605455D1*
X3532732D1*
X3535584Y1604029D1*
X3537010Y1602603D1*
X3538469Y1598292D1*
Y1595440D1*
X3537010Y1591129D1*
X3534158Y1588244D1*
X3529847Y1586818D1*
X3525536D1*
X3521258Y1588244D1*
X3519832Y1589703D1*
X3518373Y1592555D1*
X3566828Y1586818D2*
Y1616929D1*
X3552469Y1596866D1*
X3573991D1*
X3627497Y1610680D2*
X3643249D1*
X3634660Y1599206D1*
X3638971D1*
X3641823Y1597780D1*
X3643249Y1596354D1*
X3644708Y1592043D1*
Y1589191D1*
X3643249Y1584880D1*
X3640397Y1581995D1*
X3636086Y1580569D1*
X3631775D1*
X3627497Y1581995D1*
X3626071Y1583454D1*
X3624612Y1586306D1*
X3661593Y1610680D2*
X3677345D1*
X3668756Y1599206D1*
X3673067D1*
X3675919Y1597780D1*
X3677345Y1596354D1*
X3678804Y1592043D1*
Y1589191D1*
X3677345Y1584880D1*
X3674493Y1581995D1*
X3670182Y1580569D1*
X3665871D1*
X3661593Y1581995D1*
X3660167Y1583454D1*
X3658708Y1586306D1*
X562433Y2048167D2*
Y2018023D1*
X572481D1*
X576792Y2019482D1*
X579677Y2022334D1*
X581103Y2025219D1*
X582529Y2029497D1*
Y2036693D1*
X581103Y2041004D1*
X579677Y2043856D1*
X576792Y2046741D1*
X572481Y2048167D1*
X562433D1*
X599414Y2048134D2*
X615166D1*
X606577Y2036660D1*
X610888D1*
X613740Y2035234D1*
X615166Y2033808D1*
X616625Y2029497D1*
Y2026645D1*
X615166Y2022334D1*
X612314Y2019449D1*
X608003Y2018023D1*
X603692D1*
X599414Y2019449D1*
X597988Y2020908D1*
X596529Y2023760D1*
X556184Y1941928D2*
Y1911784D1*
X566232D1*
X570543Y1913243D1*
X573428Y1916095D1*
X574854Y1918980D1*
X576280Y1923258D1*
Y1930454D1*
X574854Y1934765D1*
X573428Y1937617D1*
X570543Y1940502D1*
X566232Y1941928D1*
X556184D1*
X590280Y1936158D2*
X593165Y1937617D1*
X597476Y1941895D1*
Y1911784D1*
X612935Y1934732D2*
Y1936158D1*
X614361Y1939043D1*
X615787Y1940469D1*
X618672Y1941895D1*
X624409D1*
X627261Y1940469D1*
X628687Y1939043D1*
X630146Y1936158D1*
Y1933306D1*
X628687Y1930421D1*
X625835Y1926143D1*
X611476Y1911784D1*
X631572D1*
X562433Y1841939D2*
Y1811795D1*
X572481D1*
X576792Y1813254D1*
X579677Y1816106D1*
X581103Y1818991D1*
X582529Y1823269D1*
Y1830465D1*
X581103Y1834776D1*
X579677Y1837628D1*
X576792Y1840513D1*
X572481Y1841939D1*
X562433D1*
X602266Y1811795D2*
X616625Y1841906D1*
X596529D1*
X556184Y1748199D2*
Y1718055D1*
X566232D1*
X570543Y1719514D1*
X573428Y1722366D1*
X574854Y1725251D1*
X576280Y1729529D1*
Y1736725D1*
X574854Y1741036D1*
X573428Y1743888D1*
X570543Y1746773D1*
X566232Y1748199D1*
X556184D1*
X597443Y1748165D2*
X593165Y1746740D1*
X591706Y1743888D1*
Y1741003D1*
X593165Y1738151D1*
X596017Y1736692D1*
X601754Y1735266D1*
X606065Y1733840D1*
X608917Y1730955D1*
X610343Y1728103D1*
Y1723792D1*
X608917Y1720940D1*
X607491Y1719481D1*
X603180Y1718055D1*
X597443D1*
X593165Y1719481D1*
X591706Y1720940D1*
X590280Y1723792D1*
Y1728103D1*
X591706Y1730955D1*
X594591Y1733840D1*
X598869Y1735266D1*
X604606Y1736692D1*
X607491Y1738151D1*
X608917Y1741003D1*
Y1743888D1*
X607491Y1746740D1*
X603180Y1748165D1*
X597443D1*
X556455Y1596806D2*
X576551D1*
Y1603505D1*
X575578Y1606379D1*
X573677Y1608302D1*
X571754Y1609253D1*
X568902Y1610203D1*
X564104D1*
X561230Y1609253D1*
X559329Y1608302D1*
X557406Y1606379D1*
X556455Y1603505D1*
Y1596806D1*
X560302Y1624203D2*
X559329Y1626127D1*
X556477Y1629001D1*
X576551D1*
Y1652573D2*
X556477D1*
X569852Y1643001D1*
Y1657349D1*
X556184Y1566968D2*
Y1536824D1*
X566232D1*
X570543Y1538283D1*
X573428Y1541135D1*
X574854Y1544020D1*
X576280Y1548298D1*
Y1555494D1*
X574854Y1559805D1*
X573428Y1562657D1*
X570543Y1565542D1*
X566232Y1566968D1*
X556184D1*
X590280Y1561198D2*
X593165Y1562657D1*
X597476Y1566934D1*
Y1536824D1*
X612935Y1559772D2*
Y1561198D1*
X614361Y1564083D1*
X615787Y1565509D1*
X618672Y1566934D1*
X624409D1*
X627261Y1565509D1*
X628687Y1564083D1*
X630146Y1561198D1*
Y1558346D1*
X628687Y1555461D1*
X625835Y1551183D1*
X611476Y1536824D1*
X631572D1*
X556184Y1441981D2*
Y1411837D1*
X566232D1*
X570543Y1413296D1*
X573428Y1416148D1*
X574854Y1419033D1*
X576280Y1423311D1*
Y1430507D1*
X574854Y1434818D1*
X573428Y1437670D1*
X570543Y1440555D1*
X566232Y1441981D1*
X556184D1*
X607491Y1437670D2*
X606065Y1440522D1*
X601754Y1441948D1*
X598902D1*
X594591Y1440522D1*
X591706Y1436211D1*
X590280Y1429048D1*
Y1421885D1*
X591706Y1416148D1*
X594591Y1413263D1*
X598902Y1411837D1*
X600328D1*
X604606Y1413263D1*
X607491Y1416148D1*
X608917Y1420459D1*
Y1421885D1*
X607491Y1426196D1*
X604606Y1429048D1*
X600328Y1430474D1*
X598902D1*
X594591Y1429048D1*
X591706Y1426196D1*
X590280Y1421885D1*
X556184Y1348241D2*
Y1318097D1*
X566232D1*
X570543Y1319556D1*
X573428Y1322408D1*
X574854Y1325293D1*
X576280Y1329571D1*
Y1336767D1*
X574854Y1341078D1*
X573428Y1343930D1*
X570543Y1346815D1*
X566232Y1348241D1*
X556184D1*
X590280Y1342470D2*
X593165Y1343930D1*
X597476Y1348207D1*
Y1318097D1*
X625835D2*
Y1348207D1*
X611476Y1328145D1*
X632998D1*
X556184Y1248251D2*
Y1218107D1*
X566232D1*
X570543Y1219566D1*
X573428Y1222418D1*
X574854Y1225303D1*
X576280Y1229581D1*
Y1236777D1*
X574854Y1241088D1*
X573428Y1243940D1*
X570543Y1246825D1*
X566232Y1248251D1*
X556184D1*
X596017Y1218107D2*
X610376Y1248218D1*
X590280D1*
X587431Y1148262D2*
Y1118118D1*
X597479D1*
X601790Y1119577D1*
X604675Y1122429D1*
X606101Y1125314D1*
X607527Y1129592D1*
Y1136788D1*
X606101Y1141099D1*
X604675Y1143951D1*
X601790Y1146836D1*
X597479Y1148262D1*
X587431D1*
X622986Y1141066D2*
Y1142491D1*
X624412Y1145377D1*
X625838Y1146803D1*
X628723Y1148228D1*
X634460D1*
X637312Y1146803D1*
X638738Y1145377D1*
X640197Y1142491D1*
Y1139640D1*
X638738Y1136755D1*
X635886Y1132477D1*
X621527Y1118118D1*
X641623D1*
X657082Y1141066D2*
Y1142491D1*
X658508Y1145377D1*
X659934Y1146803D1*
X662819Y1148228D1*
X668556D1*
X671408Y1146803D1*
X672834Y1145377D1*
X674293Y1142491D1*
Y1139640D1*
X672834Y1136755D1*
X669982Y1132477D1*
X655623Y1118118D1*
X675719D1*
X556184Y1033913D2*
X569084D1*
X573395Y1035372D1*
X574854Y1036798D1*
X576280Y1039650D1*
Y1042535D1*
X574854Y1045387D1*
X573395Y1046846D1*
X569084Y1048272D1*
X556184D1*
Y1018128D1*
X566232Y1033913D2*
X576280Y1018128D1*
X610376Y1043961D2*
X607524Y1046846D1*
X603213Y1048272D1*
X597476D1*
X593165Y1046846D1*
X590280Y1043961D1*
Y1041109D1*
X591739Y1038224D1*
X593165Y1036798D1*
X596017Y1035372D1*
X604639Y1032487D1*
X607524Y1031061D1*
X608950Y1029602D1*
X610376Y1026750D1*
Y1022439D1*
X607524Y1019587D1*
X603213Y1018128D1*
X597476D1*
X593165Y1019587D1*
X590280Y1022439D1*
X634424Y1048272D2*
Y1018128D1*
X624376Y1048272D2*
X644472D1*
X556184Y942033D2*
Y911889D1*
X566232D1*
X570543Y913348D1*
X573428Y916200D1*
X574854Y919085D1*
X576280Y923363D1*
Y930559D1*
X574854Y934870D1*
X573428Y937722D1*
X570543Y940607D1*
X566232Y942033D1*
X556184D1*
X590280Y936263D2*
X593165Y937722D1*
X597476Y942000D1*
Y911889D1*
X628687Y942000D2*
X614361D1*
X612935Y929100D1*
X614361Y930526D1*
X618672Y931985D1*
X622950D1*
X627261Y930526D1*
X630146Y927674D1*
X631572Y923363D1*
Y920511D1*
X630146Y916200D1*
X627261Y913315D1*
X622950Y911889D1*
X618672D1*
X614361Y913315D1*
X612935Y914774D1*
X611476Y917626D1*
X577706Y834881D2*
X576280Y837733D1*
X573395Y840618D1*
X570543Y842044D1*
X564806D1*
X561921Y840618D1*
X559069Y837733D1*
X557610Y834881D1*
X556184Y830570D1*
Y823374D1*
X557610Y819096D1*
X559069Y816211D1*
X561921Y813359D1*
X564806Y811900D1*
X570543D1*
X573395Y813359D1*
X576280Y816211D1*
X577706Y819096D1*
Y823374D1*
X570543D1*
X611802Y842044D2*
Y811900D1*
X591706Y842044D1*
Y811900D1*
X625802Y842044D2*
Y811900D1*
X635850D1*
X640161Y813359D1*
X643046Y816211D1*
X644472Y819096D1*
X645898Y823374D1*
Y830570D1*
X644472Y834881D1*
X643046Y837733D1*
X640161Y840618D1*
X635850Y842044D1*
X625802D1*
X556184Y742054D2*
X567658Y711910D1*
X579132Y742054D1*
X593132D2*
Y711910D1*
X627228Y742054D2*
Y711910D1*
X607132Y742054D1*
Y711910D1*
X3257402Y605714D2*
X3277498Y613385D1*
X3257402Y621034D1*
X3264101Y618160D2*
Y608588D1*
X3273651Y591714D2*
X3274624Y589790D1*
X3277476Y586916D1*
X3257402D1*
X3277476Y561442D2*
Y570993D1*
X3268876Y571943D1*
X3269827Y570993D1*
X3270799Y568119D1*
Y565267D1*
X3269827Y562393D1*
X3267925Y560470D1*
X3265051Y559519D1*
X3263150D1*
X3260276Y560470D1*
X3258353Y562393D1*
X3257402Y565267D1*
Y568119D1*
X3258353Y570993D1*
X3259326Y571943D1*
X3261227Y572916D1*
X3257402Y511973D2*
X3277498Y519645D1*
X3257402Y527294D1*
X3264101Y524420D2*
Y514847D1*
X3273651Y497973D2*
X3274624Y496050D1*
X3277476Y493176D1*
X3257402D1*
Y469603D2*
X3277476D1*
X3264101Y479176D1*
Y464828D1*
X3531312Y468600D2*
X3511216Y460929D1*
X3531312Y453280D1*
X3524614Y456154D2*
Y465727D1*
X3515063Y482601D2*
X3514090Y484524D1*
X3511238Y487398D1*
X3531312D1*
X3511238Y503321D2*
Y513822D1*
X3518888Y508097D1*
Y510971D1*
X3519838Y512872D1*
X3520789Y513822D1*
X3523663Y514795D1*
X3525564D1*
X3528438Y513822D1*
X3530362Y511921D1*
X3531312Y509047D1*
Y506173D1*
X3530362Y503321D1*
X3529389Y502371D1*
X3527488Y501398D1*
X3531312Y581089D2*
X3511216Y573417D1*
X3531312Y565768D1*
X3524614Y568642D2*
Y578215D1*
X3515063Y595089D2*
X3514090Y597012D1*
X3511238Y599886D1*
X3531312D1*
X3514090Y625360D2*
X3512189Y624409D1*
X3511238Y621535D1*
Y619634D1*
X3512189Y616760D1*
X3515063Y614837D1*
X3519838Y613886D1*
X3524614D1*
X3528438Y614837D1*
X3530362Y616760D1*
X3531312Y619634D1*
Y620585D1*
X3530362Y623437D1*
X3528438Y625360D1*
X3525564Y626311D1*
X3524614D1*
X3521739Y625360D1*
X3519838Y623437D1*
X3518888Y620585D1*
Y619634D1*
X3519838Y616760D1*
X3521740Y614837D1*
X3524614Y613886D1*
X2466632Y1185075D2*
D112*
Y1134835D1*
X2449886Y1185075D2*
X2483379D1*
X2494749Y1185020D2*
X2521002D1*
X2506687Y1165896D1*
X2513872D1*
X2518626Y1163520D1*
X2521002Y1161143D1*
X2523434Y1153958D1*
Y1149205D1*
X2521002Y1142020D1*
X2516249Y1137212D1*
X2509064Y1134835D1*
X2501879D1*
X2494749Y1137212D1*
X2492373Y1139643D1*
X2489941Y1144397D1*
X2558681Y1177890D2*
X2556304Y1182643D1*
X2549119Y1185020D1*
X2544366D1*
X2537181Y1182643D1*
X2532372Y1175458D1*
X2529996Y1163520D1*
Y1151582D1*
X2532372Y1142020D1*
X2537181Y1137212D1*
X2544366Y1134835D1*
X2546742D1*
X2553872Y1137212D1*
X2558681Y1142020D1*
X2561057Y1149205D1*
Y1151582D1*
X2558681Y1158767D1*
X2553872Y1163520D1*
X2546742Y1165896D1*
X2544366D1*
X2537181Y1163520D1*
X2532372Y1158767D1*
X2529996Y1151582D1*
M02*
