M48
INCH
T01C0.0191
T02C0.025
T03C0.0276
T04C0.0315
T05C0.0354
T06C0.0394
T07C0.0433
T08C0.0984
T09C0.125
%
T06
X+035187Y+017562
X+035187Y+019062
T08
X+009531Y+009687
X+007169Y+009687
X+008350Y+007837
T05
X+004937Y+007317
X+004937Y+008317
X+004937Y+009317
X+004937Y+010317
X+004937Y+011317
X+004937Y+012317
X+004937Y+013317
X+004937Y+014317
X+004937Y+015317
X+004937Y+016317
X+004937Y+017317
X+004937Y+018317
X+004937Y+019317
X+004937Y+020317
X+010937Y+004937
X+010937Y+005937
X+033437Y+005937
X+034437Y+005937
X+033437Y+004937
X+034437Y+004937
T04
X+025287Y+022187
X+024637Y+022187
X+023937Y+022187
X+023287Y+022187
T05
X+006937Y+014687
X+007937Y+014687
X+006937Y+013687
X+007937Y+013687
X+006937Y+012687
X+007937Y+012687
X+006937Y+020187
X+007937Y+020187
X+006937Y+019187
X+007937Y+019187
X+006937Y+018187
X+007937Y+018187
T03
X+010937Y+009311
X+011437Y+009311
X+011937Y+009311
X+010937Y+013937
X+011437Y+013937
X+011937Y+013937
T07
X+014249Y+021871
X+014249Y+018878
T09
X+036614Y+005118
X+006693Y+005118
X+006693Y+022441
X+036614Y+022441
T05
X+013500Y+007125
X+014500Y+007125
X+015500Y+007125
X+016500Y+007125
X+017500Y+007125
X+018500Y+007125
X+019500Y+007125
X+020500Y+007125
X+021500Y+007125
X+022500Y+007125
X+023500Y+007125
X+024500Y+007125
X+025500Y+007125
X+026500Y+007125
X+027500Y+007125
X+028500Y+007125
X+029500Y+007125
X+030500Y+007125
X+031500Y+007125
X+032500Y+007125
X+033500Y+007125
X+034500Y+007125
X+035500Y+007125
X+036500Y+007125
T06
X+013500Y+008125
X+014500Y+008125
X+015500Y+008125
X+016500Y+008125
X+017500Y+008125
X+018500Y+008125
X+019500Y+008125
X+020500Y+008125
X+021500Y+008125
X+022500Y+008125
X+023500Y+008125
X+024500Y+008125
X+025500Y+008125
X+026500Y+008125
X+027500Y+008125
X+028500Y+008125
X+029500Y+008125
X+030500Y+008125
X+031500Y+008125
X+032500Y+008125
X+033500Y+008125
X+034500Y+008125
X+035500Y+008125
X+036500Y+008125
X+031500Y+009125
X+031500Y+010125
X+031500Y+011125
X+031500Y+012125
X+031500Y+013125
X+031500Y+014125
X+032500Y+014125
X+033500Y+014125
X+034500Y+014125
X+035500Y+014125
X+036500Y+014125
X+030500Y+014125
X+029500Y+014125
X+028500Y+014125
X+027500Y+014125
X+026500Y+014125
X+025500Y+014125
X+024500Y+014125
X+023500Y+014125
X+022500Y+014125
X+021500Y+014125
X+020500Y+014125
X+019500Y+014125
X+018500Y+014125
X+017500Y+014125
X+016500Y+014125
X+015500Y+014125
X+014500Y+014125
X+013500Y+014125
X+014500Y+013125
X+016500Y+013125
X+017500Y+013125
X+018500Y+013125
X+016000Y+009375
X+017000Y+009375
X+018000Y+009375
X+019000Y+009375
X+020000Y+009375
T05
X+013500Y+015125
X+014500Y+015125
X+015500Y+015125
X+016500Y+015125
X+017500Y+015125
X+018500Y+015125
X+019500Y+015125
X+020500Y+015125
X+021500Y+015125
X+022500Y+015125
X+023500Y+015125
X+024500Y+015125
X+025500Y+015125
X+026500Y+015125
X+027500Y+015125
X+028500Y+015125
X+029500Y+015125
X+030500Y+015125
X+031500Y+015125
X+032500Y+015125
X+033500Y+015125
X+034500Y+015125
X+035500Y+015125
X+036500Y+015125
T01
X+022498Y+021810
X+011936Y+022935
X+016561Y+018998
X+016937Y+022737
X+033496Y+017998
X+016937Y+016137
T02
X+033434Y+020373
T01
X+027537Y+009137
X+029537Y+009137
X+005937Y+015137
X+023137Y+018937
X+024247Y+020248
X+024247Y+021185
X+014561Y+011749
X+034684Y+016498
X+025560Y+021498
X+021685Y+011749
X+023337Y+018337
X+023337Y+017537
X+021748Y+020060
X+019937Y+019537
X+034559Y+020935
X+033559Y+012436
X+006687Y+016498
T02
X+014998Y+006437
X+019537Y+009937
X+019560Y+011624
X+010311Y+015936
X+012874Y+016811
T01
X+014123Y+006374
X+006249Y+019748
X+006249Y+012749
X+005937Y+009737
T02
X+017936Y+016852
X+018926Y+017513
X+011061Y+012687
T01
X+021060Y+011760
X+037246Y+015998
X+035371Y+016811
X+034659Y+020311
X+035434Y+022185
T00
M30
