G04 DipTrace 3.0.0.2*
G04 Teensy3.6TouchDisplayLoRa.gts*
%MOIN*%
G04 #@! TF.FileFunction,Soldermask,Top*
G04 #@! TF.Part,Single*
%AMOUTLINE4*
4,1,8,
-0.019685,-0.029528,
-0.009843,-0.03937,
0.009843,-0.03937,
0.019685,-0.029528,
0.019685,0.029528,
0.009843,0.03937,
-0.009843,0.03937,
-0.019685,0.029528,
-0.019685,-0.029528,
0*%
%AMOUTLINE5*
4,1,8,
-0.020685,-0.029942,
-0.010257,-0.04037,
0.010257,-0.04037,
0.020685,-0.029942,
0.020685,0.029942,
0.010257,0.04037,
-0.010257,0.04037,
-0.020685,0.029942,
-0.020685,-0.029942,
0*%
%AMOUTLINE7*
4,1,4,
-0.03937,-0.015748,
0.03937,-0.015748,
0.03937,0.015748,
-0.03937,0.015748,
-0.03937,-0.015748,
0*%
%AMOUTLINE8*
4,1,4,
0.03937,0.015748,
-0.03937,0.015748,
-0.03937,-0.015748,
0.03937,-0.015748,
0.03937,0.015748,
0*%
%AMOUTLINE9*
4,1,4,
0.08,-0.03,
0.08,0.03,
-0.08,0.03,
-0.08,-0.03,
0.08,-0.03,
0*%
%AMOUTLINE10*
4,1,4,
0.04,-0.02,
0.04,0.02,
-0.04,0.02,
-0.04,-0.02,
0.04,-0.02,
0*%
%ADD13C,0.04*%
%ADD29C,0.05*%
%ADD31C,0.066*%
%ADD35R,0.1X0.05*%
%ADD36C,0.15748*%
%ADD37R,0.059055X0.059055*%
%ADD38C,0.059055*%
%ADD40C,0.05315*%
%ADD41R,0.047244X0.047244*%
%ADD46R,0.064173X0.064173*%
%ADD47C,0.064173*%
%ADD64C,0.167*%
%ADD66C,0.042*%
%ADD68C,0.052*%
%ADD74R,0.08074X0.025622*%
%ADD76R,0.086646X0.129953*%
%ADD78R,0.086646X0.039402*%
%ADD86C,0.076803*%
%ADD88R,0.076803X0.076803*%
%ADD90O,0.04137X0.08074*%
%ADD96C,0.061055*%
%ADD98R,0.061055X0.061055*%
%ADD104R,0.061055X0.053181*%
%ADD106R,0.053181X0.061055*%
%ADD117OUTLINE4*%
%ADD118OUTLINE5*%
%ADD120OUTLINE7*%
%ADD121OUTLINE8*%
%ADD122OUTLINE9*%
%ADD123OUTLINE10*%
%FSLAX26Y26*%
G04*
G70*
G90*
G75*
G01*
G04 TopMask*
%LPD*%
D68*
X1793583Y1685209D3*
X1892630Y1751251D3*
X1106126Y1268701D3*
D66*
X2106021Y1175954D3*
X3724601Y1599824D3*
X3537121Y1681066D3*
X3465903Y2031122D3*
X3543370Y2218509D3*
D64*
X3661418Y511811D3*
X669292D3*
Y2244095D3*
X3661418D3*
D13*
X2249756Y2181013D3*
X1193617Y2293502D3*
X1656068Y1899793D3*
X1693701Y2273701D3*
X3349641Y1799803D3*
X1693701Y1613701D3*
D29*
X3343391Y2037278D3*
D13*
X2753701Y913701D3*
X2953701D3*
X593701Y1513701D3*
X2313701Y1893701D3*
X2424738Y2024780D3*
Y2118520D3*
X1456089Y1174869D3*
X3468378Y1649819D3*
X2555974Y2149767D3*
X2168515Y1174869D3*
X2333701Y1833701D3*
Y1753701D3*
X2174764Y2006032D3*
X1993701Y1953701D3*
X3455879Y2093523D3*
X3355890Y1243612D3*
X668672Y1649819D3*
D29*
X1499835Y643675D3*
X1953701Y993701D3*
X1956037Y1162370D3*
X1031134Y1593575D3*
X1287357Y1681066D3*
D13*
X1412344Y637425D3*
X624927Y1974785D3*
Y1274858D3*
X593701Y973701D3*
D31*
X3518701Y1756200D3*
D106*
X2256103Y1743701D3*
X2181299D3*
D104*
X3393701Y2037360D3*
Y1962557D3*
X1768557Y1974785D3*
Y1899982D3*
D106*
X1549830Y1612323D3*
X1624633D3*
X2256103Y1943701D3*
X2181299D3*
D35*
X831201Y1643701D3*
X656201D3*
D106*
X1031299Y1893701D3*
X1106103D3*
D31*
X3518701Y1906200D3*
D36*
X953071Y968701D3*
X716851D3*
X834961Y783662D3*
D98*
X493701Y731701D3*
D96*
Y831701D3*
Y931701D3*
Y1031701D3*
Y1131701D3*
Y1231701D3*
Y1331701D3*
Y1431701D3*
Y1531701D3*
Y1631701D3*
Y1731701D3*
Y1831701D3*
Y1931701D3*
Y2031701D3*
D98*
X1093701Y493701D3*
D96*
Y593701D3*
D98*
X3343701D3*
D96*
X3443701D3*
X3343701Y493701D3*
X3443701D3*
D40*
X2528701Y2218701D3*
X2463701D3*
X2393701D3*
X2328701D3*
D98*
X693701Y1468701D3*
D96*
X793701D3*
X693701Y1368701D3*
X793701D3*
X693701Y1268701D3*
X793701D3*
D98*
X693701Y2018701D3*
D96*
X793701D3*
X693701Y1918701D3*
X793701D3*
X693701Y1818701D3*
X793701D3*
D41*
X1935029Y2268701D3*
X1852352D3*
D118*
X1093701Y931145D3*
D90*
X1143701D3*
X1193701D3*
D117*
X1093701Y1393701D3*
D90*
X1143701D3*
X1193701D3*
D106*
X2006103Y2118701D3*
X1931299D3*
X1181103Y1093628D3*
X1106299D3*
D104*
X968641Y1418593D3*
Y1343790D3*
D106*
X1931299Y1743701D3*
X2006103D3*
X2050019Y2287439D3*
X2124822D3*
D104*
X1143701Y706299D3*
Y781103D3*
X1243701Y706299D3*
Y781103D3*
D106*
X2412239Y1956037D3*
X2487042D3*
X2256103Y1843701D3*
X2181299D3*
D88*
X1424945Y2187055D3*
D86*
Y1887843D3*
D120*
X3262598Y1718110D3*
Y1796851D3*
Y1875591D3*
Y1954331D3*
Y2033071D3*
Y2111811D3*
Y2190551D3*
Y2269292D3*
D121*
X2624803D3*
Y2190551D3*
Y2111811D3*
Y2033071D3*
Y1954331D3*
Y1875591D3*
Y1796851D3*
Y1718110D3*
D37*
X1349950Y712454D3*
D38*
X1449950D3*
X1549950D3*
X1649950D3*
X1749950D3*
X1849950D3*
X1949950D3*
X2049950D3*
X2149950D3*
X2249950D3*
X2349950D3*
X2449950D3*
X2549950D3*
X2649950D3*
X2749950D3*
X2849950D3*
X2949950D3*
X3049950D3*
X3149950D3*
X3249950D3*
X3349950D3*
X3449950D3*
X3549950D3*
X3649950D3*
D46*
X1349950Y812454D3*
D47*
X1449950D3*
X1549950D3*
X1649950D3*
X1749950D3*
X1849950D3*
X1949950D3*
X2049950D3*
X2149950D3*
X2249950D3*
X2349950D3*
X2449950D3*
X2549950D3*
X2649950D3*
X2749950D3*
X2849950D3*
X2949950D3*
X3049950D3*
X3149950D3*
X3249950D3*
X3349950D3*
X3449950D3*
X3549950D3*
X3649950D3*
X3149950Y912454D3*
Y1012454D3*
Y1112454D3*
Y1212454D3*
Y1312454D3*
Y1412454D3*
X3249950D3*
X3349950D3*
X3449950D3*
X3549950D3*
X3649950D3*
X3049950D3*
X2949950D3*
X2849950D3*
X2749950D3*
X2649950D3*
X2549950D3*
X2449950D3*
X2349950D3*
X2249950D3*
X2149950D3*
X2049950D3*
X1949950D3*
X1849950D3*
X1749950D3*
X1649950D3*
X1549950D3*
X1449950D3*
X1349950D3*
X1449950Y1312454D3*
X1649950D3*
X1749950D3*
X1849950D3*
X1599950Y937454D3*
X1699950D3*
X1799950D3*
X1899950D3*
X1999950D3*
D78*
X954528Y1784252D3*
Y1693701D3*
Y1603150D3*
D76*
X1182874Y1693701D3*
D74*
X2075000Y1868701D3*
Y1918701D3*
Y1968701D3*
Y2018701D3*
X1862402D3*
Y1968701D3*
Y1918701D3*
Y1868701D3*
D98*
X1349950Y1512454D3*
D96*
X1449950D3*
X1549950D3*
X1649950D3*
X1749950D3*
X1849950D3*
X1949950D3*
X2049950D3*
X2149950D3*
X2249950D3*
X2349950D3*
X2449950D3*
X2549950D3*
X2649950D3*
X2749950D3*
X2849950D3*
X2949950D3*
X3049950D3*
X3149950D3*
X3249950D3*
X3349950D3*
X3449950D3*
X3549950D3*
X3649950D3*
G36*
X3616682Y1683270D2*
X3708694D1*
Y1719332D1*
X3616682D1*
Y1683270D1*
G37*
G36*
X3708746Y1829052D2*
X3616682D1*
Y1793146D1*
X3708746D1*
Y1829052D1*
G37*
D122*
X3663702Y1856200D3*
Y1656200D3*
D123*
X3623702Y1756200D3*
M02*
