G04 DipTrace 3.1.0.1*
G04 TeensyArbotixXYZRPIV0.3.gtp*
%MOIN*%
G04 #@! TF.FileFunction,Paste,Top*
G04 #@! TF.Part,Single*
%AMOUTLINE1*
4,1,4,
-0.0175,-0.025,
-0.0175,0.025,
0.0175,0.025,
0.0175,-0.025,
-0.0175,-0.025,
0*%
%AMOUTLINE2*
4,1,4,
0.0285,-0.0155,
-0.0285,-0.0155,
-0.0285,0.0155,
0.0285,0.0155,
0.0285,-0.0155,
0*%
%ADD29R,0.05X0.1*%
%ADD30R,0.1X0.05*%
%ADD39R,0.047244X0.047244*%
%ADD41R,0.035433X0.031496*%
%ADD44R,0.031496X0.035433*%
%ADD78R,0.043307X0.051181*%
%ADD102R,0.051181X0.043307*%
%ADD112OUTLINE1*%
%ADD113OUTLINE2*%
%FSLAX26Y26*%
G04*
G70*
G90*
G75*
G01*
G04 TopPaste*
%LPD*%
D29*
X533701Y743701D3*
Y918701D3*
D30*
X1452492Y1159616D3*
X1277492D3*
D102*
X2063701Y2076299D3*
Y2151103D3*
X1593701Y811103D3*
Y736299D3*
D29*
X2770424Y926334D3*
Y751334D3*
D39*
X2269324Y480973D3*
X2352002D3*
X2918701Y791395D3*
Y708718D3*
D41*
X1093071Y1956299D3*
Y2031103D3*
X1010394Y1993701D3*
D44*
X1468701Y1028701D3*
X1393898D3*
X1431299Y946024D3*
D41*
X1093071Y2156299D3*
Y2231103D3*
X1010394Y2193701D3*
D44*
X2503701Y2293701D3*
X2428898D3*
X2466299Y2211024D3*
D41*
X1093071Y1756299D3*
Y1831103D3*
X1010394Y1793701D3*
D78*
X1486103Y753701D3*
X1411299D3*
Y653701D3*
X1486103D3*
D102*
X928701Y1831103D3*
Y1756299D3*
X2923231Y866477D3*
Y941280D3*
D78*
X1106083Y1015138D3*
X1031280D3*
D102*
X1593701Y991103D3*
Y916299D3*
D78*
X1256103Y1953701D3*
X1181299D3*
X1411299Y853701D3*
X1486103D3*
X1856299Y573701D3*
X1931103D3*
X1656299D3*
X1731103D3*
X1571103D3*
X1496299D3*
D102*
X2368701Y2076299D3*
Y2151103D3*
D78*
X2276979Y553541D3*
X2351782D3*
X1256103Y2053701D3*
X1181299D3*
D102*
X928701Y2031103D3*
Y1956299D3*
D78*
X1256103Y2253701D3*
X1181299D3*
X1256103Y2153701D3*
X1181299D3*
D102*
X928701Y2156299D3*
Y2231103D3*
X2168701Y2076299D3*
Y2151103D3*
X2268701Y2076299D3*
Y2151103D3*
X2468701Y2076299D3*
Y2151103D3*
D78*
X1256103Y1753701D3*
X1181299D3*
X1256103Y1853701D3*
X1181299D3*
D112*
X2463701Y523701D3*
X2648701D3*
D113*
X2423201Y449201D3*
X2689201D3*
D112*
X1801201Y528701D3*
X1986201D3*
D113*
X1760701Y454201D3*
X2026701D3*
D112*
X1201201Y528701D3*
X1386201D3*
D113*
X1160701Y454201D3*
X1426701D3*
M02*
