M48
INCH
T01C0.0191
T02C0.025
T03C0.0315
T04C0.0354
T05C0.038
T06C0.04
T07C0.0433
T08C0.118
T09C0.125
%
T01
X+016887Y+013887
X+016887Y+015797
X+015137Y+018137
X+009887Y+020737
X+015387Y+011737
X+020487Y+006137
X+026687Y+006187
X+026820Y+011630
X+024537Y+016137
T02
X+026634Y+013800
X+014056Y+012824
X+014337Y+020287
T03
X+026437Y+022387
X+026437Y+021737
X+026437Y+021037
X+026437Y+020387
T04
X+021937Y+008387
X+021937Y+007387
X+020937Y+007387
X+020937Y+008387
X+019937Y+008387
X+019937Y+007387
X+018937Y+007387
X+018937Y+008387
X+017937Y+008387
X+017937Y+007387
X+016937Y+007387
X+016937Y+008387
X+016937Y+009387
X+017937Y+009387
X+018937Y+009387
X+019937Y+009387
X+020937Y+009387
X+021937Y+009387
X+022937Y+009387
X+022937Y+008387
X+023937Y+008387
X+024937Y+008387
X+024937Y+007387
X+023937Y+007387
X+022937Y+007387
X+023937Y+009387
X+024937Y+009387
X+025937Y+009387
X+025937Y+008387
X+025937Y+007387
X+025637Y+019337
X+026637Y+019337
X+027637Y+019337
X+028637Y+019337
X+028637Y+020687
X+028637Y+021687
X+028637Y+022687
X+024637Y+019337
X+023637Y+019337
X+022637Y+019337
X+021637Y+019337
X+020637Y+019337
X+019637Y+019337
X+018637Y+019337
X+017637Y+019337
X+016637Y+019337
X+016637Y+020337
X+017637Y+020337
X+018637Y+020337
X+018637Y+021337
X+017637Y+021337
X+016637Y+021337
X+015637Y+021337
X+015637Y+020337
X+015637Y+019337
X+018637Y+018337
X+019637Y+018337
X+019637Y+020337
X+019637Y+021337
X+019237Y+022937
X+018237Y+022937
X+017237Y+022937
X+016237Y+022937
X+015237Y+022937
X+014237Y+022937
X+020237Y+022937
X+021237Y+022937
X+022237Y+022937
X+023237Y+022937
T05
X+029134Y+016800
X+028134Y+016800
X+027134Y+016800
X+026134Y+016800
X+025134Y+016800
X+024134Y+016800
X+023134Y+016800
X+022134Y+016800
X+021134Y+016800
X+020134Y+016800
X+019134Y+016800
X+018134Y+016800
X+017134Y+016800
X+016134Y+016800
X+016134Y+015800
X+016134Y+014800
X+016134Y+013800
X+016134Y+011800
X+016134Y+010800
X+017134Y+010800
X+018134Y+010800
X+019134Y+010800
X+020134Y+010800
X+021134Y+010800
X+022134Y+010800
X+023134Y+010800
X+024134Y+010800
X+024134Y+011800
X+025134Y+011800
X+026134Y+011800
X+026134Y+010800
X+027134Y+010800
X+028134Y+010800
X+029134Y+010800
X+028134Y+011800
X+025134Y+010800
T06
X+007232Y+024106
X+007232Y+025106
X+008232Y+025106
X+008232Y+024106
X+009232Y+024106
X+009232Y+025106
X+010232Y+025106
X+010232Y+024106
X+011232Y+024106
X+011232Y+025106
X+012232Y+025106
X+012232Y+024106
X+013232Y+024106
X+013232Y+025106
X+014232Y+025106
X+014232Y+024106
X+015232Y+024106
X+015232Y+025106
X+016232Y+025106
X+016232Y+024106
X+017232Y+024106
X+017232Y+025106
X+018232Y+025106
X+018232Y+024106
X+019232Y+024106
X+019232Y+025106
X+020232Y+025106
X+020232Y+024106
X+021232Y+024106
X+021232Y+025106
X+022232Y+025106
X+022232Y+024106
X+023232Y+024106
X+023232Y+025106
X+024232Y+025106
X+024232Y+024106
X+025232Y+024106
X+025232Y+025106
X+026232Y+025106
X+026232Y+024106
X+014433Y+016077
X+013433Y+016077
X+012433Y+016077
X+011433Y+016077
X+010433Y+016077
X+007937Y+018037
X+006937Y+018037
X+005937Y+018037
X+004937Y+018037
X+004937Y+020237
X+005937Y+020237
X+006937Y+020237
X+007937Y+020237
X+007937Y+022337
X+006937Y+022337
X+005937Y+022337
X+004937Y+022337
X+004937Y+015637
X+005937Y+015637
X+006937Y+015637
X+006937Y+013487
X+005937Y+013487
X+004937Y+013487
X+004937Y+011337
X+005937Y+011337
X+006937Y+011337
X+012596Y+008558
X+012596Y+007558
X+012596Y+006558
T07
X+011230Y+012115
X+010230Y+012115
X+009230Y+012115
T08
X+008787Y+009431
X+010637Y+008250
X+008787Y+007069
T09
X+028150Y+005284
X+028150Y+024606
X+005315Y+024606
X+005315Y+005315
T00
M30
