G04 DipTrace 3.1.0.1*
G04 TeensyArbotixXYZRPIV0.3.gbl*
%MOIN*%
G04 #@! TF.FileFunction,Copper,L2,Bot*
G04 #@! TF.Part,Single*
%AMOUTLINE0*5,1,8,0,0,0.065199,-22.499571*%
G04 #@! TA.AperFunction,ViaPad*
%ADD13C,0.04*%
G04 #@! TA.AperFunction,Conductor*
%ADD14C,0.015*%
%ADD15C,0.02*%
%ADD16C,0.01*%
%ADD17C,0.008*%
G04 #@! TA.AperFunction,ViaPad*
%ADD18C,0.05*%
G04 #@! TA.AperFunction,Conductor*
%ADD19C,0.1*%
%ADD20C,0.06*%
%ADD21C,0.059055*%
%ADD24C,0.03*%
%ADD25C,0.05315*%
G04 #@! TA.AperFunction,CopperBalancing*
%ADD26C,0.025*%
%ADD27C,0.013*%
G04 #@! TA.AperFunction,ComponentPad*
%ADD32R,0.059055X0.059055*%
%ADD33C,0.059055*%
%ADD35R,0.035433X0.037402*%
G04 #@! TA.AperFunction,ComponentPad*
%ADD36C,0.17*%
%ADD38C,0.065199*%
%ADD40C,0.05315*%
%ADD42R,0.074803X0.074803*%
%ADD43C,0.074803*%
%ADD45R,0.051181X0.059055*%
%ADD46R,0.035433X0.027559*%
G04 #@! TA.AperFunction,ComponentPad*
%ADD49O,0.14X0.08*%
%ADD50C,0.06194*%
%ADD51R,0.074X0.074*%
%ADD52C,0.074*%
G04 #@! TA.AperFunction,ViaPad*
%ADD54C,0.165*%
G04 #@! TA.AperFunction,ComponentPad*
%ADD111OUTLINE0*%
%FSLAX26Y26*%
G04*
G70*
G90*
G75*
G01*
G04 Bottom*
%LPD*%
X2293701Y838701D2*
D13*
X2393701D1*
X2493701D1*
X2593701D1*
X1893701D2*
X1993701D1*
X2093701D1*
X2193701D1*
X1893701D2*
X1541357Y849628D1*
X1538701Y1173701D1*
X2593701Y838701D2*
D15*
X2676299D1*
Y758701D1*
X2193701Y838701D2*
D13*
X2293701D1*
X1693701D2*
X1793701D1*
X1893701D1*
X2676299Y758701D2*
Y706299D1*
X2588701Y618701D1*
X2048701D1*
Y613701D1*
X1613404Y1480033D2*
D14*
X1518701Y1588701D1*
X1513701Y1813701D1*
X1563701Y2033701D2*
D18*
X1663701D1*
X1763701D1*
X1863701D1*
X1963701D1*
X2896054Y983324D2*
D13*
X2899744Y1028167D1*
X2913404Y1080033D1*
X2643701Y2103701D2*
D18*
X2752630D1*
X2863701Y2168701D1*
X2913404Y1080033D2*
D13*
X2863784Y1256595D1*
X2658670Y1237982D1*
X2517292Y1263701D1*
X2343701D1*
D18*
X2224477D1*
X1405634Y1282352D1*
X2896054Y983324D2*
X2898315Y952137D1*
X2875649Y921436D1*
X1563701Y2033701D2*
D13*
X1443335D1*
X1364701D1*
X1359701Y2038701D1*
X1294701D1*
X1259701Y2073701D1*
X988701D1*
X1433701Y2028701D2*
X1364701Y2033701D1*
X1443335Y1607704D2*
Y2033701D1*
X1963701D2*
X2543787D1*
X2575091Y2087922D1*
X2643701Y2103701D1*
X1763701Y1933701D2*
D17*
X1690987Y1768701D1*
X1713404Y1680033D1*
X1563701Y1933701D2*
Y1757596D1*
X1559603Y1640250D1*
X1629830Y1626302D1*
X1688701Y1579654D1*
X2863701Y1933701D2*
X2790987Y1768701D1*
X2813404Y1680033D1*
X2763701Y1933701D2*
X2690987Y1768701D1*
X2713404Y1680033D1*
X2453701Y1613701D2*
Y1626469D1*
X2688717D1*
X2713404Y1680033D1*
X1863701Y1933701D2*
X1843183Y1948357D1*
X1770469Y1783357D1*
X1813404Y1680033D1*
X1663701Y1933701D2*
X1590987Y1768701D1*
X1613404Y1680033D1*
X1693701Y938701D2*
X1703421Y948421D1*
Y1080033D1*
X1713404D1*
X1793701Y938701D2*
X1822679Y1067679D1*
X1813404Y1080033D1*
X1893701Y938701D2*
X1913404Y1067492D1*
Y1080033D1*
X1993701Y938701D2*
X1978446D1*
X1986074Y946328D1*
X1995345Y997324D1*
X2013404Y1080033D1*
X2751103Y758701D2*
X2802788Y810386D1*
Y859614D1*
X2668243Y994159D1*
Y1128701D1*
X2143488D1*
X2113404Y1080033D1*
X2213404D2*
Y1035404D1*
X2193701Y1015701D1*
Y938701D1*
X2248701Y883701D1*
X2751103D1*
Y838701D1*
X2663701Y1933701D2*
X2590987Y1768701D1*
X2613404Y1680033D1*
X2293701Y938701D2*
X2291676Y971058D1*
X2296154Y1008379D1*
X2313404Y1080033D1*
X2393701Y938701D2*
Y981785D1*
X2413404Y1080033D1*
X2493701Y938701D2*
X2506420Y982848D1*
X2513404Y1080033D1*
X2593701Y938701D2*
X2613404Y958404D1*
Y1080033D1*
X2563701Y1933701D2*
X2523701Y1738701D1*
X2513404Y1680033D1*
X2463701Y1933701D2*
X2390987Y1768701D1*
X2413404Y1680033D1*
X2363701Y1933701D2*
X2290987Y1768701D1*
X2313404Y1680033D1*
X2263701Y1933701D2*
X2190987Y1768701D1*
X2213404Y1680033D1*
X2163701Y1933701D2*
X2090987Y1768701D1*
X2113404Y1680033D1*
X2063701Y1933701D2*
X1990987Y1768701D1*
X2013404Y1680033D1*
X1963701Y1933701D2*
X1944170Y1921286D1*
X1910034Y1893759D1*
Y1680033D1*
X1913404D1*
X693701Y1348701D2*
D14*
Y1133701D1*
D17*
Y1080660D1*
X1259574D1*
Y855848D1*
X493701Y1563701D2*
D19*
Y1348701D1*
Y1133701D1*
X878701Y706851D2*
D20*
X1063740Y824961D1*
X878701Y706851D2*
D19*
X963701Y533701D1*
X1259574Y655848D1*
X2293701Y738701D2*
D21*
X2393701D1*
X2493701D1*
X2593701D1*
X1563701Y2133701D2*
X1663701D1*
X1763701D1*
X1863701D1*
X1963701D1*
X2863701Y2068701D2*
X2938701Y2084755D1*
Y2348684D1*
X2728701Y2328701D1*
D20*
X2675889Y2364889D1*
X2623229Y2410630D1*
X2863701Y2068701D2*
D21*
X2943701D1*
D20*
Y1843701D1*
X2913404Y1813404D1*
Y1680033D1*
X1563701Y2133701D2*
X1427806D1*
X1278193Y2149368D1*
X1204566Y2260201D1*
X902201D1*
X848701Y2313701D1*
X658280D1*
D13*
Y2568994D1*
X923229D1*
X1323229D1*
X1623229D1*
X2123229D1*
X2323229D1*
X2697654D1*
Y2364889D1*
X2675889D1*
X923229Y2510630D2*
D20*
Y2568994D1*
X1323229Y2510630D2*
Y2568994D1*
X1623229Y2510630D2*
Y2568994D1*
X2123229Y2510630D2*
Y2568994D1*
X2323229Y2510630D2*
Y2568994D1*
X493701Y1133701D2*
D19*
Y1480462D1*
D20*
X778701D1*
X850693Y1495652D1*
X922159Y1510076D1*
Y1683701D1*
X1257120D1*
Y1596525D1*
X1350290D1*
X1343335Y1607704D1*
X1243335D2*
X1257120Y1683701D1*
X1343335Y1607704D2*
X1391086Y1441093D1*
X1601202Y1380033D1*
X1613404D1*
X1259574Y655848D2*
X1648559D1*
X1660996Y705996D1*
D21*
X1893701Y738701D1*
X1993701D1*
X2093701D1*
X2193701D1*
X878701Y706851D2*
D19*
X518701Y828701D1*
X493701Y843701D1*
Y1133701D1*
Y2233701D2*
Y2023701D1*
Y1803701D1*
Y1563701D1*
X2193701Y738701D2*
D21*
X2293701D1*
X1693701D2*
X1793701D1*
X1893701D1*
X493701Y2233701D2*
D20*
Y2318701D1*
X636638D1*
X658280Y2313701D1*
X1613404Y1380033D2*
D24*
X1667596Y1339109D1*
X2507574D1*
D16*
X2523293Y1403148D1*
X2553055Y1501130D1*
X2780116Y1476357D1*
D20*
X2913404Y1680033D1*
X2623229Y2410630D2*
X2498701Y2178701D1*
X2587160Y2175651D1*
D25*
X2643701Y2173701D1*
Y2238701D2*
D14*
X2783701D1*
X2863701Y2268701D1*
X2681974Y1162998D2*
D17*
X2758701Y1118701D1*
X2761309Y1057672D1*
X2738701Y1023701D1*
X2743701Y943701D1*
X2798701Y893701D1*
X2838701Y853701D1*
Y713701D1*
X2798701Y673701D1*
X2703701D1*
X2668701Y638701D1*
Y618701D1*
X823229Y2410630D2*
X817302Y2410100D1*
X888701Y2338701D1*
X1382025D1*
X1423701Y2293701D1*
X1371299Y2218701D1*
X1361299D1*
X723229Y2410630D2*
X783156Y2461974D1*
X860736Y2459958D1*
X874843Y2440815D1*
X878873Y2372302D1*
X905068Y2363701D1*
X1469381D1*
Y2236247D1*
X1436103Y2218701D1*
X1511299D1*
X923229Y2410630D2*
X984458Y2460966D1*
X1567023D1*
Y2322933D1*
X1537790Y2293701D1*
X1523701D1*
X1570045Y2278601D1*
X1586103Y2218701D1*
X922963Y1211487D2*
D20*
X981975Y1409305D1*
X1110574Y1443763D1*
X1162441Y1457660D1*
X1143335Y1607704D1*
X2813404Y1180033D2*
D14*
X2824613D1*
X2830920Y1174450D1*
X2860903Y1111158D1*
Y1026158D1*
X2772038Y983324D1*
D15*
X2831604Y927076D1*
X2824467Y921436D1*
X793701Y2233701D2*
D17*
Y2023701D1*
D13*
X1513701Y1813701D3*
D18*
X1405634Y1282352D3*
D13*
X1688701Y1579654D3*
X2453701Y1613701D3*
X2681974Y1162998D3*
X2668701Y618701D3*
D54*
X2814961Y528402D3*
X531496Y531496D3*
Y2460630D3*
X2814961D3*
D13*
X1688701Y1388701D3*
X1538701Y1173701D3*
D18*
X1433701Y2028701D3*
D13*
X2048701Y613701D3*
X988701Y2073701D3*
X438719Y2551332D2*
D26*
X470357D1*
X592626D2*
X682791D1*
X763686D2*
X782764D1*
X863695D2*
X882774D1*
X963669D2*
X982783D1*
X1063678D2*
X1082792D1*
X1163687D2*
X1182765D1*
X1263696D2*
X1282775D1*
X1363670D2*
X1382784D1*
X1463679D2*
X1482757D1*
X1563688D2*
X1582766D1*
X1663697D2*
X1682776D1*
X1763671D2*
X1782785D1*
X1863680D2*
X1882758D1*
X1963689D2*
X1982767D1*
X2063698D2*
X2082777D1*
X2163672D2*
X2182786D1*
X2263681D2*
X2282759D1*
X2363690D2*
X2382769D1*
X2463699D2*
X2482778D1*
X2563673D2*
X2582787D1*
X2663682D2*
X2753847D1*
X2876081D2*
X2948698D1*
X619611Y2526463D2*
X665315D1*
X2681122D2*
X2726862D1*
X2903065D2*
X2948698D1*
X633929Y2501595D2*
X665100D1*
X2681337D2*
X2712544D1*
X2917383D2*
X2948698D1*
X640783Y2476726D2*
X675973D1*
X2670464D2*
X2705654D1*
X2924237D2*
X2948698D1*
X641644Y2451857D2*
X683293D1*
X2663144D2*
X2704829D1*
X2925098D2*
X2948698D1*
X636620Y2426988D2*
X665423D1*
X2681050D2*
X2709817D1*
X2920075D2*
X2948698D1*
X624778Y2402120D2*
X665100D1*
X2681337D2*
X2721695D1*
X2908233D2*
X2948698D1*
X438719Y2377251D2*
X460345D1*
X602638D2*
X675435D1*
X2671002D2*
X2743835D1*
X2886092D2*
X2948698D1*
X438719Y2352382D2*
X830813D1*
X1599034D2*
X2948698D1*
X438719Y2327513D2*
X855681D1*
X2369611D2*
X2948698D1*
X438719Y2302645D2*
X1366170D1*
X2380484D2*
X2806166D1*
X2921223D2*
X2948698D1*
X438719Y2277776D2*
X453348D1*
X534063D2*
X553357D1*
X634072D2*
X653330D1*
X734046D2*
X753339D1*
X834055D2*
X1366170D1*
X2378869D2*
X2606793D1*
X2680619D2*
X2791418D1*
X2921223D2*
X2948698D1*
X851028Y2252907D2*
X1307714D1*
X1763132D2*
X1784256D1*
X1863142D2*
X1884265D1*
X1963115D2*
X1984275D1*
X2063124D2*
X2084284D1*
X2163134D2*
X2184257D1*
X2263143D2*
X2284266D1*
X2363116D2*
X2591112D1*
X2921223D2*
X2948698D1*
X854007Y2228038D2*
X1307714D1*
X1639691D2*
X2590215D1*
X2921223D2*
X2948698D1*
X845646Y2203170D2*
X1307714D1*
X1639691D2*
X2598253D1*
X2689124D2*
X2818295D1*
X2909094D2*
X2948698D1*
X438719Y2178301D2*
X473694D1*
X513717D2*
X573703D1*
X613690D2*
X673712D1*
X713699D2*
X761700D1*
X825694D2*
X1307714D1*
X1698433D2*
X1728959D1*
X1798443D2*
X1828968D1*
X1898416D2*
X1928977D1*
X1998425D2*
X2589318D1*
X2698059D2*
X2777638D1*
X2920398D2*
X2948698D1*
X438719Y2153432D2*
X761700D1*
X825694D2*
X1509850D1*
X2017587D2*
X2593229D1*
X2919070D2*
X2948698D1*
X438719Y2128563D2*
X761700D1*
X825694D2*
X1506405D1*
X2020996D2*
X2552142D1*
X2903855D2*
X2948698D1*
X438719Y2103694D2*
X761700D1*
X825694D2*
X951994D1*
X1296566D2*
X1515089D1*
X2012312D2*
X2529176D1*
X2908663D2*
X2948698D1*
X438719Y2078826D2*
X472833D1*
X514542D2*
X572842D1*
X614551D2*
X672851D1*
X714561D2*
X761700D1*
X825694D2*
X940978D1*
X2920290D2*
X2948698D1*
X845789Y2053957D2*
X945212D1*
X2763835D2*
X2808176D1*
X2919213D2*
X2948698D1*
X854043Y2029088D2*
X977257D1*
X2697377D2*
X2822996D1*
X2904393D2*
X2948698D1*
X850921Y2004219D2*
X1262500D1*
X2580933D2*
X2602164D1*
X2685213D2*
X2948698D1*
X438719Y1979351D2*
X453671D1*
X533740D2*
X553680D1*
X633749D2*
X653653D1*
X733723D2*
X753662D1*
X833732D2*
X1395343D1*
X2196936D2*
X2230476D1*
X2296946D2*
X2330485D1*
X2396919D2*
X2430459D1*
X2496928D2*
X2530468D1*
X2596937D2*
X2630477D1*
X2696911D2*
X2730486D1*
X2921223D2*
X2948698D1*
X438719Y1954482D2*
X1395343D1*
X2921223D2*
X2948698D1*
X438719Y1929613D2*
X1395343D1*
X2921223D2*
X2948698D1*
X438719Y1904744D2*
X1395343D1*
X2921223D2*
X2948698D1*
X438719Y1879876D2*
X1395343D1*
X2921223D2*
X2948698D1*
X438719Y1855007D2*
X463933D1*
X523477D2*
X563943D1*
X623451D2*
X663952D1*
X723460D2*
X763925D1*
X823469D2*
X1395343D1*
X2863772D2*
X2948698D1*
X847942Y1830138D2*
X1395343D1*
X2852792D2*
X2948698D1*
X854294Y1805269D2*
X1395343D1*
X2841847D2*
X2948698D1*
X849413Y1780400D2*
X1395343D1*
X2830866D2*
X2948698D1*
X438719Y1755532D2*
X458730D1*
X528681D2*
X558704D1*
X628690D2*
X658713D1*
X728699D2*
X758722D1*
X828672D2*
X1395343D1*
X2827242D2*
X2948698D1*
X438719Y1730663D2*
X1395343D1*
X2840914D2*
X2885901D1*
X438719Y1705794D2*
X1395343D1*
X438719Y1680925D2*
X1395343D1*
X438719Y1656057D2*
X1001227D1*
X1085424D2*
X1101237D1*
X1185433D2*
X1201246D1*
X1285442D2*
X1301219D1*
X438719Y1631188D2*
X982926D1*
X1744257D2*
X1782570D1*
X1844231D2*
X1882579D1*
X1944240D2*
X1982552D1*
X2044249D2*
X2082561D1*
X2144258D2*
X2182571D1*
X2244232D2*
X2282580D1*
X2344241D2*
X2382553D1*
X2744242D2*
X2782554D1*
X2844251D2*
X2882563D1*
X438719Y1606319D2*
X451679D1*
X535678D2*
X551706D1*
X635687D2*
X651715D1*
X735696D2*
X978333D1*
X1728074D2*
X2406309D1*
X2712772D2*
X2948698D1*
X751521Y1581450D2*
X984111D1*
X1736650D2*
X2419119D1*
X2488280D2*
X2948698D1*
X753854Y1556582D2*
X1004888D1*
X1281782D2*
X1304879D1*
X1730406D2*
X2948698D1*
X744703Y1531713D2*
X1094562D1*
X1211449D2*
X1522086D1*
X1645145D2*
X2948698D1*
X438719Y1506844D2*
X479256D1*
X508155D2*
X579265D1*
X608164D2*
X679239D1*
X708137D2*
X1097720D1*
X1214643D2*
X1543760D1*
X1665599D2*
X2948698D1*
X438719Y1481975D2*
X1036250D1*
X1217801D2*
X1554454D1*
X1672346D2*
X2948698D1*
X438719Y1457107D2*
X951277D1*
X1220456D2*
X1559298D1*
X1667501D2*
X2948698D1*
X438719Y1432238D2*
X928921D1*
X1214284D2*
X1580829D1*
X1645971D2*
X1672979D1*
X1704426D2*
X2591363D1*
X2735450D2*
X2948698D1*
X438719Y1407369D2*
X920990D1*
X1188411D2*
X1561487D1*
X1732703D2*
X2571376D1*
X2755438D2*
X2948698D1*
X743447Y1382500D2*
X913562D1*
X1098880D2*
X1554490D1*
X1736291D2*
X2565455D1*
X2761359D2*
X2948698D1*
X753603Y1357631D2*
X906134D1*
X1026968D2*
X1559083D1*
X1724449D2*
X2569366D1*
X2757447D2*
X2948698D1*
X752060Y1332763D2*
X898742D1*
X1019576D2*
X1400116D1*
X1412636D2*
X1580003D1*
X1646796D2*
X2585550D1*
X2741228D2*
X2948698D1*
X737562Y1307894D2*
X891314D1*
X1012148D2*
X1359567D1*
X2531090D2*
X2948698D1*
X438719Y1283025D2*
X658210D1*
X729201D2*
X883886D1*
X1004720D2*
X1352641D1*
X2903317D2*
X2948698D1*
X438719Y1258156D2*
X658210D1*
X729201D2*
X876458D1*
X1188375D2*
X1358813D1*
X2913113D2*
X2948698D1*
X438719Y1233288D2*
X658210D1*
X729201D2*
X861458D1*
X1188375D2*
X1391181D1*
X2920110D2*
X2948698D1*
X438719Y1208419D2*
X658210D1*
X729201D2*
X857619D1*
X1188375D2*
X1506800D1*
X2927072D2*
X2948698D1*
X438719Y1183550D2*
X461350D1*
X526061D2*
X561359D1*
X626034D2*
X658210D1*
X729201D2*
X864114D1*
X1188375D2*
X1491764D1*
X2934069D2*
X2948698D1*
X748651Y1158681D2*
X886290D1*
X959650D2*
X986300D1*
X1188375D2*
X1490831D1*
X754284Y1133813D2*
X1491011D1*
X1270443Y1108944D2*
X1491226D1*
X438719Y1084075D2*
X460991D1*
X526420D2*
X561000D1*
X626429D2*
X660973D1*
X1291363D2*
X1491441D1*
X438719Y1059206D2*
X670949D1*
X1291578D2*
X1491621D1*
X438719Y1034337D2*
X813912D1*
X943502D2*
X1227585D1*
X1291578D2*
X1491836D1*
X438719Y1009469D2*
X787860D1*
X969518D2*
X1227585D1*
X1291578D2*
X1492051D1*
X438719Y984600D2*
X773793D1*
X983584D2*
X1227585D1*
X1291578D2*
X1492267D1*
X438719Y959731D2*
X766975D1*
X990438D2*
X1227585D1*
X1291578D2*
X1492446D1*
X438719Y934862D2*
X766007D1*
X991407D2*
X1049743D1*
X1077709D2*
X1227585D1*
X1291578D2*
X1492661D1*
X438719Y909994D2*
X770779D1*
X1136810D2*
X1227585D1*
X1291578D2*
X1492877D1*
X2932490D2*
X2948698D1*
X438719Y885125D2*
X782119D1*
X1158915D2*
X1206880D1*
X1312248D2*
X1493056D1*
X2921366D2*
X2948698D1*
X438719Y860256D2*
X803039D1*
X1170936D2*
X1199129D1*
X1319999D2*
X1493271D1*
X2869980D2*
X2948698D1*
X438719Y835387D2*
X851411D1*
X906003D2*
X951241D1*
X1176247D2*
X1202681D1*
X1316446D2*
X1495640D1*
X2870698D2*
X2948698D1*
X438719Y810519D2*
X837954D1*
X919459D2*
X951671D1*
X1175780D2*
X1220731D1*
X1298432D2*
X1515591D1*
X2870698D2*
X2948698D1*
X438719Y785650D2*
X798733D1*
X1169500D2*
X1207203D1*
X1311961D2*
X1662501D1*
X2870698D2*
X2948698D1*
X438719Y760781D2*
X779750D1*
X1156187D2*
X1199200D1*
X1319963D2*
X1640791D1*
X2870698D2*
X2948698D1*
X438719Y735912D2*
X769595D1*
X1131678D2*
X1202502D1*
X1316661D2*
X1636234D1*
X2870698D2*
X2948698D1*
X438719Y711044D2*
X765791D1*
X991622D2*
X1220085D1*
X1299078D2*
X1643626D1*
X2870590D2*
X2948698D1*
X438719Y686175D2*
X767657D1*
X989757D2*
X1207526D1*
X1311638D2*
X1674809D1*
X1712608D2*
X1774783D1*
X1812617D2*
X1874792D1*
X1912590D2*
X1974801D1*
X2012599D2*
X2074810D1*
X2112609D2*
X2174784D1*
X2212618D2*
X2274793D1*
X2312591D2*
X2374802D1*
X2412600D2*
X2474811D1*
X2512610D2*
X2574785D1*
X2855411D2*
X2948698D1*
X438719Y661306D2*
X775516D1*
X981862D2*
X1199236D1*
X1319927D2*
X2030242D1*
X2830508D2*
X2948698D1*
X438719Y636437D2*
X503478D1*
X559505D2*
X791054D1*
X966360D2*
X1202322D1*
X1316841D2*
X2004298D1*
X2713095D2*
X2948698D1*
X438719Y611568D2*
X456505D1*
X606478D2*
X820228D1*
X937150D2*
X1219475D1*
X1299688D2*
X2000745D1*
X2716145D2*
X2743548D1*
X2886379D2*
X2948698D1*
X626824Y586700D2*
X2009573D1*
X2703549D2*
X2721551D1*
X2908376D2*
X2948698D1*
X637661Y561831D2*
X2709781D1*
X2920146D2*
X2948698D1*
X641859Y536962D2*
X2704793D1*
X2925134D2*
X2948698D1*
X640245Y512093D2*
X2705690D1*
X2924237D2*
X2948698D1*
X632494Y487225D2*
X2712616D1*
X2917311D2*
X2948698D1*
X616956Y462356D2*
X2727006D1*
X2902922D2*
X2948698D1*
X587172Y437487D2*
X2754170D1*
X2875758D2*
X2944679D1*
X2243699Y715723D2*
X2240100Y709118D1*
X2235748Y703203D1*
X2230646Y697920D1*
X2224887Y693364D1*
X2218572Y689615D1*
X2211815Y686740D1*
X2204735Y684791D1*
X2197458Y683802D1*
X2190114Y683790D1*
X2182835Y684757D1*
X2175748Y686684D1*
X2168982Y689538D1*
X2162656Y693267D1*
X2156882Y697806D1*
X2151765Y703073D1*
X2147394Y708974D1*
X2143705Y715726D1*
X2140100Y709118D1*
X2135748Y703203D1*
X2130646Y697920D1*
X2124887Y693364D1*
X2118572Y689615D1*
X2111815Y686740D1*
X2104735Y684791D1*
X2097458Y683802D1*
X2090114Y683790D1*
X2082835Y684757D1*
X2075748Y686684D1*
X2068982Y689538D1*
X2062656Y693267D1*
X2056882Y697806D1*
X2051765Y703073D1*
X2047394Y708974D1*
X2043705Y715726D1*
X2040100Y709118D1*
X2035748Y703203D1*
X2030646Y697920D1*
X2024887Y693364D1*
X2018572Y689615D1*
X2011815Y686740D1*
X2004735Y684791D1*
X1997458Y683802D1*
X1990114Y683790D1*
X1982835Y684757D1*
X1975748Y686684D1*
X1968982Y689538D1*
X1962656Y693267D1*
X1956882Y697806D1*
X1951765Y703073D1*
X1947394Y708974D1*
X1943705Y715726D1*
X1940100Y709118D1*
X1935748Y703203D1*
X1930646Y697920D1*
X1924887Y693364D1*
X1918572Y689615D1*
X1911815Y686740D1*
X1904735Y684791D1*
X1897458Y683802D1*
X1890114Y683790D1*
X1882835Y684757D1*
X1875748Y686684D1*
X1868982Y689538D1*
X1862656Y693267D1*
X1856882Y697806D1*
X1851765Y703073D1*
X1847394Y708974D1*
X1843705Y715726D1*
X1840100Y709118D1*
X1835748Y703203D1*
X1830646Y697920D1*
X1824887Y693364D1*
X1818572Y689615D1*
X1811815Y686740D1*
X1804735Y684791D1*
X1797458Y683802D1*
X1790114Y683790D1*
X1782835Y684757D1*
X1775748Y686684D1*
X1768982Y689538D1*
X1762656Y693267D1*
X1756882Y697806D1*
X1751765Y703073D1*
X1747394Y708974D1*
X1743705Y715726D1*
X1740100Y709118D1*
X1735748Y703203D1*
X1730646Y697920D1*
X1724887Y693364D1*
X1718572Y689615D1*
X1711815Y686740D1*
X1704735Y684791D1*
X1697458Y683802D1*
X1690114Y683790D1*
X1682835Y684757D1*
X1675748Y686684D1*
X1668982Y689538D1*
X1662656Y693267D1*
X1656882Y697806D1*
X1651765Y703073D1*
X1647394Y708974D1*
X1643848Y715405D1*
X1641190Y722250D1*
X1639467Y729389D1*
X1638710Y736693D1*
X1638932Y744034D1*
X1640130Y751279D1*
X1642282Y758300D1*
X1645350Y764972D1*
X1649279Y771177D1*
X1653998Y776803D1*
X1659425Y781750D1*
X1665463Y785931D1*
X1670727Y788697D1*
X1664949Y791782D1*
X1657963Y796858D1*
X1654023Y800621D1*
X1538159Y804240D1*
X1531098Y805299D1*
X1524290Y807450D1*
X1517902Y810639D1*
X1512092Y814788D1*
X1507002Y819795D1*
X1502758Y825537D1*
X1499465Y831871D1*
X1497203Y838643D1*
X1496028Y845686D1*
X1495633Y876813D1*
X1493313Y1176899D1*
X1494372Y1183960D1*
X1496523Y1190768D1*
X1499712Y1197156D1*
X1503861Y1202966D1*
X1508868Y1208056D1*
X1514610Y1212300D1*
X1520945Y1215594D1*
X1527717Y1217855D1*
X1534759Y1219030D1*
X1541899Y1219089D1*
X1548960Y1218030D1*
X1555768Y1215879D1*
X1562156Y1212690D1*
X1565154Y1210721D1*
X1567719Y1213225D1*
X1573474Y1219963D1*
X1580212Y1225718D1*
X1583309Y1227787D1*
X1400526Y1232111D1*
X1392730Y1233528D1*
X1385251Y1236148D1*
X1378274Y1239905D1*
X1371971Y1244708D1*
X1366497Y1250438D1*
X1361986Y1256953D1*
X1358550Y1264094D1*
X1356274Y1271684D1*
X1355212Y1279537D1*
X1355393Y1287459D1*
X1356810Y1295256D1*
X1359430Y1302735D1*
X1363188Y1309712D1*
X1367990Y1316015D1*
X1373720Y1321489D1*
X1380235Y1326000D1*
X1387376Y1329436D1*
X1394966Y1331712D1*
X1402819Y1332774D1*
X1434336Y1332211D1*
X1589925Y1328668D1*
X1584177Y1331715D1*
X1578154Y1335917D1*
X1572727Y1340864D1*
X1567988Y1346474D1*
X1564017Y1352652D1*
X1560881Y1359293D1*
X1558634Y1366285D1*
X1557313Y1373509D1*
X1556940Y1380843D1*
X1557523Y1388164D1*
X1559051Y1395347D1*
X1561498Y1402271D1*
X1564823Y1408819D1*
X1568969Y1414881D1*
X1573867Y1420353D1*
X1579434Y1425142D1*
X1585575Y1429169D1*
X1587157Y1430032D1*
X1580212Y1434348D1*
X1573474Y1440103D1*
X1567719Y1446841D1*
X1563089Y1454396D1*
X1559698Y1462583D1*
X1557630Y1471199D1*
X1556935Y1480033D1*
X1557630Y1488867D1*
X1558349Y1492979D1*
X1505845Y1553225D1*
X1505835Y1545204D1*
X1380835D1*
Y1557727D1*
X1375571Y1554159D1*
X1369067Y1550747D1*
X1362208Y1548121D1*
X1355088Y1546319D1*
X1347805Y1545364D1*
X1340461Y1545270D1*
X1333156Y1546038D1*
X1325992Y1547658D1*
X1319068Y1550107D1*
X1312478Y1553352D1*
X1306315Y1557347D1*
X1300663Y1562038D1*
X1295601Y1567359D1*
X1293214Y1570043D1*
X1288451Y1564451D1*
X1283066Y1559457D1*
X1277131Y1555129D1*
X1270730Y1551528D1*
X1263951Y1548702D1*
X1256887Y1546691D1*
X1249635Y1545522D1*
X1242297Y1545212D1*
X1234973Y1545766D1*
X1227765Y1547174D1*
X1220771Y1549419D1*
X1214089Y1552468D1*
X1207811Y1556281D1*
X1205635Y1557863D1*
X1217877Y1460330D1*
X1217612Y1451625D1*
X1215989Y1443069D1*
X1213047Y1434871D1*
X1208859Y1427236D1*
X1203528Y1420349D1*
X1197185Y1414381D1*
X1189987Y1409478D1*
X1182111Y1405763D1*
X1167932Y1401674D1*
X1026326Y1363731D1*
X998118Y1269269D1*
X1003526Y1271310D1*
X1013123Y1273614D1*
X1022963Y1274389D1*
X1032803Y1273614D1*
X1042401Y1271310D1*
X1051520Y1267533D1*
X1060072Y1262268D1*
X1060062Y1274388D1*
X1185865D1*
Y1148585D1*
X1060062D1*
X1059936Y1160599D1*
X1051520Y1155441D1*
X1042401Y1151664D1*
X1032803Y1149360D1*
X1022963Y1148586D1*
X1013123Y1149360D1*
X1003526Y1151664D1*
X994407Y1155441D1*
X985991Y1160599D1*
X978485Y1167009D1*
X972995Y1173348D1*
X967442Y1167009D1*
X959936Y1160599D1*
X951520Y1155441D1*
X942401Y1151664D1*
X932803Y1149360D1*
X922963Y1148586D1*
X913123Y1149360D1*
X903526Y1151664D1*
X894407Y1155441D1*
X885991Y1160599D1*
X878485Y1167009D1*
X872075Y1174514D1*
X866918Y1182930D1*
X863141Y1192049D1*
X860836Y1201647D1*
X860062Y1211487D1*
X860836Y1221327D1*
X863141Y1230925D1*
X866918Y1240044D1*
X872075Y1248460D1*
X878237Y1255696D1*
X930161Y1429194D1*
X933911Y1437055D1*
X938844Y1444232D1*
X944838Y1450549D1*
X951748Y1455851D1*
X959401Y1460007D1*
X967611Y1462914D1*
X1101235Y1498718D1*
X1092332Y1568866D1*
X1087529Y1563509D1*
X1080071Y1557140D1*
X1071709Y1552016D1*
X1062648Y1548263D1*
X1053112Y1545973D1*
X1043335Y1545204D1*
X1033558Y1545973D1*
X1024021Y1548263D1*
X1014960Y1552016D1*
X1006598Y1557140D1*
X999141Y1563509D1*
X992771Y1570967D1*
X987647Y1579329D1*
X983894Y1588390D1*
X981604Y1597926D1*
X980835Y1607704D1*
X981604Y1617481D1*
X983894Y1627017D1*
X987647Y1636078D1*
X992771Y1644440D1*
X999141Y1651898D1*
X1006598Y1658267D1*
X1014960Y1663392D1*
X1024021Y1667145D1*
X1033558Y1669434D1*
X1043335Y1670204D1*
X1053112Y1669434D1*
X1062648Y1667145D1*
X1071709Y1663392D1*
X1080071Y1658267D1*
X1087529Y1651898D1*
X1093317Y1645178D1*
X1099141Y1651898D1*
X1106598Y1658267D1*
X1114960Y1663392D1*
X1124021Y1667145D1*
X1133558Y1669434D1*
X1143335Y1670204D1*
X1153112Y1669434D1*
X1162648Y1667145D1*
X1171709Y1663392D1*
X1180071Y1658267D1*
X1187529Y1651898D1*
X1193317Y1645178D1*
X1198384Y1651128D1*
X1203788Y1656101D1*
X1209739Y1660406D1*
X1216154Y1663984D1*
X1222944Y1666784D1*
X1230016Y1668768D1*
X1237272Y1669909D1*
X1244611Y1670191D1*
X1251933Y1669609D1*
X1259136Y1668173D1*
X1266121Y1665902D1*
X1272791Y1662827D1*
X1279054Y1658991D1*
X1284824Y1654446D1*
X1290021Y1649256D1*
X1293330Y1645205D1*
X1298384Y1651128D1*
X1303788Y1656101D1*
X1309739Y1660406D1*
X1316154Y1663984D1*
X1322944Y1666784D1*
X1330016Y1668768D1*
X1337272Y1669909D1*
X1344611Y1670191D1*
X1351933Y1669609D1*
X1359136Y1668173D1*
X1366121Y1665902D1*
X1372791Y1662827D1*
X1379054Y1658991D1*
X1380837Y1657697D1*
X1380835Y1670204D1*
X1397808D1*
X1397835Y1985672D1*
X1357862Y1988718D1*
X1350909Y1990342D1*
X1344284Y1993040D1*
X1322956Y1993201D1*
X1291131Y1993341D1*
X1284079Y1994458D1*
X1277289Y1996664D1*
X1270927Y1999906D1*
X1265151Y2004102D1*
X1240833Y2028222D1*
X985131Y2028341D1*
X978079Y2029458D1*
X971289Y2031664D1*
X964927Y2034906D1*
X959151Y2039102D1*
X954102Y2044151D1*
X949906Y2049927D1*
X946664Y2056289D1*
X944458Y2063079D1*
X943341Y2070131D1*
Y2077271D1*
X944458Y2084323D1*
X946664Y2091113D1*
X949906Y2097475D1*
X954102Y2103251D1*
X959151Y2108300D1*
X964927Y2112496D1*
X971289Y2115738D1*
X978079Y2117944D1*
X985131Y2119061D1*
X1016260Y2119201D1*
X1263271Y2119061D1*
X1270323Y2117944D1*
X1277113Y2115738D1*
X1283475Y2112496D1*
X1289251Y2108300D1*
X1313569Y2084180D1*
X1363271Y2084061D1*
X1370323Y2082944D1*
X1377113Y2080738D1*
X1380370Y2079235D1*
X1508680Y2079201D1*
X1508674Y2088728D1*
X1531962D1*
X1525538Y2094058D1*
X1520599Y2099492D1*
X1516428Y2105536D1*
X1513098Y2112082D1*
X1510670Y2119012D1*
X1509186Y2126205D1*
X1508674Y2133530D1*
X1509141Y2140859D1*
X1510580Y2148060D1*
X1512965Y2155006D1*
X1516254Y2161572D1*
X1517561Y2163674D1*
X1310209Y2163673D1*
Y2273729D1*
X1368664D1*
X1368674Y2309186D1*
X886386Y2309292D1*
X881814Y2310016D1*
X877412Y2311446D1*
X873287Y2313548D1*
X869542Y2316269D1*
X830668Y2355014D1*
X808753Y2355091D1*
X804801Y2355717D1*
X800995Y2356953D1*
X797430Y2358770D1*
X794193Y2361122D1*
X773715Y2381600D1*
X772737Y2381594D1*
X752265Y2361122D1*
X749027Y2358770D1*
X745462Y2356953D1*
X741656Y2355717D1*
X737704Y2355091D1*
X708753D1*
X704801Y2355717D1*
X700995Y2356953D1*
X697430Y2358770D1*
X694193Y2361122D1*
X673720Y2381594D1*
X671368Y2384831D1*
X669551Y2388397D1*
X668315Y2392202D1*
X667689Y2396154D1*
Y2425106D1*
X668315Y2429058D1*
X669551Y2432864D1*
X671368Y2436429D1*
X673720Y2439666D1*
X694199Y2460144D1*
X694192Y2461122D1*
X673720Y2481594D1*
X671368Y2484831D1*
X669552Y2488397D1*
X668315Y2492202D1*
X667689Y2496154D1*
Y2525106D1*
X668315Y2529058D1*
X669552Y2532864D1*
X671368Y2536429D1*
X673720Y2539666D1*
X694193Y2560139D1*
X697430Y2562491D1*
X700995Y2564307D1*
X704801Y2565544D1*
X708753Y2566170D1*
X737704D1*
X741656Y2565544D1*
X745462Y2564307D1*
X749027Y2562491D1*
X752265Y2560139D1*
X772742Y2539660D1*
X773720Y2539666D1*
X794193Y2560139D1*
X797430Y2562491D1*
X800995Y2564307D1*
X804801Y2565544D1*
X808753Y2566170D1*
X837704D1*
X841656Y2565544D1*
X845462Y2564307D1*
X849027Y2562491D1*
X852265Y2560139D1*
X872742Y2539660D1*
X873953Y2539934D1*
X894484Y2560384D1*
X899074Y2563416D1*
X904208Y2565394D1*
X909646Y2566224D1*
X938084Y2566137D1*
X943474Y2565036D1*
X948502Y2562804D1*
X952935Y2559546D1*
X972987Y2539369D1*
X973720Y2539666D1*
X994192Y2560139D1*
X997430Y2562491D1*
X1000995Y2564307D1*
X1004801Y2565544D1*
X1008753Y2566170D1*
X1037704D1*
X1041656Y2565544D1*
X1045462Y2564307D1*
X1049027Y2562491D1*
X1052265Y2560139D1*
X1072742Y2539660D1*
X1073720Y2539666D1*
X1094192Y2560139D1*
X1097430Y2562491D1*
X1100995Y2564307D1*
X1104801Y2565544D1*
X1108753Y2566170D1*
X1137704D1*
X1141657Y2565544D1*
X1145462Y2564307D1*
X1149027Y2562491D1*
X1152265Y2560139D1*
X1172742Y2539660D1*
X1173720Y2539666D1*
X1194192Y2560139D1*
X1197430Y2562491D1*
X1200995Y2564307D1*
X1204801Y2565544D1*
X1208753Y2566170D1*
X1237704D1*
X1241657Y2565544D1*
X1245462Y2564307D1*
X1249027Y2562491D1*
X1252265Y2560139D1*
X1272742Y2539660D1*
X1274313Y2540336D1*
X1294484Y2560384D1*
X1299074Y2563416D1*
X1304207Y2565394D1*
X1309645Y2566224D1*
X1338084Y2566137D1*
X1343474Y2565036D1*
X1348502Y2562804D1*
X1352934Y2559546D1*
X1372987Y2539369D1*
X1373720Y2539666D1*
X1394192Y2560139D1*
X1397430Y2562491D1*
X1400995Y2564307D1*
X1404801Y2565544D1*
X1408753Y2566170D1*
X1437704D1*
X1441657Y2565544D1*
X1445462Y2564307D1*
X1449027Y2562491D1*
X1452265Y2560139D1*
X1472742Y2539660D1*
X1473720Y2539666D1*
X1494192Y2560139D1*
X1497430Y2562491D1*
X1500995Y2564307D1*
X1504801Y2565544D1*
X1508753Y2566170D1*
X1537704D1*
X1541657Y2565544D1*
X1545462Y2564307D1*
X1549027Y2562491D1*
X1552265Y2560139D1*
X1572742Y2539660D1*
X1574313Y2540336D1*
X1594484Y2560384D1*
X1599074Y2563416D1*
X1604207Y2565394D1*
X1609645Y2566224D1*
X1638084Y2566137D1*
X1643474Y2565036D1*
X1648502Y2562804D1*
X1652934Y2559546D1*
X1672987Y2539369D1*
X1673720Y2539666D1*
X1694192Y2560139D1*
X1697430Y2562491D1*
X1700995Y2564307D1*
X1704801Y2565544D1*
X1708753Y2566170D1*
X1737704D1*
X1741657Y2565544D1*
X1745462Y2564307D1*
X1749027Y2562491D1*
X1752265Y2560139D1*
X1772742Y2539660D1*
X1773720Y2539666D1*
X1794193Y2560139D1*
X1797430Y2562491D1*
X1800995Y2564307D1*
X1804801Y2565544D1*
X1808753Y2566170D1*
X1837704D1*
X1841657Y2565544D1*
X1845462Y2564307D1*
X1849027Y2562491D1*
X1852265Y2560139D1*
X1872742Y2539660D1*
X1873720Y2539666D1*
X1894193Y2560139D1*
X1897430Y2562491D1*
X1900995Y2564307D1*
X1904801Y2565544D1*
X1908753Y2566170D1*
X1937704D1*
X1941657Y2565544D1*
X1945462Y2564307D1*
X1949027Y2562491D1*
X1952265Y2560139D1*
X1972742Y2539660D1*
X1973720Y2539666D1*
X1994193Y2560139D1*
X1997430Y2562491D1*
X2000995Y2564307D1*
X2004801Y2565544D1*
X2008753Y2566170D1*
X2037704D1*
X2041657Y2565544D1*
X2045462Y2564307D1*
X2049027Y2562491D1*
X2052265Y2560139D1*
X2072742Y2539660D1*
X2074313Y2540336D1*
X2094484Y2560384D1*
X2099074Y2563416D1*
X2104208Y2565394D1*
X2109646Y2566224D1*
X2138084Y2566137D1*
X2143474Y2565036D1*
X2148502Y2562804D1*
X2152934Y2559546D1*
X2172987Y2539369D1*
X2173720Y2539666D1*
X2194193Y2560139D1*
X2197430Y2562491D1*
X2200995Y2564307D1*
X2204801Y2565544D1*
X2208753Y2566170D1*
X2237704D1*
X2241656Y2565544D1*
X2245462Y2564307D1*
X2249027Y2562491D1*
X2252265Y2560139D1*
X2272742Y2539660D1*
X2274313Y2540336D1*
X2294484Y2560384D1*
X2299074Y2563416D1*
X2304208Y2565394D1*
X2309646Y2566224D1*
X2338084Y2566137D1*
X2343474Y2565036D1*
X2348502Y2562804D1*
X2352934Y2559546D1*
X2372987Y2539369D1*
X2373720Y2539666D1*
X2394193Y2560139D1*
X2397430Y2562491D1*
X2400995Y2564307D1*
X2404801Y2565544D1*
X2408753Y2566170D1*
X2437704D1*
X2441656Y2565544D1*
X2445462Y2564307D1*
X2449027Y2562491D1*
X2452265Y2560139D1*
X2472742Y2539660D1*
X2473720Y2539666D1*
X2494193Y2560139D1*
X2497430Y2562491D1*
X2500995Y2564307D1*
X2504801Y2565544D1*
X2508753Y2566170D1*
X2537704D1*
X2541656Y2565544D1*
X2545462Y2564307D1*
X2549027Y2562491D1*
X2552265Y2560139D1*
X2572742Y2539660D1*
X2573720Y2539666D1*
X2594193Y2560139D1*
X2597430Y2562491D1*
X2600995Y2564307D1*
X2604801Y2565544D1*
X2608753Y2566170D1*
X2637704D1*
X2641656Y2565544D1*
X2645462Y2564307D1*
X2649027Y2562491D1*
X2652265Y2560139D1*
X2672737Y2539666D1*
X2675089Y2536429D1*
X2676906Y2532864D1*
X2678142Y2529058D1*
X2678768Y2525106D1*
Y2496154D1*
X2678142Y2492202D1*
X2676906Y2488397D1*
X2675089Y2484831D1*
X2672737Y2481594D1*
X2652258Y2461117D1*
X2652934Y2459546D1*
X2672982Y2439375D1*
X2676015Y2434785D1*
X2677992Y2429651D1*
X2678823Y2424213D1*
X2678781Y2396319D1*
X2677795Y2390907D1*
X2675672Y2385833D1*
X2672505Y2381326D1*
X2651973Y2360876D1*
X2647383Y2357844D1*
X2642250Y2355866D1*
X2636812Y2355036D1*
X2608373Y2355123D1*
X2602983Y2356225D1*
X2597955Y2358456D1*
X2593523Y2361714D1*
X2573470Y2381891D1*
X2572737Y2381594D1*
X2552265Y2361122D1*
X2549027Y2358770D1*
X2545462Y2356953D1*
X2541657Y2355716D1*
X2537704Y2355091D1*
X2508753D1*
X2504801Y2355716D1*
X2500995Y2356953D1*
X2497430Y2358770D1*
X2494192Y2361122D1*
X2473715Y2381600D1*
X2472737Y2381594D1*
X2452265Y2361122D1*
X2449027Y2358770D1*
X2445462Y2356953D1*
X2441657Y2355716D1*
X2437704Y2355091D1*
X2408753D1*
X2404801Y2355716D1*
X2400995Y2356953D1*
X2397430Y2358770D1*
X2394192Y2361122D1*
X2373715Y2381600D1*
X2372737Y2381594D1*
X2352265Y2361122D1*
X2349027Y2358770D1*
X2345462Y2356953D1*
X2341657Y2355716D1*
X2337704Y2355091D1*
X2308753D1*
X2304801Y2355716D1*
X2300995Y2356953D1*
X2297430Y2358770D1*
X2294192Y2361122D1*
X2273715Y2381600D1*
X2272737Y2381594D1*
X2252265Y2361122D1*
X2249027Y2358770D1*
X2245462Y2356953D1*
X2241657Y2355716D1*
X2237704Y2355091D1*
X2208753Y2355090D1*
X2204801Y2355716D1*
X2200995Y2356953D1*
X2197430Y2358770D1*
X2194192Y2361122D1*
X2173715Y2381600D1*
X2172737Y2381594D1*
X2152265Y2361122D1*
X2149027Y2358770D1*
X2145462Y2356953D1*
X2141657Y2355716D1*
X2137704Y2355090D1*
X2108753D1*
X2104801Y2355716D1*
X2100995Y2356953D1*
X2097430Y2358770D1*
X2094192Y2361122D1*
X2073715Y2381600D1*
X2072737Y2381594D1*
X2052265Y2361122D1*
X2049027Y2358770D1*
X2045462Y2356953D1*
X2041657Y2355716D1*
X2037704Y2355090D1*
X2008753D1*
X2004801Y2355716D1*
X2000995Y2356953D1*
X1997430Y2358770D1*
X1994192Y2361122D1*
X1973715Y2381600D1*
X1972737Y2381594D1*
X1952265Y2361122D1*
X1949027Y2358770D1*
X1945462Y2356953D1*
X1941657Y2355716D1*
X1937704Y2355090D1*
X1908753D1*
X1904801Y2355716D1*
X1900995Y2356953D1*
X1897430Y2358770D1*
X1894192Y2361122D1*
X1873715Y2381600D1*
X1872737Y2381594D1*
X1852265Y2361122D1*
X1849027Y2358770D1*
X1845462Y2356953D1*
X1841657Y2355716D1*
X1837704Y2355090D1*
X1808753D1*
X1804801Y2355716D1*
X1800995Y2356953D1*
X1797430Y2358770D1*
X1794192Y2361122D1*
X1773715Y2381600D1*
X1772737Y2381594D1*
X1752265Y2361122D1*
X1749027Y2358770D1*
X1745462Y2356953D1*
X1741657Y2355716D1*
X1737704Y2355090D1*
X1708753Y2355091D1*
X1704801Y2355717D1*
X1700995Y2356953D1*
X1697430Y2358770D1*
X1694193Y2361122D1*
X1673715Y2381600D1*
X1672737Y2381594D1*
X1652265Y2361122D1*
X1649027Y2358770D1*
X1645462Y2356953D1*
X1641656Y2355717D1*
X1637704Y2355091D1*
X1608753D1*
X1604801Y2355717D1*
X1600995Y2356953D1*
X1597423Y2358774D1*
X1596523Y2348756D1*
X1678729Y2348728D1*
Y2325440D1*
X1684791Y2332611D1*
X1691357Y2338219D1*
X1698719Y2342731D1*
X1706697Y2346035D1*
X1715093Y2348051D1*
X1723701Y2348729D1*
X1732309Y2348051D1*
X1740705Y2346035D1*
X1748683Y2342731D1*
X1756045Y2338219D1*
X1762611Y2332611D1*
X1768219Y2326045D1*
X1772731Y2318683D1*
X1773671Y2316644D1*
X1776782Y2322453D1*
X1781858Y2329439D1*
X1787963Y2335544D1*
X1794949Y2340620D1*
X1802643Y2344540D1*
X1810855Y2347208D1*
X1819384Y2348559D1*
X1828018D1*
X1836547Y2347208D1*
X1844759Y2344540D1*
X1852453Y2340620D1*
X1859439Y2335544D1*
X1865544Y2329439D1*
X1870620Y2322453D1*
X1873671Y2316644D1*
X1876782Y2322453D1*
X1881858Y2329439D1*
X1887963Y2335544D1*
X1894949Y2340620D1*
X1902643Y2344540D1*
X1910855Y2347208D1*
X1919384Y2348559D1*
X1928018D1*
X1936547Y2347208D1*
X1944759Y2344540D1*
X1952453Y2340620D1*
X1959439Y2335544D1*
X1965544Y2329439D1*
X1970620Y2322453D1*
X1973671Y2316644D1*
X1976782Y2322453D1*
X1981858Y2329439D1*
X1987963Y2335544D1*
X1994949Y2340620D1*
X2002643Y2344540D1*
X2010855Y2347208D1*
X2019384Y2348559D1*
X2028018D1*
X2036547Y2347208D1*
X2044759Y2344540D1*
X2052453Y2340620D1*
X2059439Y2335544D1*
X2065544Y2329439D1*
X2070620Y2322453D1*
X2073671Y2316644D1*
X2076782Y2322453D1*
X2081858Y2329439D1*
X2087963Y2335544D1*
X2094949Y2340620D1*
X2102643Y2344540D1*
X2110855Y2347208D1*
X2119384Y2348559D1*
X2128018D1*
X2136547Y2347208D1*
X2144759Y2344540D1*
X2152453Y2340620D1*
X2159439Y2335544D1*
X2165544Y2329439D1*
X2170620Y2322453D1*
X2173671Y2316644D1*
X2176782Y2322453D1*
X2181858Y2329439D1*
X2187963Y2335544D1*
X2194949Y2340620D1*
X2202643Y2344540D1*
X2210855Y2347208D1*
X2219384Y2348559D1*
X2228018D1*
X2236547Y2347208D1*
X2244759Y2344540D1*
X2252453Y2340620D1*
X2259439Y2335544D1*
X2265544Y2329439D1*
X2270620Y2322453D1*
X2273671Y2316644D1*
X2276782Y2322453D1*
X2281858Y2329439D1*
X2287963Y2335544D1*
X2294949Y2340620D1*
X2302643Y2344540D1*
X2310855Y2347208D1*
X2319384Y2348559D1*
X2328018D1*
X2336547Y2347208D1*
X2344759Y2344540D1*
X2352453Y2340620D1*
X2359439Y2335544D1*
X2365544Y2329439D1*
X2370620Y2322453D1*
X2374540Y2314759D1*
X2377208Y2306547D1*
X2378559Y2298018D1*
Y2289384D1*
X2377208Y2280855D1*
X2374540Y2272643D1*
X2370620Y2264949D1*
X2365544Y2257963D1*
X2359439Y2251858D1*
X2352453Y2246782D1*
X2344759Y2242862D1*
X2336547Y2240194D1*
X2328018Y2238843D1*
X2319384D1*
X2310855Y2240194D1*
X2302643Y2242862D1*
X2294949Y2246782D1*
X2287963Y2251858D1*
X2281858Y2257963D1*
X2276782Y2264949D1*
X2273731Y2270758D1*
X2270620Y2264949D1*
X2265544Y2257963D1*
X2259439Y2251858D1*
X2252453Y2246782D1*
X2244759Y2242862D1*
X2236547Y2240194D1*
X2228018Y2238843D1*
X2219384D1*
X2210855Y2240194D1*
X2202643Y2242862D1*
X2194949Y2246782D1*
X2187963Y2251858D1*
X2181858Y2257963D1*
X2176782Y2264949D1*
X2173731Y2270758D1*
X2170620Y2264949D1*
X2165544Y2257963D1*
X2159439Y2251858D1*
X2152453Y2246782D1*
X2144759Y2242862D1*
X2136547Y2240194D1*
X2128018Y2238843D1*
X2119384D1*
X2110855Y2240194D1*
X2102643Y2242862D1*
X2094949Y2246782D1*
X2087963Y2251858D1*
X2081858Y2257963D1*
X2076782Y2264949D1*
X2073731Y2270758D1*
X2070620Y2264949D1*
X2065544Y2257963D1*
X2059439Y2251858D1*
X2052453Y2246782D1*
X2044759Y2242862D1*
X2036547Y2240194D1*
X2028018Y2238843D1*
X2019384D1*
X2010855Y2240194D1*
X2002643Y2242862D1*
X1994949Y2246782D1*
X1987963Y2251858D1*
X1981858Y2257963D1*
X1976782Y2264949D1*
X1973731Y2270758D1*
X1970620Y2264949D1*
X1965544Y2257963D1*
X1959439Y2251858D1*
X1952453Y2246782D1*
X1944759Y2242862D1*
X1936547Y2240194D1*
X1928018Y2238843D1*
X1919384D1*
X1910855Y2240194D1*
X1902643Y2242862D1*
X1894949Y2246782D1*
X1887963Y2251858D1*
X1881858Y2257963D1*
X1876782Y2264949D1*
X1873731Y2270758D1*
X1870620Y2264949D1*
X1865544Y2257963D1*
X1859439Y2251858D1*
X1852453Y2246782D1*
X1844759Y2242862D1*
X1836547Y2240194D1*
X1828018Y2238843D1*
X1819384D1*
X1810855Y2240194D1*
X1802643Y2242862D1*
X1794949Y2246782D1*
X1787963Y2251858D1*
X1781858Y2257963D1*
X1776782Y2264949D1*
X1773731Y2270758D1*
X1770620Y2264949D1*
X1765544Y2257963D1*
X1759439Y2251858D1*
X1752453Y2246782D1*
X1744759Y2242862D1*
X1736547Y2240194D1*
X1728018Y2238843D1*
X1719384D1*
X1710855Y2240194D1*
X1702643Y2242862D1*
X1694949Y2246782D1*
X1687963Y2251858D1*
X1681858Y2257963D1*
X1678723Y2262044D1*
X1678729Y2238673D1*
X1637211D1*
X1637193Y2181901D1*
X1643703Y2184966D1*
X1650708Y2187173D1*
X1657944Y2188427D1*
X1665282Y2188706D1*
X1672592Y2188006D1*
X1679744Y2186338D1*
X1686610Y2183733D1*
X1693068Y2180237D1*
X1699003Y2175912D1*
X1704309Y2170836D1*
X1708893Y2165098D1*
X1712671Y2158801D1*
X1713704Y2156688D1*
X1717211Y2163140D1*
X1721545Y2169069D1*
X1726629Y2174367D1*
X1732374Y2178941D1*
X1738677Y2182710D1*
X1745426Y2185605D1*
X1752500Y2187577D1*
X1759774Y2188588D1*
X1767117Y2188622D1*
X1774400Y2187678D1*
X1781492Y2185773D1*
X1788267Y2182940D1*
X1794605Y2179231D1*
X1800393Y2174710D1*
X1805526Y2169459D1*
X1809915Y2163572D1*
X1813697Y2156674D1*
X1817211Y2163140D1*
X1821545Y2169069D1*
X1826629Y2174367D1*
X1832374Y2178941D1*
X1838677Y2182710D1*
X1845426Y2185605D1*
X1852500Y2187577D1*
X1859774Y2188588D1*
X1867117Y2188622D1*
X1874400Y2187678D1*
X1881492Y2185773D1*
X1888267Y2182940D1*
X1894605Y2179231D1*
X1900393Y2174710D1*
X1905526Y2169459D1*
X1909915Y2163572D1*
X1913697Y2156674D1*
X1917211Y2163140D1*
X1921545Y2169069D1*
X1926629Y2174367D1*
X1932374Y2178941D1*
X1938677Y2182710D1*
X1945426Y2185605D1*
X1952500Y2187577D1*
X1959774Y2188588D1*
X1967117Y2188622D1*
X1974400Y2187678D1*
X1981492Y2185773D1*
X1988267Y2182940D1*
X1994605Y2179231D1*
X2000393Y2174710D1*
X2005526Y2169459D1*
X2009915Y2163572D1*
X2013481Y2157152D1*
X2016161Y2150315D1*
X2017906Y2143181D1*
X2018685Y2135879D1*
X2018453Y2128198D1*
X2017232Y2120957D1*
X2015059Y2113942D1*
X2011971Y2107280D1*
X2008023Y2101088D1*
X2003285Y2095476D1*
X1997843Y2090546D1*
X1991792Y2086384D1*
X1986677Y2083704D1*
X1992453Y2080620D1*
X1994572Y2079204D1*
X2517502Y2079201D1*
X2536525Y2112065D1*
X2540777Y2117801D1*
X2545874Y2122801D1*
X2551690Y2126942D1*
X2558082Y2130123D1*
X2564893Y2132264D1*
X2603117Y2141055D1*
X2598791Y2147341D1*
X2595530Y2153920D1*
X2593226Y2160892D1*
X2591926Y2168119D1*
X2591656Y2175457D1*
X2592420Y2182760D1*
X2594204Y2189883D1*
X2596973Y2196684D1*
X2600670Y2203029D1*
X2603013Y2206195D1*
X2599300Y2211492D1*
X2595590Y2218773D1*
X2593065Y2226544D1*
X2591787Y2234615D1*
Y2242787D1*
X2593065Y2250858D1*
X2595590Y2258629D1*
X2599300Y2265910D1*
X2604103Y2272521D1*
X2609881Y2278299D1*
X2616492Y2283102D1*
X2623773Y2286812D1*
X2631544Y2289337D1*
X2639615Y2290615D1*
X2647787D1*
X2655858Y2289337D1*
X2663629Y2286812D1*
X2670910Y2283102D1*
X2677521Y2278299D1*
X2683299Y2272521D1*
X2683942Y2271706D1*
X2777728Y2271701D1*
X2808704Y2283321D1*
X2808674Y2323728D1*
X2918729D1*
Y2213673D1*
X2895440D1*
X2902611Y2207611D1*
X2908219Y2201045D1*
X2912731Y2193683D1*
X2916035Y2185705D1*
X2918051Y2177309D1*
X2918729Y2168701D1*
X2918051Y2160093D1*
X2916035Y2151697D1*
X2912731Y2143719D1*
X2908219Y2136357D1*
X2902611Y2129791D1*
X2896045Y2124183D1*
X2888683Y2119671D1*
X2886644Y2118731D1*
X2893068Y2115237D1*
X2899003Y2110912D1*
X2904309Y2105836D1*
X2908893Y2100098D1*
X2912671Y2093801D1*
X2915577Y2087057D1*
X2917559Y2079986D1*
X2918582Y2072714D1*
X2918606Y2065029D1*
X2917628Y2057751D1*
X2915690Y2050668D1*
X2912826Y2043906D1*
X2909087Y2037585D1*
X2904539Y2031819D1*
X2899264Y2026710D1*
X2893356Y2022348D1*
X2886920Y2018812D1*
X2880070Y2016165D1*
X2872929Y2014453D1*
X2865623Y2013707D1*
X2858283Y2013941D1*
X2851040Y2015150D1*
X2844022Y2017313D1*
X2837355Y2020391D1*
X2831156Y2024329D1*
X2825538Y2029058D1*
X2820599Y2034492D1*
X2816428Y2040536D1*
X2813098Y2047082D1*
X2810670Y2054012D1*
X2809186Y2061205D1*
X2808674Y2068530D1*
X2809141Y2075859D1*
X2809561Y2078502D1*
X2774638Y2058249D1*
X2767257Y2055366D1*
X2759516Y2053673D1*
X2755554Y2053286D1*
X2693744Y2053201D1*
X2695135Y2046847D1*
X2695776Y2038701D1*
X2695135Y2030555D1*
X2693227Y2022609D1*
X2690100Y2015060D1*
X2685830Y2008092D1*
X2680523Y2001879D1*
X2674310Y1996572D1*
X2667342Y1992302D1*
X2659793Y1989175D1*
X2656549Y1988260D1*
X2663701Y1988729D1*
X2672309Y1988051D1*
X2680705Y1986035D1*
X2688683Y1982731D1*
X2696045Y1978219D1*
X2702611Y1972611D1*
X2708219Y1966045D1*
X2712731Y1958683D1*
X2713671Y1956644D1*
X2716782Y1962453D1*
X2721858Y1969439D1*
X2727963Y1975544D1*
X2734949Y1980620D1*
X2742643Y1984540D1*
X2750855Y1987208D1*
X2759384Y1988559D1*
X2768018D1*
X2776547Y1987208D1*
X2784759Y1984540D1*
X2792453Y1980620D1*
X2799439Y1975544D1*
X2805544Y1969439D1*
X2808679Y1965358D1*
X2808674Y1988728D1*
X2918729D1*
Y1878673D1*
X2871685D1*
X2822089Y1766124D1*
X2830204Y1733941D1*
X2835014Y1732204D1*
X2842910Y1728181D1*
X2850079Y1722973D1*
X2856344Y1716707D1*
X2861553Y1709538D1*
X2863389Y1706259D1*
X2866797Y1711917D1*
X2871329Y1717696D1*
X2876573Y1722838D1*
X2882439Y1727256D1*
X2888829Y1730875D1*
X2895635Y1733634D1*
X2902742Y1735487D1*
X2910028Y1736402D1*
X2917372Y1736363D1*
X2924649Y1735372D1*
X2931735Y1733445D1*
X2938512Y1730614D1*
X2944864Y1726928D1*
X2950683Y1722449D1*
X2951199Y1721981D1*
X2951122Y2566518D1*
X2950432Y2570933D1*
X2948998Y2573417D1*
X2947271Y2574876D1*
X2944350Y2575747D1*
X2940917Y2576200D1*
X445884Y2576121D1*
X441468Y2575431D1*
X438988Y2574000D1*
X437525Y2572270D1*
X436654Y2569351D1*
X436203Y2565918D1*
X436202Y2511438D1*
X439411Y2517060D1*
X444122Y2524111D1*
X449372Y2530771D1*
X455129Y2536998D1*
X461356Y2542754D1*
X468015Y2548004D1*
X475066Y2552715D1*
X482465Y2556859D1*
X490166Y2560409D1*
X498122Y2563344D1*
X506284Y2565646D1*
X514601Y2567300D1*
X523023Y2568297D1*
X531496Y2568630D1*
X539970Y2568297D1*
X548391Y2567300D1*
X556708Y2565646D1*
X564870Y2563344D1*
X572826Y2560409D1*
X580527Y2556859D1*
X587926Y2552715D1*
X594977Y2548004D1*
X601637Y2542754D1*
X607864Y2536998D1*
X613620Y2530771D1*
X618870Y2524111D1*
X623581Y2517060D1*
X627725Y2509661D1*
X631275Y2501960D1*
X634210Y2494004D1*
X636512Y2485842D1*
X638167Y2477525D1*
X639163Y2469104D1*
X639496Y2460630D1*
X639163Y2452157D1*
X638167Y2443735D1*
X636512Y2435418D1*
X634210Y2427256D1*
X631275Y2419300D1*
X627725Y2411599D1*
X623581Y2404200D1*
X618870Y2397149D1*
X613620Y2390490D1*
X607864Y2384263D1*
X601637Y2378506D1*
X594977Y2373256D1*
X587926Y2368545D1*
X580527Y2364401D1*
X572826Y2360851D1*
X564870Y2357916D1*
X556708Y2355614D1*
X548391Y2353960D1*
X539970Y2352963D1*
X531496Y2352630D1*
X523023Y2352963D1*
X514601Y2353960D1*
X506284Y2355614D1*
X498122Y2357916D1*
X490166Y2360851D1*
X482465Y2364401D1*
X475066Y2368545D1*
X468015Y2373256D1*
X461356Y2378506D1*
X455129Y2384263D1*
X449372Y2390490D1*
X444122Y2397149D1*
X439411Y2404200D1*
X436190Y2409952D1*
X436229Y2242221D1*
X437763Y2249403D1*
X440191Y2256334D1*
X443474Y2262904D1*
X447559Y2269007D1*
X452382Y2274546D1*
X457864Y2279432D1*
X463920Y2283588D1*
X470451Y2286946D1*
X477354Y2289454D1*
X484518Y2291070D1*
X491829Y2291771D1*
X499169Y2291543D1*
X506423Y2290391D1*
X513473Y2288333D1*
X520207Y2285402D1*
X526517Y2281645D1*
X532304Y2277122D1*
X537473Y2271906D1*
X541943Y2266079D1*
X543696Y2263290D1*
X546697Y2267851D1*
X552618Y2274784D1*
X559551Y2280705D1*
X567324Y2285468D1*
X575747Y2288957D1*
X584612Y2291085D1*
X593701Y2291801D1*
X602790Y2291085D1*
X611655Y2288957D1*
X620078Y2285468D1*
X627851Y2280705D1*
X634784Y2274784D1*
X640705Y2267851D1*
X643683Y2263265D1*
X646697Y2267851D1*
X652618Y2274784D1*
X659551Y2280705D1*
X667324Y2285468D1*
X675747Y2288957D1*
X684612Y2291085D1*
X693701Y2291801D1*
X702790Y2291085D1*
X711655Y2288957D1*
X720078Y2285468D1*
X727851Y2280705D1*
X734784Y2274784D1*
X740705Y2267851D1*
X743683Y2263265D1*
X746697Y2267851D1*
X752618Y2274784D1*
X759551Y2280705D1*
X767324Y2285468D1*
X775747Y2288957D1*
X784612Y2291085D1*
X793701Y2291801D1*
X802790Y2291085D1*
X811655Y2288957D1*
X820078Y2285468D1*
X827851Y2280705D1*
X834784Y2274784D1*
X840705Y2267851D1*
X845468Y2260078D1*
X848957Y2251655D1*
X851085Y2242790D1*
X851801Y2233701D1*
X851085Y2224612D1*
X848957Y2215747D1*
X845468Y2207324D1*
X840705Y2199551D1*
X834784Y2192618D1*
X827851Y2186697D1*
X823203Y2183684D1*
X823201Y2073765D1*
X827851Y2070705D1*
X834784Y2064784D1*
X840705Y2057851D1*
X845468Y2050078D1*
X848957Y2041655D1*
X851085Y2032790D1*
X851801Y2023701D1*
X851085Y2014612D1*
X848957Y2005747D1*
X845468Y1997324D1*
X840705Y1989551D1*
X834784Y1982618D1*
X827851Y1976697D1*
X820078Y1971934D1*
X811655Y1968445D1*
X802790Y1966317D1*
X793701Y1965601D1*
X784612Y1966317D1*
X775747Y1968445D1*
X767324Y1971934D1*
X759551Y1976697D1*
X752618Y1982618D1*
X746697Y1989551D1*
X743719Y1994137D1*
X740705Y1989551D1*
X734784Y1982618D1*
X727851Y1976697D1*
X720078Y1971934D1*
X711655Y1968445D1*
X702790Y1966317D1*
X693701Y1965601D1*
X684612Y1966317D1*
X675747Y1968445D1*
X667324Y1971934D1*
X659551Y1976697D1*
X652618Y1982618D1*
X646697Y1989551D1*
X643719Y1994137D1*
X640705Y1989551D1*
X634784Y1982618D1*
X627851Y1976697D1*
X620078Y1971934D1*
X611655Y1968445D1*
X602790Y1966317D1*
X593701Y1965601D1*
X584612Y1966317D1*
X575747Y1968445D1*
X567324Y1971934D1*
X559551Y1976697D1*
X552618Y1982618D1*
X546697Y1989551D1*
X543719Y1994137D1*
X539454Y1987892D1*
X534571Y1982406D1*
X529035Y1977581D1*
X522934Y1973491D1*
X516367Y1970205D1*
X509437Y1967773D1*
X502255Y1966234D1*
X494938Y1965614D1*
X487600Y1965923D1*
X480360Y1967154D1*
X473333Y1969289D1*
X466631Y1972293D1*
X460362Y1976119D1*
X454626Y1980705D1*
X449514Y1985978D1*
X445108Y1991853D1*
X441478Y1998238D1*
X438683Y2005030D1*
X436767Y2012120D1*
X436203Y2015394D1*
X436229Y1812221D1*
X437763Y1819403D1*
X440191Y1826334D1*
X443474Y1832904D1*
X447559Y1839007D1*
X452382Y1844546D1*
X457864Y1849432D1*
X463920Y1853588D1*
X470451Y1856946D1*
X477354Y1859454D1*
X484518Y1861070D1*
X491829Y1861771D1*
X499169Y1861543D1*
X506423Y1860391D1*
X513473Y1858333D1*
X520207Y1855402D1*
X526517Y1851645D1*
X532304Y1847122D1*
X537473Y1841906D1*
X541943Y1836079D1*
X543696Y1833290D1*
X546697Y1837851D1*
X552618Y1844784D1*
X559551Y1850705D1*
X567324Y1855468D1*
X575747Y1858957D1*
X584612Y1861085D1*
X593701Y1861801D1*
X602790Y1861085D1*
X611655Y1858957D1*
X620078Y1855468D1*
X627851Y1850705D1*
X634784Y1844784D1*
X640705Y1837851D1*
X643683Y1833265D1*
X646697Y1837851D1*
X652618Y1844784D1*
X659551Y1850705D1*
X667324Y1855468D1*
X675747Y1858957D1*
X684612Y1861085D1*
X693701Y1861801D1*
X702790Y1861085D1*
X711655Y1858957D1*
X720078Y1855468D1*
X727851Y1850705D1*
X734784Y1844784D1*
X740705Y1837851D1*
X743683Y1833265D1*
X746697Y1837851D1*
X752618Y1844784D1*
X759551Y1850705D1*
X767324Y1855468D1*
X775747Y1858957D1*
X784612Y1861085D1*
X793701Y1861801D1*
X802790Y1861085D1*
X811655Y1858957D1*
X820078Y1855468D1*
X827851Y1850705D1*
X834784Y1844784D1*
X840705Y1837851D1*
X845468Y1830078D1*
X848957Y1821655D1*
X851085Y1812790D1*
X851801Y1803701D1*
X851085Y1794612D1*
X848957Y1785747D1*
X845468Y1777324D1*
X840705Y1769551D1*
X834784Y1762618D1*
X827851Y1756697D1*
X820078Y1751934D1*
X811655Y1748445D1*
X802790Y1746317D1*
X793701Y1745601D1*
X784612Y1746317D1*
X775747Y1748445D1*
X767324Y1751934D1*
X759551Y1756697D1*
X752618Y1762618D1*
X746697Y1769551D1*
X743719Y1774137D1*
X740705Y1769551D1*
X734784Y1762618D1*
X727851Y1756697D1*
X720078Y1751934D1*
X711655Y1748445D1*
X702790Y1746317D1*
X693701Y1745601D1*
X684612Y1746317D1*
X675747Y1748445D1*
X667324Y1751934D1*
X659551Y1756697D1*
X652618Y1762618D1*
X646697Y1769551D1*
X643719Y1774137D1*
X640705Y1769551D1*
X634784Y1762618D1*
X627851Y1756697D1*
X620078Y1751934D1*
X611655Y1748445D1*
X602790Y1746317D1*
X593701Y1745601D1*
X584612Y1746317D1*
X575747Y1748445D1*
X567324Y1751934D1*
X559551Y1756697D1*
X552618Y1762618D1*
X546697Y1769551D1*
X543719Y1774137D1*
X539454Y1767892D1*
X534571Y1762406D1*
X529035Y1757581D1*
X522934Y1753491D1*
X516367Y1750205D1*
X509437Y1747773D1*
X502255Y1746234D1*
X494938Y1745614D1*
X487600Y1745923D1*
X480360Y1747154D1*
X473333Y1749289D1*
X466631Y1752293D1*
X460362Y1756119D1*
X454626Y1760705D1*
X449514Y1765978D1*
X445108Y1771853D1*
X441478Y1778238D1*
X438683Y1785030D1*
X436767Y1792120D1*
X436202Y1795082D1*
X436229Y1572221D1*
X437763Y1579403D1*
X440191Y1586334D1*
X443474Y1592904D1*
X447559Y1599007D1*
X452382Y1604546D1*
X457864Y1609432D1*
X463920Y1613588D1*
X470451Y1616946D1*
X477354Y1619454D1*
X484518Y1621070D1*
X491829Y1621771D1*
X499169Y1621543D1*
X506423Y1620391D1*
X513473Y1618333D1*
X520207Y1615402D1*
X526517Y1611645D1*
X532304Y1607122D1*
X537473Y1601906D1*
X541943Y1596079D1*
X543696Y1593290D1*
X546697Y1597851D1*
X552618Y1604784D1*
X559551Y1610705D1*
X567324Y1615468D1*
X575747Y1618957D1*
X584612Y1621085D1*
X593701Y1621801D1*
X602790Y1621085D1*
X611655Y1618957D1*
X620078Y1615468D1*
X627851Y1610705D1*
X634784Y1604784D1*
X640705Y1597851D1*
X643683Y1593265D1*
X646697Y1597851D1*
X652618Y1604784D1*
X659551Y1610705D1*
X667324Y1615468D1*
X675747Y1618957D1*
X684612Y1621085D1*
X693701Y1621801D1*
X702790Y1621085D1*
X711655Y1618957D1*
X720078Y1615468D1*
X727851Y1610705D1*
X734784Y1604784D1*
X740705Y1597851D1*
X745468Y1590078D1*
X748957Y1581655D1*
X751085Y1572790D1*
X751801Y1563701D1*
X751085Y1554612D1*
X748957Y1545747D1*
X745468Y1537324D1*
X740705Y1529551D1*
X734784Y1522618D1*
X727851Y1516697D1*
X720078Y1511934D1*
X711655Y1508445D1*
X702790Y1506317D1*
X693701Y1505601D1*
X684612Y1506317D1*
X675747Y1508445D1*
X667324Y1511934D1*
X659551Y1516697D1*
X652618Y1522618D1*
X646697Y1529551D1*
X643719Y1534137D1*
X640705Y1529551D1*
X634784Y1522618D1*
X627851Y1516697D1*
X620078Y1511934D1*
X611655Y1508445D1*
X602790Y1506317D1*
X593701Y1505601D1*
X584612Y1506317D1*
X575747Y1508445D1*
X567324Y1511934D1*
X559551Y1516697D1*
X552618Y1522618D1*
X546697Y1529551D1*
X543719Y1534137D1*
X539454Y1527892D1*
X534571Y1522406D1*
X529035Y1517581D1*
X522934Y1513491D1*
X516367Y1510205D1*
X509437Y1507773D1*
X502255Y1506234D1*
X494938Y1505614D1*
X487600Y1505923D1*
X480360Y1507154D1*
X473333Y1509289D1*
X466631Y1512293D1*
X460362Y1516119D1*
X454626Y1520705D1*
X449514Y1525978D1*
X445108Y1531853D1*
X441478Y1538238D1*
X438683Y1545030D1*
X436767Y1552120D1*
X436203Y1555394D1*
X436229Y1357221D1*
X437763Y1364403D1*
X440191Y1371334D1*
X443474Y1377904D1*
X447559Y1384007D1*
X452382Y1389546D1*
X457864Y1394432D1*
X463920Y1398588D1*
X470451Y1401946D1*
X477354Y1404454D1*
X484518Y1406070D1*
X491829Y1406771D1*
X499169Y1406543D1*
X506423Y1405391D1*
X513473Y1403333D1*
X520207Y1400402D1*
X526517Y1396645D1*
X532304Y1392122D1*
X537473Y1386906D1*
X541943Y1381079D1*
X543696Y1378290D1*
X546697Y1382851D1*
X552618Y1389784D1*
X559551Y1395705D1*
X567324Y1400468D1*
X575747Y1403957D1*
X584612Y1406085D1*
X593701Y1406801D1*
X602790Y1406085D1*
X611655Y1403957D1*
X620078Y1400468D1*
X627851Y1395705D1*
X634784Y1389784D1*
X640705Y1382851D1*
X643683Y1378265D1*
X646697Y1382851D1*
X652618Y1389784D1*
X659551Y1395705D1*
X667324Y1400468D1*
X675747Y1403957D1*
X684612Y1406085D1*
X693701Y1406801D1*
X702790Y1406085D1*
X711655Y1403957D1*
X720078Y1400468D1*
X727851Y1395705D1*
X734784Y1389784D1*
X740705Y1382851D1*
X745468Y1375078D1*
X748957Y1366655D1*
X751085Y1357790D1*
X751801Y1348701D1*
X751085Y1339612D1*
X748957Y1330747D1*
X745468Y1322324D1*
X740705Y1314551D1*
X734784Y1307618D1*
X727851Y1301697D1*
X726710Y1300935D1*
X726701Y1181517D1*
X731434Y1177880D1*
X737880Y1171434D1*
X743239Y1164058D1*
X747378Y1155935D1*
X750195Y1147264D1*
X751622Y1138259D1*
Y1129143D1*
X750195Y1120138D1*
X747378Y1111467D1*
X746774Y1110156D1*
X1261888Y1110070D1*
X1266460Y1109345D1*
X1270863Y1107915D1*
X1274987Y1105813D1*
X1278733Y1103092D1*
X1282006Y1099819D1*
X1284727Y1096074D1*
X1286828Y1091950D1*
X1288259Y1087547D1*
X1288983Y1082975D1*
X1289074Y997983D1*
Y905868D1*
X1293724Y902852D1*
X1300656Y896931D1*
X1306577Y889998D1*
X1311341Y882225D1*
X1314830Y873802D1*
X1316958Y864937D1*
X1317673Y855848D1*
X1316958Y846759D1*
X1314830Y837894D1*
X1311341Y829471D1*
X1306577Y821698D1*
X1300656Y814765D1*
X1293724Y808844D1*
X1289138Y805866D1*
X1293724Y802852D1*
X1300656Y796931D1*
X1306577Y789998D1*
X1311341Y782225D1*
X1314830Y773802D1*
X1316958Y764937D1*
X1317673Y755848D1*
X1316958Y746759D1*
X1314830Y737894D1*
X1311341Y729471D1*
X1306577Y721698D1*
X1300656Y714765D1*
X1293724Y708844D1*
X1289294Y705771D1*
X1295355Y701622D1*
X1300843Y696743D1*
X1305673Y691210D1*
X1309765Y685112D1*
X1313056Y678546D1*
X1315492Y671618D1*
X1317035Y664437D1*
X1317660Y657120D1*
X1317412Y650344D1*
X1316256Y643092D1*
X1314194Y636043D1*
X1311259Y629311D1*
X1307498Y623003D1*
X1302972Y617219D1*
X1297752Y612053D1*
X1291922Y607586D1*
X1285575Y603891D1*
X1278813Y601026D1*
X1271743Y599037D1*
X1264479Y597956D1*
X1257136Y597799D1*
X1249833Y598571D1*
X1242685Y600257D1*
X1235807Y602832D1*
X1229309Y606254D1*
X1223294Y610468D1*
X1217859Y615407D1*
X1213090Y620993D1*
X1209065Y627135D1*
X1205846Y633737D1*
X1203486Y640691D1*
X1202022Y647888D1*
X1201477Y655212D1*
X1201861Y662546D1*
X1203167Y669773D1*
X1205375Y676778D1*
X1208448Y683448D1*
X1212339Y689677D1*
X1216984Y695366D1*
X1222309Y700423D1*
X1228230Y704768D1*
X1229985Y705846D1*
X1225424Y708844D1*
X1218491Y714765D1*
X1212570Y721698D1*
X1207806Y729471D1*
X1204318Y737894D1*
X1202189Y746759D1*
X1201474Y755848D1*
X1202189Y764937D1*
X1204318Y773802D1*
X1207806Y782225D1*
X1212570Y789998D1*
X1218491Y796931D1*
X1225424Y802852D1*
X1230010Y805830D1*
X1225424Y808844D1*
X1218491Y814765D1*
X1212570Y821698D1*
X1207806Y829471D1*
X1204318Y837894D1*
X1202189Y846759D1*
X1201474Y855848D1*
X1202189Y864937D1*
X1204318Y873802D1*
X1207806Y882225D1*
X1212570Y889998D1*
X1218491Y896931D1*
X1225424Y902852D1*
X1230072Y905865D1*
X1230074Y1051166D1*
X901629Y1051160D1*
X912847Y1048163D1*
X920988Y1045160D1*
X928867Y1041527D1*
X936437Y1037288D1*
X943651Y1032467D1*
X950465Y1027096D1*
X956836Y1021206D1*
X962726Y1014835D1*
X968097Y1008021D1*
X972918Y1000807D1*
X977157Y993237D1*
X980790Y985358D1*
X983793Y977217D1*
X986148Y968867D1*
X987841Y960357D1*
X988860Y951741D1*
X989201Y943071D1*
X988860Y934401D1*
X987841Y925785D1*
X986148Y917275D1*
X983793Y908925D1*
X980790Y900785D1*
X977938Y894598D1*
X985367Y902858D1*
X993515Y910276D1*
X1002361Y916846D1*
X1011818Y922502D1*
X1021791Y927188D1*
X1032181Y930858D1*
X1042885Y933475D1*
X1053796Y935012D1*
X1064806Y935456D1*
X1075806Y934800D1*
X1086685Y933052D1*
X1097337Y930230D1*
X1107654Y926360D1*
X1117535Y921483D1*
X1126880Y915645D1*
X1135598Y908906D1*
X1143601Y901331D1*
X1150810Y892998D1*
X1157154Y883988D1*
X1162568Y874391D1*
X1167000Y864302D1*
X1170405Y853822D1*
X1172749Y843055D1*
X1174009Y832109D1*
X1174179Y821287D1*
X1173264Y810306D1*
X1171260Y799471D1*
X1168187Y788889D1*
X1164075Y778666D1*
X1158965Y768903D1*
X1152909Y759698D1*
X1145965Y751142D1*
X1138204Y743319D1*
X1129703Y736309D1*
X1120546Y730180D1*
X1110824Y724994D1*
X1100633Y720801D1*
X1090076Y717645D1*
X1079257Y715556D1*
X1068283Y714554D1*
X1057265Y714651D1*
X1046310Y715844D1*
X1035529Y718123D1*
X1025029Y721464D1*
X1014914Y725834D1*
X1005284Y731189D1*
X996235Y737478D1*
X987858Y744636D1*
X980235Y752593D1*
X978337Y754631D1*
X982600Y744470D1*
X985830Y733935D1*
X987995Y723130D1*
X989073Y712164D1*
X989064Y701341D1*
X987966Y690377D1*
X985782Y679576D1*
X982533Y669047D1*
X978252Y658894D1*
X972981Y649217D1*
X966772Y640114D1*
X959687Y631674D1*
X951797Y623982D1*
X943181Y617114D1*
X933923Y611138D1*
X924116Y606114D1*
X913857Y602092D1*
X903249Y599112D1*
X892396Y597203D1*
X881408Y596384D1*
X870392Y596663D1*
X859459Y598039D1*
X848718Y600496D1*
X838274Y604011D1*
X828233Y608549D1*
X818693Y614064D1*
X809751Y620502D1*
X801493Y627798D1*
X794004Y635881D1*
X787357Y644669D1*
X781618Y654076D1*
X776845Y664007D1*
X773084Y674365D1*
X770374Y685046D1*
X768741Y695943D1*
X768201Y706949D1*
X768760Y717954D1*
X770413Y728848D1*
X773142Y739524D1*
X776921Y749875D1*
X781712Y759797D1*
X787467Y769194D1*
X794130Y777970D1*
X801634Y786040D1*
X809904Y793322D1*
X818858Y799744D1*
X828408Y805242D1*
X838457Y809762D1*
X848907Y813258D1*
X859652Y815696D1*
X870588Y817052D1*
X881604Y817312D1*
X892591Y816474D1*
X903440Y814546D1*
X914043Y811546D1*
X924294Y807506D1*
X934093Y802465D1*
X943340Y796472D1*
X951944Y789589D1*
X959821Y781883D1*
X964147Y777092D1*
X959875Y787250D1*
X956635Y797782D1*
X954461Y808584D1*
X953373Y819549D1*
X953383Y830568D1*
X954490Y841532D1*
X956684Y852330D1*
X959942Y862856D1*
X964232Y873006D1*
X956836Y864936D1*
X950465Y859046D1*
X943651Y853675D1*
X936437Y848854D1*
X928867Y844615D1*
X920988Y840982D1*
X912847Y837979D1*
X904497Y835624D1*
X895987Y833932D1*
X887371Y832912D1*
X878701Y832571D1*
X870031Y832912D1*
X861415Y833932D1*
X852905Y835624D1*
X844555Y837979D1*
X836414Y840982D1*
X828535Y844615D1*
X820965Y848854D1*
X813751Y853675D1*
X806937Y859046D1*
X800566Y864936D1*
X794676Y871307D1*
X789305Y878121D1*
X784484Y885335D1*
X780245Y892905D1*
X776612Y900785D1*
X773609Y908925D1*
X771254Y917275D1*
X769561Y925785D1*
X768542Y934401D1*
X768201Y943071D1*
X768542Y951741D1*
X769561Y960357D1*
X771254Y968867D1*
X773609Y977217D1*
X776612Y985358D1*
X780245Y993237D1*
X784484Y1000807D1*
X789305Y1008021D1*
X794676Y1014835D1*
X800566Y1021206D1*
X806937Y1027096D1*
X813751Y1032467D1*
X820965Y1037288D1*
X828535Y1041527D1*
X836414Y1045160D1*
X844555Y1048163D1*
X856130Y1051159D1*
X691386Y1051251D1*
X686814Y1051975D1*
X682412Y1053406D1*
X678287Y1055507D1*
X674542Y1058228D1*
X671269Y1061502D1*
X668548Y1065247D1*
X666446Y1069371D1*
X665016Y1073774D1*
X664292Y1078346D1*
X664201Y1080669D1*
X663344Y1084163D1*
X655968Y1089522D1*
X649522Y1095968D1*
X644163Y1103344D1*
X643719Y1104137D1*
X640705Y1099551D1*
X634784Y1092618D1*
X627851Y1086697D1*
X620078Y1081934D1*
X611655Y1078445D1*
X602790Y1076317D1*
X593701Y1075601D1*
X584612Y1076317D1*
X575747Y1078445D1*
X567324Y1081934D1*
X559551Y1086697D1*
X552618Y1092618D1*
X546697Y1099551D1*
X543719Y1104137D1*
X539454Y1097892D1*
X534571Y1092406D1*
X529035Y1087581D1*
X522934Y1083491D1*
X516367Y1080205D1*
X509437Y1077773D1*
X502255Y1076234D1*
X494938Y1075614D1*
X487600Y1075923D1*
X480360Y1077154D1*
X473333Y1079289D1*
X466631Y1082293D1*
X460362Y1086119D1*
X454626Y1090705D1*
X449514Y1095978D1*
X445108Y1101853D1*
X441478Y1108238D1*
X438683Y1115030D1*
X436767Y1122120D1*
X436201Y1125408D1*
Y582304D1*
X439411Y587926D1*
X444122Y594977D1*
X449372Y601637D1*
X455129Y607864D1*
X461356Y613620D1*
X468015Y618870D1*
X475066Y623581D1*
X482465Y627725D1*
X490166Y631275D1*
X498122Y634210D1*
X506284Y636512D1*
X514601Y638167D1*
X523023Y639163D1*
X531496Y639496D1*
X539970Y639163D1*
X548391Y638167D1*
X556708Y636512D1*
X564870Y634210D1*
X572826Y631275D1*
X580527Y627725D1*
X587926Y623581D1*
X594977Y618870D1*
X601637Y613620D1*
X607864Y607864D1*
X613620Y601637D1*
X618870Y594977D1*
X623581Y587926D1*
X627725Y580527D1*
X631275Y572826D1*
X634210Y564870D1*
X636512Y556708D1*
X638167Y548391D1*
X639163Y539970D1*
X639496Y531496D1*
X639163Y523023D1*
X638167Y514601D1*
X636512Y506284D1*
X634210Y498122D1*
X631275Y490166D1*
X627725Y482465D1*
X623581Y475066D1*
X618870Y468015D1*
X613620Y461356D1*
X607864Y455129D1*
X601637Y449372D1*
X594977Y444122D1*
X587926Y439411D1*
X582175Y436190D1*
X2758531Y436317D1*
X2751480Y441028D1*
X2744820Y446278D1*
X2738593Y452034D1*
X2732837Y458261D1*
X2727587Y464921D1*
X2722876Y471972D1*
X2718732Y479371D1*
X2715182Y487072D1*
X2712247Y495028D1*
X2709945Y503190D1*
X2708291Y511507D1*
X2707294Y519928D1*
X2706961Y528402D1*
X2707294Y536875D1*
X2708291Y545297D1*
X2709945Y553614D1*
X2712247Y561776D1*
X2715182Y569732D1*
X2718732Y577433D1*
X2722876Y584832D1*
X2727587Y591883D1*
X2732837Y598542D1*
X2738593Y604769D1*
X2744820Y610526D1*
X2751480Y615776D1*
X2758531Y620487D1*
X2765930Y624630D1*
X2773631Y628181D1*
X2781587Y631116D1*
X2789749Y633418D1*
X2798066Y635072D1*
X2806487Y636069D1*
X2814961Y636402D1*
X2823434Y636069D1*
X2831856Y635072D1*
X2840173Y633418D1*
X2848335Y631116D1*
X2856291Y628181D1*
X2863992Y624630D1*
X2871391Y620487D1*
X2878442Y615776D1*
X2885101Y610526D1*
X2891328Y604769D1*
X2897085Y598542D1*
X2902335Y591883D1*
X2907046Y584832D1*
X2911190Y577433D1*
X2914740Y569732D1*
X2917675Y561776D1*
X2919977Y553614D1*
X2921631Y545297D1*
X2922628Y536875D1*
X2922961Y528402D1*
X2922628Y519928D1*
X2921631Y511507D1*
X2919977Y503190D1*
X2917675Y495028D1*
X2914740Y487072D1*
X2911190Y479371D1*
X2907046Y471972D1*
X2902335Y464921D1*
X2897085Y458261D1*
X2891328Y452034D1*
X2885101Y446278D1*
X2878442Y441028D1*
X2871188Y436203D1*
X2941518Y436280D1*
X2945932Y436970D1*
X2948416Y438404D1*
X2949879Y440134D1*
X2950750Y443054D1*
X2951202Y446487D1*
Y1038079D1*
X2948895Y1036160D1*
X2944763Y1020449D1*
X2943199Y1001439D1*
X2945231Y994810D1*
X2946422Y986976D1*
X2948814Y951825D1*
X2948144Y943929D1*
X2946247Y936235D1*
X2943169Y928933D1*
X2938977Y922190D1*
X2918886Y894976D1*
X2918865Y882156D1*
X2907418D1*
X2901704Y878177D1*
X2894616Y874633D1*
X2887061Y872242D1*
X2879225Y871063D1*
X2871301Y871123D1*
X2863484Y872423D1*
X2860851Y873187D1*
X2863854Y869115D1*
X2865956Y864990D1*
X2867386Y860588D1*
X2868110Y856016D1*
X2868201Y771024D1*
X2868110Y711386D1*
X2867386Y706814D1*
X2865956Y702412D1*
X2863854Y698287D1*
X2861133Y694542D1*
X2819561Y652841D1*
X2816041Y649835D1*
X2812094Y647416D1*
X2807817Y645645D1*
X2803316Y644564D1*
X2798701Y644201D1*
X2715916D1*
X2709869Y638150D1*
X2711974Y632761D1*
X2713641Y625819D1*
X2714201Y618701D1*
X2713641Y611583D1*
X2711974Y604641D1*
X2709242Y598044D1*
X2705511Y591957D1*
X2700874Y586528D1*
X2695445Y581891D1*
X2689358Y578160D1*
X2682761Y575428D1*
X2675819Y573761D1*
X2668701Y573201D1*
X2661583Y573761D1*
X2654641Y575428D1*
X2648044Y578160D1*
X2641957Y581891D1*
X2636528Y586528D1*
X2631891Y591957D1*
X2629681Y595329D1*
X2618251Y584103D1*
X2612475Y579906D1*
X2606113Y576664D1*
X2599323Y574458D1*
X2592271Y573341D1*
X2561142Y573201D1*
X2069358Y573160D1*
X2062761Y570428D1*
X2055819Y568761D1*
X2048701Y568201D1*
X2041583Y568761D1*
X2034641Y570428D1*
X2028044Y573160D1*
X2021957Y576891D1*
X2016528Y581528D1*
X2011891Y586957D1*
X2008160Y593044D1*
X2005428Y599641D1*
X2003761Y606583D1*
X2003201Y614701D1*
X2003341Y622271D1*
X2004458Y629323D1*
X2006664Y636113D1*
X2009906Y642475D1*
X2014103Y648251D1*
X2019151Y653299D1*
X2024927Y657496D1*
X2031289Y660738D1*
X2038079Y662944D1*
X2045131Y664061D1*
X2076260Y664201D1*
X2569847D1*
X2589488Y683835D1*
X2582835Y684757D1*
X2575748Y686684D1*
X2568982Y689538D1*
X2562656Y693267D1*
X2556882Y697806D1*
X2551765Y703073D1*
X2547394Y708974D1*
X2543705Y715726D1*
X2540100Y709118D1*
X2535748Y703203D1*
X2530646Y697920D1*
X2524887Y693364D1*
X2518572Y689615D1*
X2511815Y686740D1*
X2504735Y684791D1*
X2497458Y683802D1*
X2490114Y683790D1*
X2482835Y684757D1*
X2475748Y686684D1*
X2468982Y689538D1*
X2462656Y693267D1*
X2456882Y697806D1*
X2451765Y703073D1*
X2447394Y708974D1*
X2443705Y715726D1*
X2440100Y709118D1*
X2435748Y703203D1*
X2430646Y697920D1*
X2424887Y693364D1*
X2418572Y689615D1*
X2411815Y686740D1*
X2404735Y684791D1*
X2397458Y683802D1*
X2390114Y683790D1*
X2382835Y684757D1*
X2375748Y686684D1*
X2368982Y689538D1*
X2362656Y693267D1*
X2356882Y697806D1*
X2351765Y703073D1*
X2347394Y708974D1*
X2343705Y715726D1*
X2340100Y709118D1*
X2335748Y703203D1*
X2330646Y697920D1*
X2324887Y693364D1*
X2318572Y689615D1*
X2311815Y686740D1*
X2304735Y684791D1*
X2297458Y683802D1*
X2290114Y683790D1*
X2282835Y684757D1*
X2275748Y686684D1*
X2268982Y689538D1*
X2262656Y693267D1*
X2256882Y697806D1*
X2251765Y703073D1*
X2247394Y708974D1*
X2243705Y715726D1*
X2831997Y2213673D2*
X2810960D1*
X2792828Y2206988D1*
X2787755Y2205951D1*
X2774515Y2205701D1*
X2684768D1*
X2688570Y2200131D1*
X2691842Y2193557D1*
X2694156Y2186588D1*
X2695467Y2179363D1*
X2695743Y2171864D1*
X2694968Y2164562D1*
X2693173Y2157442D1*
X2691984Y2154202D1*
X2738974Y2154201D1*
X2819323Y2201243D1*
X2824791Y2207611D1*
X2831357Y2213219D1*
X2832044Y2213679D1*
X543702Y1319118D2*
X539454Y1312892D1*
X534571Y1307406D1*
X529035Y1302581D1*
X522934Y1298491D1*
X516367Y1295205D1*
X509437Y1292773D1*
X502255Y1291234D1*
X494938Y1290614D1*
X487600Y1290923D1*
X480360Y1292154D1*
X473333Y1294289D1*
X466631Y1297293D1*
X460362Y1301119D1*
X454626Y1305705D1*
X449514Y1310978D1*
X445108Y1316853D1*
X441478Y1323238D1*
X438683Y1330030D1*
X436767Y1337120D1*
X436201Y1340408D1*
X436229Y1142221D1*
X437763Y1149403D1*
X440191Y1156334D1*
X443474Y1162904D1*
X447559Y1169007D1*
X452382Y1174546D1*
X457864Y1179432D1*
X463920Y1183588D1*
X470451Y1186946D1*
X477354Y1189454D1*
X484518Y1191070D1*
X491829Y1191771D1*
X499169Y1191543D1*
X506423Y1190391D1*
X513473Y1188333D1*
X520207Y1185402D1*
X526517Y1181645D1*
X532304Y1177122D1*
X537473Y1171906D1*
X541943Y1166079D1*
X543696Y1163290D1*
X546697Y1167851D1*
X552618Y1174784D1*
X559551Y1180705D1*
X567324Y1185468D1*
X575747Y1188957D1*
X584612Y1191085D1*
X593701Y1191801D1*
X602790Y1191085D1*
X611655Y1188957D1*
X620078Y1185468D1*
X627851Y1180705D1*
X634784Y1174784D1*
X640705Y1167851D1*
X643683Y1163265D1*
X646697Y1167851D1*
X652618Y1174784D1*
X659551Y1180705D1*
X660692Y1181467D1*
X660701Y1300885D1*
X655968Y1304522D1*
X649522Y1310968D1*
X644163Y1318344D1*
X643719Y1319137D1*
X640705Y1314551D1*
X634784Y1307618D1*
X627851Y1301697D1*
X620078Y1296934D1*
X611655Y1293445D1*
X602790Y1291317D1*
X593701Y1290601D1*
X584612Y1291317D1*
X575747Y1293445D1*
X567324Y1296934D1*
X559551Y1301697D1*
X552618Y1307618D1*
X546697Y1314551D1*
X543719Y1319137D1*
X2613731Y1956644D2*
X2616782Y1962453D1*
X2621858Y1969439D1*
X2627963Y1975544D1*
X2634949Y1980620D1*
X2642643Y1984540D1*
X2650254Y1987039D1*
X2643701Y1986626D1*
X2635555Y1987267D1*
X2627609Y1989175D1*
X2620060Y1992302D1*
X2613092Y1996572D1*
X2606879Y2001879D1*
X2601572Y2008092D1*
X2597302Y2015060D1*
X2594175Y2022609D1*
X2592844Y2027657D1*
X2581285Y2007929D1*
X2576792Y2002381D1*
X2571486Y1997603D1*
X2565498Y1993715D1*
X2558975Y1990811D1*
X2552079Y1988963D1*
X2544964Y1988217D1*
X2472309Y1988051D1*
X2480705Y1986035D1*
X2488683Y1982731D1*
X2496045Y1978219D1*
X2502611Y1972611D1*
X2508219Y1966045D1*
X2512731Y1958683D1*
X2513671Y1956644D1*
X2516782Y1962453D1*
X2521858Y1969439D1*
X2527963Y1975544D1*
X2534949Y1980620D1*
X2542643Y1984540D1*
X2550855Y1987208D1*
X2559384Y1988559D1*
X2568018D1*
X2576547Y1987208D1*
X2584759Y1984540D1*
X2592453Y1980620D1*
X2599439Y1975544D1*
X2605544Y1969439D1*
X2610620Y1962453D1*
X2613671Y1956644D1*
X2413731D2*
X2416782Y1962453D1*
X2421858Y1969439D1*
X2427963Y1975544D1*
X2434949Y1980620D1*
X2442643Y1984540D1*
X2450855Y1987208D1*
X2456350Y1988200D1*
X2372309Y1988051D1*
X2380705Y1986035D1*
X2388683Y1982731D1*
X2396045Y1978219D1*
X2402611Y1972611D1*
X2408219Y1966045D1*
X2412731Y1958683D1*
X2413671Y1956644D1*
X2313731D2*
X2316782Y1962453D1*
X2321858Y1969439D1*
X2327963Y1975544D1*
X2334949Y1980620D1*
X2342643Y1984540D1*
X2350855Y1987208D1*
X2356350Y1988200D1*
X2272309Y1988051D1*
X2280705Y1986035D1*
X2288683Y1982731D1*
X2296045Y1978219D1*
X2302611Y1972611D1*
X2308219Y1966045D1*
X2312731Y1958683D1*
X2313671Y1956644D1*
X2213731D2*
X2216782Y1962453D1*
X2221858Y1969439D1*
X2227963Y1975544D1*
X2234949Y1980620D1*
X2242643Y1984540D1*
X2250855Y1987208D1*
X2256350Y1988200D1*
X2172309Y1988051D1*
X2180705Y1986035D1*
X2188683Y1982731D1*
X2196045Y1978219D1*
X2202611Y1972611D1*
X2208219Y1966045D1*
X2212731Y1958683D1*
X2213671Y1956644D1*
X2118723Y1965358D2*
X2121858Y1969439D1*
X2127963Y1975544D1*
X2134949Y1980620D1*
X2142643Y1984540D1*
X2150855Y1987208D1*
X2156350Y1988200D1*
X2118739Y1988201D1*
X2118729Y1965440D1*
X743719Y2053265D2*
X746697Y2057851D1*
X752618Y2064784D1*
X759551Y2070705D1*
X764199Y2073718D1*
X764201Y2183637D1*
X759551Y2186697D1*
X752618Y2192618D1*
X746697Y2199551D1*
X743719Y2204137D1*
X740705Y2199551D1*
X734784Y2192618D1*
X727851Y2186697D1*
X720078Y2181934D1*
X711655Y2178445D1*
X702790Y2176317D1*
X693701Y2175601D1*
X684612Y2176317D1*
X675747Y2178445D1*
X667324Y2181934D1*
X659551Y2186697D1*
X652618Y2192618D1*
X646697Y2199551D1*
X643719Y2204137D1*
X640705Y2199551D1*
X634784Y2192618D1*
X627851Y2186697D1*
X620078Y2181934D1*
X611655Y2178445D1*
X602790Y2176317D1*
X593701Y2175601D1*
X584612Y2176317D1*
X575747Y2178445D1*
X567324Y2181934D1*
X559551Y2186697D1*
X552618Y2192618D1*
X546697Y2199551D1*
X543719Y2204137D1*
X539454Y2197892D1*
X534571Y2192406D1*
X529035Y2187581D1*
X522934Y2183491D1*
X516367Y2180205D1*
X509437Y2177773D1*
X502255Y2176234D1*
X494938Y2175614D1*
X487600Y2175923D1*
X480360Y2177154D1*
X473333Y2179289D1*
X466631Y2182293D1*
X460362Y2186119D1*
X454626Y2190705D1*
X449514Y2195978D1*
X445108Y2201853D1*
X441478Y2208238D1*
X438683Y2215030D1*
X436767Y2222120D1*
X436203Y2225394D1*
X436229Y2032221D1*
X437763Y2039403D1*
X440191Y2046334D1*
X443474Y2052904D1*
X447559Y2059007D1*
X452382Y2064546D1*
X457864Y2069432D1*
X463920Y2073588D1*
X470451Y2076946D1*
X477354Y2079454D1*
X484518Y2081070D1*
X491829Y2081771D1*
X499169Y2081543D1*
X506423Y2080391D1*
X513473Y2078333D1*
X520207Y2075402D1*
X526517Y2071645D1*
X532304Y2067122D1*
X537473Y2061906D1*
X541943Y2056079D1*
X543696Y2053290D1*
X546697Y2057851D1*
X552618Y2064784D1*
X559551Y2070705D1*
X567324Y2075468D1*
X575747Y2078957D1*
X584612Y2081085D1*
X593701Y2081801D1*
X602790Y2081085D1*
X611655Y2078957D1*
X620078Y2075468D1*
X627851Y2070705D1*
X634784Y2064784D1*
X640705Y2057851D1*
X643683Y2053265D1*
X646697Y2057851D1*
X652618Y2064784D1*
X659551Y2070705D1*
X667324Y2075468D1*
X675747Y2078957D1*
X684612Y2081085D1*
X693701Y2081801D1*
X702790Y2081085D1*
X711655Y2078957D1*
X720078Y2075468D1*
X727851Y2070705D1*
X734784Y2064784D1*
X740705Y2057851D1*
X743683Y2053265D1*
X2633424Y1314534D2*
X2623158Y1315339D1*
X2613164Y1317739D1*
X2603668Y1321672D1*
X2594904Y1327042D1*
X2587089Y1333718D1*
X2580414Y1341533D1*
X2575043Y1350297D1*
X2571110Y1359792D1*
X2568711Y1369787D1*
X2567904Y1380033D1*
X2568711Y1390279D1*
X2571110Y1400274D1*
X2575043Y1409769D1*
X2580414Y1418533D1*
X2587089Y1426349D1*
X2594904Y1433024D1*
X2603668Y1438394D1*
X2613164Y1442327D1*
X2623158Y1444727D1*
X2633424Y1445532D1*
X2698543Y1445331D1*
X2708695Y1443723D1*
X2718470Y1440547D1*
X2727628Y1435881D1*
X2735943Y1429840D1*
X2743211Y1422572D1*
X2749252Y1414257D1*
X2753919Y1405099D1*
X2757095Y1395324D1*
X2758702Y1385172D1*
Y1374894D1*
X2757095Y1364742D1*
X2753919Y1354967D1*
X2749252Y1345809D1*
X2743211Y1337494D1*
X2735943Y1330226D1*
X2727628Y1324185D1*
X2718470Y1319519D1*
X2708695Y1316343D1*
X2698543Y1314735D1*
X2675032Y1314533D1*
X2633404Y1314569D1*
X2951201Y1638085D2*
X2945044Y1633259D1*
X2938706Y1629549D1*
X2931941Y1626692D1*
X2924862Y1624738D1*
X2917589Y1623718D1*
X2910245Y1623652D1*
X2902955Y1624538D1*
X2895842Y1626364D1*
X2889025Y1629097D1*
X2882621Y1632691D1*
X2876738Y1637087D1*
X2871474Y1642208D1*
X2866920Y1647970D1*
X2863406Y1653798D1*
X2859089Y1646841D1*
X2853335Y1640103D1*
X2846597Y1634348D1*
X2839041Y1629718D1*
X2830855Y1626327D1*
X2822238Y1624258D1*
X2813404Y1623563D1*
X2804571Y1624258D1*
X2795954Y1626327D1*
X2787768Y1629718D1*
X2780212Y1634348D1*
X2773474Y1640103D1*
X2767719Y1646841D1*
X2763419Y1653807D1*
X2759089Y1646841D1*
X2753335Y1640103D1*
X2746597Y1634348D1*
X2739041Y1629718D1*
X2730855Y1626327D1*
X2722238Y1624258D1*
X2720054Y1624000D1*
X2714457Y1612057D1*
X2711885Y1608208D1*
X2708743Y1604808D1*
X2705108Y1601942D1*
X2701070Y1599680D1*
X2696727Y1598077D1*
X2692187Y1597173D1*
X2679530Y1596969D1*
X2495983D1*
X2494242Y1593044D1*
X2490511Y1586957D1*
X2485874Y1581528D1*
X2480445Y1576891D1*
X2474358Y1573160D1*
X2467761Y1570428D1*
X2460819Y1568761D1*
X2453701Y1568201D1*
X2446583Y1568761D1*
X2439641Y1570428D1*
X2433044Y1573160D1*
X2426957Y1576891D1*
X2421528Y1581528D1*
X2416891Y1586957D1*
X2413160Y1593044D1*
X2410428Y1599641D1*
X2408761Y1606583D1*
X2408201Y1613701D1*
X2408761Y1620819D1*
X2409336Y1623707D1*
X2400222Y1625123D1*
X2391794Y1627862D1*
X2383899Y1631885D1*
X2376730Y1637093D1*
X2370464Y1643359D1*
X2365256Y1650528D1*
X2363419Y1653807D1*
X2359089Y1646841D1*
X2353335Y1640103D1*
X2346597Y1634348D1*
X2339041Y1629718D1*
X2330855Y1626327D1*
X2322238Y1624258D1*
X2313404Y1623563D1*
X2304571Y1624258D1*
X2295954Y1626327D1*
X2287768Y1629718D1*
X2280212Y1634348D1*
X2273474Y1640103D1*
X2267719Y1646841D1*
X2263419Y1653807D1*
X2259089Y1646841D1*
X2253335Y1640103D1*
X2246597Y1634348D1*
X2239041Y1629718D1*
X2230855Y1626327D1*
X2222238Y1624258D1*
X2213404Y1623563D1*
X2204571Y1624258D1*
X2195954Y1626327D1*
X2187768Y1629718D1*
X2180212Y1634348D1*
X2173474Y1640103D1*
X2167719Y1646841D1*
X2163419Y1653807D1*
X2159089Y1646841D1*
X2153335Y1640103D1*
X2146597Y1634348D1*
X2139041Y1629718D1*
X2130855Y1626327D1*
X2122238Y1624258D1*
X2113404Y1623563D1*
X2104571Y1624258D1*
X2095954Y1626327D1*
X2087768Y1629718D1*
X2080212Y1634348D1*
X2073474Y1640103D1*
X2067719Y1646841D1*
X2063419Y1653807D1*
X2059089Y1646841D1*
X2053335Y1640103D1*
X2046597Y1634348D1*
X2039041Y1629718D1*
X2030855Y1626327D1*
X2022238Y1624258D1*
X2013404Y1623563D1*
X2004571Y1624258D1*
X1995954Y1626327D1*
X1987768Y1629718D1*
X1980212Y1634348D1*
X1973474Y1640103D1*
X1967719Y1646841D1*
X1963419Y1653807D1*
X1959089Y1646841D1*
X1953335Y1640103D1*
X1946597Y1634348D1*
X1939041Y1629718D1*
X1930855Y1626327D1*
X1922238Y1624258D1*
X1913404Y1623563D1*
X1904571Y1624258D1*
X1895954Y1626327D1*
X1887768Y1629718D1*
X1880212Y1634348D1*
X1873474Y1640103D1*
X1867719Y1646841D1*
X1863419Y1653807D1*
X1859089Y1646841D1*
X1853335Y1640103D1*
X1846597Y1634348D1*
X1839041Y1629718D1*
X1830855Y1626327D1*
X1822238Y1624258D1*
X1813404Y1623563D1*
X1804571Y1624258D1*
X1795954Y1626327D1*
X1787768Y1629718D1*
X1780212Y1634348D1*
X1773474Y1640103D1*
X1767719Y1646841D1*
X1763419Y1653807D1*
X1759089Y1646841D1*
X1753335Y1640103D1*
X1746597Y1634348D1*
X1739041Y1629718D1*
X1730855Y1626327D1*
X1722238Y1624258D1*
X1713404Y1623563D1*
X1704571Y1624258D1*
X1695954Y1626327D1*
X1687768Y1629718D1*
X1680212Y1634348D1*
X1673474Y1640103D1*
X1667719Y1646841D1*
X1663419Y1653807D1*
X1659089Y1646841D1*
X1656121Y1643117D1*
X1679848Y1624308D1*
X1685131Y1625013D1*
X1692271D1*
X1699323Y1623897D1*
X1706113Y1621690D1*
X1712475Y1618449D1*
X1718251Y1614252D1*
X1723299Y1609204D1*
X1727496Y1603427D1*
X1730738Y1597066D1*
X1732944Y1590276D1*
X1734061Y1583224D1*
Y1576084D1*
X1732944Y1569032D1*
X1730738Y1562242D1*
X1727496Y1555880D1*
X1723299Y1550104D1*
X1718251Y1545055D1*
X1712475Y1540859D1*
X1706113Y1537617D1*
X1699323Y1535411D1*
X1692271Y1534294D1*
X1685131D1*
X1678079Y1535411D1*
X1671289Y1537617D1*
X1664927Y1540859D1*
X1659151Y1545055D1*
X1658321Y1545823D1*
X1653335Y1540103D1*
X1646597Y1534348D1*
X1639631Y1530048D1*
X1646597Y1525718D1*
X1653335Y1519963D1*
X1659089Y1513225D1*
X1663719Y1505670D1*
X1667110Y1497483D1*
X1669179Y1488867D1*
X1669874Y1480033D1*
X1669179Y1471199D1*
X1667110Y1462583D1*
X1663719Y1454396D1*
X1659089Y1446841D1*
X1653335Y1440103D1*
X1646597Y1434348D1*
X1639631Y1430048D1*
X1646372Y1425880D1*
X1652043Y1421214D1*
X1654525Y1418733D1*
X1659151Y1423299D1*
X1664927Y1427496D1*
X1671289Y1430738D1*
X1678079Y1432944D1*
X1685131Y1434061D1*
X1692271D1*
X1699323Y1432944D1*
X1706113Y1430738D1*
X1712475Y1427496D1*
X1718251Y1423299D1*
X1723299Y1418251D1*
X1727496Y1412475D1*
X1730738Y1406113D1*
X1732944Y1399323D1*
X1734061Y1392271D1*
Y1385131D1*
X1732944Y1378079D1*
X1730738Y1371289D1*
X1727496Y1364927D1*
X1723299Y1359151D1*
X1718251Y1354103D1*
X1712475Y1349906D1*
X1706113Y1346664D1*
X1699323Y1344458D1*
X1692271Y1343341D1*
X1685131D1*
X1678079Y1344458D1*
X1671289Y1346664D1*
X1664927Y1349906D1*
X1662247Y1351697D1*
X1658335Y1345826D1*
X1653516Y1340285D1*
X1648018Y1335416D1*
X1641935Y1331301D1*
X1635370Y1328010D1*
X1634485Y1327653D1*
X2233663Y1314201D1*
X2347663Y1314045D1*
X2355490Y1312806D1*
X2363027Y1310357D1*
X2365544Y1309196D1*
X2520861Y1309061D1*
X2534473Y1306822D1*
X2660688Y1283862D1*
X2863240Y1302092D1*
X2870364Y1301617D1*
X2877326Y1300033D1*
X2883954Y1297380D1*
X2890086Y1293722D1*
X2895570Y1289151D1*
X2900272Y1283777D1*
X2904075Y1277735D1*
X2906890Y1271158D1*
X2948160Y1124538D1*
X2951211Y1121927D1*
X2951201Y1638062D1*
X2922628Y2452157D2*
X2921631Y2443735D1*
X2919977Y2435418D1*
X2917675Y2427256D1*
X2914740Y2419300D1*
X2911190Y2411599D1*
X2907046Y2404200D1*
X2902335Y2397149D1*
X2897085Y2390490D1*
X2891328Y2384263D1*
X2885101Y2378506D1*
X2878442Y2373256D1*
X2871391Y2368545D1*
X2863992Y2364401D1*
X2856291Y2360851D1*
X2848335Y2357916D1*
X2840173Y2355614D1*
X2831856Y2353960D1*
X2823434Y2352963D1*
X2814961Y2352630D1*
X2806487Y2352963D1*
X2798066Y2353960D1*
X2789749Y2355614D1*
X2781587Y2357916D1*
X2773631Y2360851D1*
X2765930Y2364401D1*
X2758531Y2368545D1*
X2751480Y2373256D1*
X2744820Y2378506D1*
X2738593Y2384263D1*
X2732837Y2390490D1*
X2727587Y2397149D1*
X2722876Y2404200D1*
X2718732Y2411599D1*
X2715182Y2419300D1*
X2712247Y2427256D1*
X2709945Y2435418D1*
X2708291Y2443735D1*
X2707294Y2452157D1*
X2706961Y2460630D1*
X2707294Y2469104D1*
X2708291Y2477525D1*
X2709945Y2485842D1*
X2712247Y2494004D1*
X2715182Y2501960D1*
X2718732Y2509661D1*
X2722876Y2517060D1*
X2727587Y2524111D1*
X2732837Y2530771D1*
X2738593Y2536998D1*
X2744820Y2542754D1*
X2751480Y2548004D1*
X2758531Y2552715D1*
X2765930Y2556859D1*
X2773631Y2560409D1*
X2781587Y2563344D1*
X2789749Y2565646D1*
X2798066Y2567300D1*
X2806487Y2568297D1*
X2814961Y2568630D1*
X2823434Y2568297D1*
X2831856Y2567300D1*
X2840173Y2565646D1*
X2848335Y2563344D1*
X2856291Y2560409D1*
X2863992Y2556859D1*
X2871391Y2552715D1*
X2878442Y2548004D1*
X2885101Y2542754D1*
X2891328Y2536998D1*
X2897085Y2530771D1*
X2902335Y2524111D1*
X2907046Y2517060D1*
X2911190Y2509661D1*
X2914740Y2501960D1*
X2917675Y2494004D1*
X2919977Y2485842D1*
X2921631Y2477525D1*
X2922628Y2469104D1*
X2922961Y2460630D1*
X2922628Y2452157D1*
X2193701Y738701D2*
D27*
Y683709D1*
X2093701Y738701D2*
Y683709D1*
X1993701Y738701D2*
Y683709D1*
X1893701Y738701D2*
Y683709D1*
X1793701Y738701D2*
Y683709D1*
X1693701Y738701D2*
Y683709D1*
X1638709Y738701D2*
X1693701D1*
X2593701D2*
Y683709D1*
X2493701Y738701D2*
Y683709D1*
X2393701Y738701D2*
Y683709D1*
X2293701Y738701D2*
Y683709D1*
X1508709Y2133701D2*
X1563701D1*
X1663701Y2188693D2*
Y2133701D1*
X1763701Y2188693D2*
Y2133701D1*
X1863701Y2188693D2*
Y2133701D1*
X1963701Y2188693D2*
Y2133701D1*
X2018693D1*
X2863701Y2068701D2*
Y2013709D1*
X2808709Y2068701D2*
X2918693D1*
X878701Y817315D2*
Y596386D1*
X768237Y706851D2*
X989165D1*
X1063740Y935425D2*
Y714497D1*
X953276Y824961D2*
X1174204D1*
X923229Y2566235D2*
Y2510630D1*
X1323229Y2566235D2*
Y2510630D1*
X1623229Y2566235D2*
Y2510630D1*
X2123229Y2566235D2*
Y2510630D1*
X2323229Y2566235D2*
Y2510630D1*
X2623229Y2410630D2*
Y2355025D1*
Y2410630D2*
X2678833D1*
X493701Y1621765D2*
Y1505637D1*
X435637Y1563701D2*
X493701D1*
Y1406765D2*
Y1290637D1*
X435637Y1348701D2*
X493701D1*
Y1191765D2*
Y1075637D1*
X435637Y1133701D2*
X493701D1*
X1259574Y655848D2*
Y597784D1*
X1201510Y655848D2*
X1317638D1*
X493701Y1861765D2*
Y1745637D1*
X435637Y1803701D2*
X493701D1*
Y2081765D2*
Y1965637D1*
X435637Y2023701D2*
X493701D1*
Y2291765D2*
Y2175637D1*
X435637Y2233701D2*
X493701D1*
X2591662Y2173701D2*
X2695740D1*
X2913404Y1736467D2*
Y1623599D1*
X1556970Y1380033D2*
X1613404D1*
X1343335Y1670168D2*
Y1545240D1*
X1243335Y1670168D2*
Y1545240D1*
D32*
X2193701Y838701D3*
D33*
Y738701D3*
X2093701Y838701D3*
Y738701D3*
X1993701Y838701D3*
Y738701D3*
X1893701Y838701D3*
Y738701D3*
X1793701Y838701D3*
Y738701D3*
X1693701Y838701D3*
Y738701D3*
D32*
Y938701D3*
D33*
X1793701D3*
X1893701D3*
X1993701D3*
X2093701D3*
X2193701D3*
D32*
X2593701Y838701D3*
D33*
Y738701D3*
X2493701Y838701D3*
Y738701D3*
X2393701Y838701D3*
Y738701D3*
X2293701Y838701D3*
Y738701D3*
D32*
Y938701D3*
D33*
X2393701D3*
X2493701D3*
X2593701D3*
D32*
X1563701Y2033701D3*
D33*
Y2133701D3*
X1663701Y2033701D3*
Y2133701D3*
X1763701Y2033701D3*
Y2133701D3*
X1863701Y2033701D3*
Y2133701D3*
X1963701Y2033701D3*
Y2133701D3*
D32*
X2863701Y2268701D3*
D33*
Y2168701D3*
Y2068701D3*
D35*
X2896054Y983324D3*
X2772038D3*
D36*
X878701Y943071D3*
Y706851D3*
X1063740Y824961D3*
D111*
X723229Y2410630D3*
Y2510630D3*
X823229Y2410630D3*
Y2510630D3*
X923229Y2410630D3*
Y2510630D3*
X1023229Y2410630D3*
Y2510630D3*
X1123229Y2410630D3*
Y2510630D3*
X1223229Y2410630D3*
Y2510630D3*
X1323229Y2410630D3*
Y2510630D3*
X1423229Y2410630D3*
Y2510630D3*
X1523229Y2410630D3*
Y2510630D3*
X1623229Y2410630D3*
Y2510630D3*
X1723229Y2410630D3*
Y2510630D3*
X1823229Y2410630D3*
Y2510630D3*
X1923229Y2410630D3*
Y2510630D3*
X2023229Y2410630D3*
Y2510630D3*
X2123229Y2410630D3*
Y2510630D3*
X2223229Y2410630D3*
Y2510630D3*
X2323229Y2410630D3*
Y2510630D3*
X2423229Y2410630D3*
Y2510630D3*
X2523229Y2410630D3*
Y2510630D3*
X2623229Y2410630D3*
Y2510630D3*
D38*
X493701Y1563701D3*
X593701D3*
X693701D3*
X493701Y1348701D3*
X593701D3*
X693701D3*
X493701Y1133701D3*
X593701D3*
X693701D3*
X1259574Y655848D3*
Y755848D3*
Y855848D3*
D32*
X2863701Y1933701D3*
D33*
X2763701D3*
X2663701D3*
X2563701D3*
X2463701D3*
X2363701D3*
X2263701D3*
X2163701D3*
D32*
X2063701D3*
D33*
X1963701D3*
X1863701D3*
X1763701D3*
X1663701D3*
X1563701D3*
D32*
X1423701Y2293701D3*
D33*
X1523701D3*
D32*
X1623701D3*
D33*
X1723701D3*
X1823701D3*
X1923701D3*
X2023701D3*
X2123701D3*
X2223701D3*
X2323701D3*
D32*
X1863701Y1833701D3*
D33*
X1963701D3*
D38*
X793701Y1803701D3*
X693701D3*
X593701D3*
X493701D3*
X793701Y2023701D3*
X693701D3*
X593701D3*
X493701D3*
X793701Y2233701D3*
X693701D3*
X593701D3*
X493701D3*
D40*
X2643701Y2238701D3*
Y2173701D3*
Y2103701D3*
Y2038701D3*
D42*
X1122963Y1211487D3*
D43*
X1022963D3*
X922963D3*
D46*
X2875649Y921436D3*
X2824467D3*
D45*
X2751103Y758701D3*
X2676299D3*
X1511299Y2218701D3*
X1586103D3*
X1436103D3*
X1361299D3*
X2751103Y838701D3*
X2676299D3*
D49*
X2663404Y1380033D3*
D50*
X2913404Y1680033D3*
X2813404D3*
X2713404D3*
X2613404D3*
X2513404D3*
X2413404D3*
X2313404D3*
X2213404D3*
X2113404D3*
X2013404D3*
X1913404D3*
X1813404D3*
X1713404D3*
X1613404D3*
Y1380033D3*
Y1480033D3*
Y1580033D3*
Y1180033D3*
Y1080033D3*
X1713404D3*
X1813404D3*
X1913404D3*
X2013404D3*
X2113404D3*
X2213404D3*
X2313404D3*
X2413404D3*
X2513404D3*
X2613404D3*
X2713404D3*
X2813404D3*
X2913404D3*
X2813404Y1180033D3*
X2613404D3*
X2513404D3*
X2413404D3*
D51*
X1443335Y1607704D3*
D52*
X1343335D3*
X1243335D3*
X1043335D3*
X1143335D3*
M02*
