G04 DipTrace 3.1.0.1*
G04 TeensyArbotixXYZRPIV0.3.gto*
%MOIN*%
G04 #@! TF.FileFunction,Legend,Top*
G04 #@! TF.Part,Single*
%ADD10C,0.009843*%
%ADD17C,0.008*%
%ADD34C,0.005*%
%ADD37C,0.006*%
%ADD107C,0.006176*%
%ADD108C,0.00772*%
%ADD109C,0.007*%
%ADD110C,0.004632*%
%FSLAX26Y26*%
G04*
G70*
G90*
G75*
G01*
G04 TopSilk*
%LPD*%
X427449Y937461D2*
D17*
X496194D1*
X571208D2*
X639953D1*
Y762451D1*
X602446Y724941D1*
X571208D1*
X427449Y937461D2*
Y762451D1*
X464956Y724941D1*
X496194D1*
X1258732Y1053364D2*
Y1122109D1*
Y1197123D2*
Y1265868D1*
X1433742D1*
X1471252Y1228361D1*
Y1197123D1*
X1258732Y1053364D2*
X1433742D1*
X1471252Y1090871D1*
Y1122109D1*
X2089272Y2034940D2*
D10*
X2038130D1*
X1568130Y852462D2*
X1619272D1*
X2876676Y732574D2*
D17*
X2807931D1*
X2732917D2*
X2664172D1*
Y907584D1*
X2701679Y945094D1*
X2732917D1*
X2876676Y732574D2*
Y907584D1*
X2839169Y945094D1*
X2807931D1*
X2243701Y888701D2*
D10*
X1643701D1*
Y688701D1*
X2243701D2*
X1643701D1*
X2243701Y888701D2*
Y688701D1*
X1643701Y888701D2*
X2243701D1*
X1643701Y988701D2*
X2243701D1*
X1643701Y888701D2*
Y988701D1*
X2243701Y888701D2*
Y988701D1*
X2643701Y888701D2*
X2243701D1*
X2643701Y688701D2*
X2243701D1*
X2643701Y888701D2*
Y688701D1*
X2243701Y888701D2*
Y688701D1*
X2643701Y888701D2*
Y988701D1*
X2243701Y888701D2*
X2643701D1*
X2243701Y988701D2*
X2643701D1*
X2243701Y888701D2*
Y988701D1*
X1513701Y1983701D2*
X2013701D1*
X1513701Y2183701D2*
X2013701D1*
X1513701Y1983701D2*
Y2183701D1*
X2013701Y1983701D2*
Y2183701D1*
X2813701Y2318701D2*
X2913701D1*
Y2018701D1*
X2813701D2*
X2913701D1*
X2813701Y2318701D2*
Y2018701D1*
X1055856Y943072D2*
D17*
X973168D1*
X1055856Y521798D2*
Y730449D1*
Y943072D2*
Y915525D1*
X701536Y521798D2*
Y943072D1*
X784224D1*
X701536Y521798D2*
X1055856D1*
X673229Y2385630D2*
D37*
X698229Y2360630D1*
X748229D1*
X773229Y2385630D1*
X798229Y2360630D1*
X848229D1*
X873229Y2385630D1*
X898229Y2360630D1*
X948229D1*
X973229Y2385630D1*
X998229Y2360630D1*
X1048229D1*
X1073229Y2385630D1*
X1098229Y2360630D1*
X1148229D1*
X1173229Y2385630D1*
X1198229Y2360630D1*
X1248229D1*
X1273229Y2385630D1*
X673229D2*
Y2535630D1*
X698229Y2560630D1*
X748229D1*
X773229Y2535630D1*
X798229Y2560630D1*
X848229D1*
X873229Y2535630D1*
X898229Y2560630D1*
X948229D1*
X973229Y2535630D1*
X998229Y2560630D1*
X1048229D1*
X1073229Y2535630D1*
X1098229Y2560630D1*
X1148229D1*
X1173229Y2535630D1*
X1198229Y2560630D1*
X1248229D1*
X1273229Y2535630D1*
X1298229Y2560630D1*
X1348229D1*
X1373229Y2535630D1*
X1398229Y2560630D1*
X1448229D1*
X1473229Y2535630D1*
X1498229Y2560630D1*
X1548229D1*
X1573229Y2535630D1*
X1598229Y2560630D1*
X1648229D1*
X1673229Y2535630D1*
X1698229Y2560630D1*
X1748229D1*
X1773229Y2535630D1*
X1798229Y2560630D1*
X1848229D1*
X1873229Y2535630D2*
X1848229Y2560630D1*
X1873229Y2535630D2*
X1898229Y2560630D1*
X1948229D2*
X1898229D1*
X1948229D2*
X1973229Y2535630D1*
X1998229Y2560630D1*
X2048229D2*
X1998229D1*
X2048229D2*
X2073229Y2535630D1*
X2098229Y2560630D1*
X2148229D2*
X2098229D1*
X2148229D2*
X2173229Y2535630D1*
X2198229Y2560630D1*
X2248229D2*
X2198229D1*
X2248229D2*
X2273229Y2535630D1*
X2298229Y2560630D1*
X2348229D2*
X2298229D1*
X2348229D2*
X2373229Y2535630D1*
X2398229Y2560630D1*
X2448229D2*
X2398229D1*
X2448229D2*
X2473229Y2535630D1*
X2498229Y2560630D1*
X2548229D2*
X2498229D1*
X2548229D2*
X2573229Y2535630D1*
Y2385630D2*
X2548229Y2360630D1*
X2498229D1*
X2473229Y2385630D2*
X2498229Y2360630D1*
X2473229Y2385630D2*
X2448229Y2360630D1*
X2398229D1*
X2373229Y2385630D2*
X2398229Y2360630D1*
X2373229Y2385630D2*
X2348229Y2360630D1*
X2298229D1*
X2273229Y2385630D2*
X2298229Y2360630D1*
X2273229Y2385630D2*
X2248229Y2360630D1*
X2198229D2*
X2248229D1*
X2198229D2*
X2173229Y2385630D1*
X2148229Y2360630D1*
X2098229D2*
X2148229D1*
X2098229D2*
X2073229Y2385630D1*
X2048229Y2360630D1*
X1998229D1*
X1973229Y2385630D2*
X1998229Y2360630D1*
X1973229Y2385630D2*
X1948229Y2360630D1*
X1898229D1*
X1873229Y2385630D2*
X1898229Y2360630D1*
X1873229Y2385630D2*
X1848229Y2360630D1*
X1798229D1*
X1773229Y2385630D2*
X1798229Y2360630D1*
X1773229Y2385630D2*
X1748229Y2360630D1*
X1698229D1*
X1673229Y2385630D2*
X1698229Y2360630D1*
X1673229Y2385630D2*
X1648229Y2360630D1*
X1598229D1*
X1573229Y2385630D2*
X1598229Y2360630D1*
X1573229Y2385630D2*
X1548229Y2360630D1*
X1498229D1*
X1473229Y2385630D2*
X1498229Y2360630D1*
X1473229Y2385630D2*
X1448229Y2360630D1*
X1398229D1*
X1373229Y2385630D2*
X1398229Y2360630D1*
X1373229Y2385630D2*
X1348229Y2360630D1*
X1298229D1*
X1273229Y2385630D2*
X1298229Y2360630D1*
X773229Y2535630D2*
Y2385630D1*
X873229Y2535630D2*
Y2385630D1*
X973229Y2535630D2*
Y2385630D1*
X1073229Y2535630D2*
Y2385630D1*
X1173229Y2535630D2*
Y2385630D1*
X1273229Y2535630D2*
Y2385630D1*
X1373229Y2535630D2*
Y2385630D1*
X1473229Y2535630D2*
Y2385630D1*
X1573229Y2535630D2*
Y2385630D1*
X1673229Y2535630D2*
Y2385630D1*
X1773229Y2535630D2*
Y2385630D1*
X1873229Y2535630D2*
Y2385630D1*
X1973229Y2535630D2*
Y2385630D1*
X2073229Y2535630D2*
Y2385630D1*
X2173229Y2535630D2*
Y2385630D1*
X2273229Y2535630D2*
Y2385630D1*
X2373229Y2535630D2*
Y2385630D1*
X2473229Y2535630D2*
Y2385630D1*
X2573229Y2535630D2*
Y2385630D1*
Y2535630D2*
X2598229Y2560630D1*
X2648229D2*
X2598229D1*
X2648229D2*
X2673229Y2535630D1*
Y2385630D2*
X2648229Y2360630D1*
X2598229D1*
X2573229Y2385630D2*
X2598229Y2360630D1*
X2673229Y2535630D2*
Y2385630D1*
X398819Y1441654D2*
D34*
X788583D1*
Y1634566D1*
X669705Y1634701D2*
X619698D1*
X569692D1*
X519685D1*
X469717D1*
X450385Y1634682D1*
X398819Y1591265D1*
Y1441654D1*
X518710Y1633697D2*
X543694Y1608698D1*
X568717Y1633697D1*
X618685Y1634566D2*
X643708Y1610705D1*
X668692Y1634566D1*
X718698D1*
X785426D1*
X717685Y1632693D2*
X743682Y1607694D1*
X743721Y1513699D1*
X443681D1*
X443720Y1606709D1*
X471705Y1631709D1*
X398819Y1226654D2*
X788583D1*
Y1419566D1*
X669705Y1419701D2*
X619698D1*
X569692D1*
X519685D1*
X469717D1*
X450385Y1419682D1*
X398819Y1376265D1*
Y1226654D1*
X518710Y1418697D2*
X543694Y1393698D1*
X568717Y1418697D1*
X618685Y1419566D2*
X643708Y1395705D1*
X668692Y1419566D1*
X718698D1*
X785426D1*
X717685Y1417693D2*
X743682Y1392694D1*
X743721Y1298699D1*
X443681D1*
X443720Y1391709D1*
X471705Y1416709D1*
X398819Y1011654D2*
X788583D1*
Y1204566D1*
X669705Y1204701D2*
X619698D1*
X569692D1*
X519685D1*
X469717D1*
X450385Y1204682D1*
X398819Y1161265D1*
Y1011654D1*
X518710Y1203697D2*
X543694Y1178698D1*
X568717Y1203697D1*
X618685Y1204566D2*
X643708Y1180705D1*
X668692Y1204566D1*
X718698D1*
X785426D1*
X717685Y1202693D2*
X743682Y1177694D1*
X743721Y1083699D1*
X443681D1*
X443720Y1176709D1*
X471705Y1201709D1*
X1381621Y560966D2*
Y950730D1*
X1188709D1*
X1188574Y831852D2*
Y781845D1*
Y731839D1*
Y681832D1*
Y631864D1*
X1188593Y612532D1*
X1232009Y560966D1*
X1381621D1*
X1189578Y680857D2*
X1214577Y705841D1*
X1189578Y730864D1*
X1188709Y780832D2*
X1212569Y805855D1*
X1188709Y830839D1*
Y880845D1*
Y947573D1*
X1190581Y879832D2*
X1215581Y905829D1*
X1309576Y905868D1*
Y605828D1*
X1216566Y605867D1*
X1191566Y633852D1*
X2913701Y1883701D2*
D10*
X2113701D1*
X2913701Y1983701D2*
Y1883701D1*
Y1983701D2*
X2113701D1*
Y1883701D1*
Y1983701D2*
X1513701D1*
X2113701Y1883701D2*
X1513701D1*
X2113701Y1983701D2*
Y1883701D1*
X1513701Y1983701D2*
Y1883701D1*
X1573701Y2243701D2*
Y2343701D1*
X1373701Y2243701D2*
X1573701D1*
X1373701D2*
Y2343701D1*
X1573701D1*
X2373701D1*
X1573701Y2243701D2*
Y2343701D1*
Y2243701D2*
X2373701D1*
Y2343701D1*
X2013701Y1783701D2*
Y1883701D1*
X1813701Y1783701D2*
X2013701D1*
X1813701D2*
Y1883701D1*
X2013701D1*
X574964Y1728701D2*
D34*
X549955Y1756701D1*
X524946Y1728701D1*
X468689D1*
X399951D1*
X887451Y1928701D2*
X399951D1*
Y1728701D1*
X618692D2*
X649941D1*
X718679D1*
X768696D1*
X818714D1*
X837434D1*
X887451Y1778701D1*
Y1928701D1*
X768696Y1728701D2*
X743687Y1758701D1*
X718679Y1728701D1*
X668710D2*
X643701Y1756701D1*
X618692Y1728701D1*
X562435D1*
X468689D1*
X443680Y1759961D1*
Y1853701D1*
X843722D1*
X843674Y1760701D1*
X812474Y1728701D1*
X574964Y1948701D2*
X549955Y1976701D1*
X524946Y1948701D1*
X468689D1*
X399951D1*
X887451Y2148701D2*
X399951D1*
Y1948701D1*
X618692D2*
X649941D1*
X718679D1*
X768696D1*
X818714D1*
X837434D1*
X887451Y1998701D1*
Y2148701D1*
X768696Y1948701D2*
X743687Y1978701D1*
X718679Y1948701D1*
X668710D2*
X643701Y1976701D1*
X618692Y1948701D1*
X562435D1*
X468689D1*
X443680Y1979961D1*
Y2073701D1*
X843722D1*
X843674Y1980701D1*
X812474Y1948701D1*
X574964Y2158701D2*
X549955Y2186701D1*
X524946Y2158701D1*
X468689D1*
X399951D1*
X887451Y2358701D2*
X399951D1*
Y2158701D1*
X618692D2*
X649941D1*
X718679D1*
X768696D1*
X818714D1*
X837434D1*
X887451Y2208701D1*
Y2358701D1*
X768696Y2158701D2*
X743687Y2188701D1*
X718679Y2158701D1*
X668710D2*
X643701Y2186701D1*
X618692Y2158701D1*
X562435D1*
X468689D1*
X443680Y2189961D1*
Y2283701D1*
X843722D1*
X843674Y2190701D1*
X812474Y2158701D1*
G36*
X2310663Y484910D2*
X2318536D1*
Y477036D1*
X2310663D1*
Y484910D1*
G37*
X2568701Y2238695D2*
D34*
X2613701D1*
X2718701D2*
X2673701D1*
X2712701Y2030689D2*
G02X2574701Y2030689I-69000J97267D01*
G01*
G36*
X2922638Y750057D2*
X2914764D1*
Y742183D1*
X2922638D1*
Y750057D1*
G37*
X1026138Y1962207D2*
D17*
Y1938586D1*
X1057638D1*
X1026138Y2025195D2*
Y2048816D1*
X1057638D1*
X1219814Y1105188D2*
D10*
X826113D1*
Y1282353D1*
X1219814D1*
Y1105188D1*
Y1140621D2*
X826113D1*
X1462794Y961768D2*
D17*
X1486415D1*
Y993268D1*
X1399805Y961768D2*
X1376184D1*
Y993268D1*
X1026138Y2162207D2*
Y2138586D1*
X1057638D1*
X1026138Y2225195D2*
Y2248816D1*
X1057638D1*
X2497794Y2226768D2*
X2521415D1*
Y2258268D1*
X2434805Y2226768D2*
X2411184D1*
Y2258268D1*
X1026138Y1762207D2*
Y1738586D1*
X1057638D1*
X1026138Y1825195D2*
Y1848816D1*
X1057638D1*
X2456200Y443699D2*
D34*
X2656202D1*
X2687436Y468704D2*
Y524946D1*
X2674936D1*
X2624935D2*
X2487467D1*
X2497189Y441700D2*
Y411697D1*
G03X2507202Y401701I10011J16D01*
G01*
X2605200D1*
G03X2615213Y411697I2J10012D01*
G01*
Y441700D1*
X2443700Y524946D2*
X2424966D1*
Y468704D1*
X1793700Y448699D2*
X1993702D1*
X2024936Y473704D2*
Y529946D1*
X2012436D1*
X1962435D2*
X1824967D1*
X1834689Y446700D2*
Y416697D1*
G03X1844702Y406701I10011J16D01*
G01*
X1942700D1*
G03X1952713Y416697I2J10012D01*
G01*
Y446700D1*
X1781200Y529946D2*
X1762466D1*
Y473704D1*
X1193700Y448699D2*
X1393702D1*
X1424936Y473704D2*
Y529946D1*
X1412436D1*
X1362435D2*
X1224967D1*
X1234689Y446700D2*
Y416697D1*
G03X1244702Y406701I10011J16D01*
G01*
X1342700D1*
G03X1352713Y416697I2J10012D01*
G01*
Y446700D1*
X1181200Y529946D2*
X1162466D1*
Y473704D1*
X2913424Y1430013D2*
D17*
Y1330053D1*
X2963404D1*
Y1030033D1*
X1563404D1*
Y1730033D1*
X2963404D1*
Y1430013D1*
X2913424D1*
X818335Y1707704D2*
D10*
X1518335D1*
Y1307704D1*
X818335D1*
Y1707704D1*
X528476Y1017729D2*
D107*
X526575Y1021531D1*
X522728Y1025378D1*
X518925Y1027279D1*
X511276D1*
X507429Y1025378D1*
X503627Y1021531D1*
X501681Y1017729D1*
X499780Y1011981D1*
Y1002386D1*
X501681Y996682D1*
X503627Y992835D1*
X507429Y989033D1*
X511276Y987087D1*
X518925D1*
X522728Y989033D1*
X526575Y992835D1*
X528476Y996682D1*
X542773Y1017685D2*
Y1019586D1*
X544674Y1023433D1*
X546575Y1025334D1*
X550422Y1027235D1*
X558071D1*
X561874Y1025334D1*
X563775Y1023433D1*
X565721Y1019586D1*
Y1015783D1*
X563775Y1011937D1*
X559973Y1006233D1*
X540827Y987087D1*
X567622D1*
X1359767Y1172571D2*
X1357866Y1176373D1*
X1354019Y1180220D1*
X1350217Y1182121D1*
X1342567D1*
X1338721Y1180220D1*
X1334918Y1176373D1*
X1332973Y1172571D1*
X1331071Y1166823D1*
Y1157228D1*
X1332973Y1151524D1*
X1334918Y1147677D1*
X1338721Y1143875D1*
X1342567Y1141929D1*
X1350217D1*
X1354019Y1143875D1*
X1357866Y1147677D1*
X1359767Y1151524D1*
X1375965Y1182077D2*
X1396968D1*
X1385516Y1166779D1*
X1391264D1*
X1395067Y1164877D1*
X1396968Y1162976D1*
X1398913Y1157228D1*
Y1153426D1*
X1396968Y1147677D1*
X1393165Y1143831D1*
X1387417Y1141929D1*
X1381669D1*
X1375965Y1143831D1*
X1374064Y1145776D1*
X1372119Y1149579D1*
X2058476Y2011822D2*
X2056575Y2015625D1*
X2052728Y2019472D1*
X2048925Y2021373D1*
X2041276D1*
X2037429Y2019472D1*
X2033627Y2015625D1*
X2031681Y2011822D1*
X2029780Y2006074D1*
Y1996479D1*
X2031681Y1990776D1*
X2033627Y1986929D1*
X2037429Y1983126D1*
X2041276Y1981181D1*
X2048925D1*
X2052728Y1983126D1*
X2056575Y1986929D1*
X2058476Y1990776D1*
X2093775Y2021329D2*
X2074674D1*
X2072773Y2004129D1*
X2074674Y2006030D1*
X2080422Y2007976D1*
X2086126D1*
X2091874Y2006030D1*
X2095721Y2002228D1*
X2097622Y1996479D1*
Y1992677D1*
X2095721Y1986929D1*
X2091874Y1983082D1*
X2086126Y1981181D1*
X2080422D1*
X2074674Y1983082D1*
X2072773Y1985028D1*
X2070827Y1988830D1*
X1588476Y687591D2*
X1586575Y691394D1*
X1582728Y695241D1*
X1578925Y697142D1*
X1571276D1*
X1567429Y695241D1*
X1563627Y691394D1*
X1561681Y687591D1*
X1559780Y681843D1*
Y672249D1*
X1561681Y666545D1*
X1563627Y662698D1*
X1567429Y658895D1*
X1571276Y656950D1*
X1578925D1*
X1582728Y658895D1*
X1586575Y662698D1*
X1588476Y666545D1*
X1608477Y656950D2*
X1627622Y697098D1*
X1600827D1*
X2757469Y834559D2*
X2753666Y832658D1*
X2749820Y828811D1*
X2747918Y825009D1*
Y817359D1*
X2749820Y813513D1*
X2753666Y809710D1*
X2757469Y807765D1*
X2763217Y805863D1*
X2772812D1*
X2778516Y807765D1*
X2782362Y809710D1*
X2786165Y813513D1*
X2788110Y817359D1*
Y825009D1*
X2786165Y828811D1*
X2782362Y832658D1*
X2778516Y834559D1*
X2761316Y871804D2*
X2767064Y869858D1*
X2770911Y866056D1*
X2772812Y860308D1*
Y858407D1*
X2770911Y852659D1*
X2767064Y848856D1*
X2761316Y846911D1*
X2759414D1*
X2753666Y848856D1*
X2749864Y852659D1*
X2747963Y858407D1*
Y860308D1*
X2749864Y866056D1*
X2753666Y869858D1*
X2761316Y871804D1*
X2770911D1*
X2780461Y869858D1*
X2786209Y866056D1*
X2788110Y860308D1*
Y856505D1*
X2786209Y850757D1*
X2782362Y848856D1*
X2279616Y442799D2*
Y402607D1*
X2302564D1*
X2316861Y433205D2*
Y435106D1*
X2318762Y438953D1*
X2320663Y440854D1*
X2324510Y442755D1*
X2332159D1*
X2335962Y440854D1*
X2337863Y438953D1*
X2339809Y435106D1*
Y431303D1*
X2337863Y427457D1*
X2334061Y421753D1*
X2314915Y402607D1*
X2341710D1*
X2617024Y2323854D2*
Y2283662D1*
X2590229Y2323854D1*
Y2283662D1*
X2654224Y2323854D2*
X2629375D1*
Y2283662D1*
X2654224D1*
X2629375Y2304709D2*
X2644674D1*
X2678072Y2323854D2*
X2674225Y2321953D1*
X2670422Y2318106D1*
X2668477Y2314304D1*
X2666576Y2308556D1*
Y2298961D1*
X2668477Y2293257D1*
X2670422Y2289410D1*
X2674225Y2285608D1*
X2678072Y2283662D1*
X2685721D1*
X2689524Y2285608D1*
X2693370Y2289410D1*
X2695272Y2293257D1*
X2697173Y2298961D1*
Y2308556D1*
X2695272Y2314304D1*
X2693370Y2318106D1*
X2689524Y2321953D1*
X2685721Y2323854D1*
X2678072D1*
X2860410Y650482D2*
X2877654D1*
X2883357Y652384D1*
X2885303Y654329D1*
X2887204Y658132D1*
Y663880D1*
X2885303Y667682D1*
X2883357Y669628D1*
X2877654Y671529D1*
X2860410D1*
Y631337D1*
X2899556Y671529D2*
X2909150Y631337D1*
X2918701Y671529D1*
X2928252Y631337D1*
X2937846Y671529D1*
X2950198Y652384D2*
X2967398D1*
X2973146Y654329D1*
X2975091Y656230D1*
X2976992Y660033D1*
Y663880D1*
X2975091Y667682D1*
X2973146Y669628D1*
X2967398Y671529D1*
X2950198D1*
Y631337D1*
X2963595Y652384D2*
X2976992Y631337D1*
X1036935Y2108279D2*
X1033132Y2106422D1*
X1029285Y2102576D1*
X1027384Y2098729D1*
X1025439Y2092981D1*
Y2083430D1*
X1027384Y2077682D1*
X1029285Y2073880D1*
X1033132Y2070033D1*
X1036935Y2068132D1*
X1044584D1*
X1048431Y2070033D1*
X1052233Y2073880D1*
X1054135Y2077682D1*
X1056080Y2083430D1*
Y2092981D1*
X1054135Y2098729D1*
X1052233Y2102576D1*
X1048431Y2106422D1*
X1044584Y2108279D1*
X1036935D1*
X1042683Y2075781D2*
X1054135Y2064285D1*
X1068432Y2100586D2*
X1072278Y2102531D1*
X1078026Y2108235D1*
Y2068087D1*
X999566Y1161278D2*
X995763Y1159421D1*
X991916Y1155574D1*
X990015Y1151727D1*
X988070Y1145979D1*
Y1136428D1*
X990015Y1130680D1*
X991916Y1126878D1*
X995763Y1123031D1*
X999566Y1121130D1*
X1007215D1*
X1011062Y1123031D1*
X1014864Y1126878D1*
X1016766Y1130680D1*
X1018711Y1136428D1*
Y1145979D1*
X1016766Y1151727D1*
X1014864Y1155574D1*
X1011062Y1159421D1*
X1007215Y1161278D1*
X999566D1*
X1005314Y1128779D2*
X1016766Y1117283D1*
X1033008Y1151683D2*
Y1153584D1*
X1034909Y1157431D1*
X1036811Y1159332D1*
X1040657Y1161233D1*
X1048307D1*
X1052109Y1159332D1*
X1054010Y1157431D1*
X1055956Y1153584D1*
Y1149782D1*
X1054010Y1145935D1*
X1050208Y1140231D1*
X1031063Y1121086D1*
X1057857D1*
X1316721Y963965D2*
X1318578Y960162D1*
X1322425Y956316D1*
X1326272Y954414D1*
X1332020Y952469D1*
X1341570D1*
X1347318Y954414D1*
X1351121Y956316D1*
X1354968Y960162D1*
X1356869Y963965D1*
Y971614D1*
X1354968Y975461D1*
X1351121Y979263D1*
X1347318Y981165D1*
X1341570Y983110D1*
X1332020D1*
X1326272Y981165D1*
X1322425Y979263D1*
X1318578Y975461D1*
X1316721Y971614D1*
Y963965D1*
X1349220Y969713D2*
X1360716Y981165D1*
X1316765Y999308D2*
Y1020311D1*
X1332064Y1008859D1*
Y1014607D1*
X1333965Y1018409D1*
X1335866Y1020311D1*
X1341614Y1022256D1*
X1345417D1*
X1351165Y1020311D1*
X1355012Y1016508D1*
X1356913Y1010760D1*
Y1005012D1*
X1355012Y999308D1*
X1353066Y997407D1*
X1349264Y995462D1*
X1027384Y2308279D2*
X1023582Y2306422D1*
X1019735Y2302576D1*
X1017834Y2298729D1*
X1015888Y2292981D1*
Y2283430D1*
X1017834Y2277682D1*
X1019735Y2273880D1*
X1023582Y2270033D1*
X1027384Y2268132D1*
X1035033D1*
X1038880Y2270033D1*
X1042683Y2273880D1*
X1044584Y2277682D1*
X1046530Y2283430D1*
Y2292981D1*
X1044584Y2298729D1*
X1042683Y2302576D1*
X1038880Y2306422D1*
X1035033Y2308279D1*
X1027384D1*
X1033132Y2275781D2*
X1044584Y2264285D1*
X1078026Y2268087D2*
Y2308235D1*
X1058881Y2281485D1*
X1087577D1*
X2442902Y2369996D2*
X2439099Y2368139D1*
X2435252Y2364292D1*
X2433351Y2360445D1*
X2431406Y2354697D1*
Y2345147D1*
X2433351Y2339399D1*
X2435252Y2335596D1*
X2439099Y2331749D1*
X2442902Y2329848D1*
X2450551D1*
X2454398Y2331749D1*
X2458200Y2335596D1*
X2460102Y2339399D1*
X2462047Y2345147D1*
Y2354697D1*
X2460102Y2360445D1*
X2458200Y2364292D1*
X2454398Y2368139D1*
X2450551Y2369996D1*
X2442902D1*
X2448650Y2337498D2*
X2460102Y2326001D1*
X2497346Y2369952D2*
X2478245D1*
X2476344Y2352752D1*
X2478245Y2354653D1*
X2483993Y2356599D1*
X2489697D1*
X2495445Y2354653D1*
X2499292Y2350851D1*
X2501193Y2345103D1*
Y2341300D1*
X2499292Y2335552D1*
X2495445Y2331705D1*
X2489697Y2329804D1*
X2483993D1*
X2478245Y2331705D1*
X2476344Y2333651D1*
X2474399Y2337453D1*
X1029308Y1908279D2*
X1025505Y1906422D1*
X1021658Y1902576D1*
X1019757Y1898729D1*
X1017811Y1892981D1*
Y1883430D1*
X1019757Y1877682D1*
X1021658Y1873880D1*
X1025505Y1870033D1*
X1029308Y1868132D1*
X1036957D1*
X1040804Y1870033D1*
X1044606Y1873880D1*
X1046507Y1877682D1*
X1048453Y1883430D1*
Y1892981D1*
X1046507Y1898729D1*
X1044606Y1902576D1*
X1040804Y1906422D1*
X1036957Y1908279D1*
X1029308D1*
X1035056Y1875781D2*
X1046507Y1864285D1*
X1083752Y1902531D2*
X1081851Y1906334D1*
X1076103Y1908235D1*
X1072300D1*
X1066552Y1906334D1*
X1062706Y1900586D1*
X1060804Y1891035D1*
Y1881485D1*
X1062706Y1873835D1*
X1066552Y1869989D1*
X1072300Y1868087D1*
X1074202D1*
X1079905Y1869989D1*
X1083752Y1873835D1*
X1085654Y1879584D1*
Y1881485D1*
X1083752Y1887233D1*
X1079905Y1891035D1*
X1074202Y1892937D1*
X1072300D1*
X1066552Y1891035D1*
X1062706Y1887233D1*
X1060804Y1881485D1*
X1346230Y732238D2*
Y749438D1*
X1344284Y755186D1*
X1342383Y757131D1*
X1338581Y759032D1*
X1334734D1*
X1330931Y757131D1*
X1328986Y755186D1*
X1327084Y749438D1*
Y732238D1*
X1367276D1*
X1346230Y745635D2*
X1367276Y759032D1*
X1334778Y771384D2*
X1332833Y775230D1*
X1327129Y780979D1*
X1367276Y780978D1*
X1346230Y623638D2*
Y640838D1*
X1344284Y646586D1*
X1342383Y648531D1*
X1338581Y650432D1*
X1334734D1*
X1330931Y648531D1*
X1328986Y646586D1*
X1327084Y640838D1*
Y623638D1*
X1367276D1*
X1346230Y637035D2*
X1367276Y650432D1*
X1336679Y664729D2*
X1334778D1*
X1330931Y666631D1*
X1329030Y668532D1*
X1327129Y672379D1*
Y680028D1*
X1329030Y683830D1*
X1330931Y685732D1*
X1334778Y687677D1*
X1338581D1*
X1342427Y685732D1*
X1348131Y681929D1*
X1367276Y662784D1*
Y689578D1*
X859740Y1760731D2*
Y1777931D1*
X857795Y1783679D1*
X855894Y1785624D1*
X852091Y1787525D1*
X848244D1*
X844442Y1785624D1*
X842496Y1783679D1*
X840595Y1777931D1*
Y1760731D1*
X880787D1*
X859740Y1774128D2*
X880787Y1787525D1*
X840639Y1803724D2*
Y1824726D1*
X855938Y1813274D1*
Y1819022D1*
X857839Y1822825D1*
X859740Y1824726D1*
X865488Y1826671D1*
X869291D1*
X875039Y1824726D1*
X878886Y1820923D1*
X880787Y1815175D1*
Y1809427D1*
X878886Y1803723D1*
X876940Y1801822D1*
X873138Y1799877D1*
X2890261Y1006303D2*
X2907461D1*
X2913209Y1008249D1*
X2915154Y1010150D1*
X2917055Y1013953D1*
Y1017799D1*
X2915154Y1021602D1*
X2913209Y1023547D1*
X2907461Y1025449D1*
X2890261D1*
Y985257D1*
X2903658Y1006303D2*
X2917055Y985257D1*
X2952355Y1025405D2*
X2933254D1*
X2931352Y1008205D1*
X2933254Y1010106D1*
X2939002Y1012051D1*
X2944705D1*
X2950454Y1010106D1*
X2954300Y1006303D1*
X2956202Y1000555D1*
Y996753D1*
X2954300Y991005D1*
X2950454Y987158D1*
X2944705Y985257D1*
X2939002D1*
X2933254Y987158D1*
X2931352Y989104D1*
X2929407Y992906D1*
X1164386Y983141D2*
Y1000340D1*
X1162440Y1006088D1*
X1160539Y1008034D1*
X1156737Y1009935D1*
X1152890D1*
X1149087Y1008034D1*
X1147142Y1006088D1*
X1145240Y1000340D1*
Y983141D1*
X1185432D1*
X1164386Y996538D2*
X1185432Y1009935D1*
X1150988Y1045234D2*
X1147186Y1043333D1*
X1145285Y1037585D1*
Y1033783D1*
X1147186Y1028035D1*
X1152934Y1024188D1*
X1162485Y1022287D1*
X1172035Y1022286D1*
X1179684Y1024188D1*
X1183531Y1028034D1*
X1185432Y1033783D1*
Y1035684D1*
X1183531Y1041388D1*
X1179684Y1045234D1*
X1173936Y1047136D1*
X1172035D1*
X1166287Y1045234D1*
X1162485Y1041388D1*
X1160583Y1035684D1*
Y1033783D1*
X1162485Y1028035D1*
X1166287Y1024188D1*
X1172035Y1022286D1*
X1524740Y921681D2*
Y938881D1*
X1522795Y944629D1*
X1520894Y946575D1*
X1517091Y948476D1*
X1513244D1*
X1509442Y946575D1*
X1507496Y944629D1*
X1505595Y938881D1*
Y921681D1*
X1545787D1*
X1524740Y935079D2*
X1545787Y948476D1*
X1518992Y985721D2*
X1524740Y983775D1*
X1528587Y979973D1*
X1530488Y974225D1*
Y972323D1*
X1528587Y966575D1*
X1524740Y962773D1*
X1518992Y960827D1*
X1517091D1*
X1511343Y962773D1*
X1507541Y966575D1*
X1505639Y972323D1*
Y974225D1*
X1507541Y979973D1*
X1511343Y983775D1*
X1518992Y985721D1*
X1528587D1*
X1538138Y983775D1*
X1543886Y979973D1*
X1545787Y974225D1*
Y970422D1*
X1543886Y964674D1*
X1540039Y962773D1*
X1292750Y1953134D2*
X1309950D1*
X1315698Y1955080D1*
X1317643Y1956981D1*
X1319544Y1960783D1*
Y1964630D1*
X1317643Y1968433D1*
X1315698Y1970378D1*
X1309950Y1972279D1*
X1292750D1*
Y1932087D1*
X1306147Y1953134D2*
X1319544Y1932087D1*
X1331896Y1964586D2*
X1335742Y1966531D1*
X1341491Y1972235D1*
Y1932087D1*
X1355787Y1962685D2*
Y1964586D1*
X1357689Y1968433D1*
X1359590Y1970334D1*
X1363437Y1972235D1*
X1371086D1*
X1374889Y1970334D1*
X1376790Y1968433D1*
X1378735Y1964586D1*
Y1960783D1*
X1376790Y1956937D1*
X1372987Y1951233D1*
X1353842Y1932087D1*
X1380637D1*
X1346276Y809758D2*
Y826958D1*
X1344330Y832706D1*
X1342429Y834651D1*
X1338627Y836552D1*
X1334780D1*
X1330977Y834651D1*
X1329032Y832706D1*
X1327130Y826958D1*
Y809758D1*
X1367322D1*
X1346276Y823155D2*
X1367322Y836552D1*
X1334824Y848904D2*
X1332879Y852750D1*
X1327175Y858498D1*
X1367322D1*
X1327175Y874697D2*
Y895699D1*
X1342473Y884247D1*
Y889995D1*
X1344375Y893798D1*
X1346276Y895699D1*
X1352024Y897644D1*
X1355826D1*
X1361574Y895699D1*
X1365421Y891896D1*
X1367322Y886148D1*
Y880400D1*
X1365421Y874697D1*
X1363476Y872795D1*
X1359673Y870850D1*
X1842506Y491972D2*
X1859706D1*
X1865454Y493917D1*
X1867400Y495818D1*
X1869301Y499621D1*
Y503468D1*
X1867400Y507270D1*
X1865454Y509216D1*
X1859706Y511117D1*
X1842506D1*
Y470925D1*
X1855904Y491972D2*
X1869301Y470925D1*
X1881652Y503423D2*
X1885499Y505369D1*
X1891247Y511073D1*
Y470925D1*
X1922744D2*
Y511073D1*
X1903599Y484322D1*
X1932295D1*
X1642994Y516331D2*
X1660194D1*
X1665942Y518277D1*
X1667887Y520178D1*
X1669788Y523981D1*
Y527827D1*
X1667887Y531630D1*
X1665942Y533575D1*
X1660194Y535477D1*
X1642994D1*
Y495285D1*
X1656391Y516331D2*
X1669788Y495285D1*
X1682140Y527783D2*
X1685987Y529729D1*
X1691735Y535432D1*
Y495285D1*
X1727034Y535432D2*
X1707933D1*
X1706032Y518232D1*
X1707933Y520134D1*
X1713681Y522079D1*
X1719385D1*
X1725133Y520134D1*
X1728979Y516331D1*
X1730881Y510583D1*
Y506781D1*
X1728979Y501033D1*
X1725133Y497186D1*
X1719385Y495285D1*
X1713681D1*
X1707933Y497186D1*
X1706032Y499131D1*
X1704086Y502934D1*
X1473091Y513666D2*
X1490291D1*
X1496039Y515611D1*
X1497985Y517513D1*
X1499886Y521315D1*
Y525162D1*
X1497985Y528964D1*
X1496039Y530910D1*
X1490291Y532811D1*
X1473091D1*
Y492619D1*
X1486489Y513666D2*
X1499886Y492619D1*
X1512237Y525118D2*
X1516084Y527063D1*
X1521832Y532767D1*
Y492619D1*
X1557131Y527063D2*
X1555230Y530866D1*
X1549482Y532767D1*
X1545679D1*
X1539931Y530866D1*
X1536085Y525118D1*
X1534183Y515567D1*
Y506017D1*
X1536085Y498367D1*
X1539931Y494520D1*
X1545679Y492619D1*
X1547581D1*
X1553285Y494520D1*
X1557131Y498367D1*
X1559033Y504115D1*
Y506017D1*
X1557131Y511765D1*
X1553285Y515567D1*
X1547581Y517468D1*
X1545679D1*
X1539931Y515567D1*
X1536085Y511765D1*
X1534183Y506017D1*
X2324758Y2017997D2*
X2341957D1*
X2347705Y2019942D1*
X2349651Y2021843D1*
X2351552Y2025646D1*
Y2029493D1*
X2349651Y2033295D1*
X2347705Y2035241D1*
X2341957Y2037142D1*
X2324758D1*
Y1996950D1*
X2338155Y2017997D2*
X2351552Y1996950D1*
X2363904Y2029448D2*
X2367750Y2031394D1*
X2373498Y2037098D1*
Y1996950D1*
X2393499D2*
X2412644Y2037098D1*
X2385850D1*
X2211956Y509620D2*
Y526820D1*
X2210010Y532568D1*
X2208109Y534513D1*
X2204306Y536414D1*
X2200460D1*
X2196657Y534513D1*
X2194712Y532568D1*
X2192810Y526820D1*
Y509620D1*
X2233002D1*
X2211956Y523017D2*
X2233002Y536414D1*
X2200504Y548766D2*
X2198558Y552612D1*
X2192854Y558360D1*
X2233002D1*
X2192854Y580262D2*
X2194756Y574559D1*
X2198558Y572613D1*
X2202405D1*
X2206208Y574559D1*
X2208153Y578361D1*
X2210054Y586010D1*
X2211956Y591758D1*
X2215802Y595561D1*
X2219605Y597462D1*
X2225353D1*
X2229155Y595561D1*
X2231101Y593660D1*
X2233002Y587912D1*
Y580262D1*
X2231101Y574559D1*
X2229155Y572613D1*
X2225353Y570712D1*
X2219605D1*
X2215802Y572613D1*
X2211956Y576460D1*
X2210054Y582164D1*
X2208153Y589813D1*
X2206208Y593660D1*
X2202405Y595561D1*
X2198558D1*
X2194756Y593660D1*
X2192854Y587912D1*
Y580262D1*
X1293700Y2053134D2*
X1310900D1*
X1316648Y2055080D1*
X1318594Y2056981D1*
X1320495Y2060783D1*
Y2064630D1*
X1318594Y2068433D1*
X1316648Y2070378D1*
X1310900Y2072279D1*
X1293700D1*
Y2032087D1*
X1307098Y2053134D2*
X1320495Y2032087D1*
X1332846Y2064586D2*
X1336693Y2066531D1*
X1342441Y2072235D1*
Y2032087D1*
X1379686Y2058882D2*
X1377740Y2053134D1*
X1373938Y2049287D1*
X1368190Y2047386D1*
X1366289D1*
X1360541Y2049287D1*
X1356738Y2053134D1*
X1354793Y2058882D1*
Y2060783D1*
X1356738Y2066531D1*
X1360541Y2070334D1*
X1366289Y2072235D1*
X1368190D1*
X1373938Y2070334D1*
X1377740Y2066531D1*
X1379686Y2058882D1*
Y2049287D1*
X1377740Y2039737D1*
X1373938Y2033989D1*
X1368190Y2032087D1*
X1364387D1*
X1358639Y2033989D1*
X1356738Y2037835D1*
X864740Y1941158D2*
Y1958358D1*
X862795Y1964106D1*
X860894Y1966051D1*
X857091Y1967952D1*
X853244D1*
X849442Y1966051D1*
X847496Y1964106D1*
X845595Y1958358D1*
Y1941158D1*
X885787D1*
X864740Y1954555D2*
X885787Y1967952D1*
X855190Y1982249D2*
X853289D1*
X849442Y1984151D1*
X847541Y1986052D1*
X845639Y1989899D1*
Y1997548D1*
X847541Y2001350D1*
X849442Y2003252D1*
X853289Y2005197D1*
X857091D1*
X860938Y2003252D1*
X866642Y1999449D1*
X885787Y1980304D1*
Y2007098D1*
X845639Y2030946D2*
X847541Y2025198D1*
X853289Y2021351D1*
X862839Y2019450D1*
X868587D1*
X878138Y2021351D1*
X883886Y2025198D1*
X885787Y2030946D1*
Y2034748D1*
X883886Y2040496D1*
X878138Y2044299D1*
X868587Y2046244D1*
X862839D1*
X853289Y2044299D1*
X847541Y2040496D1*
X845639Y2034748D1*
Y2030946D1*
X853289Y2044299D2*
X878138Y2021351D1*
X1292750Y2253134D2*
X1309950D1*
X1315698Y2255080D1*
X1317643Y2256981D1*
X1319544Y2260783D1*
Y2264630D1*
X1317643Y2268433D1*
X1315698Y2270378D1*
X1309950Y2272279D1*
X1292750D1*
Y2232087D1*
X1306147Y2253134D2*
X1319544Y2232087D1*
X1333841Y2262685D2*
Y2264586D1*
X1335742Y2268433D1*
X1337644Y2270334D1*
X1341491Y2272235D1*
X1349140D1*
X1352942Y2270334D1*
X1354844Y2268433D1*
X1356789Y2264586D1*
Y2260783D1*
X1354844Y2256937D1*
X1351041Y2251233D1*
X1331896Y2232087D1*
X1358690D1*
X1371042Y2264586D2*
X1374889Y2266531D1*
X1380637Y2272235D1*
Y2232087D1*
X1294150Y2153134D2*
X1311350D1*
X1317098Y2155080D1*
X1319043Y2156981D1*
X1320944Y2160783D1*
Y2164630D1*
X1319043Y2168433D1*
X1317098Y2170378D1*
X1311350Y2172279D1*
X1294150D1*
Y2132087D1*
X1307547Y2153134D2*
X1320944Y2132087D1*
X1335241Y2162685D2*
Y2164586D1*
X1337143Y2168433D1*
X1339044Y2170334D1*
X1342891Y2172235D1*
X1350540D1*
X1354342Y2170334D1*
X1356244Y2168433D1*
X1358189Y2164586D1*
Y2160783D1*
X1356244Y2156937D1*
X1352441Y2151233D1*
X1333296Y2132087D1*
X1360090D1*
X1374387Y2162685D2*
Y2164586D1*
X1376289Y2168433D1*
X1378190Y2170334D1*
X1382037Y2172235D1*
X1389686D1*
X1393488Y2170334D1*
X1395390Y2168433D1*
X1397335Y2164586D1*
Y2160783D1*
X1395390Y2156937D1*
X1391587Y2151233D1*
X1372442Y2132087D1*
X1399237D1*
X859740Y2141158D2*
Y2158358D1*
X857795Y2164106D1*
X855894Y2166051D1*
X852091Y2167952D1*
X848244D1*
X844442Y2166051D1*
X842496Y2164106D1*
X840595Y2158358D1*
Y2141158D1*
X880787D1*
X859740Y2154555D2*
X880787Y2167952D1*
X850190Y2182249D2*
X848289D1*
X844442Y2184151D1*
X842541Y2186052D1*
X840639Y2189899D1*
Y2197548D1*
X842541Y2201350D1*
X844442Y2203252D1*
X848289Y2205197D1*
X852091D1*
X855938Y2203252D1*
X861642Y2199449D1*
X880787Y2180304D1*
Y2207098D1*
X840639Y2223297D2*
Y2244299D1*
X855938Y2232847D1*
Y2238595D1*
X857839Y2242398D1*
X859740Y2244299D1*
X865488Y2246244D1*
X869291D1*
X875039Y2244299D1*
X878886Y2240496D1*
X880787Y2234748D1*
Y2229000D1*
X878886Y2223296D1*
X876940Y2221395D1*
X873138Y2219450D1*
X2115207Y2017997D2*
X2132407D1*
X2138155Y2019942D1*
X2140100Y2021843D1*
X2142002Y2025646D1*
Y2029493D1*
X2140100Y2033295D1*
X2138155Y2035241D1*
X2132407Y2037142D1*
X2115207D1*
Y1996950D1*
X2128604Y2017997D2*
X2142002Y1996950D1*
X2156299Y2027547D2*
Y2029448D1*
X2158200Y2033295D1*
X2160101Y2035196D1*
X2163948Y2037098D1*
X2171597D1*
X2175400Y2035196D1*
X2177301Y2033295D1*
X2179246Y2029448D1*
Y2025646D1*
X2177301Y2021799D1*
X2173498Y2016095D1*
X2154353Y1996950D1*
X2181148D1*
X2212644D2*
Y2037098D1*
X2193499Y2010347D1*
X2222195D1*
X2216158Y2017997D2*
X2233357D1*
X2239106Y2019942D1*
X2241051Y2021843D1*
X2242952Y2025646D1*
Y2029493D1*
X2241051Y2033295D1*
X2239106Y2035241D1*
X2233357Y2037142D1*
X2216158D1*
Y1996950D1*
X2229555Y2017997D2*
X2242952Y1996950D1*
X2257249Y2027547D2*
Y2029448D1*
X2259150Y2033295D1*
X2261052Y2035196D1*
X2264898Y2037098D1*
X2272548D1*
X2276350Y2035196D1*
X2278252Y2033295D1*
X2280197Y2029448D1*
Y2025646D1*
X2278252Y2021799D1*
X2274449Y2016095D1*
X2255304Y1996950D1*
X2282098D1*
X2317398Y2037098D2*
X2298296D1*
X2296395Y2019898D1*
X2298296Y2021799D1*
X2304045Y2023745D1*
X2309748D1*
X2315496Y2021799D1*
X2319343Y2017997D1*
X2321244Y2012249D1*
Y2008446D1*
X2319343Y2002698D1*
X2315496Y1998851D1*
X2309748Y1996950D1*
X2304045D1*
X2298296Y1998851D1*
X2296395Y2000797D1*
X2294450Y2004599D1*
X2417130Y2017997D2*
X2434330D1*
X2440078Y2019942D1*
X2442024Y2021843D1*
X2443925Y2025646D1*
Y2029493D1*
X2442024Y2033295D1*
X2440078Y2035241D1*
X2434330Y2037142D1*
X2417130D1*
Y1996950D1*
X2430528Y2017997D2*
X2443925Y1996950D1*
X2458222Y2027547D2*
Y2029448D1*
X2460123Y2033295D1*
X2462024Y2035196D1*
X2465871Y2037098D1*
X2473521D1*
X2477323Y2035196D1*
X2479224Y2033295D1*
X2481170Y2029448D1*
Y2025646D1*
X2479224Y2021799D1*
X2475422Y2016095D1*
X2456276Y1996950D1*
X2483071D1*
X2518370Y2031394D2*
X2516469Y2035196D1*
X2510721Y2037098D1*
X2506919D1*
X2501171Y2035196D1*
X2497324Y2029448D1*
X2495422Y2019898D1*
Y2010347D1*
X2497324Y2002698D1*
X2501171Y1998851D1*
X2506919Y1996950D1*
X2508820D1*
X2514524Y1998851D1*
X2518370Y2002698D1*
X2520272Y2008446D1*
Y2010347D1*
X2518370Y2016095D1*
X2514524Y2019898D1*
X2508820Y2021799D1*
X2506919D1*
X2501171Y2019898D1*
X2497324Y2016095D1*
X2495422Y2010347D1*
X1314405Y1701158D2*
Y1718358D1*
X1312460Y1724106D1*
X1310559Y1726051D1*
X1306756Y1727952D1*
X1302909D1*
X1299107Y1726051D1*
X1297161Y1724106D1*
X1295260Y1718358D1*
Y1701158D1*
X1335452D1*
X1314405Y1714555D2*
X1335452Y1727952D1*
X1304855Y1742249D2*
X1302954D1*
X1299107Y1744151D1*
X1297206Y1746052D1*
X1295304Y1749899D1*
Y1757548D1*
X1297206Y1761350D1*
X1299107Y1763252D1*
X1302954Y1765197D1*
X1306756D1*
X1310603Y1763252D1*
X1316307Y1759449D1*
X1335452Y1740304D1*
Y1767098D1*
Y1787099D2*
X1295304Y1806244D1*
Y1779450D1*
X1314405Y1801180D2*
Y1818380D1*
X1312460Y1824128D1*
X1310559Y1826073D1*
X1306756Y1827974D1*
X1302909D1*
X1299107Y1826073D1*
X1297161Y1824128D1*
X1295260Y1818380D1*
Y1801180D1*
X1335452D1*
X1314405Y1814577D2*
X1335452Y1827974D1*
X1304855Y1842271D2*
X1302954D1*
X1299107Y1844173D1*
X1297206Y1846074D1*
X1295304Y1849921D1*
Y1857570D1*
X1297206Y1861372D1*
X1299107Y1863274D1*
X1302954Y1865219D1*
X1306756D1*
X1310603Y1863274D1*
X1316307Y1859471D1*
X1335452Y1840326D1*
Y1867120D1*
X1295304Y1889022D2*
X1297206Y1883319D1*
X1301008Y1881373D1*
X1304855D1*
X1308657Y1883319D1*
X1310603Y1887121D1*
X1312504Y1894770D1*
X1314405Y1900518D1*
X1318252Y1904321D1*
X1322055Y1906222D1*
X1327803D1*
X1331605Y1904321D1*
X1333551Y1902420D1*
X1335452Y1896672D1*
Y1889022D1*
X1333551Y1883319D1*
X1331605Y1881373D1*
X1327803Y1879472D1*
X1322055D1*
X1318252Y1881373D1*
X1314405Y1885220D1*
X1312504Y1890924D1*
X1310603Y1898573D1*
X1308657Y1902420D1*
X1304855Y1904321D1*
X1301008D1*
X1297206Y1902420D1*
X1295304Y1896672D1*
Y1889022D1*
X2476980Y588134D2*
X2494180D1*
X2499928Y590080D1*
X2501874Y591981D1*
X2503775Y595783D1*
Y599630D1*
X2501874Y603433D1*
X2499928Y605378D1*
X2494180Y607279D1*
X2476980D1*
Y567087D1*
X2490378Y588134D2*
X2503775Y567087D1*
X2516126Y582386D2*
X2539074D1*
Y586233D1*
X2537173Y590080D1*
X2535272Y591981D1*
X2531425Y593882D1*
X2525677D1*
X2521874Y591981D1*
X2518028Y588134D1*
X2516126Y582386D1*
Y578584D1*
X2518028Y572835D1*
X2521874Y569033D1*
X2525677Y567087D1*
X2531425D1*
X2535272Y569033D1*
X2539074Y572835D1*
X2572472Y588134D2*
X2570571Y591981D1*
X2564823Y593882D1*
X2559075D1*
X2553327Y591981D1*
X2551426Y588134D1*
X2553327Y584332D1*
X2557174Y582386D1*
X2566724Y580485D1*
X2570571Y578584D1*
X2572472Y574737D1*
Y572835D1*
X2570571Y569033D1*
X2564823Y567087D1*
X2559075D1*
X2553327Y569033D1*
X2551426Y572835D1*
X2584824Y582386D2*
X2607772D1*
Y586233D1*
X2605870Y590080D1*
X2603969Y591981D1*
X2600122Y593882D1*
X2594374D1*
X2590572Y591981D1*
X2586725Y588134D1*
X2584824Y582386D1*
Y578584D1*
X2586725Y572835D1*
X2590572Y569033D1*
X2594374Y567087D1*
X2600122D1*
X2603969Y569033D1*
X2607772Y572835D1*
X2625871Y607279D2*
Y574737D1*
X2627772Y569033D1*
X2631619Y567087D1*
X2635422D1*
X2620123Y593882D2*
X2633520D1*
X2610861Y1459466D2*
X2628061D1*
X2633809Y1461412D1*
X2635754Y1463313D1*
X2637656Y1467115D1*
Y1470962D1*
X2635754Y1474765D1*
X2633809Y1476710D1*
X2628061Y1478611D1*
X2610861D1*
Y1438419D1*
X2624258Y1459466D2*
X2637656Y1438419D1*
X2676802Y1472863D2*
X2672999Y1476710D1*
X2667251Y1478611D1*
X2659602D1*
X2653854Y1476710D1*
X2650007Y1472863D1*
Y1469061D1*
X2651953Y1465214D1*
X2653854Y1463313D1*
X2657656Y1461412D1*
X2669152Y1457565D1*
X2672999Y1455664D1*
X2674900Y1453718D1*
X2676802Y1449916D1*
Y1444168D1*
X2672999Y1440365D1*
X2667251Y1438419D1*
X2659602D1*
X2653854Y1440365D1*
X2650007Y1444168D1*
X2702550Y1478611D2*
Y1438419D1*
X2689153Y1478611D2*
X2715948D1*
X1699949Y448382D2*
X1696147Y452229D1*
X1690399Y454130D1*
X1682750D1*
X1677001Y452229D1*
X1673155Y448382D1*
Y444579D1*
X1675100Y440733D1*
X1677001Y438831D1*
X1680804Y436930D1*
X1692300Y433083D1*
X1696147Y431182D1*
X1698048Y429236D1*
X1699949Y425434D1*
Y419686D1*
X1696147Y415883D1*
X1690399Y413938D1*
X1682750D1*
X1677001Y415883D1*
X1673155Y419686D1*
X1712301Y446436D2*
X1716148Y448382D1*
X1721896Y454086D1*
Y413938D1*
X1089423Y451957D2*
X1085620Y455803D1*
X1079872Y457705D1*
X1072223D1*
X1066475Y455803D1*
X1062628Y451957D1*
Y448154D1*
X1064574Y444307D1*
X1066475Y442406D1*
X1070278Y440505D1*
X1081774Y436658D1*
X1085620Y434757D1*
X1087522Y432811D1*
X1089423Y429009D1*
Y423261D1*
X1085620Y419458D1*
X1079872Y417513D1*
X1072223D1*
X1066475Y419458D1*
X1062628Y423261D1*
X1103720Y448110D2*
Y450011D1*
X1105621Y453858D1*
X1107522Y455759D1*
X1111369Y457660D1*
X1119018D1*
X1122821Y455759D1*
X1124722Y453858D1*
X1126668Y450011D1*
Y446209D1*
X1124722Y442362D1*
X1120920Y436658D1*
X1101774Y417513D1*
X1128569D1*
X1135364Y1530209D2*
Y1501513D1*
X1137266Y1495765D1*
X1141113Y1491963D1*
X1146861Y1490017D1*
X1150663D1*
X1156411Y1491963D1*
X1160258Y1495765D1*
X1162159Y1501513D1*
Y1530209D1*
X1182160Y1490017D2*
X1201305Y1530165D1*
X1174511D1*
X1517195Y722112D2*
Y743115D1*
X1532494Y731663D1*
Y737411D1*
X1534395Y741213D1*
X1536297Y743114D1*
X1542045Y745060D1*
X1545847D1*
X1551595Y743114D1*
X1555442Y739312D1*
X1557343Y733564D1*
Y727816D1*
X1555442Y722112D1*
X1553496Y720211D1*
X1549694Y718265D1*
X1553496Y759313D2*
X1555442Y757411D1*
X1557343Y759313D1*
X1555442Y761258D1*
X1553496Y759313D1*
X1517195Y777456D2*
Y798459D1*
X1532494Y787007D1*
Y792755D1*
X1534395Y796557D1*
X1536297Y798459D1*
X1542045Y800404D1*
X1545847D1*
X1551595Y798459D1*
X1555442Y794656D1*
X1557343Y788908D1*
Y783160D1*
X1555442Y777456D1*
X1553496Y775555D1*
X1549694Y773609D1*
X1530549Y812756D2*
X1557343Y824252D1*
X1530549Y835703D1*
X1785577Y663418D2*
D108*
X1790385Y665850D1*
X1797570Y672980D1*
Y622795D1*
X1870793Y660826D2*
Y663203D1*
X1873170Y668011D1*
X1875546Y670388D1*
X1880355Y672764D1*
X1889916D1*
X1894670Y670388D1*
X1897046Y668011D1*
X1899478Y663203D1*
Y658450D1*
X1897046Y653641D1*
X1892293Y646511D1*
X1868361Y622580D1*
X1901855D1*
X1980600Y672764D2*
X2006853D1*
X1992538Y653641D1*
X1999723D1*
X2004477Y651265D1*
X2006853Y648888D1*
X2009285Y641703D1*
Y636950D1*
X2006853Y629765D1*
X2002100Y624956D1*
X1994915Y622580D1*
X1987730D1*
X1980600Y624956D1*
X1978224Y627388D1*
X1975792Y632141D1*
X2308906Y660635D2*
X2306529Y665388D1*
X2299344Y667764D1*
X2294591D1*
X2287406Y665388D1*
X2282598Y658203D1*
X2280221Y646265D1*
Y634326D1*
X2282598Y624765D1*
X2287406Y619956D1*
X2294591Y617580D1*
X2296968D1*
X2304097Y619956D1*
X2308906Y624765D1*
X2311282Y631950D1*
Y634326D1*
X2308906Y641511D1*
X2304097Y646265D1*
X2296968Y648641D1*
X2294591D1*
X2287406Y646265D1*
X2282598Y641511D1*
X2280221Y634326D1*
X2389783Y617580D2*
X2413714Y667764D1*
X2380221D1*
X2492159D2*
X2485029Y665388D1*
X2482598Y660635D1*
Y655826D1*
X2485029Y651073D1*
X2489783Y648641D1*
X2499344Y646265D1*
X2506529Y643888D1*
X2511282Y639080D1*
X2513659Y634326D1*
Y627141D1*
X2511282Y622388D1*
X2508906Y619956D1*
X2501721Y617580D1*
X2492159D1*
X2485029Y619956D1*
X2482598Y622388D1*
X2480221Y627141D1*
Y634326D1*
X2482598Y639080D1*
X2487406Y643888D1*
X2494536Y646265D1*
X2504097Y648641D1*
X2508906Y651073D1*
X2511282Y655826D1*
Y660635D1*
X2508906Y665388D1*
X2501721Y667764D1*
X2492159D1*
X2616338Y651073D2*
X2613906Y643888D1*
X2609153Y639080D1*
X2601968Y636703D1*
X2599591D1*
X2592406Y639080D1*
X2587653Y643888D1*
X2585221Y651073D1*
Y653450D1*
X2587653Y660635D1*
X2592406Y665388D1*
X2599591Y667764D1*
X2601968D1*
X2609153Y665388D1*
X2613906Y660635D1*
X2616338Y651073D1*
Y639080D1*
X2613906Y627141D1*
X2609153Y619956D1*
X2601968Y617580D1*
X2597214D1*
X2590029Y619956D1*
X2587653Y624765D1*
X1457665Y2019011D2*
D107*
Y1999910D1*
X1474865Y1998009D1*
X1472964Y1999910D1*
X1471018Y2005658D1*
Y2011362D1*
X1472964Y2017110D1*
X1476766Y2020957D1*
X1482514Y2022858D1*
X1486317D1*
X1492065Y2020957D1*
X1495912Y2017110D1*
X1497813Y2011362D1*
Y2005658D1*
X1495912Y1999910D1*
X1493966Y1998009D1*
X1490164Y1996063D1*
X1471018Y2035209D2*
X1497813Y2046705D1*
X1471018Y2058157D1*
X2087754Y625946D2*
D108*
Y676131D1*
X2063822Y642693D1*
X2099692D1*
X2208881Y676405D2*
X2185004D1*
X2182628Y654905D1*
X2185004Y657282D1*
X2192189Y659713D1*
X2199319D1*
X2206504Y657282D1*
X2211313Y652528D1*
X2213689Y645343D1*
Y640590D1*
X2211313Y633405D1*
X2206504Y628597D1*
X2199319Y626220D1*
X2192189D1*
X2185004Y628597D1*
X2182628Y631029D1*
X2180196Y635782D1*
X2771606Y1837021D2*
D107*
X2767760Y1835075D1*
X2762012Y1829371D1*
Y1869519D1*
X2677073Y1838944D2*
Y1837043D1*
X2675172Y1833196D1*
X2673271Y1831295D1*
X2669424Y1829394D1*
X2661774D1*
X2657972Y1831295D1*
X2656071Y1833196D1*
X2654125Y1837043D1*
Y1840845D1*
X2656071Y1844692D1*
X2659873Y1850396D1*
X2679019Y1869541D1*
X2652224D1*
X2569016Y1829518D2*
X2548013D1*
X2559465Y1844817D1*
X2553717D1*
X2549914Y1846718D1*
X2548013Y1848619D1*
X2546068Y1854367D1*
Y1858170D1*
X2548013Y1863918D1*
X2551816Y1867765D1*
X2557564Y1869666D1*
X2563312D1*
X2569016Y1867765D1*
X2570917Y1865819D1*
X2572862Y1862017D1*
X2256228Y1836117D2*
X2258129Y1832315D1*
X2263877Y1830413D1*
X2267680D1*
X2273428Y1832315D1*
X2277275Y1838063D1*
X2279176Y1847613D1*
Y1857164D1*
X2277275Y1864813D1*
X2273428Y1868660D1*
X2267680Y1870561D1*
X2265779D1*
X2260075Y1868660D1*
X2256228Y1864813D1*
X2254327Y1859065D1*
Y1857164D1*
X2256228Y1851416D1*
X2260075Y1847613D1*
X2265779Y1845712D1*
X2267680D1*
X2273428Y1847613D1*
X2277275Y1851416D1*
X2279176Y1857164D1*
X2164150Y1870390D2*
X2145005Y1830243D1*
X2171799D1*
X2069590Y1829568D2*
X2075294Y1831469D1*
X2077239Y1835272D1*
Y1839119D1*
X2075294Y1842921D1*
X2071491Y1844867D1*
X2063842Y1846768D1*
X2058094Y1848669D1*
X2054291Y1852516D1*
X2052390Y1856319D1*
Y1862067D1*
X2054291Y1865869D1*
X2056193Y1867815D1*
X2061941Y1869716D1*
X2069590D1*
X2075294Y1867815D1*
X2077239Y1865869D1*
X2079141Y1862067D1*
Y1856319D1*
X2077239Y1852516D1*
X2073393Y1848669D1*
X2067689Y1846768D1*
X2060039Y1844867D1*
X2056193Y1842921D1*
X2054291Y1839119D1*
Y1835272D1*
X2056193Y1831469D1*
X2061941Y1829568D1*
X2069590D1*
X1955399Y1756008D2*
X1957345Y1761756D1*
X1961147Y1765603D1*
X1966895Y1767504D1*
X1968797D1*
X1974545Y1765603D1*
X1978347Y1761756D1*
X1980293Y1756008D1*
Y1754107D1*
X1978347Y1748359D1*
X1974545Y1744556D1*
X1968797Y1742655D1*
X1966895D1*
X1961147Y1744556D1*
X1957345Y1748359D1*
X1955399Y1756008D1*
Y1765603D1*
X1957345Y1775153D1*
X1961148Y1780901D1*
X1966896Y1782803D1*
X1970698D1*
X1976446Y1780901D1*
X1978347Y1777054D1*
X2462136Y1870597D2*
Y1830449D1*
X2481281Y1857199D1*
X2452585D1*
X2355824Y1829720D2*
X2374925D1*
X2376826Y1846920D1*
X2374925Y1845019D1*
X2369177Y1843073D1*
X2363473D1*
X2357725Y1845019D1*
X2353878Y1848822D1*
X2351977Y1854570D1*
Y1858372D1*
X2353878Y1864120D1*
X2357725Y1867967D1*
X2363473Y1869868D1*
X2369177D1*
X2374925Y1867967D1*
X2376826Y1866021D1*
X2378772Y1862219D1*
X2866114Y1828932D2*
X2871862Y1830833D1*
X2875709Y1836581D1*
X2877610Y1846131D1*
Y1851880D1*
X2875709Y1861430D1*
X2871862Y1867178D1*
X2866114Y1869079D1*
X2862312D1*
X2856564Y1867178D1*
X2852761Y1861430D1*
X2850816Y1851880D1*
Y1846132D1*
X2852761Y1836581D1*
X2856564Y1830833D1*
X2862312Y1828932D1*
X2866114D1*
X2852761Y1836581D2*
X2875709Y1861430D1*
X1890621Y1750532D2*
X1886774Y1748587D1*
X1881026Y1742883D1*
Y1783031D1*
X1857179Y1742883D2*
X1862927Y1744784D1*
X1866773Y1750532D1*
X1868675Y1760083D1*
Y1765831D1*
X1866774Y1775382D1*
X1862927Y1781130D1*
X1857179Y1783031D1*
X1853376D1*
X1847628Y1781130D1*
X1843826Y1775382D1*
X1841880Y1765831D1*
Y1760083D1*
X1843826Y1750532D1*
X1847628Y1744784D1*
X1853376Y1742883D1*
X1857179D1*
X1843826Y1750532D2*
X1866774Y1775382D1*
X1783742Y1836291D2*
X1779895Y1834345D1*
X1774147Y1828642D1*
Y1868789D1*
X1761795Y1836291D2*
X1757949Y1834345D1*
X1752201Y1828642D1*
Y1868789D1*
X1690885Y1836984D2*
X1687038Y1835038D1*
X1681290Y1829335D1*
Y1869482D1*
X1666993Y1838885D2*
Y1836984D1*
X1665092Y1833137D1*
X1663190Y1831236D1*
X1659344Y1829335D1*
X1651694D1*
X1647892Y1831236D1*
X1645991Y1833137D1*
X1644045Y1836984D1*
Y1840786D1*
X1645991Y1844633D1*
X1649793Y1850337D1*
X1668939Y1869482D1*
X1642144D1*
X1593236Y1838329D2*
X1589390Y1836383D1*
X1583642Y1830680D1*
Y1870827D1*
X1567443Y1830680D2*
X1546441D1*
X1557893Y1845978D1*
X1552145D1*
X1548342Y1847880D1*
X1546441Y1849781D1*
X1544496Y1855529D1*
Y1859331D1*
X1546441Y1865079D1*
X1550244Y1868926D1*
X1555992Y1870827D1*
X1561740D1*
X1567444Y1868926D1*
X1569345Y1866981D1*
X1571290Y1863178D1*
X1781796Y1761208D2*
D109*
Y1774108D1*
X1780337Y1778419D1*
X1778911Y1779878D1*
X1776059Y1781304D1*
X1773174D1*
X1770322Y1779878D1*
X1768863Y1778419D1*
X1767437Y1774108D1*
Y1761208D1*
X1797581D1*
X1781796Y1771256D2*
X1797581Y1781304D1*
X1767437Y1795304D2*
X1797581Y1815400D1*
X1767437D2*
X1797581Y1795304D1*
X2025030Y1768844D2*
X2055174D1*
X2025030Y1758796D2*
Y1778892D1*
Y1792892D2*
X2055174Y1812987D1*
X2025030Y1812988D2*
X2055174Y1792892D1*
X2246895Y1793167D2*
Y1763023D1*
X2266991Y1793167D2*
X2246895Y1773071D1*
X2254058Y1780267D2*
X2266991Y1763023D1*
X2280991Y1783119D2*
Y1768760D1*
X2282417Y1764482D1*
X2285302Y1763023D1*
X2289613D1*
X2292465Y1764482D1*
X2296776Y1768760D1*
Y1783119D2*
Y1763023D1*
X2310776Y1783119D2*
Y1763023D1*
Y1774497D2*
X2312235Y1778808D1*
X2315087Y1781693D1*
X2317972Y1783119D1*
X2322283D1*
X2340594Y1793167D2*
Y1768760D1*
X2342020Y1764482D1*
X2344905Y1763023D1*
X2347757D1*
X2336283Y1783119D2*
X2346331D1*
X2368953Y1793134D2*
X2361757Y1784512D1*
X2370379Y1791708D1*
X2368953Y1793134D1*
X2400164Y1778808D2*
X2398738Y1781693D1*
X2394427Y1783119D1*
X2390116D1*
X2385805Y1781693D1*
X2384379Y1778808D1*
X2385805Y1775956D1*
X2388690Y1774497D1*
X2395853Y1773071D1*
X2398738Y1771645D1*
X2400164Y1768760D1*
Y1767334D1*
X2398738Y1764482D1*
X2394427Y1763023D1*
X2390116D1*
X2385805Y1764482D1*
X2384379Y1767334D1*
X2448061Y1778808D2*
X2460961D1*
X2465272Y1780267D1*
X2466731Y1781693D1*
X2468157Y1784545D1*
Y1787430D1*
X2466731Y1790282D1*
X2465272Y1791741D1*
X2460961Y1793167D1*
X2448061D1*
Y1763023D1*
X2458109Y1778808D2*
X2468157Y1763023D1*
X2482157Y1777382D2*
X2495090D1*
X2499368Y1778808D1*
X2500827Y1780267D1*
X2502253Y1783119D1*
Y1787430D1*
X2500827Y1790282D1*
X2499368Y1791741D1*
X2495090Y1793167D1*
X2482157D1*
Y1763023D1*
X2516253Y1793167D2*
Y1763023D1*
X2564150Y1793167D2*
X2584246Y1763023D1*
Y1793167D2*
X2564150Y1763023D1*
X2598246Y1793167D2*
X2609720Y1778808D1*
Y1763023D1*
X2621194Y1793167D2*
X2609720Y1778808D1*
X2635194Y1793167D2*
X2655290D1*
X2635194Y1763023D1*
X2655290D1*
X2703187Y1793167D2*
Y1763023D1*
X2723283Y1793167D2*
Y1763023D1*
X2703187Y1778808D2*
X2723283D1*
X2754494Y1783119D2*
Y1763023D1*
Y1778808D2*
X2751642Y1781693D1*
X2748757Y1783119D1*
X2744479D1*
X2741594Y1781693D1*
X2738742Y1778808D1*
X2737283Y1774497D1*
Y1771645D1*
X2738742Y1767334D1*
X2741594Y1764482D1*
X2744479Y1763023D1*
X2748757D1*
X2751642Y1764482D1*
X2754494Y1767334D1*
X2772805Y1793167D2*
Y1768760D1*
X2774231Y1764482D1*
X2777116Y1763023D1*
X2779968D1*
X2768494Y1783119D2*
X2778542D1*
X2827865Y1793167D2*
X2839339Y1763023D1*
X2850813Y1793167D1*
X2866239Y1765908D2*
X2864813Y1764449D1*
X2866239Y1763023D1*
X2867698Y1764449D1*
X2866239Y1765908D1*
X2884583Y1793134D2*
X2900335D1*
X2891746Y1781660D1*
X2896057D1*
X2898909Y1780234D1*
X2900335Y1778808D1*
X2901794Y1774497D1*
Y1771645D1*
X2900335Y1767334D1*
X2897483Y1764449D1*
X2893172Y1763023D1*
X2888861D1*
X2884583Y1764449D1*
X2883157Y1765908D1*
X2881698Y1768760D1*
X2349935Y2209003D2*
D110*
Y2207577D1*
X2348509Y2204692D1*
X2347083Y2203266D1*
X2344198Y2201840D1*
X2338461D1*
X2335609Y2203266D1*
X2334183Y2204692D1*
X2332724Y2207577D1*
Y2210429D1*
X2334183Y2213314D1*
X2337035Y2217592D1*
X2351394Y2231951D1*
X2331298D1*
X2314872Y2201840D2*
X2319150Y2203266D1*
X2320609Y2206118D1*
Y2209003D1*
X2319150Y2211855D1*
X2316298Y2213314D1*
X2310561Y2214740D1*
X2306250Y2216166D1*
X2303398Y2219051D1*
X2301972Y2221903D1*
Y2226214D1*
X2303398Y2229066D1*
X2304824Y2230525D1*
X2309135Y2231951D1*
X2314872D1*
X2319150Y2230525D1*
X2320609Y2229066D1*
X2322035Y2226214D1*
Y2221903D1*
X2320609Y2219051D1*
X2317724Y2216166D1*
X2313446Y2214740D1*
X2307709Y2213314D1*
X2304824Y2211855D1*
X2303398Y2209003D1*
Y2206118D1*
X2304824Y2203266D1*
X2309135Y2201840D1*
X2314872D1*
X2246855Y2209328D2*
Y2207902D1*
X2245429Y2205017D1*
X2244003Y2203591D1*
X2241118Y2202165D1*
X2235381D1*
X2232529Y2203591D1*
X2231103Y2205017D1*
X2229644Y2207902D1*
Y2210754D1*
X2231103Y2213639D1*
X2233955Y2217917D1*
X2248314Y2232276D1*
X2228218D1*
X2213218D2*
X2198859Y2202165D1*
X2218955D1*
X2147007Y2209351D2*
Y2207925D1*
X2145581Y2205040D1*
X2144155Y2203614D1*
X2141270Y2202188D1*
X2135533D1*
X2132681Y2203614D1*
X2131255Y2205040D1*
X2129796Y2207925D1*
Y2210777D1*
X2131255Y2213662D1*
X2134107Y2217939D1*
X2148466Y2232298D1*
X2128370D1*
X2101896Y2206466D2*
X2103322Y2203614D1*
X2107633Y2202188D1*
X2110485D1*
X2114796Y2203614D1*
X2117681Y2207925D1*
X2119107Y2215088D1*
Y2222250D1*
X2117681Y2227987D1*
X2114796Y2230873D1*
X2110485Y2232298D1*
X2109059D1*
X2104781Y2230873D1*
X2101896Y2227987D1*
X2100470Y2223676D1*
Y2222250D1*
X2101896Y2217939D1*
X2104781Y2215088D1*
X2109059Y2213662D1*
X2110485D1*
X2114796Y2215088D1*
X2117681Y2217939D1*
X2119107Y2222250D1*
X2046335Y2208579D2*
Y2207153D1*
X2044909Y2204268D1*
X2043483Y2202842D1*
X2040598Y2201416D1*
X2034861D1*
X2032009Y2202842D1*
X2030584Y2204268D1*
X2029124Y2207153D1*
Y2210005D1*
X2030584Y2212890D1*
X2033435Y2217168D1*
X2047794Y2231527D1*
X2027699D1*
X2004076D2*
Y2201416D1*
X2018435Y2221479D1*
X1996913D1*
X1948831Y2209402D2*
Y2207976D1*
X1947405Y2205091D1*
X1945979Y2203665D1*
X1943094Y2202239D1*
X1937357D1*
X1934506Y2203665D1*
X1933080Y2205091D1*
X1931620Y2207976D1*
Y2210828D1*
X1933080Y2213713D1*
X1935931Y2217991D1*
X1950290Y2232350D1*
X1930195D1*
X1918046Y2202239D2*
X1902294D1*
X1910883Y2213713D1*
X1906572D1*
X1903720Y2215139D1*
X1902294Y2216565D1*
X1900835Y2220876D1*
Y2223728D1*
X1902294Y2228039D1*
X1905146Y2230924D1*
X1909457Y2232350D1*
X1913768D1*
X1918046Y2230924D1*
X1919472Y2229465D1*
X1920931Y2226613D1*
X1848037Y2209095D2*
Y2207669D1*
X1846611Y2204784D1*
X1845186Y2203358D1*
X1842300Y2201932D1*
X1836563D1*
X1833712Y2203358D1*
X1832286Y2204784D1*
X1830827Y2207669D1*
Y2210521D1*
X1832286Y2213406D1*
X1835138Y2217684D1*
X1849497Y2232043D1*
X1829401D1*
X1818678Y2209095D2*
Y2207669D1*
X1817252Y2204784D1*
X1815826Y2203358D1*
X1812941Y2201932D1*
X1807204D1*
X1804352Y2203358D1*
X1802926Y2204784D1*
X1801467Y2207669D1*
Y2210521D1*
X1802926Y2213406D1*
X1805778Y2217684D1*
X1820137Y2232043D1*
X1800041D1*
X1740795Y2209440D2*
Y2208014D1*
X1739369Y2205129D1*
X1737943Y2203703D1*
X1735058Y2202277D1*
X1729321D1*
X1726469Y2203703D1*
X1725043Y2205129D1*
X1723584Y2208014D1*
Y2210866D1*
X1725043Y2213751D1*
X1727895Y2218029D1*
X1742254Y2232388D1*
X1722158D1*
X1712894Y2208014D2*
X1710009Y2206555D1*
X1705698Y2202277D1*
Y2232388D1*
X1640591Y2207014D2*
X1637706Y2205555D1*
X1633395Y2201277D1*
Y2231388D1*
X1605461Y2211292D2*
X1606921Y2215603D1*
X1609772Y2218488D1*
X1614083Y2219914D1*
X1615509D1*
X1619820Y2218488D1*
X1622672Y2215603D1*
X1624131Y2211292D1*
Y2209866D1*
X1622672Y2205555D1*
X1619820Y2202703D1*
X1615509Y2201277D1*
X1614083D1*
X1609772Y2202703D1*
X1606921Y2205555D1*
X1605461Y2211292D1*
Y2218488D1*
X1606921Y2225651D1*
X1609772Y2229962D1*
X1614083Y2231388D1*
X1616935D1*
X1621246Y2229962D1*
X1622672Y2227077D1*
X1360863Y2298350D2*
Y2328494D1*
X1340767Y2298350D2*
Y2328494D1*
X1360863Y2312709D2*
X1340767D1*
X1324340Y2308398D2*
X1327192Y2309824D1*
X1330077Y2312709D1*
X1331503Y2317020D1*
Y2319872D1*
X1330077Y2324183D1*
X1327192Y2327035D1*
X1324340Y2328494D1*
X1320029D1*
X1317144Y2327035D1*
X1314292Y2324183D1*
X1312833Y2319872D1*
Y2317020D1*
X1314292Y2312709D1*
X1317144Y2309824D1*
X1320029Y2308398D1*
X1324340D1*
X1287785Y2312709D2*
X1289211Y2309824D1*
X1293522Y2308398D1*
X1297833D1*
X1302144Y2309824D1*
X1303570Y2312709D1*
X1302144Y2315561D1*
X1299259Y2317020D1*
X1292096Y2318446D1*
X1289211Y2319872D1*
X1287785Y2322757D1*
Y2324183D1*
X1289211Y2327035D1*
X1293522Y2328494D1*
X1297833D1*
X1302144Y2327035D1*
X1303570Y2324183D1*
X1274210Y2298350D2*
Y2322757D1*
X1272784Y2327035D1*
X1269899Y2328494D1*
X1267047D1*
X1278521Y2308398D2*
X1268473D1*
X1647966Y1792372D2*
D109*
Y1762228D1*
X1668062Y1792372D2*
Y1762228D1*
X1647966Y1778013D2*
X1668062D1*
X1689225Y1782324D2*
X1686373Y1780898D1*
X1683488Y1778013D1*
X1682062Y1773702D1*
Y1770850D1*
X1683488Y1766539D1*
X1686373Y1763687D1*
X1689225Y1762228D1*
X1693536D1*
X1696421Y1763687D1*
X1699273Y1766539D1*
X1700732Y1770850D1*
Y1773702D1*
X1699273Y1778013D1*
X1696421Y1780898D1*
X1693536Y1782324D1*
X1689225D1*
X1730517Y1778013D2*
X1729091Y1780898D1*
X1724780Y1782324D1*
X1720469D1*
X1716158Y1780898D1*
X1714732Y1778013D1*
X1716158Y1775161D1*
X1719043Y1773702D1*
X1726206Y1772276D1*
X1729091Y1770850D1*
X1730517Y1767965D1*
Y1766539D1*
X1729091Y1763687D1*
X1724780Y1762228D1*
X1720469D1*
X1716158Y1763687D1*
X1714732Y1766539D1*
X1748828Y1792372D2*
Y1767965D1*
X1750254Y1763687D1*
X1753139Y1762228D1*
X1755991D1*
X1744517Y1782324D2*
X1754565D1*
X1517658Y2201348D2*
D110*
X1531984D1*
X1533410Y2214248D1*
X1531984Y2212822D1*
X1527673Y2211363D1*
X1523395D1*
X1519084Y2212822D1*
X1516199Y2215674D1*
X1514773Y2219985D1*
Y2222837D1*
X1516199Y2227148D1*
X1519084Y2230033D1*
X1523395Y2231459D1*
X1527673D1*
X1531984Y2230033D1*
X1533410Y2228573D1*
X1534869Y2225722D1*
X1428172Y2200240D2*
X1412420D1*
X1421009Y2211714D1*
X1416698D1*
X1413846Y2213140D1*
X1412420Y2214566D1*
X1410961Y2218877D1*
Y2221729D1*
X1412420Y2226040D1*
X1415272Y2228925D1*
X1419583Y2230351D1*
X1423894D1*
X1428172Y2228925D1*
X1429598Y2227466D1*
X1431057Y2224614D1*
X1119440Y570765D2*
D107*
X1159632Y586064D1*
X1119440Y601363D1*
Y613714D2*
X1159632D1*
X1119440Y652860D2*
X1159632D1*
X1119440Y626065D1*
X1159632D1*
X1685878Y618795D2*
D108*
X1666700Y669035D1*
X1647577Y618795D1*
X1654762Y635542D2*
X1678693D1*
X1715688Y668980D2*
X1708503Y666603D1*
X1703694Y659418D1*
X1701318Y647480D1*
Y640295D1*
X1703694Y628357D1*
X1708503Y621172D1*
X1715688Y618795D1*
X1720441D1*
X1727626Y621172D1*
X1732379Y628357D1*
X1734811Y640295D1*
Y647480D1*
X1732379Y659418D1*
X1727626Y666603D1*
X1720441Y668980D1*
X1715688D1*
X1732379Y659418D2*
X1703694Y628357D1*
X2932905Y2083136D2*
D110*
X2930053Y2081710D1*
X2927168Y2078825D1*
X2925742Y2075973D1*
Y2070236D1*
X2927168Y2067351D1*
X2930053Y2064499D1*
X2932905Y2063040D1*
X2937216Y2061614D1*
X2944412D1*
X2948690Y2063040D1*
X2951575Y2064499D1*
X2954427Y2067351D1*
X2955886Y2070236D1*
Y2075973D1*
X2954427Y2078825D1*
X2951575Y2081710D1*
X2948690Y2083136D1*
X2944412D1*
Y2075973D1*
X2926488Y2179538D2*
Y2165212D1*
X2939388Y2163786D1*
X2937962Y2165212D1*
X2936503Y2169523D1*
Y2173801D1*
X2937962Y2178112D1*
X2940814Y2180997D1*
X2945125Y2182423D1*
X2947977D1*
X2952288Y2180997D1*
X2955173Y2178112D1*
X2956599Y2173801D1*
Y2169523D1*
X2955173Y2165212D1*
X2953714Y2163786D1*
X2950862Y2162327D1*
X2925350Y2261318D2*
X2955494D1*
X2925350Y2241222D1*
X2955494D1*
X2925350Y2279203D2*
X2926776Y2276318D1*
X2929661Y2273466D1*
X2932513Y2272007D1*
X2936824Y2270581D1*
X2944020D1*
X2948298Y2272007D1*
X2951183Y2273466D1*
X2954035Y2276318D1*
X2955494Y2279203D1*
Y2284940D1*
X2954035Y2287792D1*
X2951183Y2290677D1*
X2948298Y2292103D1*
X2944020Y2293529D1*
X2936824D1*
X2932513Y2292103D1*
X2929661Y2290677D1*
X2926776Y2287792D1*
X2925350Y2284940D1*
Y2279203D1*
M02*
