G04 DipTrace 3.0.0.2*
G04 TeensyArbotixProRPIV0.2.gtp*
%MOIN*%
G04 #@! TF.FileFunction,Paste,Top*
G04 #@! TF.Part,Single*
%AMOUTLINE1*
4,1,4,
-0.0175,-0.025,
-0.0175,0.025,
0.0175,0.025,
0.0175,-0.025,
-0.0175,-0.025,
0*%
%AMOUTLINE2*
4,1,4,
0.0285,-0.0155,
-0.0285,-0.0155,
-0.0285,0.0155,
0.0285,0.0155,
0.0285,-0.0155,
0*%
%ADD33R,0.05X0.1*%
%ADD34R,0.1X0.05*%
%ADD44R,0.047244X0.047244*%
%ADD48R,0.035433X0.031496*%
%ADD80R,0.015748X0.035433*%
%ADD86R,0.035433X0.015748*%
%ADD112R,0.098425X0.055118*%
%ADD114R,0.051181X0.043307*%
%ADD120R,0.043307X0.051181*%
%ADD126OUTLINE1*%
%ADD127OUTLINE2*%
%FSLAX26Y26*%
G04*
G70*
G90*
G75*
G01*
G04 TopPaste*
%LPD*%
D33*
X533701Y743701D3*
Y918701D3*
D34*
X1468701Y1193701D3*
X1293701D3*
D112*
X2290987Y2038583D3*
Y2148819D3*
D114*
X1436260Y845654D3*
Y770851D3*
D33*
X2623701Y1018701D3*
Y843701D3*
D44*
X2238701Y513701D3*
X2321378D3*
X2898701Y978701D3*
Y896024D3*
D48*
X1333071Y956299D3*
Y1031103D3*
X1250394Y993701D3*
D120*
X1910583Y1388701D3*
X1835780D3*
X2058389Y1383701D3*
X1983586D3*
X1983701Y1488701D3*
X2058504D3*
D114*
X2798701Y878701D3*
Y953504D3*
D120*
X1146771Y1028701D3*
X1071967D3*
X2463701Y1613701D3*
X2388898D3*
X2238701D3*
X2313504D3*
X1918701Y628701D3*
X1993504D3*
D114*
X1778701Y663701D3*
Y588898D3*
D120*
X1668701Y623701D3*
X1593898D3*
X2798701Y1623378D3*
X2873504D3*
X2238701Y598701D3*
X2313504D3*
D126*
X2463701Y523701D3*
X2648701D3*
D127*
X2423201Y449201D3*
X2689201D3*
D126*
X1873701Y528701D3*
X2058701D3*
D127*
X1833201Y454201D3*
X2099201D3*
D126*
X1528701Y528701D3*
X1713701D3*
D127*
X1488201Y454201D3*
X1754201D3*
D86*
X2753701Y1493701D3*
Y1456299D3*
Y1418898D3*
X2860000D3*
Y1493701D3*
D80*
X2418701Y1373701D3*
X2456103D3*
X2493504D3*
Y1480000D3*
X2418701D3*
X2308701Y1458701D3*
X2271299D3*
X2233898D3*
Y1352402D3*
X2308701D3*
M02*
