G04 DipTrace 3.0.0.2*
G04 TeensyArbotixProRPIV0.2.gbo*
%MOIN*%
G04 #@! TF.FileFunction,Legend,Bot*
G04 #@! TF.Part,Single*
%ADD10C,0.009843*%
%ADD18C,0.008*%
%ADD121C,0.006176*%
%ADD122C,0.00772*%
%ADD123C,0.007*%
%FSLAX26Y26*%
G04*
G70*
G90*
G75*
G01*
G04 BotSilk*
%LPD*%
X1315061Y1622991D2*
D10*
Y1674133D1*
X1259272Y2035061D2*
X1208130D1*
X940061Y1723130D2*
Y1774272D1*
X2885229Y1102504D2*
D18*
X2853738D1*
X2782863D1*
X2885229Y1041481D2*
X2853738D1*
X2782863D1*
X2853738Y1102504D2*
Y1041481D1*
X908812Y1855274D2*
D10*
Y2052128D1*
X1011188Y1855274D2*
Y2052128D1*
X908812D2*
X1011188D1*
X940306Y1855274D2*
X908812D1*
X979695D2*
X1011188D1*
X940306D2*
G02X979695Y1855274I19694J-9D01*
G01*
X1240809Y1727117D2*
D121*
X1242710Y1730920D1*
X1246557Y1734767D1*
X1250360Y1736668D1*
X1258009D1*
X1261856Y1734767D1*
X1265658Y1730920D1*
X1267604Y1727117D1*
X1269505Y1721369D1*
Y1711775D1*
X1267604Y1706071D1*
X1265658Y1702224D1*
X1261856Y1698421D1*
X1258009Y1696476D1*
X1250360D1*
X1246557Y1698421D1*
X1242710Y1702224D1*
X1240809Y1706071D1*
X1228458Y1728974D2*
X1224611Y1730920D1*
X1218863Y1736624D1*
Y1696476D1*
X1155146Y1970360D2*
X1151343Y1972261D1*
X1147496Y1976108D1*
X1145595Y1979910D1*
Y1987560D1*
X1147496Y1991406D1*
X1151343Y1995209D1*
X1155146Y1997154D1*
X1160894Y1999056D1*
X1170488D1*
X1176192Y1997154D1*
X1180039Y1995209D1*
X1183842Y1991406D1*
X1185787Y1987560D1*
Y1979910D1*
X1183842Y1976108D1*
X1180039Y1972261D1*
X1176192Y1970360D1*
X1185787Y1938863D2*
X1145639D1*
X1172390Y1958008D1*
Y1929312D1*
X873436Y1827256D2*
X875338Y1831059D1*
X879184Y1834906D1*
X882987Y1836807D1*
X890636D1*
X894483Y1834906D1*
X898285Y1831059D1*
X900231Y1827256D1*
X902132Y1821508D1*
Y1811914D1*
X900231Y1806210D1*
X898285Y1802363D1*
X894483Y1798561D1*
X890636Y1796615D1*
X882987D1*
X879184Y1798561D1*
X875338Y1802363D1*
X873436Y1806210D1*
X838137Y1831059D2*
X840038Y1834862D1*
X845786Y1836763D1*
X849589D1*
X855337Y1834862D1*
X859184Y1829114D1*
X861085Y1819563D1*
Y1810012D1*
X859184Y1802363D1*
X855337Y1798516D1*
X849589Y1796615D1*
X847688D1*
X841984Y1798516D1*
X838137Y1802363D1*
X836236Y1808111D1*
Y1810012D1*
X838137Y1815760D1*
X841984Y1819563D1*
X847688Y1821464D1*
X849589D1*
X855337Y1819563D1*
X859184Y1815760D1*
X861085Y1810012D1*
X2695743Y1096363D2*
X2735935D1*
Y1082965D1*
X2733990Y1077217D1*
X2730187Y1073371D1*
X2726341Y1071469D1*
X2720637Y1069568D1*
X2711042D1*
X2705294Y1071469D1*
X2701491Y1073371D1*
X2697645Y1077218D1*
X2695743Y1082966D1*
Y1096363D1*
X2703437Y1057217D2*
X2701491Y1053370D1*
X2695787Y1047622D1*
X2735935D1*
X1237004Y1361671D2*
Y1344472D1*
X1235058Y1338724D1*
X1233157Y1336778D1*
X1229355Y1334877D1*
X1225508D1*
X1221705Y1336778D1*
X1219760Y1338724D1*
X1217859Y1344472D1*
Y1361671D1*
X1258051D1*
X1237004Y1348274D2*
X1258051Y1334877D1*
Y1314876D2*
X1217903Y1295731D1*
Y1322525D1*
X1644406Y2251649D2*
Y2234449D1*
X1642460Y2228701D1*
X1640559Y2226756D1*
X1636756Y2224855D1*
X1632909D1*
X1629107Y2226756D1*
X1627161Y2228701D1*
X1625260Y2234449D1*
Y2251649D1*
X1665452D1*
X1644406Y2238252D2*
X1665452Y2224855D1*
X1625304Y2202953D2*
X1627206Y2208657D1*
X1631008Y2210602D1*
X1634855D1*
X1638657Y2208657D1*
X1640603Y2204854D1*
X1642504Y2197205D1*
X1644405Y2191457D1*
X1648252Y2187654D1*
X1652055Y2185753D1*
X1657803D1*
X1661605Y2187654D1*
X1663551Y2189555D1*
X1665452Y2195303D1*
Y2202953D1*
X1663551Y2208656D1*
X1661605Y2210602D1*
X1657803Y2212503D1*
X1652055D1*
X1648252Y2210602D1*
X1644406Y2206755D1*
X1642504Y2201051D1*
X1640603Y2193402D1*
X1638657Y2189555D1*
X1634855Y2187654D1*
X1631008D1*
X1627206Y2189555D1*
X1625304Y2195303D1*
Y2202953D1*
X1296276Y2262644D2*
Y2245445D1*
X1294330Y2239697D1*
X1292429Y2237751D1*
X1288627Y2235850D1*
X1284780D1*
X1280977Y2237751D1*
X1279032Y2239697D1*
X1277130Y2245445D1*
Y2262645D1*
X1317322Y2262644D1*
X1296276Y2249247D2*
X1317322Y2235850D1*
X1284824Y2223498D2*
X1282879Y2219652D1*
X1277175Y2213904D1*
X1317322D1*
X1277175Y2190056D2*
X1279076Y2195804D1*
X1284824Y2199651D1*
X1294375Y2201552D1*
X1300123D1*
X1309673Y2199651D1*
X1315421Y2195804D1*
X1317322Y2190056D1*
Y2186254D1*
X1315421Y2180506D1*
X1309673Y2176703D1*
X1300123Y2174758D1*
X1294375D1*
X1284824Y2176703D1*
X1279076Y2180506D1*
X1277175Y2186254D1*
Y2190056D1*
X1284824Y2176703D2*
X1309673Y2199651D1*
X2400046Y1712662D2*
X2382846D1*
X2377098Y1714607D1*
X2375153Y1716508D1*
X2373251Y1720311D1*
Y1724158D1*
X2375153Y1727960D1*
X2377098Y1729906D1*
X2382846Y1731807D1*
X2400046D1*
Y1691615D1*
X2386649Y1712662D2*
X2373251Y1691615D1*
X2360900Y1724114D2*
X2357053Y1726059D1*
X2351305Y1731763D1*
Y1691615D1*
X2337008Y1722212D2*
Y1724114D1*
X2335107Y1727960D1*
X2333206Y1729862D1*
X2329359Y1731763D1*
X2321710D1*
X2317907Y1729862D1*
X2316006Y1727960D1*
X2314060Y1724114D1*
Y1720311D1*
X2316006Y1716464D1*
X2319808Y1710760D1*
X2338954Y1691615D1*
X2312159D1*
X1047004Y2230056D2*
Y2212856D1*
X1045058Y2207108D1*
X1043157Y2205163D1*
X1039355Y2203261D1*
X1035508D1*
X1031705Y2205163D1*
X1029760Y2207108D1*
X1027859Y2212856D1*
Y2230056D1*
X1068051D1*
X1047004Y2216659D2*
X1068051Y2203261D1*
X1035552Y2190910D2*
X1033607Y2187063D1*
X1027903Y2181315D1*
X1068051D1*
X1041256Y2144071D2*
X1047004Y2146016D1*
X1050851Y2149819D1*
X1052752Y2155567D1*
Y2157468D1*
X1050851Y2163216D1*
X1047004Y2167018D1*
X1041256Y2168964D1*
X1039355D1*
X1033607Y2167018D1*
X1029804Y2163216D1*
X1027903Y2157468D1*
Y2155567D1*
X1029804Y2149819D1*
X1033607Y2146016D1*
X1041256Y2144071D1*
X1050851D1*
X1060401Y2146016D1*
X1066149Y2149819D1*
X1068051Y2155567D1*
Y2159369D1*
X1066149Y2165117D1*
X1062303Y2167018D1*
X853677Y2152195D2*
Y2134995D1*
X851732Y2129247D1*
X849831Y2127302D1*
X846028Y2125400D1*
X842181D1*
X838379Y2127302D1*
X836433Y2129247D1*
X834532Y2134995D1*
Y2152195D1*
X874724D1*
X853677Y2138798D2*
X874724Y2125400D1*
X844127Y2111104D2*
X842226D1*
X838379Y2109202D1*
X836478Y2107301D1*
X834576Y2103454D1*
Y2095805D1*
X836478Y2092002D1*
X838379Y2090101D1*
X842226Y2088156D1*
X846028D1*
X849875Y2090101D1*
X855579Y2093904D1*
X874724Y2113049D1*
Y2086254D1*
Y2054758D2*
X834576D1*
X861327Y2073903D1*
Y2045207D1*
X991998Y1976207D2*
Y1947511D1*
X990097Y1941763D1*
X986250Y1937960D1*
X980502Y1936015D1*
X976699D1*
X970951Y1937960D1*
X967104Y1941763D1*
X965203Y1947511D1*
Y1976207D1*
X929904Y1970459D2*
X931805Y1974261D1*
X937553Y1976163D1*
X941356D1*
X947104Y1974261D1*
X950950Y1968513D1*
X952852Y1958963D1*
Y1949412D1*
X950950Y1941763D1*
X947104Y1937916D1*
X941356Y1936015D1*
X939454D1*
X933751Y1937916D1*
X929904Y1941763D1*
X928003Y1947511D1*
Y1949412D1*
X929904Y1955160D1*
X933751Y1958963D1*
X939454Y1960864D1*
X941356D1*
X947104Y1958963D1*
X950950Y1955160D1*
X952852Y1949412D1*
X2335538Y523863D2*
D123*
Y473623D1*
X2302044Y523863D2*
X2335538Y490370D1*
X2323599Y502363D2*
X2302044Y473623D1*
X2288044Y507117D2*
Y483185D1*
X2285668Y476055D1*
X2280859Y473623D1*
X2273674D1*
X2268921Y476055D1*
X2261736Y483185D1*
Y507117D2*
Y473623D1*
X2247736Y507117D2*
Y473623D1*
Y492747D2*
X2245304Y499932D1*
X2240551Y504740D1*
X2235743Y507117D1*
X2228558D1*
X2207372Y523863D2*
Y483185D1*
X2204996Y476055D1*
X2200187Y473623D1*
X2195434D1*
X2214558Y507117D2*
X2197811D1*
X2169441Y523808D2*
X2181434Y509438D1*
X2167064Y521431D1*
X2169441Y523808D1*
X2126756Y499932D2*
X2129132Y504740D1*
X2136317Y507117D1*
X2143503D1*
X2150688Y504740D1*
X2153064Y499932D1*
X2150688Y495178D1*
X2145879Y492747D1*
X2133941Y490370D1*
X2129132Y487993D1*
X2126756Y483185D1*
Y480808D1*
X2129132Y476055D1*
X2136317Y473623D1*
X2143503D1*
X2150688Y476055D1*
X2153064Y480808D1*
X2048847Y523863D2*
Y473623D1*
X2065594Y523863D2*
X2032101D1*
X2018101Y492747D2*
X1989416D1*
Y497555D1*
X1991793Y502363D1*
X1994169Y504740D1*
X1998978Y507117D1*
X2006163D1*
X2010916Y504740D1*
X2015724Y499932D1*
X2018101Y492747D1*
Y487993D1*
X2015724Y480808D1*
X2010916Y476055D1*
X2006163Y473623D1*
X1998978D1*
X1994169Y476055D1*
X1989416Y480808D1*
X1975416Y492747D2*
X1946731D1*
Y497555D1*
X1949108Y502363D1*
X1951484Y504740D1*
X1956293Y507117D1*
X1963478D1*
X1968231Y504740D1*
X1973039Y499932D1*
X1975416Y492747D1*
Y487993D1*
X1973039Y480808D1*
X1968231Y476055D1*
X1963478Y473623D1*
X1956293D1*
X1951484Y476055D1*
X1946731Y480808D1*
X1932731Y507117D2*
Y473623D1*
Y497555D2*
X1925546Y504740D1*
X1920738Y507117D1*
X1913608D1*
X1908799Y504740D1*
X1906423Y497555D1*
Y473623D1*
X1866114Y499932D2*
X1868491Y504740D1*
X1875676Y507117D1*
X1882861D1*
X1890046Y504740D1*
X1892423Y499932D1*
X1890046Y495178D1*
X1885238Y492747D1*
X1873299Y490370D1*
X1868491Y487993D1*
X1866114Y483185D1*
Y480808D1*
X1868491Y476055D1*
X1875676Y473623D1*
X1882861D1*
X1890046Y476055D1*
X1892423Y480808D1*
X1849683Y507117D2*
X1835368Y473623D1*
X1840121Y464062D1*
X1844929Y459253D1*
X1849683Y456877D1*
X1852114D1*
X1820998Y507117D2*
X1835368Y473623D1*
X1759836Y499932D2*
X1738336D1*
X1731151Y502363D1*
X1728719Y504740D1*
X1726343Y509493D1*
Y514302D1*
X1728719Y519055D1*
X1731151Y521487D1*
X1738336Y523863D1*
X1759836D1*
Y473623D1*
X1743089Y499932D2*
X1726343Y473623D1*
X1712343Y497555D2*
X1690788D1*
X1683658Y499932D1*
X1681226Y502363D1*
X1678849Y507117D1*
Y514302D1*
X1681226Y519055D1*
X1683658Y521487D1*
X1690788Y523863D1*
X1712343D1*
Y473623D1*
X1664849Y523863D2*
Y473623D1*
X1603688Y523863D2*
Y473623D1*
X1570194Y523863D2*
Y473623D1*
X1603688Y499932D2*
X1570194D1*
X1527509Y507117D2*
Y473623D1*
Y499932D2*
X1532263Y504740D1*
X1537071Y507117D1*
X1544201D1*
X1549009Y504740D1*
X1553762Y499932D1*
X1556194Y492747D1*
Y487993D1*
X1553762Y480808D1*
X1549009Y476055D1*
X1544201Y473623D1*
X1537071D1*
X1532263Y476055D1*
X1527509Y480808D1*
X1506324Y523863D2*
Y483185D1*
X1503948Y476055D1*
X1499139Y473623D1*
X1494386D1*
X1513509Y507117D2*
X1496763D1*
X1433224Y523863D2*
X1414101Y473623D1*
X1394978Y523863D1*
X1378601Y478432D2*
X1380978Y476000D1*
X1378601Y473623D1*
X1376169Y476000D1*
X1378601Y478432D1*
X1359738Y511870D2*
Y514246D1*
X1357361Y519055D1*
X1354984Y521431D1*
X1350176Y523808D1*
X1340614D1*
X1335861Y521431D1*
X1333485Y519055D1*
X1331053Y514246D1*
Y509493D1*
X1333485Y504685D1*
X1338238Y497555D1*
X1362169Y473623D1*
X1328676D1*
X1763388Y1108830D2*
D122*
X1758579Y1111262D1*
X1751394Y1118392D1*
Y1068207D1*
X1756456Y1107454D2*
Y1109830D1*
X1754079Y1114639D1*
X1751702Y1117015D1*
X1746894Y1119392D1*
X1737332D1*
X1732579Y1117015D1*
X1730203Y1114639D1*
X1727771Y1109830D1*
Y1105077D1*
X1730203Y1100269D1*
X1734956Y1093139D1*
X1758887Y1069207D1*
X1725394D1*
X1854079Y1119392D2*
X1827826D1*
X1842141Y1100269D1*
X1834956D1*
X1830203Y1097892D1*
X1827826Y1095515D1*
X1825394Y1088330D1*
Y1083577D1*
X1827826Y1076392D1*
X1832579Y1071584D1*
X1839764Y1069207D1*
X1846949D1*
X1854079Y1071584D1*
X1856456Y1074015D1*
X1858887Y1078769D1*
X2140458Y1112262D2*
X2142835Y1117015D1*
X2150020Y1119392D1*
X2154773D1*
X2161958Y1117015D1*
X2166767Y1109830D1*
X2169143Y1097892D1*
Y1085954D1*
X2166767Y1076392D1*
X2161958Y1071584D1*
X2154773Y1069207D1*
X2152397D1*
X2145267Y1071584D1*
X2140458Y1076392D1*
X2138082Y1083577D1*
Y1085954D1*
X2140458Y1093139D1*
X2145267Y1097892D1*
X2152397Y1100269D1*
X2154773D1*
X2161958Y1097892D1*
X2166767Y1093139D1*
X2169143Y1085954D1*
X2262014Y1069207D2*
X2238082Y1119392D1*
X2271575D1*
X2359582D2*
X2366711Y1117015D1*
X2369143Y1112262D1*
Y1107454D1*
X2366711Y1102700D1*
X2361958Y1100269D1*
X2352397Y1097892D1*
X2345212Y1095515D1*
X2340458Y1090707D1*
X2338082Y1085954D1*
Y1078769D1*
X2340458Y1074015D1*
X2342835Y1071584D1*
X2350020Y1069207D1*
X2359582D1*
X2366711Y1071584D1*
X2369143Y1074015D1*
X2371520Y1078769D1*
Y1085954D1*
X2369143Y1090707D1*
X2364335Y1095515D1*
X2357205Y1097892D1*
X2347643Y1100269D1*
X2342835Y1102700D1*
X2340458Y1107454D1*
Y1112262D1*
X2342835Y1117015D1*
X2350020Y1119392D1*
X2359582D1*
X2443082Y1102700D2*
X2445514Y1095515D1*
X2450267Y1090707D1*
X2457452Y1088330D1*
X2459828D1*
X2467014Y1090707D1*
X2471767Y1095515D1*
X2474199Y1102700D1*
Y1105077D1*
X2471767Y1112262D1*
X2467014Y1117015D1*
X2459828Y1119392D1*
X2457452D1*
X2450267Y1117015D1*
X2445514Y1112262D1*
X2443082Y1102700D1*
Y1090707D1*
X2445514Y1078769D1*
X2450267Y1071584D1*
X2457452Y1069207D1*
X2462205D1*
X2469390Y1071584D1*
X2471767Y1076392D1*
X1552327Y1069207D2*
X1571505Y1119447D1*
X1590629Y1069207D1*
X1583443Y1085954D2*
X1559512D1*
X1522517Y1119392D2*
X1529702Y1117015D1*
X1534511Y1109830D1*
X1536887Y1097892D1*
Y1090707D1*
X1534511Y1078769D1*
X1529702Y1071584D1*
X1522517Y1069207D1*
X1517764D1*
X1510579Y1071584D1*
X1505826Y1078769D1*
X1503394Y1090707D1*
Y1097892D1*
X1505826Y1109830D1*
X1510579Y1117015D1*
X1517764Y1119392D1*
X1522517D1*
X1505826Y1109830D2*
X1534511Y1078769D1*
X1946578Y1072573D2*
Y1122758D1*
X1970509Y1089320D1*
X1934640D1*
X2040822Y1118032D2*
X2064698D1*
X2067075Y1096532D1*
X2064698Y1098909D1*
X2057513Y1101341D1*
X2050384D1*
X2043199Y1098909D1*
X2038390Y1094156D1*
X2036014Y1086971D1*
Y1082218D1*
X2038390Y1075032D1*
X2043199Y1070224D1*
X2050384Y1067847D1*
X2057513D1*
X2064698Y1070224D1*
X2067075Y1072656D1*
X2069507Y1077409D1*
X2762886Y1832487D2*
X2767694Y1830055D1*
X2774879Y1822925D1*
Y1873110D1*
X2658042Y1834572D2*
Y1832195D1*
X2660419Y1827387D1*
X2662795Y1825010D1*
X2667604Y1822634D1*
X2677165D1*
X2681918Y1825010D1*
X2684295Y1827387D1*
X2686727Y1832195D1*
Y1836948D1*
X2684295Y1841757D1*
X2679542Y1848887D1*
X2655610Y1872818D1*
X2689104D1*
X2547354Y1822634D2*
X2573607D1*
X2559293Y1841757D1*
X2566478D1*
X2571231Y1844133D1*
X2573607Y1846510D1*
X2576039Y1853695D1*
Y1858448D1*
X2573607Y1865633D1*
X2568854Y1870442D1*
X2561669Y1872818D1*
X2554484D1*
X2547354Y1870442D1*
X2544978Y1868010D1*
X2542546Y1863257D1*
X2270555Y1832346D2*
X2268178Y1827593D1*
X2260993Y1825216D1*
X2256240D1*
X2249055Y1827593D1*
X2244247Y1834778D1*
X2241870Y1846716D1*
Y1858654D1*
X2244247Y1868216D1*
X2249055Y1873024D1*
X2256240Y1875401D1*
X2258617D1*
X2265747Y1873024D1*
X2270555Y1868216D1*
X2272932Y1861031D1*
Y1858654D1*
X2270555Y1851469D1*
X2265747Y1846716D1*
X2258617Y1844340D1*
X2256240D1*
X2249055Y1846716D1*
X2244247Y1851469D1*
X2241870Y1858654D1*
X2161054Y1877551D2*
X2184985Y1827366D1*
X2151492D1*
X2063280Y1826075D2*
X2056150Y1828451D1*
X2053718Y1833204D1*
Y1838013D1*
X2056150Y1842766D1*
X2060903Y1845198D1*
X2070465Y1847574D1*
X2077650Y1849951D1*
X2082403Y1854759D1*
X2084779Y1859513D1*
Y1866698D1*
X2082403Y1871451D1*
X2080026Y1873883D1*
X2072841Y1876259D1*
X2063280D1*
X2056150Y1873883D1*
X2053718Y1871451D1*
X2051341Y1866698D1*
Y1859513D1*
X2053718Y1854759D1*
X2058526Y1849951D1*
X2065656Y1847574D1*
X2075218Y1845198D1*
X2080026Y1842766D1*
X2082403Y1838013D1*
Y1833204D1*
X2080026Y1828451D1*
X2072841Y1826075D1*
X2063280D1*
X1981497Y1844057D2*
X1979065Y1851242D1*
X1974312Y1856051D1*
X1967127Y1858427D1*
X1964751D1*
X1957566Y1856051D1*
X1952812Y1851242D1*
X1950381Y1844057D1*
Y1841681D1*
X1952812Y1834496D1*
X1957566Y1829743D1*
X1964751Y1827366D1*
X1967127D1*
X1974312Y1829742D1*
X1979065Y1834496D1*
X1981497Y1844057D1*
Y1856051D1*
X1979065Y1867989D1*
X1974312Y1875174D1*
X1967127Y1877551D1*
X1962374D1*
X1955189Y1875174D1*
X1952812Y1870366D1*
X2462660Y1872312D2*
Y1822127D1*
X2438728Y1855565D1*
X2474598D1*
X2375093Y1821274D2*
X2351217D1*
X2348840Y1842774D1*
X2351217Y1840397D1*
X2358402Y1837965D1*
X2365531D1*
X2372716Y1840397D1*
X2377525Y1845150D1*
X2379901Y1852335D1*
Y1857089D1*
X2377525Y1864274D1*
X2372716Y1869082D1*
X2365531Y1871459D1*
X2358402D1*
X2351217Y1869082D1*
X2348840Y1866650D1*
X2346408Y1861897D1*
X2864884Y1816235D2*
X2857699Y1818611D1*
X2852891Y1825796D1*
X2850514Y1837735D1*
Y1844920D1*
X2852891Y1856858D1*
X2857700Y1864043D1*
X2864885Y1866419D1*
X2869638D1*
X2876823Y1864043D1*
X2881576Y1856858D1*
X2884008Y1844920D1*
Y1837734D1*
X2881576Y1825796D1*
X2876823Y1818611D1*
X2869638Y1816235D1*
X2864884D1*
X2881576Y1825796D2*
X2852891Y1856858D1*
X1834426Y1836080D2*
X1839234Y1833648D1*
X1846419Y1826518D1*
Y1876703D1*
X1876228Y1826518D2*
X1869043Y1828895D1*
X1864235Y1836080D1*
X1861858Y1848018D1*
Y1855203D1*
X1864235Y1867141D1*
X1869043Y1874326D1*
X1876228Y1876703D1*
X1880982D1*
X1888167Y1874326D1*
X1892920Y1867141D1*
X1895352Y1855203D1*
Y1848018D1*
X1892920Y1836080D1*
X1888167Y1828895D1*
X1880981Y1826518D1*
X1876228D1*
X1892920Y1836080D2*
X1864235Y1867141D1*
X1742852Y1832514D2*
X1747660Y1830082D1*
X1754845Y1822953D1*
Y1873137D1*
X1770285Y1832514D2*
X1775093Y1830082D1*
X1782278Y1822952D1*
Y1873137D1*
X1635495Y1835823D2*
X1640304Y1833391D1*
X1647489Y1826261D1*
Y1876446D1*
X1665360Y1838199D2*
Y1835823D1*
X1667736Y1831014D1*
X1670113Y1828638D1*
X1674921Y1826261D1*
X1684483D1*
X1689236Y1828637D1*
X1691613Y1831014D1*
X1694045Y1835823D1*
Y1840576D1*
X1691613Y1845384D1*
X1686859Y1852514D1*
X1662928Y1876446D1*
X1696421D1*
X1533555Y1837680D2*
X1538364Y1835248D1*
X1545549Y1828118D1*
Y1878303D1*
X1565797Y1828118D2*
X1592050D1*
X1577735Y1847241D1*
X1584920D1*
X1589673Y1849618D1*
X1592050Y1851994D1*
X1594481Y1859179D1*
Y1863933D1*
X1592050Y1871118D1*
X1587296Y1875926D1*
X1580111Y1878303D1*
X1572926D1*
X1565797Y1875926D1*
X1563420Y1873494D1*
X1560988Y1868741D1*
X2888287Y972378D2*
D123*
Y934131D1*
X2890664Y926946D1*
X2893096Y924570D1*
X2897849Y922138D1*
X2902657D1*
X2907411Y924570D1*
X2909787Y926946D1*
X2912219Y934131D1*
Y938884D1*
X2874287Y972378D2*
Y936508D1*
X2871911Y929323D1*
X2867102Y924570D1*
X2859917Y922138D1*
X2855164D1*
X2847979Y924570D1*
X2843171Y929323D1*
X2840794Y936508D1*
Y972378D1*
X2793301Y965193D2*
X2798054Y970001D1*
X2805239Y972378D1*
X2814800D1*
X2821986Y970001D1*
X2826794Y965193D1*
Y960439D1*
X2824362Y955631D1*
X2821986Y953254D1*
X2817232Y950878D1*
X2802862Y946069D1*
X2798054Y943693D1*
X2795677Y941261D1*
X2793301Y936508D1*
Y929323D1*
X2798054Y924570D1*
X2805239Y922138D1*
X2814800D1*
X2821986Y924570D1*
X2826794Y929323D1*
X2779301Y972378D2*
Y922138D1*
X2757746D1*
X2750560Y924570D1*
X2748184Y926946D1*
X2745807Y931699D1*
Y938884D1*
X2748184Y943693D1*
X2750560Y946069D1*
X2757746Y948446D1*
X2750560Y950878D1*
X2748184Y953254D1*
X2745807Y958008D1*
Y962816D1*
X2748184Y967569D1*
X2750560Y970001D1*
X2757746Y972378D1*
X2779301D1*
Y948446D2*
X2757746D1*
M02*
