M48
INCH
T01C0.0191
T02C0.02
T03C0.025
T04C0.0315
T05C0.0354
T06C0.038
T07C0.04
T08C0.0433
T09C0.118
T10C0.125
%
T05
X+020410Y+009187
X+020410Y+008187
X+019410Y+009187
X+019410Y+008187
X+018410Y+009187
X+018410Y+008187
X+017410Y+009187
X+017410Y+008187
X+016410Y+009187
X+016410Y+008187
X+015410Y+009187
X+015410Y+008187
X+015410Y+010187
X+016410Y+010187
X+017410Y+010187
X+018410Y+010187
X+019410Y+010187
X+020410Y+010187
X+024410Y+009187
X+024410Y+008187
X+023410Y+009187
X+023410Y+008187
X+022410Y+009187
X+022410Y+008187
X+021410Y+009187
X+021410Y+008187
X+021410Y+010187
X+022410Y+010187
X+023410Y+010187
X+024410Y+010187
X+015660Y+020337
X+015660Y+021337
X+016660Y+020337
X+016660Y+021337
X+017660Y+020337
X+017660Y+021337
X+018660Y+020337
X+018660Y+021337
X+019660Y+020337
X+019660Y+021337
X+020660Y+020337
X+020660Y+021337
X+021660Y+020337
X+021660Y+021337
X+028687Y+022687
X+028687Y+021687
X+028687Y+020687
T09
X+008787Y+009431
X+008787Y+007069
X+010637Y+008250
T07
X+007232Y+024106
X+007232Y+025106
X+008232Y+024106
X+008232Y+025106
X+009232Y+024106
X+009232Y+025106
X+010232Y+024106
X+010232Y+025106
X+011232Y+024106
X+011232Y+025106
X+012232Y+024106
X+012232Y+025106
X+013232Y+024106
X+013232Y+025106
X+014232Y+024106
X+014232Y+025106
X+015232Y+024106
X+015232Y+025106
X+016232Y+024106
X+016232Y+025106
X+017232Y+024106
X+017232Y+025106
X+018232Y+024106
X+018232Y+025106
X+019232Y+024106
X+019232Y+025106
X+020232Y+024106
X+020232Y+025106
X+021232Y+024106
X+021232Y+025106
X+022232Y+024106
X+022232Y+025106
X+023232Y+024106
X+023232Y+025106
X+024232Y+024106
X+024232Y+025106
X+025232Y+024106
X+025232Y+025106
X+026232Y+024106
X+026232Y+025106
X+005187Y+020037
X+006187Y+020037
X+007187Y+020037
X+005187Y+017887
X+006187Y+017887
X+007187Y+017887
X+005187Y+015737
X+006187Y+015737
X+007187Y+015737
X+005187Y+013587
X+006187Y+013587
X+007187Y+013587
X+005187Y+011437
X+006187Y+011437
X+007187Y+011437
X+005187Y+022187
X+006187Y+022187
X+007187Y+022187
X+012487Y+005287
X+012487Y+006287
X+012487Y+007287
T05
X+028660Y+019337
X+027660Y+019337
X+026660Y+019337
X+025660Y+019337
X+024660Y+019337
X+023660Y+019337
X+022660Y+019337
X+021660Y+019337
X+020660Y+019337
X+019660Y+019337
X+018660Y+019337
X+017660Y+019337
X+016660Y+019337
X+015660Y+019337
X+014237Y+022937
X+015237Y+022937
X+016237Y+022937
X+017237Y+022937
X+018237Y+022937
X+019237Y+022937
X+020237Y+022937
X+021237Y+022937
X+022237Y+022937
X+023237Y+022937
X+013437Y+014437
X+013437Y+015437
X+014437Y+014437
X+014437Y+015437
T04
X+026087Y+022387
X+026087Y+021737
X+026087Y+021037
X+026087Y+020387
T08
X+011230Y+011891
X+010230Y+011891
X+009230Y+011891
T02
X+026410Y+014687
T08
X+011437Y+021179
X+011437Y+018187
T10
X+028150Y+005315
X+005315Y+005315
X+005315Y+024606
X+028150Y+024606
T07
X+009053Y+014437
X+009723Y+014437
X+010393Y+014437
X+011063Y+014437
X+011733Y+014437
T06
X+028910Y+017687
X+027910Y+017687
X+026910Y+017687
X+025910Y+017687
X+024910Y+017687
X+023910Y+017687
X+022910Y+017687
X+021910Y+017687
X+020910Y+017687
X+019910Y+017687
X+018910Y+017687
X+017910Y+017687
X+016910Y+017687
X+015910Y+017687
X+015910Y+014687
X+015910Y+015687
X+015910Y+016687
X+015910Y+012687
X+015910Y+011687
X+016910Y+011687
X+017910Y+011687
X+018910Y+011687
X+019910Y+011687
X+020910Y+011687
X+021910Y+011687
X+022910Y+011687
X+023910Y+011687
X+024910Y+011687
X+025910Y+011687
X+026910Y+011687
X+027910Y+011687
X+028910Y+011687
X+027910Y+012687
X+025910Y+012687
X+024910Y+012687
X+023910Y+012687
T01
X+016787Y+014487
X+015192Y+012944
X+023760Y+014819
T03
X+013937Y+010937
X+023575Y+013618
X+021596Y+013625
X+012290Y+020548
T01
X+020387Y+012937
X+022937Y+012537
X+025437Y+012187
X+019337Y+012237
X+025493Y+014968
X+025287Y+015637
X+022337Y+012937
X+021137Y+012937
X+012737Y+015737
X+016587Y+016537
X+013351Y+013497
T03
X+014487Y+018987
X+027537Y+015550
X+021533Y+015980
X+018687Y+015337
X+025429Y+013902
X+027132Y+013877
T01
X+011029Y+022007
X+026502Y+012360
X+026429Y+006106
X+017820Y+013935
T00
M30
