M48
INCH
T01C0.0191
T02C0.025
T03C0.0354
T04C0.038
T05C0.04
T06C0.118
T07C0.125
%
T01
X+019109Y+012954
X+020759Y+014870
X+021079Y+028110
X+019542Y+028870
X+007559Y+025690
T02
X+012659Y+022890
X+012609Y+026390
X+028634Y+011310
T03
X+008359Y+009840
X+009359Y+009840
X+010359Y+009840
X+011359Y+009840
X+012359Y+009840
X+011359Y+007940
X+010359Y+007940
X+009359Y+007940
X+008359Y+007940
X+007359Y+009840
X+011509Y+005940
X+012509Y+005940
X+013509Y+005940
X+014509Y+005940
X+014509Y+004940
X+013509Y+004940
X+012509Y+004940
X+011509Y+004940
X+011359Y+015940
X+011359Y+016840
X+010359Y+016840
X+010359Y+015940
X+009359Y+015940
X+009359Y+016840
X+008359Y+016840
X+008359Y+015940
X+007359Y+015940
X+006359Y+015940
X+005359Y+015940
X+006009Y+020240
X+007009Y+020240
X+008009Y+020240
X+009009Y+020240
X+010009Y+020240
X+011009Y+020240
X+012009Y+020240
X+013009Y+020240
X+014009Y+020240
X+015009Y+020240
X+016009Y+020240
X+017009Y+020240
X+018009Y+020240
X+019009Y+020240
X+021709Y+018740
X+021709Y+017740
X+021709Y+016740
X+021709Y+015740
X+017729Y+015860
X+013359Y+015940
X+012359Y+015940
X+018009Y+023440
X+022259Y+023290
X+023259Y+023290
X+024259Y+023290
X+024259Y+024290
X+024259Y+025290
X+024259Y+026290
X+023259Y+026290
X+022259Y+026290
X+022259Y+025290
X+022259Y+024290
X+023259Y+024290
X+023259Y+025290
X+023259Y+027290
X+024259Y+027290
X+024259Y+028290
X+024259Y+029290
X+023259Y+029290
X+022259Y+029290
X+022259Y+028290
X+023259Y+028290
X+022259Y+027290
X+018509Y+029940
X+017509Y+029940
X+016509Y+029940
X+015509Y+029940
X+014509Y+029940
X+013509Y+029940
X+012509Y+029940
X+011509Y+029940
X+010159Y+029090
X+009159Y+029090
X+008159Y+029090
X+022259Y+022290
X+023259Y+022290
X+024259Y+022290
T04
X+017729Y+018420
X+018009Y+021440
X+017009Y+021440
X+016009Y+021440
X+015009Y+021440
X+014009Y+021440
X+013009Y+021440
X+012009Y+021440
X+011009Y+021440
X+010009Y+021440
X+009009Y+021440
X+008009Y+021440
X+007009Y+021440
X+006009Y+021440
X+005009Y+021440
X+006009Y+026440
X+006009Y+027440
X+007009Y+027440
X+008009Y+027440
X+008009Y+026440
X+009009Y+026440
X+009009Y+027440
X+010009Y+027440
X+010009Y+026440
X+011009Y+027440
X+012009Y+027440
X+013009Y+027440
X+014009Y+027440
X+015009Y+027440
X+016009Y+027440
X+017009Y+027440
X+018009Y+027440
X+018009Y+026440
X+017009Y+025440
X+017009Y+024440
X+018009Y+024440
X+016009Y+024440
X+015009Y+024440
X+014009Y+024440
X+013009Y+024440
X+012009Y+024440
X+012009Y+025440
X+013009Y+025440
X+014009Y+025440
X+015009Y+025440
X+016009Y+025440
X+011009Y+025440
X+011009Y+024440
X+005009Y+027440
T05
X+021509Y+011890
X+021509Y+010890
X+021509Y+009890
X+021509Y+007440
X+021509Y+006440
X+021509Y+005440
X+028259Y+014440
X+029259Y+014440
X+030259Y+014440
X+030259Y+016940
X+029259Y+016940
X+028259Y+016940
X+028259Y+019440
X+029259Y+019440
X+030259Y+019440
X+030259Y+021940
X+029259Y+021940
X+028259Y+021940
X+026259Y+022440
X+026259Y+023440
X+026259Y+024440
X+028259Y+024440
X+029259Y+024440
X+030259Y+024440
T06
X+024469Y+009870
X+026319Y+008689
X+024469Y+007508
T07
X+029599Y+005909
X+005977Y+005909
X+005977Y+029531
X+029599Y+029531
T00
M30
