G04 DipTrace Beta 2.9.0.1*
G04 TeensyArbotixPro.gbs*
%MOIN*%
G04 #@! TF.FileFunction,Soldermask,Bot*
G04 #@! TF.Part,Single*
%ADD33C,0.065199*%
%ADD52C,0.06194*%
%ADD53C,0.17*%
%ADD66C,0.067055*%
%ADD77C,0.068*%
%ADD95R,0.067055X0.067055*%
%ADD101C,0.067055*%
%FSLAX26Y26*%
G04*
G70*
G90*
G75*
G01*
G04 BotMask*
%LPD*%
D33*
X2150850Y1189000D3*
Y1089000D3*
Y989000D3*
Y744000D3*
Y644000D3*
Y544000D3*
D101*
X835850Y984000D3*
X935850D3*
X1035850D3*
X735850D3*
X935850Y1684000D3*
X1035850D3*
X1135850D3*
X835850D3*
X1135850Y984000D3*
X1235850D3*
D95*
X1850850Y2994000D3*
D101*
X1750850D3*
X1650850D3*
X1550850D3*
X1450850D3*
X1350850D3*
X1250850D3*
X1150850D3*
D95*
X2325850Y2929000D3*
D101*
X2425850D3*
X2325850Y2829000D3*
X2425850D3*
X2325850Y2729000D3*
X2425850D3*
X2325850Y2629000D3*
X2425850D3*
X2325850Y2529000D3*
X2425850D3*
X2325850Y2429000D3*
X2425850D3*
X2325850Y2329000D3*
X2425850D3*
X2325850Y2229000D3*
X2425850D3*
D95*
X2225850D3*
D101*
Y2329000D3*
Y2429000D3*
Y2529000D3*
Y2629000D3*
Y2729000D3*
Y2829000D3*
Y2929000D3*
D95*
X2170850Y1874000D3*
D101*
Y1774000D3*
Y1674000D3*
Y1574000D3*
D95*
X815850Y2909000D3*
D101*
X915850D3*
X1015850D3*
D95*
X1450850Y594000D3*
D101*
X1350850D3*
X1250850D3*
X1150850D3*
D33*
X3025850Y1444000D3*
X2925850D3*
X2825850D3*
X3025850Y1694000D3*
X2925850D3*
X2825850D3*
X3025850Y1944000D3*
X2925850D3*
X2825850D3*
X3025850Y2194000D3*
X2925850D3*
X2825850D3*
X3025850Y2444000D3*
X2925850D3*
X2825850D3*
X2625850Y2244000D3*
Y2344000D3*
Y2444000D3*
D95*
X600850Y2024000D3*
D101*
X700850D3*
X800850D3*
X900850D3*
X1000850D3*
X1100850D3*
X1200850D3*
X1300850D3*
D95*
X1400850D3*
D101*
X1500850D3*
X1600850D3*
X1700850D3*
X1800850D3*
X1900850D3*
D95*
X1450850Y494000D3*
D101*
X1350850D3*
X1250850D3*
X1150850D3*
X1235850Y1594000D3*
X1135850D3*
X1035850D3*
X1335850D3*
X1035850Y794000D3*
X935850D3*
X835850D3*
X1135850D3*
X935850Y1594000D3*
X835850D3*
X635850D3*
X535850D3*
X735850D3*
D77*
X1772898Y1842000D3*
D101*
Y1586047D3*
D52*
X500850Y2144000D3*
X600850D3*
X700850D3*
X800850D3*
X900850D3*
X1000850D3*
X1100850D3*
X1200850D3*
X1300850D3*
X1400850D3*
X1500850D3*
X1600850D3*
X1700850D3*
X1800850D3*
Y2444000D3*
Y2644000D3*
Y2744000D3*
X1700850D3*
X1600850D3*
X1500850D3*
X1400850D3*
X1300850D3*
X1200850D3*
X1100850D3*
X1000850D3*
X900850D3*
X800850D3*
X700850D3*
X600850D3*
X500850D3*
X600850Y2644000D3*
X800850D3*
X900850D3*
X1000850D3*
X1700850Y2444000D3*
Y2544000D3*
X1600850Y2444000D3*
X1500850D3*
X1400850D3*
X1300850D3*
X1600850Y2544000D3*
X1500850D3*
X1400850D3*
X1300850D3*
X1200850D3*
X1100850D3*
X1200850Y2444000D3*
X1100850D3*
D53*
X2446850Y987000D3*
Y750780D3*
X2631890Y868890D3*
D66*
X1800850Y2344000D3*
M02*
