G04 DipTrace Beta 2.9.0.1*
G04 TeensyArbotixPro.gbl*
%MOIN*%
G04 #@! TF.FileFunction,Copper,L2,Bot*
G04 #@! TF.Part,Single*
G04 #@! TA.AperFunction,ViaPad*
%ADD13C,0.04*%
G04 #@! TA.AperFunction,Conductor,NotC*
%ADD14C,0.027559*%
%ADD15C,0.023*%
%ADD16C,0.024*%
%ADD18C,0.008*%
%ADD19C,0.015*%
G04 #@! TA.AperFunction,ComponentPad*
%ADD20C,0.06*%
%ADD21C,0.059055*%
G04 #@! TA.AperFunction,ViaPad*
%ADD22C,0.05*%
G04 #@! TA.AperFunction,Conductor,NotC*
%ADD27C,0.01*%
G04 #@! TA.AperFunction,CopperBalancing*
%ADD30C,0.025*%
%ADD31C,0.013*%
G04 #@! TA.AperFunction,ComponentPad*
%ADD33C,0.065199*%
%ADD34C,0.059055*%
%ADD38R,0.059055X0.059055*%
%ADD52C,0.06194*%
%ADD53C,0.17*%
G04 #@! TA.AperFunction,ViaPad*
%ADD55C,0.165*%
%FSLAX26Y26*%
G04*
G70*
G90*
G75*
G01*
G04 Bottom*
%LPD*%
X2325850Y2929000D2*
D13*
Y2829000D1*
Y2729000D1*
Y2629000D1*
Y2529000D1*
Y2429000D1*
Y2329000D1*
Y2229000D1*
Y1729000D1*
X2280850Y1684000D1*
X2180850D1*
X2170850Y1674000D1*
X2135850D1*
X2025850Y1564000D1*
Y1486243D1*
Y1114000D1*
X2150850Y989000D1*
X2863350Y1131000D2*
X2362850D1*
X2220850Y989000D1*
X2150850D1*
X1035850Y1594000D2*
X586323Y1144472D1*
Y903528D1*
X636323Y853528D1*
X876323D1*
X935850Y794000D1*
X2025850Y1486243D2*
X2075101D1*
X2075850Y1486992D1*
X1772898Y1586047D2*
X1450850Y1264000D1*
Y594000D1*
X1954157Y2887000D2*
D14*
X1947850D1*
X2050850Y2784000D1*
Y1829000D1*
X1807898Y1586047D1*
X1772898D1*
X1260850Y2639000D2*
D15*
X1250850D1*
D16*
Y2289000D1*
X1265850D1*
X1800850Y2644000D2*
D18*
X1754850Y2690000D1*
X1348146D1*
Y2795705D1*
X1314850Y2829000D1*
X1313850D1*
X1151850Y2991000D1*
Y2995000D1*
X1150850Y2994000D1*
X1000850Y2144000D2*
Y2024000D1*
X1100850D2*
Y2144000D1*
X2107850Y2811000D2*
X2225850Y2929000D1*
X1200850Y2144000D2*
Y2024000D1*
X1700850Y2144000D2*
Y2024000D1*
X1900850D2*
Y2205000D1*
X1650850D1*
Y2589000D1*
X1845823D1*
Y2699028D1*
X1800850Y2744000D1*
X1400850Y2444000D2*
X1395850D1*
Y2244000D1*
X1343823Y2191972D1*
Y1751972D1*
X1285850Y1694000D1*
Y1034000D1*
X1235850Y984000D1*
X700850Y2024000D2*
Y2144000D1*
Y2514000D1*
X755850Y2569000D1*
X1800850Y2144000D2*
Y2024000D1*
X1850850Y2994000D2*
X1600850Y2744000D1*
X1750850Y2994000D2*
X1500850Y2744000D1*
X1400850D2*
X1650850Y2994000D1*
X1035850Y794000D2*
Y984000D1*
X1090850Y1039000D1*
Y1739000D1*
X1047962Y1781888D1*
X1043823D1*
Y2770972D1*
X1059823Y2786972D1*
X1257878D1*
X1300850Y2744000D1*
X1135850Y794000D2*
Y984000D1*
X1190850Y1039000D1*
Y1719000D1*
X1147958Y1761892D1*
X1143823D1*
Y2686972D1*
X1200850Y2744000D1*
X900850Y2144000D2*
Y2024000D1*
X1300850D2*
Y2144000D1*
X1400850D2*
Y2024000D1*
X1500850Y2144000D2*
Y2024000D1*
X2825850Y2444000D2*
D19*
Y2194000D1*
Y1944000D1*
Y1694000D1*
Y1444000D1*
X3025850Y2444000D2*
D20*
Y2194000D1*
Y1944000D1*
Y1694000D1*
Y1444000D1*
X2625850Y2244000D2*
X2440850D1*
X2425850Y2229000D1*
Y2929000D2*
Y2829000D1*
Y2729000D1*
Y2629000D1*
Y2580129D1*
Y2529000D1*
Y2429000D1*
Y2329000D1*
Y2229000D1*
Y2580129D2*
X2954722D1*
X3015850Y2519000D1*
Y2454000D1*
X3025850Y2444000D1*
X2150850Y644000D2*
X2005850D1*
X1860850Y499000D1*
X1455850D1*
D21*
X1450850Y494000D1*
X1350850D1*
X1250850D1*
X1150850D1*
X1091323D1*
D20*
X820850D1*
X795850Y519000D1*
Y665852D1*
Y734472D1*
D21*
X835850D1*
Y794000D1*
X795850Y734472D2*
D20*
X520378D1*
X460850Y794000D1*
Y2104000D1*
X500850Y2144000D1*
X1335850Y1594000D2*
D21*
Y1546972D1*
Y1534472D1*
D20*
Y834000D1*
X1235850Y734000D1*
X1220850D1*
X1180850Y694000D1*
X985850D1*
X823999D1*
X795850Y665852D1*
X935850Y984000D2*
D27*
Y949000D1*
X985850Y899000D1*
Y694000D1*
X1800850Y2444000D2*
D20*
X1985850Y2259000D1*
Y1894000D1*
X1955850Y1864000D1*
X1890850D1*
X1550850Y1524000D1*
X1358823D1*
X1335850Y1546972D1*
X500850Y2744000D2*
D13*
X594850Y2838000D1*
X869850D1*
X915850Y2884000D1*
Y2909000D1*
X600850Y2144000D2*
D18*
Y2024000D1*
X2170850Y1574000D2*
D21*
Y1514472D1*
D20*
X2150850D1*
Y1189000D1*
X2625850Y2344000D2*
X2680850D1*
X2710850Y2314000D1*
Y2159000D1*
X2665850Y2114000D1*
X2470850D1*
X2430850Y2074000D1*
Y1654000D1*
X2365850Y1589000D1*
X2185850D1*
D21*
X2170850Y1574000D1*
D22*
X2863350Y1131000D3*
D13*
X2107850Y2811000D3*
D55*
X2959906Y590850D3*
X597701D3*
Y2953055D3*
X2959906D3*
D13*
X1910850Y1295417D3*
X2075850Y1486992D3*
X1954157Y2887000D3*
D22*
X1265850Y2289000D3*
X1260850Y2639000D3*
D13*
X755850Y2569000D3*
X516617Y3062537D2*
D30*
X3027243D1*
X489664Y3037668D2*
X528024D1*
X667399D2*
X1114743D1*
X1186929D2*
X1214743D1*
X1286929D2*
X1314743D1*
X1386929D2*
X1414743D1*
X1486929D2*
X1514743D1*
X1586929D2*
X1614743D1*
X1686929D2*
X1714743D1*
X1908415D2*
X2890133D1*
X3029508D2*
X3053804D1*
X473648Y3012799D2*
X505367D1*
X690055D2*
X1096773D1*
X1908415D2*
X2867476D1*
X3052555D2*
X3069820D1*
X464273Y2987930D2*
X492867D1*
X702555D2*
X1093648D1*
X1908415D2*
X2855367D1*
X3064664D2*
X3079196D1*
X459976Y2963062D2*
X487789D1*
X707633D2*
X758492D1*
X873257D2*
X903024D1*
X928727D2*
X1003024D1*
X1028727D2*
X1103024D1*
X1908415D2*
X2179976D1*
X2471696D2*
X2849899D1*
X3070133D2*
X3083492D1*
X459196Y2938193D2*
X488180D1*
X707243D2*
X758492D1*
X1065055D2*
X1160445D1*
X1839273D2*
X2169039D1*
X2482633D2*
X2850289D1*
X3069352D2*
X3085055D1*
X459196Y2913324D2*
X494820D1*
X700601D2*
X758492D1*
X1073257D2*
X1185445D1*
X1814273D2*
X1914352D1*
X1993961D2*
X2165915D1*
X2481071D2*
X2856929D1*
X3062711D2*
X3085055D1*
X459196Y2888455D2*
X508492D1*
X686929D2*
X758492D1*
X1069352D2*
X1210055D1*
X1789664D2*
X1906148D1*
X2004508D2*
X2140915D1*
X2465445D2*
X2870992D1*
X3049039D2*
X3085055D1*
X459196Y2863587D2*
X534664D1*
X959196D2*
X982320D1*
X1049429D2*
X1235055D1*
X1764664D2*
X1912789D1*
X2029508D2*
X2116304D1*
X2471304D2*
X2896773D1*
X3022867D2*
X3085055D1*
X459196Y2838718D2*
X528804D1*
X937320D2*
X1260055D1*
X1739664D2*
X1938180D1*
X2054117D2*
X2069429D1*
X2482633D2*
X3085055D1*
X459196Y2813849D2*
X503804D1*
X912711D2*
X1045211D1*
X1272476D2*
X1285119D1*
X1715055D2*
X1962789D1*
X2155680D2*
X2170601D1*
X2481071D2*
X3085055D1*
X937320Y2788980D2*
X964352D1*
X1737320D2*
X1764352D1*
X1837320D2*
X1987789D1*
X2150211D2*
X2185445D1*
X2466227D2*
X3085055D1*
X1856071Y2764112D2*
X2008883D1*
X2092789D2*
X2181148D1*
X2470915D2*
X3085055D1*
X1859585Y2739243D2*
X2008883D1*
X2092789D2*
X2169429D1*
X2482243D2*
X3085055D1*
X1873648Y2714374D2*
X2008883D1*
X2092789D2*
X2170211D1*
X2481461D2*
X3085055D1*
X459196Y2689505D2*
X483492D1*
X518180D2*
X564743D1*
X636929D2*
X683492D1*
X718180D2*
X764743D1*
X1877945D2*
X2008883D1*
X2092789D2*
X2185055D1*
X2466617D2*
X3085055D1*
X459196Y2664636D2*
X545601D1*
X656071D2*
X745601D1*
X1877945D2*
X2008883D1*
X2092789D2*
X2181539D1*
X2470133D2*
X3085055D1*
X459196Y2639768D2*
X542085D1*
X659585D2*
X742085D1*
X1877945D2*
X2008883D1*
X2092789D2*
X2169429D1*
X2482243D2*
X3085055D1*
X459196Y2614899D2*
X549899D1*
X651773D2*
X749899D1*
X1877945D2*
X2008883D1*
X2092789D2*
X2170211D1*
X2481461D2*
X3085055D1*
X459196Y2590030D2*
X581539D1*
X620133D2*
X713180D1*
X1877945D2*
X2008883D1*
X2092789D2*
X2184664D1*
X2467008D2*
X3085055D1*
X459196Y2565161D2*
X707711D1*
X1865836D2*
X2008883D1*
X2092789D2*
X2181929D1*
X2469743D2*
X3085055D1*
X459196Y2540293D2*
X683101D1*
X1759585D2*
X2008883D1*
X2092789D2*
X2169429D1*
X2482243D2*
X3085055D1*
X459196Y2515424D2*
X669039D1*
X1752164D2*
X2008883D1*
X2092789D2*
X2170211D1*
X2481852D2*
X3085055D1*
X459196Y2490555D2*
X669039D1*
X1735367D2*
X1766304D1*
X1835367D2*
X2008883D1*
X2092789D2*
X2183883D1*
X2467789D2*
X2588571D1*
X2663101D2*
X2788571D1*
X2863101D2*
X2888571D1*
X2963101D2*
X2988571D1*
X3063101D2*
X3085055D1*
X459196Y2465686D2*
X669039D1*
X1855680D2*
X2008883D1*
X2092789D2*
X2182320D1*
X2469352D2*
X2569429D1*
X2682243D2*
X2769429D1*
X459196Y2440818D2*
X669039D1*
X1859585D2*
X2008883D1*
X2092789D2*
X2169429D1*
X2482243D2*
X2565524D1*
X2686539D2*
X2765524D1*
X459196Y2415949D2*
X669039D1*
X1852555D2*
X2008883D1*
X2092789D2*
X2169820D1*
X2481852D2*
X2572555D1*
X2679117D2*
X2772555D1*
X459196Y2391080D2*
X669039D1*
X1722867D2*
X1769820D1*
X1831852D2*
X2008883D1*
X2092789D2*
X2183492D1*
X2468180D2*
X2589352D1*
X2712711D2*
X2790524D1*
X2861539D2*
X2899508D1*
X2952164D2*
X2999508D1*
X3052164D2*
X3085055D1*
X459196Y2366211D2*
X669039D1*
X1683024D2*
X1747945D1*
X1853727D2*
X2008883D1*
X2092789D2*
X2182711D1*
X2468961D2*
X2569820D1*
X2739664D2*
X2790524D1*
X2861539D2*
X3085055D1*
X459196Y2341343D2*
X669039D1*
X1683024D2*
X1743257D1*
X1858415D2*
X2008883D1*
X2092789D2*
X2169820D1*
X2481852D2*
X2565133D1*
X2761539D2*
X2790524D1*
X2861539D2*
X3085055D1*
X459196Y2316474D2*
X669039D1*
X1683024D2*
X1750680D1*
X1850992D2*
X2008883D1*
X2092789D2*
X2169820D1*
X2481852D2*
X2572164D1*
X2768961D2*
X2790524D1*
X2861539D2*
X3085055D1*
X459196Y2291605D2*
X669039D1*
X1683024D2*
X1781539D1*
X1820133D2*
X2008883D1*
X2092789D2*
X2183101D1*
X2468571D2*
X2590133D1*
X2768961D2*
X2790524D1*
X2861539D2*
X3085055D1*
X459196Y2266736D2*
X669039D1*
X1683024D2*
X2008883D1*
X2092789D2*
X2168257D1*
X2468571D2*
X2569820D1*
X2768961D2*
X2790524D1*
X2861539D2*
X3085055D1*
X459196Y2241867D2*
X669039D1*
X1683024D2*
X2008883D1*
X2092789D2*
X2168257D1*
X2481852D2*
X2565133D1*
X2768961D2*
X2790524D1*
X2861539D2*
X2890524D1*
X2961148D2*
X2990524D1*
X3061148D2*
X3085055D1*
X459196Y2216999D2*
X669039D1*
X1930289D2*
X2008883D1*
X2092789D2*
X2168257D1*
X2482243D2*
X2571773D1*
X533024Y2192130D2*
X568648D1*
X633024D2*
X668648D1*
X1933024D2*
X2008883D1*
X2092789D2*
X2168257D1*
X2469352D2*
X2597164D1*
X1933024Y2167261D2*
X2008883D1*
X2092789D2*
X2278024D1*
X2374039D2*
X2452633D1*
X1933024Y2142392D2*
X2008883D1*
X2092789D2*
X2278024D1*
X2374039D2*
X2418257D1*
X2766227D2*
X2790524D1*
X2861539D2*
X2896773D1*
X2954899D2*
X2996773D1*
X3054899D2*
X3085055D1*
X1933024Y2117524D2*
X2008883D1*
X2092789D2*
X2278024D1*
X2374039D2*
X2393257D1*
X2750211D2*
X2790524D1*
X2861539D2*
X3085055D1*
X459196Y2092655D2*
X474736D1*
X526773D2*
X569039D1*
X1933024D2*
X2008883D1*
X2092789D2*
X2278024D1*
X2725601D2*
X2790524D1*
X2861539D2*
X3085055D1*
X459196Y2067786D2*
X543257D1*
X1936539D2*
X2008883D1*
X2092789D2*
X2278024D1*
X2699039D2*
X2790524D1*
X2861539D2*
X3085055D1*
X459196Y2042917D2*
X543257D1*
X1954899D2*
X2008883D1*
X2092789D2*
X2278024D1*
X2488883D2*
X2790524D1*
X2861539D2*
X3085055D1*
X459196Y2018049D2*
X543257D1*
X1958024D2*
X2008883D1*
X2092789D2*
X2278024D1*
X2488883D2*
X2790524D1*
X2861539D2*
X3085055D1*
X459196Y1993180D2*
X543257D1*
X1949039D2*
X2008883D1*
X2092789D2*
X2278024D1*
X2488883D2*
X2790524D1*
X2861539D2*
X2892476D1*
X2959196D2*
X2992476D1*
X3059196D2*
X3085055D1*
X459196Y1968311D2*
X1012008D1*
X1375992D2*
X2008883D1*
X2092789D2*
X2278024D1*
X2488883D2*
X2770601D1*
X459196Y1943442D2*
X1012008D1*
X1375992D2*
X2008883D1*
X2092789D2*
X2278024D1*
X2488883D2*
X2765133D1*
X459196Y1918573D2*
X1012008D1*
X1375992D2*
X2008883D1*
X2092789D2*
X2113180D1*
X2228336D2*
X2278024D1*
X2488883D2*
X2770992D1*
X459196Y1893705D2*
X1012008D1*
X1375992D2*
X1750289D1*
X1795524D2*
X2008883D1*
X2092789D2*
X2113180D1*
X2228336D2*
X2278024D1*
X2488883D2*
X2790524D1*
X2861539D2*
X2894429D1*
X2957243D2*
X2994429D1*
X3057243D2*
X3085055D1*
X459196Y1868836D2*
X1012008D1*
X1375992D2*
X1721773D1*
X1824039D2*
X2008883D1*
X2092789D2*
X2113180D1*
X2228336D2*
X2278024D1*
X2488883D2*
X2790524D1*
X2861539D2*
X3085055D1*
X459196Y1843967D2*
X1012008D1*
X1375992D2*
X1714743D1*
X1830680D2*
X2007711D1*
X2092789D2*
X2113180D1*
X2228336D2*
X2278024D1*
X2488883D2*
X2790524D1*
X2861539D2*
X3085055D1*
X459196Y1819098D2*
X1012008D1*
X1375992D2*
X1719820D1*
X1825992D2*
X1982711D1*
X2091227D2*
X2113180D1*
X2228336D2*
X2278024D1*
X2488883D2*
X2790524D1*
X2861539D2*
X3085055D1*
X459196Y1794230D2*
X1012008D1*
X1375992D2*
X1742085D1*
X1803727D2*
X1958101D1*
X2074039D2*
X2117085D1*
X2224429D2*
X2278024D1*
X2488883D2*
X2790524D1*
X2861539D2*
X3085055D1*
X459196Y1769361D2*
X1014743D1*
X1375992D2*
X1933101D1*
X2049429D2*
X2113571D1*
X2228336D2*
X2278024D1*
X2488883D2*
X2790524D1*
X2861539D2*
X3085055D1*
X459196Y1744492D2*
X1041304D1*
X1374820D2*
X1908101D1*
X2024429D2*
X2121773D1*
X2219743D2*
X2274508D1*
X2488883D2*
X2790524D1*
X2861539D2*
X2894429D1*
X2957243D2*
X2994429D1*
X3057243D2*
X3085055D1*
X459196Y1719623D2*
X791304D1*
X1355680D2*
X1883492D1*
X1999429D2*
X2137399D1*
X2488883D2*
X2771383D1*
X459196Y1694755D2*
X779196D1*
X1330680D2*
X1858492D1*
X1974820D2*
X2089743D1*
X2358415D2*
X2372945D1*
X2488883D2*
X2765133D1*
X459196Y1669886D2*
X779976D1*
X1317789D2*
X1833492D1*
X1949820D2*
X2064743D1*
X2333415D2*
X2365915D1*
X2488883D2*
X2770601D1*
X459196Y1645017D2*
X512789D1*
X558804D2*
X612789D1*
X658804D2*
X712789D1*
X758804D2*
X794429D1*
X1358804D2*
X1808883D1*
X1924820D2*
X2040133D1*
X2306852D2*
X2340915D1*
X2488101D2*
X2790524D1*
X2861539D2*
X2892085D1*
X2959585D2*
X2992085D1*
X3059585D2*
X3085055D1*
X459196Y1620148D2*
X485055D1*
X1386929D2*
X1727243D1*
X1900211D2*
X2015133D1*
X2477164D2*
X2790524D1*
X2861539D2*
X3085055D1*
X459196Y1595280D2*
X478613D1*
X1393180D2*
X1715133D1*
X1875211D2*
X1990133D1*
X2452945D2*
X2790524D1*
X2861539D2*
X3085055D1*
X459196Y1570411D2*
X483492D1*
X1388101D2*
X1690524D1*
X1850211D2*
X1978415D1*
X2428336D2*
X2790524D1*
X2861539D2*
X3085055D1*
X459196Y1545542D2*
X507320D1*
X564273D2*
X607320D1*
X664273D2*
X707320D1*
X764273D2*
X807320D1*
X864273D2*
X907320D1*
X1364273D2*
X1665524D1*
X1812711D2*
X1978024D1*
X2402945D2*
X2790524D1*
X2861539D2*
X3085055D1*
X459196Y1520673D2*
X895601D1*
X1029508D2*
X1058883D1*
X1317789D2*
X1640524D1*
X1774429D2*
X1978024D1*
X2228336D2*
X2790524D1*
X2861539D2*
X3085055D1*
X459196Y1495804D2*
X870992D1*
X1004508D2*
X1058883D1*
X1317789D2*
X1615915D1*
X1749429D2*
X1978024D1*
X2225601D2*
X2790524D1*
X2861539D2*
X2897164D1*
X2954508D2*
X2997164D1*
X3054508D2*
X3085055D1*
X459196Y1470936D2*
X845992D1*
X979508D2*
X1058883D1*
X1317789D2*
X1590915D1*
X1724820D2*
X1978024D1*
X2208804D2*
X2771773D1*
X459196Y1446067D2*
X820992D1*
X954899D2*
X1058883D1*
X1317789D2*
X1565915D1*
X1699820D2*
X1978024D1*
X2208804D2*
X2765133D1*
X459196Y1421198D2*
X796383D1*
X929899D2*
X1058883D1*
X1317789D2*
X1541304D1*
X1674820D2*
X1978024D1*
X2074039D2*
X2092867D1*
X2208804D2*
X2769820D1*
X459196Y1396329D2*
X771383D1*
X904899D2*
X1058883D1*
X1317789D2*
X1516304D1*
X1650211D2*
X1978024D1*
X2074039D2*
X2092867D1*
X2208804D2*
X2790133D1*
X2861539D2*
X2890133D1*
X2961539D2*
X2990133D1*
X3061539D2*
X3085055D1*
X459196Y1371461D2*
X746383D1*
X880289D2*
X1058883D1*
X1317789D2*
X1491304D1*
X1625211D2*
X1978024D1*
X2074039D2*
X2092867D1*
X2208804D2*
X3085055D1*
X459196Y1346592D2*
X721773D1*
X855289D2*
X1058883D1*
X1317789D2*
X1466696D1*
X1600211D2*
X1978024D1*
X2074039D2*
X2092867D1*
X2208804D2*
X3085055D1*
X459196Y1321723D2*
X696773D1*
X830289D2*
X1058883D1*
X1317789D2*
X1441696D1*
X1575601D2*
X1978024D1*
X2074039D2*
X2092867D1*
X2208804D2*
X3085055D1*
X459196Y1296854D2*
X671773D1*
X805680D2*
X1058883D1*
X1317789D2*
X1416696D1*
X1550601D2*
X1978024D1*
X2074039D2*
X2092867D1*
X2208804D2*
X3085055D1*
X459196Y1271986D2*
X647164D1*
X780680D2*
X1058883D1*
X1317789D2*
X1403415D1*
X1525601D2*
X1978024D1*
X2074039D2*
X2092867D1*
X2208804D2*
X3085055D1*
X459196Y1247117D2*
X622164D1*
X755680D2*
X1058883D1*
X1317789D2*
X1403024D1*
X1500992D2*
X1978024D1*
X2074039D2*
X2092867D1*
X2208804D2*
X3085055D1*
X459196Y1222248D2*
X597164D1*
X731071D2*
X1058883D1*
X1317789D2*
X1403024D1*
X1499039D2*
X1978024D1*
X2074039D2*
X2092867D1*
X2208804D2*
X3085055D1*
X459196Y1197379D2*
X572555D1*
X706071D2*
X1058883D1*
X1317789D2*
X1403024D1*
X1499039D2*
X1978024D1*
X2074039D2*
X2091150D1*
X2210757D2*
X3085055D1*
X459196Y1172510D2*
X547945D1*
X681071D2*
X1058883D1*
X1317789D2*
X1403024D1*
X1499039D2*
X1978024D1*
X2074039D2*
X2092476D1*
X2209196D2*
X2341696D1*
X2894743D2*
X3085055D1*
X459196Y1147642D2*
X538571D1*
X656461D2*
X1058883D1*
X1317789D2*
X1403024D1*
X1499039D2*
X1978024D1*
X2074039D2*
X2107711D1*
X2193961D2*
X2312789D1*
X2913492D2*
X3085055D1*
X459196Y1122773D2*
X538180D1*
X634196D2*
X1058883D1*
X1317789D2*
X1403024D1*
X1499039D2*
X1978024D1*
X2083804D2*
X2101071D1*
X2200601D2*
X2287789D1*
X2915836D2*
X3085055D1*
X459196Y1097904D2*
X538180D1*
X634196D2*
X1058883D1*
X1317789D2*
X1403024D1*
X1499039D2*
X1980757D1*
X2210757D2*
X2262789D1*
X2904117D2*
X3085055D1*
X459196Y1073035D2*
X538180D1*
X634196D2*
X1058883D1*
X1317789D2*
X1403024D1*
X1499039D2*
X1999899D1*
X2209196D2*
X2238180D1*
X2518571D2*
X3085055D1*
X459196Y1048167D2*
X538180D1*
X634196D2*
X1055757D1*
X1317789D2*
X1403024D1*
X1499039D2*
X2024899D1*
X2194743D2*
X2213180D1*
X2541227D2*
X3085055D1*
X459196Y1023298D2*
X538180D1*
X634196D2*
X694820D1*
X776773D2*
X794820D1*
X876773D2*
X894820D1*
X976773D2*
X994820D1*
X1315836D2*
X1403024D1*
X1499039D2*
X2049899D1*
X2322085D2*
X2340356D1*
X2553727D2*
X3085055D1*
X459196Y998429D2*
X538180D1*
X634196D2*
X680367D1*
X1294352D2*
X1403024D1*
X1499039D2*
X2074508D1*
X2297085D2*
X2334273D1*
X2559196D2*
X3085055D1*
X459196Y973560D2*
X538180D1*
X634196D2*
X679196D1*
X1292399D2*
X1403024D1*
X1499039D2*
X2092476D1*
X2272085D2*
X2334664D1*
X2559196D2*
X2594039D1*
X2669743D2*
X3085055D1*
X459196Y948692D2*
X538180D1*
X634196D2*
X691304D1*
X1280680D2*
X1403024D1*
X1499039D2*
X2106539D1*
X2244352D2*
X2340524D1*
X2710757D2*
X3085055D1*
X459196Y923823D2*
X538180D1*
X634196D2*
X1003804D1*
X1167789D2*
X1403024D1*
X1499039D2*
X2353804D1*
X2730289D2*
X3085055D1*
X459196Y898954D2*
X538571D1*
X881461D2*
X1003804D1*
X1167789D2*
X1403024D1*
X1499039D2*
X2377633D1*
X2740836D2*
X3085055D1*
X459196Y874085D2*
X549117D1*
X922476D2*
X1003804D1*
X1167789D2*
X1403024D1*
X1499039D2*
X2519039D1*
X2744743D2*
X3085055D1*
X459196Y849217D2*
X573727D1*
X947476D2*
X1003804D1*
X1167789D2*
X1403024D1*
X1499039D2*
X2394039D1*
X2499429D2*
X2520601D1*
X2743180D2*
X3085055D1*
X459196Y824348D2*
X598727D1*
X1184196D2*
X1403024D1*
X1499039D2*
X2362008D1*
X2735367D2*
X3085055D1*
X459196Y799479D2*
X778415D1*
X1193180D2*
X1403024D1*
X1499039D2*
X2131148D1*
X2170524D2*
X2345211D1*
X2720524D2*
X3085055D1*
X459196Y774610D2*
X781929D1*
X1189664D2*
X1403024D1*
X1499039D2*
X2099117D1*
X2202555D2*
X2336617D1*
X2557243D2*
X2571773D1*
X2692008D2*
X3085055D1*
X459196Y749741D2*
X800680D1*
X870915D2*
X900680D1*
X970915D2*
X1000680D1*
X1070915D2*
X1100680D1*
X1170915D2*
X1403024D1*
X1499039D2*
X2090524D1*
X2211148D2*
X2333883D1*
X2559976D2*
X3085055D1*
X459196Y724873D2*
X1403024D1*
X1499039D2*
X2093648D1*
X2208024D2*
X2337008D1*
X2556852D2*
X3085055D1*
X459196Y700004D2*
X1403024D1*
X1499039D2*
X2110445D1*
X2191227D2*
X2346383D1*
X2547476D2*
X3085055D1*
X459196Y675135D2*
X527633D1*
X667789D2*
X1403024D1*
X1499039D2*
X2099117D1*
X2202555D2*
X2363961D1*
X2529899D2*
X2889743D1*
X3029899D2*
X3085055D1*
X459196Y650266D2*
X504976D1*
X690445D2*
X1403024D1*
X1499039D2*
X2090524D1*
X2211148D2*
X2398336D1*
X2495133D2*
X2867085D1*
X3052555D2*
X3085055D1*
X459196Y625398D2*
X492867D1*
X702555D2*
X1103024D1*
X1508415D2*
X2093257D1*
X2208415D2*
X2854976D1*
X3064664D2*
X3085055D1*
X459196Y600529D2*
X487789D1*
X707633D2*
X1093648D1*
X1508415D2*
X2109664D1*
X2192008D2*
X2849899D1*
X3070133D2*
X3085055D1*
X460757Y575660D2*
X488180D1*
X707243D2*
X1096383D1*
X1508415D2*
X2099508D1*
X2202164D2*
X2850289D1*
X3069352D2*
X3083101D1*
X465836Y550791D2*
X494820D1*
X700601D2*
X1114352D1*
X1187320D2*
X1214352D1*
X1287320D2*
X1314352D1*
X1508415D2*
X2090524D1*
X2211148D2*
X2856929D1*
X3062711D2*
X3078003D1*
X476383Y525923D2*
X508883D1*
X686539D2*
X1103415D1*
X1508415D2*
X2093257D1*
X2208415D2*
X2870992D1*
X3048648D2*
X3067085D1*
X494352Y501054D2*
X535055D1*
X660367D2*
X1093648D1*
X1508415D2*
X2109273D1*
X2192399D2*
X2897555D1*
X3022476D2*
X3049508D1*
X524039Y476185D2*
X1096383D1*
X1508415D2*
X3019039D1*
X2207610Y1176596D2*
X2203654Y1164764D1*
X2197262Y1154050D1*
X2188731Y1144948D1*
X2180583Y1138916D1*
X2190554Y1131417D1*
X2198694Y1121963D1*
X2204629Y1110990D1*
X2208083Y1099001D1*
X2208896Y1086501D1*
X2207025Y1074167D1*
X2202563Y1062516D1*
X2195717Y1052085D1*
X2186801Y1043358D1*
X2180423Y1038995D1*
X2187039Y1034400D1*
X2202022Y1034500D1*
X2330677Y1163173D1*
X2340612Y1170696D1*
X2352601Y1175278D1*
X2362850Y1176500D1*
X2841366D1*
X2850517Y1179843D1*
X2862875Y1181497D1*
X2875261Y1180075D1*
X2886923Y1175661D1*
X2897146Y1168525D1*
X2905310Y1159101D1*
X2910916Y1147965D1*
X2913850Y1131000D1*
X2912311Y1118627D1*
X2907787Y1107009D1*
X2900555Y1096853D1*
X2891055Y1088778D1*
X2879866Y1083277D1*
X2867671Y1080685D1*
X2855211Y1081160D1*
X2841571Y1085664D1*
X2496554Y1085500D1*
X2509640Y1077927D1*
X2519503Y1070259D1*
X2528436Y1061525D1*
X2536327Y1051839D1*
X2543075Y1041324D1*
X2548592Y1030115D1*
X2552808Y1018356D1*
X2555671Y1006194D1*
X2557350Y987000D1*
X2556644Y974526D1*
X2554534Y962213D1*
X2551049Y950215D1*
X2546381Y939049D1*
X2560041Y952843D1*
X2574181Y963123D1*
X2589764Y971045D1*
X2606403Y976411D1*
X2623678Y979084D1*
X2641160Y979000D1*
X2658409Y976160D1*
X2674995Y970635D1*
X2690501Y962564D1*
X2704542Y952148D1*
X2716764Y939648D1*
X2726861Y925377D1*
X2734580Y909693D1*
X2739731Y892987D1*
X2742181Y875677D1*
X2741937Y858903D1*
X2738986Y841673D1*
X2733353Y825123D1*
X2725181Y809669D1*
X2714673Y795698D1*
X2702094Y783558D1*
X2687759Y773554D1*
X2672024Y765936D1*
X2655285Y760895D1*
X2637959Y758556D1*
X2620483Y758980D1*
X2603293Y762155D1*
X2586816Y768000D1*
X2571470Y776371D1*
X2557635Y787058D1*
X2546203Y799129D1*
X2552072Y784524D1*
X2556077Y767507D1*
X2557350Y750780D1*
X2555967Y733353D1*
X2551853Y716362D1*
X2545112Y700232D1*
X2535909Y685369D1*
X2524479Y672142D1*
X2511106Y660883D1*
X2496125Y651874D1*
X2479909Y645341D1*
X2462866Y641446D1*
X2445424Y640289D1*
X2428016Y641896D1*
X2411080Y646230D1*
X2395038Y653180D1*
X2380294Y662572D1*
X2367217Y674172D1*
X2356131Y687690D1*
X2347316Y702787D1*
X2340993Y719085D1*
X2337320Y736176D1*
X2336387Y753634D1*
X2338219Y771018D1*
X2342772Y787898D1*
X2349928Y803848D1*
X2359509Y818469D1*
X2371278Y831396D1*
X2384938Y842306D1*
X2400147Y850925D1*
X2416525Y857037D1*
X2433663Y860490D1*
X2451130Y861197D1*
X2468491Y859140D1*
X2485310Y854371D1*
X2501165Y847009D1*
X2515661Y837239D1*
X2528436Y825304D1*
X2532356Y820898D1*
X2526033Y837196D1*
X2522360Y854286D1*
X2521427Y871744D1*
X2523259Y889129D1*
X2527811Y906008D1*
X2532497Y917167D1*
X2524479Y908362D1*
X2515106Y900101D1*
X2504861Y892953D1*
X2493874Y887005D1*
X2482286Y882336D1*
X2470245Y879005D1*
X2457906Y877054D1*
X2445424Y876509D1*
X2432961Y877377D1*
X2420675Y879646D1*
X2408723Y883286D1*
X2397260Y888253D1*
X2386430Y894482D1*
X2376373Y901894D1*
X2367217Y910392D1*
X2359077Y919871D1*
X2352062Y930209D1*
X2346256Y941272D1*
X2341738Y952919D1*
X2338562Y965003D1*
X2336772Y977366D1*
X2336387Y989854D1*
X2337416Y1002304D1*
X2339843Y1014560D1*
X2343638Y1026463D1*
X2348752Y1037862D1*
X2355119Y1048610D1*
X2362661Y1058571D1*
X2371278Y1067617D1*
X2380861Y1075633D1*
X2397205Y1085522D1*
X2381710Y1085500D1*
X2253024Y956827D1*
X2243089Y949304D1*
X2231100Y944722D1*
X2220850Y943500D1*
X2186866D1*
X2178453Y937875D1*
X2166902Y933161D1*
X2154610Y931022D1*
X2142146Y931556D1*
X2130083Y934739D1*
X2118978Y940424D1*
X2109341Y948348D1*
X2101619Y958147D1*
X2096168Y969369D1*
X2093211Y982664D1*
X2039127Y1036377D1*
X1993677Y1081827D1*
X1986155Y1091761D1*
X1981572Y1103751D1*
X1980350Y1114000D1*
Y1564000D1*
X1982056Y1576344D1*
X1987294Y1588062D1*
X1993677Y1596173D1*
X2103677Y1706173D1*
X2113612Y1713696D1*
X2125601Y1718278D1*
X2135850Y1719500D1*
X2140147D1*
X2145751Y1725030D1*
X2135367Y1731941D1*
X2126807Y1741012D1*
X2120509Y1751780D1*
X2116798Y1763688D1*
X2115864Y1776125D1*
X2117755Y1788454D1*
X2122374Y1800041D1*
X2129484Y1810289D1*
X2139060Y1818864D1*
X2115823Y1818972D1*
Y1929028D1*
X2225878D1*
Y1818972D1*
X2202518D1*
X2207932Y1814657D1*
X2216135Y1805262D1*
X2222012Y1794260D1*
X2225261Y1782218D1*
X2225878Y1774000D1*
X2224465Y1761608D1*
X2220297Y1749852D1*
X2213587Y1739336D1*
X2203020Y1729585D1*
X2261710Y1729500D1*
X2280441Y1747938D1*
X2280350Y2173921D1*
X2170823Y2173972D1*
Y2284028D1*
X2193870D1*
X2181807Y2296012D1*
X2175509Y2306780D1*
X2171798Y2318688D1*
X2170864Y2331125D1*
X2172755Y2343454D1*
X2177374Y2355041D1*
X2184484Y2365289D1*
X2193719Y2373673D1*
X2202904Y2378810D1*
X2190367Y2386941D1*
X2181807Y2396012D1*
X2175509Y2406780D1*
X2171798Y2418688D1*
X2170864Y2431125D1*
X2172755Y2443454D1*
X2177374Y2455041D1*
X2184484Y2465289D1*
X2193719Y2473673D1*
X2202904Y2478810D1*
X2190367Y2486941D1*
X2181807Y2496012D1*
X2175509Y2506780D1*
X2171798Y2518688D1*
X2170864Y2531125D1*
X2172755Y2543454D1*
X2177374Y2555041D1*
X2184484Y2565289D1*
X2193719Y2573673D1*
X2202904Y2578810D1*
X2190367Y2586941D1*
X2181807Y2596012D1*
X2175509Y2606780D1*
X2171798Y2618688D1*
X2170864Y2631125D1*
X2172755Y2643454D1*
X2177374Y2655041D1*
X2184484Y2665289D1*
X2193719Y2673673D1*
X2202904Y2678810D1*
X2190367Y2686941D1*
X2181807Y2696012D1*
X2175509Y2706780D1*
X2171798Y2718688D1*
X2170864Y2731125D1*
X2172755Y2743454D1*
X2177374Y2755041D1*
X2184484Y2765289D1*
X2193719Y2773673D1*
X2202904Y2778810D1*
X2190367Y2786941D1*
X2181807Y2796012D1*
X2175509Y2806780D1*
X2171798Y2818688D1*
X2171041Y2832281D1*
X2153073Y2814504D1*
X2151644Y2798656D1*
X2146654Y2787239D1*
X2138752Y2777604D1*
X2128534Y2770472D1*
X2116764Y2766382D1*
X2104325Y2765636D1*
X2090433Y2769210D1*
X2090130Y2646500D1*
Y1829000D1*
X2088157Y1816710D1*
X2082161Y1805382D1*
X2085172Y1809898D1*
X2078625Y1801226D1*
X1835672Y1558273D1*
X1825588Y1550976D1*
X1813337Y1547206D1*
X1796087Y1536144D1*
X1783088Y1532094D1*
X1496541Y1245344D1*
X1496350Y901500D1*
Y648765D1*
X1505878Y649028D1*
Y456449D1*
X2949890Y456500D1*
X2979080Y459366D1*
X3004301Y466991D1*
X3027480Y479367D1*
X3047799Y496030D1*
X3064478Y516335D1*
X3076874Y539504D1*
X3084513Y564647D1*
X3087409Y593951D1*
X3087406Y2949915D1*
X3084539Y2979080D1*
X3076915Y3004302D1*
X3064538Y3027480D1*
X3047877Y3047798D1*
X3027571Y3064478D1*
X3004403Y3076873D1*
X2979261Y3084510D1*
X2949954Y3087407D1*
X593743Y3087406D1*
X567588Y3085131D1*
X544848Y3079043D1*
X523669Y3069140D1*
X504531Y3055711D1*
X488017Y3039163D1*
X474627Y3019997D1*
X464769Y2998798D1*
X458741Y2976209D1*
X456507Y2950383D1*
X456501Y2778606D1*
X463278Y2786156D1*
X473450Y2793377D1*
X484961Y2798188D1*
X492255Y2799475D1*
X549055Y2856551D1*
X534223Y2865678D1*
X524558Y2873593D1*
X515871Y2882572D1*
X508278Y2892493D1*
X501883Y2903226D1*
X496770Y2914625D1*
X493007Y2926537D1*
X490646Y2938804D1*
X489715Y2951264D1*
X490231Y2963745D1*
X492185Y2976085D1*
X495550Y2988115D1*
X500282Y2999678D1*
X506319Y3010617D1*
X513577Y3020785D1*
X521962Y3030046D1*
X531360Y3038277D1*
X541644Y3045369D1*
X552681Y3051224D1*
X564319Y3055766D1*
X576403Y3058934D1*
X588773Y3060685D1*
X601262Y3060996D1*
X613703Y3059864D1*
X625930Y3057301D1*
X637781Y3053343D1*
X649094Y3048043D1*
X659719Y3041472D1*
X669516Y3033719D1*
X678350Y3024886D1*
X686106Y3015092D1*
X692678Y3004467D1*
X697980Y2993155D1*
X701940Y2981307D1*
X704505Y2969080D1*
X705701Y2953055D1*
X704978Y2940583D1*
X702820Y2928278D1*
X699256Y2916304D1*
X694332Y2904823D1*
X688115Y2893986D1*
X680423Y2883655D1*
X760866Y2883500D1*
X760823Y2964028D1*
X870878D1*
Y2940980D1*
X883719Y2953673D1*
X894606Y2959761D1*
X906584Y2963241D1*
X919037Y2963936D1*
X931328Y2961806D1*
X942823Y2956965D1*
X952932Y2949657D1*
X961135Y2940262D1*
X965727Y2931667D1*
X974484Y2945289D1*
X983719Y2953673D1*
X994606Y2959761D1*
X1006584Y2963241D1*
X1019037Y2963936D1*
X1031328Y2961806D1*
X1042823Y2956965D1*
X1052932Y2949657D1*
X1061135Y2940262D1*
X1067012Y2929260D1*
X1070261Y2917218D1*
X1070878Y2909000D1*
X1069465Y2896608D1*
X1065297Y2884852D1*
X1058587Y2874336D1*
X1049682Y2865601D1*
X1039039Y2859097D1*
X1027205Y2855156D1*
X1014787Y2853983D1*
X1002424Y2855635D1*
X990751Y2860030D1*
X980367Y2866941D1*
X971807Y2876012D1*
X965706Y2886442D1*
X960894Y2877950D1*
X959644Y2871656D1*
X954407Y2859938D1*
X948024Y2851827D1*
X897736Y2802113D1*
X897245Y2800354D1*
X909706Y2799772D1*
X921735Y2796466D1*
X932744Y2790601D1*
X942197Y2782461D1*
X950739Y2769950D1*
X954940Y2776879D1*
X963278Y2786156D1*
X973450Y2793377D1*
X984961Y2798188D1*
X997245Y2800354D1*
X1009706Y2799772D1*
X1021735Y2796466D1*
X1025520Y2794450D1*
X1038963Y2807832D1*
X1049768Y2814622D1*
X1059823Y2816472D1*
X1257878D1*
X1270319Y2813634D1*
X1278738Y2807832D1*
X1287853Y2798717D1*
X1297245Y2800354D1*
X1302307Y2800118D1*
X1292991Y2808140D1*
X1161236Y2939894D1*
X1149787Y2938983D1*
X1137424Y2940635D1*
X1125751Y2945030D1*
X1115367Y2951941D1*
X1106807Y2961012D1*
X1100509Y2971780D1*
X1096798Y2983688D1*
X1095864Y2996125D1*
X1097755Y3008454D1*
X1102374Y3020041D1*
X1109484Y3030289D1*
X1118719Y3038673D1*
X1129606Y3044761D1*
X1141584Y3048241D1*
X1154037Y3048936D1*
X1166328Y3046806D1*
X1177823Y3041965D1*
X1187932Y3034657D1*
X1196135Y3025262D1*
X1200727Y3016667D1*
X1209484Y3030289D1*
X1218719Y3038673D1*
X1229606Y3044761D1*
X1241584Y3048241D1*
X1254037Y3048936D1*
X1266328Y3046806D1*
X1277823Y3041965D1*
X1287932Y3034657D1*
X1296135Y3025262D1*
X1300727Y3016667D1*
X1309484Y3030289D1*
X1318719Y3038673D1*
X1329606Y3044761D1*
X1341584Y3048241D1*
X1354037Y3048936D1*
X1366328Y3046806D1*
X1377823Y3041965D1*
X1387932Y3034657D1*
X1396135Y3025262D1*
X1400727Y3016667D1*
X1409484Y3030289D1*
X1418719Y3038673D1*
X1429606Y3044761D1*
X1441584Y3048241D1*
X1454037Y3048936D1*
X1466328Y3046806D1*
X1477823Y3041965D1*
X1487932Y3034657D1*
X1496135Y3025262D1*
X1500727Y3016667D1*
X1509484Y3030289D1*
X1518719Y3038673D1*
X1529606Y3044761D1*
X1541584Y3048241D1*
X1554037Y3048936D1*
X1566328Y3046806D1*
X1577823Y3041965D1*
X1587932Y3034657D1*
X1596135Y3025262D1*
X1600727Y3016667D1*
X1609484Y3030289D1*
X1618719Y3038673D1*
X1629606Y3044761D1*
X1641584Y3048241D1*
X1654037Y3048936D1*
X1666328Y3046806D1*
X1677823Y3041965D1*
X1687932Y3034657D1*
X1696135Y3025262D1*
X1700727Y3016667D1*
X1709484Y3030289D1*
X1718719Y3038673D1*
X1729606Y3044761D1*
X1741584Y3048241D1*
X1754037Y3048936D1*
X1766328Y3046806D1*
X1777823Y3041965D1*
X1787932Y3034657D1*
X1795823Y3026472D1*
Y3049028D1*
X1905878D1*
Y2938972D1*
X1837518D1*
X1699076Y2800507D1*
X1709706Y2799772D1*
X1721735Y2796466D1*
X1732744Y2790601D1*
X1742197Y2782461D1*
X1750739Y2769950D1*
X1754940Y2776879D1*
X1763278Y2786156D1*
X1773450Y2793377D1*
X1784961Y2798188D1*
X1797245Y2800354D1*
X1809706Y2799772D1*
X1821735Y2796466D1*
X1832744Y2790601D1*
X1842197Y2782461D1*
X1849633Y2772445D1*
X1854688Y2761041D1*
X1857320Y2744000D1*
X1855815Y2731234D1*
X1866682Y2719887D1*
X1873472Y2709083D1*
X1875323Y2699028D1*
X1875096Y2585348D1*
X1871005Y2573635D1*
X1862461Y2564639D1*
X1850974Y2559953D1*
X1820823Y2559500D1*
X1754807D1*
X1757320Y2544000D1*
X1755942Y2531602D1*
X1751877Y2519808D1*
X1745320Y2509196D1*
X1736593Y2500282D1*
X1727105Y2494136D1*
X1732744Y2490601D1*
X1742197Y2482461D1*
X1750739Y2469950D1*
X1756440Y2478878D1*
X1765181Y2487778D1*
X1775663Y2494542D1*
X1787374Y2498839D1*
X1799743Y2500459D1*
X1812165Y2499324D1*
X1824037Y2495491D1*
X1834776Y2489143D1*
X1843860Y2480593D1*
X1850844Y2470259D1*
X1855390Y2458642D1*
X1857273Y2446310D1*
X1856437Y2434052D1*
X1852896Y2422091D1*
X1846816Y2411198D1*
X1838493Y2401907D1*
X1828333Y2394669D1*
X1825487Y2393201D1*
X1837932Y2384657D1*
X1846135Y2375262D1*
X1852012Y2364260D1*
X1855261Y2352218D1*
X1855878Y2344000D1*
X1854465Y2331608D1*
X1850297Y2319852D1*
X1843587Y2309336D1*
X1834682Y2300601D1*
X1824039Y2294097D1*
X1812205Y2290156D1*
X1799787Y2288983D1*
X1787424Y2290635D1*
X1775751Y2295030D1*
X1765367Y2301941D1*
X1756807Y2311012D1*
X1750509Y2321780D1*
X1746798Y2333688D1*
X1745864Y2346125D1*
X1747755Y2358454D1*
X1752374Y2370041D1*
X1759484Y2380289D1*
X1768719Y2388673D1*
X1776545Y2393049D1*
X1767001Y2398799D1*
X1757903Y2407335D1*
X1750866Y2417728D1*
X1745320Y2409196D1*
X1736593Y2400282D1*
X1726123Y2393501D1*
X1714419Y2389185D1*
X1702052Y2387543D1*
X1689629Y2388656D1*
X1680349Y2391636D1*
X1680350Y2234703D1*
X1900850Y2234500D1*
X1912980Y2231891D1*
X1922963Y2224526D1*
X1929071Y2213320D1*
X1930350Y2205000D1*
Y2070235D1*
X1937932Y2064657D1*
X1946135Y2055262D1*
X1952012Y2044260D1*
X1955261Y2032218D1*
X1955878Y2024000D1*
X1954465Y2011608D1*
X1950297Y1999852D1*
X1943587Y1989336D1*
X1934682Y1980601D1*
X1924039Y1974097D1*
X1912205Y1970156D1*
X1899787Y1968983D1*
X1887424Y1970635D1*
X1875751Y1975030D1*
X1865367Y1981941D1*
X1856807Y1991012D1*
X1850706Y2001442D1*
X1843587Y1989336D1*
X1834682Y1980601D1*
X1824039Y1974097D1*
X1812205Y1970156D1*
X1799787Y1968983D1*
X1787424Y1970635D1*
X1775751Y1975030D1*
X1765367Y1981941D1*
X1756807Y1991012D1*
X1750706Y2001442D1*
X1743587Y1989336D1*
X1734682Y1980601D1*
X1724039Y1974097D1*
X1712205Y1970156D1*
X1699787Y1968983D1*
X1687424Y1970635D1*
X1675751Y1975030D1*
X1665367Y1981941D1*
X1656807Y1991012D1*
X1650706Y2001442D1*
X1643587Y1989336D1*
X1634682Y1980601D1*
X1624039Y1974097D1*
X1612205Y1970156D1*
X1599787Y1968983D1*
X1587424Y1970635D1*
X1575751Y1975030D1*
X1565367Y1981941D1*
X1556807Y1991012D1*
X1550706Y2001442D1*
X1543587Y1989336D1*
X1534682Y1980601D1*
X1524039Y1974097D1*
X1512205Y1970156D1*
X1499787Y1968983D1*
X1487424Y1970635D1*
X1475751Y1975030D1*
X1465367Y1981941D1*
X1455823Y1992694D1*
X1455878Y1968972D1*
X1373457D1*
X1373323Y1751972D1*
X1370484Y1739531D1*
X1364682Y1731113D1*
X1315350Y1681500D1*
Y1645172D1*
X1326584Y1648241D1*
X1339037Y1648936D1*
X1351328Y1646806D1*
X1362823Y1641965D1*
X1372932Y1634657D1*
X1381135Y1625262D1*
X1387012Y1614260D1*
X1390261Y1602218D1*
X1390822Y1591501D1*
X1388846Y1579185D1*
X1384148Y1567630D1*
X1376969Y1557430D1*
X1367677Y1549110D1*
X1356749Y1543096D1*
X1344748Y1539697D1*
X1332290Y1539088D1*
X1320014Y1541301D1*
X1315371Y1542927D1*
X1315350Y1034000D1*
X1312512Y1021559D1*
X1306710Y1013140D1*
X1289308Y995739D1*
X1290878Y984000D1*
X1289465Y971608D1*
X1285297Y959852D1*
X1278587Y949336D1*
X1269682Y940601D1*
X1259039Y934097D1*
X1247205Y930156D1*
X1234787Y928983D1*
X1222424Y930635D1*
X1210751Y935030D1*
X1200367Y941941D1*
X1191807Y951012D1*
X1185706Y961442D1*
X1178587Y949336D1*
X1169682Y940601D1*
X1165358Y937959D1*
X1165350Y840640D1*
X1172932Y834657D1*
X1181135Y825262D1*
X1187012Y814260D1*
X1190261Y802218D1*
X1190878Y794000D1*
X1189465Y781608D1*
X1185297Y769852D1*
X1178587Y759336D1*
X1169682Y750601D1*
X1159039Y744097D1*
X1147205Y740156D1*
X1134787Y738983D1*
X1122424Y740635D1*
X1110751Y745030D1*
X1100367Y751941D1*
X1091807Y761012D1*
X1085706Y771442D1*
X1078587Y759336D1*
X1069682Y750601D1*
X1059039Y744097D1*
X1047205Y740156D1*
X1034787Y738983D1*
X1022424Y740635D1*
X1010751Y745030D1*
X1000367Y751941D1*
X991807Y761012D1*
X985706Y771442D1*
X978587Y759336D1*
X969682Y750601D1*
X959039Y744097D1*
X947205Y740156D1*
X934787Y738983D1*
X922424Y740635D1*
X910751Y745030D1*
X900367Y751941D1*
X891807Y761012D1*
X885706Y771442D1*
X882900Y765465D1*
X875265Y755601D1*
X865605Y747711D1*
X854416Y742199D1*
X842273Y739349D1*
X829799Y739306D1*
X817638Y742073D1*
X806411Y747509D1*
X796697Y755333D1*
X788995Y765144D1*
X783701Y776438D1*
X781085Y788634D1*
X781283Y801106D1*
X782661Y808075D1*
X636323Y808028D1*
X623979Y809734D1*
X612261Y814971D1*
X604150Y821354D1*
X554150Y871354D1*
X546627Y881289D1*
X542045Y893278D1*
X540823Y903528D1*
Y1144472D1*
X542529Y1156816D1*
X547766Y1168534D1*
X554150Y1176646D1*
X919028Y1541524D1*
X910751Y1545030D1*
X900367Y1551941D1*
X891807Y1561012D1*
X885706Y1571442D1*
X878587Y1559336D1*
X869682Y1550601D1*
X859039Y1544097D1*
X847205Y1540156D1*
X834787Y1538983D1*
X822424Y1540635D1*
X810751Y1545030D1*
X800367Y1551941D1*
X791807Y1561012D1*
X785706Y1571442D1*
X778587Y1559336D1*
X769682Y1550601D1*
X759039Y1544097D1*
X747205Y1540156D1*
X734787Y1538983D1*
X722424Y1540635D1*
X710751Y1545030D1*
X700367Y1551941D1*
X691807Y1561012D1*
X685706Y1571442D1*
X678587Y1559336D1*
X669682Y1550601D1*
X659039Y1544097D1*
X647205Y1540156D1*
X634787Y1538983D1*
X622424Y1540635D1*
X610751Y1545030D1*
X600367Y1551941D1*
X591807Y1561012D1*
X585706Y1571442D1*
X578587Y1559336D1*
X569682Y1550601D1*
X559039Y1544097D1*
X547205Y1540156D1*
X534787Y1538983D1*
X522424Y1540635D1*
X510751Y1545030D1*
X500367Y1551941D1*
X491807Y1561012D1*
X485509Y1571780D1*
X481798Y1583688D1*
X480864Y1596125D1*
X482755Y1608454D1*
X487374Y1620041D1*
X494484Y1630289D1*
X503719Y1638673D1*
X514606Y1644761D1*
X526584Y1648241D1*
X539037Y1648936D1*
X551328Y1646806D1*
X562823Y1641965D1*
X572932Y1634657D1*
X581135Y1625262D1*
X585727Y1616667D1*
X594484Y1630289D1*
X603719Y1638673D1*
X614606Y1644761D1*
X626584Y1648241D1*
X639037Y1648936D1*
X651328Y1646806D1*
X662823Y1641965D1*
X672932Y1634657D1*
X681135Y1625262D1*
X685727Y1616667D1*
X694484Y1630289D1*
X703719Y1638673D1*
X714606Y1644761D1*
X726584Y1648241D1*
X739037Y1648936D1*
X751328Y1646806D1*
X762823Y1641965D1*
X772932Y1634657D1*
X781135Y1625262D1*
X785727Y1616667D1*
X794484Y1630289D1*
X804060Y1638864D1*
X791807Y1651012D1*
X785509Y1661780D1*
X781798Y1673688D1*
X780864Y1686125D1*
X782755Y1698454D1*
X787374Y1710041D1*
X794484Y1720289D1*
X803719Y1728673D1*
X814606Y1734761D1*
X826584Y1738241D1*
X839037Y1738936D1*
X851328Y1736806D1*
X862823Y1731965D1*
X872932Y1724657D1*
X881135Y1715262D1*
X885727Y1706667D1*
X894484Y1720289D1*
X903719Y1728673D1*
X914606Y1734761D1*
X926584Y1738241D1*
X939037Y1738936D1*
X951328Y1736806D1*
X962823Y1731965D1*
X972932Y1724657D1*
X981135Y1715262D1*
X985727Y1706667D1*
X994484Y1720289D1*
X1003719Y1728673D1*
X1014606Y1734761D1*
X1026584Y1738241D1*
X1039037Y1738936D1*
X1050944Y1736873D1*
X1033041Y1754429D1*
X1025858Y1758490D1*
X1020080Y1764379D1*
X1016160Y1771640D1*
X1014402Y1779789D1*
X1014323Y1970560D1*
X999787Y1968983D1*
X987424Y1970635D1*
X975751Y1975030D1*
X965367Y1981941D1*
X956807Y1991012D1*
X950706Y2001442D1*
X943587Y1989336D1*
X934682Y1980601D1*
X924039Y1974097D1*
X912205Y1970156D1*
X899787Y1968983D1*
X887424Y1970635D1*
X875751Y1975030D1*
X865367Y1981941D1*
X856807Y1991012D1*
X850706Y2001442D1*
X843587Y1989336D1*
X834682Y1980601D1*
X824039Y1974097D1*
X812205Y1970156D1*
X799787Y1968983D1*
X787424Y1970635D1*
X775751Y1975030D1*
X765367Y1981941D1*
X756807Y1991012D1*
X750706Y2001442D1*
X743587Y1989336D1*
X734682Y1980601D1*
X724039Y1974097D1*
X712205Y1970156D1*
X699787Y1968983D1*
X687424Y1970635D1*
X675751Y1975030D1*
X665367Y1981941D1*
X655823Y1992694D1*
X655878Y1968972D1*
X545823D1*
Y2079028D1*
X571214D1*
X571350Y2095484D1*
X557903Y2107335D1*
X550756Y2117573D1*
X543736Y2107262D1*
X534623Y2098743D1*
X523864Y2092432D1*
X511979Y2088638D1*
X499552Y2087545D1*
X487190Y2089207D1*
X475493Y2093543D1*
X465034Y2100343D1*
X456471Y2109089D1*
X456500Y593769D1*
X458773Y567588D1*
X464862Y544848D1*
X474765Y523669D1*
X488196Y504531D1*
X504744Y488016D1*
X523908Y474626D1*
X545108Y464768D1*
X567698Y458740D1*
X593522Y456505D1*
X1110612Y456500D1*
X1103995Y465144D1*
X1098701Y476438D1*
X1096085Y488634D1*
X1096283Y501106D1*
X1099286Y513213D1*
X1104937Y524332D1*
X1112948Y533892D1*
X1122906Y541404D1*
X1127822Y543966D1*
X1115367Y551941D1*
X1106807Y561012D1*
X1100509Y571780D1*
X1096798Y583688D1*
X1095864Y596125D1*
X1097755Y608454D1*
X1102374Y620041D1*
X1109484Y630289D1*
X1118719Y638673D1*
X1129606Y644761D1*
X1141584Y648241D1*
X1154037Y648936D1*
X1166328Y646806D1*
X1177823Y641965D1*
X1187932Y634657D1*
X1196135Y625262D1*
X1200727Y616667D1*
X1209484Y630289D1*
X1218719Y638673D1*
X1229606Y644761D1*
X1241584Y648241D1*
X1254037Y648936D1*
X1266328Y646806D1*
X1277823Y641965D1*
X1287932Y634657D1*
X1296135Y625262D1*
X1300727Y616667D1*
X1309484Y630289D1*
X1318719Y638673D1*
X1329606Y644761D1*
X1341584Y648241D1*
X1354037Y648936D1*
X1366328Y646806D1*
X1377823Y641965D1*
X1387932Y634657D1*
X1395823Y626472D1*
Y649028D1*
X1405588D1*
X1405350Y831500D1*
Y1264000D1*
X1407056Y1276344D1*
X1412294Y1288062D1*
X1418677Y1296173D1*
X1718921Y1596417D1*
X1724421Y1612088D1*
X1731531Y1622336D1*
X1740766Y1630720D1*
X1751654Y1636808D1*
X1763631Y1640289D1*
X1776084Y1640983D1*
X1788375Y1638853D1*
X1800185Y1633783D1*
X2011314Y1845013D1*
X2011571Y2004000D1*
Y2767672D1*
X1932201Y2847100D1*
X1927462Y2850155D1*
X1918467Y2858778D1*
X1911457Y2872155D1*
X1909005Y2881172D1*
X1909203Y2894029D1*
X1912797Y2905961D1*
X1919491Y2916470D1*
X1928786Y2924769D1*
X1939984Y2930236D1*
X1952244Y2932459D1*
X1964648Y2931274D1*
X1976266Y2926768D1*
X1986226Y2919278D1*
X1993780Y2909369D1*
X1998362Y2897781D1*
X1999131Y2891381D1*
X2064843Y2825558D1*
X2066490Y2829961D1*
X2073184Y2840470D1*
X2082479Y2848769D1*
X2093677Y2854236D1*
X2105937Y2856459D1*
X2110976Y2855978D1*
X2172341Y2917210D1*
X2170864Y2931125D1*
X2172755Y2943454D1*
X2177374Y2955041D1*
X2184484Y2965289D1*
X2193719Y2973673D1*
X2204606Y2979761D1*
X2216584Y2983241D1*
X2229037Y2983936D1*
X2241328Y2981806D1*
X2252823Y2976965D1*
X2262932Y2969657D1*
X2270823Y2961472D1*
Y2984028D1*
X2380878D1*
X2381362Y2961386D1*
X2389799Y2970573D1*
X2400088Y2977625D1*
X2411699Y2982177D1*
X2424039Y2983997D1*
X2436472Y2982992D1*
X2448358Y2979214D1*
X2459089Y2972854D1*
X2468112Y2964241D1*
X2474963Y2953819D1*
X2479291Y2942121D1*
X2480873Y2929748D1*
X2479972Y2919055D1*
X2476341Y2907122D1*
X2470117Y2896312D1*
X2461618Y2887182D1*
X2451282Y2880202D1*
X2448825Y2879004D1*
X2459089Y2872854D1*
X2468112Y2864241D1*
X2474963Y2853819D1*
X2479291Y2842121D1*
X2480873Y2829748D1*
X2479972Y2819055D1*
X2476341Y2807122D1*
X2470117Y2796312D1*
X2461618Y2787182D1*
X2451282Y2780202D1*
X2448825Y2779004D1*
X2459089Y2772854D1*
X2468112Y2764241D1*
X2474963Y2753819D1*
X2479291Y2742121D1*
X2480873Y2729748D1*
X2479972Y2719055D1*
X2476341Y2707122D1*
X2470117Y2696312D1*
X2461618Y2687182D1*
X2451282Y2680202D1*
X2448825Y2679004D1*
X2459089Y2672854D1*
X2468112Y2664241D1*
X2474963Y2653819D1*
X2479291Y2642121D1*
X2480873Y2629748D1*
X2479972Y2619055D1*
X2476341Y2607122D1*
X2470117Y2596312D1*
X2461618Y2587182D1*
X2451282Y2580202D1*
X2448825Y2579004D1*
X2459089Y2572854D1*
X2468112Y2564241D1*
X2474963Y2553819D1*
X2479291Y2542121D1*
X2480873Y2529748D1*
X2479972Y2519055D1*
X2476341Y2507122D1*
X2470117Y2496312D1*
X2461618Y2487182D1*
X2451282Y2480202D1*
X2448825Y2479004D1*
X2459089Y2472854D1*
X2468112Y2464241D1*
X2474963Y2453819D1*
X2479291Y2442121D1*
X2480873Y2429748D1*
X2479972Y2419055D1*
X2476341Y2407122D1*
X2470117Y2396312D1*
X2461618Y2387182D1*
X2451282Y2380202D1*
X2448825Y2379004D1*
X2459089Y2372854D1*
X2468112Y2364241D1*
X2474963Y2353819D1*
X2479291Y2342121D1*
X2480873Y2329748D1*
X2479972Y2319055D1*
X2476341Y2307122D1*
X2470117Y2296312D1*
X2461618Y2287182D1*
X2451282Y2280202D1*
X2448825Y2279004D1*
X2459089Y2272854D1*
X2468112Y2264241D1*
X2474963Y2253819D1*
X2479291Y2242121D1*
X2480873Y2229748D1*
X2479972Y2219055D1*
X2476341Y2207122D1*
X2470117Y2196312D1*
X2461618Y2187182D1*
X2451282Y2180202D1*
X2439639Y2175728D1*
X2427287Y2173991D1*
X2414862Y2175081D1*
X2403001Y2178941D1*
X2392314Y2185373D1*
X2383350Y2194046D1*
X2376570Y2204516D1*
X2375874Y2206001D1*
X2371312Y2198608D1*
X2371350Y1729000D1*
X2369644Y1716656D1*
X2364407Y1704938D1*
X2358024Y1696827D1*
X2308736Y1648113D1*
X2310850Y1644500D1*
X2342491D1*
X2375496Y1677134D1*
X2375350Y2074000D1*
X2376752Y2086395D1*
X2380886Y2098163D1*
X2387822Y2108986D1*
X2431606Y2153244D1*
X2441361Y2161017D1*
X2452606Y2166416D1*
X2465163Y2169165D1*
X2533350Y2169500D1*
X2643115D1*
X2655609Y2182247D1*
X2655350Y2193765D1*
X2641902Y2188161D1*
X2629610Y2186022D1*
X2617146Y2186556D1*
X2605083Y2189739D1*
X2593978Y2195424D1*
X2584341Y2203348D1*
X2576619Y2213147D1*
X2571168Y2224369D1*
X2568238Y2236495D1*
X2567963Y2248969D1*
X2570358Y2261213D1*
X2575312Y2272663D1*
X2582597Y2282791D1*
X2591875Y2291131D1*
X2596256Y2293992D1*
X2584341Y2303348D1*
X2576619Y2313147D1*
X2571168Y2324369D1*
X2568238Y2336495D1*
X2567963Y2348969D1*
X2570358Y2361213D1*
X2575312Y2372663D1*
X2582597Y2382791D1*
X2591875Y2391131D1*
X2596282Y2393636D1*
X2584341Y2403348D1*
X2576619Y2413147D1*
X2571168Y2424369D1*
X2568238Y2436495D1*
X2567963Y2448969D1*
X2570358Y2461213D1*
X2575312Y2472663D1*
X2582597Y2482791D1*
X2591875Y2491131D1*
X2602720Y2497298D1*
X2614633Y2501007D1*
X2627062Y2502087D1*
X2639434Y2500490D1*
X2651181Y2496287D1*
X2661760Y2489673D1*
X2670684Y2480954D1*
X2677539Y2470530D1*
X2682012Y2458883D1*
X2683950Y2444000D1*
X2682610Y2431596D1*
X2678654Y2419764D1*
X2672262Y2409050D1*
X2663350Y2399500D1*
X2680850D1*
X2693245Y2398098D1*
X2705013Y2393965D1*
X2715836Y2387029D1*
X2750094Y2353244D1*
X2757867Y2343490D1*
X2763266Y2332244D1*
X2766016Y2319688D1*
X2766350Y2251500D1*
Y2159000D1*
X2764949Y2146605D1*
X2760815Y2134837D1*
X2753879Y2124014D1*
X2705094Y2074756D1*
X2695340Y2066983D1*
X2684094Y2061584D1*
X2671538Y2058835D1*
X2603350Y2058500D1*
X2493585D1*
X2486617Y2051277D1*
X2486350Y1974000D1*
Y1654000D1*
X2484949Y1641605D1*
X2480815Y1629837D1*
X2473879Y1619014D1*
X2425900Y1570562D1*
X2405094Y1549756D1*
X2395340Y1541983D1*
X2384094Y1536584D1*
X2371538Y1533835D1*
X2303350Y1533500D1*
X2225615D1*
X2226349Y1514152D1*
X2224877Y1501765D1*
X2220673Y1490021D1*
X2213955Y1479512D1*
X2206449Y1472134D1*
X2206350Y1206269D1*
X2208950Y1189000D1*
X2207610Y1176596D1*
X2121407Y1139180D2*
X2109341Y1148348D1*
X2101619Y1158147D1*
X2096168Y1169369D1*
X2093238Y1181495D1*
X2092963Y1193969D1*
X2095283Y1205829D1*
X2095350Y1445640D1*
X2080531Y1441068D1*
X2071585Y1440743D1*
X2071350Y1286243D1*
Y1132727D1*
X2096151Y1108583D1*
X2101592Y1119810D1*
X2109306Y1129615D1*
X2118934Y1137549D1*
X2121256Y1138992D1*
X2207610Y731596D2*
X2203654Y719764D1*
X2197262Y709050D1*
X2188731Y699948D1*
X2180583Y693916D1*
X2190554Y686417D1*
X2198694Y676963D1*
X2204629Y665990D1*
X2208083Y654001D1*
X2208896Y641501D1*
X2207025Y629167D1*
X2202563Y617516D1*
X2195717Y607085D1*
X2186801Y598358D1*
X2180423Y593995D1*
X2186760Y589673D1*
X2195684Y580954D1*
X2202539Y570530D1*
X2207012Y558883D1*
X2208950Y544000D1*
X2207610Y531596D1*
X2203654Y519764D1*
X2197262Y509050D1*
X2188731Y499948D1*
X2178453Y492875D1*
X2166902Y488161D1*
X2154610Y486022D1*
X2142146Y486556D1*
X2130083Y489739D1*
X2118978Y495424D1*
X2109341Y503348D1*
X2101619Y513147D1*
X2096168Y524369D1*
X2093238Y536495D1*
X2092963Y548969D1*
X2095358Y561213D1*
X2100312Y572663D1*
X2107597Y582791D1*
X2116875Y591131D1*
X2121097Y594097D1*
X2111129Y601600D1*
X2102992Y611058D1*
X2097063Y622034D1*
X2093614Y634024D1*
X2092803Y646474D1*
X2094669Y658810D1*
X2099126Y670462D1*
X2105969Y680894D1*
X2114879Y689626D1*
X2121256Y693992D1*
X2109341Y703348D1*
X2101619Y713147D1*
X2096168Y724369D1*
X2093238Y736495D1*
X2092963Y748969D1*
X2095358Y761213D1*
X2100312Y772663D1*
X2107597Y782791D1*
X2116875Y791131D1*
X2127720Y797298D1*
X2139633Y801007D1*
X2152062Y802087D1*
X2164434Y800490D1*
X2176181Y796287D1*
X2186760Y789673D1*
X2195684Y780954D1*
X2202539Y770530D1*
X2207012Y758883D1*
X2208950Y744000D1*
X2207610Y731596D1*
X885686Y960953D2*
X878587Y949336D1*
X869682Y940601D1*
X859039Y934097D1*
X847205Y930156D1*
X834787Y928983D1*
X822424Y930635D1*
X810751Y935030D1*
X800367Y941941D1*
X791807Y951012D1*
X785706Y961442D1*
X778587Y949336D1*
X769682Y940601D1*
X759039Y934097D1*
X747205Y930156D1*
X734787Y928983D1*
X722424Y930635D1*
X710751Y935030D1*
X700367Y941941D1*
X691807Y951012D1*
X685509Y961780D1*
X681798Y973688D1*
X680864Y986125D1*
X682755Y998454D1*
X687374Y1010041D1*
X694484Y1020289D1*
X703719Y1028673D1*
X714606Y1034761D1*
X726584Y1038241D1*
X739037Y1038936D1*
X751328Y1036806D1*
X762823Y1031965D1*
X772932Y1024657D1*
X781135Y1015262D1*
X785727Y1006667D1*
X794484Y1020289D1*
X803719Y1028673D1*
X814606Y1034761D1*
X826584Y1038241D1*
X839037Y1038936D1*
X851328Y1036806D1*
X862823Y1031965D1*
X872932Y1024657D1*
X881135Y1015262D1*
X885727Y1006667D1*
X891362Y1016386D1*
X899799Y1025573D1*
X910088Y1032625D1*
X921699Y1037177D1*
X934039Y1038997D1*
X946472Y1037992D1*
X958358Y1034214D1*
X969089Y1027854D1*
X978112Y1019241D1*
X984963Y1008819D1*
X985871Y1006916D1*
X994484Y1020289D1*
X1003719Y1028673D1*
X1014606Y1034761D1*
X1026584Y1038241D1*
X1039037Y1038936D1*
X1047871Y1037406D1*
X1061350Y1051500D1*
Y1544860D1*
X1046041Y1540047D1*
X631882Y1125685D1*
X631823Y922207D1*
X655232Y898965D1*
X876323Y899028D1*
X888667Y897322D1*
X900385Y892084D1*
X908496Y885701D1*
X946337Y847860D1*
X951328Y846806D1*
X962823Y841965D1*
X972932Y834657D1*
X981135Y825262D1*
X985727Y816667D1*
X994484Y830289D1*
X1006101Y840004D1*
X1006350Y937360D1*
X1000367Y941941D1*
X991807Y951012D1*
X985706Y961442D1*
X982900Y955465D1*
X975265Y945601D1*
X965605Y937711D1*
X954416Y932199D1*
X942273Y929349D1*
X929799Y929306D1*
X917638Y932073D1*
X906411Y937509D1*
X896697Y945333D1*
X888995Y955144D1*
X885874Y961001D1*
X2375686Y2805953D2*
X2371312Y2798608D1*
X2371350Y2759860D1*
X2377374Y2755041D1*
X2384484Y2765289D1*
X2393719Y2773673D1*
X2402822Y2778966D1*
X2392314Y2785373D1*
X2383350Y2794046D1*
X2376570Y2804516D1*
X2375874Y2806001D1*
X2375686Y2705953D2*
X2371312Y2698608D1*
X2371350Y2659860D1*
X2377374Y2655041D1*
X2384484Y2665289D1*
X2393719Y2673673D1*
X2402822Y2678966D1*
X2392314Y2685373D1*
X2383350Y2694046D1*
X2376570Y2704516D1*
X2375874Y2706001D1*
X2375686Y2605953D2*
X2371312Y2598608D1*
X2371350Y2559860D1*
X2377374Y2555041D1*
X2384484Y2565289D1*
X2393719Y2573673D1*
X2402822Y2578966D1*
X2392314Y2585373D1*
X2383350Y2594046D1*
X2376570Y2604516D1*
X2375874Y2606001D1*
X2375686Y2505953D2*
X2371312Y2498608D1*
X2371350Y2459860D1*
X2377374Y2455041D1*
X2384484Y2465289D1*
X2393719Y2473673D1*
X2402822Y2478966D1*
X2392314Y2485373D1*
X2383350Y2494046D1*
X2376570Y2504516D1*
X2375874Y2506001D1*
X2375686Y2405953D2*
X2371312Y2398608D1*
X2371350Y2359860D1*
X2377374Y2355041D1*
X2384484Y2365289D1*
X2393719Y2373673D1*
X2402822Y2378966D1*
X2392314Y2385373D1*
X2383350Y2394046D1*
X2376570Y2404516D1*
X2375874Y2406001D1*
X2375686Y2305953D2*
X2371312Y2298608D1*
X2371350Y2259860D1*
X2377374Y2255041D1*
X2384484Y2265289D1*
X2393719Y2273673D1*
X2402822Y2278966D1*
X2392314Y2285373D1*
X2383350Y2294046D1*
X2376570Y2304516D1*
X2375874Y2306001D1*
X1328304Y544068D2*
X1315367Y551941D1*
X1306807Y561012D1*
X1300706Y571442D1*
X1293587Y559336D1*
X1284682Y550601D1*
X1273669Y543974D1*
X1282063Y539319D1*
X1291467Y531125D1*
X1298785Y521024D1*
X1300871Y516916D1*
X1306362Y526386D1*
X1314799Y535573D1*
X1325088Y542625D1*
X1327822Y543966D1*
X1228304Y544068D2*
X1215367Y551941D1*
X1206807Y561012D1*
X1200706Y571442D1*
X1193587Y559336D1*
X1184682Y550601D1*
X1173669Y543974D1*
X1182063Y539319D1*
X1191467Y531125D1*
X1198785Y521024D1*
X1200871Y516916D1*
X1206362Y526386D1*
X1214799Y535573D1*
X1225088Y542625D1*
X1227822Y543966D1*
X3083896Y1441501D2*
X3082025Y1429167D1*
X3077563Y1417516D1*
X3070717Y1407085D1*
X3061801Y1398358D1*
X3051228Y1391736D1*
X3039484Y1387522D1*
X3027113Y1385913D1*
X3014684Y1386983D1*
X3002768Y1390682D1*
X2991917Y1396840D1*
X2982631Y1405171D1*
X2975858Y1414421D1*
X2972262Y1409050D1*
X2963731Y1399948D1*
X2953453Y1392875D1*
X2941902Y1388161D1*
X2929610Y1386022D1*
X2917146Y1386556D1*
X2905083Y1389739D1*
X2893978Y1395424D1*
X2884341Y1403348D1*
X2875768Y1414900D1*
X2872262Y1409050D1*
X2863731Y1399948D1*
X2853453Y1392875D1*
X2841902Y1388161D1*
X2829610Y1386022D1*
X2817146Y1386556D1*
X2805083Y1389739D1*
X2793978Y1395424D1*
X2784341Y1403348D1*
X2776619Y1413147D1*
X2771168Y1424369D1*
X2768238Y1436495D1*
X2767963Y1448969D1*
X2770358Y1461213D1*
X2775312Y1472663D1*
X2782597Y1482791D1*
X2792892Y1491709D1*
X2792850Y1645953D1*
X2784341Y1653348D1*
X2776619Y1663147D1*
X2771168Y1674369D1*
X2768238Y1686495D1*
X2767963Y1698969D1*
X2770358Y1711213D1*
X2775312Y1722663D1*
X2782597Y1732791D1*
X2792892Y1741709D1*
X2792850Y1895953D1*
X2784341Y1903348D1*
X2776619Y1913147D1*
X2771168Y1924369D1*
X2768238Y1936495D1*
X2767963Y1948969D1*
X2770358Y1961213D1*
X2775312Y1972663D1*
X2782597Y1982791D1*
X2792892Y1991709D1*
X2792850Y2145953D1*
X2784341Y2153348D1*
X2776619Y2163147D1*
X2771168Y2174369D1*
X2768238Y2186495D1*
X2767963Y2198969D1*
X2770358Y2211213D1*
X2775312Y2222663D1*
X2782597Y2232791D1*
X2792892Y2241709D1*
X2792850Y2395953D1*
X2784341Y2403348D1*
X2776619Y2413147D1*
X2771168Y2424369D1*
X2768238Y2436495D1*
X2767963Y2448969D1*
X2770358Y2461213D1*
X2775312Y2472663D1*
X2782597Y2482791D1*
X2791875Y2491131D1*
X2802720Y2497298D1*
X2814633Y2501007D1*
X2827062Y2502087D1*
X2839434Y2500490D1*
X2851181Y2496287D1*
X2861760Y2489673D1*
X2870684Y2480954D1*
X2875612Y2473462D1*
X2882597Y2482791D1*
X2891875Y2491131D1*
X2902720Y2497298D1*
X2914633Y2501007D1*
X2927062Y2502087D1*
X2939434Y2500490D1*
X2951181Y2496287D1*
X2961760Y2489673D1*
X2970684Y2480954D1*
X2975612Y2473462D1*
X2984306Y2484615D1*
X2993934Y2492549D1*
X3005035Y2498243D1*
X3017096Y2501436D1*
X3029559Y2501982D1*
X3041852Y2499853D1*
X3053407Y2495148D1*
X3063692Y2488087D1*
X3072231Y2478991D1*
X3078633Y2468282D1*
X3082600Y2456454D1*
X3083950Y2444000D1*
X3082610Y2431596D1*
X3078654Y2419764D1*
X3072262Y2409050D1*
X3063731Y2399948D1*
X3053453Y2392875D1*
X3041902Y2388161D1*
X3029610Y2386022D1*
X3017146Y2386556D1*
X3005083Y2389739D1*
X2993978Y2395424D1*
X2984341Y2403348D1*
X2976619Y2413147D1*
X2975858Y2414421D1*
X2972262Y2409050D1*
X2963731Y2399948D1*
X2953453Y2392875D1*
X2941902Y2388161D1*
X2929610Y2386022D1*
X2917146Y2386556D1*
X2905083Y2389739D1*
X2893978Y2395424D1*
X2884341Y2403348D1*
X2875768Y2414900D1*
X2872262Y2409050D1*
X2863731Y2399948D1*
X2858913Y2396633D1*
X2858850Y2242047D1*
X2870684Y2230954D1*
X2875612Y2223462D1*
X2882597Y2232791D1*
X2891875Y2241131D1*
X2902720Y2247298D1*
X2914633Y2251007D1*
X2927062Y2252087D1*
X2939434Y2250490D1*
X2951181Y2246287D1*
X2961760Y2239673D1*
X2970684Y2230954D1*
X2975612Y2223462D1*
X2984306Y2234615D1*
X2993934Y2242549D1*
X3005035Y2248243D1*
X3017096Y2251436D1*
X3029559Y2251982D1*
X3041852Y2249853D1*
X3053407Y2245148D1*
X3063692Y2238087D1*
X3072231Y2228991D1*
X3078633Y2218282D1*
X3082600Y2206454D1*
X3083950Y2194000D1*
X3082610Y2181596D1*
X3078654Y2169764D1*
X3072262Y2159050D1*
X3063731Y2149948D1*
X3053453Y2142875D1*
X3041902Y2138161D1*
X3029610Y2136022D1*
X3017146Y2136556D1*
X3005083Y2139739D1*
X2993978Y2145424D1*
X2984341Y2153348D1*
X2976619Y2163147D1*
X2975858Y2164421D1*
X2972262Y2159050D1*
X2963731Y2149948D1*
X2953453Y2142875D1*
X2941902Y2138161D1*
X2929610Y2136022D1*
X2917146Y2136556D1*
X2905083Y2139739D1*
X2893978Y2145424D1*
X2884341Y2153348D1*
X2875768Y2164900D1*
X2872262Y2159050D1*
X2863731Y2149948D1*
X2858913Y2146633D1*
X2858850Y1992047D1*
X2870684Y1980954D1*
X2875612Y1973462D1*
X2882597Y1982791D1*
X2891875Y1991131D1*
X2902720Y1997298D1*
X2914633Y2001007D1*
X2927062Y2002087D1*
X2939434Y2000490D1*
X2951181Y1996287D1*
X2961760Y1989673D1*
X2970684Y1980954D1*
X2975612Y1973462D1*
X2984306Y1984615D1*
X2993934Y1992549D1*
X3005035Y1998243D1*
X3017096Y2001436D1*
X3029559Y2001982D1*
X3041852Y1999853D1*
X3053407Y1995148D1*
X3063692Y1988087D1*
X3072231Y1978991D1*
X3078633Y1968282D1*
X3082600Y1956454D1*
X3083950Y1944000D1*
X3082610Y1931596D1*
X3078654Y1919764D1*
X3072262Y1909050D1*
X3063731Y1899948D1*
X3053453Y1892875D1*
X3041902Y1888161D1*
X3029610Y1886022D1*
X3017146Y1886556D1*
X3005083Y1889739D1*
X2993978Y1895424D1*
X2984341Y1903348D1*
X2976619Y1913147D1*
X2975858Y1914421D1*
X2972262Y1909050D1*
X2963731Y1899948D1*
X2953453Y1892875D1*
X2941902Y1888161D1*
X2929610Y1886022D1*
X2917146Y1886556D1*
X2905083Y1889739D1*
X2893978Y1895424D1*
X2884341Y1903348D1*
X2875768Y1914900D1*
X2872262Y1909050D1*
X2863731Y1899948D1*
X2858913Y1896633D1*
X2858850Y1742047D1*
X2870684Y1730954D1*
X2875612Y1723462D1*
X2882597Y1732791D1*
X2891875Y1741131D1*
X2902720Y1747298D1*
X2914633Y1751007D1*
X2927062Y1752087D1*
X2939434Y1750490D1*
X2951181Y1746287D1*
X2961760Y1739673D1*
X2970684Y1730954D1*
X2975612Y1723462D1*
X2984306Y1734615D1*
X2993934Y1742549D1*
X3005035Y1748243D1*
X3017096Y1751436D1*
X3029559Y1751982D1*
X3041852Y1749853D1*
X3053407Y1745148D1*
X3063692Y1738087D1*
X3072231Y1728991D1*
X3078633Y1718282D1*
X3082600Y1706454D1*
X3083950Y1694000D1*
X3082610Y1681596D1*
X3078654Y1669764D1*
X3072262Y1659050D1*
X3063731Y1649948D1*
X3053453Y1642875D1*
X3041902Y1638161D1*
X3029610Y1636022D1*
X3017146Y1636556D1*
X3005083Y1639739D1*
X2993978Y1645424D1*
X2984341Y1653348D1*
X2976619Y1663147D1*
X2975858Y1664421D1*
X2972262Y1659050D1*
X2963731Y1649948D1*
X2953453Y1642875D1*
X2941902Y1638161D1*
X2929610Y1636022D1*
X2917146Y1636556D1*
X2905083Y1639739D1*
X2893978Y1645424D1*
X2884341Y1653348D1*
X2875768Y1664900D1*
X2872262Y1659050D1*
X2863731Y1649948D1*
X2858913Y1646633D1*
X2858850Y1492047D1*
X2870684Y1480954D1*
X2875612Y1473462D1*
X2882597Y1482791D1*
X2891875Y1491131D1*
X2902720Y1497298D1*
X2914633Y1501007D1*
X2927062Y1502087D1*
X2939434Y1500490D1*
X2951181Y1496287D1*
X2961760Y1489673D1*
X2970684Y1480954D1*
X2975612Y1473462D1*
X2984306Y1484615D1*
X2993934Y1492549D1*
X3005035Y1498243D1*
X3017096Y1501436D1*
X3029559Y1501982D1*
X3041852Y1499853D1*
X3053407Y1495148D1*
X3063692Y1488087D1*
X3072231Y1478991D1*
X3078633Y1468282D1*
X3082600Y1456454D1*
X3083950Y1444000D1*
X3083896Y1441501D1*
X1826996Y1829605D2*
X1822862Y1817837D1*
X1816203Y1807289D1*
X1807358Y1798495D1*
X1796772Y1791898D1*
X1784979Y1787831D1*
X1772577Y1786501D1*
X1760190Y1787974D1*
X1748446Y1792177D1*
X1737937Y1798895D1*
X1729193Y1807791D1*
X1722657Y1818416D1*
X1718660Y1830232D1*
X1717402Y1842642D1*
X1718946Y1855020D1*
X1723217Y1866739D1*
X1729996Y1877210D1*
X1738942Y1885902D1*
X1749605Y1892375D1*
X1761444Y1896304D1*
X1773860Y1897492D1*
X1786228Y1895875D1*
X1797924Y1891538D1*
X1808354Y1884697D1*
X1816995Y1875701D1*
X1823407Y1865001D1*
X1827268Y1853140D1*
X1828398Y1842000D1*
X1826996Y1829605D1*
X456490Y2178938D2*
X465181Y2187778D1*
X475663Y2194542D1*
X487374Y2198839D1*
X499743Y2200459D1*
X512165Y2199324D1*
X524037Y2195491D1*
X534776Y2189143D1*
X543860Y2180593D1*
X550879Y2170188D1*
X554940Y2176879D1*
X563278Y2186156D1*
X573450Y2193377D1*
X584961Y2198188D1*
X597245Y2200354D1*
X609706Y2199772D1*
X621735Y2196466D1*
X632744Y2190601D1*
X642197Y2182461D1*
X650739Y2169950D1*
X654940Y2176879D1*
X663278Y2186156D1*
X671226Y2191798D1*
X671350Y2514000D1*
X674189Y2526441D1*
X679991Y2534860D1*
X710651Y2565520D1*
X710896Y2576029D1*
X714490Y2587961D1*
X721184Y2598470D1*
X730479Y2606769D1*
X741677Y2612236D1*
X752787Y2614251D1*
X746336Y2629268D1*
X744432Y2641596D1*
X745281Y2654041D1*
X748841Y2665997D1*
X754940Y2676879D1*
X763278Y2686156D1*
X774530Y2693828D1*
X767001Y2698799D1*
X757903Y2707335D1*
X750759Y2718021D1*
X745320Y2709196D1*
X736593Y2700282D1*
X726123Y2693501D1*
X714419Y2689185D1*
X702052Y2687543D1*
X689629Y2688656D1*
X677751Y2692471D1*
X667001Y2698799D1*
X657903Y2707335D1*
X650759Y2718021D1*
X645320Y2709196D1*
X636593Y2700282D1*
X627105Y2694136D1*
X632744Y2690601D1*
X642197Y2682461D1*
X649633Y2672445D1*
X654688Y2661041D1*
X657320Y2644000D1*
X655942Y2631602D1*
X651877Y2619808D1*
X645320Y2609196D1*
X636593Y2600282D1*
X626123Y2593501D1*
X614419Y2589185D1*
X602052Y2587543D1*
X589629Y2588656D1*
X577751Y2592471D1*
X567001Y2598799D1*
X557903Y2607335D1*
X550902Y2617657D1*
X546336Y2629268D1*
X544432Y2641596D1*
X545281Y2654041D1*
X548841Y2665997D1*
X554940Y2676879D1*
X563278Y2686156D1*
X574530Y2693828D1*
X567001Y2698799D1*
X557903Y2707335D1*
X550759Y2718021D1*
X545320Y2709196D1*
X536593Y2700282D1*
X526123Y2693501D1*
X514419Y2689185D1*
X502052Y2687543D1*
X489629Y2688656D1*
X477751Y2692471D1*
X467001Y2698799D1*
X456371Y2709592D1*
X456501Y2178606D1*
X3067182Y578378D2*
X3065025Y566073D1*
X3061461Y554100D1*
X3056537Y542618D1*
X3050320Y531781D1*
X3042894Y521735D1*
X3034357Y512614D1*
X3024824Y504539D1*
X3014423Y497619D1*
X3003291Y491948D1*
X2991579Y487600D1*
X2979444Y484633D1*
X2967046Y483087D1*
X2954554Y482983D1*
X2942133Y484323D1*
X2929950Y487088D1*
X2918167Y491241D1*
X2906944Y496728D1*
X2896428Y503474D1*
X2886762Y511388D1*
X2878076Y520367D1*
X2870483Y530289D1*
X2864088Y541021D1*
X2858975Y552420D1*
X2855211Y564332D1*
X2852850Y576600D1*
X2851920Y589059D1*
X2852436Y601541D1*
X2854390Y613881D1*
X2857755Y625911D1*
X2862487Y637474D1*
X2868524Y648412D1*
X2875782Y658580D1*
X2884167Y667841D1*
X2893564Y676072D1*
X2903849Y683164D1*
X2914886Y689020D1*
X2926524Y693562D1*
X2938608Y696730D1*
X2950978Y698480D1*
X2963467Y698791D1*
X2975908Y697659D1*
X2988135Y695096D1*
X2999986Y691138D1*
X3011299Y685839D1*
X3021924Y679268D1*
X3031720Y671514D1*
X3040555Y662681D1*
X3048311Y652887D1*
X3054883Y642262D1*
X3060185Y630950D1*
X3064144Y619102D1*
X3066710Y606875D1*
X3067906Y590850D1*
X3067182Y578378D1*
X704978D2*
X702820Y566073D1*
X699256Y554100D1*
X694332Y542618D1*
X688115Y531781D1*
X680689Y521735D1*
X672152Y512614D1*
X662619Y504539D1*
X652218Y497619D1*
X641087Y491948D1*
X629374Y487600D1*
X617239Y484633D1*
X604841Y483087D1*
X592349Y482983D1*
X579928Y484323D1*
X567745Y487088D1*
X555962Y491241D1*
X544739Y496728D1*
X534223Y503474D1*
X524558Y511388D1*
X515871Y520367D1*
X508278Y530289D1*
X501883Y541021D1*
X496770Y552420D1*
X493007Y564332D1*
X490646Y576600D1*
X489715Y589059D1*
X490231Y601541D1*
X492185Y613881D1*
X495550Y625911D1*
X500282Y637474D1*
X506319Y648412D1*
X513577Y658580D1*
X521962Y667841D1*
X531360Y676072D1*
X541644Y683164D1*
X552681Y689020D1*
X564319Y693562D1*
X576403Y696730D1*
X588773Y698480D1*
X601262Y698791D1*
X613703Y697659D1*
X625930Y695096D1*
X637781Y691138D1*
X649094Y685839D1*
X659719Y679268D1*
X669516Y671514D1*
X678350Y662681D1*
X686106Y652887D1*
X692678Y642262D1*
X697980Y630950D1*
X701940Y619102D1*
X704505Y606875D1*
X705701Y590850D1*
X704978Y578378D1*
X3067182Y2940583D2*
X3065025Y2928278D1*
X3061461Y2916304D1*
X3056537Y2904823D1*
X3050320Y2893986D1*
X3042894Y2883940D1*
X3034357Y2874819D1*
X3024824Y2866744D1*
X3014423Y2859824D1*
X3003291Y2854152D1*
X2991579Y2849804D1*
X2979444Y2846837D1*
X2967046Y2845291D1*
X2954554Y2845188D1*
X2942133Y2846528D1*
X2929950Y2849293D1*
X2918167Y2853446D1*
X2906944Y2858933D1*
X2896428Y2865678D1*
X2886762Y2873593D1*
X2878076Y2882572D1*
X2870483Y2892493D1*
X2864088Y2903226D1*
X2858975Y2914625D1*
X2855211Y2926537D1*
X2852850Y2938804D1*
X2851920Y2951264D1*
X2852436Y2963745D1*
X2854390Y2976085D1*
X2857755Y2988115D1*
X2862487Y2999678D1*
X2868524Y3010617D1*
X2875782Y3020785D1*
X2884167Y3030046D1*
X2893564Y3038277D1*
X2903849Y3045369D1*
X2914886Y3051224D1*
X2926524Y3055766D1*
X2938608Y3058934D1*
X2950978Y3060685D1*
X2963467Y3060996D1*
X2975908Y3059864D1*
X2988135Y3057301D1*
X2999986Y3053343D1*
X3011299Y3048043D1*
X3021924Y3041472D1*
X3031720Y3033719D1*
X3040555Y3024886D1*
X3048311Y3015092D1*
X3054883Y3004467D1*
X3060185Y2993155D1*
X3064144Y2981307D1*
X3066710Y2969080D1*
X3067906Y2953055D1*
X3067182Y2940583D1*
X2109802Y1130049D2*
D31*
X2191899Y1047951D1*
Y1130049D2*
X2150850Y1089000D1*
X2109802Y685049D2*
X2191899Y602951D1*
Y685049D2*
X2109802Y602951D1*
X896975Y1022875D2*
X974726Y945125D1*
Y1022875D2*
X896975Y945125D1*
X2386975Y2967875D2*
X2464726Y2890125D1*
Y2967875D2*
X2425850Y2929000D1*
Y2829000D2*
X2464726Y2790125D1*
Y2867875D2*
X2386975Y2790125D1*
Y2767875D2*
X2464726Y2690125D1*
Y2767875D2*
X2386975Y2690125D1*
Y2667875D2*
X2464726Y2590125D1*
Y2667875D2*
X2386975Y2590125D1*
Y2567875D2*
X2464726Y2490125D1*
Y2567875D2*
X2386975Y2490125D1*
Y2467875D2*
X2464726Y2390125D1*
Y2467875D2*
X2386975Y2390125D1*
Y2367875D2*
X2464726Y2290125D1*
Y2367875D2*
X2386975Y2290125D1*
Y2267875D2*
X2464726Y2190125D1*
Y2267875D2*
X2386975Y2190125D1*
X2115857Y1928993D2*
X2225844Y1819007D1*
Y1928993D2*
X2115857Y1819007D1*
X2984802Y1485049D2*
X3066899Y1402951D1*
Y1485049D2*
X2984802Y1402951D1*
Y1735049D2*
X3066899Y1652951D1*
Y1735049D2*
X2984802Y1652951D1*
Y1985049D2*
X3066899Y1902951D1*
Y1985049D2*
X2984802Y1902951D1*
Y2235049D2*
X3066899Y2152951D1*
Y2235049D2*
X2984802Y2152951D1*
Y2485049D2*
X3066899Y2402951D1*
Y2485049D2*
X2984802Y2402951D1*
X2584802Y2285049D2*
X2625850Y2244000D1*
X2584802Y2202951D1*
X1505844Y548993D2*
X1450850Y494000D1*
X1311975Y532875D2*
X1350850Y494000D1*
X1211975Y532875D2*
X1250850Y494000D1*
X1289726Y532875D2*
X1250850Y494000D1*
X1111975Y532875D2*
X1150850Y494000D1*
X1189726Y532875D2*
X1111975Y455125D1*
X1335850Y1594000D2*
X1374726Y1555125D1*
Y1632875D2*
X1335850Y1594000D1*
X835850Y794000D2*
X874726Y755125D1*
X835850Y794000D2*
X796975Y755125D1*
X460955Y2183895D2*
X540745Y2104105D1*
Y2183895D2*
X460955Y2104105D1*
X1760955Y2483895D2*
X1840745Y2404105D1*
Y2483895D2*
X1760955Y2404105D1*
X2368749Y828881D2*
X2524951Y672678D1*
Y828881D2*
X2368749Y672678D1*
X2553789Y946991D2*
X2709991Y790789D1*
Y946991D2*
X2553789Y790789D1*
D33*
X2150850Y1189000D3*
Y1089000D3*
Y989000D3*
Y744000D3*
Y644000D3*
Y544000D3*
D34*
X835850Y984000D3*
X935850D3*
X1035850D3*
X735850D3*
X935850Y1684000D3*
X1035850D3*
X1135850D3*
X835850D3*
X1135850Y984000D3*
X1235850D3*
D38*
X1850850Y2994000D3*
D34*
X1750850D3*
X1650850D3*
X1550850D3*
X1450850D3*
X1350850D3*
X1250850D3*
X1150850D3*
D38*
X2325850Y2929000D3*
D34*
X2425850D3*
X2325850Y2829000D3*
X2425850D3*
X2325850Y2729000D3*
X2425850D3*
X2325850Y2629000D3*
X2425850D3*
X2325850Y2529000D3*
X2425850D3*
X2325850Y2429000D3*
X2425850D3*
X2325850Y2329000D3*
X2425850D3*
X2325850Y2229000D3*
X2425850D3*
D38*
X2225850D3*
D34*
Y2329000D3*
Y2429000D3*
Y2529000D3*
Y2629000D3*
Y2729000D3*
Y2829000D3*
Y2929000D3*
D38*
X2170850Y1874000D3*
D34*
Y1774000D3*
Y1674000D3*
Y1574000D3*
D38*
X815850Y2909000D3*
D34*
X915850D3*
X1015850D3*
D38*
X1450850Y594000D3*
D34*
X1350850D3*
X1250850D3*
X1150850D3*
D33*
X3025850Y1444000D3*
X2925850D3*
X2825850D3*
X3025850Y1694000D3*
X2925850D3*
X2825850D3*
X3025850Y1944000D3*
X2925850D3*
X2825850D3*
X3025850Y2194000D3*
X2925850D3*
X2825850D3*
X3025850Y2444000D3*
X2925850D3*
X2825850D3*
X2625850Y2244000D3*
Y2344000D3*
Y2444000D3*
D38*
X600850Y2024000D3*
D34*
X700850D3*
X800850D3*
X900850D3*
X1000850D3*
X1100850D3*
X1200850D3*
X1300850D3*
D38*
X1400850D3*
D34*
X1500850D3*
X1600850D3*
X1700850D3*
X1800850D3*
X1900850D3*
D38*
X1450850Y494000D3*
D34*
X1350850D3*
X1250850D3*
X1150850D3*
X1235850Y1594000D3*
X1135850D3*
X1035850D3*
X1335850D3*
X1035850Y794000D3*
X935850D3*
X835850D3*
X1135850D3*
X935850Y1594000D3*
X835850D3*
X635850D3*
X535850D3*
X735850D3*
D20*
X1772898Y1842000D3*
D34*
Y1586047D3*
D52*
X500850Y2144000D3*
X600850D3*
X700850D3*
X800850D3*
X900850D3*
X1000850D3*
X1100850D3*
X1200850D3*
X1300850D3*
X1400850D3*
X1500850D3*
X1600850D3*
X1700850D3*
X1800850D3*
Y2444000D3*
Y2644000D3*
Y2744000D3*
X1700850D3*
X1600850D3*
X1500850D3*
X1400850D3*
X1300850D3*
X1200850D3*
X1100850D3*
X1000850D3*
X900850D3*
X800850D3*
X700850D3*
X600850D3*
X500850D3*
X600850Y2644000D3*
X800850D3*
X900850D3*
X1000850D3*
X1700850Y2444000D3*
Y2544000D3*
X1600850Y2444000D3*
X1500850D3*
X1400850D3*
X1300850D3*
X1600850Y2544000D3*
X1500850D3*
X1400850D3*
X1300850D3*
X1200850D3*
X1100850D3*
X1200850Y2444000D3*
X1100850D3*
D53*
X2446850Y987000D3*
Y750780D3*
X2631890Y868890D3*
D21*
X1800850Y2344000D3*
M02*
