M48
INCH
T01C0.0191
T02C0.0315
T03C0.0354
T04C0.038
T05C0.04
T06C0.0433
T07C0.0449
T08C0.0984
T09C0.125
%
T01
X+011518Y+011002
X+013345Y+010996
X+013413Y+012733
X+013225Y+014053
X+015245Y+014749
X+015748Y+016960
X+016740Y+016473
X+018140Y+014940
X+019940Y+016540
X+021740Y+016340
X+021740Y+017340
X+019740Y+018340
X+017540Y+019140
X+014691Y+018354
X+012275Y+020060
X+012354Y+022033
X+008621Y+020860
X+006740Y+019740
X+005740Y+020540
X+007940Y+016140
X+008540Y+016492
X+007940Y+014540
X+007957Y+013484
X+009195Y+013161
X+010591Y+012845
X+011341Y+012885
X+010740Y+014140
X+010673Y+015283
X+011431Y+015224
X+017893Y+010803
X+018140Y+008740
X+016514Y+007340
X+017364Y+006018
X+022596Y+006018
X+024540Y+007540
X+024740Y+012340
X+024740Y+012940
X+023268Y+013885
X+023647Y+015194
X+021740Y+012740
X+020077Y+013116
X+027262Y+015220
X+029715Y+015661
X+030736Y+016982
X+030740Y+018740
X+026740Y+019940
X+028340Y+023940
X+029940Y+025740
X+032334Y+008026
X+004606Y+004706
T02
X+031197Y+023390
X+030547Y+023390
X+029847Y+023390
X+029197Y+023390
T03
X+026686Y+009440
X+026686Y+008440
X+027686Y+008440
X+028686Y+008440
X+029686Y+008440
X+030686Y+008440
X+030686Y+009440
X+029686Y+009440
X+028686Y+009440
X+027686Y+009440
X+027686Y+010440
X+026686Y+010440
X+025686Y+010440
X+024686Y+010440
X+023686Y+010440
X+022686Y+010440
X+022686Y+009440
X+023686Y+009440
X+023686Y+008440
X+024686Y+008440
X+024686Y+009440
X+025686Y+009440
X+025686Y+008440
X+022686Y+008440
X+021686Y+008440
X+021686Y+009440
X+021686Y+010440
X+028686Y+010440
X+029686Y+010440
X+030686Y+010440
X+030190Y+019440
X+030190Y+020440
X+030190Y+021440
X+031190Y+021440
X+031190Y+020440
X+031190Y+019440
X+029190Y+019440
X+029190Y+020440
X+028190Y+020440
X+028190Y+021440
X+027190Y+021440
X+026190Y+021440
X+026190Y+020440
X+027190Y+020440
X+027190Y+019440
X+028190Y+019440
X+026190Y+019440
X+025190Y+019440
X+025190Y+020440
X+024190Y+020440
X+024190Y+021440
X+025190Y+021440
X+026190Y+022440
X+026190Y+023440
X+027190Y+023440
X+027190Y+022440
X+029190Y+021440
X+024190Y+019440
X+023190Y+019440
X+022190Y+019440
X+021190Y+019440
X+020190Y+019440
X+019190Y+019440
X+018190Y+019440
X+016140Y+019599
X+015140Y+019599
X+014140Y+019599
X+013140Y+019599
X+013176Y+020619
X+014176Y+020619
X+015176Y+020619
X+016176Y+020619
X+017190Y+022440
X+017190Y+023440
X+018190Y+023440
X+019190Y+023440
X+019190Y+022440
X+020190Y+022440
X+020190Y+023440
X+021190Y+023440
X+021190Y+022440
X+018190Y+022440
T04
X+032190Y+017840
X+031190Y+017840
X+030190Y+017840
X+029190Y+017840
X+028190Y+017840
X+027190Y+017840
X+026190Y+017840
X+025190Y+017840
X+024190Y+017840
X+023190Y+017840
X+022190Y+017840
X+021190Y+017840
X+020190Y+017840
X+019190Y+017840
X+018190Y+017840
X+017190Y+017840
X+016190Y+017840
X+015190Y+017840
X+014190Y+017840
X+013190Y+017840
X+012190Y+017840
X+011190Y+017840
X+010190Y+017840
X+009190Y+017840
X+014190Y+016840
X+014190Y+015840
X+014190Y+014840
X+014190Y+013840
X+014190Y+012840
X+014190Y+011840
X+013190Y+011840
X+012190Y+011840
X+011190Y+011840
X+010190Y+011840
X+009190Y+011840
X+015190Y+011840
X+016190Y+011840
X+017190Y+011840
X+018190Y+011840
X+019190Y+011840
X+020190Y+011840
X+021190Y+011840
X+022190Y+011840
X+023190Y+011840
X+024190Y+011840
X+025190Y+011840
X+026190Y+011840
X+027190Y+011840
X+027190Y+012840
X+028190Y+012840
X+028190Y+011840
X+029190Y+011840
X+030190Y+011840
X+031190Y+011840
X+031190Y+012840
X+032190Y+011840
X+029190Y+012840
T05
X+010690Y+022940
X+009690Y+022940
X+008690Y+022940
X+007690Y+022940
X+006690Y+022940
X+006940Y+018910
X+005940Y+018910
X+004940Y+018910
X+004940Y+016810
X+005940Y+016810
X+006940Y+016810
X+006940Y+014710
X+005940Y+014710
X+004940Y+014710
X+004940Y+012610
X+005940Y+012610
X+006940Y+012610
X+006940Y+010510
X+005940Y+010510
X+004940Y+010510
X+011558Y+009919
X+012558Y+009919
X+013558Y+009919
X+013235Y+025109
X+012235Y+025109
X+012235Y+026109
X+013235Y+026109
X+014235Y+026109
X+014235Y+025109
X+015235Y+025109
X+015235Y+026109
X+016235Y+026109
X+016235Y+025109
X+017235Y+025109
X+017235Y+026109
X+018235Y+026109
X+019235Y+026109
X+020235Y+026109
X+020235Y+025109
X+019235Y+025109
X+018235Y+025109
X+021235Y+025109
X+021235Y+026109
X+022235Y+026109
X+022235Y+025109
X+023235Y+025109
X+024235Y+025109
X+024235Y+026109
X+023235Y+026109
X+025235Y+026109
X+026235Y+026109
X+026235Y+025109
X+027235Y+025109
X+027235Y+026109
X+028235Y+026109
X+029235Y+026109
X+029235Y+025109
X+028235Y+025109
X+025235Y+025109
X+011235Y+025109
X+011235Y+026109
X+010235Y+026109
X+010235Y+025109
T06
X+005206Y+008492
X+006206Y+008492
X+007206Y+008492
X+015963Y+008148
X+018955Y+008148
T07
X+025190Y+023440
X+024190Y+023440
X+023190Y+023440
X+022190Y+023440
X+022190Y+022440
X+023190Y+022440
X+024190Y+022440
X+025190Y+022440
X+016190Y+022440
X+015190Y+022440
X+014190Y+022440
X+013190Y+022440
X+013190Y+023440
X+014190Y+023440
X+015190Y+023440
X+016190Y+023440
T08
X+011240Y+008204
X+013091Y+007023
X+011240Y+005842
T09
X+031153Y+006318
X+031153Y+025609
X+008318Y+025609
X+008318Y+006318
T00
M30
