G04 DipTrace Beta 3.0.9.0*
G04 TeensyArbotixProRPIT3.6V0.3.gbl*
%MOIN*%
G04 #@! TF.FileFunction,Copper,L2,Bot*
G04 #@! TF.Part,Single*
%AMOUTLINE2*5,1,8,0,0,0.065199,-22.499571*%
G04 #@! TA.AperFunction,CopperBalancing*
%ADD13C,0.025*%
G04 #@! TA.AperFunction,Conductor*
%ADD14C,0.02*%
G04 #@! TA.AperFunction,ViaPad*
%ADD15C,0.04*%
G04 #@! TA.AperFunction,Conductor*
%ADD16C,0.023622*%
%ADD17C,0.018*%
%ADD18C,0.019*%
%ADD19C,0.008005*%
%ADD20C,0.08*%
%ADD21C,0.06*%
%ADD22C,0.059055*%
%ADD23C,0.01*%
%ADD25C,0.05*%
%ADD26C,0.03*%
G04 #@! TA.AperFunction,CopperBalancing*
%ADD28C,0.013005*%
%ADD34R,0.059055X0.051181*%
G04 #@! TA.AperFunction,ComponentPad*
%ADD35R,0.059055X0.059055*%
%ADD36C,0.059055*%
%ADD37R,0.074X0.074*%
%ADD38C,0.074*%
%ADD39R,0.068898X0.068898*%
%ADD40C,0.068898*%
%ADD41C,0.15748*%
%ADD44C,0.065199*%
%ADD46C,0.05315*%
%ADD47R,0.074803X0.074803*%
%ADD48C,0.074803*%
%ADD52C,0.06194*%
%ADD54R,0.035433X0.027559*%
%ADD56R,0.023622X0.023622*%
G04 #@! TA.AperFunction,ViaPad*
%ADD58C,0.165*%
G04 #@! TA.AperFunction,ComponentPad*
%ADD121OUTLINE2*%
%FSLAX26Y26*%
G04*
G70*
G90*
G75*
G01*
G04 Bottom*
%LPD*%
X2168561Y944016D2*
D13*
X2268561D1*
X2368561D1*
X2468561D1*
X2568561D1*
X2668561D1*
X2768561D1*
X2868561D1*
X2968561D1*
X3068561D1*
X1074016Y1414016D2*
Y1284475D1*
X1059107D1*
X2168561Y944016D2*
X2028694D1*
X1579781D1*
X1424167Y1099630D1*
X1334485D1*
X2419016Y1431418D2*
Y1576839D1*
X2071193D1*
X1994016Y1654016D1*
X3019016Y1184016D2*
Y1290672D1*
X2860271Y1449418D1*
X2814016D1*
X2796016Y1431418D1*
X2519016D1*
X2814016Y1449418D2*
Y1522041D1*
X2726202D1*
X1059107Y1284475D2*
X1055143Y1301135D1*
X1011545Y1270759D1*
X894002D1*
X858016Y1224016D1*
Y1144016D1*
X901802Y1100230D1*
X1151777D1*
X2519016Y1431418D2*
X2419016D1*
X1819016Y1784016D2*
X1804499Y1769500D1*
X1916196Y1657803D1*
X1994016D1*
Y1654016D1*
X1614036Y1959914D2*
Y1896016D1*
X1664036Y1846016D1*
X1757016D1*
X1819016Y1784016D1*
X1617578Y2061883D2*
X1614036Y2058341D1*
Y1959914D1*
X2726202Y1522041D2*
X2719016D1*
Y1606614D1*
X2726202Y1522041D2*
X2810776Y1606614D1*
X2819016D1*
X2028694Y944016D2*
Y1017302D1*
X2106893Y1095500D1*
X2967696D1*
X3019016Y1184016D1*
X2984667Y2339007D2*
D14*
X2969032Y2191275D1*
X2972895Y2091781D1*
X3174596D1*
X3187225Y1920436D1*
X3167990Y1901201D1*
Y1653601D1*
X2888042D1*
X2871471Y1604943D1*
X2819016Y1606614D1*
X3219016Y1184016D2*
D13*
Y1246016D1*
X3183671Y1281361D1*
Y1377272D1*
X2364696Y1519429D2*
D16*
X1814016D1*
Y1494016D1*
X3189171Y1486538D2*
D13*
X3191184Y1488551D1*
Y1411051D1*
X3183671D1*
Y1377272D1*
X2971452Y1566075D2*
D15*
X2975906Y1561621D1*
X3189171D1*
D16*
Y1486538D1*
X574016Y2054016D2*
D15*
X566562Y2046562D1*
X862051D1*
X854000Y2038511D1*
Y1649197D1*
X862051Y2046562D2*
Y2086038D1*
X460649Y470609D2*
X3233397D1*
Y802555D1*
X854000Y1649197D2*
Y1655725D1*
X1312761D1*
X1337388Y1631099D1*
X1363777D1*
D17*
X1463239D1*
D15*
X1500822D1*
X1583093D1*
X1656201Y1704206D1*
X1750861D1*
X1814016Y1641051D1*
Y1494016D1*
X1500822Y1631099D2*
Y1699492D1*
X1465464Y1734851D1*
D18*
X1374313D1*
D15*
X1349755Y1710293D1*
Y1692719D1*
X1312761Y1655725D1*
X2326777Y1388478D2*
D19*
X2091746Y1281567D1*
X1869988Y1253323D1*
Y1031125D1*
X1658162D1*
X1590862Y1106147D1*
X1465089Y1146969D1*
Y1335981D1*
X1377490D1*
X1341311Y1273318D1*
X1814016Y874016D2*
X1582016D1*
X1410016Y1046016D1*
X1266839D1*
X1128839Y1184016D1*
X1119016D1*
X2174016Y1274016D2*
Y1239960D1*
X1997024D1*
X1919016Y1184016D1*
X2174016Y1634016D2*
X2077412Y1730620D1*
X1894273D1*
X1864016Y1760877D1*
Y1862016D1*
X1845019Y1881013D1*
X1738016D1*
X1720016Y1899013D1*
Y1928016D1*
X1738024Y1946024D1*
X1817008D1*
X1819016Y1944016D1*
X1235420Y2203255D2*
X1250659Y2188016D1*
X1463016D1*
X1519016Y2244016D1*
X1227494Y2006042D2*
X1157467Y1936016D1*
X1159785D1*
X1119016Y1895247D1*
Y1784016D1*
X3119016Y1944016D2*
Y1784016D1*
X2419016Y1184016D2*
Y1356614D1*
X2519016Y1184016D2*
Y1356614D1*
X2474016D1*
Y1294016D1*
X1974016Y1834016D2*
X3056016D1*
X3073587Y1816445D1*
Y1698236D1*
X2819016Y1784016D2*
Y1681418D1*
X1517578Y2061883D2*
X1514642Y2058948D1*
Y2111667D1*
X1370154D1*
Y1945765D1*
X1321281Y1896893D1*
X1245481D1*
X1172465Y1823877D1*
Y1718385D1*
X917513D1*
Y1782513D1*
X919016Y1784016D1*
X1514036Y1959914D2*
X1574836Y1899113D1*
Y1696021D1*
X1524506Y1474886D2*
X1512439Y1455357D1*
Y1426180D1*
X1372024D1*
X1361082Y1415238D1*
Y1354149D1*
X1271726Y1264793D1*
X1235852Y1235282D1*
X1087555Y1233110D1*
X1070221Y1211908D1*
Y1136231D1*
X1066572Y1132583D1*
X942568D1*
X919016Y1156135D1*
Y1184016D1*
X1019016D2*
X1055431Y1234425D1*
X1085179Y1255319D1*
X1215282Y1257780D1*
X1322453Y1405264D1*
X1469120Y1835448D2*
X1414036Y1959914D1*
X2719016Y1784016D2*
Y1681418D1*
X2519016Y1784016D2*
X2469016Y1734016D1*
X2174016D1*
X2419016Y1944016D2*
X2469016Y1994016D1*
X2674016D1*
X2319016Y1944016D2*
X2389016Y1874016D1*
X3074016D1*
X2994016Y2574016D2*
X2976016Y2556016D1*
X2766016D1*
Y2404016D1*
X2748016Y2386016D1*
X2680016D1*
X2662016Y2368016D1*
Y2287016D1*
X2619016Y2244016D1*
X2219016Y1944016D2*
X2173016Y1898016D1*
X1770016D1*
X1754016Y1914016D1*
X694016Y1051023D2*
X742015D1*
X780729Y1012309D1*
X1062016D1*
X1082464Y991861D1*
X1155788D1*
X494016Y1891023D2*
D20*
Y1681023D1*
Y1555212D1*
Y1471023D1*
Y1261023D1*
Y1051023D1*
X497176Y1054183D1*
Y945612D1*
X823776D1*
X1124016Y584170D1*
X1309055Y702280D1*
X1355788Y991861D1*
X1309055Y702280D2*
D21*
X1367509Y601754D1*
X1736401D1*
X2259582D1*
Y624852D1*
X2936819D1*
X2963349Y784717D1*
D22*
X2968561Y844016D1*
X2168561D2*
X2268561D1*
X2368561D1*
X2468561D1*
X2568561D1*
X2668561D1*
X2768561D1*
X2868561D1*
X2968561D1*
X2419016Y2144016D2*
X2519016D1*
X2619016D1*
X2719016D1*
X2819016D1*
X2919016D1*
X3019016D2*
X3054667D1*
X3119016D1*
X3175033Y2158754D1*
D21*
X3241534Y2135512D1*
Y1984516D1*
Y1784016D1*
X3219016D1*
X3054667Y2339007D2*
Y2144016D1*
X2923544Y2510945D2*
X3030547Y2453242D1*
X3054667Y2339007D1*
X494016Y1891023D2*
X508176Y2114416D1*
X865826Y2197240D1*
X869016Y2213807D1*
Y2294016D1*
X969016D1*
X1423544Y2510945D2*
X1415549D1*
Y2419777D1*
X969016D1*
Y2294016D1*
Y2419777D2*
D17*
X955433Y2564660D1*
X1159376D1*
X1223544Y2610945D1*
X1317578Y2061883D2*
D22*
X1315511Y2002391D1*
X1314036Y1959914D1*
X869016Y2213807D2*
D21*
X1033331Y2162529D1*
X1117272Y2072213D1*
X1258129Y2064949D1*
D22*
X1317578Y2061883D1*
X2968561Y844016D2*
D21*
X3068561D1*
X3219016Y1784016D2*
D13*
X3211957Y1617691D1*
X2924566D1*
Y1508170D1*
X3031903Y1486481D1*
X3069969Y1344419D1*
D14*
Y1142491D1*
D13*
X3161722Y1050738D1*
Y858271D1*
X3068561Y844016D1*
X494016Y1555212D2*
D25*
X761727Y1545988D1*
X965542Y1513146D1*
X1067297Y1521351D1*
X1143137Y1527532D1*
X1255328Y1536330D1*
X1298437Y1469370D1*
X1419016Y1484016D1*
X1067297Y1528301D2*
D26*
Y1521351D1*
X1143137Y1522352D2*
D23*
Y1527532D1*
X2007654Y1311628D2*
X1827635Y1301969D1*
X1819016Y1184016D1*
X761727Y1545988D2*
X742973Y1454025D1*
X735961Y1334807D1*
X752668Y1294814D1*
X865697Y1306756D1*
X919462Y1316107D1*
X3068561Y844016D2*
D14*
X3268509D1*
Y1984516D1*
X3241534D1*
X1674016Y1647255D2*
D19*
Y1132016D1*
X1725760Y1080272D1*
X1789302D1*
X2474016Y1234016D2*
Y1137202D1*
X2093660D1*
X1951882Y995424D1*
X1589053D1*
X1450461Y1134016D1*
X1369016D1*
X1319016Y1184016D1*
X2834016Y2394016D2*
X2919667D1*
Y2339007D1*
X1651370Y733991D2*
X2454016D1*
Y754016D1*
X2723544Y2510945D2*
Y2468016D1*
X2705544Y2450016D1*
X2638016D1*
X2619016Y2431016D1*
Y2344016D1*
X2823544Y2510945D2*
X2784016D1*
Y2362016D1*
X2766016Y2344016D1*
X2719016D1*
X1423544Y2610945D2*
X1468016D1*
Y2393016D1*
X1419016Y2344016D1*
X1523544Y2510945D2*
Y2466016D1*
X1541544Y2448016D1*
X1600016D1*
X1619016Y2429016D1*
Y2344016D1*
X2256789Y2072171D2*
X2176016D1*
X2131789D1*
X1881789D2*
X1784016D1*
X1766016Y2090171D1*
Y2466355D1*
X1810607Y2510945D1*
X1823544D1*
X2006789Y2072171D2*
X1881789D1*
X2131789D2*
X2006789D1*
X1819016Y2344016D2*
Y2426016D1*
X1858466Y2465466D1*
X2023544D1*
Y2510945D1*
X1919016Y2344016D2*
X1912324D1*
Y2394229D1*
X1952719Y2434624D1*
X2123544D1*
Y2510945D1*
X2323544D2*
X2366016D1*
Y2397016D1*
X2419016Y2344016D1*
X2430302D1*
X2368925Y2282639D1*
Y2208789D1*
X2354868Y2194731D1*
X2131789D1*
Y2146974D1*
X2323544Y2610945D2*
Y2554016D1*
X2466016D1*
Y2344016D1*
X2519016D1*
X2466016Y2291016D1*
Y2206016D1*
X2449902Y2189902D1*
X2393507D1*
X2372255Y2168650D1*
Y2149331D1*
X2256789D1*
Y2146974D1*
X1123544Y2510945D2*
X1166914Y2464481D1*
X1371391D1*
Y2657788D1*
X2176344D1*
Y2421893D1*
X2219016Y2344016D1*
X1881789Y2146974D2*
X1865100Y2209260D1*
Y2290609D1*
X1970315D1*
Y2398793D1*
X2190393D1*
X2219016Y2344016D1*
X2006789Y2146974D2*
X2062016D1*
Y2293047D1*
X2310961D1*
Y2409805D1*
X2270248D1*
Y2674788D1*
X1268016D1*
Y2510945D1*
X1223544D1*
X2310961Y2409805D2*
X2313356Y2407410D1*
Y2344016D1*
X2319016D1*
X594016Y1051023D2*
D20*
Y1261023D1*
Y1471023D1*
Y1681023D2*
Y1891023D1*
X794016Y1614016D2*
D21*
X768016Y1640016D1*
Y1974016D1*
X674016D1*
X795655Y1348386D2*
D23*
Y1448957D1*
X1018957D1*
X1044016Y1474016D1*
X1115877D1*
X1134016Y1442151D1*
X1134055Y1288534D1*
X794016Y1454016D2*
D21*
X802985Y1429047D1*
Y1418263D1*
X795655Y1386016D1*
Y1348386D1*
X2419016Y2044016D2*
D15*
X2519016D1*
X2619016D1*
X2719016D1*
X2819016D1*
X2919016D1*
X3019016D1*
X3119016D1*
X2419016D2*
X2332205Y2019820D1*
X1717714Y2012042D1*
Y2153746D1*
X1127578D1*
X1069016Y2294016D1*
X3119016Y1284016D2*
D14*
Y1330016D1*
X3132490Y1343490D1*
Y1377272D1*
X3102557Y1486538D2*
D13*
X3132490Y1456605D1*
Y1377272D1*
D15*
X862051Y2086038D3*
X460649Y470609D3*
X3233397Y802555D3*
X2326777Y1388478D3*
X1341311Y1273318D3*
X1574836Y1696021D3*
X1524506Y1474886D3*
X1322453Y1405264D3*
X1469120Y1835448D3*
X1736401Y601754D3*
X2259582D3*
X1067297Y1528301D3*
X1143137Y1522352D3*
X2007654Y1311628D3*
X919462Y1316107D3*
D58*
X3115276Y631811D3*
X831811D3*
Y2560945D3*
X3115276D3*
D15*
X1151777Y1100230D3*
X1334485Y1099630D3*
X1074016Y1414016D3*
X1994016Y1654016D3*
X1059107Y1284475D3*
X2726202Y1522041D3*
X574016Y2054016D3*
X1814016Y1494016D3*
X2364696Y1519429D3*
X2971452Y1566075D3*
X854000Y1649197D3*
X1814016Y874016D3*
X2174016Y1274016D3*
Y1634016D3*
X1235420Y2203255D3*
X1227494Y2006042D3*
X2474016Y1294016D3*
X3073587Y1698236D3*
X1974016Y1834016D3*
X2174016Y1734016D3*
X2674016Y1994016D3*
X3074016Y1874016D3*
X2994016Y2574016D3*
X1754016Y1914016D3*
X1789302Y1080272D3*
X1674016Y1647255D3*
X2474016Y1234016D3*
X2834016Y2394016D3*
X2454016Y754016D3*
X1651370Y733991D3*
X795655Y1348386D3*
X1134055Y1288534D3*
X674016Y1974016D3*
X794016Y1614016D3*
Y1454016D3*
X427046Y2638642D2*
D13*
X754321D1*
X909321D2*
X970483D1*
X3192768D2*
X3261011D1*
X427046Y2613773D2*
X735132D1*
X928511D2*
X965454D1*
X3211958D2*
X3261011D1*
X427046Y2588904D2*
X724975D1*
X938618D2*
X967309D1*
X3222065D2*
X3261011D1*
X427046Y2564036D2*
X721362D1*
X942280D2*
X989331D1*
X1157759D2*
X1189331D1*
X3225727D2*
X3261011D1*
X427046Y2539167D2*
X723559D1*
X940083D2*
X970874D1*
X3223530D2*
X3261011D1*
X427046Y2514298D2*
X731909D1*
X931733D2*
X965454D1*
X2981636D2*
X3015356D1*
X3215180D2*
X3261011D1*
X427046Y2489429D2*
X748413D1*
X915229D2*
X967114D1*
X2979975D2*
X3031860D1*
X3198677D2*
X3261011D1*
X427046Y2464561D2*
X780591D1*
X883003D2*
X988794D1*
X1058296D2*
X1088794D1*
X2858296D2*
X2888794D1*
X2958296D2*
X3064087D1*
X3166499D2*
X3261011D1*
X427046Y2439692D2*
X1148462D1*
X1389839D2*
X1436011D1*
X2816011D2*
X3261011D1*
X427046Y2414823D2*
X1436011D1*
X2943061D2*
X3261011D1*
X427046Y2389954D2*
X1278003D1*
X1360005D2*
X1378003D1*
X2951655D2*
X2971411D1*
X2997895D2*
X3041430D1*
X3067915D2*
X3106421D1*
X3132905D2*
X3261011D1*
X427046Y2365086D2*
X1260376D1*
X3167231D2*
X3261011D1*
X427046Y2340217D2*
X624438D1*
X1134028D2*
X1256714D1*
X2806391D2*
X2865112D1*
X3174214D2*
X3261011D1*
X427046Y2315348D2*
X607788D1*
X1134028D2*
X1263891D1*
X2776557D2*
X2870776D1*
X3168550D2*
X3261011D1*
X427046Y2290479D2*
X604126D1*
X1134028D2*
X1278637D1*
X2776557D2*
X2898315D1*
X3017719D2*
X3033286D1*
X3076020D2*
X3098315D1*
X3141059D2*
X3261011D1*
X427046Y2265610D2*
X610864D1*
X1134028D2*
X1260620D1*
X2772114D2*
X2938696D1*
X3015083D2*
X3261011D1*
X427046Y2240742D2*
X633862D1*
X704194D2*
X733862D1*
X804194D2*
X833862D1*
X904194D2*
X933862D1*
X1143061D2*
X1207153D1*
X2776460D2*
X2936108D1*
X3012446D2*
X3261011D1*
X427046Y2215873D2*
X1049878D1*
X1153413D2*
X1189233D1*
X2768794D2*
X2933471D1*
X3009809D2*
X3261011D1*
X427046Y2191004D2*
X1060229D1*
X2550141D2*
X2587866D1*
X2650141D2*
X2687866D1*
X2750141D2*
X2787866D1*
X2850141D2*
X2887866D1*
X3050141D2*
X3087866D1*
X3150141D2*
X3261011D1*
X427046Y2166135D2*
X1070630D1*
X3171919D2*
X3261011D1*
X427046Y2141267D2*
X1080981D1*
X3176460D2*
X3261011D1*
X427046Y2116398D2*
X825659D1*
X898432D2*
X1099145D1*
X2314302D2*
X2368921D1*
X3202632D2*
X3261011D1*
X427046Y2091529D2*
X545776D1*
X909712D2*
X1268725D1*
X2314302D2*
X2361499D1*
X2549262D2*
X2588745D1*
X2649262D2*
X2688745D1*
X2749262D2*
X2788745D1*
X2849262D2*
X2888745D1*
X3212690D2*
X3261011D1*
X427046Y2066660D2*
X523266D1*
X910053D2*
X1260278D1*
X2314302D2*
X2328344D1*
X3214546D2*
X3261011D1*
X427046Y2041792D2*
X518823D1*
X909761D2*
X1196850D1*
X3216352D2*
X3261011D1*
X427046Y2016923D2*
X529565D1*
X901997D2*
X1180835D1*
X3218208D2*
X3261011D1*
X427046Y1992054D2*
X619067D1*
X901997D2*
X1169311D1*
X3220014D2*
X3261011D1*
X427046Y1967185D2*
X616479D1*
X901997D2*
X1144458D1*
X3221870D2*
X3261011D1*
X427046Y1942317D2*
X464233D1*
X523774D2*
X550805D1*
X901997D2*
X1121899D1*
X1207954D2*
X1259399D1*
X3223677D2*
X3261011D1*
X427046Y1917448D2*
X439753D1*
X901997D2*
X1096997D1*
X1185200D2*
X1221850D1*
X3225093D2*
X3261011D1*
X901997Y1892579D2*
X1087036D1*
X1160542D2*
X1196948D1*
X3212055D2*
X3261011D1*
X901997Y1867710D2*
X1087036D1*
X1151020D2*
X1172094D1*
X3205952D2*
X3261011D1*
X427046Y1842841D2*
X459057D1*
X901997D2*
X1087036D1*
X3205952D2*
X3261011D1*
X427046Y1817973D2*
X526050D1*
X427046Y1793104D2*
X526050D1*
X427046Y1768235D2*
X526050D1*
X427046Y1743366D2*
X526050D1*
X427046Y1718498D2*
X447143D1*
X3205952D2*
X3261011D1*
X3205952Y1693629D2*
X3261011D1*
X3205952Y1668760D2*
X3261011D1*
X427046Y1643891D2*
X446875D1*
X1721870D2*
X1744360D1*
X3204634D2*
X3261011D1*
X427046Y1619023D2*
X570434D1*
X617573D2*
X714136D1*
X1712202D2*
X1766040D1*
X3178462D2*
X3261011D1*
X427046Y1594154D2*
X732934D1*
X848335D2*
X1308374D1*
X1612104D2*
X1642016D1*
X1706001D2*
X1766040D1*
X2907759D2*
X2933178D1*
X3223432D2*
X3261011D1*
X427046Y1569285D2*
X758716D1*
X829341D2*
X1361987D1*
X1476020D2*
X1642016D1*
X1706001D2*
X1766040D1*
X2876557D2*
X2923559D1*
X3236518D2*
X3261011D1*
X427046Y1544416D2*
X1376245D1*
X1461762D2*
X1642016D1*
X1706001D2*
X1766040D1*
X2847212D2*
X2928930D1*
X3233784D2*
X3261011D1*
X427046Y1519547D2*
X459594D1*
X528462D2*
X547534D1*
X640473D2*
X659594D1*
X728462D2*
X1372632D1*
X1465376D2*
X1513354D1*
X1535676D2*
X1642016D1*
X1706001D2*
X1766040D1*
X2854487D2*
X2956128D1*
X3228999D2*
X3261011D1*
X834272Y1494679D2*
X1019067D1*
X1140766D2*
X1361059D1*
X1567964D2*
X1642016D1*
X1706001D2*
X1766040D1*
X2854487D2*
X3062768D1*
X3231147D2*
X3261011D1*
X1155854Y1469810D2*
X1361889D1*
X1572212D2*
X1642016D1*
X1706001D2*
X1772973D1*
X1855024D2*
X2361499D1*
X2896089D2*
X3062768D1*
X3231684D2*
X3261011D1*
X427046Y1444941D2*
X439558D1*
X1166889D2*
X1297680D1*
X1561274D2*
X1642016D1*
X1706001D2*
X2361499D1*
X2920942D2*
X3087964D1*
X3231684D2*
X3261011D1*
X427046Y1420072D2*
X463598D1*
X1166987D2*
X1276928D1*
X1543794D2*
X1642016D1*
X1706001D2*
X2291528D1*
X2945844D2*
X3092016D1*
X3231684D2*
X3261011D1*
X427046Y1395204D2*
X526050D1*
X1166987D2*
X1275561D1*
X1476850D2*
X1642016D1*
X1706001D2*
X2267846D1*
X2970698D2*
X3086792D1*
X3229389D2*
X3261011D1*
X427046Y1370335D2*
X526050D1*
X1167036D2*
X1258130D1*
X1476313D2*
X1642016D1*
X1706001D2*
X2213159D1*
X2995552D2*
X3086792D1*
X3229389D2*
X3261011D1*
X427046Y1345466D2*
X526050D1*
X1167036D2*
X1240063D1*
X1495503D2*
X1642016D1*
X1706001D2*
X2158520D1*
X3020454D2*
X3084594D1*
X3229389D2*
X3261011D1*
X427046Y1320597D2*
X526050D1*
X1168843D2*
X1221997D1*
X1497065D2*
X1642016D1*
X1706001D2*
X2103833D1*
X3045307D2*
X3073511D1*
X3224165D2*
X3261011D1*
X427046Y1295729D2*
X444924D1*
X1181489D2*
X1203930D1*
X1497065D2*
X1642016D1*
X1706001D2*
X1967065D1*
X3225532D2*
X3261011D1*
X1497065Y1270860D2*
X1642016D1*
X1706001D2*
X1843774D1*
X1497065Y1245991D2*
X1642016D1*
X1706001D2*
X1838012D1*
X3059516D2*
X3074780D1*
X427046Y1221122D2*
X449292D1*
X427046Y1196254D2*
X526050D1*
X427046Y1171385D2*
X526050D1*
X427046Y1146516D2*
X526050D1*
X427046Y1121647D2*
X526050D1*
X1728559D2*
X1767895D1*
X1810737D2*
X1838012D1*
X3029243D2*
X3261011D1*
X427046Y1096778D2*
X455737D1*
X3014839D2*
X3050464D1*
X3086665D2*
X3261011D1*
X3118501Y1071910D2*
X3261011D1*
X3126020Y1047041D2*
X3261011D1*
X427046Y1022172D2*
X441119D1*
X3121577D2*
X3261011D1*
X427046Y997303D2*
X469409D1*
X518647D2*
X554077D1*
X633979D2*
X669409D1*
X718647D2*
X751538D1*
X3126069D2*
X3261011D1*
X427046Y972435D2*
X1057690D1*
X1413032D2*
X1439380D1*
X3126069D2*
X3261011D1*
X427046Y947566D2*
X1115698D1*
X1195893D2*
X1215698D1*
X1295893D2*
X1315698D1*
X1395893D2*
X1464282D1*
X3126069D2*
X3261011D1*
X427046Y922697D2*
X1101587D1*
X1146479D2*
X1489136D1*
X3126069D2*
X3261011D1*
X427046Y897828D2*
X455151D1*
X662983D2*
X678149D1*
X762983D2*
X1051733D1*
X1196284D2*
X1513989D1*
X1855268D2*
X2136157D1*
X2200971D2*
X2236157D1*
X2300971D2*
X2336157D1*
X2400971D2*
X2436157D1*
X2500971D2*
X2536157D1*
X2800971D2*
X2836157D1*
X2900971D2*
X2936157D1*
X3126069D2*
X3261011D1*
X427046Y872960D2*
X455151D1*
X781294D2*
X1031518D1*
X1216548D2*
X1530932D1*
X1921919D2*
X2119262D1*
X3117866D2*
X3261011D1*
X427046Y848091D2*
X455151D1*
X785932D2*
X1021020D1*
X1226997D2*
X1530932D1*
X1951362D2*
X2111206D1*
X3125923D2*
X3261011D1*
X427046Y823222D2*
X455151D1*
X780317D2*
X1017309D1*
X1230708D2*
X1530932D1*
X1960346D2*
X2115112D1*
X3122016D2*
X3190356D1*
X427046Y798353D2*
X455151D1*
X660053D2*
X681079D1*
X760053D2*
X1019653D1*
X1228413D2*
X1266137D1*
X1351997D2*
X1530932D1*
X1958735D2*
X2135376D1*
X2201753D2*
X2235376D1*
X2301753D2*
X2335376D1*
X2401753D2*
X2435376D1*
X2501753D2*
X2535376D1*
X2601753D2*
X2635376D1*
X2701753D2*
X2735376D1*
X2801753D2*
X2835376D1*
X2901753D2*
X2935376D1*
X3001753D2*
X3035376D1*
X3101753D2*
X3185425D1*
X427046Y773485D2*
X1028442D1*
X1387690D2*
X1530932D1*
X1945454D2*
X2410376D1*
X2497651D2*
X3185425D1*
X427046Y748616D2*
X1045923D1*
X1404927D2*
X1605786D1*
X2501704D2*
X3185425D1*
X427046Y723747D2*
X772632D1*
X890962D2*
X1082446D1*
X1165571D2*
X1204565D1*
X1413569D2*
X1604565D1*
X2490473D2*
X3056128D1*
X427046Y698878D2*
X744653D1*
X918940D2*
X1202368D1*
X1415718D2*
X1619946D1*
X1682807D2*
X3028149D1*
X427046Y674009D2*
X729907D1*
X933735D2*
X1068677D1*
X1179389D2*
X1206225D1*
X1411860D2*
X3013354D1*
X427046Y649141D2*
X722729D1*
X940913D2*
X1040014D1*
X1401216D2*
X3006177D1*
X427046Y624272D2*
X721557D1*
X942036D2*
X1025317D1*
X1222749D2*
X1237427D1*
X1380708D2*
X3005053D1*
X427046Y599403D2*
X726294D1*
X937348D2*
X1018384D1*
X1229634D2*
X1289770D1*
X1328315D2*
X3009741D1*
X427046Y574534D2*
X737768D1*
X925874D2*
X1017749D1*
X1230317D2*
X3021216D1*
X427046Y549666D2*
X759204D1*
X904438D2*
X1023169D1*
X1224897D2*
X3042651D1*
X427046Y524797D2*
X814770D1*
X848823D2*
X1035864D1*
X1212202D2*
X3098266D1*
X3132270D2*
X3185425D1*
X2545650Y894037D2*
X2539812Y897102D1*
X2532826Y902177D1*
X2528795Y906039D1*
X2508356Y906021D1*
X2500902Y899502D1*
X2493540Y894991D1*
X2491471Y894037D1*
X2497704Y890686D1*
X2503775Y886293D1*
X2509194Y881116D1*
X2513858Y875250D1*
X2517682Y868805D1*
X2518552Y866981D1*
X2522663Y874361D1*
X2527212Y880317D1*
X2532528Y885599D1*
X2538513Y890109D1*
X2545599Y894007D1*
X2445650Y894037D2*
X2439812Y897102D1*
X2432826Y902177D1*
X2428795Y906039D1*
X2408356Y906021D1*
X2400902Y899502D1*
X2393540Y894991D1*
X2391471Y894037D1*
X2397704Y890686D1*
X2403775Y886293D1*
X2409194Y881116D1*
X2413858Y875250D1*
X2417682Y868805D1*
X2418552Y866981D1*
X2422663Y874361D1*
X2427212Y880317D1*
X2432528Y885599D1*
X2438513Y890109D1*
X2445599Y894007D1*
X2439675Y797198D2*
X2433072Y801968D1*
X2427687Y807181D1*
X2423061Y813077D1*
X2418570Y821059D1*
X2414260Y813373D1*
X2409673Y807447D1*
X2404322Y802200D1*
X2398308Y797728D1*
X2391742Y794115D1*
X2384746Y791428D1*
X2377450Y789717D1*
X2369989Y789012D1*
X2362502Y789328D1*
X2355127Y790659D1*
X2348001Y792979D1*
X2341256Y796247D1*
X2335018Y800400D1*
X2329403Y805362D1*
X2324513Y811042D1*
X2320441Y817333D1*
X2318570Y821059D1*
X2314260Y813373D1*
X2309673Y807447D1*
X2304322Y802200D1*
X2298308Y797728D1*
X2291742Y794115D1*
X2284746Y791428D1*
X2277450Y789717D1*
X2269989Y789012D1*
X2262502Y789328D1*
X2255127Y790659D1*
X2248001Y792979D1*
X2241256Y796247D1*
X2235018Y800400D1*
X2229403Y805362D1*
X2224513Y811042D1*
X2220441Y817333D1*
X2218570Y821059D1*
X2214260Y813373D1*
X2209673Y807447D1*
X2204322Y802200D1*
X2198308Y797728D1*
X2191742Y794115D1*
X2184746Y791428D1*
X2177450Y789717D1*
X2169989Y789012D1*
X2162502Y789328D1*
X2155127Y790659D1*
X2148001Y792979D1*
X2141256Y796247D1*
X2135018Y800400D1*
X2129403Y805362D1*
X2124513Y811042D1*
X2120441Y817333D1*
X2117262Y824120D1*
X2115034Y831275D1*
X2113799Y838667D1*
X2113580Y846158D1*
X2114381Y853609D1*
X2116187Y860882D1*
X2118965Y867843D1*
X2122663Y874361D1*
X2127212Y880317D1*
X2132528Y885599D1*
X2138513Y890109D1*
X2145599Y894007D1*
X2139812Y897102D1*
X2132826Y902177D1*
X2128795Y906039D1*
X1846321Y906021D1*
X1850822Y900757D1*
X1854552Y894670D1*
X1857284Y888075D1*
X1858951Y881133D1*
X1859511Y874016D1*
X1858730Y865790D1*
X1866975Y870818D1*
X1876093Y874595D1*
X1885690Y876899D1*
X1895529Y877673D1*
X1905368Y876899D1*
X1914965Y874595D1*
X1924083Y870818D1*
X1932499Y865661D1*
X1940004Y859252D1*
X1946413Y851747D1*
X1951570Y843331D1*
X1955347Y834213D1*
X1957651Y824616D1*
X1958425Y814777D1*
X1957651Y804938D1*
X1955347Y795341D1*
X1951570Y786223D1*
X1946413Y777808D1*
X1940004Y770303D1*
X1931873Y763475D1*
X2409525Y763489D1*
X2411984Y771426D1*
X2415225Y777787D1*
X2419422Y783562D1*
X2424470Y788610D1*
X2430245Y792807D1*
X2436606Y796048D1*
X2439682Y797183D1*
X2345650Y894037D2*
X2339812Y897102D1*
X2332826Y902177D1*
X2328795Y906039D1*
X2308356Y906021D1*
X2300902Y899502D1*
X2293540Y894991D1*
X2291471Y894037D1*
X2297704Y890686D1*
X2303775Y886293D1*
X2309194Y881116D1*
X2313858Y875250D1*
X2317682Y868805D1*
X2318552Y866981D1*
X2322663Y874361D1*
X2327212Y880317D1*
X2332528Y885599D1*
X2338513Y890109D1*
X2345599Y894007D1*
X2245650Y894037D2*
X2239812Y897102D1*
X2232826Y902177D1*
X2228795Y906039D1*
X2208356Y906021D1*
X2200902Y899502D1*
X2193540Y894991D1*
X2191471Y894037D1*
X2197704Y890686D1*
X2203775Y886293D1*
X2209194Y881116D1*
X2213858Y875250D1*
X2217682Y868805D1*
X2218552Y866981D1*
X2222663Y874361D1*
X2227212Y880317D1*
X2232528Y885599D1*
X2238513Y890109D1*
X2245599Y894007D1*
X2945650Y894037D2*
X2939812Y897102D1*
X2932826Y902177D1*
X2928795Y906039D1*
X2908356Y906021D1*
X2900902Y899502D1*
X2893540Y894991D1*
X2891471Y894037D1*
X2897704Y890686D1*
X2903775Y886293D1*
X2909194Y881116D1*
X2913858Y875250D1*
X2917682Y868805D1*
X2918552Y866981D1*
X2922663Y874361D1*
X2927212Y880317D1*
X2932528Y885599D1*
X2938513Y890109D1*
X2945599Y894007D1*
X2845650Y894037D2*
X2839812Y897102D1*
X2832826Y902177D1*
X2828795Y906039D1*
X2808356Y906021D1*
X2800902Y899502D1*
X2793540Y894991D1*
X2791471Y894037D1*
X2797704Y890686D1*
X2803775Y886293D1*
X2809194Y881116D1*
X2813858Y875250D1*
X2817682Y868805D1*
X2818552Y866981D1*
X2822663Y874361D1*
X2827212Y880317D1*
X2832528Y885599D1*
X2838513Y890109D1*
X2845599Y894007D1*
X2376494Y2099038D2*
X2387285D1*
X2379858Y2105362D1*
X2374969Y2111042D1*
X2370896Y2117333D1*
X2369597Y2119838D1*
X2311854Y2119834D1*
X2311811Y2065004D1*
X2325732Y2065237D1*
X2363969Y2075902D1*
X2363994Y2099038D1*
X2376494D1*
X2541927Y2093995D2*
X2547765Y2090930D1*
X2549912Y2089496D1*
X2588108Y2089511D1*
X2596105Y2093995D1*
X2589570Y2097536D1*
X2583527Y2101968D1*
X2578143Y2107181D1*
X2573516Y2113077D1*
X2569026Y2121059D1*
X2564716Y2113373D1*
X2560128Y2107447D1*
X2554777Y2102200D1*
X2548763Y2097728D1*
X2541974Y2094018D1*
X2547328Y2191180D2*
X2554231Y2186293D1*
X2559649Y2181116D1*
X2564314Y2175250D1*
X2568138Y2168805D1*
X2569007Y2166981D1*
X2573118Y2174361D1*
X2577667Y2180317D1*
X2582984Y2185599D1*
X2588968Y2190109D1*
X2596055Y2194007D1*
X2590267Y2197102D1*
X2583282Y2202177D1*
X2577177Y2208282D1*
X2571863Y2215694D1*
X2567511Y2208782D1*
X2561403Y2201629D1*
X2554250Y2195521D1*
X2547305Y2191208D1*
X2641927Y2093995D2*
X2647765Y2090930D1*
X2649912Y2089496D1*
X2688108Y2089511D1*
X2696105Y2093995D1*
X2689570Y2097536D1*
X2683527Y2101968D1*
X2678143Y2107181D1*
X2673516Y2113077D1*
X2669026Y2121059D1*
X2664716Y2113373D1*
X2660128Y2107447D1*
X2654777Y2102200D1*
X2648763Y2097728D1*
X2641974Y2094018D1*
X2641979Y2194008D2*
X2648159Y2190686D1*
X2654231Y2186293D1*
X2659649Y2181116D1*
X2664314Y2175250D1*
X2668138Y2168805D1*
X2669007Y2166981D1*
X2673118Y2174361D1*
X2677667Y2180317D1*
X2682984Y2185599D1*
X2688968Y2190109D1*
X2696055Y2194007D1*
X2690267Y2197102D1*
X2683282Y2202177D1*
X2677177Y2208282D1*
X2672102Y2215267D1*
X2669037Y2221105D1*
X2665930Y2215267D1*
X2660855Y2208282D1*
X2654750Y2202177D1*
X2647765Y2197102D1*
X2641927Y2194037D1*
X2741927Y2093995D2*
X2747765Y2090930D1*
X2749912Y2089496D1*
X2788108Y2089511D1*
X2796105Y2093995D1*
X2789570Y2097536D1*
X2783527Y2101968D1*
X2778143Y2107181D1*
X2773516Y2113077D1*
X2769026Y2121059D1*
X2764716Y2113373D1*
X2760128Y2107447D1*
X2754777Y2102200D1*
X2748763Y2097728D1*
X2741974Y2094018D1*
X2741979Y2194008D2*
X2748159Y2190686D1*
X2754231Y2186293D1*
X2759649Y2181116D1*
X2764314Y2175250D1*
X2768138Y2168805D1*
X2769007Y2166981D1*
X2773118Y2174361D1*
X2777667Y2180317D1*
X2782984Y2185599D1*
X2788968Y2190109D1*
X2795510Y2193765D1*
X2802489Y2196497D1*
X2809774Y2198256D1*
X2817230Y2199009D1*
X2824719Y2198742D1*
X2832103Y2197459D1*
X2839244Y2195185D1*
X2846009Y2191962D1*
X2852274Y2187849D1*
X2857922Y2182923D1*
X2862848Y2177276D1*
X2866961Y2171011D1*
X2869007Y2166981D1*
X2873118Y2174361D1*
X2877667Y2180317D1*
X2882984Y2185599D1*
X2888968Y2190109D1*
X2895510Y2193765D1*
X2902489Y2196497D1*
X2909774Y2198256D1*
X2917230Y2199009D1*
X2924719Y2198742D1*
X2933960Y2196959D1*
X2944110Y2293047D1*
X2935757Y2289486D1*
X2927812Y2287578D1*
X2919667Y2286937D1*
X2911521Y2287578D1*
X2903577Y2289486D1*
X2896028Y2292613D1*
X2889061Y2296882D1*
X2882848Y2302188D1*
X2877542Y2308401D1*
X2873273Y2315368D1*
X2870146Y2322916D1*
X2868238Y2330861D1*
X2867597Y2339007D1*
X2868238Y2347152D1*
X2870146Y2355097D1*
X2873273Y2362646D1*
X2874326Y2364527D1*
X2868610Y2364470D1*
X2863562Y2359422D1*
X2857787Y2355225D1*
X2851426Y2351984D1*
X2844637Y2349778D1*
X2837585Y2348661D1*
X2830447D1*
X2823395Y2349778D1*
X2816606Y2351984D1*
X2812400Y2354019D1*
X2810298Y2348624D1*
X2806446Y2342859D1*
X2785173Y2321586D1*
X2779408Y2317734D1*
X2774739Y2315852D1*
X2774038Y2311538D1*
Y2288994D1*
X2750747D1*
X2757923Y2282923D1*
X2763530Y2276357D1*
X2768041Y2268996D1*
X2771345Y2261019D1*
X2773361Y2252623D1*
X2774038Y2244016D1*
X2773361Y2235409D1*
X2771345Y2227013D1*
X2768041Y2219036D1*
X2763530Y2211675D1*
X2757923Y2205109D1*
X2751357Y2199502D1*
X2743996Y2194991D1*
X2741927Y2194037D1*
X2841927Y2093995D2*
X2847765Y2090930D1*
X2849912Y2089496D1*
X2888108Y2089511D1*
X2896105Y2093995D1*
X2889570Y2097536D1*
X2883527Y2101968D1*
X2878143Y2107181D1*
X2873516Y2113077D1*
X2869026Y2121059D1*
X2864716Y2113373D1*
X2860128Y2107447D1*
X2854777Y2102200D1*
X2848763Y2097728D1*
X2841974Y2094018D1*
X3005355Y2197306D2*
X3012247Y2198620D1*
X3019729Y2199034D1*
X3027199Y2198426D1*
X3034517Y2196810D1*
X3041547Y2194214D1*
X3048159Y2190686D1*
X3054231Y2186293D1*
X3059649Y2181116D1*
X3064314Y2175250D1*
X3068138Y2168805D1*
X3069007Y2166981D1*
X3073118Y2174361D1*
X3077667Y2180317D1*
X3082984Y2185599D1*
X3088968Y2190109D1*
X3095510Y2193765D1*
X3102489Y2196497D1*
X3109774Y2198256D1*
X3117230Y2199009D1*
X3124719Y2198742D1*
X3132103Y2197459D1*
X3139244Y2195185D1*
X3146009Y2191962D1*
X3152274Y2187849D1*
X3157922Y2182923D1*
X3162848Y2177276D1*
X3166961Y2171011D1*
X3170185Y2164245D1*
X3172459Y2157105D1*
X3173742Y2149721D1*
X3173982Y2141517D1*
X3173132Y2134071D1*
X3171418Y2127267D1*
X3180149Y2126839D1*
X3185565Y2125539D1*
X3190710Y2123407D1*
X3195459Y2120497D1*
X3199695Y2116880D1*
X3203312Y2112644D1*
X3206222Y2107895D1*
X3208354Y2102750D1*
X3209654Y2097334D1*
X3215508Y2019593D1*
X3222719Y1920260D1*
X3222254Y1914709D1*
X3220927Y1909300D1*
X3218770Y1904165D1*
X3215837Y1899430D1*
X3212323Y1895337D1*
X3203450Y1886464D1*
X3203485Y1838262D1*
X3210466Y1839829D1*
X3217933Y1840470D1*
X3225419Y1840116D1*
X3232793Y1838774D1*
X3239923Y1836467D1*
X3246685Y1833236D1*
X3252960Y1829138D1*
X3258637Y1824245D1*
X3263524Y1818758D1*
X3263511Y2642084D1*
X3262586Y2649042D1*
X3260650Y2653682D1*
X3257582Y2657658D1*
X3253590Y2660703D1*
X3248944Y2662612D1*
X3241930Y2663521D1*
X3149136Y2663509D1*
X3164304Y2657169D1*
X3171703Y2653026D1*
X3178754Y2648315D1*
X3185413Y2643065D1*
X3191640Y2637309D1*
X3197396Y2631082D1*
X3202645Y2624423D1*
X3207357Y2617372D1*
X3211500Y2609974D1*
X3215050Y2602273D1*
X3217985Y2594317D1*
X3220287Y2586156D1*
X3221941Y2577839D1*
X3222938Y2569418D1*
X3223271Y2560945D1*
X3222938Y2552472D1*
X3221941Y2544051D1*
X3220287Y2535734D1*
X3217985Y2527573D1*
X3215050Y2519617D1*
X3211500Y2511917D1*
X3207357Y2504518D1*
X3202645Y2497467D1*
X3197396Y2490808D1*
X3191640Y2484581D1*
X3185413Y2478825D1*
X3178754Y2473576D1*
X3171703Y2468864D1*
X3164304Y2464721D1*
X3156604Y2461171D1*
X3148648Y2458236D1*
X3140487Y2455934D1*
X3132170Y2454280D1*
X3123749Y2453283D1*
X3115276Y2452950D1*
X3106803Y2453283D1*
X3098382Y2454280D1*
X3090065Y2455934D1*
X3081904Y2458236D1*
X3073948Y2461171D1*
X3066247Y2464721D1*
X3058849Y2468864D1*
X3051798Y2473576D1*
X3045139Y2478825D1*
X3038912Y2484581D1*
X3033156Y2490808D1*
X3027906Y2497467D1*
X3023195Y2504518D1*
X3019052Y2511917D1*
X3015502Y2519617D1*
X3011335Y2531941D1*
X3004637Y2529778D1*
X2997585Y2528661D1*
X2990447D1*
X2987304Y2528764D1*
X2980630Y2526882D1*
X2980226Y2526834D1*
X2980630Y2526882D1*
X2979078Y2525421D1*
Y2496470D1*
X2977909Y2490592D1*
X2975400Y2485149D1*
X2971442Y2480214D1*
X2952576Y2461441D1*
X2947593Y2458111D1*
X2941970Y2456037D1*
X2935683Y2455345D1*
X2909068Y2455411D1*
X2903190Y2456580D1*
X2897747Y2459089D1*
X2892813Y2463046D1*
X2873773Y2482250D1*
X2871689Y2480442D1*
X2851004Y2460201D1*
X2845775Y2457273D1*
X2840007Y2455646D1*
X2836019Y2455332D1*
X2813549D1*
X2813513Y2434627D1*
X2819957Y2437284D1*
X2826899Y2438951D1*
X2834016Y2439511D1*
X2841133Y2438951D1*
X2848075Y2437284D1*
X2854670Y2434552D1*
X2860757Y2430822D1*
X2866186Y2426186D1*
X2868654Y2423508D1*
X2921981Y2423423D1*
X2928782Y2422070D1*
X2935079Y2419167D1*
X2940525Y2414874D1*
X2944818Y2409428D1*
X2947721Y2403131D1*
X2949073Y2396330D1*
X2949164Y2381955D1*
X2952141Y2379659D1*
X2957461Y2383403D1*
X2964741Y2387113D1*
X2972512Y2389638D1*
X2980582Y2390916D1*
X2988752D1*
X2996822Y2389638D1*
X3004593Y2387113D1*
X3011873Y2383403D1*
X3018483Y2378601D1*
X3019644Y2377528D1*
X3025988Y2382467D1*
X3032523Y2386133D1*
X3039517Y2388824D1*
X3046825Y2390482D1*
X3054295Y2391075D1*
X3061773Y2390589D1*
X3069103Y2389035D1*
X3076135Y2386445D1*
X3082722Y2382872D1*
X3087153Y2379688D1*
X3092461Y2383403D1*
X3099741Y2387113D1*
X3107512Y2389638D1*
X3115582Y2390916D1*
X3123752D1*
X3131822Y2389638D1*
X3139593Y2387113D1*
X3146873Y2383403D1*
X3153483Y2378601D1*
X3159261Y2372823D1*
X3164064Y2366213D1*
X3167773Y2358933D1*
X3170298Y2351162D1*
X3171576Y2343092D1*
Y2334921D1*
X3170298Y2326851D1*
X3167773Y2319081D1*
X3164064Y2311801D1*
X3159261Y2305190D1*
X3153483Y2299413D1*
X3146873Y2294610D1*
X3139593Y2290901D1*
X3131822Y2288376D1*
X3123752Y2287098D1*
X3115582D1*
X3107512Y2288376D1*
X3099741Y2290901D1*
X3092461Y2294610D1*
X3087192Y2298355D1*
X3080291Y2293679D1*
X3073519Y2290470D1*
X3066357Y2288267D1*
X3058953Y2287114D1*
X3051460Y2287036D1*
X3044033Y2288035D1*
X3036826Y2290089D1*
X3029990Y2293156D1*
X3023664Y2297173D1*
X3019675Y2300453D1*
X3015937Y2297406D1*
X3005361Y2197289D1*
X1227930Y812212D2*
X1226968Y804084D1*
X1225371Y796057D1*
X1223149Y788180D1*
X1220316Y780501D1*
X1216890Y773068D1*
X1212891Y765927D1*
X1208344Y759122D1*
X1203277Y752695D1*
X1197721Y746685D1*
X1191711Y741129D1*
X1185284Y736062D1*
X1178479Y731515D1*
X1171338Y727516D1*
X1163905Y724090D1*
X1156226Y721257D1*
X1148349Y719035D1*
X1140322Y717438D1*
X1132194Y716476D1*
X1124016Y716155D1*
X1115838Y716476D1*
X1107710Y717438D1*
X1099683Y719035D1*
X1091806Y721257D1*
X1084127Y724090D1*
X1076694Y727516D1*
X1069553Y731515D1*
X1062748Y736062D1*
X1056321Y741129D1*
X1050311Y746685D1*
X1044755Y752695D1*
X1039688Y759122D1*
X1035141Y765927D1*
X1031142Y773068D1*
X1027716Y780501D1*
X1024883Y788180D1*
X1022661Y796057D1*
X1021064Y804084D1*
X1020102Y812212D1*
X1019781Y820390D1*
X1020102Y828568D1*
X1021064Y836696D1*
X1022661Y844723D1*
X1024883Y852600D1*
X1027716Y860279D1*
X1031142Y867712D1*
X1035141Y874853D1*
X1039688Y881658D1*
X1044755Y888085D1*
X1050311Y894095D1*
X1056321Y899651D1*
X1062748Y904718D1*
X1069553Y909265D1*
X1076694Y913264D1*
X1084127Y916691D1*
X1091806Y919523D1*
X1099683Y921745D1*
X1107710Y923342D1*
X1115838Y924304D1*
X1124016Y924625D1*
X1132194Y924304D1*
X1140322Y923342D1*
X1148349Y921745D1*
X1156226Y919523D1*
X1163905Y916691D1*
X1171338Y913264D1*
X1178479Y909265D1*
X1185284Y904718D1*
X1191711Y899651D1*
X1197721Y894095D1*
X1203277Y888085D1*
X1208344Y881658D1*
X1212891Y874853D1*
X1216890Y867712D1*
X1220316Y860279D1*
X1223149Y852600D1*
X1225371Y844723D1*
X1226968Y836696D1*
X1227930Y828568D1*
X1228251Y820390D1*
X1227930Y812212D1*
X1413260Y699780D2*
X1412213Y687331D1*
X1409684Y675098D1*
X1405709Y663254D1*
X1400346Y651972D1*
X1393672Y641411D1*
X1385782Y631725D1*
X1376790Y623053D1*
X1366826Y615519D1*
X1356031Y609230D1*
X1344562Y604279D1*
X1332583Y600735D1*
X1320265Y598649D1*
X1307787Y598053D1*
X1295327Y598953D1*
X1283064Y601337D1*
X1271175Y605172D1*
X1259829Y610401D1*
X1249191Y616950D1*
X1239413Y624725D1*
X1230635Y633613D1*
X1222983Y643488D1*
X1216568Y654208D1*
X1211481Y665618D1*
X1207796Y677554D1*
X1205565Y689846D1*
X1204820Y702316D1*
X1205573Y714786D1*
X1207813Y727076D1*
X1211506Y739010D1*
X1216601Y750417D1*
X1223024Y761131D1*
X1230683Y771001D1*
X1239467Y779884D1*
X1249251Y787651D1*
X1259894Y794193D1*
X1271243Y799414D1*
X1283135Y803240D1*
X1295399Y805616D1*
X1307860Y806508D1*
X1320338Y805902D1*
X1332654Y803808D1*
X1344630Y800256D1*
X1356096Y795296D1*
X1366886Y789001D1*
X1376846Y781459D1*
X1385831Y772781D1*
X1393714Y763089D1*
X1400381Y752524D1*
X1405736Y741238D1*
X1409703Y729392D1*
X1412223Y717156D1*
X1413262Y704707D1*
X1413260Y699780D1*
X1152238Y2560716D2*
X1171689Y2541448D1*
X1173314Y2539640D1*
X1175398Y2541448D1*
X1194849Y2560716D1*
X1191273Y2564567D1*
X1173773Y2582250D1*
X1171689Y2580442D1*
X1152238Y2561174D1*
X1154046Y2559091D1*
X470161Y912129D2*
X583453D1*
X583587Y900117D1*
X592002Y905274D1*
X601121Y909050D1*
X610718Y911355D1*
X620557Y912129D1*
X630396Y911355D1*
X639993Y909050D1*
X649111Y905274D1*
X657526Y900117D1*
X665031Y893707D1*
X670521Y887369D1*
X676082Y893707D1*
X683587Y900117D1*
X692002Y905274D1*
X701121Y909050D1*
X710718Y911355D1*
X720557Y912129D1*
X730396Y911355D1*
X739993Y909050D1*
X749111Y905274D1*
X757526Y900117D1*
X765031Y893707D1*
X771441Y886202D1*
X776598Y877787D1*
X780375Y868669D1*
X782679Y859072D1*
X783453Y849233D1*
X782679Y839393D1*
X780375Y829797D1*
X776598Y820678D1*
X771441Y812263D1*
X765031Y804758D1*
X757526Y798348D1*
X749111Y793191D1*
X739993Y789415D1*
X730396Y787111D1*
X720557Y786336D1*
X710718Y787111D1*
X701121Y789415D1*
X692002Y793191D1*
X683587Y798348D1*
X676082Y804758D1*
X670592Y811096D1*
X665031Y804758D1*
X657526Y798348D1*
X649111Y793191D1*
X639993Y789415D1*
X630396Y787111D1*
X620557Y786336D1*
X610718Y787111D1*
X601121Y789415D1*
X592002Y793191D1*
X583451Y798456D1*
X583453Y786336D1*
X457661D1*
Y912129D1*
X470161D1*
X2874038Y1569565D2*
Y1555529D1*
X2831900D1*
X2836349Y1552779D1*
X2840882Y1548907D1*
X2844755Y1544374D1*
X2847870Y1539290D1*
X2850151Y1533782D1*
X2851543Y1527985D1*
X2852011Y1522041D1*
Y1487422D1*
X2863252Y1487295D1*
X2869140Y1486363D1*
X2874811Y1484520D1*
X2880123Y1481814D1*
X2884946Y1478309D1*
X2940170Y1423251D1*
X3047908Y1315348D1*
X3051412Y1310524D1*
X3054119Y1305212D1*
X3055961Y1299542D1*
X3056894Y1293653D1*
X3057011Y1225780D1*
X3061952Y1220687D1*
X3067160Y1213519D1*
X3068996Y1210240D1*
X3073335Y1217205D1*
X3079090Y1223942D1*
X3085827Y1229697D1*
X3092792Y1233996D1*
X3085827Y1238335D1*
X3079090Y1244090D1*
X3073335Y1250827D1*
X3068706Y1258382D1*
X3065315Y1266567D1*
X3063247Y1275183D1*
X3062551Y1284016D1*
X3063247Y1292849D1*
X3065315Y1301465D1*
X3068706Y1309650D1*
X3073335Y1317205D1*
X3079090Y1323942D1*
X3083528Y1327885D1*
X3083958Y1335569D1*
X3085258Y1340985D1*
X3087390Y1346130D1*
X3088963Y1348879D1*
X3089279Y1362997D1*
Y1416546D1*
X3094503D1*
X3094495Y1440895D1*
X3086116Y1449246D1*
X3065251Y1449232D1*
X3065030Y1480595D1*
X3064562Y1486538D1*
X3065250Y1493591D1*
X3065251Y1516132D1*
X2972336Y1516266D1*
X2965285Y1517383D1*
X2958496Y1519589D1*
X2952135Y1522830D1*
X2946359Y1527026D1*
X2936857Y1536529D1*
X2932661Y1542304D1*
X2929420Y1548665D1*
X2927214Y1555455D1*
X2926097Y1562506D1*
Y1569645D1*
X2927214Y1576696D1*
X2929420Y1583485D1*
X2932661Y1589846D1*
X2936857Y1595622D1*
X2941905Y1600670D1*
X2947681Y1604866D1*
X2954042Y1608107D1*
X2960831Y1610313D1*
X2967882Y1611430D1*
X2975021D1*
X2982072Y1610313D1*
X2989204Y1607949D1*
X2992990Y1618106D1*
X2913449D1*
X2904070Y1590899D1*
X2901472Y1585972D1*
X2898135Y1581513D1*
X2894141Y1577630D1*
X2889590Y1574420D1*
X2884592Y1571962D1*
X2879271Y1570315D1*
X2875525Y1569693D1*
X2363994Y1414658D2*
Y1473936D1*
X2357579Y1474495D1*
X2350637Y1476161D1*
X2344042Y1478893D1*
X2338686Y1482135D1*
X1857909Y1482123D1*
X1856048Y1476606D1*
X1852807Y1470245D1*
X1848610Y1464470D1*
X1843562Y1459422D1*
X1837787Y1455225D1*
X1831426Y1451984D1*
X1824637Y1449778D1*
X1817585Y1448661D1*
X1810447D1*
X1803395Y1449778D1*
X1796606Y1451984D1*
X1790245Y1455225D1*
X1784470Y1459422D1*
X1779422Y1464470D1*
X1775225Y1470245D1*
X1771984Y1476606D1*
X1769778Y1483395D1*
X1768661Y1490447D1*
X1768521Y1544016D1*
Y1622190D1*
X1732024Y1658704D1*
X1718000Y1658711D1*
X1719371Y1650824D1*
Y1643685D1*
X1718254Y1636634D1*
X1716048Y1629845D1*
X1712807Y1623484D1*
X1708610Y1617708D1*
X1703508Y1612617D1*
X1703513Y1238319D1*
X1710183Y1239785D1*
X1719016Y1240481D1*
X1727849Y1239785D1*
X1736465Y1237717D1*
X1744650Y1234326D1*
X1752205Y1229697D1*
X1758942Y1223942D1*
X1764697Y1217205D1*
X1768996Y1210240D1*
X1773121Y1216908D1*
X1777881Y1222696D1*
X1783366Y1227803D1*
X1789479Y1232139D1*
X1796113Y1235627D1*
X1803150Y1238206D1*
X1810466Y1239829D1*
X1817933Y1240470D1*
X1825419Y1240116D1*
X1832793Y1238774D1*
X1840507Y1236219D1*
X1840582Y1255637D1*
X1841935Y1262438D1*
X1844838Y1268735D1*
X1849131Y1274181D1*
X1854576Y1278474D1*
X1860873Y1281377D1*
X1866262Y1282584D1*
X2083609Y1310267D1*
X2283050Y1400993D1*
X2286241Y1409132D1*
X2289971Y1415219D1*
X2294608Y1420648D1*
X2300036Y1425284D1*
X2306123Y1429014D1*
X2312719Y1431746D1*
X2319660Y1433413D1*
X2326777Y1433973D1*
X2333894Y1433413D1*
X2340836Y1431746D1*
X2347431Y1429014D1*
X2353518Y1425284D1*
X2358947Y1420648D1*
X2363994Y1414604D1*
X1270428Y1926379D2*
X1265916Y1933231D1*
X1262737Y1940017D1*
X1260509Y1947173D1*
X1259274Y1954564D1*
X1259055Y1962055D1*
X1259856Y1969507D1*
X1261315Y1975610D1*
X1257040Y1971448D1*
X1251265Y1967252D1*
X1244904Y1964011D1*
X1238114Y1961805D1*
X1231063Y1960688D1*
X1223855Y1960696D1*
X1186068Y1922624D1*
X1182215Y1916859D1*
X1148499Y1883014D1*
X1148601Y1841215D1*
X1151607Y1844735D1*
X1226323Y1919323D1*
X1232089Y1923175D1*
X1238595Y1925575D1*
X1245481Y1926390D1*
X1245815Y1926377D1*
X1270432Y1926390D1*
X1475307Y1379586D2*
X1473920Y1370835D1*
X1472004Y1364634D1*
X1478481Y1362263D1*
X1484247Y1358411D1*
X1488953Y1353319D1*
X1492342Y1347269D1*
X1494224Y1340595D1*
X1494587Y1335981D1*
Y1234955D1*
X1501567Y1237717D1*
X1510183Y1239785D1*
X1519016Y1240481D1*
X1527849Y1239785D1*
X1536465Y1237717D1*
X1544650Y1234326D1*
X1552205Y1229697D1*
X1558942Y1223942D1*
X1564697Y1217205D1*
X1568996Y1210240D1*
X1573335Y1217205D1*
X1579090Y1223942D1*
X1585827Y1229697D1*
X1593382Y1234326D1*
X1601567Y1237717D1*
X1610183Y1239785D1*
X1619016Y1240481D1*
X1627849Y1239785D1*
X1636465Y1237717D1*
X1644540Y1234377D1*
X1644470Y1612660D1*
X1639422Y1617708D1*
X1637063Y1620734D1*
X1612640Y1596504D1*
X1606864Y1592308D1*
X1600504Y1589067D1*
X1593714Y1586861D1*
X1586663Y1585744D1*
X1533093Y1585604D1*
X1475480D1*
X1474785Y1575183D1*
X1472717Y1566567D1*
X1469326Y1558382D1*
X1464697Y1550827D1*
X1458942Y1544090D1*
X1452205Y1538335D1*
X1445240Y1534036D1*
X1452960Y1529138D1*
X1458637Y1524245D1*
X1463616Y1518644D1*
X1467809Y1512432D1*
X1471143Y1505720D1*
X1473558Y1498625D1*
X1475012Y1491273D1*
X1475481Y1484016D1*
X1474983Y1476538D1*
X1473500Y1469192D1*
X1471057Y1462107D1*
X1467844Y1455672D1*
X1482913Y1455677D1*
X1480268Y1464266D1*
X1479151Y1471317D1*
Y1478456D1*
X1480268Y1485507D1*
X1482474Y1492296D1*
X1485715Y1498657D1*
X1489911Y1504433D1*
X1494959Y1509481D1*
X1500735Y1513677D1*
X1507095Y1516918D1*
X1513885Y1519124D1*
X1520936Y1520241D1*
X1528075D1*
X1535126Y1519124D1*
X1541916Y1516918D1*
X1548276Y1513677D1*
X1554052Y1509481D1*
X1559100Y1504433D1*
X1563296Y1498657D1*
X1566537Y1492296D1*
X1568743Y1485507D1*
X1569860Y1478456D1*
Y1471317D1*
X1568743Y1464266D1*
X1566537Y1457476D1*
X1563296Y1451115D1*
X1559100Y1445340D1*
X1554052Y1440292D1*
X1548276Y1436095D1*
X1541928Y1432860D1*
X1541573Y1421566D1*
X1539691Y1414892D1*
X1536302Y1408842D1*
X1531596Y1403750D1*
X1525830Y1399898D1*
X1519325Y1397498D1*
X1512439Y1396683D1*
X1512104Y1396696D1*
X1474011Y1396683D1*
X1475307Y1388446D1*
Y1379586D1*
X899471Y1836944D2*
X905835Y1838920D1*
X914586Y1840307D1*
X923446D1*
X932197Y1838920D1*
X940624Y1836182D1*
X948519Y1832160D1*
X955687Y1826952D1*
X961952Y1820687D1*
X967160Y1813519D1*
X969036Y1810240D1*
X973335Y1817205D1*
X979090Y1823942D1*
X985827Y1829697D1*
X993382Y1834326D1*
X1001567Y1837717D1*
X1010183Y1839785D1*
X1019016Y1840481D1*
X1027849Y1839785D1*
X1036465Y1837717D1*
X1044650Y1834326D1*
X1052205Y1829697D1*
X1058942Y1823942D1*
X1064697Y1817205D1*
X1069036Y1810240D1*
X1073335Y1817205D1*
X1079090Y1823942D1*
X1085827Y1829697D1*
X1089528Y1832168D1*
X1089610Y1897561D1*
X1090962Y1904362D1*
X1093865Y1910659D1*
X1098158Y1916105D1*
X1098404Y1916332D1*
X1131185Y1949408D1*
X1135037Y1955173D1*
X1182139Y2002473D1*
Y2009612D1*
X1183256Y2016663D1*
X1185462Y2023452D1*
X1188703Y2029813D1*
X1192899Y2035589D1*
X1197947Y2040637D1*
X1203723Y2044833D1*
X1210084Y2048074D1*
X1216873Y2050280D1*
X1223924Y2051397D1*
X1231063D1*
X1238114Y2050280D1*
X1244904Y2048074D1*
X1251265Y2044833D1*
X1257040Y2040637D1*
X1262088Y2035589D1*
X1266284Y2029813D1*
X1269525Y2023452D1*
X1271731Y2016663D1*
X1272848Y2009612D1*
Y2002473D1*
X1271614Y1994935D1*
X1278003Y2001496D1*
X1283988Y2006007D1*
X1290530Y2009662D1*
X1295214Y2011621D1*
X1288132Y2015403D1*
X1282089Y2019836D1*
X1276704Y2025048D1*
X1272078Y2030944D1*
X1268296Y2037414D1*
X1265428Y2044338D1*
X1263527Y2051587D1*
X1262630Y2059027D1*
X1262751Y2066520D1*
X1263890Y2073927D1*
X1266024Y2081111D1*
X1269115Y2087938D1*
X1273105Y2094282D1*
X1277920Y2100025D1*
X1283471Y2105060D1*
X1287986Y2108260D1*
X1124008Y2108391D1*
X1116957Y2109508D1*
X1110168Y2111714D1*
X1103807Y2114955D1*
X1098031Y2119151D1*
X1092983Y2124199D1*
X1088787Y2129975D1*
X1085595Y2136218D1*
X1045817Y2231521D1*
X1006521D1*
Y2244070D1*
X1000647Y2240117D1*
X991656Y2235766D1*
X982085Y2232903D1*
X972181Y2231601D1*
X962196Y2231894D1*
X952385Y2233775D1*
X942999Y2237194D1*
X934278Y2242065D1*
X926445Y2248264D1*
X919699Y2255631D1*
X919027Y2256531D1*
X912553Y2249182D1*
X904854Y2242818D1*
X896239Y2237762D1*
X886928Y2234143D1*
X877159Y2232054D1*
X867183Y2231548D1*
X857253Y2232638D1*
X847624Y2235297D1*
X838541Y2239455D1*
X830237Y2245008D1*
X822924Y2251812D1*
X819027Y2256531D1*
X813206Y2249826D1*
X805749Y2243457D1*
X797388Y2238333D1*
X788328Y2234580D1*
X778792Y2232291D1*
X769016Y2231521D1*
X759240Y2232291D1*
X749704Y2234580D1*
X740644Y2238333D1*
X732283Y2243457D1*
X724826Y2249826D1*
X719038Y2256545D1*
X713206Y2249826D1*
X705749Y2243457D1*
X697388Y2238333D1*
X688328Y2234580D1*
X678792Y2232291D1*
X669016Y2231521D1*
X659240Y2232291D1*
X649704Y2234580D1*
X640644Y2238333D1*
X632283Y2243457D1*
X624826Y2249826D1*
X618457Y2257283D1*
X613333Y2265644D1*
X609580Y2274704D1*
X607291Y2284240D1*
X606521Y2294016D1*
X607291Y2303792D1*
X609580Y2313328D1*
X613333Y2322388D1*
X618457Y2330749D1*
X624826Y2338206D1*
X632283Y2344575D1*
X640644Y2349699D1*
X649704Y2353452D1*
X659240Y2355741D1*
X669016Y2356511D1*
X678792Y2355741D1*
X688328Y2353452D1*
X697388Y2349699D1*
X705749Y2344575D1*
X713206Y2338206D1*
X718994Y2331487D1*
X724826Y2338206D1*
X732283Y2344575D1*
X740644Y2349699D1*
X749704Y2353452D1*
X759240Y2355741D1*
X769016Y2356511D1*
X778792Y2355741D1*
X788328Y2353452D1*
X797388Y2349699D1*
X805749Y2344575D1*
X813206Y2338206D1*
X818994Y2331487D1*
X824532Y2337911D1*
X832094Y2344438D1*
X840600Y2349677D1*
X849831Y2353493D1*
X859553Y2355790D1*
X869516Y2356509D1*
X879467Y2355631D1*
X889151Y2353178D1*
X898320Y2349214D1*
X906740Y2343840D1*
X914197Y2337193D1*
X919011Y2331512D1*
X924532Y2337911D1*
X932094Y2344438D1*
X940600Y2349677D1*
X949831Y2353493D1*
X959553Y2355790D1*
X969516Y2356509D1*
X979467Y2355631D1*
X989151Y2353178D1*
X998320Y2349214D1*
X1006521Y2344021D1*
Y2356511D1*
X1131511D1*
Y2262419D1*
X1157897Y2199212D1*
X1190127Y2199241D1*
X1190066Y2206824D1*
X1191182Y2213875D1*
X1193389Y2220665D1*
X1196630Y2227026D1*
X1200826Y2232801D1*
X1205874Y2237849D1*
X1211649Y2242045D1*
X1218010Y2245287D1*
X1224800Y2247493D1*
X1231851Y2248609D1*
X1238990D1*
X1246041Y2247493D1*
X1252830Y2245287D1*
X1259106Y2242093D1*
X1259257Y2248719D1*
X1260729Y2258010D1*
X1263635Y2266955D1*
X1267906Y2275336D1*
X1273435Y2282946D1*
X1280086Y2289597D1*
X1285999Y2293992D1*
X1280086Y2298435D1*
X1273435Y2305086D1*
X1267906Y2312696D1*
X1263635Y2321077D1*
X1260729Y2330022D1*
X1259257Y2339313D1*
Y2348719D1*
X1260729Y2358010D1*
X1263635Y2366955D1*
X1267906Y2375336D1*
X1273435Y2382946D1*
X1280086Y2389597D1*
X1287696Y2395126D1*
X1296077Y2399397D1*
X1305022Y2402303D1*
X1314313Y2403775D1*
X1323719D1*
X1333010Y2402303D1*
X1341955Y2399397D1*
X1350336Y2395126D1*
X1357946Y2389597D1*
X1364597Y2382946D1*
X1368992Y2377033D1*
X1373435Y2382946D1*
X1380086Y2389597D1*
X1387696Y2395126D1*
X1396077Y2399397D1*
X1405022Y2402303D1*
X1414313Y2403775D1*
X1423719D1*
X1433010Y2402303D1*
X1435045Y2401729D1*
X1438519Y2405516D1*
Y2455467D1*
X1421019Y2455332D1*
X1407080Y2455646D1*
X1400921Y2457453D1*
X1401312Y2457273D1*
X1400074Y2457595D1*
X1397674Y2451089D1*
X1393821Y2445323D1*
X1388730Y2440617D1*
X1382680Y2437228D1*
X1376006Y2435346D1*
X1371391Y2434983D1*
X1164599Y2435074D1*
X1157798Y2436427D1*
X1151501Y2439330D1*
X1146056Y2443623D1*
X1135122Y2455311D1*
X1107080Y2455646D1*
X1101312Y2457273D1*
X1096083Y2460201D1*
X1093041Y2462799D1*
X1073773Y2482250D1*
X1071689Y2480443D1*
X1051004Y2460201D1*
X1045775Y2457273D1*
X1040007Y2455646D1*
X1036019Y2455332D1*
X1007080Y2455646D1*
X1001312Y2457273D1*
X996083Y2460201D1*
X993041Y2462799D1*
X972800Y2483485D1*
X969871Y2488714D1*
X968244Y2494482D1*
X967931Y2498470D1*
X968244Y2527408D1*
X969871Y2533177D1*
X972800Y2538406D1*
X975398Y2541448D1*
X994849Y2560716D1*
X993041Y2562800D1*
X972800Y2583485D1*
X969871Y2588714D1*
X968245Y2594482D1*
X967931Y2598470D1*
X968245Y2627408D1*
X969871Y2633177D1*
X972800Y2638406D1*
X975398Y2641448D1*
X996083Y2661689D1*
X998123Y2663011D1*
X992838Y2663510D1*
X865640D1*
X880840Y2657169D1*
X888238Y2653026D1*
X895289Y2648315D1*
X901948Y2643065D1*
X908175Y2637309D1*
X913931Y2631082D1*
X919181Y2624423D1*
X923892Y2617372D1*
X928035Y2609974D1*
X931585Y2602273D1*
X934520Y2594317D1*
X936822Y2586156D1*
X938476Y2577839D1*
X939473Y2569418D1*
X939806Y2560945D1*
X939473Y2552472D1*
X938476Y2544051D1*
X936822Y2535734D1*
X934520Y2527573D1*
X931585Y2519617D1*
X928035Y2511917D1*
X923892Y2504518D1*
X919181Y2497467D1*
X913931Y2490808D1*
X908175Y2484581D1*
X901948Y2478825D1*
X895289Y2473576D1*
X888238Y2468864D1*
X880840Y2464721D1*
X873139Y2461171D1*
X865183Y2458236D1*
X857022Y2455934D1*
X848705Y2454280D1*
X840284Y2453283D1*
X831811Y2452950D1*
X823338Y2453283D1*
X814917Y2454280D1*
X806600Y2455934D1*
X798439Y2458236D1*
X790483Y2461171D1*
X782783Y2464721D1*
X775384Y2468864D1*
X768334Y2473576D1*
X761674Y2478825D1*
X755447Y2484581D1*
X749691Y2490808D1*
X744442Y2497467D1*
X739731Y2504518D1*
X735587Y2511917D1*
X732037Y2519617D1*
X729102Y2527573D1*
X726800Y2535734D1*
X725146Y2544051D1*
X724149Y2552472D1*
X723817Y2560945D1*
X724149Y2569418D1*
X725146Y2577839D1*
X726800Y2586156D1*
X729102Y2594317D1*
X732037Y2602273D1*
X735587Y2609974D1*
X739731Y2617372D1*
X744442Y2624423D1*
X749691Y2631082D1*
X755447Y2637309D1*
X761674Y2643065D1*
X768334Y2648315D1*
X775384Y2653026D1*
X782783Y2657169D1*
X790483Y2660719D1*
X798097Y2663528D1*
X445948Y2663511D1*
X438988Y2662586D1*
X434350Y2660650D1*
X430374Y2657582D1*
X427328Y2653588D1*
X425421Y2648944D1*
X424511Y2641927D1*
X424521Y498255D1*
X428479Y502779D1*
X433907Y507415D1*
X439994Y511145D1*
X446590Y513877D1*
X453532Y515544D1*
X460649Y516104D1*
X1045072D1*
X1037944Y525378D1*
X1031528Y536097D1*
X1026441Y547507D1*
X1022756Y559444D1*
X1020525Y571736D1*
X1019781Y584206D1*
X1020534Y596676D1*
X1022773Y608966D1*
X1026467Y620900D1*
X1031562Y632306D1*
X1037985Y643021D1*
X1045643Y652891D1*
X1054427Y661773D1*
X1064211Y669541D1*
X1074854Y676083D1*
X1086203Y681304D1*
X1098095Y685130D1*
X1110360Y687506D1*
X1122821Y688398D1*
X1135298Y687792D1*
X1147614Y685698D1*
X1159591Y682146D1*
X1171057Y677186D1*
X1181847Y670890D1*
X1191806Y663349D1*
X1200792Y654670D1*
X1208675Y644979D1*
X1215342Y634414D1*
X1220697Y623128D1*
X1224663Y611281D1*
X1227184Y599046D1*
X1228223Y586597D1*
X1227772Y574185D1*
X1225832Y561844D1*
X1222430Y549824D1*
X1217614Y538297D1*
X1211454Y527428D1*
X1204038Y517375D1*
X1202940Y516092D1*
X3187943Y516104D1*
X3187902Y551908D1*
X3178754Y544442D1*
X3171703Y539731D1*
X3164304Y535587D1*
X3156604Y532037D1*
X3148648Y529102D1*
X3140487Y526800D1*
X3132170Y525146D1*
X3123749Y524149D1*
X3115276Y523817D1*
X3106803Y524149D1*
X3098382Y525146D1*
X3090065Y526800D1*
X3081904Y529102D1*
X3073948Y532037D1*
X3066247Y535587D1*
X3058849Y539731D1*
X3051798Y544442D1*
X3045139Y549691D1*
X3038912Y555447D1*
X3033156Y561674D1*
X3027906Y568334D1*
X3023195Y575384D1*
X3019052Y582783D1*
X3015502Y590483D1*
X3012567Y598439D1*
X3010265Y606600D1*
X3008611Y614917D1*
X3007614Y623338D1*
X3007281Y631811D1*
X3007614Y640284D1*
X3008611Y648705D1*
X3010265Y657022D1*
X3012567Y665183D1*
X3015502Y673139D1*
X3019052Y680840D1*
X3023195Y688238D1*
X3027906Y695289D1*
X3033156Y701948D1*
X3038912Y708175D1*
X3045139Y713931D1*
X3051798Y719181D1*
X3058849Y723892D1*
X3066247Y728035D1*
X3073948Y731585D1*
X3081904Y734520D1*
X3090065Y736822D1*
X3098382Y738476D1*
X3106803Y739473D1*
X3115276Y739806D1*
X3123749Y739473D1*
X3132170Y738476D1*
X3140487Y736822D1*
X3148648Y734520D1*
X3156604Y731585D1*
X3164304Y728035D1*
X3171703Y723892D1*
X3178754Y719181D1*
X3187918Y711615D1*
X3188042Y806125D1*
X3189159Y813176D1*
X3191365Y819965D1*
X3194606Y826326D1*
X3198802Y832102D1*
X3203850Y837150D1*
X3209626Y841346D1*
X3215986Y844587D1*
X3222776Y846793D1*
X3229827Y847910D1*
X3236966D1*
X3244017Y846793D1*
X3250807Y844587D1*
X3257168Y841346D1*
X3263220Y836894D1*
X3263512Y870196D1*
Y1149249D1*
X3258942Y1144090D1*
X3252205Y1138335D1*
X3244650Y1133706D1*
X3236465Y1130315D1*
X3227849Y1128247D1*
X3219016Y1127551D1*
X3210183Y1128247D1*
X3201567Y1130315D1*
X3193382Y1133706D1*
X3185827Y1138335D1*
X3179090Y1144090D1*
X3173335Y1150827D1*
X3169036Y1157792D1*
X3164697Y1150827D1*
X3158942Y1144090D1*
X3152205Y1138335D1*
X3144650Y1133706D1*
X3136465Y1130315D1*
X3127849Y1128247D1*
X3119016Y1127551D1*
X3110183Y1128247D1*
X3101567Y1130315D1*
X3093382Y1133706D1*
X3085827Y1138335D1*
X3079090Y1144090D1*
X3073335Y1150827D1*
X3069036Y1157792D1*
X3064697Y1150827D1*
X3058942Y1144090D1*
X3052205Y1138335D1*
X3044650Y1133706D1*
X3036465Y1130315D1*
X3030957Y1128865D1*
X3005398Y1084836D1*
X3010400Y1079750D1*
X3015475Y1072765D1*
X3018540Y1066927D1*
X3021646Y1072765D1*
X3026721Y1079750D1*
X3032826Y1085855D1*
X3039812Y1090930D1*
X3047504Y1094850D1*
X3055716Y1097518D1*
X3064244Y1098869D1*
X3072878D1*
X3081405Y1097518D1*
X3089617Y1094850D1*
X3097310Y1090930D1*
X3104295Y1085855D1*
X3110400Y1079750D1*
X3115475Y1072765D1*
X3119395Y1065072D1*
X3122063Y1056861D1*
X3123413Y1048333D1*
Y1039699D1*
X3122063Y1031171D1*
X3119395Y1022960D1*
X3115475Y1015267D1*
X3110400Y1008282D1*
X3104295Y1002177D1*
X3100208Y999038D1*
X3123583D1*
Y888994D1*
X3100292D1*
X3107467Y882923D1*
X3112393Y877276D1*
X3116506Y871011D1*
X3119729Y864245D1*
X3122003Y857105D1*
X3123286Y849721D1*
X3123526Y841517D1*
X3122677Y834071D1*
X3120823Y826810D1*
X3118000Y819867D1*
X3114260Y813373D1*
X3109673Y807447D1*
X3104322Y802200D1*
X3098308Y797728D1*
X3091742Y794115D1*
X3084746Y791428D1*
X3077450Y789717D1*
X3069989Y789012D1*
X3062502Y789328D1*
X3055127Y790659D1*
X3048001Y792979D1*
X3041256Y796247D1*
X3035018Y800400D1*
X3029403Y805362D1*
X3024513Y811042D1*
X3020441Y817333D1*
X3018570Y821059D1*
X3014260Y813373D1*
X3009673Y807447D1*
X3004322Y802200D1*
X2998308Y797728D1*
X2991742Y794115D1*
X2984746Y791428D1*
X2977450Y789717D1*
X2969989Y789012D1*
X2962502Y789328D1*
X2955127Y790659D1*
X2948001Y792979D1*
X2941256Y796247D1*
X2935018Y800400D1*
X2929403Y805362D1*
X2924513Y811042D1*
X2920441Y817333D1*
X2918570Y821059D1*
X2914260Y813373D1*
X2909673Y807447D1*
X2904322Y802200D1*
X2898308Y797728D1*
X2891742Y794115D1*
X2884746Y791428D1*
X2877450Y789717D1*
X2869989Y789012D1*
X2862502Y789328D1*
X2855127Y790659D1*
X2848001Y792979D1*
X2841256Y796247D1*
X2835018Y800400D1*
X2829403Y805362D1*
X2824513Y811042D1*
X2820441Y817333D1*
X2818570Y821059D1*
X2814260Y813373D1*
X2809673Y807447D1*
X2804322Y802200D1*
X2798308Y797728D1*
X2791742Y794115D1*
X2784746Y791428D1*
X2777450Y789717D1*
X2769989Y789012D1*
X2762502Y789328D1*
X2755127Y790659D1*
X2748001Y792979D1*
X2741256Y796247D1*
X2735018Y800400D1*
X2729403Y805362D1*
X2724513Y811042D1*
X2720441Y817333D1*
X2718552Y821065D1*
X2714260Y813373D1*
X2709673Y807447D1*
X2704322Y802200D1*
X2698308Y797728D1*
X2691742Y794115D1*
X2684746Y791428D1*
X2677450Y789717D1*
X2669989Y789012D1*
X2662502Y789328D1*
X2655127Y790659D1*
X2648001Y792979D1*
X2641256Y796247D1*
X2635018Y800400D1*
X2629403Y805362D1*
X2624513Y811042D1*
X2620441Y817333D1*
X2618570Y821059D1*
X2614260Y813373D1*
X2609673Y807447D1*
X2604322Y802200D1*
X2598308Y797728D1*
X2591742Y794115D1*
X2584746Y791428D1*
X2577450Y789717D1*
X2569989Y789012D1*
X2562502Y789328D1*
X2555127Y790659D1*
X2548001Y792979D1*
X2541256Y796247D1*
X2535018Y800400D1*
X2529403Y805362D1*
X2524513Y811042D1*
X2520441Y817333D1*
X2518570Y821059D1*
X2514260Y813373D1*
X2509673Y807447D1*
X2504322Y802200D1*
X2498308Y797728D1*
X2491742Y794115D1*
X2484746Y791428D1*
X2481210Y790482D1*
X2486186Y786186D1*
X2490822Y780757D1*
X2494552Y774670D1*
X2497284Y768075D1*
X2498951Y761133D1*
X2499511Y754016D1*
X2498951Y746899D1*
X2497284Y739957D1*
X2494552Y733362D1*
X2490822Y727275D1*
X2486186Y721846D1*
X2480757Y717210D1*
X2475778Y714100D1*
X2471354Y710127D1*
X2465304Y706739D1*
X2458630Y704857D1*
X2454016Y704494D1*
X1685965Y704445D1*
X1680917Y699397D1*
X1675141Y695200D1*
X1668780Y691959D1*
X1661991Y689753D1*
X1654940Y688637D1*
X1647801D1*
X1640750Y689753D1*
X1633960Y691959D1*
X1627599Y695200D1*
X1621824Y699397D1*
X1616776Y704445D1*
X1612580Y710220D1*
X1609339Y716581D1*
X1607133Y723371D1*
X1606016Y730422D1*
Y737561D1*
X1607133Y744612D1*
X1609555Y751870D1*
X1533420Y751881D1*
Y877673D1*
X1536692D1*
X1413142Y1001174D1*
X1413882Y991861D1*
X1413399Y984382D1*
X1411956Y977027D1*
X1409579Y969919D1*
X1406307Y963177D1*
X1402193Y956912D1*
X1397308Y951228D1*
X1391731Y946221D1*
X1385556Y941973D1*
X1378886Y938556D1*
X1371831Y936026D1*
X1364509Y934425D1*
X1357042Y933780D1*
X1349554Y934102D1*
X1342170Y935385D1*
X1335013Y937608D1*
X1328201Y940734D1*
X1321848Y944711D1*
X1316061Y949473D1*
X1310934Y954940D1*
X1305799Y962288D1*
X1299963Y954132D1*
X1293517Y947686D1*
X1286142Y942327D1*
X1278019Y938189D1*
X1269350Y935372D1*
X1260346Y933946D1*
X1251230D1*
X1242226Y935372D1*
X1233556Y938189D1*
X1225433Y942327D1*
X1218058Y947686D1*
X1211612Y954132D1*
X1205810Y962300D1*
X1199963Y954132D1*
X1193517Y947686D1*
X1186142Y942327D1*
X1178019Y938189D1*
X1169350Y935372D1*
X1160346Y933946D1*
X1151230D1*
X1142226Y935372D1*
X1133556Y938189D1*
X1125433Y942327D1*
X1118058Y947686D1*
X1111612Y954132D1*
X1105775Y962362D1*
X1080149Y962455D1*
X1073348Y963807D1*
X1067051Y966710D1*
X1061606Y971003D1*
X1061378Y971249D1*
X1049516Y982811D1*
X778414Y982902D1*
X771613Y984255D1*
X765316Y987158D1*
X759871Y991451D1*
X759643Y991697D1*
X738084Y1013237D1*
X731745Y1006847D1*
X724370Y1001489D1*
X716248Y997350D1*
X707578Y994533D1*
X698574Y993107D1*
X689458D1*
X680454Y994533D1*
X671784Y997350D1*
X663662Y1001489D1*
X656287Y1006847D1*
X649841Y1013293D1*
X648616Y1014846D1*
X643819Y1008487D1*
X636551Y1001220D1*
X628237Y995179D1*
X619080Y990513D1*
X609305Y987337D1*
X599155Y985730D1*
X588877D1*
X578727Y987337D1*
X568952Y990513D1*
X559795Y995179D1*
X551481Y1001220D1*
X544213Y1008487D1*
X539478Y1014847D1*
X533750Y1008641D1*
X527963Y1003878D1*
X521611Y999900D1*
X514800Y996773D1*
X507642Y994549D1*
X500259Y993264D1*
X492771Y992941D1*
X485304Y993585D1*
X477982Y995185D1*
X470926Y997714D1*
X464255Y1001130D1*
X458080Y1005377D1*
X452502Y1010383D1*
X447616Y1016066D1*
X443501Y1022330D1*
X440228Y1029072D1*
X437850Y1036180D1*
X436406Y1043534D1*
X435922Y1051013D1*
X436404Y1058493D1*
X437845Y1065848D1*
X440221Y1072956D1*
X443492Y1079699D1*
X447605Y1085965D1*
X452489Y1091649D1*
X458065Y1096657D1*
X464240Y1100906D1*
X470909Y1104324D1*
X477964Y1106855D1*
X485285Y1108457D1*
X492752Y1109103D1*
X500240Y1108783D1*
X507625Y1107501D1*
X514782Y1105279D1*
X521595Y1102154D1*
X528533Y1097737D1*
X528521Y1214255D1*
X521611Y1209900D1*
X514800Y1206773D1*
X507642Y1204549D1*
X500259Y1203264D1*
X492771Y1202941D1*
X485304Y1203585D1*
X477982Y1205185D1*
X470926Y1207714D1*
X464255Y1211130D1*
X458080Y1215377D1*
X452502Y1220383D1*
X447616Y1226066D1*
X443501Y1232330D1*
X440228Y1239072D1*
X437850Y1246180D1*
X436406Y1253534D1*
X435922Y1261013D1*
X436404Y1268493D1*
X437845Y1275848D1*
X440221Y1282956D1*
X443492Y1289699D1*
X447605Y1295965D1*
X452489Y1301649D1*
X458065Y1306657D1*
X464240Y1310906D1*
X470909Y1314324D1*
X477964Y1316855D1*
X485285Y1318457D1*
X492752Y1319103D1*
X500240Y1318783D1*
X507625Y1317501D1*
X514782Y1315279D1*
X521595Y1312154D1*
X528533Y1307737D1*
X528521Y1424255D1*
X521611Y1419900D1*
X514800Y1416773D1*
X507642Y1414549D1*
X500259Y1413264D1*
X492771Y1412941D1*
X485304Y1413585D1*
X477982Y1415185D1*
X470926Y1417714D1*
X464255Y1421130D1*
X458080Y1425377D1*
X452502Y1430383D1*
X447616Y1436066D1*
X443501Y1442330D1*
X440228Y1449072D1*
X437850Y1456180D1*
X436406Y1463534D1*
X435922Y1471013D1*
X436404Y1478493D1*
X437845Y1485848D1*
X440221Y1492956D1*
X443492Y1499699D1*
X447605Y1505965D1*
X452489Y1511649D1*
X458065Y1516657D1*
X464240Y1520906D1*
X470909Y1524324D1*
X477964Y1526855D1*
X485285Y1528457D1*
X492752Y1529103D1*
X500240Y1528783D1*
X507625Y1527501D1*
X514782Y1525279D1*
X521595Y1522154D1*
X527948Y1518178D1*
X533736Y1513417D1*
X539450Y1507206D1*
X544213Y1513558D1*
X551480Y1520825D1*
X559795Y1526866D1*
X568952Y1531532D1*
X578727Y1534708D1*
X588877Y1536316D1*
X599155D1*
X609305Y1534708D1*
X619080Y1531532D1*
X628237Y1526866D1*
X636552Y1520825D1*
X643819Y1513558D1*
X648554Y1507198D1*
X652937Y1512102D1*
X659869Y1518022D1*
X667642Y1522785D1*
X676064Y1526274D1*
X684928Y1528402D1*
X694016Y1529117D1*
X703104Y1528402D1*
X711968Y1526274D1*
X720390Y1522785D1*
X728163Y1518022D1*
X735095Y1512102D1*
X741015Y1505170D1*
X745779Y1497397D1*
X749267Y1488975D1*
X749707Y1487414D1*
X753590Y1492034D1*
X760035Y1497890D1*
X767317Y1502666D1*
X775256Y1506244D1*
X783657Y1508535D1*
X792314Y1509485D1*
X801012Y1509068D1*
X809538Y1507296D1*
X817681Y1504212D1*
X825242Y1499892D1*
X832034Y1494442D1*
X837890Y1487997D1*
X842666Y1480715D1*
X843297Y1479451D1*
X1006348Y1479452D1*
X1024211Y1497205D1*
X1030172Y1501187D1*
X1036897Y1503668D1*
X1044016Y1504511D1*
X1044362Y1504497D1*
X1118269Y1504417D1*
X1125300Y1503018D1*
X1131810Y1500017D1*
X1137440Y1495579D1*
X1141878Y1489949D1*
X1161620Y1455111D1*
X1163882Y1448309D1*
X1164511Y1442159D1*
X1164541Y1322286D1*
X1168650Y1318081D1*
X1172846Y1312305D1*
X1176087Y1305944D1*
X1178293Y1299155D1*
X1179410Y1292104D1*
X1179474Y1286596D1*
X1200079Y1286995D1*
X1278215Y1394643D1*
X1277099Y1401695D1*
Y1408834D1*
X1278215Y1415885D1*
X1280421Y1422674D1*
X1283662Y1429035D1*
X1287859Y1434811D1*
X1292907Y1439859D1*
X1298682Y1444055D1*
X1305043Y1447296D1*
X1311832Y1449502D1*
X1318884Y1450619D1*
X1326022D1*
X1333074Y1449502D1*
X1339863Y1447296D1*
X1347419Y1443256D1*
X1354686Y1450044D1*
X1360736Y1453432D1*
X1367409Y1455314D1*
X1370116Y1455603D1*
X1366018Y1464536D1*
X1363905Y1471726D1*
X1362763Y1479133D1*
X1362612Y1486626D1*
X1363454Y1494073D1*
X1365276Y1501343D1*
X1368044Y1508308D1*
X1371710Y1514844D1*
X1376209Y1520838D1*
X1381463Y1526183D1*
X1387378Y1530785D1*
X1392805Y1534013D1*
X1385827Y1538335D1*
X1379090Y1544090D1*
X1373335Y1550827D1*
X1368706Y1558382D1*
X1365315Y1566567D1*
X1363247Y1575183D1*
X1362551Y1584016D1*
X1362615Y1585625D1*
X1333818Y1585744D1*
X1326767Y1586861D1*
X1319977Y1589067D1*
X1313617Y1592308D1*
X1307841Y1596504D1*
X1293928Y1610219D1*
X877458Y1610230D1*
X871410Y1607165D1*
X864621Y1604959D1*
X857570Y1603843D1*
X850417Y1603844D1*
X848565Y1604016D1*
X846795Y1596867D1*
X843462Y1588822D1*
X838912Y1581397D1*
X833257Y1574775D1*
X826635Y1569120D1*
X819210Y1564570D1*
X811165Y1561237D1*
X802697Y1559204D1*
X794016Y1558521D1*
X785335Y1559204D1*
X776867Y1561237D1*
X768822Y1564570D1*
X761397Y1569120D1*
X754775Y1574775D1*
X725817Y1603975D1*
X720699Y1611020D1*
X716745Y1618779D1*
X714192Y1626592D1*
X707578Y1624533D1*
X698574Y1623107D1*
X689458D1*
X680454Y1624533D1*
X671784Y1627350D1*
X663662Y1631489D1*
X656287Y1636847D1*
X649841Y1643293D1*
X648616Y1644846D1*
X643819Y1638487D1*
X636552Y1631220D1*
X628237Y1625179D1*
X619080Y1620513D1*
X609305Y1617337D1*
X599155Y1615730D1*
X588877D1*
X578727Y1617337D1*
X568952Y1620513D1*
X559795Y1625179D1*
X551480Y1631220D1*
X544213Y1638487D1*
X539449Y1644838D1*
X533750Y1638641D1*
X527963Y1633878D1*
X521611Y1629900D1*
X514800Y1626773D1*
X507642Y1624549D1*
X500259Y1623264D1*
X492771Y1622941D1*
X485304Y1623585D1*
X477982Y1625185D1*
X470926Y1627714D1*
X464255Y1631130D1*
X458080Y1635377D1*
X452502Y1640383D1*
X447616Y1646066D1*
X443501Y1652330D1*
X440228Y1659072D1*
X437850Y1666180D1*
X436406Y1673534D1*
X435922Y1681013D1*
X436404Y1688493D1*
X437845Y1695848D1*
X440221Y1702956D1*
X443492Y1709699D1*
X447605Y1715965D1*
X452489Y1721649D1*
X458065Y1726657D1*
X464240Y1730906D1*
X470909Y1734324D1*
X477964Y1736855D1*
X485285Y1738457D1*
X492752Y1739103D1*
X500240Y1738783D1*
X507625Y1737501D1*
X514782Y1735279D1*
X521595Y1732154D1*
X528533Y1727737D1*
X528532Y1844307D1*
X521611Y1839900D1*
X514800Y1836773D1*
X507642Y1834549D1*
X500259Y1833264D1*
X492771Y1832941D1*
X485304Y1833585D1*
X477982Y1835185D1*
X470926Y1837714D1*
X464255Y1841130D1*
X458080Y1845377D1*
X452502Y1850383D1*
X447616Y1856066D1*
X443501Y1862330D1*
X440228Y1869072D1*
X437850Y1876180D1*
X436406Y1883534D1*
X435922Y1891013D1*
X436404Y1898493D1*
X437845Y1905848D1*
X440221Y1912956D1*
X443492Y1919699D1*
X447605Y1925965D1*
X452489Y1931649D1*
X458065Y1936657D1*
X464240Y1940906D1*
X470909Y1944324D1*
X477964Y1946855D1*
X485285Y1948457D1*
X492752Y1949103D1*
X500240Y1948783D1*
X507625Y1947501D1*
X514782Y1945279D1*
X521595Y1942154D1*
X527948Y1938178D1*
X533736Y1933417D1*
X539450Y1927206D1*
X544213Y1933558D1*
X551480Y1940825D1*
X559795Y1946866D1*
X568952Y1951532D1*
X578727Y1954708D1*
X588877Y1956316D1*
X599155D1*
X609305Y1954708D1*
X619080Y1951532D1*
X624504Y1948957D1*
X621237Y1956867D1*
X619204Y1965335D1*
X618521Y1974016D1*
X619204Y1982697D1*
X621237Y1991165D1*
X624570Y1999210D1*
X625609Y2001067D1*
X562992Y2001207D1*
X555941Y2002324D1*
X549152Y2004530D1*
X542791Y2007771D1*
X537015Y2011967D1*
X531967Y2017015D1*
X527771Y2022791D1*
X524530Y2029152D1*
X522324Y2035941D1*
X521207Y2042992D1*
Y2050131D1*
X522324Y2057182D1*
X524530Y2063972D1*
X527771Y2070333D1*
X531967Y2076108D1*
X541846Y2086186D1*
X547275Y2090822D1*
X553362Y2094552D1*
X559957Y2097284D1*
X566899Y2098951D1*
X574016Y2099511D1*
X581133Y2098951D1*
X588075Y2097284D1*
X594670Y2094552D1*
X598100Y2092597D1*
X604062Y2092057D1*
X817001D1*
X818783Y2100097D1*
X821515Y2106692D1*
X825245Y2112779D1*
X829882Y2118208D1*
X835310Y2122844D1*
X841397Y2126574D1*
X847993Y2129306D1*
X854934Y2130973D1*
X862051Y2131533D1*
X869168Y2130973D1*
X876110Y2129306D1*
X882706Y2126574D1*
X888793Y2122844D1*
X894221Y2118208D1*
X898857Y2112779D1*
X902588Y2106692D1*
X905320Y2100097D1*
X906986Y2093155D1*
X907546Y2086038D1*
X907406Y2042992D1*
X906289Y2035941D1*
X904083Y2029152D1*
X900633Y2022478D1*
X900842Y2022791D1*
X902588Y2025908D1*
X899495Y2020786D1*
Y1836997D1*
X1840499Y1131812D2*
X1832576Y1129204D1*
X1825198Y1127891D1*
X1817710Y1127567D1*
X1810246Y1128237D1*
X1802936Y1129889D1*
X1795909Y1132496D1*
X1789290Y1136010D1*
X1783194Y1140370D1*
X1777729Y1145498D1*
X1772991Y1151305D1*
X1769017Y1157785D1*
X1764697Y1150827D1*
X1758942Y1144090D1*
X1752205Y1138335D1*
X1744650Y1133706D1*
X1736465Y1130315D1*
X1727849Y1128247D1*
X1720141Y1127596D1*
X1738260Y1109769D1*
X1754708Y1109818D1*
X1759756Y1114866D1*
X1765531Y1119063D1*
X1771892Y1122304D1*
X1778682Y1124510D1*
X1785733Y1125626D1*
X1792872D1*
X1799923Y1124510D1*
X1806712Y1122304D1*
X1813073Y1119063D1*
X1818849Y1114866D1*
X1823897Y1109818D1*
X1828093Y1104043D1*
X1831334Y1097682D1*
X1833540Y1090892D1*
X1834657Y1083841D1*
Y1076702D1*
X1833540Y1069651D1*
X1831334Y1062862D1*
X1830300Y1060619D1*
X1840535Y1060622D1*
X1840491Y1131760D1*
X3226430Y1523844D2*
X3226477Y1502604D1*
X3228359Y1496404D1*
X3229178Y1488869D1*
X3229062Y1408070D1*
X3228129Y1402182D1*
X3226882Y1398040D1*
Y1337997D1*
X3221658D1*
X3221666Y1297047D1*
X3247908Y1270692D1*
X3251412Y1265868D1*
X3254119Y1260556D1*
X3255961Y1254886D1*
X3256894Y1248997D1*
X3256997Y1225741D1*
X3261952Y1220687D1*
X3263528Y1218688D1*
X3263479Y1749213D1*
X3258478Y1743631D1*
X3252782Y1738760D1*
X3246491Y1734687D1*
X3239716Y1731483D1*
X3232576Y1729204D1*
X3225198Y1727891D1*
X3217710Y1727567D1*
X3210246Y1728237D1*
X3203473Y1729743D1*
X3203375Y1650816D1*
X3202504Y1645315D1*
X3200783Y1640018D1*
X3198254Y1635055D1*
X3194980Y1630549D1*
X3191042Y1626611D1*
X3186536Y1623337D1*
X3181573Y1620808D1*
X3176276Y1619087D1*
X3170775Y1618216D1*
X3080490Y1618106D1*
X2992990D1*
X2991091Y1607116D1*
X3192740Y1606976D1*
X3199791Y1605859D1*
X3206581Y1603653D1*
X3212942Y1600412D1*
X3218717Y1596215D1*
X3223765Y1591167D1*
X3227962Y1585392D1*
X3231203Y1579031D1*
X3233409Y1572242D1*
X3234525Y1565190D1*
Y1558052D1*
X3233409Y1551000D1*
X3231203Y1544211D1*
X3227962Y1537850D1*
X3226465Y1535611D1*
X3226477Y1523877D1*
X939473Y623338D2*
X938476Y614917D1*
X936822Y606600D1*
X934520Y598439D1*
X931585Y590483D1*
X928035Y582783D1*
X923892Y575384D1*
X919181Y568334D1*
X913931Y561674D1*
X908175Y555447D1*
X901948Y549691D1*
X895289Y544442D1*
X888238Y539731D1*
X880840Y535587D1*
X873139Y532037D1*
X865183Y529102D1*
X857022Y526800D1*
X848705Y525146D1*
X840284Y524149D1*
X831811Y523817D1*
X823338Y524149D1*
X814917Y525146D1*
X806600Y526800D1*
X798439Y529102D1*
X790483Y532037D1*
X782783Y535587D1*
X775384Y539731D1*
X768334Y544442D1*
X761674Y549691D1*
X755447Y555447D1*
X749691Y561674D1*
X744442Y568334D1*
X739731Y575384D1*
X735587Y582783D1*
X732037Y590483D1*
X729102Y598439D1*
X726800Y606600D1*
X725146Y614917D1*
X724149Y623338D1*
X723817Y631811D1*
X724149Y640284D1*
X725146Y648705D1*
X726800Y657022D1*
X729102Y665183D1*
X732037Y673139D1*
X735587Y680840D1*
X739731Y688238D1*
X744442Y695289D1*
X749691Y701948D1*
X755447Y708175D1*
X761674Y713931D1*
X768334Y719181D1*
X775384Y723892D1*
X782783Y728035D1*
X790483Y731585D1*
X798439Y734520D1*
X806600Y736822D1*
X814917Y738476D1*
X823338Y739473D1*
X831811Y739806D1*
X840284Y739473D1*
X848705Y738476D1*
X857022Y736822D1*
X865183Y734520D1*
X873139Y731585D1*
X880840Y728035D1*
X888238Y723892D1*
X895289Y719181D1*
X901948Y713931D1*
X908175Y708175D1*
X913931Y701948D1*
X919181Y695289D1*
X923892Y688238D1*
X928035Y680840D1*
X931585Y673139D1*
X934520Y665183D1*
X936822Y657022D1*
X938476Y648705D1*
X939473Y640284D1*
X939806Y631811D1*
X939473Y623338D1*
X2976226Y1516139D2*
X2968789Y1516686D1*
X2961847Y1518353D1*
X2955252Y1521085D1*
X2949165Y1524815D1*
X2943736Y1529451D1*
X2936857Y1536529D1*
X2932661Y1542304D1*
X2929420Y1548665D1*
X2927214Y1555455D1*
X2926097Y1562506D1*
Y1569645D1*
X2927214Y1576696D1*
X2929420Y1583485D1*
X2932661Y1589846D1*
X2936857Y1595622D1*
X2941905Y1600670D1*
X2947681Y1604866D1*
X2954042Y1608107D1*
X2960831Y1610313D1*
X2967882Y1611430D1*
X2975021D1*
X2982072Y1610313D1*
X2988862Y1608107D1*
X566883Y2001080D2*
X559445Y2001627D1*
X552503Y2003294D1*
X545908Y2006026D1*
X539821Y2009756D1*
X534392Y2014392D1*
X529756Y2019821D1*
X526026Y2025908D1*
X523294Y2032503D1*
X521627Y2039445D1*
X521067Y2046562D1*
X521627Y2053679D1*
X523294Y2060621D1*
X526026Y2067216D1*
X529756Y2073303D1*
X534392Y2078732D1*
X544470Y2088610D1*
X550245Y2092807D1*
X556606Y2096048D1*
X563395Y2098254D1*
X570447Y2099371D1*
X577585D1*
X584637Y2098254D1*
X591426Y2096048D1*
X597787Y2092807D1*
X817115Y2093141D2*
X818783Y2100097D1*
X821515Y2106693D1*
X825245Y2112779D1*
X829882Y2118208D1*
X835310Y2122844D1*
X841397Y2126574D1*
X847993Y2129306D1*
X854934Y2130973D1*
X862051Y2131533D1*
X869168Y2130973D1*
X876110Y2129306D1*
X882706Y2126574D1*
X888793Y2122844D1*
X894221Y2118208D1*
X898858Y2112779D1*
X902588Y2106693D1*
X905320Y2100097D1*
X906986Y2093155D1*
X907546Y2086038D1*
X2668561Y844016D2*
D28*
X2707433Y805144D1*
X2668561Y844016D2*
X2629688Y805144D1*
X2529688Y882888D2*
X2607433Y805144D1*
X2568561Y844016D2*
X2529688Y805144D1*
X2429688Y882888D2*
X2507433Y805144D1*
Y882888D2*
X2429688Y805144D1*
X2329688Y882888D2*
X2407433Y805144D1*
Y882888D2*
X2329688Y805144D1*
X2229688Y882888D2*
X2307433Y805144D1*
Y882888D2*
X2229688Y805144D1*
X2129688Y882888D2*
X2207433Y805144D1*
Y882888D2*
X2129688Y805144D1*
X3068561Y844016D2*
X3107433Y805144D1*
Y882888D2*
X3029688Y805144D1*
X2929688Y882888D2*
X3007433Y805144D1*
X2968561Y844016D2*
X2929688Y805144D1*
X2829688Y882888D2*
X2907433Y805144D1*
Y882888D2*
X2829688Y805144D1*
X2768561Y844016D2*
X2807433Y805144D1*
Y882888D2*
X2729688Y805144D1*
X2419016Y2144016D2*
X2380144Y2105144D1*
X2519016Y2144016D2*
X2557888Y2105144D1*
Y2182888D2*
X2519016Y2144016D1*
X2580144Y2182888D2*
X2657888Y2105144D1*
Y2182888D2*
X2580144Y2105144D1*
X2680144Y2182888D2*
X2757888Y2105144D1*
Y2182888D2*
X2680144Y2105144D1*
X2780144Y2182888D2*
X2857888Y2105144D1*
Y2182888D2*
X2780144Y2105144D1*
X2880144Y2182888D2*
X2919016Y2144016D1*
X2880144Y2105144D1*
X3057888Y2182888D2*
X3019016Y2144016D1*
X3080144Y2182888D2*
X3119016Y2144016D1*
X3157888Y2182888D2*
X3119016Y2144016D1*
X924860Y2338172D2*
X1013172Y2249860D1*
Y2338172D2*
X924860Y2249860D1*
X824860Y2338172D2*
X913172Y2249860D1*
Y2338172D2*
X824860Y2249860D1*
X1050345Y657840D2*
X1197687Y510499D1*
Y657840D2*
X1050345Y510499D1*
X1235385Y775950D2*
X1382726Y628609D1*
Y775950D2*
X1235385Y628609D1*
X1223544Y2610945D2*
X1184247Y2571649D1*
X2923544Y2510945D2*
X2962840Y2471649D1*
X2923544Y2510945D2*
X2884247Y2471649D1*
X452972Y1932067D2*
X535060Y1849978D1*
Y1932067D2*
X452972Y1849978D1*
Y1722067D2*
X535060Y1639978D1*
Y1722067D2*
X452972Y1639978D1*
Y1512067D2*
X535060Y1429978D1*
Y1512067D2*
X452972Y1429978D1*
Y1302067D2*
X535060Y1219978D1*
Y1302067D2*
X452972Y1219978D1*
Y1092067D2*
X535060Y1009978D1*
Y1092067D2*
X452972Y1009978D1*
X1355788Y991861D2*
X1396832Y950817D1*
X1355788Y991861D2*
X1314743Y950817D1*
X3017883Y2375791D2*
X3091451Y2302223D1*
Y2375791D2*
X3017883Y2302223D1*
X1278706Y2100756D2*
X1317578Y2061883D1*
X1278706Y2023011D1*
X1275164Y1998786D2*
X1314036Y1959914D1*
X1275164Y1921042D1*
X3219016Y1784016D2*
X3258908Y1744124D1*
Y1823908D2*
X3219016Y1784016D1*
X1379124Y1523908D2*
X1419016Y1484016D1*
X1458908Y1523908D2*
X1419016Y1484016D1*
X1779124Y1223908D2*
X1819016Y1184016D1*
X1779124Y1144124D1*
D35*
X2668561Y944016D3*
D36*
Y844016D3*
X2568561Y944016D3*
Y844016D3*
X2468561Y944016D3*
Y844016D3*
X2368561Y944016D3*
Y844016D3*
X2268561Y944016D3*
Y844016D3*
X2168561Y944016D3*
Y844016D3*
D35*
Y1044016D3*
D36*
X2268561D3*
X2368561D3*
X2468561D3*
X2568561D3*
X2668561D3*
D35*
X3068561Y944016D3*
D36*
Y844016D3*
X2968561Y944016D3*
Y844016D3*
X2868561Y944016D3*
Y844016D3*
X2768561Y944016D3*
Y844016D3*
D35*
Y1044016D3*
D36*
X2868561D3*
X2968561D3*
X3068561D3*
D35*
X2419016Y2044016D3*
D36*
Y2144016D3*
X2519016Y2044016D3*
Y2144016D3*
X2619016Y2044016D3*
Y2144016D3*
X2719016Y2044016D3*
Y2144016D3*
X2819016Y2044016D3*
Y2144016D3*
X2919016Y2044016D3*
Y2144016D3*
X3019016Y2044016D3*
Y2144016D3*
X3119016Y2044016D3*
Y2144016D3*
D37*
X1069016Y2294016D3*
D38*
X969016D3*
X869016D3*
X669016D3*
X769016D3*
D35*
X2719016Y2344016D3*
D36*
Y2244016D3*
X2619016Y2344016D3*
Y2244016D3*
D39*
X2519016Y2344016D3*
D40*
X2419016D3*
X2319016D3*
X2219016D3*
Y2244016D3*
X2319016D3*
X2419016D3*
X2519016D3*
D41*
X1124016Y820390D3*
Y584170D3*
X1309055Y702280D3*
D121*
X1023544Y2510945D3*
Y2610945D3*
X1123544Y2510945D3*
Y2610945D3*
X1223544Y2510945D3*
Y2610945D3*
X1323544Y2510945D3*
Y2610945D3*
X1423544Y2510945D3*
Y2610945D3*
X1523544Y2510945D3*
Y2610945D3*
X1623544Y2510945D3*
Y2610945D3*
X1723544Y2510945D3*
Y2610945D3*
X1823544Y2510945D3*
Y2610945D3*
X1923544Y2510945D3*
Y2610945D3*
X2023544Y2510945D3*
Y2610945D3*
X2123544Y2510945D3*
Y2610945D3*
X2223544Y2510945D3*
Y2610945D3*
X2323544Y2510945D3*
Y2610945D3*
X2423544Y2510945D3*
Y2610945D3*
X2523544Y2510945D3*
Y2610945D3*
X2623544Y2510945D3*
Y2610945D3*
X2723544Y2510945D3*
Y2610945D3*
X2823544Y2510945D3*
Y2610945D3*
X2923544Y2510945D3*
Y2610945D3*
D44*
X494016Y1891023D3*
X594016D3*
X694016D3*
X494016Y1681023D3*
X594016D3*
X694016D3*
X494016Y1471023D3*
X594016D3*
X694016D3*
X494016Y1261023D3*
X594016D3*
X694016D3*
X494016Y1051023D3*
X594016D3*
X694016D3*
X1355788Y991861D3*
X1255788D3*
X1155788D3*
D35*
X3119016Y1944016D3*
D36*
X3019016D3*
X2919016D3*
X2819016D3*
X2719016D3*
X2619016D3*
X2519016D3*
X2419016D3*
D35*
X2319016D3*
D36*
X2219016D3*
X2119016D3*
X2019016D3*
X1919016D3*
X1819016D3*
D46*
X3119667Y2339007D3*
X3054667D3*
X2984667D3*
X2919667D3*
D47*
X520557Y849233D3*
D48*
X620557D3*
X720557D3*
D34*
X2256789Y2072171D3*
Y2146974D3*
X2131789Y2072171D3*
Y2146974D3*
X2006789Y2072171D3*
Y2146974D3*
X1881789Y2072171D3*
Y2146974D3*
X2819016Y1606614D3*
Y1681418D3*
X2719016Y1606614D3*
Y1681418D3*
X2419016Y1431418D3*
Y1356614D3*
X2519016Y1431418D3*
Y1356614D3*
D35*
X1617578Y2061883D3*
D36*
X1517578D3*
X1417578D3*
X1317578D3*
D35*
X1614036Y1959914D3*
D36*
X1514036D3*
X1414036D3*
X1314036D3*
D39*
X1619016Y2344016D3*
D40*
X1519016D3*
X1419016D3*
X1319016D3*
Y2244016D3*
X1419016D3*
X1519016D3*
X1619016D3*
D35*
X2119016Y2344016D3*
D36*
Y2244016D3*
X2019016Y2344016D3*
Y2244016D3*
X1919016Y2344016D3*
Y2244016D3*
X1819016Y2344016D3*
Y2244016D3*
X1719016Y2344016D3*
Y2244016D3*
D47*
X1596317Y814777D3*
D48*
X1895529D3*
D52*
X3219016Y1784016D3*
X3119016D3*
X3019016D3*
X2919016D3*
X2819016D3*
X2719016D3*
X2619016D3*
X2519016D3*
X2419016D3*
X2319016D3*
X2219016D3*
X2119016D3*
X2019016D3*
X1919016D3*
X1419016Y1284016D3*
Y1384016D3*
Y1484016D3*
Y1584016D3*
X1619016Y1184016D3*
X1919016D3*
X2019016D3*
X2119016D3*
X2219016D3*
X2319016D3*
X2419016D3*
X2519016D3*
X2619016D3*
X2719016D3*
X2819016D3*
X2919016D3*
X3019016D3*
X3119016D3*
X3219016D3*
X3119016Y1284016D3*
X2919016D3*
X2819016D3*
X2719016D3*
X1319016Y1784016D3*
X1219016D3*
X1419016D3*
X1519016D3*
X1619016D3*
X1719016D3*
X1119016D3*
X1019016D3*
X919016D3*
Y1184016D3*
X1819016Y1784016D3*
X1019016Y1184016D3*
X1819016D3*
X1119016D3*
X1319016D3*
X1419016D3*
X1519016D3*
X1219016D3*
X1719016D3*
X1419016Y1684016D3*
D54*
X3183671Y1377272D3*
X3132490D3*
D56*
X3189171Y1486538D3*
X3102557D3*
M02*
