G04 DipTrace Beta 3.0.9.0*
G04 TeensyArbotixProRPIT3.6V0.3.gtl*
%MOIN*%
G04 #@! TF.FileFunction,Copper,L1,Top*
G04 #@! TF.Part,Single*
%AMOUTLINE0*
4,1,4,
-0.0175,-0.025,
-0.0175,0.025,
0.0175,0.025,
0.0175,-0.025,
-0.0175,-0.025,
0*%
%AMOUTLINE1*
4,1,4,
0.0285,-0.0155,
-0.0285,-0.0155,
-0.0285,0.0155,
0.0285,0.0155,
0.0285,-0.0155,
0*%
%AMOUTLINE2*5,1,8,0,0,0.065199,-22.499571*%
G04 #@! TA.AperFunction,CopperBalancing*
%ADD13C,0.025*%
G04 #@! TA.AperFunction,ViaPad*
%ADD15C,0.04*%
G04 #@! TA.AperFunction,Conductor*
%ADD16C,0.023622*%
%ADD19C,0.008005*%
%ADD20C,0.08*%
%ADD21C,0.06*%
%ADD22C,0.059055*%
%ADD23C,0.01*%
%ADD24C,0.035*%
%ADD26C,0.03*%
%ADD27C,0.1*%
G04 #@! TA.AperFunction,CopperBalancing*
%ADD28C,0.013005*%
%ADD29R,0.051181X0.059055*%
%ADD32R,0.05X0.1*%
%ADD33R,0.062992X0.106299*%
%ADD34R,0.059055X0.051181*%
G04 #@! TA.AperFunction,ComponentPad*
%ADD35R,0.059055X0.059055*%
%ADD36C,0.059055*%
%ADD37R,0.074X0.074*%
%ADD38C,0.074*%
%ADD39R,0.068898X0.068898*%
%ADD40C,0.068898*%
%ADD41C,0.15748*%
%ADD44C,0.065199*%
%ADD45R,0.047244X0.047244*%
G04 #@! TA.AperFunction,ComponentPad*
%ADD46C,0.05315*%
%ADD47R,0.074803X0.074803*%
%ADD48C,0.074803*%
%ADD49R,0.031496X0.035433*%
%ADD51R,0.043307X0.023622*%
G04 #@! TA.AperFunction,ComponentPad*
%ADD52C,0.06194*%
%ADD53R,0.023622X0.07874*%
%ADD56R,0.023622X0.023622*%
G04 #@! TA.AperFunction,ViaPad*
%ADD58C,0.165*%
%ADD119OUTLINE0*%
%ADD120OUTLINE1*%
G04 #@! TA.AperFunction,ComponentPad*
%ADD121OUTLINE2*%
%FSLAX26Y26*%
G04*
G70*
G90*
G75*
G01*
G04 Top*
%LPD*%
X1334485Y1099630D2*
D13*
X1151777D1*
Y1100230D1*
X3068561Y944016D2*
X3165457D1*
Y934218D1*
X1074016Y1414016D2*
X1020015D1*
Y1425414D1*
X1994016Y1654016D2*
X2100360D1*
Y1575170D1*
X1059107Y1284475D2*
X1005170D1*
Y1274318D1*
X574016Y2054016D2*
D15*
Y2330016D1*
X636016Y2392016D1*
Y2580948D1*
X575080D1*
X2971452Y1566075D2*
D16*
X2411341D1*
X2364696Y1519429D1*
X1825902Y1409380D2*
Y1305672D1*
X1831688D1*
X1814016Y1494016D2*
X1825902Y1482130D1*
Y1409380D1*
X907810Y1617776D2*
X869805Y1614782D1*
X866285Y1614504D1*
X854000Y1649197D1*
X862051Y2086038D2*
D15*
X830469D1*
Y1929049D1*
Y1876446D1*
X907810Y1617776D2*
D16*
X951275D1*
Y1530458D1*
X942688D1*
X574016Y2054016D2*
D15*
X566047Y2046047D1*
X429036D1*
Y502222D1*
X460649Y470609D1*
X3233397Y802555D2*
X3229213Y806739D1*
Y1184016D1*
X3219016D1*
X910026Y1929049D2*
D13*
X830469D1*
X2819016Y1284016D2*
D19*
Y1334448D1*
Y1391101D1*
X2819320D1*
X2819016Y1334448D2*
X2591624Y1388478D1*
X2326777D1*
X1341311Y1273318D2*
X1285605Y1271906D1*
X1814016Y874016D2*
Y734016D1*
X1832016Y716016D1*
X2192654D1*
X2215885Y692785D1*
Y524016D1*
X1219016Y1184016D2*
X1170554Y1135554D1*
X1116065D1*
Y1065369D1*
X1402663D1*
X1428016Y1040016D1*
Y496016D1*
X1505625Y418407D1*
X2508151D1*
Y524016D1*
X2565885D1*
X3019016Y1784016D2*
Y1944016D1*
X2619016Y1784016D2*
Y1944016D1*
X2174016Y1634016D2*
Y1274016D1*
X1227494Y2006042D2*
Y2203255D1*
X1235420D1*
X2119016Y1784016D2*
Y1944016D1*
Y2084016D1*
X2101016Y2102016D1*
X2080717D1*
X1962016Y2220717D1*
Y2274016D1*
X1944016Y2292016D1*
X1584016D1*
X1566016Y2274016D1*
Y2214016D1*
X1548016Y2196016D1*
X1467016D1*
X1419016Y2244016D1*
X2019016Y1784016D2*
Y1944016D1*
X2010903D1*
Y2024544D1*
X1977431Y2058016D1*
X1976061D1*
X1819016Y2215061D1*
Y2244016D1*
X1919016Y1784016D2*
Y1944016D1*
Y2022016D1*
X1901016Y2040016D1*
X1898154D1*
X1719016Y2219154D1*
Y2244016D1*
X2168561Y1044016D2*
X2019016Y1184016D1*
Y1277613D1*
X2140016Y1398613D1*
Y1690016D1*
X2068016Y1762016D1*
Y2070189D1*
X2062189Y2076016D1*
X2060134D1*
X1919016Y2217134D1*
Y2244016D1*
X2268561Y1044016D2*
X2229343Y1108024D1*
X2172772Y1129881D1*
X2119016Y1184016D1*
X2368561Y1044016D2*
X2307769Y1114453D1*
X2219016Y1184016D1*
X2468561Y1044016D2*
X2433765Y1113167D1*
X2381053D1*
X2319016Y1184016D1*
X2568561Y1044016D2*
X2509621Y1093882D1*
X2419016Y1184016D1*
X2375016Y1228016D1*
X2284016D1*
X2220280Y1291752D1*
Y1694810D1*
X2266994Y1741524D1*
Y2196038D1*
X2219016Y2244016D1*
X2668561Y1044016D2*
X2613761Y1106738D1*
X2597047Y1128595D1*
X2519016Y1184016D1*
X2474016Y1294016D2*
X2277189D1*
X2250309Y1320897D1*
Y1647563D1*
X2362016Y1759271D1*
Y2030016D1*
X2319016Y2073016D1*
Y2244016D1*
X2919016Y1784016D2*
Y1944016D1*
X2964016Y1989016D1*
Y2094319D1*
X3046025D1*
X3065184Y2113478D1*
Y2173352D1*
X3016488Y2222047D1*
X2943985D1*
X2868016Y2298016D1*
Y2410016D1*
X2850016Y2428016D1*
X2484016D1*
X2466016Y2410016D1*
Y2310016D1*
X2448016Y2292016D1*
X2167016D1*
X2119016Y2244016D1*
X2768561Y1044016D2*
X2729473Y1099024D1*
X2651046Y1128595D1*
X2619016Y1184016D1*
X2868561Y1044016D2*
X2823327Y1110595D1*
X2764185Y1140166D1*
X2719016Y1184016D1*
X2968561Y1044016D2*
X2927467Y1114453D1*
X2872183Y1127309D1*
X2819016Y1184016D1*
X3068561Y1044016D2*
X3003322Y1118310D1*
X2919016Y1184016D1*
X3068561Y1044016D2*
X3112016Y1087471D1*
Y1120016D1*
X3073587Y1158445D1*
Y1698236D1*
X1974016Y1834016D2*
Y1758016D1*
X1956016Y1740016D1*
X1882016D1*
X1864016Y1758016D1*
Y2002016D1*
X1846016Y2020016D1*
X1684016D1*
X1666016Y2038016D1*
Y2197016D1*
X1619016Y2244016D1*
X1519016Y1784016D2*
X1520609D1*
Y1849647D1*
X1494474Y1875782D1*
X1313792D1*
X1266025Y1828016D1*
X1080016D1*
X1062016Y1810016D1*
Y1729946D1*
X961284D1*
Y1655177D1*
X1014109D1*
X1020015Y1350610D2*
X1090610D1*
X1110016Y1370016D1*
Y1454016D1*
X1128016Y1472016D1*
X1305578D1*
X1324323Y1490761D1*
Y1697096D1*
X1364597Y1737370D1*
X1380574D1*
X1419016Y1775813D1*
Y1784016D1*
X913715Y1425414D2*
X955414D1*
X1004016Y1474016D1*
X1042016D1*
X1114387Y1492612D1*
X1094016Y1490016D1*
X1295918D1*
Y1784016D1*
X1319016D1*
X1114387Y1492612D2*
X1106788D1*
Y1567244D1*
X1056256Y1617776D1*
X1014109D1*
X1219016Y1784016D2*
Y1726016D1*
X1180891D1*
Y1683156D1*
X2819016Y1784016D2*
Y1944016D1*
X2764016Y1999016D1*
Y2274016D1*
X2746016Y2292016D1*
X2567016D1*
X2519016Y2244016D1*
X1019016Y1784016D2*
Y1828016D1*
X1037016Y1846016D1*
X1236694D1*
X1285843Y1895164D1*
X1418775D1*
X1454789Y1931179D1*
Y2058943D1*
X1423201Y2067507D1*
X1417578Y2061883D1*
X1574836Y1696021D2*
X1511528Y1632713D1*
Y1474886D1*
X1524506D1*
X1322453Y1405264D2*
X1342822Y1483550D1*
Y1684240D1*
X1414339Y1733862D1*
X1473718Y1741120D1*
X1469120Y1835448D1*
X2719016Y1784016D2*
Y1944016D1*
Y1882016D1*
X2688016Y1851016D1*
Y1740016D1*
X2486016D1*
X2468016Y1758016D1*
Y2195016D1*
X2419016Y2244016D1*
X2519016Y1784016D2*
Y1944016D1*
X2174016Y1734016D2*
Y2089016D1*
X2019016Y2244016D1*
X2419016Y1784016D2*
Y1944016D1*
X2674016Y1994016D2*
Y2199016D1*
X2719016Y2244016D1*
X2319016Y1784016D2*
Y1944016D1*
X2994016Y2574016D2*
Y2532016D1*
X3164016Y2362016D1*
Y2106016D1*
X3146016Y2088016D1*
X3082016D1*
X3064016Y2070016D1*
Y1884016D1*
X3074016Y1874016D1*
X2219016Y1784016D2*
Y1944016D1*
X1754016Y1914016D2*
X1563359D1*
Y2101037D1*
X1544998Y2119398D1*
X1443634D1*
X1319016Y2244016D1*
X1619016Y1184016D2*
X1575016Y1228016D1*
X1550016D1*
X1541943Y1236089D1*
Y1305891D1*
X694016Y1051023D2*
Y1261023D1*
Y1392999D1*
Y1471023D1*
Y1681023D1*
Y1799679D1*
Y1891023D1*
Y1799679D2*
X830469Y1801643D1*
X694016Y1681023D2*
X907810Y1692579D1*
X913715Y1388012D2*
Y1392999D1*
X694016D1*
X2919016Y2144016D2*
D22*
X3019016D1*
X1875902Y1409380D2*
D23*
X1895526Y1342843D1*
X1906491Y1305672D1*
X1819016Y1184016D2*
X1836242Y1231624D1*
X1882544Y1246790D1*
X1884065Y1250530D1*
X1906491Y1305672D1*
X1168286Y1919275D2*
D21*
Y1945824D1*
X1278874D1*
D22*
X1313070Y1966675D1*
X1314036Y1959914D1*
X494778Y2583206D2*
D23*
Y2643499D1*
X702734Y2650570D1*
X731019Y2403076D1*
X871029Y2339436D1*
X858301Y2301251D1*
X875272Y2292765D1*
X969016Y2294016D1*
X2030885Y524016D2*
X2045303Y526369D1*
X2046866Y540710D1*
X2082046Y594016D1*
X2380885Y524016D2*
X2396175D1*
X2397679Y540628D1*
X2432046Y594016D1*
X1376516Y524016D2*
D24*
X1357050Y575456D1*
D21*
X1309055Y702280D1*
X2819320Y1465904D2*
D23*
X3030059Y1521621D1*
Y1736055D1*
X3179872D1*
X3219016Y1784016D1*
X913715Y1350610D2*
X920975Y1316107D1*
X930366Y1274318D1*
X933853Y891785D2*
D21*
X944193Y763992D1*
X1124016Y584170D1*
X2801516Y524016D2*
D23*
Y733429D1*
X2768561Y844016D1*
X1192722Y1524100D2*
X1194180Y1556025D1*
X1182601Y1599009D1*
X1014109Y1692579D2*
X1082727D1*
X1182601Y1599009D1*
X1819016Y1184016D2*
D15*
X1736401Y1106359D1*
Y601754D1*
X2030885Y524016D2*
D23*
X1736401Y601754D1*
X2432046Y594016D2*
X2259582D1*
D21*
Y601754D1*
X1017491Y1530458D2*
D26*
X1067297Y1528301D1*
X1194180Y1556025D2*
D23*
X1147103D1*
X1143137Y1522352D1*
X2098481Y1481641D2*
X2007654Y1311628D1*
X919462Y1316107D2*
X920975D1*
X3068561Y844016D2*
D15*
X3165457Y859415D1*
X1719016Y1784016D2*
D19*
Y1692016D1*
X1737016Y1674016D1*
X1800016D1*
Y1576016D1*
X1852016Y1524016D1*
Y1520996D1*
X1892954Y1480058D1*
X1952436D1*
X1966016Y1466478D1*
Y784016D1*
X1984016Y766016D1*
X2388016D1*
X2435983Y718049D1*
Y674016D1*
X1789302Y1080272D2*
Y939603D1*
X1780604D1*
Y674016D1*
X2085983D1*
X1674016Y1647255D2*
Y1734016D1*
X1619016D1*
Y1784016D1*
X2474016Y1234016D2*
X2522790D1*
Y1339215D1*
X2283486D1*
Y1602920D1*
X2365469Y1684903D1*
X2859129D1*
X2866016Y1678016D1*
Y2259907D1*
X2823517D1*
X2834016Y2394016D2*
X2823517Y2383517D1*
Y2334710D1*
X2164723Y594016D2*
X2160786Y597953D1*
Y674016D1*
X2514723Y594016D2*
X2510786Y597953D1*
Y674016D1*
X494778Y2500529D2*
Y2464016D1*
X512778Y2446016D1*
X556016D1*
X575080Y2465080D1*
Y2506145D1*
X1230124Y1441423D2*
X1184589D1*
X1165183Y1422016D1*
Y1373352D1*
X1158314Y1345709D1*
X1098198Y1330181D1*
Y1225988D1*
X969828D1*
Y1132016D1*
X982016D1*
X1000016Y1114016D1*
Y1118113D1*
X1071336Y1046793D1*
X1385239D1*
X1410016Y1022016D1*
Y478016D1*
X540016D1*
X520557Y497475D1*
Y849233D1*
X1257404Y1599009D2*
Y1524100D1*
X1267525D1*
X1255694Y1683156D2*
X1257404D1*
Y1599009D1*
X1895529Y814777D2*
X1869866D1*
Y1215870D1*
X1928095Y1241217D1*
X1948016Y1246016D1*
Y1350016D1*
X1925902D1*
Y1409380D1*
X1624630Y1547112D2*
X1660920D1*
X1680016Y1528016D1*
Y1462016D1*
X1662016Y1444016D1*
Y880477D1*
X1596317Y814777D1*
X1680016Y1462016D2*
X1775902D1*
Y1409380D1*
X1549827Y1405702D2*
X1565735D1*
Y1547112D1*
X1549827D1*
Y1599605D1*
X1700427D1*
X1734016Y1566016D1*
X1775902D1*
Y1621978D1*
X1616746Y1305891D2*
X1624630D1*
Y1405702D1*
X1825902Y1621978D2*
Y1628067D1*
X1875902D1*
Y1621978D1*
Y1566011D1*
X1941036Y1500877D1*
X2023677D1*
Y1481641D1*
X1561516Y524016D2*
X1479502D1*
Y1052530D1*
X1375247Y1156785D1*
Y1535372D1*
X1419016Y1579141D1*
Y1584016D1*
X2454016Y754016D2*
X2678515D1*
Y412709D1*
X2858184D1*
Y522827D1*
X2965402D1*
X2986516Y501713D1*
Y524016D1*
X1651370Y733991D2*
X1510378D1*
Y1090141D1*
X1463063Y1137456D1*
Y1661788D1*
X1449681Y1675170D1*
X1419016D1*
Y1684016D1*
X1719016Y2344016D2*
X1761016Y2386016D1*
X1904016D1*
X1923544Y2405544D1*
Y2510945D1*
X2123544Y2610945D2*
X2066016D1*
Y2391016D1*
X2019016Y2344016D1*
X2223544Y2610945D2*
X2166016D1*
Y2391016D1*
X2119016Y2344016D1*
X2723544Y2610945D2*
Y2654016D1*
X1584016D1*
X1566016Y2636016D1*
Y2391016D1*
X1519016Y2344016D1*
X1323544Y2610945D2*
X1268016D1*
Y2395016D1*
X1319016Y2344016D1*
X2025557Y1575170D2*
Y1568878D1*
X1982506D1*
X1925902Y1625482D1*
Y1621978D1*
X1519016Y1184016D2*
X1483967Y1219065D1*
Y1655626D1*
X1575044Y1746702D1*
X1567521Y1754225D1*
Y1836469D1*
X1758086D1*
X1768116Y1826439D1*
Y1707086D1*
X1780151Y1695050D1*
X1921570D1*
X1925902Y1690718D1*
Y1621978D1*
X594016Y1891023D2*
D20*
Y1681023D1*
Y1471023D1*
Y1261023D1*
Y1051023D1*
X620557Y849233D1*
X720557D2*
D27*
X794383Y1056108D1*
X918125Y1082513D1*
X933853Y1066785D1*
D20*
X981452Y1048457D1*
X1077612Y881137D1*
X1124016Y820390D1*
X1248475Y897386D1*
X1255788Y991861D1*
X933853Y1066785D2*
D21*
Y1075359D1*
X787423D1*
Y1348386D1*
X795655D1*
X674016Y1974016D2*
Y2084016D1*
X770469Y2180469D1*
Y2292563D1*
X769016Y2294016D1*
X794016Y1454016D2*
Y1614016D1*
X1134055Y1288534D2*
D23*
X1210802D1*
Y1271906D1*
X1239986Y1373352D1*
X1123544Y2610945D2*
D15*
X1023544D1*
X944886Y2562419D1*
X959945Y2409948D1*
X1074769Y2368536D1*
X1074343Y2363004D1*
X1069016Y2294016D1*
X1058050Y1919275D2*
X1069016Y1930240D1*
Y2294016D1*
X996641Y1929049D2*
D13*
X1040007D1*
X1049780Y1919275D1*
X1058050D1*
D15*
X862051Y2086038D3*
X460649Y470609D3*
X3233397Y802555D3*
X2326777Y1388478D3*
X1341311Y1273318D3*
X1574836Y1696021D3*
X1524506Y1474886D3*
X1322453Y1405264D3*
X1469120Y1835448D3*
X1736401Y601754D3*
X2259582D3*
X1067297Y1528301D3*
X1143137Y1522352D3*
X2007654Y1311628D3*
X919462Y1316107D3*
D58*
X3115276Y631811D3*
X831811D3*
Y2560945D3*
X3115276D3*
D15*
X1151777Y1100230D3*
X1334485Y1099630D3*
X1074016Y1414016D3*
X1994016Y1654016D3*
X1059107Y1284475D3*
X2726202Y1522041D3*
X574016Y2054016D3*
X1814016Y1494016D3*
X2364696Y1519429D3*
X2971452Y1566075D3*
X854000Y1649197D3*
X1814016Y874016D3*
X2174016Y1274016D3*
Y1634016D3*
X1235420Y2203255D3*
X1227494Y2006042D3*
X2474016Y1294016D3*
X3073587Y1698236D3*
X1974016Y1834016D3*
X2174016Y1734016D3*
X2674016Y1994016D3*
X3074016Y1874016D3*
X2994016Y2574016D3*
X1754016Y1914016D3*
X1789302Y1080272D3*
X1674016Y1647255D3*
X2474016Y1234016D3*
X2834016Y2394016D3*
X2454016Y754016D3*
X1651370Y733991D3*
X795655Y1348386D3*
X1134055Y1288534D3*
X674016Y1974016D3*
X794016Y1614016D3*
Y1454016D3*
X675027Y2626647D2*
D13*
X727693D1*
X3219363D2*
X3249031D1*
X693191Y2601778D2*
X715388D1*
X3231667D2*
X3249031D1*
X696999Y2527172D2*
X713142D1*
X3233962D2*
X3249031D1*
X696999Y2502303D2*
X723494D1*
X3223611D2*
X3249031D1*
X696999Y2477435D2*
X741755D1*
X3205349D2*
X3249031D1*
X696999Y2452566D2*
X775495D1*
X1064626D2*
X1082444D1*
X1164626D2*
X1182444D1*
X1364626D2*
X1382444D1*
X1464626D2*
X1482444D1*
X2964626D2*
X3010896D1*
X3171560D2*
X3249031D1*
X696999Y2427697D2*
X896931D1*
X1085622D2*
X1223005D1*
X1313015D2*
X1521003D1*
X2909158D2*
X3035749D1*
X3160915D2*
X3249031D1*
X696999Y2402828D2*
X899372D1*
X1124636D2*
X1223005D1*
X2934890D2*
X2969441D1*
X2999880D2*
X3039460D1*
X3185769D2*
X3249031D1*
X695290Y2377960D2*
X908503D1*
X1134988D2*
X1226619D1*
X3205886D2*
X3249031D1*
X1146999Y2353091D2*
X1244148D1*
X3209011D2*
X3249031D1*
X1146999Y2328222D2*
X1245320D1*
X3209011D2*
X3249031D1*
X1146999Y2303353D2*
X1255964D1*
X3209011D2*
X3249031D1*
X1146999Y2278485D2*
X1252204D1*
X3011062D2*
X3028279D1*
X3209011D2*
X3249031D1*
X1146999Y2253616D2*
X1203132D1*
X3047439D2*
X3119050D1*
X3209011D2*
X3249031D1*
X909451Y2228747D2*
X928572D1*
X1146999D2*
X1180281D1*
X3072390D2*
X3119050D1*
X3209011D2*
X3249031D1*
X841433Y2203878D2*
X1008015D1*
X1130007D2*
X1174421D1*
X3209011D2*
X3249031D1*
X841433Y2179009D2*
X1008015D1*
X1130007D2*
X1179695D1*
X3209011D2*
X3249031D1*
X836208Y2154141D2*
X1008015D1*
X1130007D2*
X1182527D1*
X1272488D2*
X1346296D1*
X3209011D2*
X3249031D1*
X903982Y2129272D2*
X1008015D1*
X1130007D2*
X1182527D1*
X1272488D2*
X1305769D1*
X1329372D2*
X1371150D1*
X3209011D2*
X3249031D1*
X920095Y2104403D2*
X1008015D1*
X1130007D2*
X1182527D1*
X3208962D2*
X3249031D1*
X922683Y2079534D2*
X1008015D1*
X1130007D2*
X1182527D1*
X3199734D2*
X3249031D1*
X913943Y2054666D2*
X1008015D1*
X1130007D2*
X1182527D1*
X3188699D2*
X3249031D1*
X891433Y2029797D2*
X1008015D1*
X1130007D2*
X1171540D1*
X3188064D2*
X3249031D1*
X891433Y2004928D2*
X985554D1*
X3189529D2*
X3249031D1*
X891433Y1980059D2*
X985554D1*
X3189529D2*
X3249031D1*
X3189529Y1955191D2*
X3249031D1*
X3189529Y1930322D2*
X3249031D1*
X3189529Y1905453D2*
X3249031D1*
X3189529Y1880584D2*
X3249031D1*
X3132058Y1855715D2*
X3249031D1*
X1099929Y1706503D2*
X1114314D1*
X2911013D2*
X3013191D1*
X3134011D2*
X3249031D1*
X1076785Y1681634D2*
X1114314D1*
X2911013D2*
X3014997D1*
X3132204D2*
X3249031D1*
X1076785Y1656765D2*
X1114314D1*
X2905300D2*
X3028620D1*
X3118581D2*
X3249031D1*
X2375076Y1631897D2*
X3028620D1*
X3118581D2*
X3249031D1*
X2350173Y1607028D2*
X2379646D1*
X3015749D2*
X3028608D1*
X3118581D2*
X3249031D1*
X2328494Y1582159D2*
X2353816D1*
X3118581D2*
X3249031D1*
X3118581Y1557290D2*
X3249031D1*
X3118581Y1532422D2*
X3249031D1*
X2426443Y1507553D2*
X2667048D1*
X2889870D2*
X3028620D1*
X3118581D2*
X3249031D1*
X2412722Y1482684D2*
X2680427D1*
X2889870D2*
X3028620D1*
X3118581D2*
X3249031D1*
X2328494Y1457815D2*
X2748787D1*
X2889870D2*
X3028620D1*
X3118581D2*
X3249031D1*
X2367312Y1432946D2*
X2748787D1*
X2889870D2*
X3028620D1*
X3118581D2*
X3249031D1*
X2011013Y1408078D2*
X2086872D1*
X2695437D2*
X2748787D1*
X2889870D2*
X3028620D1*
X3118581D2*
X3249031D1*
X2011013Y1383209D2*
X2062019D1*
X2889870D2*
X3028620D1*
X3118581D2*
X3249031D1*
X2011013Y1358340D2*
X2037165D1*
X2889870D2*
X3028620D1*
X3118581D2*
X3249031D1*
X2970290Y1333471D2*
X3028620D1*
X3170290D2*
X3249031D1*
X2986501Y1308603D2*
X3028620D1*
X3186501D2*
X3249031D1*
X2990994Y1283734D2*
X3028620D1*
X3190994D2*
X3249031D1*
X2986257Y1258865D2*
X3028620D1*
X3186257D2*
X3249031D1*
X1707009Y1109652D2*
X1736238D1*
X2011013D2*
X2033796D1*
X1707009Y1084784D2*
X1728474D1*
X2011013D2*
X2060359D1*
X1707009Y1059915D2*
X1731941D1*
X2011013D2*
X2086921D1*
X1707009Y1035046D2*
X1744294D1*
X2011013D2*
X2098054D1*
X1707009Y1010177D2*
X1744294D1*
X2011013D2*
X2098054D1*
X1707009Y985309D2*
X1744294D1*
X2011013D2*
X2098054D1*
X1707009Y960440D2*
X1741072D1*
X2011013D2*
X2100056D1*
X847829Y935571D2*
X867829D1*
X1707009D2*
X1735603D1*
X2011013D2*
X2098542D1*
X838943Y910702D2*
X867829D1*
X1330740D2*
X1365046D1*
X1707009D2*
X1735603D1*
X2011013D2*
X2106745D1*
X834988Y885834D2*
X867829D1*
X1328591D2*
X1365046D1*
X1707009D2*
X1735603D1*
X2011013D2*
X2112410D1*
X834988Y860965D2*
X867829D1*
X1320486D2*
X1365046D1*
X1702273D2*
X1735603D1*
X2011013D2*
X2100203D1*
X834988Y836096D2*
X867829D1*
X1300027D2*
X1365046D1*
X1680203D2*
X1735603D1*
X2011013D2*
X2098494D1*
X834988Y811227D2*
X867829D1*
X1674734D2*
X1735603D1*
X2011013D2*
X2106453D1*
X834988Y786359D2*
X1009333D1*
X1679958D2*
X1735603D1*
X2708572D2*
X2729939D1*
X2807156D2*
X2829939D1*
X2907156D2*
X2929939D1*
X3007156D2*
X3029939D1*
X3107156D2*
X3171882D1*
X834988Y761490D2*
X1020124D1*
X1705495D2*
X1735603D1*
X2722829D2*
X3189216D1*
X894753Y736621D2*
X1039509D1*
X1712331D2*
X1735603D1*
X2723513D2*
X3052302D1*
X3178249D2*
X3249031D1*
X925124Y711752D2*
X1077449D1*
X1170583D2*
X1189704D1*
X1707986D2*
X1735603D1*
X2256423D2*
X2369392D1*
X2723513D2*
X3021931D1*
X3208620D2*
X3249031D1*
X942068Y686883D2*
X1064997D1*
X1524490D2*
X1614167D1*
X1688552D2*
X1735603D1*
X2260867D2*
X2369392D1*
X2723513D2*
X3005037D1*
X3225515D2*
X3249031D1*
X951492Y662015D2*
X1033845D1*
X1524490D2*
X1737361D1*
X2260867D2*
X2369392D1*
X2723513D2*
X2995613D1*
X3234939D2*
X3249031D1*
X955203Y637146D2*
X1016951D1*
X1524490D2*
X1756990D1*
X2260867D2*
X2367439D1*
X2723513D2*
X2991902D1*
X953738Y612277D2*
X1007673D1*
X1524490D2*
X2017439D1*
X2260867D2*
X2367439D1*
X2723513D2*
X2993367D1*
X946853Y587408D2*
X1004304D1*
X1243728D2*
X1283113D1*
X1334988D2*
X1353816D1*
X1524490D2*
X1538826D1*
X1584206D2*
X2008210D1*
X2260867D2*
X2358210D1*
X2723513D2*
X2778816D1*
X2824197D2*
X2963826D1*
X3230349D2*
X3249031D1*
X933523Y562540D2*
X1006306D1*
X1241726D2*
X1320466D1*
X1617556D2*
X1974861D1*
X2271902D2*
X2324861D1*
X2723513D2*
X2745466D1*
X3216970D2*
X3249031D1*
X910329Y537671D2*
X1013874D1*
X1234158D2*
X1318025D1*
X1619997D2*
X1972419D1*
X2274392D2*
X2322419D1*
X2723513D2*
X2743025D1*
X3193777D2*
X3249031D1*
X1619997Y512802D2*
X1972419D1*
X2089382D2*
X2157380D1*
X2274392D2*
X2322419D1*
X2439382D2*
X2463142D1*
X2723513D2*
X2743025D1*
X3044997D2*
X3090925D1*
X3139626D2*
X3249031D1*
X1663943Y487933D2*
X1928474D1*
X2087722D2*
X2159040D1*
X2437722D2*
X2463142D1*
X3088943D2*
X3249031D1*
X1671511Y463065D2*
X1920906D1*
X2064626D2*
X2182136D1*
X2414626D2*
X2463142D1*
X3096511D2*
X3249031D1*
X3096511Y438196D2*
X3245564D1*
X870361Y978285D2*
X870363Y980285D1*
X863246Y980310D1*
X861097Y979851D1*
X832489Y899575D1*
X832516Y752854D1*
X841305Y752438D1*
X850740Y751322D1*
X860058Y749468D1*
X869202Y746889D1*
X878116Y743601D1*
X886744Y739623D1*
X895034Y734981D1*
X902933Y729702D1*
X910394Y723820D1*
X917371Y717371D1*
X923820Y710394D1*
X929702Y702933D1*
X934981Y695034D1*
X939623Y686744D1*
X943601Y678116D1*
X946889Y669202D1*
X949468Y660058D1*
X951322Y650740D1*
X952438Y641305D1*
X952811Y631811D1*
X952438Y622318D1*
X951322Y612883D1*
X949468Y603564D1*
X946889Y594420D1*
X943601Y585507D1*
X939623Y576878D1*
X934981Y568589D1*
X929702Y560689D1*
X923820Y553228D1*
X917371Y546251D1*
X910394Y539802D1*
X902933Y533920D1*
X895034Y528642D1*
X886744Y523999D1*
X879161Y520504D1*
X1025514Y520519D1*
X1018693Y532668D1*
X1013811Y544169D1*
X1010180Y556123D1*
X1007842Y568397D1*
X1006823Y580849D1*
X1007135Y593339D1*
X1008775Y605725D1*
X1011723Y617867D1*
X1015946Y629625D1*
X1021397Y640867D1*
X1028014Y651466D1*
X1035720Y661300D1*
X1044430Y670258D1*
X1054043Y678239D1*
X1064451Y685151D1*
X1075535Y690916D1*
X1087170Y695469D1*
X1099223Y698758D1*
X1111558Y700746D1*
X1124035Y701410D1*
X1136511Y700742D1*
X1148845Y698750D1*
X1160898Y695457D1*
X1172531Y690901D1*
X1183614Y685132D1*
X1194369Y677950D1*
X1192571Y688988D1*
X1191818Y701459D1*
X1192396Y713940D1*
X1194369Y726603D1*
X1185274Y720426D1*
X1177242Y715928D1*
X1168882Y712074D1*
X1160245Y708888D1*
X1151385Y706389D1*
X1142356Y704593D1*
X1133215Y703511D1*
X1124016Y703150D1*
X1114817Y703511D1*
X1105676Y704593D1*
X1096647Y706389D1*
X1087787Y708888D1*
X1079150Y712074D1*
X1070790Y715928D1*
X1062758Y720426D1*
X1055104Y725541D1*
X1047875Y731240D1*
X1041115Y737489D1*
X1034866Y744249D1*
X1029167Y751478D1*
X1024052Y759132D1*
X1019554Y767164D1*
X1015700Y775524D1*
X1012514Y784161D1*
X1010015Y793021D1*
X1008219Y802050D1*
X1007137Y811191D1*
X1006776Y820390D1*
X1007137Y829589D1*
X1009054Y842927D1*
X997353Y862785D1*
Y803285D1*
X870353D1*
Y980285D1*
X1000554Y2010924D2*
X1010564D1*
X1010516Y2218473D1*
X993516Y2218516D1*
Y2222569D1*
X982538Y2219737D1*
X972610Y2218602D1*
X962619Y2218788D1*
X952740Y2220291D1*
X943146Y2223086D1*
X934006Y2227124D1*
X925478Y2232334D1*
X919015Y2237457D1*
X912300Y2232156D1*
X903752Y2226981D1*
X894595Y2222981D1*
X884989Y2220225D1*
X875105Y2218762D1*
X865113Y2218617D1*
X855190Y2219793D1*
X845509Y2222269D1*
X838950Y2224768D1*
X838758Y2175094D1*
X837076Y2164478D1*
X833755Y2154255D1*
X828746Y2144485D1*
X866641Y2144358D1*
X875708Y2142922D1*
X884438Y2140085D1*
X892618Y2135918D1*
X900044Y2130522D1*
X906535Y2124031D1*
X911931Y2116605D1*
X916098Y2108425D1*
X918935Y2099695D1*
X920371Y2090628D1*
Y2081448D1*
X918935Y2072382D1*
X916098Y2063651D1*
X911931Y2055472D1*
X906535Y2048046D1*
X900044Y2041554D1*
X892289Y2035975D1*
X888969Y2023538D1*
Y1980032D1*
X914028Y1979892D1*
X922216Y1979360D1*
X988078D1*
X988054Y2010924D1*
X1000554D1*
X1127511D2*
X1169199D1*
X1170610Y2019699D1*
X1173447Y2028429D1*
X1177614Y2036608D1*
X1183010Y2044035D1*
X1184995Y2046183D1*
X1184991Y2173572D1*
X1181373Y2180868D1*
X1178537Y2189598D1*
X1177101Y2198665D1*
Y2207845D1*
X1178537Y2216911D1*
X1181373Y2225642D1*
X1185541Y2233821D1*
X1190936Y2241248D1*
X1197427Y2247739D1*
X1204854Y2253134D1*
X1213033Y2257302D1*
X1221764Y2260138D1*
X1230830Y2261575D1*
X1240010D1*
X1247933Y2260366D1*
X1251620Y2271932D1*
X1256817Y2282132D1*
X1263545Y2291392D1*
X1265930Y2293972D1*
X1259999Y2301138D1*
X1254018Y2310898D1*
X1249638Y2321474D1*
X1246965Y2332604D1*
X1246067Y2344016D1*
X1247057Y2355889D1*
X1235697Y2367413D1*
X1231776Y2372808D1*
X1228749Y2378751D1*
X1226688Y2385094D1*
X1225644Y2391681D1*
X1225513Y2442330D1*
X1208048Y2442446D1*
X1202081Y2443391D1*
X1196335Y2445258D1*
X1190952Y2448000D1*
X1186065Y2451551D1*
X1173527Y2463921D1*
X1161022Y2451551D1*
X1156135Y2448000D1*
X1150752Y2445258D1*
X1145006Y2443391D1*
X1139039Y2442446D1*
X1111068Y2442327D1*
X1105046Y2442801D1*
X1099171Y2444211D1*
X1093590Y2446523D1*
X1088439Y2449680D1*
X1083845Y2453603D1*
X1073527Y2463921D1*
X1061022Y2451551D1*
X1056135Y2448000D1*
X1050752Y2445258D1*
X1045006Y2443391D1*
X1041654Y2442755D1*
X1098873Y2421839D1*
X1106915Y2417413D1*
X1114165Y2411782D1*
X1120445Y2405087D1*
X1125601Y2397492D1*
X1129505Y2389183D1*
X1132061Y2380367D1*
X1133242Y2369807D1*
X1144516Y2369516D1*
Y2218516D1*
X1127475D1*
X1127516Y2010959D1*
X2094925Y1413613D2*
X2008520D1*
X2008519Y1327171D1*
X2094924Y1413630D1*
X2037768Y1413613D1*
X866276Y1229230D2*
Y1300304D1*
X855910Y1300299D1*
X855923Y1213083D1*
X859783Y1220314D1*
X866263Y1229211D1*
X3171854Y795324D2*
X3116073D1*
X3109841Y789945D1*
X3101476Y784482D1*
X3092401Y780303D1*
X3082812Y777498D1*
X3072915Y776128D1*
X3062925Y776222D1*
X3053056Y777779D1*
X3043521Y780764D1*
X3034527Y785114D1*
X3026266Y790734D1*
X3018918Y797504D1*
X3018571Y797888D1*
X3011800Y791498D1*
X3003641Y785731D1*
X2994726Y781222D1*
X2985246Y778066D1*
X2975406Y776334D1*
X2965419Y776061D1*
X2955500Y777254D1*
X2945862Y779887D1*
X2936714Y783903D1*
X2928252Y789216D1*
X2920661Y795711D1*
X2918571Y797888D1*
X2911800Y791498D1*
X2903641Y785731D1*
X2894726Y781222D1*
X2885246Y778066D1*
X2875406Y776334D1*
X2865419Y776061D1*
X2855500Y777254D1*
X2845862Y779887D1*
X2836714Y783903D1*
X2828252Y789216D1*
X2820661Y795711D1*
X2818571Y797888D1*
X2811800Y791498D1*
X2803641Y785731D1*
X2794726Y781222D1*
X2785246Y778066D1*
X2775406Y776334D1*
X2765419Y776061D1*
X2755500Y777254D1*
X2745862Y779887D1*
X2736714Y783903D1*
X2728252Y789216D1*
X2720661Y795711D1*
X2718571Y797888D1*
X2711800Y791498D1*
X2705453Y786868D1*
X2710834Y781619D1*
X2714754Y776224D1*
X2717782Y770281D1*
X2719843Y763938D1*
X2720886Y757351D1*
X2721017Y691516D1*
Y501721D1*
X2726493Y503042D1*
X2732516Y503516D1*
X2745553D1*
X2745597Y551514D1*
X2746807Y558904D1*
X2749425Y565920D1*
X2753352Y572296D1*
X2758438Y577791D1*
X2764492Y582198D1*
X2771285Y585350D1*
X2778559Y587127D1*
X2786516Y587516D1*
X2824002Y587192D1*
X2831298Y585505D1*
X2838129Y582437D1*
X2844237Y578105D1*
X2849390Y572673D1*
X2853605Y565894D1*
X2854849Y565199D1*
X2934112Y565330D1*
X2937869Y571646D1*
X2941792Y576240D1*
X2946386Y580163D1*
X2951537Y583320D1*
X2957119Y585632D1*
X2962993Y587042D1*
X2969016Y587516D1*
X3002649D1*
X2997619Y603564D1*
X2995766Y612883D1*
X2994649Y622318D1*
X2994276Y631811D1*
X2994649Y641305D1*
X2995766Y650740D1*
X2997619Y660058D1*
X3000198Y669202D1*
X3003486Y678116D1*
X3007464Y686744D1*
X3012106Y695034D1*
X3017385Y702933D1*
X3023267Y710394D1*
X3029716Y717371D1*
X3036693Y723820D1*
X3044154Y729702D1*
X3052054Y734981D1*
X3060343Y739623D1*
X3068971Y743601D1*
X3077885Y746889D1*
X3087029Y749468D1*
X3096347Y751322D1*
X3105782Y752438D1*
X3115276Y752811D1*
X3124769Y752438D1*
X3134204Y751322D1*
X3143523Y749468D1*
X3152667Y746889D1*
X3161581Y743601D1*
X3170209Y739623D1*
X3178498Y734981D1*
X3186398Y729702D1*
X3193859Y723820D1*
X3200836Y717371D1*
X3207285Y710394D1*
X3213167Y702933D1*
X3218445Y695034D1*
X3223088Y686744D1*
X3227065Y678116D1*
X3230354Y669202D1*
X3232933Y660058D1*
X3234786Y650740D1*
X3235903Y641305D1*
X3236276Y631811D1*
X3235903Y622318D1*
X3234786Y612883D1*
X3232933Y603564D1*
X3230354Y594420D1*
X3227065Y585507D1*
X3223088Y576878D1*
X3218445Y568589D1*
X3213167Y560689D1*
X3207285Y553228D1*
X3200836Y546251D1*
X3193859Y539802D1*
X3186398Y533920D1*
X3178498Y528642D1*
X3170209Y523999D1*
X3161581Y520022D1*
X3152667Y516733D1*
X3143523Y514155D1*
X3134204Y512301D1*
X3124769Y511184D1*
X3115276Y510811D1*
X3105782Y511184D1*
X3096347Y512301D1*
X3087029Y514155D1*
X3077885Y516733D1*
X3068971Y520022D1*
X3060343Y523999D1*
X3052054Y528642D1*
X3042493Y535230D1*
X3042516Y503459D1*
X3058537Y503397D1*
X3064504Y502452D1*
X3070249Y500585D1*
X3075632Y497843D1*
X3080520Y494292D1*
X3084792Y490020D1*
X3088343Y485132D1*
X3091085Y479749D1*
X3092952Y474004D1*
X3093897Y468037D1*
X3094016Y436524D1*
X3241347Y436516D1*
X3245917Y437133D1*
X3249106Y439007D1*
X3250929Y442222D1*
X3251531Y446905D1*
X3251474Y746919D1*
X3242548Y744776D1*
X3233397Y744055D1*
X3224245Y744776D1*
X3215319Y746919D1*
X3206838Y750431D1*
X3199011Y755228D1*
X3192031Y761190D1*
X3185154Y768254D1*
X3180380Y774527D1*
X3176493Y781385D1*
X3173563Y788703D1*
X3172256Y793452D1*
X2122465Y894058D2*
X2116832Y899836D1*
X2110558Y908472D1*
X2105711Y917983D1*
X2102413Y928135D1*
X2100743Y938679D1*
Y949353D1*
X2102413Y959897D1*
X2105711Y970049D1*
X2108549Y975974D1*
X2100533Y975988D1*
Y1049474D1*
X2029883Y1115401D1*
X2019016Y1114546D1*
X2008508Y1115359D1*
X2008519Y808519D1*
X2110530D1*
X2106504Y816146D1*
X2103091Y825536D1*
X2101091Y835325D1*
X2100545Y845301D1*
X2101467Y855249D1*
X2103836Y864956D1*
X2107601Y874210D1*
X2112681Y882813D1*
X2118966Y890579D1*
X2122442Y894021D1*
X3186834Y2038679D2*
X3185164Y2028135D1*
X3181865Y2017983D1*
X3179027Y2012058D1*
X3187044Y2012043D1*
Y1875988D1*
X3132503D1*
X3132336Y1869426D1*
X3130900Y1860359D1*
X3128504Y1852824D1*
X3135233Y1851566D1*
X3145601Y1848198D1*
X3155314Y1843249D1*
X3164133Y1836841D1*
X3168992Y1832215D1*
X3175233Y1837952D1*
X3183423Y1843675D1*
X3192350Y1848164D1*
X3201828Y1851326D1*
X3211661Y1853095D1*
X3221647Y1853436D1*
X3231578Y1852341D1*
X3241249Y1849832D1*
X3250460Y1845962D1*
X3251522Y1845399D1*
X3251516Y2641347D1*
X3250899Y2645917D1*
X3249028Y2649101D1*
X3245814Y2650925D1*
X3241129Y2651528D1*
X3195518Y2651515D1*
X3207285Y2639528D1*
X3213167Y2632067D1*
X3218445Y2624167D1*
X3223088Y2615878D1*
X3227065Y2607250D1*
X3230354Y2598336D1*
X3232933Y2589192D1*
X3234786Y2579874D1*
X3235903Y2570439D1*
X3236276Y2560945D1*
X3235903Y2551452D1*
X3234786Y2542017D1*
X3232933Y2532698D1*
X3230354Y2523554D1*
X3227065Y2514640D1*
X3223088Y2506012D1*
X3218445Y2497723D1*
X3213167Y2489823D1*
X3207285Y2482362D1*
X3200836Y2475385D1*
X3193859Y2468936D1*
X3186398Y2463054D1*
X3178498Y2457776D1*
X3170209Y2453133D1*
X3161581Y2449156D1*
X3152667Y2445867D1*
X3142977Y2443180D1*
X3196335Y2389619D1*
X3200255Y2384224D1*
X3203283Y2378281D1*
X3205344Y2371938D1*
X3206388Y2365351D1*
X3206519Y2299516D1*
X3206388Y2102681D1*
X3205344Y2096094D1*
X3203283Y2089751D1*
X3200255Y2083808D1*
X3196335Y2078413D1*
X3183539Y2065431D1*
X3186206Y2054658D1*
X3187044Y2044016D1*
X3186834Y2038679D1*
X3092121Y2206494D2*
X3101156Y2209657D1*
X3110963Y2211565D1*
X3120943Y2212016D1*
X3121519Y2211989D1*
X3121513Y2273936D1*
X3114561Y2274133D1*
X3104476Y2275730D1*
X3094764Y2278886D1*
X3087215Y2282653D1*
X3078796Y2278571D1*
X3069261Y2275590D1*
X3059382Y2274103D1*
X3049392Y2274146D1*
X3039526Y2275718D1*
X3030017Y2278781D1*
X3021089Y2283264D1*
X3019676Y2284153D1*
X3009570Y2278886D1*
X2999858Y2275730D1*
X2989773Y2274133D1*
X2979561D1*
X2969476Y2275730D1*
X2959764Y2278886D1*
X2952215Y2282653D1*
X2946401Y2279730D1*
X2961634Y2264506D1*
X3019823Y2264419D1*
X3026411Y2263376D1*
X3032754Y2261315D1*
X3038696Y2258287D1*
X3044092Y2254367D1*
X3092126Y2206518D1*
X919027Y2350583D2*
X925986Y2356053D1*
X930904Y2359180D1*
X922845Y2364716D1*
X916226Y2371077D1*
X910684Y2378395D1*
X906354Y2386489D1*
X903344Y2395162D1*
X901728Y2404198D1*
X896358Y2458572D1*
X886744Y2453133D1*
X878116Y2449156D1*
X869202Y2445867D1*
X860058Y2443288D1*
X850740Y2441435D1*
X841305Y2440318D1*
X831811Y2439945D1*
X822318Y2440318D1*
X812883Y2441435D1*
X803564Y2443288D1*
X794420Y2445867D1*
X785507Y2449156D1*
X776878Y2453133D1*
X768589Y2457776D1*
X760689Y2463054D1*
X753228Y2468936D1*
X746251Y2475385D1*
X739802Y2482362D1*
X733920Y2489823D1*
X728642Y2497723D1*
X723999Y2506012D1*
X720022Y2514640D1*
X716733Y2523554D1*
X714155Y2532698D1*
X712301Y2542017D1*
X711184Y2551452D1*
X710811Y2560945D1*
X711184Y2570439D1*
X712301Y2579874D1*
X714155Y2589192D1*
X716733Y2598336D1*
X720022Y2607250D1*
X723999Y2615878D1*
X728642Y2624167D1*
X733920Y2632067D1*
X739802Y2639528D1*
X746251Y2646505D1*
X751675Y2651518D1*
X446685Y2651516D1*
X442113Y2650899D1*
X438928Y2649027D1*
X437107Y2645814D1*
X437657Y2645328D1*
X557053Y2645038D1*
X643108D1*
Y2639032D1*
X649673Y2637831D1*
X658403Y2634995D1*
X666582Y2630827D1*
X674009Y2625432D1*
X680500Y2618940D1*
X685895Y2611514D1*
X690063Y2603335D1*
X692900Y2594604D1*
X694336Y2585538D1*
X694516Y2530948D1*
X694336Y2387426D1*
X692900Y2378359D1*
X689905Y2369287D1*
X692347Y2365821D1*
X703292Y2361287D1*
X713394Y2355097D1*
X718985Y2350562D1*
X724638Y2355097D1*
X734740Y2361287D1*
X745685Y2365821D1*
X757205Y2368586D1*
X769016Y2369516D1*
X780827Y2368586D1*
X792347Y2365821D1*
X803292Y2361287D1*
X813394Y2355097D1*
X818985Y2350562D1*
X825986Y2356053D1*
X834556Y2361193D1*
X843729Y2365155D1*
X853345Y2367872D1*
X863236Y2369294D1*
X873228Y2369398D1*
X883147Y2368182D1*
X892818Y2365666D1*
X902072Y2361895D1*
X910746Y2356935D1*
X919016Y2350579D1*
X927800Y2361071D1*
X920550Y2366701D1*
X914269Y2373397D1*
X909114Y2380992D1*
X905210Y2389300D1*
X902654Y2398117D1*
X901870Y2403024D1*
X1241230Y581670D2*
X1240298Y569210D1*
X1238046Y556921D1*
X1234498Y544941D1*
X1229697Y533407D1*
X1223694Y522449D1*
X1222466Y520511D1*
X1320534Y520519D1*
X1320597Y551514D1*
X1321807Y558904D1*
X1324425Y565920D1*
X1328352Y572296D1*
X1333438Y577791D1*
X1339492Y582198D1*
X1346285Y585350D1*
X1353559Y587127D1*
X1361516Y587516D1*
X1367522D1*
X1367513Y600623D1*
X1356788Y595196D1*
X1345121Y590725D1*
X1333045Y587520D1*
X1320697Y585619D1*
X1308216Y585043D1*
X1295745Y585798D1*
X1283424Y587876D1*
X1271395Y591253D1*
X1259794Y595891D1*
X1248752Y601737D1*
X1238702Y608499D1*
X1240679Y595792D1*
X1241256Y584170D1*
X1241230Y581670D1*
X1238701Y796059D2*
X1249490Y803261D1*
X1260574Y809026D1*
X1272209Y813579D1*
X1284263Y816869D1*
X1296598Y818856D1*
X1309074Y819520D1*
X1321550Y818852D1*
X1333885Y816861D1*
X1345937Y813568D1*
X1357571Y809011D1*
X1367528Y803890D1*
X1367418Y921719D1*
X1357471Y920781D1*
X1347490Y921247D1*
X1337673Y923108D1*
X1329401Y925851D1*
X1326025Y885206D1*
X1323165Y873225D1*
X1318465Y861838D1*
X1312043Y851327D1*
X1304055Y841950D1*
X1294699Y833938D1*
X1268514Y817476D1*
X1239406Y799468D1*
X2258379Y578299D2*
X2262660Y574020D1*
X2266211Y569132D1*
X2268954Y563749D1*
X2270821Y558004D1*
X2271766Y552037D1*
X2271885Y503459D1*
X2287905Y503397D1*
X2293872Y502452D1*
X2297148Y501497D1*
X2299988Y501632D1*
X2305862Y503042D1*
X2311885Y503516D1*
X2324922D1*
X2324966Y551514D1*
X2326176Y558904D1*
X2328794Y565920D1*
X2332720Y572296D1*
X2337807Y577791D1*
X2343861Y582198D1*
X2350653Y585350D1*
X2357928Y587127D1*
X2365885Y587516D1*
X2369918D1*
X2369924Y656138D1*
X2371887D1*
X2371893Y722053D1*
X2370401Y723523D1*
X2245291Y723513D1*
X2250270Y717768D1*
X2253755Y712081D1*
X2256307Y705919D1*
X2257864Y699434D1*
X2258388Y692785D1*
X2258389Y578292D1*
X2262660Y574020D1*
X2266211Y569132D1*
X2268954Y563749D1*
X2270821Y558004D1*
X2271766Y552037D1*
X2271885Y549016D1*
X1923385Y460914D2*
X1923859Y471039D1*
X1925269Y476913D1*
X1927581Y482495D1*
X1930738Y487646D1*
X1934661Y492240D1*
X1939255Y496163D1*
X1944406Y499320D1*
X1949988Y501632D1*
X1955862Y503042D1*
X1961885Y503516D1*
X1974885Y503498D1*
X1975209Y554002D1*
X1976896Y561298D1*
X1979964Y568129D1*
X1984296Y574237D1*
X1989728Y579390D1*
X1996055Y583395D1*
X2003038Y586100D1*
X2010412Y587401D1*
X2019918Y587516D1*
X2019924Y631532D1*
X1777269Y631644D1*
X1770682Y632688D1*
X1764339Y634749D1*
X1758396Y637777D1*
X1753001Y641697D1*
X1748285Y646413D1*
X1744364Y651808D1*
X1741337Y657751D1*
X1739276Y664094D1*
X1738232Y670681D1*
X1738101Y736516D1*
X1738232Y942937D1*
X1739276Y949525D1*
X1741337Y955868D1*
X1744364Y961810D1*
X1746453Y964882D1*
X1746799Y1002103D1*
Y1040042D1*
X1741975Y1045886D1*
X1737178Y1053713D1*
X1733665Y1062194D1*
X1731522Y1071120D1*
X1730802Y1080272D1*
X1731522Y1089423D1*
X1733665Y1098349D1*
X1737178Y1106830D1*
X1741975Y1114657D1*
X1746706Y1120307D1*
X1740483Y1117946D1*
X1729883Y1115401D1*
X1719016Y1114546D1*
X1708149Y1115401D1*
X1704491Y1116129D1*
X1704388Y877142D1*
X1703344Y870555D1*
X1701283Y864212D1*
X1698255Y858269D1*
X1694335Y852873D1*
X1672217Y830570D1*
X1672218Y788677D1*
X1681936Y783871D1*
X1689363Y778475D1*
X1695854Y771984D1*
X1701250Y764557D1*
X1705417Y756378D1*
X1708254Y747648D1*
X1709690Y738581D1*
Y729401D1*
X1708254Y720335D1*
X1705417Y711604D1*
X1701250Y703425D1*
X1695854Y695998D1*
X1689363Y689507D1*
X1681936Y684112D1*
X1673757Y679944D1*
X1665027Y677107D1*
X1655960Y675671D1*
X1646780D1*
X1637714Y677107D1*
X1628983Y679944D1*
X1620804Y684112D1*
X1613378Y689507D1*
X1611230Y691493D1*
X1522025Y691488D1*
X1522004Y580607D1*
X1529283Y584585D1*
X1535028Y586452D1*
X1540995Y587397D1*
X1579016Y587516D1*
X1585039Y587042D1*
X1590913Y585632D1*
X1596495Y583320D1*
X1601646Y580163D1*
X1606240Y576240D1*
X1610163Y571646D1*
X1613320Y566495D1*
X1615632Y560913D1*
X1617042Y555039D1*
X1617516Y549016D1*
Y503459D1*
X1633537Y503397D1*
X1639504Y502452D1*
X1645249Y500586D1*
X1650632Y497843D1*
X1655520Y494292D1*
X1659792Y490020D1*
X1663343Y485132D1*
X1666086Y479749D1*
X1667952Y474004D1*
X1668897Y468037D1*
X1669016Y460866D1*
X1923350Y460910D1*
X1923859Y471039D1*
X1925269Y476913D1*
X1927581Y482495D1*
X1930737Y487646D1*
X1934661Y492240D1*
X1939255Y496163D1*
X1944406Y499320D1*
X1949988Y501632D1*
X1955862Y503042D1*
X1961885Y503516D1*
X1974922D1*
X1962227Y503503D1*
X1411909Y2442340D2*
X1404317Y2442924D1*
X1397108Y2444947D1*
X1390426Y2448329D1*
X1384526Y2452939D1*
X1373531Y2463892D1*
X1361022Y2451551D1*
X1356135Y2448000D1*
X1350752Y2445258D1*
X1345006Y2443391D1*
X1339039Y2442446D1*
X1310679Y2442342D1*
X1310519Y2416463D1*
X1319016Y2416965D1*
X1330428Y2416067D1*
X1341558Y2413394D1*
X1352134Y2409014D1*
X1361894Y2403033D1*
X1368972Y2397102D1*
X1376138Y2403033D1*
X1385898Y2409014D1*
X1396474Y2413394D1*
X1407604Y2416067D1*
X1419016Y2416965D1*
X1430428Y2416067D1*
X1441558Y2413394D1*
X1452134Y2409014D1*
X1461894Y2403033D1*
X1468972Y2397102D1*
X1476138Y2403033D1*
X1485898Y2409014D1*
X1496474Y2413394D1*
X1507604Y2416067D1*
X1519016Y2416965D1*
X1523510Y2416788D1*
X1523519Y2442327D1*
X1508048Y2442446D1*
X1502081Y2443391D1*
X1496335Y2445258D1*
X1490952Y2448000D1*
X1486065Y2451551D1*
X1473527Y2463921D1*
X1461418Y2451894D1*
X1455337Y2447525D1*
X1448525Y2444415D1*
X1441240Y2442683D1*
X1433519Y2442327D1*
X1406083Y2442651D1*
X1398787Y2444338D1*
X1391956Y2447406D1*
X1385848Y2451738D1*
X1373535Y2463913D1*
X1361022Y2451551D1*
X1356135Y2448000D1*
X1350752Y2445258D1*
X1345006Y2443391D1*
X1339039Y2442446D1*
X1336019Y2442327D1*
X2979118Y2469479D2*
X2959487Y2450307D1*
X2953136Y2446341D1*
X2946136Y2443680D1*
X2938754Y2442424D1*
X2911068Y2442327D1*
X2903616Y2443055D1*
X2896445Y2445212D1*
X2889421Y2449005D1*
X2900335Y2437619D1*
X2904255Y2432224D1*
X2907283Y2426281D1*
X2909344Y2419938D1*
X2910388Y2413351D1*
X2910519Y2403424D1*
X2919667Y2404082D1*
X2929847Y2403280D1*
X2939776Y2400897D1*
X2949210Y2396989D1*
X2952119Y2395360D1*
X2959764Y2399128D1*
X2969476Y2402284D1*
X2979561Y2403881D1*
X2989773D1*
X2999858Y2402284D1*
X3009570Y2399128D1*
X3018668Y2394492D1*
X3019917Y2394027D1*
X3028748Y2398697D1*
X3038190Y2401961D1*
X3048021Y2403741D1*
X3058008Y2403996D1*
X3062317Y2403621D1*
X2986913Y2479011D1*
X2983213Y2473793D1*
X2979118Y2469479D1*
X2144168Y531901D2*
X2086885Y531897D1*
X2086561Y494030D1*
X2084873Y486734D1*
X2081806Y479903D1*
X2077474Y473795D1*
X2072042Y468642D1*
X2065714Y464637D1*
X2058248Y461814D1*
X2068125Y460910D1*
X2189365D1*
X2189397Y461580D1*
X2183651Y463447D1*
X2178269Y466189D1*
X2173381Y469740D1*
X2169109Y474012D1*
X2165558Y478900D1*
X2162815Y484283D1*
X2160948Y490028D1*
X2160003Y495995D1*
X2159898Y525736D1*
X2151846Y531894D1*
X2086873D1*
X2086872Y525372D1*
X2104168Y531894D1*
X2101668D1*
X2466445D2*
X2436873D1*
X2436804Y496518D1*
X2435593Y489128D1*
X2432976Y482112D1*
X2429049Y475736D1*
X2423963Y470241D1*
X2417909Y465834D1*
X2411116Y462682D1*
X2408707Y461939D1*
X2418125Y460910D1*
X2465635D1*
X2465780Y527351D1*
X2466246Y531036D1*
X2464168Y531894D1*
X2451668D1*
X2887348Y1515786D2*
X2887477Y1345914D1*
X2897549Y1350086D1*
X2908149Y1352631D1*
X2919016Y1353486D1*
X2929883Y1352631D1*
X2940483Y1350086D1*
X2950555Y1345914D1*
X2959849Y1340218D1*
X2968139Y1333139D1*
X2975218Y1324849D1*
X2980914Y1315555D1*
X2985086Y1305483D1*
X2987631Y1294883D1*
X2988486Y1284016D1*
X2987631Y1273149D1*
X2985086Y1262549D1*
X2980914Y1252477D1*
X2975218Y1243183D1*
X2968139Y1234893D1*
X2967215Y1234040D1*
X2968992Y1232215D1*
X2973899Y1236841D1*
X2982718Y1243249D1*
X2992431Y1248198D1*
X3002799Y1251566D1*
X3013565Y1253272D1*
X3024467D1*
X3031116Y1252385D1*
X3031084Y1658006D1*
X3026259Y1663851D1*
X3021463Y1671678D1*
X3017950Y1680159D1*
X3015807Y1689085D1*
X3015087Y1698236D1*
X3015807Y1707388D1*
X3017458Y1714570D1*
X3008149Y1715401D1*
X2997549Y1717946D1*
X2987477Y1722118D1*
X2978183Y1727814D1*
X2969893Y1734893D1*
X2969040Y1735817D1*
X2964133Y1731191D1*
X2955314Y1724783D1*
X2945601Y1719834D1*
X2935233Y1716466D1*
X2924467Y1714760D1*
X2913565D1*
X2908508Y1715359D1*
X2908388Y1674681D1*
X2907344Y1668094D1*
X2905283Y1661751D1*
X2902256Y1655808D1*
X2898335Y1650413D1*
X2893619Y1645697D1*
X2888224Y1641776D1*
X2882281Y1638749D1*
X2875938Y1636688D1*
X2869351Y1635644D1*
X2862681D1*
X2856094Y1636688D1*
X2849751Y1638749D1*
X2843494Y1641986D1*
X2821629Y1642400D1*
X2383103D1*
X2325951Y1585278D1*
X2325989Y1563321D1*
X2334130Y1569309D1*
X2342309Y1573476D1*
X2350228Y1576084D1*
X2378667Y1604332D1*
X2385054Y1608972D1*
X2392088Y1612556D1*
X2399597Y1614996D1*
X2407394Y1616231D1*
X2448841Y1616386D1*
X2941566D1*
X2949065Y1620122D1*
X2957795Y1622959D1*
X2966862Y1624395D1*
X2976042D1*
X2985108Y1622959D1*
X2993839Y1620122D1*
X3002018Y1615955D1*
X3009444Y1610559D1*
X3015935Y1604068D1*
X3021331Y1596641D1*
X3025499Y1588462D1*
X3028335Y1579732D1*
X3029771Y1570665D1*
Y1561485D1*
X3028335Y1552419D1*
X3025499Y1543688D1*
X3021331Y1535509D1*
X3015935Y1528082D1*
X3009444Y1521591D1*
X3002018Y1516196D1*
X2993839Y1512028D1*
X2985108Y1509191D1*
X2976042Y1507755D1*
X2966862D1*
X2957795Y1509191D1*
X2949065Y1512028D1*
X2941621Y1515784D1*
X2887321Y1515764D1*
X2751293Y1455183D2*
Y1469187D1*
X2744280Y1466404D1*
X2735354Y1464261D1*
X2726202Y1463541D1*
X2717051Y1464261D1*
X2708125Y1466404D1*
X2699644Y1469917D1*
X2691817Y1474713D1*
X2684837Y1480675D1*
X2678875Y1487655D1*
X2674078Y1495482D1*
X2670566Y1503963D1*
X2668423Y1512890D1*
X2668079Y1515794D1*
X2432145Y1515764D1*
X2421402Y1504985D1*
X2418743Y1497042D1*
X2414575Y1488863D1*
X2409180Y1481437D1*
X2402689Y1474946D1*
X2395262Y1469550D1*
X2387083Y1465382D1*
X2378352Y1462546D1*
X2369286Y1461110D1*
X2360106D1*
X2351039Y1462546D1*
X2342309Y1465382D1*
X2334130Y1469550D1*
X2325978Y1475616D1*
X2325989Y1447012D1*
X2335929Y1446258D1*
X2344855Y1444115D1*
X2353336Y1440602D1*
X2361163Y1435805D1*
X2366918Y1430976D1*
X2594958Y1430850D1*
X2601449Y1429829D1*
X2751329Y1394217D1*
X2751342Y1455192D1*
X1116801Y1617326D2*
Y1714592D1*
X1108149Y1715401D1*
X1102368Y1716587D1*
X1099886Y1710651D1*
X1096401Y1704964D1*
X1092070Y1699893D1*
X1086998Y1695561D1*
X1081312Y1692076D1*
X1074786Y1689421D1*
X1074263Y1687890D1*
Y1656259D1*
X1081239Y1652161D1*
X1086310Y1647830D1*
X1116797Y1617343D1*
X1367620Y2107979D2*
X1373397Y2113612D1*
X1382707Y2120264D1*
X1330889Y2172035D1*
X1319016Y2171067D1*
X1307604Y2171965D1*
X1296474Y2174638D1*
X1288153Y2177978D1*
X1285300Y2172689D1*
X1279904Y2165262D1*
X1273413Y2158771D1*
X1269989Y2156072D1*
X1269996Y2110530D1*
X1277326Y2116725D1*
X1285793Y2122029D1*
X1294945Y2126036D1*
X1304586Y2128659D1*
X1314506Y2129842D1*
X1324493Y2129559D1*
X1334331Y2127816D1*
X1343808Y2124651D1*
X1352718Y2120132D1*
X1360871Y2114357D1*
X1367576Y2107999D1*
X3251531Y1722630D2*
X3242657Y1718693D1*
X3233042Y1715977D1*
X3223137Y1714668D1*
X3213146Y1714795D1*
X3203277Y1716353D1*
X3193733Y1719310D1*
X3184713Y1723606D1*
X3176402Y1729152D1*
X3169020Y1735784D1*
X3159849Y1727814D1*
X3150555Y1722118D1*
X3140483Y1717946D1*
X3129524Y1715359D1*
X3131367Y1707388D1*
X3132087Y1698236D1*
X3131367Y1689085D1*
X3129224Y1680159D1*
X3125711Y1671678D1*
X3120914Y1663851D1*
X3116085Y1658096D1*
X3116090Y1353461D1*
X3124467Y1353272D1*
X3135233Y1351566D1*
X3145601Y1348198D1*
X3155314Y1343249D1*
X3164133Y1336841D1*
X3171841Y1329133D1*
X3178249Y1320314D1*
X3183198Y1310601D1*
X3186566Y1300233D1*
X3188272Y1289467D1*
Y1278565D1*
X3186566Y1267799D1*
X3183198Y1257431D1*
X3178249Y1247718D1*
X3171841Y1238899D1*
X3167215Y1234040D1*
X3168992Y1232215D1*
X3173899Y1236841D1*
X3182718Y1243249D1*
X3192431Y1248198D1*
X3202799Y1251566D1*
X3213565Y1253272D1*
X3224467D1*
X3235233Y1251566D1*
X3245601Y1248198D1*
X3251540Y1245362D1*
X3251516Y1722593D1*
X1101414Y1714036D2*
X1098256Y1707739D1*
X1094335Y1702343D1*
X1089619Y1697627D1*
X1084224Y1693707D1*
X1078281Y1690679D1*
X1074263Y1689228D1*
Y1656221D1*
X1081239Y1652161D1*
X1086531Y1647590D1*
X2908506Y1678342D2*
X2907995Y1671367D1*
X2906439Y1664882D1*
X2903886Y1658720D1*
X2900401Y1653034D1*
X2896070Y1647962D1*
X2890998Y1643631D1*
X2885312Y1640146D1*
X2879150Y1637593D1*
X2872665Y1636037D1*
X2866016Y1635513D1*
X2859367Y1636037D1*
X2852882Y1637593D1*
X2846720Y1640146D1*
X2843808Y1641776D1*
X933853Y891785D2*
D28*
Y803334D1*
X870402Y891785D2*
X933853D1*
X1168286Y2010875D2*
Y1919275D1*
X2098481Y1481641D2*
Y1413662D1*
X866325Y1274318D2*
X930366D1*
X3165457Y859415D2*
Y795373D1*
X2100582Y844016D2*
X2168561D1*
X3068561D2*
Y776037D1*
X2968561Y844016D2*
Y776037D1*
X2868561Y844016D2*
Y776037D1*
X2768561Y844016D2*
Y776037D1*
X3119016Y2211995D2*
Y2144016D1*
X969016Y2294016D2*
Y2218565D1*
X869016Y2369467D2*
Y2218565D1*
X1124016Y701361D2*
Y584170D1*
X1006825D2*
X1241207D1*
X1309055Y819471D2*
Y585088D1*
X1191864Y702280D2*
X1309055D1*
X1974910Y524016D2*
X2086860D1*
X1423544Y2510945D2*
Y2442352D1*
X2923544Y2510945D2*
Y2442352D1*
X1355788Y991861D2*
Y920810D1*
X2082046Y594016D2*
Y531943D1*
X2019973Y594016D2*
X2082046D1*
X2432046D2*
Y531943D1*
X2369973Y594016D2*
X2432046D1*
X3054667Y2404033D2*
Y2273981D1*
X494778Y2645279D2*
Y2583206D1*
X2751342Y1465904D2*
X2887300D1*
X1376516Y587491D2*
Y524016D1*
X1320541D2*
X1376516D1*
X2324910D2*
X2436859D1*
X2801516Y587491D2*
Y524016D1*
X2745541D2*
X2801516D1*
X1317578Y2129862D2*
Y2061883D1*
X3219016Y1853437D2*
Y1714595D1*
X1014109Y1692579D2*
X1074214D1*
X509016Y1956647D2*
D13*
X617761D1*
X730281D2*
X779040D1*
X539314Y1931778D2*
X634021D1*
X739314D2*
X779040D1*
X553425Y1906910D2*
X634607D1*
X753425D2*
X771960D1*
X554939Y1882041D2*
X633093D1*
X754939D2*
X771960D1*
X544929Y1857172D2*
X643103D1*
X744929D2*
X771960D1*
X509016Y1832303D2*
X661023D1*
X727009D2*
X771960D1*
X509016Y1807435D2*
X661023D1*
X509016Y1782566D2*
X661023D1*
X509016Y1757697D2*
X661023D1*
X727009D2*
X771960D1*
X524958Y1732828D2*
X661023D1*
X727009D2*
X779040D1*
X549128Y1707960D2*
X638904D1*
X555574Y1683091D2*
X632458D1*
X551033Y1658222D2*
X636999D1*
X531453Y1633353D2*
X656579D1*
X509016Y1608485D2*
X661023D1*
X727009D2*
X735001D1*
X509016Y1583616D2*
X661023D1*
X727009D2*
X735001D1*
X509016Y1558747D2*
X661023D1*
X727009D2*
X735001D1*
X509016Y1533878D2*
X661023D1*
X727009D2*
X735001D1*
X541804Y1509009D2*
X646228D1*
X554158Y1484141D2*
X633874D1*
X554451Y1459272D2*
X633581D1*
X542878Y1434403D2*
X645154D1*
X509016Y1409534D2*
X661023D1*
X509016Y1384666D2*
X661023D1*
X509016Y1359797D2*
X661023D1*
X509016Y1334928D2*
X661023D1*
X529499Y1310059D2*
X658533D1*
X550447Y1285191D2*
X637585D1*
X555622Y1260322D2*
X632410D1*
X549812Y1235453D2*
X638220D1*
X527302Y1210584D2*
X660730D1*
X509016Y1185715D2*
X661023D1*
X509016Y1160847D2*
X661023D1*
X509016Y1135978D2*
X661023D1*
X509016Y1111109D2*
X661023D1*
X543953Y1086240D2*
X644079D1*
X554695Y1061372D2*
X633337D1*
X553816Y1036503D2*
X634216D1*
X540583Y1011634D2*
X647449D1*
X509016Y986765D2*
X685925D1*
X509016Y961897D2*
X677038D1*
X509016Y937028D2*
X668201D1*
X586970Y912159D2*
X659314D1*
X586970Y887290D2*
X650427D1*
X586970Y862422D2*
X642712D1*
X586970Y837553D2*
X642468D1*
X586970Y812684D2*
X650867D1*
X586970Y787815D2*
X672497D1*
X768611D2*
X779040D1*
X553523Y762946D2*
X779040D1*
X552926Y1886386D2*
X551475Y1877228D1*
X548610Y1868409D1*
X544400Y1860147D1*
X538950Y1852645D1*
X532393Y1846089D1*
X524891Y1840638D1*
X516629Y1836429D1*
X507811Y1833563D1*
X506513Y1833305D1*
X506516Y1738791D1*
X516629Y1735616D1*
X524891Y1731407D1*
X532393Y1725956D1*
X538950Y1719400D1*
X544400Y1711898D1*
X548610Y1703636D1*
X551475Y1694817D1*
X552926Y1685659D1*
Y1676386D1*
X551475Y1667228D1*
X548610Y1658409D1*
X544400Y1650147D1*
X538950Y1642645D1*
X532393Y1636089D1*
X524891Y1630638D1*
X516629Y1626429D1*
X507811Y1623563D1*
X506513Y1623305D1*
X506516Y1528733D1*
X512276Y1527222D1*
X520843Y1523674D1*
X528749Y1518829D1*
X535800Y1512807D1*
X541822Y1505756D1*
X546667Y1497850D1*
X550216Y1489283D1*
X552380Y1480267D1*
X553108Y1471023D1*
X552380Y1461779D1*
X550216Y1452762D1*
X546667Y1444195D1*
X541822Y1436289D1*
X535800Y1429238D1*
X528749Y1423216D1*
X520843Y1418371D1*
X512276Y1414823D1*
X506513Y1413305D1*
X506516Y1318772D1*
X516629Y1315616D1*
X524891Y1311407D1*
X532393Y1305956D1*
X538950Y1299400D1*
X544400Y1291898D1*
X548610Y1283636D1*
X551475Y1274817D1*
X552926Y1265659D1*
Y1256386D1*
X551475Y1247228D1*
X548610Y1238409D1*
X544400Y1230147D1*
X538950Y1222645D1*
X532393Y1216089D1*
X524891Y1210638D1*
X516629Y1206429D1*
X507811Y1203563D1*
X506513Y1203305D1*
X506516Y1108811D1*
X516629Y1105616D1*
X524891Y1101407D1*
X532393Y1095956D1*
X538950Y1089400D1*
X544400Y1081898D1*
X548610Y1073636D1*
X551475Y1064817D1*
X552926Y1055659D1*
Y1046386D1*
X551475Y1037228D1*
X548610Y1028409D1*
X544400Y1020147D1*
X538950Y1012645D1*
X532393Y1006089D1*
X524891Y1000638D1*
X516629Y996429D1*
X507811Y993563D1*
X506513Y993305D1*
X506663Y913126D1*
X584450D1*
Y785339D1*
X551003D1*
X551052Y756508D1*
X781516Y756516D1*
Y803049D1*
X773075Y793619D1*
X763728Y786088D1*
X753319Y780112D1*
X742103Y775837D1*
X730356Y773371D1*
X718368Y772772D1*
X706434Y774055D1*
X694847Y777190D1*
X683894Y782099D1*
X673843Y788661D1*
X664943Y796714D1*
X657412Y806061D1*
X651436Y816470D1*
X647162Y827687D1*
X644695Y839433D1*
X644096Y851421D1*
X645380Y863356D1*
X648514Y874942D1*
X690314Y992072D1*
X680221Y993563D1*
X671403Y996429D1*
X663141Y1000638D1*
X655639Y1006089D1*
X649082Y1012645D1*
X643632Y1020147D1*
X639422Y1028409D1*
X636557Y1037228D1*
X635106Y1046386D1*
Y1055659D1*
X636557Y1064817D1*
X639422Y1073636D1*
X643632Y1081898D1*
X649082Y1089400D1*
X655639Y1095956D1*
X663536Y1101628D1*
X663521Y1210446D1*
X655639Y1216089D1*
X649082Y1222645D1*
X643632Y1230147D1*
X639422Y1238409D1*
X636557Y1247228D1*
X635106Y1256386D1*
Y1265659D1*
X636557Y1274817D1*
X639422Y1283636D1*
X643632Y1291898D1*
X649082Y1299400D1*
X655639Y1305956D1*
X663536Y1311628D1*
X663521Y1420392D1*
X655639Y1426089D1*
X649082Y1432645D1*
X643632Y1440147D1*
X639422Y1448409D1*
X636557Y1457228D1*
X635106Y1466386D1*
Y1475659D1*
X636557Y1484817D1*
X639422Y1493636D1*
X643632Y1501898D1*
X649082Y1509400D1*
X655639Y1515956D1*
X663536Y1521628D1*
X663521Y1630446D1*
X655639Y1636089D1*
X649082Y1642645D1*
X643632Y1650147D1*
X639422Y1658409D1*
X636557Y1667228D1*
X635106Y1676386D1*
Y1685659D1*
X636557Y1694817D1*
X639422Y1703636D1*
X643632Y1711898D1*
X649082Y1719400D1*
X655639Y1725956D1*
X663536Y1731628D1*
X663521Y1840450D1*
X655639Y1846089D1*
X649082Y1852645D1*
X643632Y1860147D1*
X639422Y1868409D1*
X636557Y1877228D1*
X635106Y1886386D1*
Y1895659D1*
X636557Y1904817D1*
X639422Y1913636D1*
X643632Y1921898D1*
X645777Y1925108D1*
X637327Y1931059D1*
X631059Y1937327D1*
X625849Y1944499D1*
X621824Y1952397D1*
X619085Y1960828D1*
X617698Y1969584D1*
X617524Y1981487D1*
X530979Y1981516D1*
X527262Y1973643D1*
X523666Y1968693D1*
X519339Y1964366D1*
X514389Y1960770D1*
X508938Y1957992D1*
X506503Y1957094D1*
X506516Y1948752D1*
X512276Y1947222D1*
X520843Y1943674D1*
X528749Y1938829D1*
X535800Y1932807D1*
X541822Y1925756D1*
X546667Y1917850D1*
X550216Y1909283D1*
X552380Y1900267D1*
X553108Y1891023D1*
X552926Y1886386D1*
X752926D2*
X751475Y1877228D1*
X748610Y1868409D1*
X744400Y1860147D1*
X738950Y1852645D1*
X732393Y1846089D1*
X724496Y1840417D1*
X731073Y1830710D1*
X774477Y1831335D1*
X774449Y1928529D1*
X781529D1*
X781516Y1981516D1*
X730491D1*
X730334Y1969584D1*
X728947Y1960828D1*
X726208Y1952397D1*
X722183Y1944499D1*
X721423Y1943361D1*
X728749Y1938829D1*
X735800Y1932807D1*
X741822Y1925756D1*
X746667Y1917850D1*
X750216Y1909283D1*
X752380Y1900267D1*
X753108Y1891023D1*
X752926Y1886386D1*
X746180Y1653326D2*
X741822Y1646289D1*
X735800Y1639238D1*
X728749Y1633216D1*
X724496Y1630417D1*
X724511Y1521599D1*
X732393Y1515956D1*
X737535Y1510930D1*
X737698Y1618448D1*
X739085Y1627204D1*
X741824Y1635635D1*
X745849Y1643533D1*
X751059Y1650705D1*
X753847Y1653720D1*
X746169Y1653302D1*
X724496Y1731628D2*
X732393Y1725956D1*
X738950Y1719400D1*
X742859Y1714204D1*
X781546Y1716293D1*
X781516Y1749534D1*
X774449Y1749561D1*
Y1770313D1*
X724522Y1769620D1*
X724511Y1731661D1*
X730956Y1214955D2*
X724496Y1210417D1*
X730931Y1212859D1*
Y1214860D1*
X724511Y1198523D1*
Y1101599D1*
X730187Y1097696D1*
X730931Y1100359D1*
Y1212859D1*
D29*
X1616746Y1305891D3*
X1541943D3*
D32*
X933853Y1066785D3*
Y891785D3*
D29*
X942688Y1530458D3*
X1017491D3*
X1831688Y1305672D3*
X1906491D3*
D33*
X1058050Y1919275D3*
X1168286D3*
D29*
X2098481Y1481641D3*
X2023677D3*
X1005170Y1274318D3*
X930366D3*
D34*
X3165457Y859415D3*
Y934218D3*
D35*
X2668561Y944016D3*
D36*
Y844016D3*
X2568561Y944016D3*
Y844016D3*
X2468561Y944016D3*
Y844016D3*
X2368561Y944016D3*
Y844016D3*
X2268561Y944016D3*
Y844016D3*
X2168561Y944016D3*
Y844016D3*
D35*
Y1044016D3*
D36*
X2268561D3*
X2368561D3*
X2468561D3*
X2568561D3*
X2668561D3*
D35*
X3068561Y944016D3*
D36*
Y844016D3*
X2968561Y944016D3*
Y844016D3*
X2868561Y944016D3*
Y844016D3*
X2768561Y944016D3*
Y844016D3*
D35*
Y1044016D3*
D36*
X2868561D3*
X2968561D3*
X3068561D3*
D35*
X2419016Y2044016D3*
D36*
Y2144016D3*
X2519016Y2044016D3*
Y2144016D3*
X2619016Y2044016D3*
Y2144016D3*
X2719016Y2044016D3*
Y2144016D3*
X2819016Y2044016D3*
Y2144016D3*
X2919016Y2044016D3*
Y2144016D3*
X3019016Y2044016D3*
Y2144016D3*
X3119016Y2044016D3*
Y2144016D3*
D37*
X1069016Y2294016D3*
D38*
X969016D3*
X869016D3*
X669016D3*
X769016D3*
D35*
X2719016Y2344016D3*
D36*
Y2244016D3*
X2619016Y2344016D3*
Y2244016D3*
D39*
X2519016Y2344016D3*
D40*
X2419016D3*
X2319016D3*
X2219016D3*
Y2244016D3*
X2319016D3*
X2419016D3*
X2519016D3*
D41*
X1124016Y820390D3*
Y584170D3*
X1309055Y702280D3*
D119*
X2030885Y524016D3*
X2215885D3*
D120*
X1990385Y449516D3*
X2256385D3*
D121*
X1023544Y2510945D3*
Y2610945D3*
X1123544Y2510945D3*
Y2610945D3*
X1223544Y2510945D3*
Y2610945D3*
X1323544Y2510945D3*
Y2610945D3*
X1423544Y2510945D3*
Y2610945D3*
X1523544Y2510945D3*
Y2610945D3*
X1623544Y2510945D3*
Y2610945D3*
X1723544Y2510945D3*
Y2610945D3*
X1823544Y2510945D3*
Y2610945D3*
X1923544Y2510945D3*
Y2610945D3*
X2023544Y2510945D3*
Y2610945D3*
X2123544Y2510945D3*
Y2610945D3*
X2223544Y2510945D3*
Y2610945D3*
X2323544Y2510945D3*
Y2610945D3*
X2423544Y2510945D3*
Y2610945D3*
X2523544Y2510945D3*
Y2610945D3*
X2623544Y2510945D3*
Y2610945D3*
X2723544Y2510945D3*
Y2610945D3*
X2823544Y2510945D3*
Y2610945D3*
X2923544Y2510945D3*
Y2610945D3*
D44*
X494016Y1891023D3*
X594016D3*
X694016D3*
X494016Y1681023D3*
X594016D3*
X694016D3*
X494016Y1471023D3*
X594016D3*
X694016D3*
X494016Y1261023D3*
X594016D3*
X694016D3*
X494016Y1051023D3*
X594016D3*
X694016D3*
X1355788Y991861D3*
X1255788D3*
X1155788D3*
D35*
X3119016Y1944016D3*
D36*
X3019016D3*
X2919016D3*
X2819016D3*
X2719016D3*
X2619016D3*
X2519016D3*
X2419016D3*
D35*
X2319016D3*
D36*
X2219016D3*
X2119016D3*
X2019016D3*
X1919016D3*
X1819016D3*
D45*
X2164723Y594016D3*
X2082046D3*
X2514723D3*
X2432046D3*
D46*
X3119667Y2339007D3*
X3054667D3*
X2984667D3*
X2919667D3*
D45*
X494778Y2500529D3*
Y2583206D3*
D47*
X520557Y849233D3*
D48*
X620557D3*
X720557D3*
D49*
X1267525Y1524100D3*
X1192722D3*
X1230124Y1441423D3*
D29*
X1285605Y1271906D3*
X1210802D3*
D34*
X2819320Y1465904D3*
Y1391101D3*
X830469Y1876446D3*
Y1801643D3*
D29*
X2100360Y1575170D3*
X2025557D3*
D34*
X575080Y2506145D3*
Y2580948D3*
D29*
X1165183Y1373352D3*
X1239986D3*
X2160786Y674016D3*
X2085983D3*
X1180891Y1683156D3*
X1255694D3*
X1182601Y1599009D3*
X1257404D3*
D34*
X2823517Y2334710D3*
Y2259907D3*
D29*
X2510786Y674016D3*
X2435983D3*
X1624630Y1405702D3*
X1549827D3*
D119*
X1376516Y524016D3*
X1561516D3*
D120*
X1336016Y449516D3*
X1602016D3*
D119*
X2380885Y524016D3*
X2565885D3*
D120*
X2340385Y449516D3*
X2606385D3*
D119*
X2801516Y524016D3*
X2986516D3*
D120*
X2761016Y449516D3*
X3027016D3*
D35*
X1617578Y2061883D3*
D36*
X1517578D3*
X1417578D3*
X1317578D3*
D35*
X1614036Y1959914D3*
D36*
X1514036D3*
X1414036D3*
X1314036D3*
D39*
X1619016Y2344016D3*
D40*
X1519016D3*
X1419016D3*
X1319016D3*
Y2244016D3*
X1419016D3*
X1519016D3*
X1619016D3*
D35*
X2119016Y2344016D3*
D36*
Y2244016D3*
X2019016Y2344016D3*
Y2244016D3*
X1919016Y2344016D3*
Y2244016D3*
X1819016Y2344016D3*
Y2244016D3*
X1719016Y2344016D3*
Y2244016D3*
D47*
X1596317Y814777D3*
D48*
X1895529D3*
D51*
X913715Y1425414D3*
Y1388012D3*
Y1350610D3*
X1020015D3*
Y1425414D3*
D52*
X3219016Y1784016D3*
X3119016D3*
X3019016D3*
X2919016D3*
X2819016D3*
X2719016D3*
X2619016D3*
X2519016D3*
X2419016D3*
X2319016D3*
X2219016D3*
X2119016D3*
X2019016D3*
X1919016D3*
X1419016Y1284016D3*
Y1384016D3*
Y1484016D3*
Y1584016D3*
X1619016Y1184016D3*
X1919016D3*
X2019016D3*
X2119016D3*
X2219016D3*
X2319016D3*
X2419016D3*
X2519016D3*
X2619016D3*
X2719016D3*
X2819016D3*
X2919016D3*
X3019016D3*
X3119016D3*
X3219016D3*
X3119016Y1284016D3*
X2919016D3*
X2819016D3*
X2719016D3*
X1319016Y1784016D3*
X1219016D3*
X1419016D3*
X1519016D3*
X1619016D3*
X1719016D3*
X1119016D3*
X1019016D3*
X919016D3*
Y1184016D3*
X1819016Y1784016D3*
X1019016Y1184016D3*
X1819016D3*
X1119016D3*
X1319016D3*
X1419016D3*
X1519016D3*
X1219016D3*
X1719016D3*
X1419016Y1684016D3*
D51*
X1014109Y1617776D3*
Y1655177D3*
Y1692579D3*
X907810D3*
Y1617776D3*
D53*
X1925902Y1621978D3*
X1875902D3*
X1825902D3*
X1775902D3*
Y1409380D3*
X1825902D3*
X1875902D3*
X1925902D3*
D29*
X1549827Y1547112D3*
X1624630D3*
D56*
X910026Y1929049D3*
X996641D3*
M02*
