G04 DipTrace 3.0.0.0*
G04 Teensy-Arbotix-mini.gbo*
%MOIN*%
G04 #@! TF.FileFunction,Legend,Bot*
G04 #@! TF.Part,Single*
%ADD89C,0.006176*%
%ADD90C,0.00772*%
%ADD92C,0.004632*%
%FSLAX26Y26*%
G04*
G70*
G90*
G75*
G01*
G04 BotSilk*
%LPD*%
X1545201Y470547D2*
D90*
X1552331Y468170D1*
X1554763Y463417D1*
Y458608D1*
X1552331Y453855D1*
X1547578Y451423D1*
X1538016Y449047D1*
X1530831Y446670D1*
X1526078Y441862D1*
X1523701Y437109D1*
Y429924D1*
X1526078Y425170D1*
X1528454Y422738D1*
X1535639Y420362D1*
X1545201D1*
X1552331Y422738D1*
X1554763Y425170D1*
X1557139Y429924D1*
Y437109D1*
X1554763Y441862D1*
X1549954Y446670D1*
X1542824Y449047D1*
X1533263Y451423D1*
X1528454Y453855D1*
X1526078Y458608D1*
Y463417D1*
X1528454Y468170D1*
X1535639Y470547D1*
X1545201D1*
X1627701Y452855D2*
X1630133Y445670D1*
X1634886Y440862D1*
X1642071Y438485D1*
X1644448D1*
X1651633Y440862D1*
X1656386Y445670D1*
X1658818Y452855D1*
Y455232D1*
X1656386Y462417D1*
X1651633Y467170D1*
X1644448Y469547D1*
X1642071D1*
X1634886Y467170D1*
X1630133Y462417D1*
X1627701Y452855D1*
Y440862D1*
X1630133Y428924D1*
X1634886Y421738D1*
X1642071Y419362D1*
X1646824D1*
X1654010Y421738D1*
X1656386Y426547D1*
X1772127Y460485D2*
X1767319Y462917D1*
X1760134Y470047D1*
Y419862D1*
X1730324Y470047D2*
X1737510Y467670D1*
X1742318Y460485D1*
X1744695Y448547D1*
Y441362D1*
X1742318Y429424D1*
X1737510Y422238D1*
X1730324Y419862D1*
X1725571D1*
X1718386Y422238D1*
X1713633Y429424D1*
X1711201Y441362D1*
Y448547D1*
X1713633Y460485D1*
X1718386Y467670D1*
X1725571Y470047D1*
X1730324D1*
X1713633Y460485D2*
X1742318Y429424D1*
X1863627Y459985D2*
X1858819Y462417D1*
X1851634Y469547D1*
Y419362D1*
X1836195Y459985D2*
X1831386Y462417D1*
X1824201Y469547D1*
Y419362D1*
X1973627Y459485D2*
X1968819Y461917D1*
X1961634Y469047D1*
Y418862D1*
X1943763Y457108D2*
Y459485D1*
X1941386Y464293D1*
X1939010Y466670D1*
X1934201Y469047D1*
X1924639D1*
X1919886Y466670D1*
X1917510Y464293D1*
X1915078Y459485D1*
Y454732D1*
X1917510Y449923D1*
X1922263Y442794D1*
X1946195Y418862D1*
X1912701D1*
X2072627Y460985D2*
X2067819Y463417D1*
X2060634Y470547D1*
Y420362D1*
X2040386Y470547D2*
X2014133D1*
X2028448Y451423D1*
X2021263D1*
X2016510Y449047D1*
X2014133Y446670D1*
X2011701Y439485D1*
Y434732D1*
X2014133Y427547D1*
X2018886Y422738D1*
X2026071Y420362D1*
X2033256D1*
X2040386Y422738D1*
X2042763Y425170D1*
X2045195Y429924D1*
X1722442Y1967454D2*
X1727251Y1965022D1*
X1734436Y1957892D1*
Y2008077D1*
X1618374Y1969830D2*
Y1967454D1*
X1620751Y1962645D1*
X1623127Y1960269D1*
X1627936Y1957892D1*
X1637497D1*
X1642251Y1960269D1*
X1644627Y1962645D1*
X1647059Y1967454D1*
Y1972207D1*
X1644627Y1977015D1*
X1639874Y1984145D1*
X1615942Y2008077D1*
X1649436D1*
X1520751Y1957892D2*
X1547004D1*
X1532689Y1977015D1*
X1539874D1*
X1544627Y1979392D1*
X1547004Y1981769D1*
X1549436Y1988954D1*
Y1993707D1*
X1547004Y2000892D1*
X1542251Y2005700D1*
X1535066Y2008077D1*
X1527881D1*
X1520751Y2005700D1*
X1518374Y2003268D1*
X1515942Y1998515D1*
X1442497Y2008077D2*
Y1957892D1*
X1418566Y1991330D1*
X1454436D1*
X1344627Y1957892D2*
X1320751D1*
X1318374Y1979392D1*
X1320751Y1977015D1*
X1327936Y1974584D1*
X1335065D1*
X1342251Y1977015D1*
X1347059Y1981769D1*
X1349436Y1988954D1*
Y1993707D1*
X1347059Y2000892D1*
X1342251Y2005700D1*
X1335066Y2008077D1*
X1327936D1*
X1320751Y2005700D1*
X1318374Y2003268D1*
X1315942Y1998515D1*
X740324Y467047D2*
X747510Y464670D1*
X752318Y457485D1*
X754695Y445547D1*
Y438362D1*
X752318Y426424D1*
X747510Y419238D1*
X740324Y416862D1*
X735571D1*
X728386Y419238D1*
X723633Y426424D1*
X721201Y438362D1*
Y445547D1*
X723633Y457485D1*
X728386Y464670D1*
X735571Y467047D1*
X740324D1*
X723633Y457485D2*
X752318Y426424D1*
X846695Y457985D2*
X841886Y460417D1*
X834701Y467547D1*
Y417362D1*
X955763Y456108D2*
Y458485D1*
X953386Y463293D1*
X951010Y465670D1*
X946201Y468047D1*
X936639D1*
X931886Y465670D1*
X929510Y463293D1*
X927078Y458485D1*
Y453732D1*
X929510Y448923D1*
X934263Y441794D1*
X958195Y417862D1*
X924701D1*
X1048886Y469047D2*
X1022633D1*
X1036948Y449923D1*
X1029763D1*
X1025010Y447547D1*
X1022633Y445170D1*
X1020201Y437985D1*
Y433232D1*
X1022633Y426047D1*
X1027386Y421238D1*
X1034571Y418862D1*
X1041756D1*
X1048886Y421238D1*
X1051263Y423670D1*
X1053695Y428424D1*
X1135639Y416862D2*
Y467047D1*
X1159571Y433609D1*
X1123701D1*
X1230010Y467047D2*
X1253886D1*
X1256263Y445547D1*
X1253886Y447923D1*
X1246701Y450355D1*
X1239571D1*
X1232386Y447923D1*
X1227578Y443170D1*
X1225201Y435985D1*
Y431232D1*
X1227578Y424047D1*
X1232386Y419238D1*
X1239571Y416862D1*
X1246701D1*
X1253886Y419238D1*
X1256263Y421670D1*
X1258695Y426424D1*
X1326078Y459917D2*
X1328454Y464670D1*
X1335639Y467047D1*
X1340393D1*
X1347578Y464670D1*
X1352386Y457485D1*
X1354763Y445547D1*
Y433609D1*
X1352386Y424047D1*
X1347578Y419238D1*
X1340393Y416862D1*
X1338016D1*
X1330886Y419238D1*
X1326078Y424047D1*
X1323701Y431232D1*
Y433609D1*
X1326078Y440794D1*
X1330886Y445547D1*
X1338016Y447923D1*
X1340393D1*
X1347578Y445547D1*
X1352386Y440794D1*
X1354763Y433609D1*
X1448133Y417862D2*
X1424201Y468047D1*
X1457695D1*
X2029508Y1997632D2*
D92*
X2018001Y1967488D1*
X2006527Y1997632D1*
X2010838Y1987584D2*
X2025197D1*
X2038772Y1977536D2*
Y1997632D1*
Y1983273D2*
X2043083Y1978962D1*
X2045968Y1977536D1*
X2050246D1*
X2053131Y1978962D1*
X2054557Y1983273D1*
Y1997632D1*
X2081031Y1977536D2*
Y1997632D1*
Y1981847D2*
X2078179Y1978962D1*
X2075294Y1977536D1*
X2071016D1*
X2068131Y1978962D1*
X2065279Y1981847D1*
X2063820Y1986158D1*
Y1989010D1*
X2065279Y1993321D1*
X2068131Y1996173D1*
X2071016Y1997632D1*
X2075294D1*
X2078179Y1996173D1*
X2081031Y1993321D1*
X2090295Y1967488D2*
Y1997632D1*
X2106721Y1977536D2*
X2103869Y1978962D1*
X2100984Y1981847D1*
X2099558Y1986158D1*
Y1989010D1*
X2100984Y1993321D1*
X2103869Y1996173D1*
X2106721Y1997632D1*
X2111032D1*
X2113917Y1996173D1*
X2116769Y1993321D1*
X2118228Y1989010D1*
Y1986158D1*
X2116769Y1981847D1*
X2113917Y1978962D1*
X2111032Y1977536D1*
X2106721D1*
X2144703Y1978962D2*
Y2001943D1*
X2143277Y2006221D1*
X2141851Y2007680D1*
X2138966Y2009106D1*
X2134655D1*
X2131803Y2007680D1*
X2144703Y1983273D2*
X2141851Y1980421D1*
X2138966Y1978962D1*
X2134655D1*
X2131803Y1980421D1*
X2128918Y1983273D1*
X2127492Y1987584D1*
Y1990469D1*
X2128918Y1994747D1*
X2131803Y1997632D1*
X2134655Y1999058D1*
X2138966D1*
X2141851Y1997632D1*
X2144703Y1994747D1*
X1839112Y1960404D2*
D90*
X1831926Y1962781D1*
X1827118Y1969966D1*
X1824741Y1981904D1*
Y1989089D1*
X1827118Y2001027D1*
X1831927Y2008212D1*
X1839112Y2010589D1*
X1843865D1*
X1851050Y2008212D1*
X1855803Y2001027D1*
X1858235Y1989089D1*
Y1981904D1*
X1855803Y1969966D1*
X1851050Y1962781D1*
X1843865Y1960404D1*
X1839112D1*
X1855803Y1969966D2*
X1827118Y2001027D1*
X1255408Y1964084D2*
X1253031Y1959330D1*
X1245846Y1956954D1*
X1241093D1*
X1233908Y1959330D1*
X1229100Y1966515D1*
X1226723Y1978454D1*
Y1990392D1*
X1229100Y1999954D1*
X1233908Y2004762D1*
X1241093Y2007139D1*
X1243470D1*
X1250600Y2004762D1*
X1255408Y1999954D1*
X1257785Y1992768D1*
Y1990392D1*
X1255408Y1983207D1*
X1250600Y1978454D1*
X1243470Y1976077D1*
X1241093D1*
X1233908Y1978454D1*
X1229100Y1983207D1*
X1226723Y1990392D1*
X1137853Y2005139D2*
X1161785Y1954954D1*
X1128291D1*
X1039285Y1956954D2*
X1032155Y1959330D1*
X1029723Y1964084D1*
Y1968892D1*
X1032155Y1973645D1*
X1036908Y1976077D1*
X1046470Y1978454D1*
X1053655Y1980830D1*
X1058408Y1985639D1*
X1060785Y1990392D1*
Y1997577D1*
X1058408Y2002330D1*
X1056031Y2004762D1*
X1048846Y2007139D1*
X1039285D1*
X1032155Y2004762D1*
X1029723Y2002330D1*
X1027347Y1997577D1*
Y1990392D1*
X1029723Y1985639D1*
X1034532Y1980830D1*
X1041661Y1978454D1*
X1051223Y1976077D1*
X1056031Y1973645D1*
X1058408Y1968892D1*
Y1964084D1*
X1056031Y1959330D1*
X1048846Y1956954D1*
X1039285D1*
X954785Y1974645D2*
X952353Y1981830D1*
X947600Y1986639D1*
X940415Y1989015D1*
X938038D1*
X930853Y1986639D1*
X926100Y1981830D1*
X923668Y1974645D1*
Y1972269D1*
X926100Y1965084D1*
X930853Y1960330D1*
X938038Y1957954D1*
X940415D1*
X947600Y1960330D1*
X952353Y1965084D1*
X954785Y1974645D1*
Y1986639D1*
X952353Y1998577D1*
X947600Y2005762D1*
X940415Y2008139D1*
X935661D1*
X928476Y2005762D1*
X926100Y2000954D1*
X812859Y1967516D2*
X817667Y1965084D1*
X824852Y1957954D1*
Y2008139D1*
X854661Y1957954D2*
X847476Y1960330D1*
X842668Y1967515D1*
X840291Y1979454D1*
Y1986639D1*
X842668Y1998577D1*
X847476Y2005762D1*
X854661Y2008139D1*
X859415D1*
X866600Y2005762D1*
X871353Y1998577D1*
X873785Y1986639D1*
Y1979454D1*
X871353Y1967515D1*
X866600Y1960330D1*
X859415Y1957954D1*
X854661D1*
X871353Y1967515D2*
X842668Y1998577D1*
X724358Y1967515D2*
X729167Y1965084D1*
X736352Y1957954D1*
Y2008139D1*
X751791Y1967515D2*
X756600Y1965084D1*
X763785Y1957954D1*
Y2008139D1*
X1955036Y1945075D2*
D92*
X1924892D1*
Y1955123D1*
X1926351Y1959434D1*
X1929203Y1962319D1*
X1932088Y1963745D1*
X1936366Y1965171D1*
X1943562D1*
X1947873Y1963745D1*
X1950725Y1962319D1*
X1953610Y1959434D1*
X1955036Y1955123D1*
Y1945075D1*
X1924892Y1997416D2*
X1955036Y1985909D1*
X1924892Y1974435D1*
X1934940Y1978746D2*
Y1993105D1*
X1947873Y2028201D2*
X1950725Y2026775D1*
X1953610Y2023890D1*
X1955036Y2021038D1*
Y2015301D1*
X1953610Y2012416D1*
X1950725Y2009564D1*
X1947873Y2008105D1*
X1943562Y2006679D1*
X1936366D1*
X1932088Y2008105D1*
X1929203Y2009564D1*
X1926351Y2012416D1*
X1924892Y2015301D1*
Y2021038D1*
X1926351Y2023890D1*
X1929203Y2026775D1*
X1932088Y2028201D1*
X2727230Y1046519D2*
D90*
Y1089574D1*
X2705730Y1068074D2*
X2748785D1*
X2711150Y1518046D2*
X2738785D1*
X498006Y959507D2*
D89*
Y999699D1*
X524801Y959507D2*
X498006Y986301D1*
X507557Y976707D2*
X524801Y999699D1*
X537152Y972904D2*
Y992050D1*
X539054Y997753D1*
X542900Y999699D1*
X548648D1*
X552451Y997753D1*
X558199Y992050D1*
Y972904D2*
Y999699D1*
X570550Y972904D2*
Y999699D1*
Y984400D2*
X572496Y978652D1*
X576298Y974805D1*
X580145Y972904D1*
X585893D1*
X603993Y959507D2*
Y992050D1*
X605894Y997753D1*
X609741Y999699D1*
X613543D1*
X598245Y972904D2*
X611642D1*
X635489Y959551D2*
X625895Y971047D1*
X637391Y961452D1*
X635489Y959551D1*
X670789Y978652D2*
X668887Y974805D1*
X663139Y972904D1*
X657391D1*
X651643Y974805D1*
X649742Y978652D1*
X651643Y982455D1*
X655490Y984400D1*
X665041Y986301D1*
X668887Y988203D1*
X670789Y992050D1*
Y993951D1*
X668887Y997753D1*
X663139Y999699D1*
X657391D1*
X651643Y997753D1*
X649742Y993951D1*
X735418Y959507D2*
Y999699D1*
X722021Y959507D2*
X748816D1*
X761167Y984400D2*
X784115D1*
Y980553D1*
X782214Y976707D1*
X780312Y974805D1*
X776466Y972904D1*
X770718D1*
X766915Y974805D1*
X763068Y978652D1*
X761167Y984400D1*
Y988203D1*
X763068Y993951D1*
X766915Y997753D1*
X770718Y999699D1*
X776466D1*
X780312Y997753D1*
X784115Y993951D1*
X796466Y984400D2*
X819414D1*
Y980553D1*
X817513Y976707D1*
X815612Y974805D1*
X811765Y972904D1*
X806017D1*
X802214Y974805D1*
X798368Y978652D1*
X796466Y984400D1*
Y988203D1*
X798368Y993951D1*
X802214Y997753D1*
X806017Y999699D1*
X811765D1*
X815612Y997753D1*
X819414Y993951D1*
X831766Y972904D2*
Y999699D1*
Y980553D2*
X837514Y974805D1*
X841360Y972904D1*
X847064D1*
X850911Y974805D1*
X852812Y980553D1*
Y999699D1*
X886210Y978652D2*
X884309Y974805D1*
X878561Y972904D1*
X872813D1*
X867065Y974805D1*
X865164Y978652D1*
X867065Y982455D1*
X870912Y984400D1*
X880462Y986301D1*
X884309Y988203D1*
X886210Y992050D1*
Y993951D1*
X884309Y997753D1*
X878561Y999699D1*
X872813D1*
X867065Y997753D1*
X865164Y993951D1*
X900507Y972904D2*
X911959Y999699D1*
X908156Y1007348D1*
X904310Y1011195D1*
X900507Y1013096D1*
X898562D1*
X923455Y972904D2*
X911959Y999699D1*
X1005329D2*
X989986Y959507D1*
X974687Y999699D1*
X980435Y986301D2*
X999581D1*
X1017680Y972904D2*
Y999699D1*
Y984400D2*
X1019626Y978652D1*
X1023428Y974805D1*
X1027275Y972904D1*
X1033023D1*
X1045374Y959507D2*
Y999699D1*
Y978652D2*
X1049221Y974805D1*
X1053024Y972904D1*
X1058772D1*
X1062574Y974805D1*
X1066421Y978652D1*
X1068322Y984400D1*
Y988203D1*
X1066421Y993951D1*
X1062574Y997753D1*
X1058772Y999699D1*
X1053024D1*
X1049221Y997753D1*
X1045374Y993951D1*
X1090224Y972904D2*
X1086422Y974805D1*
X1082575Y978652D1*
X1080674Y984400D1*
Y988203D1*
X1082575Y993951D1*
X1086422Y997753D1*
X1090224Y999699D1*
X1095972D1*
X1099819Y997753D1*
X1103622Y993951D1*
X1105567Y988203D1*
Y984400D1*
X1103622Y978652D1*
X1099819Y974805D1*
X1095972Y972904D1*
X1090224D1*
X1123666Y959507D2*
Y992050D1*
X1125568Y997753D1*
X1129414Y999699D1*
X1133217D1*
X1117918Y972904D2*
X1131316D1*
X1145568Y959507D2*
X1147470Y961408D1*
X1149415Y959507D1*
X1147470Y957561D1*
X1145568Y959507D1*
X1147470Y972904D2*
Y999699D1*
X1161767Y972904D2*
X1182813Y999699D1*
Y972904D2*
X1161767Y999699D1*
X1264643D2*
Y959507D1*
X1249344Y999699D1*
X1234045Y959507D1*
Y999699D1*
X1276994Y959507D2*
X1278895Y961408D1*
X1280841Y959507D1*
X1278895Y957561D1*
X1276994Y959507D1*
X1278895Y972904D2*
Y999699D1*
X1293192Y972904D2*
Y999699D1*
Y980553D2*
X1298940Y974805D1*
X1302787Y972904D1*
X1308491D1*
X1312337Y974805D1*
X1314239Y980553D1*
Y999699D1*
X1326590Y959507D2*
X1328491Y961408D1*
X1330437Y959507D1*
X1328491Y957561D1*
X1326590Y959507D1*
X1328491Y972904D2*
Y999699D1*
X1381669Y959507D2*
X1396968Y999699D1*
X1412266Y959507D1*
X1436114Y959551D2*
X1430366Y961452D1*
X1426519Y967200D1*
X1424618Y976751D1*
Y982499D1*
X1426519Y992050D1*
X1430366Y997798D1*
X1436114Y999699D1*
X1439916D1*
X1445664Y997798D1*
X1449467Y992050D1*
X1451412Y982499D1*
Y976751D1*
X1449467Y967200D1*
X1445664Y961452D1*
X1439916Y959551D1*
X1436114D1*
X1449467Y967200D2*
X1426519Y992050D1*
X1465665Y995852D2*
X1463764Y997798D1*
X1465665Y999699D1*
X1467610Y997798D1*
X1465665Y995852D1*
X1479962Y967200D2*
X1483809Y965255D1*
X1489557Y959551D1*
Y999699D1*
M02*
