M48
INCH
T01C0.0191
T02C0.0295
T03C0.0354
T04C0.038
T05C0.04
T06C0.0512
T07C0.0591
T08C0.125
%
T01
X+020137Y+008737
X+020737Y+008387
X+022037Y+009687
X+022737Y+009137
X+019137Y+011737
X+006537Y+016137
T02
X+026287Y+009687
X+026287Y+008900
X+019743Y+012193
X+019743Y+012981
X+021531Y+014543
X+021531Y+015331
T03
X+014437Y+017937
X+015437Y+017937
X+015437Y+018937
X+014437Y+018937
X+013437Y+018937
X+012437Y+018937
X+012437Y+017937
X+013437Y+017937
X+013437Y+016937
X+012437Y+016937
X+011437Y+016937
X+010437Y+016937
X+009437Y+016937
X+009437Y+017937
X+010437Y+017937
X+011437Y+017937
X+011437Y+018937
X+010437Y+018937
X+009437Y+018937
X+008437Y+018937
X+007437Y+018937
X+007437Y+017937
X+008437Y+017937
X+008437Y+016937
X+007437Y+016937
X+014437Y+016937
X+015437Y+016937
X+016437Y+016937
X+016437Y+017937
X+016437Y+018937
X+017437Y+018937
X+017437Y+017937
X+018437Y+017937
X+019437Y+017937
X+019437Y+018937
X+018437Y+018937
X+018437Y+016937
X+019437Y+016937
X+017437Y+016937
X+021437Y+013187
X+021437Y+012187
X+021437Y+011187
X+020437Y+007187
X+019437Y+007187
X+019437Y+006187
X+020437Y+006187
X+020437Y+005187
X+019437Y+005187
X+018437Y+005187
X+017437Y+005187
X+016437Y+005187
X+015437Y+005187
X+014437Y+005187
X+014437Y+006187
X+014437Y+007187
X+013437Y+007187
X+012437Y+007187
X+012437Y+006187
X+013437Y+006187
X+013437Y+005187
X+012437Y+005187
X+011437Y+005187
X+011437Y+006187
X+011437Y+007187
X+010437Y+007187
X+009437Y+007187
X+008437Y+007187
X+008437Y+006187
X+009437Y+006187
X+010437Y+006187
X+010437Y+005187
X+009437Y+005187
X+008437Y+005187
X+007437Y+005187
X+007437Y+006187
X+007437Y+007187
X+015437Y+007187
X+016437Y+007187
X+016437Y+006187
X+015437Y+006187
X+017437Y+006187
X+017437Y+007187
X+018437Y+007187
X+018437Y+006187
T04
X+005187Y+008937
X+006187Y+008937
X+007187Y+008937
X+008187Y+008937
X+009187Y+008937
X+010187Y+008937
X+011187Y+008937
X+012187Y+008937
X+013187Y+008937
X+014187Y+008937
X+015187Y+008937
X+016187Y+008937
X+017187Y+008937
X+018187Y+008937
X+018187Y+009937
X+018187Y+010937
X+018187Y+011937
X+018187Y+013937
X+018187Y+014937
X+017187Y+014937
X+016187Y+014937
X+015187Y+014937
X+014187Y+014937
X+013187Y+014937
X+012187Y+014937
X+011187Y+014937
X+010187Y+014937
X+010187Y+013937
X+009187Y+013937
X+009187Y+014937
X+008187Y+014937
X+008187Y+013937
X+007187Y+014937
X+006187Y+014937
X+006187Y+013937
X+005187Y+014937
T05
X+007687Y+011937
X+022687Y+007187
X+022687Y+006187
X+022687Y+005187
X+024937Y+005187
X+024937Y+006187
X+024937Y+007187
X+025187Y+016937
X+025187Y+017937
X+025187Y+018937
X+022687Y+018937
X+022687Y+017937
X+022687Y+016937
T06
X+027187Y+011953
X+027187Y+013921
T07
X+024187Y+011937
X+024187Y+012937
X+024187Y+013937
T08
X+027437Y+005437
X+027437Y+018937
X+005437Y+018937
X+005437Y+005437
T00
M30
