G04 DipTrace 3.0.0.0*
G04 Teensy-Arbotix-mini.gto*
%MOIN*%
G04 #@! TF.FileFunction,Legend,Top*
G04 #@! TF.Part,Single*
%ADD10C,0.009843*%
%ADD16C,0.008*%
%ADD34C,0.011811*%
%ADD39C,0.005*%
%ADD44C,0.015401*%
%ADD89C,0.006176*%
%ADD90C,0.00772*%
%ADD91C,0.010936*%
%ADD92C,0.004632*%
%ADD93C,0.008749*%
%ADD94C,0.009264*%
%ADD95C,0.006562*%
%FSLAX26Y26*%
G04*
G70*
G90*
G75*
G01*
G04 TopSilk*
%LPD*%
X2079272Y1787341D2*
D10*
X2028130D1*
X2616884Y1035630D2*
X2640516D1*
X2628700Y1047441D2*
Y1023819D1*
X2549961Y929331D2*
X2550157Y934824D1*
X2550746Y940289D1*
X2551725Y945702D1*
X2553087Y951035D1*
X2554828Y956262D1*
X2556938Y961357D1*
X2559408Y966297D1*
X2562225Y971057D1*
X2565375Y975613D1*
X2568843Y979944D1*
X2572613Y984028D1*
X2576665Y987846D1*
X2580980Y991379D1*
X2585538Y994609D1*
X2590315Y997522D1*
X2595289Y1000102D1*
X2600436Y1002338D1*
X2605729Y1004217D1*
X2611144Y1005732D1*
X2616655Y1006875D1*
X2622233Y1007640D1*
X2627853Y1008023D1*
X2633486D1*
X2639106Y1007640D1*
X2644684Y1006875D1*
X2650195Y1005732D1*
X2655610Y1004217D1*
X2660904Y1002338D1*
X2666050Y1000102D1*
X2671024Y997522D1*
X2675801Y994609D1*
X2680359Y991379D1*
X2684674Y987846D1*
X2688726Y984028D1*
X2692496Y979944D1*
X2695964Y975613D1*
X2699114Y971057D1*
X2701931Y966297D1*
X2704401Y961357D1*
X2706511Y956262D1*
X2708252Y951035D1*
X2709614Y945702D1*
X2710593Y940289D1*
X2711182Y934824D1*
X2711378Y929331D1*
X2711182Y923838D1*
X2710593Y918372D1*
X2709614Y912960D1*
X2708252Y907627D1*
X2706511Y902400D1*
X2704401Y897304D1*
X2701931Y892365D1*
X2699114Y887605D1*
X2695964Y883049D1*
X2692496Y878718D1*
X2688726Y874633D1*
X2684674Y870816D1*
X2680359Y867283D1*
X2675801Y864052D1*
X2671024Y861140D1*
X2666050Y858560D1*
X2660904Y856324D1*
X2655610Y854445D1*
X2650195Y852930D1*
X2644684Y851787D1*
X2639106Y851022D1*
X2633486Y850639D1*
X2627853D1*
X2622233Y851022D1*
X2616655Y851787D1*
X2611144Y852930D1*
X2605729Y854445D1*
X2600436Y856324D1*
X2595289Y858560D1*
X2590315Y861140D1*
X2585538Y864052D1*
X2580980Y867283D1*
X2576665Y870816D1*
X2572613Y874633D1*
X2568843Y878718D1*
X2565375Y883049D1*
X2562225Y887605D1*
X2559408Y892365D1*
X2556938Y897304D1*
X2554828Y902400D1*
X2553087Y907627D1*
X2551725Y912960D1*
X2550746Y918372D1*
X2550157Y923838D1*
X2549961Y929331D1*
X1962514Y1365000D2*
X1986146D1*
X1974330Y1376811D2*
Y1353189D1*
X1895591Y1258701D2*
X1895787Y1264194D1*
X1896376Y1269660D1*
X1897354Y1275072D1*
X1898717Y1280405D1*
X1900458Y1285632D1*
X1902568Y1290728D1*
X1905038Y1295667D1*
X1907855Y1300427D1*
X1911005Y1304983D1*
X1914473Y1309314D1*
X1918242Y1313399D1*
X1922295Y1317216D1*
X1926610Y1320749D1*
X1931168Y1323980D1*
X1935945Y1326892D1*
X1940919Y1329472D1*
X1946065Y1331708D1*
X1951359Y1333587D1*
X1956774Y1335102D1*
X1962285Y1336245D1*
X1967863Y1337010D1*
X1973483Y1337393D1*
X1979116D1*
X1984736Y1337010D1*
X1990314Y1336245D1*
X1995825Y1335102D1*
X2001240Y1333587D1*
X2006533Y1331708D1*
X2011680Y1329472D1*
X2016654Y1326892D1*
X2021431Y1323980D1*
X2025989Y1320749D1*
X2030304Y1317216D1*
X2034356Y1313399D1*
X2038126Y1309314D1*
X2041594Y1304983D1*
X2044744Y1300427D1*
X2047561Y1295667D1*
X2050030Y1290728D1*
X2052141Y1285632D1*
X2053882Y1280405D1*
X2055244Y1275072D1*
X2056223Y1269660D1*
X2056811Y1264194D1*
X2057008Y1258701D1*
X2056811Y1253208D1*
X2056223Y1247742D1*
X2055244Y1242330D1*
X2053882Y1236997D1*
X2052141Y1231770D1*
X2050030Y1226674D1*
X2047561Y1221735D1*
X2044744Y1216975D1*
X2041594Y1212419D1*
X2038126Y1208088D1*
X2034356Y1204003D1*
X2030304Y1200186D1*
X2025989Y1196653D1*
X2021431Y1193422D1*
X2016654Y1190510D1*
X2011680Y1187930D1*
X2006533Y1185694D1*
X2001240Y1183815D1*
X1995825Y1182300D1*
X1990314Y1181157D1*
X1984736Y1180392D1*
X1979116Y1180009D1*
X1973483D1*
X1967863Y1180392D1*
X1962285Y1181157D1*
X1956774Y1182300D1*
X1951359Y1183815D1*
X1946065Y1185694D1*
X1940919Y1187930D1*
X1935945Y1190510D1*
X1931168Y1193422D1*
X1926610Y1196653D1*
X1922295Y1200186D1*
X1918242Y1204003D1*
X1914473Y1208088D1*
X1911005Y1212419D1*
X1907855Y1216975D1*
X1905038Y1221735D1*
X1902568Y1226674D1*
X1900458Y1231770D1*
X1898717Y1236997D1*
X1897354Y1242330D1*
X1896376Y1247742D1*
X1895787Y1253208D1*
X1895591Y1258701D1*
X2164888Y1387402D2*
X2141256D1*
X2153072Y1375591D2*
Y1399213D1*
X2070394Y1493701D2*
X2070591Y1499194D1*
X2071179Y1504660D1*
X2072158Y1510072D1*
X2073520Y1515405D1*
X2075261Y1520632D1*
X2077372Y1525728D1*
X2079841Y1530667D1*
X2082658Y1535427D1*
X2085808Y1539983D1*
X2089276Y1544314D1*
X2093046Y1548399D1*
X2097098Y1552216D1*
X2101413Y1555749D1*
X2105971Y1558980D1*
X2110748Y1561892D1*
X2115722Y1564472D1*
X2120869Y1566708D1*
X2126162Y1568587D1*
X2131577Y1570102D1*
X2137088Y1571245D1*
X2142666Y1572010D1*
X2148286Y1572393D1*
X2153919D1*
X2159539Y1572010D1*
X2165117Y1571245D1*
X2170628Y1570102D1*
X2176043Y1568587D1*
X2181337Y1566708D1*
X2186483Y1564472D1*
X2191457Y1561892D1*
X2196234Y1558980D1*
X2200792Y1555749D1*
X2205107Y1552216D1*
X2209160Y1548399D1*
X2212929Y1544314D1*
X2216397Y1539983D1*
X2219547Y1535427D1*
X2222364Y1530667D1*
X2224834Y1525728D1*
X2226944Y1520632D1*
X2228685Y1515405D1*
X2230048Y1510072D1*
X2231026Y1504660D1*
X2231615Y1499194D1*
X2231811Y1493701D1*
X2231615Y1488208D1*
X2231026Y1482742D1*
X2230048Y1477330D1*
X2228685Y1471997D1*
X2226944Y1466770D1*
X2224834Y1461674D1*
X2222364Y1456735D1*
X2219547Y1451975D1*
X2216397Y1447419D1*
X2212929Y1443088D1*
X2209160Y1439003D1*
X2205107Y1435186D1*
X2200792Y1431653D1*
X2196234Y1428422D1*
X2191457Y1425510D1*
X2186483Y1422930D1*
X2181337Y1420694D1*
X2176043Y1418815D1*
X2170628Y1417300D1*
X2165117Y1416157D1*
X2159539Y1415392D1*
X2153919Y1415009D1*
X2148286D1*
X2142666Y1415392D1*
X2137088Y1416157D1*
X2131577Y1417300D1*
X2126162Y1418815D1*
X2120869Y1420694D1*
X2115722Y1422930D1*
X2110748Y1425510D1*
X2105971Y1428422D1*
X2101413Y1431653D1*
X2097098Y1435186D1*
X2093046Y1439003D1*
X2089276Y1443088D1*
X2085808Y1447419D1*
X2082658Y1451975D1*
X2079841Y1456735D1*
X2077372Y1461674D1*
X2075261Y1466770D1*
X2073520Y1471997D1*
X2072158Y1477330D1*
X2071179Y1482742D1*
X2070591Y1488208D1*
X2070394Y1493701D1*
X2118130Y652462D2*
X2169272D1*
X1393701Y1743701D2*
X1993701D1*
Y1943701D1*
X1393701D2*
X1993701D1*
X1393701Y1743701D2*
Y1943701D1*
X1993701Y1743701D2*
X1393701D1*
X1993701Y1643701D2*
X1393701D1*
X1993701Y1743701D2*
Y1643701D1*
X1393701Y1743701D2*
Y1643701D1*
Y1743701D2*
Y1943701D1*
X693701Y1743701D2*
Y1943701D1*
X1393701D1*
X693701Y1743701D2*
X1393701D1*
X693701D2*
Y1643701D1*
X1393701Y1743701D2*
X693701D1*
X1393701D2*
Y1643701D1*
X693701D1*
X1493701Y468701D2*
Y668701D1*
X693701Y468701D2*
Y668701D1*
Y468701D2*
X1493701D1*
X693701Y668701D2*
X1493701D1*
X693701Y768701D2*
X1493701D1*
X693701Y668701D2*
Y768701D1*
Y668701D2*
X1493701D1*
Y768701D1*
Y468701D2*
X2093701D1*
Y668701D1*
X1493701D2*
X2093701D1*
X1493701Y468701D2*
Y668701D1*
X2093701D1*
X1493701Y768701D2*
X2093701D1*
X1493701Y668701D2*
Y768701D1*
X2093701Y668701D2*
Y768701D1*
X2193701Y1068701D2*
X2093701D1*
Y1368701D1*
X2193701D2*
X2093701D1*
X2193701Y1068701D2*
Y1368701D1*
X2848622Y1073229D2*
Y1514173D1*
X2553347D1*
Y1073229D1*
X2848622D1*
G36*
X2813868Y1179540D2*
X2845374D1*
Y1211024D1*
X2813868D1*
Y1179540D1*
G37*
G36*
Y1376378D2*
X2845374D1*
Y1407862D1*
X2813868D1*
Y1376378D1*
G37*
G36*
X543701Y1697638D2*
X551574D1*
Y1689764D1*
X543701D1*
Y1697638D1*
G37*
X522914Y765196D2*
D10*
G02X522914Y765196I31496J0D01*
G01*
X613465Y820315D2*
X495355D1*
X613465Y710078D2*
X593780D1*
X495355D1*
X637087Y759287D2*
Y771106D1*
X471732Y759287D2*
Y771106D1*
D34*
X469764Y702203D3*
X518681Y1143721D2*
D16*
Y1243681D1*
X468701D1*
Y1543701D1*
X1868701D1*
Y843701D1*
X468701D1*
Y1143721D1*
X518681D1*
X2316307Y1075197D2*
D10*
Y1512205D1*
X2296654Y1075197D2*
Y1512205D1*
X2485630D2*
X2296654D1*
X2485630Y1075197D2*
X2296654D1*
X2485630D2*
Y1512205D1*
X1902341Y1083130D2*
Y1134272D1*
X2243130Y1035061D2*
X2294272D1*
X2146654Y1988583D2*
D39*
Y1598819D1*
X2339566D1*
X2339701Y1717697D2*
Y1767704D1*
Y1817710D1*
Y1867717D1*
Y1917685D1*
X2339682Y1937017D1*
X2296265Y1988583D1*
X2146654D1*
X2338697Y1868692D2*
X2313698Y1843708D1*
X2338697Y1818685D1*
X2339566Y1768717D2*
X2315705Y1743694D1*
X2339566Y1718710D1*
Y1668704D1*
Y1601976D1*
X2337693Y1669717D2*
X2312694Y1643720D1*
X2218699Y1643681D1*
Y1943721D1*
X2311709Y1943682D1*
X2336709Y1915697D1*
X2396654Y1988583D2*
Y1598819D1*
X2589566D1*
X2589701Y1717697D2*
Y1767704D1*
Y1817710D1*
Y1867717D1*
Y1917685D1*
X2589682Y1937017D1*
X2546265Y1988583D1*
X2396654D1*
X2588697Y1868692D2*
X2563698Y1843708D1*
X2588697Y1818685D1*
X2589566Y1768717D2*
X2565705Y1743694D1*
X2589566Y1718710D1*
Y1668704D1*
Y1601976D1*
X2587693Y1669717D2*
X2562694Y1643720D1*
X2468699Y1643681D1*
Y1943721D1*
X2561709Y1943682D1*
X2586709Y1915697D1*
X2390748Y423819D2*
Y813583D1*
X2197836D1*
X2197701Y694705D2*
Y644698D1*
Y594692D1*
Y544685D1*
Y494717D1*
X2197720Y475385D1*
X2241137Y423819D1*
X2390748D1*
X2198705Y543710D2*
X2223704Y568694D1*
X2198705Y593717D1*
X2197836Y643685D2*
X2221697Y668708D1*
X2197836Y693692D1*
Y743698D1*
Y810426D1*
X2199709Y742685D2*
X2224708Y768682D1*
X2318703Y768721D1*
Y468681D1*
X2225693Y468720D1*
X2200693Y496705D1*
X2615748Y423819D2*
Y813583D1*
X2422836D1*
X2422701Y694705D2*
Y644698D1*
Y594692D1*
Y544685D1*
Y494717D1*
X2422720Y475385D1*
X2466137Y423819D1*
X2615748D1*
X2423705Y543710D2*
X2448704Y568694D1*
X2423705Y593717D1*
X2422836Y643685D2*
X2446697Y668708D1*
X2422836Y693692D1*
Y743698D1*
Y810426D1*
X2424709Y742685D2*
X2449708Y768682D1*
X2543703Y768721D1*
Y468681D1*
X2450693Y468720D1*
X2425693Y496705D1*
D44*
X1904386Y898926D3*
X1909648Y952992D2*
D10*
X2027756D1*
X1909648Y984482D2*
X2027756D1*
Y952992D2*
Y984482D1*
X1909648Y952992D2*
Y984482D1*
D44*
X2054386Y898926D3*
X2059648Y952992D2*
D10*
X2177756D1*
X2059648Y984482D2*
X2177756D1*
Y952992D2*
Y984482D1*
X2059648Y952992D2*
Y984482D1*
X2106346Y1861593D2*
D89*
X2102544Y1859692D1*
X2098697Y1855845D1*
X2096796Y1852042D1*
Y1844393D1*
X2098697Y1840546D1*
X2102544Y1836744D1*
X2106346Y1834798D1*
X2112094Y1832897D1*
X2121689D1*
X2127393Y1834798D1*
X2131240Y1836744D1*
X2135042Y1840546D1*
X2136988Y1844393D1*
Y1852042D1*
X2135042Y1855845D1*
X2131240Y1859692D1*
X2127393Y1861593D1*
X2104489Y1873944D2*
X2102544Y1877791D1*
X2096840Y1883539D1*
X2136988D1*
X2598870Y1030760D2*
X2596968Y1034563D1*
X2593122Y1038410D1*
X2589319Y1040311D1*
X2581670D1*
X2577823Y1038410D1*
X2574020Y1034563D1*
X2572075Y1030760D1*
X2570174Y1025012D1*
Y1015418D1*
X2572075Y1009714D1*
X2574020Y1005867D1*
X2577823Y1002064D1*
X2581670Y1000119D1*
X2589319D1*
X2593122Y1002064D1*
X2596968Y1005867D1*
X2598870Y1009714D1*
X2613167Y1030716D2*
Y1032617D1*
X2615068Y1036464D1*
X2616969Y1038365D1*
X2620816Y1040267D1*
X2628465D1*
X2632268Y1038365D1*
X2634169Y1036464D1*
X2636114Y1032617D1*
Y1028815D1*
X2634169Y1024968D1*
X2630366Y1019264D1*
X2611221Y1000119D1*
X2638016D1*
X1897649Y1362552D2*
X1895748Y1366355D1*
X1891901Y1370201D1*
X1888099Y1372103D1*
X1880449D1*
X1876603Y1370201D1*
X1872800Y1366355D1*
X1870854Y1362552D1*
X1868953Y1356804D1*
Y1347209D1*
X1870854Y1341505D1*
X1872800Y1337659D1*
X1876603Y1333856D1*
X1880449Y1331911D1*
X1888099D1*
X1891901Y1333856D1*
X1895748Y1337659D1*
X1897649Y1341505D1*
X1913847Y1372058D2*
X1934850D1*
X1923398Y1356760D1*
X1929146D1*
X1932948Y1354858D1*
X1934850Y1352957D1*
X1936795Y1347209D1*
Y1343407D1*
X1934850Y1337659D1*
X1931047Y1333812D1*
X1925299Y1331911D1*
X1919551D1*
X1913847Y1333812D1*
X1911946Y1335757D1*
X1910001Y1339560D1*
X2084303Y1510760D2*
X2082401Y1514563D1*
X2078555Y1518410D1*
X2074752Y1520311D1*
X2067103D1*
X2063256Y1518410D1*
X2059454Y1514563D1*
X2057508Y1510760D1*
X2055607Y1505012D1*
Y1495418D1*
X2057508Y1489714D1*
X2059454Y1485867D1*
X2063256Y1482064D1*
X2067103Y1480119D1*
X2074752D1*
X2078555Y1482064D1*
X2082401Y1485867D1*
X2084303Y1489714D1*
X2119602Y1520267D2*
X2100501D1*
X2098600Y1503067D1*
X2100501Y1504968D1*
X2106249Y1506914D1*
X2111953D1*
X2117701Y1504968D1*
X2121548Y1501166D1*
X2123449Y1495418D1*
Y1491615D1*
X2121548Y1485867D1*
X2117701Y1482020D1*
X2111953Y1480119D1*
X2106249D1*
X2100501Y1482020D1*
X2098600Y1483966D1*
X2096654Y1487768D1*
X2138498Y487591D2*
X2136597Y491394D1*
X2132750Y495241D1*
X2128947Y497142D1*
X2121298D1*
X2117451Y495241D1*
X2113649Y491394D1*
X2111703Y487591D1*
X2109802Y481843D1*
Y472249D1*
X2111703Y466545D1*
X2113649Y462698D1*
X2117451Y458895D1*
X2121298Y456950D1*
X2128947D1*
X2132750Y458895D1*
X2136597Y462698D1*
X2138498Y466545D1*
X2160400Y497098D2*
X2154696Y495196D1*
X2152751Y491394D1*
Y487547D1*
X2154696Y483745D1*
X2158499Y481799D1*
X2166148Y479898D1*
X2171896Y477997D1*
X2175699Y474150D1*
X2177600Y470347D1*
Y464599D1*
X2175699Y460797D1*
X2173797Y458851D1*
X2168049Y456950D1*
X2160400D1*
X2154696Y458851D1*
X2152751Y460797D1*
X2150849Y464599D1*
Y470347D1*
X2152751Y474150D1*
X2156597Y477997D1*
X2162301Y479898D1*
X2169951Y481799D1*
X2173797Y483745D1*
X2175699Y487547D1*
Y491394D1*
X2173797Y495196D1*
X2168049Y497098D1*
X2160400D1*
X441209Y1635410D2*
Y1652654D1*
X439307Y1658358D1*
X437362Y1660303D1*
X433559Y1662204D1*
X427811D1*
X424009Y1660303D1*
X422063Y1658358D1*
X420162Y1652654D1*
Y1635410D1*
X460354D1*
X420162Y1674556D2*
X460354Y1684150D1*
X420162Y1693701D1*
X460354Y1703252D1*
X420162Y1712846D1*
X439307Y1725198D2*
Y1742398D1*
X437362Y1748146D1*
X435461Y1750091D1*
X431658Y1751992D1*
X427811D1*
X424009Y1750091D1*
X422063Y1748146D1*
X420162Y1742398D1*
Y1725198D1*
X460354D1*
X439307Y1738595D2*
X460354Y1751992D1*
X2115941Y1666732D2*
Y1683932D1*
X2113995Y1689680D1*
X2112094Y1691626D1*
X2108292Y1693527D1*
X2104445D1*
X2100642Y1691626D1*
X2098697Y1689680D1*
X2096796Y1683932D1*
Y1666732D1*
X2136988D1*
X2115941Y1680130D2*
X2136988Y1693527D1*
X2104489Y1705878D2*
X2102544Y1709725D1*
X2096840Y1715473D1*
X2136988D1*
X1960731Y1435398D2*
X1977931D1*
X1983679Y1437344D1*
X1985624Y1439245D1*
X1987525Y1443047D1*
Y1446894D1*
X1985624Y1450697D1*
X1983679Y1452642D1*
X1977931Y1454543D1*
X1960731D1*
Y1414351D1*
X1974128Y1435398D2*
X1987525Y1414351D1*
X2001822Y1444949D2*
Y1446850D1*
X2003723Y1450697D1*
X2005625Y1452598D1*
X2009471Y1454499D1*
X2017121D1*
X2020923Y1452598D1*
X2022825Y1450697D1*
X2024770Y1446850D1*
Y1443047D1*
X2022825Y1439201D1*
X2019022Y1433497D1*
X1999877Y1414351D1*
X2026671D1*
X639405Y1575731D2*
Y1592931D1*
X637460Y1598679D1*
X635559Y1600624D1*
X631756Y1602525D1*
X627909D1*
X624107Y1600624D1*
X622161Y1598679D1*
X620260Y1592931D1*
Y1575731D1*
X660452D1*
X639405Y1589128D2*
X660452Y1602525D1*
X620304Y1637825D2*
Y1618724D1*
X637504Y1616822D1*
X635603Y1618724D1*
X633657Y1624472D1*
Y1630175D1*
X635603Y1635923D1*
X639406Y1639770D1*
X645154Y1641671D1*
X648956D1*
X654704Y1639770D1*
X658551Y1635923D1*
X660452Y1630175D1*
Y1624472D1*
X658551Y1618723D1*
X656605Y1616822D1*
X652803Y1614877D1*
X475189Y663587D2*
X492389D1*
X498137Y665533D1*
X500082Y667434D1*
X501984Y671236D1*
Y675083D1*
X500082Y678886D1*
X498137Y680831D1*
X492389Y682732D1*
X475189D1*
Y642540D1*
X488586Y663587D2*
X501984Y642540D1*
X514335Y657839D2*
X537283D1*
Y661686D1*
X535382Y665533D1*
X533480Y667434D1*
X529634Y669335D1*
X523886D1*
X520083Y667434D1*
X516236Y663587D1*
X514335Y657839D1*
Y654037D1*
X516236Y648288D1*
X520083Y644486D1*
X523886Y642540D1*
X529634D1*
X533480Y644486D1*
X537283Y648288D1*
X570681Y663587D2*
X568780Y667434D1*
X563032Y669335D1*
X557284D1*
X551536Y667434D1*
X549634Y663587D1*
X551536Y659785D1*
X555382Y657839D1*
X564933Y655938D1*
X568780Y654037D1*
X570681Y650190D1*
Y648288D1*
X568780Y644486D1*
X563032Y642540D1*
X557284D1*
X551536Y644486D1*
X549634Y648288D1*
X583032Y657839D2*
X605980D1*
Y661686D1*
X604079Y665533D1*
X602178Y667434D1*
X598331Y669335D1*
X592583D1*
X588780Y667434D1*
X584934Y663587D1*
X583032Y657839D1*
Y654037D1*
X584934Y648288D1*
X588780Y644486D1*
X592583Y642540D1*
X598331D1*
X602178Y644486D1*
X605980Y648288D1*
X624080Y682732D2*
Y650190D1*
X625981Y644486D1*
X629828Y642540D1*
X633630D1*
X618332Y669335D2*
X631729D1*
X580620Y1270134D2*
X597820D1*
X603568Y1272080D1*
X605513Y1273981D1*
X607415Y1277783D1*
Y1281630D1*
X605513Y1285433D1*
X603568Y1287378D1*
X597820Y1289279D1*
X580620D1*
Y1249087D1*
X594017Y1270134D2*
X607415Y1249087D1*
X619766Y1264386D2*
X642714D1*
Y1268233D1*
X640813Y1272080D1*
X638911Y1273981D1*
X635065Y1275882D1*
X629317D1*
X625514Y1273981D1*
X621667Y1270134D1*
X619766Y1264386D1*
Y1260584D1*
X621667Y1254835D1*
X625514Y1251033D1*
X629317Y1249087D1*
X635065D1*
X638911Y1251033D1*
X642714Y1254835D1*
X676112Y1270134D2*
X674211Y1273981D1*
X668463Y1275882D1*
X662715D1*
X656967Y1273981D1*
X655065Y1270134D1*
X656967Y1266332D1*
X660813Y1264386D1*
X670364Y1262485D1*
X674211Y1260584D1*
X676112Y1256737D1*
Y1254835D1*
X674211Y1251033D1*
X668463Y1249087D1*
X662715D1*
X656967Y1251033D1*
X655065Y1254835D1*
X688463Y1264386D2*
X711411D1*
Y1268233D1*
X709510Y1272080D1*
X707609Y1273981D1*
X703762Y1275882D1*
X698014D1*
X694211Y1273981D1*
X690365Y1270134D1*
X688463Y1264386D1*
Y1260584D1*
X690365Y1254835D1*
X694211Y1251033D1*
X698014Y1249087D1*
X703762D1*
X707609Y1251033D1*
X711411Y1254835D1*
X729511Y1289279D2*
Y1256737D1*
X731412Y1251033D1*
X735259Y1249087D1*
X739061D1*
X723763Y1275882D2*
X737160D1*
X770558Y1289279D2*
Y1258682D1*
X768657Y1252934D1*
X766711Y1251033D1*
X762909Y1249087D1*
X759062D1*
X755259Y1251033D1*
X753358Y1252934D1*
X751413Y1258682D1*
Y1262485D1*
X782909Y1275882D2*
Y1256737D1*
X784811Y1251033D1*
X788657Y1249087D1*
X794406D1*
X798208Y1251033D1*
X803956Y1256737D1*
Y1275882D2*
Y1249087D1*
X816307Y1275882D2*
Y1249087D1*
Y1268233D2*
X822056Y1273981D1*
X825902Y1275882D1*
X831606D1*
X835453Y1273981D1*
X837354Y1268233D1*
Y1249087D1*
Y1268233D2*
X843102Y1273981D1*
X846949Y1275882D1*
X852653D1*
X856499Y1273981D1*
X858445Y1268233D1*
Y1249087D1*
X870796Y1275882D2*
Y1235690D1*
Y1270134D2*
X874643Y1273937D1*
X878446Y1275882D1*
X884194D1*
X888040Y1273937D1*
X891843Y1270134D1*
X893789Y1264386D1*
Y1260539D1*
X891843Y1254835D1*
X888040Y1250989D1*
X884194Y1249087D1*
X878446D1*
X874643Y1250989D1*
X870796Y1254835D1*
X906140Y1264386D2*
X929088D1*
Y1268233D1*
X927187Y1272080D1*
X925285Y1273981D1*
X921439Y1275882D1*
X915690D1*
X911888Y1273981D1*
X908041Y1270134D1*
X906140Y1264386D1*
Y1260584D1*
X908041Y1254835D1*
X911888Y1251033D1*
X915690Y1249087D1*
X921439D1*
X925285Y1251033D1*
X929088Y1254835D1*
X941439Y1275882D2*
Y1249087D1*
Y1264386D2*
X943385Y1270134D1*
X947187Y1273981D1*
X951034Y1275882D1*
X956782D1*
X1863314Y1099449D2*
X1859511Y1097548D1*
X1855664Y1093701D1*
X1853763Y1089898D1*
Y1082249D1*
X1855664Y1078402D1*
X1859511Y1074600D1*
X1863314Y1072654D1*
X1869062Y1070753D1*
X1878656D1*
X1884360Y1072654D1*
X1888207Y1074600D1*
X1892010Y1078402D1*
X1893955Y1082249D1*
Y1089898D1*
X1892010Y1093701D1*
X1888207Y1097547D1*
X1884360Y1099449D1*
X1859511Y1134748D2*
X1855709Y1132847D1*
X1853807Y1127099D1*
Y1123296D1*
X1855709Y1117548D1*
X1861457Y1113701D1*
X1871007Y1111800D1*
X1880558D1*
X1888207Y1113701D1*
X1892054Y1117548D1*
X1893955Y1123296D1*
Y1125197D1*
X1892054Y1130901D1*
X1888207Y1134748D1*
X1882459Y1136649D1*
X1880558D1*
X1874810Y1134748D1*
X1871007Y1130901D1*
X1869106Y1125197D1*
Y1123296D1*
X1871007Y1117548D1*
X1874810Y1113701D1*
X1880558Y1111800D1*
X2263476Y870190D2*
X2261575Y873992D1*
X2257728Y877839D1*
X2253925Y879740D1*
X2246276D1*
X2242429Y877839D1*
X2238627Y873992D1*
X2236681Y870190D1*
X2234780Y864442D1*
Y854847D1*
X2236681Y849143D1*
X2238627Y845296D1*
X2242429Y841494D1*
X2246276Y839548D1*
X2253925D1*
X2257728Y841494D1*
X2261575Y845296D1*
X2263476Y849143D1*
X2283477Y839548D2*
X2302622Y879696D1*
X2275827D1*
X2394083Y932662D2*
X2411283D1*
X2417031Y934607D1*
X2418976Y936508D1*
X2420878Y940311D1*
Y944158D1*
X2418976Y947960D1*
X2417031Y949906D1*
X2411283Y951807D1*
X2394083D1*
Y911615D1*
X2407480Y932662D2*
X2420878Y911615D1*
X2458122Y938410D2*
X2456177Y932662D1*
X2452374Y928815D1*
X2446626Y926914D1*
X2444725D1*
X2438977Y928815D1*
X2435174Y932662D1*
X2433229Y938410D1*
Y940311D1*
X2435174Y946059D1*
X2438977Y949862D1*
X2444725Y951763D1*
X2446626D1*
X2452374Y949862D1*
X2456177Y946059D1*
X2458122Y938410D1*
Y928815D1*
X2456177Y919264D1*
X2452374Y913516D1*
X2446626Y911615D1*
X2442824D1*
X2437076Y913516D1*
X2435174Y917363D1*
X1863107Y939396D2*
X1891803D1*
X1897551Y941297D1*
X1901353Y945144D1*
X1903299Y950892D1*
Y954695D1*
X1901353Y960443D1*
X1897551Y964289D1*
X1891803Y966191D1*
X1863107D1*
X1872702Y980488D2*
X1870800D1*
X1866954Y982389D1*
X1865052Y984290D1*
X1863151Y988137D1*
Y995786D1*
X1865052Y999589D1*
X1866954Y1001490D1*
X1870800Y1003435D1*
X1874603D1*
X1878450Y1001490D1*
X1884153Y997687D1*
X1903299Y978542D1*
Y1005337D1*
X2191323Y934396D2*
X2220019D1*
X2225767Y936297D1*
X2229570Y940144D1*
X2231515Y945892D1*
Y949695D1*
X2229570Y955443D1*
X2225767Y959289D1*
X2220019Y961191D1*
X2191323D1*
X2191367Y977389D2*
Y998391D1*
X2206666Y986939D1*
Y992687D1*
X2208567Y996490D1*
X2210468Y998391D1*
X2216217Y1000337D1*
X2220019D1*
X2225767Y998391D1*
X2229614Y994589D1*
X2231515Y988841D1*
Y983093D1*
X2229614Y977389D1*
X2227668Y975488D1*
X2223866Y973542D1*
X739571Y458547D2*
D90*
X732386Y456170D1*
X727578Y448985D1*
X725201Y437047D1*
Y429862D1*
X727578Y417924D1*
X732386Y410738D1*
X739571Y408362D1*
X744324D1*
X751510Y410738D1*
X756263Y417924D1*
X758695Y429862D1*
Y437047D1*
X756263Y448985D1*
X751510Y456170D1*
X744324Y458547D1*
X739571D1*
X756263Y448985D2*
X727578Y417924D1*
X838701Y449485D2*
X843510Y451917D1*
X850695Y459047D1*
Y408862D1*
X931133Y442608D2*
Y444985D1*
X933510Y449793D1*
X935886Y452170D1*
X940695Y454547D1*
X950256D1*
X955010Y452170D1*
X957386Y449793D1*
X959818Y444985D1*
Y440232D1*
X957386Y435423D1*
X952633Y428294D1*
X928701Y404362D1*
X962195D1*
X1153241Y406754D2*
D91*
Y456938D1*
X1129309Y423500D1*
X1165179D1*
X1259494Y456938D2*
X1235618D1*
X1233241Y435439D1*
X1235618Y437815D1*
X1242803Y440247D1*
X1249933D1*
X1257118Y437815D1*
X1261926Y433062D1*
X1264303Y425877D1*
Y421124D1*
X1261926Y413939D1*
X1257118Y409130D1*
X1249933Y406754D1*
X1242803D1*
X1235618Y409130D1*
X1233241Y411562D1*
X1230809Y416315D1*
X1357994Y449809D2*
X1355618Y454562D1*
X1348433Y456938D1*
X1343680D1*
X1336495Y454562D1*
X1331686Y447377D1*
X1329309Y435439D1*
Y423500D1*
X1331686Y413939D1*
X1336495Y409130D1*
X1343680Y406754D1*
X1346056D1*
X1353186Y409130D1*
X1357994Y413939D1*
X1360371Y421124D1*
Y423500D1*
X1357994Y430685D1*
X1353186Y435439D1*
X1346056Y437815D1*
X1343680D1*
X1336495Y435439D1*
X1331686Y430685D1*
X1329309Y423500D1*
X1437763Y404362D2*
D90*
X1461695Y454547D1*
X1428201D1*
X1035618Y453938D2*
D91*
X1061871D1*
X1047556Y434815D1*
X1054741D1*
X1059494Y432439D1*
X1061871Y430062D1*
X1064303Y422877D1*
Y418124D1*
X1061871Y410939D1*
X1057118Y406130D1*
X1049933Y403754D1*
X1042748D1*
X1035618Y406130D1*
X1033241Y408562D1*
X1030809Y413315D1*
X1536639Y454547D2*
D90*
X1529510Y452170D1*
X1527078Y447417D1*
Y442608D1*
X1529510Y437855D1*
X1534263Y435423D1*
X1543824Y433047D1*
X1551010Y430670D1*
X1555763Y425862D1*
X1558139Y421109D1*
Y413924D1*
X1555763Y409170D1*
X1553386Y406738D1*
X1546201Y404362D1*
X1536639D1*
X1529510Y406738D1*
X1527078Y409170D1*
X1524701Y413924D1*
Y421109D1*
X1527078Y425862D1*
X1531886Y430670D1*
X1539016Y433047D1*
X1548578Y435423D1*
X1553386Y437855D1*
X1555763Y442608D1*
Y447417D1*
X1553386Y452170D1*
X1546201Y454547D1*
X1536639D1*
X1661426Y435247D2*
D91*
X1658994Y428062D1*
X1654241Y423253D1*
X1647056Y420877D1*
X1644680D1*
X1637495Y423253D1*
X1632741Y428062D1*
X1630309Y435247D1*
Y437624D1*
X1632741Y444809D1*
X1637495Y449562D1*
X1644680Y451938D1*
X1647056D1*
X1654241Y449562D1*
X1658994Y444809D1*
X1661426Y435247D1*
Y423253D1*
X1658994Y411315D1*
X1654241Y404130D1*
X1647056Y401754D1*
X1642303D1*
X1635118Y404130D1*
X1632741Y408939D1*
X1713809Y442877D2*
X1718618Y445309D1*
X1725803Y452438D1*
Y402254D1*
X1762045Y452438D2*
X1754860Y450062D1*
X1750052Y442877D1*
X1747675Y430939D1*
Y423753D1*
X1750052Y411815D1*
X1754860Y404630D1*
X1762045Y402254D1*
X1766798D1*
X1773984Y404630D1*
X1778737Y411815D1*
X1781169Y423753D1*
Y430939D1*
X1778737Y442877D1*
X1773984Y450062D1*
X1766798Y452438D1*
X1762045D1*
X1778737Y442877D2*
X1750052Y411815D1*
X1825201Y443985D2*
D90*
X1830010Y446417D1*
X1837195Y453547D1*
Y403362D1*
X1852634Y443985D2*
X1857442Y446417D1*
X1864627Y453547D1*
Y403362D1*
X1913701Y443485D2*
X1918510Y445917D1*
X1925695Y453047D1*
Y402862D1*
X1943566Y441108D2*
Y443485D1*
X1945942Y448293D1*
X1948319Y450670D1*
X1953127Y453047D1*
X1962689D1*
X1967442Y450670D1*
X1969819Y448293D1*
X1972251Y443485D1*
Y438732D1*
X1969819Y433923D1*
X1965066Y426794D1*
X1941134Y402862D1*
X1974627D1*
X2012701Y444985D2*
X2017510Y447417D1*
X2024695Y454547D1*
Y404362D1*
X2044942Y454547D2*
X2071195D1*
X2056881Y435423D1*
X2064066D1*
X2068819Y433047D1*
X2071195Y430670D1*
X2073627Y423485D1*
Y418732D1*
X2071195Y411547D1*
X2066442Y406738D1*
X2059257Y404362D1*
X2052072D1*
X2044942Y406738D1*
X2042566Y409170D1*
X2040134Y413924D1*
X1744436Y1968454D2*
X1739627Y1966022D1*
X1732442Y1958892D1*
Y2009077D1*
X1657004Y1970830D2*
Y1968454D1*
X1654627Y1963645D1*
X1652251Y1961269D1*
X1647442Y1958892D1*
X1637880D1*
X1633127Y1961269D1*
X1630751Y1963645D1*
X1628319Y1968454D1*
Y1973207D1*
X1630751Y1978015D1*
X1635504Y1985145D1*
X1659436Y2009077D1*
X1625942D1*
X1554627Y1958892D2*
X1528374D1*
X1542689Y1978015D1*
X1535504D1*
X1530751Y1980392D1*
X1528374Y1982769D1*
X1525942Y1989954D1*
Y1994707D1*
X1528374Y2001892D1*
X1533127Y2006700D1*
X1540312Y2009077D1*
X1547497D1*
X1554627Y2006700D1*
X1557004Y2004268D1*
X1559436Y1999515D1*
X1440504Y2009077D2*
Y1958892D1*
X1464436Y1992330D1*
X1428566D1*
X1330751Y1958892D2*
X1354627D1*
X1357004Y1980392D1*
X1354627Y1978015D1*
X1347442Y1975584D1*
X1340312D1*
X1333127Y1978015D1*
X1328319Y1982769D1*
X1325942Y1989954D1*
Y1994707D1*
X1328319Y2001892D1*
X1333127Y2006700D1*
X1340312Y2009077D1*
X1347442D1*
X1354627Y2006700D1*
X1357004Y2004268D1*
X1359436Y1999515D1*
X1856134Y2009077D2*
X1875312Y1958837D1*
X1894436Y2009077D1*
X1887251Y1992330D2*
X1863319D1*
X1826324Y1958892D2*
X1833510Y1961269D1*
X1838318Y1968454D1*
X1840695Y1980392D1*
Y1987577D1*
X1838318Y1999515D1*
X1833510Y2006700D1*
X1826325Y2009077D1*
X1821571D1*
X1814386Y2006700D1*
X1809633Y1999515D1*
X1807201Y1987577D1*
Y1980392D1*
X1809633Y1968454D1*
X1814386Y1961269D1*
X1821571Y1958892D1*
X1826324D1*
X1809633Y1968454D2*
X1838318Y1999515D1*
X1226751Y1965022D2*
X1229127Y1960269D1*
X1236312Y1957892D1*
X1241065D1*
X1248251Y1960269D1*
X1253059Y1967454D1*
X1255436Y1979392D1*
Y1991330D1*
X1253059Y2000892D1*
X1248251Y2005700D1*
X1241066Y2008077D1*
X1238689D1*
X1231559Y2005700D1*
X1226751Y2000892D1*
X1224374Y1993707D1*
Y1991330D1*
X1226751Y1984145D1*
X1231559Y1979392D1*
X1238689Y1977015D1*
X1241065D1*
X1248251Y1979392D1*
X1253059Y1984145D1*
X1255436Y1991330D1*
X1140874Y2013077D2*
X1116942Y1962892D1*
X1150436D1*
X1048497Y1957892D2*
X1055627Y1960269D1*
X1058059Y1965022D1*
Y1969830D1*
X1055627Y1974584D1*
X1050874Y1977015D1*
X1041312Y1979392D1*
X1034127Y1981769D1*
X1029374Y1986577D1*
X1026998Y1991330D1*
Y1998515D1*
X1029374Y2003268D1*
X1031751Y2005700D1*
X1038936Y2008077D1*
X1048497D1*
X1055627Y2005700D1*
X1058059Y2003268D1*
X1060436Y1998515D1*
Y1991330D1*
X1058059Y1986577D1*
X1053251Y1981769D1*
X1046121Y1979392D1*
X1036559Y1977015D1*
X1031751Y1974584D1*
X1029374Y1969830D1*
Y1965022D1*
X1031751Y1960269D1*
X1038936Y1957892D1*
X1048497D1*
X919319Y1974584D2*
X921751Y1981769D1*
X926504Y1986577D1*
X933689Y1988954D1*
X936065D1*
X943251Y1986577D1*
X948004Y1981769D1*
X950436Y1974584D1*
Y1972207D1*
X948004Y1965022D1*
X943251Y1960269D1*
X936065Y1957892D1*
X933689D1*
X926504Y1960269D1*
X921751Y1965022D1*
X919319Y1974584D1*
Y1986577D1*
X921751Y1998515D1*
X926504Y2005700D1*
X933689Y2008077D1*
X938442D1*
X945627Y2005700D1*
X948004Y2000892D1*
X870436Y1967454D2*
X865627Y1965022D1*
X858442Y1957892D1*
Y2008077D1*
X828633Y1957892D2*
X835818Y1960269D1*
X840626Y1967454D1*
X843003Y1979392D1*
Y1986577D1*
X840626Y1998515D1*
X835818Y2005700D1*
X828633Y2008077D1*
X823880D1*
X816695Y2005700D1*
X811941Y1998515D1*
X809510Y1986577D1*
Y1979392D1*
X811941Y1967454D1*
X816695Y1960269D1*
X823880Y1957892D1*
X828633D1*
X811941Y1967454D2*
X840626Y1998515D1*
X760436Y1967454D2*
X755627Y1965022D1*
X748442Y1957892D1*
Y2008077D1*
X733003Y1967454D2*
X728194Y1965022D1*
X721009Y1957892D1*
Y2008077D1*
X1996979Y1961053D2*
D92*
Y1991197D1*
X1986932D1*
X1982621Y1989738D1*
X1979735Y1986886D1*
X1978309Y1984001D1*
X1976884Y1979723D1*
Y1972527D1*
X1978309Y1968216D1*
X1979735Y1965364D1*
X1982620Y1962479D1*
X1986931Y1961053D1*
X1996979D1*
X1944639Y1991197D2*
X1956146Y1961053D1*
X1967620Y1991197D1*
X1963309Y1981149D2*
X1948950D1*
X1913853Y1968216D2*
X1915279Y1965364D1*
X1918164Y1962479D1*
X1921016Y1961053D1*
X1926753D1*
X1929638Y1962479D1*
X1932490Y1965364D1*
X1933949Y1968216D1*
X1935375Y1972527D1*
Y1979723D1*
X1933949Y1984001D1*
X1932490Y1986886D1*
X1929638Y1989738D1*
X1926753Y1991197D1*
X1921016D1*
X1918164Y1989738D1*
X1915279Y1986886D1*
X1913853Y1984001D1*
X1276975Y1595327D2*
D93*
Y1593425D1*
X1275074Y1589578D1*
X1273173Y1587677D1*
X1269326Y1585776D1*
X1261677D1*
X1257874Y1587677D1*
X1255973Y1589579D1*
X1254028Y1593425D1*
Y1597228D1*
X1255973Y1601075D1*
X1259776Y1606778D1*
X1278921Y1625924D1*
X1252126D1*
X1223132Y1585776D2*
X1228880Y1587677D1*
X1232727Y1593425D1*
X1234628Y1602976D1*
X1234629Y1608724D1*
X1232727Y1618274D1*
X1228881Y1624022D1*
X1223132Y1625924D1*
X1219330D1*
X1213582Y1624022D1*
X1209779Y1618274D1*
X1207834Y1608724D1*
Y1602976D1*
X1209779Y1593425D1*
X1213582Y1587677D1*
X1219330Y1585776D1*
X1223132D1*
X1209779Y1593425D2*
X1232727Y1618274D1*
X1161975Y1595327D2*
Y1593425D1*
X1160074Y1589578D1*
X1158173Y1587677D1*
X1154326Y1585776D1*
X1146677D1*
X1142874Y1587677D1*
X1140973Y1589579D1*
X1139028Y1593425D1*
Y1597228D1*
X1140973Y1601075D1*
X1144776Y1606778D1*
X1163921Y1625924D1*
X1137126D1*
X1119628Y1593425D2*
X1115782Y1591480D1*
X1110034Y1585776D1*
Y1625924D1*
X1073975Y1595327D2*
Y1593425D1*
X1072074Y1589578D1*
X1070173Y1587677D1*
X1066326Y1585776D1*
X1058677D1*
X1054874Y1587677D1*
X1052973Y1589579D1*
X1051028Y1593425D1*
Y1597228D1*
X1052973Y1601075D1*
X1056776Y1606778D1*
X1075921Y1625924D1*
X1049126D1*
X1029683Y1595327D2*
Y1593425D1*
X1027782Y1589579D1*
X1025880Y1587677D1*
X1022034Y1585776D1*
X1014384D1*
X1010582Y1587677D1*
X1008681Y1589579D1*
X1006735Y1593425D1*
Y1597228D1*
X1008681Y1601075D1*
X1012483Y1606778D1*
X1031629Y1625924D1*
X1004834D1*
X974975Y1595327D2*
Y1593425D1*
X973074Y1589578D1*
X971173Y1587677D1*
X967326Y1585776D1*
X959677D1*
X955874Y1587677D1*
X953973Y1589579D1*
X952028Y1593425D1*
Y1597228D1*
X953973Y1601075D1*
X957776Y1606778D1*
X976921Y1625924D1*
X950126D1*
X928782Y1585776D2*
X907779D1*
X919231Y1601075D1*
X913483D1*
X909681Y1602976D1*
X907779Y1604877D1*
X905834Y1610625D1*
Y1614428D1*
X907779Y1620176D1*
X911582Y1624022D1*
X917330Y1625924D1*
X923078D1*
X928782Y1624022D1*
X930683Y1622077D1*
X932629Y1618274D1*
X1368921Y1594425D2*
X1365074Y1592480D1*
X1359326Y1586776D1*
Y1626924D1*
X1316935Y1600129D2*
X1318880Y1605877D1*
X1322683Y1609724D1*
X1328431Y1611625D1*
X1330332D1*
X1336080Y1609724D1*
X1339883Y1605877D1*
X1341828Y1600129D1*
Y1598228D1*
X1339883Y1592480D1*
X1336080Y1588677D1*
X1330332Y1586776D1*
X1328431D1*
X1322683Y1588677D1*
X1318880Y1592480D1*
X1316935Y1600129D1*
Y1609724D1*
X1318880Y1619274D1*
X1322683Y1625022D1*
X1328431Y1626924D1*
X1332234D1*
X1337982Y1625023D1*
X1339883Y1621176D1*
X1569921Y1597425D2*
X1566074Y1595480D1*
X1560326Y1589776D1*
Y1629924D1*
X1535179D2*
X1516034Y1589776D1*
X1542828D1*
X1472921Y1596425D2*
X1469074Y1594480D1*
X1463326Y1588776D1*
Y1628924D1*
X1436278Y1588776D2*
X1441982Y1590677D1*
X1443927Y1594480D1*
Y1598327D1*
X1441982Y1602129D1*
X1438179Y1604075D1*
X1430530Y1605976D1*
X1424782Y1607877D1*
X1420979Y1611724D1*
X1419078Y1615526D1*
Y1621274D1*
X1420979Y1625077D1*
X1422881Y1627022D1*
X1428629Y1628924D1*
X1436278D1*
X1441982Y1627023D1*
X1443927Y1625077D1*
X1445828Y1621274D1*
Y1615526D1*
X1443927Y1611724D1*
X1440080Y1607877D1*
X1434377Y1605976D1*
X1426727Y1604075D1*
X1422880Y1602129D1*
X1420979Y1598327D1*
Y1594480D1*
X1422880Y1590677D1*
X1428628Y1588776D1*
X1436278D1*
X2789502Y1543333D2*
D94*
Y1576495D1*
X2811864Y983573D2*
Y1035239D1*
X2837664Y1009439D2*
X2785998D1*
X2048546Y1075098D2*
D92*
X2070067D1*
X2074378Y1076524D1*
X2077230Y1079409D1*
X2078690Y1083720D1*
Y1086572D1*
X2077230Y1090883D1*
X2074379Y1093768D1*
X2070068Y1095194D1*
X2048546D1*
X2052857Y1124554D2*
X2049972Y1121702D1*
X2048546Y1117391D1*
Y1111654D1*
X2049972Y1107343D1*
X2052857Y1104458D1*
X2055709D1*
X2058594Y1105917D1*
X2060020Y1107343D1*
X2061445Y1110195D1*
X2064331Y1118817D1*
X2065756Y1121702D1*
X2067216Y1123128D1*
X2070068Y1124554D1*
X2074379D1*
X2077230Y1121702D1*
X2078690Y1117391D1*
Y1111654D1*
X2077230Y1107343D1*
X2074379Y1104458D1*
X2048546Y1133817D2*
X2078690D1*
Y1146750D1*
X2077230Y1151061D1*
X2075804Y1152487D1*
X2072953Y1153913D1*
X2068642D1*
X2065756Y1152487D1*
X2064331Y1151061D1*
X2062905Y1146750D1*
X2061445Y1151061D1*
X2060020Y1152487D1*
X2057168Y1153913D1*
X2054283D1*
X2051431Y1152487D1*
X2049972Y1151061D1*
X2048546Y1146750D1*
Y1133817D1*
X2062905D2*
Y1146750D1*
X2050064Y1293720D2*
X2080208Y1305194D1*
X2050064Y1316668D1*
Y1325932D2*
X2080208D1*
X2050064Y1355291D2*
X2080208D1*
X2050064Y1335195D1*
X2080208D1*
X2233792Y1087740D2*
Y1100673D1*
X2232367Y1104951D1*
X2230907Y1106410D1*
X2228056Y1107836D1*
X2223744D1*
X2220893Y1106410D1*
X2219433Y1104951D1*
X2218007Y1100673D1*
Y1087740D1*
X2248151D1*
X2228056Y1124263D2*
X2229481Y1121411D1*
X2232367Y1118526D1*
X2236678Y1117100D1*
X2239529D1*
X2243840Y1118526D1*
X2246692Y1121411D1*
X2248151Y1124262D1*
Y1128573D1*
X2246692Y1131459D1*
X2243840Y1134310D1*
X2239529Y1135770D1*
X2236678D1*
X2232367Y1134311D1*
X2229481Y1131459D1*
X2228056Y1128574D1*
Y1124263D1*
Y1145033D2*
X2248151Y1150770D1*
X2228055Y1156507D1*
X2248151Y1162244D1*
X2228055Y1167981D1*
X2236678Y1177245D2*
Y1194456D1*
X2233792D1*
X2230907Y1193030D1*
X2229481Y1191604D1*
X2228055Y1188719D1*
Y1184408D1*
X2229481Y1181556D1*
X2232367Y1178671D1*
X2236678Y1177245D1*
X2239529D1*
X2243840Y1178671D1*
X2246692Y1181556D1*
X2248151Y1184408D1*
Y1188719D1*
X2246692Y1191604D1*
X2243840Y1194456D1*
X2228055Y1203719D2*
X2248151D1*
X2236678D2*
X2232367Y1205178D1*
X2229481Y1208030D1*
X2228055Y1210915D1*
Y1215226D1*
X2222318Y1273746D2*
X2219433Y1270894D1*
X2218007Y1266583D1*
Y1260846D1*
X2219433Y1256535D1*
X2222318Y1253650D1*
X2225170D1*
X2228055Y1255109D1*
X2229481Y1256535D1*
X2230907Y1259387D1*
X2233792Y1268009D1*
X2235218Y1270894D1*
X2236678Y1272320D1*
X2239529Y1273746D1*
X2243840D1*
X2246692Y1270894D1*
X2248151Y1266583D1*
Y1260846D1*
X2246692Y1256535D1*
X2243840Y1253650D1*
X2236678Y1283010D2*
Y1300221D1*
X2233792D1*
X2230907Y1298795D1*
X2229481Y1297369D1*
X2228055Y1294484D1*
Y1290173D1*
X2229481Y1287321D1*
X2232366Y1284436D1*
X2236678Y1283010D1*
X2239529D1*
X2243840Y1284436D1*
X2246692Y1287321D1*
X2248151Y1290173D1*
Y1294484D1*
X2246692Y1297369D1*
X2243840Y1300221D1*
X2218007Y1309484D2*
X2248151D1*
X2236678Y1318748D2*
Y1335959D1*
X2233792D1*
X2230907Y1334533D1*
X2229481Y1333107D1*
X2228055Y1330222D1*
Y1325911D1*
X2229481Y1323059D1*
X2232366Y1320174D1*
X2236678Y1318748D1*
X2239529D1*
X2243840Y1320174D1*
X2246692Y1323059D1*
X2248151Y1325911D1*
Y1330222D1*
X2246692Y1333107D1*
X2243840Y1335959D1*
X2232366Y1362466D2*
X2229481Y1359581D1*
X2228055Y1356696D1*
Y1352418D1*
X2229481Y1349533D1*
X2232366Y1346681D1*
X2236678Y1345222D1*
X2239529D1*
X2243840Y1346681D1*
X2246692Y1349533D1*
X2248151Y1352418D1*
Y1356696D1*
X2246692Y1359581D1*
X2243840Y1362466D1*
X2218007Y1376041D2*
X2242414D1*
X2246692Y1377467D1*
X2248151Y1380352D1*
Y1383204D1*
X2228055Y1371730D2*
Y1381778D1*
X1516955Y811135D2*
Y780991D1*
X1506907Y811135D2*
X1527003D1*
X1536266D2*
X1556362Y780991D1*
Y811135D2*
X1536266Y780991D1*
X1568511Y811102D2*
X1584263D1*
X1575674Y799628D1*
X1579985D1*
X1582837Y798202D1*
X1584263Y796776D1*
X1585722Y792465D1*
Y789613D1*
X1584263Y785302D1*
X1581411Y782417D1*
X1577100Y780991D1*
X1572789D1*
X1568511Y782417D1*
X1567085Y783876D1*
X1565626Y786728D1*
X1601348Y802924D2*
X1614248D1*
X1618559Y804383D1*
X1620018Y805809D1*
X1621444Y808661D1*
Y811546D1*
X1620018Y814398D1*
X1618559Y815857D1*
X1614248Y817283D1*
X1601348D1*
Y787139D1*
X1611396Y802924D2*
X1621444Y787139D1*
X1630707Y817283D2*
X1650803Y787139D1*
Y817283D2*
X1630707Y787139D1*
X1661526Y810087D2*
Y811513D1*
X1662952Y814398D1*
X1664378Y815824D1*
X1667263Y817250D1*
X1673000D1*
X1675852Y815824D1*
X1677278Y814398D1*
X1678737Y811513D1*
Y808661D1*
X1677278Y805776D1*
X1674426Y801498D1*
X1660067Y787139D1*
X1680163D1*
X1713734Y818283D2*
Y788139D1*
X1703686Y818283D2*
X1723782D1*
X1733046D2*
X1753142Y788139D1*
Y818283D2*
X1733046Y788139D1*
X1763864Y811087D2*
Y812513D1*
X1765290Y815398D1*
X1766716Y816824D1*
X1769601Y818250D1*
X1775338D1*
X1778190Y816824D1*
X1779616Y815398D1*
X1781075Y812513D1*
Y809661D1*
X1779616Y806776D1*
X1776764Y802498D1*
X1762405Y788139D1*
X1782501D1*
X1402686Y799924D2*
X1415586D1*
X1419897Y801383D1*
X1421356Y802809D1*
X1422782Y805661D1*
Y808546D1*
X1421356Y811398D1*
X1419897Y812857D1*
X1415586Y814283D1*
X1402686D1*
Y784139D1*
X1412734Y799924D2*
X1422782Y784139D1*
X1432046Y814283D2*
X1452142Y784139D1*
Y814283D2*
X1432046Y784139D1*
X1464290Y814250D2*
X1480042D1*
X1471453Y802776D1*
X1475764D1*
X1478616Y801350D1*
X1480042Y799924D1*
X1481501Y795613D1*
Y792761D1*
X1480042Y788450D1*
X1477190Y785565D1*
X1472879Y784139D1*
X1468568D1*
X1464290Y785565D1*
X1462864Y787024D1*
X1461405Y789876D1*
X1824150Y785623D2*
Y815767D1*
X1812676Y785623D1*
X1801202Y815767D1*
Y785623D1*
X1842035Y815767D2*
X1839150Y814341D1*
X1836298Y811456D1*
X1834839Y808604D1*
X1833413Y804293D1*
Y797097D1*
X1834839Y792819D1*
X1836298Y789934D1*
X1839150Y787082D1*
X1842035Y785623D1*
X1847772D1*
X1850624Y787082D1*
X1853509Y789934D1*
X1854935Y792819D1*
X1856361Y797097D1*
Y804293D1*
X1854935Y808604D1*
X1853509Y811456D1*
X1850624Y814341D1*
X1847772Y815767D1*
X1842035D1*
X1885721Y811456D2*
X1882869Y814341D1*
X1878558Y815767D1*
X1872821D1*
X1868510Y814341D1*
X1865625Y811456D1*
Y808604D1*
X1867084Y805719D1*
X1868510Y804293D1*
X1871362Y802867D1*
X1879984Y799982D1*
X1882869Y798556D1*
X1884295Y797097D1*
X1885721Y794245D1*
Y789934D1*
X1882869Y787082D1*
X1878558Y785623D1*
X1872821D1*
X1868510Y787082D1*
X1865625Y789934D1*
X1894984Y815767D2*
Y785623D1*
X1961359Y804944D2*
X1931215D1*
X1961359Y793470D1*
X1931215Y781996D1*
X1961359D1*
X1931215Y814207D2*
X1961359D1*
X1935526Y843567D2*
X1932641Y840715D1*
X1931215Y836404D1*
Y830667D1*
X1932641Y826356D1*
X1935526Y823471D1*
X1938378D1*
X1941263Y824930D1*
X1942689Y826356D1*
X1944115Y829208D1*
X1947000Y837830D1*
X1948426Y840715D1*
X1949885Y842141D1*
X1952737Y843567D1*
X1957048D1*
X1959900Y840715D1*
X1961359Y836404D1*
Y830667D1*
X1959900Y826356D1*
X1957048Y823471D1*
X1931215Y861453D2*
X1932641Y858567D1*
X1935526Y855716D1*
X1938378Y854256D1*
X1942689Y852830D1*
X1949885D1*
X1954163Y854256D1*
X1957048Y855716D1*
X1959900Y858567D1*
X1961359Y861452D1*
Y867189D1*
X1959900Y870041D1*
X1957048Y872926D1*
X1954163Y874352D1*
X1949885Y875778D1*
X1942689D1*
X1938378Y874352D1*
X1935526Y872926D1*
X1932641Y870041D1*
X1931215Y867189D1*
Y861453D1*
X2030526Y802092D2*
X2027641Y799240D1*
X2026215Y794929D1*
Y789192D1*
X2027641Y784881D1*
X2030526Y781996D1*
X2033378D1*
X2036263Y783455D1*
X2037689Y784881D1*
X2039115Y787733D1*
X2042000Y796355D1*
X2043426Y799240D1*
X2044885Y800666D1*
X2047737Y802092D1*
X2052048D1*
X2054900Y799240D1*
X2056359Y794929D1*
Y789192D1*
X2054900Y784881D1*
X2052048Y781996D1*
X2033378Y832877D2*
X2030526Y831451D1*
X2027641Y828566D1*
X2026215Y825715D1*
Y819978D1*
X2027641Y817092D1*
X2030526Y814241D1*
X2033378Y812781D1*
X2037689Y811356D1*
X2044885Y811355D1*
X2049163Y812781D1*
X2052048Y814241D1*
X2054900Y817092D1*
X2056359Y819977D1*
Y825714D1*
X2054900Y828566D1*
X2052048Y831451D1*
X2049163Y832877D1*
X2026215Y842141D2*
X2056359D1*
Y859352D1*
X2026215Y868615D2*
X2056359D1*
X2026215Y888711D2*
X2046311Y868615D1*
X2039115Y875778D2*
X2056359Y888711D1*
X709136Y803474D2*
X722036D1*
X726347Y804933D1*
X727806Y806359D1*
X729232Y809211D1*
Y812096D1*
X727806Y814948D1*
X726347Y816407D1*
X722036Y817833D1*
X709136D1*
Y787689D1*
X719184Y803474D2*
X729232Y787689D1*
X738496Y817833D2*
X758592Y787689D1*
Y817833D2*
X738496Y787689D1*
X767855Y812063D2*
X770740Y813522D1*
X775052Y817800D1*
Y787689D1*
X638744Y543914D2*
D90*
X681799D1*
X660300Y522414D2*
Y565469D1*
X635180Y609593D2*
Y585717D1*
X656679Y583340D1*
X654303Y585717D1*
X651871Y592902D1*
Y600031D1*
X654303Y607216D1*
X659056Y612025D1*
X666241Y614401D1*
X670994D1*
X678179Y612025D1*
X682988Y607216D1*
X685364Y600031D1*
Y592902D1*
X682988Y585717D1*
X680556Y583340D1*
X675803Y580908D1*
X651871Y629841D2*
X685364Y644211D1*
X651871Y658526D1*
X633335Y1709323D2*
X676390D1*
X654890Y1687823D2*
Y1730878D1*
X629770Y1751126D2*
Y1777379D1*
X648893Y1763064D1*
Y1770249D1*
X651270Y1775002D1*
X653647Y1777379D1*
X660832Y1779811D1*
X665585D1*
X672770Y1777379D1*
X677578Y1772626D1*
X679955Y1765441D1*
Y1758256D1*
X677578Y1751126D1*
X675146Y1748749D1*
X670393Y1746318D1*
X675146Y1797627D2*
X677578Y1795250D1*
X679955Y1797627D1*
X677578Y1800059D1*
X675146Y1797627D1*
X629770Y1820306D2*
Y1846559D1*
X648893Y1832244D1*
Y1839429D1*
X651270Y1844183D1*
X653647Y1846559D1*
X660832Y1848991D1*
X665585D1*
X672770Y1846559D1*
X677578Y1841806D1*
X679955Y1834621D1*
Y1827436D1*
X677578Y1820306D1*
X675146Y1817930D1*
X670393Y1815498D1*
X646462Y1864430D2*
X679955Y1878800D1*
X646462Y1893115D1*
X908969Y1174519D2*
D89*
Y1134327D1*
X935763Y1174519D2*
X908969Y1147724D1*
X918519Y1157319D2*
X935763Y1134327D1*
X948115Y1161121D2*
Y1141976D1*
X950016Y1136272D1*
X953863Y1134327D1*
X959611D1*
X963413Y1136272D1*
X969161Y1141976D1*
Y1161121D2*
Y1134327D1*
X981513Y1161121D2*
Y1134327D1*
Y1149625D2*
X983458Y1155373D1*
X987261Y1159220D1*
X991108Y1161121D1*
X996856D1*
X1014955Y1174519D2*
Y1141976D1*
X1016856Y1136272D1*
X1020703Y1134327D1*
X1024506D1*
X1009207Y1161121D2*
X1022604D1*
X1046452Y1174474D2*
X1036857Y1162978D1*
X1048353Y1172573D1*
X1046452Y1174474D1*
X1081751Y1155373D2*
X1079850Y1159220D1*
X1074102Y1161121D1*
X1068354D1*
X1062606Y1159220D1*
X1060704Y1155373D1*
X1062606Y1151571D1*
X1066452Y1149625D1*
X1076003Y1147724D1*
X1079850Y1145823D1*
X1081751Y1141976D1*
Y1140075D1*
X1079850Y1136272D1*
X1074102Y1134327D1*
X1068354D1*
X1062606Y1136272D1*
X1060704Y1140075D1*
X1163625Y1134327D2*
X1148282Y1174519D1*
X1132983Y1134327D1*
X1138731Y1147724D2*
X1157877D1*
X1175976Y1161121D2*
Y1134327D1*
Y1149625D2*
X1177922Y1155373D1*
X1181724Y1159220D1*
X1185571Y1161121D1*
X1191319D1*
X1203670Y1174519D2*
Y1134327D1*
Y1155373D2*
X1207517Y1159220D1*
X1211320Y1161121D1*
X1217068D1*
X1220870Y1159220D1*
X1224717Y1155373D1*
X1226618Y1149625D1*
Y1145823D1*
X1224717Y1140075D1*
X1220870Y1136272D1*
X1217068Y1134327D1*
X1211320D1*
X1207517Y1136272D1*
X1203670Y1140075D1*
X1248520Y1161121D2*
X1244718Y1159220D1*
X1240871Y1155373D1*
X1238970Y1149625D1*
Y1145823D1*
X1240871Y1140075D1*
X1244718Y1136272D1*
X1248520Y1134327D1*
X1254268D1*
X1258115Y1136272D1*
X1261917Y1140075D1*
X1263863Y1145823D1*
Y1149625D1*
X1261917Y1155373D1*
X1258115Y1159220D1*
X1254268Y1161121D1*
X1248520D1*
X1281962Y1174519D2*
Y1141976D1*
X1283864Y1136272D1*
X1287710Y1134327D1*
X1291513D1*
X1276214Y1161121D2*
X1289612D1*
X1303864Y1174519D2*
X1305766Y1172617D1*
X1307711Y1174519D1*
X1305766Y1176464D1*
X1303864Y1174519D1*
X1305766Y1161121D2*
Y1134327D1*
X1320063Y1161121D2*
X1341109Y1134327D1*
Y1161121D2*
X1320063Y1134327D1*
X1422939D2*
Y1174519D1*
X1407640Y1134327D1*
X1392341Y1174519D1*
Y1134327D1*
X1435290Y1174519D2*
X1437191Y1172617D1*
X1439137Y1174519D1*
X1437191Y1176464D1*
X1435290Y1174519D1*
X1437191Y1161121D2*
Y1134327D1*
X1451488Y1161121D2*
Y1134327D1*
Y1153472D2*
X1457236Y1159220D1*
X1461083Y1161121D1*
X1466787D1*
X1470633Y1159220D1*
X1472535Y1153472D1*
Y1134327D1*
X1484886Y1174519D2*
X1486787Y1172617D1*
X1488733Y1174519D1*
X1486787Y1176464D1*
X1484886Y1174519D1*
X1486787Y1161121D2*
Y1134327D1*
X1669921Y1597425D2*
D93*
X1666074Y1595480D1*
X1660326Y1589776D1*
Y1629924D1*
X1619880Y1595480D2*
X1621782Y1591677D1*
X1627530Y1589776D1*
X1631332D1*
X1637080Y1591677D1*
X1640927Y1597425D1*
X1642828Y1606976D1*
Y1616526D1*
X1640927Y1624176D1*
X1637080Y1628023D1*
X1631332Y1629924D1*
X1629431D1*
X1623727Y1628022D1*
X1619881Y1624176D1*
X1617979Y1618428D1*
Y1616526D1*
X1619880Y1610778D1*
X1623727Y1606976D1*
X1629431Y1605075D1*
X1631332D1*
X1637080Y1606976D1*
X1640927Y1610778D1*
X1642828Y1616526D1*
X1769921Y1597425D2*
X1766074Y1595480D1*
X1760326Y1589776D1*
Y1629924D1*
X1719880Y1589776D2*
X1738982D1*
X1740883Y1606976D1*
X1738982Y1605075D1*
X1733234Y1603129D1*
X1727530D1*
X1721782Y1605075D1*
X1717935Y1608877D1*
X1716034Y1614625D1*
Y1618428D1*
X1717935Y1624176D1*
X1721782Y1628022D1*
X1727530Y1629924D1*
X1733234D1*
X1738982Y1628023D1*
X1740883Y1626077D1*
X1742828Y1622274D1*
X1880904Y1601105D2*
X1877057Y1599160D1*
X1871309Y1593456D1*
Y1633604D1*
X1834666D2*
Y1593456D1*
X1853811Y1620206D1*
X1825115D1*
X814184Y817833D2*
D92*
Y787689D1*
X804136Y817833D2*
X824232D1*
X833496D2*
X853592Y787689D1*
Y817833D2*
X833496Y787689D1*
X862855Y812063D2*
X865740Y813522D1*
X870052Y817800D1*
Y787689D1*
X919136Y812833D2*
Y782689D1*
X929184D1*
X933495Y784148D1*
X936380Y787000D1*
X937806Y789885D1*
X939232Y794163D1*
Y801359D1*
X937806Y805670D1*
X936380Y808522D1*
X933495Y811407D1*
X929184Y812833D1*
X919136D1*
X948496D2*
X949922Y811407D1*
X951381Y812833D1*
X949922Y814292D1*
X948496Y812833D1*
X949922Y802785D2*
Y782689D1*
X960644Y802785D2*
Y782689D1*
Y794163D2*
X962104Y798474D1*
X964956Y801359D1*
X967841Y802785D1*
X972152D1*
X845818Y1603501D2*
D95*
Y1620712D1*
X853015Y1607779D2*
X838656Y1616401D1*
Y1607779D2*
X853015Y1616401D1*
X822647Y1597052D2*
X806895D1*
X815484Y1608526D1*
X811173D1*
X808321Y1609951D1*
X806895Y1611377D1*
X805436Y1615688D1*
Y1618540D1*
X806895Y1622851D1*
X809747Y1625736D1*
X814058Y1627162D1*
X818369D1*
X822647Y1625736D1*
X824073Y1624277D1*
X825532Y1621425D1*
X790887Y1624277D2*
X792313Y1625736D1*
X790887Y1627162D1*
X789428Y1625736D1*
X790887Y1624277D1*
X773419Y1597052D2*
X757668D1*
X766256Y1608525D1*
X761945D1*
X759094Y1609951D1*
X757668Y1611377D1*
X756208Y1615688D1*
Y1618540D1*
X757668Y1622851D1*
X760519Y1625736D1*
X764831Y1627162D1*
X769142D1*
X773419Y1625736D1*
X774845Y1624277D1*
X776304Y1621425D1*
X743085Y1607066D2*
X734463Y1627162D1*
X725874Y1607066D1*
X705555Y1603501D2*
Y1620712D1*
X712751Y1607779D2*
X698392Y1616401D1*
Y1607779D2*
X712751Y1616401D1*
M02*
