G04 DipTrace 3.3.1.3*
G04 T4-T36-Breakout-Robotshop.gtl*
%MOIN*%
G04 #@! TF.FileFunction,Copper,L1,Top*
G04 #@! TF.Part,Single*
G04 #@! TA.AperFunction,ViaPad*
%ADD13C,0.04*%
G04 #@! TA.AperFunction,Conductor*
%ADD14C,0.015*%
%ADD17C,0.015748*%
%ADD18C,0.02*%
%ADD19C,0.03*%
%ADD20C,0.01*%
%ADD21C,0.008*%
%ADD22C,0.012*%
%ADD24C,0.033465*%
%ADD25C,0.059055*%
G04 #@! TA.AperFunction,ComponentPad*
%ADD26C,0.06*%
G04 #@! TA.AperFunction,Conductor*
%ADD27C,0.051181*%
%ADD28C,0.022*%
%ADD29R,0.059055X0.051181*%
%ADD30R,0.051181X0.059055*%
G04 #@! TA.AperFunction,ComponentPad*
%ADD31R,0.059055X0.059055*%
%ADD32C,0.059055*%
%ADD33R,0.031496X0.062992*%
G04 #@! TA.AperFunction,ComponentPad*
%ADD34C,0.17*%
%ADD35R,0.062992X0.062992*%
%ADD36C,0.062992*%
%ADD37C,0.137795*%
%ADD39C,0.065199*%
%ADD40R,0.047244X0.07874*%
%ADD41R,0.023622X0.05315*%
%ADD42R,0.07874X0.047244*%
%ADD43R,0.05315X0.023622*%
%ADD45R,0.047244X0.047244*%
%ADD46R,0.033465X0.051181*%
%ADD48R,0.031496X0.035433*%
G04 #@! TA.AperFunction,ComponentPad*
%ADD50R,0.074X0.074*%
%ADD51C,0.074*%
%ADD52C,0.06194*%
%ADD53C,0.074*%
%ADD54R,0.055118X0.015748*%
G04 #@! TA.AperFunction,ViaPad*
%ADD56C,0.165*%
%FSLAX26Y26*%
G04*
G70*
G90*
G75*
G01*
G04 Top*
%LPD*%
X2868700Y2443700D2*
D13*
X2768700D1*
X843700D2*
X943700D1*
X1143700D2*
X1243700D1*
X3068700D2*
X3168700D1*
X3268700D2*
X3368700D1*
X1343700D2*
X1418700Y2368700D1*
X1448700D1*
X2418700Y2443700D2*
X2768700D1*
X1518700Y2363700D2*
D14*
Y2358700D1*
X1643149D1*
Y2423700D1*
X3518700Y2443700D2*
Y2367401D1*
X3683700D1*
Y2199015D1*
X3614015D1*
X3368700Y2443700D2*
D13*
X3518700D1*
X1928149Y2423700D2*
D14*
Y2373700D1*
X2013700D1*
Y2433700D1*
X2108700D1*
X2118700Y2443700D1*
X743700D2*
D13*
X673700D1*
X628700Y2398700D1*
X583700D1*
X553700Y2368700D1*
X2121298Y1818700D2*
D14*
Y1879330D1*
X2281298Y1818700D2*
Y1879330D1*
X2038700Y2008700D2*
Y1933700D1*
X2068700Y1903700D1*
Y1896180D1*
X2085550Y1879330D1*
X2121298D1*
X2228700Y2098700D2*
Y1993700D1*
X2268700Y1953700D1*
Y1929645D1*
X2281298Y1917046D1*
Y1879330D1*
X2643700Y611102D2*
D13*
X2736102D1*
X2743700Y618700D1*
X2543700D2*
X2551298Y611102D1*
X2643700D1*
X1543700Y613700D2*
X1638700D1*
X1643700Y618700D1*
X1443700D2*
X1448700Y613700D1*
X1543700D1*
X743700Y618700D2*
X741838Y627100D1*
X456836Y681899D1*
X423296Y960609D1*
X428700Y1035947D1*
Y1433700D1*
X488700Y1493700D1*
X493700D1*
X2930472Y998700D2*
D17*
X2963700D1*
Y948700D1*
X3333700D1*
Y943700D1*
X3243700Y618700D2*
D13*
X3253228Y628228D1*
X3372893D1*
X3388897D1*
Y568700D1*
X3333700Y943700D2*
D18*
X3363700D1*
X3388893Y918507D1*
Y644228D1*
X3372893Y628228D1*
X1428700Y2118503D2*
Y2168700D1*
X1528700D1*
Y2178700D1*
X678700Y2038700D2*
X793700D1*
X938700Y2183700D1*
X1228700D1*
X2043700Y618700D2*
D13*
X2168700D1*
X2188700Y598700D1*
X2923700Y883700D2*
D20*
X2928700D1*
Y972598D1*
X2930472Y970826D1*
Y998700D1*
X1528700Y2178700D2*
D13*
Y2119172D1*
X2318700Y2156102D2*
X2158700D1*
X2088700D1*
X2061298Y2128700D1*
X1913700D1*
X2893700Y1618700D2*
X2983700D1*
X3043700Y1558700D1*
X3598700D1*
Y1628700D1*
X3593700Y1633700D1*
X1693700Y1493700D2*
D21*
Y1478700D1*
X1578700Y1593700D1*
X1223700D1*
Y2048700D1*
X1443700Y2268700D1*
X2273700D1*
X2318700Y2343700D1*
X793700Y1493700D2*
Y1523700D1*
X638700Y1678700D1*
Y2133755D1*
X743700Y2343700D1*
X3093700Y2093700D2*
Y2018700D1*
X3093897D1*
X3093700Y2093700D2*
Y2089231D1*
X3088700Y2084231D1*
Y2138700D1*
X3408700D1*
X3478700Y2208700D1*
X3528700D1*
X743700Y2343700D2*
X787228Y2387228D1*
Y2577700D1*
X803228Y2593700D1*
X1201606D1*
X693700Y893700D2*
X721200D1*
Y818700D1*
X843700Y718700D1*
X793700Y893700D2*
X818700Y808222D1*
X943700Y718700D1*
X893700Y893700D2*
X921200D1*
Y818478D1*
X1043700Y718700D1*
X993700Y893700D2*
X1021200D1*
Y818200D1*
X1143700Y718700D1*
X1093700Y893700D2*
X1121200D1*
Y818645D1*
X1243700Y718700D1*
X3053700Y808897D2*
Y808700D1*
X3143700Y718700D1*
X3243700D2*
X3298700D1*
X3323700Y743700D1*
Y793897D1*
X3333700Y803897D1*
X2193700Y1193700D2*
Y1493700D1*
X3248700Y1698700D2*
X3226255D1*
Y1683700D1*
X3154527D1*
X3133054Y1662228D1*
X2654704D1*
X2638704Y1646228D1*
Y1441850D1*
X3242700Y1492700D2*
X3723924D1*
X3739924Y1508700D1*
Y2039881D1*
X3705200Y2074606D1*
Y2388113D1*
X3689200Y2404113D1*
X3578228D1*
X3562228Y2420113D1*
Y2571228D1*
X3546228Y2587228D1*
X3228228D1*
X3212228Y2571228D1*
Y2403228D1*
X3196228Y2387228D1*
X2812228D1*
X2768700Y2343700D1*
X1593700Y893700D2*
X1588700D1*
X1682413Y799987D1*
X1812413Y775638D1*
X1843700Y718700D1*
X1608700Y1368700D2*
Y908700D1*
X1593700Y893700D1*
X1693700D2*
X1698700D1*
Y837182D1*
X1922896Y782468D1*
X1943700Y718700D1*
X1843700Y1643700D2*
Y1448700D1*
X1698700D1*
X1673700Y1423700D1*
Y913700D1*
X1693700Y893700D1*
X1793700D2*
X1863700Y858700D1*
X1938700Y818700D1*
X2033700Y773700D1*
X2043700Y718700D1*
X1738700Y1413700D2*
Y948700D1*
X1793700Y893700D1*
Y1493700D2*
Y1667735D1*
X1773700Y1693700D1*
X1248700D1*
Y2043700D1*
X1443915Y2238915D1*
X2295821D1*
X2418700Y2343700D1*
X1593700Y1493700D2*
Y1503700D1*
X1530791Y1566609D1*
X1188700D1*
Y2043700D1*
X1443700Y2298700D1*
X2183700D1*
X2218700Y2343700D1*
X2101228Y1586172D2*
X2228700Y1598700D1*
X2243700Y1643700D1*
X2118700Y2343700D2*
X2113700Y2338700D1*
Y2323700D1*
X1848700D1*
X1849409Y2324914D1*
Y2423700D1*
X1493700Y1493700D2*
Y1513700D1*
X1460886Y1546514D1*
X1158700D1*
Y2140949D1*
X1235949D1*
X1268700Y2173700D1*
Y2293700D1*
X1393700D1*
X1428700Y2328700D1*
X1536735Y2324914D1*
X1849409D1*
X1883700Y2358700D2*
X1888779D1*
Y2423700D1*
X1243700Y2343700D2*
X1287228Y2387228D1*
Y2623700D1*
X1603779D1*
Y2423700D1*
X1558700Y2488700D2*
Y2473913D1*
X1564409Y2468204D1*
Y2423700D1*
X1943700Y1186700D2*
D14*
Y1515909D1*
X1993700Y1565909D1*
Y1693700D1*
X2008700Y1708700D1*
X2193700D1*
X1093700Y1493700D2*
Y1271700D1*
X1178700Y1186700D1*
X2356102Y1818700D2*
Y1879330D1*
X2353700Y1768700D2*
Y1816298D1*
X2356102Y1818700D1*
X2196102D2*
Y1879330D1*
X1960700Y2011503D2*
Y1971700D1*
X2008700Y1923700D1*
Y1863700D1*
X2033700Y1838700D1*
X2058700D1*
X2068700Y1828700D1*
Y1778700D1*
X2078700Y1768700D1*
X2198700D1*
Y1816102D1*
X2196102Y1818700D1*
X2343700Y718700D2*
D21*
X2468700Y843700D1*
X2548700D1*
Y1093700D1*
X2543700Y1088700D1*
Y1678922D1*
X2988700D1*
Y2108700D1*
X3063700Y2183700D1*
X3388700D1*
X3443700Y2238700D1*
Y2278700D1*
X3618700D1*
X3614015Y2274015D1*
Y2277755D1*
X2043700Y1643700D2*
Y1158700D1*
X2138700Y1063700D1*
X2353700D1*
X2383700Y1033700D1*
Y903700D1*
X2393700Y893700D1*
X2343700Y1643700D2*
Y1193700D1*
X2483700Y1053700D1*
Y903700D1*
X2493700Y893700D1*
X3023700Y1863700D2*
Y2103700D1*
X3078700Y2158700D1*
X3398700D1*
X3488700Y2248700D1*
X3614015D1*
Y2238385D1*
X2443700Y718700D2*
Y728700D1*
X2538700Y823700D1*
X2838700D1*
Y1148700D1*
X2973700D1*
Y1143700D1*
X1193700Y893700D2*
D22*
X1223700D1*
Y828700D1*
X1343700Y718700D1*
X2868700Y1238700D2*
X2886512D1*
Y1291512D1*
X2943700Y1348700D1*
X2981298D1*
Y1363700D1*
X2893700Y948700D2*
X2878700D1*
Y1024291D1*
X2930472D1*
X2931062Y1023700D1*
X3023700D1*
X3048700Y998700D1*
X3103700D1*
X1293700Y893700D2*
D21*
X1318700Y808222D1*
X1443700Y718700D1*
X2588700Y1123700D2*
Y1193700D1*
X2981298D1*
Y1213700D1*
X1293700Y893700D2*
X1363700Y963700D1*
Y1138700D1*
X2981298Y1213700D2*
Y1288700D1*
X1393700Y893700D2*
D22*
X1421200D1*
Y818200D1*
X1643700Y718700D1*
X1700172Y662228D1*
X2643700D1*
Y798700D1*
X2858700D1*
Y1075472D1*
X2930472D1*
X1493700Y893700D2*
D21*
X1523700D1*
Y823644D1*
X1613700Y788700D1*
X1698700Y773700D1*
X1743700Y718700D1*
X1478700Y1333700D2*
Y908700D1*
X1493700Y893700D1*
X3493700Y953700D2*
D18*
X3428897Y1018503D1*
X3333700D1*
X3331102Y1098700D2*
Y1178700D1*
X3333700Y1018503D2*
Y1098700D1*
X3331102D1*
X1443700Y518700D2*
D13*
Y513700D1*
X1543700D1*
Y538897D1*
X1893700Y1228700D2*
Y1493700D1*
X2543700Y518700D2*
X2561298Y536298D1*
X2643700D1*
X3243700Y518700D2*
X3303228D1*
Y473700D1*
X3391220D1*
Y468700D1*
X3506810Y2078739D2*
D14*
X3614015D1*
Y2159645D1*
X1343700Y2543700D2*
D13*
X1388700D1*
X1448700Y2483700D1*
Y2443503D1*
X1682519Y2423700D2*
D14*
Y2543700D1*
X1653700D1*
X3043700Y1143700D2*
D13*
Y1213700D1*
X3056102D1*
X3183700Y1923700D2*
Y2018700D1*
X3168700D1*
X3368700Y2543700D2*
X3518700D1*
Y2518503D1*
X1043700Y1018700D2*
X1143700D1*
X1967519Y2423700D2*
D20*
Y2477519D1*
X1973700Y2483700D1*
X2058700D1*
X2118700Y2543700D1*
X3103700Y1075472D2*
D14*
X3128700D1*
Y1333700D1*
X3098700Y1363700D1*
D13*
X3056102D1*
X2188700Y523897D2*
X2338503D1*
X2343700Y518700D1*
X2188700Y523897D2*
X2048897D1*
X2043700Y518700D1*
X1603503Y2178700D2*
D18*
X1888758Y2208700D1*
X2388922D1*
X2473700Y2173700D1*
X1378503Y1873700D2*
D24*
X1566380Y1793700D1*
X2013700D1*
X3143700Y802361D2*
D20*
X3193700D1*
X3243700D1*
X3193700D2*
Y533700D1*
X3208700Y518700D1*
X3243700D1*
X3048700Y1463700D2*
D13*
Y1371102D1*
X3056102Y1363700D1*
X3493700Y1633700D2*
Y1762480D1*
X3624920Y1893700D1*
X3183700Y1823700D2*
Y1733897D1*
X3178503Y1728700D1*
X2923700Y808897D2*
D20*
Y798700D1*
X2958700D1*
X2988700Y768700D1*
Y563700D1*
X2943700Y518700D1*
X913700Y1793109D2*
D13*
Y1798700D1*
X978700Y1863700D1*
Y1873700D1*
X1003700Y1898700D1*
Y1998700D1*
X1053503D1*
X1063700Y2008897D1*
X1838700Y1863700D2*
D14*
Y1868700D1*
X1793700Y1913700D1*
X1537558D1*
X1533700Y1909842D1*
X1341102Y1960314D2*
Y1971298D1*
X1388700Y1923700D1*
X1492682D1*
X1506540Y1909842D1*
X1533700D1*
X3103700Y1024291D2*
D22*
X3249291D1*
X3256298Y1031298D1*
Y1098700D1*
X1533700Y2043700D2*
D14*
X1762747D1*
X1838700Y2119653D1*
X1533700Y2043700D2*
X1428700D1*
X3053700Y883700D2*
D21*
X3142361D1*
X3143700Y885039D1*
X3243700D2*
X3327361D1*
X3333700Y878700D1*
X1298700Y1788700D2*
Y1823700D1*
X1303700Y1818700D1*
Y1873700D1*
X3473897Y468700D2*
X3463700Y478897D1*
Y568700D1*
X3103700Y1049881D2*
D22*
X3183700D1*
Y1133700D1*
X3228700Y1178700D1*
X3256298D1*
X3056102Y1288700D2*
D21*
X3095692D1*
Y1110363D1*
X3085363D1*
X3024881Y1049881D1*
X2930472D1*
X2293700Y1563700D2*
X2163700D1*
X2093700Y1493700D1*
X2383700Y2018700D2*
Y2023700D1*
X2583700Y2223700D1*
Y2283700D1*
X2643700Y2343700D1*
X2053700Y2388700D2*
Y2393700D1*
X2493700D1*
X2543700Y2343700D1*
X1912700Y1848574D2*
Y1862700D1*
X1943700Y1893700D1*
Y1953700D1*
X1917898Y1979502D1*
X1913700D1*
Y2062129D1*
X1912700D1*
X2158700Y1962007D2*
D14*
Y2081298D1*
X2543700Y1843700D2*
Y1738700D1*
X2528700Y1723700D1*
X2293700D1*
X2238700Y1778700D1*
Y1933700D1*
X2198700Y1973700D1*
X2170393D1*
X2158700Y1962007D1*
X3368700Y2243700D2*
D21*
Y2203700D1*
X3048700D1*
X2968700Y2123700D1*
Y1703700D1*
X2228700D1*
Y1748700D1*
X1373503D1*
Y1788700D1*
X2843700Y2093700D2*
D14*
Y1968700D1*
X2318700D1*
Y2081298D1*
Y1962007D2*
Y2081298D1*
X943700Y1018700D2*
Y1048700D1*
X1043700Y1148700D1*
Y1713700D1*
X1048700Y1718700D1*
Y1818700D2*
X1003700D1*
X978700Y1793700D1*
Y1568700D1*
X943700Y1533700D1*
Y1118700D1*
X843700Y1018700D1*
X2853700Y1343700D2*
X2961200Y1451200D1*
X2948700Y1463700D1*
X3168503Y2093700D2*
D20*
X3318700D1*
Y1963700D1*
X3388700Y1893700D1*
D26*
Y1638700D1*
X3393700Y1633700D1*
X3103700Y1728700D2*
D27*
Y1802978D1*
D26*
X3083700Y1782978D1*
D25*
Y1823700D1*
X2643700Y2093700D2*
D26*
Y2188700D1*
X2768700D1*
X2833700Y2253700D1*
X3288700D1*
X2588700Y1388700D2*
D19*
X2788700D1*
X2858700Y1458700D1*
Y1523700D1*
X2823700Y1558700D1*
X2698700D1*
Y1613700D1*
X2693700Y1618700D1*
X1063700Y2083700D2*
D14*
Y2088700D1*
X893700D1*
X913700Y2068700D1*
X743700Y1018700D2*
D19*
Y1223700D1*
X843700Y1323700D1*
D28*
Y1558700D1*
D19*
X913700Y1628700D1*
Y1709050D1*
X833700Y1789050D1*
Y2023700D1*
X868700D1*
X913700Y2068700D1*
D13*
X553700Y2368700D3*
X2038700Y2008700D3*
X2228700Y2098700D3*
X1228700Y2183700D3*
X1428700Y2168700D3*
X1608700Y1368700D3*
X1738700Y1413700D3*
X2353700Y1768700D3*
X1478700Y1333700D3*
X1893700Y1228700D3*
X2473700Y2173700D3*
X2013700Y1793700D3*
X2853700Y1343700D3*
X3288700Y2253700D3*
X2588700Y1388700D3*
D56*
X3700787Y551180D3*
X551180D3*
Y2519684D3*
X3700787D3*
D13*
X1653700Y2543700D3*
X3043700Y1143700D3*
X1518700Y2363700D3*
X678700Y2038700D3*
X1883700Y2358700D3*
X1558700Y2488700D3*
X3023700Y1863700D3*
X2868700Y1238700D3*
X2893700Y948700D3*
X2588700Y1123700D3*
X1363700Y1138700D3*
X2973700Y1143700D3*
X3528700Y2208700D3*
X1201606Y2593700D3*
X2101228Y1586172D3*
X1913700Y2128700D3*
X1528700Y2119172D3*
X2193700Y1193700D3*
X2638704Y1441850D3*
X3248700Y1698700D3*
X3242700Y1492700D3*
X2193700Y1708700D3*
X1943700Y1186700D3*
X1178700D3*
X2293700Y1563700D3*
X2053700Y2388700D3*
X1912700Y2062129D3*
X1960700Y2011503D3*
X1912700Y1848574D3*
X2383700Y2018700D3*
D29*
X3518700Y2443700D3*
Y2518503D3*
X2923700Y883700D3*
Y808897D3*
X2188700Y598700D3*
Y523897D3*
X1063700Y2008897D3*
Y2083700D3*
D30*
X1528700Y2178700D3*
X1603503D3*
D29*
X1448700Y2368700D3*
Y2443503D3*
X1543700Y613700D3*
Y538897D3*
X2643700Y611102D3*
Y536298D3*
D30*
X3103700Y1728700D3*
X3178503D3*
D31*
X2768700Y2443700D3*
D32*
Y2543700D3*
X2868700Y2443700D3*
Y2543700D3*
X2968700Y2443700D3*
Y2543700D3*
X3068700Y2443700D3*
Y2543700D3*
X3168700Y2443700D3*
Y2543700D3*
X3268700Y2443700D3*
Y2543700D3*
X3368700Y2443700D3*
Y2543700D3*
D31*
X2118700Y2443700D3*
D32*
Y2543700D3*
X2218700Y2443700D3*
Y2543700D3*
X2318700Y2443700D3*
Y2543700D3*
X2418700Y2443700D3*
Y2543700D3*
D31*
X743700Y2443700D3*
D32*
Y2543700D3*
X843700Y2443700D3*
Y2543700D3*
X943700Y2443700D3*
Y2543700D3*
X1043700Y2443700D3*
Y2543700D3*
X1143700Y2443700D3*
Y2543700D3*
X1243700Y2443700D3*
Y2543700D3*
X1343700Y2443700D3*
Y2543700D3*
D31*
X743700Y518700D3*
D32*
Y618700D3*
X843700Y518700D3*
Y618700D3*
X943700Y518700D3*
Y618700D3*
X1043700Y518700D3*
Y618700D3*
X1143700Y518700D3*
Y618700D3*
X1243700Y518700D3*
Y618700D3*
X1343700Y518700D3*
Y618700D3*
X1443700Y518700D3*
Y618700D3*
D31*
X1643700Y518700D3*
D32*
Y618700D3*
X1743700Y518700D3*
Y618700D3*
X1843700Y518700D3*
Y618700D3*
X1943700Y518700D3*
Y618700D3*
X2043700Y518700D3*
Y618700D3*
D31*
X2743700Y518700D3*
D32*
Y618700D3*
X2843700Y518700D3*
Y618700D3*
X2943700Y518700D3*
Y618700D3*
X3043700Y518700D3*
Y618700D3*
X3143700Y518700D3*
Y618700D3*
X3243700Y518700D3*
Y618700D3*
D31*
X2343700Y518700D3*
D32*
Y618700D3*
X2443700Y518700D3*
Y618700D3*
X2543700Y518700D3*
Y618700D3*
D33*
X1533700Y2043700D3*
Y1909842D3*
D34*
X3388700Y1893700D3*
X3624920D3*
X3506810Y2078739D3*
D35*
X913700Y2068700D3*
D36*
Y1970275D3*
Y1891535D3*
Y1793109D3*
D37*
X807007Y2189566D3*
Y1672243D3*
D31*
X1343700Y1643700D3*
D32*
X1443700D3*
X1543700D3*
X1643700D3*
X1743700D3*
X1843700D3*
X1943700D3*
X2043700D3*
X2143700D3*
X2243700D3*
X2343700D3*
D39*
X3693700Y1143700D3*
X3593700D3*
X3493700D3*
X3693700Y953700D3*
X3593700D3*
X3493700D3*
X3693700Y743700D3*
X3593700D3*
X3493700D3*
D31*
X2948700Y1463700D3*
D32*
X3048700D3*
D31*
X743700Y718700D3*
D32*
X843700D3*
X943700D3*
X1043700D3*
X1143700D3*
X1243700D3*
X1343700D3*
X1443700D3*
D31*
X2043700D3*
D32*
X1943700D3*
X1843700D3*
X1743700D3*
X1643700D3*
D31*
X2743700D3*
D32*
X2843700D3*
X2943700D3*
X3043700D3*
X3143700D3*
X3243700D3*
D31*
X3368700Y2343700D3*
D32*
X3268700D3*
X3168700D3*
X3068700D3*
X2968700D3*
X2868700D3*
X2768700D3*
D31*
X2118700D3*
D32*
X2218700D3*
X2318700D3*
X2418700D3*
D31*
X743700D3*
D32*
X843700D3*
X943700D3*
X1043700D3*
X1143700D3*
X1243700D3*
X1343700D3*
D31*
X2343700Y718700D3*
D32*
X2443700D3*
X2543700D3*
D31*
X2643700Y2343700D3*
D32*
X2543700D3*
D40*
X1733700Y2568385D3*
X1513228D3*
D41*
X1682519Y2423700D3*
X1643149D3*
X1603779D3*
X1564409D3*
D40*
X2018700Y2568385D3*
X1798228D3*
D41*
X1967519Y2423700D3*
X1928149D3*
X1888779D3*
X1849409D3*
D42*
X3758700Y2108464D3*
Y2328936D3*
D43*
X3614015Y2159645D3*
Y2199015D3*
Y2238385D3*
Y2277755D3*
D31*
X3368700Y2243700D3*
X1048700Y1718700D3*
D32*
Y1818700D3*
D31*
X3083700Y1923700D3*
D32*
X3183700D3*
X3083700Y1823700D3*
X3183700D3*
D45*
X3143700Y885039D3*
Y802361D3*
X3243700Y885039D3*
Y802361D3*
X3391220Y468700D3*
X3473897D3*
D46*
X1303700Y1873700D3*
X1378503D3*
X1341102Y1960314D3*
D48*
X2281298Y1879330D3*
X2356102D3*
X2318700Y1962007D3*
X2121298Y1879330D3*
X2196102D3*
X2158700Y1962007D3*
D30*
X3093700Y2093700D3*
X3168503D3*
X3168700Y2018700D3*
X3093897D3*
X1298700Y1788700D3*
X1373503D3*
D29*
X1428700Y2043700D3*
Y2118503D3*
D30*
X3463700Y568700D3*
X3388897D3*
X3056102Y1363700D3*
X2981298D3*
D29*
X3053700Y883700D3*
Y808897D3*
X3333700Y943700D3*
Y1018503D3*
D30*
X2196102Y1818700D3*
X2121298D3*
X3056102Y1288700D3*
X2981298D3*
X3256298Y1178700D3*
X3331102D3*
X3256298Y1098700D3*
X3331102D3*
X3056102Y1213700D3*
X2981298D3*
X2281298Y1818700D3*
X2356102D3*
D29*
X2318700Y2081298D3*
Y2156102D3*
X2158700Y2081298D3*
Y2156102D3*
X3333700Y878700D3*
Y803897D3*
D26*
X1838700Y1863700D3*
D32*
Y2119653D3*
D39*
X2843700Y2093700D3*
X2743700D3*
X2643700D3*
X2543700D3*
D50*
X3593700Y1633700D3*
D51*
X3493700D3*
X3393700D3*
X3193700D3*
X3293700D3*
D52*
X493700Y893700D3*
X593700D3*
X693700D3*
X793700D3*
X893700D3*
X993700D3*
X1093700D3*
X1193700D3*
X1293700D3*
X1393700D3*
X1493700D3*
X1593700D3*
X1693700D3*
X1793700D3*
X2293700Y993700D3*
X593700Y1393700D3*
D53*
X515700Y1238700D3*
Y1148700D3*
D52*
X2093700Y1493700D3*
X1793700D3*
X1693700D3*
X1593700D3*
X1493700D3*
X1393700D3*
X1293700D3*
X1193700D3*
X1093700D3*
X993700D3*
X893700D3*
X793700D3*
X693700D3*
X593700D3*
X493700D3*
X2293700Y1393700D3*
X743700Y1018700D3*
X843700D3*
X943700D3*
X2393700Y893700D3*
X2493700D3*
X2293700D3*
X2193700D3*
X2093700D3*
X1993700D3*
X2593700D3*
X2693700D3*
X2793700D3*
Y1493700D3*
X1893700Y893700D3*
X2693700Y1493700D3*
X1893700D3*
X2593700D3*
X2393700D3*
X2293700D3*
X2193700D3*
X2493700D3*
X1993700D3*
X2293700Y1293700D3*
X1043700Y1018700D3*
X1143700D3*
D31*
X2543700Y2443700D3*
D32*
Y2543700D3*
X2643700Y2443700D3*
Y2543700D3*
D39*
X2843700Y1843700D3*
X2743700D3*
X2643700D3*
X2543700D3*
D54*
X3103700Y998700D3*
Y1024291D3*
Y1049881D3*
Y1075472D3*
X2930472D3*
Y1049881D3*
Y1024291D3*
Y998700D3*
D31*
X2693700Y1618700D3*
D32*
X2793700D3*
X2893700D3*
M02*
