G04 DipTrace 3.3.1.3*
G04 T4-T36-Breakout-Robotshop.gts*
%MOIN*%
G04 #@! TF.FileFunction,Soldermask,Top*
G04 #@! TF.Part,Single*
%ADD13C,0.04*%
%ADD34C,0.17*%
%ADD39C,0.065199*%
%ADD45R,0.047244X0.047244*%
%ADD48R,0.031496X0.035433*%
%ADD50R,0.074X0.074*%
%ADD51C,0.074*%
%ADD52C,0.06194*%
%ADD53C,0.074*%
%ADD65C,0.167*%
%ADD67C,0.042*%
%ADD69R,0.057118X0.017748*%
%ADD79C,0.062*%
%ADD85R,0.035465X0.053181*%
%ADD89R,0.05515X0.025622*%
%ADD91R,0.08074X0.049244*%
%ADD93R,0.025622X0.05515*%
%ADD95R,0.049244X0.08074*%
%ADD99C,0.139795*%
%ADD101C,0.064992*%
%ADD103R,0.064992X0.064992*%
%ADD107R,0.033496X0.064992*%
%ADD109C,0.061055*%
%ADD111R,0.061055X0.061055*%
%ADD113R,0.053181X0.061055*%
%ADD115R,0.061055X0.053181*%
%FSLAX26Y26*%
G04*
G70*
G90*
G75*
G01*
G04 TopMask*
%LPD*%
D67*
X553700Y2368700D3*
X2038700Y2008700D3*
X2228700Y2098700D3*
X1228700Y2183700D3*
X1428700Y2168700D3*
X1608700Y1368700D3*
X1738700Y1413700D3*
X2353700Y1768700D3*
X1478700Y1333700D3*
X1893700Y1228700D3*
X2473700Y2173700D3*
X2013700Y1793700D3*
X2853700Y1343700D3*
X3288700Y2253700D3*
X2588700Y1388700D3*
D65*
X3700787Y551180D3*
X551180D3*
Y2519684D3*
X3700787D3*
D13*
X1653700Y2543700D3*
X3043700Y1143700D3*
X1518700Y2363700D3*
X678700Y2038700D3*
X1883700Y2358700D3*
X1558700Y2488700D3*
X3023700Y1863700D3*
X2868700Y1238700D3*
X2893700Y948700D3*
X2588700Y1123700D3*
X1363700Y1138700D3*
X2973700Y1143700D3*
X3528700Y2208700D3*
X1201606Y2593700D3*
X2101228Y1586172D3*
X1913700Y2128700D3*
X1528700Y2119172D3*
X2193700Y1193700D3*
X2638704Y1441850D3*
X3248700Y1698700D3*
X3242700Y1492700D3*
X2193700Y1708700D3*
X1943700Y1186700D3*
X1178700D3*
X2293700Y1563700D3*
X2053700Y2388700D3*
X1912700Y2062129D3*
X1960700Y2011503D3*
X1912700Y1848574D3*
X2383700Y2018700D3*
D115*
X3518700Y2443700D3*
Y2518503D3*
X2923700Y883700D3*
Y808897D3*
X2188700Y598700D3*
Y523897D3*
X1063700Y2008897D3*
Y2083700D3*
D113*
X1528700Y2178700D3*
X1603503D3*
D115*
X1448700Y2368700D3*
Y2443503D3*
X1543700Y613700D3*
Y538897D3*
X2643700Y611102D3*
Y536298D3*
D113*
X3103700Y1728700D3*
X3178503D3*
D111*
X2768700Y2443700D3*
D109*
Y2543700D3*
X2868700Y2443700D3*
Y2543700D3*
X2968700Y2443700D3*
Y2543700D3*
X3068700Y2443700D3*
Y2543700D3*
X3168700Y2443700D3*
Y2543700D3*
X3268700Y2443700D3*
Y2543700D3*
X3368700Y2443700D3*
Y2543700D3*
D111*
X2118700Y2443700D3*
D109*
Y2543700D3*
X2218700Y2443700D3*
Y2543700D3*
X2318700Y2443700D3*
Y2543700D3*
X2418700Y2443700D3*
Y2543700D3*
D111*
X743700Y2443700D3*
D109*
Y2543700D3*
X843700Y2443700D3*
Y2543700D3*
X943700Y2443700D3*
Y2543700D3*
X1043700Y2443700D3*
Y2543700D3*
X1143700Y2443700D3*
Y2543700D3*
X1243700Y2443700D3*
Y2543700D3*
X1343700Y2443700D3*
Y2543700D3*
D111*
X743700Y518700D3*
D109*
Y618700D3*
X843700Y518700D3*
Y618700D3*
X943700Y518700D3*
Y618700D3*
X1043700Y518700D3*
Y618700D3*
X1143700Y518700D3*
Y618700D3*
X1243700Y518700D3*
Y618700D3*
X1343700Y518700D3*
Y618700D3*
X1443700Y518700D3*
Y618700D3*
D111*
X1643700Y518700D3*
D109*
Y618700D3*
X1743700Y518700D3*
Y618700D3*
X1843700Y518700D3*
Y618700D3*
X1943700Y518700D3*
Y618700D3*
X2043700Y518700D3*
Y618700D3*
D111*
X2743700Y518700D3*
D109*
Y618700D3*
X2843700Y518700D3*
Y618700D3*
X2943700Y518700D3*
Y618700D3*
X3043700Y518700D3*
Y618700D3*
X3143700Y518700D3*
Y618700D3*
X3243700Y518700D3*
Y618700D3*
D111*
X2343700Y518700D3*
D109*
Y618700D3*
X2443700Y518700D3*
Y618700D3*
X2543700Y518700D3*
Y618700D3*
D107*
X1533700Y2043700D3*
Y1909842D3*
D34*
X3388700Y1893700D3*
X3624920D3*
X3506810Y2078739D3*
D103*
X913700Y2068700D3*
D101*
Y1970275D3*
Y1891535D3*
Y1793109D3*
D99*
X807007Y2189566D3*
Y1672243D3*
D111*
X1343700Y1643700D3*
D109*
X1443700D3*
X1543700D3*
X1643700D3*
X1743700D3*
X1843700D3*
X1943700D3*
X2043700D3*
X2143700D3*
X2243700D3*
X2343700D3*
D39*
X3693700Y1143700D3*
X3593700D3*
X3493700D3*
X3693700Y953700D3*
X3593700D3*
X3493700D3*
X3693700Y743700D3*
X3593700D3*
X3493700D3*
D111*
X2948700Y1463700D3*
D109*
X3048700D3*
D111*
X743700Y718700D3*
D109*
X843700D3*
X943700D3*
X1043700D3*
X1143700D3*
X1243700D3*
X1343700D3*
X1443700D3*
D111*
X2043700D3*
D109*
X1943700D3*
X1843700D3*
X1743700D3*
X1643700D3*
D111*
X2743700D3*
D109*
X2843700D3*
X2943700D3*
X3043700D3*
X3143700D3*
X3243700D3*
D111*
X3368700Y2343700D3*
D109*
X3268700D3*
X3168700D3*
X3068700D3*
X2968700D3*
X2868700D3*
X2768700D3*
D111*
X2118700D3*
D109*
X2218700D3*
X2318700D3*
X2418700D3*
D111*
X743700D3*
D109*
X843700D3*
X943700D3*
X1043700D3*
X1143700D3*
X1243700D3*
X1343700D3*
D111*
X2343700Y718700D3*
D109*
X2443700D3*
X2543700D3*
D111*
X2643700Y2343700D3*
D109*
X2543700D3*
D95*
X1733700Y2568385D3*
X1513228D3*
D93*
X1682519Y2423700D3*
X1643149D3*
X1603779D3*
X1564409D3*
D95*
X2018700Y2568385D3*
X1798228D3*
D93*
X1967519Y2423700D3*
X1928149D3*
X1888779D3*
X1849409D3*
D91*
X3758700Y2108464D3*
Y2328936D3*
D89*
X3614015Y2159645D3*
Y2199015D3*
Y2238385D3*
Y2277755D3*
D111*
X3368700Y2243700D3*
X1048700Y1718700D3*
D109*
Y1818700D3*
D111*
X3083700Y1923700D3*
D109*
X3183700D3*
X3083700Y1823700D3*
X3183700D3*
D45*
X3143700Y885039D3*
Y802361D3*
X3243700Y885039D3*
Y802361D3*
X3391220Y468700D3*
X3473897D3*
D85*
X1303700Y1873700D3*
X1378503D3*
X1341102Y1960314D3*
D48*
X2281298Y1879330D3*
X2356102D3*
X2318700Y1962007D3*
X2121298Y1879330D3*
X2196102D3*
X2158700Y1962007D3*
D113*
X3093700Y2093700D3*
X3168503D3*
X3168700Y2018700D3*
X3093897D3*
X1298700Y1788700D3*
X1373503D3*
D115*
X1428700Y2043700D3*
Y2118503D3*
D113*
X3463700Y568700D3*
X3388897D3*
X3056102Y1363700D3*
X2981298D3*
D115*
X3053700Y883700D3*
Y808897D3*
X3333700Y943700D3*
Y1018503D3*
D113*
X2196102Y1818700D3*
X2121298D3*
X3056102Y1288700D3*
X2981298D3*
X3256298Y1178700D3*
X3331102D3*
X3256298Y1098700D3*
X3331102D3*
X3056102Y1213700D3*
X2981298D3*
X2281298Y1818700D3*
X2356102D3*
D115*
X2318700Y2081298D3*
Y2156102D3*
X2158700Y2081298D3*
Y2156102D3*
X3333700Y878700D3*
Y803897D3*
D79*
X1838700Y1863700D3*
D109*
Y2119653D3*
D39*
X2843700Y2093700D3*
X2743700D3*
X2643700D3*
X2543700D3*
D50*
X3593700Y1633700D3*
D51*
X3493700D3*
X3393700D3*
X3193700D3*
X3293700D3*
D52*
X493700Y893700D3*
X593700D3*
X693700D3*
X793700D3*
X893700D3*
X993700D3*
X1093700D3*
X1193700D3*
X1293700D3*
X1393700D3*
X1493700D3*
X1593700D3*
X1693700D3*
X1793700D3*
X2293700Y993700D3*
X593700Y1393700D3*
D53*
X515700Y1238700D3*
Y1148700D3*
D52*
X2093700Y1493700D3*
X1793700D3*
X1693700D3*
X1593700D3*
X1493700D3*
X1393700D3*
X1293700D3*
X1193700D3*
X1093700D3*
X993700D3*
X893700D3*
X793700D3*
X693700D3*
X593700D3*
X493700D3*
X2293700Y1393700D3*
X743700Y1018700D3*
X843700D3*
X943700D3*
X2393700Y893700D3*
X2493700D3*
X2293700D3*
X2193700D3*
X2093700D3*
X1993700D3*
X2593700D3*
X2693700D3*
X2793700D3*
Y1493700D3*
X1893700Y893700D3*
X2693700Y1493700D3*
X1893700D3*
X2593700D3*
X2393700D3*
X2293700D3*
X2193700D3*
X2493700D3*
X1993700D3*
X2293700Y1293700D3*
X1043700Y1018700D3*
X1143700D3*
D111*
X2543700Y2443700D3*
D109*
Y2543700D3*
X2643700Y2443700D3*
Y2543700D3*
D39*
X2843700Y1843700D3*
X2743700D3*
X2643700D3*
X2543700D3*
D69*
X3103700Y998700D3*
Y1024291D3*
Y1049881D3*
Y1075472D3*
X2930472D3*
Y1049881D3*
Y1024291D3*
Y998700D3*
D111*
X2693700Y1618700D3*
D109*
X2793700D3*
X2893700D3*
M02*
