G04 DipTrace 3.3.1.3*
G04 T4-T36-Breakout-Robotshop.gbl*
%MOIN*%
G04 #@! TF.FileFunction,Copper,L2,Bot*
G04 #@! TF.Part,Single*
G04 #@! TA.AperFunction,ViaPad*
%ADD13C,0.04*%
G04 #@! TA.AperFunction,Conductor*
%ADD14C,0.015*%
%ADD15C,0.023622*%
G04 #@! TA.AperFunction,CopperBalancing*
%ADD16C,0.025*%
G04 #@! TA.AperFunction,Conductor*
%ADD18C,0.02*%
%ADD19C,0.03*%
%ADD21C,0.008*%
%ADD22C,0.012*%
%ADD23C,0.08*%
%ADD25C,0.059055*%
G04 #@! TA.AperFunction,ComponentPad*
%ADD26C,0.06*%
%ADD31R,0.059055X0.059055*%
%ADD32C,0.059055*%
%ADD34C,0.17*%
%ADD35R,0.062992X0.062992*%
%ADD36C,0.062992*%
%ADD37C,0.137795*%
%ADD39C,0.065199*%
%ADD49R,0.05X0.025*%
G04 #@! TA.AperFunction,ComponentPad*
%ADD50R,0.074X0.074*%
%ADD51C,0.074*%
%ADD52C,0.06194*%
%ADD53C,0.074*%
G04 #@! TA.AperFunction,ViaPad*
%ADD56C,0.165*%
%FSLAX26Y26*%
G04*
G70*
G90*
G75*
G01*
G04 Bottom*
%LPD*%
X2418700Y2443700D2*
D13*
X2318700D1*
X743700D2*
X843700D1*
X943700D2*
X1043700D1*
X2868700D2*
X2968700D1*
X3168700D2*
X3268700D1*
X1343700D2*
X1243700D1*
X2118700D2*
X2008700D1*
Y2433700D1*
X1493700D1*
X1343700D1*
Y2443700D1*
X2218700D2*
X2171474D1*
X2118700D1*
X2318700D2*
X2218700D1*
X1043700D2*
X1143700D1*
X2968700D2*
X3068700D1*
X2768700D2*
X2868700D1*
X2118700D2*
X2218700D1*
X2418700D2*
D3*
X1493700Y2433700D2*
D15*
Y2363700D1*
X1518700D1*
X2543700Y2443700D2*
D13*
X2643700D1*
X2708700D1*
X2768700D1*
X553700Y2368700D2*
Y2346200D1*
X558700Y2341200D1*
D16*
Y2308700D1*
X2171474Y2443700D2*
D14*
Y2236474D1*
X2043700Y2108700D1*
Y2077930D1*
Y2003700D1*
X2038700Y2008700D1*
X2043700Y2077930D2*
X2207930D1*
X2228700Y2098700D1*
X2743700Y618700D2*
D13*
X2843700D1*
X2943700D1*
X3043700D1*
X3143700D1*
X3243700D1*
X743700D2*
X843700D1*
X943700D1*
X1043700D1*
X1143700D1*
X1243700D1*
X1343700D1*
X1443700D1*
X1643700D2*
X1743700D1*
X1843700D1*
X1943700D1*
X2043700D1*
X2343700D1*
X2443700D1*
X2543700D1*
X2743700D1*
X1443700D2*
X1643700D1*
X493700Y1493700D2*
Y1965511D1*
X566889Y2038700D1*
X678700D1*
X1228700Y2183700D2*
D19*
Y2178700D1*
X1438700D1*
X1428700Y2168700D1*
X2793700Y1618700D2*
D13*
Y1613700D1*
X2868700Y1538700D1*
Y1428700D1*
X2918700Y1378700D1*
Y1023700D1*
X2938700Y1003700D1*
X3163700D1*
X3348700Y818700D1*
Y668700D1*
X3328700Y648700D1*
X3273700D1*
X3243700Y618700D1*
X1343700Y1643700D2*
X1333700D1*
Y1958700D1*
X1263700Y2028700D1*
Y2163739D1*
X1228700Y2178700D1*
X1528700Y2119172D2*
X1588708Y2179180D1*
X1878228D1*
X1913700Y2143708D1*
Y2128700D1*
X893700Y1493700D2*
D21*
X918700D1*
X983700Y1573700D1*
X1103700Y1623700D1*
Y1843700D1*
X993700Y1953700D1*
Y2093700D1*
X843700Y2343700D1*
X1201606Y2593700D2*
X1206525Y2605578D1*
X3528700D1*
Y2208700D1*
X743700Y718700D2*
X593700Y868700D1*
Y893700D1*
X2593700D2*
X2656533Y855187D1*
X2699701Y848001D1*
X2933524Y771692D1*
X3018700Y753700D1*
X3043700Y718700D1*
X2693700Y893700D2*
X2720071D1*
X2771312Y842460D1*
X3004415Y799264D1*
X3031804Y790504D1*
X3143700Y718700D1*
X2793700Y893700D2*
X3068700D1*
X3243700Y718700D1*
X3368700Y2343700D2*
X3377959Y2334441D1*
X3328700Y2298700D1*
X3259624D1*
X3193700Y2153700D1*
X2988700Y2038700D1*
Y1668700D1*
X2776116D1*
X2748700Y1641284D1*
Y1548700D1*
X2803700Y1493700D1*
X2793700D1*
X3268700Y2343700D2*
X3277848D1*
X2963700Y2088700D1*
Y1693700D1*
X2683700D1*
X2643700Y1653700D1*
Y1533700D1*
X2678700Y1498700D1*
X2688700D1*
X2683700Y1493700D1*
X2693700D1*
X2593700D2*
X2596662D1*
X2606662Y1656333D1*
X2668700Y1713700D1*
X2938700D1*
Y2138700D1*
X3168700Y2343700D1*
X2493700Y1493700D2*
Y1743700D1*
X2891070Y1758700D1*
X2893700Y2293700D1*
X2939016Y2399438D1*
X3012962D1*
X3068700Y2343700D1*
X2393700Y1493700D2*
Y1483700D1*
X2453700Y1423700D1*
X2543700D1*
Y1623700D1*
X2653700Y1733700D1*
X2918700D1*
Y2279212D1*
X2966993Y2341993D1*
X2968700Y2343700D1*
X2868700D2*
Y2223700D1*
X2798700Y2153700D1*
Y1788700D1*
X2788700Y1778700D1*
X2483700D1*
X2468700Y1763700D1*
Y1588700D1*
X2443700Y1563700D1*
X2363700D1*
X2293700Y1493700D1*
X2638704Y1441850D2*
Y1253200D1*
X2579204Y1193700D1*
X2193700D1*
X3242700Y1492700D2*
Y1698700D1*
X3248700D1*
X1943700Y1643700D2*
Y1583700D1*
X1848700D1*
X1843700Y1493700D1*
Y1368700D1*
X1608700D1*
X1743700Y1643700D2*
Y1418700D1*
X1738700Y1413700D1*
X1643700Y1643700D2*
Y1698700D1*
X1793700D1*
Y1493700D1*
X1593700D2*
Y1698700D1*
X1609700Y1714700D1*
X2085228D1*
X2101228Y1698700D1*
Y1586172D1*
X1393700Y1493700D2*
X1313700Y1573700D1*
Y1583700D1*
X1233700D1*
Y1948700D1*
X1188700Y2013700D1*
X1193700Y2253700D1*
X1338700Y2343700D1*
X1343700D1*
X1338700Y2338700D1*
X1453700D1*
X1468700Y2323700D1*
X1848700D1*
X1883700Y2358700D1*
X1293700Y1493700D2*
Y1509510D1*
X1206375Y1576839D1*
X1198872Y1923315D1*
X1158700Y2003700D1*
X1173700Y2293700D1*
X1243700Y2343700D1*
X1193700Y1493700D2*
X1170640Y1503476D1*
X1175550Y1542179D1*
Y1916850D1*
X1119814Y1972586D1*
Y2042403D1*
X1143700Y2343700D1*
X1187228Y2387228D1*
Y2488700D1*
X1558700D1*
X1093700Y1493700D2*
D14*
X1118700Y1513073D1*
X1153700Y1548073D1*
Y1898700D1*
X1043700Y2008700D1*
Y2343700D1*
X1178700Y1186700D2*
X1943700D1*
X2193700Y1708700D2*
X2293700D1*
X2353700Y1768700D1*
X993700Y1493700D2*
X1128700Y1603700D1*
Y1883700D1*
X1018700Y1993700D1*
Y2103700D1*
X943700Y2343700D1*
X993700Y1493700D2*
X1053700Y1433700D1*
X1405641D1*
X1443700Y1471759D1*
Y1519420D1*
X1493700Y1569420D1*
Y2003976D1*
X1501228Y2011503D1*
X1960700D1*
X1993700Y893700D2*
D21*
X2043700D1*
X2073700Y813700D1*
X2123306Y795502D1*
X2343700Y695150D1*
Y718700D1*
X2193700Y893700D2*
X2227024Y877024D1*
X2286914Y839985D1*
X2308700Y823700D1*
X2323800D1*
X2512309Y773190D1*
X2543700Y718700D1*
X2743700D2*
X2575767Y748025D1*
X2543700Y788700D1*
X2413700Y823700D1*
X2293700Y893700D1*
X2843700Y718700D2*
X2783700Y773700D1*
X2613700Y783700D1*
X2468246Y846066D1*
X2448700Y873700D1*
X2393700Y893700D1*
X2943700Y718700D2*
X2793700Y798700D1*
X2688700Y808700D1*
X2633700Y818700D1*
X2493700Y893700D1*
X2093700D2*
X2118700D1*
X2115789Y905340D1*
X2163700Y833700D1*
X2217936Y800953D1*
X2308700Y783700D1*
X2388768Y786111D1*
X2443700Y718700D1*
X3023700Y1863700D2*
Y1568700D1*
X3003700D1*
Y1148700D1*
X2968700D1*
X2973700Y1143700D1*
X1193700Y893700D2*
D22*
X1238672Y938672D1*
X2568672D1*
X2868700Y1238700D1*
Y948700D1*
X2893700D1*
X1363700Y1138700D2*
D21*
X2588700D1*
Y1123700D1*
X2143700Y1643700D2*
Y1543700D1*
X1943700D1*
Y1333700D1*
X1478700D1*
X3493700Y953700D2*
D18*
Y1143700D1*
Y953700D2*
Y743700D1*
X743700Y518700D2*
D13*
X843700D1*
X943700D1*
X1043700D1*
X1143700D1*
X1243700D1*
X1343700D1*
X1443700D1*
X1643700D1*
X743700Y2543700D2*
X843700D1*
X943700D1*
X1043700D1*
X1143700D1*
X1243700D1*
X1343700D1*
X1675216D1*
X2118700D1*
X2218700D1*
X2318700D1*
X2418700D1*
X2478700D1*
X2768700D1*
X2868700D1*
X2968700D1*
X3068700D1*
X3168700D1*
X3268700D1*
X3368700D1*
X3446493D1*
X3432448Y2116243D1*
X3483700Y2018700D1*
X3493700Y2023700D1*
X3506810Y2078739D1*
X3526810Y1793700D1*
X3535210Y1808157D1*
X3624920Y1893700D1*
X493700Y893700D2*
X518700Y738045D1*
X650596Y661894D1*
X678989Y555934D1*
X743700Y518700D1*
X493700Y893700D2*
X443700D1*
Y1379700D1*
X463700Y1383700D1*
X476200Y1376200D1*
X646821Y1303700D1*
X1052228D1*
Y1328700D1*
X1228700D1*
X1328700Y1228700D1*
X1893700D1*
X2543700Y518700D2*
X2743700D1*
X2843700D1*
X2943700D1*
X3043700D1*
X3143700D1*
X3243700D1*
X3693700Y1143700D2*
D23*
Y953700D1*
Y743700D1*
X1643700Y518700D2*
D13*
X1743700D1*
X1843700D1*
X1943700D1*
X2043700D1*
X2343700D1*
X2443700D1*
X2488700Y523700D1*
X2543700Y518700D1*
X3243700D2*
X3369377D1*
X3390922Y602184D1*
X3437846Y649108D1*
X3563700Y658700D1*
X3638700D1*
X3693700Y713700D1*
Y743700D1*
X3183700Y1923700D2*
Y1823700D1*
X913700Y1793109D2*
Y1793700D1*
X788700Y1918700D1*
Y2171259D1*
X807007Y2189566D1*
X743700Y2543700D2*
Y2563700D1*
X673700Y2493700D1*
Y2233700D1*
X748700Y2158700D1*
X776141D1*
X807007Y2189566D1*
X1653700Y2543700D2*
X1675216D1*
X3043700Y1143700D2*
X3038700D1*
X3085250Y1097150D1*
Y1068700D1*
X3308700D1*
X3408700Y968700D1*
Y678254D1*
X3437846Y649108D1*
X2478700Y2543700D2*
Y2208700D1*
X2473700D1*
Y2173700D1*
X2413700D1*
X2178700Y1938700D1*
X1656834D1*
X1566834Y1848700D1*
X1538700D1*
Y1648700D1*
X1543700Y1643700D1*
X593700Y1493700D2*
X476200Y1376200D1*
X1052228Y1303700D2*
Y1027228D1*
X1043700Y1018700D1*
X593700Y1493700D2*
Y1588700D1*
X643700Y1638700D1*
X773464D1*
X807007Y1672243D1*
X2013700Y1793700D2*
X2413700Y2173700D1*
X3183700Y1823700D2*
Y1763700D1*
X3198700Y1748700D1*
X3475754D1*
X3535210Y1808157D1*
X3693700Y1143700D2*
Y1363700D1*
X3633700Y1423700D1*
X3603700D1*
X3483700Y1543700D1*
Y1623700D1*
X3493700Y1633700D1*
Y1730754D1*
X3475754Y1748700D1*
X3048700Y1463700D2*
X3043700Y1143700D1*
X2543700Y2543700D2*
X2643700D1*
X2768700D1*
X2478700Y2208700D2*
X2644590D1*
X2714128Y2177027D1*
X2743700Y2163376D1*
Y2093700D1*
Y1843700D1*
X2293700Y1563700D2*
D21*
Y1685228D1*
X2391993Y1707411D1*
X2399146Y2015258D1*
X2383700Y2018700D1*
X1912700Y2062129D2*
X1962759Y2112188D1*
Y2369228D1*
X1982231Y2388700D1*
X2053700D1*
X1912700Y1848574D2*
Y1748700D1*
X2098700D1*
X2185228Y1662172D1*
Y1588117D1*
X2236672Y1536672D1*
Y1450728D1*
X2220672Y1434728D1*
X2052672D1*
X1993700Y1493700D1*
X2543700Y1843700D2*
D14*
Y2093700D1*
X693700Y1493700D2*
D19*
Y1518700D1*
X733700Y1558700D1*
X888700D1*
Y1608700D1*
X918700Y1638700D1*
Y1698700D1*
X793700Y1823700D1*
Y1828700D1*
X728700Y1893700D1*
Y2098700D1*
X643700D1*
X563700Y2253700D1*
D18*
X558700Y2273267D1*
X2843700Y1843700D2*
D14*
Y2093700D1*
X913700Y1891535D2*
X915865D1*
X988700Y1818700D1*
Y1778700D1*
X1048700Y1718700D1*
X913700Y1970275D2*
X927125D1*
X1058700Y1838700D1*
Y1808700D1*
X1048700Y1818700D1*
X2293700Y993700D2*
X2548700D1*
X2828700Y1273700D1*
Y1318700D1*
X2853700Y1343700D1*
X3593700Y1143700D2*
D23*
Y953700D1*
Y743700D1*
X3083700Y1923700D2*
D25*
Y1823700D1*
X3593700Y1143700D2*
D23*
Y1218700D1*
X3528700Y1283700D1*
D26*
X3483700D1*
X3498700Y1298700D1*
X3243700D1*
D25*
X3133700Y1408700D1*
Y1533700D1*
X3083700Y1583700D1*
Y1823700D1*
Y1923700D2*
Y1968700D1*
D26*
X3128700Y2013700D1*
X3268700D1*
X3388700Y1893700D1*
X2643700Y1843700D2*
Y2093700D1*
X3288700Y2253700D2*
Y1993700D1*
X3388700Y1893700D1*
X593700Y1393700D2*
D19*
Y1388700D1*
X1298700D1*
X1398700Y1288700D1*
X2173700D1*
X2228700Y1233700D1*
X2448700D1*
X2588700Y1388700D1*
D13*
X553700Y2368700D3*
X2038700Y2008700D3*
X2228700Y2098700D3*
X1228700Y2183700D3*
X1428700Y2168700D3*
X1608700Y1368700D3*
X1738700Y1413700D3*
X2353700Y1768700D3*
X1478700Y1333700D3*
X1893700Y1228700D3*
X2473700Y2173700D3*
X2013700Y1793700D3*
X2853700Y1343700D3*
X3288700Y2253700D3*
X2588700Y1388700D3*
D56*
X3700787Y551180D3*
X551180D3*
Y2519684D3*
X3700787D3*
D13*
X1653700Y2543700D3*
X3043700Y1143700D3*
X1518700Y2363700D3*
X678700Y2038700D3*
X1883700Y2358700D3*
X1558700Y2488700D3*
X3023700Y1863700D3*
X2868700Y1238700D3*
X2893700Y948700D3*
X2588700Y1123700D3*
X1363700Y1138700D3*
X2973700Y1143700D3*
X3528700Y2208700D3*
X1201606Y2593700D3*
X2101228Y1586172D3*
X1913700Y2128700D3*
X1528700Y2119172D3*
X2193700Y1193700D3*
X2638704Y1441850D3*
X3248700Y1698700D3*
X3242700Y1492700D3*
X2193700Y1708700D3*
X1943700Y1186700D3*
X1178700D3*
X2293700Y1563700D3*
X2053700Y2388700D3*
X1912700Y2062129D3*
X1960700Y2011503D3*
X1912700Y1848574D3*
X2383700Y2018700D3*
X621775Y2604796D2*
D16*
X1153962D1*
X3561695D2*
X3630186D1*
X644526Y2579927D2*
X1154715D1*
X3561695D2*
X3607471D1*
X656762Y2555058D2*
X1173267D1*
X1229940D2*
X3495692D1*
X3561695D2*
X3595199D1*
X662181Y2530190D2*
X1535231D1*
X1582180D2*
X3495692D1*
X3561695D2*
X3589816D1*
X661714Y2505321D2*
X1159165D1*
X1604607D2*
X3495692D1*
X3561695D2*
X3590247D1*
X655363Y2480452D2*
X685171D1*
X888467D2*
X898933D1*
X1606940D2*
X1977719D1*
X2463495D2*
X2485193D1*
X3113466D2*
X3123932D1*
X3313484D2*
X3323914D1*
X3413493D2*
X3495692D1*
X3561695D2*
X3596598D1*
X443718Y2455583D2*
X460536D1*
X641835D2*
X685171D1*
X2475947D2*
X2485186D1*
X3425945D2*
X3495692D1*
X3561695D2*
X3610126D1*
X3791425D2*
X3808279D1*
X443718Y2430714D2*
X485726D1*
X616644D2*
X685171D1*
X2475696D2*
X2485154D1*
X3425694D2*
X3495692D1*
X3561695D2*
X3635317D1*
X3766235D2*
X3808279D1*
X443718Y2405846D2*
X523225D1*
X584169D2*
X685171D1*
X887498D2*
X899901D1*
X2462490D2*
X2485193D1*
X3112497D2*
X3124900D1*
X3312479D2*
X3324919D1*
X3412488D2*
X3495692D1*
X3561695D2*
X3808279D1*
X443718Y2380977D2*
X506360D1*
X601034D2*
X685171D1*
X888000D2*
X899399D1*
X988009D2*
X999372D1*
X1088018D2*
X1099416D1*
X1288001D2*
X1299400D1*
X1388010D2*
X1452913D1*
X1564345D2*
X1840390D1*
X2263010D2*
X2274392D1*
X2363020D2*
X2374383D1*
X2463029D2*
X2499367D1*
X2702233D2*
X2724397D1*
X2813007D2*
X2824370D1*
X3112999D2*
X3124398D1*
X3213008D2*
X3224371D1*
X3427237D2*
X3495692D1*
X3561695D2*
X3808279D1*
X443718Y2356108D2*
X504709D1*
X605233D2*
X685171D1*
X1567072D2*
X1834792D1*
X1995745D2*
X2018053D1*
X2475839D2*
X2486583D1*
X2702233D2*
X2711586D1*
X3427237D2*
X3495692D1*
X3561695D2*
X3808279D1*
X443718Y2331239D2*
X504709D1*
X612697D2*
X685171D1*
X1995745D2*
X2060181D1*
X2475804D2*
X2486582D1*
X2702233D2*
X2711586D1*
X3427237D2*
X3495692D1*
X3561695D2*
X3808279D1*
X443718Y2306371D2*
X504709D1*
X612697D2*
X685171D1*
X1087983D2*
X1099415D1*
X1387974D2*
X1440389D1*
X1877004D2*
X1929778D1*
X1995745D2*
X2060181D1*
X2262974D2*
X2274459D1*
X2362984D2*
X2374419D1*
X2462957D2*
X2499439D1*
X2702233D2*
X2724433D1*
X2812971D2*
X2824442D1*
X3012954D2*
X3024425D1*
X3427237D2*
X3495692D1*
X3561695D2*
X3808279D1*
X443718Y2281502D2*
X504709D1*
X612697D2*
X842953D1*
X1080196D2*
X1105697D1*
X1298802D2*
X1929778D1*
X1995745D2*
X2134999D1*
X2207964D2*
X2835710D1*
X2961424D2*
X3050584D1*
X3427237D2*
X3495692D1*
X3561695D2*
X3808279D1*
X443718Y2256633D2*
X504709D1*
X612697D2*
X857881D1*
X1080196D2*
X1103724D1*
X1258755D2*
X1929778D1*
X1995745D2*
X2134999D1*
X2207964D2*
X2835710D1*
X2951700D2*
X3022702D1*
X3427237D2*
X3495692D1*
X3561695D2*
X3808279D1*
X443718Y2231764D2*
X525845D1*
X624215D2*
X872809D1*
X1080196D2*
X1101750D1*
X1226244D2*
X1929778D1*
X1995745D2*
X2116196D1*
X2207641D2*
X2831153D1*
X2951700D2*
X2994784D1*
X3427237D2*
X3485824D1*
X3571563D2*
X3808279D1*
X443718Y2206896D2*
X538655D1*
X637062D2*
X887737D1*
X1080196D2*
X1099776D1*
X1471656D2*
X1548185D1*
X1918773D2*
X1929778D1*
X1995745D2*
X2091328D1*
X2192462D2*
X2806285D1*
X2951700D2*
X2966902D1*
X3160187D2*
X3181885D1*
X3427237D2*
X3479759D1*
X3577663D2*
X3808279D1*
X443718Y2182027D2*
X551502D1*
X649873D2*
X902629D1*
X1080196D2*
X1097803D1*
X1482565D2*
X1523317D1*
X1995745D2*
X2066461D1*
X2167594D2*
X2781417D1*
X3129542D2*
X3170581D1*
X3347682D2*
X3488120D1*
X3569266D2*
X3808279D1*
X443718Y2157158D2*
X564348D1*
X662719D2*
X917557D1*
X1080196D2*
X1095829D1*
X1476644D2*
X1498450D1*
X1995745D2*
X2041593D1*
X2142726D2*
X2765915D1*
X3098932D2*
X3135056D1*
X3347682D2*
X3808279D1*
X443718Y2132289D2*
X577159D1*
X755552D2*
X932484D1*
X1080196D2*
X1093856D1*
X1312689D2*
X1397292D1*
X1460102D2*
X1481584D1*
X1610062D2*
X1781612D1*
X1995745D2*
X2016725D1*
X2117859D2*
X2194065D1*
X2263333D2*
X2496461D1*
X2690965D2*
X2765700D1*
X3068287D2*
X3090703D1*
X3217924D2*
X3229718D1*
X3347682D2*
X3808279D1*
X443718Y2107420D2*
X590006D1*
X771771D2*
X853216D1*
X1080196D2*
X1091882D1*
X1312689D2*
X1481225D1*
X1585194D2*
X1781540D1*
X1995386D2*
X2007216D1*
X2276862D2*
X2483722D1*
X2703668D2*
X2765700D1*
X3037642D2*
X3046366D1*
X3176012D2*
X3229718D1*
X3347682D2*
X3808279D1*
X443718Y2082552D2*
X548954D1*
X772704D2*
X853216D1*
X1080196D2*
X1089917D1*
X1312689D2*
X1497553D1*
X1559860D2*
X1794243D1*
X1978736D2*
X2007216D1*
X2274780D2*
X2483184D1*
X2704242D2*
X2765700D1*
X3131695D2*
X3229718D1*
X3347682D2*
X3808279D1*
X443718Y2057683D2*
X517627D1*
X772704D2*
X853216D1*
X1080196D2*
X1087950D1*
X1312689D2*
X1863930D1*
X1968581D2*
X2007216D1*
X2253106D2*
X2355866D1*
X2411535D2*
X2494344D1*
X2702699D2*
X2765700D1*
X3347682D2*
X3808279D1*
X443718Y2032814D2*
X492760D1*
X772704D2*
X853216D1*
X1327833D2*
X1471967D1*
X2080934D2*
X2336920D1*
X2430482D2*
X2507190D1*
X2702699D2*
X2765700D1*
X3043025D2*
X3065404D1*
X3347682D2*
X3808279D1*
X443718Y2007945D2*
X467892D1*
X772704D2*
X867103D1*
X1352700D2*
X1457434D1*
X2087680D2*
X2335987D1*
X2431989D2*
X2507190D1*
X2702699D2*
X2765700D1*
X3021710D2*
X3040573D1*
X3356832D2*
X3808279D1*
X579504Y1983077D2*
X684704D1*
X772704D2*
X854652D1*
X1375774D2*
X1457219D1*
X2080001D2*
X2351309D1*
X2431415D2*
X2507190D1*
X2702699D2*
X2765700D1*
X3457846D2*
X3808279D1*
X554636Y1958208D2*
X684704D1*
X772704D2*
X854472D1*
X1382699D2*
X1457219D1*
X1530183D2*
X2364838D1*
X2430805D2*
X2507190D1*
X2702699D2*
X2765700D1*
X3482140D2*
X3808279D1*
X542687Y1933339D2*
X684704D1*
X772704D2*
X866493D1*
X1266686D2*
X1284724D1*
X1382699D2*
X1457219D1*
X1530183D2*
X2364227D1*
X2430231D2*
X2507190D1*
X2702699D2*
X2765700D1*
X3142209D2*
X3266679D1*
X3495417D2*
X3808279D1*
X542687Y1908470D2*
X684704D1*
X775108D2*
X855728D1*
X1266686D2*
X1284724D1*
X1382699D2*
X1457219D1*
X1530183D2*
X1801743D1*
X1875640D2*
X2363653D1*
X2429656D2*
X2507190D1*
X2702699D2*
X2765700D1*
X3142209D2*
X3275686D1*
X3501697D2*
X3808279D1*
X542687Y1883602D2*
X685960D1*
X799976D2*
X853754D1*
X1266686D2*
X1284724D1*
X1382699D2*
X1457219D1*
X1530183D2*
X1783334D1*
X1945758D2*
X2363079D1*
X2429082D2*
X2497609D1*
X2702699D2*
X2765700D1*
X3142209D2*
X3275183D1*
X3502235D2*
X3808279D1*
X542687Y1858733D2*
X702503D1*
X824844D2*
X863371D1*
X1266686D2*
X1284724D1*
X1382699D2*
X1457219D1*
X1530183D2*
X1779925D1*
X1960578D2*
X2362505D1*
X2428508D2*
X2484045D1*
X2703345D2*
X2765700D1*
X3142209D2*
X3280351D1*
X3497067D2*
X3808279D1*
X542687Y1833864D2*
X727370D1*
X844724D2*
X905141D1*
X1266686D2*
X1284724D1*
X1382699D2*
X1457219D1*
X1530183D2*
X1788215D1*
X1959287D2*
X2361931D1*
X2427934D2*
X2482932D1*
X2704458D2*
X2765700D1*
X3142209D2*
X3292121D1*
X3485262D2*
X3808279D1*
X542687Y1808995D2*
X752238D1*
X869591D2*
X947843D1*
X1266686D2*
X1284724D1*
X1382699D2*
X1457219D1*
X1530183D2*
X1822089D1*
X1855294D2*
X1879719D1*
X1945686D2*
X2328020D1*
X2427360D2*
X2477729D1*
X3142209D2*
X3313687D1*
X3463695D2*
X3808279D1*
X542687Y1784127D2*
X772082D1*
X894459D2*
X952221D1*
X1266686D2*
X1284724D1*
X1382699D2*
X1457219D1*
X1530183D2*
X1879719D1*
X1945686D2*
X2307351D1*
X2426786D2*
X2443567D1*
X3142209D2*
X3365612D1*
X3411807D2*
X3808279D1*
X542687Y1759258D2*
X796950D1*
X919327D2*
X958321D1*
X1266686D2*
X1284724D1*
X1382699D2*
X1457219D1*
X1530183D2*
X1879719D1*
X2133755D2*
X2293679D1*
X2426212D2*
X2435709D1*
X3142209D2*
X3808279D1*
X542687Y1734389D2*
X821817D1*
X944195D2*
X982435D1*
X1266686D2*
X1284724D1*
X1382699D2*
X1457219D1*
X1530183D2*
X1583782D1*
X2425637D2*
X2435709D1*
X3142209D2*
X3216405D1*
X3281009D2*
X3808279D1*
X542687Y1709520D2*
X846685D1*
X961240D2*
X990186D1*
X1266686D2*
X1284724D1*
X1382699D2*
X1457219D1*
X1530183D2*
X1562682D1*
X2425027D2*
X2435709D1*
X2526687D2*
X2583910D1*
X3142209D2*
X3200975D1*
X3296403D2*
X3808279D1*
X542687Y1684651D2*
X871553D1*
X962675D2*
X990186D1*
X1266686D2*
X1284724D1*
X1530183D2*
X1560709D1*
X2414800D2*
X2435709D1*
X2526687D2*
X2559043D1*
X3142209D2*
X3153321D1*
X3334081D2*
X3353303D1*
X3434091D2*
X3527700D1*
X3659695D2*
X3808279D1*
X542687Y1659783D2*
X874711D1*
X962675D2*
X1070710D1*
X1266686D2*
X1284724D1*
X1530183D2*
X1560709D1*
X2399873D2*
X2435709D1*
X3454078D2*
X3527700D1*
X3659695D2*
X3808279D1*
X542687Y1634914D2*
X854041D1*
X962531D2*
X1048821D1*
X1266686D2*
X1285190D1*
X1530183D2*
X1560709D1*
X2401523D2*
X2435709D1*
X2949834D2*
X2990694D1*
X3459676D2*
X3527700D1*
X3659695D2*
X3808279D1*
X542687Y1610045D2*
X844747D1*
X951192D2*
X989145D1*
X1530183D2*
X1560709D1*
X2390973D2*
X2435709D1*
X2951556D2*
X2990694D1*
X3455119D2*
X3527700D1*
X3659695D2*
X3808279D1*
X542687Y1585176D2*
X698986D1*
X932676D2*
X951252D1*
X1347856D2*
X1457219D1*
X1530183D2*
X1560709D1*
X1626676D2*
X1710705D1*
X1976690D2*
X2052250D1*
X2941078D2*
X2975550D1*
X3337132D2*
X3350253D1*
X3437141D2*
X3527700D1*
X3659695D2*
X3808279D1*
X542687Y1560308D2*
X674118D1*
X1372724D2*
X1434002D1*
X1528963D2*
X1560709D1*
X1626676D2*
X1710705D1*
X2676683D2*
X2715713D1*
X2912371D2*
X2970706D1*
X3185485D2*
X3209695D1*
X3275698D2*
X3808279D1*
X542687Y1535439D2*
X651691D1*
X1535710D2*
X1551702D1*
X1635683D2*
X1651711D1*
X1879049D2*
X1910723D1*
X2917681D2*
X2970706D1*
X3036709D2*
X3050225D1*
X3192195D2*
X3209695D1*
X3275698D2*
X3808279D1*
X551119Y1510570D2*
X636260D1*
X1877686D2*
X1910723D1*
X3036709D2*
X3075093D1*
X3288114D2*
X3808279D1*
X553093Y1485701D2*
X634287D1*
X1876681D2*
X1910723D1*
X3036709D2*
X3075165D1*
X3291164D2*
X3808279D1*
X543332Y1460833D2*
X644083D1*
X1876681D2*
X1910723D1*
X3036709D2*
X3075165D1*
X3192231D2*
X3206358D1*
X3279035D2*
X3808279D1*
X443718Y1435964D2*
X552255D1*
X635124D2*
X1000880D1*
X1458487D2*
X1695382D1*
X1782019D2*
X1810714D1*
X1876681D2*
X1910723D1*
X1976690D2*
X2005816D1*
X2335138D2*
X2395806D1*
X2687305D2*
X2819705D1*
X3036709D2*
X3075165D1*
X3192231D2*
X3808279D1*
X443718Y1411095D2*
X536431D1*
X1433619D2*
X1587120D1*
X1630300D2*
X1689784D1*
X1787617D2*
X1810714D1*
X1876681D2*
X1910723D1*
X1976690D2*
X2030899D1*
X2350962D2*
X2420673D1*
X2676073D2*
X2823186D1*
X3036709D2*
X3075165D1*
X3213044D2*
X3808279D1*
X443718Y1386226D2*
X534242D1*
X1362353D2*
X1563149D1*
X1876681D2*
X1910723D1*
X1976690D2*
X2234219D1*
X2353187D2*
X2528039D1*
X2671695D2*
X2832408D1*
X3036709D2*
X3079902D1*
X3237912D2*
X3808279D1*
X443718Y1361357D2*
X543715D1*
X1387221D2*
X1438846D1*
X1976690D2*
X2243692D1*
X2343678D2*
X2505575D1*
X2671695D2*
X2808187D1*
X3036709D2*
X3099315D1*
X3262780D2*
X3808279D1*
X443718Y1336489D2*
X585843D1*
X601549D2*
X1289747D1*
X1412089D2*
X1429803D1*
X1976690D2*
X2252843D1*
X2334563D2*
X2483148D1*
X2671695D2*
X2797242D1*
X3036709D2*
X3124183D1*
X3571635D2*
X3808279D1*
X443718Y1311620D2*
X1314615D1*
X2211947D2*
X2236587D1*
X2350783D2*
X2460684D1*
X2577499D2*
X2605728D1*
X2671695D2*
X2792218D1*
X3036709D2*
X3149051D1*
X3597328D2*
X3808279D1*
X443718Y1286751D2*
X471695D1*
X559696D2*
X1339483D1*
X2353223D2*
X2438221D1*
X2555036D2*
X2605728D1*
X2671695D2*
X2791178D1*
X3036709D2*
X3173918D1*
X3622196D2*
X3808279D1*
X443718Y1261882D2*
X454097D1*
X577315D2*
X1364351D1*
X2532572D2*
X2601781D1*
X2671695D2*
X2766310D1*
X3036709D2*
X3198355D1*
X3646776D2*
X3808279D1*
X581657Y1237014D2*
X2164209D1*
X2510109D2*
X2576877D1*
X2667030D2*
X2741442D1*
X3036709D2*
X3449401D1*
X3660125D2*
X3808279D1*
X443718Y1212145D2*
X455531D1*
X575879D2*
X1137275D1*
X1985123D2*
X2148528D1*
X2643275D2*
X2716574D1*
X3036709D2*
X3503730D1*
X3662709D2*
X3808279D1*
X443718Y1187276D2*
X462760D1*
X568631D2*
X1129704D1*
X1992695D2*
X2145155D1*
X2618407D2*
X2691707D1*
X3036709D2*
X3451303D1*
X3662709D2*
X3808279D1*
X443718Y1162407D2*
X451229D1*
X580185D2*
X1136558D1*
X2616936D2*
X2666839D1*
X3036709D2*
X3435155D1*
X3662709D2*
X3808279D1*
X580688Y1137539D2*
X1314723D1*
X2815986D2*
X2833700D1*
X3034592D2*
X3432428D1*
X3662709D2*
X3808279D1*
X443718Y1112670D2*
X460930D1*
X570497D2*
X1322689D1*
X2791118D2*
X2833700D1*
X3010837D2*
X3440897D1*
X3662709D2*
X3808279D1*
X443718Y1087801D2*
X495236D1*
X536156D2*
X2556674D1*
X2766250D2*
X2833700D1*
X2967704D2*
X3454712D1*
X3662709D2*
X3808279D1*
X443718Y1062932D2*
X704512D1*
X782895D2*
X804521D1*
X882869D2*
X904531D1*
X982878D2*
X2567368D1*
X2741382D2*
X2833700D1*
X2967704D2*
X3454712D1*
X3662709D2*
X3808279D1*
X443718Y1038064D2*
X687108D1*
X1000318D2*
X2254673D1*
X2332733D2*
X2542500D1*
X2716515D2*
X2833700D1*
X3197506D2*
X3454712D1*
X3662709D2*
X3808279D1*
X443718Y1013195D2*
X683986D1*
X1003404D2*
X2237162D1*
X2691647D2*
X2833700D1*
X3222446D2*
X3454712D1*
X3662709D2*
X3808279D1*
X443718Y988326D2*
X692419D1*
X994971D2*
X2234004D1*
X2666779D2*
X2833700D1*
X3247314D2*
X3443301D1*
X3662709D2*
X3808279D1*
X443718Y963457D2*
X725397D1*
X762011D2*
X825370D1*
X862020D2*
X925379D1*
X962029D2*
X1215144D1*
X2641911D2*
X2833700D1*
X3272181D2*
X3432930D1*
X3662709D2*
X3808279D1*
X443718Y938588D2*
X555342D1*
X632074D2*
X655315D1*
X732083D2*
X755324D1*
X832057D2*
X855333D1*
X932066D2*
X955343D1*
X1032075D2*
X1055316D1*
X1132084D2*
X1155325D1*
X2632079D2*
X2655320D1*
X2732088D2*
X2755329D1*
X2941580D2*
X3160569D1*
X3297049D2*
X3434079D1*
X3662709D2*
X3808279D1*
X443718Y913720D2*
X537328D1*
X3094303D2*
X3185437D1*
X3321917D2*
X3447679D1*
X3662709D2*
X3808279D1*
X443718Y888851D2*
X533955D1*
X3119171D2*
X3210305D1*
X3346784D2*
X3454712D1*
X3662709D2*
X3808279D1*
X443718Y863982D2*
X542028D1*
X3144039D2*
X3235173D1*
X3371652D2*
X3454712D1*
X3662709D2*
X3808279D1*
X443718Y839113D2*
X573248D1*
X714141D2*
X773266D1*
X814150D2*
X873240D1*
X914160D2*
X973249D1*
X1014133D2*
X1073258D1*
X1114142D2*
X1173267D1*
X1214151D2*
X1273241D1*
X1314161D2*
X1373250D1*
X1414134D2*
X1473259D1*
X1514143D2*
X1573268D1*
X1614152D2*
X1673242D1*
X1714162D2*
X1773251D1*
X1814135D2*
X1873260D1*
X1914144D2*
X1973233D1*
X2014153D2*
X2029105D1*
X2959235D2*
X3077677D1*
X3168907D2*
X3260040D1*
X3392967D2*
X3454712D1*
X3662709D2*
X3808279D1*
X443718Y814245D2*
X602529D1*
X693795D2*
X2038435D1*
X3053754D2*
X3102545D1*
X3193774D2*
X3284908D1*
X3397704D2*
X3454712D1*
X3662709D2*
X3808279D1*
X443718Y789376D2*
X627397D1*
X718663D2*
X2052825D1*
X3092509D2*
X3127412D1*
X3218642D2*
X3299692D1*
X3397704D2*
X3453707D1*
X3662709D2*
X3808279D1*
X443718Y764507D2*
X652265D1*
X878455D2*
X908944D1*
X978464D2*
X1008954D1*
X1078437D2*
X1108963D1*
X1178447D2*
X1208936D1*
X1278456D2*
X1308945D1*
X1378465D2*
X1408955D1*
X1478438D2*
X1608937D1*
X1678457D2*
X1708946D1*
X1778430D2*
X1808956D1*
X1878439D2*
X1908965D1*
X2102213D2*
X2115299D1*
X3278461D2*
X3299692D1*
X3397704D2*
X3435909D1*
X3662709D2*
X3808279D1*
X443718Y739638D2*
X677132D1*
X1498175D2*
X1589237D1*
X2102213D2*
X2169915D1*
X3397704D2*
X3432249D1*
X3662565D2*
X3808279D1*
X443718Y714770D2*
X685171D1*
X1502086D2*
X1585325D1*
X2102213D2*
X2224530D1*
X3397704D2*
X3439677D1*
X3656070D2*
X3808279D1*
X443718Y689901D2*
X685171D1*
X1494263D2*
X1593148D1*
X2102213D2*
X2279146D1*
X2594257D2*
X2685176D1*
X3397704D2*
X3466769D1*
X3520643D2*
X3552138D1*
X3635257D2*
X3808279D1*
X443718Y665032D2*
X685171D1*
X3397561D2*
X3808279D1*
X443718Y640163D2*
X485726D1*
X616608D2*
X689441D1*
X3387908D2*
X3635353D1*
X3766235D2*
X3808279D1*
X443718Y615295D2*
X460536D1*
X641835D2*
X685278D1*
X3363542D2*
X3610162D1*
X3791425D2*
X3808279D1*
X655363Y590426D2*
X692850D1*
X3294573D2*
X3596598D1*
X661714Y565557D2*
X723495D1*
X763913D2*
X823468D1*
X863922D2*
X923477D1*
X963931D2*
X1023487D1*
X1063904D2*
X1123496D1*
X1163914D2*
X1223469D1*
X1263923D2*
X1323478D1*
X1363932D2*
X1423488D1*
X1463905D2*
X1623470D1*
X1663924D2*
X1723479D1*
X1763933D2*
X1823489D1*
X1863906D2*
X1923462D1*
X1963916D2*
X2023471D1*
X2063925D2*
X2323463D1*
X2363917D2*
X2423472D1*
X2463926D2*
X2523482D1*
X2563935D2*
X2723464D1*
X2763918D2*
X2823473D1*
X2863927D2*
X2923483D1*
X2963936D2*
X3023492D1*
X3063909D2*
X3123465D1*
X3163919D2*
X3223474D1*
X3263928D2*
X3590247D1*
X662181Y540688D2*
X3589816D1*
X656762Y515819D2*
X3595199D1*
X644526Y490951D2*
X3607435D1*
X621775Y466082D2*
X3630186D1*
X556215Y441213D2*
X3695746D1*
X2824720Y2397199D2*
Y2387680D1*
X2803369D1*
X2808312Y2383312D1*
X2814021Y2376628D1*
X2818693Y2368961D1*
X2823379Y2376628D1*
X2829088Y2383312D1*
X2835772Y2389021D1*
X2843439Y2393693D1*
X2837530Y2397205D1*
X2824742Y2397208D1*
X3118693Y2418439D2*
X3114021Y2410772D1*
X3108312Y2404088D1*
X3101628Y2398379D1*
X3093961Y2393707D1*
X3101628Y2389021D1*
X3108312Y2383312D1*
X3114021Y2376628D1*
X3118693Y2368961D1*
X3123379Y2376628D1*
X3129088Y2383312D1*
X3135772Y2389021D1*
X3143439Y2393693D1*
X3135772Y2398379D1*
X3129088Y2404088D1*
X3123379Y2410772D1*
X3118707Y2418439D1*
X3199870Y2397205D2*
X3193961Y2393707D1*
X3201628Y2389021D1*
X3208312Y2383312D1*
X3214021Y2376628D1*
X3218693Y2368961D1*
X3223379Y2376628D1*
X3229088Y2383312D1*
X3235772Y2389021D1*
X3243439Y2393693D1*
X3237530Y2397205D1*
X3199982Y2397208D1*
X3318693Y2418439D2*
X3314021Y2410772D1*
X3308312Y2404088D1*
X3301628Y2398379D1*
X3293961Y2393707D1*
X3301628Y2389021D1*
X3308312Y2383312D1*
X3312670Y2378341D1*
X3312680Y2399720D1*
X3334032D1*
X3329088Y2404088D1*
X3323379Y2410772D1*
X3318707Y2418439D1*
X2071867Y2499720D2*
X2174720D1*
Y2490210D1*
X2187418Y2490192D1*
X2193268Y2493614D1*
X2201389Y2496978D1*
X2209937Y2499030D1*
X2218700Y2499720D1*
X2227463Y2499030D1*
X2236011Y2496978D1*
X2244132Y2493614D1*
X2249870Y2490195D1*
X2287418Y2490192D1*
X2293268Y2493614D1*
X2301389Y2496978D1*
X2309937Y2499030D1*
X2318700Y2499720D1*
X2327463Y2499030D1*
X2336011Y2496978D1*
X2344132Y2493614D1*
X2349870Y2490195D1*
X2387418Y2490192D1*
X2393268Y2493614D1*
X2401389Y2496978D1*
X2409937Y2499030D1*
X2418700Y2499720D1*
X2427463Y2499030D1*
X2436011Y2496978D1*
X2444132Y2493614D1*
X2451628Y2489021D1*
X2458312Y2483312D1*
X2464021Y2476628D1*
X2468614Y2469132D1*
X2471978Y2461011D1*
X2474030Y2452463D1*
X2474720Y2443700D1*
X2474030Y2434937D1*
X2471978Y2426389D1*
X2468614Y2418268D1*
X2464021Y2410772D1*
X2458312Y2404088D1*
X2451628Y2398379D1*
X2443961Y2393707D1*
X2451628Y2389021D1*
X2458312Y2383312D1*
X2464021Y2376628D1*
X2468614Y2369132D1*
X2471978Y2361011D1*
X2474030Y2352463D1*
X2474720Y2343700D1*
X2474030Y2334937D1*
X2471978Y2326389D1*
X2468614Y2318268D1*
X2464021Y2310772D1*
X2458312Y2304088D1*
X2451628Y2298379D1*
X2444132Y2293786D1*
X2436011Y2290422D1*
X2427463Y2288370D1*
X2418700Y2287680D1*
X2409937Y2288370D1*
X2401389Y2290422D1*
X2393268Y2293786D1*
X2385772Y2298379D1*
X2379088Y2304088D1*
X2373379Y2310772D1*
X2368707Y2318439D1*
X2364021Y2310772D1*
X2358312Y2304088D1*
X2351628Y2298379D1*
X2344132Y2293786D1*
X2336011Y2290422D1*
X2327463Y2288370D1*
X2318700Y2287680D1*
X2309937Y2288370D1*
X2301389Y2290422D1*
X2293268Y2293786D1*
X2285772Y2298379D1*
X2279088Y2304088D1*
X2273379Y2310772D1*
X2268707Y2318439D1*
X2264021Y2310772D1*
X2258312Y2304088D1*
X2251628Y2298379D1*
X2244132Y2293786D1*
X2236011Y2290422D1*
X2227463Y2288370D1*
X2218700Y2287680D1*
X2209937Y2288370D1*
X2205474Y2289270D1*
X2205362Y2233807D1*
X2204527Y2228539D1*
X2202879Y2223466D1*
X2200457Y2218713D1*
X2197322Y2214398D1*
X2156536Y2173464D1*
X2095004Y2111932D1*
X2184115Y2111922D1*
X2187275Y2119807D1*
X2191087Y2126027D1*
X2195825Y2131575D1*
X2201373Y2136313D1*
X2207593Y2140125D1*
X2214333Y2142917D1*
X2221427Y2144620D1*
X2228700Y2145192D1*
X2235973Y2144620D1*
X2243067Y2142917D1*
X2249807Y2140125D1*
X2256027Y2136313D1*
X2261575Y2131575D1*
X2266313Y2126027D1*
X2270125Y2119807D1*
X2272917Y2113067D1*
X2274620Y2105973D1*
X2275192Y2098700D1*
X2274620Y2091427D1*
X2272917Y2084333D1*
X2270125Y2077593D1*
X2266313Y2071373D1*
X2261575Y2065825D1*
X2256027Y2061087D1*
X2249807Y2057275D1*
X2243067Y2054483D1*
X2235973Y2052780D1*
X2230225Y2052268D1*
X2225691Y2048947D1*
X2220938Y2046525D1*
X2215865Y2044877D1*
X2210597Y2044042D1*
X2152812Y2043937D1*
X2077706D1*
X2077692Y2034043D1*
X2081653Y2026492D1*
X2083908Y2019553D1*
X2085049Y2012348D1*
Y2005052D1*
X2083908Y1997847D1*
X2081653Y1990908D1*
X2078341Y1984408D1*
X2074053Y1978506D1*
X2068894Y1973347D1*
X2062992Y1969059D1*
X2056492Y1965747D1*
X2049553Y1963492D1*
X2042348Y1962351D1*
X2035052D1*
X2027847Y1963492D1*
X2020908Y1965747D1*
X2014408Y1969059D1*
X2008506Y1973347D1*
X2003347Y1978506D1*
X1998801Y1984868D1*
X1993575Y1978628D1*
X1988027Y1973890D1*
X1981807Y1970078D1*
X1975067Y1967287D1*
X1967973Y1965583D1*
X1960700Y1965011D1*
X1953427Y1965583D1*
X1946333Y1967287D1*
X1939593Y1970078D1*
X1933373Y1973890D1*
X1929029Y1977515D1*
X1527686Y1977511D1*
X1527587Y1566753D1*
X1526753Y1561485D1*
X1525105Y1556412D1*
X1522683Y1551660D1*
X1519541Y1547337D1*
X1519787Y1544899D1*
X1527475Y1540188D1*
X1534332Y1534332D1*
X1540188Y1527475D1*
X1543667Y1521986D1*
X1547212Y1527475D1*
X1553068Y1534332D1*
X1559925Y1540188D1*
X1563222Y1542391D1*
X1563302Y1701092D1*
X1564050Y1705818D1*
X1565529Y1710369D1*
X1567701Y1714632D1*
X1570514Y1718503D1*
X1589897Y1737886D1*
X1593768Y1740699D1*
X1598031Y1742871D1*
X1602582Y1744350D1*
X1607308Y1745098D1*
X1683191Y1745192D1*
X1882384D1*
X1882208Y1767073D1*
Y1813471D1*
X1877347Y1818380D1*
X1875389Y1820743D1*
X1868217Y1815533D1*
X1860319Y1811508D1*
X1851888Y1808769D1*
X1843132Y1807382D1*
X1834268D1*
X1825512Y1808769D1*
X1817081Y1811508D1*
X1809183Y1815533D1*
X1802011Y1820743D1*
X1795743Y1827011D1*
X1790533Y1834183D1*
X1786508Y1842081D1*
X1783769Y1850512D1*
X1782382Y1859268D1*
Y1868132D1*
X1783769Y1876888D1*
X1786508Y1885319D1*
X1790533Y1893217D1*
X1795743Y1900389D1*
X1802011Y1906657D1*
X1809183Y1911867D1*
X1817081Y1915892D1*
X1825512Y1918631D1*
X1834268Y1920018D1*
X1843132D1*
X1851888Y1918631D1*
X1860319Y1915892D1*
X1868217Y1911867D1*
X1875389Y1906657D1*
X1881657Y1900389D1*
X1886867Y1893217D1*
X1889303Y1888765D1*
X1894908Y1891527D1*
X1901847Y1893782D1*
X1909052Y1894923D1*
X1916348D1*
X1923553Y1893782D1*
X1930492Y1891527D1*
X1936992Y1888215D1*
X1942894Y1883927D1*
X1948053Y1878768D1*
X1952341Y1872866D1*
X1955653Y1866366D1*
X1957908Y1859427D1*
X1959049Y1852222D1*
Y1844926D1*
X1957908Y1837721D1*
X1955653Y1830782D1*
X1952341Y1824282D1*
X1948053Y1818380D1*
X1943198Y1813502D1*
X1943192Y1779210D1*
X2101092Y1779098D1*
X2105818Y1778350D1*
X2110369Y1776871D1*
X2114632Y1774699D1*
X2118503Y1771886D1*
X2155404Y1735118D1*
X2160825Y1741575D1*
X2166373Y1746313D1*
X2172593Y1750125D1*
X2179333Y1752917D1*
X2186427Y1754620D1*
X2193700Y1755192D1*
X2200973Y1754620D1*
X2208067Y1752917D1*
X2214807Y1750125D1*
X2221027Y1746313D1*
X2225371Y1742688D1*
X2279643Y1742692D1*
X2307243Y1770315D1*
X2307780Y1775973D1*
X2309483Y1783067D1*
X2312275Y1789807D1*
X2316087Y1796027D1*
X2320825Y1801575D1*
X2326373Y1806313D1*
X2332593Y1810125D1*
X2339333Y1812917D1*
X2346427Y1814620D1*
X2353700Y1815192D1*
X2360973Y1814620D1*
X2363980Y1814022D1*
X2367712Y1975062D1*
X2362593Y1977275D1*
X2356373Y1981087D1*
X2350825Y1985825D1*
X2346087Y1991373D1*
X2342275Y1997593D1*
X2339483Y2004333D1*
X2337780Y2011427D1*
X2337208Y2018700D1*
X2337780Y2025973D1*
X2339483Y2033067D1*
X2342275Y2039807D1*
X2346087Y2046027D1*
X2350825Y2051575D1*
X2356373Y2056313D1*
X2362593Y2060125D1*
X2369333Y2062917D1*
X2376427Y2064620D1*
X2383700Y2065192D1*
X2390973Y2064620D1*
X2398067Y2062917D1*
X2404807Y2060125D1*
X2411027Y2056313D1*
X2416575Y2051575D1*
X2421313Y2046027D1*
X2425125Y2039807D1*
X2427917Y2033067D1*
X2429620Y2025973D1*
X2430192Y2018700D1*
X2429550Y2011077D1*
X2422327Y1704313D1*
X2421469Y1699606D1*
X2419885Y1695091D1*
X2417614Y1690879D1*
X2414713Y1687075D1*
X2411252Y1683771D1*
X2407316Y1681049D1*
X2403004Y1678977D1*
X2389710Y1675637D1*
X2393614Y1669132D1*
X2396978Y1661011D1*
X2399030Y1652463D1*
X2399720Y1643700D1*
X2399030Y1634937D1*
X2396978Y1626389D1*
X2393614Y1618268D1*
X2389021Y1610772D1*
X2383312Y1604088D1*
X2376628Y1598379D1*
X2369867Y1594197D1*
X2431055Y1594192D1*
X2438200Y1601323D1*
X2438302Y1766092D1*
X2439050Y1770818D1*
X2440529Y1775369D1*
X2442701Y1779632D1*
X2445514Y1783503D1*
X2463897Y1801886D1*
X2467768Y1804699D1*
X2472031Y1806871D1*
X2476582Y1808350D1*
X2481308Y1809098D1*
X2495721Y1809192D1*
X2491049Y1816873D1*
X2487500Y1825440D1*
X2485336Y1834456D1*
X2484608Y1843700D1*
X2485336Y1852944D1*
X2487500Y1861960D1*
X2491049Y1870527D1*
X2495894Y1878433D1*
X2501916Y1885484D1*
X2508967Y1891506D1*
X2509705Y1892000D1*
X2509708Y2045333D1*
X2501916Y2051916D1*
X2495894Y2058967D1*
X2491049Y2066873D1*
X2487500Y2075440D1*
X2485336Y2084456D1*
X2484608Y2093700D1*
X2485336Y2102944D1*
X2487500Y2111960D1*
X2491049Y2120527D1*
X2495894Y2128433D1*
X2501916Y2135484D1*
X2508967Y2141506D1*
X2516873Y2146351D1*
X2525440Y2149900D1*
X2534456Y2152064D1*
X2543700Y2152792D1*
X2552944Y2152064D1*
X2561960Y2149900D1*
X2570527Y2146351D1*
X2578433Y2141506D1*
X2585484Y2135484D1*
X2591506Y2128433D1*
X2593691Y2125163D1*
X2598766Y2132077D1*
X2605323Y2138634D1*
X2612825Y2144084D1*
X2621087Y2148294D1*
X2629905Y2151159D1*
X2639064Y2152610D1*
X2648336D1*
X2657495Y2151159D1*
X2666313Y2148294D1*
X2674575Y2144084D1*
X2682077Y2138634D1*
X2688634Y2132077D1*
X2694084Y2124575D1*
X2698294Y2116313D1*
X2701159Y2107495D1*
X2702610Y2098336D1*
Y2089064D1*
X2701159Y2079905D1*
X2700190Y2076469D1*
X2700192Y1861063D1*
X2702064Y1852944D1*
X2702792Y1843700D1*
X2702064Y1834456D1*
X2699900Y1825440D1*
X2696351Y1816873D1*
X2691657Y1809193D1*
X2768226Y1809192D1*
X2768302Y2156092D1*
X2769050Y2160818D1*
X2770529Y2165369D1*
X2772701Y2169632D1*
X2775514Y2173503D1*
X2829105Y2227227D1*
X2838214Y2236336D1*
X2838208Y2296724D1*
X2832318Y2301102D1*
X2826102Y2307318D1*
X2820935Y2314430D1*
X2818614Y2318268D1*
X2814021Y2310772D1*
X2808312Y2304088D1*
X2801628Y2298379D1*
X2794132Y2293786D1*
X2786011Y2290422D1*
X2777463Y2288370D1*
X2768700Y2287680D1*
X2759937Y2288370D1*
X2751389Y2290422D1*
X2743268Y2293786D1*
X2735772Y2298379D1*
X2729088Y2304088D1*
X2723379Y2310772D1*
X2718786Y2318268D1*
X2715422Y2326389D1*
X2713370Y2334937D1*
X2712680Y2343700D1*
X2713370Y2352463D1*
X2715422Y2361011D1*
X2718786Y2369132D1*
X2723379Y2376628D1*
X2729088Y2383312D1*
X2733969Y2387680D1*
X2712680D1*
Y2397190D1*
X2708686Y2397208D1*
X2699720Y2390533D1*
Y2287680D1*
X2587681D1*
Y2309031D1*
X2583312Y2304088D1*
X2576628Y2298379D1*
X2569132Y2293786D1*
X2561011Y2290422D1*
X2552463Y2288370D1*
X2543700Y2287680D1*
X2534937Y2288370D1*
X2526389Y2290422D1*
X2518268Y2293786D1*
X2510772Y2298379D1*
X2504088Y2304088D1*
X2498379Y2310772D1*
X2493786Y2318268D1*
X2490422Y2326389D1*
X2488370Y2334937D1*
X2487680Y2343700D1*
X2488370Y2352463D1*
X2490422Y2361011D1*
X2493786Y2369132D1*
X2498379Y2376628D1*
X2504088Y2383312D1*
X2509059Y2387670D1*
X2487680Y2387680D1*
Y2499720D1*
X2599720D1*
Y2490210D1*
X2612418Y2490192D1*
X2618268Y2493614D1*
X2626389Y2496978D1*
X2634937Y2499030D1*
X2643700Y2499720D1*
X2652463Y2499030D1*
X2661011Y2496978D1*
X2669132Y2493614D1*
X2674870Y2490195D1*
X2712683Y2490192D1*
X2712680Y2499720D1*
X2824720D1*
Y2490210D1*
X2837418Y2490192D1*
X2843268Y2493614D1*
X2851389Y2496978D1*
X2859937Y2499030D1*
X2868700Y2499720D1*
X2877463Y2499030D1*
X2886011Y2496978D1*
X2894132Y2493614D1*
X2899870Y2490195D1*
X2937418Y2490192D1*
X2943268Y2493614D1*
X2951389Y2496978D1*
X2959937Y2499030D1*
X2968700Y2499720D1*
X2977463Y2499030D1*
X2986011Y2496978D1*
X2994132Y2493614D1*
X2999870Y2490195D1*
X3037418Y2490192D1*
X3043268Y2493614D1*
X3051389Y2496978D1*
X3059937Y2499030D1*
X3068700Y2499720D1*
X3077463Y2499030D1*
X3086011Y2496978D1*
X3094132Y2493614D1*
X3101628Y2489021D1*
X3108312Y2483312D1*
X3114021Y2476628D1*
X3118693Y2468961D1*
X3123379Y2476628D1*
X3129088Y2483312D1*
X3135772Y2489021D1*
X3143268Y2493614D1*
X3151389Y2496978D1*
X3159937Y2499030D1*
X3168700Y2499720D1*
X3177463Y2499030D1*
X3186011Y2496978D1*
X3194132Y2493614D1*
X3199870Y2490195D1*
X3237418Y2490192D1*
X3243268Y2493614D1*
X3251389Y2496978D1*
X3259937Y2499030D1*
X3268700Y2499720D1*
X3277463Y2499030D1*
X3286011Y2496978D1*
X3294132Y2493614D1*
X3301628Y2489021D1*
X3308312Y2483312D1*
X3314021Y2476628D1*
X3318693Y2468961D1*
X3323379Y2476628D1*
X3329088Y2483312D1*
X3335772Y2489021D1*
X3343268Y2493614D1*
X3351389Y2496978D1*
X3359937Y2499030D1*
X3368700Y2499720D1*
X3377463Y2499030D1*
X3386011Y2496978D1*
X3394132Y2493614D1*
X3401628Y2489021D1*
X3408312Y2483312D1*
X3414021Y2476628D1*
X3418614Y2469132D1*
X3421978Y2461011D1*
X3424030Y2452463D1*
X3424720Y2443700D1*
X3424030Y2434937D1*
X3421978Y2426389D1*
X3418614Y2418268D1*
X3414021Y2410772D1*
X3408312Y2404088D1*
X3403341Y2399730D1*
X3424720Y2399720D1*
Y2187680D1*
X3345165D1*
X3345192Y2017116D1*
X3360693Y2001599D1*
X3371259Y2003819D1*
X3379952Y2004848D1*
X3388700Y2005192D1*
X3397448Y2004848D1*
X3406141Y2003819D1*
X3414727Y2002112D1*
X3423153Y1999735D1*
X3431366Y1996705D1*
X3439316Y1993040D1*
X3446954Y1988763D1*
X3454233Y1983899D1*
X3461108Y1978479D1*
X3467537Y1972537D1*
X3473479Y1966108D1*
X3478899Y1959233D1*
X3483763Y1951954D1*
X3488040Y1944316D1*
X3491705Y1936366D1*
X3494735Y1928153D1*
X3497112Y1919727D1*
X3498819Y1911141D1*
X3499848Y1902448D1*
X3500192Y1893700D1*
X3499848Y1884952D1*
X3498819Y1876259D1*
X3497112Y1867673D1*
X3494735Y1859247D1*
X3491705Y1851034D1*
X3488040Y1843084D1*
X3483763Y1835446D1*
X3478899Y1828167D1*
X3473479Y1821292D1*
X3467537Y1814863D1*
X3461108Y1808921D1*
X3454233Y1803501D1*
X3446954Y1798637D1*
X3439316Y1794360D1*
X3431366Y1790695D1*
X3423153Y1787665D1*
X3414727Y1785288D1*
X3406141Y1783581D1*
X3397448Y1782552D1*
X3388700Y1782208D1*
X3379952Y1782552D1*
X3371259Y1783581D1*
X3362673Y1785288D1*
X3354247Y1787665D1*
X3346034Y1790695D1*
X3338084Y1794360D1*
X3330446Y1798637D1*
X3323167Y1803501D1*
X3316292Y1808921D1*
X3309863Y1814863D1*
X3303921Y1821292D1*
X3298501Y1828167D1*
X3293637Y1835446D1*
X3289360Y1843084D1*
X3285695Y1851034D1*
X3282665Y1859247D1*
X3280288Y1867673D1*
X3278581Y1876259D1*
X3277552Y1884952D1*
X3277208Y1893700D1*
X3277552Y1902448D1*
X3278581Y1911141D1*
X3280836Y1921669D1*
X3248742Y1953767D1*
X3241141Y1957208D1*
X3152112D1*
X3139745Y1944853D1*
X3139720Y1667137D1*
X3145420Y1674935D1*
X3152465Y1681980D1*
X3160525Y1687836D1*
X3169403Y1692359D1*
X3178878Y1695438D1*
X3188718Y1696996D1*
X3198682D1*
X3202259Y1696573D1*
X3202351Y1702348D1*
X3203492Y1709553D1*
X3205747Y1716492D1*
X3209059Y1722992D1*
X3213347Y1728894D1*
X3218506Y1734053D1*
X3224408Y1738341D1*
X3230908Y1741653D1*
X3237847Y1743908D1*
X3245052Y1745049D1*
X3252348D1*
X3259553Y1743908D1*
X3266492Y1741653D1*
X3272992Y1738341D1*
X3278894Y1734053D1*
X3284053Y1728894D1*
X3288341Y1722992D1*
X3291653Y1716492D1*
X3293908Y1709553D1*
X3295049Y1702348D1*
X3295132Y1697175D1*
X3303632Y1696410D1*
X3313320Y1694085D1*
X3322525Y1690272D1*
X3331020Y1685066D1*
X3338596Y1678596D1*
X3343680Y1672778D1*
X3348804Y1678596D1*
X3356380Y1685066D1*
X3364875Y1690272D1*
X3374080Y1694085D1*
X3383768Y1696410D1*
X3393700Y1697192D1*
X3403632Y1696410D1*
X3413320Y1694085D1*
X3422525Y1690272D1*
X3431020Y1685066D1*
X3438596Y1678596D1*
X3445066Y1671020D1*
X3450272Y1662525D1*
X3454085Y1653320D1*
X3456410Y1643632D1*
X3457192Y1633700D1*
X3456410Y1623768D1*
X3454085Y1614080D1*
X3450272Y1604875D1*
X3445066Y1596380D1*
X3438596Y1588804D1*
X3431020Y1582334D1*
X3422525Y1577128D1*
X3413320Y1573315D1*
X3403632Y1570990D1*
X3393700Y1570208D1*
X3383768Y1570990D1*
X3374080Y1573315D1*
X3364875Y1577128D1*
X3356380Y1582334D1*
X3348804Y1588804D1*
X3343720Y1594622D1*
X3338596Y1588804D1*
X3331020Y1582334D1*
X3322525Y1577128D1*
X3313320Y1573315D1*
X3303632Y1570990D1*
X3293700Y1570208D1*
X3283768Y1570990D1*
X3274080Y1573315D1*
X3273185Y1573646D1*
X3273192Y1527784D1*
X3278053Y1522894D1*
X3282341Y1516992D1*
X3285653Y1510492D1*
X3287908Y1503553D1*
X3289049Y1496348D1*
Y1489052D1*
X3287908Y1481847D1*
X3285653Y1474908D1*
X3282341Y1468408D1*
X3278053Y1462506D1*
X3272894Y1457347D1*
X3266992Y1453059D1*
X3260492Y1449747D1*
X3253553Y1447492D1*
X3246348Y1446351D1*
X3239052D1*
X3231847Y1447492D1*
X3224908Y1449747D1*
X3218408Y1453059D1*
X3212506Y1457347D1*
X3207347Y1462506D1*
X3203059Y1468408D1*
X3199747Y1474908D1*
X3197492Y1481847D1*
X3196351Y1489052D1*
Y1496348D1*
X3197492Y1503553D1*
X3199747Y1510492D1*
X3203059Y1516992D1*
X3207347Y1522894D1*
X3212202Y1527772D1*
X3212208Y1572973D1*
X3203632Y1570990D1*
X3193700Y1570208D1*
X3183768Y1570990D1*
X3174080Y1573315D1*
X3172856Y1573767D1*
X3179021Y1566628D1*
X3183614Y1559132D1*
X3186978Y1551011D1*
X3189030Y1542463D1*
X3189719Y1533683D1*
X3189720Y1431897D1*
X3266409Y1355215D1*
X3498700Y1355192D1*
X3507537Y1354497D1*
X3516157Y1352427D1*
X3523483Y1349987D1*
X3533917D1*
X3544222Y1348355D1*
X3554145Y1345131D1*
X3563442Y1340394D1*
X3571883Y1334261D1*
X3588709Y1317726D1*
X3644261Y1261883D1*
X3650394Y1253442D1*
X3655131Y1244145D1*
X3658355Y1234222D1*
X3659987Y1223917D1*
X3660192Y1200327D1*
X3659987Y738483D1*
X3658355Y728178D1*
X3655131Y718255D1*
X3650394Y708958D1*
X3644261Y700517D1*
X3636883Y693139D1*
X3628442Y687006D1*
X3619145Y682269D1*
X3609222Y679045D1*
X3598917Y677413D1*
X3588483D1*
X3578178Y679045D1*
X3568255Y682269D1*
X3558958Y687006D1*
X3550517Y693139D1*
X3543139Y700517D1*
X3539080Y705855D1*
X3535484Y701916D1*
X3528433Y695894D1*
X3520527Y691049D1*
X3511960Y687500D1*
X3502944Y685336D1*
X3493700Y684608D1*
X3484456Y685336D1*
X3475440Y687500D1*
X3466873Y691049D1*
X3458967Y695894D1*
X3451916Y701916D1*
X3445894Y708967D1*
X3441049Y716873D1*
X3437500Y725440D1*
X3435336Y734456D1*
X3434608Y743700D1*
X3435336Y752944D1*
X3437500Y761960D1*
X3441049Y770527D1*
X3445894Y778433D1*
X3451916Y785484D1*
X3457216Y790126D1*
X3457208Y907224D1*
X3451916Y911916D1*
X3445894Y918967D1*
X3441049Y926873D1*
X3437500Y935440D1*
X3435336Y944456D1*
X3434608Y953700D1*
X3435336Y962944D1*
X3437500Y971960D1*
X3441049Y980527D1*
X3445894Y988433D1*
X3451916Y995484D1*
X3457216Y1000126D1*
X3457208Y1097201D1*
X3451916Y1101916D1*
X3445894Y1108967D1*
X3441049Y1116873D1*
X3437500Y1125440D1*
X3435336Y1134456D1*
X3434608Y1143700D1*
X3435336Y1152944D1*
X3437500Y1161960D1*
X3441049Y1170527D1*
X3445894Y1178433D1*
X3451916Y1185484D1*
X3458967Y1191506D1*
X3466873Y1196351D1*
X3475440Y1199900D1*
X3484456Y1202064D1*
X3493700Y1202792D1*
X3502944Y1202064D1*
X3511960Y1199900D1*
X3520527Y1196351D1*
X3523895Y1194465D1*
X3491139Y1227226D1*
X3479268Y1227382D1*
X3470512Y1228769D1*
X3462081Y1231508D1*
X3454183Y1235532D1*
X3446999Y1240755D1*
X3443582Y1242208D1*
X3239268Y1242382D1*
X3230512Y1243769D1*
X3222081Y1246508D1*
X3214183Y1250532D1*
X3207011Y1255743D1*
X3200743Y1262011D1*
X3197592Y1265584D1*
X3091102Y1372318D1*
X3085935Y1379430D1*
X3081944Y1387262D1*
X3079228Y1395622D1*
X3077853Y1404305D1*
X3077680Y1427073D1*
Y1510503D1*
X3044076Y1544101D1*
X3041623Y1544031D1*
X3037543Y1541531D1*
X3035360Y1540526D1*
X3034192Y1531955D1*
X3034098Y1146308D1*
X3033350Y1141582D1*
X3031871Y1137031D1*
X3029699Y1132768D1*
X3026886Y1128897D1*
X3023503Y1125514D1*
X3019632Y1122701D1*
X3013341Y1119408D1*
X3009053Y1113506D1*
X3003894Y1108347D1*
X2997992Y1104059D1*
X2991492Y1100747D1*
X2984553Y1098492D1*
X2977348Y1097351D1*
X2970052D1*
X2965182Y1098028D1*
X2965192Y1050180D1*
X3167348Y1050049D1*
X3174553Y1048908D1*
X3181492Y1046653D1*
X3187992Y1043341D1*
X3193894Y1039053D1*
X3216062Y1017088D1*
X3384053Y848894D1*
X3388341Y842992D1*
X3391653Y836492D1*
X3393908Y829553D1*
X3395049Y822348D1*
X3395192Y791141D1*
X3395049Y665052D1*
X3393908Y657847D1*
X3391653Y650908D1*
X3388341Y644408D1*
X3384053Y638506D1*
X3361575Y615825D1*
X3356027Y611087D1*
X3349807Y607275D1*
X3343067Y604483D1*
X3335973Y602780D1*
X3328700Y602208D1*
X3297230D1*
X3295455Y597262D1*
X3291465Y589430D1*
X3286298Y582318D1*
X3280082Y576102D1*
X3272970Y570935D1*
X3265138Y566945D1*
X3256778Y564228D1*
X3248095Y562853D1*
X3239305D1*
X3230622Y564228D1*
X3222262Y566945D1*
X3214430Y570935D1*
X3212530Y572205D1*
X3174982Y572208D1*
X3169132Y568786D1*
X3161011Y565422D1*
X3152463Y563370D1*
X3143700Y562680D1*
X3134937Y563370D1*
X3126389Y565422D1*
X3118268Y568786D1*
X3112530Y572205D1*
X3074982Y572208D1*
X3069132Y568786D1*
X3061011Y565422D1*
X3052463Y563370D1*
X3043700Y562680D1*
X3034937Y563370D1*
X3026389Y565422D1*
X3018268Y568786D1*
X3012530Y572205D1*
X2974982Y572208D1*
X2969132Y568786D1*
X2961011Y565422D1*
X2952463Y563370D1*
X2943700Y562680D1*
X2934937Y563370D1*
X2926389Y565422D1*
X2918268Y568786D1*
X2912530Y572205D1*
X2874982Y572208D1*
X2869132Y568786D1*
X2861011Y565422D1*
X2852463Y563370D1*
X2843700Y562680D1*
X2834937Y563370D1*
X2826389Y565422D1*
X2818268Y568786D1*
X2812530Y572205D1*
X2774982Y572208D1*
X2769132Y568786D1*
X2761011Y565422D1*
X2752463Y563370D1*
X2743700Y562680D1*
X2734937Y563370D1*
X2726389Y565422D1*
X2718268Y568786D1*
X2712530Y572205D1*
X2574937Y572208D1*
X2569132Y568786D1*
X2561011Y565422D1*
X2552463Y563370D1*
X2543700Y562680D1*
X2534937Y563370D1*
X2526389Y565422D1*
X2518268Y568786D1*
X2512530Y572205D1*
X2474982Y572208D1*
X2469132Y568786D1*
X2461011Y565422D1*
X2452463Y563370D1*
X2443700Y562680D1*
X2434937Y563370D1*
X2426389Y565422D1*
X2418268Y568786D1*
X2412530Y572205D1*
X2374982Y572208D1*
X2369132Y568786D1*
X2361011Y565422D1*
X2352463Y563370D1*
X2343700Y562680D1*
X2334937Y563370D1*
X2326389Y565422D1*
X2318268Y568786D1*
X2312530Y572205D1*
X2074963Y572208D1*
X2069132Y568786D1*
X2061011Y565422D1*
X2052463Y563370D1*
X2043700Y562680D1*
X2034937Y563370D1*
X2026389Y565422D1*
X2018268Y568786D1*
X2012530Y572205D1*
X1974982Y572208D1*
X1969132Y568786D1*
X1961011Y565422D1*
X1952463Y563370D1*
X1943700Y562680D1*
X1934937Y563370D1*
X1926389Y565422D1*
X1918268Y568786D1*
X1912530Y572205D1*
X1874982Y572208D1*
X1869132Y568786D1*
X1861011Y565422D1*
X1852463Y563370D1*
X1843700Y562680D1*
X1834937Y563370D1*
X1826389Y565422D1*
X1818268Y568786D1*
X1812530Y572205D1*
X1774982Y572208D1*
X1769132Y568786D1*
X1761011Y565422D1*
X1752463Y563370D1*
X1743700Y562680D1*
X1734937Y563370D1*
X1726389Y565422D1*
X1718268Y568786D1*
X1712530Y572205D1*
X1674982Y572208D1*
X1669132Y568786D1*
X1661011Y565422D1*
X1652463Y563370D1*
X1643700Y562680D1*
X1634937Y563370D1*
X1626389Y565422D1*
X1618268Y568786D1*
X1612530Y572205D1*
X1474937Y572208D1*
X1469132Y568786D1*
X1461011Y565422D1*
X1452463Y563370D1*
X1443700Y562680D1*
X1434937Y563370D1*
X1426389Y565422D1*
X1418268Y568786D1*
X1412530Y572205D1*
X1374982Y572208D1*
X1369132Y568786D1*
X1361011Y565422D1*
X1352463Y563370D1*
X1343700Y562680D1*
X1334937Y563370D1*
X1326389Y565422D1*
X1318268Y568786D1*
X1312530Y572205D1*
X1274982Y572208D1*
X1269132Y568786D1*
X1261011Y565422D1*
X1252463Y563370D1*
X1243700Y562680D1*
X1234937Y563370D1*
X1226389Y565422D1*
X1218268Y568786D1*
X1212530Y572205D1*
X1174982Y572208D1*
X1169132Y568786D1*
X1161011Y565422D1*
X1152463Y563370D1*
X1143700Y562680D1*
X1134937Y563370D1*
X1126389Y565422D1*
X1118268Y568786D1*
X1112530Y572205D1*
X1074982Y572208D1*
X1069132Y568786D1*
X1061011Y565422D1*
X1052463Y563370D1*
X1043700Y562680D1*
X1034937Y563370D1*
X1026389Y565422D1*
X1018268Y568786D1*
X1012530Y572205D1*
X974982Y572208D1*
X969132Y568786D1*
X961011Y565422D1*
X952463Y563370D1*
X943700Y562680D1*
X934937Y563370D1*
X926389Y565422D1*
X918268Y568786D1*
X912530Y572205D1*
X874982Y572208D1*
X869132Y568786D1*
X861011Y565422D1*
X852463Y563370D1*
X843700Y562680D1*
X834937Y563370D1*
X826389Y565422D1*
X818268Y568786D1*
X812530Y572205D1*
X774982Y572208D1*
X769132Y568786D1*
X761011Y565422D1*
X752463Y563370D1*
X743700Y562680D1*
X734937Y563370D1*
X726389Y565422D1*
X718268Y568786D1*
X710772Y573379D1*
X704088Y579088D1*
X698379Y585772D1*
X693786Y593268D1*
X690422Y601389D1*
X688370Y609937D1*
X687680Y618700D1*
X688370Y627463D1*
X690422Y636011D1*
X693786Y644132D1*
X698379Y651628D1*
X704088Y658312D1*
X709059Y662670D1*
X687680Y662680D1*
Y731614D1*
X581795Y837482D1*
X575943Y839050D1*
X567613Y842501D1*
X559925Y847212D1*
X553068Y853068D1*
X547212Y859925D1*
X542501Y867613D1*
X539050Y875943D1*
X536946Y884711D1*
X536238Y893700D1*
X536946Y902689D1*
X539050Y911457D1*
X542501Y919787D1*
X547212Y927475D1*
X553068Y934332D1*
X559925Y940188D1*
X567613Y944899D1*
X575943Y948350D1*
X584711Y950454D1*
X593700Y951162D1*
X602689Y950454D1*
X611457Y948350D1*
X619787Y944899D1*
X627475Y940188D1*
X634332Y934332D1*
X640188Y927475D1*
X643667Y921986D1*
X647212Y927475D1*
X653068Y934332D1*
X659925Y940188D1*
X667613Y944899D1*
X675943Y948350D1*
X684711Y950454D1*
X693700Y951162D1*
X702689Y950454D1*
X711457Y948350D1*
X719787Y944899D1*
X727475Y940188D1*
X734332Y934332D1*
X740188Y927475D1*
X743667Y921986D1*
X747212Y927475D1*
X753068Y934332D1*
X759925Y940188D1*
X767613Y944899D1*
X775943Y948350D1*
X784711Y950454D1*
X793700Y951162D1*
X802689Y950454D1*
X811457Y948350D1*
X819787Y944899D1*
X827475Y940188D1*
X834332Y934332D1*
X840188Y927475D1*
X843667Y921986D1*
X847212Y927475D1*
X853068Y934332D1*
X859925Y940188D1*
X867613Y944899D1*
X875943Y948350D1*
X884711Y950454D1*
X893700Y951162D1*
X902689Y950454D1*
X911457Y948350D1*
X919787Y944899D1*
X927475Y940188D1*
X934332Y934332D1*
X940188Y927475D1*
X943667Y921986D1*
X947212Y927475D1*
X953068Y934332D1*
X959925Y940188D1*
X967613Y944899D1*
X975943Y948350D1*
X984711Y950454D1*
X993700Y951162D1*
X1002689Y950454D1*
X1011457Y948350D1*
X1019787Y944899D1*
X1027475Y940188D1*
X1034332Y934332D1*
X1040188Y927475D1*
X1043667Y921986D1*
X1047212Y927475D1*
X1053068Y934332D1*
X1059925Y940188D1*
X1067613Y944899D1*
X1075943Y948350D1*
X1084711Y950454D1*
X1093700Y951162D1*
X1102689Y950454D1*
X1111457Y948350D1*
X1119787Y944899D1*
X1127475Y940188D1*
X1134332Y934332D1*
X1140188Y927475D1*
X1143667Y921986D1*
X1147212Y927475D1*
X1153068Y934332D1*
X1159925Y940188D1*
X1167613Y944899D1*
X1175943Y948350D1*
X1184711Y950454D1*
X1193700Y951162D1*
X1202689Y950454D1*
X1204193Y950155D1*
X1217570Y963380D1*
X1221695Y966377D1*
X1226238Y968691D1*
X1231087Y970267D1*
X1236123Y971065D1*
X1302977Y971165D1*
X2240810D1*
X2237826Y980286D1*
X2236415Y989192D1*
Y998208D1*
X2237826Y1007114D1*
X2240612Y1015690D1*
X2244706Y1023724D1*
X2250006Y1031019D1*
X2256381Y1037394D1*
X2263676Y1042694D1*
X2271710Y1046788D1*
X2280286Y1049574D1*
X2289192Y1050985D1*
X2298208D1*
X2307114Y1049574D1*
X2315690Y1046788D1*
X2323724Y1042694D1*
X2331019Y1037394D1*
X2337394Y1031019D1*
X2340024Y1027683D1*
X2534591Y1027692D1*
X2584318Y1077390D1*
X2577847Y1078492D1*
X2570908Y1080747D1*
X2564408Y1084059D1*
X2558506Y1088347D1*
X2553347Y1093506D1*
X2549059Y1099408D1*
X2545747Y1105908D1*
X2544903Y1108196D1*
X1398816Y1108208D1*
X1393894Y1103347D1*
X1387992Y1099059D1*
X1381492Y1095747D1*
X1374553Y1093492D1*
X1367348Y1092351D1*
X1360052D1*
X1352847Y1093492D1*
X1345908Y1095747D1*
X1339408Y1099059D1*
X1333506Y1103347D1*
X1328347Y1108506D1*
X1324059Y1114408D1*
X1320747Y1120908D1*
X1318492Y1127847D1*
X1317351Y1135052D1*
Y1142348D1*
X1318492Y1149553D1*
X1319379Y1152696D1*
X1210407Y1152708D1*
X1206027Y1149087D1*
X1199807Y1145275D1*
X1193067Y1142483D1*
X1185973Y1140780D1*
X1178700Y1140208D1*
X1171427Y1140780D1*
X1164333Y1142483D1*
X1157593Y1145275D1*
X1151373Y1149087D1*
X1145825Y1153825D1*
X1141087Y1159373D1*
X1137275Y1165593D1*
X1134483Y1172333D1*
X1132780Y1179427D1*
X1132208Y1186700D1*
X1132780Y1193973D1*
X1134483Y1201067D1*
X1137275Y1207807D1*
X1141087Y1214027D1*
X1145825Y1219575D1*
X1151373Y1224313D1*
X1157593Y1228125D1*
X1164333Y1230917D1*
X1171427Y1232620D1*
X1178700Y1233192D1*
X1185973Y1232620D1*
X1193067Y1230917D1*
X1199807Y1228125D1*
X1206027Y1224313D1*
X1210371Y1220688D1*
X1911993Y1220692D1*
X1916373Y1224313D1*
X1922593Y1228125D1*
X1929333Y1230917D1*
X1936427Y1232620D1*
X1943700Y1233192D1*
X1950973Y1232620D1*
X1958067Y1230917D1*
X1964807Y1228125D1*
X1971027Y1224313D1*
X1976575Y1219575D1*
X1981313Y1214027D1*
X1985125Y1207807D1*
X1987917Y1201067D1*
X1989620Y1193973D1*
X1990192Y1186700D1*
X1989620Y1179427D1*
X1987917Y1172333D1*
X1986757Y1169189D1*
X2154059Y1169408D1*
X2150747Y1175908D1*
X2148492Y1182847D1*
X2147351Y1190052D1*
Y1197348D1*
X2148492Y1204553D1*
X2150747Y1211492D1*
X2154059Y1217992D1*
X2158347Y1223894D1*
X2163506Y1229053D1*
X2170042Y1233696D1*
X2156504Y1247217D1*
X1395445Y1247336D1*
X1389014Y1248354D1*
X1382822Y1250366D1*
X1377020Y1253322D1*
X1371753Y1257149D1*
X1343378Y1285344D1*
X1281491Y1347231D1*
X627486Y1347208D1*
X619787Y1342501D1*
X611457Y1339050D1*
X602689Y1336946D1*
X593700Y1336238D1*
X584711Y1336946D1*
X575943Y1339050D1*
X567613Y1342501D1*
X559925Y1347212D1*
X553068Y1353068D1*
X547212Y1359925D1*
X542501Y1367613D1*
X539050Y1375943D1*
X536946Y1384711D1*
X536238Y1393700D1*
X536946Y1402689D1*
X539050Y1411457D1*
X542501Y1419787D1*
X547212Y1427475D1*
X553068Y1434332D1*
X559925Y1440188D1*
X567613Y1444899D1*
X575943Y1448350D1*
X584711Y1450454D1*
X593700Y1451162D1*
X602689Y1450454D1*
X611457Y1448350D1*
X619787Y1444899D1*
X627475Y1440188D1*
X634332Y1434332D1*
X638038Y1430202D1*
X1009131Y1430192D1*
X1002438Y1436890D1*
X993700Y1436238D1*
X984711Y1436946D1*
X975943Y1439050D1*
X967613Y1442501D1*
X959925Y1447212D1*
X953068Y1453068D1*
X947212Y1459925D1*
X943733Y1465414D1*
X940188Y1459925D1*
X934332Y1453068D1*
X927475Y1447212D1*
X919787Y1442501D1*
X911457Y1439050D1*
X902689Y1436946D1*
X893700Y1436238D1*
X884711Y1436946D1*
X875943Y1439050D1*
X867613Y1442501D1*
X859925Y1447212D1*
X853068Y1453068D1*
X847212Y1459925D1*
X843733Y1465414D1*
X840188Y1459925D1*
X834332Y1453068D1*
X827475Y1447212D1*
X819787Y1442501D1*
X811457Y1439050D1*
X802689Y1436946D1*
X793700Y1436238D1*
X784711Y1436946D1*
X775943Y1439050D1*
X767613Y1442501D1*
X759925Y1447212D1*
X753068Y1453068D1*
X747212Y1459925D1*
X743733Y1465414D1*
X740188Y1459925D1*
X734332Y1453068D1*
X727475Y1447212D1*
X719787Y1442501D1*
X711457Y1439050D1*
X702689Y1436946D1*
X693700Y1436238D1*
X684711Y1436946D1*
X675943Y1439050D1*
X667613Y1442501D1*
X659925Y1447212D1*
X653068Y1453068D1*
X647212Y1459925D1*
X642501Y1467613D1*
X639050Y1475943D1*
X636946Y1484711D1*
X636238Y1493700D1*
X636946Y1502689D1*
X639050Y1511457D1*
X642501Y1519787D1*
X647212Y1527475D1*
X653068Y1534332D1*
X656838Y1537754D1*
X660132Y1543088D1*
X664361Y1548039D1*
X706753Y1590251D1*
X712020Y1594078D1*
X717822Y1597034D1*
X724014Y1599046D1*
X730445Y1600064D1*
X770445Y1600192D1*
X847202D1*
X847336Y1611955D1*
X848354Y1618386D1*
X850366Y1624578D1*
X853322Y1630380D1*
X857149Y1635647D1*
X877198Y1655877D1*
X877208Y1681510D1*
X762149Y1796753D1*
X758322Y1802020D1*
X755362Y1807834D1*
X744873Y1818848D1*
X697149Y1866753D1*
X693322Y1872020D1*
X690366Y1877822D1*
X688354Y1884014D1*
X687336Y1890445D1*
X687208Y1930445D1*
Y1992992D1*
X682348Y1992351D1*
X651141Y1992208D1*
X586155D1*
X540211Y1946272D1*
X540192Y1527473D1*
X544899Y1519787D1*
X548350Y1511457D1*
X550454Y1502689D1*
X551162Y1493700D1*
X550454Y1484711D1*
X548350Y1475943D1*
X544899Y1467613D1*
X540188Y1459925D1*
X534332Y1453068D1*
X527475Y1447212D1*
X519787Y1442501D1*
X511457Y1439050D1*
X502689Y1436946D1*
X493700Y1436238D1*
X484711Y1436946D1*
X475943Y1439050D1*
X467613Y1442501D1*
X459925Y1447212D1*
X453068Y1453068D1*
X447212Y1459925D1*
X442501Y1467613D1*
X441195Y1470446D1*
X441200Y553854D1*
X444250Y526776D1*
X452351Y503623D1*
X465412Y482824D1*
X482773Y465452D1*
X503564Y452379D1*
X526743Y444261D1*
X553841Y441201D1*
X3698128Y441200D1*
X3725191Y444250D1*
X3748343Y452351D1*
X3769142Y465411D1*
X3786514Y482772D1*
X3799587Y503563D1*
X3807706Y526742D1*
X3810769Y553854D1*
X3810767Y2517011D1*
X3807717Y2544089D1*
X3799616Y2567241D1*
X3786556Y2588040D1*
X3769196Y2605411D1*
X3748405Y2618484D1*
X3725226Y2626602D1*
X3698127Y2629662D1*
X3547427Y2629663D1*
X3551886Y2625381D1*
X3554699Y2621510D1*
X3556871Y2617247D1*
X3558350Y2612696D1*
X3559098Y2607970D1*
X3559192Y2532087D1*
Y2243829D1*
X3564053Y2238894D1*
X3568341Y2232992D1*
X3571653Y2226492D1*
X3573908Y2219553D1*
X3575049Y2212348D1*
Y2205052D1*
X3573908Y2197847D1*
X3571653Y2190908D1*
X3568341Y2184408D1*
X3564053Y2178506D1*
X3558894Y2173347D1*
X3552992Y2169059D1*
X3546492Y2165747D1*
X3539553Y2163492D1*
X3532348Y2162351D1*
X3525052D1*
X3517847Y2163492D1*
X3510908Y2165747D1*
X3504408Y2169059D1*
X3498506Y2173347D1*
X3493347Y2178506D1*
X3489059Y2184408D1*
X3485747Y2190908D1*
X3483492Y2197847D1*
X3482351Y2205052D1*
Y2212348D1*
X3483492Y2219553D1*
X3485747Y2226492D1*
X3489059Y2232992D1*
X3493347Y2238894D1*
X3498202Y2243772D1*
X3498208Y2575113D1*
X1244205Y2575086D1*
X1241247Y2569408D1*
X1236958Y2563506D1*
X1231800Y2558347D1*
X1225898Y2554059D1*
X1219397Y2550747D1*
X1212459Y2548492D1*
X1205253Y2547351D1*
X1197958D1*
X1190752Y2548492D1*
X1183814Y2550747D1*
X1177313Y2554059D1*
X1171411Y2558347D1*
X1166253Y2563506D1*
X1161964Y2569408D1*
X1158652Y2575908D1*
X1156398Y2582847D1*
X1155257Y2590052D1*
Y2597348D1*
X1156398Y2604553D1*
X1158652Y2611492D1*
X1161964Y2617992D1*
X1166253Y2623894D1*
X1171411Y2629053D1*
X1172184Y2629662D1*
X553839Y2629665D1*
X526776Y2626614D1*
X503623Y2618514D1*
X482824Y2605453D1*
X465453Y2588092D1*
X452380Y2567301D1*
X444262Y2544122D1*
X441202Y2517023D1*
X441201Y1517087D1*
X444706Y1523724D1*
X447203Y1527461D1*
X447351Y1969159D1*
X448492Y1976364D1*
X450747Y1983303D1*
X454059Y1989803D1*
X458347Y1995705D1*
X480312Y2017873D1*
X536695Y2074053D1*
X542597Y2078341D1*
X549097Y2081653D1*
X556036Y2083908D1*
X563241Y2085049D1*
X594448Y2085192D1*
X603957D1*
X527040Y2234260D1*
X507208Y2234275D1*
X507351Y2372348D1*
X508492Y2379553D1*
X510747Y2386492D1*
X514059Y2392992D1*
X518347Y2398894D1*
X523506Y2404053D1*
X529408Y2408341D1*
X535922Y2411658D1*
X525737Y2413704D1*
X517500Y2416027D1*
X509471Y2418989D1*
X501699Y2422572D1*
X494232Y2426753D1*
X487116Y2431508D1*
X480396Y2436806D1*
X474111Y2442615D1*
X468302Y2448900D1*
X463004Y2455620D1*
X458249Y2462736D1*
X454068Y2470203D1*
X450485Y2477975D1*
X447523Y2486004D1*
X445200Y2494241D1*
X443530Y2502634D1*
X442524Y2511133D1*
X442188Y2519684D1*
X442524Y2528236D1*
X443530Y2536734D1*
X445200Y2545128D1*
X447523Y2553365D1*
X450485Y2561394D1*
X454068Y2569166D1*
X458249Y2576632D1*
X463004Y2583748D1*
X468302Y2590469D1*
X474136Y2596776D1*
X480396Y2602563D1*
X487116Y2607861D1*
X494232Y2612615D1*
X501699Y2616797D1*
X509471Y2620380D1*
X517500Y2623342D1*
X525737Y2625665D1*
X534130Y2627335D1*
X542629Y2628340D1*
X551180Y2628676D1*
X559732Y2628340D1*
X568230Y2627335D1*
X576624Y2625665D1*
X584861Y2623342D1*
X592890Y2620380D1*
X600662Y2616797D1*
X608129Y2612615D1*
X615244Y2607861D1*
X621965Y2602563D1*
X628249Y2596753D1*
X634059Y2590469D1*
X639357Y2583748D1*
X644111Y2576632D1*
X648293Y2569166D1*
X651876Y2561394D1*
X654838Y2553365D1*
X657161Y2545128D1*
X658831Y2536734D1*
X659836Y2528236D1*
X660172Y2519684D1*
X659836Y2511133D1*
X658831Y2502634D1*
X657161Y2494241D1*
X654838Y2486004D1*
X651876Y2477975D1*
X648293Y2470203D1*
X644111Y2462736D1*
X639357Y2455620D1*
X634059Y2448900D1*
X628249Y2442615D1*
X621965Y2436806D1*
X615244Y2431508D1*
X608129Y2426753D1*
X600662Y2422572D1*
X592890Y2418989D1*
X584861Y2416027D1*
X576624Y2413704D1*
X569771Y2412341D1*
X574807Y2410125D1*
X581027Y2406313D1*
X586575Y2401575D1*
X591313Y2396027D1*
X595125Y2389807D1*
X597917Y2383067D1*
X599620Y2375973D1*
X600192Y2368700D1*
Y2362205D1*
X602917Y2355567D1*
X604712Y2347694D1*
X610192Y2347692D1*
Y2254091D1*
X668987Y2140174D1*
X731955Y2140064D1*
X738386Y2139046D1*
X744578Y2137034D1*
X750380Y2134078D1*
X755647Y2130251D1*
X760251Y2125647D1*
X764078Y2120380D1*
X767034Y2114578D1*
X769046Y2108386D1*
X770064Y2101955D1*
X770192Y2061955D1*
Y1910918D1*
X825251Y1855647D1*
X829078Y1850380D1*
X832038Y1844566D1*
X842527Y1833552D1*
X950251Y1725647D1*
X954078Y1720380D1*
X957034Y1714578D1*
X959046Y1708386D1*
X960064Y1701955D1*
X960192Y1661955D1*
X960064Y1635445D1*
X959046Y1629014D1*
X957034Y1622822D1*
X954078Y1617020D1*
X950251Y1611753D1*
X930202Y1591523D1*
X930192Y1558687D1*
X935585Y1562836D1*
X962094Y1595216D1*
X965726Y1598331D1*
X969800Y1600840D1*
X1039810Y1630112D1*
X1073232Y1644038D1*
X1073178Y1662680D1*
X992681D1*
Y1726662D1*
X962852Y1756624D1*
X959717Y1760939D1*
X957295Y1765692D1*
X955647Y1770765D1*
X954813Y1776033D1*
X954708Y1804644D1*
X924673Y1834639D1*
X918250Y1833725D1*
X909150D1*
X900163Y1835149D1*
X891509Y1837961D1*
X883401Y1842092D1*
X876040Y1847440D1*
X869605Y1853874D1*
X864257Y1861236D1*
X860126Y1869344D1*
X857314Y1877998D1*
X855891Y1886985D1*
Y1896084D1*
X857314Y1905072D1*
X860126Y1913726D1*
X864257Y1921833D1*
X869605Y1929195D1*
X871163Y1930930D1*
X866787Y1936190D1*
X862032Y1943949D1*
X858550Y1952355D1*
X856426Y1961203D1*
X855712Y1970275D1*
X856426Y1979346D1*
X858550Y1988194D1*
X862032Y1996601D1*
X866787Y2004359D1*
X872110Y2010712D1*
X855712D1*
Y2126688D1*
X938353D1*
X841733Y2287712D1*
X834937Y2288370D1*
X826389Y2290422D1*
X818268Y2293786D1*
X810772Y2298379D1*
X804088Y2304088D1*
X799730Y2309059D1*
X799720Y2287680D1*
X687681D1*
X687680Y2499720D1*
X799720D1*
Y2490210D1*
X812418Y2490192D1*
X818268Y2493614D1*
X826389Y2496978D1*
X834937Y2499030D1*
X843700Y2499720D1*
X852463Y2499030D1*
X861011Y2496978D1*
X869132Y2493614D1*
X876628Y2489021D1*
X883312Y2483312D1*
X889021Y2476628D1*
X893693Y2468961D1*
X898379Y2476628D1*
X904088Y2483312D1*
X910772Y2489021D1*
X918268Y2493614D1*
X926389Y2496978D1*
X934937Y2499030D1*
X943700Y2499720D1*
X952463Y2499030D1*
X961011Y2496978D1*
X969132Y2493614D1*
X974870Y2490195D1*
X1012418Y2490192D1*
X1018268Y2493614D1*
X1026389Y2496978D1*
X1034937Y2499030D1*
X1043700Y2499720D1*
X1052463Y2499030D1*
X1061011Y2496978D1*
X1069132Y2493614D1*
X1074870Y2490195D1*
X1112418Y2490192D1*
X1118268Y2493614D1*
X1126389Y2496978D1*
X1134937Y2499030D1*
X1143700Y2499720D1*
X1152463Y2499030D1*
X1158117Y2497794D1*
X1160059Y2502543D1*
X1162559Y2506623D1*
X1165666Y2510261D1*
X1169305Y2513369D1*
X1173384Y2515869D1*
X1177805Y2517700D1*
X1182458Y2518817D1*
X1187228Y2519192D1*
X1523570D1*
X1528506Y2524053D1*
X1534408Y2528341D1*
X1540908Y2531653D1*
X1547847Y2533908D1*
X1555052Y2535049D1*
X1562348D1*
X1569553Y2533908D1*
X1576492Y2531653D1*
X1582992Y2528341D1*
X1588894Y2524053D1*
X1594053Y2518894D1*
X1598341Y2512992D1*
X1601653Y2506492D1*
X1603908Y2499553D1*
X1605049Y2492348D1*
Y2485052D1*
X1604372Y2480182D1*
X1979895Y2480192D1*
X1984408Y2483341D1*
X1990908Y2486653D1*
X1997847Y2488908D1*
X2005052Y2490049D1*
X2036259Y2490192D1*
X2062680Y2490201D1*
Y2499720D1*
X2071867D1*
X2249870Y2397205D2*
X2243961Y2393707D1*
X2251628Y2389021D1*
X2258312Y2383312D1*
X2264021Y2376628D1*
X2268693Y2368961D1*
X2273379Y2376628D1*
X2279088Y2383312D1*
X2285772Y2389021D1*
X2293439Y2393693D1*
X2287530Y2397205D1*
X2249982Y2397208D1*
X2349870Y2397205D2*
X2343961Y2393707D1*
X2351628Y2389021D1*
X2358312Y2383312D1*
X2364021Y2376628D1*
X2368693Y2368961D1*
X2373379Y2376628D1*
X2379088Y2383312D1*
X2385772Y2389021D1*
X2393439Y2393693D1*
X2387530Y2397205D1*
X2349982Y2397208D1*
X893693Y2418439D2*
X889021Y2410772D1*
X883312Y2404088D1*
X876628Y2398379D1*
X868961Y2393707D1*
X876628Y2389021D1*
X883312Y2383312D1*
X889021Y2376628D1*
X893693Y2368961D1*
X898379Y2376628D1*
X904088Y2383312D1*
X910772Y2389021D1*
X918439Y2393693D1*
X910772Y2398379D1*
X904088Y2404088D1*
X898379Y2410772D1*
X893707Y2418439D1*
X974870Y2397205D2*
X968961Y2393707D1*
X976628Y2389021D1*
X983312Y2383312D1*
X989021Y2376628D1*
X993693Y2368961D1*
X998379Y2376628D1*
X1004088Y2383312D1*
X1010772Y2389021D1*
X1018439Y2393693D1*
X1012530Y2397205D1*
X974982Y2397208D1*
X1074870Y2397205D2*
X1068961Y2393707D1*
X1076628Y2389021D1*
X1083312Y2383312D1*
X1089021Y2376628D1*
X1093693Y2368961D1*
X1098379Y2376628D1*
X1104088Y2383312D1*
X1110772Y2389021D1*
X1118439Y2393693D1*
X1112530Y2397205D1*
X1074982Y2397208D1*
X1274870Y2397205D2*
X1268961Y2393707D1*
X1276628Y2389021D1*
X1283312Y2383312D1*
X1289021Y2376628D1*
X1293693Y2368961D1*
X1298379Y2376628D1*
X1304088Y2383312D1*
X1310772Y2389021D1*
X1318439Y2393693D1*
X1312530Y2397205D1*
X1274982Y2397208D1*
X868961Y668693D2*
X874870Y665195D1*
X912418Y665192D1*
X918439Y668693D1*
X910772Y673379D1*
X904088Y679088D1*
X898379Y685772D1*
X893707Y693439D1*
X889021Y685772D1*
X883312Y679088D1*
X876628Y673379D1*
X868961Y668707D1*
X968961Y668693D2*
X974870Y665195D1*
X1012418Y665192D1*
X1018439Y668693D1*
X1010772Y673379D1*
X1004088Y679088D1*
X998379Y685772D1*
X993707Y693439D1*
X989021Y685772D1*
X983312Y679088D1*
X976628Y673379D1*
X968961Y668707D1*
X1068961Y668693D2*
X1074870Y665195D1*
X1112418Y665192D1*
X1118439Y668693D1*
X1110772Y673379D1*
X1104088Y679088D1*
X1098379Y685772D1*
X1093707Y693439D1*
X1089021Y685772D1*
X1083312Y679088D1*
X1076628Y673379D1*
X1068961Y668707D1*
X1168961Y668693D2*
X1174870Y665195D1*
X1212418Y665192D1*
X1218439Y668693D1*
X1210772Y673379D1*
X1204088Y679088D1*
X1198379Y685772D1*
X1193707Y693439D1*
X1189021Y685772D1*
X1183312Y679088D1*
X1176628Y673379D1*
X1168961Y668707D1*
X1268961Y668693D2*
X1274870Y665195D1*
X1312418Y665192D1*
X1318439Y668693D1*
X1310772Y673379D1*
X1304088Y679088D1*
X1298379Y685772D1*
X1293707Y693439D1*
X1289021Y685772D1*
X1283312Y679088D1*
X1276628Y673379D1*
X1268961Y668707D1*
X1368961Y668693D2*
X1374870Y665195D1*
X1412418Y665192D1*
X1418439Y668693D1*
X1410772Y673379D1*
X1404088Y679088D1*
X1398379Y685772D1*
X1393707Y693439D1*
X1389021Y685772D1*
X1383312Y679088D1*
X1376628Y673379D1*
X1368961Y668707D1*
X1468961Y668693D2*
X1474870Y665195D1*
X1612463Y665192D1*
X1618439Y668693D1*
X1610772Y673379D1*
X1604088Y679088D1*
X1598379Y685772D1*
X1593786Y693268D1*
X1590422Y701389D1*
X1588370Y709937D1*
X1587680Y718700D1*
X1588370Y727463D1*
X1590422Y736011D1*
X1593786Y744132D1*
X1598379Y751628D1*
X1604088Y758312D1*
X1610772Y764021D1*
X1618268Y768614D1*
X1626389Y771978D1*
X1634937Y774030D1*
X1643700Y774720D1*
X1652463Y774030D1*
X1661011Y771978D1*
X1669132Y768614D1*
X1676628Y764021D1*
X1683312Y758312D1*
X1689021Y751628D1*
X1693693Y743961D1*
X1698379Y751628D1*
X1704088Y758312D1*
X1710772Y764021D1*
X1718268Y768614D1*
X1726389Y771978D1*
X1734937Y774030D1*
X1743700Y774720D1*
X1752463Y774030D1*
X1761011Y771978D1*
X1769132Y768614D1*
X1776628Y764021D1*
X1783312Y758312D1*
X1789021Y751628D1*
X1793693Y743961D1*
X1798379Y751628D1*
X1804088Y758312D1*
X1810772Y764021D1*
X1818268Y768614D1*
X1826389Y771978D1*
X1834937Y774030D1*
X1843700Y774720D1*
X1852463Y774030D1*
X1861011Y771978D1*
X1869132Y768614D1*
X1876628Y764021D1*
X1883312Y758312D1*
X1889021Y751628D1*
X1893693Y743961D1*
X1898379Y751628D1*
X1904088Y758312D1*
X1910772Y764021D1*
X1918268Y768614D1*
X1926389Y771978D1*
X1934937Y774030D1*
X1943700Y774720D1*
X1952463Y774030D1*
X1961011Y771978D1*
X1969132Y768614D1*
X1976628Y764021D1*
X1983312Y758312D1*
X1987670Y753341D1*
X1987680Y774720D1*
X2091422D1*
X2060985Y785986D1*
X2056806Y788316D1*
X2053043Y791271D1*
X2049788Y794779D1*
X2047123Y798752D1*
X2041924Y811595D1*
X2028329Y847849D1*
X2023724Y844706D1*
X2015690Y840612D1*
X2007114Y837826D1*
X1998208Y836415D1*
X1989192D1*
X1980286Y837826D1*
X1971710Y840612D1*
X1963676Y844706D1*
X1956381Y850006D1*
X1950006Y856381D1*
X1944706Y863676D1*
X1943733Y865414D1*
X1940188Y859925D1*
X1934332Y853068D1*
X1927475Y847212D1*
X1919787Y842501D1*
X1911457Y839050D1*
X1902689Y836946D1*
X1893700Y836238D1*
X1884711Y836946D1*
X1875943Y839050D1*
X1867613Y842501D1*
X1859925Y847212D1*
X1853068Y853068D1*
X1847212Y859925D1*
X1843733Y865414D1*
X1840188Y859925D1*
X1834332Y853068D1*
X1827475Y847212D1*
X1819787Y842501D1*
X1811457Y839050D1*
X1802689Y836946D1*
X1793700Y836238D1*
X1784711Y836946D1*
X1775943Y839050D1*
X1767613Y842501D1*
X1759925Y847212D1*
X1753068Y853068D1*
X1747212Y859925D1*
X1743733Y865414D1*
X1740188Y859925D1*
X1734332Y853068D1*
X1727475Y847212D1*
X1719787Y842501D1*
X1711457Y839050D1*
X1702689Y836946D1*
X1693700Y836238D1*
X1684711Y836946D1*
X1675943Y839050D1*
X1667613Y842501D1*
X1659925Y847212D1*
X1653068Y853068D1*
X1647212Y859925D1*
X1643733Y865414D1*
X1640188Y859925D1*
X1634332Y853068D1*
X1627475Y847212D1*
X1619787Y842501D1*
X1611457Y839050D1*
X1602689Y836946D1*
X1593700Y836238D1*
X1584711Y836946D1*
X1575943Y839050D1*
X1567613Y842501D1*
X1559925Y847212D1*
X1553068Y853068D1*
X1547212Y859925D1*
X1543733Y865414D1*
X1540188Y859925D1*
X1534332Y853068D1*
X1527475Y847212D1*
X1519787Y842501D1*
X1511457Y839050D1*
X1502689Y836946D1*
X1493700Y836238D1*
X1484711Y836946D1*
X1475943Y839050D1*
X1467613Y842501D1*
X1459925Y847212D1*
X1453068Y853068D1*
X1447212Y859925D1*
X1443733Y865414D1*
X1440188Y859925D1*
X1434332Y853068D1*
X1427475Y847212D1*
X1419787Y842501D1*
X1411457Y839050D1*
X1402689Y836946D1*
X1393700Y836238D1*
X1384711Y836946D1*
X1375943Y839050D1*
X1367613Y842501D1*
X1359925Y847212D1*
X1353068Y853068D1*
X1347212Y859925D1*
X1343733Y865414D1*
X1340188Y859925D1*
X1334332Y853068D1*
X1327475Y847212D1*
X1319787Y842501D1*
X1311457Y839050D1*
X1302689Y836946D1*
X1293700Y836238D1*
X1284711Y836946D1*
X1275943Y839050D1*
X1267613Y842501D1*
X1259925Y847212D1*
X1253068Y853068D1*
X1247212Y859925D1*
X1243733Y865414D1*
X1240188Y859925D1*
X1234332Y853068D1*
X1227475Y847212D1*
X1219787Y842501D1*
X1211457Y839050D1*
X1202689Y836946D1*
X1193700Y836238D1*
X1184711Y836946D1*
X1175943Y839050D1*
X1167613Y842501D1*
X1159925Y847212D1*
X1153068Y853068D1*
X1147212Y859925D1*
X1143733Y865414D1*
X1140188Y859925D1*
X1134332Y853068D1*
X1127475Y847212D1*
X1119787Y842501D1*
X1111457Y839050D1*
X1102689Y836946D1*
X1093700Y836238D1*
X1084711Y836946D1*
X1075943Y839050D1*
X1067613Y842501D1*
X1059925Y847212D1*
X1053068Y853068D1*
X1047212Y859925D1*
X1043733Y865414D1*
X1040188Y859925D1*
X1034332Y853068D1*
X1027475Y847212D1*
X1019787Y842501D1*
X1011457Y839050D1*
X1002689Y836946D1*
X993700Y836238D1*
X984711Y836946D1*
X975943Y839050D1*
X967613Y842501D1*
X959925Y847212D1*
X953068Y853068D1*
X947212Y859925D1*
X943733Y865414D1*
X940188Y859925D1*
X934332Y853068D1*
X927475Y847212D1*
X919787Y842501D1*
X911457Y839050D1*
X902689Y836946D1*
X893700Y836238D1*
X884711Y836946D1*
X875943Y839050D1*
X867613Y842501D1*
X859925Y847212D1*
X853068Y853068D1*
X847212Y859925D1*
X843733Y865414D1*
X840188Y859925D1*
X834332Y853068D1*
X827475Y847212D1*
X819787Y842501D1*
X811457Y839050D1*
X802689Y836946D1*
X793700Y836238D1*
X784711Y836946D1*
X775943Y839050D1*
X767613Y842501D1*
X759925Y847212D1*
X753068Y853068D1*
X747212Y859925D1*
X743733Y865414D1*
X740188Y859925D1*
X734332Y853068D1*
X727475Y847212D1*
X719787Y842501D1*
X711457Y839050D1*
X702689Y836946D1*
X693700Y836238D1*
X684711Y836946D1*
X675943Y839050D1*
X667613Y842501D1*
X659925Y847212D1*
X653068Y853068D1*
X647212Y859925D1*
X643733Y865414D1*
X642352Y863163D1*
X730789Y774734D1*
X799720Y774720D1*
Y753368D1*
X804088Y758312D1*
X810772Y764021D1*
X818268Y768614D1*
X826389Y771978D1*
X834937Y774030D1*
X843700Y774720D1*
X852463Y774030D1*
X861011Y771978D1*
X869132Y768614D1*
X876628Y764021D1*
X883312Y758312D1*
X889021Y751628D1*
X893693Y743961D1*
X898379Y751628D1*
X904088Y758312D1*
X910772Y764021D1*
X918268Y768614D1*
X926389Y771978D1*
X934937Y774030D1*
X943700Y774720D1*
X952463Y774030D1*
X961011Y771978D1*
X969132Y768614D1*
X976628Y764021D1*
X983312Y758312D1*
X989021Y751628D1*
X993693Y743961D1*
X998379Y751628D1*
X1004088Y758312D1*
X1010772Y764021D1*
X1018268Y768614D1*
X1026389Y771978D1*
X1034937Y774030D1*
X1043700Y774720D1*
X1052463Y774030D1*
X1061011Y771978D1*
X1069132Y768614D1*
X1076628Y764021D1*
X1083312Y758312D1*
X1089021Y751628D1*
X1093693Y743961D1*
X1098379Y751628D1*
X1104088Y758312D1*
X1110772Y764021D1*
X1118268Y768614D1*
X1126389Y771978D1*
X1134937Y774030D1*
X1143700Y774720D1*
X1152463Y774030D1*
X1161011Y771978D1*
X1169132Y768614D1*
X1176628Y764021D1*
X1183312Y758312D1*
X1189021Y751628D1*
X1193693Y743961D1*
X1198379Y751628D1*
X1204088Y758312D1*
X1210772Y764021D1*
X1218268Y768614D1*
X1226389Y771978D1*
X1234937Y774030D1*
X1243700Y774720D1*
X1252463Y774030D1*
X1261011Y771978D1*
X1269132Y768614D1*
X1276628Y764021D1*
X1283312Y758312D1*
X1289021Y751628D1*
X1293693Y743961D1*
X1298379Y751628D1*
X1304088Y758312D1*
X1310772Y764021D1*
X1318268Y768614D1*
X1326389Y771978D1*
X1334937Y774030D1*
X1343700Y774720D1*
X1352463Y774030D1*
X1361011Y771978D1*
X1369132Y768614D1*
X1376628Y764021D1*
X1383312Y758312D1*
X1389021Y751628D1*
X1393693Y743961D1*
X1398379Y751628D1*
X1404088Y758312D1*
X1410772Y764021D1*
X1418268Y768614D1*
X1426389Y771978D1*
X1434937Y774030D1*
X1443700Y774720D1*
X1452463Y774030D1*
X1461011Y771978D1*
X1469132Y768614D1*
X1476628Y764021D1*
X1483312Y758312D1*
X1489021Y751628D1*
X1493614Y744132D1*
X1496978Y736011D1*
X1499030Y727463D1*
X1499720Y718700D1*
X1499030Y709937D1*
X1496978Y701389D1*
X1493614Y693268D1*
X1489021Y685772D1*
X1483312Y679088D1*
X1476628Y673379D1*
X1468961Y668707D1*
X1668961Y668693D2*
X1674870Y665195D1*
X1712418Y665192D1*
X1718439Y668693D1*
X1710772Y673379D1*
X1704088Y679088D1*
X1698379Y685772D1*
X1693707Y693439D1*
X1689021Y685772D1*
X1683312Y679088D1*
X1676628Y673379D1*
X1668961Y668707D1*
X1768961Y668693D2*
X1774870Y665195D1*
X1812418Y665192D1*
X1818439Y668693D1*
X1810772Y673379D1*
X1804088Y679088D1*
X1798379Y685772D1*
X1793707Y693439D1*
X1789021Y685772D1*
X1783312Y679088D1*
X1776628Y673379D1*
X1768961Y668707D1*
X1868961Y668693D2*
X1874870Y665195D1*
X1912418Y665192D1*
X1918439Y668693D1*
X1910772Y673379D1*
X1904088Y679088D1*
X1898379Y685772D1*
X1893707Y693439D1*
X1889021Y685772D1*
X1883312Y679088D1*
X1876628Y673379D1*
X1868961Y668707D1*
X2868961Y668693D2*
X2874870Y665195D1*
X2912418Y665192D1*
X2918439Y668693D1*
X2910772Y673379D1*
X2904088Y679088D1*
X2898379Y685772D1*
X2893707Y693439D1*
X2889021Y685772D1*
X2883312Y679088D1*
X2876628Y673379D1*
X2868961Y668707D1*
X2968961Y668693D2*
X2974870Y665195D1*
X3012418Y665192D1*
X3018439Y668693D1*
X3010772Y673379D1*
X3004088Y679088D1*
X2998379Y685772D1*
X2993707Y693439D1*
X2989021Y685772D1*
X2983312Y679088D1*
X2976628Y673379D1*
X2968961Y668707D1*
X3068961Y668693D2*
X3074870Y665195D1*
X3112418Y665192D1*
X3118439Y668693D1*
X3110772Y673379D1*
X3104088Y679088D1*
X3098379Y685772D1*
X3093707Y693439D1*
X3089021Y685772D1*
X3083312Y679088D1*
X3076628Y673379D1*
X3068961Y668707D1*
X3168961Y668693D2*
X3174870Y665195D1*
X3212418Y665192D1*
X3218439Y668693D1*
X3210772Y673379D1*
X3204088Y679088D1*
X3198379Y685772D1*
X3193707Y693439D1*
X3189021Y685772D1*
X3183312Y679088D1*
X3176628Y673379D1*
X3168961Y668707D1*
X2468961Y668693D2*
X2474870Y665195D1*
X2512418Y665192D1*
X2518439Y668693D1*
X2510772Y673379D1*
X2504088Y679088D1*
X2498379Y685772D1*
X2493707Y693439D1*
X2489021Y685772D1*
X2483312Y679088D1*
X2476628Y673379D1*
X2468961Y668707D1*
X2568961Y668693D2*
X2574870Y665195D1*
X2687703Y665192D1*
X2687680Y697524D1*
X2599426Y712940D1*
X2598172Y705622D1*
X2595455Y697262D1*
X2591465Y689430D1*
X2586298Y682318D1*
X2580082Y676102D1*
X2572970Y670935D1*
X2568961Y668707D1*
X1380226Y1699720D2*
X1399720D1*
Y1678369D1*
X1404088Y1683312D1*
X1410772Y1689021D1*
X1418268Y1693614D1*
X1426389Y1696978D1*
X1434937Y1699030D1*
X1443700Y1699720D1*
X1452463Y1699030D1*
X1459705Y1697346D1*
X1459813Y2006643D1*
X1460647Y2011911D1*
X1462295Y2016984D1*
X1464717Y2021737D1*
X1467852Y2026052D1*
X1477191Y2035539D1*
X1481247Y2039003D1*
X1485795Y2041790D1*
X1490723Y2043832D1*
X1495910Y2045077D1*
X1501228Y2045495D1*
X1869292D1*
X1867492Y2051276D1*
X1866351Y2058481D1*
Y2065777D1*
X1867178Y2071402D1*
X1860138Y2067897D1*
X1851778Y2065181D1*
X1843095Y2063806D1*
X1834305D1*
X1825622Y2065181D1*
X1817262Y2067897D1*
X1809430Y2071888D1*
X1802318Y2077055D1*
X1796102Y2083271D1*
X1790935Y2090383D1*
X1786945Y2098215D1*
X1784228Y2106575D1*
X1782853Y2115258D1*
Y2124048D1*
X1784218Y2132680D1*
X1607984Y2132688D1*
X1558894Y2083819D1*
X1552992Y2079531D1*
X1546492Y2076219D1*
X1539553Y2073965D1*
X1532348Y2072823D1*
X1525052D1*
X1517847Y2073965D1*
X1510908Y2076219D1*
X1504408Y2079531D1*
X1498506Y2083819D1*
X1493347Y2088978D1*
X1489059Y2094880D1*
X1485747Y2101381D1*
X1483492Y2108319D1*
X1482351Y2115525D1*
Y2122820D1*
X1483492Y2130026D1*
X1485747Y2136964D1*
X1489059Y2143465D1*
X1493347Y2149367D1*
X1515312Y2171535D1*
X1558514Y2214533D1*
X1564416Y2218821D1*
X1570916Y2222134D1*
X1577854Y2224388D1*
X1585060Y2225529D1*
X1616267Y2225673D1*
X1881875Y2225529D1*
X1889081Y2224388D1*
X1896019Y2222134D1*
X1902520Y2218822D1*
X1908422Y2214533D1*
X1932290Y2190868D1*
X1932361Y2371620D1*
X1933109Y2376346D1*
X1934588Y2380896D1*
X1936760Y2385160D1*
X1938096Y2387158D1*
X1920461Y2387208D1*
X1925125Y2379807D1*
X1927917Y2373067D1*
X1929620Y2365973D1*
X1930192Y2358700D1*
X1929620Y2351427D1*
X1927917Y2344333D1*
X1925125Y2337593D1*
X1921313Y2331373D1*
X1916575Y2325825D1*
X1911027Y2321087D1*
X1904807Y2317275D1*
X1898067Y2314483D1*
X1890973Y2312780D1*
X1883700Y2312208D1*
X1880465Y2312335D1*
X1868503Y2300514D1*
X1864632Y2297701D1*
X1860369Y2295529D1*
X1855818Y2294050D1*
X1851092Y2293302D1*
X1775209Y2293208D1*
X1466308Y2293302D1*
X1461582Y2294050D1*
X1457031Y2295529D1*
X1452768Y2297701D1*
X1448897Y2300514D1*
X1447132Y2302146D1*
X1435327Y2308208D1*
X1387063D1*
X1383312Y2304088D1*
X1376628Y2298379D1*
X1369132Y2293786D1*
X1361011Y2290422D1*
X1352463Y2288370D1*
X1343700Y2287680D1*
X1334937Y2288370D1*
X1326389Y2290422D1*
X1318268Y2293786D1*
X1317143Y2294416D1*
X1223832Y2236514D1*
X1223704Y2229925D1*
X1228700Y2230192D1*
X1235973Y2229620D1*
X1243067Y2227917D1*
X1249807Y2225125D1*
X1256027Y2221313D1*
X1257450Y2220192D1*
X1441955Y2220064D1*
X1448386Y2219046D1*
X1454578Y2217034D1*
X1460380Y2214078D1*
X1465647Y2210251D1*
X1470251Y2205647D1*
X1474078Y2200380D1*
X1477034Y2194578D1*
X1479046Y2188386D1*
X1480064Y2181955D1*
Y2175445D1*
X1479046Y2169014D1*
X1477034Y2162822D1*
X1474071Y2157010D1*
X1470125Y2147593D1*
X1466313Y2141373D1*
X1461575Y2135825D1*
X1456027Y2131087D1*
X1449807Y2127275D1*
X1443067Y2124483D1*
X1435973Y2122780D1*
X1428700Y2122208D1*
X1421427Y2122780D1*
X1414333Y2124483D1*
X1407593Y2127275D1*
X1401373Y2131087D1*
X1395825Y2135825D1*
X1394538Y2137218D1*
X1310199Y2137208D1*
X1310192Y2047941D1*
X1369053Y1988894D1*
X1373341Y1982992D1*
X1376653Y1976492D1*
X1378908Y1969553D1*
X1380049Y1962348D1*
X1380192Y1931141D1*
Y1699724D1*
X1399720Y1608968D2*
Y1587680D1*
X1343920D1*
X1348253Y1582270D1*
X1380808Y1549715D1*
X1389192Y1550985D1*
X1398208D1*
X1407114Y1549574D1*
X1415690Y1546788D1*
X1420633Y1544425D1*
X1459729Y1583522D1*
X1459708Y1589982D1*
X1452463Y1588370D1*
X1443700Y1587680D1*
X1434937Y1588370D1*
X1426389Y1590422D1*
X1418268Y1593786D1*
X1410772Y1598379D1*
X1404088Y1604088D1*
X1399730Y1609059D1*
X1287680Y1614199D2*
Y1637093D1*
X1287208Y1643700D1*
Y1939422D1*
X1254670Y1971980D1*
X1260055Y1964036D1*
X1262130Y1959724D1*
X1263504Y1955141D1*
X1264145Y1950390D1*
X1264192Y1614223D1*
X1287706Y1614192D1*
X1693693Y1618439D2*
X1689021Y1610772D1*
X1683312Y1604088D1*
X1676628Y1598379D1*
X1669132Y1593786D1*
X1661011Y1590422D1*
X1652463Y1588370D1*
X1643700Y1587680D1*
X1634937Y1588370D1*
X1626389Y1590422D1*
X1624180Y1591237D1*
X1624192Y1542424D1*
X1631019Y1537394D1*
X1637394Y1531019D1*
X1642694Y1523724D1*
X1643667Y1521986D1*
X1647212Y1527475D1*
X1653068Y1534332D1*
X1659925Y1540188D1*
X1667613Y1544899D1*
X1675943Y1548350D1*
X1684711Y1550454D1*
X1693700Y1551162D1*
X1702689Y1550454D1*
X1711457Y1548350D1*
X1713193Y1547709D1*
X1713208Y1596721D1*
X1707318Y1601102D1*
X1701102Y1607318D1*
X1695935Y1614430D1*
X1693707Y1618439D1*
X1993693D2*
X1989021Y1610772D1*
X1983312Y1604088D1*
X1976628Y1598379D1*
X1974185Y1596747D1*
X1974098Y1581308D1*
X1973350Y1576582D1*
X1972697Y1574269D1*
X2056340Y1574192D1*
X2055308Y1578899D1*
X2054735Y1586172D1*
X2054839Y1588808D1*
X2048095Y1587853D1*
X2039305D1*
X2030622Y1589228D1*
X2022262Y1591945D1*
X2014430Y1595935D1*
X2007318Y1601102D1*
X2001102Y1607318D1*
X1995935Y1614430D1*
X1993707Y1618439D1*
X2915180Y1519720D2*
X2973240D1*
X2973302Y1571092D1*
X2974050Y1575818D1*
X2975529Y1580369D1*
X2977701Y1584632D1*
X2980514Y1588503D1*
X2983897Y1591886D1*
X2987768Y1594699D1*
X2992040Y1596874D1*
X2993208Y1605445D1*
Y1638567D1*
X2988700Y1638208D1*
X2946249D1*
X2948172Y1631778D1*
X2949547Y1623095D1*
Y1614305D1*
X2948172Y1605622D1*
X2945455Y1597262D1*
X2941465Y1589430D1*
X2936298Y1582318D1*
X2930082Y1576102D1*
X2922970Y1570935D1*
X2915138Y1566945D1*
X2907422Y1564410D1*
X2910125Y1559807D1*
X2912917Y1553067D1*
X2914620Y1545973D1*
X2915192Y1538700D1*
Y1519717D1*
X2973178Y1407680D2*
X2955020D1*
X2958341Y1402992D1*
X2961653Y1396492D1*
X2963908Y1389553D1*
X2965049Y1382348D1*
X2965192Y1351141D1*
Y1189411D1*
X2973201Y1190173D1*
X2973208Y1407676D1*
X2099720Y771669D2*
Y665165D1*
X2287677Y665192D1*
X2287681Y687189D1*
X2111721Y767273D1*
X2099700Y771683D1*
X3120655Y769715D2*
X3126389Y771978D1*
X3134937Y774030D1*
X3143700Y774720D1*
X3144610Y774684D1*
X3056066Y863211D1*
X2842378Y863208D1*
X2849128Y859051D1*
X3012315Y828715D1*
X3044054Y818427D1*
X3048272Y816167D1*
X3120603Y769752D1*
X3299547Y714305D2*
X3298172Y705622D1*
X3295455Y697262D1*
X3294499Y695187D1*
X3302228Y695192D1*
X3302208Y799426D1*
X3144424Y957226D1*
X2939390Y957208D1*
X2940049Y952348D1*
Y945052D1*
X2938908Y937847D1*
X2936653Y930908D1*
X2933191Y924183D1*
X3071092Y924098D1*
X3075818Y923350D1*
X3080369Y921871D1*
X3084632Y919699D1*
X3088503Y916886D1*
X3142227Y863295D1*
X3232025Y773497D1*
X3239305Y774547D1*
X3248095D1*
X3256778Y773172D1*
X3265138Y770455D1*
X3272970Y766465D1*
X3280082Y761298D1*
X3286298Y755082D1*
X3291465Y747970D1*
X3295455Y740138D1*
X3298172Y731778D1*
X3299547Y723095D1*
Y714305D1*
X3161114Y2288231D2*
X3153952Y2289699D1*
X3062147Y2207883D1*
X3161101Y2288208D1*
X3060704Y2288279D2*
X3055622Y2289228D1*
X3047262Y2291945D1*
X3039430Y2295935D1*
X3032318Y2301102D1*
X3026102Y2307318D1*
X3020935Y2314430D1*
X3018614Y2318268D1*
X3014021Y2310772D1*
X3008312Y2304088D1*
X3001628Y2298379D1*
X2994132Y2293786D1*
X2986011Y2290422D1*
X2977463Y2288370D1*
X2968700Y2287680D1*
X2963844Y2287908D1*
X2949176Y2268820D1*
X2949192Y2188891D1*
X3060683Y2288270D1*
X2137508Y2287680D2*
X2062680D1*
Y2343049D1*
X2057348Y2342351D1*
X2050052D1*
X2042847Y2343492D1*
X2035908Y2345747D1*
X2029408Y2349059D1*
X2023506Y2353347D1*
X2018628Y2358202D1*
X1994886Y2358208D1*
X1993251Y2350855D1*
X1993157Y2109796D1*
X1992409Y2105070D1*
X1990930Y2100519D1*
X1988758Y2096256D1*
X1985946Y2092385D1*
X1959073Y2065380D1*
X1958987Y2057957D1*
X1964348Y2057852D1*
X1971553Y2056711D1*
X1978492Y2054456D1*
X1984992Y2051144D1*
X1990894Y2046856D1*
X1996053Y2041697D1*
X2000599Y2035335D1*
X2005825Y2041575D1*
X2009704Y2044998D1*
X2009813Y2111367D1*
X2010647Y2116635D1*
X2012295Y2121708D1*
X2014717Y2126461D1*
X2017852Y2130776D1*
X2058638Y2171711D1*
X2137475Y2250547D1*
X2137482Y2287681D1*
X993693Y2318439D2*
X989412Y2311358D1*
X1009700Y2246463D1*
X1009708Y2299182D1*
X1004088Y2304088D1*
X998379Y2310772D1*
X993707Y2318439D1*
X924535Y2291106D2*
X918268Y2293786D1*
X910772Y2298379D1*
X904088Y2304088D1*
X901049Y2307386D1*
X939431Y2243414D1*
X924529Y2291085D1*
X1093693Y2318439D2*
X1089021Y2310772D1*
X1083312Y2304088D1*
X1077694Y2299219D1*
X1077692Y2022788D1*
X1089329Y2011143D1*
X1089417Y2044813D1*
X1109589Y2299259D1*
X1104088Y2304088D1*
X1098379Y2310772D1*
X1093707Y2318439D1*
X1378935Y2387202D2*
X1383312Y2383312D1*
X1389021Y2376628D1*
X1393589Y2369177D1*
X1453709Y2369192D1*
X1455397Y2372886D1*
Y2387204D1*
X1378978Y2387208D1*
X3027681Y1976014D2*
Y1979719D1*
X3028291D1*
X3029973Y1986157D1*
X3033365Y1994347D1*
X3037997Y2001905D1*
X3043754Y2008646D1*
X3092011Y2056657D1*
X3099183Y2061867D1*
X3107081Y2065892D1*
X3115512Y2068631D1*
X3124268Y2070018D1*
X3147073Y2070192D1*
X3232226D1*
X3232208Y2164760D1*
X3220315Y2138820D1*
X3217660Y2134840D1*
X3214414Y2131324D1*
X3210659Y2128359D1*
X3144524Y2091151D1*
X3019183Y2020838D1*
X3019192Y1909983D1*
X3027348Y1910049D1*
X3027673Y1910010D1*
X3027680Y1961380D1*
X3027208Y1968700D1*
X3027681Y1975662D1*
X2587219Y2053792D2*
X2582077Y2048766D1*
X2577695Y2045400D1*
X2577692Y1892067D1*
X2585484Y1885484D1*
X2587219Y1883608D1*
X2587208Y2053730D1*
X3539395Y1697192D2*
X3657192D1*
Y1570208D1*
X3530208D1*
Y1697192D1*
X3539395D1*
X578996Y1233718D2*
X577438Y1223878D1*
X574359Y1214403D1*
X569836Y1205525D1*
X563980Y1197465D1*
X560596Y1193596D1*
X567066Y1186020D1*
X572272Y1177525D1*
X576085Y1168320D1*
X578410Y1158632D1*
X579192Y1148700D1*
X578410Y1138768D1*
X576085Y1129080D1*
X572272Y1119875D1*
X567066Y1111380D1*
X560596Y1103804D1*
X553020Y1097334D1*
X544525Y1092128D1*
X535320Y1088315D1*
X525632Y1085990D1*
X515700Y1085208D1*
X505768Y1085990D1*
X496080Y1088315D1*
X486875Y1092128D1*
X478380Y1097334D1*
X470804Y1103804D1*
X464334Y1111380D1*
X459128Y1119875D1*
X455315Y1129080D1*
X452990Y1138768D1*
X452208Y1148700D1*
X452990Y1158632D1*
X455315Y1168320D1*
X459128Y1177525D1*
X464334Y1186020D1*
X470904Y1193688D1*
X464334Y1201380D1*
X459128Y1209875D1*
X455315Y1219080D1*
X452990Y1228768D1*
X452208Y1238700D1*
X452990Y1248632D1*
X455315Y1258320D1*
X459128Y1267525D1*
X464334Y1276020D1*
X470804Y1283596D1*
X478380Y1290066D1*
X486875Y1295272D1*
X496080Y1299085D1*
X505768Y1301410D1*
X515700Y1302192D1*
X525632Y1301410D1*
X535320Y1299085D1*
X544525Y1295272D1*
X553020Y1290066D1*
X560596Y1283596D1*
X567066Y1276020D1*
X572272Y1267525D1*
X576085Y1258320D1*
X578410Y1248632D1*
X579192Y1238700D1*
X578996Y1233718D1*
X1813193Y1439691D2*
X1807114Y1437826D1*
X1798208Y1436415D1*
X1789192D1*
X1780286Y1437826D1*
X1778064Y1438452D1*
X1781653Y1431492D1*
X1783908Y1424553D1*
X1785049Y1417348D1*
Y1410052D1*
X1783908Y1402847D1*
X1782862Y1399186D1*
X1813204Y1399192D1*
X1813208Y1439643D1*
X1698120Y1436412D2*
X1689192Y1436415D1*
X1680286Y1437826D1*
X1671710Y1440612D1*
X1663676Y1444706D1*
X1656381Y1450006D1*
X1650006Y1456381D1*
X1644706Y1463676D1*
X1643733Y1465414D1*
X1640188Y1459925D1*
X1634332Y1453068D1*
X1627475Y1447212D1*
X1619787Y1442501D1*
X1611457Y1439050D1*
X1602689Y1436946D1*
X1593700Y1436238D1*
X1584711Y1436946D1*
X1575943Y1439050D1*
X1567613Y1442501D1*
X1559925Y1447212D1*
X1553068Y1453068D1*
X1547212Y1459925D1*
X1543733Y1465414D1*
X1540188Y1459925D1*
X1534332Y1453068D1*
X1527475Y1447212D1*
X1519787Y1442501D1*
X1511457Y1439050D1*
X1502689Y1436946D1*
X1493700Y1436238D1*
X1484711Y1436946D1*
X1475943Y1439050D1*
X1467613Y1442501D1*
X1464337Y1444335D1*
X1427717Y1407852D1*
X1423402Y1404717D1*
X1418649Y1402295D1*
X1413576Y1400647D1*
X1408308Y1399813D1*
X1346396Y1399708D1*
X1415909Y1330169D1*
X1432323Y1330192D1*
X1432351Y1337348D1*
X1433492Y1344553D1*
X1435747Y1351492D1*
X1439059Y1357992D1*
X1443347Y1363894D1*
X1448506Y1369053D1*
X1454408Y1373341D1*
X1460908Y1376653D1*
X1467847Y1378908D1*
X1475052Y1380049D1*
X1482348D1*
X1489553Y1378908D1*
X1496492Y1376653D1*
X1502992Y1373341D1*
X1508894Y1369053D1*
X1513772Y1364198D1*
X1562418Y1364192D1*
X1562351Y1372348D1*
X1563492Y1379553D1*
X1565747Y1386492D1*
X1569059Y1392992D1*
X1573347Y1398894D1*
X1578506Y1404053D1*
X1584408Y1408341D1*
X1590908Y1411653D1*
X1597847Y1413908D1*
X1605052Y1415049D1*
X1612348D1*
X1619553Y1413908D1*
X1626492Y1411653D1*
X1632992Y1408341D1*
X1638894Y1404053D1*
X1643772Y1399198D1*
X1694483Y1399333D1*
X1692780Y1406427D1*
X1692208Y1413700D1*
X1692780Y1420973D1*
X1694483Y1428067D1*
X1697275Y1434807D1*
X1698174Y1436412D1*
X2350985Y1389192D2*
X2349574Y1380286D1*
X2346788Y1371710D1*
X2342694Y1363676D1*
X2337394Y1356381D1*
X2331019Y1350006D1*
X2323724Y1344706D1*
X2321986Y1343733D1*
X2327475Y1340188D1*
X2334332Y1334332D1*
X2340188Y1327475D1*
X2344899Y1319787D1*
X2348350Y1311457D1*
X2350454Y1302689D1*
X2351162Y1293700D1*
X2350454Y1284711D1*
X2348350Y1275943D1*
X2348123Y1275192D1*
X2430261D1*
X2536849Y1393196D1*
X2451308Y1393302D1*
X2446582Y1394050D1*
X2442031Y1395529D1*
X2437768Y1397701D1*
X2433897Y1400513D1*
X2397909Y1436368D1*
X2389192Y1436415D1*
X2380286Y1437826D1*
X2371710Y1440612D1*
X2363676Y1444706D1*
X2356381Y1450006D1*
X2350006Y1456381D1*
X2344706Y1463676D1*
X2343733Y1465414D1*
X2340188Y1459925D1*
X2334332Y1453068D1*
X2327475Y1447212D1*
X2321986Y1443733D1*
X2327475Y1440188D1*
X2334332Y1434332D1*
X2340188Y1427475D1*
X2344899Y1419787D1*
X2348350Y1411457D1*
X2350454Y1402689D1*
X2351162Y1393700D1*
X2350985Y1389192D1*
X2265414Y1343733D2*
X2259925Y1347212D1*
X2253068Y1353068D1*
X2247212Y1359925D1*
X2242501Y1367613D1*
X2239050Y1375943D1*
X2236946Y1384711D1*
X2236238Y1393700D1*
X2236946Y1402689D1*
X2238595Y1410059D1*
X2234516Y1407559D1*
X2230095Y1405728D1*
X2225442Y1404611D1*
X2220663Y1404236D1*
X2050280Y1404329D1*
X2045554Y1405078D1*
X2041004Y1406557D1*
X2036740Y1408729D1*
X2032869Y1411541D1*
X2006575Y1437703D1*
X1998208Y1436415D1*
X1989192D1*
X1980286Y1437826D1*
X1974207Y1439691D1*
X1974097Y1331298D1*
X1977440Y1330192D1*
X2176955Y1330064D1*
X2183386Y1329046D1*
X2189578Y1327034D1*
X2195380Y1324078D1*
X2200647Y1320251D1*
X2229022Y1292056D1*
X2237066Y1284013D1*
X2236415Y1289192D1*
Y1298208D1*
X2237826Y1307114D1*
X2240612Y1315690D1*
X2244706Y1323724D1*
X2250006Y1331019D1*
X2256381Y1337394D1*
X2263676Y1342694D1*
X2265414Y1343667D1*
X793667Y990414D2*
X790188Y984925D1*
X784332Y978068D1*
X777475Y972212D1*
X769787Y967501D1*
X761457Y964050D1*
X752689Y961946D1*
X743700Y961238D1*
X734711Y961946D1*
X725943Y964050D1*
X717613Y967501D1*
X709925Y972212D1*
X703068Y978068D1*
X697212Y984925D1*
X692501Y992613D1*
X689050Y1000943D1*
X686946Y1009711D1*
X686238Y1018700D1*
X686946Y1027689D1*
X689050Y1036457D1*
X692501Y1044787D1*
X697212Y1052475D1*
X703068Y1059332D1*
X709925Y1065188D1*
X717613Y1069899D1*
X725943Y1073350D1*
X734711Y1075454D1*
X743700Y1076162D1*
X752689Y1075454D1*
X761457Y1073350D1*
X769787Y1069899D1*
X777475Y1065188D1*
X784332Y1059332D1*
X790188Y1052475D1*
X793667Y1046986D1*
X797212Y1052475D1*
X803068Y1059332D1*
X809925Y1065188D1*
X817613Y1069899D1*
X825943Y1073350D1*
X834711Y1075454D1*
X843700Y1076162D1*
X852689Y1075454D1*
X861457Y1073350D1*
X869787Y1069899D1*
X877475Y1065188D1*
X884332Y1059332D1*
X890188Y1052475D1*
X893667Y1046986D1*
X897212Y1052475D1*
X903068Y1059332D1*
X909925Y1065188D1*
X917613Y1069899D1*
X925943Y1073350D1*
X934711Y1075454D1*
X943700Y1076162D1*
X952689Y1075454D1*
X961457Y1073350D1*
X969787Y1069899D1*
X977475Y1065188D1*
X984332Y1059332D1*
X990188Y1052475D1*
X994899Y1044787D1*
X998350Y1036457D1*
X1000454Y1027689D1*
X1001162Y1018700D1*
X1000454Y1009711D1*
X998350Y1000943D1*
X994899Y992613D1*
X990188Y984925D1*
X984332Y978068D1*
X977475Y972212D1*
X969787Y967501D1*
X961457Y964050D1*
X952689Y961946D1*
X943700Y961238D1*
X934711Y961946D1*
X925943Y964050D1*
X917613Y967501D1*
X909925Y972212D1*
X903068Y978068D1*
X897212Y984925D1*
X893733Y990414D1*
X890188Y984925D1*
X884332Y978068D1*
X877475Y972212D1*
X869787Y967501D1*
X861457Y964050D1*
X852689Y961946D1*
X843700Y961238D1*
X834711Y961946D1*
X825943Y964050D1*
X817613Y967501D1*
X809925Y972212D1*
X803068Y978068D1*
X797212Y984925D1*
X793733Y990414D1*
X2620479Y944511D2*
X2627475Y940188D1*
X2634332Y934332D1*
X2640188Y927475D1*
X2643667Y921986D1*
X2647212Y927475D1*
X2653068Y934332D1*
X2659925Y940188D1*
X2667613Y944899D1*
X2675943Y948350D1*
X2684711Y950454D1*
X2693700Y951162D1*
X2702689Y950454D1*
X2711457Y948350D1*
X2719787Y944899D1*
X2727475Y940188D1*
X2734332Y934332D1*
X2740188Y927475D1*
X2743667Y921986D1*
X2747212Y927475D1*
X2753068Y934332D1*
X2759925Y940188D1*
X2767613Y944899D1*
X2775943Y948350D1*
X2784711Y950454D1*
X2793700Y951162D1*
X2802689Y950454D1*
X2811457Y948350D1*
X2819787Y944899D1*
X2827475Y940188D1*
X2834332Y934332D1*
X2840188Y927475D1*
X2842391Y924178D1*
X2845724Y925724D1*
X2842413Y929602D1*
X2839749Y933949D1*
X2837798Y938659D1*
X2836608Y943617D1*
X2836208Y948710D1*
Y1160237D1*
X2620504Y944553D1*
X2822201Y1443853D2*
X2815690Y1440612D1*
X2807114Y1437826D1*
X2798208Y1436415D1*
X2789192D1*
X2780286Y1437826D1*
X2771710Y1440612D1*
X2763676Y1444706D1*
X2756381Y1450006D1*
X2750006Y1456381D1*
X2744706Y1463676D1*
X2743733Y1465414D1*
X2740188Y1459925D1*
X2734332Y1453068D1*
X2727475Y1447212D1*
X2719787Y1442501D1*
X2711457Y1439050D1*
X2702689Y1436946D1*
X2693700Y1436238D1*
X2684939Y1436919D1*
X2683911Y1430996D1*
X2681657Y1424058D1*
X2678345Y1417558D1*
X2674057Y1411655D1*
X2669202Y1406777D1*
X2669102Y1250808D1*
X2668354Y1246082D1*
X2666875Y1241531D1*
X2664703Y1237268D1*
X2661890Y1233397D1*
X2608299Y1179673D1*
X2599000Y1170508D1*
X2599553Y1168908D1*
X2606492Y1166653D1*
X2612992Y1163341D1*
X2618894Y1159053D1*
X2624053Y1153894D1*
X2628341Y1147992D1*
X2631653Y1141492D1*
X2633908Y1134553D1*
X2634967Y1128042D1*
X2794719Y1287791D1*
X2794813Y1321367D1*
X2795647Y1326635D1*
X2797295Y1331708D1*
X2799717Y1336461D1*
X2802852Y1340776D1*
X2807227Y1345299D1*
X2807780Y1350973D1*
X2809483Y1358067D1*
X2812275Y1364807D1*
X2816087Y1371027D1*
X2820825Y1376575D1*
X2826373Y1381313D1*
X2832593Y1385125D1*
X2839333Y1387917D1*
X2842778Y1388888D1*
X2833347Y1398506D1*
X2829059Y1404408D1*
X2825747Y1410908D1*
X2823492Y1417847D1*
X2822351Y1425052D1*
X2822208Y1443807D1*
X2674207Y1547709D2*
X2680286Y1549574D1*
X2689192Y1550985D1*
X2698208D1*
X2707114Y1549574D1*
X2715690Y1546788D1*
X2718363Y1545556D1*
X2718208Y1562659D1*
X2674183Y1562680D1*
X2674192Y1547734D1*
X3809443Y542629D2*
X3808437Y534130D1*
X3806767Y525737D1*
X3804444Y517500D1*
X3801482Y509471D1*
X3797899Y501699D1*
X3793718Y494232D1*
X3788963Y487116D1*
X3783665Y480396D1*
X3777831Y474089D1*
X3771571Y468302D1*
X3764851Y463004D1*
X3757735Y458249D1*
X3750268Y454068D1*
X3742496Y450485D1*
X3734467Y447523D1*
X3726230Y445200D1*
X3717837Y443530D1*
X3709338Y442524D1*
X3700787Y442188D1*
X3692235Y442524D1*
X3683736Y443530D1*
X3675343Y445200D1*
X3667106Y447523D1*
X3659077Y450485D1*
X3651305Y454068D1*
X3643838Y458249D1*
X3636723Y463004D1*
X3630002Y468302D1*
X3623718Y474111D1*
X3617908Y480396D1*
X3612610Y487116D1*
X3607856Y494232D1*
X3603674Y501699D1*
X3600091Y509471D1*
X3597129Y517500D1*
X3594806Y525737D1*
X3593136Y534130D1*
X3592130Y542629D1*
X3591794Y551180D1*
X3592130Y559732D1*
X3593136Y568230D1*
X3594806Y576624D1*
X3597129Y584861D1*
X3600091Y592890D1*
X3603674Y600662D1*
X3607856Y608129D1*
X3612610Y615244D1*
X3617908Y621965D1*
X3623718Y628249D1*
X3630002Y634059D1*
X3636723Y639357D1*
X3643838Y644111D1*
X3651305Y648293D1*
X3659077Y651876D1*
X3667106Y654838D1*
X3675343Y657161D1*
X3683736Y658831D1*
X3692235Y659836D1*
X3700787Y660172D1*
X3709338Y659836D1*
X3717837Y658831D1*
X3726230Y657161D1*
X3734467Y654838D1*
X3742496Y651876D1*
X3750268Y648293D1*
X3757735Y644111D1*
X3764851Y639357D1*
X3771571Y634059D1*
X3777856Y628249D1*
X3783665Y621965D1*
X3788963Y615244D1*
X3793718Y608129D1*
X3797899Y600662D1*
X3801482Y592890D1*
X3804444Y584861D1*
X3806767Y576624D1*
X3808437Y568230D1*
X3809443Y559732D1*
X3809779Y551180D1*
X3809443Y542629D1*
X659836D2*
X658831Y534130D1*
X657161Y525737D1*
X654838Y517500D1*
X651876Y509471D1*
X648293Y501699D1*
X644111Y494232D1*
X639357Y487116D1*
X634059Y480396D1*
X628249Y474111D1*
X621965Y468302D1*
X615244Y463004D1*
X608129Y458249D1*
X600662Y454068D1*
X592890Y450485D1*
X584861Y447523D1*
X576624Y445200D1*
X568230Y443530D1*
X559732Y442524D1*
X551180Y442188D1*
X542629Y442524D1*
X534130Y443530D1*
X525737Y445200D1*
X517500Y447523D1*
X509471Y450485D1*
X501699Y454068D1*
X494232Y458249D1*
X487116Y463004D1*
X480396Y468302D1*
X474089Y474136D1*
X468302Y480396D1*
X463004Y487116D1*
X458249Y494232D1*
X454068Y501699D1*
X450485Y509471D1*
X447523Y517500D1*
X445200Y525737D1*
X443530Y534130D1*
X442524Y542629D1*
X442188Y551180D1*
X442524Y559732D1*
X443530Y568230D1*
X445200Y576624D1*
X447523Y584861D1*
X450485Y592890D1*
X454068Y600662D1*
X458249Y608129D1*
X463004Y615244D1*
X468302Y621965D1*
X474111Y628249D1*
X480396Y634059D1*
X487116Y639357D1*
X494232Y644111D1*
X501699Y648293D1*
X509471Y651876D1*
X517500Y654838D1*
X525737Y657161D1*
X534130Y658831D1*
X542629Y659836D1*
X551180Y660172D1*
X559732Y659836D1*
X568230Y658831D1*
X576624Y657161D1*
X584861Y654838D1*
X592890Y651876D1*
X600662Y648293D1*
X608129Y644111D1*
X615244Y639357D1*
X621965Y634059D1*
X628249Y628249D1*
X634059Y621965D1*
X639357Y615244D1*
X644111Y608129D1*
X648293Y600662D1*
X651876Y592890D1*
X654838Y584861D1*
X657161Y576624D1*
X658831Y568230D1*
X659836Y559732D1*
X660172Y551180D1*
X659836Y542629D1*
X3809443Y2511133D2*
X3808437Y2502634D1*
X3806767Y2494241D1*
X3804444Y2486004D1*
X3801482Y2477975D1*
X3797899Y2470203D1*
X3793718Y2462736D1*
X3788963Y2455620D1*
X3783665Y2448900D1*
X3777856Y2442615D1*
X3771571Y2436806D1*
X3764851Y2431508D1*
X3757735Y2426753D1*
X3750268Y2422572D1*
X3742496Y2418989D1*
X3734467Y2416027D1*
X3726230Y2413704D1*
X3717837Y2412034D1*
X3709338Y2411028D1*
X3700787Y2410692D1*
X3692235Y2411028D1*
X3683736Y2412034D1*
X3675343Y2413704D1*
X3667106Y2416027D1*
X3659077Y2418989D1*
X3651305Y2422572D1*
X3643838Y2426753D1*
X3636723Y2431508D1*
X3630002Y2436806D1*
X3623718Y2442615D1*
X3617908Y2448900D1*
X3612610Y2455620D1*
X3607856Y2462736D1*
X3603674Y2470203D1*
X3600091Y2477975D1*
X3597129Y2486004D1*
X3594806Y2494241D1*
X3593136Y2502634D1*
X3592130Y2511133D1*
X3591794Y2519684D1*
X3592130Y2528236D1*
X3593136Y2536734D1*
X3594806Y2545128D1*
X3597129Y2553365D1*
X3600091Y2561394D1*
X3603674Y2569166D1*
X3607856Y2576632D1*
X3612610Y2583748D1*
X3617908Y2590469D1*
X3623718Y2596753D1*
X3630002Y2602563D1*
X3636723Y2607861D1*
X3643838Y2612615D1*
X3651305Y2616797D1*
X3659077Y2620380D1*
X3667106Y2623342D1*
X3675343Y2625665D1*
X3683736Y2627335D1*
X3692235Y2628340D1*
X3700787Y2628676D1*
X3709338Y2628340D1*
X3717837Y2627335D1*
X3726230Y2625665D1*
X3734467Y2623342D1*
X3742496Y2620380D1*
X3750268Y2616797D1*
X3757735Y2612615D1*
X3764851Y2607861D1*
X3771571Y2602563D1*
X3777878Y2596729D1*
X3783665Y2590469D1*
X3788963Y2583748D1*
X3793718Y2576632D1*
X3797899Y2569166D1*
X3801482Y2561394D1*
X3804444Y2553365D1*
X3806767Y2545128D1*
X3808437Y2536734D1*
X3809443Y2528236D1*
X3809779Y2519684D1*
X3809443Y2511133D1*
X1565049Y2360052D2*
X1564177Y2354203D1*
X1836046Y2354192D1*
X1837208Y2358700D1*
X1837780Y2365973D1*
X1839483Y2373067D1*
X1842275Y2379807D1*
X1846087Y2386027D1*
X1847014Y2387203D1*
X1558820Y2387208D1*
X1561653Y2381492D1*
X1563908Y2374553D1*
X1565049Y2367348D1*
Y2360052D1*
X3170086Y2175434D2*
X3199997Y2241224D1*
X3004443Y2082498D1*
X3170102Y2175425D1*
X2524192Y1714311D2*
Y1647279D1*
X2593820Y1716943D1*
X2524203Y1714338D1*
X2608212Y1265795D2*
Y1346535D1*
X2605488Y1345377D1*
X2496029Y1224198D1*
X2566573Y1224192D1*
X2608213Y1265832D1*
X1914741Y1553208D2*
X1877565D1*
X1874192Y1492853D1*
X1874097Y1366298D1*
X1882899Y1364192D1*
X1913222D1*
X1913302Y1546092D1*
X1914050Y1550818D1*
X1914703Y1553131D1*
D31*
X2768700Y2443700D3*
D32*
Y2543700D3*
X2868700Y2443700D3*
Y2543700D3*
X2968700Y2443700D3*
Y2543700D3*
X3068700Y2443700D3*
Y2543700D3*
X3168700Y2443700D3*
Y2543700D3*
X3268700Y2443700D3*
Y2543700D3*
X3368700Y2443700D3*
Y2543700D3*
D31*
X2118700Y2443700D3*
D32*
Y2543700D3*
X2218700Y2443700D3*
Y2543700D3*
X2318700Y2443700D3*
Y2543700D3*
X2418700Y2443700D3*
Y2543700D3*
D31*
X743700Y2443700D3*
D32*
Y2543700D3*
X843700Y2443700D3*
Y2543700D3*
X943700Y2443700D3*
Y2543700D3*
X1043700Y2443700D3*
Y2543700D3*
X1143700Y2443700D3*
Y2543700D3*
X1243700Y2443700D3*
Y2543700D3*
X1343700Y2443700D3*
Y2543700D3*
D31*
X743700Y518700D3*
D32*
Y618700D3*
X843700Y518700D3*
Y618700D3*
X943700Y518700D3*
Y618700D3*
X1043700Y518700D3*
Y618700D3*
X1143700Y518700D3*
Y618700D3*
X1243700Y518700D3*
Y618700D3*
X1343700Y518700D3*
Y618700D3*
X1443700Y518700D3*
Y618700D3*
D31*
X1643700Y518700D3*
D32*
Y618700D3*
X1743700Y518700D3*
Y618700D3*
X1843700Y518700D3*
Y618700D3*
X1943700Y518700D3*
Y618700D3*
X2043700Y518700D3*
Y618700D3*
D31*
X2743700Y518700D3*
D32*
Y618700D3*
X2843700Y518700D3*
Y618700D3*
X2943700Y518700D3*
Y618700D3*
X3043700Y518700D3*
Y618700D3*
X3143700Y518700D3*
Y618700D3*
X3243700Y518700D3*
Y618700D3*
D31*
X2343700Y518700D3*
D32*
Y618700D3*
X2443700Y518700D3*
Y618700D3*
X2543700Y518700D3*
Y618700D3*
D34*
X3388700Y1893700D3*
X3624920D3*
X3506810Y2078739D3*
D35*
X913700Y2068700D3*
D36*
Y1970275D3*
Y1891535D3*
Y1793109D3*
D37*
X807007Y2189566D3*
Y1672243D3*
D31*
X1343700Y1643700D3*
D32*
X1443700D3*
X1543700D3*
X1643700D3*
X1743700D3*
X1843700D3*
X1943700D3*
X2043700D3*
X2143700D3*
X2243700D3*
X2343700D3*
D39*
X3693700Y1143700D3*
X3593700D3*
X3493700D3*
X3693700Y953700D3*
X3593700D3*
X3493700D3*
X3693700Y743700D3*
X3593700D3*
X3493700D3*
D31*
X2948700Y1463700D3*
D32*
X3048700D3*
D31*
X743700Y718700D3*
D32*
X843700D3*
X943700D3*
X1043700D3*
X1143700D3*
X1243700D3*
X1343700D3*
X1443700D3*
D31*
X2043700D3*
D32*
X1943700D3*
X1843700D3*
X1743700D3*
X1643700D3*
D31*
X2743700D3*
D32*
X2843700D3*
X2943700D3*
X3043700D3*
X3143700D3*
X3243700D3*
D31*
X3368700Y2343700D3*
D32*
X3268700D3*
X3168700D3*
X3068700D3*
X2968700D3*
X2868700D3*
X2768700D3*
D31*
X2118700D3*
D32*
X2218700D3*
X2318700D3*
X2418700D3*
D31*
X743700D3*
D32*
X843700D3*
X943700D3*
X1043700D3*
X1143700D3*
X1243700D3*
X1343700D3*
D31*
X2343700Y718700D3*
D32*
X2443700D3*
X2543700D3*
D31*
X2643700Y2343700D3*
D32*
X2543700D3*
D31*
X3368700Y2243700D3*
X1048700Y1718700D3*
D32*
Y1818700D3*
D31*
X3083700Y1923700D3*
D32*
X3183700D3*
X3083700Y1823700D3*
X3183700D3*
D49*
X558700Y2273267D3*
Y2308700D3*
D26*
X1838700Y1863700D3*
D32*
Y2119653D3*
D39*
X2843700Y2093700D3*
X2743700D3*
X2643700D3*
X2543700D3*
D50*
X3593700Y1633700D3*
D51*
X3493700D3*
X3393700D3*
X3193700D3*
X3293700D3*
D52*
X493700Y893700D3*
X593700D3*
X693700D3*
X793700D3*
X893700D3*
X993700D3*
X1093700D3*
X1193700D3*
X1293700D3*
X1393700D3*
X1493700D3*
X1593700D3*
X1693700D3*
X1793700D3*
X2293700Y993700D3*
X593700Y1393700D3*
D53*
X515700Y1238700D3*
Y1148700D3*
D52*
X2093700Y1493700D3*
X1793700D3*
X1693700D3*
X1593700D3*
X1493700D3*
X1393700D3*
X1293700D3*
X1193700D3*
X1093700D3*
X993700D3*
X893700D3*
X793700D3*
X693700D3*
X593700D3*
X493700D3*
X2293700Y1393700D3*
X743700Y1018700D3*
X843700D3*
X943700D3*
X2393700Y893700D3*
X2493700D3*
X2293700D3*
X2193700D3*
X2093700D3*
X1993700D3*
X2593700D3*
X2693700D3*
X2793700D3*
Y1493700D3*
X1893700Y893700D3*
X2693700Y1493700D3*
X1893700D3*
X2593700D3*
X2393700D3*
X2293700D3*
X2193700D3*
X2493700D3*
X1993700D3*
X2293700Y1293700D3*
X1043700Y1018700D3*
X1143700D3*
D31*
X2543700Y2443700D3*
D32*
Y2543700D3*
X2643700Y2443700D3*
Y2543700D3*
D39*
X2843700Y1843700D3*
X2743700D3*
X2643700D3*
X2543700D3*
D31*
X2693700Y1618700D3*
D32*
X2793700D3*
X2893700D3*
M02*
