G04 DipTrace 3.3.1.3*
G04 T4-T36-Breakout-Robotshop.gtp*
%MOIN*%
G04 #@! TF.FileFunction,Paste,Top*
G04 #@! TF.Part,Single*
%ADD45R,0.047244X0.047244*%
%ADD48R,0.031496X0.035433*%
%ADD70R,0.047238X0.007868*%
%ADD86R,0.025585X0.043301*%
%ADD90R,0.04527X0.015742*%
%ADD92R,0.07086X0.039364*%
%ADD94R,0.015742X0.04527*%
%ADD96R,0.039364X0.07086*%
%ADD108R,0.023616X0.055112*%
%ADD114R,0.043301X0.051175*%
%ADD116R,0.051175X0.043301*%
%FSLAX26Y26*%
G04*
G70*
G90*
G75*
G01*
G04 TopPaste*
%LPD*%
D116*
X3518700Y2443700D3*
Y2518503D3*
X2923700Y883700D3*
Y808897D3*
X2188700Y598700D3*
Y523897D3*
X1063700Y2008897D3*
Y2083700D3*
D114*
X1528700Y2178700D3*
X1603503D3*
D116*
X1448700Y2368700D3*
Y2443503D3*
X1543700Y613700D3*
Y538897D3*
X2643700Y611102D3*
Y536298D3*
D114*
X3103700Y1728700D3*
X3178503D3*
D108*
X1533700Y2043700D3*
Y1909842D3*
D96*
X1733700Y2568385D3*
X1513228D3*
D94*
X1682519Y2423700D3*
X1643149D3*
X1603779D3*
X1564409D3*
D96*
X2018700Y2568385D3*
X1798228D3*
D94*
X1967519Y2423700D3*
X1928149D3*
X1888779D3*
X1849409D3*
D92*
X3758700Y2108464D3*
Y2328936D3*
D90*
X3614015Y2159645D3*
Y2199015D3*
Y2238385D3*
Y2277755D3*
D45*
X3143700Y885039D3*
Y802361D3*
X3243700Y885039D3*
Y802361D3*
X3391220Y468700D3*
X3473897D3*
D86*
X1303700Y1873700D3*
X1378503D3*
X1341102Y1960314D3*
D48*
X2281298Y1879330D3*
X2356102D3*
X2318700Y1962007D3*
X2121298Y1879330D3*
X2196102D3*
X2158700Y1962007D3*
D114*
X3093700Y2093700D3*
X3168503D3*
X3168700Y2018700D3*
X3093897D3*
X1298700Y1788700D3*
X1373503D3*
D116*
X1428700Y2043700D3*
Y2118503D3*
D114*
X3463700Y568700D3*
X3388897D3*
X3056102Y1363700D3*
X2981298D3*
D116*
X3053700Y883700D3*
Y808897D3*
X3333700Y943700D3*
Y1018503D3*
D114*
X2196102Y1818700D3*
X2121298D3*
X3056102Y1288700D3*
X2981298D3*
X3256298Y1178700D3*
X3331102D3*
X3256298Y1098700D3*
X3331102D3*
X3056102Y1213700D3*
X2981298D3*
X2281298Y1818700D3*
X2356102D3*
D116*
X2318700Y2081298D3*
Y2156102D3*
X2158700Y2081298D3*
Y2156102D3*
X3333700Y878700D3*
Y803897D3*
D70*
X3103700Y998700D3*
Y1024291D3*
Y1049881D3*
Y1075472D3*
X2930472D3*
Y1049881D3*
Y1024291D3*
Y998700D3*
M02*
