G04 DipTrace 3.0.0.2*
G04 microsd-Adapter.gbl*
%MOIN*%
G04 #@! TF.FileFunction,Copper,L2,Bot*
G04 #@! TF.Part,Single*
G04 #@! TA.AperFunction,Conductor*
%ADD13C,0.008*%
G04 #@! TA.AperFunction,CopperBalancing*
%ADD14C,0.025*%
%ADD15R,0.147638X0.031496*%
%ADD16R,0.127953X0.031496*%
G04 #@! TA.AperFunction,ComponentPad*
%ADD17R,0.059055X0.059055*%
%ADD18C,0.059055*%
%FSLAX26Y26*%
G04*
G70*
G90*
G75*
G01*
G04 Bottom*
%LPD*%
X1139440Y758701D2*
D13*
X498701D1*
Y760047D1*
X1139440Y958701D2*
Y963557D1*
X1021356Y845473D1*
X498701D1*
Y846662D1*
X1139440Y558701D2*
Y575115D1*
X1048086Y666470D1*
X498701D1*
Y673433D1*
X1139440Y458701D2*
X1138354D1*
X1085329Y511725D1*
Y553553D1*
X1066495Y572387D1*
Y574748D1*
X1000878Y640365D1*
X498701D1*
Y630126D1*
X1139440Y1158701D2*
X1115071D1*
X1079428Y1123058D1*
Y1058148D1*
X954556Y933276D1*
X498701D1*
X1139440Y1058701D2*
Y1043809D1*
X985600Y889969D1*
X498701D1*
X1139440Y658701D2*
D14*
Y680305D1*
X1103005Y716740D1*
X488858D1*
X1139440Y858701D2*
X1087673Y806933D1*
X488858D1*
Y803355D1*
X1023784Y1156332D2*
X1067075D1*
X1021880Y1131463D2*
X1047641D1*
X1020024Y1106595D2*
X1046470D1*
X1018169Y1081726D2*
X1046470D1*
X1016313Y1056857D2*
X1032520D1*
X1170122Y1007120D2*
X1197788D1*
X1169194Y907645D2*
X1197397D1*
X1168218Y808170D2*
X1196958D1*
X591655Y708694D2*
X1111704D1*
X1167192D2*
X1196567D1*
X1076323Y683826D2*
X1196470D1*
X1101225Y658957D2*
X1196372D1*
X1126079Y634088D2*
X1196274D1*
X1166167Y609219D2*
X1196177D1*
X1016069Y559482D2*
X1036167D1*
X1017973Y534613D2*
X1052329D1*
X1019878Y509744D2*
X1052427D1*
X1169145D2*
X1195737D1*
X1021831Y484876D2*
X1066587D1*
X1023735Y460007D2*
X1080942D1*
X589170Y728215D2*
Y717807D1*
X436191D1*
X445733Y715673D1*
X589170D1*
Y696972D1*
X1050478Y696868D1*
X1057508Y695470D1*
X1064018Y692469D1*
X1069647Y688031D1*
X1069869Y687791D1*
X1143085Y614593D1*
X1152518Y613173D1*
X1160878Y610456D1*
X1168711Y606466D1*
X1175822Y601299D1*
X1182038Y595083D1*
X1187205Y587971D1*
X1191196Y580139D1*
X1193912Y571779D1*
X1195287Y563096D1*
Y554306D1*
X1193912Y545623D1*
X1191196Y537263D1*
X1187205Y529431D1*
X1182038Y522319D1*
X1175822Y516103D1*
X1168711Y510936D1*
X1164873Y508615D1*
X1172368Y504022D1*
X1179052Y498313D1*
X1184761Y491629D1*
X1189354Y484133D1*
X1192718Y476012D1*
X1194770Y467464D1*
X1195460Y458701D1*
X1194770Y449938D1*
X1192718Y441390D1*
X1190699Y436187D1*
X1197940Y436253D1*
X1201024Y1181217D1*
X1195460Y1177221D1*
Y1102681D1*
X1174122D1*
X1179052Y1098313D1*
X1184761Y1091629D1*
X1189354Y1084133D1*
X1192718Y1076012D1*
X1194770Y1067464D1*
X1195460Y1058701D1*
X1194770Y1049938D1*
X1192718Y1041390D1*
X1189354Y1033269D1*
X1184761Y1025773D1*
X1179052Y1019089D1*
X1172368Y1013380D1*
X1164701Y1008708D1*
X1172368Y1004022D1*
X1179052Y998313D1*
X1184761Y991629D1*
X1189354Y984133D1*
X1192718Y976012D1*
X1194770Y967464D1*
X1195460Y958701D1*
X1194770Y949938D1*
X1192718Y941390D1*
X1189354Y933269D1*
X1184761Y925773D1*
X1179052Y919089D1*
X1172368Y913380D1*
X1164701Y908708D1*
X1172368Y904022D1*
X1179052Y898313D1*
X1184761Y891629D1*
X1189354Y884133D1*
X1192718Y876012D1*
X1194770Y867464D1*
X1195460Y858701D1*
X1194770Y849938D1*
X1192718Y841390D1*
X1189354Y833269D1*
X1184761Y825773D1*
X1179052Y819089D1*
X1172368Y813380D1*
X1164701Y808708D1*
X1172368Y804022D1*
X1179052Y798313D1*
X1184761Y791629D1*
X1189354Y784133D1*
X1192718Y776012D1*
X1194770Y767464D1*
X1195460Y758701D1*
X1194770Y749938D1*
X1192718Y741390D1*
X1189354Y733269D1*
X1184761Y725773D1*
X1179052Y719089D1*
X1172368Y713380D1*
X1164873Y708787D1*
X1156751Y705423D1*
X1148204Y703371D1*
X1139440Y702681D1*
X1130677Y703371D1*
X1122129Y705423D1*
X1114008Y708787D1*
X1106513Y713380D1*
X1099828Y719089D1*
X1094119Y725773D1*
X1092487Y728216D1*
X589196Y728209D1*
X1083421Y1170113D2*
Y1181246D1*
X1023098Y1181201D1*
X1012085Y1033886D1*
X1048970Y1070812D1*
X1049030Y1125451D1*
X1050429Y1132481D1*
X1053430Y1138990D1*
X1057867Y1144619D1*
X1058108Y1144842D1*
X1083452Y1170204D1*
X1088181Y436187D2*
X1084968Y445623D1*
X1083593Y454306D1*
Y463096D1*
X1084503Y469436D1*
X1062143Y491922D1*
X1058161Y497882D1*
X1055680Y504607D1*
X1054837Y511725D1*
X1054851Y512071D1*
X1054837Y540973D1*
X1043309Y552584D1*
X1039326Y558544D1*
X1039158Y558909D1*
X1039326Y558544D1*
X1027256Y570865D1*
X1011477Y586643D1*
X1023060Y436169D1*
X1088093Y436201D1*
X941937Y963779D2*
X959036Y981201D1*
X809084D1*
X788145Y963749D1*
X941914Y963768D1*
D15*
X488858Y803355D3*
D16*
X498701Y760047D3*
D15*
X488858Y716740D3*
D16*
X498701Y673433D3*
Y630126D3*
Y846662D3*
Y889969D3*
Y933276D3*
D17*
X1139440Y1158701D3*
D18*
Y1058701D3*
Y958701D3*
Y858701D3*
Y758701D3*
Y658701D3*
Y558701D3*
Y458701D3*
M02*
