G04 DipTrace Beta 2.9.0.1*
G04 TeensyArbotixProV3.gts*
%MOIN*%
G04 #@! TF.FileFunction,Soldermask,Top*
G04 #@! TF.Part,Single*
%ADD13C,0.04*%
%ADD33C,0.065199*%
%ADD37R,0.1X0.05*%
%ADD43C,0.17*%
%ADD45C,0.074*%
%ADD46R,0.047244X0.047244*%
%ADD47C,0.05315*%
%ADD53R,0.035433X0.031496*%
%ADD55C,0.06194*%
%ADD70C,0.069972*%
%ADD72R,0.031654X0.086772*%
%ADD76R,0.051339X0.031654*%
%ADD78C,0.068032*%
%ADD82R,0.417481X0.389922*%
%ADD84R,0.067087X0.163544*%
%ADD86R,0.041497X0.059213*%
%ADD96R,0.039528X0.071024*%
%ADD98R,0.047402X0.043465*%
%ADD100R,0.067087X0.067087*%
%ADD102R,0.114331X0.071024*%
%ADD106R,0.059213X0.067087*%
%ADD108C,0.067087*%
%ADD112R,0.067087X0.059213*%
%FSLAX26Y26*%
G04*
G70*
G90*
G75*
G01*
G04 TopMask*
%LPD*%
D112*
X1567297Y1159943D3*
Y1085139D3*
D33*
X2150866Y744016D3*
Y644016D3*
Y544016D3*
D108*
X835866Y901752D3*
X935866D3*
X1035866D3*
X735866D3*
X935866Y1601752D3*
X1035866D3*
X1135866D3*
X835866D3*
X1135866Y901752D3*
X1235866D3*
D106*
X2592866Y2106347D3*
X2667670D3*
D37*
X2538366Y1169016D3*
X2713366D3*
X2863366Y844016D3*
X3038366D3*
D112*
X2525866Y3041462D3*
Y2966659D3*
D102*
X766583Y1866687D3*
Y1756450D3*
D37*
X2863366Y1169016D3*
X3038366D3*
D100*
X1850866Y2994016D3*
D108*
X1750866D3*
X1650866D3*
X1550866D3*
X1450866D3*
X1350866D3*
X1250866D3*
X1150866D3*
D100*
X2325866Y2694016D3*
D108*
X2425866D3*
X2325866Y2594016D3*
X2425866D3*
X2325866Y2494016D3*
X2425866D3*
X2325866Y2394016D3*
X2425866D3*
X2325866Y2294016D3*
X2425866D3*
X2325866Y2194016D3*
X2425866D3*
D100*
X2225866D3*
D108*
Y2294016D3*
Y2394016D3*
Y2494016D3*
Y2594016D3*
Y2694016D3*
D100*
X2325866Y3019016D3*
D108*
X2425866D3*
X2325866Y2919016D3*
X2425866D3*
X2325866Y2819016D3*
X2425866D3*
D100*
X2225866Y3019016D3*
D108*
Y2919016D3*
Y2819016D3*
D98*
X1082362Y503307D3*
Y664725D3*
X1019370D3*
Y503307D3*
D96*
X1470969Y1691691D3*
Y1825549D3*
D100*
X1930866Y2644016D3*
D43*
X2446866Y987016D3*
Y750796D3*
X2631906Y868906D3*
D100*
X2170866Y1874016D3*
D108*
Y1774016D3*
Y1674016D3*
Y1574016D3*
D100*
X965866Y3002016D3*
D108*
Y2902016D3*
X865866Y3002016D3*
Y2902016D3*
D13*
X750866Y2444016D3*
D45*
D3*
D33*
X3025866Y1444016D3*
X2925866D3*
X2825866D3*
X3025866Y1694016D3*
X2925866D3*
X2825866D3*
X3025866Y1944016D3*
X2925866D3*
X2825866D3*
X3025866Y2194016D3*
X2925866D3*
X2825866D3*
X3025866Y2444016D3*
X2925866D3*
X2825866D3*
X2610866Y2244016D3*
Y2344016D3*
Y2444016D3*
D100*
X600866Y2024016D3*
D108*
X700866D3*
X800866D3*
X900866D3*
X1000866D3*
X1100866D3*
X1200866D3*
X1300866D3*
D100*
X1400866D3*
D108*
X1500866D3*
X1600866D3*
X1700866D3*
X1800866D3*
X1900866D3*
D46*
X875866Y599355D3*
Y516677D3*
D47*
X465866Y1800383D3*
X530866D3*
X600866D3*
X665866D3*
D46*
X2709528Y559016D3*
X2792205D3*
D86*
X2166866Y2047016D3*
X2092063D3*
X2129465Y1960402D3*
D84*
X2400864Y1419666D3*
X2600866Y1419646D3*
D82*
X2500866Y1825197D3*
D53*
X2004537Y1479525D3*
Y1404722D3*
X2087214Y1442124D3*
D106*
X2638268Y2581462D3*
X2563465D3*
Y2669016D3*
X2638268D3*
X1159866Y1756016D3*
X1085063D3*
D112*
X2758866Y711614D3*
Y786418D3*
D106*
X2268268Y1419016D3*
X2193465D3*
D112*
X1135866Y1106418D3*
Y1031614D3*
X1035866Y1106418D3*
Y1031614D3*
X1780866Y1361614D3*
Y1436418D3*
X2005519Y2080689D3*
Y2155492D3*
X2825866Y2681418D3*
Y2606614D3*
X1916702Y1360712D3*
Y1435515D3*
D106*
X1418404Y808273D3*
X1493208D3*
X1224666Y728113D3*
X1299469D3*
X1418404Y728247D3*
X1493208D3*
X1083866Y1866065D3*
X1158670D3*
X878465Y671275D3*
X953268D3*
D98*
X1282362Y503307D3*
Y664725D3*
X1219370D3*
Y503307D3*
X1419370Y664725D3*
Y503307D3*
X1482362D3*
Y664725D3*
D78*
X1772914Y1842016D3*
D108*
Y1586063D3*
D76*
X1332866Y1800016D3*
Y1837418D3*
Y1874819D3*
X1226567D3*
Y1800016D3*
D55*
X500866Y2144016D3*
X600866D3*
X700866D3*
X800866D3*
X900866D3*
X1000866D3*
X1100866D3*
X1200866D3*
X1300866D3*
X1400866D3*
X1500866D3*
X1600866D3*
X1700866D3*
X1800866D3*
Y2444016D3*
Y2644016D3*
Y2744016D3*
X1700866D3*
X1600866D3*
X1500866D3*
X1400866D3*
X1300866D3*
X1200866D3*
X1100866D3*
X1000866D3*
X900866D3*
X800866D3*
X700866D3*
X600866D3*
X500866D3*
X600866Y2644016D3*
X800866D3*
X900866D3*
X1000866D3*
X1700866Y2444016D3*
Y2544016D3*
X1600866Y2444016D3*
X1500866D3*
X1400866D3*
X1300866D3*
X1600866Y2544016D3*
X1500866D3*
X1400866D3*
X1300866D3*
X1200866D3*
X1100866D3*
X1200866Y2444016D3*
X1100866D3*
D72*
X1643202Y901332D3*
X1693202D3*
X1743202D3*
X1793202D3*
X1843202D3*
X1893202D3*
X1943202D3*
X1993202D3*
X2043202D3*
X2093202D3*
Y1271411D3*
X2043202D3*
X1993202D3*
X1943202D3*
X1893202D3*
X1843202D3*
X1793202D3*
X1743202D3*
X1693202D3*
X1643202D3*
D70*
X1800866Y2344016D3*
M02*
