G04 DipTrace Beta 2.9.0.1*
G04 TeensyArbotixProV3.gbo*
%MOIN*%
G04 #@! TF.FileFunction,Legend,Bot*
G04 #@! TF.Part,Single*
%ADD114C,0.006176*%
%ADD115C,0.009264*%
%ADD116C,0.00772*%
%FSLAX26Y26*%
G04*
G70*
G90*
G75*
G01*
G04 BotSilk*
%LPD*%
X1643698Y1410489D2*
D115*
X1703986D1*
X1643698Y1430585D2*
Y1390393D1*
X1681039Y1371866D2*
Y1337445D1*
X1675268D1*
X1669498Y1340296D1*
X1666646Y1343148D1*
X1663794Y1348918D1*
Y1357541D1*
X1666646Y1363244D1*
X1672417Y1369014D1*
X1681039Y1371866D1*
X1686742D1*
X1695364Y1369014D1*
X1701068Y1363244D1*
X1703986Y1357541D1*
Y1348918D1*
X1701068Y1343148D1*
X1695364Y1337445D1*
X1681039Y1318917D2*
Y1284496D1*
X1675268D1*
X1669498Y1287347D1*
X1666646Y1290199D1*
X1663794Y1295970D1*
Y1304592D1*
X1666646Y1310295D1*
X1672417Y1316066D1*
X1681039Y1318917D1*
X1686742D1*
X1695364Y1316066D1*
X1701068Y1310295D1*
X1703986Y1304592D1*
Y1295970D1*
X1701068Y1290199D1*
X1695364Y1284496D1*
X1663794Y1265968D2*
X1703986D1*
X1675268D2*
X1666646Y1257346D1*
X1663794Y1251576D1*
Y1243021D1*
X1666646Y1237250D1*
X1675268Y1234399D1*
X1703986D1*
X1672417Y1184301D2*
X1666646Y1187153D1*
X1663794Y1195775D1*
Y1204397D1*
X1666646Y1213020D1*
X1672417Y1215871D1*
X1678120Y1213020D1*
X1681039Y1207249D1*
X1683890Y1192924D1*
X1686742Y1187153D1*
X1692513Y1184301D1*
X1695364D1*
X1701068Y1187153D1*
X1703986Y1195775D1*
Y1204397D1*
X1701068Y1213020D1*
X1695364Y1215871D1*
X1663794Y1162856D2*
X1703986Y1145678D1*
X1715460Y1151382D1*
X1721231Y1157152D1*
X1724082Y1162856D1*
Y1165774D1*
X1663794Y1128434D2*
X1703986Y1145678D1*
Y1005624D2*
X1643698Y1028638D1*
X1703986Y1051586D1*
X1683890Y1042964D2*
Y1014246D1*
X1663794Y987097D2*
X1703986D1*
X1681039D2*
X1672417Y984179D1*
X1666646Y978475D1*
X1663794Y972705D1*
Y964083D1*
X1643698Y945555D2*
X1703986D1*
X1672417D2*
X1666646Y939785D1*
X1663794Y934081D1*
Y925459D1*
X1666646Y919756D1*
X1672417Y913985D1*
X1681039Y911134D1*
X1686742D1*
X1695364Y913985D1*
X1701068Y919756D1*
X1703986Y925459D1*
Y934081D1*
X1701068Y939785D1*
X1695364Y945555D1*
X1663794Y878281D2*
X1666646Y883984D1*
X1672417Y889755D1*
X1681039Y892606D1*
X1686742D1*
X1695364Y889755D1*
X1701068Y883984D1*
X1703986Y878281D1*
Y869659D1*
X1701068Y863888D1*
X1695364Y858185D1*
X1686742Y855266D1*
X1681039D1*
X1672417Y858185D1*
X1666646Y863888D1*
X1663794Y869659D1*
Y878281D1*
X1643698Y828117D2*
X1692513D1*
X1701068Y825265D1*
X1703986Y819495D1*
Y813791D1*
X1663794Y836739D2*
Y816643D1*
X1643698Y795264D2*
X1646550Y792412D1*
X1643698Y789494D1*
X1640780Y792412D1*
X1643698Y795264D1*
X1663794Y792412D2*
X1703986D1*
X1663794Y770967D2*
X1703986Y739397D1*
X1663794D2*
X1703986Y770967D1*
X1675268Y662549D2*
Y636683D1*
X1672417Y628127D1*
X1669498Y625209D1*
X1663795Y622357D1*
X1655172D1*
X1649469Y625209D1*
X1646550Y628127D1*
X1643699Y636683D1*
Y662549D1*
X1703986D1*
X1663795Y603830D2*
X1703986D1*
X1681039D2*
X1672417Y600912D1*
X1666646Y595208D1*
X1663795Y589438D1*
Y580816D1*
X1663794Y547963D2*
X1666646Y553666D1*
X1672417Y559437D1*
X1681039Y562288D1*
X1686742D1*
X1695364Y559437D1*
X1701068Y553666D1*
X1703987Y547963D1*
Y539341D1*
X1701068Y533570D1*
X1695364Y527867D1*
X1686742Y524948D1*
X1681039D1*
X1672417Y527867D1*
X1666646Y533570D1*
X1663794Y539341D1*
Y547963D1*
X1767698Y1109580D2*
X1827986Y1086632D1*
X1767699Y1063684D1*
X1767765Y1027913D2*
X1770617Y1036535D1*
X1779239Y1042305D1*
X1793565Y1045157D1*
X1802187D1*
X1816513Y1042305D1*
X1825135Y1036535D1*
X1827986Y1027913D1*
Y1022209D1*
X1825135Y1013587D1*
X1816513Y1007883D1*
X1802187Y1004965D1*
X1793565D1*
X1779239Y1007883D1*
X1770617Y1013587D1*
X1767765Y1022209D1*
Y1027913D1*
X1779239Y1007883D2*
X1816513Y1042305D1*
X1822216Y983586D2*
X1825135Y986438D1*
X1827987Y983586D1*
X1825135Y980667D1*
X1822216Y983586D1*
X1767765Y956370D2*
Y924867D1*
X1790713Y942044D1*
Y933422D1*
X1793565Y927719D1*
X1796417Y924867D1*
X1805039Y921948D1*
X1810742D1*
X1819364Y924867D1*
X1825135Y930570D1*
X1827987Y939192D1*
Y947814D1*
X1825135Y956370D1*
X1822216Y959222D1*
X1816513Y962140D1*
X1740614Y2892270D2*
D116*
X1745422Y2889838D1*
X1752608Y2882708D1*
Y2932893D1*
X1637546Y2894647D2*
Y2892270D1*
X1639923Y2887462D1*
X1642299Y2885085D1*
X1647108Y2882708D1*
X1656669D1*
X1661422Y2885085D1*
X1663799Y2887462D1*
X1666231Y2892270D1*
Y2897023D1*
X1663799Y2901832D1*
X1659046Y2908961D1*
X1635114Y2932893D1*
X1668608D1*
X1539923Y2882708D2*
X1566176D1*
X1551861Y2901832D1*
X1559046D1*
X1563799Y2904208D1*
X1566176Y2906585D1*
X1568608Y2913770D1*
Y2918523D1*
X1566176Y2925708D1*
X1561422Y2930517D1*
X1554237Y2932893D1*
X1547052D1*
X1539923Y2930517D1*
X1537546Y2928085D1*
X1535114Y2923332D1*
X1466231Y2889838D2*
X1463854Y2885085D1*
X1456669Y2882708D1*
X1451916D1*
X1444731Y2885085D1*
X1439923Y2892270D1*
X1437546Y2904208D1*
Y2916147D1*
X1439923Y2925708D1*
X1444731Y2930517D1*
X1451916Y2932893D1*
X1454293D1*
X1461422Y2930517D1*
X1466231Y2925708D1*
X1468608Y2918523D1*
Y2916147D1*
X1466231Y2908961D1*
X1461422Y2904208D1*
X1454293Y2901832D1*
X1451916D1*
X1444731Y2904208D1*
X1439923Y2908962D1*
X1437546Y2916147D1*
X1344676Y2932893D2*
X1368608Y2882708D1*
X1335114D1*
X1247108D2*
X1239978Y2885085D1*
X1237546Y2889838D1*
Y2894647D1*
X1239978Y2899400D1*
X1244731Y2901832D1*
X1254293Y2904208D1*
X1261478Y2906585D1*
X1266231Y2911393D1*
X1268608Y2916147D1*
Y2923332D1*
X1266231Y2928085D1*
X1263854Y2930517D1*
X1256669Y2932893D1*
X1247108D1*
X1239978Y2930517D1*
X1237546Y2928085D1*
X1235170Y2923332D1*
X1235169Y2916147D1*
X1237546Y2911393D1*
X1242355Y2906585D1*
X1249484Y2904208D1*
X1259046Y2901832D1*
X1263854Y2899400D1*
X1266231Y2894647D1*
Y2889838D1*
X1263854Y2885085D1*
X1256669Y2882708D1*
X1247108D1*
X1163608Y2899400D2*
X1161176Y2906585D1*
X1156422Y2911393D1*
X1149237Y2913770D1*
X1146861D1*
X1139676Y2911393D1*
X1134923Y2906585D1*
X1132491Y2899400D1*
Y2897023D1*
X1134923Y2889838D1*
X1139676Y2885085D1*
X1146861Y2882708D1*
X1149237D1*
X1156422Y2885085D1*
X1161176Y2889838D1*
X1163608Y2899400D1*
Y2911393D1*
X1161176Y2923332D1*
X1156422Y2930517D1*
X1149237Y2932893D1*
X1144484D1*
X1137299Y2930517D1*
X1134923Y2925708D1*
X1848675Y2933893D2*
X1829496Y2883653D1*
X1810373Y2933893D1*
X1817558Y2917147D2*
X1841490D1*
X1878484Y2883708D2*
X1871299Y2886085D1*
X1866491Y2893270D1*
X1864114Y2905208D1*
Y2912393D1*
X1866491Y2924332D1*
X1871299Y2931517D1*
X1878484Y2933893D1*
X1883237D1*
X1890422Y2931517D1*
X1895176Y2924332D1*
X1897608Y2912393D1*
Y2905208D1*
X1895176Y2893270D1*
X1890422Y2886085D1*
X1883237Y2883708D1*
X1878484D1*
X1895176Y2893270D2*
X1866491Y2924332D1*
X2121224Y2213845D2*
X2118792Y2209037D1*
X2111663Y2201852D1*
X2161847D1*
X2111663Y2157728D2*
Y2181604D1*
X2133162Y2183981D1*
X2130786Y2181604D1*
X2128354Y2174419D1*
Y2167289D1*
X2130786Y2160104D1*
X2135539Y2155296D1*
X2142724Y2152919D1*
X2147477D1*
X2154662Y2155296D1*
X2159471Y2160104D1*
X2161847Y2167289D1*
Y2174419D1*
X2159471Y2181604D1*
X2157039Y2183981D1*
X2152286Y2186413D1*
X2126224Y2316413D2*
X2123792Y2311605D1*
X2116663Y2304420D1*
X2166847D1*
X2123792Y2260296D2*
X2119039Y2262672D1*
X2116663Y2269857D1*
Y2274611D1*
X2119039Y2281796D1*
X2126224Y2286604D1*
X2138162Y2288981D1*
X2150101D1*
X2159662Y2286604D1*
X2164471Y2281796D1*
X2166847Y2274611D1*
Y2272234D1*
X2164471Y2265104D1*
X2159662Y2260296D1*
X2152477Y2257919D1*
X2150101D1*
X2142916Y2260296D1*
X2138162Y2265104D1*
X2135786Y2272234D1*
Y2274611D1*
X2138162Y2281796D1*
X2142916Y2286604D1*
X2150101Y2288981D1*
X2121224Y2418845D2*
X2118792Y2414037D1*
X2111663Y2406852D1*
X2161847D1*
Y2381851D2*
X2111663Y2357919D1*
Y2391413D1*
X2121224Y2513790D2*
X2118792Y2508982D1*
X2111663Y2501797D1*
X2161847Y2501796D1*
X2111663Y2474419D2*
X2114039Y2481549D1*
X2118792Y2483981D1*
X2123601D1*
X2128354Y2481549D1*
X2130786Y2476796D1*
X2133162Y2467234D1*
X2135539Y2460049D1*
X2140347Y2455296D1*
X2145101Y2452919D1*
X2152286D1*
X2157039Y2455296D1*
X2159471Y2457672D1*
X2161847Y2464857D1*
Y2474419D1*
X2159471Y2481549D1*
X2157039Y2483981D1*
X2152286Y2486357D1*
X2145101D1*
X2140347Y2483981D1*
X2135539Y2479172D1*
X2133162Y2472042D1*
X2130786Y2462481D1*
X2128354Y2457672D1*
X2123601Y2455296D1*
X2118792D1*
X2114039Y2457672D1*
X2111663Y2464857D1*
Y2474419D1*
X2126224Y2616469D2*
X2123792Y2611660D1*
X2116663Y2604475D1*
X2166847D1*
X2133354Y2557919D2*
X2140539Y2560351D1*
X2145347Y2565104D1*
X2147724Y2572289D1*
Y2574666D1*
X2145347Y2581851D1*
X2140539Y2586604D1*
X2133354Y2589036D1*
X2130977D1*
X2123792Y2586604D1*
X2119039Y2581851D1*
X2116663Y2574666D1*
Y2572289D1*
X2119039Y2565104D1*
X2123792Y2560351D1*
X2133354Y2557919D1*
X2145347D1*
X2157286Y2560351D1*
X2164471Y2565104D1*
X2166847Y2572289D1*
Y2577042D1*
X2164471Y2584227D1*
X2159662Y2586604D1*
X2123601Y2727913D2*
X2121224D1*
X2116416Y2725537D1*
X2114039Y2723160D1*
X2111663Y2718352D1*
Y2708790D1*
X2114039Y2704037D1*
X2116416Y2701660D1*
X2121224Y2699228D1*
X2125977D1*
X2130786Y2701660D1*
X2137916Y2706413D1*
X2161847Y2730345D1*
Y2696852D1*
X2111663Y2667042D2*
X2114039Y2674228D1*
X2121224Y2679036D1*
X2133162Y2681413D1*
X2140347D1*
X2152286Y2679036D1*
X2159471Y2674227D1*
X2161847Y2667042D1*
Y2662289D1*
X2159471Y2655104D1*
X2152286Y2650351D1*
X2140347Y2647919D1*
X2133162D1*
X2121224Y2650351D1*
X2114039Y2655104D1*
X2111663Y2662289D1*
Y2667042D1*
X2121224Y2650351D2*
X2152286Y2679036D1*
X2179216Y2840097D2*
D114*
Y2799905D1*
X2165818D1*
X2160070Y2801851D1*
X2156223Y2805653D1*
X2154322Y2809500D1*
X2152421Y2815204D1*
Y2824799D1*
X2154322Y2830547D1*
X2156223Y2834349D1*
X2160070Y2838196D1*
X2165818Y2840097D1*
X2179216D1*
X2136223Y2840053D2*
X2115220D1*
X2126672Y2824755D1*
X2120924D1*
X2117122Y2822853D1*
X2115220Y2820952D1*
X2113275Y2815204D1*
Y2811401D1*
X2115220Y2805653D1*
X2119023Y2801807D1*
X2124771Y2799905D1*
X2130519D1*
X2136223Y2801807D1*
X2138124Y2803752D1*
X2140070Y2807555D1*
X2098978Y2830503D2*
Y2832404D1*
X2097077Y2836251D1*
X2095175Y2838152D1*
X2091329Y2840053D1*
X2083679D1*
X2079877Y2838152D1*
X2077976Y2836251D1*
X2076030Y2832404D1*
Y2828601D1*
X2077976Y2824755D1*
X2081778Y2819051D1*
X2100923Y2799905D1*
X2074129D1*
X2179216Y2938097D2*
Y2897905D1*
X2165818D1*
X2160070Y2899851D1*
X2156223Y2903653D1*
X2154322Y2907500D1*
X2152421Y2913204D1*
Y2922799D1*
X2154322Y2928547D1*
X2156223Y2932349D1*
X2160070Y2936196D1*
X2165818Y2938097D1*
X2179216D1*
X2136223Y2938053D2*
X2115220D1*
X2126672Y2922755D1*
X2120924D1*
X2117122Y2920853D1*
X2115220Y2918952D1*
X2113275Y2913204D1*
Y2909401D1*
X2115220Y2903653D1*
X2119023Y2899807D1*
X2124771Y2897905D1*
X2130519D1*
X2136223Y2899807D1*
X2138124Y2901752D1*
X2140070Y2905555D1*
X2097077Y2938053D2*
X2076074D1*
X2087526Y2922755D1*
X2081778D1*
X2077976Y2920853D1*
X2076074Y2918952D1*
X2074129Y2913204D1*
Y2909401D1*
X2076074Y2903653D1*
X2079877Y2899807D1*
X2085625Y2897905D1*
X2091373D1*
X2097077Y2899807D1*
X2098978Y2901752D1*
X2100923Y2905555D1*
X598401Y1965459D2*
D116*
X605586Y1963082D1*
X610394Y1955897D1*
X612771Y1943959D1*
Y1936774D1*
X610394Y1924836D1*
X605586Y1917651D1*
X598401Y1915274D1*
X593647D1*
X586462Y1917651D1*
X581709Y1924836D1*
X579277Y1936774D1*
Y1943959D1*
X581709Y1955897D1*
X586462Y1963082D1*
X593647Y1965459D1*
X598401D1*
X581709Y1955897D2*
X610394Y1924836D1*
X702860Y1956300D2*
X698052Y1958732D1*
X690867Y1965862D1*
Y1915677D1*
X809928Y1953923D2*
Y1956300D1*
X807552Y1961108D1*
X805175Y1963485D1*
X800366Y1965862D1*
X790805D1*
X786052Y1963485D1*
X783675Y1961108D1*
X781243Y1956300D1*
Y1951547D1*
X783675Y1946738D1*
X788428Y1939609D1*
X812360Y1915677D1*
X778867D1*
X913552Y1965862D2*
X887298D1*
X901613Y1946738D1*
X894428D1*
X889675Y1944362D1*
X887298Y1941985D1*
X884867Y1934800D1*
Y1930047D1*
X887298Y1922862D1*
X892052Y1918053D1*
X899237Y1915677D1*
X906422D1*
X913552Y1918053D1*
X915928Y1920485D1*
X918360Y1925239D1*
X992805Y1915677D2*
Y1965862D1*
X1016737Y1932424D1*
X980867D1*
X1085675Y1965862D2*
X1109552D1*
X1111928Y1944362D1*
X1109552Y1946738D1*
X1102366Y1949170D1*
X1095237D1*
X1088052Y1946738D1*
X1083243Y1941985D1*
X1080867Y1934800D1*
Y1930047D1*
X1083243Y1922862D1*
X1088052Y1918053D1*
X1095237Y1915677D1*
X1102366D1*
X1109552Y1918053D1*
X1111928Y1920485D1*
X1114360Y1925239D1*
X1188243Y1958732D2*
X1190620Y1963485D1*
X1197805Y1965862D1*
X1202558D1*
X1209743Y1963485D1*
X1214552Y1956300D1*
X1216928Y1944362D1*
Y1932424D1*
X1214552Y1922862D1*
X1209743Y1918053D1*
X1202558Y1915677D1*
X1200181D1*
X1193052Y1918053D1*
X1188243Y1922862D1*
X1185867Y1930047D1*
Y1932424D1*
X1188243Y1939609D1*
X1193052Y1944362D1*
X1200181Y1946738D1*
X1202558D1*
X1209743Y1944362D1*
X1214552Y1939609D1*
X1216928Y1932424D1*
X1304798Y1915677D2*
X1280867Y1965862D1*
X1314360D1*
X1407366Y1962862D2*
X1414496Y1960485D1*
X1416928Y1955732D1*
Y1950923D1*
X1414496Y1946170D1*
X1409743Y1943738D1*
X1400181Y1941362D1*
X1392996Y1938985D1*
X1388243Y1934177D1*
X1385867Y1929424D1*
Y1922239D1*
X1388243Y1917485D1*
X1390620Y1915053D1*
X1397805Y1912677D1*
X1407366D1*
X1414496Y1915053D1*
X1416928Y1917485D1*
X1419305Y1922239D1*
Y1929424D1*
X1416928Y1934177D1*
X1412120Y1938985D1*
X1404990Y1941362D1*
X1395428Y1943738D1*
X1390620Y1946170D1*
X1388243Y1950923D1*
Y1955732D1*
X1390620Y1960485D1*
X1397805Y1962862D1*
X1407366D1*
X1485867Y1946170D2*
X1488298Y1938985D1*
X1493052Y1934177D1*
X1500237Y1931800D1*
X1502613D1*
X1509798Y1934177D1*
X1514552Y1938985D1*
X1516983Y1946170D1*
Y1948547D1*
X1514552Y1955732D1*
X1509798Y1960485D1*
X1502613Y1962862D1*
X1500237D1*
X1493052Y1960485D1*
X1488298Y1955732D1*
X1485867Y1946170D1*
Y1934177D1*
X1488298Y1922239D1*
X1493052Y1915053D1*
X1500237Y1912677D1*
X1504990D1*
X1512175Y1915053D1*
X1514552Y1919862D1*
X1632793Y1958300D2*
X1627984Y1960732D1*
X1620799Y1967862D1*
Y1917677D1*
X1590990Y1967862D2*
X1598175Y1965485D1*
X1602983Y1958300D1*
X1605360Y1946362D1*
Y1939177D1*
X1602983Y1927239D1*
X1598175Y1920053D1*
X1590990Y1917677D1*
X1586237D1*
X1579052Y1920053D1*
X1574298Y1927239D1*
X1571867Y1939177D1*
Y1946362D1*
X1574298Y1958300D1*
X1579052Y1965485D1*
X1586237Y1967862D1*
X1590990D1*
X1574298Y1958300D2*
X1602983Y1927239D1*
X1706293Y1958300D2*
X1701484Y1960732D1*
X1694299Y1967862D1*
Y1917677D1*
X1678860Y1958300D2*
X1674052Y1960732D1*
X1666867Y1967862D1*
Y1917677D1*
X1832793Y1955300D2*
X1827984Y1957732D1*
X1820799Y1964862D1*
Y1914677D1*
X1802928Y1952923D2*
Y1955300D1*
X1800552Y1960108D1*
X1798175Y1962485D1*
X1793366Y1964862D1*
X1783805D1*
X1779052Y1962485D1*
X1776675Y1960108D1*
X1774243Y1955300D1*
Y1950547D1*
X1776675Y1945738D1*
X1781428Y1938609D1*
X1805360Y1914677D1*
X1771867D1*
X1932793Y1955300D2*
X1927984Y1957732D1*
X1920799Y1964862D1*
Y1914677D1*
X1900552Y1964862D2*
X1874298D1*
X1888613Y1945738D1*
X1881428D1*
X1876675Y1943362D1*
X1874298Y1940985D1*
X1871867Y1933800D1*
Y1929047D1*
X1874298Y1921862D1*
X1879052Y1917053D1*
X1886237Y1914677D1*
X1893422D1*
X1900552Y1917053D1*
X1902928Y1919485D1*
X1905360Y1924239D1*
X1993607Y2712463D2*
X2043847D1*
Y2695716D1*
X2041415Y2688531D1*
X2036662Y2683723D1*
X2031854Y2681346D1*
X2024724Y2678969D1*
X2012731D1*
X2005546Y2681346D1*
X2000792Y2683723D1*
X1995984Y2688531D1*
X1993607Y2695716D1*
Y2712463D1*
X2043847Y2625228D2*
X1993607Y2644407D1*
X2043847Y2663530D1*
X2027101Y2656345D2*
Y2632413D1*
X2005545Y2573919D2*
X2000792Y2576296D1*
X1995984Y2581104D1*
X1993607Y2585857D1*
Y2595419D1*
X1995984Y2600228D1*
X2000792Y2604981D1*
X2005546Y2607413D1*
X2012731Y2609789D1*
X2024724D1*
X2031854Y2607413D1*
X2036662Y2604981D1*
X2041415Y2600227D1*
X2043847Y2595419D1*
Y2585857D1*
X2041415Y2581104D1*
X2036662Y2576296D1*
X2031854Y2573919D1*
X802958Y2947223D2*
D114*
X774262D1*
X768514Y2949125D1*
X764712Y2952971D1*
X762766Y2958719D1*
Y2962522D1*
X764712Y2968270D1*
X768514Y2972117D1*
X774262Y2974018D1*
X802958D1*
X797210Y3013164D2*
X801057Y3009361D1*
X802958Y3003613D1*
Y2995964D1*
X801057Y2990216D1*
X797210Y2986369D1*
X793408D1*
X789561Y2988315D1*
X787660Y2990216D1*
X785758Y2994019D1*
X781912Y3005515D1*
X780010Y3009361D1*
X778065Y3011263D1*
X774262Y3013164D1*
X768514D1*
X764712Y3009361D1*
X762766Y3003613D1*
Y2995964D1*
X764712Y2990216D1*
X768514Y2986369D1*
X802958Y3025515D2*
X762766D1*
Y3042759D1*
X764712Y3048507D1*
X766613Y3050409D1*
X770416Y3052310D1*
X776164D1*
X780010Y3050409D1*
X781912Y3048507D1*
X783813Y3042759D1*
X785758Y3048507D1*
X787660Y3050409D1*
X791462Y3052310D1*
X795309D1*
X799111Y3050409D1*
X801057Y3048507D1*
X802958Y3042759D1*
Y3025515D1*
X783813D2*
Y3042759D1*
X1029976Y3002637D2*
Y3021738D1*
X1047176Y3023640D1*
X1045275Y3021738D1*
X1043329Y3015990D1*
Y3010286D1*
X1045275Y3004538D1*
X1049077Y3000692D1*
X1054825Y2998790D1*
X1058628D1*
X1064376Y3000692D1*
X1068223Y3004538D1*
X1070124Y3010286D1*
Y3015990D1*
X1068223Y3021738D1*
X1066277Y3023639D1*
X1062475Y3025585D1*
X1043329Y2986439D2*
X1070124Y2974943D1*
X1043329Y2963491D1*
X1993663Y2358155D2*
D116*
Y2331902D1*
X2012786Y2346217D1*
Y2339032D1*
X2015162Y2334279D1*
X2017539Y2331902D1*
X2024724Y2329470D1*
X2029477D1*
X2036662Y2331902D1*
X2041471Y2336655D1*
X2043847Y2343840D1*
Y2351025D1*
X2041471Y2358155D1*
X2039039Y2360532D1*
X2034286Y2362964D1*
X2039039Y2311655D2*
X2041471Y2314031D1*
X2043847Y2311655D1*
X2041471Y2309223D1*
X2039039Y2311655D1*
X1993663Y2288975D2*
Y2262722D1*
X2012786Y2277037D1*
Y2269852D1*
X2015162Y2265099D1*
X2017539Y2262722D1*
X2024724Y2260290D1*
X2029477D1*
X2036662Y2262722D1*
X2041471Y2267475D1*
X2043847Y2274660D1*
Y2281845D1*
X2041471Y2288975D1*
X2039039Y2291352D1*
X2034286Y2293783D1*
X1993607Y2220919D2*
X2031854D1*
X2039039Y2223296D1*
X2041415Y2225728D1*
X2043847Y2230481D1*
Y2235289D1*
X2041415Y2240042D1*
X2039039Y2242419D1*
X2031854Y2244851D1*
X2027101D1*
X1120663Y705751D2*
D114*
X1116816Y709554D1*
X1114915Y715302D1*
Y722951D1*
X1116816Y728699D1*
X1120663Y732546D1*
X1124466D1*
X1128312Y730600D1*
X1130214Y728699D1*
X1132115Y724896D1*
X1135962Y713400D1*
X1137863Y709554D1*
X1139808Y707652D1*
X1143611Y705751D1*
X1149359D1*
X1153162Y709554D1*
X1155107Y715302D1*
Y722951D1*
X1153162Y728699D1*
X1149359Y732546D1*
X1124466Y664704D2*
X1120663Y666605D1*
X1116816Y670452D1*
X1114915Y674254D1*
Y681904D1*
X1116816Y685750D1*
X1120663Y689553D1*
X1124466Y691498D1*
X1130214Y693400D1*
X1139808D1*
X1145512Y691498D1*
X1149359Y689553D1*
X1153162Y685750D1*
X1155107Y681904D1*
Y674254D1*
X1153162Y670452D1*
X1149359Y666605D1*
X1145512Y664704D1*
X1114915Y652352D2*
X1155107D1*
Y629405D1*
X1021663Y703543D2*
X1017816Y707346D1*
X1015915Y713094D1*
Y720743D1*
X1017816Y726491D1*
X1021663Y730338D1*
X1025466D1*
X1029312Y728392D1*
X1031214Y726491D1*
X1033115Y722689D1*
X1036962Y711193D1*
X1038863Y707346D1*
X1040808Y705445D1*
X1044611Y703543D1*
X1050359D1*
X1054162Y707346D1*
X1056107Y713094D1*
Y720743D1*
X1054162Y726491D1*
X1050359Y730338D1*
X1015915Y691192D2*
X1056107D1*
Y677795D1*
X1054162Y672047D1*
X1050359Y668200D1*
X1046512Y666299D1*
X1040808Y664397D1*
X1031214D1*
X1025466Y666299D1*
X1021663Y668200D1*
X1017816Y672047D1*
X1015915Y677795D1*
Y691192D1*
X1056107Y621405D2*
X1015915Y636747D1*
X1056107Y652046D1*
X1042710Y646298D2*
Y627153D1*
X611959Y1523498D2*
Y1502496D1*
X627258Y1513948D1*
Y1508200D1*
X629159Y1504397D1*
X631060Y1502496D1*
X636808Y1500550D1*
X640611D1*
X646359Y1502496D1*
X650206Y1506298D1*
X652107Y1512047D1*
Y1517795D1*
X650206Y1523498D1*
X648260Y1525400D1*
X644458Y1527345D1*
X611959Y1484352D2*
Y1463350D1*
X627258Y1474802D1*
Y1469054D1*
X629159Y1465251D1*
X631060Y1463350D1*
X636808Y1461405D1*
X640611D1*
X646359Y1463350D1*
X650206Y1467153D1*
X652107Y1472901D1*
Y1478649D1*
X650206Y1484352D1*
X648260Y1486254D1*
X644458Y1488199D1*
X722510Y1526400D2*
X720609D1*
X716762Y1524498D1*
X714861Y1522597D1*
X712959Y1518750D1*
Y1511101D1*
X714861Y1507299D1*
X716762Y1505397D1*
X720609Y1503452D1*
X724411D1*
X728258Y1505397D1*
X733962Y1509200D1*
X753107Y1528345D1*
Y1501550D1*
X712959Y1466251D2*
Y1485352D1*
X730159Y1487254D1*
X728258Y1485352D1*
X726312Y1479604D1*
Y1473901D1*
X728258Y1468153D1*
X732060Y1464306D1*
X737808Y1462405D1*
X741611D1*
X747359Y1464306D1*
X751206Y1468153D1*
X753107Y1473901D1*
Y1479604D1*
X751206Y1485352D1*
X749260Y1487254D1*
X745458Y1489199D1*
X812959Y1523498D2*
Y1502496D1*
X828258Y1513948D1*
Y1508200D1*
X830159Y1504397D1*
X832060Y1502496D1*
X837808Y1500550D1*
X841611D1*
X847359Y1502496D1*
X851206Y1506298D1*
X853107Y1512047D1*
Y1517795D1*
X851206Y1523498D1*
X849260Y1525400D1*
X845458Y1527345D1*
X822510Y1486254D2*
X820609D1*
X816762Y1484352D1*
X814861Y1482451D1*
X812959Y1478604D1*
Y1470955D1*
X814860Y1467153D1*
X816762Y1465251D1*
X820608Y1463306D1*
X824411D1*
X828258Y1465251D1*
X833962Y1469054D1*
X853107Y1488199D1*
Y1461405D1*
X959107Y1517550D2*
X918959Y1498405D1*
Y1525199D1*
X1228510Y1087400D2*
X1226609D1*
X1222762Y1085498D1*
X1220861Y1083597D1*
X1218959Y1079750D1*
Y1072101D1*
X1220861Y1068299D1*
X1222762Y1066397D1*
X1226609Y1064452D1*
X1230411D1*
X1234258Y1066397D1*
X1239962Y1070200D1*
X1259107Y1089345D1*
Y1062550D1*
X1218959Y1027251D2*
Y1046352D1*
X1236159Y1048254D1*
X1234258Y1046352D1*
X1232312Y1040604D1*
Y1034901D1*
X1234258Y1029153D1*
X1238060Y1025306D1*
X1243808Y1023405D1*
X1247611D1*
X1253359Y1025306D1*
X1257206Y1029153D1*
X1259107Y1034901D1*
Y1040604D1*
X1257206Y1046352D1*
X1255260Y1048254D1*
X1251458Y1050199D1*
X713811Y1108094D2*
X748255D1*
X731055Y1125294D2*
Y1090850D1*
X710959Y1055551D2*
Y1074652D1*
X728159Y1076553D1*
X726258Y1074652D1*
X724312Y1068904D1*
Y1063200D1*
X726258Y1057452D1*
X730060Y1053605D1*
X735808Y1051704D1*
X739611D1*
X745359Y1053605D1*
X749206Y1057452D1*
X751107Y1063200D1*
Y1068904D1*
X749206Y1074652D1*
X747260Y1076553D1*
X743458Y1078498D1*
X724312Y1039352D2*
X751107Y1027856D1*
X724312Y1016405D1*
X967521Y876531D2*
Y855529D1*
X982820Y866981D1*
Y861233D1*
X984721Y857430D1*
X986622Y855529D1*
X992370Y853583D1*
X996173D1*
X1001921Y855529D1*
X1005767Y859331D1*
X1007669Y865079D1*
Y870827D1*
X1005767Y876531D1*
X1003822Y878433D1*
X1000019Y880378D1*
X1003822Y839331D2*
X1005767Y841232D1*
X1007669Y839331D1*
X1005767Y837385D1*
X1003822Y839331D1*
X967521Y821187D2*
Y800185D1*
X982820Y811637D1*
Y805888D1*
X984721Y802086D1*
X986622Y800185D1*
X992370Y798239D1*
X996173D1*
X1001921Y800185D1*
X1005767Y803987D1*
X1007669Y809735D1*
Y815483D1*
X1005767Y821187D1*
X1003822Y823088D1*
X1000019Y825034D1*
X980874Y785888D2*
X1007669Y774392D1*
X980874Y762940D1*
X1009959Y1518996D2*
Y1497993D1*
X1025258Y1509445D1*
Y1503697D1*
X1027159Y1499895D1*
X1029060Y1497993D1*
X1034808Y1496048D1*
X1038611D1*
X1044359Y1497993D1*
X1048206Y1501796D1*
X1050107Y1507544D1*
Y1513292D1*
X1048206Y1518996D1*
X1046260Y1520897D1*
X1042458Y1522843D1*
X1046260Y1481795D2*
X1048206Y1483697D1*
X1050107Y1481795D1*
X1048206Y1479850D1*
X1046260Y1481795D1*
X1009959Y1463652D2*
Y1442649D1*
X1025258Y1454101D1*
Y1448353D1*
X1027159Y1444551D1*
X1029060Y1442649D1*
X1034808Y1440704D1*
X1038611D1*
X1044359Y1442649D1*
X1048206Y1446452D1*
X1050107Y1452200D1*
Y1457948D1*
X1048206Y1463652D1*
X1046260Y1465553D1*
X1042458Y1467498D1*
X1023312Y1428352D2*
X1050107Y1416856D1*
X1023312Y1405405D1*
X1120959Y1518996D2*
Y1497993D1*
X1136258Y1509445D1*
Y1503697D1*
X1138159Y1499895D1*
X1140060Y1497993D1*
X1145808Y1496048D1*
X1149611D1*
X1155359Y1497993D1*
X1159206Y1501796D1*
X1161107Y1507544D1*
Y1513292D1*
X1159206Y1518996D1*
X1157260Y1520897D1*
X1153458Y1522843D1*
X1157260Y1481795D2*
X1159206Y1483697D1*
X1161107Y1481795D1*
X1159206Y1479850D1*
X1157260Y1481795D1*
X1120959Y1463652D2*
Y1442649D1*
X1136258Y1454101D1*
Y1448353D1*
X1138159Y1444551D1*
X1140060Y1442649D1*
X1145808Y1440704D1*
X1149611D1*
X1155359Y1442649D1*
X1159206Y1446452D1*
X1161107Y1452200D1*
Y1457948D1*
X1159206Y1463652D1*
X1157260Y1465553D1*
X1153458Y1467498D1*
X1134312Y1428352D2*
X1161107Y1416856D1*
X1134312Y1405405D1*
X1225466Y1491102D2*
X1221663Y1493003D1*
X1217816Y1496850D1*
X1215915Y1500652D1*
Y1508302D1*
X1217816Y1512148D1*
X1221663Y1515951D1*
X1225466Y1517896D1*
X1231214Y1519798D1*
X1240808D1*
X1246512Y1517896D1*
X1250359Y1515951D1*
X1254162Y1512148D1*
X1256107Y1508302D1*
Y1500652D1*
X1254162Y1496850D1*
X1250359Y1493003D1*
X1246512Y1491102D1*
X1240808D1*
Y1500652D1*
X1229312Y1478750D2*
X1256107D1*
X1236962D2*
X1231214Y1473002D1*
X1229312Y1469156D1*
Y1463452D1*
X1231214Y1459605D1*
X1236962Y1457704D1*
X1256107D1*
X1215915Y1422405D2*
X1256107D1*
X1235060D2*
X1231214Y1426207D1*
X1229312Y1430054D1*
Y1435802D1*
X1231214Y1439604D1*
X1235060Y1443451D1*
X1240808Y1445352D1*
X1244611D1*
X1250359Y1443451D1*
X1254162Y1439604D1*
X1256107Y1435802D1*
Y1430054D1*
X1254162Y1426207D1*
X1250359Y1422405D1*
X1319466Y1493102D2*
X1315663Y1495003D1*
X1311816Y1498850D1*
X1309915Y1502652D1*
Y1510302D1*
X1311816Y1514148D1*
X1315663Y1517951D1*
X1319466Y1519896D1*
X1325214Y1521798D1*
X1334808D1*
X1340512Y1519896D1*
X1344359Y1517951D1*
X1348162Y1514148D1*
X1350107Y1510302D1*
Y1502652D1*
X1348162Y1498850D1*
X1344359Y1495003D1*
X1340512Y1493102D1*
X1334808D1*
Y1502652D1*
X1323312Y1480750D2*
X1350107D1*
X1330962D2*
X1325214Y1475002D1*
X1323312Y1471156D1*
Y1465452D1*
X1325214Y1461605D1*
X1330962Y1459704D1*
X1350107D1*
X1309915Y1424405D2*
X1350107D1*
X1329060D2*
X1325214Y1428207D1*
X1323312Y1432054D1*
Y1437802D1*
X1325214Y1441604D1*
X1329060Y1445451D1*
X1334808Y1447352D1*
X1338611D1*
X1344359Y1445451D1*
X1348162Y1441604D1*
X1350107Y1437802D1*
Y1432054D1*
X1348162Y1428207D1*
X1344359Y1424405D1*
X870027Y849637D2*
X866225Y851538D1*
X862378Y855385D1*
X860477Y859188D1*
Y866837D1*
X862378Y870684D1*
X866225Y874486D1*
X870027Y876432D1*
X875775Y878333D1*
X885370D1*
X891074Y876432D1*
X894921Y874486D1*
X898723Y870684D1*
X900669Y866837D1*
Y859188D1*
X898723Y855385D1*
X894921Y851538D1*
X891074Y849637D1*
X885370D1*
Y859188D1*
X873874Y837286D2*
X900669D1*
X881523D2*
X875775Y831538D1*
X873874Y827691D1*
Y821987D1*
X875775Y818140D1*
X881523Y816239D1*
X900669D1*
X860477Y780940D2*
X900669D1*
X879622D2*
X875775Y784742D1*
X873874Y788589D1*
Y794337D1*
X875775Y798140D1*
X879622Y801987D1*
X885370Y803888D1*
X889173D1*
X894921Y801987D1*
X898723Y798140D1*
X900669Y794337D1*
Y788589D1*
X898723Y784742D1*
X894921Y780940D1*
M02*
