G04 DipTrace Beta 2.9.0.1*
G04 TeensyArbotixProV3.gbs*
%MOIN*%
G04 #@! TF.FileFunction,Soldermask,Bot*
G04 #@! TF.Part,Single*
%ADD33C,0.065199*%
%ADD43C,0.17*%
%ADD44C,0.074*%
%ADD45C,0.074*%
%ADD47C,0.05315*%
%ADD55C,0.06194*%
%ADD70C,0.069972*%
%ADD78C,0.068032*%
%ADD100R,0.067087X0.067087*%
%ADD108C,0.067087*%
%FSLAX26Y26*%
G04*
G70*
G90*
G75*
G01*
G04 BotMask*
%LPD*%
D33*
X2150866Y744016D3*
Y644016D3*
Y544016D3*
D108*
X835866Y901752D3*
X935866D3*
X1035866D3*
X735866D3*
X935866Y1601752D3*
X1035866D3*
X1135866D3*
X835866D3*
X1135866Y901752D3*
X1235866D3*
D100*
X1850866Y2994016D3*
D108*
X1750866D3*
X1650866D3*
X1550866D3*
X1450866D3*
X1350866D3*
X1250866D3*
X1150866D3*
D100*
X2325866Y2694016D3*
D108*
X2425866D3*
X2325866Y2594016D3*
X2425866D3*
X2325866Y2494016D3*
X2425866D3*
X2325866Y2394016D3*
X2425866D3*
X2325866Y2294016D3*
X2425866D3*
X2325866Y2194016D3*
X2425866D3*
D100*
X2225866D3*
D108*
Y2294016D3*
Y2394016D3*
Y2494016D3*
Y2594016D3*
Y2694016D3*
D100*
X2325866Y3019016D3*
D108*
X2425866D3*
X2325866Y2919016D3*
X2425866D3*
X2325866Y2819016D3*
X2425866D3*
D100*
X2225866Y3019016D3*
D108*
Y2919016D3*
Y2819016D3*
D100*
X1930866Y2644016D3*
D43*
X2446866Y987016D3*
Y750796D3*
X2631906Y868906D3*
D100*
X2170866Y1874016D3*
D108*
Y1774016D3*
Y1674016D3*
Y1574016D3*
D100*
X965866Y3002016D3*
D108*
Y2902016D3*
X865866Y3002016D3*
Y2902016D3*
D44*
X750866Y2444016D3*
D45*
D3*
D33*
X3025866Y1444016D3*
X2925866D3*
X2825866D3*
X3025866Y1694016D3*
X2925866D3*
X2825866D3*
X3025866Y1944016D3*
X2925866D3*
X2825866D3*
X3025866Y2194016D3*
X2925866D3*
X2825866D3*
X3025866Y2444016D3*
X2925866D3*
X2825866D3*
X2610866Y2244016D3*
Y2344016D3*
Y2444016D3*
D100*
X600866Y2024016D3*
D108*
X700866D3*
X800866D3*
X900866D3*
X1000866D3*
X1100866D3*
X1200866D3*
X1300866D3*
D100*
X1400866D3*
D108*
X1500866D3*
X1600866D3*
X1700866D3*
X1800866D3*
X1900866D3*
D47*
X465866Y1800383D3*
X530866D3*
X600866D3*
X665866D3*
D78*
X1772914Y1842016D3*
D108*
Y1586063D3*
D55*
X500866Y2144016D3*
X600866D3*
X700866D3*
X800866D3*
X900866D3*
X1000866D3*
X1100866D3*
X1200866D3*
X1300866D3*
X1400866D3*
X1500866D3*
X1600866D3*
X1700866D3*
X1800866D3*
Y2444016D3*
Y2644016D3*
Y2744016D3*
X1700866D3*
X1600866D3*
X1500866D3*
X1400866D3*
X1300866D3*
X1200866D3*
X1100866D3*
X1000866D3*
X900866D3*
X800866D3*
X700866D3*
X600866D3*
X500866D3*
X600866Y2644016D3*
X800866D3*
X900866D3*
X1000866D3*
X1700866Y2444016D3*
Y2544016D3*
X1600866Y2444016D3*
X1500866D3*
X1400866D3*
X1300866D3*
X1600866Y2544016D3*
X1500866D3*
X1400866D3*
X1300866D3*
X1200866D3*
X1100866D3*
X1200866Y2444016D3*
X1100866D3*
D70*
X1800866Y2344016D3*
M02*
