G04 DipTrace Beta 2.9.0.1*
G04 TeensyArbotixProV3.gtp*
%MOIN*%
G04 #@! TF.FileFunction,Paste,Top*
G04 #@! TF.Part,Single*
%ADD37R,0.1X0.05*%
%ADD46R,0.047244X0.047244*%
%ADD53R,0.035433X0.031496*%
%ADD73R,0.01559X0.070708*%
%ADD77R,0.035275X0.01559*%
%ADD83R,0.401417X0.373858*%
%ADD85R,0.051023X0.14748*%
%ADD87R,0.025433X0.043149*%
%ADD97R,0.023464X0.05496*%
%ADD99R,0.031338X0.027401*%
%ADD103R,0.098267X0.05496*%
%ADD107R,0.043149X0.051023*%
%ADD113R,0.051023X0.043149*%
%FSLAX26Y26*%
G04*
G70*
G90*
G75*
G01*
G04 TopPaste*
%LPD*%
D113*
X1567297Y1159943D3*
Y1085139D3*
D107*
X2592866Y2106347D3*
X2667670D3*
D37*
X2538366Y1169016D3*
X2713366D3*
X2863366Y844016D3*
X3038366D3*
D113*
X2525866Y3041462D3*
Y2966659D3*
D103*
X766583Y1866687D3*
Y1756450D3*
D37*
X2863366Y1169016D3*
X3038366D3*
D99*
X1082362Y503307D3*
Y664725D3*
X1019370D3*
Y503307D3*
D97*
X1470969Y1691691D3*
Y1825549D3*
D46*
X875866Y599355D3*
Y516677D3*
X2709528Y559016D3*
X2792205D3*
D87*
X2166866Y2047016D3*
X2092063D3*
X2129465Y1960402D3*
D85*
X2400864Y1419666D3*
X2600866Y1419646D3*
D83*
X2500866Y1825197D3*
D53*
X2004537Y1479525D3*
Y1404722D3*
X2087214Y1442124D3*
D107*
X2638268Y2581462D3*
X2563465D3*
Y2669016D3*
X2638268D3*
X1159866Y1756016D3*
X1085063D3*
D113*
X2758866Y711614D3*
Y786418D3*
D107*
X2268268Y1419016D3*
X2193465D3*
D113*
X1135866Y1106418D3*
Y1031614D3*
X1035866Y1106418D3*
Y1031614D3*
X1780866Y1361614D3*
Y1436418D3*
X2005519Y2080689D3*
Y2155492D3*
X2825866Y2681418D3*
Y2606614D3*
X1916702Y1360712D3*
Y1435515D3*
D107*
X1418404Y808273D3*
X1493208D3*
X1224666Y728113D3*
X1299469D3*
X1418404Y728247D3*
X1493208D3*
X1083866Y1866065D3*
X1158670D3*
X878465Y671275D3*
X953268D3*
D99*
X1282362Y503307D3*
Y664725D3*
X1219370D3*
Y503307D3*
X1419370Y664725D3*
Y503307D3*
X1482362D3*
Y664725D3*
D77*
X1332866Y1800016D3*
Y1837418D3*
Y1874819D3*
X1226567D3*
Y1800016D3*
D73*
X1643202Y901332D3*
X1693202D3*
X1743202D3*
X1793202D3*
X1843202D3*
X1893202D3*
X1943202D3*
X1993202D3*
X2043202D3*
X2093202D3*
Y1271411D3*
X2043202D3*
X1993202D3*
X1943202D3*
X1893202D3*
X1843202D3*
X1793202D3*
X1743202D3*
X1693202D3*
X1643202D3*
M02*
