G04 DipTrace Beta 2.9.0.1*
G04 TeensyArbotixProV3.gto*
%MOIN*%
G04 #@! TF.FileFunction,Legend,Top*
G04 #@! TF.Part,Single*
%ADD10C,0.009843*%
%ADD18C,0.008*%
%ADD32C,0.005*%
%ADD40C,0.011806*%
%ADD49C,0.015395*%
%ADD114C,0.006176*%
%ADD115C,0.009264*%
%ADD116C,0.00772*%
%ADD117C,0.012351*%
%FSLAX26Y26*%
G04*
G70*
G90*
G75*
G01*
G04 TopSilk*
%LPD*%
X1541726Y1201302D2*
D10*
X1592868D1*
X2200866Y844016D2*
D32*
Y444016D1*
X1950876D1*
X1750871D2*
X1550866D1*
Y844016D1*
X1750871D1*
X1950876D1*
X2200866D1*
X1750871Y444016D2*
X1650836Y544016D1*
Y744016D1*
X1750871Y844016D1*
X1950876D2*
X2050846Y744016D1*
Y544016D1*
X1950876Y444016D1*
X1750871D1*
X460866Y1651752D2*
D10*
X1510866D1*
Y851752D1*
X460866D1*
Y1651752D1*
X2551507Y2080776D2*
Y2131918D1*
X2732126Y1275268D2*
D18*
Y1206523D1*
Y1131509D2*
Y1062764D1*
X2557116D1*
X2519606Y1100271D1*
Y1131509D1*
X2732126Y1275268D2*
X2557116D1*
X2519606Y1237761D1*
Y1206523D1*
X3057126Y950268D2*
Y881523D1*
Y806509D2*
Y737764D1*
X2882116D1*
X2844606Y775271D1*
Y806509D1*
X3057126Y950268D2*
X2882116D1*
X2844606Y912761D1*
Y881523D1*
X2500296Y3082822D2*
D10*
X2551437D1*
X717366Y1815899D2*
X815799D1*
X717366Y1823348D2*
X815799D1*
X717366D2*
Y1799789D1*
X815799Y1823348D2*
Y1799789D1*
X3057126Y1275268D2*
D18*
Y1206523D1*
Y1131509D2*
Y1062764D1*
X2882116D1*
X2844606Y1100271D1*
Y1131509D1*
X3057126Y1275268D2*
X2882116D1*
X2844606Y1237761D1*
Y1206523D1*
X1900866Y2944016D2*
D10*
X1100866D1*
X1900866Y3044016D2*
Y2944016D1*
Y3044016D2*
X1100866D1*
Y2944016D1*
X2275866Y2744016D2*
Y2144016D1*
X2475866D1*
Y2744016D2*
Y2144016D1*
X2275866Y2744016D2*
X2475866D1*
X2275866Y2144016D2*
Y2744016D1*
X2175866Y2144016D2*
Y2744016D1*
X2275866Y2144016D2*
X2175866D1*
X2275866Y2744016D2*
X2175866D1*
X2275866Y2960716D2*
Y2769016D1*
Y3069016D2*
Y2769016D1*
X2475866Y3069016D2*
Y2769016D1*
X2275866Y3069016D2*
X2475866D1*
X2275866Y2769016D2*
X2475866D1*
X2175866Y3069016D2*
X2275866D1*
Y2769016D1*
X2175866D2*
X2275866D1*
X2175866Y3069016D2*
Y2769016D1*
X1019373Y584016D2*
G02X1019373Y584016I31494J0D01*
G01*
X995748Y643071D2*
Y524961D1*
X1105986Y643071D2*
Y623386D1*
Y524961D1*
X1056776Y666693D2*
X1044958D1*
X1056776Y501339D2*
X1044958D1*
D40*
X1113861Y499370D3*
X1437504Y1701533D2*
D10*
Y1815706D1*
X1504433Y1701533D2*
Y1815706D1*
X1445402Y1701533D2*
X1437504D1*
X1504433D2*
X1496536D1*
X1445402Y1815706D2*
X1437504D1*
X1504433D2*
X1496536D1*
X1504433Y1778305D2*
X1437504D1*
X1980866Y2694016D2*
X1880866D1*
X1980866Y2594016D2*
Y2694016D1*
Y2594016D2*
X1880866D1*
Y2694016D1*
X2624021Y987017D2*
D18*
X2541333D1*
X2624021Y565743D2*
Y774394D1*
Y987017D2*
Y959469D1*
X2269701Y565743D2*
Y987017D1*
X2352389D1*
X2269701Y565743D2*
X2624021D1*
X2120866Y1524016D2*
D10*
X2220866D1*
X2120866Y1924016D2*
Y1524016D1*
X2220866Y1924016D2*
Y1524016D1*
X2120866Y1924016D2*
X2220866D1*
X1015866Y2852016D2*
X815866D1*
X1015866Y3052016D2*
Y2852016D1*
X815866Y3052016D2*
Y2852016D1*
X1015866Y3052016D2*
X815866D1*
X3120748Y1566063D2*
D32*
X2730985D1*
Y1373151D1*
X2849862Y1373016D2*
X2899869D1*
X2949876D1*
X2999883D1*
X3049850D1*
X3069183Y1373035D1*
X3120748Y1416452D1*
Y1566063D1*
X3000857Y1374020D2*
X2975873Y1399019D1*
X2950850Y1374020D1*
X2900883Y1373151D2*
X2875860Y1397012D1*
X2850876Y1373151D1*
X2800869D1*
X2734142D1*
X2801883Y1375024D2*
X2775885Y1400023D1*
X2775846Y1494018D1*
X3075886D1*
X3075847Y1401008D1*
X3047862Y1376008D1*
X3120748Y1816063D2*
X2730985D1*
Y1623151D1*
X2849862Y1623016D2*
X2899869D1*
X2949876D1*
X2999883D1*
X3049850D1*
X3069183Y1623035D1*
X3120748Y1666452D1*
Y1816063D1*
X3000857Y1624020D2*
X2975873Y1649019D1*
X2950850Y1624020D1*
X2900883Y1623151D2*
X2875860Y1647012D1*
X2850876Y1623151D1*
X2800869D1*
X2734142D1*
X2801883Y1625024D2*
X2775885Y1650023D1*
X2775846Y1744018D1*
X3075886D1*
X3075847Y1651008D1*
X3047862Y1626008D1*
X3120748Y2066063D2*
X2730985D1*
Y1873151D1*
X2849862Y1873016D2*
X2899869D1*
X2949876D1*
X2999883D1*
X3049850D1*
X3069183Y1873035D1*
X3120748Y1916452D1*
Y2066063D1*
X3000857Y1874020D2*
X2975873Y1899019D1*
X2950850Y1874020D1*
X2900883Y1873151D2*
X2875860Y1897012D1*
X2850876Y1873151D1*
X2800869D1*
X2734142D1*
X2801883Y1875024D2*
X2775885Y1900023D1*
X2775846Y1994018D1*
X3075886D1*
X3075847Y1901008D1*
X3047862Y1876008D1*
X3120748Y2316063D2*
X2730985D1*
Y2123151D1*
X2849862Y2123016D2*
X2899869D1*
X2949876D1*
X2999883D1*
X3049850D1*
X3069183Y2123035D1*
X3120748Y2166452D1*
Y2316063D1*
X3000857Y2124020D2*
X2975873Y2149019D1*
X2950850Y2124020D1*
X2900883Y2123151D2*
X2875860Y2147012D1*
X2850876Y2123151D1*
X2800869D1*
X2734142D1*
X2801883Y2125024D2*
X2775885Y2150023D1*
X2775846Y2244018D1*
X3075886D1*
X3075847Y2151008D1*
X3047862Y2126008D1*
X3120748Y2566063D2*
X2730985D1*
Y2373151D1*
X2849862Y2373016D2*
X2899869D1*
X2949876D1*
X2999883D1*
X3049850D1*
X3069183Y2373035D1*
X3120748Y2416452D1*
Y2566063D1*
X3000857Y2374020D2*
X2975873Y2399019D1*
X2950850Y2374020D1*
X2900883Y2373151D2*
X2875860Y2397012D1*
X2850876Y2373151D1*
X2800869D1*
X2734142D1*
X2801883Y2375024D2*
X2775885Y2400023D1*
X2775846Y2494018D1*
X3075886D1*
X3075847Y2401008D1*
X3047862Y2376008D1*
X2732914Y2149134D2*
Y2538898D1*
X2540002D1*
X2539866Y2420020D2*
Y2370013D1*
Y2320007D1*
Y2270000D1*
Y2220032D1*
X2539886Y2200700D1*
X2583302Y2149134D1*
X2732914D1*
X2540870Y2269025D2*
X2565870Y2294009D1*
X2540870Y2319032D1*
X2540002Y2369000D2*
X2563862Y2394023D1*
X2540002Y2419007D1*
Y2469013D1*
Y2535741D1*
X2541874Y2468000D2*
X2566874Y2493997D1*
X2660868Y2494036D1*
Y2193996D1*
X2567858Y2194035D1*
X2542859Y2222020D1*
X550866Y2074016D2*
D10*
X1350866D1*
X550866Y1974016D2*
Y2074016D1*
Y1974016D2*
X1350866D1*
Y2074016D1*
Y1974016D2*
X1950866D1*
X1350866Y2074016D2*
X1950866D1*
X1350866Y1974016D2*
Y2074016D1*
X1950866Y1974016D2*
Y2074016D1*
G36*
X879803Y558016D2*
X871929D1*
Y550143D1*
X879803D1*
Y558016D1*
G37*
X465873Y1725383D2*
D32*
Y1770383D1*
Y1875383D2*
Y1830383D1*
X673878Y1869383D2*
G02X673878Y1731383I-97267J-69000D01*
G01*
G36*
X2750866Y562953D2*
X2758740D1*
Y555079D1*
X2750866D1*
Y562953D1*
G37*
X2200342Y2046977D2*
D10*
G02X2200342Y2046977I4922J0D01*
G01*
X2079242Y2005638D2*
Y1960441D1*
X2179709Y2005638D2*
Y1960441D1*
X2161908D1*
X2097043D2*
X2079242D1*
X2300073Y1514161D2*
X2701660D1*
X2300073D2*
Y1616513D1*
X2701660Y1514161D2*
Y1616513D1*
D49*
X2352196Y1355914D3*
X2071470Y1473618D2*
D18*
Y1497239D1*
X2039970D1*
X2071470Y1410629D2*
Y1387008D1*
X2039970D1*
X1219373Y584016D2*
D10*
G02X1219373Y584016I31494J0D01*
G01*
X1195748Y643071D2*
Y524961D1*
X1305986Y643071D2*
Y623386D1*
Y524961D1*
X1256776Y666693D2*
X1244958D1*
X1256776Y501339D2*
X1244958D1*
D40*
X1313861Y499370D3*
X1419372Y584016D2*
D10*
G02X1419372Y584016I31494J0D01*
G01*
X1505985Y524961D2*
Y643071D1*
X1395747Y524961D2*
Y544646D1*
Y643071D1*
X1444956Y501339D2*
X1456775D1*
X1444956Y666693D2*
X1456775D1*
D40*
X1387872Y668662D3*
X1536693Y1714033D2*
D10*
G02X1536693Y1714033I236232J0D01*
G01*
D49*
X1349492Y1773102D3*
X1295426Y1778365D2*
D10*
Y1896473D1*
X1263936Y1778365D2*
Y1896473D1*
X1295426D2*
X1263936D1*
X1295426Y1778365D2*
X1263936D1*
X500846Y2394036D2*
D18*
Y2493996D1*
X450866D1*
Y2794016D1*
X1850866D1*
Y2094016D1*
X450866D1*
Y2394036D1*
X500846D1*
X1616257Y958413D2*
D10*
X2120147D1*
X1616257Y1210380D2*
X2120147D1*
Y958413D2*
Y1210380D1*
X1616257Y958413D2*
Y1052890D1*
Y1115904D2*
Y1210380D1*
Y1052890D2*
G03X1616257Y1115904I-64J31507D01*
G01*
X1488741Y1126173D2*
D114*
X1484939Y1124272D1*
X1481092Y1120425D1*
X1479191Y1116623D1*
Y1108973D1*
X1481092Y1105127D1*
X1484939Y1101324D1*
X1488741Y1099379D1*
X1494489Y1097477D1*
X1504084D1*
X1509788Y1099379D1*
X1513635Y1101324D1*
X1517437Y1105127D1*
X1519383Y1108973D1*
Y1116623D1*
X1517437Y1120425D1*
X1513635Y1124272D1*
X1509788Y1126173D1*
X1484939Y1161472D2*
X1481136Y1159571D1*
X1479235Y1153823D1*
Y1150021D1*
X1481136Y1144273D1*
X1486884Y1140426D1*
X1496435Y1138525D1*
X1505986D1*
X1513635Y1140426D1*
X1517482Y1144273D1*
X1519383Y1150021D1*
Y1151922D1*
X1517482Y1157626D1*
X1513635Y1161472D1*
X1507887Y1163374D1*
X1505986D1*
X1500238Y1161472D1*
X1496435Y1157626D1*
X1494534Y1151922D1*
Y1150021D1*
X1496435Y1144273D1*
X1500238Y1140426D1*
X1505986Y1138525D1*
X1809070Y666478D2*
X1789969D1*
X1788068Y649278D1*
X1789969Y651179D1*
X1795717Y653124D1*
X1801421D1*
X1807169Y651179D1*
X1811016Y647376D1*
X1812917Y641628D1*
Y637826D1*
X1811016Y632078D1*
X1807169Y628231D1*
X1801421Y626330D1*
X1795717D1*
X1789969Y628231D1*
X1788068Y630177D1*
X1786122Y633979D1*
X1825268Y653124D2*
X1836765Y626330D1*
X1848216Y653124D1*
X1860568Y647376D2*
X1877768D1*
X1883516Y649322D1*
X1885461Y651223D1*
X1887362Y655026D1*
Y658872D1*
X1885461Y662675D1*
X1883516Y664620D1*
X1877768Y666522D1*
X1860568D1*
Y626330D1*
X1873965Y647376D2*
X1887362Y626330D1*
X1924563Y666522D2*
X1899714D1*
Y626330D1*
X1924563D1*
X1899714Y647376D2*
X1915012D1*
X1965610Y656971D2*
X1963709Y660774D1*
X1959862Y664620D1*
X1956060Y666522D1*
X1948410D1*
X1944564Y664620D1*
X1940761Y660774D1*
X1938816Y656971D1*
X1936914Y651223D1*
Y641628D1*
X1938816Y635925D1*
X1940761Y632078D1*
X1944564Y628275D1*
X1948410Y626330D1*
X1956060D1*
X1959862Y628275D1*
X1963709Y632078D1*
X1965610Y635925D1*
Y641628D1*
X1956060D1*
X501175Y976861D2*
Y936669D1*
X518419D1*
X524167Y938614D1*
X526068Y940516D1*
X527970Y944318D1*
Y950066D1*
X526068Y953913D1*
X524167Y955814D1*
X518419Y957715D1*
X524167Y959661D1*
X526068Y961562D1*
X527970Y965365D1*
Y969212D1*
X526068Y973014D1*
X524167Y974960D1*
X518419Y976861D1*
X501175D1*
Y957715D2*
X518419D1*
X567116Y976861D2*
Y936669D1*
X540321Y976861D1*
Y936669D1*
X590963Y976861D2*
X587116Y974960D1*
X583314Y971113D1*
X581368Y967310D1*
X579467Y961562D1*
Y951967D1*
X581368Y946264D1*
X583314Y942417D1*
X587116Y938614D1*
X590963Y936669D1*
X598613D1*
X602415Y938614D1*
X606262Y942417D1*
X608163Y946264D1*
X610064Y951967D1*
Y961562D1*
X608163Y967310D1*
X606262Y971113D1*
X602415Y974960D1*
X598613Y976861D1*
X590963D1*
X633912Y976817D2*
X628164Y974915D1*
X624317Y969167D1*
X622416Y959617D1*
Y953869D1*
X624317Y944318D1*
X628164Y938570D1*
X633912Y936669D1*
X637714D1*
X643462Y938570D1*
X647265Y944318D1*
X649210Y953869D1*
Y959617D1*
X647265Y969167D1*
X643462Y974915D1*
X637714Y976817D1*
X633912D1*
X647265Y969167D2*
X624317Y944318D1*
X684510Y976817D2*
X665409D1*
X663507Y959617D1*
X665409Y961518D1*
X671157Y963464D1*
X676860D1*
X682609Y961518D1*
X686455Y957715D1*
X688357Y951967D1*
Y948165D1*
X686455Y942417D1*
X682609Y938570D1*
X676860Y936669D1*
X671157D1*
X665409Y938570D1*
X663507Y940516D1*
X661562Y944318D1*
X723656Y976817D2*
X704555D1*
X702653Y959617D1*
X704555Y961518D1*
X710303Y963464D1*
X716007D1*
X721755Y961518D1*
X725601Y957715D1*
X727503Y951967D1*
Y948165D1*
X725601Y942417D1*
X721755Y938570D1*
X716007Y936669D1*
X710303D1*
X704555Y938570D1*
X702653Y940516D1*
X700708Y944318D1*
X2502479Y2109722D2*
X2498676Y2107820D1*
X2494830Y2103974D1*
X2492928Y2100171D1*
Y2092522D1*
X2494830Y2088675D1*
X2498676Y2084873D1*
X2502479Y2082927D1*
X2508227Y2081026D1*
X2517822D1*
X2523526Y2082927D1*
X2527372Y2084873D1*
X2531175Y2088675D1*
X2533120Y2092522D1*
Y2100171D1*
X2531175Y2103974D1*
X2527372Y2107820D1*
X2523526Y2109722D1*
X2500622Y2122073D2*
X2498676Y2125920D1*
X2492973Y2131668D1*
X2533120D1*
X2620641Y1324296D2*
X2618740Y1328098D1*
X2614893Y1331945D1*
X2611091Y1333846D1*
X2603441D1*
X2599595Y1331945D1*
X2595792Y1328098D1*
X2593847Y1324296D1*
X2591945Y1318548D1*
Y1308953D1*
X2593847Y1303249D1*
X2595792Y1299402D1*
X2599595Y1295600D1*
X2603441Y1293654D1*
X2611091D1*
X2614893Y1295600D1*
X2618740Y1299402D1*
X2620641Y1303249D1*
X2634938Y1324252D2*
Y1326153D1*
X2636839Y1330000D1*
X2638741Y1331901D1*
X2642588Y1333802D1*
X2650237D1*
X2654039Y1331901D1*
X2655941Y1330000D1*
X2657886Y1326153D1*
Y1322350D1*
X2655941Y1318504D1*
X2652138Y1312800D1*
X2632993Y1293654D1*
X2659787D1*
X2945641Y999296D2*
X2943740Y1003098D1*
X2939893Y1006945D1*
X2936091Y1008846D1*
X2928441D1*
X2924595Y1006945D1*
X2920792Y1003098D1*
X2918847Y999296D1*
X2916945Y993548D1*
Y983953D1*
X2918847Y978249D1*
X2920792Y974402D1*
X2924595Y970600D1*
X2928441Y968654D1*
X2936091D1*
X2939893Y970600D1*
X2943740Y974402D1*
X2945641Y978249D1*
X2961839Y1008802D2*
X2982842D1*
X2971390Y993504D1*
X2977138D1*
X2980941Y991602D1*
X2982842Y989701D1*
X2984787Y983953D1*
Y980150D1*
X2982842Y974402D1*
X2979039Y970556D1*
X2973291Y968654D1*
X2967543D1*
X2961839Y970556D1*
X2959938Y972501D1*
X2957993Y976304D1*
X2519691Y2917951D2*
X2517789Y2921754D1*
X2513943Y2925600D1*
X2510140Y2927502D1*
X2502491D1*
X2498644Y2925600D1*
X2494842Y2921754D1*
X2492896Y2917951D1*
X2490995Y2912203D1*
Y2902608D1*
X2492896Y2896904D1*
X2494842Y2893058D1*
X2498644Y2889255D1*
X2502491Y2887310D1*
X2510140D1*
X2513943Y2889255D1*
X2517789Y2893058D1*
X2519691Y2896904D1*
X2551187Y2887310D2*
Y2927457D1*
X2532042Y2900707D1*
X2560738D1*
X842850Y1806344D2*
X839048Y1804442D1*
X835201Y1800596D1*
X833300Y1796793D1*
Y1789144D1*
X835201Y1785297D1*
X839048Y1781494D1*
X842850Y1779549D1*
X848598Y1777648D1*
X858193D1*
X863897Y1779549D1*
X867743Y1781494D1*
X871546Y1785297D1*
X873492Y1789144D1*
Y1796793D1*
X871546Y1800595D1*
X867744Y1804442D1*
X863897Y1806343D1*
X833344Y1841643D2*
Y1822542D1*
X850544Y1820640D1*
X848642Y1822542D1*
X846697Y1828290D1*
Y1833993D1*
X848642Y1839742D1*
X852445Y1843588D1*
X858193Y1845490D1*
X861995D1*
X867743Y1843588D1*
X871590Y1839741D1*
X873492Y1833993D1*
Y1828290D1*
X871590Y1822542D1*
X869645Y1820640D1*
X865842Y1818695D1*
X2946592Y1324296D2*
X2944691Y1328098D1*
X2940844Y1331945D1*
X2937041Y1333846D1*
X2929392D1*
X2925545Y1331945D1*
X2921743Y1328098D1*
X2919797Y1324296D1*
X2917896Y1318548D1*
Y1308953D1*
X2919797Y1303249D1*
X2921743Y1299402D1*
X2925545Y1295600D1*
X2929392Y1293654D1*
X2937041D1*
X2940844Y1295600D1*
X2944691Y1299402D1*
X2946592Y1303249D1*
X2983837Y1320449D2*
X2981891Y1314701D1*
X2978089Y1310854D1*
X2972341Y1308953D1*
X2970439D1*
X2964691Y1310854D1*
X2960889Y1314701D1*
X2958943Y1320449D1*
Y1322350D1*
X2960889Y1328098D1*
X2964691Y1331901D1*
X2970439Y1333802D1*
X2972341D1*
X2978089Y1331901D1*
X2981891Y1328098D1*
X2983837Y1320449D1*
Y1310854D1*
X2981891Y1301304D1*
X2978089Y1295556D1*
X2972341Y1293654D1*
X2968538D1*
X2962790Y1295556D1*
X2960889Y1299402D1*
X978535Y452878D2*
X995735D1*
X1001483Y454824D1*
X1003429Y456725D1*
X1005330Y460528D1*
Y464375D1*
X1003429Y468177D1*
X1001483Y470123D1*
X995735Y472024D1*
X978535D1*
Y431832D1*
X991933Y452878D2*
X1005330Y431832D1*
X1017682Y447130D2*
X1040629D1*
Y450977D1*
X1038728Y454824D1*
X1036827Y456725D1*
X1032980Y458627D1*
X1027232D1*
X1023430Y456725D1*
X1019583Y452878D1*
X1017682Y447130D1*
Y443328D1*
X1019583Y437580D1*
X1023430Y433777D1*
X1027232Y431832D1*
X1032980D1*
X1036827Y433777D1*
X1040629Y437580D1*
X1074028Y452878D2*
X1072126Y456725D1*
X1066378Y458627D1*
X1060630D1*
X1054882Y456725D1*
X1052981Y452878D1*
X1054882Y449076D1*
X1058729Y447130D1*
X1068279Y445229D1*
X1072126Y443328D1*
X1074028Y439481D1*
Y437580D1*
X1072126Y433777D1*
X1066378Y431832D1*
X1060630D1*
X1054882Y433777D1*
X1052981Y437580D1*
X1086379Y447130D2*
X1109327D1*
Y450977D1*
X1107426Y454824D1*
X1105524Y456725D1*
X1101678Y458627D1*
X1095929D1*
X1092127Y456725D1*
X1088280Y452878D1*
X1086379Y447130D1*
Y443328D1*
X1088280Y437580D1*
X1092127Y433777D1*
X1095929Y431832D1*
X1101678D1*
X1105524Y433777D1*
X1109327Y437580D1*
X1127426Y472024D2*
Y439481D1*
X1129328Y433777D1*
X1133174Y431832D1*
X1136977D1*
X1121678Y458627D2*
X1135076D1*
X1378926Y1725649D2*
X1419118D1*
Y1739047D1*
X1417172Y1744795D1*
X1413370Y1748641D1*
X1409523Y1750543D1*
X1403819Y1752444D1*
X1394224D1*
X1388476Y1750543D1*
X1384674Y1748642D1*
X1380827Y1744795D1*
X1378926Y1739047D1*
Y1725649D1*
X1378970Y1787743D2*
Y1768642D1*
X1396170Y1766741D1*
X1394269Y1768642D1*
X1392323Y1774390D1*
Y1780094D1*
X1394269Y1785842D1*
X1398071Y1789689D1*
X1403819Y1791590D1*
X1407622D1*
X1413370Y1789689D1*
X1417216Y1785842D1*
X1419118Y1780094D1*
Y1774390D1*
X1417217Y1768642D1*
X1415271Y1766741D1*
X1411468Y1764795D1*
X1875449Y2752594D2*
Y2712402D1*
X1888846D1*
X1894594Y2714348D1*
X1898441Y2718150D1*
X1900342Y2721997D1*
X1902244Y2727701D1*
Y2737296D1*
X1900342Y2743044D1*
X1898441Y2746846D1*
X1894594Y2750693D1*
X1888846Y2752594D1*
X1875449D1*
X1945236Y2712402D2*
X1929894Y2752594D1*
X1914595Y2712402D1*
X1920343Y2725800D2*
X1939488D1*
X1986284Y2743044D2*
X1984383Y2746846D1*
X1980536Y2750693D1*
X1976733Y2752594D1*
X1969084D1*
X1965237Y2750693D1*
X1961435Y2746846D1*
X1959489Y2743044D1*
X1957588Y2737296D1*
Y2727701D1*
X1959489Y2721997D1*
X1961435Y2718150D1*
X1965237Y2714348D1*
X1969084Y2712402D1*
X1976733D1*
X1980536Y2714348D1*
X1984383Y2718150D1*
X1986284Y2721997D1*
X2491903Y1130594D2*
Y1099997D1*
X2490002Y1094249D1*
X2488056Y1092348D1*
X2484254Y1090402D1*
X2480407D1*
X2476604Y1092348D1*
X2474703Y1094249D1*
X2472758Y1099997D1*
Y1103800D1*
X2504254Y1122901D2*
X2508101Y1124846D1*
X2513849Y1130550D1*
Y1090402D1*
X562785Y2520449D2*
X579985D1*
X585733Y2522395D1*
X587679Y2524296D1*
X589580Y2528098D1*
Y2531945D1*
X587679Y2535748D1*
X585733Y2537693D1*
X579985Y2539594D1*
X562785D1*
Y2499402D1*
X576183Y2520449D2*
X589580Y2499402D1*
X601931Y2514701D2*
X624879D1*
Y2518548D1*
X622978Y2522395D1*
X621077Y2524296D1*
X617230Y2526197D1*
X611482D1*
X607679Y2524296D1*
X603833Y2520449D1*
X601931Y2514701D1*
Y2510899D1*
X603833Y2505150D1*
X607679Y2501348D1*
X611482Y2499402D1*
X617230D1*
X621077Y2501348D1*
X624879Y2505150D1*
X658277Y2520449D2*
X656376Y2524296D1*
X650628Y2526197D1*
X644880D1*
X639132Y2524296D1*
X637231Y2520449D1*
X639132Y2516647D1*
X642979Y2514701D1*
X652529Y2512800D1*
X656376Y2510899D1*
X658277Y2507052D1*
Y2505150D1*
X656376Y2501348D1*
X650628Y2499402D1*
X644880D1*
X639132Y2501348D1*
X637231Y2505150D1*
X670629Y2514701D2*
X693577D1*
Y2518548D1*
X691675Y2522395D1*
X689774Y2524296D1*
X685927Y2526197D1*
X680179D1*
X676377Y2524296D1*
X672530Y2520449D1*
X670629Y2514701D1*
Y2510899D1*
X672530Y2505150D1*
X676377Y2501348D1*
X680179Y2499402D1*
X685927D1*
X689774Y2501348D1*
X693577Y2505150D1*
X711676Y2539594D2*
Y2507052D1*
X713577Y2501348D1*
X717424Y2499402D1*
X721227D1*
X705928Y2526197D2*
X719325D1*
X752723Y2539594D2*
Y2508997D1*
X750822Y2503249D1*
X748877Y2501348D1*
X745074Y2499402D1*
X741227D1*
X737425Y2501348D1*
X735524Y2503249D1*
X733578Y2508997D1*
Y2512800D1*
X765075Y2526197D2*
Y2507052D1*
X766976Y2501348D1*
X770823Y2499402D1*
X776571D1*
X780373Y2501348D1*
X786121Y2507052D1*
Y2526197D2*
Y2499402D1*
X798473Y2526197D2*
Y2499402D1*
Y2518548D2*
X804221Y2524296D1*
X808068Y2526197D1*
X813771D1*
X817618Y2524296D1*
X819520Y2518548D1*
Y2499402D1*
Y2518548D2*
X825268Y2524296D1*
X829114Y2526197D1*
X834818D1*
X838665Y2524296D1*
X840610Y2518548D1*
Y2499402D1*
X852962Y2526197D2*
Y2486005D1*
Y2520449D2*
X856809Y2524252D1*
X860611Y2526197D1*
X866359D1*
X870206Y2524252D1*
X874008Y2520449D1*
X875954Y2514701D1*
Y2510854D1*
X874008Y2505150D1*
X870206Y2501304D1*
X866359Y2499402D1*
X860611D1*
X856809Y2501304D1*
X852962Y2505150D1*
X888305Y2514701D2*
X911253D1*
Y2518548D1*
X909352Y2522395D1*
X907451Y2524296D1*
X903604Y2526197D1*
X897856D1*
X894053Y2524296D1*
X890207Y2520449D1*
X888305Y2514701D1*
Y2510899D1*
X890207Y2505150D1*
X894053Y2501348D1*
X897856Y2499402D1*
X903604D1*
X907451Y2501348D1*
X911253Y2505150D1*
X923605Y2526197D2*
Y2499402D1*
Y2514701D2*
X925550Y2520449D1*
X929353Y2524296D1*
X933199Y2526197D1*
X938947D1*
X844819Y479488D2*
Y439296D1*
X867767D1*
X882064Y469894D2*
Y471795D1*
X883965Y475642D1*
X885867Y477543D1*
X889714Y479444D1*
X897363D1*
X901165Y477543D1*
X903067Y475642D1*
X905012Y471795D1*
Y467992D1*
X903067Y464146D1*
X899264Y458442D1*
X880119Y439296D1*
X906913D1*
X551902Y1762962D2*
Y1722770D1*
X525107Y1762962D1*
Y1722770D1*
X589102Y1762962D2*
X564253D1*
Y1722770D1*
X589102D1*
X564253Y1743817D2*
X579552D1*
X612950Y1762962D2*
X609103Y1761061D1*
X605300Y1757214D1*
X603355Y1753411D1*
X601454Y1747663D1*
Y1738069D1*
X603355Y1732365D1*
X605300Y1728518D1*
X609103Y1724715D1*
X612950Y1722770D1*
X620599D1*
X624402Y1724715D1*
X628248Y1728518D1*
X630150Y1732365D1*
X632051Y1738069D1*
Y1747663D1*
X630150Y1753411D1*
X628248Y1757214D1*
X624402Y1761061D1*
X620599Y1762962D1*
X612950D1*
X2692575Y499796D2*
X2709819D1*
X2715523Y501697D1*
X2717468Y503643D1*
X2719370Y507445D1*
Y513193D1*
X2717468Y516996D1*
X2715523Y518941D1*
X2709819Y520843D1*
X2692575D1*
Y480651D1*
X2731721Y520843D2*
X2741316Y480651D1*
X2750866Y520843D1*
X2760417Y480651D1*
X2770012Y520843D1*
X2782363Y501697D2*
X2799563D1*
X2805311Y503643D1*
X2807257Y505544D1*
X2809158Y509347D1*
Y513193D1*
X2807257Y516996D1*
X2805311Y518941D1*
X2799563Y520843D1*
X2782363D1*
Y480651D1*
X2795760Y501697D2*
X2809158Y480651D1*
X2127961Y2131185D2*
X2124158Y2129328D1*
X2120312Y2125481D1*
X2118410Y2121634D1*
X2116465Y2115886D1*
Y2106336D1*
X2118410Y2100588D1*
X2120312Y2096785D1*
X2124158Y2092938D1*
X2127961Y2091037D1*
X2135610D1*
X2139457Y2092938D1*
X2143260Y2096785D1*
X2145161Y2100588D1*
X2147106Y2106336D1*
Y2115886D1*
X2145161Y2121634D1*
X2143260Y2125481D1*
X2139457Y2129328D1*
X2135610Y2131185D1*
X2127961D1*
X2133709Y2098687D2*
X2145161Y2087190D1*
X2159458Y2123491D2*
X2163305Y2125437D1*
X2169053Y2131141D1*
Y2090993D1*
X2237564Y1655618D2*
X2239421Y1651816D1*
X2243267Y1647969D1*
X2247114Y1646068D1*
X2252862Y1644122D1*
X2262413D1*
X2268161Y1646068D1*
X2271963Y1647969D1*
X2275810Y1651816D1*
X2277711Y1655618D1*
Y1663268D1*
X2275810Y1667114D1*
X2271963Y1670917D1*
X2268161Y1672818D1*
X2262413Y1674764D1*
X2252862D1*
X2247114Y1672818D1*
X2243267Y1670917D1*
X2239421Y1667114D1*
X2237564Y1663268D1*
Y1655618D1*
X2270062Y1661366D2*
X2281558Y1672818D1*
X2247158Y1689061D2*
X2245257D1*
X2241410Y1690962D1*
X2239509Y1692863D1*
X2237608Y1696710D1*
Y1704359D1*
X2239509Y1708162D1*
X2241410Y1710063D1*
X2245257Y1712009D1*
X2249060D1*
X2252906Y1710063D1*
X2258610Y1706260D1*
X2277756Y1687115D1*
Y1713910D1*
X2022478Y1372557D2*
X2018675Y1370700D1*
X2014829Y1366853D1*
X2012927Y1363006D1*
X2010982Y1357258D1*
Y1347707D1*
X2012927Y1341959D1*
X2014829Y1338157D1*
X2018675Y1334310D1*
X2022478Y1332409D1*
X2030127D1*
X2033974Y1334310D1*
X2037777Y1338157D1*
X2039678Y1341959D1*
X2041623Y1347707D1*
Y1357258D1*
X2039678Y1363006D1*
X2037777Y1366853D1*
X2033974Y1370700D1*
X2030127Y1372557D1*
X2022478D1*
X2028226Y1340058D2*
X2039678Y1328562D1*
X2057821Y1372512D2*
X2078824D1*
X2067372Y1357214D1*
X2073120D1*
X2076923Y1355313D1*
X2078824Y1353411D1*
X2080769Y1347663D1*
Y1343861D1*
X2078824Y1338113D1*
X2075021Y1334266D1*
X2069273Y1332365D1*
X2063525D1*
X2057821Y1334266D1*
X2055920Y1336211D1*
X2053975Y1340014D1*
X2696571Y2557092D2*
Y2574292D1*
X2694625Y2580040D1*
X2692724Y2581985D1*
X2688922Y2583887D1*
X2685075D1*
X2681272Y2581985D1*
X2679327Y2580040D1*
X2677426Y2574292D1*
X2677425Y2557092D1*
X2717617D1*
X2696571Y2570489D2*
X2717618Y2583886D1*
X2685119Y2596238D2*
X2683174Y2600085D1*
X2677470Y2605833D1*
X2717618D1*
X2696617Y2638953D2*
Y2656152D1*
X2694671Y2661900D1*
X2692770Y2663846D1*
X2688968Y2665747D1*
X2685121D1*
X2681318Y2663846D1*
X2679373Y2661900D1*
X2677471Y2656152D1*
Y2638953D1*
X2717663D1*
X2696617Y2652350D2*
X2717663Y2665747D1*
X2687066Y2680044D2*
X2685165D1*
X2681318Y2681945D1*
X2679417Y2683847D1*
X2677516Y2687693D1*
Y2695343D1*
X2679417Y2699145D1*
X2681318Y2701046D1*
X2685165Y2702992D1*
X2688968D1*
X2692814Y2701046D1*
X2698518Y2697244D1*
X2717663Y2678099D1*
Y2704893D1*
X1020040Y1722095D2*
Y1739295D1*
X1018094Y1745043D1*
X1016193Y1746988D1*
X1012390Y1748890D1*
X1008544D1*
X1004741Y1746988D1*
X1002796Y1745043D1*
X1000894Y1739295D1*
Y1722095D1*
X1041086D1*
X1020040Y1735492D2*
X1041086Y1748890D1*
Y1780386D2*
X1000939D1*
X1027689Y1761241D1*
Y1789937D1*
X2725896Y851441D2*
X2743096D1*
X2748844Y853387D1*
X2750789Y855288D1*
X2752691Y859091D1*
Y862937D1*
X2750789Y866740D1*
X2748844Y868685D1*
X2743096Y870587D1*
X2725896D1*
Y830395D1*
X2739293Y851441D2*
X2752691Y830395D1*
X2787990Y870542D2*
X2768889D1*
X2766988Y853342D1*
X2768889Y855244D1*
X2774637Y857189D1*
X2780341D1*
X2786089Y855244D1*
X2789935Y851441D1*
X2791837Y845693D1*
Y841891D1*
X2789935Y836143D1*
X2786089Y832296D1*
X2780341Y830395D1*
X2774637D1*
X2768889Y832296D1*
X2766988Y834241D1*
X2765042Y838044D1*
X2198869Y1487977D2*
X2216069D1*
X2221817Y1489922D1*
X2223762Y1491823D1*
X2225663Y1495626D1*
Y1499473D1*
X2223762Y1503275D1*
X2221817Y1505221D1*
X2216069Y1507122D1*
X2198869D1*
Y1466930D1*
X2212266Y1487977D2*
X2225663Y1466930D1*
X2260963Y1501374D2*
X2259061Y1505177D1*
X2253313Y1507078D1*
X2249511D1*
X2243763Y1505177D1*
X2239916Y1499429D1*
X2238015Y1489878D1*
Y1480327D1*
X2239916Y1472678D1*
X2243763Y1468831D1*
X2249511Y1466930D1*
X2251412D1*
X2257116Y1468831D1*
X2260963Y1472678D1*
X2262864Y1478426D1*
Y1480327D1*
X2260963Y1486075D1*
X2257116Y1489878D1*
X2251412Y1491779D1*
X2249511D1*
X2243763Y1489878D1*
X2239916Y1486075D1*
X2238015Y1480327D1*
X1102896Y1171441D2*
X1120096D1*
X1125844Y1173387D1*
X1127789Y1175288D1*
X1129691Y1179091D1*
Y1182937D1*
X1127789Y1186740D1*
X1125844Y1188685D1*
X1120096Y1190587D1*
X1102896D1*
Y1150395D1*
X1116293Y1171441D2*
X1129691Y1150395D1*
X1149691D2*
X1168837Y1190542D1*
X1142042D1*
X1002918Y1171441D2*
X1020118D1*
X1025866Y1173387D1*
X1027812Y1175288D1*
X1029713Y1179091D1*
Y1182937D1*
X1027812Y1186740D1*
X1025866Y1188685D1*
X1020118Y1190587D1*
X1002918D1*
Y1150395D1*
X1016315Y1171441D2*
X1029713Y1150395D1*
X1051615Y1190542D2*
X1045911Y1188641D1*
X1043965Y1184839D1*
Y1180992D1*
X1045911Y1177189D1*
X1049714Y1175244D1*
X1057363Y1173342D1*
X1063111Y1171441D1*
X1066913Y1167594D1*
X1068815Y1163792D1*
Y1158044D1*
X1066913Y1154241D1*
X1065012Y1152296D1*
X1059264Y1150395D1*
X1051615D1*
X1045911Y1152296D1*
X1043965Y1154241D1*
X1042064Y1158044D1*
Y1163792D1*
X1043965Y1167594D1*
X1047812Y1171441D1*
X1053516Y1173342D1*
X1061165Y1175244D1*
X1065012Y1177189D1*
X1066913Y1180992D1*
Y1184839D1*
X1065012Y1188641D1*
X1059264Y1190542D1*
X1051615D1*
X1711906Y1366996D2*
Y1384196D1*
X1709960Y1389944D1*
X1708059Y1391890D1*
X1704256Y1393791D1*
X1700410D1*
X1696607Y1391890D1*
X1694662Y1389944D1*
X1692760Y1384196D1*
Y1366996D1*
X1732952D1*
X1711906Y1380394D2*
X1732952Y1393791D1*
X1706158Y1431036D2*
X1711906Y1429090D1*
X1715753Y1425288D1*
X1717654Y1419540D1*
Y1417638D1*
X1715753Y1411890D1*
X1711906Y1408088D1*
X1706158Y1406142D1*
X1704257D1*
X1698508Y1408088D1*
X1694706Y1411890D1*
X1692805Y1417638D1*
Y1419540D1*
X1694706Y1425288D1*
X1698508Y1429090D1*
X1706158Y1431036D1*
X1715753D1*
X1725303Y1429090D1*
X1731051Y1425288D1*
X1732952Y1419540D1*
Y1415737D1*
X1731051Y1409989D1*
X1727204Y1408088D1*
X1970175Y2220516D2*
X1987375D1*
X1993123Y2222462D1*
X1995068Y2224363D1*
X1996970Y2228165D1*
Y2232012D1*
X1995068Y2235815D1*
X1993123Y2237760D1*
X1987375Y2239661D1*
X1970175D1*
Y2199469D1*
X1983572Y2220516D2*
X1996970Y2199469D1*
X2009321Y2231968D2*
X2013168Y2233913D1*
X2018916Y2239617D1*
Y2199469D1*
X2031267Y2231968D2*
X2035114Y2233913D1*
X2040862Y2239617D1*
Y2199469D1*
X2888106Y2600073D2*
Y2617273D1*
X2886161Y2623021D1*
X2884260Y2624966D1*
X2880457Y2626867D1*
X2876610D1*
X2872808Y2624966D1*
X2870862Y2623021D1*
X2868961Y2617273D1*
Y2600073D1*
X2909153D1*
X2888106Y2613470D2*
X2909153Y2626867D1*
X2876654Y2639219D2*
X2874709Y2643065D1*
X2869005Y2648813D1*
X2909153D1*
X2878556Y2663110D2*
X2876654D1*
X2872808Y2665012D1*
X2870906Y2666913D1*
X2869005Y2670760D1*
Y2678409D1*
X2870906Y2682211D1*
X2872808Y2684113D1*
X2876654Y2686058D1*
X2880457D1*
X2884304Y2684113D1*
X2890008Y2680310D1*
X2909153Y2661165D1*
Y2687959D1*
X1847742Y1354170D2*
Y1371370D1*
X1845796Y1377118D1*
X1843895Y1379063D1*
X1840092Y1380964D1*
X1836246D1*
X1832443Y1379063D1*
X1830498Y1377118D1*
X1828596Y1371370D1*
Y1354170D1*
X1868788D1*
X1847742Y1367567D2*
X1868788Y1380964D1*
X1836290Y1393316D2*
X1834344Y1397163D1*
X1828641Y1402911D1*
X1868788D1*
X1828641Y1419109D2*
Y1440111D1*
X1843939Y1428659D1*
Y1434407D1*
X1845840Y1438210D1*
X1847742Y1440111D1*
X1853490Y1442057D1*
X1857292D1*
X1863040Y1440111D1*
X1866887Y1436309D1*
X1868788Y1430561D1*
Y1424812D1*
X1866887Y1419109D1*
X1864942Y1417207D1*
X1861139Y1415262D1*
X1551510Y783223D2*
X1551511Y800423D1*
X1549565Y806171D1*
X1547664Y808116D1*
X1543861Y810018D1*
X1540014D1*
X1536212Y808116D1*
X1534266Y806171D1*
X1532365Y800423D1*
Y783223D1*
X1572557D1*
X1551511Y796620D2*
X1572557Y810018D1*
X1540059Y822369D2*
X1538113Y826216D1*
X1532409Y831964D1*
X1572557D1*
Y863461D2*
X1532409D1*
X1559160Y844315D1*
Y873011D1*
X1357772Y684170D2*
Y701370D1*
X1355826Y707118D1*
X1353925Y709063D1*
X1350122Y710964D1*
X1346276D1*
X1342473Y709063D1*
X1340528Y707118D1*
X1338626Y701370D1*
Y684170D1*
X1378818D1*
X1357772Y697567D2*
X1378818Y710964D1*
X1346320Y723316D2*
X1344374Y727163D1*
X1338671Y732911D1*
X1378818D1*
X1338671Y768210D2*
Y749109D1*
X1355870Y747207D1*
X1353969Y749109D1*
X1352024Y754857D1*
Y760561D1*
X1353969Y766309D1*
X1357772Y770155D1*
X1363520Y772057D1*
X1367322D1*
X1373070Y770155D1*
X1376917Y766309D1*
X1378818Y760561D1*
Y754857D1*
X1376917Y749109D1*
X1374972Y747207D1*
X1371169Y745262D1*
X1549306Y667637D2*
Y684837D1*
X1547360Y690585D1*
X1545459Y692531D1*
X1541657Y694432D1*
X1537810D1*
X1534007Y692531D1*
X1532062Y690585D1*
X1530160Y684837D1*
Y667637D1*
X1570352D1*
X1549306Y681035D2*
X1570352Y694432D1*
X1537854Y706783D2*
X1535908Y710630D1*
X1530205Y716378D1*
X1570352D1*
X1535908Y751677D2*
X1532106Y749776D1*
X1530205Y744028D1*
Y740226D1*
X1532106Y734477D1*
X1537854Y730631D1*
X1547405Y728729D1*
X1556955D1*
X1564604Y730631D1*
X1568451Y734477D1*
X1570352Y740225D1*
Y742127D1*
X1568451Y747831D1*
X1564604Y751677D1*
X1558856Y753579D1*
X1556955D1*
X1551207Y751677D1*
X1547405Y747831D1*
X1545503Y742127D1*
Y740225D1*
X1547405Y734477D1*
X1551207Y730631D1*
X1556955Y728729D1*
X1018843Y1822121D2*
Y1839321D1*
X1016897Y1845069D1*
X1014996Y1847015D1*
X1011194Y1848916D1*
X1007347D1*
X1003544Y1847015D1*
X1001599Y1845069D1*
X999697Y1839321D1*
Y1822121D1*
X1039889D1*
X1018843Y1835519D2*
X1039889Y1848916D1*
X1007391Y1861267D2*
X1005445Y1865114D1*
X999742Y1870862D1*
X1039889D1*
Y1890863D2*
X999742Y1910008D1*
Y1883213D1*
X813441Y627353D2*
Y644553D1*
X811496Y650301D1*
X809594Y652247D1*
X805792Y654148D1*
X801945D1*
X798143Y652247D1*
X796197Y650301D1*
X794296Y644553D1*
Y627353D1*
X834488D1*
X813441Y640751D2*
X834488Y654148D1*
X801989Y666499D2*
X800044Y670346D1*
X794340Y676094D1*
X834488D1*
X794340Y697996D2*
X796241Y692292D1*
X800044Y690347D1*
X803891D1*
X807693Y692292D1*
X809639Y696095D1*
X811540Y703744D1*
X813441Y709492D1*
X817288Y713295D1*
X821091Y715196D1*
X826839D1*
X830641Y713295D1*
X832587Y711393D1*
X834488Y705645D1*
Y697996D1*
X832587Y692292D1*
X830641Y690347D1*
X826839Y688445D1*
X821091D1*
X817288Y690347D1*
X813441Y694193D1*
X811540Y699897D1*
X809639Y707547D1*
X807693Y711393D1*
X803891Y713295D1*
X800044D1*
X796241Y711393D1*
X794340Y705645D1*
Y697996D1*
X1260180Y466276D2*
X1256378Y470123D1*
X1250630Y472024D1*
X1242981D1*
X1237232Y470123D1*
X1233386Y466276D1*
Y462473D1*
X1235331Y458627D1*
X1237232Y456725D1*
X1241035Y454824D1*
X1252531Y450977D1*
X1256378Y449076D1*
X1258279Y447130D1*
X1260180Y443328D1*
Y437580D1*
X1256378Y433777D1*
X1250630Y431832D1*
X1242981D1*
X1237232Y433777D1*
X1233386Y437580D1*
X1272532Y464330D2*
X1276379Y466276D1*
X1282127Y471980D1*
Y431832D1*
X1437801Y466276D2*
X1433998Y470123D1*
X1428250Y472024D1*
X1420601D1*
X1414853Y470123D1*
X1411006Y466276D1*
Y462473D1*
X1412952Y458627D1*
X1414853Y456725D1*
X1418656Y454824D1*
X1430152Y450977D1*
X1433998Y449076D1*
X1435900Y447130D1*
X1437801Y443328D1*
Y437580D1*
X1433998Y433777D1*
X1428250Y431832D1*
X1420601D1*
X1414853Y433777D1*
X1411006Y437580D1*
X1452098Y462429D2*
Y464330D1*
X1453999Y468177D1*
X1455900Y470078D1*
X1459747Y471980D1*
X1467396D1*
X1471199Y470078D1*
X1473100Y468177D1*
X1475046Y464330D1*
Y460528D1*
X1473100Y456681D1*
X1469298Y450977D1*
X1450152Y431832D1*
X1476947D1*
X1691168Y1648711D2*
X1687321Y1644909D1*
X1685420Y1639161D1*
Y1631512D1*
X1687321Y1625764D1*
X1691168Y1621917D1*
X1694970D1*
X1698817Y1623862D1*
X1700718Y1625764D1*
X1702620Y1629566D1*
X1706466Y1641062D1*
X1708368Y1644909D1*
X1710313Y1646810D1*
X1714116Y1648711D1*
X1719864D1*
X1723666Y1644909D1*
X1725612Y1639161D1*
Y1631512D1*
X1723666Y1625764D1*
X1719864Y1621917D1*
X1706466Y1661063D2*
Y1678307D1*
X1704565Y1684011D1*
X1702620Y1685956D1*
X1698817Y1687857D1*
X1693069D1*
X1689267Y1685956D1*
X1687321Y1684011D1*
X1685420Y1678307D1*
Y1661063D1*
X1725612D1*
X1685420Y1700209D2*
X1725612D1*
X1685420Y1727003D2*
X1712214Y1700209D1*
X1702620Y1709759D2*
X1725612Y1727003D1*
X1704565Y1739355D2*
Y1756555D1*
X1702620Y1762303D1*
X1700718Y1764248D1*
X1696916Y1766150D1*
X1693069D1*
X1689266Y1764248D1*
X1687321Y1762303D1*
X1685420Y1756555D1*
Y1739355D1*
X1725612D1*
X1704565Y1752752D2*
X1725612Y1766149D1*
X1370756Y1806567D2*
X1399452D1*
X1405200Y1808468D1*
X1409003Y1812315D1*
X1410948Y1818063D1*
Y1821866D1*
X1409003Y1827614D1*
X1405200Y1831460D1*
X1399452Y1833362D1*
X1370756D1*
X1378450Y1845713D2*
X1376504Y1849560D1*
X1370800Y1855308D1*
X1410948D1*
X1835232Y1108877D2*
Y1080181D1*
X1837133Y1074433D1*
X1840980Y1070631D1*
X1846728Y1068685D1*
X1850531D1*
X1856279Y1070631D1*
X1860125Y1074433D1*
X1862027Y1080181D1*
Y1108877D1*
X1876324Y1099283D2*
Y1101184D1*
X1878225Y1105031D1*
X1880126Y1106932D1*
X1883973Y1108833D1*
X1891622D1*
X1895425Y1106932D1*
X1897326Y1105031D1*
X1899271Y1101184D1*
Y1097381D1*
X1897326Y1093535D1*
X1893523Y1087831D1*
X1874378Y1068685D1*
X1901173D1*
X3029029Y683888D2*
D115*
Y735554D1*
X3054829Y709754D2*
X3003163D1*
X2058780Y1786633D2*
D116*
X2034903D1*
X2032527Y1765133D1*
X2034903Y1767510D1*
X2042088Y1769942D1*
X2049218D1*
X2056403Y1767510D1*
X2061212Y1762757D1*
X2063588Y1755572D1*
Y1750819D1*
X2061212Y1743634D1*
X2056403Y1738825D1*
X2049218Y1736449D1*
X2042088D1*
X2034903Y1738825D1*
X2032527Y1741257D1*
X2030095Y1746010D1*
X2079028Y1769942D2*
X2093398Y1736449D1*
X2107712Y1769942D1*
X2021737Y1888979D2*
X2019360Y1893732D1*
X2014552Y1898540D1*
X2009798Y1900917D1*
X2000237D1*
X1995428Y1898540D1*
X1990675Y1893732D1*
X1988243Y1888979D1*
X1985867Y1881794D1*
Y1869800D1*
X1988243Y1862670D1*
X1990675Y1857862D1*
X1995428Y1853109D1*
X2000237Y1850677D1*
X2009798D1*
X2014552Y1853109D1*
X2019360Y1857862D1*
X2021737Y1862670D1*
Y1869800D1*
X2009798D1*
X2037176Y1884170D2*
Y1850677D1*
Y1874609D2*
X2044361Y1881794D1*
X2049169Y1884170D1*
X2056299D1*
X2061108Y1881794D1*
X2063484Y1874609D1*
Y1850677D1*
X2107608Y1900917D2*
Y1850677D1*
Y1876985D2*
X2102855Y1881794D1*
X2098047Y1884170D1*
X2090862D1*
X2086108Y1881794D1*
X2081300Y1876985D1*
X2078923Y1869800D1*
Y1865047D1*
X2081300Y1857862D1*
X2086108Y1853109D1*
X2090862Y1850677D1*
X2098047D1*
X2102855Y1853109D1*
X2107608Y1857862D1*
X2014903Y1696633D2*
X2041156D1*
X2026842Y1677510D1*
X2034027D1*
X2038780Y1675133D1*
X2041156Y1672757D1*
X2043588Y1665572D1*
Y1660819D1*
X2041156Y1653634D1*
X2036403Y1648825D1*
X2029218Y1646449D1*
X2022033D1*
X2014903Y1648825D1*
X2012527Y1651257D1*
X2010095Y1656010D1*
X2061404Y1651257D2*
X2059028Y1648825D1*
X2061404Y1646449D1*
X2063836Y1648825D1*
X2061404Y1651257D1*
X2084084Y1696633D2*
X2110337D1*
X2096022Y1677510D1*
X2103207D1*
X2107960Y1675133D1*
X2110337Y1672757D1*
X2112769Y1665572D1*
Y1660819D1*
X2110337Y1653634D1*
X2105584Y1648825D1*
X2098399Y1646449D1*
X2091213D1*
X2084084Y1648825D1*
X2081707Y1651257D1*
X2079275Y1656010D1*
X2010095Y1596689D2*
X2029218Y1546449D1*
X2048341Y1596689D1*
X2063781D2*
X2066157Y1594312D1*
X2068589Y1596689D1*
X2066157Y1599120D1*
X2063781Y1596689D1*
X2066157Y1579942D2*
Y1546449D1*
X2084028Y1579942D2*
Y1546449D1*
Y1570380D2*
X2091213Y1577565D1*
X2096022Y1579942D1*
X2103152D1*
X2107960Y1577565D1*
X2110337Y1570380D1*
Y1546449D1*
X2516194Y2179209D2*
D114*
Y2196453D1*
X2514293Y2202157D1*
X2512347Y2204102D1*
X2508545Y2206004D1*
X2502797D1*
X2498994Y2204102D1*
X2497049Y2202157D1*
X2495147Y2196453D1*
Y2179209D1*
X2535339D1*
X2508545Y2227906D2*
X2510446Y2224103D1*
X2514293Y2220256D1*
X2520041Y2218355D1*
X2523843D1*
X2529591Y2220256D1*
X2533394Y2224103D1*
X2535339Y2227905D1*
Y2233654D1*
X2533394Y2237500D1*
X2529591Y2241303D1*
X2523843Y2243248D1*
X2520041D1*
X2514293Y2241303D1*
X2510446Y2237500D1*
X2508545Y2233654D1*
Y2227906D1*
Y2255600D2*
X2535339Y2263249D1*
X2508545Y2270898D1*
X2535339Y2278548D1*
X2508545Y2286197D1*
X2520041Y2298548D2*
Y2321496D1*
X2516194D1*
X2512347Y2319595D1*
X2510446Y2317694D1*
X2508545Y2313847D1*
Y2308099D1*
X2510446Y2304296D1*
X2514293Y2300450D1*
X2520041Y2298548D1*
X2523843D1*
X2529591Y2300450D1*
X2533394Y2304296D1*
X2535339Y2308099D1*
Y2313847D1*
X2533394Y2317694D1*
X2529591Y2321496D1*
X2508545Y2333848D2*
X2535339D1*
X2520041D2*
X2514293Y2335793D1*
X2510446Y2339596D1*
X2508545Y2343442D1*
Y2349190D1*
Y2409973D2*
X2510446Y2406171D1*
X2514293Y2402324D1*
X2520041Y2400423D1*
X2523843D1*
X2529591Y2402324D1*
X2533394Y2406171D1*
X2535339Y2409973D1*
Y2415721D1*
X2533394Y2419568D1*
X2529591Y2423371D1*
X2523843Y2425316D1*
X2520041D1*
X2514293Y2423371D1*
X2510446Y2419568D1*
X2508545Y2415721D1*
Y2409973D1*
Y2437667D2*
X2535339D1*
X2516194D2*
X2510446Y2443415D1*
X2508545Y2447262D1*
Y2452966D1*
X2510446Y2456813D1*
X2516194Y2458714D1*
X2535339D1*
X2495147Y2471065D2*
X2535339D1*
X2508545Y2485362D2*
X2535339Y2496814D1*
X2542989Y2493012D1*
X2546835Y2489165D1*
X2548737Y2485362D1*
Y2483417D1*
X2508545Y2508310D2*
X2535339Y2496814D1*
X2399765Y2069839D2*
X2395962Y2067938D1*
X2392116Y2064091D1*
X2390214Y2060289D1*
Y2052639D1*
X2392115Y2048793D1*
X2395962Y2044990D1*
X2399765Y2043045D1*
X2405513Y2041143D1*
X2415108D1*
X2420811Y2043045D1*
X2424658Y2044990D1*
X2428461Y2048793D1*
X2430406Y2052639D1*
Y2060289D1*
X2428461Y2064091D1*
X2424658Y2067938D1*
X2420811Y2069839D1*
X2415108D1*
Y2060289D1*
X2403612Y2082191D2*
X2430406D1*
X2411261D2*
X2405513Y2087939D1*
X2403612Y2091785D1*
Y2097489D1*
X2405513Y2101336D1*
X2411261Y2103237D1*
X2430406D1*
X2390214Y2138537D2*
X2430406D1*
X2409360D2*
X2405513Y2134734D1*
X2403612Y2130887D1*
Y2125139D1*
X2405513Y2121337D1*
X2409360Y2117490D1*
X2415108Y2115589D1*
X2418910D1*
X2424658Y2117490D1*
X2428461Y2121337D1*
X2430406Y2125139D1*
Y2130887D1*
X2428461Y2134734D1*
X2424658Y2138537D1*
X2290258Y2034990D2*
Y2055993D1*
X2305557Y2044541D1*
Y2050289D1*
X2307458Y2054091D1*
X2309360Y2055992D1*
X2315108Y2057938D1*
X2318910D1*
X2324658Y2055992D1*
X2328505Y2052190D1*
X2330406Y2046442D1*
Y2040694D1*
X2328505Y2034990D1*
X2326559Y2033089D1*
X2322757Y2031143D1*
X2326559Y2072191D2*
X2328505Y2070289D1*
X2330406Y2072191D1*
X2328505Y2074136D1*
X2326559Y2072191D1*
X2290258Y2090334D2*
Y2111337D1*
X2305557Y2099885D1*
Y2105633D1*
X2307458Y2109435D1*
X2309360Y2111337D1*
X2315108Y2113282D1*
X2318910D1*
X2324658Y2111337D1*
X2328505Y2107534D1*
X2330406Y2101786D1*
Y2096038D1*
X2328505Y2090334D1*
X2326559Y2088433D1*
X2322757Y2086487D1*
X2303612Y2125634D2*
X2330406Y2137130D1*
X2303612Y2148581D1*
X1753608Y3070270D2*
D116*
X1748799Y3067838D1*
X1741614Y3060708D1*
Y3110893D1*
X1662176Y3071647D2*
Y3069270D1*
X1659799Y3064462D1*
X1657422Y3062085D1*
X1652614Y3059708D1*
X1643052D1*
X1638299Y3062085D1*
X1635923Y3064462D1*
X1633491Y3069270D1*
Y3074023D1*
X1635923Y3078832D1*
X1640676Y3085962D1*
X1664608Y3109893D1*
X1631114D1*
X1559799Y3059708D2*
X1533546D1*
X1547861Y3078832D1*
X1540676D1*
X1535923Y3081208D1*
X1533546Y3083585D1*
X1531114Y3090770D1*
Y3095523D1*
X1533546Y3102708D1*
X1538299Y3107517D1*
X1545484Y3109893D1*
X1552669D1*
X1559799Y3107517D1*
X1562176Y3105085D1*
X1564608Y3100332D1*
X1435923Y3066838D2*
X1438299Y3062085D1*
X1445484Y3059708D1*
X1450237D1*
X1457422Y3062085D1*
X1462231Y3069270D1*
X1464608Y3081208D1*
Y3093147D1*
X1462231Y3102708D1*
X1457422Y3107517D1*
X1450237Y3109893D1*
X1447861D1*
X1440731Y3107517D1*
X1435923Y3102708D1*
X1433546Y3095523D1*
Y3093147D1*
X1435923Y3085962D1*
X1440731Y3081208D1*
X1447861Y3078832D1*
X1450237D1*
X1457422Y3081208D1*
X1462231Y3085961D1*
X1464608Y3093147D1*
X1355046Y3109893D2*
X1331114Y3059708D1*
X1364608D1*
X1252669D2*
X1259799Y3062085D1*
X1262231Y3066838D1*
Y3071647D1*
X1259799Y3076400D1*
X1255046Y3078832D1*
X1245484Y3081208D1*
X1238299Y3083585D1*
X1233546Y3088393D1*
X1231169Y3093147D1*
X1231170Y3100332D1*
X1233546Y3105085D1*
X1235923Y3107517D1*
X1243108Y3109893D1*
X1252669D1*
X1259799Y3107517D1*
X1262231Y3105085D1*
X1264608Y3100332D1*
Y3093147D1*
X1262231Y3088393D1*
X1257422Y3083585D1*
X1250293Y3081208D1*
X1240731Y3078832D1*
X1235923Y3076400D1*
X1233546Y3071647D1*
Y3066838D1*
X1235923Y3062085D1*
X1243108Y3059708D1*
X1252669D1*
X1128491Y3076400D2*
X1130923Y3083585D1*
X1135676Y3088393D1*
X1142861Y3090770D1*
X1145237D1*
X1152422Y3088393D1*
X1157176Y3083585D1*
X1159608Y3076400D1*
Y3074023D1*
X1157176Y3066838D1*
X1152422Y3062085D1*
X1145237Y3059708D1*
X1142861D1*
X1135676Y3062085D1*
X1130923Y3066838D1*
X1128491Y3076400D1*
Y3088393D1*
X1130923Y3100332D1*
X1135676Y3107517D1*
X1142861Y3109893D1*
X1147614D1*
X1154799Y3107517D1*
X1157176Y3102708D1*
X2116224Y2159919D2*
X2113792Y2164728D1*
X2106663Y2171913D1*
X2156847D1*
X2106663Y2216037D2*
Y2192160D1*
X2128162Y2189784D1*
X2125786Y2192160D1*
X2123354Y2199345D1*
Y2206475D1*
X2125786Y2213660D1*
X2130539Y2218469D1*
X2137724Y2220845D1*
X2142477D1*
X2149662Y2218469D1*
X2154471Y2213660D1*
X2156847Y2206475D1*
Y2199345D1*
X2154471Y2192160D1*
X2152039Y2189784D1*
X2147286Y2187352D1*
X2121224Y2264919D2*
X2118792Y2269728D1*
X2111663Y2276913D1*
X2161847D1*
X2118792Y2321037D2*
X2114039Y2318660D1*
X2111663Y2311475D1*
Y2306722D1*
X2114039Y2299537D1*
X2121224Y2294729D1*
X2133162Y2292352D1*
X2145101D1*
X2154662Y2294729D1*
X2159471Y2299537D1*
X2161847Y2306722D1*
Y2309099D1*
X2159471Y2316228D1*
X2154662Y2321037D1*
X2147477Y2323413D1*
X2145101D1*
X2137916Y2321037D1*
X2133162Y2316228D1*
X2130786Y2309099D1*
Y2306722D1*
X2133162Y2299537D1*
X2137916Y2294729D1*
X2145101Y2292352D1*
X2116224Y2364919D2*
X2113792Y2369728D1*
X2106663Y2376913D1*
X2156847D1*
Y2401914D2*
X2106663Y2425845D1*
Y2392352D1*
X2116224Y2459919D2*
X2113792Y2464728D1*
X2106663Y2471913D1*
X2156847D1*
X2106663Y2499290D2*
X2109039Y2492160D1*
X2113792Y2489729D1*
X2118601D1*
X2123354Y2492160D1*
X2125786Y2496914D1*
X2128162Y2506475D1*
X2130539Y2513660D1*
X2135347Y2518413D1*
X2140101Y2520790D1*
X2147286D1*
X2152039Y2518413D1*
X2154471Y2516037D1*
X2156847Y2508852D1*
Y2499290D1*
X2154471Y2492160D1*
X2152039Y2489728D1*
X2147286Y2487352D1*
X2140101D1*
X2135347Y2489729D1*
X2130539Y2494537D1*
X2128162Y2501667D1*
X2125786Y2511228D1*
X2123354Y2516037D1*
X2118601Y2518413D1*
X2113792D1*
X2109039Y2516037D1*
X2106663Y2508852D1*
Y2499290D1*
X2121224Y2564919D2*
X2118792Y2569728D1*
X2111663Y2576913D1*
X2161847D1*
X2128354Y2623469D2*
X2135539Y2621037D1*
X2140347Y2616284D1*
X2142724Y2609099D1*
Y2606722D1*
X2140347Y2599537D1*
X2135539Y2594784D1*
X2128354Y2592352D1*
X2125977D1*
X2118792Y2594784D1*
X2114039Y2599537D1*
X2111663Y2606722D1*
Y2609099D1*
X2114039Y2616284D1*
X2118792Y2621037D1*
X2128354Y2623469D1*
X2140347D1*
X2152286Y2621037D1*
X2159471Y2616284D1*
X2161847Y2609099D1*
Y2604345D1*
X2159471Y2597160D1*
X2154662Y2594784D1*
X2118601Y2657351D2*
X2116224D1*
X2111416Y2659728D1*
X2109039Y2662104D1*
X2106663Y2666913D1*
Y2676474D1*
X2109039Y2681228D1*
X2111416Y2683604D1*
X2116224Y2686036D1*
X2120977D1*
X2125786Y2683604D1*
X2132916Y2678851D1*
X2156847Y2654919D1*
Y2688412D1*
X2106663Y2718222D2*
X2109039Y2711037D1*
X2116224Y2706228D1*
X2128162Y2703852D1*
X2135347D1*
X2147286Y2706228D1*
X2154471Y2711037D1*
X2156847Y2718222D1*
Y2722975D1*
X2154471Y2730160D1*
X2147286Y2734913D1*
X2135347Y2737345D1*
X2128162D1*
X2116224Y2734913D1*
X2109039Y2730160D1*
X2106663Y2722975D1*
Y2718222D1*
X2116224Y2734913D2*
X2147286Y2706228D1*
X2063133Y2833293D2*
D114*
Y2793101D1*
X2076530D1*
X2082278Y2795046D1*
X2086125Y2798849D1*
X2088026Y2802696D1*
X2089927Y2808399D1*
Y2817994D1*
X2088026Y2823742D1*
X2086125Y2827545D1*
X2082278Y2831392D1*
X2076530Y2833293D1*
X2063133D1*
X2106126Y2833249D2*
X2127128D1*
X2115676Y2817950D1*
X2121424D1*
X2125227Y2816049D1*
X2127128Y2814148D1*
X2129073Y2808399D1*
Y2804597D1*
X2127128Y2798849D1*
X2123325Y2795002D1*
X2117577Y2793101D1*
X2111829D1*
X2106126Y2795002D1*
X2104224Y2796948D1*
X2102279Y2800750D1*
X2143370Y2823698D2*
Y2825599D1*
X2145272Y2829446D1*
X2147173Y2831347D1*
X2151020Y2833249D1*
X2158669D1*
X2162471Y2831347D1*
X2164373Y2829446D1*
X2166318Y2825599D1*
Y2821797D1*
X2164373Y2817950D1*
X2160570Y2812246D1*
X2141425Y2793101D1*
X2168220D1*
X2057110Y2937156D2*
Y2896964D1*
X2070508D1*
X2076256Y2898910D1*
X2080103Y2902712D1*
X2082004Y2906559D1*
X2083905Y2912263D1*
Y2921858D1*
X2082004Y2927606D1*
X2080103Y2931408D1*
X2076256Y2935255D1*
X2070508Y2937156D1*
X2057110D1*
X2100103Y2937112D2*
X2121106D1*
X2109654Y2921814D1*
X2115402D1*
X2119204Y2919912D1*
X2121106Y2918011D1*
X2123051Y2912263D1*
Y2908460D1*
X2121106Y2902712D1*
X2117303Y2898866D1*
X2111555Y2896964D1*
X2105807D1*
X2100103Y2898866D1*
X2098202Y2900811D1*
X2096256Y2904614D1*
X2139249Y2937112D2*
X2160252D1*
X2148800Y2921814D1*
X2154548D1*
X2158350Y2919912D1*
X2160252Y2918011D1*
X2162197Y2912263D1*
Y2908460D1*
X2160252Y2902712D1*
X2156449Y2898866D1*
X2150701Y2896964D1*
X2144953D1*
X2139249Y2898866D1*
X2137348Y2900811D1*
X2135403Y2904614D1*
X593647Y1950317D2*
D116*
X586462Y1947940D1*
X581654Y1940755D1*
X579277Y1928817D1*
Y1921632D1*
X581654Y1909694D1*
X586462Y1902509D1*
X593647Y1900132D1*
X598401D1*
X605586Y1902509D1*
X610339Y1909694D1*
X612771Y1921632D1*
Y1928817D1*
X610339Y1940755D1*
X605586Y1947940D1*
X598401Y1950317D1*
X593647D1*
X610339Y1940755D2*
X581654Y1909694D1*
X690867Y1949300D2*
X695675Y1951732D1*
X702860Y1958862D1*
Y1908677D1*
X781298Y1956923D2*
Y1959300D1*
X783675Y1964108D1*
X786052Y1966485D1*
X790860Y1968862D1*
X800422D1*
X805175Y1966485D1*
X807552Y1964108D1*
X809983Y1959300D1*
Y1954547D1*
X807552Y1949738D1*
X802798Y1942609D1*
X778867Y1918677D1*
X812360D1*
X889675Y1958862D2*
X915928D1*
X901613Y1939738D1*
X908798D1*
X913552Y1937362D1*
X915928Y1934985D1*
X918360Y1927800D1*
Y1923047D1*
X915928Y1915862D1*
X911175Y1911053D1*
X903990Y1908677D1*
X896805D1*
X889675Y1911053D1*
X887298Y1913485D1*
X884867Y1918239D1*
X1004798Y1908677D2*
Y1958862D1*
X980867Y1925424D1*
X1016737D1*
X1109552Y1958862D2*
X1085675D1*
X1083298Y1937362D1*
X1085675Y1939738D1*
X1092860Y1942170D1*
X1099990D1*
X1107175Y1939738D1*
X1111983Y1934985D1*
X1114360Y1927800D1*
Y1923047D1*
X1111983Y1915862D1*
X1107175Y1911053D1*
X1099990Y1908677D1*
X1092860D1*
X1085675Y1911053D1*
X1083298Y1913485D1*
X1080867Y1918239D1*
X1214552Y1951732D2*
X1212175Y1956485D1*
X1204990Y1958862D1*
X1200237D1*
X1193052Y1956485D1*
X1188243Y1949300D1*
X1185867Y1937362D1*
Y1925424D1*
X1188243Y1915862D1*
X1193052Y1911053D1*
X1200237Y1908677D1*
X1202613D1*
X1209743Y1911053D1*
X1214552Y1915862D1*
X1216928Y1923047D1*
Y1925424D1*
X1214552Y1932609D1*
X1209743Y1937362D1*
X1202613Y1939738D1*
X1200237D1*
X1193052Y1937362D1*
X1188243Y1932609D1*
X1185867Y1925424D1*
X1290428Y1908677D2*
X1314360Y1958862D1*
X1280867D1*
X1397805Y1955862D2*
X1390675Y1953485D1*
X1388243Y1948732D1*
Y1943923D1*
X1390675Y1939170D1*
X1395428Y1936738D1*
X1404990Y1934362D1*
X1412175Y1931985D1*
X1416928Y1927177D1*
X1419305Y1922424D1*
Y1915239D1*
X1416928Y1910485D1*
X1414552Y1908053D1*
X1407366Y1905677D1*
X1397805D1*
X1390675Y1908053D1*
X1388243Y1910485D1*
X1385867Y1915239D1*
Y1922424D1*
X1388243Y1927177D1*
X1393052Y1931985D1*
X1400181Y1934362D1*
X1409743Y1936738D1*
X1414552Y1939170D1*
X1416928Y1943923D1*
Y1948732D1*
X1414552Y1953485D1*
X1407366Y1955862D1*
X1397805D1*
X1516983Y1939170D2*
X1514552Y1931985D1*
X1509798Y1927177D1*
X1502613Y1924800D1*
X1500237D1*
X1493052Y1927177D1*
X1488298Y1931985D1*
X1485867Y1939170D1*
Y1941547D1*
X1488298Y1948732D1*
X1493052Y1953485D1*
X1500237Y1955862D1*
X1502613D1*
X1509798Y1953485D1*
X1514552Y1948732D1*
X1516983Y1939170D1*
Y1927177D1*
X1514552Y1915239D1*
X1509798Y1908053D1*
X1502613Y1905677D1*
X1497860D1*
X1490675Y1908053D1*
X1488298Y1912862D1*
X1575867Y1949300D2*
X1580675Y1951732D1*
X1587860Y1958862D1*
Y1908677D1*
X1617669Y1958862D2*
X1610484Y1956485D1*
X1605676Y1949300D1*
X1603299Y1937362D1*
Y1930177D1*
X1605676Y1918239D1*
X1610484Y1911053D1*
X1617669Y1908677D1*
X1622423D1*
X1629608Y1911053D1*
X1634361Y1918239D1*
X1636793Y1930177D1*
Y1937362D1*
X1634361Y1949300D1*
X1629608Y1956485D1*
X1622423Y1958862D1*
X1617669D1*
X1634361Y1949300D2*
X1605676Y1918239D1*
X1900867Y1951300D2*
X1905675Y1953732D1*
X1912860Y1960862D1*
Y1910677D1*
X1933108Y1960862D2*
X1959361D1*
X1945046Y1941738D1*
X1952231D1*
X1956984Y1939362D1*
X1959361Y1936985D1*
X1961793Y1929800D1*
Y1925047D1*
X1959361Y1917862D1*
X1954608Y1913053D1*
X1947423Y1910677D1*
X1940238D1*
X1933108Y1913053D1*
X1930731Y1915485D1*
X1928299Y1920239D1*
X482813Y829724D2*
Y779484D1*
X466066Y829724D2*
X499559D1*
X514999Y798607D2*
X543684D1*
Y803416D1*
X541307Y808224D1*
X538930Y810601D1*
X534122Y812977D1*
X526937D1*
X522184Y810601D1*
X517375Y805792D1*
X514999Y798607D1*
Y793854D1*
X517375Y786669D1*
X522184Y781916D1*
X526937Y779484D1*
X534122D1*
X538930Y781916D1*
X543684Y786669D1*
X559123Y798607D2*
X587808D1*
Y803416D1*
X585431Y808224D1*
X583055Y810601D1*
X578246Y812977D1*
X571061D1*
X566308Y810601D1*
X561499Y805792D1*
X559123Y798607D1*
Y793854D1*
X561499Y786669D1*
X566308Y781916D1*
X571061Y779484D1*
X578246D1*
X583055Y781916D1*
X587808Y786669D1*
X603247Y812977D2*
Y779484D1*
Y803416D2*
X610432Y810601D1*
X615240Y812977D1*
X622370D1*
X627179Y810601D1*
X629555Y803416D1*
Y779484D1*
X671303Y805792D2*
X668926Y810601D1*
X661741Y812977D1*
X654556D1*
X647371Y810601D1*
X644994Y805792D1*
X647371Y801039D1*
X652180Y798607D1*
X664118Y796231D1*
X668926Y793854D1*
X671303Y789046D1*
Y786669D1*
X668926Y781916D1*
X661741Y779484D1*
X654556D1*
X647371Y781916D1*
X644994Y786669D1*
X689174Y812977D2*
X703489Y779484D1*
X698736Y769922D1*
X693927Y765114D1*
X689174Y762737D1*
X686742D1*
X717859Y812977D2*
X703489Y779484D1*
X820201D2*
X801022Y829724D1*
X781899Y779484D1*
X789084Y796231D2*
X813016D1*
X835640Y812977D2*
Y779484D1*
Y798607D2*
X838072Y805792D1*
X842825Y810601D1*
X847634Y812977D1*
X854819D1*
X870258Y829724D2*
Y779484D1*
Y805792D2*
X875066Y810601D1*
X879819Y812977D1*
X887004D1*
X891758Y810601D1*
X896566Y805792D1*
X898943Y798607D1*
Y793854D1*
X896566Y786669D1*
X891758Y781916D1*
X887004Y779484D1*
X879819D1*
X875066Y781916D1*
X870258Y786669D1*
X926320Y812977D2*
X921567Y810601D1*
X916759Y805792D1*
X914382Y798607D1*
Y793854D1*
X916759Y786669D1*
X921567Y781916D1*
X926320Y779484D1*
X933505D1*
X938314Y781916D1*
X943067Y786669D1*
X945499Y793854D1*
Y798607D1*
X943067Y805792D1*
X938314Y810601D1*
X933505Y812977D1*
X926320D1*
X968123Y829724D2*
Y789046D1*
X970500Y781916D1*
X975308Y779484D1*
X980061D1*
X960938Y812977D2*
X977685D1*
X995500Y829724D2*
X997877Y827347D1*
X1000309Y829724D1*
X997877Y832156D1*
X995500Y829724D1*
X997877Y812977D2*
Y779484D1*
X1015748Y812977D2*
X1042056Y779484D1*
Y812977D2*
X1015748Y779484D1*
X1106097Y803416D2*
X1127652D1*
X1134782Y805792D1*
X1137213Y808224D1*
X1139590Y812977D1*
Y820162D1*
X1137213Y824916D1*
X1134782Y827347D1*
X1127652Y829724D1*
X1106097D1*
Y779484D1*
X1155029Y812977D2*
Y779484D1*
Y798607D2*
X1157461Y805792D1*
X1162214Y810601D1*
X1167023Y812977D1*
X1174208D1*
X1201585D2*
X1196832Y810601D1*
X1192024Y805792D1*
X1189647Y798607D1*
Y793854D1*
X1192024Y786669D1*
X1196832Y781916D1*
X1201585Y779484D1*
X1208770D1*
X1213579Y781916D1*
X1218332Y786669D1*
X1220764Y793854D1*
Y798607D1*
X1218332Y805792D1*
X1213579Y810601D1*
X1208770Y812977D1*
X1201585D1*
X790958Y3043310D2*
D114*
X762262D1*
X756514Y3041409D1*
X752712Y3037562D1*
X750766Y3031814D1*
Y3028011D1*
X752712Y3022263D1*
X756514Y3018417D1*
X762262Y3016515D1*
X790958D1*
X785210Y2977369D2*
X789057Y2981172D1*
X790958Y2986920D1*
Y2994569D1*
X789057Y3000317D1*
X785210Y3004164D1*
X781408D1*
X777561Y3002218D1*
X775660Y3000317D1*
X773758Y2996515D1*
X769912Y2985019D1*
X768010Y2981172D1*
X766065Y2979271D1*
X762262Y2977369D1*
X756514D1*
X752712Y2981172D1*
X750766Y2986920D1*
Y2994569D1*
X752712Y3000317D1*
X756514Y3004164D1*
X790958Y2965018D2*
X750766D1*
Y2947774D1*
X752712Y2942026D1*
X754613Y2940125D1*
X758416Y2938223D1*
X764164D1*
X768010Y2940124D1*
X769912Y2942026D1*
X771813Y2947774D1*
X773758Y2942026D1*
X775660Y2940124D1*
X779462Y2938223D1*
X783309D1*
X787111Y2940124D1*
X789057Y2942026D1*
X790958Y2947774D1*
Y2965018D1*
X771813D2*
Y2947774D1*
X1032976Y2983439D2*
Y2964338D1*
X1050176Y2962437D1*
X1048275Y2964338D1*
X1046329Y2970086D1*
Y2975790D1*
X1048275Y2981538D1*
X1052077Y2985384D1*
X1057825Y2987286D1*
X1061628D1*
X1067376Y2985384D1*
X1071223Y2981538D1*
X1073124Y2975790D1*
Y2970086D1*
X1071223Y2964338D1*
X1069277Y2962437D1*
X1065475Y2960491D1*
X1046329Y2999637D2*
X1073124Y3011133D1*
X1046329Y3022585D1*
X1066484Y2806032D2*
Y2846224D1*
X1049240D1*
X1043492Y2844278D1*
X1041591Y2842377D1*
X1039690Y2838575D1*
Y2832827D1*
X1041591Y2828980D1*
X1043492Y2827078D1*
X1049240Y2825177D1*
X1043492Y2823232D1*
X1041591Y2821330D1*
X1039690Y2817528D1*
Y2813681D1*
X1041591Y2809879D1*
X1043492Y2807933D1*
X1049240Y2806032D1*
X1066484D1*
Y2825177D2*
X1049240D1*
X1027338Y2819429D2*
Y2846224D1*
Y2830925D2*
X1025393Y2825177D1*
X1021590Y2821330D1*
X1017744Y2819429D1*
X1011996D1*
X976696Y2806032D2*
Y2846224D1*
Y2825177D2*
X980499Y2821330D1*
X984346Y2819429D1*
X990094D1*
X993896Y2821330D1*
X997743Y2825177D1*
X999644Y2830925D1*
Y2834728D1*
X997743Y2840476D1*
X993896Y2844278D1*
X990094Y2846224D1*
X984346D1*
X980499Y2844278D1*
X976696Y2840476D1*
X925464Y2827078D2*
X908220D1*
X902516Y2825177D1*
X900571Y2823232D1*
X898670Y2819429D1*
Y2813681D1*
X900571Y2809879D1*
X902516Y2807933D1*
X908220Y2806032D1*
X925464D1*
Y2846224D1*
X876768Y2819429D2*
X880570Y2821330D1*
X884417Y2825177D1*
X886318Y2830925D1*
Y2834728D1*
X884417Y2840476D1*
X880570Y2844278D1*
X876768Y2846224D1*
X871020D1*
X867173Y2844278D1*
X863370Y2840476D1*
X861425Y2834728D1*
Y2830925D1*
X863370Y2825177D1*
X867173Y2821330D1*
X871020Y2819429D1*
X876768D1*
X849073D2*
X841424Y2846224D1*
X833775Y2819429D1*
X826125Y2846224D1*
X818476Y2819429D1*
X806125Y2830925D2*
X783177D1*
Y2827078D1*
X785078Y2823232D1*
X786979Y2821330D1*
X790826Y2819429D1*
X796574D1*
X800377Y2821330D1*
X804223Y2825177D1*
X806125Y2830925D1*
Y2834728D1*
X804223Y2840476D1*
X800377Y2844278D1*
X796574Y2846224D1*
X790826D1*
X786979Y2844278D1*
X783177Y2840476D1*
X770825Y2819429D2*
Y2846224D1*
Y2830925D2*
X768880Y2825177D1*
X765077Y2821330D1*
X761231Y2819429D1*
X755483D1*
X2297115Y3100951D2*
Y3081850D1*
X2314315Y3079948D1*
X2312414Y3081850D1*
X2310469Y3087598D1*
Y3093302D1*
X2312414Y3099050D1*
X2316217Y3102896D1*
X2321965Y3104798D1*
X2325767D1*
X2331515Y3102896D1*
X2335362Y3099049D1*
X2337263Y3093301D1*
Y3087598D1*
X2335362Y3081850D1*
X2333416Y3079948D1*
X2329614Y3078003D1*
X2310469Y3117149D2*
X2337263Y3128645D1*
X2310469Y3140097D1*
X1848306Y3109893D2*
D116*
X1867484Y3059653D1*
X1886608Y3109893D1*
X1879422Y3093147D2*
X1855491D1*
X1818496Y3059709D2*
X1825681Y3062085D1*
X1830490Y3069270D1*
X1832867Y3081208D1*
Y3088393D1*
X1830490Y3100332D1*
X1825682Y3107517D1*
X1818497Y3109893D1*
X1813743D1*
X1806558Y3107517D1*
X1801805Y3100332D1*
X1799373Y3088393D1*
Y3081208D1*
X1801805Y3069270D1*
X1806558Y3062085D1*
X1813743Y3059709D1*
X1818496D1*
X1801805Y3069270D2*
X1830490Y3100332D1*
X1956255Y3033536D2*
D114*
Y2993344D1*
X1929461Y3033536D1*
Y2993344D1*
X1968607Y3008642D2*
X1991555D1*
Y3012489D1*
X1989654Y3016336D1*
X1987752Y3018237D1*
X1983905Y3020138D1*
X1978157D1*
X1974355Y3018237D1*
X1970508Y3014390D1*
X1968607Y3008642D1*
Y3004840D1*
X1970508Y2999092D1*
X1974355Y2995289D1*
X1978157Y2993344D1*
X1983905D1*
X1987752Y2995289D1*
X1991555Y2999092D1*
X2013457Y3020138D2*
X2009654Y3018237D1*
X2005807Y3014390D1*
X2003906Y3008642D1*
Y3004840D1*
X2005807Y2999092D1*
X2009654Y2995289D1*
X2013457Y2993344D1*
X2019205D1*
X2023052Y2995289D1*
X2026854Y2999092D1*
X2028800Y3004840D1*
Y3008642D1*
X2026854Y3014390D1*
X2023052Y3018237D1*
X2019205Y3020138D1*
X2013457D1*
X2041151Y3013418D2*
X2063259D1*
X2087106Y3033536D2*
X2083259Y3031634D1*
X2079457Y3027788D1*
X2077511Y3023985D1*
X2075610Y3018237D1*
Y3008642D1*
X2077511Y3002938D1*
X2079457Y2999092D1*
X2083259Y2995289D1*
X2087106Y2993344D1*
X2094756D1*
X2098558Y2995289D1*
X2102405Y2999092D1*
X2104306Y3002938D1*
X2106207Y3008642D1*
Y3018237D1*
X2104306Y3023985D1*
X2102405Y3027788D1*
X2098558Y3031634D1*
X2094756Y3033536D1*
X2087106D1*
X2118559Y3020138D2*
Y3000993D1*
X2120460Y2995289D1*
X2124307Y2993344D1*
X2130055D1*
X2133857Y2995289D1*
X2139605Y3000993D1*
Y3020138D2*
Y2993344D1*
X2157705Y3033536D2*
Y3000993D1*
X2159606Y2995289D1*
X2163453Y2993344D1*
X2167255D1*
X2151957Y3020138D2*
X2165354D1*
X1808932Y1674072D2*
D117*
X1740044D1*
X1774444Y1708471D2*
Y1639584D1*
M02*
