G04 DipTrace 3.3.1.3*
G04 Teensy4.0TouchDisplayLoRa.gts*
%MOIN*%
G04 #@! TF.FileFunction,Soldermask,Top*
G04 #@! TF.Part,Single*
%AMOUTLINE4*
4,1,4,
-0.03937,-0.015748,
0.03937,-0.015748,
0.03937,0.015748,
-0.03937,0.015748,
-0.03937,-0.015748,
0*%
%AMOUTLINE5*
4,1,4,
0.03937,0.015748,
-0.03937,0.015748,
-0.03937,-0.015748,
0.03937,-0.015748,
0.03937,0.015748,
0*%
%AMOUTLINE6*
4,1,4,
0.03,0.08,
-0.03,0.08,
-0.03,-0.08,
0.03,-0.08,
0.03,0.08,
0*%
%AMOUTLINE7*
4,1,4,
0.02,0.04,
-0.02,0.04,
-0.02,-0.04,
0.02,-0.04,
0.02,0.04,
0*%
%ADD23C,0.04*%
%ADD33C,0.066*%
%ADD35R,0.1X0.05*%
%ADD38C,0.17*%
%ADD41C,0.07*%
%ADD42C,0.074*%
%ADD48R,0.07874X0.023622*%
%ADD49R,0.165354X0.027559*%
%ADD53C,0.065199*%
%ADD54C,0.05315*%
%ADD55R,0.047244X0.047244*%
%ADD57R,0.031496X0.035433*%
%ADD61C,0.06194*%
%ADD62C,0.055*%
%ADD63R,0.074X0.074*%
%ADD77C,0.167*%
%ADD79C,0.042*%
%ADD81C,0.092551*%
%ADD83C,0.064992*%
%ADD85R,0.064992X0.064992*%
%ADD87R,0.057118X0.017748*%
%ADD95R,0.027591X0.043339*%
%ADD105C,0.078772*%
%ADD111R,0.059087X0.04137*%
%ADD113R,0.033496X0.061055*%
%ADD115R,0.033496X0.057118*%
%ADD117R,0.04137X0.063024*%
%ADD119R,0.029559X0.070898*%
%ADD123C,0.072*%
%ADD125C,0.061055*%
%ADD127R,0.061055X0.061055*%
%ADD131R,0.053181X0.061055*%
%ADD133R,0.061055X0.053181*%
%ADD145OUTLINE4*%
%ADD146OUTLINE5*%
%ADD147OUTLINE6*%
%ADD148OUTLINE7*%
%FSLAX26Y26*%
G04*
G70*
G90*
G75*
G01*
G04 TopMask*
%LPD*%
D79*
X3599613Y1236707D3*
Y1487335D3*
X3475346Y1999781D3*
X2443485Y893648D3*
X1406094Y2199760D3*
X1043632Y1743558D3*
X2743453Y1318603D3*
X2374742Y687419D3*
X2730955Y737414D3*
Y506188D3*
X2093522Y781159D3*
X2087272Y518687D3*
D77*
X3661417Y511810D3*
X669291D3*
Y2244094D3*
X3661417D3*
D23*
X1268608Y1118624D3*
X793700Y2273700D3*
X1973700Y1233700D3*
X1949787Y1368598D3*
X1281107Y1624821D3*
X1668566Y2099771D3*
X2033700Y993700D3*
X1631070Y1074878D3*
X1433700Y1358697D3*
X2874690Y2212259D3*
X3118414Y1506083D3*
X2987178Y1374847D3*
X2274752Y2212259D3*
X2980928Y1468587D3*
X2353700Y2213700D3*
X2818445Y2043527D3*
X3012175Y1312354D3*
X2149766Y2156015D3*
X2099771Y2106020D3*
X1893700Y1813700D3*
X599928Y937393D3*
X1712312Y1099876D3*
X2213700Y1053700D3*
X1318603Y2074773D3*
X1274857Y2024779D3*
X1973700Y1513700D3*
X1068629Y1631070D3*
X1356099Y1737309D3*
X593700Y1973700D3*
X2293700Y793700D3*
X2374742Y793658D3*
X2849692Y843653D3*
X1424842Y1731060D3*
X2318498Y1906041D3*
X3149661Y1599823D3*
X3093700Y1873700D3*
X1312354Y1287356D3*
X1313700Y1193700D3*
Y1073700D3*
X1773700Y1733700D3*
X2293700Y693700D3*
X2231007Y2162264D3*
X2068524Y1737309D3*
X3024674Y1424842D3*
X3293700Y1973700D3*
D33*
X1768556Y2043527D3*
D35*
X841200Y768700D3*
X666200D3*
D133*
X1687314Y2056025D3*
Y1981222D3*
D131*
X2456298Y473700D3*
X2531102D3*
X706167Y1656067D3*
X780970D3*
X768661Y1512333D3*
X693857D3*
D33*
X1874794Y2049776D3*
D38*
X1799802Y824905D3*
Y588684D3*
X1984842Y706794D3*
D127*
X3068419Y1962285D3*
D125*
X2968419D3*
X2868419D3*
X2768419D3*
X2668419D3*
X2568419D3*
D41*
X3693700Y1793700D3*
X3593700D3*
X3493700D3*
X3393700D3*
X3293700D3*
X3193700D3*
X3093700D3*
X2993700D3*
X2893700D3*
X2793700D3*
X2693700D3*
X2593700D3*
X2493700D3*
X2393700D3*
D123*
X3693700Y943700D3*
X3593700D3*
X3493700D3*
X3393700D3*
X3293700D3*
X3193700D3*
X3093700D3*
X2993700D3*
X2893700D3*
X2793700D3*
X2693700D3*
X2593700D3*
X2493700D3*
X2393700D3*
D127*
X2218700Y1168700D3*
D125*
X2118700D3*
X2218700Y1268700D3*
X2118700D3*
X2218700Y1368700D3*
X2118700D3*
X2218700Y1468700D3*
X2118700D3*
X2218700Y1568700D3*
X2118700D3*
D42*
X3068700Y518700D3*
X3168700D3*
D119*
X2396771Y2304415D3*
X2353424D3*
X2310157D3*
X2266823Y2304428D3*
X2223516D3*
X2180222D3*
X2136902D3*
X2093621Y2304415D3*
D131*
X2443976Y2299691D3*
D127*
X1997125D3*
D117*
X1999501Y1879035D3*
D115*
X1983372Y1974704D3*
D113*
X2453818Y2000321D3*
D111*
X2441259Y1941266D3*
D48*
X2874015Y1230905D3*
Y1270275D3*
Y1309645D3*
Y1388385D3*
Y1349015D3*
Y1427755D3*
Y1467125D3*
Y1506495D3*
D49*
X2956692Y1191535D3*
Y1545865D3*
D105*
X3187157Y2131018D3*
X2990306Y2280624D3*
X2793456Y2131018D3*
D53*
X1018634Y524936D3*
Y624936D3*
Y724936D3*
X1243611Y524936D3*
Y624936D3*
Y724936D3*
X1468587Y524936D3*
Y624936D3*
Y724936D3*
D127*
X493700Y731700D3*
D125*
Y831700D3*
Y931700D3*
Y1031700D3*
Y1131700D3*
Y1231700D3*
Y1331700D3*
Y1431700D3*
Y1531700D3*
Y1631700D3*
Y1731700D3*
Y1831700D3*
Y1931700D3*
Y2031700D3*
D54*
X2493700Y568700D3*
Y633700D3*
Y703700D3*
Y768700D3*
D127*
X706167Y1368598D3*
D125*
X806167D3*
X706167Y1268598D3*
X806167D3*
X706167Y1168598D3*
X806167D3*
D127*
X693700Y2018700D3*
D125*
X793700D3*
X693700Y1918700D3*
X793700D3*
X693700Y1818700D3*
X793700D3*
D55*
X3693700Y2035039D3*
Y1952361D3*
D57*
X1681102Y1458070D3*
X1606298D3*
X1643700Y1375393D3*
D95*
X1839747Y1386911D3*
X1914550D3*
X1877149Y1477462D3*
D131*
X2231102Y610367D3*
X2156298D3*
X1906102Y1568700D3*
X1831298D3*
X1393595Y1437340D3*
X1468398D3*
X2231102Y843700D3*
X2156298D3*
D133*
X3543700Y1956298D3*
Y2031102D3*
D131*
X2156298Y493700D3*
X2231102D3*
X1906102Y1293923D3*
X1831298D3*
X1456088Y1293606D3*
X1381285D3*
X1906102Y1193829D3*
X1831298D3*
Y1093733D3*
X1906102D3*
X1456088Y1074878D3*
X1381285D3*
X1456088Y1206115D3*
X1381285D3*
X1831298Y993637D3*
X1906102D3*
X2231102Y727033D3*
X2156298D3*
D145*
X1562598Y1743104D3*
Y1821844D3*
Y1900585D3*
Y1979325D3*
Y2058065D3*
Y2136805D3*
Y2215545D3*
Y2294285D3*
D146*
X924802D3*
Y2215545D3*
Y2136805D3*
Y2058065D3*
Y1979325D3*
Y1900585D3*
Y1821844D3*
Y1743104D3*
D61*
X3693700Y1668700D3*
X3593700D3*
X3493700D3*
X3393700D3*
X3293700D3*
X3193700D3*
X3093700D3*
X2993700D3*
X2893700D3*
X2793700D3*
X2693700D3*
X2593700D3*
X2493700D3*
X2393700D3*
Y1568700D3*
Y1468700D3*
Y1368700D3*
Y1268700D3*
Y1168700D3*
Y1068700D3*
X2493700D3*
X2593700D3*
X2693700D3*
X2793700D3*
X2893700D3*
X2993700D3*
X3093700D3*
X3193700D3*
X3293700D3*
X3393700D3*
X3493700D3*
X3593700D3*
X3693700D3*
X3593700Y1168700D3*
D62*
X3671700Y1323700D3*
D61*
X2693700Y1568700D3*
X2593700Y1468700D3*
Y1368700D3*
D62*
X3671700Y1413700D3*
D61*
X2593700Y1568700D3*
X2693700Y1468700D3*
Y1368700D3*
Y1268700D3*
Y1168700D3*
X2593700Y1268700D3*
Y1168700D3*
D63*
X987388Y1487335D3*
D42*
Y1387335D3*
Y1287335D3*
Y1087335D3*
Y1187335D3*
D87*
X1549829Y1212364D3*
Y1186773D3*
Y1161183D3*
Y1135592D3*
X1723057D3*
Y1161183D3*
Y1186773D3*
Y1212364D3*
D85*
X3230755Y728700D3*
D83*
X3152015D3*
X3073275D3*
X2994535D3*
D81*
X2983905Y621613D3*
Y835787D3*
X3259495Y621613D3*
Y835787D3*
G36*
X1841496Y2177728D2*
X1805434D1*
Y2269743D1*
X1841496D1*
Y2177728D1*
G37*
G36*
X1695714Y2269795D2*
X1731620D1*
Y2177728D1*
X1695714D1*
Y2269795D1*
G37*
D147*
X1668566Y2224758D3*
X1868566D3*
D148*
X1768566Y2184758D3*
M02*
