G04 DipTrace 3.3.1.3*
G04 Teensy4.0TouchDisplayLoRa.gbs*
%MOIN*%
G04 #@! TF.FileFunction,Soldermask,Bot*
G04 #@! TF.Part,Single*
%AMOUTLINE0*
4,1,4,
0.0175,-0.025,
0.0175,0.025,
-0.0175,0.025,
-0.0175,-0.025,
0.0175,-0.025,
0*%
%AMOUTLINE1*
4,1,4,
-0.0285,-0.0155,
0.0285,-0.0155,
0.0285,0.0155,
-0.0285,0.0155,
-0.0285,-0.0155,
0*%
%AMOUTLINE2*
4,1,4,
0.0185,-0.026,
0.0185,0.026,
-0.0185,0.026,
-0.0185,-0.026,
0.0185,-0.026,
0*%
%AMOUTLINE6*
4,1,4,
0.03,0.08,
-0.03,0.08,
-0.03,-0.08,
0.03,-0.08,
0.03,0.08,
0*%
%ADD23C,0.04*%
%ADD33C,0.066*%
%ADD38C,0.17*%
%ADD41C,0.07*%
%ADD42C,0.074*%
%ADD53C,0.065199*%
%ADD54C,0.05315*%
%ADD61C,0.06194*%
%ADD62C,0.055*%
%ADD63R,0.074X0.074*%
%ADD77C,0.167*%
%ADD79C,0.042*%
%ADD81C,0.092551*%
%ADD83C,0.064992*%
%ADD85R,0.064992X0.064992*%
%ADD105C,0.078772*%
%ADD109R,0.08074X0.025622*%
%ADD123C,0.072*%
%ADD125C,0.061055*%
%ADD127R,0.061055X0.061055*%
%ADD133R,0.061055X0.053181*%
%ADD141OUTLINE0*%
%ADD142OUTLINE1*%
%ADD143OUTLINE2*%
%ADD147OUTLINE6*%
%FSLAX26Y26*%
G04*
G70*
G90*
G75*
G01*
G04 BotMask*
%LPD*%
D79*
X3599613Y1236707D3*
Y1487335D3*
X3475346Y1999781D3*
X2443485Y893648D3*
X1406094Y2199760D3*
X1043632Y1743558D3*
X2743453Y1318603D3*
X2374742Y687419D3*
X2730955Y737414D3*
Y506188D3*
X2093522Y781159D3*
X2087272Y518687D3*
D77*
X3661417Y511810D3*
X669291D3*
Y2244094D3*
X3661417D3*
D23*
X1268608Y1118624D3*
X793700Y2273700D3*
X1973700Y1233700D3*
X1949787Y1368598D3*
X1281107Y1624821D3*
X1668566Y2099771D3*
X2033700Y993700D3*
X1631070Y1074878D3*
X1433700Y1358697D3*
X2874690Y2212259D3*
X3118414Y1506083D3*
X2987178Y1374847D3*
X2274752Y2212259D3*
X2980928Y1468587D3*
X2353700Y2213700D3*
X2818445Y2043527D3*
X3012175Y1312354D3*
X2149766Y2156015D3*
X2099771Y2106020D3*
X1893700Y1813700D3*
X599928Y937393D3*
X1712312Y1099876D3*
X2213700Y1053700D3*
X1318603Y2074773D3*
X1274857Y2024779D3*
X1973700Y1513700D3*
X1068629Y1631070D3*
X1356099Y1737309D3*
X593700Y1973700D3*
X2293700Y793700D3*
X2374742Y793658D3*
X2849692Y843653D3*
X1424842Y1731060D3*
X2318498Y1906041D3*
X3149661Y1599823D3*
X3093700Y1873700D3*
X1312354Y1287356D3*
X1313700Y1193700D3*
Y1073700D3*
X1773700Y1733700D3*
X2293700Y693700D3*
X2231007Y2162264D3*
X2068524Y1737309D3*
X3024674Y1424842D3*
X3293700Y1973700D3*
D33*
X1768556Y2043527D3*
D133*
X3412039Y562527D3*
Y637330D3*
D33*
X1874794Y2049776D3*
D38*
X1799802Y824905D3*
Y588684D3*
X1984842Y706794D3*
D127*
X3068419Y1962285D3*
D125*
X2968419D3*
X2868419D3*
X2768419D3*
X2668419D3*
X2568419D3*
D41*
X3693700Y1793700D3*
X3593700D3*
X3493700D3*
X3393700D3*
X3293700D3*
X3193700D3*
X3093700D3*
X2993700D3*
X2893700D3*
X2793700D3*
X2693700D3*
X2593700D3*
X2493700D3*
X2393700D3*
D123*
X3693700Y943700D3*
X3593700D3*
X3493700D3*
X3393700D3*
X3293700D3*
X3193700D3*
X3093700D3*
X2993700D3*
X2893700D3*
X2793700D3*
X2693700D3*
X2593700D3*
X2493700D3*
X2393700D3*
D127*
X2218700Y1168700D3*
D125*
X2118700D3*
X2218700Y1268700D3*
X2118700D3*
X2218700Y1368700D3*
X2118700D3*
X2218700Y1468700D3*
X2118700D3*
X2218700Y1568700D3*
X2118700D3*
D42*
X3068700Y518700D3*
X3168700D3*
D105*
X3187157Y2131018D3*
X2990306Y2280624D3*
X2793456Y2131018D3*
D53*
X1018634Y524936D3*
Y624936D3*
Y724936D3*
X1243611Y524936D3*
Y624936D3*
Y724936D3*
X1468587Y524936D3*
Y624936D3*
Y724936D3*
D127*
X493700Y731700D3*
D125*
Y831700D3*
Y931700D3*
Y1031700D3*
Y1131700D3*
Y1231700D3*
Y1331700D3*
Y1431700D3*
Y1531700D3*
Y1631700D3*
Y1731700D3*
Y1831700D3*
Y1931700D3*
Y2031700D3*
D54*
X2493700Y568700D3*
Y633700D3*
Y703700D3*
Y768700D3*
D141*
X2786200Y523700D3*
X2601200D3*
D142*
X2826700Y449200D3*
X2560700D3*
D127*
X706167Y1368598D3*
D125*
X806167D3*
X706167Y1268598D3*
X806167D3*
X706167Y1168598D3*
X806167D3*
D127*
X693700Y2018700D3*
D125*
X793700D3*
X693700Y1918700D3*
X793700D3*
X693700Y1818700D3*
X793700D3*
D143*
X2386200Y523700D3*
X2201200D3*
D142*
X2426700Y449200D3*
X2160700D3*
D61*
X3693700Y1668700D3*
X3593700D3*
X3493700D3*
X3393700D3*
X3293700D3*
X3193700D3*
X3093700D3*
X2993700D3*
X2893700D3*
X2793700D3*
X2693700D3*
X2593700D3*
X2493700D3*
X2393700D3*
Y1568700D3*
Y1468700D3*
Y1368700D3*
Y1268700D3*
Y1168700D3*
Y1068700D3*
X2493700D3*
X2593700D3*
X2693700D3*
X2793700D3*
X2893700D3*
X2993700D3*
X3093700D3*
X3193700D3*
X3293700D3*
X3393700D3*
X3493700D3*
X3593700D3*
X3693700D3*
X3593700Y1168700D3*
D62*
X3671700Y1323700D3*
D61*
X2693700Y1568700D3*
X2593700Y1468700D3*
Y1368700D3*
D62*
X3671700Y1413700D3*
D61*
X2593700Y1568700D3*
X2693700Y1468700D3*
Y1368700D3*
Y1268700D3*
Y1168700D3*
X2593700Y1268700D3*
Y1168700D3*
D63*
X987388Y1487335D3*
D42*
Y1387335D3*
Y1287335D3*
Y1087335D3*
Y1187335D3*
D109*
X3649999Y856151D3*
Y806151D3*
Y756151D3*
Y706151D3*
X3437401D3*
Y756151D3*
Y806151D3*
Y856151D3*
D85*
X3230755Y728700D3*
D83*
X3152015D3*
X3073275D3*
X2994535D3*
D81*
X2983905Y621613D3*
Y835787D3*
X3259495Y621613D3*
Y835787D3*
D147*
X1868566Y2224758D3*
X1668566D3*
M02*
