G04 DipTrace 3.3.1.3*
G04 Teensy4.0TouchDisplayLoRa.gtl*
%MOIN*%
G04 #@! TF.FileFunction,Copper,L1,Top*
G04 #@! TF.Part,Single*
%AMOUTLINE4*
4,1,4,
-0.03937,-0.015748,
0.03937,-0.015748,
0.03937,0.015748,
-0.03937,0.015748,
-0.03937,-0.015748,
0*%
%AMOUTLINE5*
4,1,4,
0.03937,0.015748,
-0.03937,0.015748,
-0.03937,-0.015748,
0.03937,-0.015748,
0.03937,0.015748,
0*%
%AMOUTLINE6*
4,1,4,
0.03,0.08,
-0.03,0.08,
-0.03,-0.08,
0.03,-0.08,
0.03,0.08,
0*%
%AMOUTLINE7*
4,1,4,
0.02,0.04,
-0.02,0.04,
-0.02,-0.04,
0.02,-0.04,
0.02,0.04,
0*%
G04 #@! TA.AperFunction,Conductor*
%ADD13C,0.015*%
%ADD14C,0.008*%
%ADD15C,0.01*%
%ADD16C,0.02*%
%ADD17C,0.03*%
%ADD18C,0.06*%
%ADD19C,0.05*%
%ADD21C,0.031496*%
%ADD22C,0.051181*%
G04 #@! TA.AperFunction,ViaPad*
%ADD23C,0.04*%
G04 #@! TA.AperFunction,Conductor*
%ADD27C,0.025591*%
%ADD28C,0.015748*%
%ADD29C,0.005*%
%ADD30C,0.047244*%
G04 #@! TA.AperFunction,ComponentPad*
%ADD33C,0.066*%
%ADD35R,0.1X0.05*%
%ADD36R,0.059055X0.051181*%
%ADD37R,0.051181X0.059055*%
G04 #@! TA.AperFunction,ComponentPad*
%ADD38C,0.17*%
%ADD39R,0.059055X0.059055*%
%ADD40C,0.059055*%
%ADD41C,0.07*%
%ADD42C,0.074*%
%ADD43R,0.027559X0.068898*%
%ADD44R,0.03937X0.061024*%
%ADD45R,0.031496X0.055118*%
%ADD46R,0.031496X0.059055*%
%ADD47R,0.057087X0.03937*%
%ADD48R,0.07874X0.023622*%
%ADD49R,0.165354X0.027559*%
G04 #@! TA.AperFunction,ComponentPad*
%ADD52C,0.076772*%
%ADD53C,0.065199*%
%ADD54C,0.05315*%
%ADD55R,0.047244X0.047244*%
%ADD57R,0.031496X0.035433*%
%ADD59R,0.025591X0.041339*%
G04 #@! TA.AperFunction,ComponentPad*
%ADD61C,0.06194*%
%ADD62C,0.055*%
%ADD63R,0.074X0.074*%
%ADD64R,0.055118X0.015748*%
G04 #@! TA.AperFunction,ComponentPad*
%ADD65R,0.062992X0.062992*%
%ADD66C,0.062992*%
%ADD67C,0.090551*%
G04 #@! TA.AperFunction,ViaPad*
%ADD69C,0.165*%
%ADD145OUTLINE4*%
%ADD146OUTLINE5*%
%ADD147OUTLINE6*%
%ADD148OUTLINE7*%
%FSLAX26Y26*%
G04*
G70*
G90*
G75*
G01*
G04 Top*
%LPD*%
X3599613Y1236707D2*
D13*
Y1487335D1*
X2493700Y703700D2*
X2443485D1*
Y473700D1*
X2456298D1*
X806167Y1368598D2*
Y1416193D1*
X768661Y1453700D1*
Y1512333D1*
Y1562327D1*
X1218613D1*
X1281107Y1624821D1*
X1687314Y2056025D2*
X1615700D1*
Y2058065D1*
X1562598D1*
X1668566Y2099771D2*
X1687314Y2081023D1*
Y2056025D1*
X3493700Y1068700D2*
X3424886Y999886D1*
X3349640D1*
X3343390Y993637D1*
Y1012385D1*
X2943432D1*
Y893648D1*
X2905936Y856151D1*
Y812406D1*
X2868440Y774910D1*
X2564910D1*
X2493700Y703700D1*
X3543700Y2031102D2*
D14*
X3506666D1*
X3475346Y1999781D1*
X987388Y1487335D2*
D13*
X912396Y1412343D1*
Y1106396D1*
X887128Y1081128D1*
X465128D1*
X441700Y1057700D1*
Y783700D1*
X493700Y731700D1*
X1456088Y1293606D2*
Y1336309D1*
X1433700Y1358697D1*
X793700Y1818700D2*
Y1755700D1*
X780970Y1742970D1*
Y1656067D1*
X3693700Y1068700D2*
X3643776Y1118624D1*
X2760624D1*
X2743453Y1101453D1*
Y1015453D1*
X2721700Y993700D1*
X2033700D1*
X1631070Y1074878D2*
D15*
Y1212364D1*
X1723057D1*
X1433700Y1358697D2*
D13*
X1450396Y1375393D1*
X1643700D1*
X1831298Y1568700D2*
D16*
X1787427D1*
X1737309Y1518582D1*
Y1374847D1*
X1644246D1*
X1643700Y1375393D1*
X2874690Y2212259D2*
D14*
X2415141D1*
X2396771Y2230629D1*
Y2304415D1*
X3118414Y1506083D2*
X3093417D1*
Y1506495D1*
X2874015D1*
X2987178Y1374847D2*
X2973640Y1388385D1*
X2874015D1*
X2274752Y2212259D2*
X2266823Y2220188D1*
Y2304428D1*
X2980928Y1468587D2*
X2979466Y1467125D1*
X2874015D1*
X2353700Y2213700D2*
X2353424Y2304415D1*
X2818445Y2043527D2*
X2237256D1*
X2193511Y2087272D1*
Y2193889D1*
X2180222Y2207178D1*
Y2304428D1*
X3012175Y1312354D2*
X3009466Y1309645D1*
X2874015D1*
X2668419Y1962285D2*
X2712165Y1918540D1*
X3199999D1*
Y1868545D1*
X3443380D1*
Y1268608D1*
X3337141D1*
Y1270275D1*
X2874015D1*
X2149766Y2156015D2*
X2136902Y2168878D1*
Y2304428D1*
X2568419Y1962285D2*
X2611834Y2005700D1*
X3225700D1*
X3241700Y1989700D1*
Y1897616D1*
X3501800D1*
X3543369Y1856046D1*
Y1608943D1*
X3493375D1*
Y1230905D1*
X2874015D1*
X2093621Y2304415D2*
Y2106020D1*
X2099771D1*
X1893700Y1813700D2*
Y1797700D1*
X1897700Y1793700D1*
Y1787700D1*
X1449443D1*
X1356099Y1881044D1*
Y2131018D1*
X1271571Y2215545D1*
X924802D1*
X2593700Y1793700D2*
X2543852Y1843548D1*
X2119548D1*
X2095700Y1819700D1*
X1949700D1*
X1901700Y1867700D1*
X1493700D1*
X1449839Y1911561D1*
Y2243700D1*
X827700D1*
X701588Y2117588D1*
X457700D1*
X441700Y2101588D1*
Y1183700D1*
X493700Y1131700D1*
Y1831700D2*
X577700D1*
X609700Y1863700D1*
X819700D1*
X835700Y1847700D1*
Y1713700D1*
X874585Y1674815D1*
X1162369D1*
X1174868Y1687314D1*
X2315314D1*
X2339700Y1711700D1*
X2450700D1*
X2493700Y1668700D1*
X493700Y1531700D2*
X549325Y1587325D1*
X1129325D1*
X1210700Y1668700D1*
X2393700D1*
X2493700Y943700D2*
X2512228D1*
Y856151D1*
X2325570D1*
X2256827Y924894D1*
X612427D1*
X599928Y937393D1*
X2593700Y943700D2*
Y887629D1*
X2537225Y831154D1*
X2337246D1*
Y521246D1*
X2309700Y493700D1*
X2231102D1*
X2337246Y831154D2*
X2231102Y843700D1*
X1712312Y1099876D2*
Y1135592D1*
X1723057D1*
X2118700Y1168700D2*
X2165700Y1121700D1*
X2546700D1*
X2593700Y1168700D1*
X1906102Y1093733D2*
Y993637D1*
X2213700Y1053700D2*
X2275700D1*
X2305700Y1023700D1*
X2621700D1*
X2637700Y1039700D1*
Y1112700D1*
X2693700Y1168700D1*
X1906102Y993637D2*
X1953700D1*
X2013763Y1053700D1*
X2213700D1*
X1318603Y2074773D2*
X1256571Y2136805D1*
X924802D1*
X1274857Y2024779D2*
X1241571Y2058065D1*
X924802D1*
X2218700Y1268700D2*
X2275700Y1211700D1*
X2636700D1*
X2693700Y1268700D1*
X2118700Y1368700D2*
X2041574Y1291574D1*
Y1151700D1*
X2025574Y1135700D1*
X1847700D1*
X1831298Y1152102D1*
Y1193829D1*
Y1235700D1*
X1791700D1*
X1741700Y1285700D1*
X1605700D1*
X1589700Y1269700D1*
Y1212364D1*
X1549829D1*
X1791700Y1235700D2*
X1775700Y1219700D1*
Y1186773D1*
X1723057D1*
X2693700Y1368700D2*
X2662314D1*
X2612217Y1318603D1*
X2268797D1*
X2218700Y1368700D1*
X2175700Y1411700D1*
X2067700D1*
X1949923Y1293923D1*
X1906102D1*
X2118700Y1468700D2*
X1970700D1*
X1926842Y1424842D1*
X1806052D1*
Y1374847D1*
X1756057Y1324852D1*
X1592852D1*
X1517860Y1249860D1*
X1219860D1*
X1001700Y1031700D1*
X493700D1*
X2693700Y1468700D2*
X2638700Y1413700D1*
X2320700D1*
X2265700Y1468700D1*
X2218700D1*
X2173700Y1513700D1*
X1973700D1*
X1068629Y1631070D2*
X1069700Y1624821D1*
X862401D1*
X849280Y1611700D1*
X643700D1*
X627514Y1627886D1*
Y1715700D1*
X611514Y1731700D1*
X493700D1*
X593700Y1973700D2*
X835700D1*
X862401Y1946999D1*
Y1724810D1*
X887398Y1699813D1*
X1122558D1*
Y1716246D1*
X1143621Y1737309D1*
X1356099D1*
X2118700Y1568700D2*
X2161700Y1611700D1*
X2550700D1*
X2593700Y1568700D1*
X2693700D2*
X2636700Y1511700D1*
X2355700D1*
X2293700Y1573700D1*
X2288700Y1568700D1*
X2218700D1*
X2293700Y793700D2*
X2173700D1*
X2156298Y776298D1*
Y727033D1*
X2849692Y843653D2*
Y812406D1*
X2374742D1*
Y793658D1*
X1424842Y1731060D2*
X1412343D1*
X1242818Y1900585D1*
X924802D1*
X3149661Y1599823D2*
Y1612322D1*
X3062170D1*
X3045700Y1628792D1*
Y1841700D1*
X3012606Y1874794D1*
X2512228D1*
X2499729Y1887293D1*
X2337246D1*
X2318498Y1906041D1*
X3093700Y1873700D2*
Y1893543D1*
X2524726D1*
X2512228Y1906041D1*
X2377359D1*
X2323700Y1959700D1*
X2189700D1*
X2151700Y1921700D1*
X1961700D1*
X1949700Y1909700D1*
X1664907D1*
X1631070Y1943537D1*
X1511863D1*
X1481086Y1974314D1*
Y2136805D1*
X1562598D1*
X2993700Y1793700D2*
X2943700Y1743700D1*
X2247700D1*
X2219700Y1771700D1*
X1421697D1*
X1337351Y1856046D1*
Y1862296D1*
X1220322Y1979325D1*
X924802D1*
X2443485Y893648D2*
X2355994D1*
X2337109Y912532D1*
Y949892D1*
X1749808D1*
X1706062Y993637D1*
X606178D1*
X599928Y999886D1*
X561886D1*
X493700Y931700D1*
X1312354Y1287356D2*
D13*
X1381285D1*
Y1293606D1*
X1468587Y724936D2*
X1243611D1*
X1313700Y1193700D2*
X1326115Y1206115D1*
X1381285D1*
X1313700Y1073700D2*
X1314878Y1074878D1*
X1381285D1*
X1243611Y724936D2*
X1018634D1*
X1468587Y524936D2*
D18*
X1736054D1*
X1799802Y588684D1*
X1866731D1*
X1984842Y706794D1*
X1018634Y524936D2*
X924894D1*
X762754Y687077D1*
D19*
X681130Y768700D1*
X666200D1*
X1268608Y1118624D2*
D15*
Y1137372D1*
X1549829D1*
Y1135592D1*
X1868566Y2224758D2*
D18*
Y2056004D1*
X1874794Y2049776D1*
X793700Y2273700D2*
D21*
X814285Y2294285D1*
X924802D1*
X706167Y1368598D2*
D22*
Y1435700D1*
X693857D1*
Y1512333D1*
X1874794Y2049776D2*
D17*
X1802854Y1977835D1*
X1799466Y1981222D1*
X1687314D1*
X693700Y1818700D2*
D22*
X706167Y1806233D1*
Y1656067D1*
X2493700Y633700D2*
X2593469D1*
Y473700D1*
X2531102D1*
X2156298Y493700D2*
D14*
Y610367D1*
X1668566Y2224758D2*
D13*
Y2324747D1*
X1874794D1*
Y2230986D1*
X1868566Y2224758D1*
X1562598Y1821844D2*
D17*
X1484041D1*
X1406094Y1899792D1*
Y2199760D1*
X924802Y1743104D2*
D16*
Y1743558D1*
X1043632D1*
X2743453Y1318603D2*
D13*
X2762201Y1299855D1*
Y1237361D1*
X2843443Y1156120D1*
X3505873D1*
X3537120Y1187367D1*
Y1193616D1*
X3549619Y1206115D1*
Y1531081D1*
X3655857Y1637319D1*
Y1630857D1*
X3693700Y1668700D1*
X1973700Y1233700D2*
D22*
Y1213829D1*
X1953700Y1193829D1*
X1906102D1*
X1949787Y1368598D2*
D27*
X1931473Y1386911D1*
X1914550D1*
X1549829Y1135592D2*
D28*
Y1117718D1*
D16*
Y1043632D1*
X1581075D1*
X1599823Y1024884D1*
X1774805D1*
Y1012385D1*
X1793553Y993637D1*
X1831298D1*
X2983905Y835787D2*
D14*
X3259495D1*
X3291396Y803886D1*
Y653514D1*
X3259495Y621613D1*
X1997125Y2299691D2*
D29*
Y1988457D1*
X1983372Y1974704D1*
D16*
X2037197D1*
X2068524Y2006031D1*
X2448108D1*
X2453818Y2000321D1*
X1802854Y1977835D2*
X1980241D1*
X1983372Y1974704D1*
X2443976Y2299691D2*
D13*
X2971239D1*
X2990306Y2280624D1*
X3693700Y1952361D2*
D30*
Y1898739D1*
D18*
Y1793700D1*
X2156298Y493700D2*
D16*
Y424947D1*
X1937288D1*
Y451199D1*
X1799802Y588684D1*
X1839747Y1386911D2*
D14*
X1831298D1*
Y1293923D1*
X1549829Y1186773D2*
X1456088D1*
Y1206115D1*
X493700Y1431700D2*
X611700Y1313700D1*
X861700D1*
X878315Y1330315D1*
Y1521700D1*
X894315Y1537700D1*
X1375700D1*
X1393595Y1519805D1*
Y1437340D1*
X1768556Y2043527D2*
Y2119700D1*
X1768566Y2119710D1*
Y2184758D1*
X1773700Y1733700D2*
X1764296Y1743104D1*
X1562598D1*
X3543700Y1956298D2*
X3599876D1*
X3605863Y1962285D1*
Y2024779D1*
X3618361Y2037277D1*
X3691461D1*
X3693700Y2035039D1*
X1606298Y1458070D2*
X1537700D1*
X1516970Y1437340D1*
X1468398D1*
X1456088Y1074878D2*
X1518582D1*
Y1018634D1*
X1231112D1*
Y1161183D1*
X1549829D1*
X2231102Y610367D2*
X2276367D1*
X2293700Y627700D1*
Y693700D1*
Y707033D1*
X2273700Y727033D1*
X2231102D1*
X2374742Y687419D2*
Y706167D1*
X2437275Y768700D1*
X2493700D1*
X1831298Y1093733D2*
X1793700D1*
Y1143700D1*
X1776217Y1161183D1*
X1723057D1*
X1877149Y1477462D2*
X1874794D1*
Y1504721D1*
X1906102Y1536028D1*
Y1568700D1*
Y1618571D1*
X1747571D1*
X1681102Y1552102D1*
Y1458070D1*
X2231007Y2162264D2*
X2223516Y2169755D1*
Y2304428D1*
X2068524Y1737309D2*
X2122902Y1727700D1*
X2749703D1*
Y1399844D1*
X2800532Y1349015D1*
X2874015D1*
X3293700Y1973700D2*
Y2081023D1*
X2374742D1*
X2310157Y2145608D1*
Y2304415D1*
X3024674Y1424842D2*
X3021760Y1427755D1*
X2874015D1*
X2730955Y737414D2*
Y506188D1*
X2093522Y781159D2*
X2087272Y774910D1*
Y518687D1*
X3073275Y728700D2*
Y523275D1*
X3068700Y518700D1*
X3152015Y728700D2*
Y535385D1*
X3168700Y518700D1*
X2793456Y2131018D2*
X3187157D1*
X1018634Y624936D2*
D18*
X1243611D1*
X1468587D2*
X1599834D1*
X1799802Y824905D1*
D22*
X1818598Y843700D1*
X2156298D1*
X841200Y768700D2*
D18*
Y733617D1*
X912396Y662422D1*
X981149D1*
X1018634Y624936D1*
D23*
X3599613Y1236707D3*
Y1487335D3*
X3475346Y1999781D3*
X2443485Y893648D3*
X1406094Y2199760D3*
X1043632Y1743558D3*
X2743453Y1318603D3*
X2374742Y687419D3*
X2730955Y737414D3*
Y506188D3*
X2093522Y781159D3*
X2087272Y518687D3*
D69*
X3661417Y511810D3*
X669291D3*
Y2244094D3*
X3661417D3*
D23*
X1268608Y1118624D3*
X793700Y2273700D3*
X1973700Y1233700D3*
X1949787Y1368598D3*
X1281107Y1624821D3*
X1668566Y2099771D3*
X2033700Y993700D3*
X1631070Y1074878D3*
X1433700Y1358697D3*
X2874690Y2212259D3*
X3118414Y1506083D3*
X2987178Y1374847D3*
X2274752Y2212259D3*
X2980928Y1468587D3*
X2353700Y2213700D3*
X2818445Y2043527D3*
X3012175Y1312354D3*
X2149766Y2156015D3*
X2099771Y2106020D3*
X1893700Y1813700D3*
X599928Y937393D3*
X1712312Y1099876D3*
X2213700Y1053700D3*
X1318603Y2074773D3*
X1274857Y2024779D3*
X1973700Y1513700D3*
X1068629Y1631070D3*
X1356099Y1737309D3*
X593700Y1973700D3*
X2293700Y793700D3*
X2374742Y793658D3*
X2849692Y843653D3*
X1424842Y1731060D3*
X2318498Y1906041D3*
X3149661Y1599823D3*
X3093700Y1873700D3*
X1312354Y1287356D3*
X1313700Y1193700D3*
Y1073700D3*
X1773700Y1733700D3*
X2293700Y693700D3*
X2231007Y2162264D3*
X2068524Y1737309D3*
X3024674Y1424842D3*
X3293700Y1973700D3*
D33*
X1768556Y2043527D3*
D35*
X841200Y768700D3*
X666200D3*
D36*
X1687314Y2056025D3*
Y1981222D3*
D37*
X2456298Y473700D3*
X2531102D3*
X706167Y1656067D3*
X780970D3*
X768661Y1512333D3*
X693857D3*
D33*
X1874794Y2049776D3*
D38*
X1799802Y824905D3*
Y588684D3*
X1984842Y706794D3*
D39*
X3068419Y1962285D3*
D40*
X2968419D3*
X2868419D3*
X2768419D3*
X2668419D3*
X2568419D3*
D41*
X3693700Y1793700D3*
X3593700D3*
X3493700D3*
X3393700D3*
X3293700D3*
X3193700D3*
X3093700D3*
X2993700D3*
X2893700D3*
X2793700D3*
X2693700D3*
X2593700D3*
X2493700D3*
X2393700D3*
X3693700Y943700D3*
X3593700D3*
X3493700D3*
X3393700D3*
X3293700D3*
X3193700D3*
X3093700D3*
X2993700D3*
X2893700D3*
X2793700D3*
X2693700D3*
X2593700D3*
X2493700D3*
X2393700D3*
D39*
X2218700Y1168700D3*
D40*
X2118700D3*
X2218700Y1268700D3*
X2118700D3*
X2218700Y1368700D3*
X2118700D3*
X2218700Y1468700D3*
X2118700D3*
X2218700Y1568700D3*
X2118700D3*
D42*
X3068700Y518700D3*
X3168700D3*
D43*
X2396771Y2304415D3*
X2353424D3*
X2310157D3*
X2266823Y2304428D3*
X2223516D3*
X2180222D3*
X2136902D3*
X2093621Y2304415D3*
D37*
X2443976Y2299691D3*
D39*
X1997125D3*
D44*
X1999501Y1879035D3*
D45*
X1983372Y1974704D3*
D46*
X2453818Y2000321D3*
D47*
X2441259Y1941266D3*
D48*
X2874015Y1230905D3*
Y1270275D3*
Y1309645D3*
Y1388385D3*
Y1349015D3*
Y1427755D3*
Y1467125D3*
Y1506495D3*
D49*
X2956692Y1191535D3*
Y1545865D3*
D52*
X3187157Y2131018D3*
X2990306Y2280624D3*
X2793456Y2131018D3*
D53*
X1018634Y524936D3*
Y624936D3*
Y724936D3*
X1243611Y524936D3*
Y624936D3*
Y724936D3*
X1468587Y524936D3*
Y624936D3*
Y724936D3*
D39*
X493700Y731700D3*
D40*
Y831700D3*
Y931700D3*
Y1031700D3*
Y1131700D3*
Y1231700D3*
Y1331700D3*
Y1431700D3*
Y1531700D3*
Y1631700D3*
Y1731700D3*
Y1831700D3*
Y1931700D3*
Y2031700D3*
D54*
X2493700Y568700D3*
Y633700D3*
Y703700D3*
Y768700D3*
D39*
X706167Y1368598D3*
D40*
X806167D3*
X706167Y1268598D3*
X806167D3*
X706167Y1168598D3*
X806167D3*
D39*
X693700Y2018700D3*
D40*
X793700D3*
X693700Y1918700D3*
X793700D3*
X693700Y1818700D3*
X793700D3*
D55*
X3693700Y2035039D3*
Y1952361D3*
D57*
X1681102Y1458070D3*
X1606298D3*
X1643700Y1375393D3*
D59*
X1839747Y1386911D3*
X1914550D3*
X1877149Y1477462D3*
D37*
X2231102Y610367D3*
X2156298D3*
X1906102Y1568700D3*
X1831298D3*
X1393595Y1437340D3*
X1468398D3*
X2231102Y843700D3*
X2156298D3*
D36*
X3543700Y1956298D3*
Y2031102D3*
D37*
X2156298Y493700D3*
X2231102D3*
X1906102Y1293923D3*
X1831298D3*
X1456088Y1293606D3*
X1381285D3*
X1906102Y1193829D3*
X1831298D3*
Y1093733D3*
X1906102D3*
X1456088Y1074878D3*
X1381285D3*
X1456088Y1206115D3*
X1381285D3*
X1831298Y993637D3*
X1906102D3*
X2231102Y727033D3*
X2156298D3*
D145*
X1562598Y1743104D3*
Y1821844D3*
Y1900585D3*
Y1979325D3*
Y2058065D3*
Y2136805D3*
Y2215545D3*
Y2294285D3*
D146*
X924802D3*
Y2215545D3*
Y2136805D3*
Y2058065D3*
Y1979325D3*
Y1900585D3*
Y1821844D3*
Y1743104D3*
D61*
X3693700Y1668700D3*
X3593700D3*
X3493700D3*
X3393700D3*
X3293700D3*
X3193700D3*
X3093700D3*
X2993700D3*
X2893700D3*
X2793700D3*
X2693700D3*
X2593700D3*
X2493700D3*
X2393700D3*
Y1568700D3*
Y1468700D3*
Y1368700D3*
Y1268700D3*
Y1168700D3*
Y1068700D3*
X2493700D3*
X2593700D3*
X2693700D3*
X2793700D3*
X2893700D3*
X2993700D3*
X3093700D3*
X3193700D3*
X3293700D3*
X3393700D3*
X3493700D3*
X3593700D3*
X3693700D3*
X3593700Y1168700D3*
D62*
X3671700Y1323700D3*
D61*
X2693700Y1568700D3*
X2593700Y1468700D3*
Y1368700D3*
D62*
X3671700Y1413700D3*
D61*
X2593700Y1568700D3*
X2693700Y1468700D3*
Y1368700D3*
Y1268700D3*
Y1168700D3*
X2593700Y1268700D3*
Y1168700D3*
D63*
X987388Y1487335D3*
D42*
Y1387335D3*
Y1287335D3*
Y1087335D3*
Y1187335D3*
D64*
X1549829Y1212364D3*
Y1186773D3*
Y1161183D3*
Y1135592D3*
X1723057D3*
Y1161183D3*
Y1186773D3*
Y1212364D3*
D65*
X3230755Y728700D3*
D66*
X3152015D3*
X3073275D3*
X2994535D3*
D67*
X2983905Y621613D3*
Y835787D3*
X3259495Y621613D3*
Y835787D3*
D147*
X1668566Y2224758D3*
X1868566D3*
D148*
X1768566Y2184758D3*
M02*
