M48
INCH
T01C0.0191
T02C0.03
T03C0.0315
T04C0.0354
T05C0.0362
T06C0.038
T07C0.0394
T08C0.04
T09C0.0512
T10C0.0531
T11C0.118
T12C0.125
%
T01
X+012686Y+011186
X+013137Y+010737
X+013137Y+011937
X+013124Y+012874
X+014337Y+013587
X+012811Y+016248
X+013561Y+017373
X+014248Y+017311
X+012749Y+020248
X+013186Y+020748
X+014061Y+021998
X+016686Y+020998
X+018937Y+018137
X+017737Y+017337
X+020685Y+017373
X+019737Y+015137
X+019498Y+013686
X+019737Y+012337
X+020337Y+009937
X+022137Y+010537
X+022937Y+007937
X+023747Y+007937
X+023747Y+006874
X+022937Y+006937
X+020935Y+007812
X+020873Y+005187
X+024435Y+008936
X+027310Y+007374
X+028497Y+008437
X+027310Y+005062
X+027435Y+013186
X+029872Y+013748
X+030247Y+014248
X+029809Y+014686
X+031184Y+015061
X+031497Y+015998
X+030937Y+018737
X+032937Y+019737
X+034753Y+019998
X+035996Y+014873
X+035996Y+012367
X+030122Y+013124
X+028184Y+020435
X+028747Y+022123
X+023537Y+022137
X+022748Y+022123
X+022310Y+021623
X+021498Y+021560
X+020998Y+021060
X+023185Y+019060
X+017123Y+010999
X+016311Y+010749
X+010686Y+016311
X+010436Y+017436
X+005937Y+019737
X+007937Y+022737
X+005999Y+009374
T02
X+036717Y+013237
X+036717Y+014137
T03
X+024937Y+005687
X+024937Y+006337
X+024937Y+007037
X+024937Y+007687
T04
X+030684Y+019623
X+029684Y+019623
X+028684Y+019623
X+027684Y+019623
X+026684Y+019623
X+025684Y+019623
X+022187Y+015687
X+021187Y+015687
X+021187Y+014687
X+021187Y+013687
X+022187Y+013687
X+022187Y+014687
X+022187Y+012687
X+021187Y+012687
X+021187Y+011687
X+022187Y+011687
X+008062Y+011686
X+008062Y+012686
X+008062Y+013686
X+007062Y+013686
X+007062Y+012686
X+007062Y+011686
X+004937Y+011317
X+004937Y+010317
X+004937Y+009317
X+004937Y+008317
X+004937Y+007317
X+004937Y+012317
X+004937Y+013317
X+004937Y+014317
X+004937Y+015317
X+004937Y+016317
X+004937Y+017317
X+004937Y+018317
X+004937Y+019317
X+004937Y+020317
X+006937Y+020187
X+007937Y+020187
X+007937Y+019187
X+006937Y+019187
X+006937Y+018187
X+007937Y+018187
T05
X+032308Y+007287
X+031520Y+007287
X+030733Y+007287
X+029945Y+007287
T06
X+036937Y+016687
X+035937Y+016687
X+034937Y+016687
X+033937Y+016687
X+032937Y+016687
X+031937Y+016687
X+030937Y+016687
X+029937Y+016687
X+028937Y+016687
X+027937Y+016687
X+026937Y+016687
X+025937Y+016687
X+025937Y+015687
X+026937Y+015687
X+026937Y+014687
X+025937Y+014687
X+025937Y+013687
X+026937Y+013687
X+026937Y+012687
X+025937Y+012687
X+025937Y+011687
X+025937Y+010687
X+026937Y+010687
X+027937Y+010687
X+028937Y+010687
X+029937Y+010687
X+030937Y+010687
X+031937Y+010687
X+032937Y+010687
X+033937Y+010687
X+034937Y+010687
X+035937Y+010687
X+036937Y+010687
X+035937Y+011687
X+026937Y+011687
X+024937Y+010687
X+023937Y+010687
X+023937Y+011687
X+023937Y+012687
X+023937Y+013687
X+023937Y+014687
X+023937Y+015687
X+023937Y+016687
X+024937Y+016687
T07
X+017686Y+020435
X+018748Y+020498
T08
X+036937Y+017937
X+035937Y+017937
X+034937Y+017937
X+033937Y+017937
X+032937Y+017937
X+031937Y+017937
X+030937Y+017937
X+029937Y+017937
X+028937Y+017937
X+027937Y+017937
X+026937Y+017937
X+025937Y+017937
X+024937Y+017937
X+023937Y+017937
X+023937Y+009437
X+024937Y+009437
X+025937Y+009437
X+026937Y+009437
X+027937Y+009437
X+028937Y+009437
X+029937Y+009437
X+030937Y+009437
X+031937Y+009437
X+032937Y+009437
X+033937Y+009437
X+034937Y+009437
X+035937Y+009437
X+036937Y+009437
X+031687Y+005187
X+030687Y+005187
X+014686Y+005249
X+014686Y+006249
X+014686Y+007249
X+012436Y+007249
X+012436Y+006249
X+012436Y+005249
X+010186Y+005249
X+010186Y+006249
X+010186Y+007249
X+009874Y+010873
X+009874Y+011873
X+009874Y+012873
X+009874Y+013873
X+009874Y+014873
T09
X+031872Y+021310
X+029903Y+022806
X+027935Y+021310
T10
X+029839Y+006216
X+029839Y+008358
X+032595Y+008358
X+032595Y+006216
T11
X+017998Y+008249
X+019848Y+007068
X+017998Y+005887
T12
X+036614Y+005118
X+036614Y+022441
X+006693Y+022441
X+006693Y+005118
T00
M30
