G04 DipTrace 3.3.1.3*
G04 T4LSSArduinoShield.gbl*
%MOIN*%
G04 #@! TF.FileFunction,Copper,L2,Bot*
G04 #@! TF.Part,Single*
G04 #@! TA.AperFunction,Conductor*
%ADD13C,0.02*%
%ADD14C,0.015*%
G04 #@! TA.AperFunction,ViaPad*
%ADD15C,0.04*%
G04 #@! TA.AperFunction,CopperBalancing*
%ADD17C,0.025*%
G04 #@! TA.AperFunction,Conductor*
%ADD18C,0.022*%
%ADD20C,0.03*%
%ADD21C,0.008*%
%ADD22C,0.059055*%
%ADD23C,0.06*%
%ADD24C,0.08*%
G04 #@! TA.AperFunction,CopperBalancing*
%ADD25C,0.013*%
G04 #@! TA.AperFunction,ComponentPad*
%ADD27C,0.074*%
%ADD28R,0.074X0.074*%
%ADD30R,0.059055X0.059055*%
%ADD31C,0.059055*%
%ADD33R,0.062992X0.062992*%
%ADD34C,0.062992*%
%ADD35C,0.137795*%
%ADD36R,0.06378X0.06378*%
%ADD37C,0.06378*%
%ADD38O,0.07874X0.19685*%
%ADD39O,0.07874X0.177165*%
%ADD40O,0.177165X0.07874*%
%ADD41C,0.070866*%
%ADD42R,0.070866X0.070866*%
%ADD44R,0.05X0.025*%
G04 #@! TA.AperFunction,ComponentPad*
%ADD47C,0.065199*%
%ADD51R,0.025X0.05*%
G04 #@! TA.AperFunction,ComponentPad*
%ADD53C,0.06194*%
%ADD54C,0.074*%
G04 #@! TA.AperFunction,ViaPad*
%ADD56C,0.14*%
%FSLAX26Y26*%
G04*
G70*
G90*
G75*
G01*
G04 Bottom*
%LPD*%
X2333700Y2447700D2*
D13*
Y2491700D1*
X2182720Y2642680D1*
X1876539D1*
X1822834Y2588976D1*
X2391700Y1068700D2*
X2263700D1*
X2242700Y1089700D1*
X1952700D1*
X1056834Y2668869D2*
X835228D1*
X1893700Y1183700D2*
X1904700D1*
Y1637700D1*
X1897700Y1644700D1*
Y1661700D1*
X1822834Y2588976D2*
Y2568696D1*
X1922830Y2468700D1*
X1953700Y968700D2*
X2053700D1*
X2153700D1*
X1722834Y2588976D2*
D15*
X1843010Y2468800D1*
X1828805Y2454595D1*
X1899700Y2383700D1*
X2037830D1*
X2122830Y2468700D1*
X898700Y1587700D2*
Y1589700D1*
X857700Y1630700D1*
X792672D1*
X790672Y1632700D1*
X774700D1*
X493700Y1671188D2*
Y1783700D1*
X2333700Y968700D2*
X2433700D1*
X2533700D1*
X931700Y1728700D2*
D17*
Y1633700D1*
X860700D1*
X857700Y1630700D1*
X2333700Y968700D2*
D15*
X2269700D1*
X2206700Y1031700D1*
X1924700D1*
X1881700Y988700D1*
Y802700D1*
X1546700D1*
X1525700Y781700D1*
X1295700D2*
D20*
Y840700D1*
X1268700Y867700D1*
Y931102D1*
X1206700D1*
X493700Y1671188D2*
D13*
X490188D1*
X460700Y1641700D1*
Y1289700D1*
X476700Y1305700D1*
Y1290700D1*
X518700D1*
X544700Y1264700D1*
Y1152700D1*
X666700Y1030700D1*
Y1043700D1*
X674700Y1035700D1*
X2533700Y968700D2*
D18*
X2543700D1*
Y1244700D1*
X2438700Y1349700D1*
X2324700D1*
X2137700Y1536700D1*
Y1630700D1*
X2143700D1*
Y1830700D1*
X2127700Y1846700D1*
X1971700D1*
X1879700Y1938700D1*
Y1893700D1*
X1806700Y1966700D1*
X922834Y688976D2*
D21*
X853700Y729700D1*
X793700Y750869D1*
X766724Y723893D1*
Y640228D1*
X750724Y624228D1*
X709700D1*
X693700Y608228D1*
Y518700D1*
X793700Y750869D2*
X765700D1*
Y1183700D1*
X793700D1*
Y518700D2*
X883228Y608228D1*
X942086D1*
X1022834Y688976D1*
X1007754D1*
X975392Y721338D1*
X784700Y786679D1*
Y1129014D1*
X895329Y1180899D1*
X893700Y1183700D1*
Y518700D2*
X967228Y592228D1*
X1026086D1*
X1122834Y688976D1*
X1102100D1*
X1078700Y721700D1*
X803700Y812700D1*
X807764Y1116943D1*
X960020Y1148414D1*
X986700Y1193700D1*
X993700Y1183700D1*
Y518700D2*
X1051228Y576228D1*
X1110086D1*
X1222834Y688976D1*
X1198424D1*
X1134700Y752700D1*
X1054385D1*
X827483Y850700D1*
Y1101944D1*
X1054438Y1137247D1*
X1083700Y1193700D1*
X1093700Y1183700D1*
Y518700D2*
X1135228Y560228D1*
X1194086D1*
X1322834Y688976D1*
X1314424D1*
X1175700Y827700D1*
X1034700Y809700D1*
X873700Y880700D1*
Y1034700D1*
X914578Y1075578D1*
X1066578D1*
X1147700Y1123700D1*
X1193700Y1185700D1*
Y1183700D1*
X1893700Y518700D2*
X1935228Y477172D1*
X2319228D1*
X2336700Y494645D1*
Y761700D1*
Y1121700D2*
Y1129700D1*
X1993700D1*
Y1183700D1*
X2793700Y2023767D2*
Y1783700D1*
X2068700Y1890700D2*
X2156700D1*
X2193700Y1853700D1*
Y1783700D1*
X515700Y1438700D2*
X620700D1*
Y1403700D1*
X515700Y1528700D2*
X576700Y1589700D1*
X630700D1*
Y1541700D1*
X1949700Y1934700D2*
D14*
X1947700Y1936700D1*
Y1967700D1*
X722834Y688976D2*
Y757948D1*
X741700Y776814D1*
Y1225703D1*
X750697Y1234700D1*
X951700D1*
X995700Y1278700D1*
Y1350700D1*
X1076700Y1431700D1*
X1494700D1*
X1550700Y1487700D1*
X1652700D1*
X1702700Y1537700D1*
Y1571700D1*
X693700Y1183700D2*
D21*
X709700Y1167700D1*
Y855002D1*
X640137D1*
Y565137D1*
X593700Y518700D1*
X2336700Y1399700D2*
D14*
X2334700D1*
X2241700Y1492700D1*
Y1967700D1*
X2247700D1*
X1343700Y1137700D2*
X1326700D1*
X1284700Y1095700D1*
X1231700D1*
X1112700Y976700D1*
X911700D1*
X1782834Y688976D2*
Y639545D1*
X1519199D1*
X1524700Y529700D1*
X1543700Y510700D1*
Y518700D1*
X1593700Y1184700D2*
Y1183700D1*
X1775700Y913700D2*
X1727700D1*
Y1115700D1*
X1742700Y1130700D1*
Y1259700D1*
X1669700D1*
X1593700Y1183700D1*
X1751700Y851700D2*
Y889700D1*
X1775700Y913700D1*
X1643700Y518700D2*
D21*
Y560228D1*
X1680172Y596700D1*
X1700700D1*
X1586700Y872700D2*
X1607700Y893700D1*
Y1111700D1*
X1679700Y1183700D1*
X1693700D1*
X1700700Y596700D2*
X1790558D1*
X1882834Y688976D1*
X1982834D2*
X1854086Y560228D1*
X1785228D1*
X1743700Y518700D1*
X2129700Y1279700D2*
X2088700D1*
X2041700Y1326700D1*
Y1570700D1*
X1957700Y1654700D1*
X1222834Y2588976D2*
X1335228Y2701369D1*
Y2833310D1*
X1351228Y2849310D1*
X1438090D1*
X1493700Y2793700D1*
Y2722700D1*
X1260700Y2489700D1*
Y2035700D1*
X1507700D1*
X1693700Y1849700D1*
Y1783700D1*
X1393700Y2793700D2*
X1376700Y2776700D1*
Y2634700D1*
X1271086Y2529086D1*
X1223700D1*
Y1900672D1*
X1241672Y1882700D1*
X1524700D1*
X1593700Y1813700D1*
Y1783700D1*
X1223700Y2529086D2*
X1182724D1*
X1122834Y2588976D1*
X1022834D2*
Y2558566D1*
X1146149Y2435251D1*
X1152672D1*
X1184700Y2403224D1*
Y1875700D1*
X1214700Y1845700D1*
X1431700D1*
X1493700Y1783700D1*
Y1539700D1*
X1455700Y1501700D1*
X1456700D1*
X922834Y2588976D2*
X933424D1*
X1131409Y2390991D1*
X1136672D1*
X1167700Y2359964D1*
Y1863700D1*
X1203700Y1827700D1*
X1349700D1*
X1393700Y1783700D1*
Y1553700D1*
X1402700D1*
X822834Y2588976D2*
X866728Y2632869D1*
X1062944D1*
X1078944Y2616869D1*
Y2565952D1*
X1203700Y2441196D1*
Y1890700D1*
X1229700Y1864700D1*
X1495700D1*
X1536700Y1823700D1*
Y1600700D1*
X2617700Y2128700D2*
Y1923700D1*
X2549700Y1855700D1*
Y1727700D1*
X2364700Y1542700D1*
X2357700D1*
X1078944Y2616869D2*
Y2625491D1*
X1093700Y2640247D1*
Y2793700D1*
X1536700Y1600700D2*
Y1515700D1*
X1478700Y1457700D1*
X1327700D1*
X1301700Y1483700D1*
X1323700D1*
X1360700D1*
Y1716700D1*
X1293700Y1783700D1*
X1323700Y1483700D2*
Y1468700D1*
X1323456Y1303747D2*
X1226747D1*
X1148567Y1225567D1*
Y1168796D1*
X1086700Y1121700D1*
X855700Y1081700D1*
X853620Y864700D1*
X1063700Y777700D1*
X1118700Y791700D1*
X1190700Y754700D1*
X1991700Y605700D2*
X2223700D1*
X2230700Y598700D1*
Y762700D1*
X2268700Y800700D1*
X2371700D1*
X2382700Y789700D1*
Y689109D1*
X2382834Y688976D1*
X993700Y2793700D2*
X902869Y2702869D1*
X738834D1*
X722834Y2686869D1*
Y2588976D1*
X776550Y2535259D1*
X935141D1*
X1068700Y2401700D1*
X1066468D1*
X1147700Y2320468D1*
Y1783700D1*
X1193700D1*
X1323700Y1537700D2*
Y1569700D1*
X1183700Y1709700D1*
Y1773700D1*
X1193700Y1783700D1*
X2669700Y2108700D2*
Y1851700D1*
X2644700Y1826700D1*
Y1751700D1*
X2390700Y1497700D1*
Y1423700D1*
X2395700D1*
X2398700Y1426700D1*
X743700Y2793700D2*
Y2751247D1*
X678944Y2686491D1*
Y2292566D1*
X694944Y2276566D1*
X1077228D1*
X1093228Y2260566D1*
Y1978078D1*
X993700Y1878550D1*
Y1783700D1*
X605700Y2373700D2*
X643700Y2411700D1*
Y2793700D1*
X1672700Y2824700D2*
Y2841700D1*
X2304313D1*
Y2760087D1*
X2335700Y2728700D1*
X604700Y2440700D2*
Y2718700D1*
X607700Y2721700D1*
Y2729700D1*
X543700Y2793700D1*
X2495700Y1026700D2*
X2493700Y1028700D1*
Y1183700D1*
X2729700Y786700D2*
X2543700Y600700D1*
Y518700D1*
X2785590Y960665D2*
Y991810D1*
X2593700Y1183700D1*
X2093700Y1783700D2*
D14*
X2065700D1*
X1987700Y1705700D1*
X1886700D1*
X1848700Y1667700D1*
Y1589334D1*
X1875700Y1555700D1*
X1844700Y1241700D1*
Y1158443D1*
X1781700Y1082700D1*
X1777700Y983700D1*
X1775700D1*
X1293700Y1183700D2*
D21*
X1346672Y1236672D1*
X1420670D1*
X1436670Y1220672D1*
Y1138670D1*
X1385700Y1087700D1*
Y805700D1*
X1399700Y791700D1*
Y688976D1*
X1422834D1*
X1436670Y1220672D2*
Y1291697D1*
X1468672Y1323700D1*
X1422834Y688976D2*
Y629086D1*
X1385228Y591480D1*
Y477172D1*
X1235228D1*
X1193700Y518700D1*
X1393700Y1183700D2*
Y1132700D1*
X1327700Y1066700D1*
Y813700D1*
X1368672Y772728D1*
Y604716D1*
X1343700Y579743D1*
Y518700D1*
X1591700Y1393700D2*
X1536672Y1338672D1*
Y1318293D1*
X1493700Y1275321D1*
Y1183700D1*
X1470700D1*
Y1132700D1*
X1428700Y1090700D1*
Y766700D1*
X1487700Y707700D1*
Y562700D1*
X1443700Y518700D1*
X1953700Y868700D2*
D15*
X2053700D1*
X2153700D1*
Y718109D1*
X2182834Y688976D1*
X2153700Y868700D2*
X2333700D1*
X2433700D1*
X2533700D1*
X2535700Y2035700D2*
Y1935700D1*
X2139700Y2214700D2*
Y2091453D1*
Y1975700D1*
X2147700Y1967700D1*
X2139700Y2091453D2*
X2306700D1*
Y2058700D1*
X2344700Y2020700D1*
Y1869700D1*
X2511700D1*
Y1911700D1*
X2535700Y1935700D1*
X1522834Y2588976D2*
X1578968D1*
X1622834D1*
X1522834D2*
X1565700D1*
Y2395659D1*
X1543700D1*
Y2082700D1*
X1703700Y1922700D1*
X1771700D1*
X1843700Y1850700D1*
Y1833700D1*
X1893700Y1783700D1*
X1736700Y2374700D2*
X1533700D1*
Y2405659D1*
X1543700Y2395659D1*
X593700Y1783700D2*
Y1831700D1*
X647700Y1885700D1*
X755716D1*
X805054Y1935039D1*
X1043700Y1308700D2*
X1143700D1*
X1337700Y2405700D2*
X1555659D1*
X1565700Y2395659D1*
X593700Y1783700D2*
D20*
Y1813700D1*
X539700Y1867700D1*
X421700D1*
Y1208700D1*
X468700D1*
X493700Y1183700D1*
X421700Y1867700D2*
D17*
Y2512112D1*
X415850D1*
Y2822850D1*
X474700Y2881700D1*
X2681700D1*
X2865700Y2697700D1*
Y2711700D1*
X2888700Y2688700D1*
Y2230033D1*
X2848644Y2189977D1*
D15*
X2857700Y2180920D1*
Y1327700D1*
Y941700D1*
X2814700Y898700D1*
X2592700D1*
X2533700D1*
Y868700D1*
X493700Y1183700D2*
D13*
X478700D1*
Y1103700D1*
X609700Y972700D1*
Y578392D1*
X443700D1*
Y444700D1*
X2426700D1*
X2461700Y479700D1*
Y565700D1*
X2513700Y617700D1*
Y621700D1*
X2592700Y700700D1*
Y898700D1*
X1780165Y1376700D2*
D17*
X1755700D1*
X1713281Y1419119D1*
X1688700Y1443700D1*
X1622700D1*
X1612700Y1453700D1*
X1569700D1*
X1516700Y1400700D1*
X1205700D1*
X1182700Y1377700D1*
Y1347700D1*
X1143700Y1308700D1*
X1953700Y868700D2*
D13*
Y755700D1*
X1557700D1*
X1516207Y726193D1*
X1458700Y783700D1*
Y1021700D1*
X1543700Y1106700D1*
Y1240700D1*
X1638700Y1335700D1*
Y1344537D1*
X1713281Y1419119D1*
X2603700Y1327700D2*
D15*
X2857700D1*
X2565810Y2539613D2*
Y2464810D1*
X2683920Y2346700D1*
Y2326920D1*
X2548700Y2191700D1*
Y2048700D1*
X2535700Y2035700D1*
X1578968Y2588976D2*
Y2688968D1*
X1605700Y2715700D1*
X2224700D1*
X2399700Y2540700D1*
X2564724D1*
X2565810Y2539613D1*
X2022830Y2468700D2*
D21*
Y2525090D1*
X2022834Y2525094D1*
Y2588976D1*
X1680700Y1113700D2*
D14*
X1674700Y1104165D1*
X1658700Y1022440D1*
X2210787Y1327700D2*
X2249700D1*
X2293700Y1283700D1*
X1416700Y1358700D2*
D21*
Y1319700D1*
X1364700Y1267700D1*
X1280700D1*
X1247700Y1234700D1*
Y1172700D1*
X1096700Y1021700D1*
X912700D1*
X924700Y1033700D1*
X1775700Y948700D2*
D14*
X1841700D1*
Y1026700D1*
X1863700Y1048700D1*
Y1071700D1*
X1867700Y1075700D1*
X1873700D1*
X1946700Y1148700D1*
Y1161700D1*
X1944700Y1159700D1*
Y1249700D1*
X1957700Y1262700D1*
X1997700D1*
X911747Y2154330D2*
D21*
X975243D1*
Y2134700D1*
X991243Y2118700D1*
X1031700D1*
X943700Y1308700D2*
X900700Y1265700D1*
X682165D1*
X656133Y1291731D1*
Y1403700D1*
X1031700Y2118700D2*
Y2028409D1*
X943700Y1940409D1*
Y1767700D1*
X957700Y1753700D1*
X962700D1*
X980700Y1735700D1*
Y1397700D1*
X937700Y1354700D1*
Y1308700D1*
X943700D1*
X1031700Y2218700D2*
X998428D1*
X984058Y2233070D1*
X911747D1*
X861700Y2183023D1*
Y2026700D1*
X909700Y1978700D1*
Y1847700D1*
X837172Y1842733D1*
Y1754172D1*
X738672Y1655672D1*
Y1586700D1*
X754700Y1570672D1*
Y1534700D1*
Y1514700D1*
X843700Y1425700D1*
Y1308700D1*
X754700Y1534700D2*
X666133D1*
Y1541700D1*
X2435700Y2035700D2*
D22*
Y1935700D1*
X2039700Y2214700D2*
D23*
X2047700D1*
Y1967700D1*
X1736700Y2274700D2*
X1845700D1*
X1867700Y2296700D1*
X2039700D1*
Y2284625D1*
Y2214700D1*
X2447700Y2346700D2*
D24*
X2435700D1*
Y2035700D1*
X2039700Y2284625D2*
X2057625D1*
X2136700Y2363700D1*
X2430700D1*
X2447700Y2346700D1*
X1636672Y1542523D2*
D13*
X1644700D1*
Y1850700D1*
X1503700Y1991700D1*
X1268700D1*
Y1935700D1*
X1272700Y1931700D1*
X1050672Y1622511D2*
D17*
X1043700D1*
D18*
Y1848700D1*
D17*
X1121700Y1926700D1*
Y2303023D1*
X1093228Y2331495D1*
X911747D1*
D15*
X931700Y1728700D3*
X1525700Y781700D3*
X1295700D3*
X1206700Y931102D3*
X1806700Y1966700D3*
X1702700Y1571700D3*
X911700Y976700D3*
X1751700Y851700D3*
X2129700Y1279700D3*
X1957700Y1654700D3*
X1190700Y754700D3*
X1991700Y605700D3*
X1323700Y1537700D3*
X2669700Y2108700D3*
X2398700Y1426700D3*
X1672700Y2824700D3*
X2335700Y2728700D3*
X604700Y2440700D3*
X1337700Y2405700D3*
X1780165Y1376700D3*
X1680700Y1113700D3*
X1416700Y1358700D3*
X924700Y1033700D3*
X1997700Y1262700D3*
D56*
X2795275Y688976D3*
X511810D3*
Y2618109D3*
X2795275D3*
D15*
X835228Y2668869D3*
X1056834D3*
X1897700Y1661700D3*
X2391700Y1068700D3*
X1952700Y1089700D3*
X2333700Y2447700D3*
X774700Y1632700D3*
X493700Y1671188D3*
X674700Y1035700D3*
X898700Y1587700D3*
X2336700Y761700D3*
Y1121700D3*
X2068700Y1890700D3*
X1343700Y1137700D3*
X2336700Y1399700D3*
X1586700Y872700D3*
X1700700Y596700D3*
X1456700Y1501700D3*
X1402700Y1553700D3*
X2357700Y1542700D3*
X2617700Y2128700D3*
X1536700Y1600700D3*
X605700Y2373700D3*
X1468672Y1323700D3*
X1591700Y1393700D3*
X1636672Y1542523D3*
X1050672Y1622511D3*
X2793700Y2023767D3*
X1323700Y1468700D3*
X1323456Y1303747D3*
X2495700Y1026700D3*
X2729700Y786700D3*
X2785590Y960665D3*
X443718Y2841016D2*
D17*
X513106D1*
X574300D2*
X613115D1*
X674310D2*
X713124D1*
X901241D2*
X963094D1*
X1024288D2*
X1063103D1*
X1124297D2*
X1163112D1*
X1224307D2*
X1263121D1*
X2336322D2*
X2363115D1*
X2424310D2*
X2463124D1*
X2651241D2*
X2863377D1*
X443718Y2816148D2*
X490965D1*
X901241D2*
X940953D1*
X2651241D2*
X2863377D1*
X443718Y2791279D2*
X486229D1*
X901241D2*
X936216D1*
X2651241D2*
X2863377D1*
X443718Y2766410D2*
X493405D1*
X901241D2*
X922186D1*
X1651221D2*
X1693409D1*
X2651241D2*
X2863377D1*
X443718Y2741541D2*
X523656D1*
X1651221D2*
X1723659D1*
X1763718D2*
X1823668D1*
X1863727D2*
X1923677D1*
X1963736D2*
X2023651D1*
X2063745D2*
X2123660D1*
X2163719D2*
X2186170D1*
X2413724D2*
X2473674D1*
X2513733D2*
X2536185D1*
X2651241D2*
X2863377D1*
X443718Y2716672D2*
X572709D1*
X1525088D2*
X2289301D1*
X2382074D2*
X2863377D1*
X1507038Y2691804D2*
X2306562D1*
X2364814D2*
X2732040D1*
X1482170Y2666935D2*
X1848105D1*
X2211158D2*
X2710689D1*
X1457303Y2642066D2*
X1498557D1*
X1547121D2*
X1598531D1*
X1647130D2*
X1698540D1*
X1747139D2*
X1798549D1*
X2236025D2*
X2700319D1*
X2260893Y2617197D2*
X2697269D1*
X2285761Y2592329D2*
X2476294D1*
X2655332D2*
X2700821D1*
X2310629Y2567460D2*
X2455517D1*
X2676109D2*
X2711802D1*
X1357796Y2542591D2*
X1386527D1*
X1459133D2*
X1486536D1*
X1559142D2*
X1586545D1*
X1659115D2*
X1686555D1*
X2335496D2*
X2449309D1*
X2682317D2*
X2734301D1*
X443718Y2517722D2*
X572709D1*
X710947D2*
X734440D1*
X1332928D2*
X1688851D1*
X2360400D2*
X2453041D1*
X2678585D2*
X2863377D1*
X443718Y2492854D2*
X572709D1*
X892809D2*
X933310D1*
X1308060D2*
X1674390D1*
X2371668D2*
X2469153D1*
X2662473D2*
X2863377D1*
X443718Y2467985D2*
X565784D1*
X900667D2*
X958213D1*
X1292702D2*
X1672057D1*
X2376943D2*
X2426881D1*
X2468519D2*
X2863377D1*
X443718Y2443116D2*
X556777D1*
X901493D2*
X983081D1*
X1292702D2*
X1680275D1*
X2503219D2*
X2636911D1*
X2730904D2*
X2863377D1*
X443718Y2418247D2*
X562626D1*
X895572D2*
X1007949D1*
X1292702D2*
X1671699D1*
X2513841D2*
X2620512D1*
X2747339D2*
X2863377D1*
X443718Y2393378D2*
X562160D1*
X710947D2*
X728842D1*
X881254D2*
X1032817D1*
X1292702D2*
X1671699D1*
X2515061D2*
X2616565D1*
X2751286D2*
X2863377D1*
X443718Y2368510D2*
X557997D1*
X710947D2*
X759200D1*
X1292702D2*
X1671699D1*
X2515061D2*
X2616565D1*
X2751286D2*
X2863377D1*
X443718Y2343641D2*
X569049D1*
X710947D2*
X852247D1*
X1292702D2*
X1671699D1*
X2515635D2*
X2616565D1*
X2751286D2*
X2863377D1*
X443718Y2318772D2*
X646954D1*
X710947D2*
X852247D1*
X1292702D2*
X1671699D1*
X2515061D2*
X2616565D1*
X2751286D2*
X2863377D1*
X443718Y2293903D2*
X646954D1*
X1292702D2*
X1674713D1*
X2162032D2*
X2367708D1*
X2515061D2*
X2616637D1*
X2751179D2*
X2863377D1*
X443718Y2269035D2*
X658257D1*
X1292702D2*
X1671950D1*
X2162786D2*
X2216636D1*
X2262759D2*
X2367708D1*
X2512334D2*
X2623132D1*
X2744720D2*
X2863377D1*
X443718Y2244166D2*
X853324D1*
X1292702D2*
X1679665D1*
X2292256D2*
X2367708D1*
X2503686D2*
X2644483D1*
X2723369D2*
X2863377D1*
X443718Y2219297D2*
X853754D1*
X1292702D2*
X1690430D1*
X1851490D2*
X1879289D1*
X2300115D2*
X2367708D1*
X2503686D2*
X2863377D1*
X443718Y2194428D2*
X832009D1*
X1292702D2*
X1674892D1*
X1798490D2*
X1882769D1*
X2296634D2*
X2367708D1*
X2503686D2*
X2863377D1*
X443718Y2169560D2*
X829712D1*
X1292702D2*
X1671914D1*
X1801504D2*
X1900640D1*
X2178790D2*
X2200631D1*
X2278763D2*
X2367708D1*
X2503686D2*
X2595178D1*
X2640225D2*
X2863377D1*
X443718Y2144691D2*
X829712D1*
X1292702D2*
X1679378D1*
X1794040D2*
X1989704D1*
X2105694D2*
X2367708D1*
X2503686D2*
X2572607D1*
X2700044D2*
X2863377D1*
X443718Y2119822D2*
X829712D1*
X1292702D2*
X1685945D1*
X1777461D2*
X1989704D1*
X2105694D2*
X2367708D1*
X2503686D2*
X2570562D1*
X2716335D2*
X2863377D1*
X443718Y2094953D2*
X829712D1*
X955749D2*
X971239D1*
X1292702D2*
X1670084D1*
X1793322D2*
X1989704D1*
X2105694D2*
X2367708D1*
X2503686D2*
X2584664D1*
X2715582D2*
X2863377D1*
X443718Y2070085D2*
X829712D1*
X1292702D2*
X1666854D1*
X1796516D2*
X1989704D1*
X2105694D2*
X2367708D1*
X2701694D2*
X2863377D1*
X443718Y2045216D2*
X829712D1*
X970247D2*
X999695D1*
X1542420D2*
X1674103D1*
X1789303D2*
X1989704D1*
X2105694D2*
X2367708D1*
X2701694D2*
X2751059D1*
X2836332D2*
X2863377D1*
X443718Y2020347D2*
X762142D1*
X958800D2*
X979421D1*
X1567288D2*
X1698361D1*
X1765045D2*
X1920627D1*
X1974789D2*
X1989704D1*
X2105694D2*
X2120610D1*
X2174771D2*
X2220619D1*
X2274780D2*
X2369538D1*
X2701694D2*
X2745820D1*
X2841571D2*
X2863377D1*
X443718Y1995478D2*
X730026D1*
X936480D2*
X954553D1*
X1592155D2*
X1768945D1*
X1844457D2*
X1894181D1*
X2301227D2*
X2378186D1*
X2701694D2*
X2755580D1*
X2831846D2*
X2863377D1*
X443718Y1970609D2*
X715098D1*
X1617023D2*
X1758861D1*
X2308224D2*
X2378186D1*
X2701694D2*
X2761717D1*
X2825710D2*
X2863377D1*
X443718Y1945741D2*
X708782D1*
X1641891D2*
X1763813D1*
X2303990D2*
X2378186D1*
X2701694D2*
X2761717D1*
X2825710D2*
X2863377D1*
X443718Y1920872D2*
X709213D1*
X1666759D2*
X1798406D1*
X2184603D2*
X2206194D1*
X2284577D2*
X2380196D1*
X2701694D2*
X2761717D1*
X2825710D2*
X2863377D1*
X443718Y1896003D2*
X716605D1*
X1691626D2*
X1823273D1*
X2277185D2*
X2395088D1*
X2701694D2*
X2761717D1*
X2825710D2*
X2863377D1*
X443718Y1871134D2*
X733076D1*
X1716494D2*
X1848141D1*
X2277185D2*
X2522046D1*
X2701694D2*
X2761717D1*
X2825710D2*
X2863377D1*
X443718Y1846266D2*
X770467D1*
X1725716D2*
X1918008D1*
X2277185D2*
X2517704D1*
X2701192D2*
X2761717D1*
X2825710D2*
X2863377D1*
X2838234Y1821397D2*
X2863377D1*
X2838951Y1746791D2*
X2863377D1*
X637780Y1721922D2*
X760707D1*
X1682691D2*
X1853739D1*
X2659136D2*
X2863377D1*
X651057Y1697053D2*
X735839D1*
X1682691D2*
X1828871D1*
X2634268D2*
X2863377D1*
X651487Y1672184D2*
X711725D1*
X1682691D2*
X1813513D1*
X2609400D2*
X2863377D1*
X534936Y1647315D2*
X548021D1*
X639394D2*
X706665D1*
X1682691D2*
X1813190D1*
X2584533D2*
X2863377D1*
X498693Y1622447D2*
X706665D1*
X1682691D2*
X1813190D1*
X2559665D2*
X2863377D1*
X498693Y1597578D2*
X540342D1*
X661643D2*
X706665D1*
X1742618D2*
X1813190D1*
X2534797D2*
X2863377D1*
X1750692Y1572709D2*
X1817675D1*
X2509929D2*
X2863377D1*
X1743946Y1547840D2*
X1837196D1*
X2485062D2*
X2863377D1*
X1734723Y1522972D2*
X1836802D1*
X2460194D2*
X2863377D1*
X1712260Y1498103D2*
X1834362D1*
X2435326D2*
X2863377D1*
X1687392Y1473234D2*
X1831886D1*
X2422695D2*
X2863377D1*
X1560541Y1448365D2*
X1829445D1*
X2441211D2*
X2863377D1*
X1535674Y1423497D2*
X1554824D1*
X1628578D2*
X1827005D1*
X2446594D2*
X2863377D1*
X1092791Y1398628D2*
X1392376D1*
X1441011D2*
X1543951D1*
X1639415D2*
X1824529D1*
X2437013D2*
X2863377D1*
X1067923Y1373759D2*
X1371276D1*
X1462147D2*
X1527552D1*
X1635109D2*
X1822089D1*
X2468770D2*
X2561303D1*
X2646110D2*
X2863377D1*
X1085865Y1348890D2*
X1101535D1*
X1185875D2*
X1315261D1*
X1331629D2*
X1369769D1*
X1602095D2*
X1819613D1*
X2493638D2*
X2544079D1*
X2663334D2*
X2863377D1*
X1568687Y1324022D2*
X1817173D1*
X2518506D2*
X2540383D1*
X2667030D2*
X2863377D1*
X1561618Y1299153D2*
X1814697D1*
X2660033D2*
X2863377D1*
X1536894Y1274284D2*
X1635133D1*
X1774806D2*
X1812257D1*
X2635524D2*
X2863377D1*
X443718Y1249415D2*
X506683D1*
X1015568D2*
X1128197D1*
X1525698D2*
X1610229D1*
X1778215D2*
X1809817D1*
X2582380D2*
X2863377D1*
X1035197Y1224546D2*
X1052194D1*
X1535207D2*
X1552204D1*
X2635201D2*
X2652198D1*
X2735210D2*
X2752207D1*
X2835184D2*
X2863377D1*
X2850363Y1199678D2*
X2863377D1*
X2841463Y1149940D2*
X2863377D1*
X443718Y1125071D2*
X519637D1*
X1501691D2*
X1578902D1*
X2582703D2*
X2608096D1*
X2696563D2*
X2863377D1*
X443718Y1100203D2*
X544505D1*
X1482422D2*
X1575708D1*
X2582703D2*
X2632964D1*
X2721431D2*
X2863377D1*
X443718Y1075334D2*
X569372D1*
X1460712D2*
X1575708D1*
X2582703D2*
X2657832D1*
X2746299D2*
X2863377D1*
X443718Y1050465D2*
X594240D1*
X1460712D2*
X1575708D1*
X2582703D2*
X2682700D1*
X2771166D2*
X2863377D1*
X443718Y1025596D2*
X619108D1*
X1460712D2*
X1575708D1*
X2582703D2*
X2707567D1*
X2796034D2*
X2863377D1*
X443718Y1000728D2*
X643078D1*
X1460712D2*
X1575708D1*
X2582703D2*
X2732435D1*
X2816201D2*
X2863377D1*
X443718Y975859D2*
X677707D1*
X1460712D2*
X1575708D1*
X2590776D2*
X2740186D1*
X2830985D2*
X2863377D1*
X443718Y950990D2*
X677707D1*
X1460712D2*
X1575708D1*
X2588300D2*
X2738643D1*
X2832564D2*
X2863377D1*
X443718Y926121D2*
X677707D1*
X1460712D2*
X1575708D1*
X1991044D2*
X2016330D1*
X2091053D2*
X2116340D1*
X2191063D2*
X2251156D1*
X2571040D2*
X2753463D1*
X2817708D2*
X2863377D1*
X443718Y901252D2*
X677707D1*
X1460712D2*
X1548759D1*
X2200572D2*
X2276168D1*
X2580549D2*
X2863377D1*
X443718Y876384D2*
X617314D1*
X1460712D2*
X1538855D1*
X2210691D2*
X2276168D1*
X2590705D2*
X2863377D1*
X443718Y851515D2*
X608127D1*
X1460712D2*
X1543915D1*
X2208466D2*
X2276168D1*
X2588480D2*
X2863377D1*
X443718Y826646D2*
X608127D1*
X1460712D2*
X1503796D1*
X2091699D2*
X2115694D1*
X2191673D2*
X2252161D1*
X2471677D2*
X2495707D1*
X2571686D2*
X2705414D1*
X2753978D2*
X2863377D1*
X443718Y801777D2*
X608127D1*
X1460712D2*
X1482374D1*
X1929682D2*
X2225571D1*
X2412109D2*
X2684279D1*
X2775114D2*
X2863377D1*
X443718Y776909D2*
X472054D1*
X551550D2*
X608127D1*
X1462721D2*
X1477960D1*
X1921680D2*
X2202354D1*
X2414693D2*
X2675702D1*
X2835040D2*
X2863377D1*
X586035Y752040D2*
X608127D1*
X1562874D2*
X2198694D1*
X2414693D2*
X2650834D1*
X2528159Y727171D2*
X2625967D1*
X2541149Y702302D2*
X2601099D1*
X2541543Y677434D2*
X2576231D1*
X2664662D2*
X2697986D1*
X2529702Y652565D2*
X2551328D1*
X2639794D2*
X2704481D1*
X587542Y627696D2*
X608127D1*
X2368689D2*
X2526460D1*
X2614927D2*
X2719517D1*
X443718Y602827D2*
X468107D1*
X555533D2*
X608127D1*
X2368689D2*
X2511783D1*
X2590059D2*
X2751561D1*
X2838987D2*
X2863377D1*
X443718Y577959D2*
X608127D1*
X2368689D2*
X2511712D1*
X2575705D2*
X2863377D1*
X2439166Y553090D2*
X2486162D1*
X2789144D2*
X2863377D1*
X1800391Y528221D2*
X1836156D1*
X2450398D2*
X2486162D1*
X2800412D2*
X2863377D1*
X1799028Y503352D2*
X1836156D1*
X2449034D2*
X2486162D1*
X2799048D2*
X2863377D1*
X633761Y478483D2*
X653628D1*
X733770D2*
X753638D1*
X833743D2*
X853647D1*
X933752D2*
X953656D1*
X1033762D2*
X1053629D1*
X1133771D2*
X1153639D1*
X1483749D2*
X1503653D1*
X1583759D2*
X1603626D1*
X1683768D2*
X1703636D1*
X1783741D2*
X1836156D1*
X2433747D2*
X2486162D1*
X2683752D2*
X2703656D1*
X2783762D2*
X2863377D1*
X443718Y453615D2*
X1214965D1*
X1405486D2*
X1914957D1*
X2339480D2*
X2863377D1*
X1648728Y2786038D2*
Y2738672D1*
X1538672D1*
Y2761961D1*
X1532610Y2754790D1*
X1526044Y2749182D1*
X1523196Y2747278D1*
X1523109Y2720385D1*
X1522385Y2715813D1*
X1520954Y2711411D1*
X1518853Y2707286D1*
X1516132Y2703541D1*
X1456098Y2643379D1*
X1451455Y2638735D1*
X1456567Y2635405D1*
X1463415Y2629556D1*
X1469263Y2622708D1*
X1472807Y2617103D1*
X1476667Y2623066D1*
X1481398Y2628683D1*
X1486808Y2633649D1*
X1492809Y2637884D1*
X1499300Y2641318D1*
X1506177Y2643895D1*
X1513327Y2645573D1*
X1520633Y2646323D1*
X1527975Y2646135D1*
X1535232Y2645010D1*
X1542287Y2642968D1*
X1549022Y2640042D1*
X1555329Y2636279D1*
X1561104Y2631742D1*
X1566252Y2626504D1*
X1570690Y2620652D1*
X1572830Y2617142D1*
X1576667Y2623066D1*
X1581398Y2628683D1*
X1586808Y2633649D1*
X1592809Y2637884D1*
X1599300Y2641318D1*
X1606177Y2643895D1*
X1613327Y2645573D1*
X1620633Y2646323D1*
X1627975Y2646135D1*
X1635232Y2645010D1*
X1642287Y2642968D1*
X1649022Y2640042D1*
X1655329Y2636279D1*
X1661104Y2631742D1*
X1666252Y2626504D1*
X1670690Y2620652D1*
X1672830Y2617142D1*
X1676405Y2622708D1*
X1682253Y2629556D1*
X1689101Y2635405D1*
X1696779Y2640110D1*
X1705099Y2643556D1*
X1713856Y2645659D1*
X1722834Y2646365D1*
X1731812Y2645659D1*
X1740568Y2643556D1*
X1748888Y2640110D1*
X1756567Y2635405D1*
X1763415Y2629556D1*
X1769263Y2622708D1*
X1772807Y2617103D1*
X1776405Y2622708D1*
X1782253Y2629556D1*
X1789101Y2635405D1*
X1796779Y2640110D1*
X1805099Y2643556D1*
X1813856Y2645659D1*
X1822834Y2646365D1*
X1829592Y2645922D1*
X1853483Y2669675D1*
X1857990Y2672949D1*
X1862953Y2675478D1*
X1868251Y2677200D1*
X1873753Y2678071D1*
X1931657Y2678180D1*
X2185505Y2678071D1*
X2191007Y2677200D1*
X2196305Y2675478D1*
X2201268Y2672949D1*
X2205775Y2669675D1*
X2246796Y2628808D1*
X2360695Y2514755D1*
X2363969Y2510249D1*
X2366498Y2505285D1*
X2368219Y2499987D1*
X2369091Y2494485D1*
X2369200Y2476162D1*
X2372495Y2471474D1*
X2375737Y2465112D1*
X2377943Y2458322D1*
X2379060Y2451270D1*
Y2444130D1*
X2377943Y2437078D1*
X2375737Y2430288D1*
X2375240Y2429211D1*
X2387208Y2429200D1*
X2389900Y2435206D1*
X2395219Y2443885D1*
X2401830Y2451625D1*
X2409570Y2458236D1*
X2418250Y2463555D1*
X2427654Y2467450D1*
X2437552Y2469827D1*
X2447700Y2470625D1*
X2457848Y2469827D1*
X2467746Y2467450D1*
X2477150Y2463555D1*
X2485830Y2458236D1*
X2493570Y2451625D1*
X2500181Y2443885D1*
X2505500Y2435206D1*
X2509395Y2425801D1*
X2511771Y2415903D1*
X2512570Y2405755D1*
Y2355768D1*
X2513200Y2346700D1*
X2512570Y2332264D1*
X2512370Y2282555D1*
X2510778Y2272501D1*
X2507632Y2262820D1*
X2503011Y2253750D1*
X2501209Y2251054D1*
X2501200Y2078537D1*
X2505901Y2081961D1*
X2512326Y2085517D1*
X2519168Y2088185D1*
X2526304Y2089919D1*
X2533607Y2090688D1*
X2540948Y2090477D1*
X2548195Y2089290D1*
X2555219Y2087149D1*
X2561896Y2084092D1*
X2568107Y2080173D1*
X2573740Y2075462D1*
X2578696Y2070042D1*
X2582886Y2064011D1*
X2586235Y2057476D1*
X2588200Y2052309D1*
X2588150Y2094102D1*
X2583102Y2099150D1*
X2578905Y2104926D1*
X2575663Y2111288D1*
X2573457Y2118078D1*
X2572340Y2125130D1*
Y2132270D1*
X2573457Y2139322D1*
X2575663Y2146112D1*
X2578905Y2152474D1*
X2583102Y2158250D1*
X2588150Y2163298D1*
X2593926Y2167495D1*
X2600288Y2170737D1*
X2607078Y2172943D1*
X2614130Y2174060D1*
X2621270D1*
X2628322Y2172943D1*
X2635112Y2170737D1*
X2641474Y2167495D1*
X2647250Y2163298D1*
X2652298Y2158250D1*
X2656611Y2152267D1*
X2662582Y2153640D1*
X2669700Y2154200D1*
X2676818Y2153640D1*
X2683760Y2151973D1*
X2690357Y2149241D1*
X2696444Y2145510D1*
X2701873Y2140873D1*
X2706510Y2135444D1*
X2710241Y2129357D1*
X2712973Y2122760D1*
X2714640Y2115818D1*
X2715200Y2108700D1*
X2714640Y2101582D1*
X2712973Y2094640D1*
X2710241Y2088043D1*
X2706510Y2081956D1*
X2701873Y2076527D1*
X2699195Y2074058D1*
X2699109Y1849385D1*
X2698385Y1844813D1*
X2696951Y1840403D1*
X2702534Y1839475D1*
X2711150Y1837406D1*
X2719337Y1834015D1*
X2726892Y1829385D1*
X2733630Y1823630D1*
X2739385Y1816892D1*
X2743685Y1809926D1*
X2748015Y1816892D1*
X2753770Y1823630D1*
X2760508Y1829385D1*
X2764210Y1831857D1*
X2764150Y1989168D1*
X2759102Y1994217D1*
X2754905Y1999993D1*
X2751663Y2006355D1*
X2749457Y2013145D1*
X2748340Y2020197D1*
Y2027337D1*
X2749457Y2034389D1*
X2751663Y2041179D1*
X2754905Y2047541D1*
X2759102Y2053317D1*
X2764150Y2058365D1*
X2769926Y2062562D1*
X2776288Y2065803D1*
X2783078Y2068010D1*
X2790130Y2069127D1*
X2797270D1*
X2804322Y2068010D1*
X2811112Y2065803D1*
X2817474Y2062562D1*
X2823250Y2058365D1*
X2828298Y2053317D1*
X2832495Y2047541D1*
X2835737Y2041179D1*
X2837943Y2034389D1*
X2839060Y2027337D1*
Y2020197D1*
X2837943Y2013145D1*
X2835737Y2006355D1*
X2832495Y1999993D1*
X2828298Y1994217D1*
X2823195Y1989125D1*
X2823205Y1831848D1*
X2830374Y1826640D1*
X2836640Y1820374D1*
X2841848Y1813205D1*
X2845871Y1805310D1*
X2848610Y1796883D1*
X2849996Y1788131D1*
Y1779269D1*
X2848610Y1770517D1*
X2845871Y1762090D1*
X2841848Y1754195D1*
X2836640Y1747026D1*
X2830374Y1740760D1*
X2823205Y1735552D1*
X2815310Y1731529D1*
X2806883Y1728790D1*
X2798131Y1727404D1*
X2789269D1*
X2780517Y1728790D1*
X2772090Y1731529D1*
X2764195Y1735552D1*
X2757026Y1740760D1*
X2750760Y1747026D1*
X2745552Y1754195D1*
X2743715Y1757474D1*
X2739385Y1750508D1*
X2733630Y1743770D1*
X2726892Y1738015D1*
X2719337Y1733385D1*
X2711150Y1729994D1*
X2702534Y1727925D1*
X2693700Y1727230D1*
X2684866Y1727925D1*
X2676250Y1729994D1*
X2667897Y1733478D1*
X2659064Y1724345D1*
X2420219Y1485500D1*
X2420200Y1466804D1*
X2425444Y1463510D1*
X2430873Y1458873D1*
X2435510Y1453444D1*
X2439241Y1447357D1*
X2441973Y1440760D1*
X2443640Y1433818D1*
X2444200Y1426700D1*
X2443640Y1419582D1*
X2441973Y1412640D1*
X2439241Y1406043D1*
X2435510Y1399956D1*
X2430873Y1394527D1*
X2425444Y1389890D1*
X2419417Y1386193D1*
X2441564Y1386088D1*
X2447221Y1385192D1*
X2452668Y1383422D1*
X2457771Y1380821D1*
X2462405Y1377455D1*
X2496988Y1343031D1*
X2571455Y1268405D1*
X2574821Y1263771D1*
X2577422Y1258668D1*
X2579192Y1253221D1*
X2580088Y1247564D1*
X2580517Y1238610D1*
X2589269Y1239996D1*
X2598131D1*
X2606883Y1238610D1*
X2615310Y1235871D1*
X2623205Y1231848D1*
X2630374Y1226640D1*
X2636640Y1220374D1*
X2641848Y1213205D1*
X2643685Y1209926D1*
X2648015Y1216892D1*
X2653770Y1223630D1*
X2660508Y1229385D1*
X2668063Y1234015D1*
X2676250Y1237406D1*
X2684866Y1239475D1*
X2693700Y1240170D1*
X2702534Y1239475D1*
X2711150Y1237406D1*
X2719337Y1234015D1*
X2726892Y1229385D1*
X2733630Y1223630D1*
X2739385Y1216892D1*
X2743685Y1209926D1*
X2748015Y1216892D1*
X2753770Y1223630D1*
X2760508Y1229385D1*
X2768063Y1234015D1*
X2776250Y1237406D1*
X2784866Y1239475D1*
X2793700Y1240170D1*
X2802534Y1239475D1*
X2811150Y1237406D1*
X2819337Y1234015D1*
X2826892Y1229385D1*
X2833630Y1223630D1*
X2839385Y1216892D1*
X2844015Y1209337D1*
X2847406Y1201150D1*
X2849475Y1192534D1*
X2850170Y1183700D1*
X2849475Y1174866D1*
X2847406Y1166250D1*
X2844015Y1158063D1*
X2839385Y1150508D1*
X2833630Y1143770D1*
X2826892Y1138015D1*
X2819337Y1133385D1*
X2811150Y1129994D1*
X2802534Y1127925D1*
X2793700Y1127230D1*
X2784866Y1127925D1*
X2776250Y1129994D1*
X2768063Y1133385D1*
X2760508Y1138015D1*
X2753770Y1143770D1*
X2748015Y1150508D1*
X2743715Y1157474D1*
X2739385Y1150508D1*
X2733630Y1143770D1*
X2726892Y1138015D1*
X2719337Y1133385D1*
X2711150Y1129994D1*
X2702534Y1127925D1*
X2693700Y1127230D1*
X2691814Y1127304D1*
X2808022Y1010969D1*
X2810743Y1007224D1*
X2812844Y1003099D1*
X2814275Y998697D1*
X2815140Y995263D1*
X2820188Y990214D1*
X2824385Y984438D1*
X2827626Y978077D1*
X2829833Y971286D1*
X2830950Y964234D1*
Y957095D1*
X2829833Y950043D1*
X2827626Y943252D1*
X2824385Y936891D1*
X2820188Y931115D1*
X2815140Y926066D1*
X2809363Y921869D1*
X2803002Y918628D1*
X2796212Y916422D1*
X2789160Y915305D1*
X2782020D1*
X2774968Y916422D1*
X2768178Y918628D1*
X2761816Y921869D1*
X2756040Y926066D1*
X2750991Y931115D1*
X2746795Y936891D1*
X2743553Y943252D1*
X2741347Y950043D1*
X2740230Y957095D1*
Y964234D1*
X2741347Y971286D1*
X2743553Y978077D1*
X2746795Y984438D1*
X2748570Y987095D1*
X2606883Y1128790D1*
X2598131Y1127404D1*
X2589269D1*
X2580201Y1128880D1*
X2580200Y998140D1*
X2584539Y989758D1*
X2587207Y981546D1*
X2588558Y973017D1*
Y964383D1*
X2587207Y955854D1*
X2584539Y947642D1*
X2580619Y939948D1*
X2575543Y932962D1*
X2569438Y926857D1*
X2562452Y921781D1*
X2556643Y918730D1*
X2563067Y915236D1*
X2569002Y910911D1*
X2574308Y905835D1*
X2578892Y900097D1*
X2582670Y893800D1*
X2585576Y887056D1*
X2587558Y879985D1*
X2588581Y872713D1*
X2588605Y865028D1*
X2587627Y857750D1*
X2585689Y850667D1*
X2582825Y843905D1*
X2579086Y837584D1*
X2574538Y831818D1*
X2569263Y826709D1*
X2563355Y822347D1*
X2556919Y818811D1*
X2550069Y816164D1*
X2542928Y814452D1*
X2535622Y813706D1*
X2528282Y813940D1*
X2521039Y815149D1*
X2514021Y817312D1*
X2507354Y820390D1*
X2501155Y824328D1*
X2495537Y829057D1*
X2490598Y834491D1*
X2486427Y840535D1*
X2483704Y845725D1*
X2480099Y839117D1*
X2475747Y833202D1*
X2470645Y827919D1*
X2464886Y823363D1*
X2458571Y819614D1*
X2451814Y816739D1*
X2444734Y814790D1*
X2437457Y813801D1*
X2430113Y813789D1*
X2422834Y814756D1*
X2415747Y816683D1*
X2408981Y819537D1*
X2402655Y823266D1*
X2396881Y827805D1*
X2391764Y833072D1*
X2388724Y837006D1*
X2388728Y824795D1*
X2392566Y821553D1*
X2405132Y808859D1*
X2407853Y805114D1*
X2409954Y800989D1*
X2411385Y796587D1*
X2412109Y792015D1*
X2412200Y738278D1*
X2416567Y735405D1*
X2423415Y729556D1*
X2429263Y722708D1*
X2432807Y717103D1*
X2436405Y722708D1*
X2442253Y729556D1*
X2449101Y735405D1*
X2456779Y740110D1*
X2465099Y743556D1*
X2473856Y745659D1*
X2482834Y746365D1*
X2491812Y745659D1*
X2500568Y743556D1*
X2508888Y740110D1*
X2516567Y735405D1*
X2523415Y729556D1*
X2529263Y722708D1*
X2533969Y715030D1*
X2537415Y706710D1*
X2539517Y697953D1*
X2540224Y688976D1*
X2539517Y679998D1*
X2537415Y671241D1*
X2533969Y662921D1*
X2529263Y655243D1*
X2523415Y648395D1*
X2516567Y642546D1*
X2508888Y637841D1*
X2500568Y634395D1*
X2491812Y632292D1*
X2482834Y631586D1*
X2473856Y632292D1*
X2465099Y634395D1*
X2456779Y637841D1*
X2449101Y642546D1*
X2442253Y648395D1*
X2436405Y655243D1*
X2432860Y660848D1*
X2429263Y655243D1*
X2423415Y648395D1*
X2416567Y642546D1*
X2408888Y637841D1*
X2400568Y634395D1*
X2391812Y632292D1*
X2382834Y631586D1*
X2373856Y632292D1*
X2366201Y634084D1*
X2366200Y566382D1*
X2372642Y569539D1*
X2380854Y572207D1*
X2389383Y573558D1*
X2398017D1*
X2406546Y572207D1*
X2414758Y569539D1*
X2422452Y565619D1*
X2429438Y560543D1*
X2435543Y554438D1*
X2440619Y547452D1*
X2444539Y539758D1*
X2447207Y531546D1*
X2448558Y523017D1*
Y514383D1*
X2447207Y505854D1*
X2444539Y497642D1*
X2440619Y489948D1*
X2435543Y482962D1*
X2429438Y476857D1*
X2422452Y471781D1*
X2414758Y467861D1*
X2406546Y465193D1*
X2398017Y463842D1*
X2389383D1*
X2380854Y465193D1*
X2372642Y467861D1*
X2364948Y471781D1*
X2359354Y475760D1*
X2340087Y456313D1*
X2336567Y453306D1*
X2332620Y450888D1*
X2328344Y449116D1*
X2323842Y448036D1*
X2319219Y447673D1*
X1932913Y447763D1*
X1928341Y448487D1*
X1923938Y449918D1*
X1919814Y452019D1*
X1916069Y454740D1*
X1906984Y463697D1*
X1838673Y463672D1*
Y530740D1*
X1797425Y530727D1*
X1798558Y523017D1*
Y514383D1*
X1797207Y505854D1*
X1794539Y497642D1*
X1790619Y489948D1*
X1785543Y482962D1*
X1779438Y476857D1*
X1772452Y471781D1*
X1764758Y467861D1*
X1756546Y465193D1*
X1748017Y463842D1*
X1739383D1*
X1730854Y465193D1*
X1722642Y467861D1*
X1714948Y471781D1*
X1707962Y476857D1*
X1701857Y482962D1*
X1696781Y489948D1*
X1693730Y495757D1*
X1690619Y489948D1*
X1685543Y482962D1*
X1679438Y476857D1*
X1672452Y471781D1*
X1664758Y467861D1*
X1656546Y465193D1*
X1648017Y463842D1*
X1639383D1*
X1630854Y465193D1*
X1622642Y467861D1*
X1614948Y471781D1*
X1607962Y476857D1*
X1601857Y482962D1*
X1596781Y489948D1*
X1593730Y495757D1*
X1590619Y489948D1*
X1585543Y482962D1*
X1579438Y476857D1*
X1572452Y471781D1*
X1564758Y467861D1*
X1556546Y465193D1*
X1548017Y463842D1*
X1539383D1*
X1530854Y465193D1*
X1522642Y467861D1*
X1514948Y471781D1*
X1507962Y476857D1*
X1501857Y482962D1*
X1496781Y489948D1*
X1493730Y495757D1*
X1490619Y489948D1*
X1485543Y482962D1*
X1479438Y476857D1*
X1472452Y471781D1*
X1464758Y467861D1*
X1456546Y465193D1*
X1448017Y463842D1*
X1439383D1*
X1430854Y465193D1*
X1422642Y467861D1*
X1414948Y471781D1*
X1414317Y472203D1*
X1413284Y468056D1*
X1411512Y463780D1*
X1409094Y459833D1*
X1406087Y456313D1*
X1402567Y453306D1*
X1398620Y450888D1*
X1394344Y449116D1*
X1389842Y448036D1*
X1385228Y447672D1*
X1232913Y447763D1*
X1228341Y448487D1*
X1223938Y449918D1*
X1219814Y452019D1*
X1216069Y454740D1*
X1205665Y465016D1*
X1198017Y463842D1*
X1189383D1*
X1180854Y465193D1*
X1172642Y467861D1*
X1164948Y471781D1*
X1157962Y476857D1*
X1151857Y482962D1*
X1146781Y489948D1*
X1143730Y495757D1*
X1140619Y489948D1*
X1135543Y482962D1*
X1129438Y476857D1*
X1122452Y471781D1*
X1114758Y467861D1*
X1106546Y465193D1*
X1098017Y463842D1*
X1089383D1*
X1080854Y465193D1*
X1072642Y467861D1*
X1064948Y471781D1*
X1057962Y476857D1*
X1051857Y482962D1*
X1046781Y489948D1*
X1043730Y495757D1*
X1040619Y489948D1*
X1035543Y482962D1*
X1029438Y476857D1*
X1022452Y471781D1*
X1014758Y467861D1*
X1006546Y465193D1*
X998017Y463842D1*
X989383D1*
X980854Y465193D1*
X972642Y467861D1*
X964948Y471781D1*
X957962Y476857D1*
X951857Y482962D1*
X946781Y489948D1*
X943730Y495757D1*
X940619Y489948D1*
X935543Y482962D1*
X929438Y476857D1*
X922452Y471781D1*
X914758Y467861D1*
X906546Y465193D1*
X898017Y463842D1*
X889383D1*
X880854Y465193D1*
X872642Y467861D1*
X864948Y471781D1*
X857962Y476857D1*
X851857Y482962D1*
X846781Y489948D1*
X843730Y495757D1*
X840619Y489948D1*
X835543Y482962D1*
X829438Y476857D1*
X822452Y471781D1*
X814758Y467861D1*
X806546Y465193D1*
X798017Y463842D1*
X789383D1*
X780854Y465193D1*
X772642Y467861D1*
X764948Y471781D1*
X757962Y476857D1*
X751857Y482962D1*
X746781Y489948D1*
X743730Y495757D1*
X740619Y489948D1*
X735543Y482962D1*
X729438Y476857D1*
X722452Y471781D1*
X714758Y467861D1*
X706546Y465193D1*
X698017Y463842D1*
X689383D1*
X680854Y465193D1*
X672642Y467861D1*
X664948Y471781D1*
X657962Y476857D1*
X651857Y482962D1*
X646781Y489948D1*
X643730Y495757D1*
X640619Y489948D1*
X635543Y482962D1*
X629438Y476857D1*
X622452Y471781D1*
X614758Y467861D1*
X606546Y465193D1*
X598017Y463842D1*
X589383D1*
X580854Y465193D1*
X572642Y467861D1*
X564948Y471781D1*
X557962Y476857D1*
X551857Y482962D1*
X548722Y487043D1*
X548728Y463672D1*
X441170D1*
X441200Y441177D1*
X2865906Y441200D1*
X2865886Y624653D1*
X2857297Y616357D1*
X2851408Y611714D1*
X2845173Y607548D1*
X2838631Y603884D1*
X2831821Y600745D1*
X2824786Y598150D1*
X2817569Y596114D1*
X2810214Y594651D1*
X2802768Y593770D1*
X2795275Y593476D1*
X2787782Y593770D1*
X2780335Y594651D1*
X2772981Y596114D1*
X2765764Y598150D1*
X2758729Y600745D1*
X2751919Y603884D1*
X2745376Y607548D1*
X2739141Y611714D1*
X2733253Y616357D1*
X2727746Y621447D1*
X2722656Y626953D1*
X2718014Y632842D1*
X2713848Y639077D1*
X2710184Y645619D1*
X2707044Y652429D1*
X2704449Y659464D1*
X2702413Y666682D1*
X2700951Y674036D1*
X2700069Y681483D1*
X2699775Y688976D1*
X2700069Y696468D1*
X2700951Y703915D1*
X2702413Y711270D1*
X2705169Y720438D1*
X2573221Y588502D1*
X2573200Y573751D1*
X2598728Y573727D1*
Y550439D1*
X2604790Y557610D1*
X2611356Y563218D1*
X2618718Y567730D1*
X2626696Y571034D1*
X2635092Y573050D1*
X2643700Y573728D1*
X2652308Y573050D1*
X2660704Y571034D1*
X2668682Y567730D1*
X2676044Y563218D1*
X2682610Y557610D1*
X2688218Y551044D1*
X2692730Y543682D1*
X2693670Y541643D1*
X2696781Y547452D1*
X2701857Y554438D1*
X2707962Y560543D1*
X2714948Y565619D1*
X2722642Y569539D1*
X2730854Y572207D1*
X2739383Y573558D1*
X2748017D1*
X2756546Y572207D1*
X2764758Y569539D1*
X2772452Y565619D1*
X2779438Y560543D1*
X2785543Y554438D1*
X2790619Y547452D1*
X2794539Y539758D1*
X2797207Y531546D1*
X2798558Y523017D1*
Y514383D1*
X2797207Y505854D1*
X2794539Y497642D1*
X2790619Y489948D1*
X2785543Y482962D1*
X2779438Y476857D1*
X2772452Y471781D1*
X2764758Y467861D1*
X2756546Y465193D1*
X2748017Y463842D1*
X2739383D1*
X2730854Y465193D1*
X2722642Y467861D1*
X2714948Y471781D1*
X2707962Y476857D1*
X2701857Y482962D1*
X2696781Y489948D1*
X2693730Y495757D1*
X2690619Y489948D1*
X2685543Y482962D1*
X2679438Y476857D1*
X2672452Y471781D1*
X2664758Y467861D1*
X2656546Y465193D1*
X2648017Y463842D1*
X2639383D1*
X2630854Y465193D1*
X2622642Y467861D1*
X2614948Y471781D1*
X2607962Y476857D1*
X2601857Y482962D1*
X2598722Y487043D1*
X2598728Y463672D1*
X2488673D1*
Y573727D1*
X2514200Y573818D1*
X2514291Y603015D1*
X2515015Y607587D1*
X2516446Y611989D1*
X2518547Y616114D1*
X2521268Y619859D1*
X2581302Y680021D1*
X2684340Y783130D1*
Y790270D1*
X2685457Y797322D1*
X2687663Y804112D1*
X2690905Y810474D1*
X2695102Y816250D1*
X2700150Y821298D1*
X2705926Y825495D1*
X2712288Y828737D1*
X2719078Y830943D1*
X2726130Y832060D1*
X2733270D1*
X2740322Y830943D1*
X2747112Y828737D1*
X2753474Y825495D1*
X2759250Y821298D1*
X2764298Y816250D1*
X2768495Y810474D1*
X2771737Y804112D1*
X2773943Y797322D1*
X2775060Y790270D1*
Y783130D1*
X2774960Y782285D1*
X2787782Y784181D1*
X2795275Y784476D1*
X2802768Y784181D1*
X2810214Y783300D1*
X2817569Y781837D1*
X2824786Y779801D1*
X2831821Y777206D1*
X2838631Y774067D1*
X2845173Y770403D1*
X2851408Y766237D1*
X2857297Y761594D1*
X2865885Y753170D1*
Y2553787D1*
X2857297Y2545491D1*
X2851408Y2540848D1*
X2845173Y2536682D1*
X2838631Y2533018D1*
X2831821Y2529879D1*
X2824786Y2527284D1*
X2817569Y2525248D1*
X2810214Y2523785D1*
X2802768Y2522904D1*
X2795275Y2522609D1*
X2787782Y2522904D1*
X2780335Y2523785D1*
X2772981Y2525248D1*
X2765764Y2527284D1*
X2758729Y2529879D1*
X2751919Y2533018D1*
X2745376Y2536682D1*
X2739141Y2540848D1*
X2733253Y2545491D1*
X2727746Y2550581D1*
X2722656Y2556087D1*
X2718014Y2561976D1*
X2713848Y2568211D1*
X2710184Y2574753D1*
X2707044Y2581563D1*
X2704449Y2588598D1*
X2702413Y2595815D1*
X2700951Y2603170D1*
X2700069Y2610617D1*
X2699775Y2618109D1*
X2700069Y2625602D1*
X2700951Y2633049D1*
X2702413Y2640403D1*
X2704449Y2647621D1*
X2707044Y2654656D1*
X2710184Y2661466D1*
X2713848Y2668008D1*
X2718014Y2674243D1*
X2722656Y2680132D1*
X2727746Y2685638D1*
X2733253Y2690728D1*
X2739141Y2695371D1*
X2745376Y2699537D1*
X2751919Y2703201D1*
X2758729Y2706340D1*
X2765764Y2708935D1*
X2772981Y2710971D1*
X2780335Y2712434D1*
X2787782Y2713315D1*
X2795275Y2713609D1*
X2802768Y2713315D1*
X2810214Y2712434D1*
X2817569Y2710971D1*
X2824786Y2708935D1*
X2831821Y2706340D1*
X2838631Y2703201D1*
X2845173Y2699537D1*
X2851408Y2695371D1*
X2857297Y2690728D1*
X2865885Y2682304D1*
Y2865908D1*
X2321223Y2865884D1*
X2325173Y2862560D1*
X2328179Y2859040D1*
X2330598Y2855093D1*
X2332369Y2850816D1*
X2333450Y2846315D1*
X2333813Y2841700D1*
Y2774130D1*
X2339270Y2774060D1*
X2342444Y2773684D1*
X2340193Y2780854D1*
X2338842Y2789383D1*
Y2798017D1*
X2340193Y2806546D1*
X2342861Y2814758D1*
X2346781Y2822452D1*
X2351857Y2829438D1*
X2357962Y2835543D1*
X2364948Y2840619D1*
X2372642Y2844539D1*
X2380854Y2847207D1*
X2389383Y2848558D1*
X2398017D1*
X2406546Y2847207D1*
X2414758Y2844539D1*
X2422452Y2840619D1*
X2429438Y2835543D1*
X2435543Y2829438D1*
X2440619Y2822452D1*
X2443670Y2816643D1*
X2446781Y2822452D1*
X2451857Y2829438D1*
X2457962Y2835543D1*
X2464948Y2840619D1*
X2472642Y2844539D1*
X2480854Y2847207D1*
X2489383Y2848558D1*
X2498017D1*
X2506546Y2847207D1*
X2514758Y2844539D1*
X2522452Y2840619D1*
X2529438Y2835543D1*
X2535543Y2829438D1*
X2538678Y2825357D1*
X2538672Y2848728D1*
X2648728D1*
Y2738672D1*
X2538672D1*
Y2761961D1*
X2532610Y2754790D1*
X2526044Y2749182D1*
X2518682Y2744670D1*
X2510704Y2741366D1*
X2502308Y2739350D1*
X2493700Y2738672D1*
X2485092Y2739350D1*
X2476696Y2741366D1*
X2468718Y2744670D1*
X2461356Y2749182D1*
X2454790Y2754790D1*
X2449182Y2761356D1*
X2444670Y2768718D1*
X2443730Y2770757D1*
X2440619Y2764948D1*
X2435543Y2757962D1*
X2429438Y2751857D1*
X2422452Y2746781D1*
X2414758Y2742861D1*
X2406546Y2740193D1*
X2398017Y2738842D1*
X2389383D1*
X2380854Y2740193D1*
X2379636Y2740536D1*
X2380640Y2735818D1*
X2381200Y2728700D1*
X2380640Y2721582D1*
X2378973Y2714640D1*
X2376241Y2708043D1*
X2372510Y2701956D1*
X2367873Y2696527D1*
X2362444Y2691890D1*
X2356357Y2688159D1*
X2349760Y2685427D1*
X2342818Y2683760D1*
X2335700Y2683200D1*
X2328582Y2683760D1*
X2321640Y2685427D1*
X2315043Y2688159D1*
X2308956Y2691890D1*
X2303527Y2696527D1*
X2298890Y2701956D1*
X2295159Y2708043D1*
X2292427Y2714640D1*
X2290760Y2721582D1*
X2290200Y2728700D1*
X2290348Y2732339D1*
X2284023Y2738657D1*
X2188673Y2738672D1*
Y2761961D1*
X2182610Y2754790D1*
X2176044Y2749182D1*
X2168682Y2744670D1*
X2160704Y2741366D1*
X2152308Y2739350D1*
X2143700Y2738672D1*
X2135092Y2739350D1*
X2126696Y2741366D1*
X2118718Y2744670D1*
X2111356Y2749182D1*
X2104790Y2754790D1*
X2099182Y2761356D1*
X2094670Y2768718D1*
X2093730Y2770757D1*
X2090619Y2764948D1*
X2085543Y2757962D1*
X2079438Y2751857D1*
X2072452Y2746781D1*
X2064758Y2742861D1*
X2056546Y2740193D1*
X2048017Y2738842D1*
X2039383D1*
X2030854Y2740193D1*
X2022642Y2742861D1*
X2014948Y2746781D1*
X2007962Y2751857D1*
X2001857Y2757962D1*
X1996781Y2764948D1*
X1993730Y2770757D1*
X1990619Y2764948D1*
X1985543Y2757962D1*
X1979438Y2751857D1*
X1972452Y2746781D1*
X1964758Y2742861D1*
X1956546Y2740193D1*
X1948017Y2738842D1*
X1939383D1*
X1930854Y2740193D1*
X1922642Y2742861D1*
X1914948Y2746781D1*
X1907962Y2751857D1*
X1901857Y2757962D1*
X1896781Y2764948D1*
X1893730Y2770757D1*
X1890619Y2764948D1*
X1885543Y2757962D1*
X1879438Y2751857D1*
X1872452Y2746781D1*
X1864758Y2742861D1*
X1856546Y2740193D1*
X1848017Y2738842D1*
X1839383D1*
X1830854Y2740193D1*
X1822642Y2742861D1*
X1814948Y2746781D1*
X1807962Y2751857D1*
X1801857Y2757962D1*
X1796781Y2764948D1*
X1793730Y2770757D1*
X1790619Y2764948D1*
X1785543Y2757962D1*
X1779438Y2751857D1*
X1772452Y2746781D1*
X1764758Y2742861D1*
X1756546Y2740193D1*
X1748017Y2738842D1*
X1739383D1*
X1730854Y2740193D1*
X1722642Y2742861D1*
X1714948Y2746781D1*
X1707962Y2751857D1*
X1701857Y2757962D1*
X1696781Y2764948D1*
X1692861Y2772642D1*
X1690193Y2780854D1*
X1689854Y2782559D1*
X1683322Y2780457D1*
X1676270Y2779340D1*
X1669130D1*
X1662078Y2780457D1*
X1655288Y2782663D1*
X1648729Y2786037D1*
X1243730Y2816643D2*
X1246781Y2822452D1*
X1251857Y2829438D1*
X1257962Y2835543D1*
X1264948Y2840619D1*
X1272642Y2844539D1*
X1280854Y2847207D1*
X1289383Y2848558D1*
X1298017D1*
X1306546Y2847207D1*
X1308943Y2846703D1*
X1311362Y2850650D1*
X1314368Y2854170D1*
X1326065Y2865867D1*
X441179Y2865885D1*
X441201Y2682432D1*
X449788Y2690728D1*
X455677Y2695371D1*
X461912Y2699537D1*
X468454Y2703201D1*
X475264Y2706340D1*
X482299Y2708935D1*
X489516Y2710971D1*
X496871Y2712434D1*
X504317Y2713315D1*
X511810Y2713609D1*
X519303Y2713315D1*
X526750Y2712434D1*
X534104Y2710971D1*
X541321Y2708935D1*
X548357Y2706340D1*
X555166Y2703201D1*
X561709Y2699537D1*
X567944Y2695371D1*
X575188Y2689476D1*
X575200Y2718709D1*
X573849Y2721832D1*
X555707Y2739974D1*
X548017Y2738842D1*
X539383D1*
X530854Y2740193D1*
X522642Y2742861D1*
X514948Y2746781D1*
X507962Y2751857D1*
X501857Y2757962D1*
X496781Y2764948D1*
X492861Y2772642D1*
X490193Y2780854D1*
X488842Y2789383D1*
Y2798017D1*
X490193Y2806546D1*
X492861Y2814758D1*
X496781Y2822452D1*
X501857Y2829438D1*
X507962Y2835543D1*
X514948Y2840619D1*
X522642Y2844539D1*
X530854Y2847207D1*
X539383Y2848558D1*
X548017D1*
X556546Y2847207D1*
X564758Y2844539D1*
X572452Y2840619D1*
X579438Y2835543D1*
X585543Y2829438D1*
X590619Y2822452D1*
X593670Y2816643D1*
X596781Y2822452D1*
X601857Y2829438D1*
X607962Y2835543D1*
X614948Y2840619D1*
X622642Y2844539D1*
X630854Y2847207D1*
X639383Y2848558D1*
X648017D1*
X656546Y2847207D1*
X664758Y2844539D1*
X672452Y2840619D1*
X679438Y2835543D1*
X685543Y2829438D1*
X690619Y2822452D1*
X693670Y2816643D1*
X696781Y2822452D1*
X701857Y2829438D1*
X707962Y2835543D1*
X714948Y2840619D1*
X722642Y2844539D1*
X730854Y2847207D1*
X739383Y2848558D1*
X748017D1*
X756546Y2847207D1*
X764758Y2844539D1*
X772452Y2840619D1*
X779438Y2835543D1*
X785543Y2829438D1*
X788678Y2825357D1*
X788672Y2848728D1*
X898728D1*
Y2740466D1*
X939989Y2781708D1*
X938842Y2789383D1*
Y2798017D1*
X940193Y2806546D1*
X942861Y2814758D1*
X946781Y2822452D1*
X951857Y2829438D1*
X957962Y2835543D1*
X964948Y2840619D1*
X972642Y2844539D1*
X980854Y2847207D1*
X989383Y2848558D1*
X998017D1*
X1006546Y2847207D1*
X1014758Y2844539D1*
X1022452Y2840619D1*
X1029438Y2835543D1*
X1035543Y2829438D1*
X1040619Y2822452D1*
X1043670Y2816643D1*
X1046781Y2822452D1*
X1051857Y2829438D1*
X1057962Y2835543D1*
X1064948Y2840619D1*
X1072642Y2844539D1*
X1080854Y2847207D1*
X1089383Y2848558D1*
X1098017D1*
X1106546Y2847207D1*
X1114758Y2844539D1*
X1122452Y2840619D1*
X1129438Y2835543D1*
X1135543Y2829438D1*
X1140619Y2822452D1*
X1143670Y2816643D1*
X1146781Y2822452D1*
X1151857Y2829438D1*
X1157962Y2835543D1*
X1164948Y2840619D1*
X1172642Y2844539D1*
X1180854Y2847207D1*
X1189383Y2848558D1*
X1198017D1*
X1206546Y2847207D1*
X1214758Y2844539D1*
X1222452Y2840619D1*
X1229438Y2835543D1*
X1235543Y2829438D1*
X1240619Y2822452D1*
X1243670Y2816643D1*
X896969Y2738672D2*
X788672D1*
Y2761961D1*
X782610Y2754790D1*
X776044Y2749182D1*
X772915Y2747091D1*
X771756Y2742131D1*
X769985Y2737855D1*
X767560Y2733900D1*
X766393Y2732369D1*
X890660D1*
X441220Y573728D2*
X548728D1*
Y550439D1*
X554790Y557610D1*
X561356Y563218D1*
X568718Y567730D1*
X576696Y571034D1*
X585092Y573050D1*
X593700Y573728D1*
X602308Y573050D1*
X605669Y572382D1*
X610637Y583510D1*
X610728Y857316D1*
X611452Y861888D1*
X612883Y866291D1*
X614984Y870416D1*
X617705Y874161D1*
X620978Y877434D1*
X624723Y880155D1*
X628848Y882256D1*
X633250Y883687D1*
X637822Y884411D1*
X680220Y884502D1*
X680200Y990536D1*
X674700Y990200D1*
X667582Y990760D1*
X660640Y992427D1*
X654043Y995159D1*
X647956Y998890D1*
X642527Y1003527D1*
X637890Y1008956D1*
X635102Y1012093D1*
X515665Y1131677D1*
X508728Y1129267D1*
X501537Y1127777D1*
X494214Y1127233D1*
X486881Y1127643D1*
X479664Y1129002D1*
X472684Y1131286D1*
X466060Y1134457D1*
X459903Y1138460D1*
X454318Y1143229D1*
X449399Y1148682D1*
X445229Y1154727D1*
X441879Y1161262D1*
X441201Y1162900D1*
X441200Y753298D1*
X449788Y761594D1*
X455677Y766237D1*
X461912Y770403D1*
X468454Y774067D1*
X475264Y777206D1*
X482299Y779801D1*
X489516Y781837D1*
X496871Y783300D1*
X504317Y784181D1*
X511810Y784476D1*
X519303Y784181D1*
X526750Y783300D1*
X534104Y781837D1*
X541321Y779801D1*
X548357Y777206D1*
X555166Y774067D1*
X561709Y770403D1*
X567944Y766237D1*
X573833Y761594D1*
X579339Y756504D1*
X584429Y750998D1*
X589071Y745109D1*
X593237Y738874D1*
X596901Y732332D1*
X600041Y725522D1*
X602636Y718487D1*
X604672Y711270D1*
X606134Y703915D1*
X607016Y696468D1*
X607310Y688976D1*
X607016Y681483D1*
X606134Y674036D1*
X604672Y666682D1*
X602636Y659464D1*
X600041Y652429D1*
X596901Y645619D1*
X593237Y639077D1*
X589071Y632842D1*
X584429Y626953D1*
X579339Y621447D1*
X573833Y616357D1*
X567944Y611714D1*
X561709Y607548D1*
X555166Y603884D1*
X548357Y600745D1*
X541321Y598150D1*
X534104Y596114D1*
X526750Y594651D1*
X519303Y593770D1*
X511810Y593476D1*
X504317Y593770D1*
X496871Y594651D1*
X489516Y596114D1*
X482299Y598150D1*
X475264Y600745D1*
X468454Y603884D1*
X461912Y607548D1*
X455677Y611714D1*
X449788Y616357D1*
X441200Y624781D1*
Y573734D1*
X874595Y2388491D2*
X968743D1*
Y2369509D1*
X1056971Y2369495D1*
X1044036Y2382541D1*
X1041315Y2386286D1*
X1040179Y2388315D1*
X995874Y2432806D1*
X922924Y2505756D1*
X882966Y2505659D1*
X887776Y2497837D1*
X891803Y2489584D1*
X895009Y2480980D1*
X897364Y2472104D1*
X898846Y2463042D1*
X899440Y2453878D1*
X899166Y2445020D1*
X898007Y2435910D1*
X895969Y2426957D1*
X893071Y2418243D1*
X889339Y2409853D1*
X884810Y2401865D1*
X879527Y2394355D1*
X874560Y2388491D1*
X854751Y2306041D2*
Y2372140D1*
X847080Y2367835D1*
X838669Y2364152D1*
X829939Y2361303D1*
X820974Y2359316D1*
X811858Y2358209D1*
X802678Y2357994D1*
X793520Y2358671D1*
X784472Y2360235D1*
X775618Y2362671D1*
X767043Y2365955D1*
X758827Y2370057D1*
X751049Y2374938D1*
X743782Y2380552D1*
X737095Y2386845D1*
X731050Y2393758D1*
X725707Y2401226D1*
X721114Y2409177D1*
X717315Y2417537D1*
X714346Y2426227D1*
X712236Y2435164D1*
X711005Y2444264D1*
X710663Y2453440D1*
X711214Y2462606D1*
X712654Y2471676D1*
X714967Y2480562D1*
X718134Y2489182D1*
X722123Y2497453D1*
X726896Y2505297D1*
X732409Y2512641D1*
X738610Y2519414D1*
X744948Y2525144D1*
X736787Y2533303D1*
X727337Y2531763D1*
X718331D1*
X709436Y2533172D1*
X708437Y2533453D1*
X708444Y2306083D1*
X854736Y2306066D1*
X856416Y2219445D2*
X854927Y2228598D1*
Y2237542D1*
X856326Y2246376D1*
X856521Y2247065D1*
X692630Y2247157D1*
X688057Y2247881D1*
X683655Y2249312D1*
X679530Y2251413D1*
X675785Y2254134D1*
X656512Y2273407D1*
X653791Y2277152D1*
X651690Y2281277D1*
X650259Y2285679D1*
X649535Y2290252D1*
X649444Y2361213D1*
X647737Y2356288D1*
X644495Y2349926D1*
X640298Y2344150D1*
X635250Y2339102D1*
X629474Y2334905D1*
X623112Y2331663D1*
X616322Y2329457D1*
X609270Y2328340D1*
X602130D1*
X595078Y2329457D1*
X588288Y2331663D1*
X581926Y2334905D1*
X576150Y2339102D1*
X571102Y2344150D1*
X566905Y2349926D1*
X563663Y2356288D1*
X561457Y2363078D1*
X560340Y2370130D1*
Y2377270D1*
X561457Y2384322D1*
X563663Y2391112D1*
X566905Y2397474D1*
X571102Y2403250D1*
X574439Y2406716D1*
X570102Y2411150D1*
X565905Y2416926D1*
X562663Y2423288D1*
X560457Y2430078D1*
X559340Y2437130D1*
Y2444270D1*
X560457Y2451322D1*
X562663Y2458112D1*
X565905Y2464474D1*
X570102Y2470250D1*
X575205Y2475342D1*
X575200Y2546666D1*
X567944Y2540848D1*
X561709Y2536682D1*
X555166Y2533018D1*
X548357Y2529879D1*
X541321Y2527284D1*
X534104Y2525248D1*
X526750Y2523785D1*
X519303Y2522904D1*
X511810Y2522609D1*
X504317Y2522904D1*
X496871Y2523785D1*
X489516Y2525248D1*
X482299Y2527284D1*
X475264Y2529879D1*
X468454Y2533018D1*
X461912Y2536682D1*
X455677Y2540848D1*
X449788Y2545491D1*
X441200Y2553915D1*
X441201Y1804489D1*
X443385Y1809337D1*
X448015Y1816892D1*
X453770Y1823630D1*
X460508Y1829385D1*
X468063Y1834015D1*
X476250Y1837406D1*
X484866Y1839475D1*
X493700Y1840170D1*
X502534Y1839475D1*
X511150Y1837406D1*
X519337Y1834015D1*
X526892Y1829385D1*
X533630Y1823630D1*
X539385Y1816892D1*
X543685Y1809926D1*
X547093Y1815584D1*
X551625Y1821363D1*
X556868Y1826505D1*
X562735Y1830923D1*
X569125Y1834542D1*
X575931Y1837301D1*
X583037Y1839154D1*
X590324Y1840069D1*
X597668Y1840030D1*
X604944Y1839039D1*
X612031Y1837112D1*
X618807Y1834281D1*
X625159Y1830595D1*
X630979Y1826116D1*
X636168Y1820919D1*
X640639Y1815093D1*
X643695Y1809942D1*
X648015Y1816892D1*
X653770Y1823630D1*
X660508Y1829385D1*
X668063Y1834015D1*
X676250Y1837406D1*
X684866Y1839475D1*
X693700Y1840170D1*
X702534Y1839475D1*
X711150Y1837406D1*
X719337Y1834015D1*
X726892Y1829385D1*
X733630Y1823630D1*
X739385Y1816892D1*
X743685Y1809926D1*
X748015Y1816892D1*
X753770Y1823630D1*
X760508Y1829385D1*
X768063Y1834015D1*
X776250Y1837406D1*
X784866Y1839475D1*
X793700Y1840170D1*
X802534Y1839475D1*
X807666Y1838389D1*
X806352Y1840650D1*
X797175Y1840970D1*
X788072Y1842181D1*
X779131Y1844270D1*
X770434Y1847219D1*
X762065Y1850998D1*
X754103Y1855572D1*
X746623Y1860899D1*
X739696Y1866927D1*
X733387Y1873600D1*
X727757Y1880854D1*
X722858Y1888620D1*
X718737Y1896827D1*
X715432Y1905394D1*
X712976Y1914242D1*
X711391Y1923287D1*
X710692Y1932443D1*
X710887Y1941624D1*
X711972Y1950742D1*
X713938Y1959712D1*
X716767Y1968448D1*
X720431Y1976868D1*
X724895Y1984893D1*
X730118Y1992445D1*
X736051Y1999455D1*
X742636Y2005854D1*
X749812Y2011584D1*
X757511Y2016589D1*
X765659Y2020823D1*
X774181Y2024245D1*
X782994Y2026822D1*
X792016Y2028531D1*
X801162Y2029356D1*
X810344Y2029288D1*
X819477Y2028328D1*
X828473Y2026485D1*
X832226Y2025439D1*
X832291Y2185337D1*
X833015Y2189910D1*
X834445Y2194312D1*
X836547Y2198437D1*
X839268Y2202182D1*
X856394Y2219437D1*
X953129Y2115196D2*
X948763Y2110990D1*
X941528Y2105733D1*
X940475Y2105143D1*
X947180Y2100549D1*
X952626Y2095622D1*
X957394Y2090036D1*
X961403Y2083884D1*
X964589Y2077266D1*
X966897Y2070295D1*
X968289Y2063084D1*
X968743Y2055905D1*
X968270Y2048576D1*
X966859Y2041369D1*
X964532Y2034403D1*
X961329Y2027794D1*
X957303Y2021652D1*
X952521Y2016079D1*
X947061Y2011167D1*
X941016Y2006997D1*
X934484Y2003640D1*
X928638Y2001476D1*
X933566Y1996040D1*
X935985Y1992093D1*
X937756Y1987816D1*
X938837Y1983315D1*
X939200Y1977659D1*
X1002185Y2040613D1*
X1002200Y2063683D1*
X976673Y2063672D1*
Y2093061D1*
X972084Y2096268D1*
X954377Y2113847D1*
X1712872Y2532488D2*
X1705099Y2534395D1*
X1696779Y2537841D1*
X1689101Y2542546D1*
X1682253Y2548395D1*
X1676405Y2555243D1*
X1672860Y2560848D1*
X1668856Y2554690D1*
X1664101Y2549093D1*
X1658670Y2544150D1*
X1652652Y2539940D1*
X1646146Y2536534D1*
X1639258Y2533986D1*
X1632101Y2532339D1*
X1624792Y2531619D1*
X1617451Y2531839D1*
X1610199Y2532994D1*
X1603153Y2535066D1*
X1596430Y2538021D1*
X1590139Y2541810D1*
X1584383Y2546372D1*
X1579257Y2551631D1*
X1574845Y2557502D1*
X1572836Y2560807D1*
X1568856Y2554690D1*
X1564101Y2549093D1*
X1558670Y2544150D1*
X1552652Y2539940D1*
X1546146Y2536534D1*
X1539258Y2533986D1*
X1532101Y2532339D1*
X1524792Y2531619D1*
X1517451Y2531839D1*
X1510199Y2532994D1*
X1503153Y2535066D1*
X1496430Y2538021D1*
X1490139Y2541810D1*
X1484383Y2546372D1*
X1479257Y2551631D1*
X1474845Y2557502D1*
X1472836Y2560807D1*
X1469263Y2555243D1*
X1463415Y2548395D1*
X1456567Y2542546D1*
X1448888Y2537841D1*
X1440568Y2534395D1*
X1431812Y2532292D1*
X1422834Y2531586D1*
X1413856Y2532292D1*
X1405099Y2534395D1*
X1396779Y2537841D1*
X1389101Y2542546D1*
X1382253Y2548395D1*
X1376405Y2555243D1*
X1373118Y2560387D1*
X1290178Y2477458D1*
X1290200Y2065226D1*
X1510015Y2065109D1*
X1514587Y2064385D1*
X1518989Y2062955D1*
X1523114Y2060853D1*
X1526859Y2058132D1*
X1587021Y1998098D1*
X1716132Y1868859D1*
X1718853Y1865114D1*
X1720955Y1860989D1*
X1722385Y1856587D1*
X1723109Y1852015D1*
X1723205Y1831848D1*
X1730374Y1826640D1*
X1736640Y1820374D1*
X1741848Y1813205D1*
X1743685Y1809926D1*
X1748015Y1816892D1*
X1753770Y1823630D1*
X1760508Y1829385D1*
X1768063Y1834015D1*
X1776250Y1837406D1*
X1784866Y1839475D1*
X1793700Y1840170D1*
X1802534Y1839475D1*
X1811150Y1837406D1*
X1819337Y1834015D1*
X1826892Y1829385D1*
X1833630Y1823630D1*
X1839385Y1816892D1*
X1843685Y1809926D1*
X1847093Y1815584D1*
X1851625Y1821363D1*
X1856868Y1826505D1*
X1862735Y1830923D1*
X1869125Y1834542D1*
X1875931Y1837301D1*
X1883037Y1839154D1*
X1890324Y1840069D1*
X1897668Y1840030D1*
X1904944Y1839039D1*
X1912031Y1837112D1*
X1918807Y1834281D1*
X1925159Y1830595D1*
X1930979Y1826116D1*
X1936168Y1820919D1*
X1940639Y1815093D1*
X1943695Y1809942D1*
X1948015Y1816892D1*
X1948991Y1818130D1*
X1939395Y1827386D1*
X1901968Y1864813D1*
X1896271Y1861178D1*
X1890979Y1858986D1*
X1885410Y1857649D1*
X1879700Y1857200D1*
X1873990Y1857649D1*
X1868421Y1858986D1*
X1863129Y1861178D1*
X1858246Y1864171D1*
X1853891Y1867891D1*
X1800123Y1921658D1*
X1792640Y1923427D1*
X1786043Y1926159D1*
X1779956Y1929890D1*
X1774527Y1934527D1*
X1769890Y1939956D1*
X1766159Y1946043D1*
X1763427Y1952640D1*
X1761760Y1959582D1*
X1761200Y1966700D1*
X1761760Y1973818D1*
X1763427Y1980760D1*
X1766159Y1987357D1*
X1769890Y1993444D1*
X1774527Y1998873D1*
X1779956Y2003510D1*
X1786043Y2007241D1*
X1792640Y2009973D1*
X1799582Y2011640D1*
X1806700Y2012200D1*
X1813818Y2011640D1*
X1820760Y2009973D1*
X1827357Y2007241D1*
X1833444Y2003510D1*
X1838873Y1998873D1*
X1843510Y1993444D1*
X1847241Y1987357D1*
X1849973Y1980760D1*
X1851697Y1973333D1*
X1857401Y1967618D1*
X1863129Y1971222D1*
X1868421Y1973414D1*
X1873990Y1974751D1*
X1879700Y1975200D1*
X1885410Y1974751D1*
X1888232Y1974189D1*
X1890316Y1976789D1*
X1892444Y1985654D1*
X1895933Y1994077D1*
X1900696Y2001850D1*
X1906617Y2008783D1*
X1913550Y2014704D1*
X1921323Y2019467D1*
X1929746Y2022956D1*
X1938611Y2025084D1*
X1947700Y2025800D1*
X1956789Y2025084D1*
X1965654Y2022956D1*
X1974077Y2019467D1*
X1981850Y2014704D1*
X1988783Y2008783D1*
X1992199Y2005027D1*
X1992200Y2181247D1*
X1989718Y2185136D1*
X1986704Y2180550D1*
X1980783Y2173617D1*
X1973850Y2167696D1*
X1966077Y2162933D1*
X1957654Y2159444D1*
X1948789Y2157316D1*
X1939700Y2156600D1*
X1930611Y2157316D1*
X1921746Y2159444D1*
X1913323Y2162933D1*
X1905550Y2167696D1*
X1898617Y2173617D1*
X1892696Y2180550D1*
X1887933Y2188323D1*
X1884444Y2196746D1*
X1882316Y2205611D1*
X1881600Y2214700D1*
X1882316Y2223789D1*
X1884444Y2232654D1*
X1885795Y2236315D1*
X1881744Y2232497D1*
X1874699Y2227378D1*
X1866939Y2223425D1*
X1858656Y2220733D1*
X1850054Y2219371D1*
X1827327Y2219200D1*
X1780570D1*
X1784225Y2215291D1*
X1789990Y2207356D1*
X1794442Y2198618D1*
X1797473Y2189290D1*
X1799007Y2179604D1*
Y2169796D1*
X1797473Y2160110D1*
X1794442Y2150782D1*
X1789990Y2142044D1*
X1784225Y2134109D1*
X1777291Y2127175D1*
X1771540Y2122869D1*
X1775894Y2118894D1*
X1782264Y2111437D1*
X1787388Y2103074D1*
X1791141Y2094014D1*
X1793431Y2084477D1*
X1794200Y2074700D1*
X1793431Y2064923D1*
X1791141Y2055386D1*
X1787388Y2046326D1*
X1782264Y2037963D1*
X1775894Y2030506D1*
X1768437Y2024136D1*
X1760074Y2019012D1*
X1751014Y2015259D1*
X1741477Y2012969D1*
X1731700Y2012200D1*
X1721923Y2012969D1*
X1712386Y2015259D1*
X1703326Y2019012D1*
X1694963Y2024136D1*
X1687506Y2030506D1*
X1681136Y2037963D1*
X1676012Y2046326D1*
X1672259Y2055386D1*
X1669969Y2064923D1*
X1669200Y2074700D1*
X1669969Y2084477D1*
X1672259Y2094014D1*
X1676012Y2103074D1*
X1681136Y2111437D1*
X1687506Y2118894D1*
X1694963Y2125264D1*
X1696860Y2126531D1*
X1692506Y2130506D1*
X1686136Y2137963D1*
X1681012Y2146326D1*
X1677259Y2155386D1*
X1674969Y2164923D1*
X1674200Y2174700D1*
X1674969Y2184477D1*
X1677259Y2194014D1*
X1681012Y2203074D1*
X1686136Y2211437D1*
X1692506Y2218894D1*
X1699226Y2224682D1*
X1692506Y2230506D1*
X1686136Y2237963D1*
X1681012Y2246326D1*
X1677259Y2255386D1*
X1674969Y2264923D1*
X1674200Y2274700D1*
X1674969Y2284477D1*
X1677259Y2294014D1*
X1681012Y2303074D1*
X1686136Y2311437D1*
X1686742Y2312204D1*
X1674200Y2312200D1*
Y2437200D1*
X1686695D1*
X1683410Y2442044D1*
X1678958Y2450782D1*
X1675927Y2460110D1*
X1674393Y2469796D1*
Y2479604D1*
X1675927Y2489290D1*
X1678958Y2498618D1*
X1683410Y2507356D1*
X1689175Y2515291D1*
X1696109Y2522225D1*
X1704044Y2527990D1*
X1712836Y2532462D1*
X1554331Y746365D2*
X1640224D1*
Y727454D1*
X1645562Y732615D1*
X1652848Y737908D1*
X1660872Y741997D1*
X1669436Y744780D1*
X1678331Y746188D1*
X1687337D1*
X1696231Y744780D1*
X1704796Y741997D1*
X1712820Y737908D1*
X1720106Y732615D1*
X1726473Y726247D1*
X1731767Y718962D1*
X1732807Y717103D1*
X1736405Y722708D1*
X1742253Y729556D1*
X1749101Y735405D1*
X1756779Y740110D1*
X1765099Y743556D1*
X1773856Y745659D1*
X1782834Y746365D1*
X1791812Y745659D1*
X1800568Y743556D1*
X1808888Y740110D1*
X1816567Y735405D1*
X1823415Y729556D1*
X1829263Y722708D1*
X1832807Y717103D1*
X1836405Y722708D1*
X1842253Y729556D1*
X1849101Y735405D1*
X1856779Y740110D1*
X1865099Y743556D1*
X1873856Y745659D1*
X1882834Y746365D1*
X1891812Y745659D1*
X1900568Y743556D1*
X1908888Y740110D1*
X1916567Y735405D1*
X1923415Y729556D1*
X1929263Y722708D1*
X1932807Y717103D1*
X1936405Y722708D1*
X1942253Y729556D1*
X1949101Y735405D1*
X1956779Y740110D1*
X1965099Y743556D1*
X1973856Y745659D1*
X1982834Y746365D1*
X1991812Y745659D1*
X2000568Y743556D1*
X2008888Y740110D1*
X2016567Y735405D1*
X2023415Y729556D1*
X2029263Y722708D1*
X2032807Y717103D1*
X2036405Y722708D1*
X2042253Y729556D1*
X2049101Y735405D1*
X2056779Y740110D1*
X2065099Y743556D1*
X2073856Y745659D1*
X2082834Y746365D1*
X2091812Y745659D1*
X2100568Y743556D1*
X2108888Y740110D1*
X2116567Y735405D1*
X2123415Y729556D1*
X2129263Y722708D1*
X2132807Y717103D1*
X2136667Y723066D1*
X2141398Y728683D1*
X2146808Y733649D1*
X2152809Y737884D1*
X2159300Y741318D1*
X2166177Y743895D1*
X2173327Y745573D1*
X2180633Y746323D1*
X2187975Y746135D1*
X2195232Y745010D1*
X2201193Y743342D1*
X2201291Y765015D1*
X2202015Y769587D1*
X2203445Y773989D1*
X2205547Y778114D1*
X2208268Y781859D1*
X2247840Y821560D1*
X2251360Y824566D1*
X2255307Y826985D1*
X2259584Y828756D1*
X2264085Y829837D1*
X2268700Y830200D1*
X2278673Y830208D1*
X2278582Y923200D1*
X2266130Y923340D1*
X2259078Y924457D1*
X2252288Y926663D1*
X2245926Y929905D1*
X2240150Y934101D1*
X2218039Y956014D1*
X2208626Y965428D1*
X2208050Y960092D1*
X2206034Y951696D1*
X2202730Y943718D1*
X2198218Y936356D1*
X2192610Y929790D1*
X2186044Y924182D1*
X2178682Y919670D1*
X2176643Y918730D1*
X2183067Y915236D1*
X2189002Y910911D1*
X2194308Y905835D1*
X2198892Y900097D1*
X2202670Y893800D1*
X2205576Y887056D1*
X2207558Y879985D1*
X2208581Y872713D1*
X2208605Y865028D1*
X2207627Y857750D1*
X2205689Y850667D1*
X2202825Y843905D1*
X2199086Y837584D1*
X2194538Y831818D1*
X2189263Y826709D1*
X2183355Y822347D1*
X2176919Y818811D1*
X2170069Y816164D1*
X2162928Y814452D1*
X2155622Y813706D1*
X2148282Y813940D1*
X2141039Y815149D1*
X2134021Y817312D1*
X2127354Y820390D1*
X2121155Y824328D1*
X2115537Y829057D1*
X2110598Y834491D1*
X2106427Y840535D1*
X2103704Y845725D1*
X2100099Y839117D1*
X2095747Y833202D1*
X2090645Y827919D1*
X2084886Y823363D1*
X2078571Y819614D1*
X2071814Y816739D1*
X2064734Y814790D1*
X2057457Y813801D1*
X2050113Y813789D1*
X2042834Y814756D1*
X2035747Y816683D1*
X2028981Y819537D1*
X2022655Y823266D1*
X2016881Y827805D1*
X2011764Y833072D1*
X2008724Y837006D1*
X2008728Y813672D1*
X1927206D1*
X1927060Y799130D1*
X1925943Y792078D1*
X1923737Y785288D1*
X1920495Y778926D1*
X1916299Y773150D1*
X1911250Y768101D1*
X1905474Y763905D1*
X1899112Y760663D1*
X1892322Y758457D1*
X1885270Y757340D1*
X1854141Y757200D1*
X1565524D1*
X1555239Y747093D1*
X1525444Y672530D2*
Y736188D1*
X1518582Y736760D1*
X1511640Y738427D1*
X1505043Y741159D1*
X1498956Y744890D1*
X1493527Y749527D1*
X1488890Y754956D1*
X1485159Y761043D1*
X1482427Y767640D1*
X1480760Y774582D1*
X1480200Y781700D1*
X1480760Y788818D1*
X1482427Y795760D1*
X1485159Y802357D1*
X1488890Y808444D1*
X1493527Y813873D1*
X1517150Y837299D1*
X1522926Y841495D1*
X1529288Y844737D1*
X1536078Y846943D1*
X1543130Y848060D1*
X1546714Y848200D1*
X1547905Y848926D1*
X1544663Y855288D1*
X1542457Y862078D1*
X1541340Y869130D1*
Y876270D1*
X1542457Y883322D1*
X1544663Y890112D1*
X1547905Y896474D1*
X1552102Y902250D1*
X1557150Y907298D1*
X1562926Y911495D1*
X1569288Y914737D1*
X1576078Y916943D1*
X1578200Y917365D1*
X1578291Y1114015D1*
X1579015Y1118587D1*
X1580445Y1122989D1*
X1582552Y1127121D1*
X1580517Y1128790D1*
X1572090Y1131529D1*
X1564195Y1135552D1*
X1557026Y1140760D1*
X1550760Y1147026D1*
X1545552Y1154195D1*
X1543715Y1157474D1*
X1539385Y1150508D1*
X1533630Y1143770D1*
X1526892Y1138015D1*
X1519337Y1133385D1*
X1511150Y1129994D1*
X1502534Y1127925D1*
X1499765Y1127598D1*
X1497954Y1121411D1*
X1495853Y1117286D1*
X1493132Y1113541D1*
X1458193Y1078474D1*
X1458200Y778902D1*
X1510132Y726859D1*
X1512853Y723114D1*
X1514955Y718989D1*
X1516385Y714587D1*
X1517109Y710015D1*
X1517200Y672498D1*
X1517558Y672504D1*
X2132807Y660848D2*
X2129263Y655243D1*
X2123415Y648395D1*
X2116567Y642546D1*
X2108888Y637841D1*
X2102765Y635205D1*
X2162760Y635200D1*
X2156430Y638021D1*
X2150139Y641810D1*
X2144383Y646372D1*
X2139257Y651631D1*
X2134845Y657502D1*
X2132836Y660807D1*
X660106Y1592200D2*
X704133D1*
Y1564174D1*
X719421Y1564200D1*
X714806Y1569360D1*
X712388Y1573307D1*
X710616Y1577584D1*
X709536Y1582085D1*
X709173Y1586709D1*
X709263Y1657987D1*
X709988Y1662559D1*
X711418Y1666962D1*
X713520Y1671086D1*
X716240Y1674831D1*
X772595Y1731314D1*
X764195Y1735552D1*
X757026Y1740760D1*
X750760Y1747026D1*
X745552Y1754195D1*
X743715Y1757474D1*
X739385Y1750508D1*
X733630Y1743770D1*
X726892Y1738015D1*
X719337Y1733385D1*
X711150Y1729994D1*
X702534Y1727925D1*
X693700Y1727230D1*
X684866Y1727925D1*
X676250Y1729994D1*
X668063Y1733385D1*
X660508Y1738015D1*
X653770Y1743770D1*
X648015Y1750508D1*
X643715Y1757474D1*
X639719Y1750973D1*
X635083Y1745278D1*
X629747Y1740232D1*
X623801Y1735922D1*
X619937Y1733704D1*
X626892Y1729385D1*
X633630Y1723630D1*
X639385Y1716892D1*
X644015Y1709337D1*
X647406Y1701150D1*
X649475Y1692534D1*
X650170Y1683700D1*
X649475Y1674866D1*
X647406Y1666250D1*
X644015Y1658063D1*
X639385Y1650508D1*
X633630Y1643770D1*
X626892Y1638015D1*
X619337Y1633385D1*
X611150Y1629994D1*
X602534Y1627925D1*
X593700Y1627230D1*
X584866Y1627925D1*
X576250Y1629994D1*
X568063Y1633385D1*
X560508Y1638015D1*
X553770Y1643770D1*
X548015Y1650508D1*
X543385Y1658063D1*
X539994Y1666250D1*
X539162Y1669200D1*
X538640Y1664070D1*
X536973Y1657128D1*
X534241Y1650532D1*
X530510Y1644444D1*
X525873Y1639015D1*
X520444Y1634378D1*
X514357Y1630647D1*
X507760Y1627915D1*
X500818Y1626248D1*
X497256Y1625828D1*
X496200Y1623327D1*
X496386Y1588141D1*
X505923Y1590431D1*
X515700Y1591200D1*
X525477Y1590431D1*
X533815Y1588534D1*
X557541Y1612132D1*
X561286Y1614853D1*
X565411Y1616954D1*
X569813Y1618385D1*
X574385Y1619109D1*
X630700Y1619200D1*
X635315Y1618837D1*
X639816Y1617756D1*
X644093Y1615985D1*
X648040Y1613566D1*
X651560Y1610560D1*
X654566Y1607040D1*
X656985Y1603093D1*
X658756Y1598816D1*
X659838Y1594306D1*
X441198Y1204484D2*
X444208Y1210891D1*
X448155Y1217084D1*
X452872Y1222712D1*
X458280Y1227681D1*
X464287Y1231905D1*
X470792Y1235315D1*
X477684Y1237851D1*
X484847Y1239472D1*
X492159Y1240149D1*
X499498Y1239871D1*
X506739Y1238644D1*
X509201Y1237993D1*
X509200Y1249982D1*
X503993Y1255203D1*
X473915Y1255309D1*
X471136Y1255639D1*
X463485Y1254309D1*
X457915D1*
X452413Y1255181D1*
X447115Y1256902D1*
X442142Y1259437D1*
X441200Y1254923D1*
Y1204506D1*
X1003026Y1239377D2*
X1011150Y1237406D1*
X1019337Y1234015D1*
X1026892Y1229385D1*
X1033630Y1223630D1*
X1039385Y1216892D1*
X1043685Y1209926D1*
X1048015Y1216892D1*
X1053770Y1223630D1*
X1060508Y1229385D1*
X1068063Y1234015D1*
X1076250Y1237406D1*
X1084866Y1239475D1*
X1093700Y1240170D1*
X1102534Y1239475D1*
X1111150Y1237406D1*
X1119337Y1234015D1*
X1120168Y1233550D1*
X1122283Y1238960D1*
X1124701Y1242907D1*
X1127714Y1246433D1*
X1134280Y1252999D1*
X1126137Y1255031D1*
X1119321Y1257764D1*
X1112917Y1261358D1*
X1107033Y1265754D1*
X1101770Y1270875D1*
X1097216Y1276637D1*
X1093701Y1282465D1*
X1089719Y1275973D1*
X1085083Y1270278D1*
X1079747Y1265232D1*
X1073801Y1260922D1*
X1067346Y1257419D1*
X1060491Y1254784D1*
X1053352Y1253061D1*
X1046050Y1252279D1*
X1038708Y1252451D1*
X1031451Y1253575D1*
X1024401Y1255630D1*
X1020684Y1257138D1*
X1003074Y1239405D1*
X1523190Y1231857D2*
X1530374Y1226640D1*
X1536640Y1220374D1*
X1541848Y1213205D1*
X1543685Y1209926D1*
X1548015Y1216892D1*
X1553770Y1223630D1*
X1560508Y1229385D1*
X1568063Y1234015D1*
X1576250Y1237406D1*
X1584866Y1239475D1*
X1593700Y1240170D1*
X1602755Y1239431D1*
X1648268Y1284793D1*
X1652458Y1287837D1*
X1657071Y1290188D1*
X1661996Y1291788D1*
X1667111Y1292598D1*
X1734004Y1292700D1*
X1745289Y1292598D1*
X1750404Y1291788D1*
X1755329Y1290188D1*
X1759942Y1287837D1*
X1764132Y1284793D1*
X1767793Y1281132D1*
X1770837Y1276942D1*
X1773188Y1272329D1*
X1774788Y1267404D1*
X1775598Y1262289D1*
X1775700Y1237201D1*
X1780517Y1238610D1*
X1789269Y1239996D1*
X1798131D1*
X1806883Y1238610D1*
X1811686Y1237208D1*
X1811803Y1244299D1*
X1841534Y1545518D1*
X1821424Y1570758D1*
X1818854Y1575254D1*
X1817019Y1580096D1*
X1815964Y1585166D1*
X1815700Y1598520D1*
X1815802Y1670289D1*
X1816612Y1675404D1*
X1818212Y1680329D1*
X1820563Y1684943D1*
X1823607Y1689132D1*
X1863365Y1729035D1*
X1867311Y1732403D1*
X1867677Y1733584D1*
X1861393Y1737385D1*
X1855656Y1741969D1*
X1850562Y1747259D1*
X1846197Y1753166D1*
X1843701Y1757465D1*
X1839385Y1750508D1*
X1833630Y1743770D1*
X1826892Y1738015D1*
X1819337Y1733385D1*
X1811150Y1729994D1*
X1802534Y1727925D1*
X1793700Y1727230D1*
X1784866Y1727925D1*
X1776250Y1729994D1*
X1768063Y1733385D1*
X1760508Y1738015D1*
X1753770Y1743770D1*
X1748015Y1750508D1*
X1743715Y1757474D1*
X1739385Y1750508D1*
X1733630Y1743770D1*
X1726892Y1738015D1*
X1719337Y1733385D1*
X1711150Y1729994D1*
X1702534Y1727925D1*
X1693700Y1727230D1*
X1684866Y1727925D1*
X1680201Y1728880D1*
X1680200Y1611245D1*
X1685288Y1613737D1*
X1692078Y1615943D1*
X1699130Y1617060D1*
X1706270D1*
X1713322Y1615943D1*
X1720112Y1613737D1*
X1726474Y1610495D1*
X1732250Y1606298D1*
X1737298Y1601250D1*
X1741495Y1595474D1*
X1744737Y1589112D1*
X1746943Y1582322D1*
X1748060Y1575270D1*
Y1568130D1*
X1746943Y1561078D1*
X1744737Y1554288D1*
X1741495Y1547926D1*
X1737298Y1542150D1*
X1735698Y1540418D1*
X1735294Y1532538D1*
X1734085Y1527502D1*
X1732103Y1522718D1*
X1729398Y1518303D1*
X1726027Y1514359D1*
X1674132Y1462607D1*
X1669943Y1459563D1*
X1665329Y1457212D1*
X1660404Y1455612D1*
X1655289Y1454802D1*
X1588396Y1454700D1*
X1564389D1*
X1516132Y1406607D1*
X1511943Y1403563D1*
X1507329Y1401212D1*
X1502404Y1399612D1*
X1497289Y1398802D1*
X1438398Y1398700D1*
X1443444Y1395510D1*
X1448873Y1390873D1*
X1453510Y1385444D1*
X1457241Y1379357D1*
X1459973Y1372760D1*
X1461093Y1368569D1*
X1468672Y1369200D1*
X1475790Y1368640D1*
X1482733Y1366973D1*
X1489329Y1364241D1*
X1495417Y1360510D1*
X1500846Y1355873D1*
X1505483Y1350444D1*
X1508156Y1346244D1*
X1510388Y1352065D1*
X1512806Y1356012D1*
X1515819Y1359538D1*
X1546340Y1390130D1*
Y1397270D1*
X1547457Y1404322D1*
X1549663Y1411112D1*
X1552905Y1417474D1*
X1557102Y1423250D1*
X1562150Y1428298D1*
X1567926Y1432495D1*
X1574288Y1435737D1*
X1581078Y1437943D1*
X1588130Y1439060D1*
X1595270D1*
X1602322Y1437943D1*
X1609112Y1435737D1*
X1615474Y1432495D1*
X1621250Y1428298D1*
X1626298Y1423250D1*
X1630495Y1417474D1*
X1633737Y1411112D1*
X1635943Y1404322D1*
X1637060Y1397270D1*
Y1390130D1*
X1635943Y1383078D1*
X1633737Y1376288D1*
X1630495Y1369926D1*
X1626298Y1364150D1*
X1621250Y1359102D1*
X1615474Y1354905D1*
X1609112Y1351663D1*
X1602322Y1349457D1*
X1595270Y1348340D1*
X1588061Y1348348D1*
X1566151Y1326431D1*
X1566082Y1315979D1*
X1565357Y1311407D1*
X1563927Y1307004D1*
X1561825Y1302879D1*
X1559104Y1299134D1*
X1523201Y1263103D1*
X1523200Y1231865D1*
X539199Y1698333D2*
X541529Y1705310D1*
X545552Y1713205D1*
X550760Y1720374D1*
X557026Y1726640D1*
X564195Y1731848D1*
X567474Y1733685D1*
X561393Y1737385D1*
X555656Y1741969D1*
X550562Y1747259D1*
X546197Y1753166D1*
X543701Y1757465D1*
X539203Y1750277D1*
X539200Y1698475D1*
X2343715Y1809926D2*
X2348015Y1816892D1*
X2353770Y1823630D1*
X2360508Y1829385D1*
X2368063Y1834015D1*
X2376250Y1837406D1*
X2384866Y1839475D1*
X2393700Y1840170D1*
X2402534Y1839475D1*
X2411150Y1837406D1*
X2419337Y1834015D1*
X2426892Y1829385D1*
X2433630Y1823630D1*
X2439385Y1816892D1*
X2443685Y1809926D1*
X2448015Y1816892D1*
X2453770Y1823630D1*
X2460508Y1829385D1*
X2468063Y1834015D1*
X2476250Y1837406D1*
X2484866Y1839475D1*
X2493700Y1840170D1*
X2502534Y1839475D1*
X2511150Y1837406D1*
X2519337Y1834015D1*
X2520198Y1833533D1*
X2520291Y1858015D1*
X2521015Y1862587D1*
X2522445Y1866989D1*
X2524547Y1871114D1*
X2527268Y1874859D1*
X2528847Y1876566D1*
X2530098Y1880672D1*
X2480672D1*
Y1903990D1*
X2477543Y1899962D1*
X2471438Y1893857D1*
X2464452Y1888781D1*
X2456758Y1884861D1*
X2448546Y1882193D1*
X2440017Y1880842D1*
X2431383D1*
X2422854Y1882193D1*
X2414642Y1884861D1*
X2406948Y1888781D1*
X2399962Y1893857D1*
X2393857Y1899962D1*
X2388781Y1906948D1*
X2384861Y1914642D1*
X2382193Y1922854D1*
X2380842Y1931383D1*
X2380672Y1954073D1*
Y2000184D1*
X2377339Y2005964D1*
X2373406Y2015459D1*
X2371006Y2025454D1*
X2370200Y2035700D1*
Y2298193D1*
X2163829Y2298200D1*
X2138433Y2272802D1*
X2146994Y2272340D1*
X2154208Y2270959D1*
X2161189Y2268680D1*
X2167827Y2265537D1*
X2174016Y2261583D1*
X2179656Y2256879D1*
X2184658Y2251502D1*
X2188941Y2245536D1*
X2189695Y2244289D1*
X2192696Y2248850D1*
X2198617Y2255783D1*
X2205550Y2261704D1*
X2213323Y2266467D1*
X2221746Y2269956D1*
X2230611Y2272084D1*
X2239700Y2272800D1*
X2248789Y2272084D1*
X2257654Y2269956D1*
X2266077Y2266467D1*
X2273850Y2261704D1*
X2280783Y2255783D1*
X2286704Y2248850D1*
X2291467Y2241077D1*
X2294956Y2232654D1*
X2297084Y2223789D1*
X2297800Y2214700D1*
X2297084Y2205611D1*
X2294956Y2196746D1*
X2291467Y2188323D1*
X2286704Y2180550D1*
X2280783Y2173617D1*
X2273850Y2167696D1*
X2266077Y2162933D1*
X2257654Y2159444D1*
X2248789Y2157316D1*
X2239700Y2156600D1*
X2230611Y2157316D1*
X2221746Y2159444D1*
X2213323Y2162933D1*
X2205550Y2167696D1*
X2198617Y2173617D1*
X2192696Y2180550D1*
X2189718Y2185136D1*
X2185453Y2178891D1*
X2180570Y2173405D1*
X2175034Y2168580D1*
X2168933Y2164490D1*
X2162366Y2161204D1*
X2155436Y2158772D1*
X2148254Y2157233D1*
X2140937Y2156613D1*
X2133599Y2156922D1*
X2126359Y2158153D1*
X2119332Y2160288D1*
X2112630Y2163292D1*
X2106361Y2167118D1*
X2103204Y2169498D1*
X2103200Y2005029D1*
X2107693Y2009831D1*
X2113327Y2014541D1*
X2119511Y2018503D1*
X2126145Y2021653D1*
X2133124Y2023942D1*
X2140336Y2025331D1*
X2147665Y2025800D1*
X2154994Y2025340D1*
X2162208Y2023959D1*
X2169189Y2021680D1*
X2175827Y2018537D1*
X2182016Y2014583D1*
X2187656Y2009879D1*
X2192658Y2004502D1*
X2196941Y1998536D1*
X2197695Y1997289D1*
X2200696Y2001850D1*
X2206617Y2008783D1*
X2213550Y2014704D1*
X2221323Y2019467D1*
X2229746Y2022956D1*
X2238611Y2025084D1*
X2247700Y2025800D1*
X2256789Y2025084D1*
X2265654Y2022956D1*
X2274077Y2019467D1*
X2281850Y2014704D1*
X2288783Y2008783D1*
X2294704Y2001850D1*
X2299467Y1994077D1*
X2302956Y1985654D1*
X2305084Y1976789D1*
X2305800Y1967700D1*
X2305084Y1958611D1*
X2302956Y1949746D1*
X2299467Y1941323D1*
X2294704Y1933550D1*
X2288783Y1926617D1*
X2281850Y1920696D1*
X2274714Y1916290D1*
X2274700Y1836902D1*
X2280517Y1838610D1*
X2289269Y1839996D1*
X2298131D1*
X2306883Y1838610D1*
X2315310Y1835871D1*
X2323205Y1831848D1*
X2330374Y1826640D1*
X2336640Y1820374D1*
X2341848Y1813205D1*
X2343685Y1809926D1*
X1055568Y1363902D2*
X1062031Y1362112D1*
X1068807Y1359281D1*
X1075159Y1355595D1*
X1080979Y1351116D1*
X1086168Y1345919D1*
X1090639Y1340093D1*
X1093695Y1334942D1*
X1097093Y1340584D1*
X1101625Y1346363D1*
X1106868Y1351505D1*
X1112735Y1355923D1*
X1119125Y1359542D1*
X1125931Y1362301D1*
X1133037Y1364154D1*
X1140324Y1365069D1*
X1147668Y1365030D1*
X1154944Y1364039D1*
X1162031Y1362112D1*
X1168807Y1359281D1*
X1175159Y1355595D1*
X1180979Y1351116D1*
X1186168Y1345919D1*
X1190639Y1340093D1*
X1194316Y1333736D1*
X1197137Y1326956D1*
X1199055Y1319867D1*
X1199382Y1318095D1*
X1209408Y1327613D1*
X1213354Y1330032D1*
X1217631Y1331803D1*
X1222132Y1332884D1*
X1226756Y1333247D1*
X1288857Y1333297D1*
X1293906Y1338346D1*
X1299682Y1342542D1*
X1306044Y1345784D1*
X1312834Y1347990D1*
X1319886Y1349107D1*
X1327026D1*
X1334078Y1347990D1*
X1340868Y1345784D1*
X1347230Y1342542D1*
X1353006Y1338346D1*
X1358054Y1333297D1*
X1362251Y1327521D1*
X1365492Y1321159D1*
X1367699Y1314369D1*
X1368023Y1312740D1*
X1383195Y1327915D1*
X1379890Y1331956D1*
X1376159Y1338043D1*
X1373427Y1344640D1*
X1371760Y1351582D1*
X1371200Y1358700D1*
X1371760Y1365818D1*
X1373427Y1372760D1*
X1376159Y1379357D1*
X1379890Y1385444D1*
X1384527Y1390873D1*
X1389956Y1395510D1*
X1395082Y1398702D1*
X1090393Y1398700D1*
X1055554Y1363885D1*
X1985405Y923727D2*
X2008728D1*
Y900410D1*
X2012748Y905455D1*
X2018006Y910581D1*
X2023901Y914961D1*
X2030726Y918696D1*
X2024948Y921781D1*
X2017962Y926857D1*
X2011679Y933188D1*
X1995747Y933200D1*
X1989438Y926857D1*
X1985357Y923722D1*
X2076680Y918698D2*
X2083067Y915236D1*
X2089002Y910911D1*
X2094308Y905835D1*
X2098892Y900097D1*
X2102670Y893800D1*
X2103703Y891687D1*
X2107210Y898139D1*
X2111544Y904068D1*
X2116628Y909366D1*
X2122373Y913940D1*
X2128676Y917709D1*
X2130726Y918696D1*
X2124948Y921781D1*
X2117962Y926857D1*
X2111679Y933188D1*
X2095747Y933200D1*
X2089438Y926857D1*
X2082452Y921781D1*
X2076643Y918730D1*
X2456680Y918698D2*
X2463067Y915236D1*
X2469002Y910911D1*
X2474308Y905835D1*
X2478892Y900097D1*
X2482670Y893800D1*
X2483703Y891687D1*
X2487210Y898139D1*
X2491544Y904068D1*
X2496628Y909366D1*
X2502373Y913940D1*
X2508676Y917709D1*
X2510726Y918696D1*
X2504948Y921781D1*
X2502829Y923197D1*
X2464623Y923200D1*
X2458682Y919670D1*
X2456643Y918730D1*
X2208698Y1924694D2*
X2203521Y1929967D1*
X2198162Y1937343D1*
X2197605Y1937949D1*
X2193453Y1931891D1*
X2188570Y1926405D1*
X2183034Y1921580D1*
X2176933Y1917490D1*
X2172893Y1915354D1*
X2177560Y1911560D1*
X2208694Y1880426D1*
X2208700Y1924638D1*
X2664605Y1325863D2*
X2663942Y1318548D1*
X2662403Y1311367D1*
X2660012Y1304422D1*
X2656802Y1297816D1*
X2652821Y1291644D1*
X2648126Y1285996D1*
X2642785Y1280954D1*
X2636877Y1276591D1*
X2630487Y1272971D1*
X2623707Y1270145D1*
X2616637Y1268156D1*
X2609379Y1267032D1*
X2602038Y1266790D1*
X2594722Y1267432D1*
X2587536Y1268950D1*
X2580585Y1271322D1*
X2573969Y1274512D1*
X2567786Y1278476D1*
X2562124Y1283155D1*
X2557067Y1288480D1*
X2552687Y1294376D1*
X2549048Y1300756D1*
X2546203Y1307527D1*
X2544194Y1314592D1*
X2543049Y1321846D1*
X2542785Y1329186D1*
X2543406Y1336505D1*
X2544904Y1343695D1*
X2547255Y1350653D1*
X2550427Y1357278D1*
X2554373Y1363472D1*
X2559035Y1369147D1*
X2564346Y1374220D1*
X2570229Y1378617D1*
X2576599Y1382274D1*
X2583362Y1385139D1*
X2590420Y1387168D1*
X2597672Y1388334D1*
X2605011Y1388619D1*
X2612331Y1388019D1*
X2619526Y1386542D1*
X2626490Y1384210D1*
X2633124Y1381058D1*
X2639330Y1377130D1*
X2645019Y1372484D1*
X2650107Y1367187D1*
X2654521Y1361317D1*
X2658196Y1354958D1*
X2661080Y1348203D1*
X2663130Y1341151D1*
X2664317Y1333903D1*
X2664605Y1325863D1*
X2619052Y2395918D2*
X2619482Y2403387D1*
X2620740Y2410623D1*
X2622808Y2417671D1*
X2625660Y2424440D1*
X2629258Y2430844D1*
X2633558Y2436799D1*
X2638503Y2442230D1*
X2644030Y2447068D1*
X2650068Y2451249D1*
X2656541Y2454722D1*
X2663365Y2457440D1*
X2670452Y2459369D1*
X2677712Y2460485D1*
X2685052Y2460773D1*
X2692377Y2460229D1*
X2699593Y2458861D1*
X2706609Y2456686D1*
X2713334Y2453731D1*
X2719681Y2450036D1*
X2725570Y2445646D1*
X2730926Y2440619D1*
X2735678Y2435018D1*
X2739767Y2428917D1*
X2743140Y2422392D1*
X2745754Y2415527D1*
X2747575Y2408412D1*
X2748580Y2401135D1*
X2748791Y2390401D1*
X2748557Y2291982D1*
X2747520Y2284711D1*
X2745668Y2277603D1*
X2743024Y2270750D1*
X2739623Y2264240D1*
X2735507Y2258156D1*
X2730730Y2252576D1*
X2725353Y2247573D1*
X2719445Y2243209D1*
X2713081Y2239541D1*
X2706343Y2236616D1*
X2699318Y2234471D1*
X2692096Y2233135D1*
X2684768Y2232623D1*
X2677430Y2232943D1*
X2670175Y2234090D1*
X2663096Y2236051D1*
X2656285Y2238799D1*
X2649827Y2242299D1*
X2643807Y2246507D1*
X2638301Y2251368D1*
X2633380Y2256821D1*
X2629106Y2262795D1*
X2625536Y2269214D1*
X2622714Y2275996D1*
X2620677Y2283053D1*
X2619450Y2290295D1*
X2619051Y2297636D1*
Y2395752D1*
X2516591Y2474750D2*
X2508282Y2475278D1*
X2501062Y2476631D1*
X2494042Y2478791D1*
X2487311Y2481731D1*
X2480955Y2485412D1*
X2475056Y2489789D1*
X2469690Y2494805D1*
X2464925Y2500395D1*
X2460823Y2506487D1*
X2457436Y2513005D1*
X2454807Y2519864D1*
X2452971Y2526975D1*
X2451950Y2534249D1*
X2451758Y2541592D1*
X2452397Y2548909D1*
X2453859Y2556107D1*
X2456126Y2563094D1*
X2459168Y2569780D1*
X2462947Y2576078D1*
X2467413Y2581910D1*
X2472510Y2587199D1*
X2478172Y2591878D1*
X2484326Y2595887D1*
X2490895Y2599174D1*
X2497793Y2601698D1*
X2504932Y2603426D1*
X2512220Y2604336D1*
X2529459Y2604483D1*
X2619824Y2604306D1*
X2627107Y2603348D1*
X2634234Y2601573D1*
X2641115Y2599005D1*
X2647662Y2595674D1*
X2653790Y2591625D1*
X2659422Y2586909D1*
X2664484Y2581587D1*
X2668912Y2575726D1*
X2672649Y2569403D1*
X2675647Y2562697D1*
X2677868Y2555696D1*
X2679283Y2548489D1*
X2679874Y2541167D1*
X2679659Y2534108D1*
X2678622Y2526837D1*
X2676770Y2519729D1*
X2674126Y2512876D1*
X2670725Y2506366D1*
X2666609Y2500282D1*
X2661832Y2494702D1*
X2656455Y2489699D1*
X2650547Y2485335D1*
X2644183Y2481667D1*
X2637446Y2478742D1*
X2630420Y2476597D1*
X2623198Y2475260D1*
X2615023Y2474743D1*
X2516598Y2474750D1*
X1199389Y1318109D2*
X1207588Y1326179D1*
X1209408Y1327613D1*
X911747Y2055905D2*
D25*
X952024Y2015628D1*
Y2096182D2*
X911747Y2055905D1*
X738330Y2519085D2*
X871778Y2385638D1*
X805054Y2452361D2*
X738330Y2385638D1*
Y2001762D2*
X805054Y1935039D1*
X738330Y1868315D1*
X1582279Y2629531D2*
X1663389Y2548420D1*
Y2629531D2*
X1582279Y2548420D1*
X1482279Y2629531D2*
X1563389Y2548420D1*
Y2629531D2*
X1482279Y2548420D1*
X2142279Y729531D2*
X2182834Y688976D1*
X2142279Y648420D1*
X453795Y1223605D2*
X493700Y1183700D1*
X453795Y1143795D1*
X553795Y1823605D2*
X633605Y1743795D1*
Y1823605D2*
X553795Y1743795D1*
X1853795Y1823605D2*
X1893700Y1783700D1*
X1933605Y1823605D2*
X1853795Y1743795D1*
X1043700Y1308700D2*
X1083605Y1268795D1*
Y1348605D2*
X1043700Y1308700D1*
X1103795Y1348605D2*
X1143700Y1308700D1*
X1183605Y1348605D2*
X1103795Y1268795D1*
X1953700Y868700D2*
X2008702Y813698D1*
Y923702D2*
X1953700Y868700D1*
X2014815Y907585D2*
X2092585Y829815D1*
Y907585D2*
X2014815Y829815D1*
X2114815Y907585D2*
X2192585Y829815D1*
Y907585D2*
X2114815Y829815D1*
X2278698Y923702D2*
X2333700Y868700D1*
X2433700D2*
X2472585Y829815D1*
Y907585D2*
X2394815Y829815D1*
X2494815Y907585D2*
X2572585Y829815D1*
Y907585D2*
X2494815Y829815D1*
X2139700Y2214700D2*
X2180757Y2173643D1*
Y2255757D2*
X2098643Y2173643D1*
X2106643Y2008757D2*
X2188757Y1926643D1*
Y2008757D2*
X2147700Y1967700D1*
X1674225Y2437175D2*
X1736700Y2374700D1*
X1674225Y2312225D1*
X2535700Y1935700D2*
X2480698Y1880698D1*
X2496815Y2074585D2*
X2535700Y2035700D1*
X2574585Y2074585D2*
X2535700Y2035700D1*
X2560639Y1370761D2*
X2646761Y1284639D1*
Y1370761D2*
X2560639Y1284639D1*
X2627969Y2428710D2*
X2739872Y2264690D1*
Y2428710D2*
X2627969Y2264690D1*
X2483800Y2595565D2*
X2647821Y2483662D1*
Y2595565D2*
X2483800Y2483662D1*
D27*
X1736700Y2474700D3*
D28*
Y2374700D3*
D27*
Y2274700D3*
Y2174700D3*
X1731700Y2074700D3*
D30*
X1593700Y2793700D3*
D31*
X1493700D3*
X1393700D3*
X1293700D3*
X1193700D3*
X1093700D3*
X993700D3*
D30*
X843700D3*
D31*
X743700D3*
X643700D3*
X543700D3*
D30*
X493700Y518700D3*
D31*
X593700D3*
X693700D3*
X793700D3*
X893700D3*
X993700D3*
X1093700D3*
X1193700D3*
D30*
X1343700D3*
D31*
X1443700D3*
X1543700D3*
X1643700D3*
X1743700D3*
D30*
X1922830Y2468700D3*
D31*
X2022830D3*
X2122830D3*
D33*
X911747Y2331495D3*
D34*
Y2233070D3*
Y2154330D3*
Y2055905D3*
D35*
X805054Y2452361D3*
Y1935039D3*
D36*
X1222834Y2588976D3*
D37*
X1122834D3*
X1022834D3*
X922834D3*
X822834D3*
X722834D3*
D36*
X2122834D3*
D37*
X2022834D3*
X1922834D3*
X1822834D3*
X1722834D3*
X1622834D3*
X1522834D3*
X1422834D3*
D36*
X722834Y688976D3*
D37*
X822834D3*
X922834D3*
X1022834D3*
X1122834D3*
X1222834D3*
X1322834D3*
X1422834D3*
D36*
X1582834D3*
D37*
X1682834D3*
X1782834D3*
X1882834D3*
X1982834D3*
X2082834D3*
X2182834D3*
X2282834D3*
X2382834D3*
X2482834D3*
D38*
X2447700Y2346700D3*
D39*
X2683920D3*
D40*
X2565810Y2539613D3*
D41*
X2603700Y1327700D3*
D42*
X2210787D3*
D30*
X1893700Y518700D3*
D31*
X1993700D3*
X2093700D3*
X2193700D3*
X2293700D3*
X2393700D3*
D30*
X2543700D3*
D31*
X2643700D3*
X2743700D3*
D30*
X2593700Y2793700D3*
D31*
X2493700D3*
X2393700D3*
D30*
X2243700D3*
D31*
X2143700D3*
X2043700D3*
X1943700D3*
X1843700D3*
X1743700D3*
D30*
X1867700Y1075700D3*
D44*
X1775700Y913700D3*
Y948700D3*
Y983700D3*
D30*
X1031700Y2118700D3*
D31*
Y2218700D3*
D30*
X2333700Y868700D3*
D31*
Y968700D3*
X2433700Y868700D3*
Y968700D3*
X2533700Y868700D3*
Y968700D3*
D30*
X1953700Y868700D3*
D31*
Y968700D3*
X2053700Y868700D3*
Y968700D3*
X2153700Y868700D3*
Y968700D3*
D30*
X2535700Y1935700D3*
D31*
X2435700D3*
X2535700Y2035700D3*
X2435700D3*
D30*
X1658700Y1022440D3*
D31*
Y864960D3*
D47*
X2239700Y2214700D3*
X2139700D3*
X2039700D3*
X1939700D3*
X2247700Y1967700D3*
X2147700D3*
X2047700D3*
X1947700D3*
D27*
X1272700Y1931700D3*
X1372700D3*
X1472700D3*
D51*
X656133Y1403700D3*
X620700D3*
X666133Y1541700D3*
X630700D3*
D53*
X493700Y1183700D3*
X593700D3*
X693700D3*
X793700D3*
X893700D3*
X993700D3*
X1093700D3*
X1193700D3*
X1293700D3*
X1393700D3*
X1493700D3*
X1593700D3*
X1693700D3*
X1793700D3*
X2293700Y1283700D3*
X593700Y1683700D3*
D54*
X515700Y1528700D3*
Y1438700D3*
D53*
X2093700Y1783700D3*
X1793700D3*
X1693700D3*
X1593700D3*
X1493700D3*
X1393700D3*
X1293700D3*
X1193700D3*
X1093700D3*
X993700D3*
X893700D3*
X793700D3*
X693700D3*
X593700D3*
X493700D3*
X743700Y1308700D3*
X843700D3*
X943700D3*
X2393700Y1183700D3*
X2493700D3*
X2293700D3*
X2193700D3*
X2093700D3*
X1993700D3*
X2593700D3*
X2693700D3*
X2793700D3*
Y1783700D3*
X1893700Y1183700D3*
X2693700Y1783700D3*
X1893700D3*
X2593700D3*
X2393700D3*
X2293700D3*
X2193700D3*
X2493700D3*
X1993700D3*
X1043700Y1308700D3*
X1143700D3*
M02*
