G04 DipTrace 3.3.1.3*
G04 T4LSSArduinoShield.gbs*
%MOIN*%
G04 #@! TF.FileFunction,Soldermask,Bot*
G04 #@! TF.Part,Single*
%ADD15C,0.04*%
%ADD27C,0.074*%
%ADD28R,0.074X0.074*%
%ADD44R,0.05X0.025*%
%ADD47C,0.065199*%
%ADD51R,0.025X0.05*%
%ADD53C,0.06194*%
%ADD54C,0.074*%
%ADD66C,0.142*%
%ADD68C,0.042*%
%ADD92R,0.072866X0.072866*%
%ADD94C,0.072866*%
%ADD96O,0.179165X0.08074*%
%ADD98O,0.08074X0.179165*%
%ADD100O,0.08074X0.19885*%
%ADD102C,0.06578*%
%ADD104R,0.06578X0.06578*%
%ADD106C,0.139795*%
%ADD108C,0.064992*%
%ADD110R,0.064992X0.064992*%
%ADD114C,0.061055*%
%ADD116R,0.061055X0.061055*%
%FSLAX26Y26*%
G04*
G70*
G90*
G75*
G01*
G04 BotMask*
%LPD*%
D68*
X931700Y1728700D3*
X1525700Y781700D3*
X1295700D3*
X1206700Y931102D3*
X1806700Y1966700D3*
X1702700Y1571700D3*
X911700Y976700D3*
X1751700Y851700D3*
X2129700Y1279700D3*
X1957700Y1654700D3*
X1190700Y754700D3*
X1991700Y605700D3*
X1323700Y1537700D3*
X2669700Y2108700D3*
X2398700Y1426700D3*
X1672700Y2824700D3*
X2335700Y2728700D3*
X604700Y2440700D3*
X1337700Y2405700D3*
X1780165Y1376700D3*
X1680700Y1113700D3*
X1416700Y1358700D3*
X924700Y1033700D3*
X1997700Y1262700D3*
D66*
X2795275Y688976D3*
X511810D3*
Y2618109D3*
X2795275D3*
D15*
X835228Y2668869D3*
X1056834D3*
X1897700Y1661700D3*
X2391700Y1068700D3*
X1952700Y1089700D3*
X2333700Y2447700D3*
X774700Y1632700D3*
X493700Y1671188D3*
X674700Y1035700D3*
X898700Y1587700D3*
X2336700Y761700D3*
Y1121700D3*
X2068700Y1890700D3*
X1343700Y1137700D3*
X2336700Y1399700D3*
X1586700Y872700D3*
X1700700Y596700D3*
X1456700Y1501700D3*
X1402700Y1553700D3*
X2357700Y1542700D3*
X2617700Y2128700D3*
X1536700Y1600700D3*
X605700Y2373700D3*
X1468672Y1323700D3*
X1591700Y1393700D3*
X1636672Y1542523D3*
X1050672Y1622511D3*
X2793700Y2023767D3*
X1323700Y1468700D3*
X1323456Y1303747D3*
X2495700Y1026700D3*
X2729700Y786700D3*
X2785590Y960665D3*
D27*
X1736700Y2474700D3*
D28*
Y2374700D3*
D27*
Y2274700D3*
Y2174700D3*
X1731700Y2074700D3*
D116*
X1593700Y2793700D3*
D114*
X1493700D3*
X1393700D3*
X1293700D3*
X1193700D3*
X1093700D3*
X993700D3*
D116*
X843700D3*
D114*
X743700D3*
X643700D3*
X543700D3*
D116*
X493700Y518700D3*
D114*
X593700D3*
X693700D3*
X793700D3*
X893700D3*
X993700D3*
X1093700D3*
X1193700D3*
D116*
X1343700D3*
D114*
X1443700D3*
X1543700D3*
X1643700D3*
X1743700D3*
D116*
X1922830Y2468700D3*
D114*
X2022830D3*
X2122830D3*
D110*
X911747Y2331495D3*
D108*
Y2233070D3*
Y2154330D3*
Y2055905D3*
D106*
X805054Y2452361D3*
Y1935039D3*
D104*
X1222834Y2588976D3*
D102*
X1122834D3*
X1022834D3*
X922834D3*
X822834D3*
X722834D3*
D104*
X2122834D3*
D102*
X2022834D3*
X1922834D3*
X1822834D3*
X1722834D3*
X1622834D3*
X1522834D3*
X1422834D3*
D104*
X722834Y688976D3*
D102*
X822834D3*
X922834D3*
X1022834D3*
X1122834D3*
X1222834D3*
X1322834D3*
X1422834D3*
D104*
X1582834D3*
D102*
X1682834D3*
X1782834D3*
X1882834D3*
X1982834D3*
X2082834D3*
X2182834D3*
X2282834D3*
X2382834D3*
X2482834D3*
D100*
X2447700Y2346700D3*
D98*
X2683920D3*
D96*
X2565810Y2539613D3*
D94*
X2603700Y1327700D3*
D92*
X2210787D3*
D116*
X1893700Y518700D3*
D114*
X1993700D3*
X2093700D3*
X2193700D3*
X2293700D3*
X2393700D3*
D116*
X2543700D3*
D114*
X2643700D3*
X2743700D3*
D116*
X2593700Y2793700D3*
D114*
X2493700D3*
X2393700D3*
D116*
X2243700D3*
D114*
X2143700D3*
X2043700D3*
X1943700D3*
X1843700D3*
X1743700D3*
D116*
X1867700Y1075700D3*
D44*
X1775700Y913700D3*
Y948700D3*
Y983700D3*
D116*
X1031700Y2118700D3*
D114*
Y2218700D3*
D116*
X2333700Y868700D3*
D114*
Y968700D3*
X2433700Y868700D3*
Y968700D3*
X2533700Y868700D3*
Y968700D3*
D116*
X1953700Y868700D3*
D114*
Y968700D3*
X2053700Y868700D3*
Y968700D3*
X2153700Y868700D3*
Y968700D3*
D116*
X2535700Y1935700D3*
D114*
X2435700D3*
X2535700Y2035700D3*
X2435700D3*
D116*
X1658700Y1022440D3*
D114*
Y864960D3*
D47*
X2239700Y2214700D3*
X2139700D3*
X2039700D3*
X1939700D3*
X2247700Y1967700D3*
X2147700D3*
X2047700D3*
X1947700D3*
D27*
X1272700Y1931700D3*
X1372700D3*
X1472700D3*
D51*
X656133Y1403700D3*
X620700D3*
X666133Y1541700D3*
X630700D3*
D53*
X493700Y1183700D3*
X593700D3*
X693700D3*
X793700D3*
X893700D3*
X993700D3*
X1093700D3*
X1193700D3*
X1293700D3*
X1393700D3*
X1493700D3*
X1593700D3*
X1693700D3*
X1793700D3*
X2293700Y1283700D3*
X593700Y1683700D3*
D54*
X515700Y1528700D3*
Y1438700D3*
D53*
X2093700Y1783700D3*
X1793700D3*
X1693700D3*
X1593700D3*
X1493700D3*
X1393700D3*
X1293700D3*
X1193700D3*
X1093700D3*
X993700D3*
X893700D3*
X793700D3*
X693700D3*
X593700D3*
X493700D3*
X743700Y1308700D3*
X843700D3*
X943700D3*
X2393700Y1183700D3*
X2493700D3*
X2293700D3*
X2193700D3*
X2093700D3*
X1993700D3*
X2593700D3*
X2693700D3*
X2793700D3*
Y1783700D3*
X1893700Y1183700D3*
X2693700Y1783700D3*
X1893700D3*
X2593700D3*
X2393700D3*
X2293700D3*
X2193700D3*
X2493700D3*
X1993700D3*
X1043700Y1308700D3*
X1143700D3*
M02*
