M48
INCH
T01C0.0191
T02C0.0354
T03C0.0362
T04C0.038
T05C0.0394
T06C0.04
T07C0.0402
T08C0.0433
T09C0.0906
T10C0.1
%
T01
X+008352Y+026689
X+010568Y+026689
X+013377Y+024057
X+016727Y+028247
X+023357Y+027287
X+023337Y+024477
X+026177Y+021287
X+026697Y+021087
X+027937Y+020238
X+023577Y+015427
X+023987Y+014267
X+023367Y+013997
X+021297Y+012797
X+019977Y+012627
X+019527Y+010897
X+016807Y+011137
X+015867Y+008727
X+015257Y+007817
X+012957Y+007817
X+011907Y+007547
X+012067Y+009311
X+013437Y+011377
X+013235Y+013037
X+014167Y+013587
X+014687Y+013237
X+015917Y+013937
X+016367Y+015425
X+017027Y+015717
X+015367Y+016007
X+014567Y+015017
X+014027Y+015537
X+013237Y+015377
X+013237Y+014687
X+010507Y+016225
X+008987Y+015877
X+007747Y+016327
X+009317Y+017287
X+004937Y+016712
X+006747Y+010357
X+009117Y+009767
X+009247Y+010337
X+017517Y+008517
X+017007Y+005967
X+019917Y+006057
X+023367Y+007617
X+024957Y+010267
X+023917Y+010687
X+023367Y+011217
X+027856Y+009607
X+027297Y+007867
X+017802Y+013767
X+018977Y+016617
X+019577Y+016547
X+020687Y+018907
X+018067Y+019667
X+006057Y+023737
X+006047Y+024407
T02
X+015937Y+027937
X+014937Y+027937
X+013937Y+027937
X+012937Y+027937
X+011937Y+027937
X+010937Y+027937
X+009937Y+027937
X+008437Y+027937
X+007437Y+027937
X+006437Y+027937
X+005437Y+027937
X+010317Y+022187
X+010317Y+021187
X+019228Y+024687
X+020228Y+024687
X+021228Y+024687
X+021437Y+027937
X+020437Y+027937
X+019437Y+027937
X+018437Y+027937
X+017437Y+027937
X+022437Y+027937
X+023937Y+027937
X+024937Y+027937
X+025937Y+027937
X+025357Y+020357
X+025357Y+019357
X+024357Y+019357
X+024357Y+020357
X+024337Y+009687
X+023337Y+009687
X+023337Y+008687
X+024337Y+008687
X+025337Y+008687
X+025337Y+009687
X+021537Y+009687
X+020537Y+009687
X+019537Y+009687
X+019537Y+008687
X+020537Y+008687
X+021537Y+008687
X+021937Y+005187
X+022937Y+005187
X+023937Y+005187
X+025437Y+005187
X+026437Y+005187
X+027437Y+005187
X+020937Y+005187
X+019937Y+005187
X+018937Y+005187
X+017437Y+005187
X+016437Y+005187
X+015437Y+005187
X+014437Y+005187
X+013437Y+005187
X+011937Y+005187
X+010937Y+005187
X+009937Y+005187
X+008937Y+005187
X+007937Y+005187
X+006937Y+005187
X+005937Y+005187
X+004937Y+005187
X+016587Y+008650
X+016587Y+010224
X+018677Y+010757
T03
X+009117Y+023315
X+009117Y+022331
X+009117Y+021543
X+009117Y+020559
T04
X+004937Y+011837
X+005937Y+011837
X+006937Y+011837
X+007937Y+011837
X+008937Y+011837
X+009937Y+011837
X+010937Y+011837
X+011937Y+011837
X+012937Y+011837
X+013937Y+011837
X+014937Y+011837
X+015937Y+011837
X+016937Y+011837
X+017937Y+011837
X+018937Y+011837
X+019937Y+011837
X+020937Y+011837
X+021937Y+011837
X+022937Y+011837
X+022937Y+012837
X+023937Y+011837
X+024937Y+011837
X+025937Y+011837
X+026937Y+011837
X+027937Y+011837
X+027937Y+017837
X+026937Y+017837
X+025937Y+017837
X+024937Y+017837
X+023937Y+017837
X+022937Y+017837
X+021937Y+017837
X+020937Y+017837
X+019937Y+017837
X+018937Y+017837
X+017937Y+017837
X+016937Y+017837
X+015937Y+017837
X+014937Y+017837
X+013937Y+017837
X+012937Y+017837
X+011937Y+017837
X+010937Y+017837
X+009937Y+017837
X+008937Y+017837
X+007937Y+017837
X+006937Y+017837
X+005937Y+017837
X+004937Y+017837
X+005937Y+016837
X+007437Y+013087
X+008437Y+013087
X+009437Y+013087
X+010437Y+013087
X+011437Y+013087
T05
X+024477Y+022876G85X+024477Y+024058
X+026150Y+025396G85X+025166Y+025396
X+026839Y+022975G85X+026839Y+023959
T06
X+017367Y+024747
X+017367Y+023747
X+017367Y+022747
X+017367Y+021747
X+017317Y+020747
X+019477Y+019677
X+020477Y+019677
X+021477Y+019677
X+022477Y+019677
X+022397Y+022147
X+021397Y+022147
X+020397Y+022147
X+019397Y+022147
X+014727Y+019317
X+013727Y+019317
X+012727Y+019317
X+005157Y+015287
X+005157Y+014387
T07
X+012228Y+025890
X+011228Y+025890
X+010228Y+025890
X+009228Y+025890
X+008228Y+025890
X+007228Y+025890
X+014228Y+025890
X+015228Y+025890
X+016228Y+025890
X+017228Y+025890
X+018228Y+025890
X+019228Y+025890
X+020228Y+025890
X+021228Y+025890
X+020828Y+006890
X+019828Y+006890
X+018828Y+006890
X+017828Y+006890
X+016828Y+006890
X+015828Y+006890
X+014228Y+006890
X+013228Y+006890
X+012228Y+006890
X+011228Y+006890
X+010228Y+006890
X+009228Y+006890
X+008228Y+006890
X+007228Y+006890
X+021828Y+006890
X+022828Y+006890
X+023828Y+006890
X+024828Y+006890
T08
X+026037Y+013277
X+022108Y+013277
T09
X+008051Y+024524
X+008051Y+019350
T10
X+027953Y+006890
X+027953Y+026181
X+005118Y+026181
X+005118Y+006890
T00
M30
