M48
INCH
T01C0.0354
T02C0.0472
T03C0.0512
%
T01
X+004937Y+005657
X+004937Y+004657
X+027437Y+004857
X+027437Y+005857
X+028437Y+005857
X+028437Y+004857
T02
X+006469Y+005857
X+006469Y+004873
X+008437Y+007826
X+010406Y+005857
X+010406Y+004873
X+011719Y+004873
X+011719Y+005857
X+013687Y+007826
X+015656Y+005857
X+015656Y+004873
X+016969Y+004873
X+016969Y+005857
X+018937Y+007826
X+020906Y+005857
X+020906Y+004873
X+022219Y+004873
X+022219Y+005857
X+024187Y+007826
X+026156Y+005857
X+026156Y+004873
T03
X+008437Y+005857
X+007453Y+007826
X+006469Y+007826
X+009421Y+007826
X+010406Y+007826
X+011719Y+007826
X+012703Y+007826
X+014671Y+007826
X+015656Y+007826
X+016969Y+007826
X+017953Y+007826
X+019921Y+007826
X+020906Y+007826
X+022219Y+007826
X+023203Y+007826
X+025171Y+007826
X+026156Y+007826
X+024187Y+005857
X+018937Y+005857
X+013687Y+005857
T00
M30
