G04 DipTrace 3.0.0.2*
G04 WellMonitor.gbo*
%MOIN*%
G04 #@! TF.FileFunction,Legend,Bot*
G04 #@! TF.Part,Single*
%ADD10C,0.009843*%
%ADD37C,0.006176*%
%FSLAX26Y26*%
G04*
G70*
G90*
G75*
G01*
G04 BotSilk*
%LPD*%
X994272Y584462D2*
D10*
X943130D1*
X1519272D2*
X1468130D1*
X2044272D2*
X1993130D1*
X2569272D2*
X2518130D1*
X890146Y510211D2*
D37*
X886343Y512112D1*
X882496Y515959D1*
X880595Y519761D1*
Y527411D1*
X882496Y531257D1*
X886343Y535060D1*
X890146Y537005D1*
X895894Y538907D1*
X905488D1*
X911192Y537005D1*
X915039Y535060D1*
X918842Y531257D1*
X920787Y527411D1*
Y519761D1*
X918842Y515959D1*
X915039Y512112D1*
X911192Y510211D1*
X888289Y497859D2*
X886343Y494013D1*
X880639Y488265D1*
X920787D1*
X1415146Y518811D2*
X1411343Y520712D1*
X1407496Y524559D1*
X1405595Y528361D1*
Y536011D1*
X1407496Y539857D1*
X1411343Y543660D1*
X1415146Y545605D1*
X1420894Y547507D1*
X1430488D1*
X1436192Y545605D1*
X1440039Y543660D1*
X1443842Y539857D1*
X1445787Y536010D1*
Y528361D1*
X1443842Y524559D1*
X1440039Y520712D1*
X1436192Y518811D1*
X1415190Y504514D2*
X1413289D1*
X1409442Y502613D1*
X1407541Y500711D1*
X1405639Y496865D1*
Y489215D1*
X1407540Y485413D1*
X1409442Y483511D1*
X1413289Y481566D1*
X1417091D1*
X1420938Y483511D1*
X1426642Y487314D1*
X1445787Y506459D1*
Y479665D1*
X1940146Y518811D2*
X1936343Y520712D1*
X1932496Y524559D1*
X1930595Y528361D1*
Y536011D1*
X1932496Y539857D1*
X1936343Y543660D1*
X1940146Y545605D1*
X1945894Y547507D1*
X1955488D1*
X1961192Y545605D1*
X1965039Y543660D1*
X1968842Y539857D1*
X1970787Y536010D1*
Y528361D1*
X1968842Y524559D1*
X1965039Y520712D1*
X1961192Y518811D1*
X1930639Y502613D2*
Y481610D1*
X1945938Y493062D1*
Y487314D1*
X1947839Y483511D1*
X1949740Y481610D1*
X1955488Y479665D1*
X1959291D1*
X1965039Y481610D1*
X1968886Y485413D1*
X1970787Y491161D1*
Y496909D1*
X1968886Y502612D1*
X1966940Y504514D1*
X1963138Y506459D1*
X2465146Y519761D2*
X2461343Y521663D1*
X2457496Y525509D1*
X2455595Y529312D1*
Y536961D1*
X2457496Y540808D1*
X2461343Y544610D1*
X2465146Y546556D1*
X2470894Y548457D1*
X2480488D1*
X2486192Y546556D1*
X2490039Y544610D1*
X2493842Y540808D1*
X2495787Y536961D1*
Y529312D1*
X2493842Y525509D1*
X2490039Y521663D1*
X2486192Y519761D1*
X2495787Y488265D2*
X2455639D1*
X2482390Y507410D1*
Y478714D1*
X866475Y695071D2*
Y677872D1*
X864530Y672124D1*
X862629Y670178D1*
X858826Y668277D1*
X854979D1*
X851177Y670178D1*
X849231Y672124D1*
X847330Y677872D1*
Y695072D1*
X887522Y695071D1*
X866475Y681674D2*
X887522Y668277D1*
X855023Y655925D2*
X853078Y652079D1*
X847374Y646331D1*
X887522D1*
X775941Y538671D2*
Y521472D1*
X773995Y515724D1*
X772094Y513778D1*
X768292Y511877D1*
X764445D1*
X760642Y513778D1*
X758697Y515724D1*
X756796Y521472D1*
Y538671D1*
X796988D1*
X775941Y525274D2*
X796988Y511877D1*
X766390Y497580D2*
X764489D1*
X760642Y495679D1*
X758741Y493777D1*
X756840Y489931D1*
Y482281D1*
X758741Y478479D1*
X760642Y476578D1*
X764489Y474632D1*
X768292D1*
X772138Y476578D1*
X777842Y480380D1*
X796988Y499525D1*
Y472731D1*
X775941Y688671D2*
Y671472D1*
X773995Y665724D1*
X772094Y663778D1*
X768292Y661877D1*
X764445D1*
X760642Y663778D1*
X758697Y665724D1*
X756796Y671472D1*
Y688671D1*
X796988D1*
X775941Y675274D2*
X796988Y661877D1*
X756840Y645679D2*
Y624676D1*
X772138Y636128D1*
Y630380D1*
X774040Y626578D1*
X775941Y624676D1*
X781689Y622731D1*
X785491D1*
X791239Y624676D1*
X795086Y628479D1*
X796988Y634227D1*
Y639975D1*
X795086Y645679D1*
X793141Y647580D1*
X789338Y649525D1*
X1421357Y704622D2*
Y687422D1*
X1419412Y681674D1*
X1417510Y679729D1*
X1413708Y677827D1*
X1409861D1*
X1406059Y679729D1*
X1404113Y681674D1*
X1402212Y687422D1*
Y704622D1*
X1442404D1*
X1421357Y691225D2*
X1442404Y677827D1*
Y646331D2*
X1402256D1*
X1429007Y665476D1*
X1429006Y636780D1*
X1916191Y703671D2*
Y686472D1*
X1914245Y680724D1*
X1912344Y678778D1*
X1908541Y676877D1*
X1904694D1*
X1900892Y678778D1*
X1898946Y680724D1*
X1897045Y686472D1*
Y703671D1*
X1937237D1*
X1916191Y690274D2*
X1937237Y676877D1*
X1897089Y641578D2*
Y660679D1*
X1914289Y662580D1*
X1912388Y660679D1*
X1910442Y654931D1*
Y649227D1*
X1912388Y643479D1*
X1916190Y639632D1*
X1921939Y637731D1*
X1925741D1*
X1931489Y639632D1*
X1935336Y643479D1*
X1937237Y649227D1*
Y654931D1*
X1935336Y660679D1*
X1933390Y662580D1*
X1929588Y664525D1*
X2435902Y702699D2*
Y685499D1*
X2433956Y679751D1*
X2432055Y677805D1*
X2428253Y675904D1*
X2424406D1*
X2420603Y677805D1*
X2418658Y679751D1*
X2416756Y685499D1*
Y702699D1*
X2456948D1*
X2435902Y689301D2*
X2456948Y675904D1*
X2422504Y640605D2*
X2418702Y642506D1*
X2416801Y648254D1*
Y652057D1*
X2418702Y657805D1*
X2424450Y661651D1*
X2434001Y663553D1*
X2443551D1*
X2451200Y661651D1*
X2455047Y657805D1*
X2456948Y652057D1*
Y650155D1*
X2455047Y644452D1*
X2451200Y640605D1*
X2445452Y638704D1*
X2443551D1*
X2437803Y640605D1*
X2434001Y644452D1*
X2432099Y650155D1*
Y652057D1*
X2434001Y657805D1*
X2437803Y661651D1*
X2443551Y663553D1*
X1305941Y688671D2*
Y671472D1*
X1303995Y665724D1*
X1302094Y663778D1*
X1298292Y661877D1*
X1294445D1*
X1290642Y663778D1*
X1288697Y665724D1*
X1286796Y671472D1*
Y688671D1*
X1326988D1*
X1305941Y675274D2*
X1326988Y661877D1*
Y641876D2*
X1286840Y622731D1*
Y649525D1*
X1305941Y538649D2*
Y521449D1*
X1303995Y515701D1*
X1302094Y513756D1*
X1298292Y511855D1*
X1294445D1*
X1290642Y513756D1*
X1288697Y515701D1*
X1286796Y521449D1*
Y538649D1*
X1326988D1*
X1305941Y525252D2*
X1326988Y511855D1*
X1286840Y489953D2*
X1288741Y495657D1*
X1292544Y497602D1*
X1296390D1*
X1300193Y495657D1*
X1302138Y491854D1*
X1304040Y484205D1*
X1305941Y478457D1*
X1309788Y474654D1*
X1313590Y472753D1*
X1319338D1*
X1323141Y474654D1*
X1325086Y476555D1*
X1326988Y482303D1*
Y489953D1*
X1325086Y495656D1*
X1323141Y497602D1*
X1319338Y499503D1*
X1313590D1*
X1309788Y497602D1*
X1305941Y493755D1*
X1304040Y488051D1*
X1302138Y480402D1*
X1300193Y476555D1*
X1296390Y474654D1*
X1292544D1*
X1288741Y476555D1*
X1286840Y482303D1*
Y489953D1*
X1830941Y687721D2*
Y670521D1*
X1828995Y664773D1*
X1827094Y662827D1*
X1823292Y660926D1*
X1819445D1*
X1815642Y662827D1*
X1813697Y664773D1*
X1811796Y670521D1*
Y687721D1*
X1851988D1*
X1830941Y674323D2*
X1851988Y660926D1*
X1825193Y623681D2*
X1830941Y625627D1*
X1834788Y629429D1*
X1836689Y635177D1*
Y637079D1*
X1834788Y642827D1*
X1830941Y646629D1*
X1825193Y648575D1*
X1823292D1*
X1817544Y646629D1*
X1813741Y642827D1*
X1811840Y637079D1*
Y635177D1*
X1813741Y629429D1*
X1817544Y625627D1*
X1825193Y623681D1*
X1834788D1*
X1844338Y625627D1*
X1850086Y629429D1*
X1851988Y635177D1*
Y638980D1*
X1850086Y644728D1*
X1846240Y646629D1*
X1830941Y549644D2*
Y532445D1*
X1828995Y526697D1*
X1827094Y524751D1*
X1823292Y522850D1*
X1819445D1*
X1815642Y524751D1*
X1813697Y526697D1*
X1811796Y532445D1*
Y549645D1*
X1851988Y549644D1*
X1830941Y536247D2*
X1851988Y522850D1*
X1819489Y510498D2*
X1817544Y506652D1*
X1811840Y500904D1*
X1851988D1*
X1811840Y477056D2*
X1813741Y482804D1*
X1819489Y486651D1*
X1829040Y488552D1*
X1834788D1*
X1844338Y486651D1*
X1850086Y482804D1*
X1851988Y477056D1*
Y473254D1*
X1850086Y467506D1*
X1844338Y463703D1*
X1834788Y461758D1*
X1829040D1*
X1819489Y463703D1*
X1813741Y467506D1*
X1811840Y473254D1*
Y477056D1*
X1819489Y463703D2*
X1844338Y486651D1*
X2355941Y691045D2*
Y673845D1*
X2353995Y668097D1*
X2352094Y666151D1*
X2348292Y664250D1*
X2344445D1*
X2340642Y666151D1*
X2338697Y668097D1*
X2336796Y673845D1*
Y691045D1*
X2376988D1*
X2355941Y677647D2*
X2376988Y664250D1*
X2344489Y651899D2*
X2342544Y648052D1*
X2336840Y642304D1*
X2376988D1*
X2344489Y629952D2*
X2342544Y626106D1*
X2336840Y620358D1*
X2376988D1*
X2355941Y549644D2*
Y532445D1*
X2353995Y526697D1*
X2352094Y524751D1*
X2348292Y522850D1*
X2344445D1*
X2340642Y524751D1*
X2338697Y526697D1*
X2336796Y532445D1*
Y549645D1*
X2376988Y549644D1*
X2355941Y536247D2*
X2376988Y522850D1*
X2344489Y510498D2*
X2342544Y506652D1*
X2336840Y500904D1*
X2376988D1*
X2346390Y486607D2*
X2344489D1*
X2340642Y484706D1*
X2338741Y482804D1*
X2336840Y478958D1*
Y471308D1*
X2338741Y467506D1*
X2340642Y465604D1*
X2344489Y463659D1*
X2348292D1*
X2352138Y465604D1*
X2357842Y469407D1*
X2376988Y488552D1*
Y461758D1*
M02*
