G04 DipTrace 3.0.0.2*
G04 TeensyArbotixProRPIV0.2a.gts*
%MOIN*%
G04 #@! TF.FileFunction,Soldermask,Top*
G04 #@! TF.Part,Single*
%AMOUTLINE0*5,1,8,0,0,0.065199,-22.499571*%
%AMOUTLINE1*
4,1,4,
-0.0175,-0.025,
-0.0175,0.025,
0.0175,0.025,
0.0175,-0.025,
-0.0175,-0.025,
0*%
%AMOUTLINE2*
4,1,4,
0.0285,-0.0155,
-0.0285,-0.0155,
-0.0285,0.0155,
0.0285,0.0155,
0.0285,-0.0155,
0*%
%ADD13C,0.04*%
%ADD17C,0.05*%
%ADD30R,0.05X0.1*%
%ADD31R,0.1X0.05*%
%ADD38C,0.17*%
%ADD40C,0.065199*%
%ADD41R,0.047244X0.047244*%
%ADD42C,0.05315*%
%ADD45R,0.031496X0.035433*%
%ADD47C,0.040004*%
%ADD49C,0.074*%
%ADD54C,0.06194*%
%ADD56R,0.074X0.074*%
%ADD65C,0.167*%
%ADD67C,0.042*%
%ADD69C,0.052*%
%ADD77R,0.025622X0.045307*%
%ADD79R,0.045307X0.025622*%
%ADD87C,0.076803*%
%ADD89R,0.076803X0.076803*%
%ADD101C,0.061055*%
%ADD103R,0.061055X0.061055*%
%ADD105R,0.108299X0.064992*%
%ADD107R,0.061055X0.053181*%
%ADD113R,0.053181X0.061055*%
%ADD119OUTLINE0*%
%ADD120OUTLINE1*%
%ADD121OUTLINE2*%
%FSLAX26Y26*%
G04*
G70*
G90*
G75*
G01*
G04 TopMask*
%LPD*%
D69*
X1403701Y1268701D3*
D67*
X1688701Y1579654D3*
X1458701Y1778701D3*
D69*
X1448701Y1898701D3*
X2767962Y1449784D3*
X2153311Y1509340D3*
X1868701Y1445033D3*
X2542903Y1301484D3*
X2767962Y1449784D3*
X2713180Y1299029D3*
X2767962Y1449784D3*
D67*
X2681974Y1162998D3*
X2833701Y673701D3*
X1796347Y1416731D3*
D65*
X2814961Y528402D3*
X531496Y531496D3*
Y2460630D3*
X2814961D3*
D13*
X1690146Y1336911D3*
X1538701Y1213701D3*
X2376032Y1393191D3*
D17*
X2357454Y1273147D3*
X2159593Y1273819D3*
X1228986Y2054824D3*
D13*
X2038701Y1205033D3*
X2293701Y1165033D3*
X1945109Y1144065D3*
X2549327Y1408180D3*
X2528701Y1475033D3*
X2233701Y1205033D3*
X2113701D3*
D30*
X533701Y743701D3*
Y918701D3*
D31*
X1452492Y1159616D3*
X1277492D3*
D105*
X2290987Y2038583D3*
Y2148819D3*
D107*
X1592847Y828498D3*
Y753694D3*
D30*
X2770424Y926334D3*
Y751334D3*
D103*
X1993701Y838701D3*
D101*
Y738701D3*
X1893701Y838701D3*
Y738701D3*
X1793701Y838701D3*
Y738701D3*
X1693701Y838701D3*
Y738701D3*
D103*
Y938701D3*
D101*
X1793701D3*
X1893701D3*
X1993701D3*
D103*
X2593701Y838701D3*
D101*
Y738701D3*
X2493701Y838701D3*
Y738701D3*
X2393701Y838701D3*
Y738701D3*
X2293701Y838701D3*
Y738701D3*
D103*
Y938701D3*
D101*
X2393701D3*
X2493701D3*
X2593701D3*
D103*
X1563701Y2033701D3*
D101*
Y2133701D3*
X1663701Y2033701D3*
Y2133701D3*
X1763701Y2033701D3*
Y2133701D3*
X1863701Y2033701D3*
Y2133701D3*
X1963701Y2033701D3*
Y2133701D3*
X2063701Y2033701D3*
Y2133701D3*
X2163701Y2033701D3*
Y2133701D3*
D103*
X2868701Y2268701D3*
D101*
Y2168701D3*
Y2068701D3*
D103*
X2158701Y868701D3*
D101*
Y768701D3*
Y668701D3*
Y568701D3*
Y468701D3*
D38*
X878701Y943071D3*
Y706851D3*
X1063740Y824961D3*
D119*
X723229Y2410630D3*
Y2510630D3*
X823229Y2410630D3*
Y2510630D3*
X923229Y2410630D3*
Y2510630D3*
X1023229Y2410630D3*
Y2510630D3*
X1123229Y2410630D3*
Y2510630D3*
X1223229Y2410630D3*
Y2510630D3*
X1323229Y2410630D3*
Y2510630D3*
X1423229Y2410630D3*
Y2510630D3*
X1523229Y2410630D3*
Y2510630D3*
X1623229Y2410630D3*
Y2510630D3*
X1723229Y2410630D3*
Y2510630D3*
X1823229Y2410630D3*
Y2510630D3*
X1923229Y2410630D3*
Y2510630D3*
X2023229Y2410630D3*
Y2510630D3*
X2123229Y2410630D3*
Y2510630D3*
X2223229Y2410630D3*
Y2510630D3*
X2323229Y2410630D3*
Y2510630D3*
X2423229Y2410630D3*
Y2510630D3*
X2523229Y2410630D3*
Y2510630D3*
X2623229Y2410630D3*
Y2510630D3*
D103*
X1558701Y468701D3*
D101*
Y568701D3*
D40*
X496858Y2003701D3*
X596858D3*
X696858D3*
X496858Y1788701D3*
X596858D3*
X696858D3*
X496858Y1573701D3*
X596858D3*
X696858D3*
X518701Y1358701D3*
X618701D3*
X718701D3*
X496858Y1143701D3*
X596858D3*
X696858D3*
X496858Y2218701D3*
X596858D3*
X696858D3*
X1259574Y655848D3*
Y755848D3*
Y855848D3*
D103*
X2863701Y1933701D3*
D101*
X2763701D3*
X2663701D3*
X2563701D3*
X2463701D3*
X2363701D3*
X2263701D3*
X2163701D3*
D103*
X2063701D3*
D101*
X1963701D3*
X1863701D3*
X1763701D3*
X1663701D3*
X1563701D3*
D103*
X1423701Y2293701D3*
D101*
X1523701D3*
D103*
X1623701D3*
D101*
X1723701D3*
X1823701D3*
X1923701D3*
X2023701D3*
X2123701D3*
X2223701D3*
X2323701D3*
D103*
X1863701Y1833701D3*
D101*
X1963701D3*
D41*
X2269324Y480973D3*
X2352002D3*
D42*
X2608701Y2238701D3*
Y2173701D3*
Y2103701D3*
Y2038701D3*
D41*
X2918701Y791395D3*
Y708718D3*
D89*
X1122963Y1211487D3*
D87*
X1022963D3*
X922963D3*
D45*
X1468701Y1028701D3*
X1393898D3*
X1431299Y946024D3*
D113*
X1910583Y1300033D3*
X1835780D3*
X2058389Y1295033D3*
X1983586D3*
X1983701Y1400033D3*
X2058504D3*
D107*
X2923231Y866477D3*
Y941280D3*
D113*
X1106083Y1015138D3*
X1031280D3*
X2463701Y1525033D3*
X2388898D3*
X2238701D3*
X2313504D3*
X1856299Y573701D3*
X1931103D3*
X1656299D3*
X1731103D3*
D107*
X1501735Y836696D3*
Y761893D3*
D113*
X2798701Y1534710D3*
X2873504D3*
X2276979Y553541D3*
X2351782D3*
D120*
X2463701Y523701D3*
X2648701D3*
D121*
X2423201Y449201D3*
X2689201D3*
D47*
X2663404Y1380033D3*
D49*
D3*
D120*
X1801201Y528701D3*
X1986201D3*
D121*
X1760701Y454201D3*
X2026701D3*
D120*
X1201201Y528701D3*
X1386201D3*
D121*
X1160701Y454201D3*
X1426701D3*
D89*
X1133701Y2173307D3*
D87*
Y1874095D3*
D79*
X2767962Y1405033D3*
Y1367631D3*
Y1330230D3*
X2874261D3*
Y1405033D3*
D77*
X2418701Y1285033D3*
X2456103D3*
X2493504D3*
Y1391332D3*
X2418701D3*
D54*
X2913404Y1680033D3*
X2813404D3*
X2713404D3*
X2613404D3*
X2513404D3*
X2413404D3*
X2313404D3*
X2213404D3*
X2113404D3*
X2013404D3*
X1913404D3*
X1813404D3*
X1713404D3*
X1613404D3*
Y1380033D3*
Y1480033D3*
Y1580033D3*
Y1180033D3*
Y1080033D3*
X1713404D3*
X1813404D3*
X1913404D3*
X2013404D3*
X2113404D3*
X2213404D3*
X2313404D3*
X2413404D3*
X2513404D3*
X2613404D3*
X2713404D3*
X2813404D3*
X2913404D3*
X2813404Y1180033D3*
X2613404D3*
X2513404D3*
X2413404D3*
D77*
X2308701Y1370033D3*
X2271299D3*
X2233898D3*
Y1263734D3*
X2308701D3*
D56*
X1443335Y1607704D3*
D49*
X1343335D3*
X1243335D3*
X1043335D3*
X1143335D3*
M02*
