G04 DipTrace 3.0.0.2*
G04 TeensyArbotixProRPIV0.2a.gto*
%MOIN*%
G04 #@! TF.FileFunction,Legend,Top*
G04 #@! TF.Part,Single*
%ADD10C,0.009843*%
%ADD19C,0.008*%
%ADD36C,0.005*%
%ADD39C,0.006*%
%ADD50C,0.015395*%
%ADD52C,0.015401*%
%ADD115C,0.006176*%
%ADD116C,0.00772*%
%ADD117C,0.007*%
%ADD118C,0.004632*%
%FSLAX26Y26*%
G04*
G70*
G90*
G75*
G01*
G04 TopSilk*
%LPD*%
X427449Y937461D2*
D19*
X496194D1*
X571208D2*
X639953D1*
Y762451D1*
X602446Y724941D1*
X571208D1*
X427449Y937461D2*
Y762451D1*
X464956Y724941D1*
X496194D1*
X1258732Y1053364D2*
Y1122109D1*
Y1197123D2*
Y1265868D1*
X1433742D1*
X1471252Y1228361D1*
Y1197123D1*
X1258732Y1053364D2*
X1433742D1*
X1471252Y1090871D1*
Y1122109D1*
X2340204Y2089370D2*
D10*
X2241771D1*
X2340204Y2081921D2*
X2241771D1*
X2340204D2*
Y2105481D1*
X2241771Y2081921D2*
Y2105481D1*
X1567276Y869857D2*
X1618418D1*
X2876676Y732574D2*
D19*
X2807931D1*
X2732917D2*
X2664172D1*
Y907584D1*
X2701679Y945094D1*
X2732917D1*
X2876676Y732574D2*
Y907584D1*
X2839169Y945094D1*
X2807931D1*
X2043701Y888701D2*
D10*
X1643701D1*
X2043701Y688701D2*
X1643701D1*
X2043701Y888701D2*
Y688701D1*
X1643701Y888701D2*
Y688701D1*
X2043701Y888701D2*
Y988701D1*
X1643701Y888701D2*
X2043701D1*
X1643701Y988701D2*
X2043701D1*
X1643701Y888701D2*
Y988701D1*
X2643701Y888701D2*
X2243701D1*
X2643701Y688701D2*
X2243701D1*
X2643701Y888701D2*
Y688701D1*
X2243701Y888701D2*
Y688701D1*
X2643701Y888701D2*
Y988701D1*
X2243701Y888701D2*
X2643701D1*
X2243701Y988701D2*
X2643701D1*
X2243701Y888701D2*
Y988701D1*
X2213701Y1983701D2*
Y2183701D1*
X1513701Y1983701D2*
Y2183701D1*
X2213701D1*
X1513701Y1983701D2*
X2213701D1*
X2818701Y2318701D2*
X2918701D1*
Y2018701D1*
X2818701D2*
X2918701D1*
X2818701Y2318701D2*
Y2018701D1*
X2108701Y418701D2*
X2208701D1*
X2108701Y918701D2*
Y418701D1*
X2208701Y918701D2*
Y418701D1*
X2108701Y918701D2*
X2208701D1*
X1055856Y943072D2*
D19*
X973168D1*
X1055856Y521798D2*
Y730449D1*
Y943072D2*
Y915525D1*
X701536Y521798D2*
Y943072D1*
X784224D1*
X701536Y521798D2*
X1055856D1*
X673229Y2385630D2*
D39*
X698229Y2360630D1*
X748229D1*
X773229Y2385630D1*
X798229Y2360630D1*
X848229D1*
X873229Y2385630D1*
X898229Y2360630D1*
X948229D1*
X973229Y2385630D1*
X998229Y2360630D1*
X1048229D1*
X1073229Y2385630D1*
X1098229Y2360630D1*
X1148229D1*
X1173229Y2385630D1*
X1198229Y2360630D1*
X1248229D1*
X1273229Y2385630D1*
X673229D2*
Y2535630D1*
X698229Y2560630D1*
X748229D1*
X773229Y2535630D1*
X798229Y2560630D1*
X848229D1*
X873229Y2535630D1*
X898229Y2560630D1*
X948229D1*
X973229Y2535630D1*
X998229Y2560630D1*
X1048229D1*
X1073229Y2535630D1*
X1098229Y2560630D1*
X1148229D1*
X1173229Y2535630D1*
X1198229Y2560630D1*
X1248229D1*
X1273229Y2535630D1*
X1298229Y2560630D1*
X1348229D1*
X1373229Y2535630D1*
X1398229Y2560630D1*
X1448229D1*
X1473229Y2535630D1*
X1498229Y2560630D1*
X1548229D1*
X1573229Y2535630D1*
X1598229Y2560630D1*
X1648229D1*
X1673229Y2535630D1*
X1698229Y2560630D1*
X1748229D1*
X1773229Y2535630D1*
X1798229Y2560630D1*
X1848229D1*
X1873229Y2535630D2*
X1848229Y2560630D1*
X1873229Y2535630D2*
X1898229Y2560630D1*
X1948229D2*
X1898229D1*
X1948229D2*
X1973229Y2535630D1*
X1998229Y2560630D1*
X2048229D2*
X1998229D1*
X2048229D2*
X2073229Y2535630D1*
X2098229Y2560630D1*
X2148229D2*
X2098229D1*
X2148229D2*
X2173229Y2535630D1*
X2198229Y2560630D1*
X2248229D2*
X2198229D1*
X2248229D2*
X2273229Y2535630D1*
X2298229Y2560630D1*
X2348229D2*
X2298229D1*
X2348229D2*
X2373229Y2535630D1*
X2398229Y2560630D1*
X2448229D2*
X2398229D1*
X2448229D2*
X2473229Y2535630D1*
X2498229Y2560630D1*
X2548229D2*
X2498229D1*
X2548229D2*
X2573229Y2535630D1*
Y2385630D2*
X2548229Y2360630D1*
X2498229D1*
X2473229Y2385630D2*
X2498229Y2360630D1*
X2473229Y2385630D2*
X2448229Y2360630D1*
X2398229D1*
X2373229Y2385630D2*
X2398229Y2360630D1*
X2373229Y2385630D2*
X2348229Y2360630D1*
X2298229D1*
X2273229Y2385630D2*
X2298229Y2360630D1*
X2273229Y2385630D2*
X2248229Y2360630D1*
X2198229D2*
X2248229D1*
X2198229D2*
X2173229Y2385630D1*
X2148229Y2360630D1*
X2098229D2*
X2148229D1*
X2098229D2*
X2073229Y2385630D1*
X2048229Y2360630D1*
X1998229D1*
X1973229Y2385630D2*
X1998229Y2360630D1*
X1973229Y2385630D2*
X1948229Y2360630D1*
X1898229D1*
X1873229Y2385630D2*
X1898229Y2360630D1*
X1873229Y2385630D2*
X1848229Y2360630D1*
X1798229D1*
X1773229Y2385630D2*
X1798229Y2360630D1*
X1773229Y2385630D2*
X1748229Y2360630D1*
X1698229D1*
X1673229Y2385630D2*
X1698229Y2360630D1*
X1673229Y2385630D2*
X1648229Y2360630D1*
X1598229D1*
X1573229Y2385630D2*
X1598229Y2360630D1*
X1573229Y2385630D2*
X1548229Y2360630D1*
X1498229D1*
X1473229Y2385630D2*
X1498229Y2360630D1*
X1473229Y2385630D2*
X1448229Y2360630D1*
X1398229D1*
X1373229Y2385630D2*
X1398229Y2360630D1*
X1373229Y2385630D2*
X1348229Y2360630D1*
X1298229D1*
X1273229Y2385630D2*
X1298229Y2360630D1*
X773229Y2535630D2*
Y2385630D1*
X873229Y2535630D2*
Y2385630D1*
X973229Y2535630D2*
Y2385630D1*
X1073229Y2535630D2*
Y2385630D1*
X1173229Y2535630D2*
Y2385630D1*
X1273229Y2535630D2*
Y2385630D1*
X1373229Y2535630D2*
Y2385630D1*
X1473229Y2535630D2*
Y2385630D1*
X1573229Y2535630D2*
Y2385630D1*
X1673229Y2535630D2*
Y2385630D1*
X1773229Y2535630D2*
Y2385630D1*
X1873229Y2535630D2*
Y2385630D1*
X1973229Y2535630D2*
Y2385630D1*
X2073229Y2535630D2*
Y2385630D1*
X2173229Y2535630D2*
Y2385630D1*
X2273229Y2535630D2*
Y2385630D1*
X2373229Y2535630D2*
Y2385630D1*
X2473229Y2535630D2*
Y2385630D1*
X2573229Y2535630D2*
Y2385630D1*
Y2535630D2*
X2598229Y2560630D1*
X2648229D2*
X2598229D1*
X2648229D2*
X2673229Y2535630D1*
Y2385630D2*
X2648229Y2360630D1*
X2598229D1*
X2573229Y2385630D2*
X2598229Y2360630D1*
X2673229Y2535630D2*
Y2385630D1*
X1608701Y618701D2*
D10*
X1508701D1*
X1608701Y418701D2*
Y618701D1*
Y418701D2*
X1508701D1*
Y618701D1*
X401977Y1881654D2*
D36*
X791740D1*
Y2074566D1*
X672862Y2074701D2*
X622856D1*
X572849D1*
X522842D1*
X472875D1*
X453542Y2074682D1*
X401977Y2031265D1*
Y1881654D1*
X521868Y2073697D2*
X546852Y2048698D1*
X571875Y2073697D1*
X621842Y2074566D2*
X646865Y2050705D1*
X671849Y2074566D1*
X721856D1*
X788583D1*
X720842Y2072693D2*
X746840Y2047694D1*
X746879Y1953699D1*
X446838D1*
X446877Y2046709D1*
X474862Y2071709D1*
X401977Y1666654D2*
X791740D1*
Y1859566D1*
X672862Y1859701D2*
X622856D1*
X572849D1*
X522842D1*
X472875D1*
X453542Y1859682D1*
X401977Y1816265D1*
Y1666654D1*
X521868Y1858697D2*
X546852Y1833698D1*
X571875Y1858697D1*
X621842Y1859566D2*
X646865Y1835705D1*
X671849Y1859566D1*
X721856D1*
X788583D1*
X720842Y1857693D2*
X746840Y1832694D1*
X746879Y1738699D1*
X446838D1*
X446877Y1831709D1*
X474862Y1856709D1*
X401977Y1451654D2*
X791740D1*
Y1644566D1*
X672862Y1644701D2*
X622856D1*
X572849D1*
X522842D1*
X472875D1*
X453542Y1644682D1*
X401977Y1601265D1*
Y1451654D1*
X521868Y1643697D2*
X546852Y1618698D1*
X571875Y1643697D1*
X621842Y1644566D2*
X646865Y1620705D1*
X671849Y1644566D1*
X721856D1*
X788583D1*
X720842Y1642693D2*
X746840Y1617694D1*
X746879Y1523699D1*
X446838D1*
X446877Y1616709D1*
X474862Y1641709D1*
X423819Y1236654D2*
X813583D1*
Y1429566D1*
X694705Y1429701D2*
X644698D1*
X594692D1*
X544685D1*
X494717D1*
X475385Y1429682D1*
X423819Y1386265D1*
Y1236654D1*
X543710Y1428697D2*
X568694Y1403698D1*
X593717Y1428697D1*
X643685Y1429566D2*
X668708Y1405705D1*
X693692Y1429566D1*
X743698D1*
X810426D1*
X742685Y1427693D2*
X768682Y1402694D1*
X768721Y1308699D1*
X468681D1*
X468720Y1401709D1*
X496705Y1426709D1*
X401977Y1021654D2*
X791740D1*
Y1214566D1*
X672862Y1214701D2*
X622856D1*
X572849D1*
X522842D1*
X472875D1*
X453542Y1214682D1*
X401977Y1171265D1*
Y1021654D1*
X521868Y1213697D2*
X546852Y1188698D1*
X571875Y1213697D1*
X621842Y1214566D2*
X646865Y1190705D1*
X671849Y1214566D1*
X721856D1*
X788583D1*
X720842Y1212693D2*
X746840Y1187694D1*
X746879Y1093699D1*
X446838D1*
X446877Y1186709D1*
X474862Y1211709D1*
X401977Y2096654D2*
X791740D1*
Y2289566D1*
X672862Y2289701D2*
X622856D1*
X572849D1*
X522842D1*
X472875D1*
X453542Y2289682D1*
X401977Y2246265D1*
Y2096654D1*
X521868Y2288697D2*
X546852Y2263698D1*
X571875Y2288697D1*
X621842Y2289566D2*
X646865Y2265705D1*
X671849Y2289566D1*
X721856D1*
X788583D1*
X720842Y2287693D2*
X746840Y2262694D1*
X746879Y2168699D1*
X446838D1*
X446877Y2261709D1*
X474862Y2286709D1*
X1381621Y560966D2*
Y950730D1*
X1188709D1*
X1188574Y831852D2*
Y781845D1*
Y731839D1*
Y681832D1*
Y631864D1*
X1188593Y612532D1*
X1232009Y560966D1*
X1381621D1*
X1189578Y680857D2*
X1214577Y705841D1*
X1189578Y730864D1*
X1188709Y780832D2*
X1212569Y805855D1*
X1188709Y830839D1*
Y880845D1*
Y947573D1*
X1190581Y879832D2*
X1215581Y905829D1*
X1309576Y905868D1*
Y605828D1*
X1216566Y605867D1*
X1191566Y633852D1*
X2913701Y1883701D2*
D10*
X2113701D1*
X2913701Y1983701D2*
Y1883701D1*
Y1983701D2*
X2113701D1*
Y1883701D1*
Y1983701D2*
X1513701D1*
X2113701Y1883701D2*
X1513701D1*
X2113701Y1983701D2*
Y1883701D1*
X1513701Y1983701D2*
Y1883701D1*
X1573701Y2243701D2*
Y2343701D1*
X1373701Y2243701D2*
X1573701D1*
X1373701D2*
Y2343701D1*
X1573701D1*
X2373701D1*
X1573701Y2243701D2*
Y2343701D1*
Y2243701D2*
X2373701D1*
Y2343701D1*
X2013701Y1783701D2*
Y1883701D1*
X1813701Y1783701D2*
X2013701D1*
X1813701D2*
Y1883701D1*
X2013701D1*
G36*
X2310663Y484910D2*
X2318536D1*
Y477036D1*
X2310663D1*
Y484910D1*
G37*
X2533701Y2238695D2*
D36*
X2578701D1*
X2683701D2*
X2638701D1*
X2677701Y2030689D2*
G02X2539701Y2030689I-69000J97267D01*
G01*
G36*
X2922638Y750057D2*
X2914764D1*
Y742183D1*
X2922638D1*
Y750057D1*
G37*
X1219814Y1105188D2*
D10*
X826113D1*
Y1282353D1*
X1219814D1*
Y1105188D1*
Y1140621D2*
X826113D1*
X1462794Y961768D2*
D19*
X1486415D1*
Y993268D1*
X1399805Y961768D2*
X1376184D1*
Y993268D1*
X2456200Y443699D2*
D36*
X2656202D1*
X2687436Y468704D2*
Y524946D1*
X2674936D1*
X2624935D2*
X2487467D1*
X2497189Y441700D2*
Y411697D1*
G03X2507202Y401701I10011J16D01*
G01*
X2605200D1*
G03X2615213Y411697I2J10012D01*
G01*
Y441700D1*
X2443700Y524946D2*
X2424966D1*
Y468704D1*
X1793700Y448699D2*
X1993702D1*
X2024936Y473704D2*
Y529946D1*
X2012436D1*
X1962435D2*
X1824967D1*
X1834689Y446700D2*
Y416697D1*
G03X1844702Y406701I10011J16D01*
G01*
X1942700D1*
G03X1952713Y416697I2J10012D01*
G01*
Y446700D1*
X1781200Y529946D2*
X1762466D1*
Y473704D1*
X1193700Y448699D2*
X1393702D1*
X1424936Y473704D2*
Y529946D1*
X1412436D1*
X1362435D2*
X1224967D1*
X1234689Y446700D2*
Y416697D1*
G03X1244702Y406701I10011J16D01*
G01*
X1342700D1*
G03X1352713Y416697I2J10012D01*
G01*
Y446700D1*
X1181200Y529946D2*
X1162466D1*
Y473704D1*
X838425Y2023701D2*
D10*
G02X838425Y2023701I295276J0D01*
G01*
D50*
X2751337Y1431947D3*
X2805402Y1426684D2*
D10*
Y1308576D1*
X2836893Y1426684D2*
Y1308576D1*
X2805402D2*
X2836893D1*
X2805402Y1426684D2*
X2836893D1*
D52*
X2391787Y1268408D3*
X2397050Y1322473D2*
D10*
X2515158D1*
X2397050Y1353964D2*
X2515158D1*
Y1322473D2*
Y1353964D1*
X2397050Y1322473D2*
Y1353964D1*
X2913424Y1430013D2*
D19*
Y1330053D1*
X2963404D1*
Y1030033D1*
X1563404D1*
Y1730033D1*
X2963404D1*
Y1430013D1*
X2913424D1*
D52*
X2335615Y1386658D3*
X2330352Y1332593D2*
D10*
X2212244D1*
X2330352Y1301102D2*
X2212244D1*
Y1332593D2*
Y1301102D1*
X2330352Y1332593D2*
Y1301102D1*
X818335Y1707704D2*
X1518335D1*
Y1307704D1*
X818335D1*
Y1707704D1*
X528476Y1017729D2*
D115*
X526575Y1021531D1*
X522728Y1025378D1*
X518925Y1027279D1*
X511276D1*
X507429Y1025378D1*
X503627Y1021531D1*
X501681Y1017729D1*
X499780Y1011981D1*
Y1002386D1*
X501681Y996682D1*
X503627Y992835D1*
X507429Y989033D1*
X511276Y987087D1*
X518925D1*
X522728Y989033D1*
X526575Y992835D1*
X528476Y996682D1*
X542773Y1017685D2*
Y1019586D1*
X544674Y1023433D1*
X546575Y1025334D1*
X550422Y1027235D1*
X558071D1*
X561874Y1025334D1*
X563775Y1023433D1*
X565721Y1019586D1*
Y1015783D1*
X563775Y1011937D1*
X559973Y1006233D1*
X540827Y987087D1*
X567622D1*
X1359767Y1172571D2*
X1357866Y1176373D1*
X1354019Y1180220D1*
X1350217Y1182121D1*
X1342567D1*
X1338721Y1180220D1*
X1334918Y1176373D1*
X1332973Y1172571D1*
X1331071Y1166823D1*
Y1157228D1*
X1332973Y1151524D1*
X1334918Y1147677D1*
X1338721Y1143875D1*
X1342567Y1141929D1*
X1350217D1*
X1354019Y1143875D1*
X1357866Y1147677D1*
X1359767Y1151524D1*
X1375965Y1182077D2*
X1396968D1*
X1385516Y1166779D1*
X1391264D1*
X1395067Y1164877D1*
X1396968Y1162976D1*
X1398913Y1157228D1*
Y1153426D1*
X1396968Y1147677D1*
X1393165Y1143831D1*
X1387417Y1141929D1*
X1381669D1*
X1375965Y1143831D1*
X1374064Y1145776D1*
X1372119Y1149579D1*
X2367254Y2088476D2*
X2363452Y2086575D1*
X2359605Y2082728D1*
X2357704Y2078925D1*
Y2071276D1*
X2359605Y2067429D1*
X2363452Y2063627D1*
X2367254Y2061681D1*
X2373002Y2059780D1*
X2382597D1*
X2388301Y2061681D1*
X2392148Y2063627D1*
X2395950Y2067429D1*
X2397896Y2071276D1*
Y2078925D1*
X2395950Y2082728D1*
X2392148Y2086575D1*
X2388301Y2088476D1*
X2357748Y2123775D2*
Y2104674D1*
X2374948Y2102773D1*
X2373047Y2104674D1*
X2371101Y2110422D1*
Y2116126D1*
X2373047Y2121874D1*
X2376849Y2125721D1*
X2382597Y2127622D1*
X2386400D1*
X2392148Y2125721D1*
X2395994Y2121874D1*
X2397896Y2116126D1*
Y2110422D1*
X2395994Y2104674D1*
X2394049Y2102773D1*
X2390246Y2100827D1*
X1587622Y704986D2*
X1585720Y708789D1*
X1581874Y712636D1*
X1578071Y714537D1*
X1570422D1*
X1566575Y712636D1*
X1562772Y708789D1*
X1560827Y704986D1*
X1558926Y699238D1*
Y689644D1*
X1560827Y683940D1*
X1562772Y680093D1*
X1566575Y676290D1*
X1570422Y674345D1*
X1578071D1*
X1581874Y676290D1*
X1585720Y680093D1*
X1587622Y683940D1*
X1607622Y674345D2*
X1626768Y714493D1*
X1599973D1*
X2757469Y834559D2*
X2753666Y832658D1*
X2749820Y828811D1*
X2747918Y825009D1*
Y817359D1*
X2749820Y813513D1*
X2753666Y809710D1*
X2757469Y807765D1*
X2763217Y805863D1*
X2772812D1*
X2778516Y807765D1*
X2782362Y809710D1*
X2786165Y813513D1*
X2788110Y817359D1*
Y825009D1*
X2786165Y828811D1*
X2782362Y832658D1*
X2778516Y834559D1*
X2761316Y871804D2*
X2767064Y869858D1*
X2770911Y866056D1*
X2772812Y860308D1*
Y858407D1*
X2770911Y852659D1*
X2767064Y848856D1*
X2761316Y846911D1*
X2759414D1*
X2753666Y848856D1*
X2749864Y852659D1*
X2747963Y858407D1*
Y860308D1*
X2749864Y866056D1*
X2753666Y869858D1*
X2761316Y871804D1*
X2770911D1*
X2780461Y869858D1*
X2786209Y866056D1*
X2788110Y860308D1*
Y856505D1*
X2786209Y850757D1*
X2782362Y848856D1*
X2279616Y442799D2*
Y402607D1*
X2302564D1*
X2316861Y433205D2*
Y435106D1*
X2318762Y438953D1*
X2320663Y440854D1*
X2324510Y442755D1*
X2332159D1*
X2335962Y440854D1*
X2337863Y438953D1*
X2339809Y435106D1*
Y431303D1*
X2337863Y427457D1*
X2334061Y421753D1*
X2314915Y402607D1*
X2341710D1*
X2582024Y2323854D2*
Y2283662D1*
X2555229Y2323854D1*
Y2283662D1*
X2619224Y2323854D2*
X2594375D1*
Y2283662D1*
X2619224D1*
X2594375Y2304709D2*
X2609674D1*
X2643072Y2323854D2*
X2639225Y2321953D1*
X2635422Y2318106D1*
X2633477Y2314304D1*
X2631576Y2308556D1*
Y2298961D1*
X2633477Y2293257D1*
X2635422Y2289410D1*
X2639225Y2285608D1*
X2643072Y2283662D1*
X2650721D1*
X2654524Y2285608D1*
X2658370Y2289410D1*
X2660272Y2293257D1*
X2662173Y2298961D1*
Y2308556D1*
X2660272Y2314304D1*
X2658370Y2318106D1*
X2654524Y2321953D1*
X2650721Y2323854D1*
X2643072D1*
X2860410Y650482D2*
X2877654D1*
X2883357Y652384D1*
X2885303Y654329D1*
X2887204Y658132D1*
Y663880D1*
X2885303Y667682D1*
X2883357Y669628D1*
X2877654Y671529D1*
X2860410D1*
Y631337D1*
X2899556Y671529D2*
X2909150Y631337D1*
X2918701Y671529D1*
X2928252Y631337D1*
X2937846Y671529D1*
X2950198Y652384D2*
X2967398D1*
X2973146Y654329D1*
X2975091Y656230D1*
X2976992Y660033D1*
Y663880D1*
X2975091Y667682D1*
X2973146Y669628D1*
X2967398Y671529D1*
X2950198D1*
Y631337D1*
X2963595Y652384D2*
X2976992Y631337D1*
X999566Y1161278D2*
X995763Y1159421D1*
X991916Y1155574D1*
X990015Y1151727D1*
X988070Y1145979D1*
Y1136428D1*
X990015Y1130680D1*
X991916Y1126878D1*
X995763Y1123031D1*
X999566Y1121130D1*
X1007215D1*
X1011062Y1123031D1*
X1014864Y1126878D1*
X1016766Y1130680D1*
X1018711Y1136428D1*
Y1145979D1*
X1016766Y1151727D1*
X1014864Y1155574D1*
X1011062Y1159421D1*
X1007215Y1161278D1*
X999566D1*
X1005314Y1128779D2*
X1016766Y1117283D1*
X1033008Y1151683D2*
Y1153584D1*
X1034909Y1157431D1*
X1036811Y1159332D1*
X1040657Y1161233D1*
X1048307D1*
X1052109Y1159332D1*
X1054010Y1157431D1*
X1055956Y1153584D1*
Y1149782D1*
X1054010Y1145935D1*
X1050208Y1140231D1*
X1031063Y1121086D1*
X1057857D1*
X1316721Y963965D2*
X1318578Y960162D1*
X1322425Y956316D1*
X1326272Y954414D1*
X1332020Y952469D1*
X1341570D1*
X1347318Y954414D1*
X1351121Y956316D1*
X1354968Y960162D1*
X1356869Y963965D1*
Y971614D1*
X1354968Y975461D1*
X1351121Y979263D1*
X1347318Y981165D1*
X1341570Y983110D1*
X1332020D1*
X1326272Y981165D1*
X1322425Y979263D1*
X1318578Y975461D1*
X1316721Y971614D1*
Y963965D1*
X1349220Y969713D2*
X1360716Y981165D1*
X1316765Y999308D2*
Y1020311D1*
X1332064Y1008859D1*
Y1014607D1*
X1333965Y1018409D1*
X1335866Y1020311D1*
X1341614Y1022256D1*
X1345417D1*
X1351165Y1020311D1*
X1355012Y1016508D1*
X1356913Y1010760D1*
Y1005012D1*
X1355012Y999308D1*
X1353066Y997407D1*
X1349264Y995462D1*
X1848811Y1368994D2*
X1866011D1*
X1871759Y1370939D1*
X1873704Y1372840D1*
X1875606Y1376643D1*
Y1380490D1*
X1873704Y1384292D1*
X1871759Y1386238D1*
X1866011Y1388139D1*
X1848811D1*
Y1347947D1*
X1862208Y1368994D2*
X1875606Y1347947D1*
X1887957Y1380446D2*
X1891804Y1382391D1*
X1897552Y1388095D1*
Y1347947D1*
X2116737Y1264970D2*
X2116738Y1282169D1*
X2114792Y1287917D1*
X2112891Y1289863D1*
X2109088Y1291764D1*
X2105241D1*
X2101439Y1289863D1*
X2099493Y1287917D1*
X2097592Y1282169D1*
Y1264970D1*
X2137784D1*
X2116738Y1278367D2*
X2137784Y1291764D1*
X2107187Y1306061D2*
X2105286D1*
X2101439Y1307962D1*
X2099538Y1309864D1*
X2097636Y1313710D1*
Y1321360D1*
X2099538Y1325162D1*
X2101439Y1327064D1*
X2105286Y1329009D1*
X2109088D1*
X2112935Y1327063D1*
X2118639Y1323261D1*
X2137784Y1304116D1*
Y1330910D1*
X2116807Y1367063D2*
Y1384263D1*
X2114862Y1390011D1*
X2112960Y1391956D1*
X2109158Y1393857D1*
X2105311D1*
X2101508Y1391956D1*
X2099563Y1390011D1*
X2097662Y1384263D1*
Y1367063D1*
X2137854D1*
X2116807Y1380460D2*
X2137854Y1393857D1*
X2097706Y1410056D2*
Y1431058D1*
X2113005Y1419606D1*
Y1425354D1*
X2114906Y1429157D1*
X2116807Y1431058D1*
X2122555Y1433003D1*
X2126358D1*
X2132106Y1431058D1*
X2135952Y1427255D1*
X2137854Y1421507D1*
Y1415759D1*
X2135952Y1410055D1*
X2134007Y1408154D1*
X2130204Y1406209D1*
X2890261Y1006303D2*
X2907461D1*
X2913209Y1008249D1*
X2915154Y1010150D1*
X2917055Y1013953D1*
Y1017799D1*
X2915154Y1021602D1*
X2913209Y1023547D1*
X2907461Y1025449D1*
X2890261D1*
Y985257D1*
X2903658Y1006303D2*
X2917055Y985257D1*
X2952355Y1025405D2*
X2933254D1*
X2931352Y1008205D1*
X2933254Y1010106D1*
X2939002Y1012051D1*
X2944705D1*
X2950454Y1010106D1*
X2954300Y1006303D1*
X2956202Y1000555D1*
Y996753D1*
X2954300Y991005D1*
X2950454Y987158D1*
X2944705Y985257D1*
X2939002D1*
X2933254Y987158D1*
X2931352Y989104D1*
X2929407Y992906D1*
X1164386Y983141D2*
Y1000340D1*
X1162440Y1006088D1*
X1160539Y1008034D1*
X1156737Y1009935D1*
X1152890D1*
X1149087Y1008034D1*
X1147142Y1006088D1*
X1145240Y1000340D1*
Y983141D1*
X1185432D1*
X1164386Y996538D2*
X1185432Y1009935D1*
X1150988Y1045234D2*
X1147186Y1043333D1*
X1145285Y1037585D1*
Y1033783D1*
X1147186Y1028035D1*
X1152934Y1024188D1*
X1162485Y1022287D1*
X1172035Y1022286D1*
X1179684Y1024188D1*
X1183531Y1028034D1*
X1185432Y1033783D1*
Y1035684D1*
X1183531Y1041388D1*
X1179684Y1045234D1*
X1173936Y1047136D1*
X1172035D1*
X1166287Y1045234D1*
X1162485Y1041388D1*
X1160583Y1035684D1*
Y1033783D1*
X1162485Y1028035D1*
X1166287Y1024188D1*
X1172035Y1022286D1*
X2522004Y1493013D2*
Y1510213D1*
X2520058Y1515961D1*
X2518157Y1517907D1*
X2514355Y1519808D1*
X2510508D1*
X2506705Y1517907D1*
X2504760Y1515961D1*
X2502859Y1510213D1*
Y1493013D1*
X2543051D1*
X2522004Y1506411D2*
X2543051Y1519808D1*
X2516256Y1557053D2*
X2522004Y1555107D1*
X2525851Y1551305D1*
X2527752Y1545557D1*
Y1543655D1*
X2525851Y1537907D1*
X2522004Y1534105D1*
X2516256Y1532159D1*
X2514355D1*
X2508607Y1534105D1*
X2504804Y1537907D1*
X2502903Y1543655D1*
Y1545557D1*
X2504804Y1551305D1*
X2508607Y1555107D1*
X2516256Y1557053D1*
X2525851D1*
X2535401Y1555107D1*
X2541149Y1551305D1*
X2543051Y1545557D1*
Y1541754D1*
X2541149Y1536006D1*
X2537303Y1534105D1*
X2173677Y1481090D2*
Y1498290D1*
X2171732Y1504038D1*
X2169831Y1505983D1*
X2166028Y1507884D1*
X2162181D1*
X2158379Y1505983D1*
X2156433Y1504038D1*
X2154532Y1498290D1*
Y1481090D1*
X2194724D1*
X2173677Y1494487D2*
X2194724Y1507884D1*
X2162226Y1520236D2*
X2160280Y1524082D1*
X2154576Y1529830D1*
X2194724D1*
X2154576Y1546029D2*
Y1567031D1*
X2169875Y1555579D1*
Y1561327D1*
X2171776Y1565130D1*
X2173677Y1567031D1*
X2179425Y1568976D1*
X2183228D1*
X2188976Y1567031D1*
X2192823Y1563228D1*
X2194724Y1557480D1*
Y1551732D1*
X2192823Y1546029D1*
X2190877Y1544127D1*
X2187075Y1542182D1*
X1842506Y491972D2*
X1859706D1*
X1865454Y493917D1*
X1867400Y495818D1*
X1869301Y499621D1*
Y503468D1*
X1867400Y507270D1*
X1865454Y509216D1*
X1859706Y511117D1*
X1842506D1*
Y470925D1*
X1855904Y491972D2*
X1869301Y470925D1*
X1881652Y503423D2*
X1885499Y505369D1*
X1891247Y511073D1*
Y470925D1*
X1922744D2*
Y511073D1*
X1903599Y484322D1*
X1932295D1*
X1642994Y516331D2*
X1660194D1*
X1665942Y518277D1*
X1667887Y520178D1*
X1669788Y523981D1*
Y527827D1*
X1667887Y531630D1*
X1665942Y533575D1*
X1660194Y535477D1*
X1642994D1*
Y495285D1*
X1656391Y516331D2*
X1669788Y495285D1*
X1682140Y527783D2*
X1685987Y529729D1*
X1691735Y535432D1*
Y495285D1*
X1727034Y535432D2*
X1707933D1*
X1706032Y518232D1*
X1707933Y520134D1*
X1713681Y522079D1*
X1719385D1*
X1725133Y520134D1*
X1728979Y516331D1*
X1730881Y510583D1*
Y506781D1*
X1728979Y501033D1*
X1725133Y497186D1*
X1719385Y495285D1*
X1713681D1*
X1707933Y497186D1*
X1706032Y499131D1*
X1704086Y502934D1*
X1441125Y705794D2*
X1458325D1*
X1464073Y707740D1*
X1466019Y709641D1*
X1467920Y713444D1*
Y717291D1*
X1466019Y721093D1*
X1464073Y723039D1*
X1458325Y724940D1*
X1441125D1*
Y684748D1*
X1454523Y705794D2*
X1467920Y684748D1*
X1480271Y717246D2*
X1484118Y719192D1*
X1489866Y724896D1*
Y684748D1*
X1525165Y719192D2*
X1523264Y722994D1*
X1517516Y724896D1*
X1513714D1*
X1507966Y722994D1*
X1504119Y717246D1*
X1502218Y707696D1*
Y698145D1*
X1504119Y690496D1*
X1507966Y686649D1*
X1513714Y684748D1*
X1515615D1*
X1521319Y686649D1*
X1525165Y690496D1*
X1527067Y696244D1*
Y698145D1*
X1525165Y703893D1*
X1521319Y707696D1*
X1515615Y709597D1*
X1513714D1*
X1507966Y707696D1*
X1504119Y703893D1*
X1502218Y698145D1*
X2792159Y1472470D2*
X2809359D1*
X2815107Y1474416D1*
X2817053Y1476317D1*
X2818954Y1480120D1*
Y1483966D1*
X2817053Y1487769D1*
X2815107Y1489714D1*
X2809359Y1491616D1*
X2792159D1*
Y1451424D1*
X2805556Y1472470D2*
X2818954Y1451424D1*
X2831305Y1483922D2*
X2835152Y1485868D1*
X2840900Y1491571D1*
Y1451424D1*
X2860901D2*
X2880046Y1491571D1*
X2853251D1*
X2211956Y509620D2*
Y526820D1*
X2210010Y532568D1*
X2208109Y534513D1*
X2204306Y536414D1*
X2200460D1*
X2196657Y534513D1*
X2194712Y532568D1*
X2192810Y526820D1*
Y509620D1*
X2233002D1*
X2211956Y523017D2*
X2233002Y536414D1*
X2200504Y548766D2*
X2198558Y552612D1*
X2192854Y558360D1*
X2233002D1*
X2192854Y580262D2*
X2194756Y574559D1*
X2198558Y572613D1*
X2202405D1*
X2206208Y574559D1*
X2208153Y578361D1*
X2210054Y586010D1*
X2211956Y591758D1*
X2215802Y595561D1*
X2219605Y597462D1*
X2225353D1*
X2229155Y595561D1*
X2231101Y593660D1*
X2233002Y587912D1*
Y580262D1*
X2231101Y574559D1*
X2229155Y572613D1*
X2225353Y570712D1*
X2219605D1*
X2215802Y572613D1*
X2211956Y576460D1*
X2210054Y582164D1*
X2208153Y589813D1*
X2206208Y593660D1*
X2202405Y595561D1*
X2198558D1*
X2194756Y593660D1*
X2192854Y587912D1*
Y580262D1*
X2476980Y588134D2*
X2494180D1*
X2499928Y590080D1*
X2501874Y591981D1*
X2503775Y595783D1*
Y599630D1*
X2501874Y603433D1*
X2499928Y605378D1*
X2494180Y607279D1*
X2476980D1*
Y567087D1*
X2490378Y588134D2*
X2503775Y567087D1*
X2516126Y582386D2*
X2539074D1*
Y586233D1*
X2537173Y590080D1*
X2535272Y591981D1*
X2531425Y593882D1*
X2525677D1*
X2521874Y591981D1*
X2518028Y588134D1*
X2516126Y582386D1*
Y578584D1*
X2518028Y572835D1*
X2521874Y569033D1*
X2525677Y567087D1*
X2531425D1*
X2535272Y569033D1*
X2539074Y572835D1*
X2572472Y588134D2*
X2570571Y591981D1*
X2564823Y593882D1*
X2559075D1*
X2553327Y591981D1*
X2551426Y588134D1*
X2553327Y584332D1*
X2557174Y582386D1*
X2566724Y580485D1*
X2570571Y578584D1*
X2572472Y574737D1*
Y572835D1*
X2570571Y569033D1*
X2564823Y567087D1*
X2559075D1*
X2553327Y569033D1*
X2551426Y572835D1*
X2584824Y582386D2*
X2607772D1*
Y586233D1*
X2605870Y590080D1*
X2603969Y591981D1*
X2600122Y593882D1*
X2594374D1*
X2590572Y591981D1*
X2586725Y588134D1*
X2584824Y582386D1*
Y578584D1*
X2586725Y572835D1*
X2590572Y569033D1*
X2594374Y567087D1*
X2600122D1*
X2603969Y569033D1*
X2607772Y572835D1*
X2625871Y607279D2*
Y574737D1*
X2627772Y569033D1*
X2631619Y567087D1*
X2635422D1*
X2620123Y593882D2*
X2633520D1*
X2610861Y1456466D2*
X2628061D1*
X2633809Y1458412D1*
X2635754Y1460313D1*
X2637656Y1464115D1*
Y1467962D1*
X2635754Y1471765D1*
X2633809Y1473710D1*
X2628061Y1475611D1*
X2610861D1*
Y1435419D1*
X2624258Y1456466D2*
X2637656Y1435419D1*
X2676802Y1469863D2*
X2672999Y1473710D1*
X2667251Y1475611D1*
X2659602D1*
X2653854Y1473710D1*
X2650007Y1469863D1*
Y1466061D1*
X2651953Y1462214D1*
X2653854Y1460313D1*
X2657656Y1458412D1*
X2669152Y1454565D1*
X2672999Y1452664D1*
X2674900Y1450718D1*
X2676802Y1446916D1*
Y1441168D1*
X2672999Y1437365D1*
X2667251Y1435419D1*
X2659602D1*
X2653854Y1437365D1*
X2650007Y1441168D1*
X2702550Y1475611D2*
Y1435419D1*
X2689153Y1475611D2*
X2715948D1*
X1699949Y448382D2*
X1696147Y452229D1*
X1690399Y454130D1*
X1682750D1*
X1677001Y452229D1*
X1673155Y448382D1*
Y444579D1*
X1675100Y440733D1*
X1677001Y438831D1*
X1680804Y436930D1*
X1692300Y433083D1*
X1696147Y431182D1*
X1698048Y429236D1*
X1699949Y425434D1*
Y419686D1*
X1696147Y415883D1*
X1690399Y413938D1*
X1682750D1*
X1677001Y415883D1*
X1673155Y419686D1*
X1712301Y446436D2*
X1716148Y448382D1*
X1721896Y454086D1*
Y413938D1*
X1089423Y451957D2*
X1085620Y455803D1*
X1079872Y457705D1*
X1072223D1*
X1066475Y455803D1*
X1062628Y451957D1*
Y448154D1*
X1064574Y444307D1*
X1066475Y442406D1*
X1070278Y440505D1*
X1081774Y436658D1*
X1085620Y434757D1*
X1087522Y432811D1*
X1089423Y429009D1*
Y423261D1*
X1085620Y419458D1*
X1079872Y417513D1*
X1072223D1*
X1066475Y419458D1*
X1062628Y423261D1*
X1103720Y448110D2*
Y450011D1*
X1105621Y453858D1*
X1107522Y455759D1*
X1111369Y457660D1*
X1119018D1*
X1122821Y455759D1*
X1124722Y453858D1*
X1126668Y450011D1*
Y446209D1*
X1124722Y442362D1*
X1120920Y436658D1*
X1101774Y417513D1*
X1128569D1*
X1088379Y2040459D2*
X1084577Y2044305D1*
X1078829Y2046207D1*
X1071179D1*
X1065431Y2044305D1*
X1061585Y2040459D1*
Y2036656D1*
X1063530Y2032809D1*
X1065431Y2030908D1*
X1069234Y2029007D1*
X1080730Y2025160D1*
X1084577Y2023259D1*
X1086478Y2021313D1*
X1088379Y2017511D1*
Y2011763D1*
X1084577Y2007960D1*
X1078829Y2006015D1*
X1071179D1*
X1065431Y2007960D1*
X1061585Y2011763D1*
X1100731Y2025160D2*
X1117975D1*
X1123679Y2027061D1*
X1125624Y2029007D1*
X1127525Y2032809D1*
Y2038557D1*
X1125624Y2042360D1*
X1123679Y2044305D1*
X1117975Y2046207D1*
X1100731D1*
Y2006015D1*
X1139877Y2046207D2*
Y2006015D1*
X1166671Y2046207D2*
X1139877Y2019412D1*
X1149427Y2029007D2*
X1166671Y2006015D1*
X1179023Y2027061D2*
X1196223D1*
X1201971Y2029007D1*
X1203916Y2030908D1*
X1205817Y2034711D1*
Y2038557D1*
X1203916Y2042360D1*
X1201971Y2044305D1*
X1196223Y2046207D1*
X1179023D1*
Y2006015D1*
X1192420Y2027061D2*
X1205817Y2006015D1*
X2795407Y1295009D2*
Y1266313D1*
X2797308Y1260565D1*
X2801155Y1256763D1*
X2806903Y1254817D1*
X2810705D1*
X2816453Y1256763D1*
X2820300Y1260565D1*
X2822201Y1266313D1*
Y1295009D1*
X2834553Y1287316D2*
X2838400Y1289261D1*
X2844148Y1294965D1*
Y1254817D1*
X2416652Y1471564D2*
Y1442868D1*
X2418553Y1437120D1*
X2422400Y1433318D1*
X2428148Y1431372D1*
X2431950D1*
X2437699Y1433318D1*
X2441545Y1437120D1*
X2443447Y1442868D1*
Y1471564D1*
X2459645Y1471520D2*
X2480647D1*
X2469195Y1456221D1*
X2474943D1*
X2478746Y1454320D1*
X2480647Y1452419D1*
X2482593Y1446671D1*
Y1442868D1*
X2480647Y1437120D1*
X2476845Y1433274D1*
X2471097Y1431372D1*
X2465349D1*
X2459645Y1433274D1*
X2457743Y1435219D1*
X2455798Y1439022D1*
X2244809Y1452934D2*
Y1424238D1*
X2246711Y1418490D1*
X2250557Y1414688D1*
X2256305Y1412742D1*
X2260108D1*
X2265856Y1414688D1*
X2269703Y1418490D1*
X2271604Y1424238D1*
Y1452934D1*
X2306903Y1452890D2*
X2287802D1*
X2285901Y1435690D1*
X2287802Y1437591D1*
X2293550Y1439537D1*
X2299254D1*
X2305002Y1437591D1*
X2308849Y1433789D1*
X2310750Y1428041D1*
Y1424238D1*
X2308849Y1418490D1*
X2305002Y1414644D1*
X2299254Y1412742D1*
X2293550D1*
X2287802Y1414644D1*
X2285901Y1416589D1*
X2283955Y1420392D1*
X1135364Y1530209D2*
Y1501513D1*
X1137266Y1495765D1*
X1141113Y1491963D1*
X1146861Y1490017D1*
X1150663D1*
X1156411Y1491963D1*
X1160258Y1495765D1*
X1162159Y1501513D1*
Y1530209D1*
X1182160Y1490017D2*
X1201305Y1530165D1*
X1174511D1*
X1417195Y747112D2*
Y768115D1*
X1432494Y756663D1*
Y762411D1*
X1434395Y766213D1*
X1436297Y768114D1*
X1442045Y770060D1*
X1445847D1*
X1451595Y768114D1*
X1455442Y764312D1*
X1457343Y758564D1*
Y752816D1*
X1455442Y747112D1*
X1453496Y745211D1*
X1449694Y743265D1*
X1453496Y784313D2*
X1455442Y782411D1*
X1457343Y784313D1*
X1455442Y786258D1*
X1453496Y784313D1*
X1417195Y802456D2*
Y823459D1*
X1432494Y812007D1*
Y817755D1*
X1434395Y821557D1*
X1436297Y823459D1*
X1442045Y825404D1*
X1445847D1*
X1451595Y823459D1*
X1455442Y819656D1*
X1457343Y813908D1*
Y808160D1*
X1455442Y802456D1*
X1453496Y800555D1*
X1449694Y798609D1*
X1430549Y837756D2*
X1457343Y849252D1*
X1430549Y860703D1*
X1785577Y663418D2*
D116*
X1790385Y665850D1*
X1797570Y672980D1*
Y622795D1*
X1865793Y660826D2*
Y663203D1*
X1868170Y668011D1*
X1870546Y670388D1*
X1875355Y672764D1*
X1884916D1*
X1889670Y670388D1*
X1892046Y668011D1*
X1894478Y663203D1*
Y658450D1*
X1892046Y653641D1*
X1887293Y646511D1*
X1863361Y622580D1*
X1896855D1*
X1980600Y672764D2*
X2006853D1*
X1992538Y653641D1*
X1999723D1*
X2004477Y651265D1*
X2006853Y648888D1*
X2009285Y641703D1*
Y636950D1*
X2006853Y629765D1*
X2002100Y624956D1*
X1994915Y622580D1*
X1987730D1*
X1980600Y624956D1*
X1978224Y627388D1*
X1975792Y632141D1*
X2308906Y660635D2*
X2306529Y665388D1*
X2299344Y667764D1*
X2294591D1*
X2287406Y665388D1*
X2282598Y658203D1*
X2280221Y646265D1*
Y634326D1*
X2282598Y624765D1*
X2287406Y619956D1*
X2294591Y617580D1*
X2296968D1*
X2304097Y619956D1*
X2308906Y624765D1*
X2311282Y631950D1*
Y634326D1*
X2308906Y641511D1*
X2304097Y646265D1*
X2296968Y648641D1*
X2294591D1*
X2287406Y646265D1*
X2282598Y641511D1*
X2280221Y634326D1*
X2389783Y617580D2*
X2413714Y667764D1*
X2380221D1*
X2492159D2*
X2485029Y665388D1*
X2482598Y660635D1*
Y655826D1*
X2485029Y651073D1*
X2489783Y648641D1*
X2499344Y646265D1*
X2506529Y643888D1*
X2511282Y639080D1*
X2513659Y634326D1*
Y627141D1*
X2511282Y622388D1*
X2508906Y619956D1*
X2501721Y617580D1*
X2492159D1*
X2485029Y619956D1*
X2482598Y622388D1*
X2480221Y627141D1*
Y634326D1*
X2482598Y639080D1*
X2487406Y643888D1*
X2494536Y646265D1*
X2504097Y648641D1*
X2508906Y651073D1*
X2511282Y655826D1*
Y660635D1*
X2508906Y665388D1*
X2501721Y667764D1*
X2492159D1*
X2616338Y651073D2*
X2613906Y643888D1*
X2609153Y639080D1*
X2601968Y636703D1*
X2599591D1*
X2592406Y639080D1*
X2587653Y643888D1*
X2585221Y651073D1*
Y653450D1*
X2587653Y660635D1*
X2592406Y665388D1*
X2599591Y667764D1*
X2601968D1*
X2609153Y665388D1*
X2613906Y660635D1*
X2616338Y651073D1*
Y639080D1*
X2613906Y627141D1*
X2609153Y619956D1*
X2601968Y617580D1*
X2597214D1*
X2590029Y619956D1*
X2587653Y624765D1*
X1457665Y2019011D2*
D115*
Y1999910D1*
X1474865Y1998009D1*
X1472964Y1999910D1*
X1471018Y2005658D1*
Y2011362D1*
X1472964Y2017110D1*
X1476766Y2020957D1*
X1482514Y2022858D1*
X1486317D1*
X1492065Y2020957D1*
X1495912Y2017110D1*
X1497813Y2011362D1*
Y2005658D1*
X1495912Y1999910D1*
X1493966Y1998009D1*
X1490164Y1996063D1*
X1471018Y2035209D2*
X1497813Y2046705D1*
X1471018Y2058157D1*
X1493301Y505587D2*
D116*
X1443061Y486409D1*
X1493301Y467285D1*
X1476555Y474470D2*
Y498402D1*
X1443117Y535396D2*
X1445493Y528211D1*
X1452678Y523403D1*
X1464616Y521026D1*
X1471801D1*
X1483740Y523403D1*
X1490925Y528211D1*
X1493301Y535396D1*
Y540150D1*
X1490925Y547335D1*
X1483740Y552088D1*
X1471801Y554520D1*
X1464616D1*
X1452678Y552088D1*
X1445493Y547335D1*
X1443117Y540150D1*
Y535396D1*
X1452678Y552088D2*
X1483740Y523403D1*
X2766216Y2056111D2*
D115*
X2806408D1*
X2766215Y2029317D1*
X2806407D1*
X2786334Y2068463D2*
Y2090570D1*
X2766216Y2114418D2*
X2768117Y2110571D1*
X2771964Y2106768D1*
X2775766Y2104823D1*
X2781514Y2102922D1*
X2791109D1*
X2796813Y2104823D1*
X2800659Y2106768D1*
X2804462Y2110571D1*
X2806407Y2114418D1*
Y2122067D1*
X2804462Y2125870D1*
X2800659Y2129716D1*
X2796813Y2131618D1*
X2791109Y2133519D1*
X2781514D1*
X2775766Y2131618D1*
X2771964Y2129716D1*
X2768117Y2125870D1*
X2766216Y2122067D1*
Y2114418D1*
X2779613Y2145870D2*
X2798758D1*
X2804462Y2147772D1*
X2806407Y2151618D1*
Y2157366D1*
X2804462Y2161169D1*
X2798758Y2166917D1*
X2779613D2*
X2806407D1*
X2766216Y2185016D2*
X2798758D1*
X2804462Y2186918D1*
X2806407Y2190764D1*
Y2194567D1*
X2779613Y2179268D2*
Y2192666D1*
X2082754Y845946D2*
D116*
Y896131D1*
X2058822Y862693D1*
X2094692D1*
X2088881Y791405D2*
X2065004D1*
X2062628Y769905D1*
X2065004Y772282D1*
X2072189Y774713D1*
X2079319D1*
X2086504Y772282D1*
X2091313Y767528D1*
X2093689Y760343D1*
Y755590D1*
X2091313Y748405D1*
X2086504Y743597D1*
X2079319Y741220D1*
X2072189D1*
X2065004Y743597D1*
X2062628Y746029D1*
X2060196Y750782D1*
X2771606Y1837021D2*
D115*
X2767760Y1835075D1*
X2762012Y1829371D1*
Y1869519D1*
X2677073Y1838944D2*
Y1837043D1*
X2675172Y1833196D1*
X2673271Y1831295D1*
X2669424Y1829394D1*
X2661774D1*
X2657972Y1831295D1*
X2656071Y1833196D1*
X2654125Y1837043D1*
Y1840845D1*
X2656071Y1844692D1*
X2659873Y1850396D1*
X2679019Y1869541D1*
X2652224D1*
X2569016Y1829518D2*
X2548013D1*
X2559465Y1844817D1*
X2553717D1*
X2549914Y1846718D1*
X2548013Y1848619D1*
X2546068Y1854367D1*
Y1858170D1*
X2548013Y1863918D1*
X2551816Y1867765D1*
X2557564Y1869666D1*
X2563312D1*
X2569016Y1867765D1*
X2570917Y1865819D1*
X2572862Y1862017D1*
X2256228Y1836117D2*
X2258129Y1832315D1*
X2263877Y1830413D1*
X2267680D1*
X2273428Y1832315D1*
X2277275Y1838063D1*
X2279176Y1847613D1*
Y1857164D1*
X2277275Y1864813D1*
X2273428Y1868660D1*
X2267680Y1870561D1*
X2265779D1*
X2260075Y1868660D1*
X2256228Y1864813D1*
X2254327Y1859065D1*
Y1857164D1*
X2256228Y1851416D1*
X2260075Y1847613D1*
X2265779Y1845712D1*
X2267680D1*
X2273428Y1847613D1*
X2277275Y1851416D1*
X2279176Y1857164D1*
X2164150Y1870390D2*
X2145005Y1830243D1*
X2171799D1*
X2069590Y1829568D2*
X2075294Y1831469D1*
X2077239Y1835272D1*
Y1839119D1*
X2075294Y1842921D1*
X2071491Y1844867D1*
X2063842Y1846768D1*
X2058094Y1848669D1*
X2054291Y1852516D1*
X2052390Y1856319D1*
Y1862067D1*
X2054291Y1865869D1*
X2056193Y1867815D1*
X2061941Y1869716D1*
X2069590D1*
X2075294Y1867815D1*
X2077239Y1865869D1*
X2079141Y1862067D1*
Y1856319D1*
X2077239Y1852516D1*
X2073393Y1848669D1*
X2067689Y1846768D1*
X2060039Y1844867D1*
X2056193Y1842921D1*
X2054291Y1839119D1*
Y1835272D1*
X2056193Y1831469D1*
X2061941Y1829568D1*
X2069590D1*
X1955399Y1756008D2*
X1957345Y1761756D1*
X1961147Y1765603D1*
X1966895Y1767504D1*
X1968797D1*
X1974545Y1765603D1*
X1978347Y1761756D1*
X1980293Y1756008D1*
Y1754107D1*
X1978347Y1748359D1*
X1974545Y1744556D1*
X1968797Y1742655D1*
X1966895D1*
X1961147Y1744556D1*
X1957345Y1748359D1*
X1955399Y1756008D1*
Y1765603D1*
X1957345Y1775153D1*
X1961148Y1780901D1*
X1966896Y1782803D1*
X1970698D1*
X1976446Y1780901D1*
X1978347Y1777054D1*
X2462136Y1870597D2*
Y1830449D1*
X2481281Y1857199D1*
X2452585D1*
X2355824Y1829720D2*
X2374925D1*
X2376826Y1846920D1*
X2374925Y1845019D1*
X2369177Y1843073D1*
X2363473D1*
X2357725Y1845019D1*
X2353878Y1848822D1*
X2351977Y1854570D1*
Y1858372D1*
X2353878Y1864120D1*
X2357725Y1867967D1*
X2363473Y1869868D1*
X2369177D1*
X2374925Y1867967D1*
X2376826Y1866021D1*
X2378772Y1862219D1*
X2866114Y1828932D2*
X2871862Y1830833D1*
X2875709Y1836581D1*
X2877610Y1846131D1*
Y1851880D1*
X2875709Y1861430D1*
X2871862Y1867178D1*
X2866114Y1869079D1*
X2862312D1*
X2856564Y1867178D1*
X2852761Y1861430D1*
X2850816Y1851880D1*
Y1846132D1*
X2852761Y1836581D1*
X2856564Y1830833D1*
X2862312Y1828932D1*
X2866114D1*
X2852761Y1836581D2*
X2875709Y1861430D1*
X1890621Y1750532D2*
X1886774Y1748587D1*
X1881026Y1742883D1*
Y1783031D1*
X1857179Y1742883D2*
X1862927Y1744784D1*
X1866773Y1750532D1*
X1868675Y1760083D1*
Y1765831D1*
X1866774Y1775382D1*
X1862927Y1781130D1*
X1857179Y1783031D1*
X1853376D1*
X1847628Y1781130D1*
X1843826Y1775382D1*
X1841880Y1765831D1*
Y1760083D1*
X1843826Y1750532D1*
X1847628Y1744784D1*
X1853376Y1742883D1*
X1857179D1*
X1843826Y1750532D2*
X1866774Y1775382D1*
X1783742Y1836291D2*
X1779895Y1834345D1*
X1774147Y1828642D1*
Y1868789D1*
X1761795Y1836291D2*
X1757949Y1834345D1*
X1752201Y1828642D1*
Y1868789D1*
X1690885Y1836984D2*
X1687038Y1835038D1*
X1681290Y1829335D1*
Y1869482D1*
X1666993Y1838885D2*
Y1836984D1*
X1665092Y1833137D1*
X1663190Y1831236D1*
X1659344Y1829335D1*
X1651694D1*
X1647892Y1831236D1*
X1645991Y1833137D1*
X1644045Y1836984D1*
Y1840786D1*
X1645991Y1844633D1*
X1649793Y1850337D1*
X1668939Y1869482D1*
X1642144D1*
X1593236Y1838329D2*
X1589390Y1836383D1*
X1583642Y1830680D1*
Y1870827D1*
X1567443Y1830680D2*
X1546441D1*
X1557893Y1845978D1*
X1552145D1*
X1548342Y1847880D1*
X1546441Y1849781D1*
X1544496Y1855529D1*
Y1859331D1*
X1546441Y1865079D1*
X1550244Y1868926D1*
X1555992Y1870827D1*
X1561740D1*
X1567444Y1868926D1*
X1569345Y1866981D1*
X1571290Y1863178D1*
X1781796Y1761208D2*
D117*
Y1774108D1*
X1780337Y1778419D1*
X1778911Y1779878D1*
X1776059Y1781304D1*
X1773174D1*
X1770322Y1779878D1*
X1768863Y1778419D1*
X1767437Y1774108D1*
Y1761208D1*
X1797581D1*
X1781796Y1771256D2*
X1797581Y1781304D1*
X1767437Y1795304D2*
X1797581Y1815400D1*
X1767437D2*
X1797581Y1795304D1*
X2025030Y1768844D2*
X2055174D1*
X2025030Y1758796D2*
Y1778892D1*
Y1792892D2*
X2055174Y1812987D1*
X2025030Y1812988D2*
X2055174Y1792892D1*
X831705Y2244219D2*
X801561D1*
X831705Y2224123D2*
X811609Y2244219D1*
X818805Y2237056D2*
X801561Y2224123D1*
X821657Y2210123D2*
X807298D1*
X803020Y2208697D1*
X801561Y2205812D1*
Y2201501D1*
X803020Y2198649D1*
X807298Y2194338D1*
X821657D2*
X801561D1*
X821657Y2180338D2*
X801561D1*
X813035D2*
X817346Y2178879D1*
X820231Y2176027D1*
X821657Y2173142D1*
Y2168831D1*
X831705Y2150520D2*
X807298D1*
X803020Y2149094D1*
X801561Y2146209D1*
Y2143357D1*
X821657Y2154831D2*
Y2144783D1*
X831672Y2122161D2*
X823050Y2129357D1*
X830246Y2120735D1*
X831672Y2122161D1*
X817346Y2090950D2*
X820231Y2092376D1*
X821657Y2096687D1*
Y2100998D1*
X820231Y2105309D1*
X817346Y2106735D1*
X814494Y2105309D1*
X813035Y2102424D1*
X811609Y2095261D1*
X810183Y2092376D1*
X807298Y2090950D1*
X805872D1*
X803020Y2092376D1*
X801561Y2096687D1*
Y2100998D1*
X803020Y2105309D1*
X805872Y2106735D1*
X817346Y2043053D2*
Y2030153D1*
X818805Y2025842D1*
X820231Y2024383D1*
X823083Y2022957D1*
X825968D1*
X828820Y2024383D1*
X830279Y2025842D1*
X831705Y2030153D1*
Y2043053D1*
X801561D1*
X817346Y2033005D2*
X801561Y2022957D1*
X815920Y2008957D2*
Y1996024D1*
X817346Y1991746D1*
X818805Y1990287D1*
X821657Y1988861D1*
X825968D1*
X828820Y1990287D1*
X830279Y1991746D1*
X831705Y1996024D1*
Y2008957D1*
X801561D1*
X831705Y1974861D2*
X801561D1*
X831705Y1926964D2*
X801561D1*
X831705Y1906868D2*
X801561D1*
X817346Y1926964D2*
Y1906868D1*
X821657Y1875657D2*
X801561D1*
X817346D2*
X820231Y1878509D1*
X821657Y1881394D1*
Y1885672D1*
X820231Y1888557D1*
X817346Y1891409D1*
X813035Y1892868D1*
X810183D1*
X805872Y1891409D1*
X803020Y1888557D1*
X801561Y1885672D1*
Y1881394D1*
X803020Y1878509D1*
X805872Y1875657D1*
X831705Y1857346D2*
X807298D1*
X803020Y1855920D1*
X801561Y1853035D1*
Y1850183D1*
X821657Y1861657D2*
Y1851609D1*
X831705Y1802286D2*
X801561Y1790812D1*
X831705Y1779338D1*
X804446Y1763912D2*
X802987Y1765338D1*
X801561Y1763912D1*
X802987Y1762453D1*
X804446Y1763912D1*
X824509Y1746994D2*
X825935D1*
X828820Y1745568D1*
X830246Y1744142D1*
X831672Y1741257D1*
Y1735520D1*
X830246Y1732668D1*
X828820Y1731242D1*
X825935Y1729783D1*
X823083D1*
X820198Y1731242D1*
X815920Y1734094D1*
X801561Y1748453D1*
Y1728357D1*
X2349935Y2209003D2*
D118*
Y2207577D1*
X2348509Y2204692D1*
X2347083Y2203266D1*
X2344198Y2201840D1*
X2338461D1*
X2335609Y2203266D1*
X2334183Y2204692D1*
X2332724Y2207577D1*
Y2210429D1*
X2334183Y2213314D1*
X2337035Y2217592D1*
X2351394Y2231951D1*
X2331298D1*
X2314872Y2201840D2*
X2319150Y2203266D1*
X2320609Y2206118D1*
Y2209003D1*
X2319150Y2211855D1*
X2316298Y2213314D1*
X2310561Y2214740D1*
X2306250Y2216166D1*
X2303398Y2219051D1*
X2301972Y2221903D1*
Y2226214D1*
X2303398Y2229066D1*
X2304824Y2230525D1*
X2309135Y2231951D1*
X2314872D1*
X2319150Y2230525D1*
X2320609Y2229066D1*
X2322035Y2226214D1*
Y2221903D1*
X2320609Y2219051D1*
X2317724Y2216166D1*
X2313446Y2214740D1*
X2307709Y2213314D1*
X2304824Y2211855D1*
X2303398Y2209003D1*
Y2206118D1*
X2304824Y2203266D1*
X2309135Y2201840D1*
X2314872D1*
X2246855Y2209328D2*
Y2207902D1*
X2245429Y2205017D1*
X2244003Y2203591D1*
X2241118Y2202165D1*
X2235381D1*
X2232529Y2203591D1*
X2231103Y2205017D1*
X2229644Y2207902D1*
Y2210754D1*
X2231103Y2213639D1*
X2233955Y2217917D1*
X2248314Y2232276D1*
X2228218D1*
X2213218D2*
X2198859Y2202165D1*
X2218955D1*
X2147007Y2209351D2*
Y2207925D1*
X2145581Y2205040D1*
X2144155Y2203614D1*
X2141270Y2202188D1*
X2135533D1*
X2132681Y2203614D1*
X2131255Y2205040D1*
X2129796Y2207925D1*
Y2210777D1*
X2131255Y2213662D1*
X2134107Y2217939D1*
X2148466Y2232298D1*
X2128370D1*
X2101896Y2206466D2*
X2103322Y2203614D1*
X2107633Y2202188D1*
X2110485D1*
X2114796Y2203614D1*
X2117681Y2207925D1*
X2119107Y2215088D1*
Y2222250D1*
X2117681Y2227987D1*
X2114796Y2230873D1*
X2110485Y2232298D1*
X2109059D1*
X2104781Y2230873D1*
X2101896Y2227987D1*
X2100470Y2223676D1*
Y2222250D1*
X2101896Y2217939D1*
X2104781Y2215088D1*
X2109059Y2213662D1*
X2110485D1*
X2114796Y2215088D1*
X2117681Y2217939D1*
X2119107Y2222250D1*
X2046335Y2208579D2*
Y2207153D1*
X2044909Y2204268D1*
X2043483Y2202842D1*
X2040598Y2201416D1*
X2034861D1*
X2032009Y2202842D1*
X2030584Y2204268D1*
X2029124Y2207153D1*
Y2210005D1*
X2030584Y2212890D1*
X2033435Y2217168D1*
X2047794Y2231527D1*
X2027699D1*
X2004076D2*
Y2201416D1*
X2018435Y2221479D1*
X1996913D1*
X1948831Y2209402D2*
Y2207976D1*
X1947405Y2205091D1*
X1945979Y2203665D1*
X1943094Y2202239D1*
X1937357D1*
X1934506Y2203665D1*
X1933080Y2205091D1*
X1931620Y2207976D1*
Y2210828D1*
X1933080Y2213713D1*
X1935931Y2217991D1*
X1950290Y2232350D1*
X1930195D1*
X1918046Y2202239D2*
X1902294D1*
X1910883Y2213713D1*
X1906572D1*
X1903720Y2215139D1*
X1902294Y2216565D1*
X1900835Y2220876D1*
Y2223728D1*
X1902294Y2228039D1*
X1905146Y2230924D1*
X1909457Y2232350D1*
X1913768D1*
X1918046Y2230924D1*
X1919472Y2229465D1*
X1920931Y2226613D1*
X1848037Y2209095D2*
Y2207669D1*
X1846611Y2204784D1*
X1845186Y2203358D1*
X1842300Y2201932D1*
X1836563D1*
X1833712Y2203358D1*
X1832286Y2204784D1*
X1830827Y2207669D1*
Y2210521D1*
X1832286Y2213406D1*
X1835138Y2217684D1*
X1849497Y2232043D1*
X1829401D1*
X1818678Y2209095D2*
Y2207669D1*
X1817252Y2204784D1*
X1815826Y2203358D1*
X1812941Y2201932D1*
X1807204D1*
X1804352Y2203358D1*
X1802926Y2204784D1*
X1801467Y2207669D1*
Y2210521D1*
X1802926Y2213406D1*
X1805778Y2217684D1*
X1820137Y2232043D1*
X1800041D1*
X1740795Y2209440D2*
Y2208014D1*
X1739369Y2205129D1*
X1737943Y2203703D1*
X1735058Y2202277D1*
X1729321D1*
X1726469Y2203703D1*
X1725043Y2205129D1*
X1723584Y2208014D1*
Y2210866D1*
X1725043Y2213751D1*
X1727895Y2218029D1*
X1742254Y2232388D1*
X1722158D1*
X1712894Y2208014D2*
X1710009Y2206555D1*
X1705698Y2202277D1*
Y2232388D1*
X1640591Y2207014D2*
X1637706Y2205555D1*
X1633395Y2201277D1*
Y2231388D1*
X1605461Y2211292D2*
X1606921Y2215603D1*
X1609772Y2218488D1*
X1614083Y2219914D1*
X1615509D1*
X1619820Y2218488D1*
X1622672Y2215603D1*
X1624131Y2211292D1*
Y2209866D1*
X1622672Y2205555D1*
X1619820Y2202703D1*
X1615509Y2201277D1*
X1614083D1*
X1609772Y2202703D1*
X1606921Y2205555D1*
X1605461Y2211292D1*
Y2218488D1*
X1606921Y2225651D1*
X1609772Y2229962D1*
X1614083Y2231388D1*
X1616935D1*
X1621246Y2229962D1*
X1622672Y2227077D1*
X2485863Y2273350D2*
Y2303494D1*
X2465767Y2273350D2*
Y2303494D1*
X2485863Y2287709D2*
X2465767D1*
X2449340Y2283398D2*
X2452192Y2284824D1*
X2455077Y2287709D1*
X2456503Y2292020D1*
Y2294872D1*
X2455077Y2299183D1*
X2452192Y2302035D1*
X2449340Y2303494D1*
X2445029D1*
X2442144Y2302035D1*
X2439292Y2299183D1*
X2437833Y2294872D1*
Y2292020D1*
X2439292Y2287709D1*
X2442144Y2284824D1*
X2445029Y2283398D1*
X2449340D1*
X2412785Y2287709D2*
X2414211Y2284824D1*
X2418522Y2283398D1*
X2422833D1*
X2427144Y2284824D1*
X2428570Y2287709D1*
X2427144Y2290561D1*
X2424259Y2292020D1*
X2417096Y2293446D1*
X2414211Y2294872D1*
X2412785Y2297757D1*
Y2299183D1*
X2414211Y2302035D1*
X2418522Y2303494D1*
X2422833D1*
X2427144Y2302035D1*
X2428570Y2299183D1*
X2399210Y2273350D2*
Y2297757D1*
X2397784Y2302035D1*
X2394899Y2303494D1*
X2392047D1*
X2403521Y2283398D2*
X2393473D1*
X1647966Y1792372D2*
D117*
Y1762228D1*
X1668062Y1792372D2*
Y1762228D1*
X1647966Y1778013D2*
X1668062D1*
X1689225Y1782324D2*
X1686373Y1780898D1*
X1683488Y1778013D1*
X1682062Y1773702D1*
Y1770850D1*
X1683488Y1766539D1*
X1686373Y1763687D1*
X1689225Y1762228D1*
X1693536D1*
X1696421Y1763687D1*
X1699273Y1766539D1*
X1700732Y1770850D1*
Y1773702D1*
X1699273Y1778013D1*
X1696421Y1780898D1*
X1693536Y1782324D1*
X1689225D1*
X1730517Y1778013D2*
X1729091Y1780898D1*
X1724780Y1782324D1*
X1720469D1*
X1716158Y1780898D1*
X1714732Y1778013D1*
X1716158Y1775161D1*
X1719043Y1773702D1*
X1726206Y1772276D1*
X1729091Y1770850D1*
X1730517Y1767965D1*
Y1766539D1*
X1729091Y1763687D1*
X1724780Y1762228D1*
X1720469D1*
X1716158Y1763687D1*
X1714732Y1766539D1*
X1748828Y1792372D2*
Y1767965D1*
X1750254Y1763687D1*
X1753139Y1762228D1*
X1755991D1*
X1744517Y1782324D2*
X1754565D1*
X1517658Y2201348D2*
D118*
X1531984D1*
X1533410Y2214248D1*
X1531984Y2212822D1*
X1527673Y2211363D1*
X1523395D1*
X1519084Y2212822D1*
X1516199Y2215674D1*
X1514773Y2219985D1*
Y2222837D1*
X1516199Y2227148D1*
X1519084Y2230033D1*
X1523395Y2231459D1*
X1527673D1*
X1531984Y2230033D1*
X1533410Y2228573D1*
X1534869Y2225722D1*
X1428172Y2200240D2*
X1412420D1*
X1421009Y2211714D1*
X1416698D1*
X1413846Y2213140D1*
X1412420Y2214566D1*
X1410961Y2218877D1*
Y2221729D1*
X1412420Y2226040D1*
X1415272Y2228925D1*
X1419583Y2230351D1*
X1423894D1*
X1428172Y2228925D1*
X1429598Y2227466D1*
X1431057Y2224614D1*
X1119440Y570765D2*
D115*
X1159632Y586064D1*
X1119440Y601363D1*
Y613714D2*
X1159632D1*
X1119440Y652860D2*
X1159632D1*
X1119440Y626065D1*
X1159632D1*
X1685878Y618795D2*
D116*
X1666700Y669035D1*
X1647577Y618795D1*
X1654762Y635542D2*
X1678693D1*
X1715688Y668980D2*
X1708503Y666603D1*
X1703694Y659418D1*
X1701318Y647480D1*
Y640295D1*
X1703694Y628357D1*
X1708503Y621172D1*
X1715688Y618795D1*
X1720441D1*
X1727626Y621172D1*
X1732379Y628357D1*
X1734811Y640295D1*
Y647480D1*
X1732379Y659418D1*
X1727626Y666603D1*
X1720441Y668980D1*
X1715688D1*
X1732379Y659418D2*
X1703694Y628357D1*
X2108822Y986186D2*
Y935946D1*
X2126693Y974192D2*
Y976569D1*
X2129070Y981377D1*
X2131446Y983754D1*
X2136255Y986131D1*
X2145816D1*
X2150570Y983754D1*
X2152946Y981377D1*
X2155378Y976569D1*
Y971816D1*
X2152946Y967007D1*
X2148193Y959878D1*
X2124261Y935946D1*
X2157755D1*
X2209064Y974248D2*
X2206687Y979001D1*
X2201879Y983809D1*
X2197126Y986186D1*
X2187564D1*
X2182755Y983809D1*
X2178002Y979001D1*
X2175570Y974248D1*
X2173194Y967063D1*
Y955069D1*
X2175570Y947939D1*
X2178002Y943131D1*
X2182755Y938378D1*
X2187564Y935946D1*
X2197126D1*
X2201879Y938378D1*
X2206687Y943131D1*
X2209064Y947939D1*
M02*
