M48
INCH
T01C0.0191
T02C0.025
T03C0.0315
T04C0.035
T05C0.0354
T06C0.038
T07C0.04
T08C0.0433
T09C0.118
T10C0.125
%
T01
X+031337Y+015737
X+031337Y+015137
X+031937Y+014337
X+029495Y+014484
X+029537Y+015137
X+029537Y+016337
X+028942Y+013880
X+028937Y+012937
X+034359Y+013118
X+033511Y+017141
X+034537Y+020537
X+032337Y+021937
X+023687Y+016187
X+022177Y+015238
X+021226Y+014908
X+021067Y+015837
X+015076Y+014308
X+014437Y+013687
X+014134Y+017150
X+013219Y+022556
X+012101Y+005927
X+022937Y+006337
X+033967Y+008982
X+036310Y+005039
T02
X+021553Y+007770
T03
X+035437Y+022437
X+035437Y+023087
X+035437Y+023787
X+035437Y+024437
T04
X+009597Y+022037
X+010267Y+022037
X+010937Y+022037
X+011607Y+022037
X+012277Y+022037
T05
X+014687Y+011575
X+014687Y+010575
X+014687Y+009575
X+014687Y+008575
X+014687Y+007575
X+014687Y+012575
X+013437Y+012621
X+013437Y+013621
X+013437Y+014621
X+013437Y+015621
X+015187Y+016687
X+016187Y+016687
X+016187Y+017937
X+015187Y+017937
X+014187Y+017937
X+015187Y+019187
X+016187Y+019187
X+016187Y+020187
X+015187Y+020187
X+014187Y+020187
X+015187Y+021437
X+015187Y+022437
X+014187Y+022437
X+016187Y+022437
X+016187Y+021437
X+017937Y+022937
X+018937Y+022937
X+019937Y+022937
X+020937Y+022937
X+021937Y+022937
X+022937Y+022937
X+023937Y+022937
X+024937Y+022937
X+025187Y+021337
X+024187Y+021337
X+023187Y+021337
X+023187Y+020337
X+023187Y+019337
X+024187Y+019337
X+024187Y+020337
X+025187Y+020337
X+025187Y+019337
X+026187Y+019337
X+026187Y+020337
X+026187Y+021337
X+027187Y+021337
X+027187Y+020337
X+027187Y+019337
X+028187Y+019337
X+029187Y+019337
X+029187Y+020337
X+028187Y+020337
X+028187Y+021337
X+029187Y+021337
X+030187Y+019337
X+031187Y+019337
X+032187Y+019337
X+033187Y+019337
X+034187Y+019337
X+035187Y+019337
X+036187Y+019337
X+033187Y+022937
X+033187Y+023937
X+033187Y+024937
X+020867Y+019387
X+021687Y+011575
X+021687Y+010575
X+021687Y+009575
X+021687Y+008575
X+024187Y+008187
X+025187Y+008187
X+025187Y+009187
X+025187Y+010187
X+024187Y+010187
X+024187Y+009187
X+026187Y+009187
X+026187Y+010187
X+027187Y+010187
X+027187Y+009187
X+028187Y+009187
X+028187Y+010187
X+029187Y+010187
X+030187Y+010187
X+030187Y+009187
X+029187Y+009187
X+029187Y+008187
X+030187Y+008187
X+031187Y+008187
X+031187Y+009187
X+031187Y+010187
X+032187Y+010187
X+032187Y+009187
X+033187Y+009187
X+033187Y+010187
X+034937Y+010187
X+034937Y+009187
X+035937Y+009187
X+035937Y+010187
X+033187Y+008187
X+032187Y+008187
X+028187Y+008187
X+027187Y+008187
X+026187Y+008187
T06
X+018307Y+019387
X+022937Y+017687
X+022937Y+016687
X+022937Y+015687
X+022937Y+014687
X+022937Y+012687
X+022937Y+011687
X+023937Y+011687
X+024937Y+011687
X+025937Y+011687
X+026937Y+011687
X+027937Y+011687
X+028937Y+011687
X+029937Y+011687
X+030937Y+011687
X+030937Y+012687
X+031937Y+012687
X+031937Y+011687
X+032937Y+011687
X+033937Y+011687
X+034937Y+011687
X+034937Y+012687
X+035937Y+011687
X+032937Y+012687
X+032937Y+017687
X+033937Y+017687
X+034937Y+017687
X+035937Y+017687
X+031937Y+017687
X+030937Y+017687
X+029937Y+017687
X+028937Y+017687
X+027937Y+017687
X+026937Y+017687
X+025937Y+017687
X+024937Y+017687
X+023937Y+017687
T07
X+007232Y+024106
X+008232Y+024106
X+008232Y+025106
X+007232Y+025106
X+009232Y+025106
X+010232Y+025106
X+010232Y+024106
X+009232Y+024106
X+011232Y+024106
X+012232Y+024106
X+013232Y+024106
X+013232Y+025106
X+012232Y+025106
X+011232Y+025106
X+014232Y+025106
X+015232Y+025106
X+015232Y+024106
X+014232Y+024106
X+016232Y+024106
X+016232Y+025106
X+017232Y+025106
X+017232Y+024106
X+018232Y+024106
X+019232Y+024106
X+019232Y+025106
X+018232Y+025106
X+020232Y+025106
X+021232Y+025106
X+021232Y+024106
X+020232Y+024106
X+022232Y+024106
X+022232Y+025106
X+023232Y+025106
X+023232Y+024106
X+024232Y+024106
X+024232Y+025106
X+025232Y+025106
X+026232Y+025106
X+026232Y+024106
X+025232Y+024106
X+033437Y+014687
X+011437Y+016437
X+010437Y+016437
X+009437Y+016437
X+007187Y+015637
X+006187Y+015637
X+005187Y+015637
X+005187Y+013537
X+006187Y+013537
X+007187Y+013537
X+007187Y+011437
X+006187Y+011437
X+005187Y+011437
X+011187Y+011537
X+011187Y+012537
X+011187Y+013537
X+007187Y+017737
X+006187Y+017737
X+005187Y+017737
X+005187Y+019837
X+006187Y+019837
X+007187Y+019837
X+007187Y+021937
X+006187Y+021937
X+005187Y+021937
T08
X+009187Y+013537
X+009187Y+012537
X+009187Y+011537
T09
X+009187Y+009581
X+011037Y+008400
X+009187Y+007219
T10
X+028150Y+005315
X+028150Y+024606
X+005315Y+024606
X+005315Y+005315
T00
M30
