G04 DipTrace 3.0.0.0*
G04 TeensyArbotixProRPI.gbo*
%MOIN*%
G04 #@! TF.FileFunction,Legend,Bot*
G04 #@! TF.Part,Single*
%ADD124C,0.00772*%
%ADD126C,0.007*%
%FSLAX26Y26*%
G04*
G70*
G90*
G75*
G01*
G04 BotSilk*
%LPD*%
X2356721Y533863D2*
D126*
Y483623D1*
X2323228Y533863D2*
X2356721Y500370D1*
X2344783Y512363D2*
X2323228Y483623D1*
X2309228Y517117D2*
Y493185D1*
X2306852Y486055D1*
X2302043Y483623D1*
X2294858D1*
X2290105Y486055D1*
X2282920Y493185D1*
Y517117D2*
Y483623D1*
X2268920Y517117D2*
Y483623D1*
Y502747D2*
X2266488Y509932D1*
X2261735Y514740D1*
X2256926Y517117D1*
X2249741D1*
X2228556Y533863D2*
Y493185D1*
X2226180Y486055D1*
X2221371Y483623D1*
X2216618D1*
X2235741Y517117D2*
X2218995D1*
X2190625Y533808D2*
X2202618Y519438D1*
X2188248Y531431D1*
X2190625Y533808D1*
X2147940Y509932D2*
X2150316Y514740D1*
X2157501Y517117D1*
X2164686D1*
X2171871Y514740D1*
X2174248Y509932D1*
X2171871Y505178D1*
X2167063Y502747D1*
X2155125Y500370D1*
X2150316Y497993D1*
X2147940Y493185D1*
Y490808D1*
X2150316Y486055D1*
X2157501Y483623D1*
X2164686D1*
X2171871Y486055D1*
X2174248Y490808D1*
X2070031Y533863D2*
Y483623D1*
X2086778Y533863D2*
X2053285D1*
X2039285Y502747D2*
X2010600D1*
Y507555D1*
X2012976Y512363D1*
X2015353Y514740D1*
X2020161Y517117D1*
X2027346D1*
X2032100Y514740D1*
X2036908Y509932D1*
X2039285Y502747D1*
Y497993D1*
X2036908Y490808D1*
X2032100Y486055D1*
X2027346Y483623D1*
X2020161D1*
X2015353Y486055D1*
X2010600Y490808D1*
X1996600Y502747D2*
X1967915D1*
Y507555D1*
X1970291Y512363D1*
X1972668Y514740D1*
X1977476Y517117D1*
X1984662D1*
X1989415Y514740D1*
X1994223Y509932D1*
X1996600Y502747D1*
Y497993D1*
X1994223Y490808D1*
X1989415Y486055D1*
X1984662Y483623D1*
X1977476D1*
X1972668Y486055D1*
X1967915Y490808D1*
X1953915Y517117D2*
Y483623D1*
Y507555D2*
X1946730Y514740D1*
X1941921Y517117D1*
X1934792D1*
X1929983Y514740D1*
X1927607Y507555D1*
Y483623D1*
X1887298Y509932D2*
X1889675Y514740D1*
X1896860Y517117D1*
X1904045D1*
X1911230Y514740D1*
X1913607Y509932D1*
X1911230Y505178D1*
X1906422Y502747D1*
X1894483Y500370D1*
X1889675Y497993D1*
X1887298Y493185D1*
Y490808D1*
X1889675Y486055D1*
X1896860Y483623D1*
X1904045D1*
X1911230Y486055D1*
X1913607Y490808D1*
X1870866Y517117D2*
X1856552Y483623D1*
X1861305Y474062D1*
X1866113Y469253D1*
X1870866Y466877D1*
X1873298D1*
X1842182Y517117D2*
X1856552Y483623D1*
X1742718D2*
X1761897Y533863D1*
X1781020Y483623D1*
X1773835Y500370D2*
X1749903D1*
X1728718Y517117D2*
Y483623D1*
Y502747D2*
X1726286Y509932D1*
X1721533Y514740D1*
X1716725Y517117D1*
X1709539D1*
X1695539Y533863D2*
Y483623D1*
Y509932D2*
X1690731Y514740D1*
X1685978Y517117D1*
X1678793D1*
X1674040Y514740D1*
X1669231Y509932D1*
X1666855Y502747D1*
Y497993D1*
X1669231Y490808D1*
X1674040Y486055D1*
X1678793Y483623D1*
X1685978D1*
X1690731Y486055D1*
X1695539Y490808D1*
X1640916Y517117D2*
X1645670Y514740D1*
X1650478Y509932D1*
X1652855Y502747D1*
Y497993D1*
X1650478Y490808D1*
X1645670Y486055D1*
X1640916Y483623D1*
X1633731D1*
X1628923Y486055D1*
X1624170Y490808D1*
X1621738Y497993D1*
Y502747D1*
X1624170Y509932D1*
X1628923Y514740D1*
X1633731Y517117D1*
X1640916D1*
X1600553Y533863D2*
Y493185D1*
X1598176Y486055D1*
X1593368Y483623D1*
X1588615D1*
X1607738Y517117D2*
X1590991D1*
X1574615Y533863D2*
X1572238Y531487D1*
X1569806Y533863D1*
X1572238Y536295D1*
X1574615Y533863D1*
X1572238Y517117D2*
Y483623D1*
X1555806Y517117D2*
X1529498Y483623D1*
Y517117D2*
X1555806Y483623D1*
X1468336Y509932D2*
X1446836D1*
X1439651Y512363D1*
X1437219Y514740D1*
X1434843Y519493D1*
Y524302D1*
X1437219Y529055D1*
X1439651Y531487D1*
X1446836Y533863D1*
X1468336D1*
Y483623D1*
X1451589Y509932D2*
X1434843Y483623D1*
X1420843Y507555D2*
X1399288D1*
X1392158Y509932D1*
X1389726Y512363D1*
X1387349Y517117D1*
Y524302D1*
X1389726Y529055D1*
X1392158Y531487D1*
X1399288Y533863D1*
X1420843D1*
Y483623D1*
X1373349Y533863D2*
Y483623D1*
X1312188Y533863D2*
Y483623D1*
X1278694Y533863D2*
Y483623D1*
X1312188Y509932D2*
X1278694D1*
X1236009Y517117D2*
Y483623D1*
Y509932D2*
X1240763Y514740D1*
X1245571Y517117D1*
X1252701D1*
X1257509Y514740D1*
X1262263Y509932D1*
X1264694Y502747D1*
Y497993D1*
X1262263Y490808D1*
X1257509Y486055D1*
X1252701Y483623D1*
X1245571D1*
X1240763Y486055D1*
X1236009Y490808D1*
X1214824Y533863D2*
Y493185D1*
X1212448Y486055D1*
X1207639Y483623D1*
X1202886D1*
X1222009Y517117D2*
X1205263D1*
X1141725Y533863D2*
X1122601Y483623D1*
X1103478Y533863D1*
X1087101Y488432D2*
X1089478Y486000D1*
X1087101Y483623D1*
X1084670Y486000D1*
X1087101Y488432D1*
X1070670Y524246D2*
X1065861Y526678D1*
X1058676Y533808D1*
Y483623D1*
X2516102Y1108830D2*
D124*
X2511293Y1111262D1*
X2504108Y1118392D1*
Y1068207D1*
X2624170Y1107454D2*
Y1109830D1*
X2621793Y1114639D1*
X2619416Y1117015D1*
X2614608Y1119392D1*
X2605046D1*
X2600293Y1117015D1*
X2597917Y1114639D1*
X2595485Y1109830D1*
Y1105077D1*
X2597917Y1100269D1*
X2602670Y1093139D1*
X2626601Y1069207D1*
X2593108D1*
X2721793Y1119392D2*
X2695540D1*
X2709855Y1100269D1*
X2702670D1*
X2697917Y1097892D1*
X2695540Y1095515D1*
X2693108Y1088330D1*
Y1083577D1*
X2695540Y1076392D1*
X2700293Y1071584D1*
X2707478Y1069207D1*
X2714663D1*
X2721793Y1071584D1*
X2724170Y1074015D1*
X2726601Y1078769D1*
X3008172Y1112262D2*
X3010549Y1117015D1*
X3017734Y1119392D1*
X3022487D1*
X3029672Y1117015D1*
X3034481Y1109830D1*
X3036857Y1097892D1*
Y1085954D1*
X3034481Y1076392D1*
X3029672Y1071584D1*
X3022487Y1069207D1*
X3020111D1*
X3012981Y1071584D1*
X3008172Y1076392D1*
X3005796Y1083577D1*
Y1085954D1*
X3008172Y1093139D1*
X3012981Y1097892D1*
X3020111Y1100269D1*
X3022487D1*
X3029672Y1097892D1*
X3034481Y1093139D1*
X3036857Y1085954D1*
X3129727Y1069207D2*
X3105796Y1119392D1*
X3139289D1*
X3227296D2*
X3234425Y1117015D1*
X3236857Y1112262D1*
Y1107454D1*
X3234425Y1102700D1*
X3229672Y1100269D1*
X3220111Y1097892D1*
X3212925Y1095515D1*
X3208172Y1090707D1*
X3205796Y1085954D1*
Y1078769D1*
X3208172Y1074015D1*
X3210549Y1071584D1*
X3217734Y1069207D1*
X3227296D1*
X3234425Y1071584D1*
X3236857Y1074015D1*
X3239234Y1078769D1*
Y1085954D1*
X3236857Y1090707D1*
X3232049Y1095515D1*
X3224919Y1097892D1*
X3215357Y1100269D1*
X3210549Y1102700D1*
X3208172Y1107454D1*
Y1112262D1*
X3210549Y1117015D1*
X3217734Y1119392D1*
X3227296D1*
X3310796Y1102700D2*
X3313228Y1095515D1*
X3317981Y1090707D1*
X3325166Y1088330D1*
X3327542D1*
X3334727Y1090707D1*
X3339481Y1095515D1*
X3341912Y1102700D1*
Y1105077D1*
X3339481Y1112262D1*
X3334727Y1117015D1*
X3327542Y1119392D1*
X3325166D1*
X3317981Y1117015D1*
X3313228Y1112262D1*
X3310796Y1102700D1*
Y1090707D1*
X3313228Y1078769D1*
X3317981Y1071584D1*
X3325166Y1069207D1*
X3329919D1*
X3337104Y1071584D1*
X3339481Y1076392D1*
X2420041Y1069207D2*
X2439219Y1119447D1*
X2458342Y1069207D1*
X2451157Y1085954D2*
X2427226D1*
X2390231Y1119392D2*
X2397416Y1117015D1*
X2402225Y1109830D1*
X2404601Y1097892D1*
Y1090707D1*
X2402225Y1078769D1*
X2397416Y1071584D1*
X2390231Y1069207D1*
X2385478D1*
X2378293Y1071584D1*
X2373540Y1078769D1*
X2371108Y1090707D1*
Y1097892D1*
X2373540Y1109830D1*
X2378293Y1117015D1*
X2385478Y1119392D1*
X2390231D1*
X2373540Y1109830D2*
X2402225Y1078769D1*
X2814292Y1072573D2*
Y1122758D1*
X2838223Y1089320D1*
X2802353D1*
X2908536Y1118032D2*
X2932412D1*
X2934789Y1096532D1*
X2932412Y1098909D1*
X2925227Y1101341D1*
X2918098D1*
X2910913Y1098909D1*
X2906104Y1094156D1*
X2903727Y1086971D1*
Y1082218D1*
X2906104Y1075032D1*
X2910913Y1070224D1*
X2918098Y1067847D1*
X2925227D1*
X2932412Y1070224D1*
X2934789Y1072656D1*
X2937221Y1077409D1*
X3515600Y1832487D2*
X3520408Y1830055D1*
X3527593Y1822925D1*
Y1873110D1*
X3410756Y1834572D2*
Y1832195D1*
X3413133Y1827387D1*
X3415509Y1825010D1*
X3420318Y1822634D1*
X3429879D1*
X3434632Y1825010D1*
X3437009Y1827387D1*
X3439441Y1832195D1*
Y1836948D1*
X3437009Y1841757D1*
X3432256Y1848887D1*
X3408324Y1872818D1*
X3441817D1*
X3300068Y1822634D2*
X3326321D1*
X3312006Y1841757D1*
X3319192D1*
X3323945Y1844133D1*
X3326321Y1846510D1*
X3328753Y1853695D1*
Y1858448D1*
X3326321Y1865633D1*
X3321568Y1870442D1*
X3314383Y1872818D1*
X3307198D1*
X3300068Y1870442D1*
X3297692Y1868010D1*
X3295260Y1863257D1*
X3023269Y1832346D2*
X3020892Y1827593D1*
X3013707Y1825216D1*
X3008954D1*
X3001769Y1827593D1*
X2996961Y1834778D1*
X2994584Y1846716D1*
Y1858654D1*
X2996961Y1868216D1*
X3001769Y1873024D1*
X3008954Y1875401D1*
X3011331D1*
X3018460Y1873024D1*
X3023269Y1868216D1*
X3025646Y1861031D1*
Y1858654D1*
X3023269Y1851469D1*
X3018460Y1846716D1*
X3011331Y1844340D1*
X3008954D1*
X3001769Y1846716D1*
X2996961Y1851469D1*
X2994584Y1858654D1*
X2913768Y1877551D2*
X2937699Y1827366D1*
X2904206D1*
X2815993Y1826075D2*
X2808864Y1828451D1*
X2806432Y1833204D1*
Y1838013D1*
X2808864Y1842766D1*
X2813617Y1845198D1*
X2823178Y1847574D1*
X2830364Y1849951D1*
X2835117Y1854759D1*
X2837493Y1859513D1*
Y1866698D1*
X2835117Y1871451D1*
X2832740Y1873883D1*
X2825555Y1876259D1*
X2815994D1*
X2808864Y1873883D1*
X2806432Y1871451D1*
X2804055Y1866698D1*
Y1859513D1*
X2806432Y1854759D1*
X2811240Y1849951D1*
X2818370Y1847574D1*
X2827932Y1845198D1*
X2832740Y1842766D1*
X2835117Y1838013D1*
Y1833204D1*
X2832740Y1828451D1*
X2825555Y1826075D1*
X2815993D1*
X2734211Y1844057D2*
X2731779Y1851242D1*
X2727026Y1856051D1*
X2719841Y1858427D1*
X2717464D1*
X2710279Y1856051D1*
X2705526Y1851242D1*
X2703094Y1844057D1*
Y1841681D1*
X2705526Y1834496D1*
X2710279Y1829743D1*
X2717464Y1827366D1*
X2719841D1*
X2727026Y1829742D1*
X2731779Y1834496D1*
X2734211Y1844057D1*
Y1856051D1*
X2731779Y1867989D1*
X2727026Y1875174D1*
X2719841Y1877551D1*
X2715088D1*
X2707903Y1875174D1*
X2705526Y1870366D1*
X3215374Y1872312D2*
Y1822127D1*
X3191442Y1855565D1*
X3227312D1*
X3127807Y1821274D2*
X3103930D1*
X3101554Y1842774D1*
X3103930Y1840397D1*
X3111116Y1837965D1*
X3118245D1*
X3125430Y1840397D1*
X3130239Y1845150D1*
X3132615Y1852335D1*
Y1857089D1*
X3130239Y1864274D1*
X3125430Y1869082D1*
X3118245Y1871459D1*
X3111116D1*
X3103931Y1869082D1*
X3101554Y1866650D1*
X3099122Y1861897D1*
X3617598Y1816235D2*
X3610413Y1818611D1*
X3605605Y1825796D1*
X3603228Y1837735D1*
Y1844920D1*
X3605605Y1856858D1*
X3610413Y1864043D1*
X3617598Y1866419D1*
X3622352D1*
X3629537Y1864043D1*
X3634290Y1856858D1*
X3636722Y1844920D1*
Y1837734D1*
X3634290Y1825796D1*
X3629537Y1818611D1*
X3622352Y1816235D1*
X3617598D1*
X3634290Y1825796D2*
X3605605Y1856858D1*
X2587139Y1836080D2*
X2591948Y1833648D1*
X2599133Y1826518D1*
Y1876703D1*
X2628942Y1826518D2*
X2621757Y1828895D1*
X2616949Y1836080D1*
X2614572Y1848018D1*
Y1855203D1*
X2616949Y1867141D1*
X2621757Y1874326D1*
X2628942Y1876703D1*
X2633695D1*
X2640880Y1874326D1*
X2645634Y1867141D1*
X2648065Y1855203D1*
Y1848018D1*
X2645634Y1836080D1*
X2640880Y1828895D1*
X2633695Y1826518D1*
X2628942D1*
X2645634Y1836080D2*
X2616949Y1867141D1*
X2495566Y1832514D2*
X2500374Y1830082D1*
X2507559Y1822953D1*
Y1873137D1*
X2522998Y1832514D2*
X2527807Y1830082D1*
X2534992Y1822952D1*
Y1873137D1*
X2388209Y1835823D2*
X2393017Y1833391D1*
X2400202Y1826261D1*
X2400203Y1876446D1*
X2418074Y1838199D2*
Y1835823D1*
X2420450Y1831014D1*
X2422827Y1828638D1*
X2427635Y1826261D1*
X2437197D1*
X2441950Y1828637D1*
X2444327Y1831014D1*
X2446758Y1835823D1*
Y1840576D1*
X2444327Y1845384D1*
X2439573Y1852514D1*
X2415642Y1876446D1*
X2449135D1*
X2286269Y1837680D2*
X2291078Y1835248D1*
X2298263Y1828118D1*
Y1878303D1*
X2318511Y1828118D2*
X2344764D1*
X2330449Y1847241D1*
X2337634D1*
X2342387Y1849618D1*
X2344764Y1851994D1*
X2347195Y1859179D1*
Y1863933D1*
X2344764Y1871118D1*
X2340010Y1875926D1*
X2332825Y1878303D1*
X2325640D1*
X2318511Y1875926D1*
X2316134Y1873494D1*
X2313702Y1868741D1*
M02*
