G04 DipTrace 3.0.0.0*
G04 TeensyArbotixProRPI.gto*
%MOIN*%
G04 #@! TF.FileFunction,Legend,Top*
G04 #@! TF.Part,Single*
%ADD10C,0.009843*%
%ADD18C,0.008*%
%ADD43C,0.006*%
%ADD44C,0.005*%
%ADD53C,0.011806*%
%ADD58C,0.015401*%
%ADD123C,0.006176*%
%ADD124C,0.00772*%
%ADD125C,0.004632*%
%ADD126C,0.007*%
%ADD127C,0.012351*%
%FSLAX26Y26*%
G04*
G70*
G90*
G75*
G01*
G04 TopSilk*
%LPD*%
X2218701Y1532505D2*
D10*
X1418701D1*
Y482505D1*
X2218701D1*
Y1532505D1*
X713704Y718925D2*
D18*
X644959D1*
X569945D2*
X501200D1*
Y893935D1*
X538707Y931445D1*
X569945D1*
X713704Y718925D2*
Y893935D1*
X676197Y931445D1*
X644959D1*
X1059961Y2024953D2*
Y1956208D1*
Y1881194D2*
Y1812449D1*
X884951D1*
X847441Y1849956D1*
Y1881194D1*
X1059961Y2024953D2*
X884951D1*
X847441Y1987446D1*
Y1956208D1*
X3092918Y2089370D2*
D10*
X2994484D1*
X3092918Y2081921D2*
X2994484D1*
X3092918D2*
Y2105481D1*
X2994484Y2081921D2*
Y2105481D1*
X2288403Y887013D2*
X2339545D1*
X1107441Y1757449D2*
D18*
Y1826194D1*
Y1901208D2*
Y1969953D1*
X1282451D1*
X1319961Y1932446D1*
Y1901208D1*
X1107441Y1757449D2*
X1282451D1*
X1319961Y1794956D1*
Y1826194D1*
X2968701Y968701D2*
D10*
X2368701D1*
Y768701D1*
X2968701D2*
X2368701D1*
X2968701Y968701D2*
Y768701D1*
X2368701Y968701D2*
X2968701D1*
X2368701Y1068701D2*
X2968701D1*
X2368701Y968701D2*
Y1068701D1*
X2968701Y968701D2*
Y1068701D1*
X3368701Y968701D2*
X2968701D1*
X3368701Y768701D2*
X2968701D1*
X3368701Y968701D2*
Y768701D1*
X2968701Y968701D2*
Y768701D1*
X3368701Y968701D2*
Y1068701D1*
X2968701Y968701D2*
X3368701D1*
X2968701Y1068701D2*
X3368701D1*
X2968701Y968701D2*
Y1068701D1*
Y1983701D2*
Y2183701D1*
X2268701Y1983701D2*
Y2183701D1*
X2968701D1*
X2268701Y1983701D2*
X2968701D1*
X3368701Y2243701D2*
X3268701D1*
Y2543701D1*
X3368701D2*
X3268701D1*
X3368701Y2243701D2*
Y2543701D1*
X2000788Y1600236D2*
X1886614D1*
X2000788Y1667166D2*
X1886614D1*
X2000788Y1608134D2*
Y1600236D1*
Y1667166D2*
Y1659268D1*
X1886614Y1608134D2*
Y1600236D1*
Y1667166D2*
Y1659268D1*
X1924016Y1667166D2*
Y1600236D1*
X1095856Y958072D2*
D18*
X1013168D1*
X1095856Y536798D2*
Y745449D1*
Y958072D2*
Y930525D1*
X741536Y536798D2*
Y958072D1*
X824224D1*
X741536Y536798D2*
X1095856D1*
X1393701Y1612126D2*
D10*
X1293701D1*
X1393701Y1212126D2*
Y1612126D1*
X1293701Y1212126D2*
Y1612126D1*
X1393701Y1212126D2*
X1293701D1*
X3443701Y1068701D2*
X3643701D1*
X3443701Y868701D2*
Y1068701D1*
X3643701Y868701D2*
Y1068701D1*
X3443701Y868701D2*
X3643701D1*
X673229Y2385630D2*
D43*
X698229Y2360630D1*
X748229D1*
X773229Y2385630D1*
X798229Y2360630D1*
X848229D1*
X873229Y2385630D1*
X898229Y2360630D1*
X948229D1*
X973229Y2385630D1*
X998229Y2360630D1*
X1048229D1*
X1073229Y2385630D1*
X1098229Y2360630D1*
X1148229D1*
X1173229Y2385630D1*
X1198229Y2360630D1*
X1248229D1*
X1273229Y2385630D1*
X673229D2*
Y2535630D1*
X698229Y2560630D1*
X748229D1*
X773229Y2535630D1*
X798229Y2560630D1*
X848229D1*
X873229Y2535630D1*
X898229Y2560630D1*
X948229D1*
X973229Y2535630D1*
X998229Y2560630D1*
X1048229D1*
X1073229Y2535630D1*
X1098229Y2560630D1*
X1148229D1*
X1173229Y2535630D1*
X1198229Y2560630D1*
X1248229D1*
X1273229Y2535630D1*
X1298229Y2560630D1*
X1348229D1*
X1373229Y2535630D1*
X1398229Y2560630D1*
X1448229D1*
X1473229Y2535630D1*
X1498229Y2560630D1*
X1548229D1*
X1573229Y2535630D1*
X1598229Y2560630D1*
X1648229D1*
X1673229Y2535630D1*
X1698229Y2560630D1*
X1748229D1*
X1773229Y2535630D1*
X1798229Y2560630D1*
X1848229D1*
X1873229Y2535630D2*
X1848229Y2560630D1*
X1873229Y2535630D2*
X1898229Y2560630D1*
X1948229D2*
X1898229D1*
X1948229D2*
X1973229Y2535630D1*
X1998229Y2560630D1*
X2048229D2*
X1998229D1*
X2048229D2*
X2073229Y2535630D1*
X2098229Y2560630D1*
X2148229D2*
X2098229D1*
X2148229D2*
X2173229Y2535630D1*
X2198229Y2560630D1*
X2248229D2*
X2198229D1*
X2248229D2*
X2273229Y2535630D1*
X2298229Y2560630D1*
X2348229D2*
X2298229D1*
X2348229D2*
X2373229Y2535630D1*
X2398229Y2560630D1*
X2448229D2*
X2398229D1*
X2448229D2*
X2473229Y2535630D1*
X2498229Y2560630D1*
X2548229D2*
X2498229D1*
X2548229D2*
X2573229Y2535630D1*
Y2385630D2*
X2548229Y2360630D1*
X2498229D1*
X2473229Y2385630D2*
X2498229Y2360630D1*
X2473229Y2385630D2*
X2448229Y2360630D1*
X2398229D1*
X2373229Y2385630D2*
X2398229Y2360630D1*
X2373229Y2385630D2*
X2348229Y2360630D1*
X2298229D1*
X2273229Y2385630D2*
X2298229Y2360630D1*
X2273229Y2385630D2*
X2248229Y2360630D1*
X2198229D2*
X2248229D1*
X2198229D2*
X2173229Y2385630D1*
X2148229Y2360630D1*
X2098229D2*
X2148229D1*
X2098229D2*
X2073229Y2385630D1*
X2048229Y2360630D1*
X1998229D1*
X1973229Y2385630D2*
X1998229Y2360630D1*
X1973229Y2385630D2*
X1948229Y2360630D1*
X1898229D1*
X1873229Y2385630D2*
X1898229Y2360630D1*
X1873229Y2385630D2*
X1848229Y2360630D1*
X1798229D1*
X1773229Y2385630D2*
X1798229Y2360630D1*
X1773229Y2385630D2*
X1748229Y2360630D1*
X1698229D1*
X1673229Y2385630D2*
X1698229Y2360630D1*
X1673229Y2385630D2*
X1648229Y2360630D1*
X1598229D1*
X1573229Y2385630D2*
X1598229Y2360630D1*
X1573229Y2385630D2*
X1548229Y2360630D1*
X1498229D1*
X1473229Y2385630D2*
X1498229Y2360630D1*
X1473229Y2385630D2*
X1448229Y2360630D1*
X1398229D1*
X1373229Y2385630D2*
X1398229Y2360630D1*
X1373229Y2385630D2*
X1348229Y2360630D1*
X1298229D1*
X1273229Y2385630D2*
X1298229Y2360630D1*
X773229Y2535630D2*
Y2385630D1*
X873229Y2535630D2*
Y2385630D1*
X973229Y2535630D2*
Y2385630D1*
X1073229Y2535630D2*
Y2385630D1*
X1173229Y2535630D2*
Y2385630D1*
X1273229Y2535630D2*
Y2385630D1*
X1373229Y2535630D2*
Y2385630D1*
X1473229Y2535630D2*
Y2385630D1*
X1573229Y2535630D2*
Y2385630D1*
X1673229Y2535630D2*
Y2385630D1*
X1773229Y2535630D2*
Y2385630D1*
X1873229Y2535630D2*
Y2385630D1*
X1973229Y2535630D2*
Y2385630D1*
X2073229Y2535630D2*
Y2385630D1*
X2173229Y2535630D2*
Y2385630D1*
X2273229Y2535630D2*
Y2385630D1*
X2373229Y2535630D2*
Y2385630D1*
X2473229Y2535630D2*
Y2385630D1*
X2573229Y2535630D2*
Y2385630D1*
Y2535630D2*
X2598229Y2560630D1*
X2648229D2*
X2598229D1*
X2648229D2*
X2673229Y2535630D1*
Y2385630D2*
X2648229Y2360630D1*
X2598229D1*
X2573229Y2385630D2*
X2598229Y2360630D1*
X2673229Y2535630D2*
Y2385630D1*
X423819Y1861654D2*
D44*
X813583D1*
Y2054566D1*
X694705Y2054701D2*
X644698D1*
X594692D1*
X544685D1*
X494717D1*
X475385Y2054682D1*
X423819Y2011265D1*
Y1861654D1*
X543710Y2053697D2*
X568694Y2028698D1*
X593717Y2053697D1*
X643685Y2054566D2*
X668708Y2030705D1*
X693692Y2054566D1*
X743698D1*
X810426D1*
X742685Y2052693D2*
X768682Y2027694D1*
X768721Y1933699D1*
X468681D1*
X468720Y2026709D1*
X496705Y2051709D1*
X423819Y1651654D2*
X813583D1*
Y1844566D1*
X694705Y1844701D2*
X644698D1*
X594692D1*
X544685D1*
X494717D1*
X475385Y1844682D1*
X423819Y1801265D1*
Y1651654D1*
X543710Y1843697D2*
X568694Y1818698D1*
X593717Y1843697D1*
X643685Y1844566D2*
X668708Y1820705D1*
X693692Y1844566D1*
X743698D1*
X810426D1*
X742685Y1842693D2*
X768682Y1817694D1*
X768721Y1723699D1*
X468681D1*
X468720Y1816709D1*
X496705Y1841709D1*
X423819Y1441654D2*
X813583D1*
Y1634566D1*
X694705Y1634701D2*
X644698D1*
X594692D1*
X544685D1*
X494717D1*
X475385Y1634682D1*
X423819Y1591265D1*
Y1441654D1*
X543710Y1633697D2*
X568694Y1608698D1*
X593717Y1633697D1*
X643685Y1634566D2*
X668708Y1610705D1*
X693692Y1634566D1*
X743698D1*
X810426D1*
X742685Y1632693D2*
X768682Y1607694D1*
X768721Y1513699D1*
X468681D1*
X468720Y1606709D1*
X496705Y1631709D1*
X423819Y1231654D2*
X813583D1*
Y1424566D1*
X694705Y1424701D2*
X644698D1*
X594692D1*
X544685D1*
X494717D1*
X475385Y1424682D1*
X423819Y1381265D1*
Y1231654D1*
X543710Y1423697D2*
X568694Y1398698D1*
X593717Y1423697D1*
X643685Y1424566D2*
X668708Y1400705D1*
X693692Y1424566D1*
X743698D1*
X810426D1*
X742685Y1422693D2*
X768682Y1397694D1*
X768721Y1303699D1*
X468681D1*
X468720Y1396709D1*
X496705Y1421709D1*
X423819Y1021654D2*
X813583D1*
Y1214566D1*
X694705Y1214701D2*
X644698D1*
X594692D1*
X544685D1*
X494717D1*
X475385Y1214682D1*
X423819Y1171265D1*
Y1021654D1*
X543710Y1213697D2*
X568694Y1188698D1*
X593717Y1213697D1*
X643685Y1214566D2*
X668708Y1190705D1*
X693692Y1214566D1*
X743698D1*
X810426D1*
X742685Y1212693D2*
X768682Y1187694D1*
X768721Y1093699D1*
X468681D1*
X468720Y1186709D1*
X496705Y1211709D1*
X423819Y2071654D2*
X813583D1*
Y2264566D1*
X694705Y2264701D2*
X644698D1*
X594692D1*
X544685D1*
X494717D1*
X475385Y2264682D1*
X423819Y2221265D1*
Y2071654D1*
X543710Y2263697D2*
X568694Y2238698D1*
X593717Y2263697D1*
X643685Y2264566D2*
X668708Y2240705D1*
X693692Y2264566D1*
X743698D1*
X810426D1*
X742685Y2262693D2*
X768682Y2237694D1*
X768721Y2143699D1*
X468681D1*
X468720Y2236709D1*
X496705Y2261709D1*
X848819Y1521654D2*
X1238583D1*
Y1714566D1*
X1119705Y1714701D2*
X1069698D1*
X1019692D1*
X969685D1*
X919717D1*
X900385Y1714682D1*
X848819Y1671265D1*
Y1521654D1*
X968710Y1713697D2*
X993694Y1688698D1*
X1018717Y1713697D1*
X1068685Y1714566D2*
X1093708Y1690705D1*
X1118692Y1714566D1*
X1168698D1*
X1235426D1*
X1167685Y1712693D2*
X1193682Y1687694D1*
X1193721Y1593699D1*
X893681D1*
X893720Y1686709D1*
X921705Y1711709D1*
X1240748Y1058819D2*
Y1448583D1*
X1047836D1*
X1047701Y1329705D2*
Y1279698D1*
Y1229692D1*
Y1179685D1*
Y1129717D1*
X1047720Y1110385D1*
X1091137Y1058819D1*
X1240748D1*
X1048705Y1178710D2*
X1073704Y1203694D1*
X1048705Y1228717D1*
X1047836Y1278685D2*
X1071697Y1303708D1*
X1047836Y1328692D1*
Y1378698D1*
Y1445426D1*
X1049709Y1377685D2*
X1074708Y1403682D1*
X1168703Y1403721D1*
Y1103681D1*
X1075693Y1103720D1*
X1050693Y1131705D1*
X1668701Y1618701D2*
D10*
Y1718701D1*
X1468701Y1618701D2*
X1668701D1*
X1468701D2*
Y1718701D1*
X1668701D1*
X3668701Y1883701D2*
X2868701D1*
X3668701Y1983701D2*
Y1883701D1*
Y1983701D2*
X2868701D1*
Y1883701D1*
Y1983701D2*
X2268701D1*
X2868701Y1883701D2*
X2268701D1*
X2868701Y1983701D2*
Y1883701D1*
X2268701Y1983701D2*
Y1883701D1*
X1743701Y2343701D2*
X2543701D1*
X1743701Y2243701D2*
Y2343701D1*
Y2243701D2*
X2543701D1*
Y2343701D1*
X1368701Y1743701D2*
Y1843701D1*
X1668701D1*
Y1743701D2*
Y1843701D1*
X1368701Y1743701D2*
X1668701D1*
X1468701Y1968701D2*
Y1868701D1*
X1668701Y1968701D2*
X1468701D1*
X1668701D2*
Y1868701D1*
X1468701D1*
X1368701Y1968701D2*
Y2068701D1*
X1668701D1*
Y1968701D2*
Y2068701D1*
X1368701Y1968701D2*
X1668701D1*
X1368701Y2193701D2*
Y2293701D1*
X1668701D1*
Y2193701D2*
Y2293701D1*
X1368701Y2193701D2*
X1668701D1*
X1468701D2*
Y2093701D1*
X1668701Y2193701D2*
X1468701D1*
X1668701D2*
Y2093701D1*
X1468701D1*
G36*
X3609005Y2109975D2*
X3616879D1*
Y2117849D1*
X3609005D1*
Y2109975D1*
G37*
X3618701Y2243707D2*
D44*
X3573701D1*
X3468701D2*
X3513701D1*
X3474701Y2451713D2*
G02X3612701Y2451713I69000J-97267D01*
G01*
G36*
X1293701Y489764D2*
X1285828D1*
Y497638D1*
X1293701D1*
Y489764D1*
G37*
X2690662Y2178225D2*
D10*
G02X2690662Y2178225I0J-4922D01*
G01*
X2649323Y2299326D2*
X2604126D1*
X2649323Y2198858D2*
X2604126D1*
Y2216659D1*
Y2281525D2*
Y2299326D1*
X1025000Y1450551D2*
X847835D1*
Y1056851D1*
X1025000D1*
Y1450551D1*
X989567D2*
Y1056851D1*
X1262207Y1021264D2*
D18*
X1238586D1*
Y989764D1*
X1325195Y1021264D2*
X1348816D1*
Y989764D1*
X3519447Y595092D2*
D10*
G02X3519447Y595092I31494J0D01*
G01*
X3606059Y536037D2*
Y654147D1*
X3495822Y536037D2*
Y555722D1*
Y654147D1*
X3545031Y512415D2*
X3556850D1*
X3545031Y677769D2*
X3556850D1*
D53*
X3487947Y679738D3*
X3137208Y594390D2*
D10*
G02X3137208Y594390I31494J0D01*
G01*
X3113583Y653445D2*
Y535335D1*
X3223820Y653445D2*
Y633760D1*
Y535335D1*
X3174611Y677067D2*
X3162792D1*
X3174611Y511713D2*
X3162792D1*
D53*
X3231695Y509744D3*
X3312207Y598578D2*
D10*
G02X3312207Y598578I31494J0D01*
G01*
X3398819Y539523D2*
Y657633D1*
X3288582Y539523D2*
Y559208D1*
Y657633D1*
X3337791Y515900D2*
X3349610D1*
X3337791Y681255D2*
X3349610D1*
D53*
X3280707Y683223D3*
X1722445Y1938713D2*
D10*
G02X1722445Y1938713I236239J0D01*
G01*
D58*
X3006312Y2293182D3*
X3011575Y2347247D2*
D10*
X3129683D1*
X3011575Y2378738D2*
X3129683D1*
Y2347247D2*
Y2378738D1*
X3011575Y2347247D2*
Y2378738D1*
X1298701Y2053701D2*
X888701D1*
Y2353701D1*
X1298701D1*
Y2053701D1*
D58*
X3154386Y1473926D3*
X3159648Y1527992D2*
D10*
X3277756D1*
X3159648Y1559482D2*
X3277756D1*
Y1527992D2*
Y1559482D1*
X3159648Y1527992D2*
Y1559482D1*
X3593721Y1518681D2*
D18*
Y1418721D1*
X3643701D1*
Y1118701D1*
X2243701D1*
Y1818701D1*
X3643701D1*
Y1518681D1*
X3593721D1*
D58*
X3108016Y1613476D3*
X3102754Y1559410D2*
D10*
X2984646D1*
X3102754Y1527920D2*
X2984646D1*
Y1559410D2*
Y1527920D1*
X3102754Y1559410D2*
Y1527920D1*
X1796195Y894342D2*
D123*
X1836387D1*
Y911586D1*
X1834442Y917334D1*
X1832541Y919235D1*
X1828738Y921136D1*
X1822990D1*
X1819143Y919235D1*
X1817242Y917334D1*
X1815341Y911586D1*
X1813395Y917334D1*
X1811494Y919235D1*
X1807691Y921136D1*
X1803845D1*
X1800042Y919235D1*
X1798097Y917334D1*
X1796195Y911586D1*
Y894342D1*
X1815341D2*
Y911586D1*
X1796195Y960282D2*
X1836387D1*
X1796195Y933488D1*
X1836387D1*
X1796195Y984130D2*
X1798097Y980283D1*
X1801943Y976481D1*
X1805746Y974535D1*
X1811494Y972634D1*
X1821089D1*
X1826792Y974535D1*
X1830639Y976481D1*
X1834442Y980283D1*
X1836387Y984130D1*
Y991779D1*
X1834442Y995582D1*
X1830639Y999428D1*
X1826792Y1001330D1*
X1821089Y1003231D1*
X1811494D1*
X1805746Y1001330D1*
X1801943Y999429D1*
X1798097Y995582D1*
X1796195Y991779D1*
Y984130D1*
X1796240Y1027079D2*
X1798141Y1021330D1*
X1803889Y1017484D1*
X1813439Y1015582D1*
X1819187D1*
X1828738Y1017484D1*
X1834486Y1021330D1*
X1836387Y1027078D1*
Y1030881D1*
X1834486Y1036629D1*
X1828738Y1040432D1*
X1819187Y1042377D1*
X1813439D1*
X1803889Y1040432D1*
X1798141Y1036629D1*
X1796240Y1030881D1*
Y1027079D1*
X1803889Y1040432D2*
X1828738Y1017484D1*
X1796239Y1077676D2*
X1796240Y1058575D1*
X1813439Y1056674D1*
X1811538Y1058575D1*
X1809593Y1064323D1*
Y1070027D1*
X1811538Y1075775D1*
X1815341Y1079622D1*
X1821089Y1081523D1*
X1824891D1*
X1830639Y1079622D1*
X1834486Y1075775D1*
X1836387Y1070027D1*
Y1064323D1*
X1834486Y1058575D1*
X1832541Y1056674D1*
X1828738Y1054729D1*
X1796239Y1116822D2*
Y1097721D1*
X1813439Y1095820D1*
X1811538Y1097721D1*
X1809593Y1103469D1*
Y1109173D1*
X1811538Y1114921D1*
X1815341Y1118768D1*
X1821089Y1120669D1*
X1824891D1*
X1830639Y1118768D1*
X1834486Y1114921D1*
X1836387Y1109173D1*
Y1103469D1*
X1834486Y1097721D1*
X1832541Y1095820D1*
X1828738Y1093875D1*
X602227Y1011713D2*
X600325Y1015516D1*
X596479Y1019362D1*
X592676Y1021264D1*
X585027D1*
X581180Y1019362D1*
X577377Y1015516D1*
X575432Y1011713D1*
X573531Y1005965D1*
Y996370D1*
X575432Y990666D1*
X577377Y986820D1*
X581180Y983017D1*
X585027Y981072D1*
X592676D1*
X596479Y983017D1*
X600325Y986820D1*
X602227Y990666D1*
X616523Y1011669D2*
Y1013570D1*
X618425Y1017417D1*
X620326Y1019318D1*
X624173Y1021219D1*
X631822D1*
X635625Y1019318D1*
X637526Y1017417D1*
X639471Y1013570D1*
Y1009768D1*
X637526Y1005921D1*
X633723Y1000217D1*
X614578Y981072D1*
X641373D1*
X948476Y1931656D2*
X946575Y1935459D1*
X942728Y1939305D1*
X938925Y1941207D1*
X931276D1*
X927429Y1939305D1*
X923627Y1935459D1*
X921681Y1931656D1*
X919780Y1925908D1*
Y1916313D1*
X921681Y1910610D1*
X923627Y1906763D1*
X927429Y1902960D1*
X931276Y1901015D1*
X938925D1*
X942728Y1902960D1*
X946575Y1906763D1*
X948476Y1910610D1*
X964674Y1941163D2*
X985677D1*
X974225Y1925864D1*
X979973D1*
X983775Y1923963D1*
X985677Y1922061D1*
X987622Y1916313D1*
Y1912511D1*
X985677Y1906763D1*
X981874Y1902916D1*
X976126Y1901015D1*
X970378D1*
X964674Y1902916D1*
X962773Y1904862D1*
X960827Y1908664D1*
X3038476Y2229343D2*
X3036575Y2233146D1*
X3032728Y2236992D1*
X3028925Y2238894D1*
X3021276D1*
X3017429Y2236992D1*
X3013627Y2233146D1*
X3011681Y2229343D1*
X3009780Y2223595D1*
Y2214000D1*
X3011681Y2208296D1*
X3013627Y2204450D1*
X3017429Y2200647D1*
X3021276Y2198702D1*
X3028925D1*
X3032728Y2200647D1*
X3036575Y2204450D1*
X3038476Y2208296D1*
X3073775Y2238849D2*
X3054674D1*
X3052773Y2221650D1*
X3054674Y2223551D1*
X3060422Y2225496D1*
X3066126D1*
X3071874Y2223551D1*
X3075721Y2219748D1*
X3077622Y2214000D1*
Y2210198D1*
X3075721Y2204450D1*
X3071874Y2200603D1*
X3066126Y2198702D1*
X3060422D1*
X3054674Y2200603D1*
X3052773Y2202548D1*
X3050827Y2206351D1*
X2235419Y810912D2*
X2231616Y809010D1*
X2227769Y805164D1*
X2225868Y801361D1*
Y793712D1*
X2227769Y789865D1*
X2231616Y786063D1*
X2235419Y784117D1*
X2241167Y782216D1*
X2250761D1*
X2256465Y784117D1*
X2260312Y786063D1*
X2264115Y789865D1*
X2266060Y793712D1*
Y801361D1*
X2264115Y805164D1*
X2260312Y809010D1*
X2256465Y810912D1*
X2266060Y830912D2*
X2225912Y850058D1*
Y823263D1*
X1209427Y1876656D2*
X1207525Y1880459D1*
X1203679Y1884305D1*
X1199876Y1886207D1*
X1192227D1*
X1188380Y1884305D1*
X1184577Y1880459D1*
X1182632Y1876656D1*
X1180731Y1870908D1*
Y1861313D1*
X1182632Y1855610D1*
X1184577Y1851763D1*
X1188380Y1847960D1*
X1192227Y1846015D1*
X1199876D1*
X1203679Y1847960D1*
X1207525Y1851763D1*
X1209427Y1855610D1*
X1246671Y1872809D2*
X1244726Y1867061D1*
X1240923Y1863215D1*
X1235175Y1861313D1*
X1233274D1*
X1227526Y1863215D1*
X1223723Y1867061D1*
X1221778Y1872809D1*
Y1874711D1*
X1223723Y1880459D1*
X1227526Y1884261D1*
X1233274Y1886163D1*
X1235175D1*
X1240923Y1884261D1*
X1244726Y1880459D1*
X1246671Y1872809D1*
Y1863215D1*
X1244726Y1853664D1*
X1240923Y1847916D1*
X1235175Y1846015D1*
X1231373D1*
X1225625Y1847916D1*
X1223723Y1851763D1*
X1910731Y1586669D2*
Y1546477D1*
X1924128D1*
X1929876Y1548423D1*
X1933723Y1552226D1*
X1935624Y1556072D1*
X1937525Y1561776D1*
Y1571371D1*
X1935624Y1577119D1*
X1933723Y1580921D1*
X1929876Y1584768D1*
X1924128Y1586669D1*
X1910731D1*
X1972825Y1586625D2*
X1953723D1*
X1951822Y1569425D1*
X1953723Y1571327D1*
X1959471Y1573272D1*
X1965175D1*
X1970923Y1571327D1*
X1974770Y1567524D1*
X1976671Y1561776D1*
Y1557974D1*
X1974770Y1552226D1*
X1970923Y1548379D1*
X1965175Y1546477D1*
X1959471D1*
X1953723Y1548379D1*
X1951822Y1550324D1*
X1949877Y1554127D1*
X1513070Y1608134D2*
Y1577537D1*
X1511169Y1571789D1*
X1509223Y1569888D1*
X1505420Y1567942D1*
X1501574D1*
X1497771Y1569888D1*
X1495870Y1571789D1*
X1493924Y1577537D1*
Y1581339D1*
X1525421Y1608134D2*
Y1567942D1*
X1542665D1*
X1548413Y1569888D1*
X1550315Y1571789D1*
X1552216Y1575591D1*
Y1581339D1*
X1550315Y1585186D1*
X1548413Y1587087D1*
X1542665Y1588989D1*
X1548413Y1590934D1*
X1550315Y1592835D1*
X1552216Y1596638D1*
Y1600485D1*
X1550315Y1604287D1*
X1548413Y1606233D1*
X1542665Y1608134D1*
X1525421D1*
Y1588989D2*
X1542665D1*
X1591362Y1602386D2*
X1587559Y1606233D1*
X1581811Y1608134D1*
X1574162D1*
X1568414Y1606233D1*
X1564567Y1602386D1*
Y1598583D1*
X1566513Y1594737D1*
X1568414Y1592835D1*
X1572217Y1590934D1*
X1583713Y1587087D1*
X1587559Y1585186D1*
X1589461Y1583241D1*
X1591362Y1579438D1*
Y1573690D1*
X1587559Y1569888D1*
X1581811Y1567942D1*
X1574162D1*
X1568414Y1569888D1*
X1564567Y1573690D1*
X1628562Y1608134D2*
X1603713D1*
Y1567942D1*
X1628562D1*
X1603713Y1588989D2*
X1619012D1*
X1640914D2*
X1658114D1*
X1663862Y1590934D1*
X1665807Y1592835D1*
X1667709Y1596638D1*
Y1600485D1*
X1665807Y1604287D1*
X1663862Y1606233D1*
X1658114Y1608134D1*
X1640914D1*
Y1567942D1*
X1654311Y1588989D2*
X1667709Y1567942D1*
X3651116Y2078928D2*
X3691308D1*
Y2101876D1*
X3660711Y2116173D2*
X3658809D1*
X3654963Y2118074D1*
X3653061Y2119976D1*
X3651160Y2123822D1*
Y2131472D1*
X3653061Y2135274D1*
X3654963Y2137176D1*
X3658809Y2139121D1*
X3662612D1*
X3666459Y2137176D1*
X3672162Y2133373D1*
X3691308Y2114228D1*
Y2141022D1*
X3517024Y2532279D2*
Y2492087D1*
X3490229Y2532279D1*
Y2492087D1*
X3554224Y2532279D2*
X3529375D1*
Y2492087D1*
X3554224D1*
X3529375Y2513134D2*
X3544674D1*
X3578072Y2532279D2*
X3574225Y2530378D1*
X3570422Y2526531D1*
X3568477Y2522729D1*
X3566576Y2516981D1*
Y2507386D1*
X3568477Y2501682D1*
X3570422Y2497835D1*
X3574225Y2494033D1*
X3578072Y2492087D1*
X3585721D1*
X3589524Y2494033D1*
X3593370Y2497835D1*
X3595272Y2501682D1*
X3597173Y2507386D1*
Y2516981D1*
X3595272Y2522729D1*
X3593370Y2526531D1*
X3589524Y2530378D1*
X3585721Y2532279D1*
X3578072D1*
X2608596Y2356815D2*
X2604794Y2354958D1*
X2600947Y2351111D1*
X2599046Y2347264D1*
X2597100Y2341516D1*
Y2331966D1*
X2599046Y2326218D1*
X2600947Y2322415D1*
X2604794Y2318568D1*
X2608596Y2316667D1*
X2616245D1*
X2620092Y2318568D1*
X2623895Y2322415D1*
X2625796Y2326218D1*
X2627742Y2331966D1*
Y2341516D1*
X2625796Y2347264D1*
X2623895Y2351111D1*
X2620092Y2354958D1*
X2616245Y2356815D1*
X2608596D1*
X2614344Y2324316D2*
X2625796Y2312820D1*
X2640093Y2349121D2*
X2643940Y2351067D1*
X2649688Y2356771D1*
Y2316623D1*
X968910Y1230303D2*
X970768Y1226501D1*
X974614Y1222654D1*
X978461Y1220753D1*
X984209Y1218807D1*
X993760D1*
X999508Y1220753D1*
X1003310Y1222654D1*
X1007157Y1226501D1*
X1009058Y1230303D1*
Y1237953D1*
X1007157Y1241799D1*
X1003310Y1245602D1*
X999508Y1247503D1*
X993760Y1249449D1*
X984209D1*
X978461Y1247503D1*
X974614Y1245602D1*
X970768Y1241799D1*
X968911Y1237953D1*
X968910Y1230303D1*
X1001409Y1236051D2*
X1012905Y1247503D1*
X978505Y1263746D2*
X976604D1*
X972757Y1265647D1*
X970856Y1267548D1*
X968955Y1271395D1*
Y1279044D1*
X970856Y1282847D1*
X972757Y1284748D1*
X976604Y1286694D1*
X980407D1*
X984253Y1284748D1*
X989957Y1280945D1*
X1009103Y1261800D1*
Y1288595D1*
X1270303Y923047D2*
X1266501Y921190D1*
X1262654Y917344D1*
X1260753Y913497D1*
X1258807Y907749D1*
Y898198D1*
X1260753Y892450D1*
X1262654Y888648D1*
X1266501Y884801D1*
X1270303Y882900D1*
X1277953D1*
X1281799Y884801D1*
X1285602Y888648D1*
X1287503Y892450D1*
X1289449Y898198D1*
Y907749D1*
X1287503Y913497D1*
X1285602Y917344D1*
X1281799Y921190D1*
X1277953Y923047D1*
X1270303D1*
X1276051Y890549D2*
X1287503Y879053D1*
X1305647Y923003D2*
X1326649D1*
X1315197Y907705D1*
X1320945D1*
X1324748Y905803D1*
X1326649Y903902D1*
X1328595Y898154D1*
Y894351D1*
X1326649Y888603D1*
X1322847Y884757D1*
X1317099Y882855D1*
X1311351D1*
X1305647Y884757D1*
X1303746Y886702D1*
X1301800Y890505D1*
X1729331Y1662662D2*
X1746530D1*
X1752278Y1664607D1*
X1754224Y1666508D1*
X1756125Y1670311D1*
Y1674158D1*
X1754224Y1677960D1*
X1752278Y1679906D1*
X1746530Y1681807D1*
X1729331D1*
Y1641615D1*
X1742728Y1662662D2*
X1756125Y1641615D1*
X1768477Y1674114D2*
X1772323Y1676059D1*
X1778071Y1681763D1*
Y1641615D1*
X2889451Y1363638D2*
Y1380837D1*
X2887506Y1386585D1*
X2885605Y1388531D1*
X2881802Y1390432D1*
X2877955D1*
X2874153Y1388531D1*
X2872207Y1386585D1*
X2870306Y1380837D1*
Y1363638D1*
X2910498D1*
X2889451Y1377035D2*
X2910498Y1390432D1*
X2879901Y1404729D2*
X2878000D1*
X2874153Y1406630D1*
X2872252Y1408532D1*
X2870350Y1412378D1*
Y1420028D1*
X2872252Y1423830D1*
X2874153Y1425731D1*
X2878000Y1427677D1*
X2881802D1*
X2885649Y1425731D1*
X2891353Y1421929D1*
X2910498Y1402784D1*
Y1429578D1*
X2889405Y1560731D2*
Y1577931D1*
X2887460Y1583679D1*
X2885559Y1585624D1*
X2881756Y1587525D1*
X2877909D1*
X2874107Y1585624D1*
X2872161Y1583679D1*
X2870260Y1577931D1*
Y1560731D1*
X2910452D1*
X2889405Y1574128D2*
X2910452Y1587525D1*
X2870304Y1603724D2*
Y1624726D1*
X2885603Y1613274D1*
Y1619022D1*
X2887504Y1622825D1*
X2889406Y1624726D1*
X2895154Y1626671D1*
X2898956D1*
X2904704Y1624726D1*
X2908551Y1620923D1*
X2910452Y1615175D1*
Y1609427D1*
X2908551Y1603723D1*
X2906605Y1601822D1*
X2902803Y1599877D1*
X2149740Y2094780D2*
Y2111980D1*
X2147795Y2117728D1*
X2145894Y2119673D1*
X2142091Y2121575D1*
X2138244D1*
X2134442Y2119673D1*
X2132496Y2117728D1*
X2130595Y2111980D1*
Y2094780D1*
X2170787D1*
X2149740Y2108177D2*
X2170787Y2121575D1*
Y2153071D2*
X2130639D1*
X2157390Y2133926D1*
Y2162622D1*
X1389405Y560731D2*
Y577931D1*
X1387460Y583679D1*
X1385559Y585624D1*
X1381756Y587525D1*
X1377909D1*
X1374107Y585624D1*
X1372161Y583679D1*
X1370260Y577931D1*
Y560731D1*
X1410452D1*
X1389405Y574128D2*
X1410452Y587525D1*
X1370304Y622825D2*
Y603724D1*
X1387504Y601822D1*
X1385603Y603724D1*
X1383657Y609472D1*
Y615175D1*
X1385603Y620923D1*
X1389406Y624770D1*
X1395154Y626671D1*
X1398956D1*
X1404704Y624770D1*
X1408551Y620923D1*
X1410452Y615175D1*
Y609472D1*
X1408551Y603723D1*
X1406605Y601822D1*
X1402803Y599877D1*
X1205073Y986704D2*
Y1003903D1*
X1203128Y1009651D1*
X1201227Y1011597D1*
X1197424Y1013498D1*
X1193577D1*
X1189775Y1011597D1*
X1187829Y1009651D1*
X1185928Y1003903D1*
Y986704D1*
X1226120D1*
X1205073Y1000101D2*
X1226120Y1013498D1*
X1191676Y1048797D2*
X1187874Y1046896D1*
X1185972Y1041148D1*
Y1037346D1*
X1187874Y1031598D1*
X1193622Y1027751D1*
X1203172Y1025850D1*
X1212723Y1025849D1*
X1220372Y1027751D1*
X1224219Y1031597D1*
X1226120Y1037346D1*
Y1039247D1*
X1224219Y1044951D1*
X1220372Y1048797D1*
X1214624Y1050699D1*
X1212723D1*
X1206975Y1048797D1*
X1203172Y1044951D1*
X1201271Y1039247D1*
Y1037346D1*
X1203172Y1031598D1*
X1206975Y1027751D1*
X1212723Y1025849D1*
X1289405Y1980731D2*
Y1997931D1*
X1287460Y2003679D1*
X1285559Y2005624D1*
X1281756Y2007525D1*
X1277909D1*
X1274107Y2005624D1*
X1272161Y2003679D1*
X1270260Y1997931D1*
Y1980731D1*
X1310452D1*
X1289405Y1994128D2*
X1310452Y2007525D1*
Y2027526D2*
X1270304Y2046671D1*
Y2019877D1*
X2574740Y510753D2*
Y527953D1*
X2572795Y533701D1*
X2570894Y535646D1*
X2567091Y537548D1*
X2563244D1*
X2559442Y535646D1*
X2557496Y533701D1*
X2555595Y527953D1*
Y510753D1*
X2595787D1*
X2574740Y524150D2*
X2595787Y537547D1*
X2555639Y559449D2*
X2557541Y553746D1*
X2561343Y551800D1*
X2565190D1*
X2568992Y553746D1*
X2570938Y557548D1*
X2572839Y565197D1*
X2574740Y570945D1*
X2578587Y574748D1*
X2582390Y576649D1*
X2588138D1*
X2591940Y574748D1*
X2593886Y572847D1*
X2595787Y567099D1*
Y559449D1*
X2593886Y553746D1*
X2591940Y551800D1*
X2588138Y549899D1*
X2582390D1*
X2578587Y551800D1*
X2574740Y555647D1*
X2572839Y561351D1*
X2570938Y569000D1*
X2568992Y572847D1*
X2565190Y574748D1*
X2561343D1*
X2557541Y572847D1*
X2555639Y567099D1*
Y559449D1*
X1399405Y686681D2*
Y703881D1*
X1397460Y709629D1*
X1395559Y711575D1*
X1391756Y713476D1*
X1387909D1*
X1384107Y711575D1*
X1382161Y709629D1*
X1380260Y703881D1*
Y686681D1*
X1420452D1*
X1399405Y700079D2*
X1420452Y713476D1*
X1393657Y750721D2*
X1399406Y748775D1*
X1403252Y744973D1*
X1405154Y739225D1*
Y737323D1*
X1403252Y731575D1*
X1399406Y727773D1*
X1393657Y725827D1*
X1391756D1*
X1386008Y727773D1*
X1382206Y731575D1*
X1380304Y737323D1*
Y739225D1*
X1382206Y744973D1*
X1386008Y748775D1*
X1393657Y750721D1*
X1403252D1*
X1412803Y748775D1*
X1418551Y744973D1*
X1420452Y739225D1*
Y735422D1*
X1418551Y729674D1*
X1414704Y727773D1*
X2424740Y499758D2*
Y516958D1*
X2422795Y522706D1*
X2420894Y524651D1*
X2417091Y526552D1*
X2413244D1*
X2409442Y524651D1*
X2407496Y522706D1*
X2405595Y516958D1*
Y499758D1*
X2445787D1*
X2424740Y513155D2*
X2445787Y526552D1*
X2413289Y538904D2*
X2411343Y542750D1*
X2405639Y548498D1*
X2445787D1*
X2405639Y572346D2*
X2407541Y566598D1*
X2413289Y562751D1*
X2422839Y560850D1*
X2428587D1*
X2438138Y562751D1*
X2443886Y566598D1*
X2445787Y572346D1*
Y576148D1*
X2443886Y581896D1*
X2438138Y585699D1*
X2428587Y587644D1*
X2422839D1*
X2413289Y585699D1*
X2407541Y581896D1*
X2405639Y576148D1*
Y572346D1*
X2413289Y585699D2*
X2438138Y562751D1*
X2783357Y2287662D2*
X2800557D1*
X2806305Y2289607D1*
X2808251Y2291508D1*
X2810152Y2295311D1*
Y2299158D1*
X2808251Y2302960D1*
X2806305Y2304906D1*
X2800557Y2306807D1*
X2783357D1*
Y2266615D1*
X2796755Y2287662D2*
X2810152Y2266615D1*
X2822504Y2299114D2*
X2826350Y2301059D1*
X2832098Y2306763D1*
Y2266615D1*
X2844450Y2299114D2*
X2848296Y2301059D1*
X2854045Y2306763D1*
Y2266615D1*
X1399405Y774758D2*
Y791958D1*
X1397460Y797706D1*
X1395559Y799651D1*
X1391756Y801552D1*
X1387909D1*
X1384107Y799651D1*
X1382161Y797706D1*
X1380260Y791958D1*
Y774758D1*
X1420452D1*
X1399405Y788155D2*
X1420452Y801552D1*
X1387954Y813904D2*
X1386008Y817750D1*
X1380304Y823498D1*
X1420452D1*
X1380304Y839697D2*
Y860699D1*
X1395603Y849247D1*
Y854995D1*
X1397504Y858798D1*
X1399405Y860699D1*
X1405154Y862644D1*
X1408956D1*
X1414704Y860699D1*
X1418551Y856896D1*
X1420452Y851148D1*
Y845400D1*
X1418551Y839697D1*
X1416605Y837795D1*
X1412803Y835850D1*
X3018651Y490668D2*
X3035851D1*
X3041599Y492614D1*
X3043544Y494515D1*
X3045445Y498318D1*
Y502165D1*
X3043544Y505967D1*
X3041599Y507913D1*
X3035851Y509814D1*
X3018651D1*
Y469622D1*
X3032048Y490668D2*
X3045445Y469622D1*
X3057797Y502120D2*
X3061644Y504066D1*
X3067392Y509770D1*
Y469622D1*
X3098888D2*
Y509770D1*
X3079743Y483019D1*
X3108439D1*
X2889405Y1249758D2*
Y1266958D1*
X2887460Y1272706D1*
X2885559Y1274651D1*
X2881756Y1276552D1*
X2877909D1*
X2874107Y1274651D1*
X2872161Y1272706D1*
X2870260Y1266958D1*
Y1249758D1*
X2910452D1*
X2889405Y1263155D2*
X2910452Y1276552D1*
X2877954Y1288904D2*
X2876008Y1292750D1*
X2870304Y1298498D1*
X2910452D1*
X2870304Y1333798D2*
Y1314697D1*
X2887504Y1312795D1*
X2885603Y1314697D1*
X2883657Y1320445D1*
Y1326148D1*
X2885603Y1331896D1*
X2889405Y1335743D1*
X2895154Y1337644D1*
X2898956D1*
X2904704Y1335743D1*
X2908551Y1331896D1*
X2910452Y1326148D1*
Y1320445D1*
X2908551Y1314697D1*
X2906605Y1312795D1*
X2902803Y1310850D1*
X2903207Y489810D2*
X2920407D1*
X2926155Y491756D1*
X2928100Y493657D1*
X2930001Y497460D1*
Y501306D1*
X2928100Y505109D1*
X2926155Y507054D1*
X2920407Y508956D1*
X2903207D1*
Y468764D1*
X2916604Y489810D2*
X2930001Y468764D1*
X2942353Y501262D2*
X2946199Y503208D1*
X2951948Y508911D1*
Y468764D1*
X2987247Y503208D2*
X2985346Y507010D1*
X2979598Y508911D1*
X2975795D1*
X2970047Y507010D1*
X2966200Y501262D1*
X2964299Y491711D1*
Y482161D1*
X2966200Y474512D1*
X2970047Y470665D1*
X2975795Y468764D1*
X2977696D1*
X2983400Y470665D1*
X2987247Y474512D1*
X2989148Y480260D1*
Y482161D1*
X2987247Y487909D1*
X2983400Y491711D1*
X2977696Y493613D1*
X2975795D1*
X2970047Y491711D1*
X2966200Y487909D1*
X2964299Y482161D1*
X3180622Y2280911D2*
X3197822D1*
X3203570Y2282857D1*
X3205516Y2284758D1*
X3207417Y2288561D1*
Y2292407D1*
X3205516Y2296210D1*
X3203570Y2298155D1*
X3197822Y2300057D1*
X3180622D1*
Y2259865D1*
X3194020Y2280911D2*
X3207417Y2259865D1*
X3219768Y2292363D2*
X3223615Y2294309D1*
X3229363Y2300012D1*
Y2259865D1*
X3249364D2*
X3268509Y2300012D1*
X3241715D1*
X3441079Y2070406D2*
Y2087606D1*
X3439133Y2093354D1*
X3437232Y2095299D1*
X3433430Y2097200D1*
X3429583D1*
X3425780Y2095299D1*
X3423835Y2093354D1*
X3421934Y2087606D1*
Y2070406D1*
X3462126D1*
X3441079Y2083803D2*
X3462126Y2097200D1*
X3429627Y2109552D2*
X3427682Y2113399D1*
X3421978Y2119147D1*
X3462126Y2119146D1*
X3421978Y2141049D2*
X3423879Y2135345D1*
X3427682Y2133399D1*
X3431528D1*
X3435331Y2135345D1*
X3437276Y2139147D1*
X3439178Y2146797D1*
X3441079Y2152545D1*
X3444926Y2156347D1*
X3448728Y2158248D1*
X3454476D1*
X3458279Y2156347D1*
X3460224Y2154446D1*
X3462126Y2148698D1*
Y2141048D1*
X3460224Y2135345D1*
X3458279Y2133399D1*
X3454476Y2131498D1*
X3448728D1*
X3444926Y2133399D1*
X3441079Y2137246D1*
X3439178Y2142950D1*
X3437276Y2150599D1*
X3435331Y2154446D1*
X3431528Y2156347D1*
X3427682D1*
X3423879Y2154446D1*
X3421978Y2148698D1*
Y2141049D1*
X3442610Y515872D2*
Y533071D1*
X3440665Y538819D1*
X3438764Y540765D1*
X3434961Y542666D1*
X3431114D1*
X3427312Y540765D1*
X3425366Y538819D1*
X3423465Y533071D1*
Y515872D1*
X3463657D1*
X3442610Y529269D2*
X3463657Y542666D1*
X3448359Y555018D2*
Y577965D1*
X3444512D1*
X3440665Y576064D1*
X3438764Y574163D1*
X3436862Y570316D1*
Y564568D1*
X3438764Y560766D1*
X3442610Y556919D1*
X3448359Y555018D1*
X3452161D1*
X3457909Y556919D1*
X3461712Y560766D1*
X3463657Y564568D1*
Y570316D1*
X3461712Y574163D1*
X3457909Y577965D1*
X3442610Y611363D2*
X3438764Y609462D1*
X3436862Y603714D1*
Y597966D1*
X3438764Y592218D1*
X3442610Y590317D1*
X3446413Y592218D1*
X3448359Y596065D1*
X3450260Y605615D1*
X3452161Y609462D1*
X3456008Y611363D1*
X3457909D1*
X3461712Y609462D1*
X3463657Y603714D1*
Y597966D1*
X3461712Y592218D1*
X3457909Y590317D1*
X3448358Y623715D2*
Y646663D1*
X3444512D1*
X3440665Y644761D1*
X3438764Y642860D1*
X3436862Y639013D1*
Y633265D1*
X3438764Y629463D1*
X3442610Y625616D1*
X3448358Y623715D1*
X3452161D1*
X3457909Y625616D1*
X3461712Y629463D1*
X3463657Y633265D1*
Y639013D1*
X3461712Y642860D1*
X3457909Y646663D1*
X3423465Y664762D2*
X3456008D1*
X3461712Y666663D1*
X3463657Y670510D1*
Y674313D1*
X3436862Y659014D2*
Y672411D1*
X3291158Y1545134D2*
X3308357D1*
X3314106Y1547080D1*
X3316051Y1548981D1*
X3317952Y1552783D1*
Y1556630D1*
X3316051Y1560433D1*
X3314106Y1562378D1*
X3308357Y1564279D1*
X3291158D1*
Y1524087D1*
X3304555Y1545134D2*
X3317952Y1524087D1*
X3357098Y1558531D2*
X3353296Y1562378D1*
X3347548Y1564279D1*
X3339898D1*
X3334150Y1562378D1*
X3330304Y1558531D1*
Y1554729D1*
X3332249Y1550882D1*
X3334150Y1548981D1*
X3337953Y1547080D1*
X3349449Y1543233D1*
X3353296Y1541332D1*
X3355197Y1539386D1*
X3357098Y1535584D1*
Y1529835D1*
X3353296Y1526033D1*
X3347548Y1524087D1*
X3339898D1*
X3334150Y1526033D1*
X3330304Y1529835D1*
X3382847Y1564279D2*
Y1524087D1*
X3369450Y1564279D2*
X3396244D1*
X3178015Y476650D2*
X3174212Y480497D1*
X3168464Y482398D1*
X3160815D1*
X3155067Y480497D1*
X3151220Y476650D1*
Y472847D1*
X3153166Y469000D1*
X3155067Y467099D1*
X3158870Y465198D1*
X3170366Y461351D1*
X3174212Y459450D1*
X3176114Y457504D1*
X3178015Y453702D1*
Y447954D1*
X3174212Y444151D1*
X3168464Y442206D1*
X3160815D1*
X3155067Y444151D1*
X3151220Y447954D1*
X3190366Y474704D2*
X3194213Y476650D1*
X3199961Y482354D1*
Y442206D1*
X3330636Y480837D2*
X3326833Y484684D1*
X3321085Y486585D1*
X3313436D1*
X3307688Y484684D1*
X3303841Y480837D1*
Y477035D1*
X3305786Y473188D1*
X3307688Y471287D1*
X3311490Y469386D1*
X3322986Y465539D1*
X3326833Y463638D1*
X3328734Y461692D1*
X3330636Y457890D1*
Y452142D1*
X3326833Y448339D1*
X3321085Y446393D1*
X3313436D1*
X3307688Y448339D1*
X3303841Y452142D1*
X3344932Y476991D2*
Y478892D1*
X3346834Y482739D1*
X3348735Y484640D1*
X3352582Y486541D1*
X3360231D1*
X3364034Y484640D1*
X3365935Y482739D1*
X3367880Y478892D1*
Y475089D1*
X3365935Y471243D1*
X3362132Y465539D1*
X3342987Y446393D1*
X3369782D1*
X3039777Y2496339D2*
Y2467643D1*
X3041678Y2461895D1*
X3045525Y2458092D1*
X3051273Y2456147D1*
X3055075D1*
X3060823Y2458092D1*
X3064670Y2461895D1*
X3066571Y2467643D1*
Y2496339D1*
X3078923Y2488645D2*
X3082770Y2490590D1*
X3088518Y2496294D1*
Y2456147D1*
X830123Y2170731D2*
X858818D1*
X864567Y2172632D1*
X868369Y2176479D1*
X870315Y2182227D1*
Y2186029D1*
X868369Y2191777D1*
X864567Y2195624D1*
X858819Y2197525D1*
X830123D1*
X839717Y2211822D2*
X837816D1*
X833969Y2213724D1*
X832068Y2215625D1*
X830167Y2219472D1*
Y2227121D1*
X832068Y2230923D1*
X833969Y2232825D1*
X837816Y2234770D1*
X841619D1*
X845465Y2232825D1*
X851169Y2229022D1*
X870315Y2209877D1*
Y2236671D1*
X3179250Y1677083D2*
Y1648387D1*
X3181152Y1642639D1*
X3184998Y1638836D1*
X3190746Y1636891D1*
X3194549D1*
X3200297Y1638836D1*
X3204144Y1642639D1*
X3206045Y1648387D1*
Y1677083D1*
X3222243Y1677038D2*
X3243246D1*
X3231794Y1661740D1*
X3237542D1*
X3241344Y1659839D1*
X3243246Y1657937D1*
X3245191Y1652189D1*
Y1648387D1*
X3243246Y1642639D1*
X3239443Y1638792D1*
X3233695Y1636891D1*
X3227947D1*
X3222243Y1638792D1*
X3220342Y1640737D1*
X3218396Y1644540D1*
X3017211Y1679752D2*
Y1651056D1*
X3019112Y1645308D1*
X3022959Y1641505D1*
X3028707Y1639560D1*
X3032510D1*
X3038258Y1641505D1*
X3042104Y1645308D1*
X3044006Y1651056D1*
Y1679752D1*
X3079305Y1679708D2*
X3060204D1*
X3058303Y1662508D1*
X3060204Y1664409D1*
X3065952Y1666355D1*
X3071656D1*
X3077404Y1664409D1*
X3081250Y1660607D1*
X3083152Y1654859D1*
Y1651056D1*
X3081250Y1645308D1*
X3077404Y1641461D1*
X3071656Y1639560D1*
X3065952D1*
X3060204Y1641461D1*
X3058303Y1643407D1*
X3056357Y1647209D1*
X2294909Y935780D2*
Y956782D1*
X2310208Y945331D1*
Y951079D1*
X2312109Y954881D1*
X2314010Y956782D1*
X2319759Y958728D1*
X2323561D1*
X2329309Y956782D1*
X2333156Y952980D1*
X2335057Y947232D1*
Y941484D1*
X2333156Y935780D1*
X2331210Y933879D1*
X2327408Y931933D1*
X2331210Y972981D2*
X2333156Y971079D1*
X2335057Y972981D1*
X2333156Y974926D1*
X2331210Y972981D1*
X2294909Y991124D2*
Y1012127D1*
X2310208Y1000675D1*
Y1006423D1*
X2312109Y1010225D1*
X2314010Y1012127D1*
X2319759Y1014072D1*
X2323561D1*
X2329309Y1012127D1*
X2333156Y1008324D1*
X2335057Y1002576D1*
Y996828D1*
X2333156Y991124D1*
X2331210Y989223D1*
X2327408Y987277D1*
X2308262Y1026424D2*
X2335057Y1037920D1*
X2308262Y1049371D1*
X2508290Y745871D2*
D124*
X2513099Y748303D1*
X2520284Y755432D1*
Y705248D1*
X2599722Y744494D2*
Y746871D1*
X2602099Y751679D1*
X2604476Y754056D1*
X2609284Y756432D1*
X2618846D1*
X2623599Y754056D1*
X2625975Y751679D1*
X2628407Y746871D1*
Y742118D1*
X2625975Y737309D1*
X2621222Y730179D1*
X2597290Y706248D1*
X2630784D1*
X2702099Y756432D2*
X2728352D1*
X2714037Y737309D1*
X2721222D1*
X2725975Y734933D1*
X2728352Y732556D1*
X2730784Y725371D1*
Y720618D1*
X2728352Y713433D1*
X2723599Y708624D1*
X2716414Y706248D1*
X2709229D1*
X2702099Y708624D1*
X2699722Y711056D1*
X2697290Y715809D1*
X3038663Y749303D2*
X3036286Y754056D1*
X3029101Y756432D1*
X3024348D1*
X3017163Y754056D1*
X3012355Y746871D1*
X3009978Y734933D1*
Y722994D1*
X3012355Y713433D1*
X3017163Y708624D1*
X3024348Y706248D1*
X3026725D1*
X3033855Y708624D1*
X3038663Y713433D1*
X3041040Y720618D1*
Y722994D1*
X3038663Y730179D1*
X3033855Y734933D1*
X3026725Y737309D1*
X3024348D1*
X3017163Y734933D1*
X3012355Y730179D1*
X3009978Y722994D1*
X3119540Y706248D2*
X3143471Y756432D1*
X3109978D1*
X3221916D2*
X3214787Y754056D1*
X3212355Y749303D1*
Y744494D1*
X3214787Y739741D1*
X3219540Y737309D1*
X3229101Y734933D1*
X3236286Y732556D1*
X3241040Y727748D1*
X3243416Y722994D1*
Y715809D1*
X3241040Y711056D1*
X3238663Y708624D1*
X3231478Y706248D1*
X3221916D1*
X3214787Y708624D1*
X3212355Y711056D1*
X3209978Y715809D1*
Y722994D1*
X3212355Y727748D1*
X3217163Y732556D1*
X3224293Y734933D1*
X3233855Y737309D1*
X3238663Y739741D1*
X3241040Y744494D1*
Y749303D1*
X3238663Y754056D1*
X3231478Y756432D1*
X3221916D1*
X3346095Y739741D2*
X3343663Y732556D1*
X3338910Y727748D1*
X3331725Y725371D1*
X3329348D1*
X3322163Y727748D1*
X3317410Y732556D1*
X3314978Y739741D1*
Y742118D1*
X3317410Y749303D1*
X3322163Y754056D1*
X3329348Y756432D1*
X3331725D1*
X3338910Y754056D1*
X3343663Y749303D1*
X3346095Y739741D1*
Y727748D1*
X3343663Y715809D1*
X3338910Y708624D1*
X3331725Y706248D1*
X3326972D1*
X3319787Y708624D1*
X3317410Y713433D1*
X3655248Y928902D2*
D125*
X3676770D1*
X3681081Y930327D1*
X3683933Y933213D1*
X3685392Y937524D1*
Y940375D1*
X3683933Y944686D1*
X3681081Y947572D1*
X3676770Y948997D1*
X3655248Y948998D1*
X3659559Y978357D2*
X3656674Y975505D1*
X3655248Y971194D1*
Y965457D1*
X3656674Y961146D1*
X3659559Y958261D1*
X3662411D1*
X3665296Y959720D1*
X3666722Y961146D1*
X3668148Y963998D1*
X3671033Y972620D1*
X3672459Y975505D1*
X3673918Y976931D1*
X3676770Y978357D1*
X3681081D1*
X3683933Y975505D1*
X3685392Y971194D1*
Y965457D1*
X3683933Y961146D1*
X3681081Y958261D1*
X3655248Y987621D2*
X3685392D1*
Y1000554D1*
X3683933Y1004865D1*
X3682507Y1006291D1*
X3679655Y1007717D1*
X3675344D1*
X3672459Y1006291D1*
X3671033Y1004865D1*
X3669607Y1000554D1*
X3668148Y1004865D1*
X3666722Y1006291D1*
X3663870Y1007717D1*
X3660985D1*
X3658133Y1006291D1*
X3656674Y1004865D1*
X3655248Y1000554D1*
Y987621D1*
X3669607D2*
Y1000554D1*
X2210379Y2019011D2*
D123*
Y1999910D1*
X2227579Y1998009D1*
X2225678Y1999910D1*
X2223732Y2005658D1*
Y2011362D1*
X2225678Y2017110D1*
X2229480Y2020957D1*
X2235228Y2022858D1*
X2239031D1*
X2244779Y2020957D1*
X2248626Y2017110D1*
X2250527Y2011362D1*
Y2005658D1*
X2248626Y1999910D1*
X2246680Y1998009D1*
X2242878Y1996063D1*
X2223732Y2035209D2*
X2250527Y2046705D1*
X2223732Y2058157D1*
X3433075Y854350D2*
D125*
Y824206D1*
X3446008D1*
X3450319Y825665D1*
X3451745Y827091D1*
X3453171Y829943D1*
Y834254D1*
X3451745Y837139D1*
X3450319Y838565D1*
X3446008Y839991D1*
X3450319Y841450D1*
X3451745Y842876D1*
X3453171Y845728D1*
Y848613D1*
X3451745Y851465D1*
X3450319Y852924D1*
X3446008Y854350D1*
X3433075D1*
Y839991D2*
X3446008D1*
X3462434Y844302D2*
Y824206D1*
Y835680D2*
X3463893Y839991D1*
X3466745Y842876D1*
X3469630Y844302D1*
X3473941D1*
X3500416Y854350D2*
Y824206D1*
Y839991D2*
X3497564Y842876D1*
X3494679Y844302D1*
X3490368D1*
X3487516Y842876D1*
X3484631Y839991D1*
X3483205Y835680D1*
Y832828D1*
X3484631Y828517D1*
X3487516Y825665D1*
X3490368Y824206D1*
X3494679D1*
X3497564Y825665D1*
X3500416Y828517D1*
X3538840Y838565D2*
X3551773D1*
X3556051Y839991D1*
X3557510Y841450D1*
X3558936Y844302D1*
Y848613D1*
X3557510Y851465D1*
X3556051Y852924D1*
X3551773Y854350D1*
X3538840D1*
Y824206D1*
X3575362Y844302D2*
X3572510Y842876D1*
X3569625Y839991D1*
X3568199Y835680D1*
Y832828D1*
X3569625Y828517D1*
X3572510Y825665D1*
X3575362Y824206D1*
X3579673D1*
X3582558Y825665D1*
X3585410Y828517D1*
X3586870Y832828D1*
Y835680D1*
X3585410Y839991D1*
X3582558Y842876D1*
X3579673Y844302D1*
X3575362D1*
X3596133D2*
X3601870Y824206D1*
X3607607Y844302D1*
X3613344Y824206D1*
X3619081Y844302D1*
X3628345Y835680D2*
X3645555D1*
Y838565D1*
X3644129Y841450D1*
X3642704Y842876D1*
X3639818Y844302D1*
X3635507D1*
X3632656Y842876D1*
X3629770Y839991D1*
X3628345Y835680D1*
Y832828D1*
X3629770Y828517D1*
X3632656Y825665D1*
X3635507Y824206D1*
X3639818D1*
X3642704Y825665D1*
X3645555Y828517D1*
X3654819Y844302D2*
Y824206D1*
Y835680D2*
X3656278Y839991D1*
X3659130Y842876D1*
X3662015Y844302D1*
X3666326D1*
X2413592Y706248D2*
D124*
X2394414Y756488D1*
X2375290Y706248D1*
X2382476Y722994D2*
X2406407D1*
X2443402Y756432D2*
X2436217Y754056D1*
X2431408Y746871D1*
X2429032Y734933D1*
Y727748D1*
X2431408Y715809D1*
X2436217Y708624D1*
X2443402Y706248D1*
X2448155D1*
X2455340Y708624D1*
X2460093Y715809D1*
X2462525Y727748D1*
Y734933D1*
X2460093Y746871D1*
X2455340Y754056D1*
X2448155Y756432D1*
X2443402D1*
X2460093Y746871D2*
X2431408Y715809D1*
X3381216Y2296111D2*
D123*
X3421408D1*
X3381215Y2269317D1*
X3421407D1*
X3406109Y2308463D2*
Y2331410D1*
X3402262D1*
X3398415Y2329509D1*
X3396514Y2327608D1*
X3394613Y2323761D1*
Y2318013D1*
X3396514Y2314211D1*
X3400361Y2310364D1*
X3406109Y2308463D1*
X3409911D1*
X3415659Y2310364D1*
X3419462Y2314211D1*
X3421408Y2318013D1*
X3421407Y2323761D1*
X3419462Y2327608D1*
X3415659Y2331410D1*
X3394613Y2353312D2*
X3396514Y2349510D1*
X3400361Y2345663D1*
X3406109Y2343762D1*
X3409911D1*
X3415659Y2345663D1*
X3419462Y2349510D1*
X3421407Y2353312D1*
Y2359060D1*
X3419462Y2362907D1*
X3415659Y2366710D1*
X3409911Y2368655D1*
X3406109D1*
X3400361Y2366710D1*
X3396514Y2362907D1*
X3394613Y2359060D1*
Y2353312D1*
X3401334Y2381007D2*
Y2403114D1*
X3381216Y2426962D2*
X3383117Y2423115D1*
X3386964Y2419313D1*
X3390766Y2417367D1*
X3396514Y2415466D1*
X3406109D1*
X3411813Y2417367D1*
X3415659Y2419313D1*
X3419462Y2423115D1*
X3421407Y2426962D1*
Y2434611D1*
X3419462Y2438414D1*
X3415659Y2442260D1*
X3411813Y2444162D1*
X3406109Y2446063D1*
X3396514D1*
X3390766Y2444162D1*
X3386964Y2442260D1*
X3383117Y2438414D1*
X3381215Y2434611D1*
X3381216Y2426962D1*
X3394613Y2458414D2*
X3413758D1*
X3419462Y2460316D1*
X3421407Y2464162D1*
Y2469910D1*
X3419462Y2473713D1*
X3413758Y2479461D1*
X3394613D2*
X3421407D1*
X3381215Y2497560D2*
X3413758D1*
X3419462Y2499462D1*
X3421407Y2503308D1*
Y2507111D1*
X3394613Y2491812D2*
Y2505210D1*
X2830468Y709614D2*
D124*
Y759799D1*
X2806536Y726361D1*
X2842406D1*
X2936595Y755073D2*
X2912718D1*
X2910342Y733573D1*
X2912718Y735950D1*
X2919903Y738381D1*
X2927033D1*
X2934218Y735950D1*
X2939027Y731196D1*
X2941403Y724011D1*
Y719258D1*
X2939027Y712073D1*
X2934218Y707265D1*
X2927033Y704888D1*
X2919903D1*
X2912718Y707265D1*
X2910342Y709697D1*
X2907910Y714450D1*
X1443511Y2337743D2*
D126*
Y2307599D1*
X1456444D1*
X1460755Y2309058D1*
X1462181Y2310484D1*
X1463607Y2313336D1*
Y2317647D1*
X1462181Y2320532D1*
X1460755Y2321958D1*
X1456444Y2323384D1*
X1460755Y2324843D1*
X1462181Y2326269D1*
X1463607Y2329121D1*
Y2332006D1*
X1462181Y2334858D1*
X1460755Y2336317D1*
X1456444Y2337743D1*
X1443511D1*
Y2323384D2*
X1456444D1*
X1497703Y2337743D2*
Y2307599D1*
X1477607Y2337743D1*
Y2307599D1*
X1520325Y2337743D2*
X1517440Y2336317D1*
X1514588Y2333432D1*
X1513129Y2330580D1*
X1511703Y2326269D1*
Y2319073D1*
X1513129Y2314795D1*
X1514588Y2311910D1*
X1517440Y2309058D1*
X1520325Y2307599D1*
X1526062D1*
X1528914Y2309058D1*
X1531799Y2311910D1*
X1533225Y2314795D1*
X1534651Y2319073D1*
Y2326269D1*
X1533225Y2330580D1*
X1531799Y2333432D1*
X1528914Y2336317D1*
X1526062Y2337743D1*
X1520325D1*
X1557273Y2337710D2*
X1552962Y2336284D1*
X1550077Y2331973D1*
X1548651Y2324810D1*
Y2320499D1*
X1550077Y2313336D1*
X1552962Y2309025D1*
X1557273Y2307599D1*
X1560125D1*
X1564436Y2309025D1*
X1567288Y2313336D1*
X1568747Y2320499D1*
Y2324810D1*
X1567288Y2331973D1*
X1564436Y2336284D1*
X1560125Y2337710D1*
X1557273D1*
X1567288Y2331973D2*
X1550077Y2313336D1*
X1599958Y2337710D2*
X1585632D1*
X1584206Y2324810D1*
X1585632Y2326236D1*
X1589943Y2327695D1*
X1594221D1*
X1598532Y2326236D1*
X1601417Y2323384D1*
X1602843Y2319073D1*
Y2316221D1*
X1601417Y2311910D1*
X1598532Y2309025D1*
X1594221Y2307599D1*
X1589943D1*
X1585632Y2309025D1*
X1584206Y2310484D1*
X1582747Y2313336D1*
X1634054Y2337710D2*
X1619728D1*
X1618302Y2324810D1*
X1619728Y2326236D1*
X1624039Y2327695D1*
X1628317D1*
X1632628Y2326236D1*
X1635513Y2323384D1*
X1636939Y2319073D1*
Y2316221D1*
X1635513Y2311910D1*
X1632628Y2309025D1*
X1628317Y2307599D1*
X1624039D1*
X1619728Y2309025D1*
X1618302Y2310484D1*
X1616843Y2313336D1*
X1299219Y2338512D2*
Y2308368D1*
X1319315Y2338512D2*
Y2308368D1*
X1299219Y2324153D2*
X1319315D1*
X1340478Y2328464D2*
X1337626Y2327038D1*
X1334741Y2324153D1*
X1333315Y2319842D1*
Y2316990D1*
X1334741Y2312679D1*
X1337626Y2309827D1*
X1340478Y2308368D1*
X1344789D1*
X1347674Y2309827D1*
X1350526Y2312679D1*
X1351985Y2316990D1*
Y2319842D1*
X1350526Y2324153D1*
X1347674Y2327038D1*
X1344789Y2328464D1*
X1340478D1*
X1381770Y2324153D2*
X1380344Y2327038D1*
X1376033Y2328464D1*
X1371722D1*
X1367411Y2327038D1*
X1365985Y2324153D1*
X1367411Y2321301D1*
X1370296Y2319842D1*
X1377459Y2318416D1*
X1380344Y2316990D1*
X1381770Y2314105D1*
Y2312679D1*
X1380344Y2309827D1*
X1376033Y2308368D1*
X1371722D1*
X1367411Y2309827D1*
X1365985Y2312679D1*
X1400081Y2338512D2*
Y2314105D1*
X1401507Y2309827D1*
X1404392Y2308368D1*
X1407244D1*
X1395770Y2328464D2*
X1405818D1*
X1718283Y2293178D2*
X1688139D1*
X1718283Y2303226D2*
Y2283130D1*
X1718249Y2266245D2*
Y2250493D1*
X1706775Y2259082D1*
Y2254771D1*
X1705349Y2251919D1*
X1703924Y2250493D1*
X1699613Y2249034D1*
X1696761D1*
X1692450Y2250493D1*
X1689565Y2253345D1*
X1688139Y2257656D1*
Y2261967D1*
X1689565Y2266245D1*
X1691024Y2267671D1*
X1693876Y2269130D1*
X1691024Y2233608D2*
X1689565Y2235034D1*
X1688139Y2233608D1*
X1689565Y2232149D1*
X1691024Y2233608D1*
X1711086Y2216690D2*
X1712512D1*
X1715397Y2215264D1*
X1716823Y2213838D1*
X1718249Y2210953D1*
Y2205216D1*
X1716823Y2202364D1*
X1715398Y2200938D1*
X1712512Y2199479D1*
X1709661D1*
X1706775Y2200938D1*
X1702498Y2203790D1*
X1688139Y2218149D1*
Y2198053D1*
X3524320Y1837021D2*
D123*
X3520474Y1835075D1*
X3514726Y1829371D1*
Y1869519D1*
X3429787Y1838944D2*
Y1837043D1*
X3427886Y1833196D1*
X3425984Y1831295D1*
X3422138Y1829394D1*
X3414488D1*
X3410686Y1831295D1*
X3408785Y1833196D1*
X3406839Y1837043D1*
Y1840845D1*
X3408785Y1844692D1*
X3412587Y1850396D1*
X3431732Y1869541D1*
X3404938D1*
X3330151Y1829518D2*
X3309148D1*
X3320600Y1844817D1*
X3314852D1*
X3311050Y1846718D1*
X3309148Y1848619D1*
X3307203Y1854367D1*
Y1858170D1*
X3309148Y1863918D1*
X3312951Y1867765D1*
X3318699Y1869666D1*
X3324447D1*
X3330151Y1867765D1*
X3332052Y1865819D1*
X3333998Y1862017D1*
X3008942Y1836117D2*
X3010843Y1832315D1*
X3016591Y1830413D1*
X3020394D1*
X3026142Y1832315D1*
X3029989Y1838063D1*
X3031890Y1847613D1*
Y1857164D1*
X3029989Y1864813D1*
X3026142Y1868660D1*
X3020394Y1870561D1*
X3018493D1*
X3012789Y1868660D1*
X3008942Y1864813D1*
X3007041Y1859065D1*
Y1857164D1*
X3008942Y1851416D1*
X3012789Y1847613D1*
X3018493Y1845712D1*
X3020394D1*
X3026142Y1847613D1*
X3029989Y1851416D1*
X3031890Y1857164D1*
X2925285Y1870390D2*
X2906140Y1830243D1*
X2932935D1*
X2822304Y1829568D2*
X2828008Y1831469D1*
X2829953Y1835272D1*
Y1839119D1*
X2828008Y1842921D1*
X2824205Y1844867D1*
X2816556Y1846768D1*
X2810808Y1848669D1*
X2807005Y1852516D1*
X2805104Y1856319D1*
Y1862067D1*
X2807005Y1865869D1*
X2808907Y1867815D1*
X2814655Y1869716D1*
X2822304D1*
X2828008Y1867815D1*
X2829953Y1865869D1*
X2831854Y1862067D1*
Y1856319D1*
X2829953Y1852516D1*
X2826106Y1848669D1*
X2820403Y1846768D1*
X2812753Y1844867D1*
X2808907Y1842921D1*
X2807005Y1839119D1*
Y1835272D1*
X2808907Y1831469D1*
X2814655Y1829568D1*
X2822304D1*
X2708113Y1843944D2*
X2710059Y1849692D1*
X2713861Y1853538D1*
X2719609Y1855440D1*
X2721511D1*
X2727259Y1853538D1*
X2731061Y1849692D1*
X2733007Y1843944D1*
Y1842042D1*
X2731061Y1836294D1*
X2727259Y1832492D1*
X2721511Y1830590D1*
X2719609D1*
X2713861Y1832492D1*
X2710059Y1836294D1*
X2708113Y1843944D1*
Y1853538D1*
X2710059Y1863089D1*
X2713861Y1868837D1*
X2719609Y1870738D1*
X2723412D1*
X2729160Y1868837D1*
X2731061Y1864990D1*
X3214850Y1870597D2*
Y1830449D1*
X3233995Y1857199D1*
X3205299D1*
X3108538Y1829720D2*
X3127639D1*
X3129540Y1846920D1*
X3127639Y1845019D1*
X3121891Y1843073D1*
X3116187D1*
X3110439Y1845019D1*
X3106592Y1848822D1*
X3104691Y1854570D1*
Y1858372D1*
X3106592Y1864120D1*
X3110439Y1867967D1*
X3116187Y1869868D1*
X3121891D1*
X3127639Y1867967D1*
X3129540Y1866021D1*
X3131486Y1862219D1*
X3618828Y1828932D2*
X3624576Y1830833D1*
X3628423Y1836581D1*
X3630324Y1846131D1*
Y1851880D1*
X3628423Y1861430D1*
X3624576Y1867178D1*
X3618828Y1869079D1*
X3615026D1*
X3609278Y1867178D1*
X3605475Y1861430D1*
X3603530Y1851880D1*
Y1846132D1*
X3605475Y1836581D1*
X3609278Y1830833D1*
X3615026Y1828932D1*
X3618828D1*
X3605475Y1836581D2*
X3628423Y1861430D1*
X2643335Y1838468D2*
X2639488Y1836523D1*
X2633740Y1830819D1*
Y1870967D1*
X2609893Y1830819D2*
X2615641Y1832720D1*
X2619487Y1838468D1*
X2621389Y1848019D1*
Y1853767D1*
X2619487Y1863317D1*
X2615641Y1869065D1*
X2609893Y1870967D1*
X2606090D1*
X2600342Y1869065D1*
X2596540Y1863317D1*
X2594594Y1853767D1*
Y1848019D1*
X2596539Y1838468D1*
X2600342Y1832720D1*
X2606090Y1830819D1*
X2609893D1*
X2596539Y1838468D2*
X2619487Y1863317D1*
X2536456Y1836291D2*
X2532609Y1834345D1*
X2526861Y1828642D1*
Y1868789D1*
X2514509Y1836291D2*
X2510663Y1834345D1*
X2504915Y1828642D1*
Y1868789D1*
X2443599Y1836984D2*
X2439752Y1835038D1*
X2434004Y1829335D1*
Y1869482D1*
X2419707Y1838885D2*
Y1836984D1*
X2417806Y1833137D1*
X2415904Y1831236D1*
X2412058Y1829335D1*
X2404408D1*
X2400606Y1831236D1*
X2398705Y1833137D1*
X2396759Y1836984D1*
Y1840786D1*
X2398705Y1844633D1*
X2402507Y1850337D1*
X2421652Y1869482D1*
X2394858D1*
X2345950Y1838329D2*
X2342104Y1836383D1*
X2336356Y1830680D1*
Y1870827D1*
X2320157Y1830680D2*
X2299155D1*
X2310607Y1845978D1*
X2304859D1*
X2301056Y1847880D1*
X2299155Y1849781D1*
X2297210Y1855529D1*
Y1859331D1*
X2299155Y1865079D1*
X2302958Y1868926D1*
X2308706Y1870827D1*
X2314454D1*
X2320157Y1868926D1*
X2322059Y1866981D1*
X2324004Y1863178D1*
X1356566Y2265946D2*
D126*
X1359451Y2268798D1*
X1360877Y2273109D1*
Y2278846D1*
X1359451Y2283157D1*
X1356566Y2286042D1*
X1353714D1*
X1350829Y2284583D1*
X1349403Y2283157D1*
X1347977Y2280305D1*
X1345092Y2271683D1*
X1343666Y2268798D1*
X1342207Y2267372D1*
X1339355Y2265946D1*
X1335044D1*
X1332192Y2268798D1*
X1330733Y2273109D1*
Y2278846D1*
X1332192Y2283157D1*
X1335044Y2286042D1*
X1360877Y2251946D2*
X1330733D1*
Y2241898D1*
X1332192Y2237587D1*
X1335044Y2234702D1*
X1337929Y2233276D1*
X1342207Y2231850D1*
X1349403D1*
X1353714Y2233276D1*
X1356566Y2234702D1*
X1359451Y2237587D1*
X1360877Y2241898D1*
Y2251946D1*
X1330733Y2194869D2*
X1360877Y2206376D1*
X1330733Y2217850D1*
X1340781Y2213539D2*
Y2199180D1*
X1356475Y2041353D2*
X1359361Y2044205D1*
X1360787Y2048516D1*
Y2054253D1*
X1359361Y2058564D1*
X1356476Y2061449D1*
X1353624D1*
X1350739Y2059990D1*
X1349313Y2058564D1*
X1347887Y2055712D1*
X1345002Y2047090D1*
X1343576Y2044205D1*
X1342116Y2042779D1*
X1339265Y2041353D1*
X1334954D1*
X1332102Y2044205D1*
X1330642Y2048516D1*
Y2054253D1*
X1332102Y2058564D1*
X1334954Y2061449D1*
X1353624Y2005831D2*
X1356475Y2007257D1*
X1359361Y2010142D1*
X1360786Y2012994D1*
Y2018731D1*
X1359361Y2021616D1*
X1356475Y2024468D1*
X1353624Y2025927D1*
X1349313Y2027353D1*
X1342116D1*
X1337839Y2025927D1*
X1334954Y2024468D1*
X1332102Y2021616D1*
X1330643Y2018731D1*
Y2012994D1*
X1332102Y2010142D1*
X1334954Y2007257D1*
X1337839Y2005831D1*
X1360786Y1991831D2*
X1330643D1*
Y1974620D1*
X1351399Y1833060D2*
Y1820161D1*
X1352858Y1815850D1*
X1354284Y1814390D1*
X1357136Y1812964D1*
X1360021D1*
X1362873Y1814390D1*
X1364332Y1815850D1*
X1365758Y1820161D1*
Y1833060D1*
X1335614D1*
X1351399Y1823012D2*
X1335614Y1812965D1*
X1361447Y1778869D2*
X1364332Y1781720D1*
X1365758Y1786031D1*
Y1791768D1*
X1364332Y1796079D1*
X1361447Y1798965D1*
X1358595D1*
X1355710Y1797505D1*
X1354284Y1796079D1*
X1352858Y1793228D1*
X1349973Y1784606D1*
X1348547Y1781720D1*
X1347088Y1780295D1*
X1344236Y1778869D1*
X1339925D1*
X1337073Y1781720D1*
X1335614Y1786031D1*
Y1791768D1*
X1337073Y1796079D1*
X1339925Y1798965D1*
X1365758Y1754821D2*
X1335614D1*
X1365758Y1764869D2*
Y1744773D1*
X1443614Y2162487D2*
Y2149587D1*
X1445073Y2145276D1*
X1446499Y2143817D1*
X1449351Y2142391D1*
X1452236D1*
X1455088Y2143817D1*
X1456547Y2145276D1*
X1457973Y2149587D1*
Y2162487D1*
X1427829D1*
X1443614Y2152439D2*
X1427829Y2142391D1*
X1457973Y2128391D2*
X1427829Y2108295D1*
X1457973D2*
X1427829Y2128391D1*
X1455649Y1940754D2*
X1425505D1*
X1455649Y1950802D2*
Y1930706D1*
Y1916706D2*
X1425505Y1896610D1*
X1455649D2*
X1425505Y1916706D1*
X1695462Y1963618D2*
Y1950718D1*
X1696921Y1946407D1*
X1698347Y1944948D1*
X1701199Y1943522D1*
X1704084D1*
X1706936Y1944948D1*
X1708395Y1946407D1*
X1709821Y1950718D1*
Y1963618D1*
X1679677D1*
X1695462Y1953570D2*
X1679677Y1943522D1*
X1709821Y1929522D2*
X1679677Y1909426D1*
X1709821D2*
X1679677Y1929522D1*
X1702625Y1893967D2*
X1704050D1*
X1706936Y1892541D1*
X1708362Y1891115D1*
X1709787Y1888230D1*
Y1882493D1*
X1708362Y1879641D1*
X1706936Y1878215D1*
X1704050Y1876756D1*
X1701199D1*
X1698314Y1878215D1*
X1694036Y1881067D1*
X1679677Y1895426D1*
Y1875330D1*
X1713792Y2171272D2*
X1683648D1*
X1713792Y2181320D2*
Y2161224D1*
Y2147224D2*
X1683648Y2127128D1*
X1713792D2*
X1683648Y2147224D1*
X1706596Y2111669D2*
X1708022D1*
X1710907Y2110243D1*
X1712333Y2108817D1*
X1713759Y2105932D1*
Y2100195D1*
X1712333Y2097343D1*
X1710907Y2095917D1*
X1708022Y2094458D1*
X1705170D1*
X1702285Y2095917D1*
X1698007Y2098769D1*
X1683648Y2113128D1*
Y2093032D1*
X1688740Y1797870D2*
X1718884Y1809377D1*
X1688740Y1820850D1*
X1698788Y1816539D2*
Y1802180D1*
X1708836Y1765199D2*
X1704525Y1766659D1*
X1701640Y1769510D1*
X1700214Y1773822D1*
Y1775247D1*
X1701640Y1779558D1*
X1704525Y1782410D1*
X1708836Y1783869D1*
X1710262D1*
X1714573Y1782410D1*
X1717424Y1779558D1*
X1718850Y1775247D1*
Y1773821D1*
X1717424Y1769510D1*
X1714573Y1766659D1*
X1708836Y1765199D1*
X1701640D1*
X1694477Y1766659D1*
X1690166Y1769511D1*
X1688740Y1773822D1*
Y1776673D1*
X1690166Y1780984D1*
X1693051Y1782410D1*
X1541585Y1272882D2*
D123*
X1522483D1*
X1520582Y1255683D1*
X1522483Y1257584D1*
X1528231Y1259529D1*
X1533935D1*
X1539683Y1257584D1*
X1543530Y1253781D1*
X1545431Y1248033D1*
Y1244231D1*
X1543530Y1238483D1*
X1539683Y1234636D1*
X1533935Y1232735D1*
X1528231D1*
X1522483Y1234636D1*
X1520582Y1236581D1*
X1518637Y1240384D1*
X1557783Y1259529D2*
X1569279Y1232735D1*
X1580731Y1259529D1*
X1539386Y1065425D2*
X1537485Y1069227D1*
X1533638Y1073074D1*
X1529836Y1074975D1*
X1522186D1*
X1518340Y1073074D1*
X1514537Y1069227D1*
X1512592Y1065425D1*
X1510690Y1059677D1*
Y1050082D1*
X1512592Y1044378D1*
X1514537Y1040531D1*
X1518340Y1036729D1*
X1522186Y1034783D1*
X1529836D1*
X1533638Y1036729D1*
X1537485Y1040531D1*
X1539386Y1044378D1*
Y1050082D1*
X1529836D1*
X1578532Y1074975D2*
Y1034783D1*
X1551738Y1074975D1*
Y1034783D1*
X1590884Y1074975D2*
Y1034783D1*
X1604281D1*
X1610029Y1036729D1*
X1613876Y1040531D1*
X1615777Y1044378D1*
X1617679Y1050082D1*
Y1059677D1*
X1615777Y1065425D1*
X1613876Y1069227D1*
X1610029Y1073074D1*
X1604281Y1074975D1*
X1590884D1*
X1541417Y968683D2*
X1537614Y972529D1*
X1531866Y974431D1*
X1524217D1*
X1518469Y972529D1*
X1514622Y968683D1*
Y964880D1*
X1516568Y961033D1*
X1518469Y959132D1*
X1522271Y957231D1*
X1533768Y953384D1*
X1537614Y951483D1*
X1539516Y949537D1*
X1541417Y945735D1*
Y939987D1*
X1537614Y936184D1*
X1531866Y934239D1*
X1524217D1*
X1518469Y936184D1*
X1514622Y939987D1*
X1553768Y974431D2*
Y934239D1*
X1567166D1*
X1572914Y936184D1*
X1576760Y939987D1*
X1578662Y943833D1*
X1580563Y949537D1*
Y959132D1*
X1578662Y964880D1*
X1576760Y968683D1*
X1572914Y972529D1*
X1567166Y974431D1*
X1553768D1*
X1623556Y934239D2*
X1608213Y974431D1*
X1592914Y934239D1*
X1598662Y947636D2*
X1617808D1*
X1543585Y872700D2*
X1539782Y876546D1*
X1534034Y878448D1*
X1526385D1*
X1520637Y876546D1*
X1516790Y872700D1*
Y868897D1*
X1518736Y865050D1*
X1520637Y863149D1*
X1524439Y861248D1*
X1535936Y857401D1*
X1539782Y855500D1*
X1541684Y853554D1*
X1543585Y849752D1*
Y844004D1*
X1539782Y840201D1*
X1534034Y838256D1*
X1526385D1*
X1520637Y840201D1*
X1516790Y844004D1*
X1584632Y868897D2*
X1582731Y872700D1*
X1578884Y876546D1*
X1575082Y878448D1*
X1567432D1*
X1563586Y876546D1*
X1559783Y872700D1*
X1557838Y868897D1*
X1555936Y863149D1*
Y853554D1*
X1557838Y847850D1*
X1559783Y844004D1*
X1563586Y840201D1*
X1567432Y838256D1*
X1575082D1*
X1578884Y840201D1*
X1582731Y844004D1*
X1584632Y847850D1*
X1596984Y878448D2*
Y838256D1*
X1619931D1*
X1519983Y755594D2*
X1537183D1*
X1542931Y757539D1*
X1544876Y759440D1*
X1546778Y763243D1*
Y767090D1*
X1544876Y770892D1*
X1542931Y772838D1*
X1537183Y774739D1*
X1519983D1*
Y734547D1*
X1533380Y755594D2*
X1546778Y734547D1*
X1585924Y768991D2*
X1582121Y772838D1*
X1576373Y774739D1*
X1568724D1*
X1562976Y772838D1*
X1559129Y768991D1*
Y765188D1*
X1561075Y761342D1*
X1562976Y759440D1*
X1566778Y757539D1*
X1578275Y753692D1*
X1582121Y751791D1*
X1584023Y749846D1*
X1585924Y746043D1*
Y740295D1*
X1582121Y736493D1*
X1576373Y734547D1*
X1568724D1*
X1562976Y736493D1*
X1559129Y740295D1*
X1611673Y774739D2*
Y734547D1*
X1598275Y774739D2*
X1625070D1*
X1306171Y1656432D2*
D126*
X1317645Y1626288D1*
X1329119Y1656432D1*
X1343119D2*
Y1626288D1*
X1377215Y1656432D2*
Y1626288D1*
X1357119Y1656432D1*
Y1626288D1*
X1269734Y1484167D2*
X1285486D1*
X1276897Y1472693D1*
X1281208D1*
X1284060Y1471267D1*
X1285486Y1469841D1*
X1286945Y1465530D1*
Y1462678D1*
X1285486Y1458367D1*
X1282634Y1455482D1*
X1278323Y1454056D1*
X1274012D1*
X1269734Y1455482D1*
X1268308Y1456941D1*
X1266849Y1459793D1*
X1281013Y1379251D2*
X1266687D1*
X1265261Y1366351D1*
X1266687Y1367777D1*
X1270998Y1369236D1*
X1275276D1*
X1279587Y1367777D1*
X1282472Y1364925D1*
X1283898Y1360614D1*
Y1357762D1*
X1282472Y1353451D1*
X1279587Y1350566D1*
X1275276Y1349140D1*
X1270998D1*
X1266687Y1350566D1*
X1265261Y1352025D1*
X1263802Y1354877D1*
X1323160Y1192642D2*
X1321734Y1195494D1*
X1318849Y1198379D1*
X1315997Y1199805D1*
X1310260D1*
X1307375Y1198379D1*
X1304523Y1195494D1*
X1303064Y1192642D1*
X1301638Y1188331D1*
Y1181135D1*
X1303064Y1176857D1*
X1304523Y1173972D1*
X1307375Y1171120D1*
X1310260Y1169661D1*
X1315997D1*
X1318849Y1171120D1*
X1321734Y1173972D1*
X1323160Y1176857D1*
Y1181135D1*
X1315997D1*
X1357256Y1199805D2*
Y1169661D1*
X1337160Y1199805D1*
Y1169661D1*
X1371256Y1199805D2*
Y1169661D1*
X1381304D1*
X1385615Y1171120D1*
X1388500Y1173972D1*
X1389926Y1176857D1*
X1391352Y1181135D1*
Y1188331D1*
X1389926Y1192642D1*
X1388500Y1195494D1*
X1385615Y1198379D1*
X1381304Y1199805D1*
X1371256D1*
X1412676Y457483D2*
Y417291D1*
X1439471Y457483D2*
X1412676Y430688D1*
X1422227Y440283D2*
X1439471Y417291D1*
X1453471Y444086D2*
Y424940D1*
X1455372Y419237D1*
X1459219Y417291D1*
X1464967D1*
X1468769Y419237D1*
X1474517Y424940D1*
Y444086D2*
Y417291D1*
X1488517Y444086D2*
Y417291D1*
Y432590D2*
X1490463Y438338D1*
X1494265Y442184D1*
X1498112Y444086D1*
X1503860D1*
X1523608Y457483D2*
Y424940D1*
X1525509Y419237D1*
X1529356Y417291D1*
X1533159D1*
X1517860Y444086D2*
X1531258D1*
X1556754Y457439D2*
X1547159Y445943D1*
X1558655Y455538D1*
X1556754Y457439D1*
X1593702Y438338D2*
X1591800Y442184D1*
X1586052Y444086D1*
X1580304D1*
X1574556Y442184D1*
X1572655Y438338D1*
X1574556Y434535D1*
X1578403Y432590D1*
X1587953Y430688D1*
X1591800Y428787D1*
X1593702Y424940D1*
Y423039D1*
X1591800Y419237D1*
X1586052Y417291D1*
X1580304D1*
X1574556Y419237D1*
X1572655Y423039D1*
X1661628Y457483D2*
Y417291D1*
X1648231Y457483D2*
X1675026D1*
X1689026Y432590D2*
X1711973D1*
Y436436D1*
X1710072Y440283D1*
X1708171Y442184D1*
X1704324Y444086D1*
X1698576D1*
X1694774Y442184D1*
X1690927Y438338D1*
X1689026Y432590D1*
Y428787D1*
X1690927Y423039D1*
X1694774Y419237D1*
X1698576Y417291D1*
X1704324D1*
X1708171Y419237D1*
X1711973Y423039D1*
X1725973Y432590D2*
X1748921D1*
Y436436D1*
X1747020Y440283D1*
X1745119Y442184D1*
X1741272Y444086D1*
X1735524D1*
X1731721Y442184D1*
X1727875Y438338D1*
X1725973Y432590D1*
Y428787D1*
X1727875Y423039D1*
X1731721Y419237D1*
X1735524Y417291D1*
X1741272D1*
X1745119Y419237D1*
X1748921Y423039D1*
X1762921Y444086D2*
Y417291D1*
Y436436D2*
X1768669Y442184D1*
X1772516Y444086D1*
X1778220D1*
X1782067Y442184D1*
X1783968Y436436D1*
Y417291D1*
X1819015Y438338D2*
X1817113Y442184D1*
X1811365Y444086D1*
X1805617D1*
X1799869Y442184D1*
X1797968Y438338D1*
X1799869Y434535D1*
X1803716Y432590D1*
X1813267Y430688D1*
X1817113Y428787D1*
X1819015Y424940D1*
Y423039D1*
X1817113Y419237D1*
X1811365Y417291D1*
X1805617D1*
X1799869Y419237D1*
X1797968Y423039D1*
X1834960Y444086D2*
X1846412Y417291D1*
X1842609Y409642D1*
X1838763Y405795D1*
X1834960Y403894D1*
X1833015D1*
X1857908Y444086D2*
X1846412Y417291D1*
X1943079D2*
X1927736Y457483D1*
X1912437Y417291D1*
X1918185Y430688D2*
X1937331D1*
X1957079Y444086D2*
Y417291D1*
Y432590D2*
X1959024Y438338D1*
X1962827Y442184D1*
X1966674Y444086D1*
X1972422D1*
X1986422Y457483D2*
Y417291D1*
Y438338D2*
X1990268Y442184D1*
X1994071Y444086D1*
X1999819D1*
X2003622Y442184D1*
X2007468Y438338D1*
X2009370Y432590D1*
Y428787D1*
X2007468Y423039D1*
X2003622Y419237D1*
X1999819Y417291D1*
X1994071D1*
X1990268Y419237D1*
X1986422Y423039D1*
X2032920Y444086D2*
X2029118Y442184D1*
X2025271Y438338D1*
X2023370Y432590D1*
Y428787D1*
X2025271Y423039D1*
X2029118Y419237D1*
X2032920Y417291D1*
X2038668D1*
X2042515Y419237D1*
X2046317Y423039D1*
X2048263Y428787D1*
Y432590D1*
X2046317Y438338D1*
X2042515Y442184D1*
X2038668Y444086D1*
X2032920D1*
X2068011Y457483D2*
Y424940D1*
X2069912Y419237D1*
X2073759Y417291D1*
X2077562D1*
X2062263Y444086D2*
X2075660D1*
X2091562Y457483D2*
X2093463Y455582D1*
X2095408Y457483D1*
X2093463Y459429D1*
X2091562Y457483D1*
X2093463Y444086D2*
Y417291D1*
X2109408Y444086D2*
X2130455Y417291D1*
Y444086D2*
X2109408Y417291D1*
X2184984Y438338D2*
X2202184D1*
X2207932Y440283D1*
X2209878Y442184D1*
X2211779Y445987D1*
Y449834D1*
X2209878Y453636D1*
X2207932Y455582D1*
X2202184Y457483D1*
X2184984D1*
Y417291D1*
X2198382Y438338D2*
X2211779Y417291D1*
X2225779Y436436D2*
X2243023D1*
X2248727Y438338D1*
X2250672Y440283D1*
X2252574Y444086D1*
Y449834D1*
X2250672Y453636D1*
X2248727Y455582D1*
X2243023Y457483D1*
X2225779D1*
Y417291D1*
X2266574Y457483D2*
Y417291D1*
X2321103Y457483D2*
Y417291D1*
X2347898Y457483D2*
Y417291D1*
X2321103Y438338D2*
X2347898D1*
X2384846Y444086D2*
Y417291D1*
Y438338D2*
X2381043Y442184D1*
X2377196Y444086D1*
X2371493D1*
X2367646Y442184D1*
X2363843Y438338D1*
X2361898Y432590D1*
Y428787D1*
X2363843Y423039D1*
X2367646Y419237D1*
X2371493Y417291D1*
X2377196D1*
X2381043Y419237D1*
X2384846Y423039D1*
X2404594Y457483D2*
Y424940D1*
X2406495Y419237D1*
X2410342Y417291D1*
X2414144D1*
X2398846Y444086D2*
X2412243D1*
X2468674Y457483D2*
X2483972Y417291D1*
X2499271Y457483D1*
X2515172Y421138D2*
X2513271Y419192D1*
X2515172Y417291D1*
X2517118Y419192D1*
X2515172Y421138D1*
X2531118Y449790D2*
X2534964Y451735D1*
X2540712Y457439D1*
Y417291D1*
X2519247Y2209003D2*
D125*
Y2207577D1*
X2517821Y2204692D1*
X2516395Y2203266D1*
X2513510Y2201840D1*
X2507773D1*
X2504922Y2203266D1*
X2503496Y2204692D1*
X2502036Y2207577D1*
Y2210429D1*
X2503496Y2213314D1*
X2506348Y2217592D1*
X2520707Y2231951D1*
X2500611D1*
X2484184Y2201840D2*
X2488462Y2203266D1*
X2489921Y2206118D1*
Y2209003D1*
X2488462Y2211855D1*
X2485610Y2213314D1*
X2479873Y2214740D1*
X2475562Y2216166D1*
X2472710Y2219051D1*
X2471284Y2221903D1*
Y2226214D1*
X2472710Y2229066D1*
X2474136Y2230525D1*
X2478447Y2231951D1*
X2484184D1*
X2488462Y2230525D1*
X2489921Y2229066D1*
X2491347Y2226214D1*
Y2221903D1*
X2489921Y2219051D1*
X2487036Y2216166D1*
X2482758Y2214740D1*
X2477021Y2213314D1*
X2474136Y2211855D1*
X2472710Y2209003D1*
Y2206118D1*
X2474136Y2203266D1*
X2478447Y2201840D1*
X2484184D1*
X2416167Y2209328D2*
Y2207902D1*
X2414741Y2205017D1*
X2413315Y2203591D1*
X2410430Y2202165D1*
X2404693D1*
X2401841Y2203591D1*
X2400416Y2205017D1*
X2398956Y2207902D1*
Y2210754D1*
X2400416Y2213639D1*
X2403267Y2217917D1*
X2417626Y2232276D1*
X2397531D1*
X2382530D2*
X2368171Y2202165D1*
X2388267D1*
X2316320Y2209351D2*
Y2207925D1*
X2314894Y2205040D1*
X2313468Y2203614D1*
X2310583Y2202188D1*
X2304846D1*
X2301994Y2203614D1*
X2300568Y2205040D1*
X2299109Y2207925D1*
Y2210777D1*
X2300568Y2213662D1*
X2303420Y2217939D1*
X2317779Y2232298D1*
X2297683D1*
X2271208Y2206466D2*
X2272634Y2203614D1*
X2276945Y2202188D1*
X2279797D1*
X2284108Y2203614D1*
X2286993Y2207925D1*
X2288419Y2215088D1*
Y2222250D1*
X2286993Y2227987D1*
X2284108Y2230873D1*
X2279797Y2232298D1*
X2278371D1*
X2274093Y2230873D1*
X2271208Y2227987D1*
X2269782Y2223676D1*
Y2222250D1*
X2271208Y2217939D1*
X2274093Y2215088D1*
X2278371Y2213662D1*
X2279797D1*
X2284108Y2215088D1*
X2286993Y2217939D1*
X2288419Y2222250D1*
X2215648Y2208579D2*
Y2207153D1*
X2214222Y2204268D1*
X2212796Y2202842D1*
X2209911Y2201416D1*
X2204174D1*
X2201322Y2202842D1*
X2199896Y2204268D1*
X2198437Y2207153D1*
Y2210005D1*
X2199896Y2212890D1*
X2202748Y2217168D1*
X2217107Y2231527D1*
X2197011D1*
X2173388D2*
Y2201416D1*
X2187747Y2221479D1*
X2166225D1*
X2116768Y2209402D2*
Y2207976D1*
X2115342Y2205091D1*
X2113916Y2203665D1*
X2111031Y2202239D1*
X2105294D1*
X2102443Y2203665D1*
X2101017Y2205091D1*
X2099557Y2207976D1*
Y2210828D1*
X2101017Y2213713D1*
X2103869Y2217991D1*
X2118228Y2232350D1*
X2098132D1*
X2085983Y2202239D2*
X2070231D1*
X2078820Y2213713D1*
X2074509D1*
X2071657Y2215139D1*
X2070231Y2216565D1*
X2068772Y2220876D1*
Y2223728D1*
X2070231Y2228039D1*
X2073083Y2230924D1*
X2077394Y2232350D1*
X2081705D1*
X2085983Y2230924D1*
X2087409Y2229465D1*
X2088868Y2226613D1*
X2008911Y2209095D2*
Y2207669D1*
X2007485Y2204784D1*
X2006060Y2203358D1*
X2003174Y2201932D1*
X1997437D1*
X1994586Y2203358D1*
X1993160Y2204784D1*
X1991701Y2207669D1*
Y2210521D1*
X1993160Y2213406D1*
X1996012Y2217684D1*
X2010371Y2232043D1*
X1990275D1*
X1979552Y2209095D2*
Y2207669D1*
X1978126Y2204784D1*
X1976700Y2203358D1*
X1973815Y2201932D1*
X1968078D1*
X1965226Y2203358D1*
X1963800Y2204784D1*
X1962341Y2207669D1*
Y2210521D1*
X1963800Y2213406D1*
X1966652Y2217684D1*
X1981011Y2232043D1*
X1960915D1*
X1912263Y2209440D2*
Y2208014D1*
X1910837Y2205129D1*
X1909411Y2203703D1*
X1906526Y2202277D1*
X1900789D1*
X1897937Y2203703D1*
X1896511Y2205129D1*
X1895052Y2208014D1*
Y2210866D1*
X1896511Y2213751D1*
X1899363Y2218029D1*
X1913722Y2232388D1*
X1893626D1*
X1884363Y2208014D2*
X1881478Y2206555D1*
X1877167Y2202277D1*
Y2232388D1*
X1809722Y2207014D2*
X1806837Y2205555D1*
X1802526Y2201277D1*
Y2231388D1*
X1774593Y2211292D2*
X1776052Y2215603D1*
X1778904Y2218488D1*
X1783215Y2219914D1*
X1784641D1*
X1788952Y2218488D1*
X1791804Y2215603D1*
X1793263Y2211292D1*
Y2209866D1*
X1791804Y2205555D1*
X1788952Y2202703D1*
X1784641Y2201277D1*
X1783215D1*
X1778904Y2202703D1*
X1776052Y2205555D1*
X1774593Y2211292D1*
Y2218488D1*
X1776052Y2225651D1*
X1778904Y2229962D1*
X1783215Y2231388D1*
X1786067D1*
X1790378Y2229962D1*
X1791804Y2227077D1*
X1840863Y2163350D2*
Y2193494D1*
X1820767Y2163350D2*
Y2193494D1*
X1840863Y2177709D2*
X1820767D1*
X1804340Y2173398D2*
X1807192Y2174824D1*
X1810077Y2177709D1*
X1811503Y2182020D1*
Y2184872D1*
X1810077Y2189183D1*
X1807192Y2192035D1*
X1804340Y2193494D1*
X1800029D1*
X1797144Y2192035D1*
X1794292Y2189183D1*
X1792833Y2184872D1*
Y2182020D1*
X1794292Y2177709D1*
X1797144Y2174824D1*
X1800029Y2173398D1*
X1804340D1*
X1767785Y2177709D2*
X1769211Y2174824D1*
X1773522Y2173398D1*
X1777833D1*
X1782144Y2174824D1*
X1783570Y2177709D1*
X1782144Y2180561D1*
X1779259Y2182020D1*
X1772096Y2183446D1*
X1769211Y2184872D1*
X1767785Y2187757D1*
Y2189183D1*
X1769211Y2192035D1*
X1773522Y2193494D1*
X1777833D1*
X1782144Y2192035D1*
X1783570Y2189183D1*
X1754210Y2163350D2*
Y2187757D1*
X1752784Y2192035D1*
X1749899Y2193494D1*
X1747047D1*
X1758521Y2173398D2*
X1748473D1*
X1082432Y1497994D2*
D126*
X1093906Y1467850D1*
X1105380Y1497994D1*
X1119380D2*
Y1467850D1*
X1153476Y1497994D2*
Y1467850D1*
X1133380Y1497994D1*
Y1467850D1*
X3395344Y955338D2*
D123*
Y936237D1*
X3412544Y934336D1*
X3410642Y936237D1*
X3408697Y941985D1*
Y947689D1*
X3410642Y953437D1*
X3414445Y957283D1*
X3420193Y959185D1*
X3423995D1*
X3429743Y957283D1*
X3433590Y953437D1*
X3435492Y947689D1*
Y941985D1*
X3433590Y936237D1*
X3431645Y934336D1*
X3427842Y932390D1*
X3408697Y971536D2*
X3435491Y983032D1*
X3408697Y994484D1*
X1998645Y1974719D2*
D127*
Y1905831D1*
X1964245Y1940231D2*
X2033133D1*
M02*
