G04 DipTrace 3.0.0.0*
G04 TeensyArbotixProRPI.gts*
%MOIN*%
G04 #@! TF.FileFunction,Soldermask,Top*
G04 #@! TF.Part,Single*
%AMOUTLINE0*5,1,8,0,0,0.065199,-22.499571*%
%ADD13C,0.04*%
%ADD36R,0.05X0.1*%
%ADD37R,0.1X0.05*%
%ADD42C,0.17*%
%ADD45C,0.065199*%
%ADD46R,0.047244X0.047244*%
%ADD47C,0.05315*%
%ADD51R,0.031496X0.035433*%
%ADD55C,0.040004*%
%ADD57C,0.074*%
%ADD62C,0.06194*%
%ADD71C,0.167*%
%ADD73C,0.052*%
%ADD75C,0.042*%
%ADD79O,0.057X0.082*%
%ADD81R,0.057X0.082*%
%ADD83R,0.025622X0.045307*%
%ADD85C,0.062*%
%ADD89R,0.04137X0.037433*%
%ADD91R,0.053181X0.061055*%
%ADD95C,0.076803*%
%ADD97R,0.076803X0.076803*%
%ADD99R,0.053181X0.035465*%
%ADD109R,0.064992X0.033496*%
%ADD111R,0.061055X0.061055*%
%ADD113R,0.061055X0.053181*%
%ADD115R,0.108299X0.064992*%
%ADD121C,0.061055*%
%ADD128OUTLINE0*%
%FSLAX26Y26*%
G04*
G70*
G90*
G75*
G01*
G04 TopMask*
%LPD*%
D75*
X2368701Y1618701D3*
X3631002Y503889D3*
X3351091Y1714050D3*
D73*
X2155332Y777030D3*
D75*
X2122645Y1490757D3*
X3435914Y1311831D3*
D71*
X2814961Y531496D3*
X531496D3*
Y2460630D3*
X2814961D3*
D13*
X3133701Y1573701D3*
X2293701Y633701D3*
X3396743Y898211D3*
X2953701Y1633701D3*
X1210135Y592702D3*
X3133701Y1513701D3*
X2894215Y1388044D3*
X2893701Y1293701D3*
X1507616Y1430777D3*
X2949546Y1448400D3*
X3453701Y2053701D3*
X3233701Y2193701D3*
X3193701Y1433701D3*
X2953701Y1513701D3*
X1321895Y2255645D3*
X1413385Y1715036D3*
X1443701Y1368701D3*
X2217710Y1523818D3*
X2106701Y1583701D3*
D121*
X1468701Y1157505D3*
Y1057505D3*
Y957505D3*
Y1257505D3*
X2168701Y1057505D3*
Y957505D3*
Y857505D3*
Y1157505D3*
X1468701Y857505D3*
Y757505D3*
D36*
X607452Y912685D3*
Y737685D3*
D37*
X866201Y1918701D3*
X1041201D3*
D115*
X3043701Y2038583D3*
Y2148819D3*
D113*
X2313974Y845654D3*
Y770851D3*
D37*
X1301201Y1863701D3*
X1126201D3*
D111*
X2918701Y918701D3*
D121*
Y818701D3*
X2818701Y918701D3*
Y818701D3*
X2718701Y918701D3*
Y818701D3*
X2618701Y918701D3*
Y818701D3*
X2518701Y918701D3*
Y818701D3*
X2418701Y918701D3*
Y818701D3*
D111*
Y1018701D3*
D121*
X2518701D3*
X2618701D3*
X2718701D3*
X2818701D3*
X2918701D3*
D111*
X3318701Y918701D3*
D121*
Y818701D3*
X3218701Y918701D3*
Y818701D3*
X3118701Y918701D3*
Y818701D3*
X3018701Y918701D3*
Y818701D3*
D111*
Y1018701D3*
D121*
X3118701D3*
X3218701D3*
X3318701D3*
D111*
X2318701Y2033701D3*
D121*
Y2133701D3*
X2418701Y2033701D3*
Y2133701D3*
X2518701Y2033701D3*
Y2133701D3*
X2618701Y2033701D3*
Y2133701D3*
X2718701Y2033701D3*
Y2133701D3*
X2818701Y2033701D3*
Y2133701D3*
X2918701Y2033701D3*
Y2133701D3*
D111*
X3318701Y2293701D3*
D121*
Y2393701D3*
Y2493701D3*
D109*
X2010630Y1633701D3*
X1876772D3*
D42*
X918701Y958071D3*
Y721851D3*
X1103740Y839961D3*
D111*
X1343701Y1262126D3*
D121*
Y1362126D3*
Y1462126D3*
Y1562126D3*
D111*
X3493701Y918701D3*
D121*
Y1018701D3*
X3593701Y918701D3*
Y1018701D3*
D128*
X723229Y2410630D3*
Y2510630D3*
X823229Y2410630D3*
Y2510630D3*
X923229Y2410630D3*
Y2510630D3*
X1023229Y2410630D3*
Y2510630D3*
X1123229Y2410630D3*
Y2510630D3*
X1223229Y2410630D3*
Y2510630D3*
X1323229Y2410630D3*
Y2510630D3*
X1423229Y2410630D3*
Y2510630D3*
X1523229Y2410630D3*
Y2510630D3*
X1623229Y2410630D3*
Y2510630D3*
X1723229Y2410630D3*
Y2510630D3*
X1823229Y2410630D3*
Y2510630D3*
X1923229Y2410630D3*
Y2510630D3*
X2023229Y2410630D3*
Y2510630D3*
X2123229Y2410630D3*
Y2510630D3*
X2223229Y2410630D3*
Y2510630D3*
X2323229Y2410630D3*
Y2510630D3*
X2423229Y2410630D3*
Y2510630D3*
X2523229Y2410630D3*
Y2510630D3*
X2623229Y2410630D3*
Y2510630D3*
D45*
X518701Y1983701D3*
X618701D3*
X718701D3*
X518701Y1773701D3*
X618701D3*
X718701D3*
X518701Y1563701D3*
X618701D3*
X718701D3*
X518701Y1353701D3*
X618701D3*
X718701D3*
X518701Y1143701D3*
X618701D3*
X718701D3*
X518701Y2193701D3*
X618701D3*
X718701D3*
X943701Y1643701D3*
X1043701D3*
X1143701D3*
X1118701Y1153701D3*
Y1253701D3*
Y1353701D3*
D111*
X1518701Y1668701D3*
D121*
X1618701D3*
D111*
X3618701Y1933701D3*
D121*
X3518701D3*
X3418701D3*
X3318701D3*
X3218701D3*
X3118701D3*
X3018701D3*
X2918701D3*
D111*
X2818701D3*
D121*
X2718701D3*
X2618701D3*
X2518701D3*
X2418701D3*
X2318701D3*
D111*
X1793701Y2293701D3*
D121*
X1893701D3*
X1993701D3*
X2093701D3*
X2193701D3*
X2293701D3*
X2393701D3*
X2493701D3*
D111*
X1418701Y1793701D3*
D121*
X1518701D3*
X1618701D3*
D111*
Y1918701D3*
D121*
X1518701D3*
D111*
X1418701Y2018701D3*
D121*
X1518701D3*
X1618701D3*
D111*
X1418701Y2243701D3*
D121*
X1518701D3*
X1618701D3*
D111*
Y2143701D3*
D121*
X1518701D3*
D46*
X3612942Y2068637D3*
Y2151314D3*
D47*
X3543701Y2243701D3*
Y2308701D3*
Y2378701D3*
Y2443701D3*
D46*
X1335040Y493701D3*
X1252362D3*
D99*
X2690701Y2211701D3*
Y2286504D3*
X2604087Y2249103D3*
D97*
X918701Y1353701D3*
D95*
Y1253701D3*
Y1153701D3*
D51*
X1256299Y954331D3*
X1331103D3*
X1293701Y1037008D3*
D91*
X1791103Y1593701D3*
X1716299D3*
X2756299Y1393701D3*
X2831103D3*
X2756299Y1593701D3*
X2831103D3*
D113*
X2218701Y2166103D3*
Y2091299D3*
D91*
X1331103Y593701D3*
X1256299D3*
X1146771Y1018701D3*
X1071967D3*
X1231103Y2013701D3*
X1156299D3*
D113*
X2643701Y506299D3*
Y581103D3*
D91*
X1341103Y718701D3*
X1266299D3*
D113*
X2493701Y506299D3*
Y581103D3*
D91*
X2781299Y2218701D3*
X2856103D3*
X1341103Y818701D3*
X1266299D3*
D113*
X3043701Y623774D3*
Y548971D3*
D91*
X2756299Y1293701D3*
X2831103D3*
D113*
X2963816Y620711D3*
Y545908D3*
X3224566Y2339214D3*
Y2414017D3*
X3510040Y2151729D3*
Y2076925D3*
D89*
X3519445Y675801D3*
Y514383D3*
X3582437D3*
Y675801D3*
D55*
X3343701Y1468701D3*
D57*
D3*
D89*
X3200197Y513681D3*
Y675099D3*
X3137205D3*
Y513681D3*
X3312205Y679286D3*
Y517869D3*
X3375197D3*
Y679286D3*
D85*
X1830701Y1938701D3*
D121*
X2086654D3*
D83*
X3033226Y2309807D3*
X3070628D3*
X3108029D3*
Y2416107D3*
X3033226D3*
D81*
X959701Y2203701D3*
D79*
X1026701D3*
X1093701D3*
X1160701D3*
X1227701D3*
D83*
X3181299Y1490551D3*
X3218701D3*
X3256103D3*
Y1596851D3*
X3181299D3*
D62*
X3593701Y1768701D3*
X3493701D3*
X3393701D3*
X3293701D3*
X3193701D3*
X3093701D3*
X2993701D3*
X2893701D3*
X2793701D3*
X2693701D3*
X2593701D3*
X2493701D3*
X2393701D3*
X2293701D3*
Y1468701D3*
Y1568701D3*
Y1668701D3*
Y1268701D3*
Y1168701D3*
X2393701D3*
X2493701D3*
X2593701D3*
X2693701D3*
X2793701D3*
X2893701D3*
X2993701D3*
X3093701D3*
X3193701D3*
X3293701D3*
X3393701D3*
X3493701D3*
X3593701D3*
X3493701Y1268701D3*
X3293701D3*
X3193701D3*
X3093701D3*
D83*
X3081103Y1596851D3*
X3043701D3*
X3006299D3*
Y1490551D3*
X3081103D3*
M02*
