G04 DipTrace 3.0.0.0*
G04 TeensyArbotixProRPI.gbl*
%MOIN*%
G04 #@! TF.FileFunction,Copper,L2,Bot*
G04 #@! TF.Part,Single*
%AMOUTLINE0*5,1,8,0,0,0.065199,-22.499571*%
G04 #@! TA.AperFunction,ViaPad*
%ADD13C,0.04*%
G04 #@! TA.AperFunction,CopperBalancing*
%ADD15C,0.025*%
G04 #@! TA.AperFunction,Conductor*
%ADD17C,0.02*%
%ADD18C,0.008*%
%ADD19C,0.015*%
G04 #@! TA.AperFunction,ComponentPad*
%ADD20C,0.06*%
G04 #@! TA.AperFunction,ViaPad*
%ADD21C,0.05*%
G04 #@! TA.AperFunction,Conductor*
%ADD22C,0.059055*%
%ADD24C,0.08*%
%ADD25C,0.05315*%
%ADD27C,0.024*%
%ADD30C,0.1*%
%ADD32C,0.055*%
G04 #@! TA.AperFunction,CopperBalancing*
%ADD33C,0.013*%
G04 #@! TA.AperFunction,ComponentPad*
%ADD34C,0.059055*%
%ADD40R,0.059055X0.059055*%
%ADD42C,0.17*%
%ADD45C,0.065199*%
%ADD47C,0.05315*%
%ADD49R,0.074803X0.074803*%
%ADD50C,0.074803*%
%ADD57C,0.074*%
%ADD60R,0.055X0.08*%
%ADD61O,0.055X0.08*%
%ADD62C,0.06194*%
G04 #@! TA.AperFunction,ViaPad*
%ADD64C,0.165*%
G04 #@! TA.AperFunction,ComponentPad*
%ADD128OUTLINE0*%
%FSLAX26Y26*%
G04*
G70*
G90*
G75*
G01*
G04 Bottom*
%LPD*%
X3318701Y918701D2*
D13*
X3393701D1*
Y1168701D1*
X3374568D1*
Y1290973D1*
X3277701Y1387840D1*
Y1459701D1*
X3163701Y1573701D1*
X3133701D1*
X2418701Y918701D2*
X2304082D1*
X2289303Y903923D1*
Y640868D1*
X2293701Y633701D1*
X1518701Y1668701D2*
X1581544Y1731544D1*
X2048756D1*
X2182344Y1597956D1*
X2266412D1*
X2293701Y1568701D1*
X2304571Y911626D2*
D15*
X2304082Y918701D1*
X2293701Y1568701D2*
D13*
X2402218Y1460184D1*
Y1377351D1*
X2380229Y1370520D1*
X2225223Y1345239D1*
Y918701D1*
X2304082D1*
X3318701D2*
X3393701Y933701D1*
X3396743Y898211D1*
X2418701Y918701D2*
X2518701D1*
X2618701D1*
X2718701D1*
X2818701D1*
X2918701D1*
X3018701D1*
X3118701D1*
X3218701D1*
X3318701D1*
X723229Y2510630D2*
X823229D1*
X2918701Y2033701D2*
X2818701D1*
X2718701D1*
X2618701D1*
X2518701D1*
X2418701D1*
X2318701D1*
X3318701Y2393701D2*
X3543701Y2378701D1*
X1210135Y592702D2*
Y704542D1*
X1403701Y898108D1*
Y1192505D1*
X1468701Y1257505D1*
X3133701Y1513701D2*
X3073701D1*
X2953701Y1633701D1*
X1343701Y1362126D2*
X1403701Y1422126D1*
Y1608323D1*
X1160701Y1851323D1*
Y2203701D1*
X1468701Y1257505D2*
X1473256Y1263883D1*
X1388295Y1328465D1*
X1343701Y1362126D1*
X2318701Y2033701D2*
X2190941D1*
X2154941Y2069701D1*
X1828701D1*
X1678790Y2219612D1*
Y2290084D1*
X1664109Y2304765D1*
X1261575D1*
X1187774Y2287019D1*
X1160701Y2203701D1*
X2894215Y1388044D2*
D18*
X3074358D1*
X3193701Y1268701D1*
X2106701Y1583701D2*
Y1572718D1*
X2159513Y1523125D1*
X2217710Y1523818D1*
X3093701Y1268701D2*
X2918701D1*
X2893701Y1293701D1*
X1507616Y1430777D2*
Y1554621D1*
X1474904D1*
Y1713521D1*
X1516729Y1755345D1*
Y1778355D1*
X1534047D1*
X1518701Y1793701D1*
X1443701Y1368701D2*
X1436280D1*
Y1632882D1*
X1410150Y1659012D1*
Y1723660D1*
X1413385Y1720425D1*
Y1715036D1*
X1468701Y957505D2*
X1513701Y1002505D1*
Y1360659D1*
X1457382Y1416978D1*
Y1742089D1*
X1464992Y1749700D1*
Y1833986D1*
X1436499Y1862479D1*
X1439852D1*
X1367782Y1934549D1*
Y2092782D1*
X1518701Y2243701D1*
X2368701Y1618701D2*
X2468701Y1443701D1*
Y1318701D1*
X2343701Y1218701D1*
X2293701Y1168701D1*
X3393701Y1768701D2*
X3454701Y1829701D1*
X3502701D1*
X3518701Y1845701D1*
Y1933701D1*
X2618701D2*
X2569899Y1884899D1*
X1727143D1*
X1681572Y1963830D1*
X1575941D1*
Y2094532D1*
X1618701Y2143701D1*
X2393701Y1168701D2*
Y1094701D1*
X2418701Y1069701D1*
Y1018701D1*
X2493701Y1168701D2*
Y1094701D1*
X2518701Y1069701D1*
Y1018701D1*
X2593701Y1168701D2*
Y1094701D1*
X2618701Y1069701D1*
Y1018701D1*
X2693701Y1168701D2*
Y1094701D1*
X2718701Y1069701D1*
Y1018701D1*
X2818701D2*
Y1069701D1*
X2793701Y1094701D1*
Y1168701D1*
Y1695701D1*
X2777701Y1711701D1*
X2375701D1*
X2337701Y1749701D1*
Y1819701D1*
X2321701Y1835701D1*
X1578958D1*
X1557172Y1854100D1*
X1508670D1*
X1477937Y1884832D1*
Y2162118D1*
X1517198Y2201379D1*
X1618701D1*
Y2243701D1*
X2918701Y1018701D2*
Y1069701D1*
X2893701Y1094701D1*
Y1168701D1*
X2837701Y1224701D1*
Y1835701D1*
X2861701Y1859701D1*
Y1976701D1*
X2154701D1*
X2112701Y2018701D1*
X1618701D1*
X2993701Y1168701D2*
Y1094701D1*
X3018701Y1069701D1*
Y1018701D1*
X3093701Y1168701D2*
Y1094701D1*
X3118701Y1069701D1*
Y1018701D1*
X3193701Y1168701D2*
Y1094701D1*
X3218701Y1069701D1*
Y1018701D1*
X3293701Y1168701D2*
Y1098701D1*
X3318701Y1073701D1*
Y1018701D1*
X3267701Y967701D1*
X2583701D1*
X2567701Y983701D1*
Y1069701D1*
X2537701Y1099701D1*
Y1499701D1*
X2318701Y1718701D1*
X2128701D1*
X2053701Y1793701D1*
X1618701D1*
X3193701Y1768701D2*
X3132701Y1707701D1*
X2922891D1*
X2894428Y1681125D1*
X2898984Y1467011D1*
X2949546Y1448400D1*
X3218701Y1933701D2*
X3160701Y1875701D1*
X3109701D1*
X3093701Y1859701D1*
Y1768701D1*
X3118701Y1933701D2*
X3174701Y1989701D1*
X3389701D1*
X3453701Y2053701D1*
X3233701Y2193701D2*
Y2119390D1*
X3048012Y1933701D1*
X3018701D1*
X2946701Y1861701D1*
X2909701D1*
X2893701Y1845701D1*
Y1768701D1*
X2693701D2*
Y1811701D1*
X2709701Y1827701D1*
X2712701D1*
X2818701Y1933701D1*
X2718701D2*
X2644701Y1859701D1*
X2593701D1*
Y1856986D1*
X1680416D1*
X1618701Y1918701D1*
X2593701Y1856986D2*
Y1768701D1*
X2953701Y1513701D2*
D19*
X3033701Y1433701D1*
X3193701D1*
X718701Y1353701D2*
Y1143701D1*
Y1773701D2*
Y1983701D1*
Y2193701D1*
X1118701Y1353701D2*
Y1373740D1*
X1000143Y1492298D1*
X718701D1*
Y1353701D1*
Y1773701D2*
Y1563701D1*
Y1492298D1*
X1143701Y1643701D2*
X1118701Y1368701D1*
Y1353701D1*
X518701D2*
D20*
X509701D1*
Y1143701D1*
X518701D1*
Y1014580D1*
X634267Y740974D1*
X918701Y721851D1*
X1103740Y854961D1*
Y839961D1*
X918701Y721851D2*
Y510667D1*
X2641410D1*
Y775234D1*
X2618701Y818701D1*
X1093701Y2203701D2*
Y2305742D1*
X1108990Y2338532D1*
X1123229Y2410630D1*
X518701Y1773701D2*
Y1983701D1*
Y2193701D1*
X1343701Y1262126D2*
D22*
X1323554Y1206112D1*
D20*
X1305091Y1154778D1*
X1284809Y1098389D1*
X1261620Y982104D1*
X1103740Y839961D1*
X1118701Y1153701D2*
X1305091Y1154778D1*
X518701Y2193701D2*
Y2320679D1*
X633488Y2351436D1*
X649772D1*
X846125Y2298823D1*
X1019427D1*
X1108990Y2338532D1*
X518701Y1773701D2*
Y1563701D1*
Y1353701D1*
X2318701Y2133701D2*
D22*
X2418701D1*
X2518701D1*
X2618701D1*
X2718701D1*
X2818701D1*
X2918701D1*
X3593701Y1768701D2*
D20*
X3601628Y1714050D1*
X3661344Y1324702D1*
X3667000Y1177688D1*
Y829746D1*
X3645488D1*
X3318701Y818701D1*
X3593701Y1768701D2*
X3688268Y1863268D1*
Y2325524D1*
X3647824Y2327051D1*
X3600160Y2330095D1*
D25*
X3543701Y2308701D1*
X3647824Y2327051D2*
D20*
Y2531135D1*
X3378118Y2514670D1*
D22*
X3318701Y2493701D1*
X3101572D1*
D20*
X2929664Y2332537D1*
X2962129Y2159415D1*
D22*
X2918701Y2133701D1*
X2623229Y2410630D2*
D20*
Y2178222D1*
D22*
X2618701D1*
Y2133701D1*
X3631002Y503889D2*
D20*
X3645488Y829746D1*
X3351091Y1714050D2*
D17*
X3601628D1*
X1923229Y2410630D2*
D27*
X1936701Y2343701D1*
X1963701Y2145701D1*
X2259345Y2123215D1*
X2318701Y2133701D1*
X2293701Y1468701D2*
D20*
X2301907Y1435814D1*
X2075475Y1376068D1*
Y807007D1*
X2155332Y777030D1*
X3318701Y2293701D2*
D22*
X3376811Y2280788D1*
D20*
X3488474Y2255974D1*
D25*
X3543701Y2243701D1*
X2122645Y1490757D2*
D18*
X1954701Y1658701D1*
X1618701Y1668701D1*
X1321895Y2255645D2*
X1339870D1*
Y1872532D1*
X1418701Y1793701D1*
X3435914Y1311831D2*
X3343701Y1468701D1*
X618701Y1353701D2*
D30*
Y1143701D1*
Y1773701D2*
Y1983701D1*
Y2193701D1*
X918701Y1253701D2*
D24*
X822929D1*
Y1078651D1*
X663561Y1039483D1*
X618701Y1143701D1*
Y1773701D2*
D30*
Y1563701D1*
Y1353701D1*
X1118701Y1253701D2*
D20*
X1219344D1*
Y1529348D1*
X1285028Y1552080D1*
D22*
X1343701Y1562126D1*
X1219344Y1529348D2*
D20*
X1228222D1*
X1026701Y2203701D2*
D32*
Y1806428D1*
D20*
X1183419Y1715946D1*
X1302483Y1603344D1*
D22*
X1343701Y1562126D1*
X918701Y1153701D2*
D24*
X973872Y1094158D1*
X918701Y958071D1*
X3493701Y1268701D2*
D18*
X3547811Y1214591D1*
Y957752D1*
X3611701Y893862D1*
Y936701D1*
X3593701Y918701D1*
X1723229Y2410630D2*
Y2363701D1*
X1823701D1*
X1893701Y2293701D1*
X1823229Y2510630D2*
Y2553701D1*
X2165701D1*
Y2365701D1*
X2193701Y2337701D1*
Y2293701D1*
X1823229Y2410630D2*
Y2455701D1*
X2065701D1*
Y2363701D1*
X2093701Y2335701D1*
Y2293701D1*
D13*
X2368701Y1618701D3*
X3631002Y503889D3*
X3351091Y1714050D3*
D21*
X2155332Y777030D3*
D13*
X2122645Y1490757D3*
X3435914Y1311831D3*
D64*
X2814961Y531496D3*
X531496D3*
Y2460630D3*
X2814961D3*
D13*
X3133701Y1573701D3*
X2293701Y633701D3*
X3396743Y898211D3*
X2953701Y1633701D3*
X1210135Y592702D3*
X3133701Y1513701D3*
X2894215Y1388044D3*
X2893701Y1293701D3*
X1507616Y1430777D3*
X2949546Y1448400D3*
X3453701Y2053701D3*
X3233701Y2193701D3*
X3193701Y1433701D3*
X2953701Y1513701D3*
X1321895Y2255645D3*
X1413385Y1715036D3*
X1443701Y1368701D3*
X2217710Y1523818D3*
X2106701Y1583701D3*
X615874Y2531057D2*
D15*
X666391D1*
X2680083D2*
X2730600D1*
X2899321D2*
X3275815D1*
X3361626D2*
X3692710D1*
X631938Y2506188D2*
X665122D1*
X2681352D2*
X2714536D1*
X2915386D2*
X3262632D1*
X3374809D2*
X3695151D1*
X639995Y2481319D2*
X671470D1*
X2675005D2*
X2706479D1*
X2923442D2*
X3262583D1*
X3374809D2*
X3505210D1*
X3582231D2*
X3695151D1*
X641899Y2456450D2*
X687876D1*
X1058550D2*
X1087876D1*
X1158550D2*
X1187876D1*
X2558550D2*
X2587876D1*
X2658550D2*
X2704526D1*
X2925395D2*
X3275718D1*
X3361723D2*
X3490708D1*
X3596684D2*
X3695151D1*
X637993Y2431582D2*
X666538D1*
X2679888D2*
X2708432D1*
X2921489D2*
X3276304D1*
X3437016D2*
X3490561D1*
X3596831D2*
X3695151D1*
X627593Y2406713D2*
X665122D1*
X2681352D2*
X2718882D1*
X2911040D2*
X3262729D1*
X3590093D2*
X3695151D1*
X438725Y2381844D2*
X455140D1*
X607866D2*
X671030D1*
X2675444D2*
X2738608D1*
X2891313D2*
X3262485D1*
X3598198D2*
X3695151D1*
X438725Y2356975D2*
X498667D1*
X564311D2*
X698423D1*
X748003D2*
X798423D1*
X848003D2*
X898423D1*
X948003D2*
X998423D1*
X1048003D2*
X1098423D1*
X1148003D2*
X1198423D1*
X1248003D2*
X1298423D1*
X1348003D2*
X1398423D1*
X1448003D2*
X1498423D1*
X1548003D2*
X1598423D1*
X1648003D2*
X1692026D1*
X1874663D2*
X1898423D1*
X1948003D2*
X1998423D1*
X2248003D2*
X2298423D1*
X2348003D2*
X2398423D1*
X2448003D2*
X2498423D1*
X2548003D2*
X2598423D1*
X2648003D2*
X2782114D1*
X2847807D2*
X3275229D1*
X3593511D2*
X3695151D1*
X438725Y2332107D2*
X1178159D1*
X1703618D2*
X1736167D1*
X1935600D2*
X1951792D1*
X2035600D2*
X2051792D1*
X2235600D2*
X2251792D1*
X2335600D2*
X2351792D1*
X2435600D2*
X2451792D1*
X2535600D2*
X3261167D1*
X3592729D2*
X3695151D1*
X438725Y2307238D2*
X1144516D1*
X1723442D2*
X1736167D1*
X2549516D2*
X3261167D1*
X3598247D2*
X3695151D1*
X438725Y2282369D2*
X1135923D1*
X2550054D2*
X3261167D1*
X3591118D2*
X3695151D1*
X438725Y2257500D2*
X575815D1*
X661577D2*
X904184D1*
X2537651D2*
X3261167D1*
X3596391D2*
X3695151D1*
X438725Y2232631D2*
X473081D1*
X764311D2*
X904184D1*
X1732622D2*
X3207651D1*
X3259770D2*
X3337339D1*
X3597075D2*
X3695151D1*
X438725Y2207763D2*
X459848D1*
X777593D2*
X904184D1*
X1757475D2*
X3187925D1*
X3279497D2*
X3447104D1*
X3583891D2*
X3695151D1*
X438725Y2182894D2*
X459116D1*
X778276D2*
X904184D1*
X1782378D2*
X2291538D1*
X2345854D2*
X2391538D1*
X2445854D2*
X2491538D1*
X2545854D2*
X2591538D1*
X2645854D2*
X2691538D1*
X2745854D2*
X2791538D1*
X2845854D2*
X2891538D1*
X2945854D2*
X3186997D1*
X3280376D2*
X3695151D1*
X438725Y2158025D2*
X470347D1*
X767046D2*
X904184D1*
X1807231D2*
X2266831D1*
X2970561D2*
X3201694D1*
X3265679D2*
X3695151D1*
X438725Y2133156D2*
X540708D1*
X754204D2*
X971177D1*
X1832085D2*
X2261167D1*
X2976225D2*
X3201694D1*
X3265679D2*
X3695151D1*
X438725Y2108288D2*
X540708D1*
X754204D2*
X971177D1*
X2181548D2*
X2267417D1*
X2970024D2*
X3178403D1*
X3263530D2*
X3695151D1*
X438725Y2083419D2*
X540708D1*
X754204D2*
X971177D1*
X2208061D2*
X2261167D1*
X2444780D2*
X2492612D1*
X2544780D2*
X2592612D1*
X2644780D2*
X2692612D1*
X2744780D2*
X2792612D1*
X2844780D2*
X2892612D1*
X2944780D2*
X3153501D1*
X3241948D2*
X3416733D1*
X3490679D2*
X3695151D1*
X438725Y2058550D2*
X540708D1*
X754204D2*
X971177D1*
X2970317D2*
X3128647D1*
X3217095D2*
X3405942D1*
X3501421D2*
X3695151D1*
X438725Y2033681D2*
X486557D1*
X754204D2*
X971177D1*
X2976225D2*
X3103794D1*
X3192192D2*
X3389438D1*
X3497075D2*
X3695151D1*
X438725Y2008813D2*
X463804D1*
X773589D2*
X971177D1*
X2970268D2*
X3078891D1*
X3463628D2*
X3695151D1*
X438725Y1983944D2*
X458067D1*
X779302D2*
X971177D1*
X2944682D2*
X2993735D1*
X3443657D2*
X3493735D1*
X3543657D2*
X3561167D1*
X3676225D2*
X3695177D1*
X438725Y1959075D2*
X463559D1*
X773833D2*
X971177D1*
X3676225D2*
X3695177D1*
X438725Y1934206D2*
X485776D1*
X754204D2*
X971177D1*
X3676225D2*
X3695177D1*
X438725Y1909337D2*
X540708D1*
X754204D2*
X971177D1*
X3676225D2*
X3695177D1*
X438725Y1884469D2*
X540708D1*
X754204D2*
X971177D1*
X3676225D2*
X3695177D1*
X438725Y1859600D2*
X540708D1*
X754204D2*
X971177D1*
X3550688D2*
X3695151D1*
X438725Y1834731D2*
X540708D1*
X754204D2*
X971177D1*
X3548589D2*
X3695151D1*
X438725Y1809862D2*
X470737D1*
X766655D2*
X968784D1*
X3534868D2*
X3552524D1*
X3634868D2*
X3695151D1*
X438725Y1784994D2*
X459214D1*
X778179D2*
X972983D1*
X3650249D2*
X3695151D1*
X438725Y1760125D2*
X459702D1*
X777690D2*
X993589D1*
X3652007D2*
X3695151D1*
X438725Y1735256D2*
X472641D1*
X764751D2*
X1036460D1*
X3641704D2*
X3695151D1*
X438725Y1710387D2*
X540708D1*
X754204D2*
X1079526D1*
X3179595D2*
X3695151D1*
X438725Y1685519D2*
X540708D1*
X754204D2*
X900864D1*
X986528D2*
X1000864D1*
X1086528D2*
X1100864D1*
X3154643D2*
X3695151D1*
X438725Y1660650D2*
X540708D1*
X754204D2*
X885630D1*
X2993608D2*
X3695151D1*
X438725Y1635781D2*
X540708D1*
X754204D2*
X883628D1*
X1665288D2*
X1730649D1*
X3018462D2*
X3695151D1*
X438725Y1610912D2*
X482358D1*
X755083D2*
X893247D1*
X1506889D2*
X1958286D1*
X3043315D2*
X3105014D1*
X3192388D2*
X3695151D1*
X438725Y1586044D2*
X462583D1*
X774809D2*
X934067D1*
X953357D2*
X1034067D1*
X1053357D2*
X1102817D1*
X1506889D2*
X1983139D1*
X3068218D2*
X3087388D1*
X3218218D2*
X3695151D1*
X438725Y1561175D2*
X458164D1*
X779253D2*
X1100571D1*
X1538872D2*
X2007993D1*
X3243071D2*
X3695151D1*
X438725Y1536306D2*
X464975D1*
X772417D2*
X1098325D1*
X1539604D2*
X2032895D1*
X3267925D2*
X3695151D1*
X438725Y1511437D2*
X490805D1*
X1030180D2*
X1096030D1*
X1539604D2*
X2057749D1*
X3391802D2*
X3695151D1*
X438725Y1486568D2*
X540708D1*
X1055034D2*
X1093784D1*
X1277348D2*
X1291868D1*
X1539604D2*
X2074839D1*
X2170464D2*
X2189097D1*
X3406108D2*
X3695151D1*
X438725Y1461700D2*
X540708D1*
X1543511D2*
X2085141D1*
X2160161D2*
X2235190D1*
X3408305D2*
X3695151D1*
X438725Y1436831D2*
X540708D1*
X754204D2*
X1006430D1*
X1277348D2*
X1292334D1*
X1555229D2*
X2244565D1*
X3399956D2*
X3695151D1*
X438725Y1411962D2*
X540708D1*
X754204D2*
X853305D1*
X984087D2*
X1031333D1*
X1277348D2*
X1317856D1*
X1551567D2*
X2349155D1*
X3413774D2*
X3695151D1*
X438725Y1387093D2*
X468638D1*
X768755D2*
X853305D1*
X984087D2*
X1056186D1*
X1277348D2*
X1292148D1*
X1531499D2*
X2204868D1*
X3428374D2*
X3695151D1*
X438725Y1362225D2*
X458725D1*
X778667D2*
X853305D1*
X984087D2*
X1058725D1*
X1545659D2*
X2180503D1*
X3443022D2*
X3695151D1*
X438725Y1337356D2*
X460434D1*
X776958D2*
X853305D1*
X984087D2*
X1060434D1*
X1277348D2*
X1292055D1*
X1545708D2*
X2177231D1*
X3476079D2*
X3695151D1*
X438725Y1312487D2*
X475229D1*
X762163D2*
X791538D1*
X984087D2*
X1075229D1*
X1545708D2*
X2177231D1*
X3531841D2*
X3695151D1*
X438725Y1287618D2*
X540708D1*
X977251D2*
X1069028D1*
X1545708D2*
X2177231D1*
X3549419D2*
X3695151D1*
X438725Y1262750D2*
X540708D1*
X986089D2*
X1058823D1*
X1545708D2*
X2177231D1*
X3552348D2*
X3695151D1*
X438725Y1237881D2*
X540708D1*
X984770D2*
X1060288D1*
X1545708D2*
X2177231D1*
X3568755D2*
X3695151D1*
X438725Y1213012D2*
X540708D1*
X972514D2*
X1074741D1*
X1259575D2*
X1286167D1*
X1545708D2*
X2177231D1*
X3631206D2*
X3695151D1*
X438725Y1188143D2*
X478794D1*
X978569D2*
X1069419D1*
X1167973D2*
X1355698D1*
X1545708D2*
X2120493D1*
X3649223D2*
X3695151D1*
X438725Y1163274D2*
X461509D1*
X1001616D2*
X1058872D1*
X1178520D2*
X1355698D1*
X1545708D2*
X2111460D1*
X3652397D2*
X3695151D1*
X438725Y1138406D2*
X458360D1*
X1024663D2*
X1060141D1*
X1177251D2*
X1355698D1*
X1545708D2*
X2114585D1*
X3643852D2*
X3695151D1*
X438725Y1113537D2*
X466538D1*
X1038921D2*
X1074204D1*
X1163188D2*
X1355698D1*
X1545708D2*
X2133091D1*
X3608257D2*
X3695151D1*
X438725Y1088668D2*
X497593D1*
X539848D2*
X564536D1*
X1041655D2*
X1355698D1*
X1545708D2*
X2120835D1*
X3579790D2*
X3695151D1*
X438725Y1063799D2*
X579282D1*
X1034722D2*
X1355698D1*
X1545708D2*
X2111557D1*
X3627739D2*
X3695151D1*
X438725Y1038931D2*
X589975D1*
X1024663D2*
X1355698D1*
X1545708D2*
X2114389D1*
X3647368D2*
X3695151D1*
X438725Y1014062D2*
X600669D1*
X1016460D2*
X1355698D1*
X1545708D2*
X2132407D1*
X3651030D2*
X3695151D1*
X438725Y989193D2*
X619077D1*
X735893D2*
X810190D1*
X1027251D2*
X1355698D1*
X1542534D2*
X2121225D1*
X3642632D2*
X3695151D1*
X438725Y964324D2*
X805893D1*
X1031548D2*
X1355698D1*
X1525786D2*
X2111606D1*
X3626958D2*
X3695151D1*
X438725Y939456D2*
X807261D1*
X1030132D2*
X1053159D1*
X1154302D2*
X1355698D1*
X1523198D2*
X2114194D1*
X3647173D2*
X3695151D1*
X438725Y914587D2*
X814634D1*
X1187749D2*
X1353354D1*
X1505620D2*
X2131772D1*
X3651079D2*
X3695151D1*
X438725Y889718D2*
X829380D1*
X1204888D2*
X1328452D1*
X1515825D2*
X2121567D1*
X3643413D2*
X3695151D1*
X438725Y864849D2*
X856870D1*
X980522D2*
X993576D1*
X1213921D2*
X1303598D1*
X1525737D2*
X2111655D1*
X2225737D2*
X2241294D1*
X2337309D2*
X2386216D1*
X2451177D2*
X2486216D1*
X2551177D2*
X2586216D1*
X2651177D2*
X2686216D1*
X2751177D2*
X2786216D1*
X3051177D2*
X3086216D1*
X3151177D2*
X3186216D1*
X3551225D2*
X3579868D1*
X3619536D2*
X3695151D1*
X438725Y839981D2*
X990757D1*
X1216753D2*
X1278745D1*
X1523345D2*
X2114048D1*
X2223345D2*
X2241294D1*
X2337309D2*
X2365464D1*
X3371929D2*
X3695151D1*
X438725Y815112D2*
X856919D1*
X980473D2*
X993570D1*
X1213921D2*
X1253843D1*
X1387554D2*
X1431138D1*
X1506304D2*
X2131138D1*
X2206304D2*
X2241294D1*
X2337309D2*
X2361313D1*
X3376128D2*
X3695151D1*
X438725Y790243D2*
X829429D1*
X1204936D2*
X1228989D1*
X1362700D2*
X1421958D1*
X1515434D2*
X2241294D1*
X2337309D2*
X2369126D1*
X3368315D2*
X3695151D1*
X438725Y765374D2*
X814634D1*
X1187749D2*
X1204136D1*
X1337798D2*
X1411753D1*
X1525639D2*
X2241294D1*
X2337309D2*
X2402622D1*
X2434770D2*
X2502622D1*
X2534770D2*
X2602622D1*
X2634770D2*
X2702622D1*
X2734770D2*
X2802622D1*
X2834770D2*
X2902622D1*
X2934770D2*
X3002622D1*
X3034770D2*
X3102622D1*
X3134770D2*
X3202622D1*
X3234770D2*
X3302622D1*
X3334770D2*
X3695151D1*
X438725Y740505D2*
X807309D1*
X1030132D2*
X1053061D1*
X1154399D2*
X1179233D1*
X1312944D2*
X1413852D1*
X1523540D2*
X2241294D1*
X2337309D2*
X3695151D1*
X438725Y715637D2*
X805893D1*
X1031548D2*
X1163511D1*
X1288091D2*
X1430503D1*
X1506889D2*
X2241294D1*
X2337309D2*
X3695151D1*
X438725Y690768D2*
X810141D1*
X1027251D2*
X1162143D1*
X1263188D2*
X2241294D1*
X2337309D2*
X3695151D1*
X438725Y665899D2*
X820932D1*
X1016509D2*
X1162143D1*
X1258159D2*
X2241294D1*
X2337309D2*
X3695151D1*
X438725Y641030D2*
X840854D1*
X996538D2*
X1162143D1*
X1258159D2*
X2241294D1*
X2341118D2*
X3695151D1*
X438725Y616162D2*
X461948D1*
X601030D2*
X883970D1*
X953472D2*
X1162143D1*
X1258159D2*
X2248569D1*
X2338188D2*
X2745395D1*
X2884526D2*
X3695151D1*
X623930Y591293D2*
X1162143D1*
X1258110D2*
X2274692D1*
X2312700D2*
X2722544D1*
X2907378D2*
X3695151D1*
X636186Y566424D2*
X1170493D1*
X1249761D2*
X2710288D1*
X2919634D2*
X3695151D1*
X641509Y541555D2*
X2704917D1*
X2925005D2*
X3695151D1*
X640972Y516687D2*
X2705503D1*
X2924419D2*
X3695151D1*
X634429Y491818D2*
X2711997D1*
X2917925D2*
X3695151D1*
X620561Y466949D2*
X2725864D1*
X2904057D2*
X3694077D1*
X594585Y442080D2*
X2751889D1*
X2878032D2*
X3677768D1*
X1523559Y953188D2*
X1522208Y944660D1*
X1519540Y936447D1*
X1515620Y928754D1*
X1510544Y921768D1*
X1504439Y915662D1*
X1497453Y910587D1*
X1491644Y907536D1*
X1497453Y904424D1*
X1504439Y899349D1*
X1510544Y893243D1*
X1515620Y886257D1*
X1519540Y878564D1*
X1522208Y870351D1*
X1523559Y861823D1*
Y853188D1*
X1522208Y844660D1*
X1519540Y836447D1*
X1515620Y828754D1*
X1510544Y821768D1*
X1504439Y815662D1*
X1497453Y810587D1*
X1491644Y807536D1*
X1497453Y804424D1*
X1504439Y799349D1*
X1510544Y793243D1*
X1515620Y786257D1*
X1519540Y778564D1*
X1522208Y770351D1*
X1523559Y761823D1*
Y753188D1*
X1522208Y744660D1*
X1519540Y736447D1*
X1515620Y728754D1*
X1510544Y721768D1*
X1504439Y715662D1*
X1497453Y710587D1*
X1489759Y706667D1*
X1481547Y703998D1*
X1473018Y702648D1*
X1464384D1*
X1455855Y703998D1*
X1447643Y706667D1*
X1439949Y710587D1*
X1432963Y715662D1*
X1426858Y721768D1*
X1421782Y728754D1*
X1417862Y736447D1*
X1415194Y744660D1*
X1413843Y753188D1*
Y761823D1*
X1415194Y770351D1*
X1417862Y778564D1*
X1421782Y786257D1*
X1426858Y793243D1*
X1432963Y799349D1*
X1439949Y804424D1*
X1445758Y807475D1*
X1439949Y810587D1*
X1432963Y815662D1*
X1426858Y821768D1*
X1421782Y828754D1*
X1417862Y836447D1*
X1415098Y845140D1*
X1255611Y685671D1*
X1255495Y589132D1*
X1254378Y582081D1*
X1252172Y575290D1*
X1248931Y568929D1*
X1244734Y563152D1*
X1239685Y558104D1*
X1233909Y553907D1*
X1227547Y550666D1*
X1220757Y548459D1*
X1213705Y547343D1*
X1206565D1*
X1199514Y548459D1*
X1192723Y550666D1*
X1186362Y553907D1*
X1180585Y558104D1*
X1175537Y563152D1*
X1171340Y568929D1*
X1168099Y575290D1*
X1165893Y582081D1*
X1164776Y589132D1*
X1164635Y667702D1*
X1164776Y708112D1*
X1165893Y715164D1*
X1168099Y721954D1*
X1171340Y728316D1*
X1175537Y734092D1*
X1230995Y789749D1*
X1358226Y916979D1*
X1358341Y1196075D1*
X1359458Y1203127D1*
X1360433Y1206579D1*
X1356229Y1207099D1*
X1288674D1*
Y1317154D1*
X1311984D1*
X1304791Y1323216D1*
X1299183Y1329782D1*
X1294671Y1337144D1*
X1291367Y1345122D1*
X1289351Y1353518D1*
X1288673Y1362126D1*
X1289351Y1370734D1*
X1291367Y1379131D1*
X1294671Y1387108D1*
X1299183Y1394471D1*
X1304791Y1401037D1*
X1311357Y1406644D1*
X1318719Y1411156D1*
X1320758Y1412096D1*
X1314949Y1415207D1*
X1307963Y1420283D1*
X1301858Y1426389D1*
X1296782Y1433374D1*
X1292862Y1441068D1*
X1290194Y1449280D1*
X1288843Y1457809D1*
Y1466444D1*
X1290194Y1474972D1*
X1292862Y1483184D1*
X1296782Y1490878D1*
X1301858Y1497864D1*
X1303244Y1499363D1*
X1274801Y1489811D1*
X1274673Y1249347D1*
X1273311Y1240745D1*
X1270619Y1232462D1*
X1266666Y1224702D1*
X1261547Y1217657D1*
X1255388Y1211498D1*
X1248343Y1206379D1*
X1240583Y1202426D1*
X1232300Y1199734D1*
X1223699Y1198372D1*
X1169344Y1198201D1*
X1156014D1*
X1161903Y1192549D1*
X1166544Y1186665D1*
X1170390Y1180231D1*
X1173375Y1173357D1*
X1175450Y1166155D1*
X1176581Y1158746D1*
X1176747Y1151202D1*
X1175942Y1143750D1*
X1174185Y1136464D1*
X1171505Y1129465D1*
X1167945Y1122870D1*
X1163567Y1116787D1*
X1158441Y1111318D1*
X1152655Y1106555D1*
X1146303Y1102577D1*
X1139492Y1099449D1*
X1132336Y1097224D1*
X1124952Y1095938D1*
X1117464Y1095614D1*
X1109997Y1096257D1*
X1102674Y1097855D1*
X1095619Y1100383D1*
X1088947Y1103798D1*
X1082771Y1108044D1*
X1077192Y1113049D1*
X1072304Y1118730D1*
X1068189Y1124994D1*
X1064914Y1131735D1*
X1062533Y1138842D1*
X1061088Y1146196D1*
X1060601Y1153675D1*
X1061081Y1161155D1*
X1062520Y1168510D1*
X1064894Y1175619D1*
X1068163Y1182363D1*
X1072273Y1188630D1*
X1077156Y1194316D1*
X1082730Y1199327D1*
X1089115Y1203698D1*
X1080968Y1209522D1*
X1074522Y1215968D1*
X1069163Y1223344D1*
X1065024Y1231467D1*
X1062207Y1240138D1*
X1060780Y1249143D1*
Y1258259D1*
X1062207Y1267264D1*
X1065024Y1275935D1*
X1069163Y1284058D1*
X1074522Y1291434D1*
X1080968Y1297880D1*
X1089137Y1303683D1*
X1080968Y1309522D1*
X1074522Y1315968D1*
X1069163Y1323344D1*
X1065024Y1331467D1*
X1062207Y1340138D1*
X1060780Y1349143D1*
Y1358259D1*
X1062207Y1367264D1*
X1065024Y1375935D1*
X1066538Y1379220D1*
X986504Y1459269D1*
X751657Y1459298D1*
X751701Y1401527D1*
X759784Y1394784D1*
X765705Y1387851D1*
X770468Y1380078D1*
X773957Y1371655D1*
X776085Y1362790D1*
X776801Y1353701D1*
X776085Y1344612D1*
X773957Y1335747D1*
X770468Y1327324D1*
X765705Y1319551D1*
X759784Y1312618D1*
X752851Y1306697D1*
X751710Y1305935D1*
X751701Y1191543D1*
X757441Y1186949D1*
X757631Y1258840D1*
X759239Y1268992D1*
X762415Y1278767D1*
X767081Y1287925D1*
X773123Y1296240D1*
X780390Y1303508D1*
X788706Y1309549D1*
X797864Y1314215D1*
X807639Y1317391D1*
X817790Y1318999D1*
X855791Y1319201D1*
X855800Y1416602D1*
X981603D1*
Y1290799D1*
X972667D1*
X977062Y1283437D1*
X980995Y1273942D1*
X983395Y1263947D1*
X984201Y1253701D1*
X983395Y1243455D1*
X980995Y1233460D1*
X977062Y1223965D1*
X971692Y1215201D1*
X965017Y1207385D1*
X961003Y1203708D1*
X966747Y1198219D1*
X1025262Y1134769D1*
X1030983Y1126229D1*
X1035297Y1116900D1*
X1038098Y1107011D1*
X1039318Y1096806D1*
X1038927Y1086535D1*
X1036933Y1076452D1*
X1034573Y1069549D1*
X1012918Y1015807D1*
X1017157Y1008237D1*
X1020790Y1000358D1*
X1023793Y992217D1*
X1026148Y983867D1*
X1027841Y975357D1*
X1028860Y966741D1*
X1029201Y958071D1*
X1028860Y949401D1*
X1027841Y940785D1*
X1026148Y932275D1*
X1023793Y923925D1*
X1017938Y909598D1*
X1026364Y918847D1*
X1035763Y927078D1*
X1046031Y934194D1*
X1057037Y940106D1*
X1068640Y944738D1*
X1080692Y948030D1*
X1093038Y949941D1*
X1105521Y950446D1*
X1117982Y949539D1*
X1130260Y947231D1*
X1142199Y943552D1*
X1153647Y938549D1*
X1164457Y932285D1*
X1174490Y924841D1*
X1183620Y916312D1*
X1191728Y906808D1*
X1198711Y896448D1*
X1204480Y885367D1*
X1208962Y873705D1*
X1212099Y861612D1*
X1213850Y849242D1*
X1214212Y837461D1*
X1213224Y825007D1*
X1210836Y812744D1*
X1207079Y800829D1*
X1202001Y789414D1*
X1195668Y778645D1*
X1188159Y768660D1*
X1179571Y759587D1*
X1170013Y751541D1*
X1159609Y744625D1*
X1148490Y738928D1*
X1136799Y734522D1*
X1124686Y731464D1*
X1112305Y729793D1*
X1099814Y729531D1*
X1087374Y730680D1*
X1075143Y733226D1*
X1063277Y737136D1*
X1051929Y742361D1*
X1041243Y748833D1*
X1031355Y756470D1*
X1022394Y765175D1*
X1018388Y769524D1*
X1023132Y757967D1*
X1026542Y745947D1*
X1028572Y733620D1*
X1029201Y721851D1*
X1028495Y709377D1*
X1026385Y697063D1*
X1022899Y685066D1*
X1018080Y673539D1*
X1011992Y662630D1*
X1004711Y652478D1*
X996330Y643212D1*
X986957Y634952D1*
X976712Y627803D1*
X965725Y621856D1*
X954137Y617187D1*
X942096Y613856D1*
X929755Y611905D1*
X917274Y611360D1*
X904811Y612227D1*
X892525Y614496D1*
X880574Y618137D1*
X869111Y623103D1*
X858281Y629332D1*
X848223Y636744D1*
X839067Y645243D1*
X830928Y654722D1*
X823912Y665059D1*
X818107Y676122D1*
X813588Y687769D1*
X810413Y699853D1*
X808622Y712217D1*
X808238Y724704D1*
X809266Y737155D1*
X811693Y749411D1*
X815488Y761314D1*
X820602Y772712D1*
X826971Y783461D1*
X834512Y793421D1*
X843129Y802467D1*
X852712Y810483D1*
X863138Y817365D1*
X874275Y823027D1*
X885980Y827395D1*
X898103Y830414D1*
X910490Y832045D1*
X922981Y832268D1*
X935418Y831079D1*
X947641Y828494D1*
X959494Y824545D1*
X970825Y819284D1*
X981490Y812778D1*
X991353Y805109D1*
X1000287Y796376D1*
X1004207Y791968D1*
X999425Y803511D1*
X995978Y815519D1*
X993907Y827839D1*
X993241Y840315D1*
X993987Y852786D1*
X996136Y865093D1*
X999661Y877079D1*
X1004361Y888264D1*
X996836Y879936D1*
X990465Y874046D1*
X983651Y868675D1*
X976437Y863854D1*
X968867Y859615D1*
X960988Y855982D1*
X952847Y852979D1*
X944497Y850624D1*
X935987Y848932D1*
X927371Y847912D1*
X918701Y847571D1*
X910031Y847912D1*
X901415Y848932D1*
X892905Y850624D1*
X884555Y852979D1*
X876414Y855982D1*
X868535Y859615D1*
X860965Y863854D1*
X853751Y868675D1*
X846937Y874046D1*
X840566Y879936D1*
X834676Y886307D1*
X829305Y893121D1*
X824484Y900335D1*
X820245Y907905D1*
X816612Y915785D1*
X813609Y923925D1*
X811254Y932275D1*
X809561Y940785D1*
X808542Y949401D1*
X808201Y958071D1*
X808542Y966741D1*
X809561Y975357D1*
X811254Y983867D1*
X813609Y992217D1*
X816612Y1000358D1*
X821752Y1010928D1*
X674155Y974846D1*
X663913Y973984D1*
X653662Y974735D1*
X643655Y977081D1*
X634138Y980963D1*
X625346Y986286D1*
X617495Y992919D1*
X610778Y1000699D1*
X605615Y1008946D1*
X588571Y1048031D1*
X573378Y1083328D1*
X565314Y1090314D1*
X557620Y1099323D1*
X557093Y1100113D1*
X550595Y1095138D1*
X544079Y1091437D1*
X537139Y1088605D1*
X529893Y1086690D1*
X522461Y1085723D1*
X514966Y1085721D1*
X507534Y1086685D1*
X500287Y1088597D1*
X493347Y1091425D1*
X486828Y1095124D1*
X480840Y1099631D1*
X475482Y1104872D1*
X470843Y1110759D1*
X467001Y1117194D1*
X464018Y1124069D1*
X461946Y1131272D1*
X460818Y1138682D1*
X460654Y1146175D1*
X461455Y1153626D1*
X463209Y1160913D1*
X465887Y1167913D1*
X469443Y1174511D1*
X473819Y1180595D1*
X478942Y1186066D1*
X484726Y1190832D1*
X491076Y1194813D1*
X497886Y1197944D1*
X505042Y1200172D1*
X512425Y1201461D1*
X519912Y1201788D1*
X527380Y1201149D1*
X534703Y1199554D1*
X543207Y1196366D1*
X543201Y1300976D1*
X534752Y1297863D1*
X527431Y1296261D1*
X519964Y1295615D1*
X512476Y1295936D1*
X505091Y1297218D1*
X497934Y1299440D1*
X491121Y1302564D1*
X484768Y1306540D1*
X478979Y1311301D1*
X473852Y1316767D1*
X469470Y1322848D1*
X465908Y1329442D1*
X463225Y1336440D1*
X461464Y1343725D1*
X460656Y1351176D1*
X460814Y1358669D1*
X461935Y1366080D1*
X464001Y1373284D1*
X466977Y1380163D1*
X470814Y1386601D1*
X475448Y1392492D1*
X480801Y1397737D1*
X486785Y1402249D1*
X493300Y1405954D1*
X500238Y1408789D1*
X507483Y1410708D1*
X514915Y1411677D1*
X522410Y1411682D1*
X529843Y1410722D1*
X537091Y1408814D1*
X543207Y1406366D1*
X543201Y1510976D1*
X534752Y1507863D1*
X527431Y1506261D1*
X519964Y1505615D1*
X512476Y1505936D1*
X505091Y1507218D1*
X497934Y1509440D1*
X491121Y1512564D1*
X484768Y1516540D1*
X478979Y1521301D1*
X473852Y1526767D1*
X469470Y1532848D1*
X465908Y1539442D1*
X463225Y1546440D1*
X461464Y1553725D1*
X460656Y1561176D1*
X460814Y1568669D1*
X461935Y1576080D1*
X464001Y1583284D1*
X466977Y1590163D1*
X470814Y1596601D1*
X475448Y1602492D1*
X480801Y1607737D1*
X486785Y1612249D1*
X493300Y1615954D1*
X500238Y1618789D1*
X507483Y1620708D1*
X514915Y1621677D1*
X522410Y1621682D1*
X529843Y1620722D1*
X537091Y1618814D1*
X543207Y1616366D1*
X543201Y1720976D1*
X534752Y1717863D1*
X527431Y1716261D1*
X519964Y1715615D1*
X512476Y1715936D1*
X505091Y1717218D1*
X497934Y1719440D1*
X491121Y1722564D1*
X484768Y1726540D1*
X478979Y1731301D1*
X473852Y1736767D1*
X469470Y1742848D1*
X465908Y1749442D1*
X463225Y1756440D1*
X461464Y1763725D1*
X460656Y1771176D1*
X460814Y1778669D1*
X461935Y1786080D1*
X464001Y1793284D1*
X466977Y1800163D1*
X470814Y1806601D1*
X475448Y1812492D1*
X480801Y1817737D1*
X486785Y1822249D1*
X493300Y1825954D1*
X500238Y1828789D1*
X507483Y1830708D1*
X514915Y1831677D1*
X522410Y1831682D1*
X529843Y1830722D1*
X537091Y1828814D1*
X543207Y1826366D1*
X543201Y1930976D1*
X534752Y1927863D1*
X527431Y1926261D1*
X519964Y1925615D1*
X512476Y1925936D1*
X505091Y1927218D1*
X497934Y1929440D1*
X491121Y1932564D1*
X484768Y1936540D1*
X478979Y1941301D1*
X473852Y1946767D1*
X469470Y1952848D1*
X465908Y1959442D1*
X463225Y1966440D1*
X461464Y1973725D1*
X460656Y1981176D1*
X460814Y1988669D1*
X461935Y1996080D1*
X464001Y2003284D1*
X466977Y2010163D1*
X470814Y2016601D1*
X475448Y2022492D1*
X480801Y2027737D1*
X486785Y2032249D1*
X493300Y2035954D1*
X500238Y2038789D1*
X507483Y2040708D1*
X514915Y2041677D1*
X522410Y2041682D1*
X529843Y2040722D1*
X537091Y2038814D1*
X543207Y2036366D1*
X543201Y2140976D1*
X534752Y2137863D1*
X527431Y2136261D1*
X519964Y2135615D1*
X512476Y2135936D1*
X505091Y2137218D1*
X497934Y2139440D1*
X491121Y2142564D1*
X484768Y2146540D1*
X478979Y2151301D1*
X473852Y2156767D1*
X469470Y2162848D1*
X465908Y2169442D1*
X463225Y2176440D1*
X461464Y2183725D1*
X460656Y2191176D1*
X460814Y2198669D1*
X461935Y2206080D1*
X464001Y2213284D1*
X466977Y2220163D1*
X470814Y2226601D1*
X475448Y2232492D1*
X480801Y2237737D1*
X486785Y2242249D1*
X493300Y2245954D1*
X500238Y2248789D1*
X507483Y2250708D1*
X514915Y2251677D1*
X522410Y2251682D1*
X529843Y2250722D1*
X537091Y2248814D1*
X544032Y2245988D1*
X550552Y2242292D1*
X557073Y2237311D1*
X565314Y2247088D1*
X574323Y2254782D1*
X584425Y2260972D1*
X595370Y2265506D1*
X606890Y2268272D1*
X618701Y2269201D1*
X630512Y2268272D1*
X642032Y2265506D1*
X652977Y2260972D1*
X663079Y2254782D1*
X672088Y2247088D1*
X679782Y2238079D1*
X680309Y2237289D1*
X688344Y2243239D1*
X696467Y2247378D1*
X705138Y2250195D1*
X714143Y2251622D1*
X723259D1*
X732264Y2250195D1*
X740935Y2247378D1*
X749058Y2243239D1*
X756434Y2237880D1*
X762880Y2231434D1*
X768239Y2224058D1*
X772378Y2215935D1*
X775195Y2207264D1*
X776622Y2198259D1*
Y2189143D1*
X775195Y2180138D1*
X772378Y2171467D1*
X768239Y2163344D1*
X762880Y2155968D1*
X756434Y2149522D1*
X751710Y2145935D1*
X751701Y2031543D1*
X759784Y2024784D1*
X765705Y2017851D1*
X770468Y2010078D1*
X773957Y2001655D1*
X776085Y1992790D1*
X776801Y1983701D1*
X776085Y1974612D1*
X773957Y1965747D1*
X770468Y1957324D1*
X765705Y1949551D1*
X759784Y1942618D1*
X752851Y1936697D1*
X751710Y1935935D1*
X751701Y1821543D1*
X759784Y1814784D1*
X765705Y1807851D1*
X770468Y1800078D1*
X773957Y1791655D1*
X776085Y1782790D1*
X776801Y1773701D1*
X776085Y1764612D1*
X773957Y1755747D1*
X770468Y1747324D1*
X765705Y1739551D1*
X759784Y1732618D1*
X752851Y1726697D1*
X751710Y1725935D1*
X751701Y1611543D1*
X759784Y1604784D1*
X765705Y1597851D1*
X770468Y1590078D1*
X773957Y1581655D1*
X776085Y1572790D1*
X776801Y1563701D1*
X776085Y1554612D1*
X773957Y1545747D1*
X770468Y1537324D1*
X765705Y1529551D1*
X762263Y1525301D1*
X1002732Y1525196D1*
X1010341Y1523683D1*
X1017386Y1520435D1*
X1023478Y1515633D1*
X1092635Y1446476D1*
X1106503Y1599023D1*
X1099522Y1605968D1*
X1093719Y1614137D1*
X1087880Y1605968D1*
X1081434Y1599522D1*
X1074058Y1594163D1*
X1065935Y1590024D1*
X1057264Y1587207D1*
X1048259Y1585780D1*
X1039143D1*
X1030138Y1587207D1*
X1021467Y1590024D1*
X1013344Y1594163D1*
X1005968Y1599522D1*
X999522Y1605968D1*
X993719Y1614137D1*
X988567Y1606787D1*
X983441Y1601318D1*
X977655Y1596555D1*
X971303Y1592577D1*
X964492Y1589449D1*
X957336Y1587224D1*
X949952Y1585938D1*
X942464Y1585614D1*
X934997Y1586257D1*
X927674Y1587855D1*
X920619Y1590383D1*
X913947Y1593798D1*
X907771Y1598044D1*
X902192Y1603049D1*
X897304Y1608730D1*
X893189Y1614994D1*
X889914Y1621735D1*
X887533Y1628842D1*
X886088Y1636196D1*
X885601Y1643675D1*
X886081Y1651155D1*
X887520Y1658510D1*
X889894Y1665619D1*
X893163Y1672363D1*
X897273Y1678630D1*
X902156Y1684316D1*
X907730Y1689327D1*
X913903Y1693577D1*
X920572Y1696998D1*
X927625Y1699532D1*
X934946Y1701137D1*
X942413Y1701786D1*
X949901Y1701469D1*
X957286Y1700190D1*
X964444Y1697972D1*
X971258Y1694850D1*
X977613Y1690877D1*
X983404Y1686119D1*
X988534Y1680655D1*
X993695Y1673277D1*
X999522Y1681434D1*
X1005968Y1687880D1*
X1013344Y1693239D1*
X1021467Y1697378D1*
X1030138Y1700195D1*
X1039143Y1701622D1*
X1048259D1*
X1057264Y1700195D1*
X1065935Y1697378D1*
X1074058Y1693239D1*
X1081434Y1687880D1*
X1087880Y1681434D1*
X1093683Y1673265D1*
X1099522Y1681434D1*
X1105968Y1687880D1*
X1112618Y1692754D1*
X995265Y1760689D1*
X988497Y1766170D1*
X982670Y1772642D1*
X977927Y1779946D1*
X974384Y1787902D1*
X972130Y1796314D1*
X971220Y1804975D1*
X971676Y1813672D1*
X973700Y1822820D1*
X973701Y2138215D1*
X906701Y2138201D1*
Y2269201D1*
X1012701D1*
Y2267296D1*
X1018410Y2268548D1*
X1026701Y2269201D1*
X1034992Y2268548D1*
X1043079Y2266607D1*
X1050762Y2263424D1*
X1057854Y2259079D1*
X1060164Y2257257D1*
X1067630Y2262345D1*
X1074399Y2265561D1*
X1081553Y2267790D1*
X1088951Y2268988D1*
X1096443Y2269130D1*
X1103881Y2268214D1*
X1111115Y2266259D1*
X1118001Y2263302D1*
X1124401Y2259404D1*
X1127196Y2257257D1*
X1131211Y2260190D1*
X1145738Y2304432D1*
X1148980Y2310793D1*
X1153177Y2316569D1*
X1158225Y2321618D1*
X1164002Y2325814D1*
X1170363Y2329056D1*
X1177136Y2331258D1*
X1254441Y2349703D1*
X1261575Y2350265D1*
X1667679Y2350125D1*
X1674731Y2349008D1*
X1681521Y2346802D1*
X1687883Y2343560D1*
X1693659Y2339364D1*
X1713389Y2319634D1*
X1717585Y2313858D1*
X1720827Y2307496D1*
X1723033Y2300706D1*
X1724150Y2293654D1*
X1724290Y2238473D1*
X1847517Y2115232D1*
X2158511Y2115061D1*
X2165563Y2113944D1*
X2172353Y2111738D1*
X2178715Y2108496D1*
X2184491Y2104300D1*
X2209799Y2079190D1*
X2263646Y2079201D1*
X2263674Y2088728D1*
X2286965D1*
X2279548Y2095035D1*
X2274657Y2100713D1*
X2270584Y2107004D1*
X2267402Y2113789D1*
X2265173Y2120944D1*
X2263936Y2128335D1*
X2263714Y2135826D1*
X2264513Y2143278D1*
X2266317Y2150552D1*
X2269092Y2157513D1*
X2272788Y2164033D1*
X2277335Y2169990D1*
X2282649Y2175274D1*
X2288632Y2179787D1*
X2295173Y2183445D1*
X2302150Y2186180D1*
X2309434Y2187943D1*
X2316890Y2188699D1*
X2324380Y2188435D1*
X2331764Y2187156D1*
X2338906Y2184885D1*
X2345673Y2181665D1*
X2351940Y2177555D1*
X2357590Y2172632D1*
X2362519Y2166987D1*
X2366636Y2160725D1*
X2368692Y2156678D1*
X2372788Y2164033D1*
X2377335Y2169990D1*
X2382649Y2175274D1*
X2388632Y2179787D1*
X2395173Y2183445D1*
X2402150Y2186180D1*
X2409434Y2187943D1*
X2416890Y2188699D1*
X2424380Y2188435D1*
X2431764Y2187156D1*
X2438906Y2184885D1*
X2445673Y2181665D1*
X2451940Y2177555D1*
X2457590Y2172632D1*
X2462519Y2166987D1*
X2466636Y2160725D1*
X2468692Y2156678D1*
X2472788Y2164033D1*
X2477335Y2169990D1*
X2482649Y2175274D1*
X2488632Y2179787D1*
X2495173Y2183445D1*
X2502150Y2186180D1*
X2509434Y2187943D1*
X2516890Y2188699D1*
X2524380Y2188435D1*
X2531764Y2187156D1*
X2538906Y2184885D1*
X2545673Y2181665D1*
X2551940Y2177555D1*
X2557590Y2172632D1*
X2562519Y2166987D1*
X2566636Y2160725D1*
X2568692Y2156678D1*
X2572788Y2164033D1*
X2577335Y2169990D1*
X2582649Y2175274D1*
X2588632Y2179787D1*
X2595173Y2183445D1*
X2602150Y2186180D1*
X2609434Y2187943D1*
X2616890Y2188699D1*
X2624380Y2188435D1*
X2631764Y2187156D1*
X2638906Y2184885D1*
X2645673Y2181665D1*
X2651940Y2177555D1*
X2657590Y2172632D1*
X2662519Y2166987D1*
X2666636Y2160725D1*
X2668692Y2156678D1*
X2672788Y2164033D1*
X2677335Y2169990D1*
X2682649Y2175274D1*
X2688632Y2179787D1*
X2695173Y2183445D1*
X2702150Y2186180D1*
X2709434Y2187943D1*
X2716890Y2188699D1*
X2724380Y2188435D1*
X2731764Y2187156D1*
X2738906Y2184885D1*
X2745673Y2181665D1*
X2751940Y2177555D1*
X2757590Y2172632D1*
X2762519Y2166987D1*
X2766636Y2160725D1*
X2768692Y2156678D1*
X2772788Y2164033D1*
X2777335Y2169990D1*
X2782649Y2175274D1*
X2788632Y2179787D1*
X2795173Y2183445D1*
X2802150Y2186180D1*
X2809434Y2187943D1*
X2816890Y2188699D1*
X2824380Y2188435D1*
X2831764Y2187156D1*
X2838906Y2184885D1*
X2845673Y2181665D1*
X2851940Y2177555D1*
X2857590Y2172632D1*
X2862519Y2166987D1*
X2866636Y2160725D1*
X2868692Y2156678D1*
X2872788Y2164033D1*
X2877335Y2169990D1*
X2882649Y2175274D1*
X2888632Y2179787D1*
X2895173Y2183445D1*
X2902150Y2186180D1*
X2909434Y2187943D1*
X2916890Y2188699D1*
X2924380Y2188435D1*
X2931764Y2187156D1*
X2938906Y2184885D1*
X2945673Y2181665D1*
X2951940Y2177555D1*
X2957590Y2172632D1*
X2962519Y2166987D1*
X2966636Y2160725D1*
X2969863Y2153961D1*
X2972141Y2146822D1*
X2973429Y2139439D1*
X2973672Y2131202D1*
X2972822Y2123756D1*
X2970969Y2116494D1*
X2968147Y2109552D1*
X2964407Y2103058D1*
X2959819Y2097132D1*
X2954469Y2091884D1*
X2948456Y2087412D1*
X2941667Y2083700D1*
X2947453Y2080620D1*
X2954439Y2075544D1*
X2960544Y2069439D1*
X2965620Y2062453D1*
X2969540Y2054759D1*
X2972208Y2046547D1*
X2973559Y2038018D1*
Y2029384D1*
X2972208Y2020855D1*
X2969540Y2012643D1*
X2965620Y2004949D1*
X2960544Y1997963D1*
X2954439Y1991858D1*
X2947453Y1986782D1*
X2941644Y1983731D1*
X2947453Y1980620D1*
X2954439Y1975544D1*
X2960544Y1969439D1*
X2965620Y1962453D1*
X2968671Y1956644D1*
X2971782Y1962453D1*
X2976858Y1969439D1*
X2982963Y1975544D1*
X2989949Y1980620D1*
X2997643Y1984540D1*
X3005855Y1987208D1*
X3014384Y1988559D1*
X3023018D1*
X3031547Y1987208D1*
X3039759Y1984540D1*
X3047453Y1980620D1*
X3050891Y1978322D1*
X3204201Y2131890D1*
X3204151Y2159103D1*
X3199103Y2164151D1*
X3194906Y2169927D1*
X3191664Y2176289D1*
X3189458Y2183079D1*
X3188341Y2190131D1*
Y2197271D1*
X3189458Y2204323D1*
X3191664Y2211113D1*
X3194906Y2217475D1*
X3199103Y2223251D1*
X3204151Y2228299D1*
X3209927Y2232496D1*
X3216289Y2235738D1*
X3223079Y2237944D1*
X3230131Y2239061D1*
X3237271D1*
X3244323Y2237944D1*
X3251113Y2235738D1*
X3257475Y2232496D1*
X3263251Y2228299D1*
X3268299Y2223251D1*
X3272496Y2217475D1*
X3275738Y2211113D1*
X3277944Y2204323D1*
X3279061Y2197271D1*
Y2190131D1*
X3277944Y2183079D1*
X3275738Y2176289D1*
X3272496Y2169927D1*
X3268299Y2164151D1*
X3263196Y2159059D1*
X3263110Y2117075D1*
X3261757Y2110274D1*
X3258854Y2103976D1*
X3254561Y2098530D1*
X3175253Y2019222D1*
X3377680Y2019400D1*
X3408341Y2050131D1*
Y2057271D1*
X3409458Y2064323D1*
X3411664Y2071113D1*
X3414906Y2077475D1*
X3419103Y2083251D1*
X3424151Y2088299D1*
X3429927Y2092496D1*
X3436289Y2095738D1*
X3443079Y2097944D1*
X3450131Y2099061D1*
X3457271D1*
X3464323Y2097944D1*
X3471113Y2095738D1*
X3477475Y2092496D1*
X3483251Y2088299D1*
X3488299Y2083251D1*
X3492496Y2077475D1*
X3495738Y2071113D1*
X3497944Y2064323D1*
X3499061Y2057271D1*
Y2050131D1*
X3497944Y2043079D1*
X3495738Y2036289D1*
X3492496Y2029927D1*
X3488299Y2024151D1*
X3483251Y2019103D1*
X3477475Y2014906D1*
X3471113Y2011664D1*
X3464323Y2009458D1*
X3457271Y2008341D1*
X3450062Y2008349D1*
X3429365Y1987646D1*
X3435705Y1986035D1*
X3443683Y1982731D1*
X3451045Y1978219D1*
X3457611Y1972611D1*
X3463219Y1966045D1*
X3467731Y1958683D1*
X3468671Y1956644D1*
X3471782Y1962453D1*
X3476858Y1969439D1*
X3482963Y1975544D1*
X3489949Y1980620D1*
X3497643Y1984540D1*
X3505855Y1987208D1*
X3514384Y1988559D1*
X3523018D1*
X3531547Y1987208D1*
X3539759Y1984540D1*
X3547453Y1980620D1*
X3554439Y1975544D1*
X3560544Y1969439D1*
X3563679Y1965358D1*
X3563674Y1988728D1*
X3673729D1*
Y1878673D1*
X3563674D1*
Y1901964D1*
X3557611Y1894791D1*
X3551045Y1889183D1*
X3548197Y1887279D1*
X3548110Y1843386D1*
X3546757Y1836585D1*
X3543854Y1830287D1*
X3539561Y1824841D1*
X3528176Y1813457D1*
X3533631Y1808631D1*
X3539386Y1801893D1*
X3543686Y1794927D1*
X3547790Y1801580D1*
X3552548Y1807370D1*
X3558031Y1812479D1*
X3564143Y1816817D1*
X3570775Y1820308D1*
X3577811Y1822889D1*
X3585127Y1824516D1*
X3592593Y1825160D1*
X3600080Y1824809D1*
X3607454Y1823471D1*
X3614585Y1821167D1*
X3621349Y1817939D1*
X3627626Y1813845D1*
X3633305Y1808954D1*
X3638287Y1803355D1*
X3642483Y1797146D1*
X3645821Y1790435D1*
X3648240Y1783342D1*
X3649698Y1775991D1*
X3650171Y1768701D1*
X3649673Y1761223D1*
X3648190Y1753877D1*
X3645747Y1746792D1*
X3642388Y1740092D1*
X3638170Y1733897D1*
X3633170Y1728315D1*
X3627474Y1723444D1*
X3621184Y1719370D1*
X3614409Y1716165D1*
X3607270Y1713886D1*
X3599891Y1712571D1*
X3592404Y1712246D1*
X3584939Y1712915D1*
X3577629Y1714567D1*
X3570602Y1717172D1*
X3563981Y1720684D1*
X3557885Y1725043D1*
X3552419Y1730170D1*
X3547680Y1735976D1*
X3543704Y1742455D1*
X3539386Y1735509D1*
X3533631Y1728771D1*
X3526893Y1723016D1*
X3519338Y1718386D1*
X3511151Y1714995D1*
X3502535Y1712926D1*
X3493701Y1712231D1*
X3484867Y1712926D1*
X3476251Y1714995D1*
X3468064Y1718386D1*
X3460509Y1723016D1*
X3453771Y1728771D1*
X3448016Y1735509D1*
X3443716Y1742475D1*
X3439386Y1735509D1*
X3433631Y1728771D1*
X3426893Y1723016D1*
X3419338Y1718386D1*
X3411151Y1714995D1*
X3402535Y1712926D1*
X3393701Y1712231D1*
X3384867Y1712926D1*
X3376251Y1714995D1*
X3368064Y1718386D1*
X3360509Y1723016D1*
X3353771Y1728771D1*
X3348016Y1735509D1*
X3343716Y1742475D1*
X3339386Y1735509D1*
X3333631Y1728771D1*
X3326893Y1723016D1*
X3319338Y1718386D1*
X3311151Y1714995D1*
X3302535Y1712926D1*
X3293701Y1712231D1*
X3284867Y1712926D1*
X3276251Y1714995D1*
X3268064Y1718386D1*
X3260509Y1723016D1*
X3253771Y1728771D1*
X3248016Y1735509D1*
X3243716Y1742475D1*
X3239386Y1735509D1*
X3233631Y1728771D1*
X3226893Y1723016D1*
X3219338Y1718386D1*
X3211151Y1714995D1*
X3202535Y1712926D1*
X3193701Y1712231D1*
X3184867Y1712926D1*
X3180502Y1713796D1*
X3151860Y1685269D1*
X3146094Y1681416D1*
X3139588Y1679016D1*
X3132701Y1678201D1*
X2964323Y1677944D1*
X2971113Y1675738D1*
X2977475Y1672496D1*
X2983251Y1668300D1*
X3038907Y1612841D1*
X3089696Y1562053D1*
X3088341Y1570131D1*
Y1577271D1*
X3089458Y1584323D1*
X3091664Y1591113D1*
X3094906Y1597475D1*
X3099102Y1603251D1*
X3104151Y1608300D1*
X3109927Y1612496D1*
X3116289Y1615738D1*
X3123079Y1617944D1*
X3130131Y1619061D1*
X3163701Y1619201D1*
X3170819Y1618641D1*
X3177761Y1616974D1*
X3184358Y1614242D1*
X3190445Y1610511D1*
X3195874Y1605874D1*
X3294517Y1507232D1*
X3299507Y1512895D1*
X3306964Y1519265D1*
X3315327Y1524389D1*
X3324387Y1528142D1*
X3333924Y1530432D1*
X3343701Y1531201D1*
X3353478Y1530432D1*
X3363015Y1528142D1*
X3372075Y1524389D1*
X3380438Y1519265D1*
X3387895Y1512895D1*
X3394265Y1505438D1*
X3399389Y1497075D1*
X3403142Y1488015D1*
X3405432Y1478478D1*
X3406201Y1468701D1*
X3405432Y1458924D1*
X3403142Y1449387D1*
X3399389Y1440327D1*
X3397057Y1436162D1*
X3443786Y1356652D1*
X3449974Y1355104D1*
X3456570Y1352372D1*
X3462658Y1348641D1*
X3468087Y1344004D1*
X3472724Y1338575D1*
X3476454Y1332487D1*
X3479187Y1325891D1*
X3479872Y1323460D1*
X3489270Y1324997D1*
X3498132D1*
X3506884Y1323611D1*
X3515311Y1320872D1*
X3523206Y1316849D1*
X3530375Y1311641D1*
X3536641Y1305375D1*
X3541849Y1298206D1*
X3545872Y1290311D1*
X3548611Y1281884D1*
X3549997Y1273132D1*
Y1264270D1*
X3548606Y1255502D1*
X3570243Y1233750D1*
X3574096Y1227984D1*
X3575870Y1223698D1*
X3580518Y1223611D1*
X3589270Y1224997D1*
X3598132D1*
X3606884Y1223611D1*
X3615311Y1220872D1*
X3623206Y1216849D1*
X3630375Y1211641D1*
X3636641Y1205375D1*
X3641849Y1198206D1*
X3645872Y1190311D1*
X3648611Y1181884D1*
X3649997Y1173132D1*
Y1164270D1*
X3648611Y1155518D1*
X3645872Y1147091D1*
X3641849Y1139196D1*
X3636641Y1132027D1*
X3630375Y1125761D1*
X3623206Y1120553D1*
X3615311Y1116530D1*
X3606884Y1113791D1*
X3598132Y1112405D1*
X3589270D1*
X3580518Y1113791D1*
X3577311Y1114591D1*
Y1071183D1*
X3585093Y1073051D1*
X3593701Y1073729D1*
X3602309Y1073051D1*
X3610705Y1071035D1*
X3618683Y1067731D1*
X3626045Y1063219D1*
X3632611Y1057611D1*
X3638219Y1051045D1*
X3642731Y1043683D1*
X3646035Y1035705D1*
X3648051Y1027309D1*
X3648729Y1018701D1*
X3648051Y1010093D1*
X3646035Y1001697D1*
X3642731Y993719D1*
X3638219Y986357D1*
X3632611Y979791D1*
X3626045Y974183D1*
X3618683Y969671D1*
X3616644Y968731D1*
X3622453Y965620D1*
X3629439Y960544D1*
X3635544Y954439D1*
X3640620Y947453D1*
X3644540Y939759D1*
X3647208Y931547D1*
X3648559Y923018D1*
Y914384D1*
X3647208Y905855D1*
X3644540Y897643D1*
X3641024Y890671D1*
X3639757Y884746D1*
X3636854Y878449D1*
X3632561Y873003D1*
X3627115Y868709D1*
X3620817Y865806D1*
X3614016Y864453D1*
X3607077Y864727D1*
X3593701Y863673D1*
X3585093Y864351D1*
X3576697Y866367D1*
X3568719Y869671D1*
X3561357Y874183D1*
X3554791Y879791D1*
X3548723Y887044D1*
X3548729Y863673D1*
X3438674D1*
Y880519D1*
X3435703Y874709D1*
X3431547Y868903D1*
X3426533Y863820D1*
X3420786Y859583D1*
X3414448Y856297D1*
X3407673Y854044D1*
X3400629Y852878D1*
X3393489Y852828D1*
X3386430Y853896D1*
X3379624Y856055D1*
X3373240Y859252D1*
X3367425Y863417D1*
X3350438Y863673D1*
X3357590Y857632D1*
X3362519Y851987D1*
X3366636Y845725D1*
X3369863Y838961D1*
X3372141Y831822D1*
X3373429Y824439D1*
X3373672Y816202D1*
X3372822Y808756D1*
X3370969Y801494D1*
X3368147Y794552D1*
X3364407Y788058D1*
X3359819Y782132D1*
X3354469Y776884D1*
X3348456Y772412D1*
X3341890Y768798D1*
X3334895Y766110D1*
X3327599Y764398D1*
X3320138Y763692D1*
X3312650Y764007D1*
X3305275Y765336D1*
X3298149Y767656D1*
X3291404Y770922D1*
X3285165Y775074D1*
X3279548Y780035D1*
X3274657Y785713D1*
X3270584Y792004D1*
X3268712Y795728D1*
X3264407Y788058D1*
X3259819Y782132D1*
X3254469Y776884D1*
X3248456Y772412D1*
X3241890Y768798D1*
X3234895Y766110D1*
X3227599Y764398D1*
X3220138Y763692D1*
X3212650Y764007D1*
X3205275Y765336D1*
X3198149Y767656D1*
X3191404Y770922D1*
X3185165Y775074D1*
X3179548Y780035D1*
X3174657Y785713D1*
X3170584Y792004D1*
X3168712Y795728D1*
X3164407Y788058D1*
X3159819Y782132D1*
X3154469Y776884D1*
X3148456Y772412D1*
X3141890Y768798D1*
X3134895Y766110D1*
X3127599Y764398D1*
X3120138Y763692D1*
X3112650Y764007D1*
X3105275Y765336D1*
X3098149Y767656D1*
X3091404Y770922D1*
X3085165Y775074D1*
X3079548Y780035D1*
X3074657Y785713D1*
X3070584Y792004D1*
X3068712Y795728D1*
X3064407Y788058D1*
X3059819Y782132D1*
X3054469Y776884D1*
X3048456Y772412D1*
X3041890Y768798D1*
X3034895Y766110D1*
X3027599Y764398D1*
X3020138Y763692D1*
X3012650Y764007D1*
X3005275Y765336D1*
X2998149Y767656D1*
X2991404Y770922D1*
X2985165Y775074D1*
X2979548Y780035D1*
X2974657Y785713D1*
X2970584Y792004D1*
X2968712Y795728D1*
X2964407Y788058D1*
X2959819Y782132D1*
X2954469Y776884D1*
X2948456Y772412D1*
X2941890Y768798D1*
X2934895Y766110D1*
X2927599Y764398D1*
X2920138Y763692D1*
X2912650Y764007D1*
X2905275Y765336D1*
X2898149Y767656D1*
X2891404Y770922D1*
X2885165Y775074D1*
X2879548Y780035D1*
X2874657Y785713D1*
X2870584Y792004D1*
X2868712Y795728D1*
X2864407Y788058D1*
X2859819Y782132D1*
X2854469Y776884D1*
X2848456Y772412D1*
X2841890Y768798D1*
X2834895Y766110D1*
X2827599Y764398D1*
X2820138Y763692D1*
X2812650Y764007D1*
X2805275Y765336D1*
X2798149Y767656D1*
X2791404Y770922D1*
X2785165Y775074D1*
X2779548Y780035D1*
X2774657Y785713D1*
X2770584Y792004D1*
X2768712Y795728D1*
X2764407Y788058D1*
X2759819Y782132D1*
X2754469Y776884D1*
X2748456Y772412D1*
X2741890Y768798D1*
X2734895Y766110D1*
X2727599Y764398D1*
X2720138Y763692D1*
X2712650Y764007D1*
X2705275Y765336D1*
X2698149Y767656D1*
X2691404Y770922D1*
X2685165Y775074D1*
X2679548Y780035D1*
X2674657Y785713D1*
X2670584Y792004D1*
X2668712Y795728D1*
X2664407Y788058D1*
X2659819Y782132D1*
X2654469Y776884D1*
X2648456Y772412D1*
X2641890Y768798D1*
X2634895Y766110D1*
X2627599Y764398D1*
X2620138Y763692D1*
X2612650Y764007D1*
X2605275Y765336D1*
X2598149Y767656D1*
X2591404Y770922D1*
X2585165Y775074D1*
X2579548Y780035D1*
X2574657Y785713D1*
X2570584Y792004D1*
X2568712Y795728D1*
X2564407Y788058D1*
X2559819Y782132D1*
X2554469Y776884D1*
X2548456Y772412D1*
X2541890Y768798D1*
X2534895Y766110D1*
X2527599Y764398D1*
X2520138Y763692D1*
X2512650Y764007D1*
X2505275Y765336D1*
X2498149Y767656D1*
X2491404Y770922D1*
X2485165Y775074D1*
X2479548Y780035D1*
X2474657Y785713D1*
X2470584Y792004D1*
X2468712Y795728D1*
X2464407Y788058D1*
X2459819Y782132D1*
X2454469Y776884D1*
X2448456Y772412D1*
X2441890Y768798D1*
X2434895Y766110D1*
X2427599Y764398D1*
X2420138Y763692D1*
X2412650Y764007D1*
X2405275Y765336D1*
X2398149Y767656D1*
X2391404Y770922D1*
X2385165Y775074D1*
X2379548Y780035D1*
X2374657Y785713D1*
X2370584Y792004D1*
X2367402Y798789D1*
X2365173Y805944D1*
X2363936Y813335D1*
X2363714Y820826D1*
X2364513Y828278D1*
X2366317Y835552D1*
X2369092Y842513D1*
X2372788Y849033D1*
X2377335Y854990D1*
X2382649Y860274D1*
X2388632Y864787D1*
X2395735Y868695D1*
X2387830Y873198D1*
X2334765Y873201D1*
X2334803Y653190D1*
X2336966Y647787D1*
X2338637Y640846D1*
X2339201Y633728D1*
X2338645Y626610D1*
X2336983Y619667D1*
X2334254Y613069D1*
X2330527Y606979D1*
X2325894Y601547D1*
X2320467Y596907D1*
X2314382Y593172D1*
X2307787Y590436D1*
X2300846Y588765D1*
X2293728Y588201D1*
X2286610Y588757D1*
X2279667Y590419D1*
X2273069Y593148D1*
X2266979Y596875D1*
X2261547Y601508D1*
X2256907Y606935D1*
X2248775Y620187D1*
X2246039Y626781D1*
X2244368Y633723D1*
X2243803Y640868D1*
Y873241D1*
X2221640Y873343D1*
X2223559Y861823D1*
Y853188D1*
X2222208Y844660D1*
X2219540Y836447D1*
X2215620Y828754D1*
X2210544Y821768D1*
X2204439Y815662D1*
X2197453Y810587D1*
X2189759Y806667D1*
X2181547Y803998D1*
X2173018Y802648D1*
X2164384D1*
X2155855Y803998D1*
X2147643Y806667D1*
X2139949Y810587D1*
X2132963Y815662D1*
X2126858Y821768D1*
X2121782Y828754D1*
X2117862Y836447D1*
X2115194Y844660D1*
X2113843Y853188D1*
Y861823D1*
X2115194Y870351D1*
X2117862Y878564D1*
X2121782Y886257D1*
X2126858Y893243D1*
X2132963Y899349D1*
X2139949Y904424D1*
X2145758Y907475D1*
X2139949Y910587D1*
X2132963Y915662D1*
X2126858Y921768D1*
X2121782Y928754D1*
X2117862Y936447D1*
X2115194Y944660D1*
X2113843Y953188D1*
Y961823D1*
X2115194Y970351D1*
X2117862Y978564D1*
X2121782Y986257D1*
X2126858Y993243D1*
X2132963Y999349D1*
X2139949Y1004424D1*
X2145758Y1007475D1*
X2139949Y1010587D1*
X2132963Y1015662D1*
X2126858Y1021768D1*
X2121782Y1028754D1*
X2117862Y1036447D1*
X2115194Y1044660D1*
X2113843Y1053188D1*
Y1061823D1*
X2115194Y1070351D1*
X2117862Y1078564D1*
X2121782Y1086257D1*
X2126858Y1093243D1*
X2132963Y1099349D1*
X2139949Y1104424D1*
X2145758Y1107475D1*
X2139949Y1110587D1*
X2132963Y1115662D1*
X2126858Y1121768D1*
X2121782Y1128754D1*
X2117862Y1136447D1*
X2115194Y1144660D1*
X2113843Y1153188D1*
Y1161823D1*
X2115194Y1170351D1*
X2117862Y1178564D1*
X2121782Y1186257D1*
X2126858Y1193243D1*
X2132963Y1199349D1*
X2139949Y1204424D1*
X2147643Y1208344D1*
X2155855Y1211013D1*
X2164384Y1212363D1*
X2173018D1*
X2179709Y1211378D1*
X2179864Y1348809D1*
X2180980Y1355861D1*
X2183187Y1362651D1*
X2186428Y1369013D1*
X2190625Y1374789D1*
X2195673Y1379838D1*
X2201450Y1384034D1*
X2207811Y1387276D1*
X2214398Y1389433D1*
X2291921Y1402218D1*
X2356739Y1412790D1*
X2356718Y1441364D1*
X2347292Y1450764D1*
X2343606Y1442275D1*
X2339667Y1435899D1*
X2334919Y1430101D1*
X2329444Y1424983D1*
X2323340Y1420635D1*
X2316714Y1417133D1*
X2309682Y1414540D1*
X2302369Y1412900D1*
X2294903Y1412244D1*
X2287417Y1412582D1*
X2280040Y1413908D1*
X2272905Y1416200D1*
X2266136Y1419416D1*
X2259852Y1423501D1*
X2254164Y1428381D1*
X2249173Y1433972D1*
X2244966Y1440174D1*
X2241618Y1446879D1*
X2239187Y1453968D1*
X2237716Y1461317D1*
X2237231Y1468796D1*
X2237741Y1476273D1*
X2239278Y1483757D1*
X2231770Y1480545D1*
X2224828Y1478878D1*
X2217710Y1478318D1*
X2210592Y1478878D1*
X2203650Y1480545D1*
X2197054Y1483277D1*
X2190966Y1487008D1*
X2185537Y1491644D1*
X2183443Y1493909D1*
X2168033Y1493724D1*
X2168004Y1487188D1*
X2166887Y1480136D1*
X2164681Y1473345D1*
X2161440Y1466984D1*
X2157243Y1461208D1*
X2152194Y1456159D1*
X2146418Y1451962D1*
X2140057Y1448721D1*
X2133266Y1446515D1*
X2126214Y1445398D1*
X2119075D1*
X2112023Y1446515D1*
X2105232Y1448721D1*
X2098871Y1451962D1*
X2093095Y1456159D1*
X2088046Y1461208D1*
X2083849Y1466984D1*
X2080608Y1473345D1*
X2078402Y1480136D1*
X2077285Y1487188D1*
X2077293Y1494397D1*
X1942099Y1629584D1*
X1664254Y1637832D1*
X1657611Y1629791D1*
X1651045Y1624183D1*
X1643683Y1619671D1*
X1635705Y1616367D1*
X1627309Y1614351D1*
X1618701Y1613673D1*
X1610093Y1614351D1*
X1601697Y1616367D1*
X1593719Y1619671D1*
X1586357Y1624183D1*
X1579791Y1629791D1*
X1573723Y1637044D1*
X1573729Y1613673D1*
X1504405Y1613521D1*
Y1584078D1*
X1512231Y1583758D1*
X1518905Y1581875D1*
X1524955Y1578487D1*
X1530048Y1573780D1*
X1533900Y1568014D1*
X1536301Y1561508D1*
X1537116Y1554621D1*
X1537166Y1465376D1*
X1542214Y1460327D1*
X1546411Y1454551D1*
X1549652Y1448189D1*
X1551859Y1441399D1*
X1552975Y1434347D1*
Y1427207D1*
X1551859Y1420155D1*
X1549652Y1413365D1*
X1546411Y1407003D1*
X1542214Y1401227D1*
X1537166Y1396179D1*
X1531389Y1391982D1*
X1526612Y1389471D1*
X1537567Y1377999D1*
X1540955Y1371948D1*
X1542838Y1365274D1*
X1543201Y1360659D1*
X1543110Y1000191D1*
X1541757Y993389D1*
X1538854Y987092D1*
X1534561Y981646D1*
X1522373Y969458D1*
X1523559Y961823D1*
Y953188D1*
X2795758Y868731D2*
X2787830Y873198D1*
X2749609Y873201D1*
X2741644Y868731D1*
X2749914Y864020D1*
X2755782Y859358D1*
X2760962Y853943D1*
X2765359Y847874D1*
X2768692Y841678D1*
X2772788Y849033D1*
X2777335Y854990D1*
X2782649Y860274D1*
X2788632Y864787D1*
X2795735Y868695D1*
X2695758Y868731D2*
X2687830Y873198D1*
X2649609Y873201D1*
X2641644Y868731D1*
X2649914Y864020D1*
X2655782Y859358D1*
X2660962Y853943D1*
X2665359Y847874D1*
X2668692Y841678D1*
X2672788Y849033D1*
X2677335Y854990D1*
X2682649Y860274D1*
X2688632Y864787D1*
X2695735Y868695D1*
X2595758Y868731D2*
X2587830Y873198D1*
X2549609Y873201D1*
X2541644Y868731D1*
X2549914Y864020D1*
X2555782Y859358D1*
X2560962Y853943D1*
X2565359Y847874D1*
X2568692Y841678D1*
X2572788Y849033D1*
X2577335Y854990D1*
X2582649Y860274D1*
X2588632Y864787D1*
X2595735Y868695D1*
X2495758Y868731D2*
X2487830Y873198D1*
X2449609Y873201D1*
X2441644Y868731D1*
X2449914Y864020D1*
X2455782Y859358D1*
X2460962Y853943D1*
X2465359Y847874D1*
X2468692Y841678D1*
X2472788Y849033D1*
X2477335Y854990D1*
X2482649Y860274D1*
X2488632Y864787D1*
X2495735Y868695D1*
X3195758Y868731D2*
X3187830Y873198D1*
X3149609Y873201D1*
X3141644Y868731D1*
X3149914Y864020D1*
X3155782Y859358D1*
X3160962Y853943D1*
X3165359Y847874D1*
X3168692Y841678D1*
X3172788Y849033D1*
X3177335Y854990D1*
X3182649Y860274D1*
X3188632Y864787D1*
X3195735Y868695D1*
X3095758Y868731D2*
X3087830Y873198D1*
X3049609Y873201D1*
X3041644Y868731D1*
X3049914Y864020D1*
X3055782Y859358D1*
X3060962Y853943D1*
X3065359Y847874D1*
X3068692Y841678D1*
X3072788Y849033D1*
X3077335Y854990D1*
X3082649Y860274D1*
X3088632Y864787D1*
X3095735Y868695D1*
X2441644Y2083671D2*
X2449572Y2079204D1*
X2487793Y2079201D1*
X2495758Y2083671D1*
X2489262Y2087211D1*
X2483218Y2091642D1*
X2477832Y2096853D1*
X2473205Y2102748D1*
X2468712Y2110728D1*
X2464407Y2103058D1*
X2459819Y2097132D1*
X2454469Y2091884D1*
X2448456Y2087412D1*
X2441667Y2083700D1*
X2541644Y2083671D2*
X2549572Y2079204D1*
X2587793Y2079201D1*
X2595758Y2083671D1*
X2589262Y2087211D1*
X2583218Y2091642D1*
X2577832Y2096853D1*
X2573205Y2102748D1*
X2568712Y2110728D1*
X2564407Y2103058D1*
X2559819Y2097132D1*
X2554469Y2091884D1*
X2548456Y2087412D1*
X2541667Y2083700D1*
X2641644Y2083671D2*
X2649572Y2079204D1*
X2687793Y2079201D1*
X2695758Y2083671D1*
X2689262Y2087211D1*
X2683218Y2091642D1*
X2677832Y2096853D1*
X2673205Y2102748D1*
X2668712Y2110728D1*
X2664407Y2103058D1*
X2659819Y2097132D1*
X2654469Y2091884D1*
X2648456Y2087412D1*
X2641667Y2083700D1*
X2741644Y2083671D2*
X2749572Y2079204D1*
X2787793Y2079201D1*
X2795758Y2083671D1*
X2789262Y2087211D1*
X2783218Y2091642D1*
X2777832Y2096853D1*
X2773205Y2102748D1*
X2768712Y2110728D1*
X2764407Y2103058D1*
X2759819Y2097132D1*
X2754469Y2091884D1*
X2748456Y2087412D1*
X2741667Y2083700D1*
X2841644Y2083671D2*
X2849572Y2079204D1*
X2887793Y2079201D1*
X2895758Y2083671D1*
X2889262Y2087211D1*
X2883218Y2091642D1*
X2877832Y2096853D1*
X2873205Y2102748D1*
X2868712Y2110728D1*
X2864407Y2103058D1*
X2859819Y2097132D1*
X2854469Y2091884D1*
X2848456Y2087412D1*
X2841667Y2083700D1*
X3276174Y2348728D2*
X3286965D1*
X3279791Y2354791D1*
X3274183Y2361357D1*
X3269671Y2368719D1*
X3266367Y2376697D1*
X3264351Y2385093D1*
X3263673Y2393701D1*
X3264351Y2402309D1*
X3266367Y2410705D1*
X3269671Y2418683D1*
X3274183Y2426045D1*
X3279791Y2432611D1*
X3286357Y2438219D1*
X3293719Y2442731D1*
X3295758Y2443671D1*
X3289262Y2447211D1*
X3283218Y2451642D1*
X3277832Y2456853D1*
X3273205Y2462748D1*
X3269421Y2469217D1*
X3266551Y2476139D1*
X3264648Y2483388D1*
X3263748Y2490828D1*
X3263868Y2498321D1*
X3265004Y2505729D1*
X3267136Y2512913D1*
X3270225Y2519742D1*
X3274213Y2526087D1*
X3279026Y2531831D1*
X3284575Y2536868D1*
X3290756Y2541105D1*
X3297456Y2544462D1*
X3304551Y2546878D1*
X3311907Y2548308D1*
X3319390Y2548724D1*
X3326860Y2548120D1*
X3334178Y2546507D1*
X3341209Y2543915D1*
X3347823Y2540391D1*
X3353897Y2536001D1*
X3359318Y2530826D1*
X3363986Y2524963D1*
X3367814Y2518520D1*
X3370730Y2511617D1*
X3372682Y2504381D1*
X3373633Y2496947D1*
X3373502Y2488708D1*
X3372315Y2481308D1*
X3370134Y2474138D1*
X3366999Y2467331D1*
X3362968Y2461014D1*
X3358116Y2455302D1*
X3352533Y2450303D1*
X3346323Y2446108D1*
X3341667Y2443700D1*
X3347453Y2440620D1*
X3352543Y2437038D1*
X3494175Y2427609D1*
X3492267Y2435555D1*
X3491626Y2443701D1*
X3492267Y2451847D1*
X3494175Y2459793D1*
X3497302Y2467342D1*
X3501572Y2474310D1*
X3506879Y2480523D1*
X3513092Y2485830D1*
X3520060Y2490100D1*
X3527609Y2493227D1*
X3535555Y2495135D1*
X3543701Y2495776D1*
X3551847Y2495135D1*
X3559793Y2493227D1*
X3567342Y2490100D1*
X3574310Y2485830D1*
X3580523Y2480523D1*
X3585830Y2474310D1*
X3590100Y2467342D1*
X3593227Y2459793D1*
X3595135Y2451847D1*
X3595776Y2443701D1*
X3595135Y2435555D1*
X3593227Y2427609D1*
X3590100Y2420060D1*
X3585830Y2413092D1*
X3584357Y2411223D1*
X3588102Y2405910D1*
X3591812Y2398629D1*
X3594337Y2390858D1*
X3595615Y2382787D1*
Y2374615D1*
X3594337Y2366544D1*
X3591812Y2358773D1*
X3588102Y2351492D1*
X3583299Y2344881D1*
X3582226Y2343720D1*
X3587536Y2336813D1*
X3591117Y2330231D1*
X3593716Y2323202D1*
X3595279Y2315874D1*
X3595776Y2308701D1*
X3595237Y2301227D1*
X3593630Y2293908D1*
X3590990Y2286895D1*
X3587371Y2280333D1*
X3584394Y2276210D1*
X3589693Y2268125D1*
X3592947Y2260630D1*
X3594989Y2252718D1*
X3595768Y2244583D1*
X3595265Y2236427D1*
X3593493Y2228450D1*
X3590494Y2220849D1*
X3586343Y2213810D1*
X3581142Y2207508D1*
X3575019Y2202096D1*
X3568125Y2197709D1*
X3560630Y2194455D1*
X3552718Y2192413D1*
X3544583Y2191634D1*
X3536427Y2192137D1*
X3495940Y2200970D1*
X3489415Y2200482D1*
X3480722Y2201018D1*
X3427625Y2212642D1*
X3360558Y2227721D1*
X3352672Y2229782D1*
X3311229Y2238673D1*
X3263674D1*
Y2348728D1*
X3276174D1*
X1062574Y2449941D2*
X1072742Y2439660D1*
X1073720Y2439666D1*
X1094199Y2460143D1*
X1094192Y2461122D1*
X1073715Y2481600D1*
X1072737Y2481594D1*
X1052258Y2461117D1*
X1052265Y2460139D1*
X1062574Y2449941D1*
X1155503Y2457012D2*
X1172742Y2439660D1*
X1173720Y2439666D1*
X1194199Y2460143D1*
X1194192Y2461122D1*
X1173715Y2481600D1*
X1172737Y2481594D1*
X1152258Y2461117D1*
X1152265Y2460139D1*
X1155503Y2457012D1*
X1671343Y2380089D2*
X1650692Y2359882D1*
X1645462Y2356953D1*
X1639693Y2355326D1*
X1635704Y2355012D1*
X1606764Y2355326D1*
X1600995Y2356953D1*
X1595765Y2359882D1*
X1592722Y2362481D1*
X1575079Y2380124D1*
X1572737Y2381594D1*
X1571372Y2380118D1*
X1573715Y2381600D1*
X1571343Y2380089D1*
X1550692Y2359882D1*
X1545462Y2356953D1*
X1539693Y2355326D1*
X1535704Y2355012D1*
X1506764Y2355326D1*
X1500995Y2356953D1*
X1495765Y2359882D1*
X1492722Y2362481D1*
X1475079Y2380124D1*
X1472737Y2381594D1*
X1471372Y2380118D1*
X1473715Y2381600D1*
X1471343Y2380089D1*
X1450692Y2359882D1*
X1445462Y2356953D1*
X1439693Y2355326D1*
X1435704Y2355012D1*
X1406764Y2355326D1*
X1400995Y2356953D1*
X1395765Y2359882D1*
X1392722Y2362481D1*
X1375079Y2380124D1*
X1372737Y2381594D1*
X1371372Y2380118D1*
X1373715Y2381600D1*
X1371343Y2380089D1*
X1350692Y2359882D1*
X1345462Y2356953D1*
X1339693Y2355326D1*
X1335704Y2355012D1*
X1306764Y2355326D1*
X1300995Y2356953D1*
X1295765Y2359882D1*
X1292722Y2362481D1*
X1275079Y2380124D1*
X1272737Y2381594D1*
X1271372Y2380118D1*
X1273715Y2381600D1*
X1271343Y2380089D1*
X1250692Y2359882D1*
X1245462Y2356953D1*
X1239693Y2355326D1*
X1235704Y2355012D1*
X1206764Y2355326D1*
X1200995Y2356953D1*
X1195765Y2359882D1*
X1192722Y2362481D1*
X1175079Y2380124D1*
X1172737Y2381594D1*
X1171372Y2380118D1*
X1173715Y2381600D1*
X1171343Y2380089D1*
X1150692Y2359882D1*
X1145462Y2356953D1*
X1139693Y2355326D1*
X1130704Y2355012D1*
X1106764Y2355326D1*
X1100995Y2356953D1*
X1095765Y2359882D1*
X1089187Y2366016D1*
X1075079Y2380124D1*
X1072737Y2381594D1*
X1071372Y2380118D1*
X1073715Y2381600D1*
X1071343Y2380089D1*
X1050692Y2359882D1*
X1045462Y2356953D1*
X1039693Y2355326D1*
X1035704Y2355012D1*
X1006764Y2355326D1*
X1000995Y2356953D1*
X995765Y2359882D1*
X992722Y2362481D1*
X975079Y2380124D1*
X972737Y2381594D1*
X971372Y2380118D1*
X973715Y2381600D1*
X971343Y2380089D1*
X950692Y2359882D1*
X945462Y2356953D1*
X939693Y2355326D1*
X935704Y2355012D1*
X906764Y2355326D1*
X900995Y2356953D1*
X895765Y2359882D1*
X892722Y2362481D1*
X875079Y2380124D1*
X872737Y2381594D1*
X871372Y2380118D1*
X873715Y2381600D1*
X871343Y2380089D1*
X850692Y2359882D1*
X845462Y2356953D1*
X839693Y2355326D1*
X835704Y2355012D1*
X806764Y2355326D1*
X800995Y2356953D1*
X795765Y2359882D1*
X792722Y2362481D1*
X775079Y2380124D1*
X772737Y2381594D1*
X771372Y2380118D1*
X773715Y2381600D1*
X771343Y2380089D1*
X750692Y2359882D1*
X745462Y2356953D1*
X739693Y2355326D1*
X735704Y2355012D1*
X706764Y2355326D1*
X700995Y2356953D1*
X695765Y2359882D1*
X692722Y2362481D1*
X672480Y2383166D1*
X669551Y2388397D1*
X667924Y2394166D1*
X667610Y2398155D1*
X667924Y2427094D1*
X669551Y2432864D1*
X672480Y2438094D1*
X675079Y2441136D1*
X694199Y2460144D1*
X694192Y2461122D1*
X692717Y2462486D1*
X692722Y2458780D1*
X694192Y2460139D1*
X692688Y2462515D1*
X672481Y2483167D1*
X669552Y2488397D1*
X667924Y2494166D1*
X667610Y2498155D1*
X667924Y2527094D1*
X669552Y2532864D1*
X672481Y2538094D1*
X675079Y2541136D1*
X689868Y2555925D1*
X582353D1*
X594977Y2548004D1*
X601637Y2542754D1*
X607864Y2536998D1*
X613620Y2530771D1*
X618870Y2524111D1*
X623581Y2517060D1*
X627725Y2509661D1*
X631275Y2501960D1*
X634210Y2494004D1*
X636512Y2485842D1*
X638167Y2477525D1*
X639163Y2469104D1*
X639496Y2460630D1*
X639163Y2452157D1*
X638167Y2443735D1*
X636512Y2435418D1*
X634210Y2427256D1*
X631275Y2419300D1*
X627725Y2411599D1*
X623581Y2404200D1*
X618870Y2397149D1*
X613620Y2390490D1*
X607864Y2384263D1*
X601637Y2378506D1*
X594977Y2373256D1*
X587926Y2368545D1*
X580527Y2364401D1*
X572826Y2360851D1*
X564870Y2357916D1*
X556708Y2355614D1*
X548391Y2353960D1*
X539970Y2352963D1*
X531496Y2352630D1*
X523023Y2352963D1*
X514601Y2353960D1*
X506284Y2355614D1*
X498122Y2357916D1*
X490166Y2360851D1*
X482465Y2364401D1*
X475066Y2368545D1*
X468015Y2373256D1*
X461356Y2378506D1*
X455129Y2384263D1*
X449372Y2390490D1*
X444122Y2397149D1*
X436190Y2409952D1*
X436201Y582318D1*
X444122Y594977D1*
X449372Y601637D1*
X455129Y607864D1*
X461356Y613620D1*
X468015Y618870D1*
X475066Y623581D1*
X482465Y627725D1*
X490166Y631275D1*
X498122Y634210D1*
X506284Y636512D1*
X514601Y638167D1*
X523023Y639163D1*
X531496Y639496D1*
X539970Y639163D1*
X548391Y638167D1*
X556708Y636512D1*
X564870Y634210D1*
X572826Y631275D1*
X580527Y627725D1*
X587926Y623581D1*
X594977Y618870D1*
X601637Y613620D1*
X607864Y607864D1*
X613620Y601637D1*
X618870Y594977D1*
X623581Y587926D1*
X627725Y580527D1*
X631275Y572826D1*
X634210Y564870D1*
X636512Y556708D1*
X638167Y548391D1*
X639163Y539970D1*
X639496Y531496D1*
X639163Y523023D1*
X638167Y514601D1*
X636512Y506284D1*
X634210Y498122D1*
X631275Y490166D1*
X627725Y482465D1*
X623581Y475066D1*
X618870Y468015D1*
X613620Y461356D1*
X607864Y455129D1*
X601637Y449372D1*
X594977Y444122D1*
X582175Y436190D1*
X2764104Y436201D1*
X2751480Y444122D1*
X2744820Y449372D1*
X2738593Y455129D1*
X2732837Y461356D1*
X2727587Y468015D1*
X2722876Y475066D1*
X2718732Y482465D1*
X2715182Y490166D1*
X2712247Y498122D1*
X2709945Y506284D1*
X2708291Y514601D1*
X2707294Y523023D1*
X2706961Y531496D1*
X2707294Y539970D1*
X2708291Y548391D1*
X2709945Y556708D1*
X2712247Y564870D1*
X2715182Y572826D1*
X2718732Y580527D1*
X2722876Y587926D1*
X2727587Y594977D1*
X2732837Y601637D1*
X2738593Y607864D1*
X2744820Y613620D1*
X2751480Y618870D1*
X2758531Y623581D1*
X2765930Y627725D1*
X2773631Y631275D1*
X2781587Y634210D1*
X2789749Y636512D1*
X2798066Y638167D1*
X2806487Y639163D1*
X2814961Y639496D1*
X2823434Y639163D1*
X2831856Y638167D1*
X2840173Y636512D1*
X2848335Y634210D1*
X2856291Y631275D1*
X2863992Y627725D1*
X2871391Y623581D1*
X2878442Y618870D1*
X2885101Y613620D1*
X2891328Y607864D1*
X2897085Y601637D1*
X2902335Y594977D1*
X2907046Y587926D1*
X2911190Y580527D1*
X2914740Y572826D1*
X2917675Y564870D1*
X2919977Y556708D1*
X2921631Y548391D1*
X2922628Y539970D1*
X2922961Y531496D1*
X2922628Y523023D1*
X2921631Y514601D1*
X2919977Y506284D1*
X2917675Y498122D1*
X2914740Y490166D1*
X2911190Y482465D1*
X2907046Y475066D1*
X2902335Y468015D1*
X2897085Y461356D1*
X2891328Y455129D1*
X2885101Y449372D1*
X2878442Y444122D1*
X2865639Y436190D1*
X3658626Y436201D1*
X3670689Y437788D1*
X3679366Y441380D1*
X3686794Y447084D1*
X3692493Y454516D1*
X3696074Y463171D1*
X3697659Y475227D1*
X3697658Y2516879D1*
X3696070Y2528957D1*
X3692479Y2537634D1*
X3686775Y2545063D1*
X3679344Y2550759D1*
X3670689Y2554341D1*
X3658634Y2555924D1*
X2865752D1*
X2878442Y2548004D1*
X2885101Y2542754D1*
X2891328Y2536998D1*
X2897085Y2530771D1*
X2902335Y2524111D1*
X2907046Y2517060D1*
X2911190Y2509661D1*
X2914740Y2501960D1*
X2917675Y2494004D1*
X2919977Y2485842D1*
X2921631Y2477525D1*
X2922628Y2469104D1*
X2922961Y2460630D1*
X2922628Y2452157D1*
X2921631Y2443735D1*
X2919977Y2435418D1*
X2917675Y2427256D1*
X2914740Y2419300D1*
X2911190Y2411599D1*
X2907046Y2404200D1*
X2902335Y2397149D1*
X2897085Y2390490D1*
X2891328Y2384263D1*
X2885101Y2378506D1*
X2878442Y2373256D1*
X2871391Y2368545D1*
X2863992Y2364401D1*
X2856291Y2360851D1*
X2848335Y2357916D1*
X2840173Y2355614D1*
X2831856Y2353960D1*
X2823434Y2352963D1*
X2814961Y2352630D1*
X2806487Y2352963D1*
X2798066Y2353960D1*
X2789749Y2355614D1*
X2781587Y2357916D1*
X2773631Y2360851D1*
X2765930Y2364401D1*
X2758531Y2368545D1*
X2751480Y2373256D1*
X2744820Y2378506D1*
X2738593Y2384263D1*
X2732837Y2390490D1*
X2727587Y2397149D1*
X2722876Y2404200D1*
X2718732Y2411599D1*
X2715182Y2419300D1*
X2712247Y2427256D1*
X2709945Y2435418D1*
X2708291Y2443735D1*
X2707294Y2452157D1*
X2706961Y2460630D1*
X2707294Y2469104D1*
X2708291Y2477525D1*
X2709945Y2485842D1*
X2712247Y2494004D1*
X2715182Y2501960D1*
X2718732Y2509661D1*
X2722876Y2517060D1*
X2727587Y2524111D1*
X2732837Y2530771D1*
X2738593Y2536998D1*
X2744820Y2542754D1*
X2751480Y2548004D1*
X2764282Y2555936D1*
X2656572Y2555924D1*
X2673977Y2538094D1*
X2676906Y2532864D1*
X2678533Y2527094D1*
X2678847Y2523105D1*
X2678533Y2494166D1*
X2676906Y2488397D1*
X2673977Y2483167D1*
X2666721Y2475468D1*
X2652258Y2461117D1*
X2652265Y2460139D1*
X2672737Y2439666D1*
X2676067Y2434682D1*
X2678142Y2429058D1*
X2678847Y2423105D1*
X2678533Y2394166D1*
X2676906Y2388397D1*
X2673977Y2383166D1*
X2667842Y2376588D1*
X2650692Y2359882D1*
X2645462Y2356953D1*
X2639693Y2355326D1*
X2630704Y2355012D1*
X2606764Y2355326D1*
X2600995Y2356953D1*
X2595765Y2359882D1*
X2589187Y2366016D1*
X2573715Y2381600D1*
X2572737Y2381594D1*
X2571372Y2380118D1*
X2575079Y2380124D1*
X2573720Y2381594D1*
X2571343Y2380089D1*
X2550692Y2359882D1*
X2545462Y2356953D1*
X2539693Y2355326D1*
X2535704Y2355012D1*
X2506764Y2355326D1*
X2500995Y2356953D1*
X2495765Y2359882D1*
X2492722Y2362481D1*
X2473720Y2381594D1*
X2472737D1*
X2471372Y2380118D1*
X2473715Y2381600D1*
X2471343Y2380089D1*
X2450692Y2359882D1*
X2445462Y2356953D1*
X2439693Y2355326D1*
X2435704Y2355012D1*
X2406764Y2355326D1*
X2400995Y2356953D1*
X2395765Y2359882D1*
X2392722Y2362481D1*
X2373715Y2381600D1*
X2372737Y2381594D1*
X2352265Y2361122D1*
X2347280Y2357791D1*
X2341657Y2355716D1*
X2335704Y2355012D1*
X2306764Y2355326D1*
X2300995Y2356953D1*
X2295765Y2359882D1*
X2292722Y2362481D1*
X2273715Y2381600D1*
X2272737Y2381594D1*
X2252265Y2361122D1*
X2247280Y2357791D1*
X2241657Y2355716D1*
X2235704Y2355012D1*
X2217611D1*
X2220955Y2348990D1*
X2222839Y2342307D1*
X2226045Y2338219D1*
X2232611Y2332611D1*
X2238219Y2326045D1*
X2242731Y2318683D1*
X2243671Y2316644D1*
X2246782Y2322453D1*
X2251858Y2329439D1*
X2257963Y2335544D1*
X2264949Y2340620D1*
X2272643Y2344540D1*
X2280855Y2347208D1*
X2289384Y2348559D1*
X2298018D1*
X2306547Y2347208D1*
X2314759Y2344540D1*
X2322453Y2340620D1*
X2329439Y2335544D1*
X2335544Y2329439D1*
X2340620Y2322453D1*
X2343671Y2316644D1*
X2346782Y2322453D1*
X2351858Y2329439D1*
X2357963Y2335544D1*
X2364949Y2340620D1*
X2372643Y2344540D1*
X2380855Y2347208D1*
X2389384Y2348559D1*
X2398018D1*
X2406547Y2347208D1*
X2414759Y2344540D1*
X2422453Y2340620D1*
X2429439Y2335544D1*
X2435544Y2329439D1*
X2440620Y2322453D1*
X2443671Y2316644D1*
X2446782Y2322453D1*
X2451858Y2329439D1*
X2457963Y2335544D1*
X2464949Y2340620D1*
X2472643Y2344540D1*
X2480855Y2347208D1*
X2489384Y2348559D1*
X2498018D1*
X2506547Y2347208D1*
X2514759Y2344540D1*
X2522453Y2340620D1*
X2529439Y2335544D1*
X2535544Y2329439D1*
X2540620Y2322453D1*
X2544540Y2314759D1*
X2547208Y2306547D1*
X2548559Y2298018D1*
Y2289384D1*
X2547208Y2280855D1*
X2544540Y2272643D1*
X2540620Y2264949D1*
X2535544Y2257963D1*
X2529439Y2251858D1*
X2522453Y2246782D1*
X2514759Y2242862D1*
X2506547Y2240194D1*
X2498018Y2238843D1*
X2489384D1*
X2480855Y2240194D1*
X2472643Y2242862D1*
X2464949Y2246782D1*
X2457963Y2251858D1*
X2451858Y2257963D1*
X2446782Y2264949D1*
X2443731Y2270758D1*
X2440620Y2264949D1*
X2435544Y2257963D1*
X2429439Y2251858D1*
X2422453Y2246782D1*
X2414759Y2242862D1*
X2406547Y2240194D1*
X2398018Y2238843D1*
X2389384D1*
X2380855Y2240194D1*
X2372643Y2242862D1*
X2364949Y2246782D1*
X2357963Y2251858D1*
X2351858Y2257963D1*
X2346782Y2264949D1*
X2343731Y2270758D1*
X2340620Y2264949D1*
X2335544Y2257963D1*
X2329439Y2251858D1*
X2322453Y2246782D1*
X2314759Y2242862D1*
X2306547Y2240194D1*
X2298018Y2238843D1*
X2289384D1*
X2280855Y2240194D1*
X2272643Y2242862D1*
X2264949Y2246782D1*
X2257963Y2251858D1*
X2251858Y2257963D1*
X2246782Y2264949D1*
X2243731Y2270758D1*
X2240620Y2264949D1*
X2235544Y2257963D1*
X2229439Y2251858D1*
X2222453Y2246782D1*
X2214759Y2242862D1*
X2206547Y2240194D1*
X2198018Y2238843D1*
X2189384D1*
X2180855Y2240194D1*
X2172643Y2242862D1*
X2164949Y2246782D1*
X2157963Y2251858D1*
X2151858Y2257963D1*
X2146782Y2264949D1*
X2143731Y2270758D1*
X2140620Y2264949D1*
X2135544Y2257963D1*
X2129439Y2251858D1*
X2122453Y2246782D1*
X2114759Y2242862D1*
X2106547Y2240194D1*
X2098018Y2238843D1*
X2089384D1*
X2080855Y2240194D1*
X2072643Y2242862D1*
X2064949Y2246782D1*
X2057963Y2251858D1*
X2051858Y2257963D1*
X2046782Y2264949D1*
X2043731Y2270758D1*
X2040620Y2264949D1*
X2035544Y2257963D1*
X2029439Y2251858D1*
X2022453Y2246782D1*
X2014759Y2242862D1*
X2006547Y2240194D1*
X1998018Y2238843D1*
X1989384D1*
X1980855Y2240194D1*
X1972643Y2242862D1*
X1964949Y2246782D1*
X1957963Y2251858D1*
X1951858Y2257963D1*
X1946782Y2264949D1*
X1943731Y2270758D1*
X1940620Y2264949D1*
X1935544Y2257963D1*
X1929439Y2251858D1*
X1922453Y2246782D1*
X1914759Y2242862D1*
X1906547Y2240194D1*
X1898018Y2238843D1*
X1889384D1*
X1880855Y2240194D1*
X1872643Y2242862D1*
X1864949Y2246782D1*
X1857963Y2251858D1*
X1851858Y2257963D1*
X1848723Y2262044D1*
X1848729Y2238673D1*
X1738674D1*
Y2334230D1*
X1720914Y2334292D1*
X1714113Y2335645D1*
X1707815Y2338548D1*
X1702369Y2342841D1*
X1698076Y2348287D1*
X1695172Y2354585D1*
X1693819Y2361395D1*
X1684766Y2345306D1*
X1690853Y2341576D1*
X1696283Y2336939D1*
X1862539Y2371285D2*
X1860166Y2368912D1*
X1881746Y2347375D1*
X1889384Y2348559D1*
X1898018D1*
X1906547Y2347208D1*
X1914759Y2344540D1*
X1922453Y2340620D1*
X1929439Y2335544D1*
X1935544Y2329439D1*
X1940620Y2322453D1*
X1943671Y2316644D1*
X1946782Y2322453D1*
X1951858Y2329439D1*
X1957963Y2335544D1*
X1964949Y2340620D1*
X1972643Y2344540D1*
X1980855Y2347208D1*
X1989384Y2348559D1*
X1998018D1*
X2006547Y2347208D1*
X2014759Y2344540D1*
X2022453Y2340620D1*
X2029439Y2335544D1*
X2035544Y2329439D1*
X2040620Y2322453D1*
X2043671Y2316644D1*
X2046782Y2322453D1*
X2051858Y2329439D1*
X2054927Y2332737D1*
X2041835Y2346361D1*
X2038446Y2352412D1*
X2037642Y2354594D1*
X2035704Y2355012D1*
X2006764Y2355326D1*
X2000995Y2356953D1*
X1995765Y2359882D1*
X1992722Y2362481D1*
X1973715Y2381600D1*
X1972737Y2381594D1*
X1952265Y2361122D1*
X1947280Y2357791D1*
X1941657Y2355716D1*
X1935704Y2355012D1*
X1906764Y2355326D1*
X1900995Y2356953D1*
X1895765Y2359882D1*
X1889187Y2366016D1*
X1873715Y2381600D1*
X1872737Y2381594D1*
X1862539Y2371285D1*
X2562574Y2449941D2*
X2572742Y2439660D1*
X2573720Y2439666D1*
X2594199Y2460144D1*
X2594193Y2461122D1*
X2573715Y2481600D1*
X2572737Y2481594D1*
X2571372Y2480118D1*
X2575079Y2480124D1*
X2573720Y2481594D1*
X2571343Y2480089D1*
X2552258Y2461117D1*
X2552265Y2460139D1*
X2562574Y2449941D1*
X2918701Y818701D2*
D33*
X2957577Y779825D1*
X2918701Y818701D2*
X2879825Y779825D1*
X2779825Y857577D2*
X2857577Y779825D1*
X2818701Y818701D2*
X2779825Y779825D1*
X2679825Y857577D2*
X2757577Y779825D1*
Y857577D2*
X2679825Y779825D1*
X2579825Y857577D2*
X2657577Y779825D1*
Y857577D2*
X2579825Y779825D1*
X2479825Y857577D2*
X2557577Y779825D1*
Y857577D2*
X2479825Y779825D1*
X2379825Y857577D2*
X2457577Y779825D1*
Y857577D2*
X2379825Y779825D1*
X3318701Y818701D2*
X3357577Y779825D1*
Y857577D2*
X3279825Y779825D1*
X3179825Y857577D2*
X3257577Y779825D1*
X3218701Y818701D2*
X3179825Y779825D1*
X3079825Y857577D2*
X3157577Y779825D1*
Y857577D2*
X3079825Y779825D1*
X3018701Y818701D2*
X3057577Y779825D1*
Y857577D2*
X2979825Y779825D1*
X2279825Y2172577D2*
X2318701Y2133701D1*
X2357577Y2172577D2*
X2279825Y2094825D1*
X2379825Y2172577D2*
X2457577Y2094825D1*
Y2172577D2*
X2418701Y2133701D1*
X2479825Y2172577D2*
X2557577Y2094825D1*
Y2172577D2*
X2479825Y2094825D1*
X2579825Y2172577D2*
X2657577Y2094825D1*
Y2172577D2*
X2579825Y2094825D1*
X2679825Y2172577D2*
X2757577Y2094825D1*
Y2172577D2*
X2679825Y2094825D1*
X2779825Y2172577D2*
X2857577Y2094825D1*
Y2172577D2*
X2779825Y2094825D1*
X2879825Y2172577D2*
X2957577Y2094825D1*
Y2172577D2*
X2879825Y2094825D1*
X3279825Y2532577D2*
X3357577Y2454825D1*
Y2532577D2*
X3279825Y2454825D1*
X840600Y799951D2*
X996802Y643750D1*
Y799951D2*
X840600Y643750D1*
X1025640Y918062D2*
X1181841Y761860D1*
Y918062D2*
X1025640Y761860D1*
X1288708Y1317119D2*
X1343701Y1262126D1*
X1288708Y1207133D1*
X1083922Y2449937D2*
X1162535Y2371324D1*
Y2449937D2*
X1083922Y2371324D1*
X1923229Y2410630D2*
X1962535Y2371324D1*
X1923229Y2410630D2*
X1883922Y2371324D1*
X2583922Y2449937D2*
X2662535Y2371324D1*
Y2449937D2*
X2583922Y2371324D1*
X477653Y2024749D2*
X518701Y1983701D1*
X477653Y1942653D1*
Y1814749D2*
X518701Y1773701D1*
X477653Y1732653D1*
Y1604749D2*
X518701Y1563701D1*
X477653Y1522653D1*
Y1394749D2*
X518701Y1353701D1*
X477653Y1312653D1*
Y1184749D2*
X559749Y1102653D1*
X518701Y1143701D2*
X477653Y1102653D1*
Y2234749D2*
X518701Y2193701D1*
X559749Y2234749D2*
X477653Y2152653D1*
X902653Y1684749D2*
X984749Y1602653D1*
Y1684749D2*
X902653Y1602653D1*
X1077653Y1194749D2*
X1159749Y1112653D1*
Y1194749D2*
X1077653Y1112653D1*
X3543701Y2308701D2*
X3580489Y2271913D1*
Y2345489D2*
X3543701Y2308701D1*
X3553805Y1808597D2*
X3633597Y1728805D1*
Y1808597D2*
X3553805Y1728805D1*
X2293701Y1468701D2*
X2333597Y1428805D1*
X2293701Y1468701D2*
X2253805Y1428805D1*
D34*
X1468701Y1157505D3*
Y1057505D3*
Y957505D3*
Y1257505D3*
X2168701Y1057505D3*
Y957505D3*
Y857505D3*
Y1157505D3*
X1468701Y857505D3*
Y757505D3*
D40*
X2918701Y918701D3*
D34*
Y818701D3*
X2818701Y918701D3*
Y818701D3*
X2718701Y918701D3*
Y818701D3*
X2618701Y918701D3*
Y818701D3*
X2518701Y918701D3*
Y818701D3*
X2418701Y918701D3*
Y818701D3*
D40*
Y1018701D3*
D34*
X2518701D3*
X2618701D3*
X2718701D3*
X2818701D3*
X2918701D3*
D40*
X3318701Y918701D3*
D34*
Y818701D3*
X3218701Y918701D3*
Y818701D3*
X3118701Y918701D3*
Y818701D3*
X3018701Y918701D3*
Y818701D3*
D40*
Y1018701D3*
D34*
X3118701D3*
X3218701D3*
X3318701D3*
D40*
X2318701Y2033701D3*
D34*
Y2133701D3*
X2418701Y2033701D3*
Y2133701D3*
X2518701Y2033701D3*
Y2133701D3*
X2618701Y2033701D3*
Y2133701D3*
X2718701Y2033701D3*
Y2133701D3*
X2818701Y2033701D3*
Y2133701D3*
X2918701Y2033701D3*
Y2133701D3*
D40*
X3318701Y2293701D3*
D34*
Y2393701D3*
Y2493701D3*
D42*
X918701Y958071D3*
Y721851D3*
X1103740Y839961D3*
D40*
X1343701Y1262126D3*
D34*
Y1362126D3*
Y1462126D3*
Y1562126D3*
D40*
X3493701Y918701D3*
D34*
Y1018701D3*
X3593701Y918701D3*
Y1018701D3*
D128*
X723229Y2410630D3*
Y2510630D3*
X823229Y2410630D3*
Y2510630D3*
X923229Y2410630D3*
Y2510630D3*
X1023229Y2410630D3*
Y2510630D3*
X1123229Y2410630D3*
Y2510630D3*
X1223229Y2410630D3*
Y2510630D3*
X1323229Y2410630D3*
Y2510630D3*
X1423229Y2410630D3*
Y2510630D3*
X1523229Y2410630D3*
Y2510630D3*
X1623229Y2410630D3*
Y2510630D3*
X1723229Y2410630D3*
Y2510630D3*
X1823229Y2410630D3*
Y2510630D3*
X1923229Y2410630D3*
Y2510630D3*
X2023229Y2410630D3*
Y2510630D3*
X2123229Y2410630D3*
Y2510630D3*
X2223229Y2410630D3*
Y2510630D3*
X2323229Y2410630D3*
Y2510630D3*
X2423229Y2410630D3*
Y2510630D3*
X2523229Y2410630D3*
Y2510630D3*
X2623229Y2410630D3*
Y2510630D3*
D45*
X518701Y1983701D3*
X618701D3*
X718701D3*
X518701Y1773701D3*
X618701D3*
X718701D3*
X518701Y1563701D3*
X618701D3*
X718701D3*
X518701Y1353701D3*
X618701D3*
X718701D3*
X518701Y1143701D3*
X618701D3*
X718701D3*
X518701Y2193701D3*
X618701D3*
X718701D3*
X943701Y1643701D3*
X1043701D3*
X1143701D3*
X1118701Y1153701D3*
Y1253701D3*
Y1353701D3*
D40*
X1518701Y1668701D3*
D34*
X1618701D3*
D40*
X3618701Y1933701D3*
D34*
X3518701D3*
X3418701D3*
X3318701D3*
X3218701D3*
X3118701D3*
X3018701D3*
X2918701D3*
D40*
X2818701D3*
D34*
X2718701D3*
X2618701D3*
X2518701D3*
X2418701D3*
X2318701D3*
D40*
X1793701Y2293701D3*
D34*
X1893701D3*
X1993701D3*
X2093701D3*
X2193701D3*
X2293701D3*
X2393701D3*
X2493701D3*
D40*
X1418701Y1793701D3*
D34*
X1518701D3*
X1618701D3*
D40*
Y1918701D3*
D34*
X1518701D3*
D40*
X1418701Y2018701D3*
D34*
X1518701D3*
X1618701D3*
D40*
X1418701Y2243701D3*
D34*
X1518701D3*
X1618701D3*
D40*
Y2143701D3*
D34*
X1518701D3*
D47*
X3543701Y2243701D3*
Y2308701D3*
Y2378701D3*
Y2443701D3*
D49*
X918701Y1353701D3*
D50*
Y1253701D3*
Y1153701D3*
D57*
X3343701Y1468701D3*
D20*
X1830701Y1938701D3*
D34*
X2086654D3*
D60*
X959701Y2203701D3*
D61*
X1026701D3*
X1093701D3*
X1160701D3*
X1227701D3*
D62*
X3593701Y1768701D3*
X3493701D3*
X3393701D3*
X3293701D3*
X3193701D3*
X3093701D3*
X2993701D3*
X2893701D3*
X2793701D3*
X2693701D3*
X2593701D3*
X2493701D3*
X2393701D3*
X2293701D3*
Y1468701D3*
Y1568701D3*
Y1668701D3*
Y1268701D3*
Y1168701D3*
X2393701D3*
X2493701D3*
X2593701D3*
X2693701D3*
X2793701D3*
X2893701D3*
X2993701D3*
X3093701D3*
X3193701D3*
X3293701D3*
X3393701D3*
X3493701D3*
X3593701D3*
X3493701Y1268701D3*
X3293701D3*
X3193701D3*
X3093701D3*
M02*
