G04 DipTrace 3.0.0.2*
G04 Teensy-TC36-Breakout-chip.gto*
%MOIN*%
G04 #@! TF.FileFunction,Legend,Top*
G04 #@! TF.Part,Single*
%ADD15C,0.008*%
%ADD33C,0.004632*%
%FSLAX26Y26*%
G04*
G70*
G90*
G75*
G01*
G04 TopSilk*
%LPD*%
X453621Y798721D2*
D15*
Y898681D1*
X403701D1*
Y1198701D1*
X2803701D1*
Y498701D1*
X403701D1*
Y798721D1*
X453621D1*
X889313Y1259353D2*
D33*
X919458Y1270860D1*
X889314Y1282334D1*
X899362Y1278023D2*
X899361Y1263664D1*
X913687Y1250089D2*
X915146Y1247204D1*
X919424Y1242893D1*
X889314D1*
X919424Y1225008D2*
X917998Y1229319D1*
X913687Y1232204D1*
X906524Y1233630D1*
X902213D1*
X895050Y1232204D1*
X890739Y1229319D1*
X889314Y1225008D1*
Y1222156D1*
X890739Y1217845D1*
X895050Y1214993D1*
X902213Y1213534D1*
X906524D1*
X913687Y1214993D1*
X917998Y1217845D1*
X919424Y1222156D1*
Y1225008D1*
X913687Y1214993D2*
X895050Y1232204D1*
X985764Y1252903D2*
X1015908Y1264410D1*
X985764Y1275884D1*
X995812Y1271573D2*
Y1257214D1*
X1010137Y1243639D2*
X1011597Y1240754D1*
X1015874Y1236443D1*
X985764D1*
X1010137Y1227179D2*
X1011597Y1224294D1*
X1015874Y1219983D1*
X985764D1*
X1417847Y1254699D2*
Y1269025D1*
X1404947Y1270451D1*
X1406373Y1269025D1*
X1407832Y1264714D1*
Y1260436D1*
X1406373Y1256125D1*
X1403521Y1253240D1*
X1399210Y1251814D1*
X1396358D1*
X1392047Y1253240D1*
X1389162Y1256125D1*
X1387736Y1260436D1*
Y1264714D1*
X1389162Y1269025D1*
X1390621Y1270451D1*
X1393473Y1271910D1*
X1387736Y1228191D2*
X1417847D1*
X1397784Y1242550D1*
Y1221029D1*
X1218826Y1255721D2*
Y1270047D1*
X1205926Y1271473D1*
X1207352Y1270047D1*
X1208811Y1265736D1*
Y1261458D1*
X1207352Y1257147D1*
X1204500Y1254262D1*
X1200189Y1252836D1*
X1197337D1*
X1193026Y1254262D1*
X1190141Y1257147D1*
X1188715Y1261458D1*
Y1265736D1*
X1190141Y1270047D1*
X1191600Y1271473D1*
X1194452Y1272932D1*
X1214548Y1226362D2*
X1217400Y1227788D1*
X1218826Y1232099D1*
Y1234951D1*
X1217400Y1239262D1*
X1213089Y1242147D1*
X1205926Y1243573D1*
X1198763D1*
X1193026Y1242147D1*
X1190141Y1239262D1*
X1188715Y1234951D1*
Y1233525D1*
X1190141Y1229247D1*
X1193026Y1226362D1*
X1197337Y1224936D1*
X1198763D1*
X1203074Y1226362D1*
X1205926Y1229247D1*
X1207352Y1233525D1*
Y1234951D1*
X1205926Y1239262D1*
X1203074Y1242147D1*
X1198763Y1243573D1*
X788576Y1265090D2*
X818720Y1276597D1*
X788576Y1288071D1*
X798624Y1283760D2*
Y1269401D1*
X804361Y1255827D2*
Y1242927D1*
X805820Y1238616D1*
X807246Y1237157D1*
X810098Y1235731D1*
X812983D1*
X815835Y1237157D1*
X817294Y1238616D1*
X818720Y1242927D1*
Y1255827D1*
X788576D1*
X804361Y1245779D2*
X788576Y1235731D1*
X818720Y1207797D2*
Y1226467D1*
X788576D1*
X804361D2*
Y1214993D1*
X591829Y1251837D2*
X621973Y1263344D1*
X591829Y1274818D1*
X601877Y1270507D2*
Y1256148D1*
X614810Y1221052D2*
X617662Y1222478D1*
X620547Y1225363D1*
X621973Y1228214D1*
Y1233951D1*
X620547Y1236837D1*
X617662Y1239688D1*
X614810Y1241148D1*
X610499Y1242574D1*
X603303D1*
X599025Y1241148D1*
X596140Y1239688D1*
X593288Y1236837D1*
X591829Y1233952D1*
Y1228215D1*
X593288Y1225363D1*
X596140Y1222478D1*
X599025Y1221052D1*
X603303D1*
Y1228215D1*
X1118096Y1256451D2*
Y1270777D1*
X1105196Y1272203D1*
X1106622Y1270777D1*
X1108081Y1266466D1*
Y1262188D1*
X1106622Y1257877D1*
X1103770Y1254992D1*
X1099459Y1253566D1*
X1096607D1*
X1092296Y1254992D1*
X1089411Y1257877D1*
X1087985Y1262188D1*
Y1266466D1*
X1089411Y1270777D1*
X1090871Y1272203D1*
X1093722Y1273662D1*
X1087985Y1238565D2*
X1118096Y1224206D1*
Y1244302D1*
X1318096Y1256451D2*
Y1270777D1*
X1305196Y1272203D1*
X1306622Y1270777D1*
X1308081Y1266466D1*
Y1262188D1*
X1306622Y1257877D1*
X1303770Y1254992D1*
X1299459Y1253566D1*
X1296607D1*
X1292296Y1254992D1*
X1289411Y1257877D1*
X1287985Y1262188D1*
Y1266466D1*
X1289411Y1270777D1*
X1290871Y1272203D1*
X1293722Y1273662D1*
X1318096Y1227091D2*
Y1241417D1*
X1305196Y1242843D1*
X1306622Y1241417D1*
X1308081Y1237106D1*
Y1232828D1*
X1306622Y1228517D1*
X1303770Y1225632D1*
X1299459Y1224206D1*
X1296607D1*
X1292296Y1225632D1*
X1289411Y1228517D1*
X1287985Y1232829D1*
Y1237106D1*
X1289411Y1241417D1*
X1290870Y1242843D1*
X1293722Y1244302D1*
X1319477Y474947D2*
X1289333D1*
Y464899D1*
X1290792Y460588D1*
X1293644Y457703D1*
X1296529Y456277D1*
X1300807Y454851D1*
X1308003D1*
X1312314Y456277D1*
X1315166Y457703D1*
X1318051Y460588D1*
X1319477Y464899D1*
Y474947D1*
X1312314Y424065D2*
X1315166Y425491D1*
X1318051Y428376D1*
X1319477Y431228D1*
Y436965D1*
X1318051Y439850D1*
X1315166Y442702D1*
X1312314Y444161D1*
X1308003Y445587D1*
X1300807D1*
X1296529Y444161D1*
X1293644Y442702D1*
X1290792Y439850D1*
X1289333Y436965D1*
Y431228D1*
X1290792Y428376D1*
X1293644Y425491D1*
X1296529Y424065D1*
X1419265Y475234D2*
X1389121D1*
Y465186D1*
X1390580Y460875D1*
X1393432Y457990D1*
X1396317Y456564D1*
X1400595Y455138D1*
X1407791D1*
X1412102Y456564D1*
X1414954Y457990D1*
X1417839Y460875D1*
X1419265Y465186D1*
Y475234D1*
Y445875D2*
X1389121D1*
Y435827D1*
X1390580Y431516D1*
X1393432Y428631D1*
X1396317Y427205D1*
X1400595Y425779D1*
X1407791D1*
X1412102Y427205D1*
X1414954Y428630D1*
X1417839Y431516D1*
X1419265Y435827D1*
Y445875D1*
X2390833Y459588D2*
X2420944D1*
X2400881Y473947D1*
Y452425D1*
X2420944Y440276D2*
Y424524D1*
X2409470Y433113D1*
Y428802D1*
X2408044Y425950D1*
X2406618Y424524D1*
X2402307Y423065D1*
X2399455D1*
X2395144Y424524D1*
X2392259Y427376D1*
X2390833Y431687D1*
Y435998D1*
X2392259Y440276D1*
X2393718Y441702D1*
X2396570Y443161D1*
X2490046Y460802D2*
X2520157D1*
X2500094Y475161D1*
Y453639D1*
X2490046Y430016D2*
X2520157D1*
X2500094Y444375D1*
Y422853D1*
X2589333Y465588D2*
X2619444D1*
X2599381Y479947D1*
Y458425D1*
X2619444Y431950D2*
Y446276D1*
X2606544Y447702D1*
X2607970Y446276D1*
X2609429Y441965D1*
Y437687D1*
X2607970Y433376D1*
X2605118Y430491D1*
X2600807Y429065D1*
X2597955D1*
X2593644Y430491D1*
X2590759Y433376D1*
X2589333Y437687D1*
Y441965D1*
X2590759Y446276D1*
X2592218Y447702D1*
X2595070Y449161D1*
X2689104Y460858D2*
X2719214D1*
X2699152Y475217D1*
Y453695D1*
X2714936Y427221D2*
X2717788Y428647D1*
X2719214Y432958D1*
Y435810D1*
X2717788Y440121D1*
X2713477Y443006D1*
X2706314Y444432D1*
X2699152D1*
X2693415Y443006D1*
X2690529Y440121D1*
X2689104Y435810D1*
Y434384D1*
X2690529Y430106D1*
X2693415Y427221D1*
X2697726Y425795D1*
X2699152D1*
X2703463Y427221D1*
X2706314Y430106D1*
X2707740Y434384D1*
Y435810D1*
X2706314Y440121D1*
X2703463Y443006D1*
X2699152Y444432D1*
X1589333Y460088D2*
X1619444D1*
X1599381Y474447D1*
Y452925D1*
X1619444Y435039D2*
X1618018Y439350D1*
X1613707Y442235D1*
X1606544Y443661D1*
X1602233D1*
X1595070Y442235D1*
X1590759Y439350D1*
X1589333Y435039D1*
Y432187D1*
X1590759Y427876D1*
X1595070Y425024D1*
X1602233Y423565D1*
X1606544D1*
X1613707Y425024D1*
X1618018Y427876D1*
X1619444Y432187D1*
Y435039D1*
X1613707Y425024D2*
X1595070Y442235D1*
X1687883Y459138D2*
X1717994D1*
X1697931Y473497D1*
Y451975D1*
X1712257Y442711D2*
X1713716Y439826D1*
X1717994Y435515D1*
X1687883D1*
X1789833Y461588D2*
X1819944D1*
X1799881Y475947D1*
Y454425D1*
X1812781Y443702D2*
X1814207D1*
X1817092Y442276D1*
X1818518Y440850D1*
X1819944Y437965D1*
Y432228D1*
X1818518Y429376D1*
X1817092Y427950D1*
X1814207Y426491D1*
X1811355D1*
X1808470Y427950D1*
X1804192Y430802D1*
X1789833Y445161D1*
Y425065D1*
X2687736Y1257551D2*
X2717847D1*
X2697784Y1271910D1*
Y1250388D1*
X2687736Y1235388D2*
X2717847Y1221028D1*
Y1241124D1*
X2487985Y1259303D2*
X2518096D1*
X2498033Y1273662D1*
Y1252140D1*
X2508081Y1224206D2*
X2503770Y1225666D1*
X2500885Y1228517D1*
X2499459Y1232828D1*
Y1234254D1*
X2500885Y1238565D1*
X2503770Y1241417D1*
X2508081Y1242876D1*
X2509507D1*
X2513818Y1241417D1*
X2516670Y1238565D1*
X2518096Y1234254D1*
Y1232828D1*
X2516670Y1228517D1*
X2513818Y1225666D1*
X2508081Y1224206D1*
X2500885D1*
X2493722Y1225666D1*
X2489411Y1228517D1*
X2487985Y1232829D1*
Y1235680D1*
X2489411Y1239991D1*
X2492296Y1241417D1*
X2418096Y1256451D2*
Y1270777D1*
X2405196Y1272203D1*
X2406622Y1270777D1*
X2408081Y1266466D1*
Y1262188D1*
X2406622Y1257877D1*
X2403770Y1254992D1*
X2399459Y1253566D1*
X2396607D1*
X2392296Y1254992D1*
X2389411Y1257877D1*
X2387985Y1262188D1*
Y1266466D1*
X2389411Y1270777D1*
X2390871Y1272203D1*
X2393722Y1273662D1*
X2418096Y1235680D2*
X2416670Y1239991D1*
X2412359Y1242876D1*
X2405196Y1244302D1*
X2400885D1*
X2393722Y1242876D1*
X2389411Y1239991D1*
X2387985Y1235680D1*
Y1232829D1*
X2389411Y1228517D1*
X2393722Y1225666D1*
X2400885Y1224206D1*
X2405196D1*
X2412359Y1225666D1*
X2416670Y1228517D1*
X2418096Y1232828D1*
Y1235680D1*
X2412359Y1225666D2*
X2393722Y1242876D1*
X2587289Y1260000D2*
X2617399D1*
X2597337Y1274359D1*
Y1252837D1*
X2617399Y1236410D2*
X2615973Y1240688D1*
X2613122Y1242147D1*
X2610236D1*
X2607385Y1240688D1*
X2605925Y1237836D1*
X2604499Y1232099D1*
X2603074Y1227788D1*
X2600188Y1224936D1*
X2597337Y1223511D1*
X2593026D1*
X2590174Y1224936D1*
X2588715Y1226362D1*
X2587289Y1230673D1*
Y1236410D1*
X2588715Y1240688D1*
X2590174Y1242147D1*
X2593026Y1243573D1*
X2597337D1*
X2600188Y1242147D1*
X2603074Y1239262D1*
X2604499Y1234984D1*
X2605925Y1229247D1*
X2607385Y1226362D1*
X2610236Y1224936D1*
X2613122D1*
X2615973Y1226362D1*
X2617399Y1230673D1*
Y1236410D1*
X2020010Y1247536D2*
Y1261862D1*
X2007110Y1263288D1*
X2008536Y1261862D1*
X2009995Y1257551D1*
Y1253273D1*
X2008536Y1248962D1*
X2005684Y1246077D1*
X2001373Y1244651D1*
X1998521D1*
X1994210Y1246077D1*
X1991325Y1248962D1*
X1989899Y1253273D1*
Y1257551D1*
X1991325Y1261862D1*
X1992784Y1263288D1*
X1995636Y1264747D1*
X2014273Y1235388D2*
X2015732Y1232503D1*
X2020010Y1228192D1*
X1989899D1*
X1818096Y1256451D2*
Y1270777D1*
X1805196Y1272203D1*
X1806622Y1270777D1*
X1808081Y1266466D1*
Y1262188D1*
X1806622Y1257877D1*
X1803770Y1254992D1*
X1799459Y1253566D1*
X1796607D1*
X1792296Y1254992D1*
X1789411Y1257877D1*
X1787985Y1262188D1*
Y1266466D1*
X1789411Y1270777D1*
X1790871Y1272203D1*
X1793722Y1273662D1*
X1818096Y1241417D2*
Y1225666D1*
X1806622Y1234254D1*
Y1229943D1*
X1805196Y1227091D1*
X1803770Y1225666D1*
X1799459Y1224206D1*
X1796607D1*
X1792296Y1225666D1*
X1789411Y1228517D1*
X1787985Y1232829D1*
Y1237140D1*
X1789411Y1241417D1*
X1790870Y1242843D1*
X1793722Y1244302D1*
X1918096Y1256451D2*
Y1270777D1*
X1905196Y1272203D1*
X1906622Y1270777D1*
X1908081Y1266466D1*
Y1262188D1*
X1906622Y1257877D1*
X1903770Y1254992D1*
X1899459Y1253566D1*
X1896607D1*
X1892296Y1254992D1*
X1889411Y1257877D1*
X1887985Y1262188D1*
Y1266466D1*
X1889411Y1270777D1*
X1890871Y1272203D1*
X1893722Y1273662D1*
X1910933Y1242843D2*
X1912359D1*
X1915244Y1241417D1*
X1916670Y1239991D1*
X1918096Y1237106D1*
Y1231369D1*
X1916670Y1228517D1*
X1915244Y1227091D1*
X1912359Y1225632D1*
X1909507D1*
X1906622Y1227091D1*
X1902344Y1229943D1*
X1887985Y1244302D1*
Y1224206D1*
X1119477Y479947D2*
X1089333D1*
Y469899D1*
X1090792Y465588D1*
X1093644Y462703D1*
X1096529Y461277D1*
X1100807Y459851D1*
X1108003D1*
X1112314Y461277D1*
X1115166Y462703D1*
X1118051Y465588D1*
X1119477Y469899D1*
Y479947D1*
X1112314Y429065D2*
X1115166Y430491D1*
X1118051Y433376D1*
X1119477Y436228D1*
Y441965D1*
X1118051Y444850D1*
X1115166Y447702D1*
X1112314Y449161D1*
X1108003Y450587D1*
X1100807D1*
X1096529Y449161D1*
X1093644Y447702D1*
X1090792Y444850D1*
X1089333Y441965D1*
Y436228D1*
X1090792Y433376D1*
X1093644Y430491D1*
X1096529Y429065D1*
X1100807D1*
Y436228D1*
X1218535Y474504D2*
X1188391D1*
Y464456D1*
X1189850Y460145D1*
X1192702Y457260D1*
X1195587Y455834D1*
X1199865Y454408D1*
X1207061D1*
X1211372Y455834D1*
X1214224Y457260D1*
X1217109Y460145D1*
X1218535Y464456D1*
Y474504D1*
Y426508D2*
Y445145D1*
X1188391D1*
Y426508D1*
X1204176Y445145D2*
Y433671D1*
X919477Y479947D2*
X897955D1*
X893644Y478521D1*
X890792Y475636D1*
X889333Y471325D1*
Y468473D1*
X890792Y464162D1*
X893644Y461277D1*
X897955Y459851D1*
X919477D1*
X912314Y429065D2*
X915166Y430491D1*
X918051Y433376D1*
X919477Y436228D1*
Y441965D1*
X918051Y444850D1*
X915166Y447702D1*
X912314Y449161D1*
X908003Y450587D1*
X900807D1*
X896529Y449161D1*
X893644Y447702D1*
X890792Y444850D1*
X889333Y441965D1*
Y436228D1*
X890792Y433376D1*
X893644Y430491D1*
X896529Y429065D1*
X900807D1*
Y436228D1*
X1019657Y490626D2*
X998135D1*
X993824Y489200D1*
X990972Y486315D1*
X989513Y482004D1*
Y479153D1*
X990972Y474842D1*
X993824Y471956D1*
X998135Y470531D1*
X1019657Y470530D1*
X1012494Y439745D2*
X1015346Y441171D1*
X1018231Y444056D1*
X1019657Y446908D1*
Y452645D1*
X1018231Y455530D1*
X1015346Y458382D1*
X1012494Y459841D1*
X1008183Y461267D1*
X1000987D1*
X996709Y459841D1*
X993824Y458382D1*
X990972Y455530D1*
X989513Y452645D1*
Y446908D1*
X990972Y444056D1*
X993824Y441171D1*
X996709Y439745D1*
X1000987D1*
Y446908D1*
X1012461Y429022D2*
X1013887D1*
X1016772Y427596D1*
X1018198Y426170D1*
X1019624Y423285D1*
Y417548D1*
X1018198Y414697D1*
X1016772Y413271D1*
X1013887Y411811D1*
X1011035D1*
X1008150Y413271D1*
X1003872Y416122D1*
X989513Y430482D1*
Y410386D1*
X712006Y477477D2*
X681862D1*
Y467429D1*
X683321Y463118D1*
X686173Y460233D1*
X689058Y458807D1*
X693336Y457381D1*
X700532D1*
X704843Y458807D1*
X707695Y460233D1*
X710580Y463118D1*
X712006Y467429D1*
Y477477D1*
X696917Y448117D2*
Y431537D1*
X817132Y483103D2*
X786988D1*
Y473055D1*
X788447Y468744D1*
X791299Y465859D1*
X794184Y464433D1*
X798462Y463007D1*
X805658D1*
X809969Y464433D1*
X812821Y465859D1*
X815706Y468744D1*
X817132Y473055D1*
Y483103D1*
X814960Y440843D2*
X789127D1*
X802027Y453743D2*
Y427910D1*
X615157Y463450D2*
Y477776D1*
X602257Y479201D1*
X603683Y477776D1*
X605142Y473464D1*
Y469187D1*
X603683Y464876D1*
X600831Y461991D1*
X596520Y460565D1*
X593668D1*
X589357Y461991D1*
X586472Y464876D1*
X585046Y469187D1*
Y473465D1*
X586472Y477776D1*
X587931Y479201D1*
X590783Y480661D1*
X615190Y451301D2*
X585046Y439827D1*
X615190Y428353D1*
X512634Y443745D2*
X515486Y445171D1*
X518371Y448056D1*
X519797Y450908D1*
Y456645D1*
X518371Y459530D1*
X515486Y462382D1*
X512635Y463841D1*
X508323Y465267D1*
X501127D1*
X496850Y463841D1*
X493964Y462382D1*
X491113Y459530D1*
X489653Y456645D1*
Y450908D1*
X491112Y448056D1*
X493964Y445171D1*
X496849Y443745D1*
X501127D1*
Y450908D1*
X1912634Y438745D2*
X1915486Y440171D1*
X1918371Y443056D1*
X1919797Y445908D1*
Y451645D1*
X1918371Y454530D1*
X1915486Y457382D1*
X1912635Y458841D1*
X1908323Y460267D1*
X1901127D1*
X1896850Y458841D1*
X1893964Y457382D1*
X1891113Y454530D1*
X1889653Y451645D1*
Y445908D1*
X1891112Y443056D1*
X1893964Y440171D1*
X1896849Y438745D1*
X1901127D1*
Y445908D1*
X2120190Y475661D2*
X2090046Y464187D1*
X2120190Y452713D1*
Y443449D2*
X2090046D1*
Y430516D1*
X2091505Y426205D1*
X2092931Y424779D1*
X2095783Y423353D1*
X2100094D1*
X2102979Y424779D1*
X2104405Y426205D1*
X2105831Y430516D1*
X2107290Y426205D1*
X2108716Y424779D1*
X2111568Y423353D1*
X2114453D1*
X2117305Y424779D1*
X2118764Y426205D1*
X2120190Y430516D1*
Y443449D1*
X2105831D2*
Y430516D1*
X2320157Y472776D2*
Y457024D1*
X2308683Y465613D1*
Y461302D1*
X2307257Y458450D1*
X2305831Y457024D1*
X2301520Y455565D1*
X2298668D1*
X2294357Y457024D1*
X2291472Y459876D1*
X2290046Y464187D1*
Y468498D1*
X2291472Y472776D1*
X2292931Y474201D1*
X2295783Y475661D1*
X2320190Y446301D2*
X2290046Y434827D1*
X2320190Y423353D1*
X2812634Y443745D2*
X2815486Y445171D1*
X2818371Y448056D1*
X2819797Y450908D1*
Y456645D1*
X2818371Y459530D1*
X2815486Y462382D1*
X2812635Y463841D1*
X2808323Y465267D1*
X2801127D1*
X2796850Y463841D1*
X2793964Y462382D1*
X2791113Y459530D1*
X2789653Y456645D1*
Y450908D1*
X2791112Y448056D1*
X2793964Y445171D1*
X2796849Y443745D1*
X2801127D1*
Y450908D1*
X2819136Y1269739D2*
Y1253987D1*
X2807662Y1262576D1*
Y1258265D1*
X2806236Y1255413D1*
X2804810Y1253987D1*
X2800499Y1252528D1*
X2797647D1*
X2793336Y1253987D1*
X2790451Y1256839D1*
X2789025Y1261150D1*
Y1265461D1*
X2790451Y1269739D1*
X2791910Y1271165D1*
X2794762Y1272624D1*
X2819169Y1243264D2*
X2789025Y1231790D1*
X2819169Y1220316D1*
X2303770Y1268662D2*
Y1255762D1*
X2305229Y1251451D1*
X2306655Y1249992D1*
X2309507Y1248566D1*
X2312392D1*
X2315244Y1249992D1*
X2316703Y1251451D1*
X2318129Y1255762D1*
Y1268662D1*
X2287985D1*
X2303770Y1258614D2*
X2287985Y1248566D1*
X2313818Y1219206D2*
X2316703Y1222058D1*
X2318129Y1226369D1*
Y1232106D1*
X2316703Y1236417D1*
X2313818Y1239302D1*
X2310966D1*
X2308081Y1237843D1*
X2306655Y1236417D1*
X2305229Y1233565D1*
X2302344Y1224943D1*
X2300918Y1222058D1*
X2299459Y1220632D1*
X2296607Y1219206D1*
X2292296D1*
X2289445Y1222058D1*
X2287985Y1226369D1*
Y1232106D1*
X2289445Y1236417D1*
X2292296Y1239302D1*
X2201632Y1274374D2*
Y1261441D1*
X2203058Y1257164D1*
X2204517Y1255704D1*
X2207369Y1254279D1*
X2211680D1*
X2214532Y1255704D1*
X2215991Y1257164D1*
X2217417Y1261441D1*
Y1274374D1*
X2187273D1*
X2210254Y1223493D2*
X2213106Y1224919D1*
X2215991Y1227804D1*
X2217417Y1230656D1*
Y1236393D1*
X2215991Y1239278D1*
X2213106Y1242130D1*
X2210254Y1243589D1*
X2205943Y1245015D1*
X2198747D1*
X2194469Y1243589D1*
X2191584Y1242130D1*
X2188732Y1239278D1*
X2187273Y1236393D1*
Y1230656D1*
X2188732Y1227804D1*
X2191584Y1224919D1*
X2194469Y1223493D1*
X2198747D1*
Y1230656D1*
X2109934Y1233173D2*
X2112786Y1234599D1*
X2115671Y1237484D1*
X2117097Y1240336D1*
Y1246073D1*
X2115671Y1248958D1*
X2112786Y1251810D1*
X2109934Y1253269D1*
X2105623Y1254695D1*
X2098427D1*
X2094149Y1253269D1*
X2091264Y1251810D1*
X2088412Y1248958D1*
X2086953Y1246073D1*
Y1240336D1*
X2088412Y1237484D1*
X2091264Y1234599D1*
X2094149Y1233173D1*
X2098427D1*
Y1240336D1*
X719450Y1287342D2*
X697928D1*
X693617Y1285916D1*
X690765Y1283031D1*
X689306Y1278720D1*
Y1275868D1*
X690765Y1271557D1*
X693617Y1268672D1*
X697928Y1267246D1*
X719450D1*
X715139Y1237886D2*
X718024Y1240738D1*
X719450Y1245049D1*
Y1250786D1*
X718024Y1255097D1*
X715139Y1257982D1*
X712287D1*
X709402Y1256523D1*
X707976Y1255097D1*
X706550Y1252245D1*
X703665Y1243623D1*
X702239Y1240738D1*
X700780Y1239312D1*
X697928Y1237886D1*
X693617D1*
X690765Y1240738D1*
X689306Y1245049D1*
Y1250786D1*
X690765Y1255097D1*
X693617Y1257982D1*
X719450Y1228623D2*
X689306D1*
Y1215690D1*
X690765Y1211379D1*
X692191Y1209953D1*
X695043Y1208527D1*
X699354D1*
X702239Y1209953D1*
X703665Y1211379D1*
X705091Y1215690D1*
X706550Y1211379D1*
X707976Y1209953D1*
X710828Y1208527D1*
X713713D1*
X716565Y1209953D1*
X718024Y1211379D1*
X719450Y1215690D1*
Y1228623D1*
X705091D2*
Y1215690D1*
X519450Y1287342D2*
X497928D1*
X493617Y1285916D1*
X490765Y1283031D1*
X489306Y1278720D1*
Y1275868D1*
X490765Y1271557D1*
X493617Y1268672D1*
X497928Y1267246D1*
X519450D1*
X515139Y1237886D2*
X518024Y1240738D1*
X519450Y1245049D1*
Y1250786D1*
X518024Y1255097D1*
X515139Y1257982D1*
X512287D1*
X509402Y1256523D1*
X507976Y1255097D1*
X506550Y1252245D1*
X503665Y1243623D1*
X502239Y1240738D1*
X500780Y1239312D1*
X497928Y1237886D1*
X493617D1*
X490765Y1240738D1*
X489306Y1245049D1*
Y1250786D1*
X490765Y1255097D1*
X493617Y1257982D1*
X519450Y1228623D2*
X489306D1*
Y1215690D1*
X490765Y1211379D1*
X492191Y1209953D1*
X495043Y1208527D1*
X499354D1*
X502239Y1209953D1*
X503665Y1211379D1*
X505091Y1215690D1*
X506550Y1211379D1*
X507976Y1209953D1*
X510828Y1208527D1*
X513713D1*
X516565Y1209953D1*
X518024Y1211379D1*
X519450Y1215690D1*
Y1228623D1*
X505091D2*
Y1215690D1*
X2015157Y472776D2*
Y457024D1*
X2003683Y465613D1*
Y461302D1*
X2002257Y458450D1*
X2000831Y457024D1*
X1996520Y455565D1*
X1993668D1*
X1989357Y457024D1*
X1986472Y459876D1*
X1985046Y464187D1*
Y468498D1*
X1986472Y472776D1*
X1987931Y474201D1*
X1990783Y475661D1*
X2015190Y446301D2*
X1985046Y434827D1*
X2015190Y423353D1*
X1509934Y1238173D2*
X1512786Y1239599D1*
X1515671Y1242484D1*
X1517097Y1245336D1*
Y1251073D1*
X1515671Y1253958D1*
X1512786Y1256810D1*
X1509934Y1258269D1*
X1505623Y1259695D1*
X1498427D1*
X1494149Y1258269D1*
X1491264Y1256810D1*
X1488412Y1253958D1*
X1486953Y1251073D1*
Y1245336D1*
X1488412Y1242484D1*
X1491264Y1239599D1*
X1494149Y1238173D1*
X1498427D1*
Y1245336D1*
X1609934Y1238173D2*
X1612786Y1239599D1*
X1615671Y1242484D1*
X1617097Y1245336D1*
Y1251073D1*
X1615671Y1253958D1*
X1612786Y1256810D1*
X1609934Y1258269D1*
X1605623Y1259695D1*
X1598427D1*
X1594149Y1258269D1*
X1591264Y1256810D1*
X1588412Y1253958D1*
X1586953Y1251073D1*
Y1245336D1*
X1588412Y1242484D1*
X1591264Y1239599D1*
X1594149Y1238173D1*
X1598427D1*
Y1245336D1*
X1709934Y1238173D2*
X1712786Y1239599D1*
X1715671Y1242484D1*
X1717097Y1245336D1*
Y1251073D1*
X1715671Y1253958D1*
X1712786Y1256810D1*
X1709934Y1258269D1*
X1705623Y1259695D1*
X1698427D1*
X1694149Y1258269D1*
X1691264Y1256810D1*
X1688412Y1253958D1*
X1686953Y1251073D1*
Y1245336D1*
X1688412Y1242484D1*
X1691264Y1239599D1*
X1694149Y1238173D1*
X1698427D1*
Y1245336D1*
X1512634Y438745D2*
X1515486Y440171D1*
X1518371Y443056D1*
X1519797Y445908D1*
Y451645D1*
X1518371Y454530D1*
X1515486Y457382D1*
X1512635Y458841D1*
X1508323Y460267D1*
X1501127D1*
X1496850Y458841D1*
X1493964Y457382D1*
X1491113Y454530D1*
X1489653Y451645D1*
Y445908D1*
X1491112Y443056D1*
X1493964Y440171D1*
X1496849Y438745D1*
X1501127D1*
Y445908D1*
X2220157Y472776D2*
Y457024D1*
X2208683Y465613D1*
Y461302D1*
X2207257Y458450D1*
X2205831Y457024D1*
X2201520Y455565D1*
X2198668D1*
X2194357Y457024D1*
X2191472Y459876D1*
X2190046Y464187D1*
Y468498D1*
X2191472Y472776D1*
X2192931Y474201D1*
X2195783Y475661D1*
X2220190Y446301D2*
X2190046Y434827D1*
X2220190Y423353D1*
M02*
