M48
INCH
T01C0.0191
T02C0.0354
T03C0.038
%
T01
X+010537Y+010387
X+011537Y+010387
X+012537Y+010387
X+013537Y+010387
X+013537Y+007537
X+012487Y+007587
X+011637Y+007687
X+010537Y+007587
X+019487Y+007637
X+020487Y+007537
X+021487Y+007587
X+023537Y+007779
X+024587Y+007537
X+025487Y+007487
X+026537Y+007537
X+027537Y+007487
X+027537Y+010487
X+026537Y+010437
X+025537Y+010387
X+024537Y+010437
X+023537Y+010437
X+021537Y+010437
X+020537Y+010437
X+019537Y+010437
T02
X+004537Y+004487
X+005537Y+004487
X+006537Y+004487
X+007537Y+004487
X+008537Y+004487
X+009537Y+004487
X+010537Y+004487
X+011537Y+004487
X+012537Y+004487
X+013537Y+004487
X+014537Y+004487
X+015537Y+004487
X+016537Y+004487
X+017537Y+004487
X+018537Y+004487
X+019537Y+004487
X+020537Y+004487
X+021537Y+004487
X+022537Y+004487
X+023537Y+004487
X+024537Y+004487
X+025537Y+004487
X+026537Y+004487
X+027537Y+004487
X+027537Y+012487
X+026537Y+012487
X+025537Y+012487
X+024537Y+012487
X+023537Y+012487
X+022537Y+012487
X+021537Y+012487
X+020537Y+012487
X+019537Y+012487
X+018537Y+012487
X+017537Y+012487
X+016537Y+012487
X+015537Y+012487
X+014537Y+012487
X+013537Y+012487
X+012537Y+012487
X+011537Y+012487
X+010537Y+012487
X+009537Y+012487
X+008537Y+012487
X+007537Y+012487
X+006537Y+012487
X+005537Y+012487
X+004537Y+012487
T03
X+004537Y+005487
X+005537Y+005487
X+006537Y+005487
X+007537Y+005487
X+008537Y+005487
X+009537Y+005487
X+010537Y+005487
X+011537Y+005487
X+012537Y+005487
X+013537Y+005487
X+014537Y+005487
X+015537Y+005487
X+016537Y+005487
X+017537Y+005487
X+018537Y+005487
X+019537Y+005487
X+020537Y+005487
X+021537Y+005487
X+022537Y+005487
X+023537Y+005487
X+024537Y+005487
X+025537Y+005487
X+026537Y+005487
X+027537Y+005487
X+027537Y+008112
X+026537Y+008112
X+025537Y+008112
X+024537Y+008112
X+023537Y+008112
X+022537Y+008487
X+022537Y+009487
X+022537Y+010487
X+022537Y+011487
X+023537Y+011487
X+024537Y+011487
X+025537Y+011487
X+026537Y+011487
X+027537Y+011487
X+027537Y+009862
X+026537Y+009862
X+025537Y+009862
X+024537Y+009862
X+023537Y+009862
X+021537Y+009862
X+020537Y+009862
X+019537Y+009862
X+019537Y+011487
X+018537Y+011487
X+017537Y+011487
X+016537Y+011487
X+015537Y+011487
X+014537Y+011487
X+013537Y+011487
X+012537Y+011487
X+011537Y+011487
X+010537Y+011487
X+009537Y+011487
X+009537Y+010487
X+008537Y+010487
X+008537Y+011487
X+007537Y+011487
X+006537Y+011487
X+005537Y+011487
X+005537Y+010487
X+004537Y+011487
X+007537Y+010487
X+010537Y+009862
X+011537Y+009862
X+012537Y+009862
X+013537Y+009862
X+013537Y+008112
X+012537Y+008112
X+011537Y+008112
X+010537Y+008112
X+010037Y+006737
X+009037Y+006737
X+008037Y+006737
X+007037Y+006737
X+011037Y+006737
X+019537Y+008112
X+020537Y+008112
X+021537Y+008112
X+022537Y+007487
X+022537Y+006487
X+021537Y+011487
X+020537Y+011487
T00
M30
