G04 DipTrace 3.0.0.2*
G04 Teensy-TC36-Breakout-chip.gbl*
%MOIN*%
G04 #@! TF.FileFunction,Copper,L2,Bot*
G04 #@! TF.Part,Single*
%AMOUTLINE0*
4,1,4,
0.03,0.025,
-0.03,0.025,
-0.03,-0.06,
0.03,-0.06,
0.03,0.025,
0*%
%AMOUTLINE1*
4,1,4,
0.03,-0.025,
-0.03,-0.025,
-0.03,0.06,
0.03,0.06,
0.03,-0.025,
0*%
G04 #@! TA.AperFunction,ViaPad*
%ADD13C,0.04*%
G04 #@! TA.AperFunction,Conductor*
%ADD14C,0.015*%
%ADD15C,0.008*%
G04 #@! TA.AperFunction,ComponentPad*
%ADD16R,0.059055X0.059055*%
%ADD17C,0.059055*%
%ADD19C,0.06194*%
%ADD34OUTLINE0*%
%ADD35OUTLINE1*%
%FSLAX26Y26*%
G04*
G70*
G90*
G75*
G01*
G04 Bottom*
%LPD*%
X1853701Y548701D2*
D13*
X1953701Y448701D1*
X2253701D2*
D14*
X2203701Y508701D1*
Y588701D1*
X2298701Y608701D1*
X2318701Y708701D1*
X2253701Y748701D1*
X2153701Y448701D2*
D13*
X2253701D1*
X2753701Y1048701D2*
D14*
X2767570Y1009739D1*
X2753701Y998701D1*
Y1248701D2*
X2801267Y1201135D1*
Y1126844D1*
X2790491Y1096491D1*
X2729725Y1022677D1*
X2753701Y986201D1*
Y1048701D2*
D13*
Y986201D1*
X853701Y1048701D2*
D15*
X903701Y1108701D1*
X898701Y1193701D1*
X863701Y1233701D1*
X858701Y1253701D1*
X843701D1*
X853701Y1248701D1*
X953701Y1048701D2*
X1003701Y1108701D1*
Y1198701D1*
X953701Y1248701D1*
X553701Y1148701D2*
D14*
Y1248701D1*
X753701Y1048701D2*
D15*
X800870Y1130402D1*
Y1198760D1*
X753701Y1248701D1*
X1553701Y448701D2*
X1503701Y523701D1*
X1508701Y608701D1*
X1918701Y748701D1*
X1927631Y771026D1*
X1935597Y790942D1*
X1953701Y811201D1*
Y783701D1*
X1927631Y771026D1*
X1948701Y763701D2*
X1935597Y790942D1*
X2048701Y753701D2*
X1928701Y708701D1*
X1603701Y603701D1*
Y523545D1*
X1653701Y448701D1*
X1753701D2*
X1702045Y520243D1*
Y606391D1*
X2138701Y748701D1*
X2139150Y751315D1*
X2142054Y768257D1*
X2153701Y811201D1*
Y778701D1*
X2142054Y768257D1*
X2148701Y758701D2*
X2139150Y751315D1*
X2353701Y448701D2*
X2302373Y518113D1*
X2307311Y582311D1*
X2353701Y628701D1*
Y777941D1*
Y811201D1*
X2653701Y986201D2*
Y1018701D1*
Y1083701D1*
X2703701Y1098701D1*
X2698701Y1188701D1*
X2653701Y1248701D1*
Y1043701D2*
Y1018701D1*
X2553701Y1248701D2*
X2598701Y1203701D1*
Y1103701D1*
X2550122Y1041496D1*
X2539610Y1028036D1*
X2553701Y986201D1*
Y1038701D2*
X2550122Y1041496D1*
X2453701Y986201D2*
Y1018701D1*
Y1088701D1*
X2508701Y1108701D1*
X2503701Y1188701D1*
X2453701Y1248701D1*
Y1043701D2*
Y1018701D1*
X2353701Y986201D2*
Y998701D1*
X2357714Y1008360D1*
X2360310Y1038860D1*
X2363701Y1078701D1*
X2403701Y1108701D1*
Y1188701D1*
X2353701Y1248701D1*
Y986201D2*
Y1013701D1*
X2360310Y1038860D1*
X2353701Y1043701D2*
X2357714D1*
Y1008360D1*
X2153701Y986201D2*
X2137082Y1001918D1*
X2125860Y1043877D1*
X2103701Y1098166D1*
Y1203701D1*
X1979801D1*
X1953701Y1248701D1*
X2153701Y986201D2*
Y1018701D1*
X2125860Y1043877D1*
X2153701Y1043701D2*
X2137082Y1001918D1*
X1853701Y1248701D2*
X1808701Y1183701D1*
Y1103701D1*
X1833701Y1098701D1*
X2053701D1*
Y1043701D1*
Y986201D1*
X1753701Y1248701D2*
X1698701Y1188701D1*
X1703701Y1148701D1*
X1708701Y1103701D1*
X1818701Y1063701D1*
X1953701Y1043701D1*
Y986201D1*
X1353701D2*
X1370562Y1007570D1*
X1377709Y1027225D1*
X1403701Y1098701D1*
X1398701Y1193701D1*
X1353701Y1248701D1*
Y986201D2*
Y1018701D1*
X1377709Y1027225D1*
X1353701Y1038701D2*
X1370562Y1007570D1*
X1253701Y986201D2*
X1270693Y1007458D1*
X1276836Y1024180D1*
X1298701Y1083701D1*
Y1193701D1*
X1253701Y1248701D1*
Y986201D2*
Y1018701D1*
X1276836Y1024180D1*
X1253701Y1038701D2*
X1270693Y1007458D1*
X1153701Y986201D2*
X1170320Y1001918D1*
X1178820Y1022744D1*
X1180862Y1027747D1*
X1203701Y1083701D1*
Y1193701D1*
X1153701Y1248701D1*
Y986201D2*
Y997625D1*
X1178820Y1022744D1*
X1153701Y986201D2*
Y1018701D1*
X1180862Y1027747D1*
X1153701Y1038701D2*
X1170320Y1001918D1*
X1053701Y986201D2*
X1069075Y1003054D1*
X1076807Y1024103D1*
X1077196Y1025159D1*
X1098701Y1083701D1*
Y1183701D1*
X1053701Y1248701D1*
Y986201D2*
Y998701D1*
X1076807Y1024103D1*
X1053701Y986201D2*
Y1018701D1*
X1077196Y1025159D1*
X1053701Y1038701D2*
X1069075Y1003054D1*
X753701Y448701D2*
X806456Y489149D1*
X801456Y589149D1*
X899452Y669452D1*
X903701Y673701D1*
X653701Y448701D2*
X703701Y518701D1*
Y598701D1*
X803701Y673701D1*
X2553701Y448701D2*
X2502801Y493701D1*
Y706890D1*
X2529433Y733523D1*
X2553221Y781458D1*
X2564760Y804714D1*
X2553701Y811201D1*
Y778701D1*
X2529433Y733523D1*
X2548701Y748701D2*
X2553221Y781458D1*
X2653701Y448701D2*
X2608701Y508701D1*
X2613701Y693701D1*
X2653701Y738701D1*
X2638210Y788759D1*
X2653701Y811201D1*
Y738701D1*
Y753701D2*
X2638210Y788759D1*
X1253701Y448701D2*
X1298701Y503701D1*
Y693767D1*
X1251727Y729547D1*
Y758610D1*
X1253701D1*
Y811201D1*
X1248701Y758701D2*
X1251727Y758610D1*
X1353701Y448701D2*
X1408701Y503701D1*
X1356138Y748870D1*
X1351736Y788483D1*
X1351138Y793870D1*
X1346457Y780079D1*
X1381004D1*
X1353701Y811201D1*
Y793701D1*
X1373059Y776469D1*
X1351138Y793870D1*
X1353701Y811201D2*
X1373059Y776469D1*
X1353701Y811201D2*
Y778701D1*
X1346457Y780079D1*
X1353701Y753701D2*
X1351736D1*
Y788483D1*
X1163701Y768701D2*
X1208701Y718701D1*
X1198701Y478701D1*
X1153701Y448701D1*
X1053701D2*
X1107168Y502168D1*
Y600983D1*
X1168694Y645487D1*
X1159377Y733608D1*
X1058062Y747597D1*
X1063502Y768320D1*
X1065378Y777200D1*
X1068865Y793701D1*
Y808320D1*
X1053701Y811201D1*
Y793701D1*
X1068865D1*
X1053701Y811201D2*
Y788877D1*
X1065378Y777200D1*
X1053701Y758701D2*
X1058062D1*
Y747597D1*
X553701Y448701D2*
X603701Y503701D1*
X623701Y663701D1*
X703701Y673701D1*
X853701Y448701D2*
D14*
X903701Y498701D1*
Y597273D1*
X999837Y652931D1*
X1003701Y673701D1*
X953701Y448701D2*
X1004983Y487219D1*
Y592722D1*
X1103701Y653327D1*
Y673701D1*
X453701Y548701D2*
D13*
Y448701D1*
X1453701Y1248701D2*
X1553701D1*
X1653701D1*
X1853701Y448701D2*
D14*
X1805631Y496771D1*
Y610168D1*
X2206904Y707428D1*
Y808393D1*
X2238858Y840347D1*
X2253701Y848701D1*
X2753701Y448701D2*
X2704423Y480559D1*
Y681498D1*
X2743701Y728701D1*
X2738701Y773701D1*
X2753701Y811201D1*
Y748701D2*
D13*
Y811201D1*
X2453701Y448701D2*
D15*
X2408701Y503701D1*
X2417563Y742015D1*
X2452423Y748146D1*
X2463982Y779966D1*
X2480962Y826714D1*
X2453701Y811201D1*
Y778701D1*
X2452423Y748146D1*
X2458701Y753701D2*
X2463982Y779966D1*
X2253701Y948701D2*
X2198701Y1033701D1*
Y1223701D1*
X2153701Y1248701D1*
X2253701Y1048701D2*
X2293701Y1113701D1*
X2303701Y1143701D1*
Y1188701D1*
X2253701Y1248701D1*
X2053701Y448701D2*
D14*
X2005343Y530719D1*
X2000343Y600719D1*
X2253701Y648701D1*
X553701Y1048701D2*
X505214Y1103683D1*
Y1197188D1*
X453701Y1248701D1*
X553701Y1048701D2*
X603701Y1108701D1*
Y1188701D1*
X653701Y1248701D1*
D13*
X2353701Y777941D3*
X1053701Y1038701D3*
X1153701D3*
X1253701D3*
X1353701D3*
Y753701D3*
X1248701Y758701D3*
X1053701D3*
X2153701Y1043701D3*
X2353701D3*
X2453701D3*
X2653701D3*
X2753701Y1048701D3*
Y748701D3*
X2653701Y753701D3*
X2548701Y748701D3*
X2458701Y753701D3*
X2148701Y758701D3*
X1948701Y763701D3*
X2553701Y1038701D3*
X1163701Y768701D3*
X2053701Y1043701D3*
X1953701D3*
X2048701Y753701D3*
D16*
X453701Y448701D3*
D17*
X553701D3*
X653701D3*
X753701D3*
X853701D3*
X953701D3*
X1053701D3*
X1153701D3*
D16*
X1253701D3*
D17*
X1353701D3*
X1453701D3*
X1553701D3*
X1653701D3*
X1753701D3*
X1853701D3*
X1953701D3*
D16*
X2053701D3*
D17*
X2153701D3*
X2253701D3*
X2353701D3*
X2453701D3*
X2553701D3*
X2653701D3*
X2753701D3*
D16*
X453701Y1248701D3*
D17*
X553701D3*
X653701D3*
X753701D3*
X853701D3*
X953701D3*
X1053701D3*
X1153701D3*
D16*
X1253701D3*
D17*
X1353701D3*
X1453701D3*
X1553701D3*
X1653701D3*
X1753701D3*
X1853701D3*
X1953701D3*
D16*
X2053701D3*
D17*
X2153701D3*
X2253701D3*
X2353701D3*
X2453701D3*
X2553701D3*
X2653701D3*
X2753701D3*
D19*
X453701Y548701D3*
X553701D3*
X653701D3*
X753701D3*
X853701D3*
X953701D3*
X1053701D3*
X1153701D3*
X1253701D3*
X1353701D3*
X1453701D3*
X1553701D3*
X1653701D3*
X1753701D3*
X2253701Y648701D3*
Y748701D3*
Y848701D3*
Y948701D3*
X2053701Y1148701D3*
X1753701D3*
X1653701D3*
X1553701D3*
X1453701D3*
X1353701D3*
X1253701D3*
X1153701D3*
X1053701D3*
X953701D3*
X853701D3*
X753701D3*
X653701D3*
X553701D3*
X453701D3*
X553701Y1048701D3*
X753701D3*
X853701D3*
X953701D3*
X2353701Y548701D3*
X2453701D3*
X2253701D3*
X2153701D3*
X2053701D3*
X1953701D3*
X2553701D3*
X2653701D3*
X2753701D3*
Y1148701D3*
X1853701Y548701D3*
X2653701Y1148701D3*
X1853701D3*
X2553701D3*
X2353701D3*
X2253701D3*
X2153701D3*
X2453701D3*
X1953701D3*
X2253701Y1048701D3*
D34*
X2753701Y811201D3*
X2653701D3*
X2553701D3*
D35*
X2753701Y986201D3*
X2653701D3*
X2553701D3*
X2453701D3*
X2353701D3*
D34*
X2453701Y811201D3*
X2353701D3*
X2153701D3*
X2053701D3*
X1953701D3*
D35*
X2153701Y986201D3*
X2053701D3*
X1953701D3*
D34*
X1353701Y811201D3*
X1253701D3*
X1153701D3*
D35*
X1353701Y986201D3*
X1253701D3*
X1153701D3*
X1053701D3*
D34*
Y811201D3*
D19*
X703701Y673701D3*
X803701D3*
X903701D3*
X1003701D3*
X1103701D3*
M02*
