G04 DipTrace Beta 2.3.5.2*
%INTeensy3.1XBreakout.gbs*%
%MOIN*%
%ADD34C,0.0591*%
%ADD39R,0.074X0.074*%
%ADD40C,0.074*%
%ADD43C,0.0489*%
%ADD45C,0.06*%
%ADD46C,0.0619*%
%ADD75C,0.068*%
%ADD81O,0.0867X0.0474*%
%ADD89C,0.1064*%
%ADD91R,0.1064X0.1064*%
%ADD95C,0.0671*%
%ADD97R,0.0671X0.0671*%
%FSLAX44Y44*%
G04*
G70*
G90*
G75*
G01*
%LNBotMask*%
%LPD*%
D97*
X23790Y25440D3*
D95*
Y24440D3*
X22790Y25440D3*
Y24440D3*
X21790Y25440D3*
Y24440D3*
X20790Y25440D3*
Y24440D3*
X19790Y25440D3*
Y24440D3*
X18790Y25440D3*
Y24440D3*
D97*
X23790Y23440D3*
D95*
X22790D3*
X21790D3*
X20790D3*
X19790D3*
X18790D3*
D97*
X9540Y25440D3*
D95*
Y24440D3*
X8540Y25440D3*
Y24440D3*
X7540Y25440D3*
Y24440D3*
D97*
X9540Y23440D3*
D95*
X8540D3*
X7540D3*
D97*
X13890Y25440D3*
D95*
X12890D3*
X11890D3*
X10890D3*
X13890Y24440D3*
X12890D3*
X11890D3*
X10890D3*
D97*
X13890Y23440D3*
D95*
X12890D3*
X11890D3*
X10890D3*
D97*
X7540Y5440D3*
D95*
Y6440D3*
X8540Y5440D3*
Y6440D3*
X9540Y5440D3*
Y6440D3*
X10540Y5440D3*
Y6440D3*
X11540Y5440D3*
Y6440D3*
X12540Y5440D3*
Y6440D3*
X13540Y5440D3*
Y6440D3*
X14540Y5440D3*
Y6440D3*
D97*
X7540Y7440D3*
D95*
X8540D3*
X9540D3*
X10540D3*
X11540D3*
X12540D3*
X13540D3*
X14540D3*
D97*
X20340Y5440D3*
D95*
Y6440D3*
X21340Y5440D3*
Y6440D3*
X22340Y5440D3*
Y6440D3*
X23340Y5440D3*
Y6440D3*
X24340Y5440D3*
Y6440D3*
X25340Y5440D3*
Y6440D3*
D97*
X20340Y7440D3*
D95*
X21340D3*
X22340D3*
X23340D3*
X24340D3*
X25340D3*
D97*
X19940Y17160D3*
D95*
Y16160D3*
Y15160D3*
Y14160D3*
D91*
X5640Y20890D3*
D89*
Y18921D3*
D97*
X15440Y9040D3*
D95*
X16440D3*
X17440D3*
X18440D3*
X19440D3*
D97*
X14940Y17740D3*
D95*
X13940D3*
X12940D3*
X11940D3*
X10940D3*
D97*
Y9040D3*
D95*
X11940D3*
D34*
X8540Y8440D3*
D39*
X25590Y25840D3*
D40*
Y24840D3*
Y23840D3*
D39*
X28190Y25840D3*
D40*
Y24840D3*
Y23840D3*
D39*
X27490Y5040D3*
D40*
Y6040D3*
Y7040D3*
D39*
X30040Y5040D3*
D40*
Y6040D3*
Y7040D3*
D97*
X16790Y23440D3*
D95*
Y24440D3*
Y25440D3*
D97*
X15790Y23440D3*
D95*
Y24440D3*
Y25440D3*
D97*
X16940Y7440D3*
D95*
Y6440D3*
D34*
Y5440D3*
D97*
X17940Y7440D3*
D95*
Y6440D3*
D34*
Y5440D3*
X7540Y8440D3*
X25590Y22840D3*
X28190D3*
X27490Y8040D3*
X30040D3*
X13540Y8440D3*
X23840Y22440D3*
X22340Y8440D3*
X21340D3*
G36*
X22572Y14533D2*
X22694Y14655D1*
Y14885D1*
X22572Y15007D1*
X21948D1*
X21826Y14885D1*
Y14655D1*
X21948Y14533D1*
X22572D1*
G37*
D81*
X22260Y15290D3*
Y15810D3*
D43*
X25556Y13990D3*
X27524D3*
X25556Y13110D3*
X27524D3*
D95*
X8790Y13320D3*
D75*
X18180Y20340D3*
D95*
X15620D3*
D45*
X23740Y20271D3*
X24527D3*
X25315D3*
X26102D3*
X26890D3*
X27677D3*
X28464D3*
X29252D3*
X30039D3*
X30827D3*
X23740Y11609D3*
X24527D3*
X25315D3*
X26102D3*
X26890D3*
X27677D3*
X28464D3*
X29252D3*
X30039D3*
X30827D3*
D46*
X5440Y10390D3*
X6440D3*
X7440D3*
X8440D3*
X9440D3*
X10440D3*
X11440D3*
X12440D3*
X13440D3*
X14440D3*
X15440D3*
X16440D3*
X17440D3*
X18440D3*
Y15390D3*
Y16390D3*
X17440D3*
X16440D3*
X15440D3*
X14440D3*
X13440D3*
X12440D3*
X11440D3*
X10440D3*
X9440D3*
X8440D3*
X7440D3*
X6440D3*
X5440D3*
X6440Y15390D3*
X8440D3*
X9440D3*
X10440D3*
X17440Y13390D3*
Y14390D3*
X16440Y13390D3*
X15440D3*
X14440D3*
X13440D3*
X16440Y14390D3*
X15440D3*
X14440D3*
X13440D3*
X12440D3*
X11440D3*
X12440Y13390D3*
X11440D3*
M02*
