G04 DipTrace Beta 2.3.5.2*
%INTeensy3.1XBreakout.gtl*%
%MOIN*%
%ADD13C,0.04*%
%ADD14C,0.008*%
%ADD15C,0.03*%
%ADD16C,0.01*%
%ADD17C,0.02*%
%ADD18C,0.055*%
%ADD19C,0.075*%
%ADD20C,0.06*%
%ADD21C,0.0394*%
%ADD22C,0.05*%
%ADD23C,0.012*%
%ADD24C,0.0591*%
%ADD29R,0.0669X0.0315*%
%ADD30R,0.0709X0.063*%
%ADD31R,0.063X0.0709*%
%ADD32R,0.063X0.1063*%
%ADD33R,0.0591X0.0591*%
%ADD34C,0.0591*%
%ADD35R,0.0591X0.0472*%
%ADD36R,0.0984X0.0984*%
%ADD37C,0.0984*%
%ADD39R,0.074X0.074*%
%ADD40C,0.074*%
%ADD41R,0.0551X0.0472*%
%ADD42O,0.0787X0.0394*%
%ADD43C,0.0489*%
%ADD44R,0.0472X0.0551*%
%ADD45C,0.06*%
%ADD46C,0.0619*%
%ADD47R,0.2X0.2*%
%ADD48R,0.05X0.05*%
%ADD50R,0.0394X0.0591*%
%ADD52C,0.165*%
%FSLAX44Y44*%
G04*
G70*
G90*
G75*
G01*
%LNTop*%
%LPD*%
X28611Y16080D2*
D13*
Y15130D1*
X29410D1*
X27042Y14930D2*
X27636D1*
Y15050D1*
X28611D1*
Y16080D1*
X9540Y24440D2*
X10290D1*
Y26290D1*
X15740D1*
Y25440D1*
X15790D1*
X30827Y20271D2*
D14*
Y21136D1*
X31131Y21440D1*
Y22440D1*
X14810Y23740D2*
D15*
Y22760D1*
X16040Y21530D1*
Y20910D1*
X19940Y17160D2*
D13*
X22530D1*
X22780Y17410D1*
X27524Y13990D2*
D14*
Y14818D1*
X27636Y14930D1*
X27524Y13990D2*
Y13110D1*
X12425Y20860D2*
D13*
X12170D1*
X11140Y21890D1*
X10091D1*
X21480Y19840D2*
Y19650D1*
X22136Y18994D1*
X23976D1*
X24802Y18168D1*
Y16890D1*
X26570Y17562D2*
X28021D1*
Y16789D1*
X26570Y17562D2*
X24802D1*
Y16890D1*
X12425Y20860D2*
Y21360D1*
X15480D1*
X15390Y21450D1*
X20320Y19490D2*
X21130D1*
X21480Y19840D1*
X10091Y21890D2*
Y22740D1*
X7740D1*
Y21940D1*
X4740D1*
Y16390D1*
X5440D1*
X17940Y5440D2*
X17094Y4594D1*
X7315D1*
X6815Y5094D1*
Y6065D1*
X6315Y6565D1*
X5290D1*
X4790Y7065D1*
Y16440D1*
X4740Y16390D1*
X20320Y19490D2*
X20170Y19340D1*
X19785D1*
X6340Y8892D2*
D16*
Y8990D1*
X6940Y9590D1*
Y14440D1*
D13*
X5140D1*
Y16090D1*
X5440Y16390D1*
X7390Y17290D2*
D16*
X7940D1*
Y16040D1*
X8090Y15890D1*
X9440D1*
Y15390D1*
X11440Y13390D2*
D14*
Y12480D1*
X9930Y10970D1*
Y10050D1*
X10940Y9040D1*
X11440Y14390D2*
Y14200D1*
X11950Y13690D1*
Y9050D1*
X11940Y9040D1*
X12940Y17740D2*
Y15770D1*
X13230Y15480D1*
X14130D1*
X15220Y14390D1*
X15440D1*
X13440Y13390D2*
Y12290D1*
X14940Y10790D1*
Y9540D1*
X15440Y9040D1*
X14440Y13390D2*
Y12380D1*
X15910Y10910D1*
Y10270D1*
X16320Y9860D1*
Y9160D1*
X16440Y9040D1*
X11940Y17740D2*
Y15530D1*
X12240Y15230D1*
X13600D1*
X14440Y14390D1*
X10940Y17740D2*
Y15850D1*
X11800Y14990D1*
X12840D1*
X13440Y14390D1*
X31090Y9271D2*
X31230D1*
Y8550D1*
X29560D1*
X29570Y8560D1*
X28900D1*
X21530Y10530D2*
X21580Y10580D1*
X20670D1*
Y11480D1*
X20460Y11690D1*
X18270D1*
X17710Y12250D1*
Y12670D1*
X18250Y13210D1*
Y13520D1*
X17870Y13900D1*
X13930D1*
X13440Y14390D1*
X16440Y10390D2*
X16530D1*
Y9940D1*
X16980Y9490D1*
Y8590D1*
X17110Y8460D1*
X20220D1*
Y9080D1*
X21880D1*
X17440Y10390D2*
D16*
Y10190D1*
X17390Y10240D1*
Y10420D1*
X17910Y10940D1*
X18900D1*
X19187Y10653D1*
Y10090D1*
X21940D1*
X23180Y8850D1*
Y8470D1*
X18440Y10390D2*
Y9820D1*
X21830D1*
X22840Y8810D1*
Y7940D1*
X23990D1*
X24300Y7630D1*
Y7400D1*
X24340Y7440D1*
X25340D2*
Y8120D1*
X25270Y8190D1*
X23840D1*
X23530Y8500D1*
Y9030D1*
X21687Y10873D1*
X20987D1*
X20940Y10920D1*
Y12010D1*
X22830D1*
Y12989D1*
X22070D1*
Y13220D1*
X21720Y13570D1*
X20904D1*
Y13470D1*
X18720D1*
X17990Y14200D1*
Y14660D1*
X17910Y14740D1*
Y16010D1*
X18190Y16290D1*
X18340D1*
X18440Y16390D1*
X23890Y22390D2*
X23840Y22440D1*
X19820Y21491D2*
X20680D1*
X21081D1*
X21990Y22400D1*
X23800D1*
X23840Y22440D1*
X25556Y13110D2*
D14*
X25160D1*
X24920Y13350D1*
Y14080D1*
X24640Y14360D1*
X23390D1*
X23070Y14040D1*
X20060D1*
X19940Y14160D1*
X18790Y23440D2*
D16*
X18740D1*
X18640Y23340D1*
X18940D1*
X18840Y23440D1*
X18790D1*
X19940Y15160D2*
D14*
X19360D1*
X19170Y15350D1*
Y16580D1*
X18870Y16880D1*
X17040D1*
X16930Y16770D1*
Y15480D1*
X16990Y15420D1*
X19940Y15160D2*
X20150D1*
X21040Y14270D1*
X22910D1*
X23260Y14620D1*
X24850D1*
X25480Y13990D1*
X25556D1*
X15440Y13390D2*
Y12290D1*
X16980Y10750D1*
Y9990D1*
X17140Y9830D1*
Y9810D1*
X17460Y9490D1*
Y9060D1*
X17440Y9040D1*
X16440Y13390D2*
Y12040D1*
X17360Y11120D1*
X19620D1*
Y11040D1*
X19710Y10950D1*
X17440Y13390D2*
Y11930D1*
X17970Y11400D1*
X19910D1*
X20010Y11300D1*
Y11150D1*
X20320D1*
X14940Y17740D2*
X14950D1*
X15890Y16800D1*
Y15940D1*
X17440Y14390D1*
X13940Y17740D2*
Y16110D1*
X14270Y15780D1*
X15050D1*
X16440Y14390D1*
X14440Y10390D2*
D16*
Y9190D1*
X15690Y7940D1*
X19840D1*
X20340Y7440D1*
X15440Y10390D2*
X15970Y9860D1*
Y8610D1*
X16410Y8170D1*
X20360D1*
X20593Y7937D1*
X20843D1*
X21340Y7440D1*
X14540Y5440D2*
D13*
Y5239D1*
X15640D1*
X23740Y20271D2*
X22582D1*
Y19840D1*
X20340Y5440D2*
X19744D1*
Y5209D1*
X19090D1*
X22260Y14770D2*
D17*
X22830D1*
X23100Y15040D1*
X23440D1*
Y14990D1*
X24780D1*
X22790Y25440D2*
D13*
X23790D1*
X20680Y20389D2*
Y20510D1*
X22180D1*
X22582Y20108D1*
Y19840D1*
X17790Y25492D2*
X18738D1*
X18790Y25440D1*
X9125Y19960D2*
Y20250D1*
X13599D1*
Y20661D1*
X8989Y21890D2*
Y20096D1*
X9125Y19960D1*
X7390Y20140D2*
D18*
X8989D1*
D13*
Y21890D1*
X5640Y20890D2*
D19*
X6640D1*
X7390Y20140D1*
X13890Y25440D2*
D13*
X14690D1*
X14840Y25590D1*
X5440Y10390D2*
Y9021D1*
X5390Y8971D1*
X18610Y12230D2*
D20*
X19748D1*
Y12460D1*
X22400D1*
X18790Y25440D2*
D13*
X17842D1*
X17790Y25492D1*
X28350Y18550D2*
D16*
X27858D1*
X27108Y19300D1*
X28350Y18550D2*
X28460D1*
X29540Y19630D1*
X30860D1*
X31050Y19440D1*
Y19221D1*
X31131Y19140D1*
X22860Y16720D2*
D13*
Y16520D1*
X20300D1*
X19940Y16160D1*
X25940Y14930D2*
Y15830D1*
X26570Y16460D1*
X27050D1*
D21*
X27430Y16080D1*
X25940Y14930D2*
D13*
Y14990D1*
X24780D1*
X6360Y23899D2*
D14*
Y24260D1*
X7540Y25440D1*
X28961Y10240D2*
D16*
Y9770D1*
Y9240D1*
Y9770D2*
X29350D1*
X28961Y9240D2*
D13*
X30018D1*
X30060Y9198D1*
X13890Y24440D2*
D22*
X15790D1*
X13890D2*
D13*
X14792D1*
X14840Y24488D1*
X24810Y15810D2*
D16*
Y15830D1*
X23750Y16890D1*
X23700D1*
X23740D2*
Y18060D1*
X23169Y18631D1*
X19859D1*
X18850Y19640D1*
X29949Y19140D2*
D14*
Y18301D1*
X30180Y18070D1*
X29078D2*
X27390D1*
X26570Y18890D1*
Y19951D1*
X26890Y20271D1*
X29949Y21440D2*
X29140D1*
X29110Y21470D1*
X5390Y7790D2*
D16*
X6340D1*
X27490Y7040D2*
D23*
X30040D1*
X26502Y9350D2*
X26430D1*
Y8120D1*
X26410D1*
X27490Y7040D1*
X26502Y9350D2*
D14*
X27709D1*
X27819Y9240D1*
X8540Y8440D2*
D16*
X12540D1*
X12985Y7995D1*
Y7085D1*
X13185Y6885D1*
X25840D1*
Y8850D1*
X25400Y9290D1*
Y9350D1*
X24940Y8600D2*
D14*
Y10350D1*
X25388D1*
X25408Y10330D1*
X27490Y8040D2*
D16*
X30040D1*
X21550Y11450D2*
X21830D1*
X23870Y9410D1*
Y9240D1*
X24130Y8980D1*
X24690D1*
Y10890D1*
X25950D1*
X26510Y10330D1*
D14*
X27729D1*
X27819Y10240D1*
Y10600D1*
X28310D1*
Y8090D1*
X30090D1*
X30040Y8040D1*
X8790Y13320D2*
Y13800D1*
X6950Y15640D1*
Y17350D1*
X6800Y17500D1*
X5970D1*
X5780Y17310D1*
X5710Y22560D2*
X6360D1*
X30060Y10300D2*
X30780D1*
X31090Y10610D1*
X21540Y13180D2*
D13*
Y13130D1*
X18840D1*
X18610Y12900D1*
X18500D1*
X14540Y6440D2*
X15541D1*
X15640Y6341D1*
X16841D1*
X16940Y6440D1*
X23980Y13892D2*
D16*
Y13680D1*
X23930Y13630D1*
X22792D1*
X23708Y15810D2*
X22260D1*
X23708D2*
X23250D1*
Y17940D1*
X22890Y18300D1*
X19420D1*
X18180Y19540D1*
Y20340D1*
X18530Y14360D2*
X19240Y13650D1*
X20426D1*
Y13790D1*
X22110D1*
X22630Y13270D1*
X22858D1*
Y13290D1*
X23390D1*
X23890Y12790D1*
X23980D1*
X12440Y12530D2*
X12940D1*
Y8840D1*
X13340Y8440D1*
X13540D1*
X28210Y19300D2*
D14*
X28590D1*
X28930Y19640D1*
Y19949D1*
X29252Y20271D1*
Y20428D1*
X28940Y20740D1*
X26788D1*
X26058Y21470D1*
X25610D1*
X25400Y21680D1*
X22450Y11580D2*
X22180D1*
X21960Y11800D1*
X21220D1*
Y11110D1*
X21730D1*
X24300Y8540D1*
X27160Y21470D2*
Y21680D1*
X27620Y22140D1*
X29940D1*
Y22449D1*
X29949Y22440D1*
X30039Y20271D2*
Y20751D1*
X29810Y20980D1*
X28498D1*
X28008Y21470D1*
X30120Y20290D2*
D16*
X30101Y20271D1*
X30039D1*
X28750Y12730D2*
D14*
Y12220D1*
X23170D1*
D16*
Y11170D1*
X23363Y10977D1*
X24240D1*
Y9350D1*
X24280Y9310D1*
X20340Y6440D2*
D13*
X19219D1*
X19090Y6311D1*
X18069D1*
X17940Y6440D1*
X17790Y24390D2*
X18740D1*
X18790Y24440D1*
X15790Y23440D2*
D19*
X16200D1*
X16760Y22880D1*
Y19370D1*
X13599D1*
X13139D1*
Y18960D1*
X12425D1*
X10830D1*
X10210Y18340D1*
X6469D1*
X6119Y18690D1*
D20*
Y18443D1*
X5640Y18921D1*
X22020Y21660D2*
X24380D1*
X24720Y22000D1*
Y24840D1*
X25590D1*
X13599Y19559D2*
Y19370D1*
X12425Y19060D2*
Y18960D1*
X15790Y23440D2*
D24*
X16790D1*
D16*
Y20810D1*
X19820D1*
Y20389D1*
D13*
X14810Y23740D3*
X16040Y20910D3*
X22780Y17410D3*
X15390Y21450D3*
X20320Y19490D3*
D3*
X28900Y8560D3*
X21530Y10530D3*
X21880Y9080D3*
X23180Y8470D3*
X16990Y15420D3*
X19710Y10950D3*
X20320Y11150D3*
D22*
X24780Y14990D3*
X18610Y12230D3*
X22400Y12460D3*
D13*
X22860Y16720D3*
D22*
X24780Y14990D3*
D13*
X29350Y9770D3*
X18850Y19640D3*
X24940Y8600D3*
X21550Y11450D3*
X5780Y17310D3*
X5710Y22560D3*
X22792Y13630D3*
X25400Y21680D3*
X22450Y11580D3*
X24300Y8540D3*
X28750Y12730D3*
D22*
X22020Y21660D3*
X16760Y19370D3*
D52*
X32540Y5440D3*
X5540D3*
Y25440D3*
X32540D3*
D22*
X7390Y20140D3*
D13*
X28350Y18550D3*
X29410Y15130D3*
X18500Y12900D3*
X21540Y13180D3*
X7390Y17290D3*
X18530Y14360D3*
X12440Y12530D3*
X24280Y9310D3*
X19785Y19340D3*
D29*
X31090Y10610D3*
Y9271D3*
D30*
X17790Y25492D3*
Y24390D3*
X14840Y25590D3*
Y24488D3*
X15640Y5239D3*
Y6341D3*
X26570Y16460D3*
Y17562D3*
X19090Y5209D3*
Y6311D3*
D31*
X22582Y19840D3*
X21480D3*
X25940Y14930D3*
X27042D3*
D32*
X10091Y21890D3*
X8989D3*
D30*
X13599Y19559D3*
Y20661D3*
D33*
X23790Y25440D3*
D34*
Y24440D3*
X22790Y25440D3*
Y24440D3*
X21790Y25440D3*
Y24440D3*
X20790Y25440D3*
Y24440D3*
X19790Y25440D3*
Y24440D3*
X18790Y25440D3*
Y24440D3*
D33*
X23790Y23440D3*
D34*
X22790D3*
X21790D3*
X20790D3*
X19790D3*
X18790D3*
D33*
X9540Y25440D3*
D34*
Y24440D3*
X8540Y25440D3*
Y24440D3*
X7540Y25440D3*
Y24440D3*
D33*
X9540Y23440D3*
D34*
X8540D3*
X7540D3*
D33*
X13890Y25440D3*
D34*
X12890D3*
X11890D3*
X10890D3*
X13890Y24440D3*
X12890D3*
X11890D3*
X10890D3*
D33*
X13890Y23440D3*
D34*
X12890D3*
X11890D3*
X10890D3*
D33*
X7540Y5440D3*
D34*
Y6440D3*
X8540Y5440D3*
Y6440D3*
X9540Y5440D3*
Y6440D3*
X10540Y5440D3*
Y6440D3*
X11540Y5440D3*
Y6440D3*
X12540Y5440D3*
Y6440D3*
X13540Y5440D3*
Y6440D3*
X14540Y5440D3*
Y6440D3*
D33*
X7540Y7440D3*
D34*
X8540D3*
X9540D3*
X10540D3*
X11540D3*
X12540D3*
X13540D3*
X14540D3*
D33*
X20340Y5440D3*
D34*
Y6440D3*
X21340Y5440D3*
Y6440D3*
X22340Y5440D3*
Y6440D3*
X23340Y5440D3*
Y6440D3*
X24340Y5440D3*
Y6440D3*
X25340Y5440D3*
Y6440D3*
D33*
X20340Y7440D3*
D34*
X21340D3*
X22340D3*
X23340D3*
X24340D3*
X25340D3*
D31*
X24810Y15810D3*
X23708D3*
D35*
X27819Y9240D3*
X28961D3*
X27819Y10240D3*
X28961D3*
D33*
X19940Y17160D3*
D34*
Y16160D3*
Y15160D3*
Y14160D3*
D36*
X5640Y20890D3*
D37*
Y18921D3*
D33*
X15440Y9040D3*
D34*
X16440D3*
X17440D3*
X18440D3*
X19440D3*
D33*
X14940Y17740D3*
D34*
X13940D3*
X12940D3*
X11940D3*
X10940D3*
D33*
Y9040D3*
D34*
X11940D3*
X8540Y8440D3*
D39*
X25590Y25840D3*
D40*
Y24840D3*
Y23840D3*
D39*
X28190Y25840D3*
D40*
Y24840D3*
Y23840D3*
D39*
X27490Y5040D3*
D40*
Y6040D3*
Y7040D3*
D39*
X30040Y5040D3*
D40*
Y6040D3*
Y7040D3*
D33*
X16790Y23440D3*
D34*
Y24440D3*
Y25440D3*
D33*
X15790Y23440D3*
D34*
Y24440D3*
Y25440D3*
D33*
X16940Y7440D3*
D34*
Y6440D3*
Y5440D3*
D33*
X17940Y7440D3*
D34*
Y6440D3*
Y5440D3*
X7540Y8440D3*
X25590Y22840D3*
X28190D3*
X27490Y8040D3*
X30040D3*
X13540Y8440D3*
X23840Y22440D3*
X22340Y8440D3*
X21340D3*
D41*
X5390Y7790D3*
Y8971D3*
G36*
X22555Y14573D2*
X22654Y14672D1*
Y14868D1*
X22555Y14967D1*
X21965D1*
X21866Y14868D1*
Y14672D1*
X21965Y14573D1*
X22555D1*
G37*
D42*
X22260Y15290D3*
Y15810D3*
D30*
X19820Y20389D3*
Y21491D3*
X20680D3*
Y20389D3*
X23980Y12790D3*
Y13892D3*
D31*
X26502Y9350D3*
X25400D3*
D30*
X6340Y8892D3*
Y7790D3*
D31*
X23700Y16890D3*
X24802D3*
X29110Y21470D3*
X28008D3*
X30180Y18070D3*
X29078D3*
X27160Y21470D3*
X26058D3*
X28210Y19300D3*
X27108D3*
D43*
X25556Y13990D3*
X27524D3*
X25556Y13110D3*
X27524D3*
D31*
X26510Y10330D3*
X25408D3*
D30*
X30060Y10300D3*
Y9198D3*
D34*
X8790Y13320D3*
D44*
X29949Y19140D3*
X31131D3*
D29*
X6360Y22560D3*
Y23899D3*
D44*
X31131Y22440D3*
X29949D3*
D20*
X18180Y20340D3*
D34*
X15620D3*
D44*
X31131Y21440D3*
X29949D3*
D45*
X23740Y20271D3*
X24527D3*
X25315D3*
X26102D3*
X26890D3*
X27677D3*
X28464D3*
X29252D3*
X30039D3*
X30827D3*
X23740Y11609D3*
X24527D3*
X25315D3*
X26102D3*
X26890D3*
X27677D3*
X28464D3*
X29252D3*
X30039D3*
X30827D3*
D46*
X5440Y10390D3*
X6440D3*
X7440D3*
X8440D3*
X9440D3*
X10440D3*
X11440D3*
X12440D3*
X13440D3*
X14440D3*
X15440D3*
X16440D3*
X17440D3*
X18440D3*
Y15390D3*
Y16390D3*
X17440D3*
X16440D3*
X15440D3*
X14440D3*
X13440D3*
X12440D3*
X11440D3*
X10440D3*
X9440D3*
X8440D3*
X7440D3*
X6440D3*
X5440D3*
X6440Y15390D3*
X8440D3*
X9440D3*
X10440D3*
X17440Y13390D3*
Y14390D3*
X16440Y13390D3*
X15440D3*
X14440D3*
X13440D3*
X16440Y14390D3*
X15440D3*
X14440D3*
X13440D3*
X12440D3*
X11440D3*
X12440Y13390D3*
X11440D3*
D47*
X9125Y19960D3*
D48*
X12425Y20860D3*
Y19060D3*
D50*
X27430Y16080D3*
G36*
X28217Y15785D2*
Y16454D1*
X28454Y16690D1*
Y17556D1*
X28217Y17793D1*
X27824D1*
X27587Y17556D1*
Y16690D1*
X27824Y16454D1*
Y15785D1*
X28217D1*
G37*
D50*
X28611Y16080D3*
M02*
