G04 DipTrace Beta 2.3.5.2*
%INTeensy3.1XBreakout.gbo*%
%MOIN*%
%ADD107C,0.0062*%
%ADD108C,0.0077*%
%ADD109C,0.0124*%
%ADD110C,0.0046*%
%FSLAX44Y44*%
G04*
G70*
G90*
G75*
G01*
%LNBotSilk*%
%LPD*%
X7436Y4673D2*
D108*
X7508Y4650D1*
X7556Y4578D1*
X7580Y4458D1*
Y4387D1*
X7556Y4267D1*
X7508Y4195D1*
X7436Y4172D1*
X7389D1*
X7317Y4195D1*
X7269Y4267D1*
X7245Y4387D1*
Y4458D1*
X7269Y4578D1*
X7317Y4650D1*
X7389Y4673D1*
X7436D1*
X7269Y4578D2*
X7556Y4267D1*
X8500Y4583D2*
X8452Y4607D1*
X8380Y4678D1*
Y4177D1*
X9591Y4564D2*
Y4588D1*
X9567Y4636D1*
X9543Y4660D1*
X9495Y4683D1*
X9399D1*
X9352Y4660D1*
X9328Y4636D1*
X9304Y4588D1*
Y4540D1*
X9328Y4492D1*
X9376Y4421D1*
X9615Y4182D1*
X9280D1*
X10522Y4693D2*
X10259D1*
X10402Y4502D1*
X10331D1*
X10283Y4478D1*
X10259Y4455D1*
X10235Y4383D1*
Y4335D1*
X10259Y4263D1*
X10307Y4215D1*
X10379Y4192D1*
X10451D1*
X10522Y4215D1*
X10546Y4240D1*
X10570Y4287D1*
X11389Y4172D2*
Y4673D1*
X11629Y4339D1*
X11270D1*
X12333Y4673D2*
X12572D1*
X12596Y4458D1*
X12572Y4482D1*
X12500Y4507D1*
X12429D1*
X12357Y4482D1*
X12309Y4435D1*
X12285Y4363D1*
Y4315D1*
X12309Y4243D1*
X12357Y4195D1*
X12429Y4172D1*
X12500D1*
X12572Y4195D1*
X12596Y4220D1*
X12620Y4267D1*
X13294Y4602D2*
X13318Y4650D1*
X13389Y4673D1*
X13437D1*
X13509Y4650D1*
X13557Y4578D1*
X13581Y4458D1*
Y4339D1*
X13557Y4243D1*
X13509Y4195D1*
X13437Y4172D1*
X13413D1*
X13342Y4195D1*
X13294Y4243D1*
X13270Y4315D1*
Y4339D1*
X13294Y4411D1*
X13342Y4458D1*
X13413Y4482D1*
X13437D1*
X13509Y4458D1*
X13557Y4411D1*
X13581Y4339D1*
X14514Y4182D2*
X14275Y4683D1*
X14610D1*
X33021Y8453D2*
X32519D1*
X33021Y8788D2*
X32686Y8453D1*
X32806Y8572D2*
X32519Y8788D1*
X32854Y8942D2*
X32615D1*
X32543Y8966D1*
X32519Y9014D1*
Y9086D1*
X32543Y9133D1*
X32615Y9205D1*
X32854D2*
X32519D1*
X32854Y9360D2*
X32519D1*
X32710D2*
X32782Y9384D1*
X32830Y9431D1*
X32854Y9479D1*
Y9551D1*
X33021Y9778D2*
X32615D1*
X32543Y9801D1*
X32519Y9849D1*
Y9897D1*
X32854Y9706D2*
Y9873D1*
X33021Y10171D2*
X32877Y10051D1*
X32997Y10195D1*
X33021Y10171D1*
X32782Y10612D2*
X32830Y10589D1*
X32854Y10517D1*
Y10445D1*
X32830Y10373D1*
X32782Y10349D1*
X32734Y10373D1*
X32710Y10421D1*
X32686Y10541D1*
X32663Y10589D1*
X32615Y10612D1*
X32591D1*
X32543Y10589D1*
X32519Y10517D1*
Y10445D1*
X32543Y10373D1*
X32591Y10349D1*
X33021Y11420D2*
X32519D1*
X33021Y11253D2*
Y11588D1*
X32710Y11742D2*
Y12029D1*
X32758D1*
X32806Y12005D1*
X32830Y11982D1*
X32854Y11933D1*
Y11862D1*
X32830Y11814D1*
X32782Y11766D1*
X32710Y11742D1*
X32663D1*
X32591Y11766D1*
X32543Y11814D1*
X32519Y11862D1*
Y11933D1*
X32543Y11982D1*
X32591Y12029D1*
X32710Y12183D2*
Y12470D1*
X32758D1*
X32806Y12447D1*
X32830Y12423D1*
X32854Y12375D1*
Y12303D1*
X32830Y12255D1*
X32782Y12207D1*
X32710Y12183D1*
X32663D1*
X32591Y12207D1*
X32543Y12255D1*
X32519Y12303D1*
Y12375D1*
X32543Y12423D1*
X32591Y12470D1*
X32854Y12625D2*
X32519D1*
X32758D2*
X32830Y12697D1*
X32854Y12745D1*
Y12816D1*
X32830Y12864D1*
X32758Y12888D1*
X32519D1*
X32782Y13305D2*
X32830Y13281D1*
X32854Y13210D1*
Y13138D1*
X32830Y13066D1*
X32782Y13042D1*
X32734Y13066D1*
X32710Y13114D1*
X32686Y13233D1*
X32663Y13281D1*
X32615Y13305D1*
X32591D1*
X32543Y13281D1*
X32519Y13210D1*
Y13138D1*
X32543Y13066D1*
X32591Y13042D1*
X32854Y13484D2*
X32519Y13627D1*
X32423Y13580D1*
X32375Y13532D1*
X32351Y13484D1*
Y13460D1*
X32854Y13771D2*
X32519Y13627D1*
X33021Y14459D2*
Y14722D1*
X32830Y14579D1*
Y14651D1*
X32806Y14698D1*
X32782Y14722D1*
X32710Y14746D1*
X32663D1*
X32591Y14722D1*
X32543Y14674D1*
X32519Y14602D1*
Y14531D1*
X32543Y14459D1*
X32567Y14436D1*
X32615Y14411D1*
X32567Y14924D2*
X32543Y14901D1*
X32519Y14924D1*
X32543Y14949D1*
X32567Y14924D1*
X32925Y15103D2*
X32949Y15151D1*
X33021Y15223D1*
X32519D1*
X33021Y15863D2*
X32519D1*
Y16079D1*
X32543Y16151D1*
X32567Y16175D1*
X32615Y16198D1*
X32686D1*
X32734Y16175D1*
X32758Y16151D1*
X32782Y16079D1*
X32806Y16151D1*
X32830Y16175D1*
X32878Y16198D1*
X32926D1*
X32973Y16175D1*
X32998Y16151D1*
X33021Y16079D1*
Y15863D1*
X32782D2*
Y16079D1*
X32854Y16353D2*
X32519D1*
X32710D2*
X32782Y16377D1*
X32830Y16425D1*
X32854Y16473D1*
Y16544D1*
X32710Y16699D2*
Y16986D1*
X32758D1*
X32806Y16962D1*
X32830Y16938D1*
X32854Y16890D1*
Y16818D1*
X32830Y16771D1*
X32782Y16723D1*
X32710Y16699D1*
X32663D1*
X32591Y16723D1*
X32543Y16771D1*
X32519Y16818D1*
Y16890D1*
X32543Y16938D1*
X32591Y16986D1*
X32854Y17427D2*
X32519D1*
X32782D2*
X32830Y17379D1*
X32854Y17331D1*
Y17260D1*
X32830Y17212D1*
X32782Y17164D1*
X32710Y17140D1*
X32663D1*
X32591Y17164D1*
X32543Y17212D1*
X32519Y17260D1*
Y17331D1*
X32543Y17379D1*
X32591Y17427D1*
X33021Y17581D2*
X32519D1*
X32854Y17821D2*
X32615Y17581D1*
X32710Y17677D2*
X32519Y17844D1*
X32854Y18118D2*
X32830Y18071D1*
X32782Y18023D1*
X32710Y17999D1*
X32663D1*
X32591Y18023D1*
X32543Y18071D1*
X32519Y18118D1*
Y18190D1*
X32543Y18238D1*
X32591Y18286D1*
X32663Y18310D1*
X32710D1*
X32782Y18286D1*
X32830Y18238D1*
X32854Y18190D1*
Y18118D1*
Y18464D2*
X32615D1*
X32543Y18488D1*
X32519Y18536D1*
Y18608D1*
X32543Y18656D1*
X32615Y18727D1*
X32854D2*
X32519D1*
X33021Y18954D2*
X32615D1*
X32543Y18977D1*
X32519Y19026D1*
Y19073D1*
X32854Y18882D2*
Y19049D1*
X33021Y19713D2*
X32519D1*
Y19929D1*
X32543Y20001D1*
X32567Y20025D1*
X32615Y20048D1*
X32686D1*
X32734Y20025D1*
X32758Y20001D1*
X32782Y19929D1*
X32806Y20001D1*
X32830Y20025D1*
X32878Y20048D1*
X32926D1*
X32973Y20025D1*
X32998Y20001D1*
X33021Y19929D1*
Y19713D1*
X32782D2*
Y19929D1*
X32854Y20322D2*
X32830Y20275D1*
X32782Y20227D1*
X32710Y20203D1*
X32663D1*
X32591Y20227D1*
X32543Y20275D1*
X32519Y20322D1*
Y20394D1*
X32543Y20442D1*
X32591Y20490D1*
X32663Y20514D1*
X32710D1*
X32782Y20490D1*
X32830Y20442D1*
X32854Y20394D1*
Y20322D1*
Y20955D2*
X32519D1*
X32782D2*
X32830Y20908D1*
X32854Y20860D1*
Y20788D1*
X32830Y20740D1*
X32782Y20693D1*
X32710Y20668D1*
X32663D1*
X32591Y20693D1*
X32543Y20740D1*
X32519Y20788D1*
Y20860D1*
X32543Y20908D1*
X32591Y20955D1*
X32854Y21110D2*
X32519D1*
X32710D2*
X32782Y21134D1*
X32830Y21181D1*
X32854Y21230D1*
Y21301D1*
X33021Y21743D2*
X32519D1*
X32782D2*
X32830Y21695D1*
X32854Y21647D1*
Y21575D1*
X32830Y21528D1*
X32782Y21480D1*
X32710Y21456D1*
X32663D1*
X32591Y21480D1*
X32543Y21528D1*
X32519Y21575D1*
Y21647D1*
X32543Y21695D1*
X32591Y21743D1*
X20355Y4908D2*
X20426Y4885D1*
X20451Y4837D1*
Y4789D1*
X20426Y4742D1*
X20379Y4717D1*
X20283Y4693D1*
X20211Y4670D1*
X20164Y4622D1*
X20140Y4574D1*
Y4502D1*
X20164Y4455D1*
X20188Y4430D1*
X20259Y4407D1*
X20355D1*
X20426Y4430D1*
X20451Y4455D1*
X20474Y4502D1*
Y4574D1*
X20451Y4622D1*
X20403Y4670D1*
X20331Y4693D1*
X20236Y4717D1*
X20188Y4742D1*
X20164Y4789D1*
Y4837D1*
X20188Y4885D1*
X20259Y4908D1*
X20355D1*
X21180Y4732D2*
X21204Y4660D1*
X21252Y4612D1*
X21324Y4588D1*
X21347D1*
X21419Y4612D1*
X21467Y4660D1*
X21491Y4732D1*
Y4755D1*
X21467Y4827D1*
X21419Y4875D1*
X21347Y4898D1*
X21324D1*
X21252Y4875D1*
X21204Y4827D1*
X21180Y4732D1*
Y4612D1*
X21204Y4492D1*
X21252Y4420D1*
X21324Y4397D1*
X21371D1*
X21443Y4420D1*
X21467Y4468D1*
X22624Y4808D2*
X22576Y4832D1*
X22504Y4903D1*
Y4402D1*
X22206Y4903D2*
X22278Y4880D1*
X22326Y4808D1*
X22350Y4688D1*
Y4617D1*
X22326Y4497D1*
X22278Y4425D1*
X22206Y4402D1*
X22159D1*
X22087Y4425D1*
X22039Y4497D1*
X22015Y4617D1*
Y4688D1*
X22039Y4808D1*
X22087Y4880D1*
X22159Y4903D1*
X22206D1*
X22039Y4808D2*
X22326Y4497D1*
X23539Y4803D2*
X23491Y4827D1*
X23419Y4898D1*
Y4397D1*
X23265Y4803D2*
X23217Y4827D1*
X23145Y4898D1*
Y4397D1*
X24639Y4798D2*
X24591Y4822D1*
X24519Y4893D1*
Y4392D1*
X24341Y4774D2*
Y4798D1*
X24317Y4846D1*
X24293Y4870D1*
X24245Y4893D1*
X24149D1*
X24102Y4870D1*
X24078Y4846D1*
X24054Y4798D1*
Y4750D1*
X24078Y4702D1*
X24126Y4631D1*
X24365Y4392D1*
X24030D1*
X25629Y4813D2*
X25581Y4837D1*
X25509Y4908D1*
Y4407D1*
X25307Y4908D2*
X25044D1*
X25187Y4717D1*
X25116D1*
X25068Y4693D1*
X25044Y4670D1*
X25020Y4598D1*
Y4550D1*
X25044Y4478D1*
X25092Y4430D1*
X25164Y4407D1*
X25236D1*
X25307Y4430D1*
X25331Y4455D1*
X25355Y4502D1*
X5292Y18021D2*
D109*
X4604D1*
X4948Y17677D2*
Y18366D1*
X4849Y22197D2*
X5291D1*
X23708Y26634D2*
D108*
X23516Y26131D1*
X23325Y26634D1*
X23397Y26466D2*
X23636D1*
X24006Y26132D2*
X23934Y26156D1*
X23886Y26228D1*
X23862Y26347D1*
Y26419D1*
X23886Y26538D1*
X23934Y26610D1*
X24006Y26634D1*
X24054D1*
X24125Y26610D1*
X24173Y26538D1*
X24197Y26419D1*
Y26347D1*
X24173Y26228D1*
X24125Y26156D1*
X24054Y26132D1*
X24006D1*
X24173Y26228D2*
X23886Y26538D1*
X22577Y26228D2*
X22625Y26203D1*
X22697Y26132D1*
Y26634D1*
X21537Y26251D2*
Y26228D1*
X21560Y26179D1*
X21584Y26156D1*
X21632Y26132D1*
X21728D1*
X21775Y26156D1*
X21799Y26179D1*
X21824Y26228D1*
Y26275D1*
X21799Y26323D1*
X21752Y26394D1*
X21512Y26634D1*
X21847D1*
X20560Y26132D2*
X20823D1*
X20680Y26323D1*
X20752D1*
X20799Y26347D1*
X20823Y26371D1*
X20847Y26443D1*
Y26490D1*
X20823Y26562D1*
X20775Y26610D1*
X20704Y26634D1*
X20632D1*
X20560Y26610D1*
X20537Y26586D1*
X20512Y26538D1*
X19778Y26634D2*
Y26132D1*
X19539Y26466D1*
X19897D1*
X18799Y26132D2*
X18560D1*
X18537Y26347D1*
X18560Y26323D1*
X18632Y26299D1*
X18704D1*
X18775Y26323D1*
X18824Y26371D1*
X18847Y26443D1*
Y26490D1*
X18824Y26562D1*
X18775Y26610D1*
X18704Y26634D1*
X18632D1*
X18560Y26610D1*
X18537Y26586D1*
X18512Y26538D1*
X13792Y26624D2*
X13601Y26121D1*
X13409Y26624D1*
X13481Y26456D2*
X13720D1*
X14234Y26193D2*
X14210Y26146D1*
X14138Y26122D1*
X14090D1*
X14019Y26146D1*
X13970Y26218D1*
X13947Y26337D1*
Y26456D1*
X13970Y26552D1*
X14019Y26600D1*
X14090Y26624D1*
X14114D1*
X14185Y26600D1*
X14234Y26552D1*
X14257Y26480D1*
Y26456D1*
X14234Y26384D1*
X14185Y26337D1*
X14114Y26313D1*
X14090D1*
X14019Y26337D1*
X13970Y26384D1*
X13947Y26456D1*
X12718Y26624D2*
X12957Y26122D1*
X12622D1*
X11842Y26072D2*
X11771Y26096D1*
X11747Y26143D1*
Y26191D1*
X11771Y26239D1*
X11819Y26263D1*
X11914Y26287D1*
X11986Y26311D1*
X12034Y26359D1*
X12057Y26406D1*
Y26478D1*
X12034Y26526D1*
X12010Y26550D1*
X11938Y26574D1*
X11842D1*
X11771Y26550D1*
X11747Y26526D1*
X11723Y26478D1*
Y26406D1*
X11747Y26359D1*
X11795Y26311D1*
X11866Y26287D1*
X11962Y26263D1*
X12010Y26239D1*
X12034Y26191D1*
Y26143D1*
X12010Y26096D1*
X11938Y26072D1*
X11842D1*
X10957Y26289D2*
X10933Y26361D1*
X10885Y26409D1*
X10814Y26433D1*
X10790D1*
X10718Y26409D1*
X10670Y26361D1*
X10646Y26289D1*
Y26265D1*
X10670Y26193D1*
X10718Y26146D1*
X10790Y26122D1*
X10814D1*
X10885Y26146D1*
X10933Y26193D1*
X10957Y26289D1*
Y26409D1*
X10933Y26528D1*
X10885Y26600D1*
X10814Y26624D1*
X10766D1*
X10694Y26600D1*
X10670Y26552D1*
X9348Y26218D2*
X9396Y26193D1*
X9468Y26122D1*
Y26624D1*
X9766Y26122D2*
X9694Y26146D1*
X9646Y26218D1*
X9622Y26337D1*
Y26409D1*
X9646Y26528D1*
X9694Y26600D1*
X9766Y26624D1*
X9814D1*
X9885Y26600D1*
X9933Y26528D1*
X9957Y26409D1*
Y26337D1*
X9933Y26218D1*
X9885Y26146D1*
X9814Y26122D1*
X9766D1*
X9933Y26218D2*
X9646Y26528D1*
X8463Y26218D2*
X8511Y26193D1*
X8583Y26122D1*
Y26624D1*
X8737Y26218D2*
X8785Y26193D1*
X8857Y26122D1*
Y26624D1*
X7324Y26218D2*
X7372Y26193D1*
X7444Y26122D1*
Y26624D1*
X7838D2*
Y26122D1*
X7599Y26456D1*
X7957D1*
X14604Y18403D2*
D107*
Y18384D1*
X14623Y18346D1*
X14642Y18327D1*
X14681Y18308D1*
X14757D1*
X14795Y18327D1*
X14814Y18346D1*
X14834Y18384D1*
Y18422D1*
X14814Y18461D1*
X14776Y18518D1*
X14585Y18709D1*
X14853D1*
X15225Y18441D2*
X15206Y18499D1*
X15168Y18537D1*
X15110Y18556D1*
X15091D1*
X15034Y18537D1*
X14996Y18499D1*
X14976Y18441D1*
Y18422D1*
X14996Y18365D1*
X15034Y18327D1*
X15091Y18308D1*
X15110D1*
X15168Y18327D1*
X15206Y18365D1*
X15225Y18441D1*
Y18537D1*
X15206Y18633D1*
X15168Y18690D1*
X15110Y18709D1*
X15072D1*
X15015Y18690D1*
X14996Y18652D1*
X13644Y18298D2*
X13854D1*
X13740Y18451D1*
X13797D1*
X13835Y18470D1*
X13854Y18489D1*
X13874Y18546D1*
Y18584D1*
X13854Y18642D1*
X13816Y18680D1*
X13759Y18699D1*
X13701D1*
X13644Y18680D1*
X13625Y18661D1*
X13606Y18623D1*
X14112Y18298D2*
X14055Y18317D1*
X14016Y18374D1*
X13997Y18470D1*
Y18527D1*
X14016Y18623D1*
X14055Y18680D1*
X14112Y18699D1*
X14150D1*
X14208Y18680D1*
X14246Y18623D1*
X14265Y18527D1*
Y18470D1*
X14246Y18374D1*
X14208Y18317D1*
X14150Y18298D1*
X14112D1*
X14246Y18374D2*
X14016Y18623D1*
X12736Y18298D2*
X12946D1*
X12832Y18451D1*
X12889D1*
X12927Y18470D1*
X12946Y18489D1*
X12966Y18546D1*
Y18584D1*
X12946Y18642D1*
X12908Y18680D1*
X12851Y18699D1*
X12793D1*
X12736Y18680D1*
X12717Y18661D1*
X12698Y18623D1*
X13089Y18374D2*
X13128Y18355D1*
X13185Y18298D1*
Y18699D1*
X11684Y18288D2*
X11894D1*
X11780Y18441D1*
X11837D1*
X11875Y18460D1*
X11894Y18479D1*
X11914Y18536D1*
Y18574D1*
X11894Y18632D1*
X11856Y18670D1*
X11799Y18689D1*
X11741D1*
X11684Y18670D1*
X11665Y18651D1*
X11646Y18613D1*
X12057Y18383D2*
Y18364D1*
X12076Y18326D1*
X12095Y18307D1*
X12133Y18288D1*
X12210D1*
X12248Y18307D1*
X12267Y18326D1*
X12286Y18364D1*
Y18402D1*
X12267Y18441D1*
X12229Y18498D1*
X12037Y18689D1*
X12305D1*
X10634Y18298D2*
X10844D1*
X10730Y18451D1*
X10787D1*
X10825Y18470D1*
X10844Y18489D1*
X10864Y18546D1*
Y18584D1*
X10844Y18642D1*
X10806Y18680D1*
X10749Y18699D1*
X10691D1*
X10634Y18680D1*
X10615Y18661D1*
X10596Y18623D1*
X11026Y18298D2*
X11236D1*
X11121Y18451D1*
X11179D1*
X11217Y18470D1*
X11236Y18489D1*
X11255Y18546D1*
Y18584D1*
X11236Y18642D1*
X11198Y18680D1*
X11140Y18699D1*
X11083D1*
X11026Y18680D1*
X11007Y18661D1*
X10987Y18623D1*
X15644Y8394D2*
D110*
Y8408D1*
X15630Y8437D1*
X15616Y8451D1*
X15587Y8465D1*
X15529D1*
X15501Y8451D1*
X15487Y8437D1*
X15472Y8408D1*
Y8380D1*
X15487Y8351D1*
X15515Y8308D1*
X15659Y8164D1*
X15458D1*
X15221D2*
Y8465D1*
X15365Y8265D1*
X15150D1*
X16620Y8394D2*
Y8408D1*
X16606Y8437D1*
X16591Y8451D1*
X16562Y8465D1*
X16505D1*
X16477Y8451D1*
X16462Y8437D1*
X16448Y8408D1*
Y8380D1*
X16462Y8351D1*
X16491Y8308D1*
X16634Y8164D1*
X16433D1*
X16169Y8465D2*
X16312D1*
X16326Y8336D1*
X16312Y8351D1*
X16269Y8365D1*
X16226D1*
X16183Y8351D1*
X16154Y8322D1*
X16140Y8279D1*
Y8251D1*
X16154Y8207D1*
X16183Y8179D1*
X16226Y8164D1*
X16269D1*
X16312Y8179D1*
X16326Y8193D1*
X16341Y8222D1*
X17625Y8394D2*
Y8408D1*
X17611Y8437D1*
X17597Y8451D1*
X17568Y8465D1*
X17510D1*
X17482Y8451D1*
X17468Y8437D1*
X17453Y8408D1*
Y8380D1*
X17468Y8351D1*
X17496Y8308D1*
X17640Y8164D1*
X17439D1*
X17174Y8423D2*
X17188Y8451D1*
X17231Y8465D1*
X17260D1*
X17303Y8451D1*
X17332Y8408D1*
X17346Y8336D1*
Y8265D1*
X17332Y8207D1*
X17303Y8179D1*
X17260Y8164D1*
X17246D1*
X17203Y8179D1*
X17174Y8207D1*
X17160Y8251D1*
Y8265D1*
X17174Y8308D1*
X17203Y8336D1*
X17246Y8351D1*
X17260D1*
X17303Y8336D1*
X17332Y8308D1*
X17346Y8265D1*
X18640Y8394D2*
Y8408D1*
X18626Y8437D1*
X18611Y8451D1*
X18582Y8465D1*
X18525D1*
X18497Y8451D1*
X18482Y8437D1*
X18468Y8408D1*
Y8380D1*
X18482Y8351D1*
X18511Y8308D1*
X18654Y8164D1*
X18453D1*
X18303D2*
X18160Y8465D1*
X18361D1*
X19649Y8394D2*
Y8408D1*
X19635Y8437D1*
X19621Y8451D1*
X19592Y8465D1*
X19535D1*
X19506Y8451D1*
X19492Y8437D1*
X19477Y8408D1*
Y8380D1*
X19492Y8351D1*
X19520Y8308D1*
X19664Y8164D1*
X19463D1*
X19299Y8465D2*
X19342Y8451D1*
X19356Y8423D1*
Y8394D1*
X19342Y8365D1*
X19313Y8351D1*
X19256Y8336D1*
X19213Y8322D1*
X19184Y8293D1*
X19170Y8265D1*
Y8222D1*
X19184Y8193D1*
X19198Y8179D1*
X19241Y8164D1*
X19299D1*
X19342Y8179D1*
X19356Y8193D1*
X19370Y8222D1*
Y8265D1*
X19356Y8293D1*
X19327Y8322D1*
X19285Y8336D1*
X19227Y8351D1*
X19198Y8365D1*
X19184Y8394D1*
Y8423D1*
X19198Y8451D1*
X19241Y8465D1*
X19299D1*
M02*
