M48
INCH
T01C0.0191
T02C0.025
T03C0.0276
T04C0.03
T05C0.0315
T06C0.0354
T07C0.038
T08C0.04
T09C0.0512
T10C0.125
%
T01
X+028350Y+018550
X+029410Y+015130
X+028750Y+012730
X+029350Y+009770
X+028900Y+008560
X+024940Y+008600
X+024300Y+008540
X+024280Y+009310
X+023180Y+008470
X+021880Y+009080
X+021530Y+010530
X+021550Y+011450
X+022450Y+011580
X+021540Y+013180
X+022792Y+013630
X+022860Y+016720
X+022780Y+017410
X+020320Y+019490
X+019785Y+019340
X+018850Y+019640
X+016040Y+020910
X+015390Y+021450
X+014810Y+023740
X+016990Y+015420
X+018530Y+014360
X+018500Y+012900
X+019710Y+010950
X+020320Y+011150
X+012440Y+012530
X+007390Y+017290
X+005780Y+017310
X+005710Y+022560
X+025400Y+021680
T02
X+007390Y+020140
X+016760Y+019370
X+022020Y+021660
X+024780Y+014990
X+022400Y+012460
X+018610Y+012230
T03
X+022260Y+014770
X+022260Y+015290
X+022260Y+015810
T04
X+025556Y+013990
X+025556Y+013110
X+027524Y+013110
X+027524Y+013990
T05
X+023740Y+020271
X+024527Y+020271
X+025315Y+020271
X+026102Y+020271
X+026890Y+020271
X+027677Y+020271
X+028464Y+020271
X+029252Y+020271
X+030039Y+020271
X+030827Y+020271
X+030827Y+011609
X+030039Y+011609
X+029252Y+011609
X+028464Y+011609
X+027677Y+011609
X+026890Y+011609
X+026102Y+011609
X+025315Y+011609
X+024527Y+011609
X+023740Y+011609
T06
X+023790Y+025440
X+023790Y+024440
X+022790Y+024440
X+022790Y+025440
X+021790Y+025440
X+021790Y+024440
X+020790Y+024440
X+020790Y+025440
X+019790Y+025440
X+019790Y+024440
X+018790Y+024440
X+018790Y+025440
X+018790Y+023440
X+019790Y+023440
X+020790Y+023440
X+021790Y+023440
X+022790Y+023440
X+023790Y+023440
X+023840Y+022440
X+025590Y+022840
X+028190Y+022840
X+019940Y+017160
X+019940Y+016160
X+019940Y+015160
X+019940Y+014160
X+019440Y+009040
X+018440Y+009040
X+017440Y+009040
X+016440Y+009040
X+015440Y+009040
X+014540Y+007440
X+014540Y+006440
X+013540Y+006440
X+013540Y+005440
X+014540Y+005440
X+012540Y+005440
X+011540Y+005440
X+010540Y+005440
X+009540Y+005440
X+009540Y+006440
X+010540Y+006440
X+011540Y+006440
X+012540Y+006440
X+012540Y+007440
X+011540Y+007440
X+010540Y+007440
X+009540Y+007440
X+008540Y+007440
X+008540Y+006440
X+008540Y+005440
X+007540Y+005440
X+007540Y+006440
X+007540Y+007440
X+007540Y+008440
X+008540Y+008440
X+010940Y+009040
X+011940Y+009040
X+013540Y+008440
X+013540Y+007440
X+016940Y+007440
X+016940Y+006440
X+016940Y+005440
X+017940Y+005440
X+017940Y+006440
X+017940Y+007440
X+020340Y+007440
X+020340Y+006440
X+020340Y+005440
X+021340Y+005440
X+021340Y+006440
X+022340Y+006440
X+023340Y+006440
X+024340Y+006440
X+024340Y+005440
X+023340Y+005440
X+022340Y+005440
X+022340Y+007440
X+021340Y+007440
X+021340Y+008440
X+022340Y+008440
X+023340Y+007440
X+024340Y+007440
X+025340Y+007440
X+025340Y+006440
X+025340Y+005440
X+027490Y+008040
X+030040Y+008040
X+014940Y+017740
X+013940Y+017740
X+012940Y+017740
X+011940Y+017740
X+010940Y+017740
X+008790Y+013320
X+015620Y+020340
X+015790Y+023440
X+016790Y+023440
X+016790Y+024440
X+016790Y+025440
X+015790Y+025440
X+015790Y+024440
X+013890Y+024440
X+012890Y+024440
X+012890Y+025440
X+011890Y+025440
X+010890Y+025440
X+010890Y+024440
X+011890Y+024440
X+011890Y+023440
X+010890Y+023440
X+009540Y+023440
X+008540Y+023440
X+007540Y+023440
X+007540Y+024440
X+008540Y+024440
X+008540Y+025440
X+009540Y+025440
X+009540Y+024440
X+007540Y+025440
X+012890Y+023440
X+013890Y+023440
X+013890Y+025440
T07
X+018180Y+020340
X+018440Y+016390
X+018440Y+015390
X+017440Y+016390
X+016440Y+016390
X+015440Y+016390
X+014440Y+016390
X+013440Y+016390
X+012440Y+016390
X+011440Y+016390
X+010440Y+016390
X+010440Y+015390
X+009440Y+015390
X+009440Y+016390
X+008440Y+016390
X+007440Y+016390
X+006440Y+016390
X+005440Y+016390
X+006440Y+015390
X+008440Y+015390
X+011440Y+014390
X+012440Y+014390
X+013440Y+014390
X+013440Y+013390
X+012440Y+013390
X+011440Y+013390
X+014440Y+013390
X+015440Y+013390
X+016440Y+013390
X+016440Y+014390
X+015440Y+014390
X+014440Y+014390
X+017440Y+014390
X+017440Y+013390
X+017440Y+010390
X+018440Y+010390
X+016440Y+010390
X+015440Y+010390
X+014440Y+010390
X+013440Y+010390
X+012440Y+010390
X+011440Y+010390
X+010440Y+010390
X+009440Y+010390
X+008440Y+010390
X+007440Y+010390
X+006440Y+010390
X+005440Y+010390
T08
X+025590Y+025840
X+025590Y+024840
X+025590Y+023840
X+028190Y+023840
X+028190Y+024840
X+028190Y+025840
X+027490Y+007040
X+027490Y+006040
X+027490Y+005040
X+030040Y+005040
X+030040Y+006040
X+030040Y+007040
T09
X+005640Y+020890
X+005640Y+018921
T10
X+032540Y+005440
X+032540Y+025440
X+005540Y+025440
X+005540Y+005440
T00
M30
