G04 DipTrace 3.2.0.1*
G04 CM904_plus.gbo*
%MOIN*%
G04 #@! TF.FileFunction,Legend,Bot*
G04 #@! TF.Part,Single*
%ADD63C,0.007*%
%FSLAX26Y26*%
G04*
G70*
G90*
G75*
G01*
G04 BotSilk*
%LPD*%
X933453Y2726776D2*
D63*
X920553D1*
X916242Y2728235D1*
X914783Y2729661D1*
X913357Y2732513D1*
Y2735398D1*
X914783Y2738250D1*
X916242Y2739709D1*
X920553Y2741135D1*
X933453D1*
Y2710991D1*
X923405Y2726776D2*
X913357Y2710991D1*
X880720Y2741135D2*
X899357D1*
Y2710991D1*
X880720D1*
X899357Y2726776D2*
X887883D1*
X846624Y2736824D2*
X849476Y2739709D1*
X853787Y2741135D1*
X859524D1*
X863835Y2739709D1*
X866720Y2736824D1*
Y2733972D1*
X865261Y2731087D1*
X863835Y2729661D1*
X860983Y2728235D1*
X852361Y2725350D1*
X849476Y2723924D1*
X848050Y2722465D1*
X846624Y2719613D1*
Y2715302D1*
X849476Y2712450D1*
X853787Y2710991D1*
X859524D1*
X863835Y2712450D1*
X866720Y2715302D1*
X813987Y2741135D2*
X832624D1*
Y2710991D1*
X813987D1*
X832624Y2726776D2*
X821150D1*
X789939Y2741135D2*
Y2710991D1*
X799987Y2741135D2*
X779891D1*
X819724Y2641129D2*
X834050D1*
X835476Y2628229D1*
X834050Y2629655D1*
X829739Y2631114D1*
X825461D1*
X821150Y2629655D1*
X818265Y2626803D1*
X816839Y2622492D1*
Y2619640D1*
X818265Y2615329D1*
X821150Y2612444D1*
X825461Y2611018D1*
X829739D1*
X834050Y2612444D1*
X835476Y2613903D1*
X836935Y2616755D1*
X802839Y2641162D2*
X791365Y2611018D1*
X779891Y2641162D1*
X879294Y2541156D2*
X863542D1*
X872131Y2529682D1*
X867820D1*
X864968Y2528256D1*
X863542Y2526830D1*
X862083Y2522519D1*
Y2519667D1*
X863542Y2515356D1*
X866394Y2512471D1*
X870705Y2511045D1*
X875016D1*
X879294Y2512471D1*
X880720Y2513930D1*
X882179Y2516782D1*
X846657Y2513930D2*
X848083Y2512471D1*
X846657Y2511045D1*
X845198Y2512471D1*
X846657Y2513930D1*
X828313Y2541156D2*
X812561D1*
X821150Y2529682D1*
X816839D1*
X813987Y2528256D1*
X812561Y2526830D1*
X811102Y2522519D1*
Y2519667D1*
X812561Y2515356D1*
X815413Y2512471D1*
X819724Y2511045D1*
X824035D1*
X828313Y2512471D1*
X829739Y2513930D1*
X831198Y2516782D1*
X797102Y2531141D2*
X788480Y2511045D1*
X779891Y2531141D1*
X848083Y2434053D2*
X849509Y2436905D1*
X852394Y2439790D1*
X855246Y2441216D1*
X860983D1*
X863868Y2439790D1*
X866720Y2436905D1*
X868179Y2434053D1*
X869605Y2429742D1*
Y2422546D1*
X868179Y2418268D1*
X866720Y2415383D1*
X863868Y2412531D1*
X860983Y2411072D1*
X855246D1*
X852394Y2412531D1*
X849509Y2415383D1*
X848083Y2418268D1*
Y2422546D1*
X855246D1*
X813987Y2441216D2*
Y2411072D1*
X834083Y2441216D1*
Y2411072D1*
X799987Y2441216D2*
Y2411072D1*
X789939D1*
X785628Y2412531D1*
X782743Y2415383D1*
X781317Y2418268D1*
X779891Y2422546D1*
Y2429742D1*
X781317Y2434053D1*
X782743Y2436905D1*
X785628Y2439790D1*
X789939Y2441216D1*
X799987D1*
X813987Y2311098D2*
X825494Y2341242D1*
X836968Y2311098D1*
X832657Y2321146D2*
X818298D1*
X791365Y2341209D2*
X795676Y2339783D1*
X798561Y2335472D1*
X799987Y2328309D1*
Y2323998D1*
X798561Y2316835D1*
X795676Y2312524D1*
X791365Y2311098D1*
X788513D1*
X784202Y2312524D1*
X781350Y2316835D1*
X779891Y2323998D1*
Y2328309D1*
X781350Y2335472D1*
X784202Y2339783D1*
X788513Y2341209D1*
X791365D1*
X781350Y2335472D2*
X798561Y2316835D1*
X956578Y2211125D2*
X968085Y2241269D1*
X979559Y2211125D1*
X975248Y2221173D2*
X960889D1*
X942578Y2235499D2*
X939693Y2236958D1*
X935382Y2241236D1*
Y2211125D1*
X921382Y2226181D2*
X904801D1*
X870705Y2236958D2*
X873557Y2239843D1*
X877868Y2241269D1*
X883605D1*
X887916Y2239843D1*
X890801Y2236958D1*
Y2234106D1*
X889342Y2231221D1*
X887916Y2229795D1*
X885064Y2228369D1*
X876442Y2225484D1*
X873557Y2224058D1*
X872131Y2222599D1*
X870705Y2219747D1*
Y2215436D1*
X873557Y2212584D1*
X877868Y2211125D1*
X883605D1*
X887916Y2212584D1*
X890801Y2215436D1*
X835183Y2234106D2*
X836609Y2236958D1*
X839494Y2239843D1*
X842346Y2241269D1*
X848083D1*
X850968Y2239843D1*
X853820Y2236958D1*
X855279Y2234106D1*
X856705Y2229795D1*
Y2222599D1*
X855279Y2218321D1*
X853820Y2215436D1*
X850968Y2212584D1*
X848083Y2211125D1*
X842346D1*
X839494Y2212584D1*
X836609Y2215436D1*
X835183Y2218321D1*
X821183Y2241269D2*
Y2211125D1*
X801087Y2241269D2*
X821183Y2221173D1*
X814020Y2228369D2*
X801087Y2211125D1*
X787087Y2235499D2*
X784202Y2236958D1*
X779891Y2241236D1*
Y2211125D1*
X813987Y2111152D2*
X825494Y2141296D1*
X836968Y2111152D1*
X832657Y2121200D2*
X818298D1*
X798528Y2134100D2*
Y2135526D1*
X797102Y2138411D1*
X795676Y2139837D1*
X792791Y2141263D1*
X787054D1*
X784202Y2139837D1*
X782776Y2138411D1*
X781317Y2135526D1*
Y2132674D1*
X782776Y2129789D1*
X785628Y2125511D1*
X799987Y2111152D1*
X779891D1*
X813987Y2011179D2*
X825494Y2041323D1*
X836968Y2011179D1*
X832657Y2021227D2*
X818298D1*
X797102Y2041290D2*
X781350D1*
X789939Y2029816D1*
X785628D1*
X782776Y2028390D1*
X781350Y2026964D1*
X779891Y2022653D1*
Y2019801D1*
X781350Y2015490D1*
X784202Y2012605D1*
X788513Y2011179D1*
X792824D1*
X797102Y2012605D1*
X798528Y2014064D1*
X799987Y2016916D1*
X948282Y1911206D2*
X959789Y1941350D1*
X971263Y1911206D1*
X966952Y1921254D2*
X952593D1*
X919923Y1911206D2*
Y1941317D1*
X934282Y1921254D1*
X912760D1*
X898760Y1926261D2*
X882179D1*
X858131Y1941350D2*
Y1911206D1*
X868179Y1941350D2*
X848083D1*
X834083D2*
X813987Y1911206D1*
Y1941350D2*
X834083Y1911206D1*
X798528Y1934154D2*
Y1935580D1*
X797102Y1938465D1*
X795676Y1939891D1*
X792791Y1941317D1*
X787054D1*
X784202Y1939891D1*
X782776Y1938465D1*
X781317Y1935580D1*
Y1932728D1*
X782776Y1929843D1*
X785628Y1925565D1*
X799987Y1911206D1*
X779891D1*
X946856Y1811233D2*
X958363Y1841377D1*
X969837Y1811233D1*
X965526Y1821281D2*
X951167D1*
X915645Y1841344D2*
X929971D1*
X931397Y1828444D1*
X929971Y1829870D1*
X925660Y1831329D1*
X921382D1*
X917071Y1829870D1*
X914186Y1827018D1*
X912760Y1822707D1*
Y1819855D1*
X914186Y1815544D1*
X917071Y1812659D1*
X921382Y1811233D1*
X925660D1*
X929971Y1812659D1*
X931397Y1814118D1*
X932856Y1816970D1*
X898760Y1826288D2*
X882179D1*
X868179Y1827018D2*
X855279D1*
X850968Y1828477D1*
X849509Y1829903D1*
X848083Y1832755D1*
Y1835640D1*
X849509Y1838492D1*
X850968Y1839951D1*
X855279Y1841377D1*
X868179D1*
Y1811233D1*
X858131Y1827018D2*
X848083Y1811233D1*
X834083Y1841377D2*
X813987Y1811233D1*
Y1841377D2*
X834083Y1811233D1*
X798528Y1834181D2*
Y1835607D1*
X797102Y1838492D1*
X795676Y1839918D1*
X792791Y1841344D1*
X787054D1*
X784202Y1839918D1*
X782776Y1838492D1*
X781317Y1835607D1*
Y1832755D1*
X782776Y1829870D1*
X785628Y1825592D1*
X799987Y1811233D1*
X779891D1*
X986297Y1711260D2*
X997804Y1741404D1*
X1009278Y1711260D1*
X1004967Y1721308D2*
X990608D1*
X955086Y1737093D2*
X956512Y1739944D1*
X960823Y1741370D1*
X963675D1*
X967986Y1739944D1*
X970871Y1735633D1*
X972297Y1728471D1*
Y1721308D1*
X970871Y1715571D1*
X967986Y1712686D1*
X963675Y1711260D1*
X962249D1*
X957971Y1712686D1*
X955086Y1715571D1*
X953660Y1719882D1*
Y1721308D1*
X955086Y1725619D1*
X957971Y1728471D1*
X962249Y1729896D1*
X963675D1*
X967986Y1728471D1*
X970871Y1725619D1*
X972297Y1721308D1*
X939660Y1726315D2*
X923079D1*
X886131Y1711260D2*
Y1741404D1*
X897605Y1711260D1*
X909079Y1741404D1*
Y1711260D1*
X872131Y1741404D2*
Y1711260D1*
X838035Y1737093D2*
X840887Y1739978D1*
X845198Y1741404D1*
X850935D1*
X855246Y1739978D1*
X858131Y1737093D1*
Y1734241D1*
X856672Y1731356D1*
X855246Y1729930D1*
X852394Y1728504D1*
X843772Y1725619D1*
X840887Y1724193D1*
X839461Y1722734D1*
X838035Y1719882D1*
Y1715571D1*
X840887Y1712719D1*
X845198Y1711260D1*
X850935D1*
X855246Y1712719D1*
X858131Y1715571D1*
X815413Y1741404D2*
X818298Y1739978D1*
X821150Y1737093D1*
X822609Y1734241D1*
X824035Y1729930D1*
Y1722734D1*
X822609Y1718456D1*
X821150Y1715571D1*
X818298Y1712719D1*
X815413Y1711260D1*
X809676D1*
X806824Y1712719D1*
X803939Y1715571D1*
X802513Y1718456D1*
X801087Y1722734D1*
Y1729930D1*
X802513Y1734241D1*
X803939Y1737093D1*
X806824Y1739978D1*
X809676Y1741404D1*
X815413D1*
X787087Y1735633D2*
X784202Y1737093D1*
X779891Y1741370D1*
Y1711260D1*
X987756Y1611286D2*
X999263Y1641430D1*
X1010737Y1611286D1*
X1006426Y1621334D2*
X992067D1*
X968019Y1611286D2*
X953660Y1641397D1*
X973756D1*
X939660Y1626342D2*
X923079D1*
X886131Y1611286D2*
Y1641430D1*
X897605Y1611286D1*
X909079Y1641430D1*
Y1611286D1*
X863509Y1641430D2*
X866394Y1640005D1*
X869246Y1637119D1*
X870705Y1634268D1*
X872131Y1629957D1*
Y1622760D1*
X870705Y1618483D1*
X869246Y1615597D1*
X866394Y1612746D1*
X863509Y1611286D1*
X857772D1*
X854920Y1612746D1*
X852035Y1615597D1*
X850609Y1618483D1*
X849183Y1622760D1*
Y1629957D1*
X850609Y1634268D1*
X852035Y1637119D1*
X854920Y1640005D1*
X857772Y1641430D1*
X863509D1*
X815087Y1637119D2*
X817939Y1640005D1*
X822250Y1641430D1*
X827987D1*
X832298Y1640005D1*
X835183Y1637119D1*
Y1634268D1*
X833724Y1631382D1*
X832298Y1629957D1*
X829446Y1628531D1*
X820824Y1625645D1*
X817939Y1624220D1*
X816513Y1622760D1*
X815087Y1619909D1*
Y1615597D1*
X817939Y1612746D1*
X822250Y1611286D1*
X827987D1*
X832298Y1612746D1*
X835183Y1615597D1*
X801087Y1641430D2*
Y1611286D1*
X787087Y1635660D2*
X784202Y1637119D1*
X779891Y1641397D1*
Y1611286D1*
X813954Y1511313D2*
X825461Y1541457D1*
X836935Y1511313D1*
X832624Y1521361D2*
X818265D1*
X792791Y1541424D2*
X797069Y1539998D1*
X798528Y1537146D1*
Y1534261D1*
X797069Y1531409D1*
X794217Y1529950D1*
X788480Y1528524D1*
X784169Y1527098D1*
X781317Y1524213D1*
X779891Y1521361D1*
Y1517050D1*
X781317Y1514198D1*
X782743Y1512739D1*
X787054Y1511313D1*
X792791D1*
X797069Y1512739D1*
X798528Y1514198D1*
X799954Y1517050D1*
Y1521361D1*
X798528Y1524213D1*
X795643Y1527098D1*
X791365Y1528524D1*
X785628Y1529950D1*
X782743Y1531409D1*
X781317Y1534261D1*
Y1537146D1*
X782743Y1539998D1*
X787054Y1541424D1*
X792791D1*
X812561Y1411340D2*
X824068Y1441484D1*
X835542Y1411340D1*
X831231Y1421388D2*
X816872D1*
X779891Y1431436D2*
X781350Y1427125D1*
X784202Y1424240D1*
X788513Y1422814D1*
X789939D1*
X794250Y1424240D1*
X797102Y1427125D1*
X798561Y1431436D1*
Y1432862D1*
X797102Y1437173D1*
X794250Y1440025D1*
X789939Y1441451D1*
X788513D1*
X784202Y1440025D1*
X781350Y1437173D1*
X779891Y1431436D1*
Y1424240D1*
X781350Y1417077D1*
X784202Y1412766D1*
X788513Y1411340D1*
X791365D1*
X795676Y1412766D1*
X797102Y1415651D1*
X1059192Y1341511D2*
Y1311367D1*
X1049144D1*
X1044833Y1312826D1*
X1041948Y1315678D1*
X1040522Y1318563D1*
X1039096Y1322841D1*
Y1330037D1*
X1040522Y1334348D1*
X1041948Y1337200D1*
X1044833Y1340085D1*
X1049144Y1341511D1*
X1059192D1*
X1025096Y1335741D2*
X1022211Y1337200D1*
X1017900Y1341478D1*
Y1311367D1*
X995278Y1341478D2*
X999589Y1340052D1*
X1002474Y1335741D1*
X1003900Y1328578D1*
Y1324267D1*
X1002474Y1317104D1*
X999589Y1312793D1*
X995278Y1311367D1*
X992426D1*
X988115Y1312793D1*
X985263Y1317104D1*
X983804Y1324267D1*
Y1328578D1*
X985263Y1335741D1*
X988115Y1340052D1*
X992426Y1341478D1*
X995278D1*
X985263Y1335741D2*
X1002474Y1317104D1*
X969804Y1326422D2*
X953223D1*
X919127Y1337200D2*
X921979Y1340085D1*
X926290Y1341511D1*
X932027D1*
X936338Y1340085D1*
X939223Y1337200D1*
Y1334348D1*
X937764Y1331463D1*
X936338Y1330037D1*
X933486Y1328611D1*
X924864Y1325726D1*
X921979Y1324300D1*
X920553Y1322841D1*
X919127Y1319989D1*
Y1315678D1*
X921979Y1312826D1*
X926290Y1311367D1*
X932027D1*
X936338Y1312826D1*
X939223Y1315678D1*
X896505Y1341511D2*
X899390Y1340085D1*
X902242Y1337200D1*
X903701Y1334348D1*
X905127Y1330037D1*
Y1322841D1*
X903701Y1318563D1*
X902242Y1315678D1*
X899390Y1312826D1*
X896505Y1311367D1*
X890768D1*
X887916Y1312826D1*
X885031Y1315678D1*
X883605Y1318563D1*
X882179Y1322841D1*
Y1330037D1*
X883605Y1334348D1*
X885031Y1337200D1*
X887916Y1340085D1*
X890768Y1341511D1*
X896505D1*
X868179D2*
Y1319989D1*
X866753Y1315678D1*
X863868Y1312826D1*
X859557Y1311367D1*
X856705D1*
X852394Y1312826D1*
X849509Y1315678D1*
X848083Y1319989D1*
Y1341511D1*
X813987D2*
Y1311367D1*
X834083Y1341511D1*
Y1311367D1*
X799987Y1341511D2*
Y1311367D1*
X789939D1*
X785628Y1312826D1*
X782743Y1315678D1*
X781317Y1318563D1*
X779891Y1322841D1*
Y1330037D1*
X781317Y1334348D1*
X782743Y1337200D1*
X785628Y1340085D1*
X789939Y1341511D1*
X799987D1*
X975248Y1241538D2*
Y1211394D1*
X965200D1*
X960889Y1212853D1*
X958004Y1215705D1*
X956578Y1218590D1*
X955152Y1222868D1*
Y1230064D1*
X956578Y1234375D1*
X958004Y1237227D1*
X960889Y1240112D1*
X965200Y1241538D1*
X975248D1*
X941152Y1235768D2*
X938267Y1237227D1*
X933956Y1241505D1*
Y1211394D1*
X919956Y1235768D2*
X917071Y1237227D1*
X912760Y1241505D1*
Y1211394D1*
X898760Y1226449D2*
X882179D1*
X858131Y1241538D2*
Y1211394D1*
X868179Y1241538D2*
X848083D1*
X834083D2*
X813987Y1211394D1*
Y1241538D2*
X834083Y1211394D1*
X798528Y1234342D2*
Y1235768D1*
X797102Y1238653D1*
X795676Y1240079D1*
X792791Y1241505D1*
X787054D1*
X784202Y1240079D1*
X782776Y1238653D1*
X781317Y1235768D1*
Y1232916D1*
X782776Y1230031D1*
X785628Y1225753D1*
X799987Y1211394D1*
X779891D1*
X988148Y1141565D2*
Y1111421D1*
X978100D1*
X973789Y1112880D1*
X970904Y1115732D1*
X969478Y1118617D1*
X968052Y1122895D1*
Y1130091D1*
X969478Y1134402D1*
X970904Y1137254D1*
X973789Y1140139D1*
X978100Y1141565D1*
X988148D1*
X954052Y1135795D2*
X951167Y1137254D1*
X946856Y1141532D1*
Y1111421D1*
X931397Y1134369D2*
Y1135795D1*
X929971Y1138680D1*
X928545Y1140106D1*
X925660Y1141532D1*
X919923D1*
X917071Y1140106D1*
X915645Y1138680D1*
X914186Y1135795D1*
Y1132943D1*
X915645Y1130058D1*
X918497Y1125780D1*
X932856Y1111421D1*
X912760D1*
X898760Y1126476D2*
X882179D1*
X868179Y1127206D2*
X855279D1*
X850968Y1128665D1*
X849509Y1130091D1*
X848083Y1132943D1*
Y1135828D1*
X849509Y1138680D1*
X850968Y1140139D1*
X855279Y1141565D1*
X868179D1*
Y1111421D1*
X858131Y1127206D2*
X848083Y1111421D1*
X834083Y1141565D2*
X813987Y1111421D1*
Y1141565D2*
X834083Y1111421D1*
X798528Y1134369D2*
Y1135795D1*
X797102Y1138680D1*
X795676Y1140106D1*
X792791Y1141532D1*
X787054D1*
X784202Y1140106D1*
X782776Y1138680D1*
X781317Y1135795D1*
Y1132943D1*
X782776Y1130058D1*
X785628Y1125780D1*
X799987Y1111421D1*
X779891D1*
X855279Y1041592D2*
Y1011448D1*
X845231D1*
X840920Y1012907D1*
X838035Y1015759D1*
X836609Y1018644D1*
X835183Y1022922D1*
Y1030118D1*
X836609Y1034429D1*
X838035Y1037281D1*
X840920Y1040166D1*
X845231Y1041592D1*
X855279D1*
X821183Y1035821D2*
X818298Y1037281D1*
X813987Y1041558D1*
Y1011448D1*
X797102Y1041558D2*
X781350D1*
X789939Y1030085D1*
X785628D1*
X782776Y1028659D1*
X781350Y1027233D1*
X779891Y1022922D1*
Y1020070D1*
X781350Y1015759D1*
X784202Y1012874D1*
X788513Y1011448D1*
X792824D1*
X797102Y1012874D1*
X798528Y1014333D1*
X799987Y1017185D1*
X985230Y941618D2*
Y911474D1*
X975182D1*
X970871Y912934D1*
X967986Y915786D1*
X966560Y918671D1*
X965134Y922948D1*
Y930145D1*
X966560Y934456D1*
X967986Y937307D1*
X970871Y940193D1*
X975182Y941618D1*
X985230D1*
X951134Y935848D2*
X948249Y937307D1*
X943938Y941585D1*
Y911474D1*
X915579D2*
Y941585D1*
X929938Y921522D1*
X908416D1*
X894416Y926530D2*
X877835D1*
X863835Y941618D2*
Y911474D1*
X846624D1*
X813987Y941618D2*
X832624D1*
Y911474D1*
X813987D1*
X832624Y927259D2*
X821150D1*
X799987Y941618D2*
Y911474D1*
X789939D1*
X785628Y912934D1*
X782743Y915786D1*
X781317Y918671D1*
X779891Y922948D1*
Y930145D1*
X781317Y934456D1*
X782743Y937307D1*
X785628Y940193D1*
X789939Y941618D1*
X799987D1*
X855279Y841645D2*
Y811501D1*
X845231D1*
X840920Y812960D1*
X838035Y815812D1*
X836609Y818697D1*
X835183Y822975D1*
Y830171D1*
X836609Y834482D1*
X838035Y837334D1*
X840920Y840219D1*
X845231Y841645D1*
X855279D1*
X821183Y835875D2*
X818298Y837334D1*
X813987Y841612D1*
Y811501D1*
X782776Y841612D2*
X797102D1*
X798528Y828712D1*
X797102Y830138D1*
X792791Y831597D1*
X788513D1*
X784202Y830138D1*
X781317Y827286D1*
X779891Y822975D1*
Y820123D1*
X781317Y815812D1*
X784202Y812927D1*
X788513Y811501D1*
X792791D1*
X797102Y812927D1*
X798528Y814386D1*
X799987Y817238D1*
X1562662Y2742122D2*
Y2711978D1*
X1552614D1*
X1548303Y2713438D1*
X1545418Y2716289D1*
X1543992Y2719175D1*
X1542566Y2723452D1*
Y2730648D1*
X1543992Y2734959D1*
X1545418Y2737811D1*
X1548303Y2740696D1*
X1552614Y2742122D1*
X1562662D1*
X1528566D2*
X1508470Y2711978D1*
Y2742122D2*
X1528566Y2711978D1*
X1494470Y2742122D2*
Y2711978D1*
X1477259D1*
X1450360Y2739950D2*
Y2714117D1*
X1463259Y2727017D2*
X1437426D1*
X1562662Y2641786D2*
Y2611642D1*
X1552614D1*
X1548303Y2613101D1*
X1545418Y2615953D1*
X1543992Y2618838D1*
X1542566Y2623116D1*
Y2630312D1*
X1543992Y2634623D1*
X1545418Y2637475D1*
X1548303Y2640360D1*
X1552614Y2641786D1*
X1562662D1*
X1528566D2*
X1508470Y2611642D1*
Y2641786D2*
X1528566Y2611642D1*
X1494470Y2641786D2*
Y2611642D1*
X1477259D1*
X1450359Y2639614D2*
Y2613781D1*
X1463259Y2626681D2*
X1437426D1*
X1562662Y2541449D2*
Y2511305D1*
X1552614D1*
X1548303Y2512764D1*
X1545418Y2515616D1*
X1543992Y2518501D1*
X1542566Y2522779D1*
Y2529975D1*
X1543992Y2534286D1*
X1545418Y2537138D1*
X1548303Y2540023D1*
X1552614Y2541449D1*
X1562662D1*
X1528566D2*
X1508470Y2511305D1*
Y2541449D2*
X1528566Y2511305D1*
X1494470Y2541449D2*
Y2511305D1*
X1477259D1*
X1463259Y2526361D2*
X1446679D1*
X1562662Y2441113D2*
Y2410969D1*
X1552614D1*
X1548303Y2412428D1*
X1545418Y2415280D1*
X1543992Y2418165D1*
X1542566Y2422443D1*
Y2429639D1*
X1543992Y2433950D1*
X1545418Y2436802D1*
X1548303Y2439687D1*
X1552614Y2441113D1*
X1562662D1*
X1528566D2*
X1508470Y2410969D1*
Y2441113D2*
X1528566Y2410969D1*
X1494470Y2441113D2*
Y2410969D1*
X1477259D1*
X1463259Y2426024D2*
X1446679D1*
X1562662Y2340776D2*
Y2310632D1*
X1552614D1*
X1548303Y2312091D1*
X1545418Y2314943D1*
X1543992Y2317828D1*
X1542566Y2322106D1*
Y2329302D1*
X1543992Y2333613D1*
X1545418Y2336465D1*
X1548303Y2339350D1*
X1552614Y2340776D1*
X1562662D1*
X1528566D2*
X1508470Y2310632D1*
Y2340776D2*
X1528566Y2310632D1*
X1494470Y2340776D2*
Y2310632D1*
X1477259D1*
X1463259Y2325688D2*
X1446679D1*
X1422631Y2340776D2*
Y2310632D1*
X1432679Y2340776D2*
X1412583D1*
X1388535D2*
Y2310632D1*
X1398583Y2340776D2*
X1378487D1*
X1364487D2*
Y2310632D1*
X1347276D1*
X1562662Y2240440D2*
Y2210296D1*
X1552614D1*
X1548303Y2211755D1*
X1545418Y2214607D1*
X1543992Y2217492D1*
X1542566Y2221770D1*
Y2228966D1*
X1543992Y2233277D1*
X1545418Y2236129D1*
X1548303Y2239014D1*
X1552614Y2240440D1*
X1562662D1*
X1528566D2*
X1508470Y2210296D1*
Y2240440D2*
X1528566Y2210296D1*
X1494470Y2240440D2*
Y2210296D1*
X1477259D1*
X1463259Y2225351D2*
X1446679D1*
X1432679Y2240440D2*
Y2210296D1*
X1422631D1*
X1418320Y2211755D1*
X1415435Y2214607D1*
X1414009Y2217492D1*
X1412583Y2221770D1*
Y2228966D1*
X1414009Y2233277D1*
X1415435Y2236129D1*
X1418320Y2239014D1*
X1422631Y2240440D1*
X1432679D1*
X1398583D2*
Y2210296D1*
X1384583Y2226081D2*
X1371683D1*
X1367372Y2227540D1*
X1365913Y2228966D1*
X1364487Y2231818D1*
Y2234703D1*
X1365913Y2237555D1*
X1367372Y2239014D1*
X1371683Y2240440D1*
X1384583D1*
Y2210296D1*
X1374535Y2226081D2*
X1364487Y2210296D1*
X1562662Y2140104D2*
Y2109960D1*
X1552614D1*
X1548303Y2111419D1*
X1545418Y2114271D1*
X1543992Y2117156D1*
X1542566Y2121433D1*
Y2128630D1*
X1543992Y2132941D1*
X1545418Y2135793D1*
X1548303Y2138678D1*
X1552614Y2140104D1*
X1562662D1*
X1528566D2*
X1508470Y2109960D1*
Y2140104D2*
X1528566Y2109960D1*
X1494470Y2140104D2*
Y2109960D1*
X1477259D1*
X1463259Y2125015D2*
X1446679D1*
X1422631Y2140104D2*
Y2109960D1*
X1432679Y2140104D2*
X1412583D1*
X1398583D2*
X1378487Y2109960D1*
Y2140104D2*
X1398583Y2109960D1*
X1364487Y2140104D2*
Y2109960D1*
X1354439D1*
X1350128Y2111419D1*
X1347243Y2114271D1*
X1345817Y2117156D1*
X1344391Y2121433D1*
Y2128630D1*
X1345817Y2132941D1*
X1347243Y2135793D1*
X1350128Y2138678D1*
X1354439Y2140104D1*
X1364487D1*
X1562662Y2039767D2*
Y2009623D1*
X1552614D1*
X1548303Y2011082D1*
X1545418Y2013934D1*
X1543992Y2016819D1*
X1542566Y2021097D1*
Y2028293D1*
X1543992Y2032604D1*
X1545418Y2035456D1*
X1548303Y2038341D1*
X1552614Y2039767D1*
X1562662D1*
X1528566D2*
X1508470Y2009623D1*
Y2039767D2*
X1528566Y2009623D1*
X1494470Y2039767D2*
Y2009623D1*
X1477259D1*
X1463259Y2024679D2*
X1446679D1*
X1432679Y2025408D2*
X1419779D1*
X1415468Y2026867D1*
X1414009Y2028293D1*
X1412583Y2031145D1*
Y2034030D1*
X1414009Y2036882D1*
X1415468Y2038341D1*
X1419779Y2039767D1*
X1432679D1*
Y2009623D1*
X1422631Y2025408D2*
X1412583Y2009623D1*
X1398583Y2039767D2*
X1378487Y2009623D1*
Y2039767D2*
X1398583Y2009623D1*
X1364487Y2039767D2*
Y2009623D1*
X1354439D1*
X1350128Y2011082D1*
X1347243Y2013934D1*
X1345817Y2016819D1*
X1344391Y2021097D1*
Y2028293D1*
X1345817Y2032604D1*
X1347243Y2035456D1*
X1350128Y2038341D1*
X1354439Y2039767D1*
X1364487D1*
X1562662Y1939431D2*
Y1909287D1*
X1552614D1*
X1548303Y1910746D1*
X1545418Y1913598D1*
X1543992Y1916483D1*
X1542566Y1920761D1*
Y1927957D1*
X1543992Y1932268D1*
X1545418Y1935120D1*
X1548303Y1938005D1*
X1552614Y1939431D1*
X1562662D1*
X1528566Y1933661D2*
X1525681Y1935120D1*
X1521370Y1939398D1*
Y1909287D1*
X1490159Y1935120D2*
X1491585Y1937972D1*
X1495896Y1939398D1*
X1498748D1*
X1503059Y1937972D1*
X1505944Y1933661D1*
X1507370Y1926498D1*
Y1919335D1*
X1505944Y1913598D1*
X1503059Y1910713D1*
X1498748Y1909287D1*
X1497322D1*
X1493044Y1910713D1*
X1490159Y1913598D1*
X1488733Y1917909D1*
Y1919335D1*
X1490159Y1923646D1*
X1493044Y1926498D1*
X1497322Y1927924D1*
X1498748D1*
X1503059Y1926498D1*
X1505944Y1923646D1*
X1507370Y1919335D1*
X1562662Y1839094D2*
Y1808950D1*
X1552614D1*
X1548303Y1810409D1*
X1545418Y1813261D1*
X1543992Y1816146D1*
X1542566Y1820424D1*
Y1827620D1*
X1543992Y1831931D1*
X1545418Y1834783D1*
X1548303Y1837668D1*
X1552614Y1839094D1*
X1562662D1*
X1528566Y1833324D2*
X1525681Y1834783D1*
X1521370Y1839061D1*
Y1808950D1*
X1501633D2*
X1487274Y1839061D1*
X1507370D1*
X1562662Y1738758D2*
Y1708614D1*
X1552614D1*
X1548303Y1710073D1*
X1545418Y1712925D1*
X1543992Y1715810D1*
X1542566Y1720088D1*
Y1727284D1*
X1543992Y1731595D1*
X1545418Y1734447D1*
X1548303Y1737332D1*
X1552614Y1738758D1*
X1562662D1*
X1528566Y1732988D2*
X1525681Y1734447D1*
X1521370Y1738725D1*
Y1708614D1*
X1500207Y1738725D2*
X1504485Y1737299D1*
X1505944Y1734447D1*
Y1731562D1*
X1504485Y1728710D1*
X1501633Y1727251D1*
X1495896Y1725825D1*
X1491585Y1724399D1*
X1488733Y1721514D1*
X1487307Y1718662D1*
Y1714351D1*
X1488733Y1711499D1*
X1490159Y1710040D1*
X1494470Y1708614D1*
X1500207D1*
X1504485Y1710040D1*
X1505944Y1711499D1*
X1507370Y1714351D1*
Y1718662D1*
X1505944Y1721514D1*
X1503059Y1724399D1*
X1498781Y1725825D1*
X1493044Y1727251D1*
X1490159Y1728710D1*
X1488733Y1731562D1*
Y1734447D1*
X1490159Y1737299D1*
X1494470Y1738725D1*
X1500207D1*
X1562662Y1638421D2*
Y1608277D1*
X1552614D1*
X1548303Y1609737D1*
X1545418Y1612588D1*
X1543992Y1615474D1*
X1542566Y1619751D1*
Y1626947D1*
X1543992Y1631259D1*
X1545418Y1634110D1*
X1548303Y1636995D1*
X1552614Y1638421D1*
X1562662D1*
X1528566Y1632651D2*
X1525681Y1634110D1*
X1521370Y1638388D1*
Y1608277D1*
X1488700Y1628373D2*
X1490159Y1624062D1*
X1493011Y1621177D1*
X1497322Y1619751D1*
X1498748D1*
X1503059Y1621177D1*
X1505911Y1624062D1*
X1507370Y1628373D1*
Y1629799D1*
X1505911Y1634110D1*
X1503059Y1636962D1*
X1498748Y1638388D1*
X1497322D1*
X1493011Y1636962D1*
X1490159Y1634110D1*
X1488700Y1628373D1*
Y1621177D1*
X1490159Y1614014D1*
X1493011Y1609703D1*
X1497322Y1608277D1*
X1500174D1*
X1504485Y1609703D1*
X1505911Y1612588D1*
X1474700Y1623333D2*
X1458119D1*
X1424023Y1634110D2*
X1426875Y1636995D1*
X1431186Y1638421D1*
X1436923D1*
X1441234Y1636995D1*
X1444119Y1634110D1*
Y1631259D1*
X1442660Y1628373D1*
X1441234Y1626947D1*
X1438382Y1625522D1*
X1429760Y1622636D1*
X1426875Y1621211D1*
X1425449Y1619751D1*
X1424023Y1616899D1*
Y1612588D1*
X1426875Y1609737D1*
X1431186Y1608277D1*
X1436923D1*
X1441234Y1609737D1*
X1444119Y1612588D1*
X1388501Y1631259D2*
X1389927Y1634110D1*
X1392812Y1636995D1*
X1395664Y1638421D1*
X1401401D1*
X1404286Y1636995D1*
X1407138Y1634110D1*
X1408597Y1631259D1*
X1410023Y1626947D1*
Y1619751D1*
X1408597Y1615474D1*
X1407138Y1612588D1*
X1404286Y1609737D1*
X1401401Y1608277D1*
X1395664D1*
X1392812Y1609737D1*
X1389927Y1612588D1*
X1388501Y1615474D1*
X1374501Y1638421D2*
Y1608277D1*
X1354405Y1638421D2*
X1374501Y1618325D1*
X1367339Y1625522D2*
X1354405Y1608277D1*
X1338946Y1631225D2*
Y1632651D1*
X1337520Y1635536D1*
X1336094Y1636962D1*
X1333209Y1638388D1*
X1327472D1*
X1324620Y1636962D1*
X1323195Y1635536D1*
X1321735Y1632651D1*
Y1629799D1*
X1323195Y1626914D1*
X1326046Y1622636D1*
X1340405Y1608277D1*
X1320309D1*
X1562662Y1538085D2*
Y1507941D1*
X1552614D1*
X1548303Y1509400D1*
X1545418Y1512252D1*
X1543992Y1515137D1*
X1542566Y1519415D1*
Y1526611D1*
X1543992Y1530922D1*
X1545418Y1533774D1*
X1548303Y1536659D1*
X1552614Y1538085D1*
X1562662D1*
X1527107Y1530889D2*
Y1532315D1*
X1525681Y1535200D1*
X1524255Y1536626D1*
X1521370Y1538052D1*
X1515633D1*
X1512781Y1536626D1*
X1511355Y1535200D1*
X1509896Y1532315D1*
Y1529463D1*
X1511355Y1526578D1*
X1514207Y1522300D1*
X1528566Y1507941D1*
X1508470D1*
X1485848Y1538052D2*
X1490159Y1536626D1*
X1493044Y1532315D1*
X1494470Y1525152D1*
Y1520841D1*
X1493044Y1513678D1*
X1490159Y1509367D1*
X1485848Y1507941D1*
X1482996D1*
X1478685Y1509367D1*
X1475834Y1513678D1*
X1474374Y1520841D1*
Y1525152D1*
X1475834Y1532315D1*
X1478685Y1536626D1*
X1482996Y1538052D1*
X1485848D1*
X1475834Y1532315D2*
X1493044Y1513678D1*
X1460374Y1522996D2*
X1443794D1*
X1406846Y1507941D2*
Y1538085D1*
X1418320Y1507941D1*
X1429794Y1538085D1*
Y1507941D1*
X1392846Y1538085D2*
Y1507941D1*
X1358750Y1533774D2*
X1361602Y1536659D1*
X1365913Y1538085D1*
X1371650D1*
X1375961Y1536659D1*
X1378846Y1533774D1*
Y1530922D1*
X1377387Y1528037D1*
X1375961Y1526611D1*
X1373109Y1525185D1*
X1364487Y1522300D1*
X1361602Y1520874D1*
X1360176Y1519415D1*
X1358750Y1516563D1*
Y1512252D1*
X1361602Y1509400D1*
X1365913Y1507941D1*
X1371650D1*
X1375961Y1509400D1*
X1378846Y1512252D1*
X1336128Y1538085D2*
X1339013Y1536659D1*
X1341865Y1533774D1*
X1343324Y1530922D1*
X1344750Y1526611D1*
Y1519415D1*
X1343324Y1515137D1*
X1341865Y1512252D1*
X1339013Y1509400D1*
X1336128Y1507941D1*
X1330391D1*
X1327539Y1509400D1*
X1324654Y1512252D1*
X1323228Y1515137D1*
X1321802Y1519415D1*
Y1526611D1*
X1323228Y1530922D1*
X1324654Y1533774D1*
X1327539Y1536659D1*
X1330391Y1538085D1*
X1336128D1*
X1306343Y1530889D2*
Y1532315D1*
X1304917Y1535200D1*
X1303491Y1536626D1*
X1300606Y1538052D1*
X1294869D1*
X1292017Y1536626D1*
X1290591Y1535200D1*
X1289132Y1532315D1*
Y1529463D1*
X1290591Y1526578D1*
X1293443Y1522300D1*
X1307802Y1507941D1*
X1287706D1*
X1562662Y1437749D2*
Y1407605D1*
X1552614D1*
X1548303Y1409064D1*
X1545418Y1411916D1*
X1543992Y1414801D1*
X1542566Y1419079D1*
Y1426275D1*
X1543992Y1430586D1*
X1545418Y1433438D1*
X1548303Y1436323D1*
X1552614Y1437749D1*
X1562662D1*
X1527107Y1430553D2*
Y1431978D1*
X1525681Y1434864D1*
X1524255Y1436290D1*
X1521370Y1437715D1*
X1515633D1*
X1512781Y1436290D1*
X1511355Y1434864D1*
X1509896Y1431978D1*
Y1429127D1*
X1511355Y1426242D1*
X1514207Y1421964D1*
X1528566Y1407605D1*
X1508470D1*
X1494470Y1431978D2*
X1491585Y1433438D1*
X1487274Y1437715D1*
Y1407605D1*
X1473274Y1422660D2*
X1456693D1*
X1419746Y1407605D2*
Y1437749D1*
X1431219Y1407605D1*
X1442693Y1437749D1*
Y1407605D1*
X1405746Y1437749D2*
Y1407605D1*
X1371650Y1433438D2*
X1374501Y1436323D1*
X1378812Y1437749D1*
X1384549D1*
X1388860Y1436323D1*
X1391746Y1433438D1*
Y1430586D1*
X1390286Y1427701D1*
X1388860Y1426275D1*
X1386009Y1424849D1*
X1377387Y1421964D1*
X1374501Y1420538D1*
X1373075Y1419079D1*
X1371650Y1416227D1*
Y1411916D1*
X1374501Y1409064D1*
X1378812Y1407605D1*
X1384549D1*
X1388860Y1409064D1*
X1391746Y1411916D1*
X1349027Y1437749D2*
X1351913Y1436323D1*
X1354764Y1433438D1*
X1356224Y1430586D1*
X1357650Y1426275D1*
Y1419079D1*
X1356224Y1414801D1*
X1354764Y1411916D1*
X1351913Y1409064D1*
X1349027Y1407605D1*
X1343291D1*
X1340439Y1409064D1*
X1337554Y1411916D1*
X1336128Y1414801D1*
X1334702Y1419079D1*
Y1426275D1*
X1336128Y1430586D1*
X1337554Y1433438D1*
X1340439Y1436323D1*
X1343291Y1437749D1*
X1349027D1*
X1319243Y1430553D2*
Y1431978D1*
X1317817Y1434864D1*
X1316391Y1436290D1*
X1313506Y1437715D1*
X1307769D1*
X1304917Y1436290D1*
X1303491Y1434864D1*
X1302032Y1431978D1*
Y1429127D1*
X1303491Y1426242D1*
X1306343Y1421964D1*
X1320702Y1407605D1*
X1300606D1*
X1562662Y1337412D2*
Y1307268D1*
X1552614D1*
X1548303Y1308727D1*
X1545418Y1311579D1*
X1543992Y1314464D1*
X1542566Y1318742D1*
Y1325938D1*
X1543992Y1330249D1*
X1545418Y1333101D1*
X1548303Y1335986D1*
X1552614Y1337412D1*
X1562662D1*
X1527107Y1330216D2*
Y1331642D1*
X1525681Y1334527D1*
X1524255Y1335953D1*
X1521370Y1337379D1*
X1515633D1*
X1512781Y1335953D1*
X1511355Y1334527D1*
X1509896Y1331642D1*
Y1328790D1*
X1511355Y1325905D1*
X1514207Y1321627D1*
X1528566Y1307268D1*
X1508470D1*
X1493011Y1330216D2*
Y1331642D1*
X1491585Y1334527D1*
X1490159Y1335953D1*
X1487274Y1337379D1*
X1481537D1*
X1478685Y1335953D1*
X1477259Y1334527D1*
X1475800Y1331642D1*
Y1328790D1*
X1477259Y1325905D1*
X1480111Y1321627D1*
X1494470Y1307268D1*
X1474374D1*
X1562662Y1237076D2*
Y1206932D1*
X1552614D1*
X1548303Y1208391D1*
X1545418Y1211243D1*
X1543992Y1214128D1*
X1542566Y1218406D1*
Y1225602D1*
X1543992Y1229913D1*
X1545418Y1232765D1*
X1548303Y1235650D1*
X1552614Y1237076D1*
X1562662D1*
X1527107Y1229880D2*
Y1231306D1*
X1525681Y1234191D1*
X1524255Y1235617D1*
X1521370Y1237043D1*
X1515633D1*
X1512781Y1235617D1*
X1511355Y1234191D1*
X1509896Y1231306D1*
Y1228454D1*
X1511355Y1225569D1*
X1514207Y1221291D1*
X1528566Y1206932D1*
X1508470D1*
X1491585Y1237043D2*
X1475834D1*
X1484422Y1225569D1*
X1480111D1*
X1477259Y1224143D1*
X1475834Y1222717D1*
X1474374Y1218406D1*
Y1215554D1*
X1475834Y1211243D1*
X1478685Y1208358D1*
X1482996Y1206932D1*
X1487307D1*
X1491585Y1208358D1*
X1493011Y1209817D1*
X1494470Y1212669D1*
X1460374Y1221987D2*
X1443794D1*
X1429794Y1237076D2*
Y1206932D1*
X1416860D1*
X1412549Y1208391D1*
X1411123Y1209817D1*
X1409698Y1212669D1*
Y1216980D1*
X1411123Y1219865D1*
X1412549Y1221291D1*
X1416860Y1222717D1*
X1412549Y1224176D1*
X1411123Y1225602D1*
X1409698Y1228454D1*
Y1231339D1*
X1411123Y1234191D1*
X1412549Y1235650D1*
X1416860Y1237076D1*
X1429794D1*
Y1222717D2*
X1416860D1*
X1385650Y1237076D2*
Y1206932D1*
X1395698Y1237076D2*
X1375602D1*
X1341506D2*
Y1206932D1*
X1361602Y1237076D1*
Y1206932D1*
X1562662Y1136739D2*
Y1106595D1*
X1552614D1*
X1548303Y1108054D1*
X1545418Y1110906D1*
X1543992Y1113791D1*
X1542566Y1118069D1*
Y1125265D1*
X1543992Y1129576D1*
X1545418Y1132428D1*
X1548303Y1135313D1*
X1552614Y1136739D1*
X1562662D1*
X1527107Y1129543D2*
Y1130969D1*
X1525681Y1133854D1*
X1524255Y1135280D1*
X1521370Y1136706D1*
X1515633D1*
X1512781Y1135280D1*
X1511355Y1133854D1*
X1509896Y1130969D1*
Y1128117D1*
X1511355Y1125232D1*
X1514207Y1120954D1*
X1528566Y1106595D1*
X1508470D1*
X1480111D2*
Y1136706D1*
X1494470Y1116643D1*
X1472948D1*
X1458948Y1121651D2*
X1442368D1*
X1408272Y1132428D2*
X1411123Y1135313D1*
X1415435Y1136739D1*
X1421171D1*
X1425483Y1135313D1*
X1428368Y1132428D1*
Y1129576D1*
X1426908Y1126691D1*
X1425483Y1125265D1*
X1422631Y1123839D1*
X1414009Y1120954D1*
X1411123Y1119528D1*
X1409698Y1118069D1*
X1408272Y1115217D1*
Y1110906D1*
X1411123Y1108054D1*
X1415435Y1106595D1*
X1421171D1*
X1425483Y1108054D1*
X1428368Y1110906D1*
X1372750Y1129576D2*
X1374176Y1132428D1*
X1377061Y1135313D1*
X1379913Y1136739D1*
X1385650D1*
X1388535Y1135313D1*
X1391387Y1132428D1*
X1392846Y1129576D1*
X1394272Y1125265D1*
Y1118069D1*
X1392846Y1113791D1*
X1391387Y1110906D1*
X1388535Y1108054D1*
X1385650Y1106595D1*
X1379913D1*
X1377061Y1108054D1*
X1374176Y1110906D1*
X1372750Y1113791D1*
X1358750Y1136739D2*
Y1106595D1*
X1341539D1*
X1326080Y1129543D2*
Y1130969D1*
X1324654Y1133854D1*
X1323228Y1135280D1*
X1320343Y1136706D1*
X1314606D1*
X1311754Y1135280D1*
X1310328Y1133854D1*
X1308869Y1130969D1*
Y1128117D1*
X1310328Y1125232D1*
X1313180Y1120954D1*
X1327539Y1106595D1*
X1307443D1*
X1293443D2*
X1273347Y1136706D1*
X1249299Y1136739D2*
Y1106595D1*
X1259347Y1136739D2*
X1239251D1*
X1225251D2*
X1205155Y1106595D1*
Y1136739D2*
X1225251Y1106595D1*
X1188270Y1136706D2*
X1172518D1*
X1181107Y1125232D1*
X1176796D1*
X1173944Y1123806D1*
X1172518Y1122380D1*
X1171059Y1118069D1*
Y1115217D1*
X1172518Y1110906D1*
X1175370Y1108021D1*
X1179681Y1106595D1*
X1183992D1*
X1188270Y1108021D1*
X1189696Y1109480D1*
X1191155Y1112332D1*
X1562662Y1036403D2*
Y1006259D1*
X1552614D1*
X1548303Y1007718D1*
X1545418Y1010570D1*
X1543992Y1013455D1*
X1542566Y1017733D1*
Y1024929D1*
X1543992Y1029240D1*
X1545418Y1032092D1*
X1548303Y1034977D1*
X1552614Y1036403D1*
X1562662D1*
X1527107Y1029207D2*
Y1030633D1*
X1525681Y1033518D1*
X1524255Y1034944D1*
X1521370Y1036370D1*
X1515633D1*
X1512781Y1034944D1*
X1511355Y1033518D1*
X1509896Y1030633D1*
Y1027781D1*
X1511355Y1024896D1*
X1514207Y1020618D1*
X1528566Y1006259D1*
X1508470D1*
X1477259Y1036370D2*
X1491585D1*
X1493011Y1023470D1*
X1491585Y1024896D1*
X1487274Y1026355D1*
X1482996D1*
X1478685Y1024896D1*
X1475800Y1022044D1*
X1474374Y1017733D1*
Y1014881D1*
X1475800Y1010570D1*
X1478685Y1007685D1*
X1482996Y1006259D1*
X1487274D1*
X1491585Y1007685D1*
X1493011Y1009144D1*
X1494470Y1011996D1*
X1460374Y1021314D2*
X1443794D1*
X1409698Y1032092D2*
X1412549Y1034977D1*
X1416860Y1036403D1*
X1422597D1*
X1426908Y1034977D1*
X1429794Y1032092D1*
Y1029240D1*
X1428334Y1026355D1*
X1426908Y1024929D1*
X1424057Y1023503D1*
X1415435Y1020618D1*
X1412549Y1019192D1*
X1411123Y1017733D1*
X1409698Y1014881D1*
Y1010570D1*
X1412549Y1007718D1*
X1416860Y1006259D1*
X1422597D1*
X1426908Y1007718D1*
X1429794Y1010570D1*
X1395698Y1036403D2*
Y1006259D1*
X1385650D1*
X1381339Y1007718D1*
X1378453Y1010570D1*
X1377027Y1013455D1*
X1375602Y1017733D1*
Y1024929D1*
X1377027Y1029240D1*
X1378453Y1032092D1*
X1381339Y1034977D1*
X1385650Y1036403D1*
X1395698D1*
X1338620Y1006259D2*
X1350128Y1036403D1*
X1361602Y1006259D1*
X1357291Y1016307D2*
X1342931D1*
X1323161Y1029207D2*
Y1030633D1*
X1321735Y1033518D1*
X1320309Y1034944D1*
X1317424Y1036370D1*
X1311687D1*
X1308835Y1034944D1*
X1307410Y1033518D1*
X1305950Y1030633D1*
Y1027781D1*
X1307410Y1024896D1*
X1310261Y1020618D1*
X1324620Y1006259D1*
X1304524D1*
X1290524D2*
X1270428Y1036370D1*
X1256428Y1022044D2*
X1243529D1*
X1239218Y1023503D1*
X1237758Y1024929D1*
X1236332Y1027781D1*
Y1030666D1*
X1237758Y1033518D1*
X1239218Y1034977D1*
X1243529Y1036403D1*
X1256428D1*
Y1006259D1*
X1246380Y1022044D2*
X1236332Y1006259D1*
X1222332Y1036403D2*
X1202236Y1006259D1*
Y1036403D2*
X1222332Y1006259D1*
X1185351Y1036370D2*
X1169600D1*
X1178188Y1024896D1*
X1173877D1*
X1171026Y1023470D1*
X1169600Y1022044D1*
X1168140Y1017733D1*
Y1014881D1*
X1169600Y1010570D1*
X1172451Y1007685D1*
X1176763Y1006259D1*
X1181074D1*
X1185351Y1007685D1*
X1186777Y1009144D1*
X1188236Y1011996D1*
X1545451Y936033D2*
X1559777D1*
X1561203Y923133D1*
X1559777Y924559D1*
X1555466Y926019D1*
X1551188D1*
X1546877Y924559D1*
X1543992Y921708D1*
X1542566Y917397D1*
Y914545D1*
X1543992Y910234D1*
X1546877Y907349D1*
X1551188Y905923D1*
X1555466D1*
X1559777Y907349D1*
X1561203Y908808D1*
X1562662Y911660D1*
X1528566Y936067D2*
X1517092Y905923D1*
X1505618Y936067D1*
X1539681Y805586D2*
X1551188Y835730D1*
X1562662Y805586D1*
X1558351Y815634D2*
X1543992D1*
X1525681Y821371D2*
X1512781D1*
X1508470Y822830D1*
X1507011Y824256D1*
X1505585Y827108D1*
Y829993D1*
X1507011Y832845D1*
X1508470Y834304D1*
X1512781Y835730D1*
X1525681D1*
Y805586D1*
X1515633Y821371D2*
X1505585Y805586D1*
X1472948Y835730D2*
X1491585D1*
Y805586D1*
X1472948D1*
X1491585Y821371D2*
X1480111D1*
X1440278Y835730D2*
X1458948D1*
Y805586D1*
Y821371D2*
X1447474D1*
X2684900Y686796D2*
X2700652D1*
X2692063Y698270D1*
X2696374D1*
X2699226Y699696D1*
X2700652Y701122D1*
X2702111Y705433D1*
Y708285D1*
X2700652Y712596D1*
X2697800Y715481D1*
X2693489Y716907D1*
X2689178D1*
X2684900Y715481D1*
X2683475Y714022D1*
X2682015Y711170D1*
X2717537Y714022D2*
X2716111Y715481D1*
X2717537Y716907D1*
X2718996Y715481D1*
X2717537Y714022D1*
X2735881Y686796D2*
X2751633D1*
X2743044Y698270D1*
X2747355D1*
X2750207Y699696D1*
X2751633Y701122D1*
X2753092Y705433D1*
Y708285D1*
X2751633Y712596D1*
X2748781Y715481D1*
X2744470Y716907D1*
X2740159D1*
X2735882Y715481D1*
X2734456Y714022D1*
X2732996Y711170D1*
X2767092Y686763D2*
X2778566Y716907D1*
X2790040Y686763D1*
X2664804Y765164D2*
Y795308D1*
X2674852D1*
X2679163Y793849D1*
X2682049Y790997D1*
X2683475Y788112D1*
X2684900Y783834D1*
Y776638D1*
X2683475Y772327D1*
X2682049Y769475D1*
X2679163Y766590D1*
X2674852Y765164D1*
X2664804D1*
X2707522D2*
X2704637Y766590D1*
X2701786Y769475D1*
X2700326Y772327D1*
X2698900Y776638D1*
Y783834D1*
X2700326Y788112D1*
X2701786Y790997D1*
X2704637Y793849D1*
X2707523Y795308D1*
X2713259D1*
X2716111Y793849D1*
X2718996Y790997D1*
X2720422Y788112D1*
X2721848Y783834D1*
Y776638D1*
X2720422Y772327D1*
X2718996Y769475D1*
X2716111Y766590D1*
X2713259Y765164D1*
X2707522D1*
X2735848D2*
Y786686D1*
X2737274Y790997D1*
X2740159Y793849D1*
X2744470Y795308D1*
X2747322D1*
X2751633Y793849D1*
X2754518Y790997D1*
X2755944Y786686D1*
Y765164D1*
X2779992D2*
Y795308D1*
X2769944Y765164D2*
X2790040D1*
X2721848Y843565D2*
Y873709D1*
X2731896D1*
X2736207Y872250D1*
X2739092Y869398D1*
X2740518Y866513D1*
X2741944Y862235D1*
Y855039D1*
X2740518Y850728D1*
X2739092Y847876D1*
X2736207Y844991D1*
X2731896Y843565D1*
X2721848D1*
X2755944D2*
Y873709D1*
X2790040Y843565D2*
Y873709D1*
X2769944Y843565D1*
Y873709D1*
X2663704Y921966D2*
Y952110D1*
X2673752D1*
X2678063Y950651D1*
X2680948Y947799D1*
X2682374Y944914D1*
X2683800Y940636D1*
Y933440D1*
X2682374Y929129D1*
X2680948Y926277D1*
X2678063Y923392D1*
X2673752Y921966D1*
X2663704D1*
X2697800D2*
Y952110D1*
X2720422Y921966D2*
X2717537Y923392D1*
X2714685Y926277D1*
X2713226Y929129D1*
X2711800Y933440D1*
Y940636D1*
X2713226Y944914D1*
X2714685Y947799D1*
X2717537Y950651D1*
X2720422Y952110D1*
X2726159D1*
X2729011Y950651D1*
X2731896Y947799D1*
X2733322Y944914D1*
X2734748Y940636D1*
Y933440D1*
X2733322Y929129D1*
X2731896Y926277D1*
X2729011Y923392D1*
X2726159Y921966D1*
X2720422D1*
X2748748Y927736D2*
X2751633Y926277D1*
X2755944Y921999D1*
Y952110D1*
X2771403Y929162D2*
Y927736D1*
X2772829Y924851D1*
X2774255Y923425D1*
X2777140Y921999D1*
X2782877D1*
X2785729Y923425D1*
X2787155Y924851D1*
X2788614Y927736D1*
Y930588D1*
X2787155Y933473D1*
X2784303Y937751D1*
X2769944Y952110D1*
X2790040D1*
X2701752Y1014726D2*
X2714652D1*
X2718963Y1013267D1*
X2720422Y1011841D1*
X2721848Y1008989D1*
Y1006104D1*
X2720422Y1003252D1*
X2718963Y1001793D1*
X2714652Y1000367D1*
X2701752D1*
Y1030511D1*
X2711800Y1014726D2*
X2721848Y1030511D1*
X2745896Y1000367D2*
Y1030511D1*
X2735848Y1000367D2*
X2755944D1*
X2790040Y1004678D2*
X2787188Y1001793D1*
X2782877Y1000367D1*
X2777140D1*
X2772829Y1001793D1*
X2769944Y1004678D1*
Y1007530D1*
X2771403Y1010415D1*
X2772829Y1011841D1*
X2775681Y1013267D1*
X2784303Y1016152D1*
X2787188Y1017578D1*
X2788614Y1019037D1*
X2790040Y1021889D1*
Y1026200D1*
X2787188Y1029051D1*
X2782877Y1030511D1*
X2777140D1*
X2772829Y1029052D1*
X2769944Y1026200D1*
X2687752Y1093127D2*
X2700652D1*
X2704963Y1091667D1*
X2706422Y1090241D1*
X2707848Y1087390D1*
Y1084504D1*
X2706422Y1081653D1*
X2704963Y1080193D1*
X2700652Y1078767D1*
X2687752D1*
Y1108911D1*
X2697800Y1093127D2*
X2707848Y1108911D1*
X2741944Y1083079D2*
X2739092Y1080193D1*
X2734781Y1078768D1*
X2729044D1*
X2724733Y1080193D1*
X2721848Y1083079D1*
Y1085930D1*
X2723307Y1088815D1*
X2724733Y1090241D1*
X2727585Y1091667D1*
X2736207Y1094552D1*
X2739092Y1095978D1*
X2740518Y1097438D1*
X2741944Y1100289D1*
Y1104600D1*
X2739092Y1107452D1*
X2734781Y1108911D1*
X2729044D1*
X2724733Y1107452D1*
X2721848Y1104600D1*
X2776040Y1083079D2*
X2773188Y1080193D1*
X2768877Y1078767D1*
X2763140Y1078768D1*
X2758829Y1080193D1*
X2755944Y1083079D1*
Y1085930D1*
X2757403Y1088816D1*
X2758829Y1090241D1*
X2761681Y1091667D1*
X2770303Y1094552D1*
X2773188Y1095978D1*
X2774614Y1097438D1*
X2776040Y1100289D1*
Y1104600D1*
X2773188Y1107452D1*
X2768877Y1108912D1*
X2763140Y1108911D1*
X2758829Y1107452D1*
X2755944Y1104600D1*
X2790040Y1078767D2*
Y1108911D1*
X2676604Y1157168D2*
Y1187312D1*
X2686652D1*
X2690963Y1185853D1*
X2693848Y1183001D1*
X2695274Y1180116D1*
X2696700Y1175838D1*
Y1168642D1*
X2695274Y1164331D1*
X2693848Y1161479D1*
X2690963Y1158594D1*
X2686652Y1157168D1*
X2676604D1*
X2710700D2*
Y1187312D1*
X2733322Y1157168D2*
X2730437Y1158594D1*
X2727585Y1161479D1*
X2726126Y1164331D1*
X2724700Y1168642D1*
Y1175838D1*
X2726126Y1180116D1*
X2727585Y1183001D1*
X2730437Y1185853D1*
X2733322Y1187312D1*
X2739059D1*
X2741911Y1185853D1*
X2744796Y1183001D1*
X2746222Y1180116D1*
X2747648Y1175838D1*
Y1168642D1*
X2746222Y1164331D1*
X2744796Y1161479D1*
X2741911Y1158594D1*
X2739059Y1157168D1*
X2733322D1*
X2761648Y1162939D2*
X2764533Y1161479D1*
X2768844Y1157202D1*
Y1187312D1*
X2782844Y1162938D2*
X2785729Y1161479D1*
X2790040Y1157201D1*
Y1187312D1*
X2703211Y1249928D2*
X2716111D1*
X2720422Y1248469D1*
X2721882Y1247043D1*
X2723307Y1244191D1*
Y1241306D1*
X2721882Y1238454D1*
X2720422Y1236995D1*
X2716111Y1235569D1*
X2703211D1*
Y1265713D1*
X2713259Y1249928D2*
X2723307Y1265713D1*
X2755944Y1235569D2*
X2737307D1*
Y1265713D1*
X2755944D1*
X2737307Y1249928D2*
X2748781D1*
X2790040Y1239880D2*
X2787188Y1236995D1*
X2782877Y1235569D1*
X2777140D1*
X2772829Y1236995D1*
X2769944Y1239880D1*
Y1242732D1*
X2771403Y1245617D1*
X2772829Y1247043D1*
X2775681Y1248469D1*
X2784303Y1251354D1*
X2787188Y1252780D1*
X2788614Y1254239D1*
X2790040Y1257091D1*
Y1261402D1*
X2787188Y1264254D1*
X2782877Y1265713D1*
X2777140D1*
X2772829Y1264254D1*
X2769944Y1261402D1*
X2701752Y1313970D2*
Y1344114D1*
X2711800D1*
X2716111Y1342655D1*
X2718996Y1339803D1*
X2720422Y1336918D1*
X2721848Y1332640D1*
Y1325444D1*
X2720422Y1321133D1*
X2718996Y1318281D1*
X2716111Y1315396D1*
X2711800Y1313970D1*
X2701752D1*
X2745896D2*
Y1344114D1*
X2735848Y1313970D2*
X2755944D1*
X2769944Y1328329D2*
X2782844D1*
X2787155Y1326870D1*
X2788614Y1325444D1*
X2790040Y1322592D1*
Y1319707D1*
X2788614Y1316855D1*
X2787155Y1315396D1*
X2782844Y1313970D1*
X2769944D1*
Y1344114D1*
X2779992Y1328329D2*
X2790040Y1344114D1*
X2032069Y687792D2*
Y717936D1*
X2042117D1*
X2046428Y716477D1*
X2049313Y713625D1*
X2050739Y710740D1*
X2052165Y706462D1*
Y699266D1*
X2050739Y694955D1*
X2049313Y692103D1*
X2046428Y689218D1*
X2042117Y687792D1*
X2032069D1*
X2066164D2*
X2066165Y717936D1*
X2088787Y687792D2*
X2085901Y689218D1*
X2083050Y692103D1*
X2081590Y694955D1*
X2080165Y699266D1*
Y706462D1*
X2081590Y710740D1*
X2083050Y713625D1*
X2085902Y716477D1*
X2088787Y717936D1*
X2094524D1*
X2097375Y716477D1*
X2100261Y713625D1*
X2101686Y710740D1*
X2103112Y706462D1*
Y699266D1*
X2101686Y694955D1*
X2100260Y692103D1*
X2097375Y689218D1*
X2094523Y687792D1*
X2088787D1*
X2131471Y717936D2*
Y687825D1*
X2117112Y707888D1*
X2138634D1*
X2053591Y774175D2*
X2052165Y771323D1*
X2049280Y768438D1*
X2046428Y767012D1*
X2040691D1*
X2037806Y768438D1*
X2034954Y771323D1*
X2033495Y774175D1*
X2032069Y778486D1*
Y785682D1*
X2033495Y789960D1*
X2034954Y792845D1*
X2037806Y795697D1*
X2040691Y797156D1*
X2046428D1*
X2049280Y795697D1*
X2052165Y792845D1*
X2053591Y789960D1*
X2077639Y767012D2*
Y797156D1*
X2067591Y767012D2*
X2087687D1*
X2121783Y771323D2*
X2118931Y768438D1*
X2114620Y767012D1*
X2108883D1*
X2104572Y768438D1*
X2101687Y771323D1*
Y774175D1*
X2103146Y777060D1*
X2104572Y778486D1*
X2107424Y779912D1*
X2116046Y782797D1*
X2118931Y784223D1*
X2120357Y785682D1*
X2121783Y788534D1*
Y792845D1*
X2118931Y795697D1*
X2114620Y797156D1*
X2108883D1*
X2104572Y795697D1*
X2101687Y792845D1*
X2032069Y846233D2*
Y876377D1*
X2042117D1*
X2046428Y874918D1*
X2049313Y872066D1*
X2050739Y869181D1*
X2052165Y864903D1*
Y857707D1*
X2050739Y853396D1*
X2049313Y850544D1*
X2046428Y847659D1*
X2042117Y846233D1*
X2032069D1*
X2066165D2*
Y876377D1*
X2088787Y846233D2*
X2085902Y847659D1*
X2083050Y850544D1*
X2081591Y853396D1*
X2080165Y857707D1*
Y864903D1*
X2081591Y869181D1*
X2083050Y872066D1*
X2085902Y874918D1*
X2088787Y876377D1*
X2094524D1*
X2097376Y874918D1*
X2100261Y872066D1*
X2101687Y869181D1*
X2103113Y864903D1*
Y857707D1*
X2101687Y853396D1*
X2100261Y850544D1*
X2097376Y847659D1*
X2094524Y846233D1*
X2088787D1*
X2135783Y856281D2*
X2134323Y860592D1*
X2131472Y863477D1*
X2127161Y864903D1*
X2125735D1*
X2121424Y863477D1*
X2118572Y860592D1*
X2117113Y856281D1*
Y854855D1*
X2118572Y850544D1*
X2121424Y847692D1*
X2125735Y846266D1*
X2127161D1*
X2131472Y847692D1*
X2134323Y850544D1*
X2135783Y856281D1*
Y863477D1*
X2134323Y870640D1*
X2131472Y874951D1*
X2127161Y876377D1*
X2124309D1*
X2119998Y874951D1*
X2118572Y872066D1*
X2032069Y939812D2*
X2044969D1*
X2049280Y938353D1*
X2050739Y936927D1*
X2052165Y934075D1*
Y931190D1*
X2050739Y928338D1*
X2049280Y926879D1*
X2044969Y925453D1*
X2032069D1*
Y955597D1*
X2042117Y939812D2*
X2052165Y955597D1*
X2084802Y925453D2*
X2066165D1*
Y955597D1*
X2084802D1*
X2066165Y939812D2*
X2077639D1*
X2118898Y929764D2*
X2116046Y926879D1*
X2111735Y925453D1*
X2105998D1*
X2101687Y926879D1*
X2098802Y929764D1*
Y932616D1*
X2100261Y935501D1*
X2101687Y936927D1*
X2104539Y938353D1*
X2113161Y941238D1*
X2116046Y942664D1*
X2117472Y944123D1*
X2118898Y946975D1*
Y951286D1*
X2116046Y954138D1*
X2111735Y955597D1*
X2105998D1*
X2101687Y954138D1*
X2098802Y951286D1*
X2032069Y1004674D2*
Y1034818D1*
X2042117D1*
X2046428Y1033359D1*
X2049313Y1030507D1*
X2050739Y1027622D1*
X2052165Y1023344D1*
Y1016148D1*
X2050739Y1011837D1*
X2049313Y1008985D1*
X2046428Y1006100D1*
X2042117Y1004674D1*
X2032069D1*
X2066165D2*
Y1034818D1*
X2088787Y1004674D2*
X2085902Y1006100D1*
X2083050Y1008985D1*
X2081591Y1011837D1*
X2080165Y1016148D1*
Y1023344D1*
X2081591Y1027622D1*
X2083050Y1030507D1*
X2085902Y1033359D1*
X2088787Y1034818D1*
X2094524D1*
X2097376Y1033359D1*
X2100261Y1030507D1*
X2101687Y1027622D1*
X2103113Y1023344D1*
Y1016148D1*
X2101687Y1011837D1*
X2100261Y1008985D1*
X2097376Y1006100D1*
X2094524Y1004674D1*
X2088787D1*
X2134324Y1004707D2*
X2119998D1*
X2118572Y1017607D1*
X2119998Y1016181D1*
X2124309Y1014722D1*
X2128587D1*
X2132898Y1016181D1*
X2135783Y1019033D1*
X2137209Y1023344D1*
Y1026196D1*
X2135783Y1030507D1*
X2132898Y1033392D1*
X2128587Y1034818D1*
X2124309D1*
X2119998Y1033392D1*
X2118572Y1031933D1*
X2117113Y1029081D1*
X2032068Y1098253D2*
X2044968D1*
X2049279Y1096794D1*
X2050738Y1095368D1*
X2052164Y1092516D1*
Y1089631D1*
X2050738Y1086779D1*
X2049279Y1085320D1*
X2044968Y1083894D1*
X2032068D1*
Y1114038D1*
X2042116Y1098253D2*
X2052164Y1114038D1*
X2076212Y1083894D2*
Y1114038D1*
X2066164Y1083894D2*
X2086260D1*
X2120356Y1088205D2*
X2117504Y1085320D1*
X2113193Y1083894D1*
X2107456D1*
X2103145Y1085320D1*
X2100260Y1088205D1*
Y1091057D1*
X2101719Y1093942D1*
X2103145Y1095368D1*
X2105997Y1096794D1*
X2114619Y1099679D1*
X2117504Y1101105D1*
X2118930Y1102564D1*
X2120356Y1105416D1*
Y1109727D1*
X2117504Y1112579D1*
X2113193Y1114038D1*
X2107456D1*
X2103145Y1112579D1*
X2100260Y1109727D1*
X2032069Y1163115D2*
Y1193259D1*
X2042117D1*
X2046428Y1191800D1*
X2049313Y1188948D1*
X2050739Y1186063D1*
X2052165Y1181785D1*
Y1174589D1*
X2050739Y1170278D1*
X2049313Y1167426D1*
X2046428Y1164541D1*
X2042117Y1163115D1*
X2032069D1*
X2066165D2*
Y1193259D1*
X2088787Y1163115D2*
X2085902Y1164541D1*
X2083050Y1167426D1*
X2081591Y1170278D1*
X2080165Y1174589D1*
Y1181785D1*
X2081591Y1186063D1*
X2083050Y1188948D1*
X2085902Y1191800D1*
X2088787Y1193259D1*
X2094524D1*
X2097376Y1191800D1*
X2100261Y1188948D1*
X2101687Y1186063D1*
X2103113Y1181785D1*
Y1174589D1*
X2101687Y1170278D1*
X2100261Y1167426D1*
X2097376Y1164541D1*
X2094524Y1163115D1*
X2088787D1*
X2119998Y1163148D2*
X2135750D1*
X2127161Y1174622D1*
X2131472D1*
X2134324Y1176048D1*
X2135750Y1177474D1*
X2137209Y1181785D1*
Y1184637D1*
X2135750Y1188948D1*
X2132898Y1191833D1*
X2128587Y1193259D1*
X2124276D1*
X2119998Y1191833D1*
X2118572Y1190374D1*
X2117113Y1187522D1*
X2032069Y1242335D2*
Y1272479D1*
X2042117D1*
X2046428Y1271020D1*
X2049313Y1268168D1*
X2050739Y1265283D1*
X2052165Y1261005D1*
Y1253809D1*
X2050739Y1249498D1*
X2049313Y1246646D1*
X2046428Y1243761D1*
X2042117Y1242335D1*
X2032069D1*
X2066165D2*
Y1272479D1*
X2088787Y1242335D2*
X2085902Y1243761D1*
X2083050Y1246646D1*
X2081591Y1249498D1*
X2080165Y1253809D1*
Y1261005D1*
X2081591Y1265283D1*
X2083050Y1268168D1*
X2085902Y1271020D1*
X2088787Y1272479D1*
X2094524D1*
X2097376Y1271020D1*
X2100261Y1268168D1*
X2101687Y1265283D1*
X2103113Y1261005D1*
Y1253809D1*
X2101687Y1249498D1*
X2100261Y1246646D1*
X2097376Y1243761D1*
X2094524Y1242335D1*
X2088787D1*
X2118572Y1249531D2*
Y1248105D1*
X2119998Y1245220D1*
X2121424Y1243794D1*
X2124309Y1242368D1*
X2130046D1*
X2132898Y1243794D1*
X2134324Y1245220D1*
X2135783Y1248105D1*
Y1250957D1*
X2134324Y1253842D1*
X2131472Y1258120D1*
X2117113Y1272479D1*
X2137209D1*
X2032069Y1321556D2*
Y1351700D1*
X2042117D1*
X2046428Y1350241D1*
X2049313Y1347389D1*
X2050739Y1344504D1*
X2052165Y1340226D1*
Y1333030D1*
X2050739Y1328719D1*
X2049313Y1325867D1*
X2046428Y1322982D1*
X2042117Y1321556D1*
X2032069D1*
X2066165D2*
Y1351700D1*
X2088787Y1321556D2*
X2085902Y1322982D1*
X2083050Y1325867D1*
X2081591Y1328719D1*
X2080165Y1333030D1*
Y1340226D1*
X2081591Y1344504D1*
X2083050Y1347389D1*
X2085902Y1350241D1*
X2088787Y1351700D1*
X2094524D1*
X2097376Y1350241D1*
X2100261Y1347389D1*
X2101687Y1344504D1*
X2103113Y1340226D1*
Y1333030D1*
X2101687Y1328719D1*
X2100261Y1325867D1*
X2097376Y1322982D1*
X2094524Y1321556D1*
X2088787D1*
X2117113Y1327326D2*
X2119998Y1325867D1*
X2124309Y1321589D1*
Y1351700D1*
X2721848Y1399534D2*
X2720422Y1396682D1*
X2717537Y1393797D1*
X2714685Y1392371D1*
X2708948D1*
X2706063Y1393797D1*
X2703211Y1396682D1*
X2701752Y1399534D1*
X2700326Y1403845D1*
Y1411041D1*
X2701752Y1415319D1*
X2703211Y1418204D1*
X2706063Y1421056D1*
X2708948Y1422515D1*
X2714685D1*
X2717537Y1421056D1*
X2720422Y1418204D1*
X2721848Y1415319D1*
Y1411041D1*
X2714685D1*
X2755944Y1392371D2*
Y1422515D1*
X2735848Y1392371D1*
Y1422515D1*
X2769944Y1392371D2*
Y1422515D1*
X2779992D1*
X2784303Y1421056D1*
X2787188Y1418204D1*
X2788614Y1415319D1*
X2790040Y1411041D1*
Y1403845D1*
X2788614Y1399534D1*
X2787188Y1396682D1*
X2784303Y1393797D1*
X2779992Y1392371D1*
X2769944D1*
X2137209Y1434535D2*
Y1404391D1*
X2127161D1*
X2122850Y1405850D1*
X2119965Y1408702D1*
X2118539Y1411587D1*
X2117113Y1415865D1*
Y1423061D1*
X2118539Y1427372D1*
X2119965Y1430224D1*
X2122850Y1433109D1*
X2127161Y1434535D1*
X2137209D1*
X2103113D2*
Y1404391D1*
X2080491Y1434535D2*
X2083376Y1433109D1*
X2086228Y1430224D1*
X2087687Y1427372D1*
X2089113Y1423061D1*
Y1415865D1*
X2087687Y1411587D1*
X2086228Y1408702D1*
X2083376Y1405850D1*
X2080491Y1404391D1*
X2074754D1*
X2071902Y1405850D1*
X2069017Y1408702D1*
X2067591Y1411587D1*
X2066165Y1415865D1*
Y1423061D1*
X2067591Y1427372D1*
X2069017Y1430224D1*
X2071902Y1433109D1*
X2074754Y1434535D1*
X2080491D1*
X2043543Y1434502D2*
X2047854Y1433076D1*
X2050739Y1428765D1*
X2052165Y1421602D1*
Y1417291D1*
X2050739Y1410128D1*
X2047854Y1405817D1*
X2043543Y1404391D1*
X2040691D1*
X2036380Y1405817D1*
X2033528Y1410128D1*
X2032069Y1417291D1*
Y1421602D1*
X2033528Y1428765D1*
X2036380Y1433076D1*
X2040691Y1434502D1*
X2043543D1*
X2033528Y1428765D2*
X2050739Y1410128D1*
M02*
