M48
INCH
T01C0.0191
T02C0.0315
T03C0.0354
T04C0.038
T05C0.04
T06C0.118
T07C0.125
%
T03
X+007234Y+027237
X+007234Y+026237
X+007234Y+025237
X+007234Y+024237
X+007234Y+023237
X+007234Y+022237
X+007234Y+021237
X+007234Y+020237
X+007234Y+019237
X+007234Y+018237
X+007234Y+017237
X+007234Y+016237
X+007234Y+015237
X+007234Y+014237
X+007234Y+013237
X+007234Y+012237
X+007234Y+011237
X+007234Y+010237
X+007234Y+009237
X+007234Y+008237
X+016234Y+008237
X+016234Y+009237
X+016234Y+010237
X+016234Y+011237
X+016234Y+012237
X+016234Y+013237
X+016234Y+014237
X+016234Y+015237
X+016234Y+016237
X+016234Y+017237
X+016234Y+018237
X+016234Y+019237
X+016234Y+020237
X+016234Y+021237
X+016234Y+022237
X+016234Y+023237
X+016234Y+024237
X+016234Y+025237
X+016234Y+026237
X+016234Y+027237
T06
X+022084Y+028087
X+022084Y+030449
X+020233Y+029268
T03
X+005234Y+008237
X+005234Y+009237
X+005234Y+010237
X+005234Y+011237
X+005234Y+012237
X+005234Y+013237
X+005234Y+014237
X+005234Y+015237
X+005234Y+016237
X+005234Y+017237
X+005234Y+018237
X+005234Y+019237
X+005234Y+020237
X+005234Y+021237
X+005234Y+022237
X+005234Y+023237
X+005234Y+024237
X+005234Y+025237
X+005234Y+026237
X+005234Y+027237
X+018234Y+008237
X+018234Y+009237
X+018234Y+010237
X+018234Y+011237
X+018234Y+012237
X+018234Y+013237
X+018234Y+014237
X+018234Y+015237
X+018234Y+016237
X+018234Y+017237
X+018234Y+018237
X+018234Y+019237
X+018234Y+020237
X+018234Y+021237
X+018234Y+022237
X+018234Y+023237
X+018234Y+024237
X+018234Y+025237
X+018234Y+026237
X+018234Y+027237
T05
X+026334Y+030037
X+026334Y+029037
X+026334Y+028037
X+026334Y+029824
X+026334Y+028250
X+028634Y+030037
X+028634Y+029037
X+028634Y+028037
X+028634Y+029824
X+028634Y+028250
X+028634Y+025887
X+028634Y+024887
X+028634Y+023887
X+028634Y+025674
X+028634Y+024100
X+026334Y+025887
X+026334Y+024887
X+026334Y+023887
X+026334Y+025674
X+026334Y+024100
X+026334Y+021737
X+026334Y+020737
X+026334Y+019737
X+026334Y+021524
X+026334Y+019950
X+028634Y+021737
X+028634Y+020737
X+028634Y+019737
X+028634Y+021524
X+028634Y+019950
T04
X+023384Y+020487
T03
X+020824Y+020487
T02
X+028465Y+014200
X+028465Y+013412
X+028465Y+012625
X+028465Y+011837
X+028465Y+011050
X+028465Y+010263
X+028465Y+009475
X+028465Y+008688
X+028465Y+007900
X+028465Y+007113
X+019803Y+014200
X+019803Y+013412
X+019803Y+012625
X+019803Y+011837
X+019803Y+011050
X+019803Y+010263
X+019803Y+009475
X+019803Y+008688
X+019803Y+007900
X+019803Y+007113
T07
X+005165Y+005168
X+028787Y+005168
X+005165Y+032727
X+028787Y+032727
T01
X+019234Y+014987
X+023424Y+023294
X+022734Y+014487
T00
M30
