G04 DipTrace 3.2.0.1*
G04 CM904_plus.gto*
%MOIN*%
G04 #@! TF.FileFunction,Legend,Top*
G04 #@! TF.Part,Single*
%ADD10C,0.009843*%
%ADD17C,0.008*%
%ADD27C,0.005*%
%ADD62C,0.006176*%
%ADD63C,0.007*%
%ADD64C,0.012351*%
%FSLAX26Y26*%
G04*
G70*
G90*
G75*
G01*
G04 TopSilk*
%LPD*%
X1957134Y2654961D2*
D17*
X2025879D1*
X2100893D2*
X2169638D1*
Y2479951D1*
X2132131Y2442441D1*
X2100893D1*
X1957134Y2654961D2*
Y2479951D1*
X1994641Y2442441D1*
X2025879D1*
X2469638D2*
X2400893D1*
X2325879D2*
X2257134D1*
Y2617451D1*
X2294641Y2654961D1*
X2325879D1*
X2469638Y2442441D2*
Y2617451D1*
X2432131Y2654961D1*
X2400893D1*
X648386Y3123701D2*
D10*
Y423701D1*
X1698386D1*
Y3123701D2*
Y423701D1*
X1023341D2*
Y517661D1*
X1323431Y423701D2*
Y517661D1*
X1023341Y523601D2*
X1323431D1*
X648386Y3123701D2*
X1698386D1*
X2031231Y2808700D2*
D17*
X2113919D1*
X2031231Y3229974D2*
Y3021323D1*
Y2808700D2*
Y2836248D1*
X2385551Y3229974D2*
Y2808700D1*
X2302863D1*
X2385551Y3229974D2*
X2031231D1*
X473386Y849701D2*
D10*
Y2773701D1*
Y773701D2*
Y849701D1*
X573386Y773701D2*
X473386D1*
X573386D2*
Y2773701D1*
X473386D1*
X1773386Y849701D2*
Y2773701D1*
Y773701D2*
Y849701D1*
X1873386Y773701D2*
X1773386D1*
X1873386D2*
Y2773701D1*
X1773386D1*
X2511339Y3098583D2*
D27*
Y2708819D1*
X2704251D1*
X2704386Y2827697D2*
Y2877704D1*
Y2927710D1*
Y2977717D1*
Y3027685D1*
X2704367Y3047017D1*
X2660950Y3098583D1*
X2511339D1*
X2703382Y2978692D2*
X2678383Y2953708D1*
X2703382Y2928685D1*
X2704251Y2878717D2*
X2680390Y2853694D1*
X2704251Y2828710D1*
Y2778704D1*
Y2711976D1*
X2702378Y2779717D2*
X2677379Y2753720D1*
X2583384Y2753681D1*
Y3053721D1*
X2676394Y3053682D1*
X2701394Y3025697D1*
X2741339Y3098583D2*
Y2708819D1*
X2934251D1*
X2934386Y2827697D2*
Y2877704D1*
Y2927710D1*
Y2977717D1*
Y3027685D1*
X2934367Y3047017D1*
X2890950Y3098583D1*
X2741339D1*
X2933382Y2978692D2*
X2908383Y2953708D1*
X2933382Y2928685D1*
X2934251Y2878717D2*
X2910390Y2853694D1*
X2934251Y2828710D1*
Y2778704D1*
Y2711976D1*
X2932378Y2779717D2*
X2907379Y2753720D1*
X2813384Y2753681D1*
Y3053721D1*
X2906394Y3053682D1*
X2931394Y3025697D1*
X2741339Y2683583D2*
Y2293819D1*
X2934251D1*
X2934386Y2412697D2*
Y2462704D1*
Y2512710D1*
Y2562717D1*
Y2612685D1*
X2934367Y2632017D1*
X2890950Y2683583D1*
X2741339D1*
X2933382Y2563692D2*
X2908383Y2538708D1*
X2933382Y2513685D1*
X2934251Y2463717D2*
X2910390Y2438694D1*
X2934251Y2413710D1*
Y2363704D1*
Y2296976D1*
X2932378Y2364717D2*
X2907379Y2338720D1*
X2813384Y2338681D1*
Y2638721D1*
X2906394Y2638682D1*
X2931394Y2610697D1*
X2511339Y2683583D2*
Y2293819D1*
X2704251D1*
X2704386Y2412697D2*
Y2462704D1*
Y2512710D1*
Y2562717D1*
Y2612685D1*
X2704367Y2632017D1*
X2660950Y2683583D1*
X2511339D1*
X2703382Y2563692D2*
X2678383Y2538708D1*
X2703382Y2513685D1*
X2704251Y2463717D2*
X2680390Y2438694D1*
X2704251Y2413710D1*
Y2363704D1*
Y2296976D1*
X2702378Y2364717D2*
X2677379Y2338720D1*
X2583384Y2338681D1*
Y2638721D1*
X2676394Y2638682D1*
X2701394Y2610697D1*
X2511339Y2268583D2*
Y1878819D1*
X2704251D1*
X2704386Y1997697D2*
Y2047704D1*
Y2097710D1*
Y2147717D1*
Y2197685D1*
X2704367Y2217017D1*
X2660950Y2268583D1*
X2511339D1*
X2703382Y2148692D2*
X2678383Y2123708D1*
X2703382Y2098685D1*
X2704251Y2048717D2*
X2680390Y2023694D1*
X2704251Y1998710D1*
Y1948704D1*
Y1881976D1*
X2702378Y1949717D2*
X2677379Y1923720D1*
X2583384Y1923681D1*
Y2223721D1*
X2676394Y2223682D1*
X2701394Y2195697D1*
X2741339Y2268583D2*
Y1878819D1*
X2934251D1*
X2934386Y1997697D2*
Y2047704D1*
Y2097710D1*
Y2147717D1*
Y2197685D1*
X2934367Y2217017D1*
X2890950Y2268583D1*
X2741339D1*
X2933382Y2148692D2*
X2908383Y2123708D1*
X2933382Y2098685D1*
X2934251Y2048717D2*
X2910390Y2023694D1*
X2934251Y1998710D1*
Y1948704D1*
Y1881976D1*
X2932378Y1949717D2*
X2907379Y1923720D1*
X2813384Y1923681D1*
Y2223721D1*
X2906394Y2223682D1*
X2931394Y2195697D1*
G36*
X2663386Y1552638D2*
X2671259D1*
Y1544764D1*
X2663386D1*
Y1552638D1*
G37*
G36*
X2413386D2*
X2421259D1*
Y1544764D1*
X2413386D1*
Y1552638D1*
G37*
X1974164Y2048689D2*
D10*
G02X1974164Y2048689I236239J0D01*
G01*
G36*
X2163386Y1544764D2*
X2155513D1*
Y1552638D1*
X2163386D1*
Y1544764D1*
G37*
X2029488Y662128D2*
D17*
X1931103D1*
Y1469194D1*
X2029488D1*
Y662128D2*
Y1469194D1*
X2797284Y662128D2*
X2895670D1*
Y1469194D1*
X2797284D1*
Y662128D2*
Y1469194D1*
X2895670D2*
Y1498752D1*
X1931103Y1469194D2*
Y1498752D1*
X2895670D2*
X1931103D1*
X2610254Y412086D2*
X2637841Y435667D1*
X2610254Y412086D2*
X2216518D1*
X2188931Y435667D1*
X2066761Y2735229D2*
D62*
X2064860Y2739031D1*
X2061013Y2742878D1*
X2057210Y2744779D1*
X2049561D1*
X2045714Y2742878D1*
X2041912Y2739031D1*
X2039966Y2735229D1*
X2038065Y2729481D1*
Y2719886D1*
X2039966Y2714182D1*
X2041912Y2710335D1*
X2045714Y2706533D1*
X2049561Y2704587D1*
X2057210D1*
X2061013Y2706533D1*
X2064860Y2710335D1*
X2066761Y2714182D1*
X2079112Y2737086D2*
X2082959Y2739031D1*
X2088707Y2744735D1*
Y2704587D1*
X2358161Y2735229D2*
X2356260Y2739031D1*
X2352413Y2742878D1*
X2348610Y2744779D1*
X2340961D1*
X2337114Y2742878D1*
X2333312Y2739031D1*
X2331366Y2735229D1*
X2329465Y2729481D1*
Y2719886D1*
X2331366Y2714182D1*
X2333312Y2710335D1*
X2337114Y2706533D1*
X2340961Y2704587D1*
X2348610D1*
X2352413Y2706533D1*
X2356260Y2710335D1*
X2358161Y2714182D1*
X2374359Y2744735D2*
X2395362D1*
X2383910Y2729437D1*
X2389658D1*
X2393460Y2727535D1*
X2395362Y2725634D1*
X2397307Y2719886D1*
Y2716084D1*
X2395362Y2710335D1*
X2391559Y2706489D1*
X2385811Y2704587D1*
X2380063D1*
X2374359Y2706489D1*
X2372458Y2708434D1*
X2370512Y2712237D1*
X2160549Y3402713D2*
Y3372115D1*
X2158647Y3366367D1*
X2156702Y3364466D1*
X2152899Y3362521D1*
X2149053D1*
X2145250Y3364466D1*
X2143349Y3366367D1*
X2141403Y3372115D1*
Y3375918D1*
X2172900Y3395019D2*
X2176747Y3396965D1*
X2182495Y3402668D1*
Y3362521D1*
X513386Y2832279D2*
Y2801682D1*
X511484Y2795934D1*
X509539Y2794033D1*
X505736Y2792087D1*
X501890D1*
X498087Y2794033D1*
X496186Y2795934D1*
X494240Y2801682D1*
Y2805485D1*
X527683Y2822685D2*
Y2824586D1*
X529584Y2828433D1*
X531485Y2830334D1*
X535332Y2832235D1*
X542981D1*
X546784Y2830334D1*
X548685Y2828433D1*
X550630Y2824586D1*
Y2820783D1*
X548685Y2816937D1*
X544882Y2811233D1*
X525737Y2792087D1*
X552532D1*
X1813386Y2832279D2*
Y2801682D1*
X1811484Y2795934D1*
X1809539Y2794033D1*
X1805736Y2792087D1*
X1801890D1*
X1798087Y2794033D1*
X1796186Y2795934D1*
X1794240Y2801682D1*
Y2805485D1*
X1829584Y2832235D2*
X1850586D1*
X1839134Y2816937D1*
X1844882D1*
X1848685Y2815035D1*
X1850586Y2813134D1*
X1852532Y2807386D1*
Y2803584D1*
X1850586Y2797835D1*
X1846784Y2793989D1*
X1841036Y2792087D1*
X1835288D1*
X1829584Y2793989D1*
X1827683Y2795934D1*
X1825737Y2799737D1*
X2310961Y1414780D2*
Y1431980D1*
X2309015Y1437728D1*
X2307114Y1439673D1*
X2303312Y1441575D1*
X2299465D1*
X2295662Y1439674D1*
X2293717Y1437728D1*
X2291815Y1431980D1*
Y1414780D1*
X2332007D1*
X2310961Y1428177D2*
X2332008Y1441575D1*
X2332007Y1473071D2*
X2291860D1*
X2318610Y1453926D1*
Y1482622D1*
X2560961Y1415731D2*
Y1432931D1*
X2559015Y1438679D1*
X2557114Y1440624D1*
X2553312Y1442525D1*
X2549465D1*
X2545662Y1440624D1*
X2543717Y1438679D1*
X2541815Y1432931D1*
Y1415731D1*
X2582007D1*
X2560961Y1429128D2*
X2582008Y1442525D1*
X2541860Y1477825D2*
Y1458724D1*
X2559060Y1456822D1*
X2557158Y1458724D1*
X2555213Y1464472D1*
Y1470175D1*
X2557158Y1475923D1*
X2560961Y1479770D1*
X2566709Y1481671D1*
X2570511D1*
X2576259Y1479770D1*
X2580106Y1475923D1*
X2582007Y1470175D1*
Y1464472D1*
X2580106Y1458723D1*
X2578161Y1456822D1*
X2574358Y1454877D1*
X2060961Y1416704D2*
Y1433903D1*
X2059015Y1439651D1*
X2057114Y1441597D1*
X2053312Y1443498D1*
X2049465D1*
X2045662Y1441597D1*
X2043717Y1439651D1*
X2041815Y1433903D1*
Y1416704D1*
X2082007D1*
X2060961Y1430101D2*
X2082008Y1443498D1*
X2047564Y1478797D2*
X2043761Y1476896D1*
X2041860Y1471148D1*
Y1467346D1*
X2043761Y1461598D1*
X2049509Y1457751D1*
X2059060Y1455850D1*
X2068610Y1455849D1*
X2076259Y1457751D1*
X2080106Y1461597D1*
X2082007Y1467346D1*
Y1469247D1*
X2080106Y1474951D1*
X2076259Y1478797D1*
X2070511Y1480699D1*
X2068610D1*
X2062862Y1478797D1*
X2059060Y1474951D1*
X2057158Y1469247D1*
Y1467346D1*
X2059060Y1461598D1*
X2062862Y1457751D1*
X2068610Y1455849D1*
X2310961Y1315731D2*
Y1332931D1*
X2309015Y1338679D1*
X2307114Y1340624D1*
X2303312Y1342525D1*
X2299465D1*
X2295662Y1340624D1*
X2293717Y1338679D1*
X2291815Y1332931D1*
Y1315731D1*
X2332007D1*
X2310961Y1329128D2*
X2332008Y1342525D1*
X2332007Y1362526D2*
X2291860Y1381671D1*
Y1354877D1*
X1708362Y3165753D2*
Y3182953D1*
X1706417Y3188701D1*
X1704516Y3190646D1*
X1700713Y3192548D1*
X1696866D1*
X1693064Y3190646D1*
X1691118Y3188701D1*
X1689217Y3182953D1*
Y3165753D1*
X1729409D1*
X1708362Y3179150D2*
X1729409Y3192547D1*
X1689261Y3214449D2*
X1691163Y3208746D1*
X1694965Y3206800D1*
X1698812D1*
X1702614Y3208746D1*
X1704560Y3212548D1*
X1706461Y3220197D1*
X1708362Y3225945D1*
X1712209Y3229748D1*
X1716012Y3231649D1*
X1721760D1*
X1725562Y3229748D1*
X1727508Y3227847D1*
X1729409Y3222099D1*
Y3214449D1*
X1727508Y3208746D1*
X1725562Y3206800D1*
X1721760Y3204899D1*
X1716012D1*
X1712209Y3206800D1*
X1708362Y3210647D1*
X1706461Y3216351D1*
X1704560Y3224000D1*
X1702614Y3227847D1*
X1698812Y3229748D1*
X1694965D1*
X1691163Y3227847D1*
X1689261Y3222099D1*
Y3214449D1*
X1708362Y3071681D2*
Y3088881D1*
X1706417Y3094629D1*
X1704516Y3096575D1*
X1700713Y3098476D1*
X1696866D1*
X1693064Y3096575D1*
X1691118Y3094629D1*
X1689217Y3088881D1*
Y3071681D1*
X1729409D1*
X1708362Y3085079D2*
X1729409Y3098476D1*
X1702614Y3135721D2*
X1708362Y3133775D1*
X1712209Y3129973D1*
X1714110Y3124225D1*
Y3122323D1*
X1712209Y3116575D1*
X1708362Y3112773D1*
X1702614Y3110827D1*
X1700713D1*
X1694965Y3112773D1*
X1691163Y3116575D1*
X1689261Y3122323D1*
Y3124225D1*
X1691163Y3129973D1*
X1694965Y3133775D1*
X1702614Y3135721D1*
X1712209D1*
X1721760Y3133775D1*
X1727508Y3129973D1*
X1729409Y3124225D1*
Y3120422D1*
X1727508Y3114674D1*
X1723661Y3112773D1*
X2630416Y1612740D2*
X2647616D1*
X2653364Y1614686D1*
X2655309Y1616587D1*
X2657210Y1620390D1*
Y1624236D1*
X2655309Y1628039D1*
X2653364Y1629984D1*
X2647616Y1631886D1*
X2630416D1*
Y1591694D1*
X2643813Y1612740D2*
X2657210Y1591694D1*
X2696356Y1626138D2*
X2692554Y1629984D1*
X2686806Y1631886D1*
X2679157D1*
X2673408Y1629984D1*
X2669562Y1626138D1*
Y1622335D1*
X2671507Y1618488D1*
X2673408Y1616587D1*
X2677211Y1614686D1*
X2688707Y1610839D1*
X2692554Y1608938D1*
X2694455Y1606992D1*
X2696356Y1603190D1*
Y1597442D1*
X2692554Y1593639D1*
X2686806Y1591694D1*
X2679157D1*
X2673408Y1593639D1*
X2669562Y1597442D1*
X2380416Y1612740D2*
X2397616D1*
X2403364Y1614686D1*
X2405309Y1616587D1*
X2407210Y1620390D1*
Y1624236D1*
X2405309Y1628039D1*
X2403364Y1629984D1*
X2397616Y1631886D1*
X2380416D1*
Y1591694D1*
X2393813Y1612740D2*
X2407210Y1591694D1*
X2419562Y1631886D2*
X2446356Y1591694D1*
Y1631886D2*
X2419562Y1591694D1*
X2165081Y2337752D2*
X2161279Y2341599D1*
X2155531Y2343500D1*
X2147881D1*
X2142133Y2341599D1*
X2138287Y2337752D1*
Y2333949D1*
X2140232Y2330103D1*
X2142133Y2328201D1*
X2145936Y2326300D1*
X2157432Y2322453D1*
X2161279Y2320552D1*
X2163180Y2318607D1*
X2165081Y2314804D1*
Y2309056D1*
X2161279Y2305253D1*
X2155531Y2303308D1*
X2147881D1*
X2142133Y2305253D1*
X2138287Y2309056D1*
X2177433Y2322453D2*
X2194677D1*
X2200381Y2324355D1*
X2202326Y2326300D1*
X2204227Y2330103D1*
Y2335851D1*
X2202326Y2339653D1*
X2200381Y2341599D1*
X2194677Y2343500D1*
X2177433D1*
Y2303308D1*
X2216579Y2343500D2*
Y2303308D1*
X2243373Y2343500D2*
X2216579Y2316705D1*
X2226129Y2326300D2*
X2243373Y2303308D1*
X2255725Y2324355D2*
X2272925D1*
X2278673Y2326300D1*
X2280618Y2328201D1*
X2282520Y2332004D1*
Y2335851D1*
X2280618Y2339653D1*
X2278673Y2341599D1*
X2272925Y2343500D1*
X2255725D1*
Y2303308D1*
X2269122Y2324355D2*
X2282520Y2303308D1*
X2143813Y1631886D2*
Y1591694D1*
X2130416Y1631886D2*
X2157210D1*
X2169562D2*
X2196356Y1591694D1*
Y1631886D2*
X2169562Y1591694D1*
X1954484Y1760820D2*
D63*
Y1720628D1*
X1981279Y1760820D2*
X1954484Y1734026D1*
X1964035Y1743620D2*
X1981279Y1720628D1*
X1995279Y1747423D2*
Y1728278D1*
X1997180Y1722574D1*
X2001027Y1720628D1*
X2006775D1*
X2010578Y1722574D1*
X2016326Y1728278D1*
Y1747423D2*
Y1720628D1*
X2030326Y1747423D2*
Y1720628D1*
Y1735927D2*
X2032271Y1741675D1*
X2036074Y1745522D1*
X2039920Y1747423D1*
X2045668D1*
X2065416Y1760820D2*
Y1728278D1*
X2067318Y1722574D1*
X2071164Y1720628D1*
X2074967D1*
X2059668Y1747423D2*
X2073066D1*
X2098562Y1760776D2*
X2088967Y1749280D1*
X2100463Y1758875D1*
X2098562Y1760776D1*
X2135510Y1741675D2*
X2133608Y1745522D1*
X2127860Y1747423D1*
X2122112D1*
X2116364Y1745522D1*
X2114463Y1741675D1*
X2116364Y1737872D1*
X2120211Y1735927D1*
X2129762Y1734026D1*
X2133608Y1732124D1*
X2135510Y1728278D1*
Y1726376D1*
X2133608Y1722574D1*
X2127860Y1720628D1*
X2122112D1*
X2116364Y1722574D1*
X2114463Y1726376D1*
X2201535Y1760820D2*
X2197688Y1758919D1*
X2193886Y1755072D1*
X2191940Y1751270D1*
X2190039Y1745522D1*
Y1735927D1*
X2191940Y1730223D1*
X2193886Y1726376D1*
X2197688Y1722574D1*
X2201535Y1720628D1*
X2209184D1*
X2212987Y1722574D1*
X2216834Y1726376D1*
X2218735Y1730223D1*
X2220636Y1735927D1*
Y1745522D1*
X2218735Y1751270D1*
X2216834Y1755072D1*
X2212987Y1758919D1*
X2209184Y1760820D1*
X2201535D1*
X2234636Y1747423D2*
Y1707231D1*
Y1741675D2*
X2238483Y1745478D1*
X2242286Y1747423D1*
X2248034D1*
X2251880Y1745478D1*
X2255683Y1741675D1*
X2257628Y1735927D1*
Y1732080D1*
X2255683Y1726376D1*
X2251880Y1722530D1*
X2248034Y1720628D1*
X2242286D1*
X2238483Y1722530D1*
X2234636Y1726376D1*
X2271628Y1735927D2*
X2294576D1*
Y1739774D1*
X2292675Y1743620D1*
X2290774Y1745522D1*
X2286927Y1747423D1*
X2281179D1*
X2277376Y1745522D1*
X2273530Y1741675D1*
X2271628Y1735927D1*
Y1732124D1*
X2273530Y1726376D1*
X2277376Y1722574D1*
X2281179Y1720628D1*
X2286927D1*
X2290774Y1722574D1*
X2294576Y1726376D1*
X2308576Y1747423D2*
Y1720628D1*
Y1739774D2*
X2314324Y1745522D1*
X2318171Y1747423D1*
X2323875D1*
X2327722Y1745522D1*
X2329623Y1739774D1*
Y1720628D1*
X2372319Y1751270D2*
X2370418Y1755072D1*
X2366571Y1758919D1*
X2362768Y1760820D1*
X2355119D1*
X2351272Y1758919D1*
X2347470Y1755072D1*
X2345524Y1751270D1*
X2343623Y1745522D1*
Y1735927D1*
X2345524Y1730223D1*
X2347470Y1726376D1*
X2351272Y1722574D1*
X2355119Y1720628D1*
X2362768D1*
X2366571Y1722574D1*
X2370418Y1726376D1*
X2372319Y1730223D1*
X2416916Y1720628D2*
Y1760820D1*
X2401618Y1720628D1*
X2386319Y1760820D1*
Y1720628D1*
X2496339Y1747423D2*
X2494393Y1741675D1*
X2490591Y1737828D1*
X2484843Y1735927D1*
X2482942D1*
X2477194Y1737828D1*
X2473391Y1741675D1*
X2471445Y1747423D1*
Y1749324D1*
X2473391Y1755072D1*
X2477194Y1758875D1*
X2482942Y1760776D1*
X2484843D1*
X2490591Y1758875D1*
X2494393Y1755072D1*
X2496339Y1747423D1*
Y1737828D1*
X2494393Y1728278D1*
X2490591Y1722530D1*
X2484843Y1720628D1*
X2481040D1*
X2475292Y1722530D1*
X2473391Y1726376D1*
X2512240Y1724475D2*
X2510339Y1722530D1*
X2512240Y1720628D1*
X2514186Y1722530D1*
X2512240Y1724475D1*
X2539682Y1760776D2*
X2533934Y1758875D1*
X2530087Y1753127D1*
X2528186Y1743576D1*
Y1737828D1*
X2530087Y1728278D1*
X2533934Y1722530D1*
X2539682Y1720628D1*
X2543484D1*
X2549232Y1722530D1*
X2553035Y1728278D1*
X2554980Y1737828D1*
Y1743576D1*
X2553035Y1753127D1*
X2549232Y1758875D1*
X2543484Y1760776D1*
X2539682D1*
X2553035Y1753127D2*
X2530087Y1728278D1*
X2588126Y1720628D2*
Y1760776D1*
X2568980Y1734026D1*
X2597676D1*
X2682847Y1720628D2*
X2667504Y1760820D1*
X2652206Y1720628D1*
X2657954Y1734026D2*
X2677099D1*
X2719795Y1760820D2*
Y1720628D1*
Y1741675D2*
X2715992Y1745522D1*
X2712146Y1747423D1*
X2706398D1*
X2702595Y1745522D1*
X2698748Y1741675D1*
X2696847Y1735927D1*
Y1732124D1*
X2698748Y1726376D1*
X2702595Y1722574D1*
X2706398Y1720628D1*
X2712146D1*
X2715992Y1722574D1*
X2719795Y1726376D1*
X2756743Y1747423D2*
Y1720628D1*
Y1741675D2*
X2752940Y1745522D1*
X2749094Y1747423D1*
X2743390D1*
X2739543Y1745522D1*
X2735740Y1741675D1*
X2733795Y1735927D1*
Y1732124D1*
X2735740Y1726376D1*
X2739543Y1722574D1*
X2743390Y1720628D1*
X2749094D1*
X2752940Y1722574D1*
X2756743Y1726376D1*
X2770743Y1747423D2*
Y1707231D1*
Y1741675D2*
X2774590Y1745478D1*
X2778392Y1747423D1*
X2784140D1*
X2787987Y1745478D1*
X2791790Y1741675D1*
X2793735Y1735927D1*
Y1732080D1*
X2791790Y1726376D1*
X2787987Y1722530D1*
X2784140Y1720628D1*
X2778392D1*
X2774590Y1722530D1*
X2770743Y1726376D1*
X2813483Y1760820D2*
Y1728278D1*
X2815384Y1722574D1*
X2819231Y1720628D1*
X2823034D1*
X2807735Y1747423D2*
X2821132D1*
X2837034Y1735927D2*
X2859982D1*
Y1739774D1*
X2858080Y1743620D1*
X2856179Y1745522D1*
X2852332Y1747423D1*
X2846584D1*
X2842782Y1745522D1*
X2838935Y1741675D1*
X2837034Y1735927D1*
Y1732124D1*
X2838935Y1726376D1*
X2842782Y1722574D1*
X2846584Y1720628D1*
X2852332D1*
X2856179Y1722574D1*
X2859982Y1726376D1*
X2873982Y1747423D2*
Y1720628D1*
Y1735927D2*
X2875927Y1741675D1*
X2879730Y1745522D1*
X2883576Y1747423D1*
X2889324D1*
X2170442Y2012683D2*
D64*
Y2081571D1*
X2204841Y2047171D2*
X2135954D1*
M02*
