G04 DipTrace 3.2.0.1*
G04 CM904_plus.gbl*
%MOIN*%
G04 #@! TF.FileFunction,Copper,L2,Bot*
G04 #@! TF.Part,Single*
G04 #@! TA.AperFunction,CopperBalancing*
%ADD14C,0.025*%
G04 #@! TA.AperFunction,Conductor*
%ADD15C,0.02*%
G04 #@! TA.AperFunction,ViaPad*
%ADD16C,0.04*%
G04 #@! TA.AperFunction,Conductor*
%ADD17C,0.008*%
G04 #@! TA.AperFunction,ComponentPad*
%ADD19C,0.06*%
%ADD24R,0.059055X0.059055*%
%ADD25C,0.059055*%
%ADD26C,0.17*%
%ADD28C,0.065199*%
%ADD31C,0.06*%
G04 #@! TA.AperFunction,ViaPad*
%ADD33C,0.165*%
%FSLAX26Y26*%
G04*
G70*
G90*
G75*
G01*
G04 Bottom*
%LPD*%
X1823386Y1323701D2*
D17*
X1903386Y1403701D1*
Y1478701D1*
X1923386Y1498701D1*
X1623386Y2323701D2*
D15*
X1823386D1*
X2863386Y2388701D2*
X2633386D1*
Y2803701D2*
X2863386D1*
X2633386Y1973701D2*
X2863386D1*
X1823386Y2323701D2*
X2207108Y2245697D1*
Y2242054D1*
Y1973701D1*
X2633386D1*
X2342370Y2329390D2*
X2207108Y2242054D1*
X2863386Y2803701D2*
D17*
X2862581Y2791216D1*
X2863386Y2824961D1*
X2633386Y2803701D2*
Y2824961D1*
X2863386Y2409961D2*
Y2388701D1*
X2633386Y2409961D2*
Y2388701D1*
Y1994961D2*
Y1973701D1*
X2863386Y1994961D2*
Y1973701D1*
X2208386Y3044921D2*
D16*
X2028347D1*
X2023347Y3039921D1*
Y2926811D1*
X1623386Y2423701D2*
Y2523701D1*
X1823386D2*
Y2423701D1*
X2023347Y2926811D2*
Y2723662D1*
X1823386Y2523701D1*
X2863386Y3003701D2*
X2933386D1*
Y2693135D1*
X2939581Y2611410D1*
X2852290Y2698701D1*
X2863386Y2588701D1*
X723386Y2423701D2*
X1623386D1*
X2846457Y1419961D2*
X2863386Y1633701D1*
X2933386Y1722042D1*
Y2173701D1*
Y2693135D1*
X2633386Y3003701D2*
X2863386D1*
Y2588701D2*
X2633386D1*
X2208386Y3044921D2*
X2272560Y3059813D1*
X2427560Y2758593D1*
X2633386Y2588701D1*
Y2173701D2*
X2863386D1*
X2933386D1*
X723386Y1823701D2*
D17*
X1005386D1*
X1162386Y1666701D1*
X1975386D1*
X2027386Y1718701D1*
X2619386D1*
X2735386Y1602701D1*
Y901110D1*
X2846457Y790040D1*
X523386Y1923701D2*
X618386Y1868701D1*
X633386Y1773701D1*
X923386Y1758701D1*
X1086320Y1581201D1*
X1978386Y1578701D1*
X2278386Y1498701D1*
X2273386Y1448701D1*
X1623386Y2723701D2*
D19*
Y2623701D1*
X1823386Y2723701D2*
Y2623701D1*
D16*
X2342370Y2329390D3*
X2273386Y1448701D3*
D33*
X516496Y516811D3*
X2878701D3*
X516496Y3272717D3*
X2878701D3*
D16*
X1923386Y1498701D3*
X607276Y3336650D2*
D14*
X2787946D1*
X620733Y3311781D2*
X2774454D1*
X627048Y3286912D2*
X2768138D1*
X627479Y3262044D2*
X2767743D1*
X622025Y3237175D2*
X2773162D1*
X609716Y3212306D2*
X2785470D1*
X586858Y3187437D2*
X2808328D1*
X2949078D2*
X2956965D1*
X438621Y3162568D2*
X2956961D1*
X438621Y3137700D2*
X2956961D1*
X438621Y3112831D2*
X2956961D1*
X438621Y3087962D2*
X2956961D1*
X438621Y3063093D2*
X2956997D1*
X438621Y3038225D2*
X2956997D1*
X438621Y3013356D2*
X2956997D1*
X438621Y2988487D2*
X2956997D1*
X438621Y2963618D2*
X2956997D1*
X438621Y2938750D2*
X2583299D1*
X2683464D2*
X2813316D1*
X2913445D2*
X2956997D1*
X438621Y2913881D2*
X2168908D1*
X2247865D2*
X2572677D1*
X2694085D2*
X2802695D1*
X2924103D2*
X2956997D1*
X438621Y2889012D2*
X2128538D1*
X2288235D2*
X2573646D1*
X2693116D2*
X2803663D1*
X2923134D2*
X2956997D1*
X438621Y2864143D2*
X2109161D1*
X2307613D2*
X2586636D1*
X2680126D2*
X2816654D1*
X2910108D2*
X2956997D1*
X438621Y2839274D2*
X2098683D1*
X2318091D2*
X2573538D1*
X2923206D2*
X2956997D1*
X438621Y2814406D2*
X2094556D1*
X2322217D2*
X2572749D1*
X2924031D2*
X2956997D1*
X438621Y2789537D2*
X2096063D1*
X2320710D2*
X2573502D1*
X2923242D2*
X2956997D1*
X438621Y2764668D2*
X482674D1*
X564108D2*
X664858D1*
X781889D2*
X1581986D1*
X1664783D2*
X1782005D1*
X1864802D2*
X2103455D1*
X2313318D2*
X2586528D1*
X2680234D2*
X2816510D1*
X2910252D2*
X2956997D1*
X438621Y2739799D2*
X467244D1*
X579538D2*
X664858D1*
X781889D2*
X1566736D1*
X1680034D2*
X1766754D1*
X1880052D2*
X2118240D1*
X2298534D2*
X2956997D1*
X438621Y2714931D2*
X465558D1*
X581224D2*
X664858D1*
X781889D2*
X1564403D1*
X1682366D2*
X1764386D1*
X1882385D2*
X2145583D1*
X2271190D2*
X2956997D1*
X438621Y2690062D2*
X476107D1*
X570674D2*
X664858D1*
X781889D2*
X1564403D1*
X1682366D2*
X1764386D1*
X1882385D2*
X2956997D1*
X438621Y2665193D2*
X483248D1*
X563533D2*
X683231D1*
X763516D2*
X1564403D1*
X1682366D2*
X1764386D1*
X1882385D2*
X2956997D1*
X438621Y2640324D2*
X467388D1*
X579394D2*
X667406D1*
X779377D2*
X1564403D1*
X1682366D2*
X1764386D1*
X1882385D2*
X2956997D1*
X438621Y2615456D2*
X465486D1*
X581296D2*
X665468D1*
X781279D2*
X1565013D1*
X1681756D2*
X1764996D1*
X1881775D2*
X2956997D1*
X438621Y2590587D2*
X475713D1*
X571069D2*
X675695D1*
X771088D2*
X1575132D1*
X1671673D2*
X1775115D1*
X1871656D2*
X2956997D1*
X438621Y2565718D2*
X483823D1*
X562923D2*
X683841D1*
X762942D2*
X2956997D1*
X438621Y2540849D2*
X467567D1*
X579215D2*
X667550D1*
X779233D2*
X2603107D1*
X2663691D2*
X2833088D1*
X2893673D2*
X2956997D1*
X438621Y2515981D2*
X465414D1*
X581368D2*
X665397D1*
X781386D2*
X2578454D1*
X2688308D2*
X2808472D1*
X2918290D2*
X2956997D1*
X438621Y2491112D2*
X475318D1*
X571464D2*
X675336D1*
X771446D2*
X2571852D1*
X2694946D2*
X2801833D1*
X2924928D2*
X2956997D1*
X438621Y2466243D2*
X2576229D1*
X2690533D2*
X2806211D1*
X2920550D2*
X2956997D1*
X438621Y2441374D2*
X2580823D1*
X2685940D2*
X2810840D1*
X2915921D2*
X2956997D1*
X438621Y2416505D2*
X2572175D1*
X2924605D2*
X2956997D1*
X438621Y2391637D2*
X2571852D1*
X2924892D2*
X2956997D1*
X438621Y2366768D2*
X485079D1*
X561703D2*
X685061D1*
X761722D2*
X1585072D1*
X1661697D2*
X1785055D1*
X1861716D2*
X2312230D1*
X2372527D2*
X2576014D1*
X2920766D2*
X2956997D1*
X438621Y2341899D2*
X467890D1*
X578856D2*
X667908D1*
X778874D2*
X1567920D1*
X1919561D2*
X2291955D1*
X2389644D2*
X2594817D1*
X2671945D2*
X2824799D1*
X2901962D2*
X2956997D1*
X438621Y2317030D2*
X465270D1*
X581511D2*
X665253D1*
X781494D2*
X1565264D1*
X2041890D2*
X2253451D1*
X2389680D2*
X2956997D1*
X438621Y2292162D2*
X474600D1*
X572182D2*
X674583D1*
X772200D2*
X1574594D1*
X2164219D2*
X2214947D1*
X2372706D2*
X2956997D1*
X438656Y2267293D2*
X485689D1*
X561057D2*
X685707D1*
X761076D2*
X1585718D1*
X1661087D2*
X1785701D1*
X1861070D2*
X1915171D1*
X2315974D2*
X2956997D1*
X438656Y2242424D2*
X468105D1*
X578677D2*
X668088D1*
X778695D2*
X1568099D1*
X1678670D2*
X1768082D1*
X1878689D2*
X2037536D1*
X2277470D2*
X2956997D1*
X438656Y2217555D2*
X465199D1*
X581583D2*
X665217D1*
X781566D2*
X1565193D1*
X1681577D2*
X1765211D1*
X1881560D2*
X2159865D1*
X2246107D2*
X2956997D1*
X438656Y2192687D2*
X474241D1*
X572540D2*
X674224D1*
X772523D2*
X1574235D1*
X1672534D2*
X1774218D1*
X1872553D2*
X2168119D1*
X2246107D2*
X2956997D1*
X438656Y2167818D2*
X486370D1*
X560412D2*
X686353D1*
X760394D2*
X1586364D1*
X1660405D2*
X1786347D1*
X1860424D2*
X2168119D1*
X2246107D2*
X2956997D1*
X438656Y2142949D2*
X468285D1*
X578497D2*
X668267D1*
X778480D2*
X1568279D1*
X1678491D2*
X1768261D1*
X1878509D2*
X2168119D1*
X2246107D2*
X2956997D1*
X438656Y2118080D2*
X465163D1*
X581619D2*
X665145D1*
X781638D2*
X1565157D1*
X1681613D2*
X1765139D1*
X1881631D2*
X2168119D1*
X2246107D2*
X2591875D1*
X2674887D2*
X2821857D1*
X2904905D2*
X2956997D1*
X438656Y2093211D2*
X473883D1*
X572899D2*
X673901D1*
X772882D2*
X1573877D1*
X1672893D2*
X1773895D1*
X1872876D2*
X2045933D1*
X2118934D2*
X2168119D1*
X2246107D2*
X2575117D1*
X2691681D2*
X2805099D1*
X2921663D2*
X2956997D1*
X438656Y2068343D2*
X487052D1*
X559730D2*
X687035D1*
X759712D2*
X1587046D1*
X1659724D2*
X1787029D1*
X1859742D2*
X2027453D1*
X2137414D2*
X2168119D1*
X2246107D2*
X2572031D1*
X2694731D2*
X2802049D1*
X2924749D2*
X2956997D1*
X438656Y2043474D2*
X468464D1*
X578318D2*
X668483D1*
X778300D2*
X1568458D1*
X1678312D2*
X1768476D1*
X1878294D2*
X2024151D1*
X2140715D2*
X2168119D1*
X2246107D2*
X2580105D1*
X2686657D2*
X2810123D1*
X2916675D2*
X2957032D1*
X438656Y2018605D2*
X465091D1*
X581691D2*
X665109D1*
X781673D2*
X1565085D1*
X1681685D2*
X1765103D1*
X1881667D2*
X2032692D1*
X2132175D2*
X2168119D1*
X2246107D2*
X2576732D1*
X2690030D2*
X2806714D1*
X2920048D2*
X2957032D1*
X438656Y1993736D2*
X473560D1*
X573222D2*
X673542D1*
X773205D2*
X1573554D1*
X1673216D2*
X1773536D1*
X1873234D2*
X2069114D1*
X2095752D2*
X2168119D1*
X2924964D2*
X2957032D1*
X438656Y1968868D2*
X487734D1*
X559012D2*
X687752D1*
X759030D2*
X1587764D1*
X1659042D2*
X1787746D1*
X1859024D2*
X2168442D1*
X2924785D2*
X2957032D1*
X438656Y1943999D2*
X468679D1*
X578102D2*
X668662D1*
X778085D2*
X1568673D1*
X1678096D2*
X1768656D1*
X1878115D2*
X2183405D1*
X2916962D2*
X2957032D1*
X438656Y1919130D2*
X465055D1*
X594645D2*
X665038D1*
X781709D2*
X1565049D1*
X1681721D2*
X1765067D1*
X1881703D2*
X2608202D1*
X2658560D2*
X2838220D1*
X2888542D2*
X2957032D1*
X438656Y1894261D2*
X473237D1*
X637527D2*
X673219D1*
X773564D2*
X1573231D1*
X1673539D2*
X1773213D1*
X1873557D2*
X2957032D1*
X438656Y1869393D2*
X488488D1*
X651629D2*
X688470D1*
X758313D2*
X1588481D1*
X1658288D2*
X1788464D1*
X1858307D2*
X2957032D1*
X438656Y1844524D2*
X468895D1*
X577887D2*
X588859D1*
X655576D2*
X668877D1*
X1030171D2*
X1568889D1*
X1677881D2*
X1768871D1*
X1877899D2*
X2957032D1*
X438656Y1819655D2*
X465019D1*
X581763D2*
X592767D1*
X1055039D2*
X1565013D1*
X1681756D2*
X1764996D1*
X1881775D2*
X2957032D1*
X438656Y1794786D2*
X472914D1*
X573868D2*
X596678D1*
X1079907D2*
X1572908D1*
X1673862D2*
X1772890D1*
X1873880D2*
X2957032D1*
X438656Y1769918D2*
X489241D1*
X557541D2*
X600626D1*
X956968D2*
X1013545D1*
X1104775D2*
X1589235D1*
X1657535D2*
X1789218D1*
X1857553D2*
X2957032D1*
X438656Y1745049D2*
X469110D1*
X577672D2*
X620470D1*
X979826D2*
X1038413D1*
X1129678D2*
X1569104D1*
X1677666D2*
X1769086D1*
X1877684D2*
X2009546D1*
X2637245D2*
X2957032D1*
X438656Y1720180D2*
X464983D1*
X581799D2*
X664966D1*
X781781D2*
X914863D1*
X1002648D2*
X1063280D1*
X1154546D2*
X1564977D1*
X1681792D2*
X1764960D1*
X1881811D2*
X1983243D1*
X2663512D2*
X2957032D1*
X438656Y1695311D2*
X472591D1*
X574191D2*
X672609D1*
X774174D2*
X937686D1*
X1025471D2*
X1088148D1*
X2688416D2*
X2957032D1*
X438656Y1670442D2*
X489995D1*
X556751D2*
X690013D1*
X756770D2*
X960508D1*
X1048293D2*
X1113016D1*
X2024738D2*
X2622018D1*
X2713283D2*
X2957032D1*
X438656Y1645574D2*
X469325D1*
X577457D2*
X669308D1*
X777475D2*
X983330D1*
X1071115D2*
X1137884D1*
X1999870D2*
X2646885D1*
X2738151D2*
X2957032D1*
X438656Y1620705D2*
X464947D1*
X581834D2*
X664930D1*
X781817D2*
X1006153D1*
X1093938D2*
X1564941D1*
X1681828D2*
X1764960D1*
X1881811D2*
X2671753D1*
X2762481D2*
X2957032D1*
X438656Y1595836D2*
X472304D1*
X574478D2*
X672286D1*
X774497D2*
X1029011D1*
X2034965D2*
X2696621D1*
X2768366D2*
X2957032D1*
X438656Y1570967D2*
X490820D1*
X555962D2*
X690803D1*
X755944D2*
X1051833D1*
X2128228D2*
X2702398D1*
X2768366D2*
X2957032D1*
X438656Y1546099D2*
X469541D1*
X577241D2*
X669523D1*
X777224D2*
X1569535D1*
X1677235D2*
X1769553D1*
X1877218D2*
X1979798D1*
X2221491D2*
X2702398D1*
X2768366D2*
X2957032D1*
X438656Y1521230D2*
X464912D1*
X581834D2*
X664930D1*
X781853D2*
X1564905D1*
X1681864D2*
X1764924D1*
X1966569D2*
X2073061D1*
X2301440D2*
X2702398D1*
X2768366D2*
X2957032D1*
X438656Y1496361D2*
X471981D1*
X574765D2*
X671999D1*
X774784D2*
X1571975D1*
X1674795D2*
X1771993D1*
X1972311D2*
X2166324D1*
X2311273D2*
X2702398D1*
X2768366D2*
X2957032D1*
X438656Y1471492D2*
X491645D1*
X555101D2*
X691664D1*
X755119D2*
X1591675D1*
X1655130D2*
X1791658D1*
X1855113D2*
X1870388D1*
X2005970D2*
X2230378D1*
X2316404D2*
X2702398D1*
X2768366D2*
X2957032D1*
X438656Y1446624D2*
X469756D1*
X576990D2*
X669774D1*
X777008D2*
X1569786D1*
X1676984D2*
X1769768D1*
X2032632D2*
X2224457D1*
X2322325D2*
X2702398D1*
X2768366D2*
X2957032D1*
X438656Y1421755D2*
X464912D1*
X581870D2*
X664894D1*
X781889D2*
X1564905D1*
X1681864D2*
X1764888D1*
X2039271D2*
X2232997D1*
X2313785D2*
X2702398D1*
X2768366D2*
X2957032D1*
X438656Y1396886D2*
X471694D1*
X575088D2*
X671712D1*
X775071D2*
X1571688D1*
X1675082D2*
X1771706D1*
X2034390D2*
X2702398D1*
X2768366D2*
X2834344D1*
X2858578D2*
X2957032D1*
X438656Y1372017D2*
X492542D1*
X554239D2*
X692525D1*
X754222D2*
X1592536D1*
X1654233D2*
X1792519D1*
X1917336D2*
X1930458D1*
X2030192D2*
X2702398D1*
X2768366D2*
X2796594D1*
X2896329D2*
X2957032D1*
X438656Y1347149D2*
X470007D1*
X576775D2*
X670026D1*
X776757D2*
X1570001D1*
X1676769D2*
X1770019D1*
X1892468D2*
X1921630D1*
X2038984D2*
X2702398D1*
X2768366D2*
X2787767D1*
X2905120D2*
X2957032D1*
X438656Y1322280D2*
X464876D1*
X581870D2*
X664894D1*
X781889D2*
X1564870D1*
X1681900D2*
X1764888D1*
X1881883D2*
X1924609D1*
X2036041D2*
X2702398D1*
X2768366D2*
X2790745D1*
X2902178D2*
X2957032D1*
X438656Y1297411D2*
X471407D1*
X575339D2*
X671425D1*
X775358D2*
X1571436D1*
X1675369D2*
X1771419D1*
X1875352D2*
X1933400D1*
X2027214D2*
X2702398D1*
X2768366D2*
X2799573D1*
X2893350D2*
X2957032D1*
X438656Y1272542D2*
X493440D1*
X553306D2*
X693458D1*
X753325D2*
X1593433D1*
X1653336D2*
X1793452D1*
X1853319D2*
X1922240D1*
X2038409D2*
X2702398D1*
X2768366D2*
X2788377D1*
X2904546D2*
X2957032D1*
X438656Y1247673D2*
X470258D1*
X576524D2*
X670241D1*
X776506D2*
X1570252D1*
X1676517D2*
X1770271D1*
X1876500D2*
X1923281D1*
X2037333D2*
X2702398D1*
X2768366D2*
X2789453D1*
X2903469D2*
X2957032D1*
X438656Y1222805D2*
X464876D1*
X581906D2*
X664858D1*
X781889D2*
X1564870D1*
X1681900D2*
X1764888D1*
X1881883D2*
X1937024D1*
X2023625D2*
X2702398D1*
X2768366D2*
X2803161D1*
X2889762D2*
X2957032D1*
X438692Y1197936D2*
X471155D1*
X575626D2*
X671138D1*
X775645D2*
X1571149D1*
X1675620D2*
X1771132D1*
X1875639D2*
X1923137D1*
X2037512D2*
X2702398D1*
X2768366D2*
X2789274D1*
X2903649D2*
X2957032D1*
X438692Y1173067D2*
X494408D1*
X552373D2*
X694391D1*
X752356D2*
X1594402D1*
X1652367D2*
X1794421D1*
X1852350D2*
X1922348D1*
X2038302D2*
X2702398D1*
X2768366D2*
X2788484D1*
X2904438D2*
X2957032D1*
X438692Y1148198D2*
X470510D1*
X576272D2*
X670492D1*
X776255D2*
X1570503D1*
X1676266D2*
X1770522D1*
X1876249D2*
X1933903D1*
X2026711D2*
X2702398D1*
X2768366D2*
X2800039D1*
X2892884D2*
X2957032D1*
X438692Y1123330D2*
X464876D1*
X581906D2*
X664858D1*
X781889D2*
X1564870D1*
X1681900D2*
X1764852D1*
X1881918D2*
X1924393D1*
X2036256D2*
X2702398D1*
X2768366D2*
X2790530D1*
X2902393D2*
X2957032D1*
X438692Y1098461D2*
X470868D1*
X575913D2*
X670887D1*
X775896D2*
X1570862D1*
X1675907D2*
X1770881D1*
X1875890D2*
X1921702D1*
X2038912D2*
X2702398D1*
X2768366D2*
X2787839D1*
X2905084D2*
X2957032D1*
X438692Y1073592D2*
X495413D1*
X551369D2*
X695396D1*
X751351D2*
X1595407D1*
X1651363D2*
X1795425D1*
X1851381D2*
X1930852D1*
X2029761D2*
X2702398D1*
X2768366D2*
X2796989D1*
X2895898D2*
X2957032D1*
X438692Y1048723D2*
X470761D1*
X576021D2*
X670779D1*
X776004D2*
X1570755D1*
X1676015D2*
X1770773D1*
X1875998D2*
X1925972D1*
X2034642D2*
X2702398D1*
X2768366D2*
X2792109D1*
X2900778D2*
X2957032D1*
X438692Y1023855D2*
X464876D1*
X581906D2*
X664858D1*
X781889D2*
X1564870D1*
X1681900D2*
X1764852D1*
X1881918D2*
X1921379D1*
X2039271D2*
X2702398D1*
X2768366D2*
X2787516D1*
X2905407D2*
X2957068D1*
X438692Y998986D2*
X470617D1*
X576165D2*
X670600D1*
X776147D2*
X1570611D1*
X1676159D2*
X1770629D1*
X1876141D2*
X1928340D1*
X2032273D2*
X2702398D1*
X2768366D2*
X2794477D1*
X2898446D2*
X2957068D1*
X438692Y974117D2*
X494803D1*
X551943D2*
X694822D1*
X751961D2*
X1594833D1*
X1651973D2*
X1794815D1*
X1851955D2*
X1927982D1*
X2032668D2*
X2702398D1*
X2768366D2*
X2794118D1*
X2898805D2*
X2957068D1*
X438692Y949248D2*
X471048D1*
X575734D2*
X671030D1*
X775753D2*
X1571042D1*
X1675728D2*
X1771024D1*
X1875746D2*
X1921343D1*
X2039271D2*
X2702398D1*
X2768366D2*
X2787480D1*
X2905407D2*
X2957068D1*
X438692Y924379D2*
X464876D1*
X581906D2*
X664858D1*
X781889D2*
X1564870D1*
X1681900D2*
X1764888D1*
X1881918D2*
X1926295D1*
X2034354D2*
X2702398D1*
X2768366D2*
X2792432D1*
X2900491D2*
X2957068D1*
X438692Y899511D2*
X470366D1*
X576416D2*
X670349D1*
X776398D2*
X1570360D1*
X1676410D2*
X1770342D1*
X1876428D2*
X1930422D1*
X2030228D2*
X2702434D1*
X2782612D2*
X2796558D1*
X2896364D2*
X2957068D1*
X438692Y874642D2*
X464876D1*
X581906D2*
X693853D1*
X752930D2*
X1593828D1*
X1652941D2*
X1764852D1*
X1881918D2*
X1921630D1*
X2039019D2*
X2716250D1*
X2905156D2*
X2957068D1*
X438692Y849773D2*
X464876D1*
X581906D2*
X671317D1*
X775465D2*
X1571293D1*
X1675477D2*
X1764852D1*
X1881918D2*
X1924609D1*
X2036005D2*
X2741117D1*
X2902142D2*
X2957068D1*
X438692Y824904D2*
X464876D1*
X581906D2*
X664894D1*
X781889D2*
X1564870D1*
X1681900D2*
X1764852D1*
X1881918D2*
X1933364D1*
X2027249D2*
X2765985D1*
X2893422D2*
X2957068D1*
X438692Y800036D2*
X464876D1*
X581906D2*
X670097D1*
X776650D2*
X1570109D1*
X1676661D2*
X1764852D1*
X1881918D2*
X1922204D1*
X2038409D2*
X2788341D1*
X2904546D2*
X2957068D1*
X438692Y775167D2*
X464876D1*
X581906D2*
X692920D1*
X753863D2*
X1592895D1*
X1653874D2*
X1764852D1*
X1881918D2*
X1923317D1*
X2037297D2*
X2789453D1*
X2903469D2*
X2957068D1*
X438692Y750298D2*
X1936953D1*
X2023697D2*
X2803089D1*
X2889833D2*
X2957068D1*
X438692Y725429D2*
X1923101D1*
X2037512D2*
X2789274D1*
X2903649D2*
X2957068D1*
X438692Y700561D2*
X1922348D1*
X2038266D2*
X2788484D1*
X2904402D2*
X2957068D1*
X438692Y675692D2*
X1933974D1*
X2026675D2*
X2800111D1*
X2892812D2*
X2957068D1*
X438692Y650823D2*
X2957068D1*
X438692Y625954D2*
X2957068D1*
X588114Y601086D2*
X2807072D1*
X610362Y576217D2*
X2784824D1*
X622384Y551348D2*
X2772839D1*
X627551Y526479D2*
X2767636D1*
X626941Y501610D2*
X2768282D1*
X620338Y476742D2*
X2774848D1*
X606523Y451873D2*
X2788664D1*
X676553Y2779721D2*
X779406D1*
Y2667681D1*
X758055D1*
X762998Y2663313D1*
X768707Y2656629D1*
X773300Y2649133D1*
X776664Y2641012D1*
X778716Y2632464D1*
X779406Y2623701D1*
X778716Y2614938D1*
X776664Y2606390D1*
X773300Y2598269D1*
X768707Y2590773D1*
X762998Y2584089D1*
X756314Y2578380D1*
X748647Y2573708D1*
X756314Y2569022D1*
X762998Y2563313D1*
X768707Y2556629D1*
X773300Y2549133D1*
X776664Y2541012D1*
X778716Y2532464D1*
X779406Y2523701D1*
X778716Y2514938D1*
X776664Y2506390D1*
X773300Y2498269D1*
X768707Y2490773D1*
X762998Y2484089D1*
X756314Y2478380D1*
X748818Y2473787D1*
X740697Y2470423D1*
X732149Y2468371D1*
X723386Y2467681D1*
X714623Y2468371D1*
X706075Y2470423D1*
X697954Y2473787D1*
X690458Y2478380D1*
X683774Y2484089D1*
X678065Y2490773D1*
X673472Y2498269D1*
X670108Y2506390D1*
X668056Y2514938D1*
X667366Y2523701D1*
X668056Y2532464D1*
X670108Y2541012D1*
X673472Y2549133D1*
X678065Y2556629D1*
X683774Y2563313D1*
X690458Y2569022D1*
X698125Y2573694D1*
X690458Y2578380D1*
X683774Y2584089D1*
X678065Y2590773D1*
X673472Y2598269D1*
X670108Y2606390D1*
X668056Y2614938D1*
X667366Y2623701D1*
X668056Y2632464D1*
X670108Y2641012D1*
X673472Y2649133D1*
X678065Y2656629D1*
X683774Y2663313D1*
X688745Y2667671D1*
X667366Y2667681D1*
Y2779721D1*
X676553D1*
X779233Y2319306D2*
X777858Y2310623D1*
X775141Y2302263D1*
X771151Y2294431D1*
X765984Y2287319D1*
X759768Y2281103D1*
X752656Y2275936D1*
X748818Y2273615D1*
X756314Y2269022D1*
X762998Y2263313D1*
X768707Y2256629D1*
X773300Y2249133D1*
X776664Y2241012D1*
X778716Y2232464D1*
X779406Y2223701D1*
X778716Y2214938D1*
X776664Y2206390D1*
X773300Y2198269D1*
X768707Y2190773D1*
X762998Y2184089D1*
X756314Y2178380D1*
X748647Y2173708D1*
X756314Y2169022D1*
X762998Y2163313D1*
X768707Y2156629D1*
X773300Y2149133D1*
X776664Y2141012D1*
X778716Y2132464D1*
X779406Y2123701D1*
X778716Y2114938D1*
X776664Y2106390D1*
X773300Y2098269D1*
X768707Y2090773D1*
X762998Y2084089D1*
X756314Y2078380D1*
X748647Y2073708D1*
X756314Y2069022D1*
X762998Y2063313D1*
X768707Y2056629D1*
X773300Y2049133D1*
X776664Y2041012D1*
X778716Y2032464D1*
X779406Y2023701D1*
X778716Y2014938D1*
X776664Y2006390D1*
X773300Y1998269D1*
X768707Y1990773D1*
X762998Y1984089D1*
X756314Y1978380D1*
X748647Y1973708D1*
X756314Y1969022D1*
X762998Y1963313D1*
X768707Y1956629D1*
X773300Y1949133D1*
X776664Y1941012D1*
X778716Y1932464D1*
X779406Y1923701D1*
X778716Y1914938D1*
X776664Y1906390D1*
X773300Y1898269D1*
X768707Y1890773D1*
X762998Y1884089D1*
X756314Y1878380D1*
X748647Y1873708D1*
X756314Y1869022D1*
X762998Y1863313D1*
X768707Y1856629D1*
X770339Y1854186D1*
X1007778Y1854099D1*
X1012504Y1853351D1*
X1017055Y1851872D1*
X1021318Y1849700D1*
X1025189Y1846887D1*
X1078913Y1793296D1*
X1175004Y1697205D1*
X1574014Y1697193D1*
X1571631Y1702263D1*
X1568914Y1710623D1*
X1567539Y1719306D1*
Y1728096D1*
X1568914Y1736779D1*
X1571631Y1745139D1*
X1575621Y1752971D1*
X1580788Y1760083D1*
X1587004Y1766299D1*
X1594116Y1771466D1*
X1597954Y1773787D1*
X1590458Y1778380D1*
X1583774Y1784089D1*
X1578065Y1790773D1*
X1573472Y1798269D1*
X1570108Y1806390D1*
X1568056Y1814938D1*
X1567366Y1823701D1*
X1568056Y1832464D1*
X1570108Y1841012D1*
X1573472Y1849133D1*
X1578065Y1856629D1*
X1583774Y1863313D1*
X1590458Y1869022D1*
X1598125Y1873694D1*
X1590458Y1878380D1*
X1583774Y1884089D1*
X1578065Y1890773D1*
X1573472Y1898269D1*
X1570108Y1906390D1*
X1568056Y1914938D1*
X1567366Y1923701D1*
X1568056Y1932464D1*
X1570108Y1941012D1*
X1573472Y1949133D1*
X1578065Y1956629D1*
X1583774Y1963313D1*
X1590458Y1969022D1*
X1598125Y1973694D1*
X1590458Y1978380D1*
X1583774Y1984089D1*
X1578065Y1990773D1*
X1573472Y1998269D1*
X1570108Y2006390D1*
X1568056Y2014938D1*
X1567366Y2023701D1*
X1568056Y2032464D1*
X1570108Y2041012D1*
X1573472Y2049133D1*
X1578065Y2056629D1*
X1583774Y2063313D1*
X1590458Y2069022D1*
X1598125Y2073694D1*
X1590458Y2078380D1*
X1583774Y2084089D1*
X1578065Y2090773D1*
X1573472Y2098269D1*
X1570108Y2106390D1*
X1568056Y2114938D1*
X1567366Y2123701D1*
X1568056Y2132464D1*
X1570108Y2141012D1*
X1573472Y2149133D1*
X1578065Y2156629D1*
X1583774Y2163313D1*
X1590458Y2169022D1*
X1598125Y2173694D1*
X1590458Y2178380D1*
X1583774Y2184089D1*
X1578065Y2190773D1*
X1573472Y2198269D1*
X1570108Y2206390D1*
X1568056Y2214938D1*
X1567366Y2223701D1*
X1568056Y2232464D1*
X1570108Y2241012D1*
X1573472Y2249133D1*
X1578065Y2256629D1*
X1583774Y2263313D1*
X1590458Y2269022D1*
X1598125Y2273694D1*
X1590458Y2278380D1*
X1583774Y2284089D1*
X1578065Y2290773D1*
X1573472Y2298269D1*
X1570108Y2306390D1*
X1568056Y2314938D1*
X1567366Y2323701D1*
X1568056Y2332464D1*
X1570108Y2341012D1*
X1573472Y2349133D1*
X1578065Y2356629D1*
X1583774Y2363313D1*
X1590458Y2369022D1*
X1597954Y2373615D1*
X1606075Y2376979D1*
X1614623Y2379031D1*
X1623386Y2379721D1*
X1632149Y2379031D1*
X1640697Y2376979D1*
X1648818Y2373615D1*
X1656314Y2369022D1*
X1662998Y2363313D1*
X1665879Y2360196D1*
X1780882Y2360193D1*
X1787004Y2366299D1*
X1794116Y2371466D1*
X1801948Y2375456D1*
X1810309Y2378173D1*
X1818991Y2379548D1*
X1827781D1*
X1836464Y2378173D1*
X1844824Y2375456D1*
X1852656Y2371466D1*
X1859768Y2366299D1*
X1865984Y2360083D1*
X1871151Y2352971D1*
X1872250Y2351007D1*
X2204072Y2283552D1*
X2298402Y2344439D1*
X2300945Y2350497D1*
X2304757Y2356718D1*
X2309495Y2362265D1*
X2315042Y2367003D1*
X2321263Y2370815D1*
X2328003Y2373607D1*
X2335097Y2375310D1*
X2342370Y2375882D1*
X2349643Y2375310D1*
X2356737Y2373607D1*
X2363477Y2370815D1*
X2369697Y2367003D1*
X2375245Y2362265D1*
X2379983Y2356718D1*
X2383795Y2350497D1*
X2386586Y2343757D1*
X2388290Y2336663D1*
X2388862Y2329390D1*
X2388290Y2322117D1*
X2386586Y2315023D1*
X2383795Y2308283D1*
X2379983Y2302063D1*
X2375245Y2296515D1*
X2369697Y2291777D1*
X2363477Y2287965D1*
X2356737Y2285174D1*
X2349643Y2283470D1*
X2342370Y2282898D1*
X2338000Y2283127D1*
X2243600Y2222178D1*
Y2010206D1*
X2576320Y2010193D1*
X2578792Y2017574D1*
X2583002Y2025836D1*
X2588452Y2033338D1*
X2589350Y2034310D1*
X2585580Y2038968D1*
X2580735Y2046874D1*
X2577186Y2055441D1*
X2575022Y2064457D1*
X2574294Y2073701D1*
X2575022Y2082945D1*
X2577186Y2091961D1*
X2580735Y2100528D1*
X2585580Y2108434D1*
X2591602Y2115485D1*
X2598653Y2121507D1*
X2606559Y2126352D1*
X2615126Y2129901D1*
X2624142Y2132065D1*
X2633386Y2132793D1*
X2642630Y2132065D1*
X2651646Y2129901D1*
X2660213Y2126352D1*
X2668119Y2121507D1*
X2675170Y2115485D1*
X2681192Y2108434D1*
X2686037Y2100528D1*
X2689586Y2091961D1*
X2691750Y2082945D1*
X2692478Y2073701D1*
X2691750Y2064457D1*
X2689586Y2055441D1*
X2686037Y2046874D1*
X2681192Y2038968D1*
X2677422Y2034352D1*
X2681192Y2029694D1*
X2686037Y2021788D1*
X2689586Y2013221D1*
X2690437Y2010203D1*
X2806312Y2010193D1*
X2808792Y2017574D1*
X2813002Y2025836D1*
X2818452Y2033338D1*
X2819350Y2034310D1*
X2815580Y2038968D1*
X2810735Y2046874D1*
X2807186Y2055441D1*
X2805022Y2064457D1*
X2804294Y2073701D1*
X2805022Y2082945D1*
X2807186Y2091961D1*
X2810735Y2100528D1*
X2815580Y2108434D1*
X2821602Y2115485D1*
X2828653Y2121507D1*
X2836559Y2126352D1*
X2845126Y2129901D1*
X2854142Y2132065D1*
X2863386Y2132793D1*
X2872630Y2132065D1*
X2881646Y2129901D1*
X2890213Y2126352D1*
X2898119Y2121507D1*
X2905170Y2115485D1*
X2911192Y2108434D1*
X2916037Y2100528D1*
X2919586Y2091961D1*
X2921750Y2082945D1*
X2922478Y2073701D1*
X2921750Y2064457D1*
X2919586Y2055441D1*
X2916037Y2046874D1*
X2911192Y2038968D1*
X2907422Y2034352D1*
X2911192Y2029694D1*
X2916037Y2021788D1*
X2919586Y2013221D1*
X2921750Y2004205D1*
X2922478Y1994961D1*
X2921750Y1985717D1*
X2921492Y1984419D1*
X2922296Y1978337D1*
Y1969065D1*
X2920845Y1959906D1*
X2917980Y1951088D1*
X2913770Y1942826D1*
X2908320Y1935324D1*
X2901763Y1928767D1*
X2894261Y1923317D1*
X2886000Y1919107D1*
X2877181Y1916242D1*
X2868022Y1914791D1*
X2858750D1*
X2849591Y1916242D1*
X2840773Y1919107D1*
X2832511Y1923317D1*
X2825009Y1928767D1*
X2818452Y1935324D1*
X2816960Y1937217D1*
X2679838Y1937209D1*
X2675170Y1931917D1*
X2668119Y1925895D1*
X2660213Y1921050D1*
X2651646Y1917501D1*
X2642630Y1915337D1*
X2633386Y1914609D1*
X2624142Y1915337D1*
X2615126Y1917501D1*
X2606559Y1921050D1*
X2598653Y1925895D1*
X2591602Y1931917D1*
X2586960Y1937217D1*
X2204245Y1937321D1*
X2198589Y1938217D1*
X2193143Y1939987D1*
X2188041Y1942586D1*
X2183408Y1945952D1*
X2179359Y1950001D1*
X2175993Y1954634D1*
X2173394Y1959736D1*
X2171624Y1965182D1*
X2170728Y1970838D1*
X2170616Y2019633D1*
Y2215883D1*
X1857789Y2279469D1*
X1852656Y2275936D1*
X1848818Y2273615D1*
X1856314Y2269022D1*
X1862998Y2263313D1*
X1868707Y2256629D1*
X1873300Y2249133D1*
X1876664Y2241012D1*
X1878716Y2232464D1*
X1879406Y2223701D1*
X1878716Y2214938D1*
X1876664Y2206390D1*
X1873300Y2198269D1*
X1868707Y2190773D1*
X1862998Y2184089D1*
X1856314Y2178380D1*
X1848647Y2173708D1*
X1856314Y2169022D1*
X1862998Y2163313D1*
X1868707Y2156629D1*
X1873300Y2149133D1*
X1876664Y2141012D1*
X1878716Y2132464D1*
X1879406Y2123701D1*
X1878716Y2114938D1*
X1876664Y2106390D1*
X1873300Y2098269D1*
X1868707Y2090773D1*
X1862998Y2084089D1*
X1856314Y2078380D1*
X1848647Y2073708D1*
X1856314Y2069022D1*
X1862998Y2063313D1*
X1868707Y2056629D1*
X1873300Y2049133D1*
X1876664Y2041012D1*
X1878716Y2032464D1*
X1879406Y2023701D1*
X1878716Y2014938D1*
X1876664Y2006390D1*
X1873300Y1998269D1*
X1868707Y1990773D1*
X1862998Y1984089D1*
X1856314Y1978380D1*
X1848647Y1973708D1*
X1856314Y1969022D1*
X1862998Y1963313D1*
X1868707Y1956629D1*
X1873300Y1949133D1*
X1876664Y1941012D1*
X1878716Y1932464D1*
X1879406Y1923701D1*
X1878716Y1914938D1*
X1876664Y1906390D1*
X1873300Y1898269D1*
X1868707Y1890773D1*
X1862998Y1884089D1*
X1856314Y1878380D1*
X1848647Y1873708D1*
X1856314Y1869022D1*
X1862998Y1863313D1*
X1868707Y1856629D1*
X1873300Y1849133D1*
X1876664Y1841012D1*
X1878716Y1832464D1*
X1879406Y1823701D1*
X1878716Y1814938D1*
X1876664Y1806390D1*
X1873300Y1798269D1*
X1868707Y1790773D1*
X1862998Y1784089D1*
X1856314Y1778380D1*
X1848647Y1773708D1*
X1856314Y1769022D1*
X1862998Y1763313D1*
X1868707Y1756629D1*
X1873300Y1749133D1*
X1876664Y1741012D1*
X1878716Y1732464D1*
X1879406Y1723701D1*
X1878716Y1714938D1*
X1876664Y1706390D1*
X1873300Y1698269D1*
X1872704Y1697204D1*
X1962783Y1697193D1*
X2007583Y1741888D1*
X2011454Y1744700D1*
X2015717Y1746872D1*
X2020268Y1748351D1*
X2024994Y1749099D1*
X2100877Y1749193D1*
X2621778Y1749099D1*
X2626504Y1748351D1*
X2631055Y1746872D1*
X2635318Y1744700D1*
X2639189Y1741888D1*
X2692913Y1688296D1*
X2758572Y1622504D1*
X2761385Y1618633D1*
X2763557Y1614370D1*
X2765036Y1609819D1*
X2765784Y1605093D1*
X2765878Y1529210D1*
Y913761D1*
X2792902Y886717D1*
X2796122Y894427D1*
X2800754Y901985D1*
X2805958Y908128D1*
X2800754Y914315D1*
X2796122Y921873D1*
X2792730Y930063D1*
X2790660Y938683D1*
X2789965Y947520D1*
X2790660Y956357D1*
X2792730Y964977D1*
X2796122Y973167D1*
X2800754Y980725D1*
X2805958Y986868D1*
X2800754Y993055D1*
X2796122Y1000613D1*
X2792730Y1008803D1*
X2790660Y1017423D1*
X2789965Y1026260D1*
X2790660Y1035097D1*
X2792730Y1043717D1*
X2796122Y1051907D1*
X2800754Y1059465D1*
X2805958Y1065608D1*
X2800754Y1071795D1*
X2796122Y1079353D1*
X2792730Y1087543D1*
X2790660Y1096163D1*
X2789965Y1105000D1*
X2790660Y1113838D1*
X2792730Y1122457D1*
X2796122Y1130647D1*
X2800754Y1138205D1*
X2805958Y1144348D1*
X2800754Y1150535D1*
X2796122Y1158093D1*
X2792730Y1166283D1*
X2790660Y1174903D1*
X2789965Y1183740D1*
X2790660Y1192578D1*
X2792730Y1201197D1*
X2796122Y1209387D1*
X2800754Y1216946D1*
X2805958Y1223088D1*
X2800754Y1229275D1*
X2796122Y1236834D1*
X2792730Y1245024D1*
X2790660Y1253643D1*
X2789965Y1262481D1*
X2790660Y1271318D1*
X2792730Y1279938D1*
X2796122Y1288127D1*
X2800754Y1295686D1*
X2805958Y1301828D1*
X2800754Y1308015D1*
X2796122Y1315574D1*
X2792730Y1323764D1*
X2790660Y1332383D1*
X2789965Y1341221D1*
X2790660Y1350058D1*
X2792730Y1358678D1*
X2796122Y1366868D1*
X2800754Y1374426D1*
X2806511Y1381167D1*
X2813252Y1386924D1*
X2820810Y1391556D1*
X2829000Y1394948D1*
X2837620Y1397017D1*
X2846457Y1397713D1*
X2855294Y1397017D1*
X2863914Y1394948D1*
X2872104Y1391556D1*
X2879662Y1386924D1*
X2886403Y1381167D1*
X2892160Y1374426D1*
X2896792Y1366868D1*
X2900184Y1358678D1*
X2902254Y1350058D1*
X2902949Y1341221D1*
X2902254Y1332383D1*
X2900184Y1323764D1*
X2896792Y1315574D1*
X2892160Y1308015D1*
X2886956Y1301873D1*
X2892160Y1295686D1*
X2896792Y1288127D1*
X2900184Y1279938D1*
X2902254Y1271318D1*
X2902949Y1262481D1*
X2902254Y1253643D1*
X2900184Y1245024D1*
X2896792Y1236834D1*
X2892160Y1229275D1*
X2886956Y1223133D1*
X2892160Y1216946D1*
X2896792Y1209387D1*
X2900184Y1201197D1*
X2902254Y1192578D1*
X2902949Y1183740D1*
X2902254Y1174903D1*
X2900184Y1166283D1*
X2896792Y1158093D1*
X2892160Y1150535D1*
X2886956Y1144392D1*
X2892160Y1138205D1*
X2896792Y1130647D1*
X2900184Y1122457D1*
X2902254Y1113838D1*
X2902949Y1105000D1*
X2902254Y1096163D1*
X2900184Y1087543D1*
X2896792Y1079353D1*
X2892160Y1071795D1*
X2886956Y1065652D1*
X2892160Y1059465D1*
X2896792Y1051907D1*
X2900184Y1043717D1*
X2902254Y1035097D1*
X2902949Y1026260D1*
X2902254Y1017423D1*
X2900184Y1008803D1*
X2896792Y1000613D1*
X2892160Y993055D1*
X2886956Y986912D1*
X2892160Y980725D1*
X2896792Y973167D1*
X2900184Y964977D1*
X2902254Y956357D1*
X2902949Y947520D1*
X2902254Y938683D1*
X2900184Y930063D1*
X2896792Y921873D1*
X2892160Y914315D1*
X2886956Y908172D1*
X2892160Y901985D1*
X2896792Y894427D1*
X2900184Y886237D1*
X2902254Y877617D1*
X2902949Y868780D1*
X2902254Y859942D1*
X2900184Y851323D1*
X2896792Y843133D1*
X2892160Y835575D1*
X2886956Y829432D1*
X2892160Y823245D1*
X2896792Y815686D1*
X2900184Y807497D1*
X2902254Y798877D1*
X2902949Y790040D1*
X2902254Y781202D1*
X2900184Y772583D1*
X2896792Y764393D1*
X2892160Y756834D1*
X2886956Y750692D1*
X2892160Y744505D1*
X2896792Y736946D1*
X2900184Y728756D1*
X2902254Y720137D1*
X2902949Y711299D1*
X2902254Y702462D1*
X2900184Y693842D1*
X2896792Y685653D1*
X2892160Y678094D1*
X2886403Y671353D1*
X2879662Y665596D1*
X2872104Y660965D1*
X2863914Y657572D1*
X2855294Y655503D1*
X2846457Y654807D1*
X2837620Y655503D1*
X2829000Y657572D1*
X2820810Y660965D1*
X2813252Y665596D1*
X2806511Y671353D1*
X2800754Y678094D1*
X2796122Y685653D1*
X2792730Y693842D1*
X2790660Y702462D1*
X2789965Y711299D1*
X2790660Y720137D1*
X2792730Y728756D1*
X2796122Y736946D1*
X2800754Y744505D1*
X2805958Y750647D1*
X2800754Y756834D1*
X2796122Y764393D1*
X2792730Y772583D1*
X2790660Y781202D1*
X2789965Y790040D1*
X2790660Y798877D1*
X2791299Y802089D1*
X2712200Y881307D1*
X2709387Y885178D1*
X2707215Y889442D1*
X2705736Y893992D1*
X2704988Y898718D1*
X2704894Y974601D1*
Y1590051D1*
X2606772Y1688193D1*
X2040036Y1688209D1*
X1995189Y1643514D1*
X1991318Y1640702D1*
X1987055Y1638530D1*
X1982504Y1637051D1*
X1977778Y1636303D1*
X1901895Y1636209D1*
X1877960D1*
X1879233Y1628096D1*
Y1619306D1*
X1877858Y1610623D1*
X1877536Y1609482D1*
X1981537Y1609030D1*
X1986243Y1608164D1*
X2288419Y1527495D1*
X2292800Y1525571D1*
X2296826Y1522986D1*
X2300398Y1519802D1*
X2303428Y1516099D1*
X2305841Y1511967D1*
X2307578Y1507509D1*
X2308597Y1502834D1*
X2308871Y1498057D1*
X2307217Y1480563D1*
X2310999Y1476028D1*
X2314811Y1469808D1*
X2317603Y1463068D1*
X2319306Y1455974D1*
X2319878Y1448701D1*
X2319306Y1441428D1*
X2317603Y1434334D1*
X2314811Y1427594D1*
X2310999Y1421374D1*
X2306261Y1415826D1*
X2300713Y1411088D1*
X2294493Y1407276D1*
X2287753Y1404484D1*
X2280659Y1402781D1*
X2273386Y1402209D1*
X2266113Y1402781D1*
X2259019Y1404484D1*
X2252279Y1407276D1*
X2246059Y1411088D1*
X2240511Y1415826D1*
X2235773Y1421374D1*
X2231961Y1427594D1*
X2229169Y1434334D1*
X2227466Y1441428D1*
X2226894Y1448701D1*
X2227466Y1455974D1*
X2229169Y1463068D1*
X2231961Y1469808D1*
X2235773Y1476028D1*
X2237389Y1478078D1*
X1974322Y1548227D1*
X1873627Y1548502D1*
X1876664Y1541012D1*
X1878716Y1532464D1*
X1879406Y1523701D1*
X1878716Y1514938D1*
X1876664Y1506390D1*
X1873300Y1498269D1*
X1868707Y1490773D1*
X1862998Y1484089D1*
X1856314Y1478380D1*
X1848647Y1473708D1*
X1856314Y1469022D1*
X1862998Y1463313D1*
X1868707Y1456629D1*
X1872889Y1449868D1*
X1872988Y1481093D1*
X1873736Y1485819D1*
X1875215Y1490370D1*
X1877037Y1495053D1*
Y1502349D1*
X1878178Y1509554D1*
X1880433Y1516493D1*
X1883745Y1522993D1*
X1888033Y1528895D1*
X1893192Y1534054D1*
X1899094Y1538342D1*
X1905594Y1541654D1*
X1912533Y1543909D1*
X1919738Y1545050D1*
X1927034D1*
X1934239Y1543909D1*
X1941178Y1541654D1*
X1947678Y1538342D1*
X1953580Y1534054D1*
X1958739Y1528895D1*
X1963027Y1522993D1*
X1966339Y1516493D1*
X1968594Y1509554D1*
X1969735Y1502349D1*
Y1495053D1*
X1968594Y1487848D1*
X1966339Y1480909D1*
X1963027Y1474409D1*
X1962465Y1473567D1*
X1971478Y1475757D1*
X1980315Y1476453D1*
X1989152Y1475757D1*
X1997772Y1473688D1*
X2005962Y1470296D1*
X2013520Y1465664D1*
X2020261Y1459907D1*
X2026018Y1453166D1*
X2030650Y1445608D1*
X2034042Y1437418D1*
X2036112Y1428798D1*
X2036807Y1419961D1*
X2036112Y1411124D1*
X2034042Y1402504D1*
X2030650Y1394314D1*
X2026018Y1386756D1*
X2020814Y1380613D1*
X2026018Y1374426D1*
X2030650Y1366868D1*
X2034042Y1358678D1*
X2036112Y1350058D1*
X2036807Y1341221D1*
X2036112Y1332383D1*
X2034042Y1323764D1*
X2030650Y1315574D1*
X2026018Y1308015D1*
X2020814Y1301873D1*
X2026018Y1295686D1*
X2030650Y1288127D1*
X2034042Y1279938D1*
X2036112Y1271318D1*
X2036807Y1262481D1*
X2036112Y1253643D1*
X2034042Y1245024D1*
X2030650Y1236834D1*
X2026018Y1229275D1*
X2020814Y1223133D1*
X2026018Y1216946D1*
X2030650Y1209387D1*
X2034042Y1201197D1*
X2036112Y1192578D1*
X2036807Y1183740D1*
X2036112Y1174903D1*
X2034042Y1166283D1*
X2030650Y1158093D1*
X2026018Y1150535D1*
X2020814Y1144392D1*
X2026018Y1138205D1*
X2030650Y1130647D1*
X2034042Y1122457D1*
X2036112Y1113838D1*
X2036807Y1105000D1*
X2036112Y1096163D1*
X2034042Y1087543D1*
X2030650Y1079353D1*
X2026018Y1071795D1*
X2020814Y1065652D1*
X2026018Y1059465D1*
X2030650Y1051907D1*
X2034042Y1043717D1*
X2036112Y1035097D1*
X2036807Y1026260D1*
X2036112Y1017423D1*
X2034042Y1008803D1*
X2030650Y1000613D1*
X2026018Y993055D1*
X2020814Y986912D1*
X2026018Y980725D1*
X2030650Y973167D1*
X2034042Y964977D1*
X2036112Y956357D1*
X2036807Y947520D1*
X2036112Y938683D1*
X2034042Y930063D1*
X2030650Y921873D1*
X2026018Y914315D1*
X2020814Y908172D1*
X2026018Y901985D1*
X2030650Y894427D1*
X2034042Y886237D1*
X2036112Y877617D1*
X2036807Y868780D1*
X2036112Y859942D1*
X2034042Y851323D1*
X2030650Y843133D1*
X2026018Y835575D1*
X2020814Y829432D1*
X2026018Y823245D1*
X2030650Y815686D1*
X2034042Y807497D1*
X2036112Y798877D1*
X2036807Y790040D1*
X2036112Y781202D1*
X2034042Y772583D1*
X2030650Y764393D1*
X2026018Y756834D1*
X2020814Y750692D1*
X2026018Y744505D1*
X2030650Y736946D1*
X2034042Y728756D1*
X2036112Y720137D1*
X2036807Y711299D1*
X2036112Y702462D1*
X2034042Y693842D1*
X2030650Y685653D1*
X2026018Y678094D1*
X2020261Y671353D1*
X2013520Y665596D1*
X2005962Y660965D1*
X1997772Y657572D1*
X1989152Y655503D1*
X1980315Y654807D1*
X1971478Y655503D1*
X1962858Y657572D1*
X1954668Y660965D1*
X1947110Y665596D1*
X1940369Y671353D1*
X1934612Y678094D1*
X1929980Y685653D1*
X1926588Y693842D1*
X1924519Y702462D1*
X1923823Y711299D1*
X1924519Y720137D1*
X1926588Y728756D1*
X1929980Y736946D1*
X1934612Y744505D1*
X1939816Y750647D1*
X1934612Y756834D1*
X1929980Y764393D1*
X1926588Y772583D1*
X1924519Y781202D1*
X1923823Y790040D1*
X1924519Y798877D1*
X1926588Y807497D1*
X1929980Y815686D1*
X1934612Y823245D1*
X1939816Y829388D1*
X1934612Y835575D1*
X1929980Y843133D1*
X1926588Y851323D1*
X1924519Y859942D1*
X1923823Y868780D1*
X1924519Y877617D1*
X1926588Y886237D1*
X1929980Y894427D1*
X1934612Y901985D1*
X1939816Y908128D1*
X1934612Y914315D1*
X1929980Y921873D1*
X1926588Y930063D1*
X1924519Y938683D1*
X1923823Y947520D1*
X1924519Y956357D1*
X1926588Y964977D1*
X1929980Y973167D1*
X1934612Y980725D1*
X1939816Y986868D1*
X1934612Y993055D1*
X1929980Y1000613D1*
X1926588Y1008803D1*
X1924519Y1017423D1*
X1923823Y1026260D1*
X1924519Y1035097D1*
X1926588Y1043717D1*
X1929980Y1051907D1*
X1934612Y1059465D1*
X1939816Y1065608D1*
X1934612Y1071795D1*
X1929980Y1079353D1*
X1926588Y1087543D1*
X1924519Y1096163D1*
X1923823Y1105000D1*
X1924519Y1113838D1*
X1926588Y1122457D1*
X1929980Y1130647D1*
X1934612Y1138205D1*
X1939816Y1144348D1*
X1934612Y1150535D1*
X1929980Y1158093D1*
X1926588Y1166283D1*
X1924519Y1174903D1*
X1923823Y1183740D1*
X1924519Y1192578D1*
X1926588Y1201197D1*
X1929980Y1209387D1*
X1934612Y1216946D1*
X1939816Y1223088D1*
X1934612Y1229275D1*
X1929980Y1236834D1*
X1926588Y1245024D1*
X1924519Y1253643D1*
X1923823Y1262481D1*
X1924519Y1271318D1*
X1926588Y1279938D1*
X1929980Y1288127D1*
X1934612Y1295686D1*
X1939816Y1301828D1*
X1934612Y1308015D1*
X1929980Y1315574D1*
X1926588Y1323764D1*
X1924519Y1332383D1*
X1923823Y1341221D1*
X1924519Y1350058D1*
X1926588Y1358678D1*
X1929980Y1366868D1*
X1934612Y1374426D1*
X1939816Y1380569D1*
X1934612Y1386756D1*
X1931428Y1391729D1*
X1929385Y1387769D1*
X1926572Y1383898D1*
X1878183Y1335376D1*
X1879233Y1328096D1*
Y1319306D1*
X1877858Y1310623D1*
X1875141Y1302263D1*
X1871151Y1294431D1*
X1865984Y1287319D1*
X1859768Y1281103D1*
X1852656Y1275936D1*
X1848818Y1273615D1*
X1856314Y1269022D1*
X1862998Y1263313D1*
X1868707Y1256629D1*
X1873300Y1249133D1*
X1876664Y1241012D1*
X1878716Y1232464D1*
X1879406Y1223701D1*
X1878716Y1214938D1*
X1876664Y1206390D1*
X1873300Y1198269D1*
X1868707Y1190773D1*
X1862998Y1184089D1*
X1856314Y1178380D1*
X1848647Y1173708D1*
X1856314Y1169022D1*
X1862998Y1163313D1*
X1868707Y1156629D1*
X1873300Y1149133D1*
X1876664Y1141012D1*
X1878716Y1132464D1*
X1879406Y1123701D1*
X1878716Y1114938D1*
X1876664Y1106390D1*
X1873300Y1098269D1*
X1868707Y1090773D1*
X1862998Y1084089D1*
X1856314Y1078380D1*
X1848647Y1073708D1*
X1856314Y1069022D1*
X1862998Y1063313D1*
X1868707Y1056629D1*
X1873300Y1049133D1*
X1876664Y1041012D1*
X1878716Y1032464D1*
X1879406Y1023701D1*
X1878716Y1014938D1*
X1876664Y1006390D1*
X1873300Y998269D1*
X1868707Y990773D1*
X1862998Y984089D1*
X1856314Y978380D1*
X1848647Y973708D1*
X1856314Y969022D1*
X1862998Y963313D1*
X1868707Y956629D1*
X1873300Y949133D1*
X1876664Y941012D1*
X1878716Y932464D1*
X1879406Y923701D1*
X1878716Y914938D1*
X1876664Y906390D1*
X1873300Y898269D1*
X1868707Y890773D1*
X1862998Y884089D1*
X1858027Y879731D1*
X1879406Y879721D1*
Y767681D1*
X1767366D1*
Y879721D1*
X1788717D1*
X1783774Y884089D1*
X1778065Y890773D1*
X1773472Y898269D1*
X1770108Y906390D1*
X1768056Y914938D1*
X1767366Y923701D1*
X1768056Y932464D1*
X1770108Y941012D1*
X1773472Y949133D1*
X1778065Y956629D1*
X1783774Y963313D1*
X1790458Y969022D1*
X1798125Y973694D1*
X1790458Y978380D1*
X1783774Y984089D1*
X1778065Y990773D1*
X1773472Y998269D1*
X1770108Y1006390D1*
X1768056Y1014938D1*
X1767366Y1023701D1*
X1768056Y1032464D1*
X1770108Y1041012D1*
X1773472Y1049133D1*
X1778065Y1056629D1*
X1783774Y1063313D1*
X1790458Y1069022D1*
X1798125Y1073694D1*
X1790458Y1078380D1*
X1783774Y1084089D1*
X1778065Y1090773D1*
X1773472Y1098269D1*
X1770108Y1106390D1*
X1768056Y1114938D1*
X1767366Y1123701D1*
X1768056Y1132464D1*
X1770108Y1141012D1*
X1773472Y1149133D1*
X1778065Y1156629D1*
X1783774Y1163313D1*
X1790458Y1169022D1*
X1798125Y1173694D1*
X1790458Y1178380D1*
X1783774Y1184089D1*
X1778065Y1190773D1*
X1773472Y1198269D1*
X1770108Y1206390D1*
X1768056Y1214938D1*
X1767366Y1223701D1*
X1768056Y1232464D1*
X1770108Y1241012D1*
X1773472Y1249133D1*
X1778065Y1256629D1*
X1783774Y1263313D1*
X1790458Y1269022D1*
X1798125Y1273694D1*
X1790458Y1278380D1*
X1783774Y1284089D1*
X1778065Y1290773D1*
X1773472Y1298269D1*
X1770108Y1306390D1*
X1768056Y1314938D1*
X1767366Y1323701D1*
X1768056Y1332464D1*
X1770108Y1341012D1*
X1773472Y1349133D1*
X1778065Y1356629D1*
X1783774Y1363313D1*
X1790458Y1369022D1*
X1798125Y1373694D1*
X1790458Y1378380D1*
X1783774Y1384089D1*
X1778065Y1390773D1*
X1773472Y1398269D1*
X1770108Y1406390D1*
X1768056Y1414938D1*
X1767366Y1423701D1*
X1768056Y1432464D1*
X1770108Y1441012D1*
X1773472Y1449133D1*
X1778065Y1456629D1*
X1783774Y1463313D1*
X1790458Y1469022D1*
X1798125Y1473694D1*
X1790458Y1478380D1*
X1783774Y1484089D1*
X1778065Y1490773D1*
X1773472Y1498269D1*
X1770108Y1506390D1*
X1768056Y1514938D1*
X1767366Y1523701D1*
X1768056Y1532464D1*
X1770108Y1541012D1*
X1773307Y1548775D1*
X1673322Y1549064D1*
X1676664Y1541012D1*
X1678716Y1532464D1*
X1679406Y1523701D1*
X1678716Y1514938D1*
X1676664Y1506390D1*
X1673300Y1498269D1*
X1668707Y1490773D1*
X1662998Y1484089D1*
X1656314Y1478380D1*
X1648647Y1473708D1*
X1656314Y1469022D1*
X1662998Y1463313D1*
X1668707Y1456629D1*
X1673300Y1449133D1*
X1676664Y1441012D1*
X1678716Y1432464D1*
X1679406Y1423701D1*
X1678716Y1414938D1*
X1676664Y1406390D1*
X1673300Y1398269D1*
X1668707Y1390773D1*
X1662998Y1384089D1*
X1656314Y1378380D1*
X1648647Y1373708D1*
X1656314Y1369022D1*
X1662998Y1363313D1*
X1668707Y1356629D1*
X1673300Y1349133D1*
X1676664Y1341012D1*
X1678716Y1332464D1*
X1679406Y1323701D1*
X1678716Y1314938D1*
X1676664Y1306390D1*
X1673300Y1298269D1*
X1668707Y1290773D1*
X1662998Y1284089D1*
X1656314Y1278380D1*
X1648647Y1273708D1*
X1656314Y1269022D1*
X1662998Y1263313D1*
X1668707Y1256629D1*
X1673300Y1249133D1*
X1676664Y1241012D1*
X1678716Y1232464D1*
X1679406Y1223701D1*
X1678716Y1214938D1*
X1676664Y1206390D1*
X1673300Y1198269D1*
X1668707Y1190773D1*
X1662998Y1184089D1*
X1656314Y1178380D1*
X1648647Y1173708D1*
X1656314Y1169022D1*
X1662998Y1163313D1*
X1668707Y1156629D1*
X1673300Y1149133D1*
X1676664Y1141012D1*
X1678716Y1132464D1*
X1679406Y1123701D1*
X1678716Y1114938D1*
X1676664Y1106390D1*
X1673300Y1098269D1*
X1668707Y1090773D1*
X1662998Y1084089D1*
X1656314Y1078380D1*
X1648647Y1073708D1*
X1656314Y1069022D1*
X1662998Y1063313D1*
X1668707Y1056629D1*
X1673300Y1049133D1*
X1676664Y1041012D1*
X1678716Y1032464D1*
X1679406Y1023701D1*
X1678716Y1014938D1*
X1676664Y1006390D1*
X1673300Y998269D1*
X1668707Y990773D1*
X1662998Y984089D1*
X1656314Y978380D1*
X1648647Y973708D1*
X1656314Y969022D1*
X1662998Y963313D1*
X1668707Y956629D1*
X1673300Y949133D1*
X1676664Y941012D1*
X1678716Y932464D1*
X1679406Y923701D1*
X1678716Y914938D1*
X1676664Y906390D1*
X1673300Y898269D1*
X1668707Y890773D1*
X1662998Y884089D1*
X1656314Y878380D1*
X1648647Y873708D1*
X1656314Y869022D1*
X1662998Y863313D1*
X1668707Y856629D1*
X1673300Y849133D1*
X1676664Y841012D1*
X1678716Y832464D1*
X1679406Y823701D1*
X1678716Y814938D1*
X1676664Y806390D1*
X1673300Y798269D1*
X1668707Y790773D1*
X1662998Y784089D1*
X1656314Y778380D1*
X1648818Y773787D1*
X1640697Y770423D1*
X1632149Y768371D1*
X1623386Y767681D1*
X1614623Y768371D1*
X1606075Y770423D1*
X1597954Y773787D1*
X1590458Y778380D1*
X1583774Y784089D1*
X1578065Y790773D1*
X1573472Y798269D1*
X1570108Y806390D1*
X1568056Y814938D1*
X1567366Y823701D1*
X1568056Y832464D1*
X1570108Y841012D1*
X1573472Y849133D1*
X1578065Y856629D1*
X1583774Y863313D1*
X1590458Y869022D1*
X1598125Y873694D1*
X1590458Y878380D1*
X1583774Y884089D1*
X1578065Y890773D1*
X1573472Y898269D1*
X1570108Y906390D1*
X1568056Y914938D1*
X1567366Y923701D1*
X1568056Y932464D1*
X1570108Y941012D1*
X1573472Y949133D1*
X1578065Y956629D1*
X1583774Y963313D1*
X1590458Y969022D1*
X1598125Y973694D1*
X1590458Y978380D1*
X1583774Y984089D1*
X1578065Y990773D1*
X1573472Y998269D1*
X1570108Y1006390D1*
X1568056Y1014938D1*
X1567366Y1023701D1*
X1568056Y1032464D1*
X1570108Y1041012D1*
X1573472Y1049133D1*
X1578065Y1056629D1*
X1583774Y1063313D1*
X1590458Y1069022D1*
X1598125Y1073694D1*
X1590458Y1078380D1*
X1583774Y1084089D1*
X1578065Y1090773D1*
X1573472Y1098269D1*
X1570108Y1106390D1*
X1568056Y1114938D1*
X1567366Y1123701D1*
X1568056Y1132464D1*
X1570108Y1141012D1*
X1573472Y1149133D1*
X1578065Y1156629D1*
X1583774Y1163313D1*
X1590458Y1169022D1*
X1598125Y1173694D1*
X1590458Y1178380D1*
X1583774Y1184089D1*
X1578065Y1190773D1*
X1573472Y1198269D1*
X1570108Y1206390D1*
X1568056Y1214938D1*
X1567366Y1223701D1*
X1568056Y1232464D1*
X1570108Y1241012D1*
X1573472Y1249133D1*
X1578065Y1256629D1*
X1583774Y1263313D1*
X1590458Y1269022D1*
X1598125Y1273694D1*
X1590458Y1278380D1*
X1583774Y1284089D1*
X1578065Y1290773D1*
X1573472Y1298269D1*
X1570108Y1306390D1*
X1568056Y1314938D1*
X1567366Y1323701D1*
X1568056Y1332464D1*
X1570108Y1341012D1*
X1573472Y1349133D1*
X1578065Y1356629D1*
X1583774Y1363313D1*
X1590458Y1369022D1*
X1598125Y1373694D1*
X1590458Y1378380D1*
X1583774Y1384089D1*
X1578065Y1390773D1*
X1573472Y1398269D1*
X1570108Y1406390D1*
X1568056Y1414938D1*
X1567366Y1423701D1*
X1568056Y1432464D1*
X1570108Y1441012D1*
X1573472Y1449133D1*
X1578065Y1456629D1*
X1583774Y1463313D1*
X1590458Y1469022D1*
X1598125Y1473694D1*
X1590458Y1478380D1*
X1583774Y1484089D1*
X1578065Y1490773D1*
X1573472Y1498269D1*
X1570108Y1506390D1*
X1568056Y1514938D1*
X1567366Y1523701D1*
X1568056Y1532464D1*
X1570108Y1541012D1*
X1573581Y1549328D1*
X1083842Y1550809D1*
X1079118Y1551571D1*
X1074572Y1553062D1*
X1070315Y1555247D1*
X1066452Y1558070D1*
X1057644Y1567348D1*
X909355Y1728896D1*
X778143Y1735681D1*
X779233Y1728096D1*
Y1719306D1*
X777858Y1710623D1*
X775141Y1702263D1*
X771151Y1694431D1*
X765984Y1687319D1*
X759768Y1681103D1*
X752656Y1675936D1*
X748818Y1673615D1*
X756314Y1669022D1*
X762998Y1663313D1*
X768707Y1656629D1*
X773300Y1649133D1*
X776664Y1641012D1*
X778716Y1632464D1*
X779406Y1623701D1*
X778716Y1614938D1*
X776664Y1606390D1*
X773300Y1598269D1*
X768707Y1590773D1*
X762998Y1584089D1*
X756314Y1578380D1*
X748647Y1573708D1*
X756314Y1569022D1*
X762998Y1563313D1*
X768707Y1556629D1*
X773300Y1549133D1*
X776664Y1541012D1*
X778716Y1532464D1*
X779406Y1523701D1*
X778716Y1514938D1*
X776664Y1506390D1*
X773300Y1498269D1*
X768707Y1490773D1*
X762998Y1484089D1*
X756314Y1478380D1*
X748647Y1473708D1*
X756314Y1469022D1*
X762998Y1463313D1*
X768707Y1456629D1*
X773300Y1449133D1*
X776664Y1441012D1*
X778716Y1432464D1*
X779406Y1423701D1*
X778716Y1414938D1*
X776664Y1406390D1*
X773300Y1398269D1*
X768707Y1390773D1*
X762998Y1384089D1*
X756314Y1378380D1*
X748647Y1373708D1*
X756314Y1369022D1*
X762998Y1363313D1*
X768707Y1356629D1*
X773300Y1349133D1*
X776664Y1341012D1*
X778716Y1332464D1*
X779406Y1323701D1*
X778716Y1314938D1*
X776664Y1306390D1*
X773300Y1298269D1*
X768707Y1290773D1*
X762998Y1284089D1*
X756314Y1278380D1*
X748647Y1273708D1*
X756314Y1269022D1*
X762998Y1263313D1*
X768707Y1256629D1*
X773300Y1249133D1*
X776664Y1241012D1*
X778716Y1232464D1*
X779406Y1223701D1*
X778716Y1214938D1*
X776664Y1206390D1*
X773300Y1198269D1*
X768707Y1190773D1*
X762998Y1184089D1*
X756314Y1178380D1*
X748647Y1173708D1*
X756314Y1169022D1*
X762998Y1163313D1*
X768707Y1156629D1*
X773300Y1149133D1*
X776664Y1141012D1*
X778716Y1132464D1*
X779406Y1123701D1*
X778716Y1114938D1*
X776664Y1106390D1*
X773300Y1098269D1*
X768707Y1090773D1*
X762998Y1084089D1*
X756314Y1078380D1*
X748647Y1073708D1*
X756314Y1069022D1*
X762998Y1063313D1*
X768707Y1056629D1*
X773300Y1049133D1*
X776664Y1041012D1*
X778716Y1032464D1*
X779406Y1023701D1*
X778716Y1014938D1*
X776664Y1006390D1*
X773300Y998269D1*
X768707Y990773D1*
X762998Y984089D1*
X756314Y978380D1*
X748647Y973708D1*
X756314Y969022D1*
X762998Y963313D1*
X768707Y956629D1*
X773300Y949133D1*
X776664Y941012D1*
X778716Y932464D1*
X779406Y923701D1*
X778716Y914938D1*
X776664Y906390D1*
X773300Y898269D1*
X768707Y890773D1*
X762998Y884089D1*
X756314Y878380D1*
X748647Y873708D1*
X756314Y869022D1*
X762998Y863313D1*
X768707Y856629D1*
X773300Y849133D1*
X776664Y841012D1*
X778716Y832464D1*
X779406Y823701D1*
X778716Y814938D1*
X776664Y806390D1*
X773300Y798269D1*
X768707Y790773D1*
X762998Y784089D1*
X756314Y778380D1*
X748818Y773787D1*
X740697Y770423D1*
X732149Y768371D1*
X723386Y767681D1*
X714623Y768371D1*
X706075Y770423D1*
X697954Y773787D1*
X690458Y778380D1*
X683774Y784089D1*
X678065Y790773D1*
X673472Y798269D1*
X670108Y806390D1*
X668056Y814938D1*
X667366Y823701D1*
X668056Y832464D1*
X670108Y841012D1*
X673472Y849133D1*
X678065Y856629D1*
X683774Y863313D1*
X690458Y869022D1*
X698125Y873694D1*
X690458Y878380D1*
X683774Y884089D1*
X678065Y890773D1*
X673472Y898269D1*
X670108Y906390D1*
X668056Y914938D1*
X667366Y923701D1*
X668056Y932464D1*
X670108Y941012D1*
X673472Y949133D1*
X678065Y956629D1*
X683774Y963313D1*
X690458Y969022D1*
X698125Y973694D1*
X690458Y978380D1*
X683774Y984089D1*
X678065Y990773D1*
X673472Y998269D1*
X670108Y1006390D1*
X668056Y1014938D1*
X667366Y1023701D1*
X668056Y1032464D1*
X670108Y1041012D1*
X673472Y1049133D1*
X678065Y1056629D1*
X683774Y1063313D1*
X690458Y1069022D1*
X698125Y1073694D1*
X690458Y1078380D1*
X683774Y1084089D1*
X678065Y1090773D1*
X673472Y1098269D1*
X670108Y1106390D1*
X668056Y1114938D1*
X667366Y1123701D1*
X668056Y1132464D1*
X670108Y1141012D1*
X673472Y1149133D1*
X678065Y1156629D1*
X683774Y1163313D1*
X690458Y1169022D1*
X698125Y1173694D1*
X690458Y1178380D1*
X683774Y1184089D1*
X678065Y1190773D1*
X673472Y1198269D1*
X670108Y1206390D1*
X668056Y1214938D1*
X667366Y1223701D1*
X668056Y1232464D1*
X670108Y1241012D1*
X673472Y1249133D1*
X678065Y1256629D1*
X683774Y1263313D1*
X690458Y1269022D1*
X698125Y1273694D1*
X690458Y1278380D1*
X683774Y1284089D1*
X678065Y1290773D1*
X673472Y1298269D1*
X670108Y1306390D1*
X668056Y1314938D1*
X667366Y1323701D1*
X668056Y1332464D1*
X670108Y1341012D1*
X673472Y1349133D1*
X678065Y1356629D1*
X683774Y1363313D1*
X690458Y1369022D1*
X698125Y1373694D1*
X690458Y1378380D1*
X683774Y1384089D1*
X678065Y1390773D1*
X673472Y1398269D1*
X670108Y1406390D1*
X668056Y1414938D1*
X667366Y1423701D1*
X668056Y1432464D1*
X670108Y1441012D1*
X673472Y1449133D1*
X678065Y1456629D1*
X683774Y1463313D1*
X690458Y1469022D1*
X698125Y1473694D1*
X690458Y1478380D1*
X683774Y1484089D1*
X678065Y1490773D1*
X673472Y1498269D1*
X670108Y1506390D1*
X668056Y1514938D1*
X667366Y1523701D1*
X668056Y1532464D1*
X670108Y1541012D1*
X673472Y1549133D1*
X678065Y1556629D1*
X683774Y1563313D1*
X690458Y1569022D1*
X698125Y1573694D1*
X690458Y1578380D1*
X683774Y1584089D1*
X678065Y1590773D1*
X673472Y1598269D1*
X670108Y1606390D1*
X668056Y1614938D1*
X667366Y1623701D1*
X668056Y1632464D1*
X670108Y1641012D1*
X673472Y1649133D1*
X678065Y1656629D1*
X683774Y1663313D1*
X690458Y1669022D1*
X698125Y1673694D1*
X690458Y1678380D1*
X683774Y1684089D1*
X678065Y1690773D1*
X673472Y1698269D1*
X670108Y1706390D1*
X668056Y1714938D1*
X667366Y1723701D1*
X668056Y1732464D1*
X670197Y1741254D1*
X629427Y1743467D1*
X624746Y1744459D1*
X620278Y1746170D1*
X616132Y1748560D1*
X612412Y1751568D1*
X609208Y1755122D1*
X606599Y1759133D1*
X604650Y1763503D1*
X603407Y1768133D1*
X590535Y1849583D1*
X552656Y1871466D1*
X559768Y1866299D1*
X565984Y1860083D1*
X571151Y1852971D1*
X575141Y1845139D1*
X577858Y1836779D1*
X579233Y1828096D1*
Y1819306D1*
X577858Y1810623D1*
X575141Y1802263D1*
X571151Y1794431D1*
X565984Y1787319D1*
X559768Y1781103D1*
X552656Y1775936D1*
X548818Y1773615D1*
X556314Y1769022D1*
X562998Y1763313D1*
X568707Y1756629D1*
X573300Y1749133D1*
X576664Y1741012D1*
X578716Y1732464D1*
X579406Y1723701D1*
X578716Y1714938D1*
X576664Y1706390D1*
X573300Y1698269D1*
X568707Y1690773D1*
X562998Y1684089D1*
X556314Y1678380D1*
X548647Y1673708D1*
X556314Y1669022D1*
X562998Y1663313D1*
X568707Y1656629D1*
X573300Y1649133D1*
X576664Y1641012D1*
X578716Y1632464D1*
X579406Y1623701D1*
X578716Y1614938D1*
X576664Y1606390D1*
X573300Y1598269D1*
X568707Y1590773D1*
X562998Y1584089D1*
X556314Y1578380D1*
X548647Y1573708D1*
X556314Y1569022D1*
X562998Y1563313D1*
X568707Y1556629D1*
X573300Y1549133D1*
X576664Y1541012D1*
X578716Y1532464D1*
X579406Y1523701D1*
X578716Y1514938D1*
X576664Y1506390D1*
X573300Y1498269D1*
X568707Y1490773D1*
X562998Y1484089D1*
X556314Y1478380D1*
X548647Y1473708D1*
X556314Y1469022D1*
X562998Y1463313D1*
X568707Y1456629D1*
X573300Y1449133D1*
X576664Y1441012D1*
X578716Y1432464D1*
X579406Y1423701D1*
X578716Y1414938D1*
X576664Y1406390D1*
X573300Y1398269D1*
X568707Y1390773D1*
X562998Y1384089D1*
X556314Y1378380D1*
X548647Y1373708D1*
X556314Y1369022D1*
X562998Y1363313D1*
X568707Y1356629D1*
X573300Y1349133D1*
X576664Y1341012D1*
X578716Y1332464D1*
X579406Y1323701D1*
X578716Y1314938D1*
X576664Y1306390D1*
X573300Y1298269D1*
X568707Y1290773D1*
X562998Y1284089D1*
X556314Y1278380D1*
X548647Y1273708D1*
X556314Y1269022D1*
X562998Y1263313D1*
X568707Y1256629D1*
X573300Y1249133D1*
X576664Y1241012D1*
X578716Y1232464D1*
X579406Y1223701D1*
X578716Y1214938D1*
X576664Y1206390D1*
X573300Y1198269D1*
X568707Y1190773D1*
X562998Y1184089D1*
X556314Y1178380D1*
X548647Y1173708D1*
X556314Y1169022D1*
X562998Y1163313D1*
X568707Y1156629D1*
X573300Y1149133D1*
X576664Y1141012D1*
X578716Y1132464D1*
X579406Y1123701D1*
X578716Y1114938D1*
X576664Y1106390D1*
X573300Y1098269D1*
X568707Y1090773D1*
X562998Y1084089D1*
X556314Y1078380D1*
X548647Y1073708D1*
X556314Y1069022D1*
X562998Y1063313D1*
X568707Y1056629D1*
X573300Y1049133D1*
X576664Y1041012D1*
X578716Y1032464D1*
X579406Y1023701D1*
X578716Y1014938D1*
X576664Y1006390D1*
X573300Y998269D1*
X568707Y990773D1*
X562998Y984089D1*
X556314Y978380D1*
X548647Y973708D1*
X556314Y969022D1*
X562998Y963313D1*
X568707Y956629D1*
X573300Y949133D1*
X576664Y941012D1*
X578716Y932464D1*
X579406Y923701D1*
X578716Y914938D1*
X576664Y906390D1*
X573300Y898269D1*
X568707Y890773D1*
X562998Y884089D1*
X558027Y879731D1*
X579406Y879721D1*
Y767681D1*
X467366D1*
Y879721D1*
X488717D1*
X483774Y884089D1*
X478065Y890773D1*
X473472Y898269D1*
X470108Y906390D1*
X468056Y914938D1*
X467366Y923701D1*
X468056Y932464D1*
X470108Y941012D1*
X473472Y949133D1*
X478065Y956629D1*
X483774Y963313D1*
X490458Y969022D1*
X498125Y973694D1*
X490458Y978380D1*
X483774Y984089D1*
X478065Y990773D1*
X473472Y998269D1*
X470108Y1006390D1*
X468056Y1014938D1*
X467366Y1023701D1*
X468056Y1032464D1*
X470108Y1041012D1*
X473472Y1049133D1*
X478065Y1056629D1*
X483774Y1063313D1*
X490458Y1069022D1*
X498125Y1073694D1*
X490458Y1078380D1*
X483774Y1084089D1*
X478065Y1090773D1*
X473472Y1098269D1*
X470108Y1106390D1*
X468056Y1114938D1*
X467366Y1123701D1*
X468056Y1132464D1*
X470108Y1141012D1*
X473472Y1149133D1*
X478065Y1156629D1*
X483774Y1163313D1*
X490458Y1169022D1*
X498125Y1173694D1*
X490458Y1178380D1*
X483774Y1184089D1*
X478065Y1190773D1*
X473472Y1198269D1*
X470108Y1206390D1*
X468056Y1214938D1*
X467366Y1223701D1*
X468056Y1232464D1*
X470108Y1241012D1*
X473472Y1249133D1*
X478065Y1256629D1*
X483774Y1263313D1*
X490458Y1269022D1*
X498125Y1273694D1*
X490458Y1278380D1*
X483774Y1284089D1*
X478065Y1290773D1*
X473472Y1298269D1*
X470108Y1306390D1*
X468056Y1314938D1*
X467366Y1323701D1*
X468056Y1332464D1*
X470108Y1341012D1*
X473472Y1349133D1*
X478065Y1356629D1*
X483774Y1363313D1*
X490458Y1369022D1*
X498125Y1373694D1*
X490458Y1378380D1*
X483774Y1384089D1*
X478065Y1390773D1*
X473472Y1398269D1*
X470108Y1406390D1*
X468056Y1414938D1*
X467366Y1423701D1*
X468056Y1432464D1*
X470108Y1441012D1*
X473472Y1449133D1*
X478065Y1456629D1*
X483774Y1463313D1*
X490458Y1469022D1*
X498125Y1473694D1*
X490458Y1478380D1*
X483774Y1484089D1*
X478065Y1490773D1*
X473472Y1498269D1*
X470108Y1506390D1*
X468056Y1514938D1*
X467366Y1523701D1*
X468056Y1532464D1*
X470108Y1541012D1*
X473472Y1549133D1*
X478065Y1556629D1*
X483774Y1563313D1*
X490458Y1569022D1*
X498125Y1573694D1*
X490458Y1578380D1*
X483774Y1584089D1*
X478065Y1590773D1*
X473472Y1598269D1*
X470108Y1606390D1*
X468056Y1614938D1*
X467366Y1623701D1*
X468056Y1632464D1*
X470108Y1641012D1*
X473472Y1649133D1*
X478065Y1656629D1*
X483774Y1663313D1*
X490458Y1669022D1*
X498125Y1673694D1*
X490458Y1678380D1*
X483774Y1684089D1*
X478065Y1690773D1*
X473472Y1698269D1*
X470108Y1706390D1*
X468056Y1714938D1*
X467366Y1723701D1*
X468056Y1732464D1*
X470108Y1741012D1*
X473472Y1749133D1*
X478065Y1756629D1*
X483774Y1763313D1*
X490458Y1769022D1*
X498125Y1773694D1*
X490458Y1778380D1*
X483774Y1784089D1*
X478065Y1790773D1*
X473472Y1798269D1*
X470108Y1806390D1*
X468056Y1814938D1*
X467366Y1823701D1*
X468056Y1832464D1*
X470108Y1841012D1*
X473472Y1849133D1*
X478065Y1856629D1*
X483774Y1863313D1*
X490458Y1869022D1*
X498125Y1873694D1*
X490458Y1878380D1*
X483774Y1884089D1*
X478065Y1890773D1*
X473472Y1898269D1*
X470108Y1906390D1*
X468056Y1914938D1*
X467366Y1923701D1*
X468056Y1932464D1*
X470108Y1941012D1*
X473472Y1949133D1*
X478065Y1956629D1*
X483774Y1963313D1*
X490458Y1969022D1*
X498125Y1973694D1*
X490458Y1978380D1*
X483774Y1984089D1*
X478065Y1990773D1*
X473472Y1998269D1*
X470108Y2006390D1*
X468056Y2014938D1*
X467366Y2023701D1*
X468056Y2032464D1*
X470108Y2041012D1*
X473472Y2049133D1*
X478065Y2056629D1*
X483774Y2063313D1*
X490458Y2069022D1*
X498125Y2073694D1*
X490458Y2078380D1*
X483774Y2084089D1*
X478065Y2090773D1*
X473472Y2098269D1*
X470108Y2106390D1*
X468056Y2114938D1*
X467366Y2123701D1*
X468056Y2132464D1*
X470108Y2141012D1*
X473472Y2149133D1*
X478065Y2156629D1*
X483774Y2163313D1*
X490458Y2169022D1*
X498125Y2173694D1*
X490458Y2178380D1*
X483774Y2184089D1*
X478065Y2190773D1*
X473472Y2198269D1*
X470108Y2206390D1*
X468056Y2214938D1*
X467366Y2223701D1*
X468056Y2232464D1*
X470108Y2241012D1*
X473472Y2249133D1*
X478065Y2256629D1*
X483774Y2263313D1*
X490458Y2269022D1*
X498125Y2273694D1*
X490458Y2278380D1*
X483774Y2284089D1*
X478065Y2290773D1*
X473472Y2298269D1*
X470108Y2306390D1*
X468056Y2314938D1*
X467366Y2323701D1*
X468056Y2332464D1*
X470108Y2341012D1*
X473472Y2349133D1*
X478065Y2356629D1*
X483774Y2363313D1*
X490458Y2369022D1*
X497954Y2373615D1*
X506075Y2376979D1*
X514623Y2379031D1*
X523386Y2379721D1*
X532149Y2379031D1*
X540697Y2376979D1*
X548818Y2373615D1*
X556314Y2369022D1*
X562998Y2363313D1*
X568707Y2356629D1*
X573300Y2349133D1*
X576664Y2341012D1*
X578716Y2332464D1*
X579406Y2323701D1*
X578716Y2314938D1*
X576664Y2306390D1*
X573300Y2298269D1*
X568707Y2290773D1*
X562998Y2284089D1*
X556314Y2278380D1*
X548647Y2273708D1*
X556314Y2269022D1*
X562998Y2263313D1*
X568707Y2256629D1*
X573300Y2249133D1*
X576664Y2241012D1*
X578716Y2232464D1*
X579406Y2223701D1*
X578716Y2214938D1*
X576664Y2206390D1*
X573300Y2198269D1*
X568707Y2190773D1*
X562998Y2184089D1*
X556314Y2178380D1*
X548647Y2173708D1*
X556314Y2169022D1*
X562998Y2163313D1*
X568707Y2156629D1*
X573300Y2149133D1*
X576664Y2141012D1*
X578716Y2132464D1*
X579406Y2123701D1*
X578716Y2114938D1*
X576664Y2106390D1*
X573300Y2098269D1*
X568707Y2090773D1*
X562998Y2084089D1*
X556314Y2078380D1*
X548647Y2073708D1*
X556314Y2069022D1*
X562998Y2063313D1*
X568707Y2056629D1*
X573300Y2049133D1*
X576664Y2041012D1*
X578716Y2032464D1*
X579406Y2023701D1*
X578716Y2014938D1*
X576664Y2006390D1*
X573300Y1998269D1*
X568707Y1990773D1*
X562998Y1984089D1*
X556314Y1978380D1*
X548647Y1973708D1*
X556314Y1969022D1*
X562998Y1963313D1*
X568707Y1956629D1*
X573300Y1949133D1*
X576664Y1941012D1*
X578716Y1932464D1*
X579293Y1926568D1*
X636321Y1893361D1*
X639958Y1890252D1*
X643063Y1886612D1*
X645561Y1882531D1*
X647390Y1878110D1*
X648505Y1873457D1*
X659648Y1802886D1*
X671631Y1802263D1*
X668914Y1810623D1*
X667539Y1819306D1*
Y1828096D1*
X668914Y1836779D1*
X671631Y1845139D1*
X675621Y1852971D1*
X680788Y1860083D1*
X687004Y1866299D1*
X694116Y1871466D1*
X697954Y1873787D1*
X690458Y1878380D1*
X683774Y1884089D1*
X678065Y1890773D1*
X673472Y1898269D1*
X670108Y1906390D1*
X668056Y1914938D1*
X667366Y1923701D1*
X668056Y1932464D1*
X670108Y1941012D1*
X673472Y1949133D1*
X678065Y1956629D1*
X683774Y1963313D1*
X690458Y1969022D1*
X698125Y1973694D1*
X690458Y1978380D1*
X683774Y1984089D1*
X678065Y1990773D1*
X673472Y1998269D1*
X670108Y2006390D1*
X668056Y2014938D1*
X667366Y2023701D1*
X668056Y2032464D1*
X670108Y2041012D1*
X673472Y2049133D1*
X678065Y2056629D1*
X683774Y2063313D1*
X690458Y2069022D1*
X698125Y2073694D1*
X690458Y2078380D1*
X683774Y2084089D1*
X678065Y2090773D1*
X673472Y2098269D1*
X670108Y2106390D1*
X668056Y2114938D1*
X667366Y2123701D1*
X668056Y2132464D1*
X670108Y2141012D1*
X673472Y2149133D1*
X678065Y2156629D1*
X683774Y2163313D1*
X690458Y2169022D1*
X698125Y2173694D1*
X690458Y2178380D1*
X683774Y2184089D1*
X678065Y2190773D1*
X673472Y2198269D1*
X670108Y2206390D1*
X668056Y2214938D1*
X667366Y2223701D1*
X668056Y2232464D1*
X670108Y2241012D1*
X673472Y2249133D1*
X678065Y2256629D1*
X683774Y2263313D1*
X690458Y2269022D1*
X698125Y2273694D1*
X690458Y2278380D1*
X683774Y2284089D1*
X678065Y2290773D1*
X673472Y2298269D1*
X670108Y2306390D1*
X668056Y2314938D1*
X667366Y2323701D1*
X668056Y2332464D1*
X670108Y2341012D1*
X673472Y2349133D1*
X678065Y2356629D1*
X683774Y2363313D1*
X690458Y2369022D1*
X697954Y2373615D1*
X706075Y2376979D1*
X714623Y2379031D1*
X723386Y2379721D1*
X732149Y2379031D1*
X740697Y2376979D1*
X748818Y2373615D1*
X756314Y2369022D1*
X762998Y2363313D1*
X768707Y2356629D1*
X773300Y2349133D1*
X776664Y2341012D1*
X778716Y2332464D1*
X779406Y2323701D1*
X779233Y2319306D1*
X1679233Y1619306D2*
X1677858Y1610623D1*
X1677695Y1610045D1*
X1769099Y1609780D1*
X1767539Y1619306D1*
Y1628096D1*
X1768804Y1636222D1*
X1678014Y1636209D1*
X1679233Y1628096D1*
Y1619306D1*
X1568993Y1610342D2*
X1567539Y1619306D1*
Y1628096D1*
X1568804Y1636222D1*
X1159994Y1636303D1*
X1155268Y1637051D1*
X1150717Y1638530D1*
X1146454Y1640702D1*
X1142583Y1643514D1*
X1088859Y1697106D1*
X992768Y1793197D1*
X846527Y1793209D1*
X927076Y1788969D1*
X931765Y1788019D1*
X936249Y1786348D1*
X940415Y1783995D1*
X944162Y1781020D1*
X995546Y1725181D1*
X1099769Y1611641D1*
X1569010Y1610340D1*
X1679233Y1719306D2*
X1677858Y1710623D1*
X1675141Y1702263D1*
X1672704Y1697204D1*
X1774032Y1697193D1*
X1771631Y1702263D1*
X1768914Y1710623D1*
X1767539Y1719306D1*
Y1728096D1*
X1768914Y1736779D1*
X1771631Y1745139D1*
X1775621Y1752971D1*
X1780788Y1760083D1*
X1787004Y1766299D1*
X1794116Y1771466D1*
X1797954Y1773787D1*
X1790458Y1778380D1*
X1783774Y1784089D1*
X1778065Y1790773D1*
X1773472Y1798269D1*
X1770108Y1806390D1*
X1768056Y1814938D1*
X1767366Y1823701D1*
X1768056Y1832464D1*
X1770108Y1841012D1*
X1773472Y1849133D1*
X1778065Y1856629D1*
X1783774Y1863313D1*
X1790458Y1869022D1*
X1798125Y1873694D1*
X1790458Y1878380D1*
X1783774Y1884089D1*
X1778065Y1890773D1*
X1773472Y1898269D1*
X1770108Y1906390D1*
X1768056Y1914938D1*
X1767366Y1923701D1*
X1768056Y1932464D1*
X1770108Y1941012D1*
X1773472Y1949133D1*
X1778065Y1956629D1*
X1783774Y1963313D1*
X1790458Y1969022D1*
X1798125Y1973694D1*
X1790458Y1978380D1*
X1783774Y1984089D1*
X1778065Y1990773D1*
X1773472Y1998269D1*
X1770108Y2006390D1*
X1768056Y2014938D1*
X1767366Y2023701D1*
X1768056Y2032464D1*
X1770108Y2041012D1*
X1773472Y2049133D1*
X1778065Y2056629D1*
X1783774Y2063313D1*
X1790458Y2069022D1*
X1798125Y2073694D1*
X1790458Y2078380D1*
X1783774Y2084089D1*
X1778065Y2090773D1*
X1773472Y2098269D1*
X1770108Y2106390D1*
X1768056Y2114938D1*
X1767366Y2123701D1*
X1768056Y2132464D1*
X1770108Y2141012D1*
X1773472Y2149133D1*
X1778065Y2156629D1*
X1783774Y2163313D1*
X1790458Y2169022D1*
X1798125Y2173694D1*
X1790458Y2178380D1*
X1783774Y2184089D1*
X1778065Y2190773D1*
X1773472Y2198269D1*
X1770108Y2206390D1*
X1768056Y2214938D1*
X1767366Y2223701D1*
X1768056Y2232464D1*
X1770108Y2241012D1*
X1773472Y2249133D1*
X1778065Y2256629D1*
X1783774Y2263313D1*
X1790458Y2269022D1*
X1798125Y2273694D1*
X1790458Y2278380D1*
X1783774Y2284089D1*
X1780893Y2287206D1*
X1665890Y2287209D1*
X1659768Y2281103D1*
X1652656Y2275936D1*
X1648818Y2273615D1*
X1656314Y2269022D1*
X1662998Y2263313D1*
X1668707Y2256629D1*
X1673300Y2249133D1*
X1676664Y2241012D1*
X1678716Y2232464D1*
X1679406Y2223701D1*
X1678716Y2214938D1*
X1676664Y2206390D1*
X1673300Y2198269D1*
X1668707Y2190773D1*
X1662998Y2184089D1*
X1656314Y2178380D1*
X1648647Y2173708D1*
X1656314Y2169022D1*
X1662998Y2163313D1*
X1668707Y2156629D1*
X1673300Y2149133D1*
X1676664Y2141012D1*
X1678716Y2132464D1*
X1679406Y2123701D1*
X1678716Y2114938D1*
X1676664Y2106390D1*
X1673300Y2098269D1*
X1668707Y2090773D1*
X1662998Y2084089D1*
X1656314Y2078380D1*
X1648647Y2073708D1*
X1656314Y2069022D1*
X1662998Y2063313D1*
X1668707Y2056629D1*
X1673300Y2049133D1*
X1676664Y2041012D1*
X1678716Y2032464D1*
X1679406Y2023701D1*
X1678716Y2014938D1*
X1676664Y2006390D1*
X1673300Y1998269D1*
X1668707Y1990773D1*
X1662998Y1984089D1*
X1656314Y1978380D1*
X1648647Y1973708D1*
X1656314Y1969022D1*
X1662998Y1963313D1*
X1668707Y1956629D1*
X1673300Y1949133D1*
X1676664Y1941012D1*
X1678716Y1932464D1*
X1679406Y1923701D1*
X1678716Y1914938D1*
X1676664Y1906390D1*
X1673300Y1898269D1*
X1668707Y1890773D1*
X1662998Y1884089D1*
X1656314Y1878380D1*
X1648647Y1873708D1*
X1656314Y1869022D1*
X1662998Y1863313D1*
X1668707Y1856629D1*
X1673300Y1849133D1*
X1676664Y1841012D1*
X1678716Y1832464D1*
X1679406Y1823701D1*
X1678716Y1814938D1*
X1676664Y1806390D1*
X1673300Y1798269D1*
X1668707Y1790773D1*
X1662998Y1784089D1*
X1656314Y1778380D1*
X1648647Y1773708D1*
X1656314Y1769022D1*
X1662998Y1763313D1*
X1668707Y1756629D1*
X1673300Y1749133D1*
X1676664Y1741012D1*
X1678716Y1732464D1*
X1679406Y1723701D1*
X1679233Y1719306D1*
X2319534Y2799953D2*
X2318506Y2791260D1*
X2316798Y2782674D1*
X2314421Y2774248D1*
X2311391Y2766035D1*
X2307726Y2758085D1*
X2303449Y2750447D1*
X2298585Y2743168D1*
X2293165Y2736293D1*
X2287223Y2729864D1*
X2280794Y2723922D1*
X2273919Y2718502D1*
X2266641Y2713638D1*
X2259002Y2709361D1*
X2251052Y2705696D1*
X2242839Y2702666D1*
X2234413Y2700289D1*
X2225827Y2698582D1*
X2217134Y2697553D1*
X2208386Y2697209D1*
X2199638Y2697553D1*
X2190945Y2698582D1*
X2182359Y2700289D1*
X2173933Y2702666D1*
X2165720Y2705696D1*
X2157770Y2709361D1*
X2150132Y2713638D1*
X2142853Y2718502D1*
X2135978Y2723922D1*
X2129549Y2729864D1*
X2123607Y2736293D1*
X2118187Y2743168D1*
X2113323Y2750447D1*
X2109046Y2758085D1*
X2105381Y2766035D1*
X2102351Y2774248D1*
X2099974Y2782674D1*
X2098267Y2791260D1*
X2097238Y2799953D1*
X2096894Y2808701D1*
X2097238Y2817449D1*
X2098267Y2826142D1*
X2099974Y2834728D1*
X2102351Y2843154D1*
X2105381Y2851367D1*
X2109046Y2859317D1*
X2113323Y2866955D1*
X2118187Y2874234D1*
X2123607Y2881109D1*
X2129549Y2887538D1*
X2135978Y2893480D1*
X2142853Y2898900D1*
X2150132Y2903764D1*
X2157770Y2908041D1*
X2165720Y2911706D1*
X2173933Y2914736D1*
X2182359Y2917113D1*
X2190945Y2918820D1*
X2199638Y2919849D1*
X2208386Y2920193D1*
X2217134Y2919849D1*
X2225827Y2918820D1*
X2234413Y2917113D1*
X2242839Y2914736D1*
X2251052Y2911706D1*
X2259002Y2908041D1*
X2266641Y2903764D1*
X2273919Y2898900D1*
X2280794Y2893480D1*
X2287223Y2887538D1*
X2293165Y2881109D1*
X2298585Y2874234D1*
X2303449Y2866955D1*
X2307726Y2859317D1*
X2311391Y2851367D1*
X2314421Y2843154D1*
X2316798Y2834728D1*
X2318506Y2826142D1*
X2319534Y2817449D1*
X2319878Y2808701D1*
X2319534Y2799953D1*
X579233Y2519306D2*
X577858Y2510623D1*
X575141Y2502263D1*
X571151Y2494431D1*
X565984Y2487319D1*
X559768Y2481103D1*
X552656Y2475936D1*
X544824Y2471946D1*
X536464Y2469229D1*
X527781Y2467854D1*
X518991D1*
X510309Y2469229D1*
X501948Y2471946D1*
X494116Y2475936D1*
X487004Y2481103D1*
X480788Y2487319D1*
X475621Y2494431D1*
X471631Y2502263D1*
X468914Y2510623D1*
X467539Y2519306D1*
Y2528096D1*
X468914Y2536779D1*
X471631Y2545139D1*
X475621Y2552971D1*
X480788Y2560083D1*
X487004Y2566299D1*
X494116Y2571466D1*
X497954Y2573787D1*
X490458Y2578380D1*
X483774Y2584089D1*
X478065Y2590773D1*
X473472Y2598269D1*
X470108Y2606390D1*
X468056Y2614938D1*
X467366Y2623701D1*
X468056Y2632464D1*
X470108Y2641012D1*
X473472Y2649133D1*
X478065Y2656629D1*
X483774Y2663313D1*
X490458Y2669022D1*
X498125Y2673694D1*
X490458Y2678380D1*
X483774Y2684089D1*
X478065Y2690773D1*
X473472Y2698269D1*
X470108Y2706390D1*
X468056Y2714938D1*
X467366Y2723701D1*
X468056Y2732464D1*
X470108Y2741012D1*
X473472Y2749133D1*
X478065Y2756629D1*
X483774Y2763313D1*
X490458Y2769022D1*
X497954Y2773615D1*
X506075Y2776979D1*
X514623Y2779031D1*
X523386Y2779721D1*
X532149Y2779031D1*
X540697Y2776979D1*
X548818Y2773615D1*
X556314Y2769022D1*
X562998Y2763313D1*
X568707Y2756629D1*
X573300Y2749133D1*
X576664Y2741012D1*
X578716Y2732464D1*
X579406Y2723701D1*
X578716Y2714938D1*
X576664Y2706390D1*
X573300Y2698269D1*
X568707Y2690773D1*
X562998Y2684089D1*
X556314Y2678380D1*
X548647Y2673708D1*
X556314Y2669022D1*
X562998Y2663313D1*
X568707Y2656629D1*
X573300Y2649133D1*
X576664Y2641012D1*
X578716Y2632464D1*
X579406Y2623701D1*
X578716Y2614938D1*
X576664Y2606390D1*
X573300Y2598269D1*
X568707Y2590773D1*
X562998Y2584089D1*
X556314Y2578380D1*
X548647Y2573708D1*
X556314Y2569022D1*
X562998Y2563313D1*
X568707Y2556629D1*
X573300Y2549133D1*
X576664Y2541012D1*
X578716Y2532464D1*
X579406Y2523701D1*
X579233Y2519306D1*
X2692296Y2899065D2*
X2690845Y2889906D1*
X2687980Y2881088D1*
X2683770Y2872826D1*
X2678320Y2865324D1*
X2677422Y2864352D1*
X2681192Y2859694D1*
X2686037Y2851788D1*
X2689586Y2843221D1*
X2690437Y2840203D1*
X2806312Y2840193D1*
X2808792Y2847574D1*
X2813002Y2855836D1*
X2818452Y2863338D1*
X2819350Y2864310D1*
X2815580Y2868968D1*
X2810735Y2876874D1*
X2807186Y2885441D1*
X2805022Y2894457D1*
X2804294Y2903701D1*
X2805022Y2912945D1*
X2807186Y2921961D1*
X2810735Y2930528D1*
X2815580Y2938434D1*
X2821602Y2945485D1*
X2828653Y2951507D1*
X2836559Y2956352D1*
X2845126Y2959901D1*
X2854142Y2962065D1*
X2863386Y2962793D1*
X2872630Y2962065D1*
X2881646Y2959901D1*
X2890213Y2956352D1*
X2898119Y2951507D1*
X2905170Y2945485D1*
X2911192Y2938434D1*
X2916037Y2930528D1*
X2919586Y2921961D1*
X2921750Y2912945D1*
X2922478Y2903701D1*
X2921750Y2894457D1*
X2919586Y2885441D1*
X2916037Y2876874D1*
X2911192Y2868968D1*
X2907422Y2864352D1*
X2911192Y2859694D1*
X2916037Y2851788D1*
X2919586Y2843221D1*
X2921750Y2834205D1*
X2922478Y2824961D1*
X2921750Y2815717D1*
X2921492Y2814419D1*
X2922296Y2808337D1*
Y2799065D1*
X2920845Y2789906D1*
X2917980Y2781088D1*
X2913770Y2772826D1*
X2908320Y2765324D1*
X2901763Y2758767D1*
X2894261Y2753317D1*
X2886000Y2749107D1*
X2877181Y2746242D1*
X2868022Y2744791D1*
X2858750D1*
X2849591Y2746242D1*
X2840773Y2749107D1*
X2832511Y2753317D1*
X2825009Y2758767D1*
X2818452Y2765324D1*
X2816960Y2767217D1*
X2679838Y2767209D1*
X2675170Y2761917D1*
X2668119Y2755895D1*
X2660213Y2751050D1*
X2651646Y2747501D1*
X2642630Y2745337D1*
X2633386Y2744609D1*
X2624142Y2745337D1*
X2615126Y2747501D1*
X2606559Y2751050D1*
X2598653Y2755895D1*
X2591602Y2761917D1*
X2585580Y2768968D1*
X2580735Y2776874D1*
X2577186Y2785441D1*
X2575022Y2794457D1*
X2574294Y2803701D1*
X2575022Y2812945D1*
X2575280Y2814243D1*
X2574476Y2820325D1*
Y2829597D1*
X2575927Y2838756D1*
X2578792Y2847574D1*
X2583002Y2855836D1*
X2588452Y2863338D1*
X2589350Y2864310D1*
X2585580Y2868968D1*
X2580735Y2876874D1*
X2577186Y2885441D1*
X2575022Y2894457D1*
X2574294Y2903701D1*
X2575022Y2912945D1*
X2577186Y2921961D1*
X2580735Y2930528D1*
X2585580Y2938434D1*
X2591602Y2945485D1*
X2598653Y2951507D1*
X2606559Y2956352D1*
X2615126Y2959901D1*
X2624142Y2962065D1*
X2633386Y2962793D1*
X2642630Y2962065D1*
X2651646Y2959901D1*
X2660213Y2956352D1*
X2668119Y2951507D1*
X2675170Y2945485D1*
X2681192Y2938434D1*
X2686037Y2930528D1*
X2689586Y2921961D1*
X2691750Y2912945D1*
X2692478Y2903701D1*
X2692296Y2899065D1*
X2922296Y2484065D2*
X2920845Y2474906D1*
X2917980Y2466088D1*
X2913770Y2457826D1*
X2908320Y2450324D1*
X2907422Y2449352D1*
X2911192Y2444694D1*
X2916037Y2436788D1*
X2919586Y2428221D1*
X2921750Y2419205D1*
X2922478Y2409961D1*
X2921750Y2400717D1*
X2921492Y2399419D1*
X2922296Y2393337D1*
Y2384065D1*
X2920845Y2374906D1*
X2917980Y2366088D1*
X2913770Y2357826D1*
X2908320Y2350324D1*
X2901763Y2343767D1*
X2894261Y2338317D1*
X2886000Y2334107D1*
X2877181Y2331242D1*
X2868022Y2329791D1*
X2858750D1*
X2849591Y2331242D1*
X2840773Y2334107D1*
X2832511Y2338317D1*
X2825009Y2343767D1*
X2818452Y2350324D1*
X2816960Y2352217D1*
X2679838Y2352209D1*
X2675170Y2346917D1*
X2668119Y2340895D1*
X2660213Y2336050D1*
X2651646Y2332501D1*
X2642630Y2330337D1*
X2633386Y2329609D1*
X2624142Y2330337D1*
X2615126Y2332501D1*
X2606559Y2336050D1*
X2598653Y2340895D1*
X2591602Y2346917D1*
X2585580Y2353968D1*
X2580735Y2361874D1*
X2577186Y2370441D1*
X2575022Y2379457D1*
X2574294Y2388701D1*
X2575022Y2397945D1*
X2575280Y2399243D1*
X2574476Y2405325D1*
Y2414597D1*
X2575927Y2423756D1*
X2578792Y2432574D1*
X2583002Y2440836D1*
X2588452Y2448338D1*
X2589350Y2449310D1*
X2585580Y2453968D1*
X2580735Y2461874D1*
X2577186Y2470441D1*
X2575022Y2479457D1*
X2574294Y2488701D1*
X2575022Y2497945D1*
X2577186Y2506961D1*
X2580735Y2515528D1*
X2585580Y2523434D1*
X2591602Y2530485D1*
X2598653Y2536507D1*
X2606559Y2541352D1*
X2615126Y2544901D1*
X2624142Y2547065D1*
X2633386Y2547793D1*
X2642630Y2547065D1*
X2651646Y2544901D1*
X2660213Y2541352D1*
X2668119Y2536507D1*
X2675170Y2530485D1*
X2681192Y2523434D1*
X2686037Y2515528D1*
X2689586Y2506961D1*
X2691750Y2497945D1*
X2692478Y2488701D1*
X2691750Y2479457D1*
X2689586Y2470441D1*
X2686037Y2461874D1*
X2681192Y2453968D1*
X2677422Y2449352D1*
X2681192Y2444694D1*
X2686037Y2436788D1*
X2689586Y2428221D1*
X2690437Y2425203D1*
X2806312Y2425193D1*
X2808792Y2432574D1*
X2813002Y2440836D1*
X2818452Y2448338D1*
X2819350Y2449310D1*
X2815580Y2453968D1*
X2810735Y2461874D1*
X2807186Y2470441D1*
X2805022Y2479457D1*
X2804294Y2488701D1*
X2805022Y2497945D1*
X2807186Y2506961D1*
X2810735Y2515528D1*
X2815580Y2523434D1*
X2821602Y2530485D1*
X2828653Y2536507D1*
X2836559Y2541352D1*
X2845126Y2544901D1*
X2854142Y2547065D1*
X2863386Y2547793D1*
X2872630Y2547065D1*
X2881646Y2544901D1*
X2890213Y2541352D1*
X2898119Y2536507D1*
X2905170Y2530485D1*
X2911192Y2523434D1*
X2916037Y2515528D1*
X2919586Y2506961D1*
X2921750Y2497945D1*
X2922478Y2488701D1*
X2922296Y2484065D1*
X2138280Y2044306D2*
X2136905Y2035623D1*
X2134189Y2027263D1*
X2130198Y2019431D1*
X2125031Y2012319D1*
X2118815Y2006103D1*
X2111703Y2000936D1*
X2103871Y1996946D1*
X2095511Y1994229D1*
X2086829Y1992854D1*
X2078038D1*
X2069356Y1994229D1*
X2060995Y1996946D1*
X2053163Y2000936D1*
X2046051Y2006103D1*
X2039836Y2012319D1*
X2034669Y2019431D1*
X2030678Y2027263D1*
X2027961Y2035623D1*
X2026586Y2044306D1*
Y2053096D1*
X2027961Y2061779D1*
X2030678Y2070139D1*
X2034669Y2077971D1*
X2039836Y2085083D1*
X2046051Y2091299D1*
X2053163Y2096466D1*
X2060995Y2100456D1*
X2069356Y2103173D1*
X2078038Y2104548D1*
X2086829D1*
X2095511Y2103173D1*
X2103871Y2100456D1*
X2111703Y2096466D1*
X2118815Y2091299D1*
X2125031Y2085083D1*
X2130198Y2077971D1*
X2134189Y2070139D1*
X2136905Y2061779D1*
X2138280Y2053096D1*
Y2044306D1*
X625152Y508260D2*
X624147Y499761D1*
X622477Y491368D1*
X620154Y483131D1*
X617192Y475102D1*
X613609Y467330D1*
X609427Y459863D1*
X604673Y452747D1*
X599375Y446027D1*
X593565Y439742D1*
X589890Y436201D1*
X2805344D1*
X2795823Y446027D1*
X2790525Y452747D1*
X2785770Y459863D1*
X2781588Y467330D1*
X2778005Y475102D1*
X2775043Y483131D1*
X2772720Y491368D1*
X2771051Y499761D1*
X2770045Y508260D1*
X2769709Y516811D1*
X2770045Y525363D1*
X2771051Y533861D1*
X2772720Y542255D1*
X2775043Y550492D1*
X2778005Y558521D1*
X2781588Y566293D1*
X2785770Y573759D1*
X2790525Y580875D1*
X2795823Y587596D1*
X2801632Y593880D1*
X2807916Y599689D1*
X2814637Y604988D1*
X2821753Y609742D1*
X2829220Y613924D1*
X2836992Y617507D1*
X2845021Y620469D1*
X2853257Y622792D1*
X2861651Y624461D1*
X2870150Y625467D1*
X2878701Y625803D1*
X2887252Y625467D1*
X2895751Y624461D1*
X2904145Y622792D1*
X2912381Y620469D1*
X2920410Y617507D1*
X2928182Y613924D1*
X2935649Y609742D1*
X2942765Y604988D1*
X2949486Y599689D1*
X2955770Y593880D1*
X2959560Y589781D1*
X2959475Y3199554D1*
X2949486Y3189838D1*
X2942765Y3184540D1*
X2935649Y3179786D1*
X2928182Y3175604D1*
X2920410Y3172021D1*
X2912381Y3169059D1*
X2904145Y3166736D1*
X2895751Y3165066D1*
X2887252Y3164061D1*
X2878701Y3163725D1*
X2870150Y3164061D1*
X2861651Y3165066D1*
X2853257Y3166736D1*
X2845021Y3169059D1*
X2836992Y3172021D1*
X2829220Y3175604D1*
X2821753Y3179786D1*
X2814637Y3184540D1*
X2807916Y3189838D1*
X2801632Y3195648D1*
X2795823Y3201932D1*
X2790525Y3208653D1*
X2785770Y3215769D1*
X2781588Y3223235D1*
X2778005Y3231007D1*
X2775043Y3239036D1*
X2772720Y3247273D1*
X2771051Y3255667D1*
X2770045Y3264165D1*
X2769709Y3272717D1*
X2770045Y3281268D1*
X2771051Y3289767D1*
X2772720Y3298160D1*
X2775043Y3306397D1*
X2778005Y3314426D1*
X2781588Y3322198D1*
X2785770Y3329665D1*
X2790525Y3336781D1*
X2795823Y3343501D1*
X2801632Y3349786D1*
X2805388Y3353258D1*
X589985Y3353176D1*
X599375Y3343501D1*
X604673Y3336781D1*
X609427Y3329665D1*
X613609Y3322198D1*
X617192Y3314426D1*
X620154Y3306397D1*
X622477Y3298160D1*
X624147Y3289767D1*
X625152Y3281268D1*
X625488Y3272717D1*
X625152Y3264165D1*
X624147Y3255667D1*
X622477Y3247273D1*
X620154Y3239036D1*
X617192Y3231007D1*
X613609Y3223235D1*
X609427Y3215769D1*
X604673Y3208653D1*
X599375Y3201932D1*
X593565Y3195648D1*
X587281Y3189838D1*
X580560Y3184540D1*
X573445Y3179786D1*
X565978Y3175604D1*
X558206Y3172021D1*
X550177Y3169059D1*
X541940Y3166736D1*
X533546Y3165066D1*
X525048Y3164061D1*
X516496Y3163725D1*
X507945Y3164061D1*
X499446Y3165066D1*
X491053Y3166736D1*
X482816Y3169059D1*
X474787Y3172021D1*
X467015Y3175604D1*
X459548Y3179786D1*
X452432Y3184540D1*
X445712Y3189838D1*
X439427Y3195648D1*
X436091Y3199256D1*
X436195Y590540D1*
X445712Y599689D1*
X452432Y604988D1*
X459548Y609742D1*
X467015Y613924D1*
X474787Y617507D1*
X482816Y620469D1*
X491053Y622792D1*
X499446Y624461D1*
X507945Y625467D1*
X516496Y625803D1*
X525048Y625467D1*
X533546Y624461D1*
X541940Y622792D1*
X550177Y620469D1*
X558206Y617507D1*
X565978Y613924D1*
X573445Y609742D1*
X580560Y604988D1*
X587281Y599689D1*
X593565Y593880D1*
X599375Y587596D1*
X604673Y580875D1*
X609427Y573759D1*
X613609Y566293D1*
X617192Y558521D1*
X620154Y550492D1*
X622477Y542255D1*
X624147Y533861D1*
X625152Y525363D1*
X625488Y516811D1*
X625152Y508260D1*
X1679878Y2714515D2*
X1679704Y2619269D1*
X1678317Y2610513D1*
X1675578Y2602082D1*
X1671554Y2594184D1*
X1666343Y2587012D1*
X1660075Y2580744D1*
X1652903Y2575533D1*
X1645005Y2571509D1*
X1636574Y2568770D1*
X1627818Y2567383D1*
X1618954D1*
X1610198Y2568770D1*
X1601767Y2571509D1*
X1593869Y2575533D1*
X1586697Y2580744D1*
X1580429Y2587012D1*
X1575219Y2594184D1*
X1571194Y2602082D1*
X1568455Y2610513D1*
X1567068Y2619269D1*
X1566894Y2642074D1*
X1567068Y2728133D1*
X1568455Y2736889D1*
X1571194Y2745320D1*
X1575219Y2753218D1*
X1580429Y2760390D1*
X1586697Y2766658D1*
X1593869Y2771869D1*
X1601767Y2775893D1*
X1610198Y2778632D1*
X1618954Y2780019D1*
X1627818D1*
X1636574Y2778632D1*
X1645005Y2775893D1*
X1652903Y2771869D1*
X1660075Y2766658D1*
X1666343Y2760390D1*
X1671554Y2753218D1*
X1675578Y2745320D1*
X1678317Y2736889D1*
X1679704Y2728133D1*
X1679878Y2714515D1*
X1879878D2*
X1879704Y2619269D1*
X1878317Y2610513D1*
X1875578Y2602082D1*
X1871554Y2594184D1*
X1866343Y2587012D1*
X1860075Y2580744D1*
X1852903Y2575533D1*
X1845005Y2571509D1*
X1836574Y2568770D1*
X1827818Y2567383D1*
X1818954D1*
X1810198Y2568770D1*
X1801767Y2571509D1*
X1793869Y2575533D1*
X1786697Y2580744D1*
X1780429Y2587012D1*
X1775219Y2594184D1*
X1771194Y2602082D1*
X1768455Y2610513D1*
X1767068Y2619269D1*
X1766894Y2642074D1*
X1767068Y2728133D1*
X1768455Y2736889D1*
X1771194Y2745320D1*
X1775219Y2753218D1*
X1780429Y2760390D1*
X1786697Y2766658D1*
X1793869Y2771869D1*
X1801767Y2775893D1*
X1810198Y2778632D1*
X1818954Y2780019D1*
X1827818D1*
X1836574Y2778632D1*
X1845005Y2775893D1*
X1852903Y2771869D1*
X1860075Y2766658D1*
X1866343Y2760390D1*
X1871554Y2753218D1*
X1875578Y2745320D1*
X1878317Y2736889D1*
X1879704Y2728133D1*
X1879878Y2714515D1*
D24*
X723386Y2723701D3*
D25*
Y2623701D3*
Y2523701D3*
Y2423701D3*
Y2323701D3*
Y2223701D3*
Y2123701D3*
Y2023701D3*
Y1923701D3*
Y1823701D3*
Y1723701D3*
Y1623701D3*
Y1523701D3*
Y1423701D3*
Y1323701D3*
Y1223701D3*
Y1123701D3*
Y1023701D3*
Y923701D3*
Y823701D3*
X1623386D3*
Y923701D3*
Y1023701D3*
Y1123701D3*
Y1223701D3*
Y1323701D3*
Y1423701D3*
Y1523701D3*
Y1623701D3*
Y1723701D3*
Y1823701D3*
Y1923701D3*
Y2023701D3*
Y2123701D3*
Y2223701D3*
Y2323701D3*
Y2423701D3*
Y2523701D3*
Y2623701D3*
Y2723701D3*
D26*
X2208386Y2808701D3*
Y3044921D3*
X2023347Y2926811D3*
D24*
X523386Y823701D3*
D25*
Y923701D3*
Y1023701D3*
Y1123701D3*
Y1223701D3*
Y1323701D3*
Y1423701D3*
Y1523701D3*
Y1623701D3*
Y1723701D3*
Y1823701D3*
Y1923701D3*
Y2023701D3*
Y2123701D3*
Y2223701D3*
Y2323701D3*
Y2423701D3*
Y2523701D3*
Y2623701D3*
Y2723701D3*
D24*
X1823386Y823701D3*
D25*
Y923701D3*
Y1023701D3*
Y1123701D3*
Y1223701D3*
Y1323701D3*
Y1423701D3*
Y1523701D3*
Y1623701D3*
Y1723701D3*
Y1823701D3*
Y1923701D3*
Y2023701D3*
Y2123701D3*
Y2223701D3*
Y2323701D3*
Y2423701D3*
Y2523701D3*
Y2623701D3*
Y2723701D3*
D28*
X2633386Y3003701D3*
Y2903701D3*
Y2803701D3*
Y2982441D3*
Y2824961D3*
X2863386Y3003701D3*
Y2903701D3*
Y2803701D3*
Y2982441D3*
Y2824961D3*
Y2588701D3*
Y2488701D3*
Y2388701D3*
Y2567441D3*
Y2409961D3*
X2633386Y2588701D3*
Y2488701D3*
Y2388701D3*
Y2567441D3*
Y2409961D3*
Y2173701D3*
Y2073701D3*
Y1973701D3*
Y2152441D3*
Y1994961D3*
X2863386Y2173701D3*
Y2073701D3*
Y1973701D3*
Y2152441D3*
Y1994961D3*
D19*
X2338386Y2048701D3*
D25*
X2082433D3*
D31*
X2846457Y1419961D3*
Y1341221D3*
Y1262481D3*
Y1183740D3*
Y1105000D3*
Y1026260D3*
Y947520D3*
Y868780D3*
Y790040D3*
Y711299D3*
X1980315Y1419961D3*
Y1341221D3*
Y1262481D3*
Y1183740D3*
Y1105000D3*
Y1026260D3*
Y947520D3*
Y868780D3*
Y790040D3*
Y711299D3*
M02*
