G04 DipTrace 3.2.0.1*
G04 CM904_plus.gtl*
%MOIN*%
G04 #@! TF.FileFunction,Copper,L1,Top*
G04 #@! TF.Part,Single*
G04 #@! TA.AperFunction,CopperBalancing*
%ADD14C,0.025*%
G04 #@! TA.AperFunction,Conductor*
%ADD15C,0.02*%
G04 #@! TA.AperFunction,ViaPad*
%ADD16C,0.04*%
G04 #@! TA.AperFunction,Conductor*
%ADD17C,0.008*%
%ADD18C,0.01*%
G04 #@! TA.AperFunction,ComponentPad*
%ADD19C,0.06*%
G04 #@! TA.AperFunction,Conductor*
%ADD20C,0.05*%
G04 #@! TA.AperFunction,CopperBalancing*
%ADD21C,0.012992*%
%ADD23R,0.05X0.1*%
G04 #@! TA.AperFunction,ComponentPad*
%ADD24R,0.059055X0.059055*%
%ADD25C,0.059055*%
%ADD26C,0.17*%
%ADD28C,0.065199*%
%ADD29R,0.051181X0.059055*%
%ADD30R,0.047244X0.047244*%
G04 #@! TA.AperFunction,ComponentPad*
%ADD31C,0.06*%
G04 #@! TA.AperFunction,ViaPad*
%ADD33C,0.165*%
%FSLAX26Y26*%
G04*
G70*
G90*
G75*
G01*
G04 Top*
%LPD*%
X723386Y2523701D2*
D14*
X523386D1*
X723386D2*
D15*
X1453403D1*
X1493934Y2372437D1*
X2059385D1*
X2074693Y2458688D1*
X2063386Y2461201D1*
X2059385Y2372437D2*
D16*
X2159104D1*
Y1645242D1*
X2114064D1*
X2049916Y1581093D1*
X2055971Y1524394D1*
Y937497D1*
X2846457Y711299D1*
X2372047Y1548701D2*
X2276223D1*
X2204725D1*
X2276223D2*
X2273386Y1623701D1*
X2159104Y1645242D1*
X523386Y2623701D2*
D14*
X723386D1*
X523386Y2323701D2*
D17*
X723386D1*
X1773386Y3198701D2*
Y3103701D1*
X478386D1*
Y2323701D1*
X523386D1*
X1823386Y1723701D2*
X1623386D1*
X1823386Y1623701D2*
X1623386D1*
Y1523701D2*
X1823386D1*
X523386Y1323701D2*
X723386D1*
D15*
X998386D1*
X1350244Y1675558D1*
X2061244D1*
X2082433Y1696748D1*
Y2048701D1*
X523386Y923701D2*
D17*
X723386D1*
X1823386Y1323701D2*
X1623386D1*
Y1023701D2*
X1823386D1*
Y2323701D2*
D15*
X1623386D1*
X2863386Y2803701D2*
X2921891D1*
Y2424361D1*
X2878386Y2393701D1*
X2863386Y2388701D1*
X2938386Y2343701D1*
Y1993665D1*
X2863386Y1973701D1*
X2633386Y2388701D2*
X2537228Y2334918D1*
X2342370Y2329390D1*
X523386Y2423701D2*
D16*
X723386D1*
X1623386Y2523701D2*
X1823386D1*
X1848189Y3103701D2*
X1893347Y2926811D1*
X2023347D1*
X2704725Y1548701D2*
X2823386D1*
X2846457Y1419961D1*
X2450788Y1348701D2*
D18*
X2533386D1*
Y1624109D1*
X2678488D1*
X2696284Y1606314D1*
X2704725Y1548701D1*
X1823386Y2423701D2*
D16*
X1958386Y2461201D1*
Y2636201D1*
X2063386D1*
X2248386Y2558701D1*
X2363386Y2461201D1*
X2633386Y2588701D1*
X2338386Y2048701D2*
X2478386Y2163701D1*
X2633386Y2173701D1*
X2622047Y1548701D2*
D17*
X2625984Y1448701D1*
X2700788D2*
Y1178688D1*
X2846457Y1105000D1*
X2122047Y1548701D2*
X2125984Y1448701D1*
X523386Y2723701D2*
X665386D1*
X723386D1*
X523386Y2223701D2*
X723386D1*
X523386Y2123701D2*
X723386D1*
X523386Y2023701D2*
X723386D1*
X523386Y1723701D2*
X723386D1*
X523386Y1623701D2*
X723386D1*
X523386Y1523701D2*
X723386D1*
X523386Y1423701D2*
X723386D1*
X523386Y1223701D2*
X723386D1*
X523386Y1123701D2*
X723386D1*
X523386Y1023701D2*
X723386D1*
X523386Y823701D2*
X723386D1*
X1623386D2*
X1823386D1*
X1623386Y923701D2*
X1823386D1*
X1623386Y1123701D2*
X1823386D1*
X1623386Y1223701D2*
X1823386D1*
X1623386Y1423701D2*
X1823386D1*
X1623386Y1823701D2*
X1823386D1*
X1623386Y1923701D2*
X1823386D1*
X1623386Y2023701D2*
X1823386D1*
X1623386Y2123701D2*
X1823386D1*
X1623386Y2223701D2*
X1823386D1*
X2454725Y1548701D2*
X2458386Y1458701D1*
X2450788Y1448701D1*
X723386Y1823701D2*
X523386D1*
X2200788Y1448701D2*
Y996689D1*
X2846457Y790040D1*
X523386Y1923701D2*
X723386D1*
X2375984Y1448701D2*
Y1348701D1*
Y1038202D1*
X2846457Y868780D1*
X2273386Y1448701D2*
X2375984D1*
X1823386Y2723701D2*
D19*
Y2738701D1*
X1623386D1*
Y2723701D1*
X2208386Y2808701D2*
Y2783701D1*
X1878386D1*
X1833386Y2738701D1*
X1823386D1*
X1848189Y3198701D2*
D17*
X2318386D1*
X2393386Y2998701D1*
X2223386Y2793701D1*
D19*
X2247418Y2769670D1*
X2208386Y2808701D1*
X2633386Y2903701D2*
X2753386D1*
X2863386D1*
X2633386Y2488701D2*
X2753386D1*
X2768529D1*
X2863386D1*
X2753386D2*
Y2903701D1*
X2247418Y2769670D2*
X2368386Y2846919D1*
X2459635Y2903701D1*
X2633386D1*
X2363386Y2636201D2*
D20*
X2368386Y2748701D1*
D19*
Y2846919D1*
X2633386Y2073701D2*
X2768529D1*
X2863386D1*
X2768529Y2488701D2*
Y2073701D1*
D16*
X2342370Y2329390D3*
X2273386Y1448701D3*
D33*
X516496Y516811D3*
X2878701D3*
X516496Y3272717D3*
X2878701D3*
D16*
X1923386Y1498701D3*
X2103404Y3261332D2*
D14*
X2767788D1*
X2103404Y3236463D2*
X2773421D1*
X2103404Y3211595D2*
X2785945D1*
X2103404Y3186726D2*
X2809234D1*
X2103404Y3161857D2*
X2948393D1*
X2103404Y3136988D2*
X2143008D1*
X2273782D2*
X2948393D1*
X2103404Y3112120D2*
X2116920D1*
X2299834D2*
X2948393D1*
X2314044Y3087251D2*
X2948393D1*
X2321006Y3062382D2*
X2623928D1*
X2642842D2*
X2853946D1*
X2872871D2*
X2948393D1*
X2322118Y3037513D2*
X2582410D1*
X2684333D2*
X2812428D1*
X2914351D2*
X2948393D1*
X2317597Y3012645D2*
X2572470D1*
X2694309D2*
X2802488D1*
X2924291D2*
X2948393D1*
X2306616Y2987776D2*
X2572039D1*
X2694739D2*
X2802021D1*
X2924721D2*
X2948393D1*
X2286413Y2962907D2*
X2575125D1*
X2691653D2*
X2805107D1*
X2921671D2*
X2948393D1*
X2136776Y2938038D2*
X2174155D1*
X2242599D2*
X2582805D1*
X2683974D2*
X2812786D1*
X2913992D2*
X2948393D1*
X2136489Y2913170D2*
X2166943D1*
X2249847D2*
X2572542D1*
X2694201D2*
X2802559D1*
X2924219D2*
X2948393D1*
X2288961Y2888301D2*
X2573834D1*
X2692945D2*
X2803851D1*
X2922927D2*
X2948393D1*
X2308016Y2863432D2*
X2586034D1*
X2680745D2*
X2816016D1*
X2910726D2*
X2948393D1*
X2318314Y2838563D2*
X2573367D1*
X2693376D2*
X2803385D1*
X2935164D2*
X2948393D1*
X2322262Y2813694D2*
X2572649D1*
X2694129D2*
X2802631D1*
X2320575Y2788826D2*
X2573690D1*
X2693089D2*
X2803708D1*
X2313004Y2763957D2*
X2587147D1*
X2679632D2*
X2817164D1*
X2103404Y2739088D2*
X2118786D1*
X2297968D2*
X2882904D1*
X2103404Y2714219D2*
X2146704D1*
X2270086D2*
X2882904D1*
X2117363Y2689351D2*
X2309403D1*
X2417391D2*
X2882904D1*
X2118691Y2664482D2*
X2309403D1*
X2417391D2*
X2882904D1*
X2178079Y2639613D2*
X2309403D1*
X2417391D2*
X2600890D1*
X2665889D2*
X2830872D1*
X2237431Y2614744D2*
X2309403D1*
X2417391D2*
X2577171D1*
X2688926D2*
X2807834D1*
X2286019Y2589876D2*
X2309403D1*
X2417391D2*
X2524493D1*
X2694955D2*
X2801806D1*
X2417391Y2565007D2*
X2471815D1*
X2694919D2*
X2801842D1*
X2103404Y2540138D2*
X2169885D1*
X2344689D2*
X2419173D1*
X2688280D2*
X2808480D1*
X2117363Y2515269D2*
X2225219D1*
X2688675D2*
X2808121D1*
X2228389Y2490400D2*
X2254536D1*
X2536598D2*
X2571824D1*
X2694955D2*
X2801806D1*
X2228389Y2465532D2*
X2283889D1*
X2483920D2*
X2576525D1*
X2690254D2*
X2806543D1*
X2228389Y2440663D2*
X2309403D1*
X2431278D2*
X2580400D1*
X2686378D2*
X2810382D1*
X2228389Y2415794D2*
X2309403D1*
X2417391D2*
X2572075D1*
X2694704D2*
X2802093D1*
X2503190Y2390925D2*
X2560090D1*
X2694919D2*
X2801842D1*
X2690469Y2366057D2*
X2806291D1*
X2671020Y2341188D2*
X2825741D1*
X2581238Y2316319D2*
X2899411D1*
X2503369Y2291450D2*
X2899411D1*
X2503369Y2266582D2*
X2899411D1*
X2503369Y2241713D2*
X2899411D1*
X2503369Y2216844D2*
X2577494D1*
X2676259D2*
X2820501D1*
X2692084Y2191975D2*
X2804677D1*
X2694596Y2167107D2*
X2802165D1*
X2694094Y2142238D2*
X2802667D1*
X2503369Y2117369D2*
X2583343D1*
X2683436D2*
X2813325D1*
X2503369Y2092500D2*
X2574874D1*
X2691905D2*
X2804856D1*
X2503369Y2067631D2*
X2572111D1*
X2694668D2*
X2802093D1*
X2503369Y2042763D2*
X2580544D1*
X2686235D2*
X2810526D1*
X2503369Y2017894D2*
X2576417D1*
X2690362D2*
X2806435D1*
X2503369Y1993025D2*
X2571824D1*
X2694955D2*
X2801842D1*
X2503369Y1968156D2*
X2572039D1*
X2694704D2*
X2802057D1*
X2503369Y1943288D2*
X2580221D1*
X2686558D2*
X2810239D1*
X2916540D2*
X2948393D1*
X2503369Y1918419D2*
X2610005D1*
X2656774D2*
X2840022D1*
X2886756D2*
X2948393D1*
X2503369Y1893550D2*
X2948393D1*
X2503369Y1868681D2*
X2948393D1*
X2100851Y2537693D2*
X2114878D1*
Y2511175D1*
X2215341Y2511047D1*
X2218170Y2510250D1*
X2220733Y2508814D1*
X2222891Y2506819D1*
X2224524Y2504376D1*
X2225541Y2501619D1*
X2225886Y2498697D1*
Y2401204D1*
X2311888Y2401201D1*
X2311894Y2443882D1*
X2223809Y2518585D1*
X2114879Y2564223D1*
X2114878Y2559709D1*
X2100919D1*
X2100886Y2537705D1*
X2100851Y2712693D2*
X2114878D1*
Y2665003D1*
X2269343Y2600202D1*
X2275577Y2596413D1*
X2299473Y2576341D1*
X2311872Y2565829D1*
X2311894Y2712693D1*
X2414878D1*
Y2559709D1*
X2319089D1*
X2345045Y2537703D1*
X2414878Y2537693D1*
Y2536939D1*
X2580568Y2615174D1*
X2585580Y2623434D1*
X2591602Y2630485D1*
X2598653Y2636507D1*
X2606559Y2641352D1*
X2615126Y2644901D1*
X2624142Y2647065D1*
X2633386Y2647793D1*
X2642630Y2647065D1*
X2651646Y2644901D1*
X2660213Y2641352D1*
X2668119Y2636507D1*
X2675170Y2630485D1*
X2681192Y2623434D1*
X2686037Y2615528D1*
X2689586Y2606961D1*
X2691750Y2597945D1*
X2692478Y2588701D1*
X2691750Y2579457D1*
X2691492Y2578159D1*
X2692296Y2572077D1*
Y2562805D1*
X2690845Y2553646D1*
X2687980Y2544828D1*
X2683770Y2536566D1*
X2678320Y2529064D1*
X2677422Y2528093D1*
X2682376Y2521743D1*
X2686097Y2515411D1*
X2689003Y2508666D1*
X2691050Y2501613D1*
X2692206Y2494360D1*
X2692449Y2486864D1*
X2691765Y2479552D1*
X2690179Y2472381D1*
X2687716Y2465462D1*
X2684414Y2458902D1*
X2680323Y2452802D1*
X2677451Y2449340D1*
X2681192Y2444694D1*
X2686037Y2436788D1*
X2689586Y2428221D1*
X2691750Y2419205D1*
X2692478Y2409961D1*
X2691750Y2400717D1*
X2691492Y2399419D1*
X2692296Y2393337D1*
Y2384065D1*
X2690845Y2374906D1*
X2687980Y2366088D1*
X2683770Y2357826D1*
X2678320Y2350324D1*
X2671763Y2343767D1*
X2664261Y2338317D1*
X2655999Y2334107D1*
X2647181Y2331242D1*
X2638022Y2329791D1*
X2628750D1*
X2619591Y2331242D1*
X2610657Y2334160D1*
X2552143Y2301613D1*
X2546750Y2299690D1*
X2541122Y2298634D1*
X2500851Y2297379D1*
X2500886Y2211756D1*
X2594030Y2217751D1*
X2598653Y2221507D1*
X2606559Y2226352D1*
X2615126Y2229901D1*
X2624142Y2232065D1*
X2633386Y2232793D1*
X2642630Y2232065D1*
X2651646Y2229901D1*
X2660213Y2226352D1*
X2668119Y2221507D1*
X2675170Y2215485D1*
X2681192Y2208434D1*
X2686037Y2200528D1*
X2689586Y2191961D1*
X2691750Y2182945D1*
X2692478Y2173701D1*
X2691750Y2164457D1*
X2691492Y2163159D1*
X2692296Y2157077D1*
Y2147805D1*
X2690845Y2138646D1*
X2687980Y2129828D1*
X2683770Y2121566D1*
X2678320Y2114064D1*
X2677422Y2113093D1*
X2682376Y2106743D1*
X2686097Y2100411D1*
X2689003Y2093666D1*
X2691050Y2086613D1*
X2692206Y2079360D1*
X2692449Y2071864D1*
X2691765Y2064552D1*
X2690179Y2057381D1*
X2687716Y2050462D1*
X2684414Y2043902D1*
X2680323Y2037802D1*
X2677451Y2034340D1*
X2681192Y2029694D1*
X2686037Y2021788D1*
X2689586Y2013221D1*
X2691750Y2004205D1*
X2692478Y1994961D1*
X2691750Y1985717D1*
X2691492Y1984419D1*
X2692296Y1978337D1*
Y1969065D1*
X2690845Y1959906D1*
X2687980Y1951088D1*
X2683770Y1942826D1*
X2678320Y1935324D1*
X2671763Y1928767D1*
X2664261Y1923317D1*
X2655999Y1919107D1*
X2647181Y1916242D1*
X2638022Y1914791D1*
X2628750D1*
X2619591Y1916242D1*
X2610773Y1919107D1*
X2602511Y1923317D1*
X2595009Y1928767D1*
X2588452Y1935324D1*
X2583002Y1942826D1*
X2578792Y1951088D1*
X2575927Y1959906D1*
X2574476Y1969065D1*
Y1978337D1*
X2575280Y1984243D1*
X2574476Y1990325D1*
Y1999597D1*
X2575927Y2008756D1*
X2578792Y2017574D1*
X2583002Y2025836D1*
X2588452Y2033338D1*
X2589350Y2034309D1*
X2585401Y2039215D1*
X2581494Y2045434D1*
X2578388Y2052089D1*
X2576132Y2059078D1*
X2574760Y2066294D1*
X2574294Y2073623D1*
X2574741Y2080954D1*
X2576094Y2088173D1*
X2578331Y2095168D1*
X2581420Y2101831D1*
X2585310Y2108060D1*
X2589327Y2113068D1*
X2585580Y2117708D1*
X2581753Y2123796D1*
X2500911Y2118566D1*
X2500886Y1861168D1*
X2950897Y1861201D1*
X2950886Y1959404D1*
X2938896Y1956038D1*
X2917708Y1950398D1*
X2913770Y1942826D1*
X2908320Y1935324D1*
X2901763Y1928767D1*
X2894261Y1923317D1*
X2885999Y1919107D1*
X2877181Y1916242D1*
X2868022Y1914791D1*
X2858750D1*
X2849591Y1916242D1*
X2840773Y1919107D1*
X2832511Y1923317D1*
X2825009Y1928767D1*
X2818452Y1935324D1*
X2813002Y1942826D1*
X2808792Y1951088D1*
X2805927Y1959906D1*
X2804476Y1969065D1*
Y1978337D1*
X2805280Y1984243D1*
X2804476Y1990325D1*
Y1999597D1*
X2805927Y2008756D1*
X2808792Y2017574D1*
X2813002Y2025836D1*
X2818452Y2033338D1*
X2819350Y2034309D1*
X2815401Y2039215D1*
X2811494Y2045434D1*
X2808388Y2052089D1*
X2806132Y2059078D1*
X2804760Y2066294D1*
X2804294Y2073623D1*
X2804741Y2080954D1*
X2806094Y2088173D1*
X2808331Y2095168D1*
X2811420Y2101831D1*
X2815310Y2108060D1*
X2819327Y2113068D1*
X2815580Y2117708D1*
X2810735Y2125614D1*
X2807186Y2134181D1*
X2805022Y2143197D1*
X2804294Y2152441D1*
X2805022Y2161685D1*
X2805280Y2162983D1*
X2804476Y2169065D1*
Y2178337D1*
X2805927Y2187496D1*
X2808792Y2196314D1*
X2813002Y2204576D1*
X2818452Y2212078D1*
X2825009Y2218635D1*
X2832511Y2224085D1*
X2840773Y2228295D1*
X2849591Y2231160D1*
X2858750Y2232611D1*
X2868022D1*
X2877181Y2231160D1*
X2885999Y2228295D1*
X2894261Y2224085D1*
X2901883Y2218524D1*
X2901894Y2323046D1*
X2884440Y2333512D1*
X2877181Y2331242D1*
X2868022Y2329791D1*
X2858750D1*
X2849591Y2331242D1*
X2840773Y2334107D1*
X2832511Y2338317D1*
X2825009Y2343767D1*
X2818452Y2350324D1*
X2813002Y2357826D1*
X2808792Y2366088D1*
X2805927Y2374906D1*
X2804476Y2384065D1*
Y2393337D1*
X2805280Y2399243D1*
X2804476Y2405325D1*
Y2414597D1*
X2805927Y2423756D1*
X2808792Y2432574D1*
X2813002Y2440836D1*
X2818452Y2448338D1*
X2819350Y2449309D1*
X2815401Y2454215D1*
X2811494Y2460434D1*
X2808388Y2467089D1*
X2806132Y2474078D1*
X2804760Y2481294D1*
X2804294Y2488623D1*
X2804741Y2495954D1*
X2806094Y2503173D1*
X2808331Y2510168D1*
X2811420Y2516831D1*
X2815310Y2523060D1*
X2819327Y2528068D1*
X2815580Y2532708D1*
X2810735Y2540614D1*
X2807186Y2549181D1*
X2805022Y2558197D1*
X2804294Y2567441D1*
X2805022Y2576685D1*
X2805280Y2577983D1*
X2804476Y2584065D1*
Y2593337D1*
X2805927Y2602496D1*
X2808792Y2611314D1*
X2813002Y2619576D1*
X2818452Y2627078D1*
X2825009Y2633635D1*
X2832511Y2639085D1*
X2840773Y2643295D1*
X2849591Y2646160D1*
X2858750Y2647611D1*
X2868022D1*
X2877181Y2646160D1*
X2885404Y2643514D1*
X2885399Y2748862D1*
X2877181Y2746242D1*
X2868022Y2744791D1*
X2858750D1*
X2849591Y2746242D1*
X2840773Y2749107D1*
X2832511Y2753317D1*
X2825009Y2758767D1*
X2818452Y2765324D1*
X2813002Y2772826D1*
X2808792Y2781088D1*
X2805927Y2789906D1*
X2804476Y2799065D1*
Y2808337D1*
X2805280Y2814243D1*
X2804476Y2820325D1*
Y2829597D1*
X2805927Y2838756D1*
X2808792Y2847574D1*
X2813002Y2855836D1*
X2818452Y2863338D1*
X2819350Y2864309D1*
X2815401Y2869215D1*
X2811494Y2875434D1*
X2808388Y2882089D1*
X2806132Y2889078D1*
X2804760Y2896294D1*
X2804294Y2903623D1*
X2804741Y2910954D1*
X2806094Y2918173D1*
X2808331Y2925168D1*
X2811420Y2931831D1*
X2815310Y2938060D1*
X2819327Y2943068D1*
X2815580Y2947708D1*
X2810735Y2955614D1*
X2807186Y2964181D1*
X2805022Y2973197D1*
X2804294Y2982441D1*
X2805022Y2991685D1*
X2805280Y2992983D1*
X2804476Y2999065D1*
Y3008337D1*
X2805927Y3017496D1*
X2808792Y3026314D1*
X2813002Y3034576D1*
X2818452Y3042078D1*
X2825009Y3048635D1*
X2832511Y3054085D1*
X2840773Y3058295D1*
X2849591Y3061160D1*
X2858750Y3062611D1*
X2868022D1*
X2877181Y3061160D1*
X2885999Y3058295D1*
X2894261Y3054085D1*
X2901763Y3048635D1*
X2908320Y3042078D1*
X2913770Y3034576D1*
X2917980Y3026314D1*
X2920845Y3017496D1*
X2922296Y3008337D1*
Y2999065D1*
X2921492Y2993159D1*
X2922296Y2987077D1*
Y2977805D1*
X2920845Y2968646D1*
X2917980Y2959828D1*
X2913770Y2951566D1*
X2908320Y2944064D1*
X2907422Y2943093D1*
X2912376Y2936743D1*
X2916097Y2930411D1*
X2919003Y2923666D1*
X2921050Y2916613D1*
X2922206Y2909360D1*
X2922449Y2901864D1*
X2921765Y2894552D1*
X2920179Y2887381D1*
X2917716Y2880462D1*
X2914414Y2873902D1*
X2910323Y2867802D1*
X2907451Y2864340D1*
X2911192Y2859694D1*
X2916037Y2851788D1*
X2919586Y2843221D1*
X2920437Y2840203D1*
X2927600Y2839744D1*
X2933168Y2838407D1*
X2938458Y2836216D1*
X2943341Y2833224D1*
X2947695Y2829505D1*
X2949647Y2827392D1*
X2950886Y2831641D1*
Y3191021D1*
X2942765Y3184540D1*
X2935649Y3179786D1*
X2928182Y3175604D1*
X2920410Y3172021D1*
X2912381Y3169059D1*
X2904145Y3166736D1*
X2895751Y3165067D1*
X2887252Y3164061D1*
X2878701Y3163725D1*
X2870150Y3164061D1*
X2861651Y3165067D1*
X2853257Y3166736D1*
X2845021Y3169059D1*
X2836992Y3172021D1*
X2829220Y3175604D1*
X2821753Y3179786D1*
X2814637Y3184540D1*
X2807916Y3189839D1*
X2801632Y3195648D1*
X2795823Y3201932D1*
X2790525Y3208653D1*
X2785770Y3215769D1*
X2781588Y3223235D1*
X2778006Y3231007D1*
X2775043Y3239036D1*
X2772720Y3247273D1*
X2771051Y3255667D1*
X2770045Y3264165D1*
X2769709Y3272717D1*
X2770045Y3281268D1*
X2770473Y3286201D1*
X2125311D1*
X2123128Y3280999D1*
X2119931Y3275782D1*
X2115958Y3271129D1*
X2111305Y3267156D1*
X2106088Y3263959D1*
X2100895Y3261787D1*
X2100886Y3074461D1*
X2105381Y3087588D1*
X2109046Y3095538D1*
X2113323Y3103176D1*
X2118187Y3110455D1*
X2123607Y3117330D1*
X2129549Y3123758D1*
X2135978Y3129701D1*
X2142853Y3135120D1*
X2150132Y3139984D1*
X2157770Y3144262D1*
X2165720Y3147927D1*
X2173933Y3150957D1*
X2182359Y3153333D1*
X2190945Y3155041D1*
X2199638Y3156070D1*
X2208386Y3156413D1*
X2217134Y3156070D1*
X2225827Y3155041D1*
X2234413Y3153333D1*
X2242839Y3150957D1*
X2251052Y3147927D1*
X2259002Y3144262D1*
X2266640Y3139984D1*
X2273919Y3135120D1*
X2280794Y3129701D1*
X2287223Y3123758D1*
X2293165Y3117330D1*
X2298585Y3110455D1*
X2303449Y3103176D1*
X2307726Y3095538D1*
X2311391Y3087588D1*
X2314421Y3079374D1*
X2316798Y3070949D1*
X2318505Y3062363D1*
X2319534Y3053669D1*
X2319878Y3044921D1*
X2319534Y3036174D1*
X2318505Y3027480D1*
X2316798Y3018894D1*
X2314421Y3010469D1*
X2311391Y3002255D1*
X2307726Y2994305D1*
X2303449Y2986667D1*
X2298585Y2979388D1*
X2293165Y2972513D1*
X2287223Y2966085D1*
X2280794Y2960142D1*
X2273919Y2954723D1*
X2266640Y2949859D1*
X2259002Y2945581D1*
X2251052Y2941916D1*
X2242839Y2938886D1*
X2234413Y2936510D1*
X2225827Y2934802D1*
X2217134Y2933773D1*
X2208386Y2933429D1*
X2199638Y2933773D1*
X2190945Y2934802D1*
X2182359Y2936510D1*
X2173933Y2938886D1*
X2165720Y2941916D1*
X2157770Y2945581D1*
X2150132Y2949859D1*
X2142853Y2954723D1*
X2135978Y2960142D1*
X2129549Y2966085D1*
X2126323Y2969575D1*
X2129382Y2961264D1*
X2131758Y2952839D1*
X2133466Y2944252D1*
X2134495Y2935559D1*
X2134839Y2926811D1*
X2134495Y2918064D1*
X2133466Y2909370D1*
X2131758Y2900784D1*
X2129382Y2892358D1*
X2126614Y2884489D1*
X2134495Y2892191D1*
X2143097Y2899077D1*
X2152337Y2905080D1*
X2162125Y2910142D1*
X2172364Y2914214D1*
X2182956Y2917254D1*
X2193795Y2919234D1*
X2204778Y2920135D1*
X2215795Y2919947D1*
X2226740Y2918672D1*
X2237506Y2916323D1*
X2247988Y2912923D1*
X2258082Y2908505D1*
X2267691Y2903111D1*
X2276721Y2896796D1*
X2285084Y2889620D1*
X2292697Y2881654D1*
X2299486Y2872975D1*
X2305386Y2863669D1*
X2310338Y2853825D1*
X2314295Y2843541D1*
X2317217Y2832916D1*
X2319075Y2822055D1*
X2319853Y2811063D1*
X2319636Y2801357D1*
X2318368Y2790411D1*
X2316025Y2779644D1*
X2312631Y2769161D1*
X2308219Y2759063D1*
X2302831Y2749451D1*
X2296521Y2740418D1*
X2289351Y2732051D1*
X2281389Y2724433D1*
X2272714Y2717638D1*
X2263411Y2711733D1*
X2253570Y2706775D1*
X2243288Y2702813D1*
X2232665Y2699885D1*
X2221805Y2698019D1*
X2210814Y2697235D1*
X2199799Y2697540D1*
X2188868Y2698931D1*
X2178127Y2701394D1*
X2167683Y2704905D1*
X2157635Y2709430D1*
X2148084Y2714924D1*
X2139121Y2721335D1*
X2130835Y2728599D1*
X2123307Y2736645D1*
X2116610Y2745395D1*
X2110809Y2754764D1*
X2105961Y2764660D1*
X2102114Y2774985D1*
X2100885Y2779149D1*
X2100886Y2712676D1*
X2414878Y2434095D2*
Y2401225D1*
X2490341Y2401047D1*
X2493170Y2400250D1*
X2495733Y2398814D1*
X2497891Y2396819D1*
X2499524Y2394376D1*
X2500541Y2391619D1*
X2500886Y2388697D1*
Y2370364D1*
X2527432Y2371251D1*
X2575022Y2397945D1*
X2575280Y2399243D1*
X2574476Y2405325D1*
Y2414597D1*
X2575927Y2423756D1*
X2578792Y2432574D1*
X2583002Y2440836D1*
X2588452Y2448338D1*
X2589350Y2449309D1*
X2585401Y2454215D1*
X2581494Y2460434D1*
X2578388Y2467089D1*
X2576132Y2474078D1*
X2574760Y2481294D1*
X2574294Y2488623D1*
X2574741Y2495954D1*
X2576094Y2503173D1*
X2578331Y2510168D1*
X2578898Y2511557D1*
X2414906Y2434115D1*
X2692296Y2999065D2*
X2691492Y2993159D1*
X2692296Y2987077D1*
Y2977805D1*
X2690845Y2968646D1*
X2687980Y2959828D1*
X2683770Y2951566D1*
X2678320Y2944064D1*
X2677422Y2943093D1*
X2682376Y2936743D1*
X2686097Y2930411D1*
X2689003Y2923666D1*
X2691050Y2916613D1*
X2692206Y2909360D1*
X2692449Y2901864D1*
X2691765Y2894552D1*
X2690179Y2887381D1*
X2687716Y2880462D1*
X2684414Y2873902D1*
X2680323Y2867802D1*
X2677451Y2864340D1*
X2681192Y2859694D1*
X2686037Y2851788D1*
X2689586Y2843221D1*
X2691750Y2834205D1*
X2692478Y2824961D1*
X2691750Y2815717D1*
X2691492Y2814419D1*
X2692296Y2808337D1*
Y2799065D1*
X2690845Y2789906D1*
X2687980Y2781088D1*
X2683770Y2772826D1*
X2678320Y2765324D1*
X2671763Y2758767D1*
X2664261Y2753317D1*
X2655999Y2749107D1*
X2647181Y2746242D1*
X2638022Y2744791D1*
X2628750D1*
X2619591Y2746242D1*
X2610773Y2749107D1*
X2602511Y2753317D1*
X2595009Y2758767D1*
X2588452Y2765324D1*
X2583002Y2772826D1*
X2578792Y2781088D1*
X2575927Y2789906D1*
X2574476Y2799065D1*
Y2808337D1*
X2575280Y2814243D1*
X2574476Y2820325D1*
Y2829597D1*
X2575927Y2838756D1*
X2578792Y2847574D1*
X2583002Y2855836D1*
X2588452Y2863338D1*
X2589350Y2864309D1*
X2585401Y2869215D1*
X2581494Y2875434D1*
X2578388Y2882089D1*
X2576132Y2889078D1*
X2574760Y2896294D1*
X2574294Y2903623D1*
X2574741Y2910954D1*
X2576094Y2918173D1*
X2578331Y2925168D1*
X2581420Y2931831D1*
X2585310Y2938060D1*
X2589327Y2943068D1*
X2585580Y2947708D1*
X2580735Y2955614D1*
X2577186Y2964181D1*
X2575022Y2973197D1*
X2574294Y2982441D1*
X2575022Y2991685D1*
X2575280Y2992983D1*
X2574476Y2999065D1*
Y3008337D1*
X2575927Y3017496D1*
X2578792Y3026314D1*
X2583002Y3034576D1*
X2588452Y3042078D1*
X2595009Y3048635D1*
X2602511Y3054085D1*
X2610773Y3058295D1*
X2619591Y3061160D1*
X2628750Y3062611D1*
X2638022D1*
X2647181Y3061160D1*
X2655999Y3058295D1*
X2664261Y3054085D1*
X2671763Y3048635D1*
X2678320Y3042078D1*
X2683770Y3034576D1*
X2687980Y3026314D1*
X2690845Y3017496D1*
X2692296Y3008337D1*
Y2999065D1*
X2311914Y2712663D2*
D21*
X2414858Y2559739D1*
Y2712663D2*
X2311914Y2559739D1*
X2129575Y2887512D2*
X2287197Y2729890D1*
Y2887512D2*
X2129575Y2729890D1*
X2591627Y2945460D2*
X2675145Y2861942D1*
Y2945460D2*
X2591627Y2861942D1*
X2821627Y2945460D2*
X2905145Y2861942D1*
Y2945460D2*
X2821627Y2861942D1*
Y2530460D2*
X2863386Y2488701D1*
X2821627Y2446942D1*
X2633386Y2488701D2*
X2675145Y2446942D1*
Y2530460D2*
X2591627Y2446942D1*
Y2115460D2*
X2675145Y2031942D1*
Y2115460D2*
X2591627Y2031942D1*
X2821627Y2115460D2*
X2863386Y2073701D1*
X2821627Y2031942D1*
X1966514Y1521332D2*
D14*
X2006979D1*
X2507324D2*
X2569428D1*
X2674652D2*
X2918402D1*
X1972327Y1496463D2*
X2006979D1*
X2255382D2*
X2321396D1*
X2505387D2*
X2571401D1*
X2755356D2*
X2918402D1*
X2505387Y1471595D2*
X2571401D1*
X2755356D2*
X2918402D1*
X2505387Y1446726D2*
X2571401D1*
X2755356D2*
X2918402D1*
X2505387Y1421857D2*
X2571401D1*
X2755356D2*
X2918402D1*
X2255382Y1396988D2*
X2321396D1*
X2505387D2*
X2571401D1*
X2755356D2*
X2834935D1*
X2857985D2*
X2918402D1*
X2104955Y1372120D2*
X2167812D1*
X2233779D2*
X2321396D1*
X2430568D2*
X2667786D1*
X2733789D2*
X2796646D1*
X2896237D2*
X2918402D1*
X2104955Y1347251D2*
X2167812D1*
X2233779D2*
X2321396D1*
X2430568D2*
X2667786D1*
X2733789D2*
X2787783D1*
X2905136D2*
X2918402D1*
X2104955Y1322382D2*
X2167812D1*
X2233779D2*
X2321396D1*
X2430568D2*
X2667786D1*
X2733789D2*
X2790690D1*
X2902230D2*
X2918402D1*
X2104955Y1297513D2*
X2167812D1*
X2233779D2*
X2321396D1*
X2430568D2*
X2667786D1*
X2733789D2*
X2799625D1*
X2893259D2*
X2918402D1*
X2104955Y1272645D2*
X2167812D1*
X2233779D2*
X2342999D1*
X2408966D2*
X2667786D1*
X2733789D2*
X2788393D1*
X2904526D2*
X2918402D1*
X2104955Y1247776D2*
X2167812D1*
X2233779D2*
X2342999D1*
X2408966D2*
X2667786D1*
X2733789D2*
X2789398D1*
X2903486D2*
X2918402D1*
X2104955Y1222907D2*
X2167812D1*
X2233779D2*
X2342999D1*
X2408966D2*
X2667786D1*
X2733789D2*
X2803249D1*
X2889670D2*
X2918402D1*
X2104955Y1198038D2*
X2167812D1*
X2233779D2*
X2342999D1*
X2408966D2*
X2667786D1*
X2733789D2*
X2789290D1*
X2903593D2*
X2918402D1*
X2104955Y1173170D2*
X2167812D1*
X2233779D2*
X2342999D1*
X2408966D2*
X2668289D1*
X2904455D2*
X2918402D1*
X2104955Y1148301D2*
X2167812D1*
X2233779D2*
X2342999D1*
X2408966D2*
X2690824D1*
X2892936D2*
X2918402D1*
X2104955Y1123432D2*
X2167812D1*
X2233779D2*
X2342999D1*
X2408966D2*
X2739985D1*
X2902373D2*
X2918402D1*
X2104955Y1098563D2*
X2167812D1*
X2233779D2*
X2342999D1*
X2408966D2*
X2787819D1*
X2905065D2*
X2918402D1*
X2104955Y1073694D2*
X2167812D1*
X2233779D2*
X2342999D1*
X2408966D2*
X2796934D1*
X2895986D2*
X2918402D1*
X2104955Y1048826D2*
X2167812D1*
X2233779D2*
X2342999D1*
X2438965D2*
X2792161D1*
X2900759D2*
X2918402D1*
X2104955Y1023957D2*
X2167812D1*
X2233779D2*
X2346515D1*
X2508042D2*
X2787496D1*
X2905388D2*
X2918402D1*
X2104955Y999088D2*
X2167812D1*
X2295823D2*
X2392088D1*
X2577083D2*
X2794422D1*
X2898498D2*
X2918402D1*
X2104955Y974219D2*
X2177680D1*
X2373512D2*
X2461165D1*
X2646160D2*
X2794170D1*
X2898749D2*
X2918402D1*
X2186053Y949351D2*
X2246147D1*
X2451237D2*
X2530206D1*
X2715201D2*
X2787496D1*
X2905424D2*
X2918402D1*
X2272965Y924482D2*
X2323872D1*
X2528927D2*
X2599283D1*
X2784279D2*
X2792376D1*
X2900543D2*
X2918402D1*
X2359876Y899613D2*
X2401562D1*
X2606616D2*
X2668325D1*
X2896309D2*
X2918402D1*
X2039000Y874744D2*
X2103759D1*
X2446752D2*
X2479251D1*
X2684341D2*
X2737402D1*
X2905136D2*
X2918402D1*
X2036057Y849876D2*
X2190670D1*
X2533663D2*
X2556976D1*
X2762030D2*
X2790726D1*
X2902194D2*
X2918402D1*
X2027194Y825007D2*
X2277582D1*
X2620575D2*
X2634665D1*
X2893331D2*
X2918402D1*
X2038390Y800138D2*
X2364493D1*
X2904526D2*
X2918402D1*
X2037349Y775269D2*
X2451405D1*
X2903486D2*
X2918402D1*
X2023606Y750400D2*
X2538316D1*
X2889742D2*
X2918402D1*
X2037493Y725532D2*
X2625228D1*
X2903629D2*
X2918402D1*
X2038282Y700663D2*
X2712139D1*
X2904455D2*
X2918402D1*
X2026763Y675794D2*
X2799051D1*
X2892900D2*
X2918402D1*
X1958404Y650925D2*
X2918402D1*
X1958404Y626057D2*
X2918402D1*
X1958404Y601188D2*
X2807196D1*
X1958404Y576319D2*
X2784876D1*
X1958404Y551450D2*
X2772855D1*
X1958404Y526582D2*
X2767652D1*
X1958404Y501713D2*
X2768262D1*
X2377280Y476844D2*
X2774793D1*
X2502870Y1498584D2*
Y1392681D1*
X2428052D1*
X2428067Y1292681D1*
X2406501D1*
X2406477Y1059654D1*
X2797905Y918673D1*
X2794265Y925901D1*
X2791526Y934332D1*
X2790139Y943088D1*
Y951952D1*
X2791526Y960708D1*
X2794265Y969138D1*
X2798289Y977037D1*
X2803500Y984209D1*
X2805958Y986868D1*
X2800754Y993055D1*
X2796122Y1000613D1*
X2792730Y1008803D1*
X2790660Y1017423D1*
X2789965Y1026260D1*
X2790660Y1035097D1*
X2792730Y1043717D1*
X2796122Y1051907D1*
X2800754Y1059465D1*
X2805958Y1065608D1*
X2800754Y1071795D1*
X2796122Y1079353D1*
X2792730Y1087543D1*
X2790660Y1096163D1*
X2790296Y1099243D1*
X2684931Y1152643D1*
X2681052Y1155444D1*
X2677659Y1158817D1*
X2674835Y1162680D1*
X2672651Y1166937D1*
X2671159Y1171483D1*
X2670397Y1176207D1*
X2670295Y1242992D1*
X2670193Y1392681D1*
X2573902D1*
Y1498576D1*
X2571933Y1498587D1*
Y1543047D1*
X2504835Y1543365D1*
X2504839Y1498587D1*
X2502865D1*
X2323914Y1392681D2*
X2323902Y1418195D1*
X2308486Y1418209D1*
X2303580Y1413348D1*
X2297678Y1409060D1*
X2291178Y1405748D1*
X2284239Y1403493D1*
X2277034Y1402352D1*
X2269738D1*
X2262533Y1403493D1*
X2255594Y1405748D1*
X2252862Y1407008D1*
X2252870Y1392681D1*
X2231304D1*
X2231280Y1018916D1*
X2799728Y837011D1*
X2796122Y843133D1*
X2792730Y851323D1*
X2791407Y856187D1*
X2363434Y1010413D1*
X2359242Y1012718D1*
X2355461Y1015651D1*
X2352186Y1019139D1*
X2349497Y1023097D1*
X2347460Y1027426D1*
X2346125Y1032021D1*
X2345526Y1036778D1*
X2345390Y1292681D1*
X2323902D1*
Y1392690D1*
Y1479198D2*
Y1498576D1*
X2321933Y1498587D1*
Y1502211D1*
X2254871Y1502209D1*
X2254839Y1498587D1*
X2252865D1*
X2252870Y1490403D1*
X2259019Y1492918D1*
X2266113Y1494621D1*
X2273386Y1495193D1*
X2280659Y1494621D1*
X2287753Y1492918D1*
X2294493Y1490126D1*
X2300713Y1486314D1*
X2306261Y1481576D1*
X2308458Y1479199D1*
X2323875Y1479193D1*
X2672189Y1504721D2*
X2752870D1*
Y1392681D1*
X2731304D1*
X2731280Y1197404D1*
X2792713Y1166358D1*
X2790660Y1174903D1*
X2789965Y1183740D1*
X2790660Y1192578D1*
X2792730Y1201197D1*
X2796122Y1209387D1*
X2800754Y1216946D1*
X2805958Y1223088D1*
X2800754Y1229275D1*
X2796122Y1236834D1*
X2792730Y1245024D1*
X2790660Y1253643D1*
X2789965Y1262481D1*
X2790660Y1271318D1*
X2792730Y1279938D1*
X2796122Y1288127D1*
X2800754Y1295686D1*
X2805958Y1301828D1*
X2800754Y1308015D1*
X2796122Y1315574D1*
X2792730Y1323764D1*
X2790660Y1332383D1*
X2789965Y1341221D1*
X2790660Y1350058D1*
X2792730Y1358678D1*
X2796122Y1366868D1*
X2800754Y1374426D1*
X2806511Y1381167D1*
X2813252Y1386924D1*
X2820810Y1391556D1*
X2829000Y1394948D1*
X2837620Y1397017D1*
X2846457Y1397713D1*
X2855294Y1397017D1*
X2863914Y1394948D1*
X2872104Y1391556D1*
X2879662Y1386924D1*
X2886403Y1381167D1*
X2892160Y1374426D1*
X2896792Y1366868D1*
X2900184Y1358678D1*
X2902254Y1350058D1*
X2902949Y1341221D1*
X2902254Y1332383D1*
X2900184Y1323764D1*
X2896792Y1315574D1*
X2892160Y1308015D1*
X2886956Y1301873D1*
X2892160Y1295686D1*
X2896792Y1288127D1*
X2900184Y1279938D1*
X2902254Y1271318D1*
X2902949Y1262481D1*
X2902254Y1253643D1*
X2900184Y1245024D1*
X2896792Y1236834D1*
X2892160Y1229275D1*
X2886956Y1223133D1*
X2892160Y1216946D1*
X2896792Y1209387D1*
X2900184Y1201197D1*
X2902254Y1192578D1*
X2902949Y1183740D1*
X2902254Y1174903D1*
X2900184Y1166283D1*
X2896792Y1158093D1*
X2892160Y1150535D1*
X2886956Y1144392D1*
X2892160Y1138205D1*
X2896792Y1130647D1*
X2900184Y1122457D1*
X2902254Y1113838D1*
X2902949Y1105000D1*
X2902254Y1096163D1*
X2900184Y1087543D1*
X2896792Y1079353D1*
X2892160Y1071795D1*
X2886956Y1065652D1*
X2892160Y1059465D1*
X2896792Y1051907D1*
X2900184Y1043717D1*
X2902254Y1035097D1*
X2902949Y1026260D1*
X2902254Y1017423D1*
X2900184Y1008803D1*
X2896792Y1000613D1*
X2892160Y993055D1*
X2886956Y986912D1*
X2892160Y980725D1*
X2896792Y973167D1*
X2900184Y964977D1*
X2902254Y956357D1*
X2902949Y947520D1*
X2902254Y938683D1*
X2900184Y930063D1*
X2896792Y921873D1*
X2892160Y914315D1*
X2886956Y908172D1*
X2892160Y901985D1*
X2896792Y894427D1*
X2900184Y886237D1*
X2902254Y877617D1*
X2902949Y868780D1*
X2902254Y859942D1*
X2900184Y851323D1*
X2896792Y843133D1*
X2892160Y835575D1*
X2886956Y829432D1*
X2892160Y823245D1*
X2896792Y815686D1*
X2900184Y807497D1*
X2902254Y798877D1*
X2902949Y790040D1*
X2902254Y781202D1*
X2900184Y772583D1*
X2896792Y764393D1*
X2892160Y756834D1*
X2886956Y750692D1*
X2892160Y744505D1*
X2896792Y736946D1*
X2900184Y728756D1*
X2902254Y720137D1*
X2902949Y711299D1*
X2902254Y702462D1*
X2900184Y693842D1*
X2896792Y685653D1*
X2892160Y678094D1*
X2886403Y671353D1*
X2879662Y665596D1*
X2872104Y660965D1*
X2863914Y657572D1*
X2855294Y655503D1*
X2846457Y654807D1*
X2837620Y655503D1*
X2829000Y657572D1*
X2820810Y660965D1*
X2813252Y665596D1*
X2806511Y671353D1*
X2802867Y675414D1*
X2039713Y893940D1*
X2033100Y897019D1*
X2027038Y901105D1*
X2030650Y894427D1*
X2034042Y886237D1*
X2036112Y877617D1*
X2036807Y868780D1*
X2036112Y859942D1*
X2034042Y851323D1*
X2030650Y843133D1*
X2026018Y835575D1*
X2020814Y829432D1*
X2026018Y823245D1*
X2030650Y815686D1*
X2034042Y807497D1*
X2036112Y798877D1*
X2036807Y790040D1*
X2036112Y781202D1*
X2034042Y772583D1*
X2030650Y764393D1*
X2026018Y756834D1*
X2020814Y750692D1*
X2026018Y744505D1*
X2030650Y736946D1*
X2034042Y728756D1*
X2036112Y720137D1*
X2036807Y711299D1*
X2036112Y702462D1*
X2034042Y693842D1*
X2030650Y685653D1*
X2026018Y678094D1*
X2020261Y671353D1*
X2013520Y665596D1*
X2005962Y660965D1*
X1997772Y657572D1*
X1989152Y655503D1*
X1980315Y654807D1*
X1971478Y655503D1*
X1962858Y657572D1*
X1955880Y660406D1*
X1955886Y481063D1*
X2779033Y472761D1*
X2775043Y483131D1*
X2772720Y491368D1*
X2771051Y499761D1*
X2770045Y508260D1*
X2769709Y516811D1*
X2770045Y525363D1*
X2771051Y533861D1*
X2772720Y542255D1*
X2775043Y550492D1*
X2778005Y558521D1*
X2781588Y566293D1*
X2785770Y573759D1*
X2790525Y580875D1*
X2795823Y587596D1*
X2801632Y593880D1*
X2807916Y599689D1*
X2814637Y604988D1*
X2821753Y609742D1*
X2829220Y613924D1*
X2836992Y617507D1*
X2845021Y620469D1*
X2853257Y622792D1*
X2861651Y624461D1*
X2870150Y625467D1*
X2878701Y625803D1*
X2887252Y625467D1*
X2895751Y624461D1*
X2904145Y622792D1*
X2912381Y620469D1*
X2920866Y617297D1*
X2920886Y1541291D1*
X2672197Y1542520D1*
X2672162Y1504697D1*
X2148678Y1392681D2*
X2102459D1*
X2102463Y972531D1*
X2791906Y775267D1*
X2767169Y783400D1*
X2189243Y968467D1*
X2184970Y970620D1*
X2181087Y973416D1*
X2177689Y976784D1*
X2174859Y980643D1*
X2172668Y984896D1*
X2171170Y989440D1*
X2170400Y994163D1*
X2170295Y1051807D1*
X2170193Y1392681D1*
X2148705Y1392717D1*
X1962484Y1473550D2*
X1971478Y1475757D1*
X1980315Y1476453D1*
X1989152Y1475757D1*
X1997772Y1473688D1*
X2005962Y1470296D1*
X2009485Y1468323D1*
X2009479Y1521940D1*
X2006918Y1545896D1*
X1955886Y1546138D1*
Y1531967D1*
X1960999Y1526028D1*
X1964811Y1519808D1*
X1967603Y1513068D1*
X1969306Y1505974D1*
X1969878Y1498701D1*
X1969306Y1491428D1*
X1967603Y1484334D1*
X1964811Y1477594D1*
X1962465Y1473567D1*
D23*
X2063386Y2461201D3*
Y2636201D3*
X2363386D3*
Y2461201D3*
D24*
X723386Y2723701D3*
D25*
Y2623701D3*
Y2523701D3*
Y2423701D3*
Y2323701D3*
Y2223701D3*
Y2123701D3*
Y2023701D3*
Y1923701D3*
Y1823701D3*
Y1723701D3*
Y1623701D3*
Y1523701D3*
Y1423701D3*
Y1323701D3*
Y1223701D3*
Y1123701D3*
Y1023701D3*
Y923701D3*
Y823701D3*
X1623386D3*
Y923701D3*
Y1023701D3*
Y1123701D3*
Y1223701D3*
Y1323701D3*
Y1423701D3*
Y1523701D3*
Y1623701D3*
Y1723701D3*
Y1823701D3*
Y1923701D3*
Y2023701D3*
Y2123701D3*
Y2223701D3*
Y2323701D3*
Y2423701D3*
Y2523701D3*
Y2623701D3*
Y2723701D3*
D26*
X2208386Y2808701D3*
Y3044921D3*
X2023347Y2926811D3*
D24*
X523386Y823701D3*
D25*
Y923701D3*
Y1023701D3*
Y1123701D3*
Y1223701D3*
Y1323701D3*
Y1423701D3*
Y1523701D3*
Y1623701D3*
Y1723701D3*
Y1823701D3*
Y1923701D3*
Y2023701D3*
Y2123701D3*
Y2223701D3*
Y2323701D3*
Y2423701D3*
Y2523701D3*
Y2623701D3*
Y2723701D3*
D24*
X1823386Y823701D3*
D25*
Y923701D3*
Y1023701D3*
Y1123701D3*
Y1223701D3*
Y1323701D3*
Y1423701D3*
Y1523701D3*
Y1623701D3*
Y1723701D3*
Y1823701D3*
Y1923701D3*
Y2023701D3*
Y2123701D3*
Y2223701D3*
Y2323701D3*
Y2423701D3*
Y2523701D3*
Y2623701D3*
Y2723701D3*
D28*
X2633386Y3003701D3*
Y2903701D3*
Y2803701D3*
Y2982441D3*
Y2824961D3*
X2863386Y3003701D3*
Y2903701D3*
Y2803701D3*
Y2982441D3*
Y2824961D3*
Y2588701D3*
Y2488701D3*
Y2388701D3*
Y2567441D3*
Y2409961D3*
X2633386Y2588701D3*
Y2488701D3*
Y2388701D3*
Y2567441D3*
Y2409961D3*
Y2173701D3*
Y2073701D3*
Y1973701D3*
Y2152441D3*
Y1994961D3*
X2863386Y2173701D3*
Y2073701D3*
Y1973701D3*
Y2152441D3*
Y1994961D3*
D29*
X2450788Y1448701D3*
X2375984D3*
X2625984D3*
X2700788D3*
X2125984D3*
X2200788D3*
X2375984Y1348701D3*
X2450788D3*
X1773386Y3198701D3*
X1848189D3*
X1773386Y3103701D3*
X1848189D3*
D30*
X2622047Y1548701D3*
X2704725D3*
X2372047D3*
X2454725D3*
D19*
X2338386Y2048701D3*
D25*
X2082433D3*
D30*
X2204725Y1548701D3*
X2122047D3*
D31*
X2846457Y1419961D3*
Y1341221D3*
Y1262481D3*
Y1183740D3*
Y1105000D3*
Y1026260D3*
Y947520D3*
Y868780D3*
Y790040D3*
Y711299D3*
X1980315Y1419961D3*
Y1341221D3*
Y1262481D3*
Y1183740D3*
Y1105000D3*
Y1026260D3*
Y947520D3*
Y868780D3*
Y790040D3*
Y711299D3*
M02*
