G04 DipTrace 3.2.0.1*
G04 CM904_plus.gts*
%MOIN*%
G04 #@! TF.FileFunction,Soldermask,Top*
G04 #@! TF.Part,Single*
%ADD16C,0.04*%
%ADD23R,0.05X0.1*%
%ADD24R,0.059055X0.059055*%
%ADD25C,0.059055*%
%ADD26C,0.17*%
%ADD28C,0.065199*%
%ADD30R,0.047244X0.047244*%
%ADD31C,0.06*%
%ADD40C,0.167*%
%ADD42C,0.042*%
%ADD46C,0.062*%
%ADD50R,0.053181X0.061055*%
%ADD56C,0.061055*%
%ADD58R,0.061055X0.061055*%
%FSLAX26Y26*%
G04*
G70*
G90*
G75*
G01*
G04 TopMask*
%LPD*%
D42*
X2342370Y2329390D3*
X2273386Y1448701D3*
D40*
X516496Y516811D3*
X2878701D3*
X516496Y3272717D3*
X2878701D3*
D16*
X1923386Y1498701D3*
D23*
X2063386Y2461201D3*
Y2636201D3*
X2363386D3*
Y2461201D3*
D58*
X723386Y2723701D3*
D56*
Y2623701D3*
Y2523701D3*
Y2423701D3*
Y2323701D3*
Y2223701D3*
Y2123701D3*
Y2023701D3*
Y1923701D3*
Y1823701D3*
Y1723701D3*
Y1623701D3*
Y1523701D3*
Y1423701D3*
Y1323701D3*
Y1223701D3*
Y1123701D3*
Y1023701D3*
Y923701D3*
Y823701D3*
X1623386D3*
Y923701D3*
Y1023701D3*
Y1123701D3*
Y1223701D3*
Y1323701D3*
Y1423701D3*
Y1523701D3*
Y1623701D3*
Y1723701D3*
Y1823701D3*
Y1923701D3*
Y2023701D3*
Y2123701D3*
Y2223701D3*
Y2323701D3*
Y2423701D3*
Y2523701D3*
Y2623701D3*
Y2723701D3*
D26*
X2208386Y2808701D3*
Y3044921D3*
X2023347Y2926811D3*
D24*
X523386Y823701D3*
D25*
Y923701D3*
Y1023701D3*
Y1123701D3*
Y1223701D3*
Y1323701D3*
Y1423701D3*
Y1523701D3*
Y1623701D3*
Y1723701D3*
Y1823701D3*
Y1923701D3*
Y2023701D3*
Y2123701D3*
Y2223701D3*
Y2323701D3*
Y2423701D3*
Y2523701D3*
Y2623701D3*
Y2723701D3*
D24*
X1823386Y823701D3*
D25*
Y923701D3*
Y1023701D3*
Y1123701D3*
Y1223701D3*
Y1323701D3*
Y1423701D3*
Y1523701D3*
Y1623701D3*
Y1723701D3*
Y1823701D3*
Y1923701D3*
Y2023701D3*
Y2123701D3*
Y2223701D3*
Y2323701D3*
Y2423701D3*
Y2523701D3*
Y2623701D3*
Y2723701D3*
D28*
X2633386Y3003701D3*
Y2903701D3*
Y2803701D3*
Y2982441D3*
Y2824961D3*
X2863386Y3003701D3*
Y2903701D3*
Y2803701D3*
Y2982441D3*
Y2824961D3*
Y2588701D3*
Y2488701D3*
Y2388701D3*
Y2567441D3*
Y2409961D3*
X2633386Y2588701D3*
Y2488701D3*
Y2388701D3*
Y2567441D3*
Y2409961D3*
Y2173701D3*
Y2073701D3*
Y1973701D3*
Y2152441D3*
Y1994961D3*
X2863386Y2173701D3*
Y2073701D3*
Y1973701D3*
Y2152441D3*
Y1994961D3*
D50*
X2450788Y1448701D3*
X2375984D3*
X2625984D3*
X2700788D3*
X2125984D3*
X2200788D3*
X2375984Y1348701D3*
X2450788D3*
X1773386Y3198701D3*
X1848189D3*
X1773386Y3103701D3*
X1848189D3*
D30*
X2622047Y1548701D3*
X2704725D3*
X2372047D3*
X2454725D3*
D46*
X2338386Y2048701D3*
D56*
X2082433D3*
D30*
X2204725Y1548701D3*
X2122047D3*
D31*
X2846457Y1419961D3*
Y1341221D3*
Y1262481D3*
Y1183740D3*
Y1105000D3*
Y1026260D3*
Y947520D3*
Y868780D3*
Y790040D3*
Y711299D3*
X1980315Y1419961D3*
Y1341221D3*
Y1262481D3*
Y1183740D3*
Y1105000D3*
Y1026260D3*
Y947520D3*
Y868780D3*
Y790040D3*
Y711299D3*
M02*
