G04 DipTrace 3.3.1.3*
G04 T4LSSArduinoShield.gbs*
%MOIN*%
G04 #@! TF.FileFunction,Soldermask,Bot*
G04 #@! TF.Part,Single*
%ADD15C,0.04*%
%ADD35C,0.074*%
%ADD39R,0.025X0.05*%
%ADD42C,0.06194*%
%ADD43C,0.074*%
%ADD44R,0.05X0.025*%
%ADD47C,0.065199*%
%ADD48R,0.074X0.074*%
%ADD70C,0.162*%
%ADD72C,0.157*%
%ADD74C,0.052*%
%ADD76C,0.042*%
%ADD80O,0.179165X0.08074*%
%ADD82O,0.08074X0.179165*%
%ADD84O,0.08074X0.19885*%
%ADD86R,0.072866X0.072866*%
%ADD88C,0.072866*%
%ADD118C,0.06578*%
%ADD120R,0.06578X0.06578*%
%ADD122C,0.139795*%
%ADD124C,0.064992*%
%ADD126R,0.064992X0.064992*%
%ADD128C,0.061055*%
%ADD130R,0.061055X0.061055*%
%FSLAX26Y26*%
G04*
G70*
G90*
G75*
G01*
G04 BotMask*
%LPD*%
D76*
X931700Y1728700D3*
X1525700Y781700D3*
X1295700D3*
X1206700Y947102D3*
X1815700Y1967700D3*
X1736700Y1580700D3*
X1249700Y1348700D3*
X897799Y783961D3*
X1751700Y851700D3*
X2129700Y1279700D3*
X1958700Y1664700D3*
X1190700Y754700D3*
X1942700Y603700D3*
X1358700Y1534700D3*
X2669700Y2108700D3*
X2398700Y1426700D3*
X1672700Y2824700D3*
X2335700Y2728700D3*
X621700Y2412700D3*
D74*
X1337700Y2405700D3*
D76*
X1780165Y1376700D3*
D3*
X1680700Y1113700D3*
X1997700Y1262700D3*
D72*
X2795275Y688976D3*
X511810D3*
D70*
Y2618109D3*
D72*
X2795275D3*
D15*
X784700Y2704700D3*
X1056834Y2668869D3*
X1897700Y1661700D3*
X2391700Y1068700D3*
X1952700Y1089700D3*
X2333700Y2447700D3*
X774700Y1632700D3*
X493700Y1671188D3*
X682700Y893700D3*
X898700Y1587700D3*
X2336700Y761700D3*
Y1121700D3*
X2068700Y1890700D3*
X1586700Y872700D3*
X1727700Y597700D3*
X1456700Y1501700D3*
X1434700Y1554700D3*
X2357700Y1542700D3*
X2617700Y2128700D3*
X1536700Y1600700D3*
X1636672Y1542523D3*
X1050672Y1622511D3*
X2793700Y2023767D3*
X1361700Y1479700D3*
X1356700Y1297700D3*
X2495700Y1026700D3*
X2729700Y786700D3*
X2785590Y960665D3*
D130*
X1593700Y2793700D3*
D128*
X1493700D3*
X1393700D3*
X1293700D3*
X1193700D3*
X1093700D3*
X993700D3*
D130*
X843700D3*
D128*
X743700D3*
X643700D3*
X543700D3*
D130*
X493700Y518700D3*
D128*
X593700D3*
X693700D3*
X793700D3*
X893700D3*
X993700D3*
X1093700D3*
X1193700D3*
D130*
X1343700D3*
D128*
X1443700D3*
X1543700D3*
X1643700D3*
X1743700D3*
D130*
X1922830Y2468700D3*
D128*
X2022830D3*
X2122830D3*
D126*
X911747Y2341495D3*
D124*
Y2243070D3*
Y2164330D3*
Y2065905D3*
D122*
X805054Y2462361D3*
Y1945039D3*
D120*
X1222834Y2588976D3*
D118*
X1122834D3*
X1022834D3*
X922834D3*
X822834D3*
X722834D3*
D120*
X2122834D3*
D118*
X2022834D3*
X1922834D3*
X1822834D3*
X1722834D3*
X1622834D3*
X1522834D3*
X1422834D3*
D120*
X722834Y688976D3*
D118*
X822834D3*
X922834D3*
X1022834D3*
X1122834D3*
X1222834D3*
X1322834D3*
X1422834D3*
D120*
X1582834D3*
D118*
X1682834D3*
X1782834D3*
X1882834D3*
X1982834D3*
X2082834D3*
X2182834D3*
X2282834D3*
X2382834D3*
X2482834D3*
D130*
X1893700Y518700D3*
D128*
X1993700D3*
X2093700D3*
X2193700D3*
X2293700D3*
X2393700D3*
D130*
X2543700D3*
D128*
X2643700D3*
X2743700D3*
D130*
X2243700Y2793700D3*
D128*
X2143700D3*
X2043700D3*
X1943700D3*
X1843700D3*
X1743700D3*
D130*
X1031700Y2118700D3*
D128*
Y2218700D3*
D35*
X1272700Y1931700D3*
X1372700D3*
X1472700D3*
D39*
X656133Y1403700D3*
X620700D3*
X666133Y1541700D3*
X630700D3*
D42*
X493700Y1183700D3*
X593700D3*
X693700D3*
X793700D3*
X893700D3*
X993700D3*
X1093700D3*
X1193700D3*
X1293700D3*
X1393700D3*
X1493700D3*
X1593700D3*
X1693700D3*
X1793700D3*
X2293700Y1283700D3*
X593700Y1683700D3*
D43*
X515700Y1528700D3*
Y1438700D3*
D42*
X2093700Y1783700D3*
X1793700D3*
X1693700D3*
X1593700D3*
X1493700D3*
X1393700D3*
X1293700D3*
X1193700D3*
X1093700D3*
X993700D3*
X893700D3*
X793700D3*
X693700D3*
X593700D3*
X493700D3*
X2293700Y1683700D3*
X743700Y1308700D3*
X843700D3*
X943700D3*
X2393700Y1183700D3*
X2493700D3*
X2293700D3*
X2193700D3*
X2093700D3*
X1993700D3*
X2593700D3*
X2693700D3*
X2793700D3*
Y1783700D3*
X1893700Y1183700D3*
X2693700Y1783700D3*
X1893700D3*
X2593700D3*
X2393700D3*
X2293700D3*
X2193700D3*
X2493700D3*
X1993700D3*
X2293700Y1583700D3*
X1043700Y1308700D3*
X1143700D3*
D130*
X1953700Y868700D3*
D128*
Y968700D3*
X2053700Y868700D3*
Y968700D3*
X2153700Y868700D3*
Y968700D3*
D130*
X2333700Y868700D3*
D128*
Y968700D3*
X2433700Y868700D3*
Y968700D3*
X2533700Y868700D3*
Y968700D3*
D130*
X2593700Y2793700D3*
D128*
X2493700D3*
X2393700D3*
D47*
X2239700Y2214700D3*
X2139700D3*
X2039700D3*
X1939700D3*
X2247700Y1967700D3*
X2147700D3*
X2047700D3*
X1947700D3*
D35*
X1736700Y2474700D3*
D48*
Y2374700D3*
D35*
Y2274700D3*
Y2174700D3*
X1731700Y2074700D3*
D130*
X2535700Y1935700D3*
D128*
X2435700D3*
X2535700Y2035700D3*
X2435700D3*
D130*
X1658700Y1022440D3*
D128*
Y864960D3*
D44*
X1775700Y913700D3*
Y948700D3*
Y983700D3*
D130*
X1867700Y1075700D3*
D88*
X2603700Y1327700D3*
D86*
X2210787D3*
D84*
X2447700Y2346700D3*
D82*
X2683920D3*
D80*
X2565810Y2539613D3*
M02*
