G04 DipTrace 3.3.1.3*
G04 T3-4-Breakout.gto*
%MOIN*%
G04 #@! TF.FileFunction,Legend,Top*
G04 #@! TF.Part,Single*
%ADD10C,0.009843*%
%ADD21C,0.008*%
%ADD47C,0.007*%
%FSLAX26Y26*%
G04*
G70*
G90*
G75*
G01*
G04 TopSilk*
%LPD*%
X1793700Y1193700D2*
D10*
Y1293700D1*
X393700Y1193700D2*
X1793700D1*
X393700D2*
Y1293700D1*
X469300D1*
X1793700D1*
Y393700D2*
Y493700D1*
X393700Y393700D2*
X1793700D1*
X393700D2*
Y493700D1*
X469300D1*
X1793700D1*
X443680Y793720D2*
D21*
Y893680D1*
X393700D1*
Y1193700D1*
X1793700D1*
Y493700D1*
X393700D1*
Y793720D1*
X443680D1*
X502713Y434922D2*
D47*
X501287Y437774D1*
X498402Y440659D1*
X495550Y442085D1*
X489813D1*
X486928Y440659D1*
X484076Y437774D1*
X482617Y434922D1*
X481191Y430611D1*
Y423415D1*
X482617Y419137D1*
X484076Y416252D1*
X486928Y413400D1*
X489813Y411941D1*
X495550D1*
X498402Y413400D1*
X501287Y416252D1*
X502713Y419137D1*
Y423415D1*
X495550D1*
X593338Y442052D2*
X589027Y440626D1*
X586142Y436315D1*
X584716Y429152D1*
Y424841D1*
X586142Y417678D1*
X589027Y413367D1*
X593338Y411941D1*
X596190D1*
X600501Y413367D1*
X603353Y417678D1*
X604812Y424841D1*
Y429152D1*
X603353Y436315D1*
X600501Y440626D1*
X596190Y442052D1*
X593338D1*
X603353Y436315D2*
X586142Y417678D1*
X686814Y436314D2*
X689699Y437773D1*
X694010Y442051D1*
Y411940D1*
X783721Y434888D2*
Y436314D1*
X785147Y439199D1*
X786573Y440625D1*
X789458Y442051D1*
X795195D1*
X798047Y440625D1*
X799473Y439199D1*
X800932Y436314D1*
Y433462D1*
X799473Y430577D1*
X796621Y426299D1*
X782262Y411940D1*
X802358D1*
X887246Y442051D2*
X902998D1*
X894409Y430577D1*
X898720D1*
X901572Y429151D1*
X902998Y427725D1*
X904457Y423414D1*
Y420562D1*
X902998Y416251D1*
X900146Y413366D1*
X895835Y411940D1*
X891524D1*
X887246Y413366D1*
X885820Y414825D1*
X884361Y417677D1*
X994569Y411940D2*
Y442051D1*
X980210Y421988D1*
X1001732D1*
X1100946Y442051D2*
X1086620D1*
X1085194Y429151D1*
X1086620Y430577D1*
X1090931Y432036D1*
X1095209D1*
X1099520Y430577D1*
X1102405Y427725D1*
X1103831Y423414D1*
Y420562D1*
X1102405Y416251D1*
X1099520Y413366D1*
X1095209Y411940D1*
X1090931D1*
X1086620Y413366D1*
X1085194Y414825D1*
X1083735Y417677D1*
X1203044Y437773D2*
X1201618Y440625D1*
X1197307Y442051D1*
X1194455D1*
X1190144Y440625D1*
X1187259Y436314D1*
X1185833Y429151D1*
Y421988D1*
X1187259Y416251D1*
X1190144Y413366D1*
X1194455Y411940D1*
X1195881D1*
X1200159Y413366D1*
X1203044Y416251D1*
X1204470Y420562D1*
Y421988D1*
X1203044Y426299D1*
X1200159Y429151D1*
X1195881Y430577D1*
X1194455D1*
X1190144Y429151D1*
X1187259Y426299D1*
X1185833Y421988D1*
X1292210Y411940D2*
X1306569Y442051D1*
X1286473D1*
X1389485D2*
X1385207Y440625D1*
X1383748Y437773D1*
Y434888D1*
X1385207Y432036D1*
X1388059Y430577D1*
X1393796Y429151D1*
X1398107Y427725D1*
X1400959Y424840D1*
X1402385Y421988D1*
Y417677D1*
X1400959Y414825D1*
X1399533Y413366D1*
X1395222Y411940D1*
X1389485D1*
X1385207Y413366D1*
X1383748Y414825D1*
X1382322Y417677D1*
Y421988D1*
X1383748Y424840D1*
X1386633Y427725D1*
X1390911Y429151D1*
X1396648Y430577D1*
X1399533Y432036D1*
X1400959Y434888D1*
Y437773D1*
X1399533Y440625D1*
X1395222Y442051D1*
X1389485D1*
X1503058Y432036D2*
X1501599Y427725D1*
X1498747Y424840D1*
X1494436Y423414D1*
X1493010D1*
X1488699Y424840D1*
X1485847Y427725D1*
X1484388Y432036D1*
Y433462D1*
X1485847Y437773D1*
X1488699Y440625D1*
X1493010Y442051D1*
X1494436D1*
X1498747Y440625D1*
X1501599Y437773D1*
X1503058Y432036D1*
Y424840D1*
X1501599Y417677D1*
X1498747Y413366D1*
X1494436Y411940D1*
X1491584D1*
X1487273Y413366D1*
X1485847Y416251D1*
X1576259Y424365D2*
X1578183Y425338D1*
X1581057Y428190D1*
Y408116D1*
X1600805Y428190D2*
X1597931Y427239D1*
X1596007Y424365D1*
X1595057Y419590D1*
Y416716D1*
X1596007Y411940D1*
X1597931Y409066D1*
X1600805Y408116D1*
X1602706D1*
X1605580Y409066D1*
X1607481Y411940D1*
X1608454Y416716D1*
Y419590D1*
X1607481Y424365D1*
X1605580Y427239D1*
X1602706Y428190D1*
X1600805D1*
X1607481Y424365D2*
X1596007Y411940D1*
X1677108Y436314D2*
X1679993Y437773D1*
X1684304Y442051D1*
Y411940D1*
X1698304Y436314D2*
X1701189Y437773D1*
X1705500Y442051D1*
Y411940D1*
X505438Y1279391D2*
X485342Y1271742D1*
X505438Y1264092D1*
Y1250092D2*
X485342D1*
X505438Y1222695D2*
X485342D1*
X505438Y1236092D1*
X485342D1*
X581212Y1264070D2*
X601308Y1271742D1*
X581212Y1279391D1*
X587911Y1276517D2*
Y1266944D1*
X596533Y1235722D2*
X598434Y1236673D1*
X600358Y1238596D1*
X601308Y1240498D1*
Y1244322D1*
X600358Y1246246D1*
X598434Y1248147D1*
X596533Y1249120D1*
X593659Y1250070D1*
X588862D1*
X586010Y1249120D1*
X584086Y1248147D1*
X582185Y1246246D1*
X581212Y1244322D1*
Y1240498D1*
X582185Y1238596D1*
X584086Y1236673D1*
X586010Y1235722D1*
X588862D1*
Y1240498D1*
X680492Y1242443D2*
Y1252944D1*
X688141Y1247219D1*
Y1250093D1*
X689092Y1251994D1*
X690043Y1252944D1*
X692917Y1253917D1*
X694818D1*
X697692Y1252944D1*
X699615Y1251043D1*
X700566Y1248169D1*
Y1245295D1*
X699615Y1242443D1*
X698642Y1241493D1*
X696741Y1240520D1*
X687169Y1267917D2*
X700566Y1273665D1*
X687169Y1279391D1*
X787176Y1226658D2*
X785750D1*
X782865Y1228084D1*
X781439Y1229510D1*
X780013Y1232395D1*
Y1238132D1*
X781439Y1240984D1*
X782865Y1242410D1*
X785750Y1243869D1*
X788602D1*
X791487Y1242410D1*
X795765Y1239558D1*
X810124Y1225199D1*
Y1245295D1*
X780013Y1262180D2*
Y1277932D1*
X791487Y1269343D1*
Y1273654D1*
X792913Y1276506D1*
X794339Y1277932D1*
X798650Y1279391D1*
X801502D1*
X805813Y1277932D1*
X808698Y1275080D1*
X810124Y1270769D1*
Y1266458D1*
X808698Y1262180D1*
X807239Y1260754D1*
X804387Y1259295D1*
X884257Y1239569D2*
X883306D1*
X881383Y1240520D1*
X880432Y1241471D1*
X879482Y1243394D1*
Y1247219D1*
X880432Y1249120D1*
X881383Y1250070D1*
X883306Y1251043D1*
X885208D1*
X887131Y1250070D1*
X889983Y1248169D1*
X899556Y1238597D1*
Y1251994D1*
X884257Y1266967D2*
X883306D1*
X881383Y1267917D1*
X880432Y1268868D1*
X879482Y1270791D1*
Y1274616D1*
X880432Y1276517D1*
X881383Y1277468D1*
X883306Y1278440D1*
X885208D1*
X887131Y1277468D1*
X889983Y1275566D1*
X899556Y1265994D1*
Y1279391D1*
X986155Y1248169D2*
X985204D1*
X983281Y1249120D1*
X982330Y1250070D1*
X981380Y1251994D1*
Y1255818D1*
X982330Y1257720D1*
X983281Y1258670D1*
X985204Y1259643D1*
X987106D1*
X989029Y1258670D1*
X991881Y1256769D1*
X1001453Y1247196D1*
X1001454Y1260594D1*
X985204Y1274594D2*
X984232Y1276517D1*
X981380Y1279391D1*
X1001453D1*
X1089879Y1239569D2*
X1088928D1*
X1087005Y1240520D1*
X1086054Y1241471D1*
X1085104Y1243394D1*
Y1247219D1*
X1086054Y1249120D1*
X1087005Y1250070D1*
X1088929Y1251043D1*
X1090830D1*
X1092753Y1250070D1*
X1095605Y1248169D1*
X1105178Y1238597D1*
Y1251994D1*
X1085104Y1271742D2*
X1086054Y1268868D1*
X1088929Y1266944D1*
X1093704Y1265994D1*
X1096578D1*
X1101353Y1266944D1*
X1104227Y1268868D1*
X1105178Y1271742D1*
Y1273643D1*
X1104227Y1276517D1*
X1101353Y1278418D1*
X1096578Y1279391D1*
X1093704D1*
X1088929Y1278418D1*
X1086054Y1276517D1*
X1085104Y1273643D1*
Y1271742D1*
X1088929Y1278418D2*
X1101353Y1266944D1*
X1183865Y1248147D2*
X1182893Y1250070D1*
X1180041Y1252944D1*
X1200115D1*
X1186717Y1279391D2*
X1189591Y1278418D1*
X1191515Y1276517D1*
X1192465Y1273643D1*
Y1272692D1*
X1191515Y1269818D1*
X1189591Y1267917D1*
X1186717Y1266944D1*
X1185767D1*
X1182893Y1267917D1*
X1180991Y1269818D1*
X1180041Y1272692D1*
Y1273643D1*
X1180991Y1276517D1*
X1182893Y1278418D1*
X1186717Y1279391D1*
X1191515D1*
X1196290Y1278418D1*
X1199164Y1276517D1*
X1200115Y1273643D1*
Y1271742D1*
X1199164Y1268868D1*
X1197241Y1267917D1*
X1285201Y1247219D2*
X1284228Y1249142D1*
X1281376Y1252016D1*
X1301450D1*
X1281376Y1270791D2*
X1282327Y1267939D1*
X1284228Y1266967D1*
X1286151D1*
X1288053Y1267939D1*
X1289025Y1269841D1*
X1289976Y1273665D1*
X1290927Y1276539D1*
X1292850Y1278440D1*
X1294751Y1279391D1*
X1297625D1*
X1299527Y1278440D1*
X1300499Y1277490D1*
X1301450Y1274616D1*
Y1270791D1*
X1300499Y1267939D1*
X1299527Y1266966D1*
X1297625Y1266016D1*
X1294751D1*
X1292850Y1266967D1*
X1290927Y1268890D1*
X1289976Y1271742D1*
X1289025Y1275566D1*
X1288053Y1277490D1*
X1286151Y1278440D1*
X1284228D1*
X1282327Y1277490D1*
X1281376Y1274616D1*
Y1270791D1*
X1387316Y1247196D2*
X1386343Y1249120D1*
X1383491Y1251994D1*
X1403565D1*
Y1269818D2*
X1383491Y1279391D1*
Y1265994D1*
X1482402Y1248169D2*
X1481430Y1250093D1*
X1478578Y1252967D1*
X1498652D1*
X1481430Y1278440D2*
X1479529Y1277490D1*
X1478578Y1274616D1*
Y1272715D1*
X1479529Y1269841D1*
X1482403Y1267917D1*
X1487178Y1266967D1*
X1491953D1*
X1495778Y1267917D1*
X1497701Y1269840D1*
X1498652Y1272714D1*
Y1273665D1*
X1497701Y1276517D1*
X1495778Y1278440D1*
X1492904Y1279391D1*
X1491953D1*
X1489079Y1278440D1*
X1487178Y1276517D1*
X1486227Y1273665D1*
Y1272715D1*
X1487178Y1269841D1*
X1489079Y1267917D1*
X1491953Y1266967D1*
X1581252Y1249209D2*
X1580279Y1251132D1*
X1577428Y1254006D1*
X1597501D1*
X1577428Y1279480D2*
Y1269930D1*
X1586028Y1268979D1*
X1585077Y1269930D1*
X1584104Y1272804D1*
Y1275655D1*
X1585077Y1278529D1*
X1586978Y1280453D1*
X1589852Y1281403D1*
X1591753D1*
X1594627Y1280453D1*
X1596551Y1278529D1*
X1597501Y1275655D1*
Y1272803D1*
X1596551Y1269929D1*
X1595578Y1268979D1*
X1593677Y1268006D1*
X1682815Y1248258D2*
X1681842Y1250182D1*
X1678990Y1253056D1*
X1699064D1*
Y1276628D2*
X1678990D1*
X1692365Y1267055D1*
Y1281403D1*
X1777211Y423414D2*
Y424365D1*
X1778161Y426288D1*
X1779112Y427239D1*
X1781035Y428190D1*
X1784860D1*
X1786761Y427239D1*
X1787712Y426288D1*
X1788685Y424365D1*
Y422464D1*
X1787712Y420540D1*
X1785811Y417688D1*
X1776238Y408116D1*
X1789635D1*
X1787712Y1259930D2*
X1777211D1*
X1782937Y1267579D1*
X1780063D1*
X1778161Y1268530D1*
X1777211Y1269480D1*
X1776238Y1272354D1*
Y1274255D1*
X1777211Y1277130D1*
X1779112Y1279053D1*
X1781986Y1280004D1*
X1784860D1*
X1787712Y1279053D1*
X1788663Y1278080D1*
X1789635Y1276179D1*
M02*
