G04 DipTrace 3.3.1.3*
G04 T3-4-Breakout.gbl*
%MOIN*%
G04 #@! TF.FileFunction,Copper,L2,Bot*
G04 #@! TF.Part,Single*
G04 #@! TA.AperFunction,Conductor*
%ADD13C,0.023622*%
G04 #@! TA.AperFunction,CopperBalancing*
%ADD14C,0.025*%
G04 #@! TA.AperFunction,Conductor*
%ADD15C,0.015*%
%ADD16C,0.03*%
G04 #@! TA.AperFunction,CopperBalancing*
%ADD18C,0.01299*%
G04 #@! TA.AperFunction,ComponentPad*
%ADD19R,0.059055X0.059055*%
%ADD20C,0.059055*%
%ADD22R,0.07874X0.047244*%
%ADD23R,0.05315X0.023622*%
%ADD24R,0.059055X0.051181*%
G04 #@! TA.AperFunction,ComponentPad*
%ADD26C,0.06194*%
G04 #@! TA.AperFunction,ViaPad*
%ADD27C,0.04*%
%FSLAX26Y26*%
G04*
G70*
G90*
G75*
G01*
G04 Bottom*
%LPD*%
X1568700Y863385D2*
D13*
X1461354D1*
X1362348Y962390D1*
X1243700D1*
Y956298D1*
X643700Y1143700D2*
D14*
Y1243700D1*
X1143700Y956298D2*
X831102D1*
X643700Y1143700D1*
X1243700Y956298D2*
X1143700D1*
X1443700Y1143700D2*
D15*
Y1243700D1*
X1343700Y1143700D2*
Y1243700D1*
X1243700D2*
Y1143700D1*
Y1031102D2*
X1349850D1*
Y824015D2*
X1568700D1*
X1243700Y1143700D2*
Y1031102D1*
X1143700Y1243700D2*
Y1143700D1*
Y784645D2*
X1568700D1*
X1143700Y1143700D2*
Y1031102D1*
X443700Y543700D2*
D16*
Y443700D1*
Y543700D2*
D15*
Y615581D1*
X467200Y639081D1*
X1589773D1*
X1643569Y692876D1*
Y902755D1*
X1568700D1*
X1743700Y543700D2*
X1737309D1*
Y443700D1*
X1743700D1*
X1643700Y543700D2*
Y443700D1*
X1543700Y543700D2*
Y443700D1*
X1443700Y543700D2*
Y443700D1*
X1343700Y543700D2*
Y443700D1*
X1243700Y543700D2*
Y443700D1*
X1143700Y543700D2*
Y443700D1*
X1043700Y543700D2*
Y443700D1*
X943700Y543700D2*
Y443700D1*
X843700Y543700D2*
Y443700D1*
X743700Y543700D2*
Y443700D1*
X643700Y543700D2*
Y443700D1*
X543700Y543700D2*
Y443700D1*
X1643700Y1143700D2*
Y1243700D1*
X1543700Y1143700D2*
Y1243700D1*
X1043700Y1143700D2*
Y1243700D1*
X943700Y1143700D2*
Y1243700D1*
X843700Y1143700D2*
Y1243700D1*
X743700Y1143700D2*
Y1243700D1*
X1743700Y1143700D2*
X1737309D1*
Y1243700D1*
X1743700D1*
X543700Y1143700D2*
Y1243700D1*
X443700Y1143700D2*
D16*
Y1243700D1*
D27*
X1349850Y1031102D3*
Y824015D3*
X1143700Y784645D3*
X485726Y1101987D2*
D14*
X501683D1*
X585735D2*
X601692D1*
X1285729D2*
X1301684D1*
X1385701D2*
X1401693D1*
X1485710D2*
X1501667D1*
X1585720D2*
X1601676D1*
X1685729D2*
X1701686D1*
X438718Y1077119D2*
X652648D1*
X1302235D2*
X1340726D1*
X1358968D2*
X1748693D1*
X438718Y1052250D2*
X677515D1*
X1393739D2*
X1748693D1*
X438718Y1027381D2*
X702382D1*
X1398692D2*
X1748693D1*
X438718Y1002512D2*
X727251D1*
X1389003D2*
X1645024D1*
X438718Y977644D2*
X752119D1*
X1403751D2*
X1645024D1*
X438718Y952775D2*
X776986D1*
X1428619D2*
X1645024D1*
X438718Y927906D2*
X801890D1*
X1453487D2*
X1513150D1*
X1624259D2*
X1645024D1*
X438718Y903037D2*
X1365020D1*
X1478355D2*
X1513150D1*
X1624259D2*
X1748693D1*
X438718Y878169D2*
X1389888D1*
X1624259D2*
X1748693D1*
X438718Y853300D2*
X1311230D1*
X1624259D2*
X1748693D1*
X438718Y828431D2*
X1125565D1*
X1161821D2*
X1301074D1*
X1624259D2*
X1748693D1*
X438718Y803562D2*
X1098724D1*
X1624259D2*
X1748693D1*
X438718Y778693D2*
X1095099D1*
X1624259D2*
X1645024D1*
X438718Y753825D2*
X1106403D1*
X1624259D2*
X1645024D1*
X438718Y728956D2*
X1645024D1*
X438718Y704087D2*
X1645024D1*
X438718Y679218D2*
X1748693D1*
X438718Y654350D2*
X1748693D1*
X438718Y629481D2*
X1748693D1*
X438718Y604612D2*
X1748693D1*
X1656712Y1004048D2*
X1751195D1*
X1751200Y1086731D1*
X1743700Y1086241D1*
X1734712Y1086948D1*
X1725944Y1089053D1*
X1717613Y1092503D1*
X1709926Y1097214D1*
X1703070Y1103070D1*
X1697214Y1109926D1*
X1693717Y1115445D1*
X1690186Y1109926D1*
X1684330Y1103070D1*
X1677474Y1097214D1*
X1669787Y1092503D1*
X1661456Y1089053D1*
X1652688Y1086948D1*
X1643700Y1086241D1*
X1634712Y1086948D1*
X1625944Y1089053D1*
X1617613Y1092503D1*
X1609926Y1097214D1*
X1603070Y1103070D1*
X1597214Y1109926D1*
X1593717Y1115445D1*
X1590186Y1109926D1*
X1584330Y1103070D1*
X1577474Y1097214D1*
X1569787Y1092503D1*
X1561456Y1089053D1*
X1552688Y1086948D1*
X1543700Y1086241D1*
X1534712Y1086948D1*
X1525944Y1089053D1*
X1517613Y1092503D1*
X1509926Y1097214D1*
X1503070Y1103070D1*
X1497214Y1109926D1*
X1493717Y1115445D1*
X1490186Y1109926D1*
X1484330Y1103070D1*
X1477474Y1097214D1*
X1469787Y1092503D1*
X1461456Y1089053D1*
X1452688Y1086948D1*
X1443700Y1086241D1*
X1434712Y1086948D1*
X1425944Y1089053D1*
X1417613Y1092503D1*
X1409926Y1097214D1*
X1403070Y1103070D1*
X1397214Y1109926D1*
X1393717Y1115445D1*
X1390186Y1109926D1*
X1384330Y1103070D1*
X1377474Y1097214D1*
X1369787Y1092503D1*
X1361456Y1089053D1*
X1352688Y1086948D1*
X1343700Y1086241D1*
X1334712Y1086948D1*
X1325944Y1089053D1*
X1317613Y1092503D1*
X1309926Y1097214D1*
X1303070Y1103070D1*
X1297214Y1109926D1*
X1293717Y1115445D1*
X1290186Y1109926D1*
X1284330Y1103070D1*
X1277682Y1097377D1*
X1277690Y1083163D1*
X1299718Y1083182D1*
Y1065061D1*
X1318159Y1065091D1*
X1322523Y1068713D1*
X1328743Y1072524D1*
X1335483Y1075317D1*
X1342577Y1077019D1*
X1349850Y1077591D1*
X1357123Y1077019D1*
X1364216Y1075317D1*
X1370956Y1072524D1*
X1377176Y1068713D1*
X1382724Y1063976D1*
X1387461Y1058428D1*
X1391272Y1052208D1*
X1394065Y1045468D1*
X1395767Y1038375D1*
X1396339Y1031102D1*
X1395767Y1023829D1*
X1394065Y1016735D1*
X1391272Y1009995D1*
X1387461Y1003775D1*
X1382724Y998228D1*
X1380472Y996148D1*
X1384861Y993377D1*
X1389439Y989465D1*
X1477200Y901705D1*
X1515646Y901686D1*
X1515636Y941056D1*
X1621764D1*
Y746344D1*
X1515636D1*
Y750686D1*
X1175445Y750655D1*
X1171027Y747033D1*
X1164806Y743222D1*
X1158066Y740431D1*
X1150973Y738728D1*
X1143700Y738155D1*
X1136427Y738728D1*
X1129334Y740431D1*
X1122594Y743222D1*
X1116373Y747033D1*
X1110826Y751772D1*
X1106088Y757319D1*
X1102277Y763539D1*
X1099485Y770279D1*
X1097783Y777372D1*
X1097210Y784645D1*
X1097783Y791918D1*
X1099485Y799011D1*
X1102277Y805751D1*
X1106088Y811972D1*
X1110826Y817519D1*
X1116373Y822256D1*
X1122594Y826067D1*
X1129334Y828860D1*
X1136427Y830562D1*
X1143700Y831134D1*
X1150973Y830562D1*
X1158066Y828860D1*
X1164806Y826067D1*
X1171027Y822256D1*
X1175369Y818632D1*
X1303708Y818634D1*
X1303360Y824015D1*
X1303932Y831288D1*
X1305634Y838381D1*
X1308427Y845121D1*
X1312238Y851342D1*
X1316976Y856889D1*
X1322523Y861627D1*
X1328743Y865438D1*
X1335483Y868230D1*
X1342577Y869932D1*
X1349850Y870504D1*
X1357123Y869932D1*
X1364216Y868230D1*
X1370956Y865438D1*
X1377176Y861627D1*
X1381519Y858002D1*
X1412540Y858004D1*
X1346502Y924070D1*
X1299730Y924090D1*
X1299717Y904218D1*
X1087683Y904217D1*
Y917315D1*
X828043Y917428D1*
X821999Y918385D1*
X816180Y920276D1*
X810729Y923054D1*
X805780Y926650D1*
X771053Y961207D1*
X645985Y1086275D1*
X639192Y1086418D1*
X630287Y1087827D1*
X621710Y1090615D1*
X613678Y1094708D1*
X606382Y1100007D1*
X600007Y1106382D1*
X594708Y1113678D1*
X593717Y1115445D1*
X590186Y1109926D1*
X584330Y1103070D1*
X577474Y1097214D1*
X569787Y1092503D1*
X561456Y1089053D1*
X552688Y1086948D1*
X543700Y1086241D1*
X534712Y1086948D1*
X525944Y1089053D1*
X517613Y1092503D1*
X509926Y1097214D1*
X503070Y1103070D1*
X497214Y1109926D1*
X493717Y1115445D1*
X490186Y1109926D1*
X484330Y1103070D1*
X477474Y1097214D1*
X469787Y1092503D1*
X461456Y1089053D1*
X452688Y1086948D1*
X443700Y1086241D1*
X436199Y1086772D1*
X436200Y600669D1*
X443006Y601155D1*
X450340Y600775D1*
X457566Y599461D1*
X464565Y597238D1*
X471224Y594140D1*
X477432Y590217D1*
X483090Y585533D1*
X488104Y580169D1*
X492393Y574207D1*
X493699Y572002D1*
X497214Y577474D1*
X503070Y584330D1*
X509926Y590186D1*
X517613Y594897D1*
X525944Y598347D1*
X534712Y600452D1*
X543700Y601159D1*
X552688Y600452D1*
X561456Y598347D1*
X569787Y594897D1*
X577474Y590186D1*
X584330Y584330D1*
X590186Y577474D1*
X593683Y571955D1*
X597214Y577474D1*
X603070Y584330D1*
X609926Y590186D1*
X617613Y594897D1*
X625944Y598347D1*
X634712Y600452D1*
X643700Y601159D1*
X652688Y600452D1*
X661456Y598347D1*
X669787Y594897D1*
X677474Y590186D1*
X684330Y584330D1*
X690186Y577474D1*
X693683Y571955D1*
X697214Y577474D1*
X703070Y584330D1*
X709926Y590186D1*
X717613Y594897D1*
X725944Y598347D1*
X734712Y600452D1*
X743700Y601159D1*
X752688Y600452D1*
X761456Y598347D1*
X769787Y594897D1*
X777474Y590186D1*
X784330Y584330D1*
X790186Y577474D1*
X793683Y571955D1*
X797214Y577474D1*
X803070Y584330D1*
X809926Y590186D1*
X817613Y594897D1*
X825944Y598347D1*
X834712Y600452D1*
X843700Y601159D1*
X852688Y600452D1*
X861456Y598347D1*
X869787Y594897D1*
X877474Y590186D1*
X884330Y584330D1*
X890186Y577474D1*
X893683Y571955D1*
X897214Y577474D1*
X903070Y584330D1*
X909926Y590186D1*
X917613Y594897D1*
X925944Y598347D1*
X934712Y600452D1*
X943700Y601159D1*
X952688Y600452D1*
X961456Y598347D1*
X969787Y594897D1*
X977474Y590186D1*
X984330Y584330D1*
X990186Y577474D1*
X993683Y571955D1*
X997214Y577474D1*
X1003070Y584330D1*
X1009926Y590186D1*
X1017613Y594897D1*
X1025944Y598347D1*
X1034712Y600452D1*
X1043700Y601159D1*
X1052688Y600452D1*
X1061456Y598347D1*
X1069787Y594897D1*
X1077474Y590186D1*
X1084330Y584330D1*
X1090186Y577474D1*
X1093683Y571955D1*
X1097214Y577474D1*
X1103070Y584330D1*
X1109926Y590186D1*
X1117613Y594897D1*
X1125944Y598347D1*
X1134712Y600452D1*
X1143700Y601159D1*
X1152688Y600452D1*
X1161456Y598347D1*
X1169787Y594897D1*
X1177474Y590186D1*
X1184330Y584330D1*
X1190186Y577474D1*
X1193683Y571955D1*
X1197214Y577474D1*
X1203070Y584330D1*
X1209926Y590186D1*
X1217613Y594897D1*
X1225944Y598347D1*
X1234712Y600452D1*
X1243700Y601159D1*
X1252688Y600452D1*
X1261456Y598347D1*
X1269787Y594897D1*
X1277474Y590186D1*
X1284330Y584330D1*
X1290186Y577474D1*
X1293683Y571955D1*
X1297214Y577474D1*
X1303070Y584330D1*
X1309926Y590186D1*
X1317613Y594897D1*
X1325944Y598347D1*
X1334712Y600452D1*
X1343700Y601159D1*
X1352688Y600452D1*
X1361456Y598347D1*
X1369787Y594897D1*
X1377474Y590186D1*
X1384330Y584330D1*
X1390186Y577474D1*
X1393683Y571955D1*
X1397214Y577474D1*
X1403070Y584330D1*
X1409926Y590186D1*
X1417613Y594897D1*
X1425944Y598347D1*
X1434712Y600452D1*
X1443700Y601159D1*
X1452688Y600452D1*
X1461456Y598347D1*
X1469787Y594897D1*
X1477474Y590186D1*
X1484330Y584330D1*
X1490186Y577474D1*
X1493683Y571955D1*
X1497214Y577474D1*
X1503070Y584330D1*
X1509926Y590186D1*
X1517613Y594897D1*
X1525944Y598347D1*
X1534712Y600452D1*
X1543700Y601159D1*
X1552688Y600452D1*
X1561456Y598347D1*
X1569787Y594897D1*
X1577474Y590186D1*
X1584330Y584330D1*
X1590186Y577474D1*
X1593683Y571955D1*
X1597214Y577474D1*
X1603070Y584330D1*
X1609926Y590186D1*
X1617613Y594897D1*
X1625944Y598347D1*
X1634712Y600452D1*
X1643700Y601159D1*
X1652688Y600452D1*
X1661456Y598347D1*
X1669787Y594897D1*
X1677474Y590186D1*
X1684330Y584330D1*
X1690186Y577474D1*
X1693683Y571955D1*
X1697214Y577474D1*
X1703070Y584330D1*
X1709926Y590186D1*
X1717613Y594897D1*
X1725944Y598347D1*
X1734712Y600452D1*
X1743700Y601159D1*
X1751201Y600628D1*
X1751200Y683322D1*
X1647525Y683352D1*
Y783575D1*
X1751195D1*
X1751200Y903794D1*
X1647525Y903825D1*
Y1004048D1*
X1656712D1*
X1568700Y941020D2*
D18*
Y902755D1*
X1515671D2*
X1621729D1*
X443700Y601124D2*
Y543700D1*
D19*
Y1243700D3*
D20*
X543700D3*
X643700D3*
X743700D3*
X843700D3*
X943700D3*
X1043700D3*
X1143700D3*
X1243700D3*
X1343700D3*
X1443700D3*
X1543700D3*
X1643700D3*
X1743700D3*
D19*
X443700Y443700D3*
D20*
X543700D3*
X643700D3*
X743700D3*
X843700D3*
X943700D3*
X1043700D3*
X1143700D3*
X1243700D3*
X1343700D3*
X1443700D3*
X1543700D3*
X1643700D3*
X1743700D3*
D22*
X1713385Y953936D3*
Y733464D3*
D23*
X1568700Y902755D3*
Y863385D3*
Y824015D3*
Y784645D3*
D24*
X1243700Y956298D3*
Y1031102D3*
X1143700Y956298D3*
Y1031102D3*
D26*
X443700Y543700D3*
X543700D3*
X643700D3*
X743700D3*
X843700D3*
X943700D3*
X1043700D3*
X1143700D3*
X1243700D3*
X1343700D3*
X1443700D3*
X1543700D3*
X1643700D3*
X1743700D3*
Y1143700D3*
X1643700D3*
X1543700D3*
X1443700D3*
X1343700D3*
X1243700D3*
X1143700D3*
X1043700D3*
X943700D3*
X843700D3*
X743700D3*
X643700D3*
X543700D3*
X443700D3*
M02*
