G04 DipTrace 3.3.1.3*
G04 T3-4-Breakout.gbs*
%MOIN*%
G04 #@! TF.FileFunction,Soldermask,Bot*
G04 #@! TF.Part,Single*
%ADD26C,0.06194*%
%ADD27C,0.04*%
%ADD32C,0.042*%
%ADD36R,0.061055X0.053181*%
%ADD38R,0.05515X0.025622*%
%ADD40R,0.08074X0.049244*%
%ADD42C,0.061055*%
%ADD44R,0.061055X0.061055*%
%FSLAX26Y26*%
G04*
G70*
G90*
G75*
G01*
G04 BotMask*
%LPD*%
D32*
X1349850Y1031102D3*
Y824015D3*
D27*
X1143700Y784645D3*
D44*
X443700Y1243700D3*
D42*
X543700D3*
X643700D3*
X743700D3*
X843700D3*
X943700D3*
X1043700D3*
X1143700D3*
X1243700D3*
X1343700D3*
X1443700D3*
X1543700D3*
X1643700D3*
X1743700D3*
D44*
X443700Y443700D3*
D42*
X543700D3*
X643700D3*
X743700D3*
X843700D3*
X943700D3*
X1043700D3*
X1143700D3*
X1243700D3*
X1343700D3*
X1443700D3*
X1543700D3*
X1643700D3*
X1743700D3*
D40*
X1713385Y953936D3*
Y733464D3*
D38*
X1568700Y902755D3*
Y863385D3*
Y824015D3*
Y784645D3*
D36*
X1243700Y956298D3*
Y1031102D3*
X1143700Y956298D3*
Y1031102D3*
D26*
X443700Y543700D3*
X543700D3*
X643700D3*
X743700D3*
X843700D3*
X943700D3*
X1043700D3*
X1143700D3*
X1243700D3*
X1343700D3*
X1443700D3*
X1543700D3*
X1643700D3*
X1743700D3*
Y1143700D3*
X1643700D3*
X1543700D3*
X1443700D3*
X1343700D3*
X1243700D3*
X1143700D3*
X1043700D3*
X943700D3*
X843700D3*
X743700D3*
X643700D3*
X543700D3*
X443700D3*
M02*
