M48
INCH
T01C0.0191
T02C0.0354
T03C0.038
%
T01
X+011437Y+007846
X+013498Y+008240
X+013498Y+010311
T02
X+004437Y+012437
X+005437Y+012437
X+006437Y+012437
X+007437Y+012437
X+008437Y+012437
X+009437Y+012437
X+010437Y+012437
X+011437Y+012437
X+012437Y+012437
X+013437Y+012437
X+014437Y+012437
X+015437Y+012437
X+016437Y+012437
X+017437Y+012437
X+017437Y+004437
X+016437Y+004437
X+015437Y+004437
X+014437Y+004437
X+013437Y+004437
X+012437Y+004437
X+011437Y+004437
X+010437Y+004437
X+009437Y+004437
X+008437Y+004437
X+007437Y+004437
X+006437Y+004437
X+005437Y+004437
X+004437Y+004437
T03
X+004437Y+005437
X+005437Y+005437
X+006437Y+005437
X+007437Y+005437
X+008437Y+005437
X+009437Y+005437
X+010437Y+005437
X+011437Y+005437
X+012437Y+005437
X+013437Y+005437
X+014437Y+005437
X+015437Y+005437
X+016437Y+005437
X+017437Y+005437
X+017437Y+011437
X+016437Y+011437
X+015437Y+011437
X+014437Y+011437
X+013437Y+011437
X+012437Y+011437
X+011437Y+011437
X+010437Y+011437
X+009437Y+011437
X+008437Y+011437
X+007437Y+011437
X+006437Y+011437
X+005437Y+011437
X+004437Y+011437
T00
M30
