G04 DipTrace 3.0.0.2*
G04 Teensy-TC36-Breakouti.gbl*
%MOIN*%
G04 #@! TF.FileFunction,Copper,L2,Bot*
G04 #@! TF.Part,Single*
G04 #@! TA.AperFunction,ViaPad*
%ADD13C,0.04*%
G04 #@! TA.AperFunction,Conductor*
%ADD14C,0.023622*%
%ADD18C,0.008*%
%ADD20C,0.08*%
%ADD22C,0.012*%
%ADD23C,0.06*%
G04 #@! TA.AperFunction,CopperBalancing*
%ADD27C,0.025*%
G04 #@! TA.AperFunction,ComponentPad*
%ADD29R,0.049213X0.049213*%
%ADD30C,0.049213*%
%ADD31R,0.059055X0.059055*%
%ADD32C,0.059055*%
%ADD33C,0.17*%
%ADD35C,0.065199*%
%ADD36R,0.051181X0.03937*%
%ADD37O,0.051181X0.03937*%
%ADD45C,0.06194*%
%ADD46R,0.074X0.074*%
%ADD47C,0.074*%
G04 #@! TA.AperFunction,ViaPad*
%ADD51C,0.165*%
%FSLAX26Y26*%
G04*
G70*
G90*
G75*
G01*
G04 Bottom*
%LPD*%
X1843701Y2068701D2*
D13*
X1743701D1*
X743701D2*
X843701D1*
X943701D2*
X1043701D1*
X2408701D2*
X2508701D1*
X2708701D2*
X2808701D1*
X1343701D2*
X1243701D1*
X1543701D2*
X1343701D1*
X1643701D2*
X1543701D1*
X1743701D2*
X1643701D1*
X1043701D2*
X1143701D1*
X2508701D2*
X2608701D1*
X2308701D2*
X2228701D1*
Y1893630D1*
X2844206D1*
Y1733638D1*
X2894196Y1683649D1*
Y1443701D1*
Y1309196D1*
X2768701Y1183701D1*
X2388701D1*
X2328701Y1243701D1*
X2318701D1*
X2308701Y2068701D2*
X2408701D1*
X1843701D2*
D3*
X1918701Y1043701D2*
X1933701Y1158701D1*
X2195923D1*
X2318701Y1243701D1*
X2818701Y1443701D2*
X2894196D1*
D14*
X2937701D1*
X2957701Y1463701D1*
X2983701D1*
X2743701Y618701D2*
D13*
X2843701D1*
X2943701D1*
X3043701D1*
X3143701D1*
X3243701D1*
X743701D2*
X843701D1*
X943701D1*
X1043701D1*
X1143701D1*
X1243701D1*
X1343701D1*
X1443701D1*
X1643701D2*
X1743701D1*
X1843701D1*
X1943701D1*
X2043701D1*
X2081381D1*
X2343701D1*
X2443701D1*
X2543701D1*
X2743701D1*
X1443701D2*
X1643701D1*
X2081381D2*
X2193701Y588701D1*
X743701Y718701D2*
D18*
X618701Y843701D1*
Y1043701D1*
X2018701D2*
X2009214Y1039658D1*
X2115746Y909658D1*
X2125232Y818176D1*
X2343701Y718701D1*
X2118701Y1043701D2*
Y1072034D1*
X2123537Y1003848D1*
X2207730Y926621D1*
X2218864Y818629D1*
X2346011Y786112D1*
X2388769D1*
X2443701Y718701D1*
X2943701D2*
X2818701Y813701D1*
X2723701Y833701D1*
X2718701Y918701D1*
X2518701Y1043701D1*
X2618701D2*
X2793701Y923701D1*
X2928701Y763701D1*
X3018701Y753701D1*
X3043701Y718701D1*
X2718701Y1043701D2*
X2865874Y932051D1*
X2994206Y927491D1*
X2998124Y817441D1*
X3062466Y774222D1*
X3143701Y718701D1*
X2818701Y1043701D2*
X2846282Y1049179D1*
X3011282Y954503D1*
X3188701Y938701D1*
Y761170D1*
X3231170Y718701D1*
X3243701D1*
X2718701Y1443701D2*
X2667223Y1532864D1*
X2668701Y1818701D1*
X2618701Y1443701D2*
X2561583Y1542633D1*
X2568701Y1818701D1*
X2518701Y1443701D2*
X2475689Y1518200D1*
X2468701Y1818701D1*
X2418701Y1443701D2*
X2367162Y1532969D1*
X2368701Y1818701D1*
X2218701Y1043701D2*
X2198701D1*
X2319117Y923285D1*
X2323801D1*
Y823701D1*
X2512310Y773191D1*
X2543701Y718701D1*
X2743701D2*
X2613701Y748701D1*
X2583701Y818701D1*
X2413701Y823701D1*
X2318701Y1043701D1*
X2373701Y1098701D1*
X2823701D1*
Y1113701D1*
X2843701Y718701D2*
X2743701Y798701D1*
X2623701D1*
X2613701Y933701D1*
X2443701Y973701D1*
X2418701Y1043701D1*
X3413701Y1013701D2*
X3447701Y1047701D1*
Y1191701D1*
X3439701Y1199701D1*
X3432701D1*
X3258701Y1373701D1*
X2843701Y718701D2*
X2798701Y673701D1*
X2493701D1*
X3213701Y1563701D2*
Y1558701D1*
X3143701Y1488701D1*
X3113701Y1428701D1*
X3073701Y1378701D1*
X3033701Y1313701D1*
Y1193701D1*
X2518701Y1343701D2*
X2461701D1*
Y1373701D1*
X2477701Y1389701D1*
X2757701D1*
X2773701Y1405701D1*
Y1493701D1*
X743701Y518701D2*
D13*
X843701D1*
X943701D1*
X1043701D1*
X1143701D1*
X1243701D1*
X1343701D1*
X1443701D1*
X1643701D1*
X743701Y2168701D2*
X843701D1*
X943701D1*
X1043701D1*
X1143701D1*
X1243701D1*
X1343701D1*
X1543701D1*
X1643701D1*
X1743701D1*
X1843701D1*
X2007109D1*
X2308701D1*
X2408701D1*
X2508701D1*
X2608701D1*
X2708701D1*
X2808701D1*
X2908701D1*
X3123701D1*
X3158676Y2100440D1*
X3212904Y2046211D1*
X3284538Y2031771D1*
X3466811Y1978740D1*
X3526811Y1793701D1*
X3584921D1*
X2007109Y2168701D2*
X2048701Y1838701D1*
X2028701Y1743701D1*
X1918701Y1643701D1*
X3212904Y2046211D2*
X3208701Y2018701D1*
X3182441D1*
X518701Y1043701D2*
Y738046D1*
X650597Y661895D1*
X678990Y555935D1*
X743701Y518701D1*
X518701Y1043701D2*
Y1274189D1*
X1703802D1*
X1730499Y1320093D1*
X1918701Y1643701D1*
X2318701Y1343701D2*
X2240292Y1265292D1*
X2033748Y1235066D1*
X1730499Y1320093D1*
X2318701Y1343701D2*
X2393701Y1273701D1*
X2743736D1*
X2818701Y1343701D1*
X2543701Y518701D2*
X2743701D1*
X2843701D1*
X2943701D1*
X3043701D1*
X3143701D1*
X3243701D1*
X3693701Y1168701D2*
D20*
Y953701D1*
Y743701D1*
X1643701Y518701D2*
D13*
X1743701D1*
X1843701D1*
X1943701D1*
X2043701D1*
X2343701D1*
X2443701D1*
X2488701Y523701D1*
X2543701Y518701D1*
X3583701Y1413701D2*
D20*
Y1373701D1*
X3693701Y1263701D1*
Y1168701D1*
D13*
X3748701Y1323701D1*
X3763701Y1528701D1*
X3584921Y1793701D1*
X3243701Y868701D2*
X3353701Y703701D1*
X3337642Y641471D1*
X3313701Y548701D1*
X3243701Y518701D1*
X3337642Y641471D2*
X3563701Y658701D1*
X3693701D1*
Y743701D1*
X2938701Y1143701D2*
X3109704Y1041100D1*
X3238701Y963701D1*
X3243701Y868701D1*
X3127087Y1103701D2*
X3133701Y1193701D1*
X3583701Y1413701D2*
X3513701Y1523701D1*
X3293701D1*
X3259868Y1514034D1*
X3208701Y1462868D1*
Y1438701D1*
X3133701Y1363701D1*
Y1193701D1*
X3127087Y1103701D2*
X3109704Y1041100D1*
X3493701Y953701D2*
D18*
Y1168701D1*
Y953701D2*
Y949701D1*
X3362701Y818701D1*
X3437701Y743701D1*
X3493701D1*
X2318701Y1543701D2*
X2283701Y1553701D1*
X2167436D1*
Y1945735D1*
X2103701Y2043701D1*
X3008701Y2223701D2*
D13*
Y2234247D1*
X724247D1*
X673701Y2183701D1*
Y1973701D1*
X613701Y1913701D1*
X3683701Y1413701D2*
X3698701D1*
Y1453701D1*
X3523701Y1628701D1*
X2963701D1*
Y1898701D1*
X3083701Y2018701D1*
X3103701D1*
X2318701Y1143701D2*
D22*
X2453701Y1138701D1*
X2793701D1*
X2988701Y1333701D1*
X3033701Y1398701D1*
X3048701Y1538701D1*
X3093701Y1543701D1*
X3593701Y1168701D2*
D20*
Y953701D1*
Y743701D1*
X3483701Y1413701D2*
D23*
Y1283701D1*
X3528701D1*
D20*
X3593701Y1218701D1*
Y1168701D1*
X618701Y1543701D2*
D13*
X443701D1*
Y1889026D1*
X513701Y1913701D1*
X2938701Y1143701D3*
X3127087Y1103701D3*
D3*
X3208701Y1462868D3*
X2103701Y2043701D3*
D51*
X3643701Y543701D3*
X543701D3*
Y2143701D3*
X3643701Y2118701D3*
D13*
X3008701Y2223701D3*
X3133701Y1193701D3*
X2983701Y1463701D3*
X2823701Y1113701D3*
X3258701Y1373701D3*
X3413701Y1013701D3*
X2493701Y673701D3*
X3033701Y1193701D3*
X3213701Y1563701D3*
X2773701Y1493701D3*
X452319Y2221332D2*
D27*
X464702D1*
X622680D2*
X643120D1*
X3057641D2*
X3604497D1*
X3682886D2*
X3735112D1*
X3048901Y2196463D2*
X3355083D1*
X3462280D2*
X3564848D1*
X3722583D2*
X3742925D1*
X729809Y2171595D2*
X3355083D1*
X3462280D2*
X3545903D1*
X722680Y2146726D2*
X3355083D1*
X3462280D2*
X3535893D1*
X802222Y2121857D2*
X823540D1*
X863891D2*
X923540D1*
X963891D2*
X1023540D1*
X1063891D2*
X1123540D1*
X1163891D2*
X1223540D1*
X1263891D2*
X1323540D1*
X1363891D2*
X1485161D1*
X1602222D2*
X1623540D1*
X1663891D2*
X1723540D1*
X1763891D2*
X1823540D1*
X1863891D2*
X2250200D1*
X2367212D2*
X2388530D1*
X2428882D2*
X2488530D1*
X2528882D2*
X2588530D1*
X2628882D2*
X2688530D1*
X2728882D2*
X2788530D1*
X2828882D2*
X2888530D1*
X2928882D2*
X3355083D1*
X3462280D2*
X3532231D1*
X1894555Y2096988D2*
X2189311D1*
X2959546D2*
X3534380D1*
X443725Y2072120D2*
X458969D1*
X1902124D2*
X2064409D1*
X2142993D2*
X2179839D1*
X2967114D2*
X3542680D1*
X443725Y2047251D2*
X490434D1*
X596948D2*
X624712D1*
X1897973D2*
X2054839D1*
X2152563D2*
X2179741D1*
X2962964D2*
X3043999D1*
X3157300D2*
X3558891D1*
X3728491D2*
X3743706D1*
X443725Y2022382D2*
X624712D1*
X877710D2*
X909673D1*
X1177710D2*
X1209673D1*
X1877710D2*
X2059868D1*
X2156421D2*
X2179741D1*
X2642700D2*
X2674712D1*
X2967212D2*
X3019145D1*
X3157300D2*
X3590190D1*
X3697192D2*
X3743706D1*
X443725Y1997513D2*
X624712D1*
X1394263D2*
X1485161D1*
X1894263D2*
X2094878D1*
X2967212D2*
X2994292D1*
X3157300D2*
X3743706D1*
X443725Y1972645D2*
X604399D1*
X1402075D2*
X1485161D1*
X1902075D2*
X2111089D1*
X3157300D2*
X3743706D1*
X443725Y1947776D2*
X466753D1*
X1398169D2*
X1485161D1*
X1898169D2*
X2127251D1*
X3081030D2*
X3743706D1*
X878491Y1922907D2*
X908940D1*
X978491D2*
X1008940D1*
X1078491D2*
X1108940D1*
X1178491D2*
X1208940D1*
X1278491D2*
X1308940D1*
X1378491D2*
X1485161D1*
X1678491D2*
X1708940D1*
X1778491D2*
X1808940D1*
X1878491D2*
X2134477D1*
X3056128D2*
X3743706D1*
X669995Y1898038D2*
X2134477D1*
X2892993D2*
X2914702D1*
X3031274D2*
X3306889D1*
X3390503D2*
X3743706D1*
X654858Y1873170D2*
X710161D1*
X827222D2*
X853130D1*
X884302D2*
X953130D1*
X984302D2*
X1053130D1*
X1084302D2*
X1353130D1*
X1384302D2*
X1453130D1*
X1484302D2*
X1553130D1*
X1584302D2*
X1610161D1*
X1727222D2*
X1753130D1*
X1784302D2*
X1853130D1*
X1884302D2*
X1910161D1*
X2027222D2*
X2103130D1*
X2893188D2*
X2914702D1*
X3012671D2*
X3268022D1*
X3429419D2*
X3743706D1*
X660278Y1848301D2*
X710161D1*
X1118774D2*
X1318657D1*
X2027222D2*
X2068657D1*
X2893188D2*
X2914702D1*
X3012671D2*
X3248979D1*
X3448413D2*
X3743706D1*
X671362Y1823432D2*
X710161D1*
X1127026D2*
X1310405D1*
X2027222D2*
X2060405D1*
X2277222D2*
X2310405D1*
X2727222D2*
X2795220D1*
X2893188D2*
X2914702D1*
X3012671D2*
X3238725D1*
X3458667D2*
X3743706D1*
X670141Y1798563D2*
X710161D1*
X1123462D2*
X1313921D1*
X2027222D2*
X2063921D1*
X2277222D2*
X2313921D1*
X2727222D2*
X2795220D1*
X2893188D2*
X2914702D1*
X3012671D2*
X3234819D1*
X3462573D2*
X3743706D1*
X655395Y1773694D2*
X710161D1*
X904565D2*
X932866D1*
X1004565D2*
X1032866D1*
X1104565D2*
X1332866D1*
X1404565D2*
X1432866D1*
X1504565D2*
X1532866D1*
X1804565D2*
X1832866D1*
X2027222D2*
X2082866D1*
X2277222D2*
X2332866D1*
X2404565D2*
X2432866D1*
X2504565D2*
X2532866D1*
X2727222D2*
X2795220D1*
X2893188D2*
X2914702D1*
X3102222D2*
X3130522D1*
X3156860D2*
X3236528D1*
X3460864D2*
X3743706D1*
X492700Y1748826D2*
X2134477D1*
X2200415D2*
X2335356D1*
X2401294D2*
X2437358D1*
X2503296D2*
X2533891D1*
X2599878D2*
X2635356D1*
X2701343D2*
X2795220D1*
X2897241D2*
X2914702D1*
X3193432D2*
X3244145D1*
X3453247D2*
X3743706D1*
X492700Y1723957D2*
X2134477D1*
X2200415D2*
X2335210D1*
X2401147D2*
X2437895D1*
X2503882D2*
X2533257D1*
X2599243D2*
X2635210D1*
X2701196D2*
X2796245D1*
X3201977D2*
X3259233D1*
X3438208D2*
X3743706D1*
X492700Y1699088D2*
X500911D1*
X536499D2*
X600884D1*
X636499D2*
X700884D1*
X736499D2*
X800884D1*
X836499D2*
X900884D1*
X936499D2*
X1000884D1*
X1036499D2*
X1100884D1*
X1136499D2*
X1200884D1*
X1236499D2*
X1300884D1*
X1336499D2*
X1400884D1*
X1436499D2*
X1500884D1*
X1536499D2*
X1600884D1*
X1636499D2*
X1700884D1*
X1736499D2*
X1800884D1*
X1836499D2*
X2000884D1*
X2036499D2*
X2100884D1*
X2236499D2*
X2300884D1*
X2736499D2*
X2800884D1*
X3198657D2*
X3287212D1*
X3410180D2*
X3743706D1*
X1869897Y1674219D2*
X1967534D1*
X3535620D2*
X3743706D1*
X1878393Y1649351D2*
X1959038D1*
X3571264D2*
X3743706D1*
X1875366Y1624482D2*
X1962065D1*
X3596167D2*
X3743706D1*
X658032Y1599613D2*
X679350D1*
X758032D2*
X779350D1*
X858032D2*
X879350D1*
X958032D2*
X979350D1*
X1058032D2*
X1079350D1*
X1158032D2*
X1179350D1*
X1258032D2*
X1279350D1*
X1358032D2*
X1379350D1*
X1458032D2*
X1479350D1*
X1558032D2*
X1579350D1*
X1658032D2*
X1679350D1*
X1758032D2*
X1779350D1*
X1858032D2*
X1979350D1*
X2058032D2*
X2079350D1*
X2258032D2*
X2279350D1*
X2758032D2*
X2779350D1*
X3621020D2*
X3743706D1*
X669555Y1574744D2*
X767827D1*
X1069555D2*
X2134477D1*
X2400366D2*
X2441411D1*
X2507348D2*
X2529399D1*
X2595386D2*
X2634477D1*
X2700415D2*
X2845220D1*
X2943188D2*
X3039116D1*
X3148266D2*
X3166020D1*
X3261352D2*
X3509429D1*
X3645874D2*
X3743706D1*
X678345Y1549876D2*
X759087D1*
X1078345D2*
X2134722D1*
X2400220D2*
X2441948D1*
X2507934D2*
X2528764D1*
X2595093D2*
X2634331D1*
X2700268D2*
X2845220D1*
X2943188D2*
X3015727D1*
X3148266D2*
X3159271D1*
X3260571D2*
X3534282D1*
X3670776D2*
X3743706D1*
X675513Y1525007D2*
X761870D1*
X1075513D2*
X2154643D1*
X2409448D2*
X2442534D1*
X2509448D2*
X2534087D1*
X2609448D2*
X2635259D1*
X2709448D2*
X2736821D1*
X2810571D2*
X2845220D1*
X2943188D2*
X3012065D1*
X3241968D2*
X3559184D1*
X3695630D2*
X3743706D1*
X658667Y1500138D2*
X778716D1*
X858667D2*
X878716D1*
X958667D2*
X978716D1*
X1058667D2*
X1105376D1*
X1132007D2*
X1205376D1*
X1232007D2*
X1305376D1*
X1332007D2*
X1405376D1*
X1432007D2*
X2005376D1*
X2032007D2*
X2105376D1*
X2132007D2*
X2205376D1*
X2232007D2*
X2278716D1*
X2432007D2*
X2448413D1*
X2532007D2*
X2548413D1*
X2632007D2*
X2648413D1*
X2832007D2*
X2845200D1*
X3200757D2*
X3584038D1*
X3720483D2*
X3743706D1*
X443725Y1475269D2*
X1068169D1*
X1469214D2*
X1968169D1*
X3077075D2*
X3100395D1*
X3175854D2*
X3417729D1*
X3549682D2*
X3608891D1*
X443725Y1450400D2*
X1059136D1*
X1478247D2*
X1959136D1*
X3074389D2*
X3087984D1*
X3161108D2*
X3417729D1*
X3549682D2*
X3629399D1*
X443725Y1425532D2*
X1061675D1*
X1475708D2*
X1961675D1*
X3148706D2*
X3417729D1*
X3549682D2*
X3618804D1*
X443725Y1400663D2*
X1078130D1*
X1159253D2*
X1178130D1*
X1259253D2*
X1278130D1*
X1359253D2*
X1378130D1*
X1459253D2*
X1978130D1*
X2059253D2*
X2078130D1*
X2159253D2*
X2178130D1*
X2259253D2*
X2278130D1*
X2359253D2*
X2378130D1*
X2943188D2*
X2993071D1*
X3132788D2*
X3218315D1*
X3299097D2*
X3417729D1*
X3549682D2*
X3619048D1*
X443725Y1375794D2*
X1068559D1*
X1468872D2*
X1968559D1*
X2268872D2*
X2368559D1*
X2789380D2*
X2845220D1*
X2943188D2*
X2975835D1*
X3112915D2*
X3209770D1*
X3307641D2*
X3417729D1*
X3549682D2*
X3630278D1*
X443725Y1350925D2*
X1059184D1*
X1478198D2*
X1959184D1*
X2278198D2*
X2359184D1*
X2778198D2*
X2845220D1*
X2943188D2*
X2957475D1*
X3094897D2*
X3215679D1*
X3327075D2*
X3417729D1*
X3549682D2*
X3671684D1*
X3695727D2*
X3743706D1*
X443725Y1326057D2*
X1061528D1*
X1475903D2*
X1961528D1*
X2275903D2*
X2361528D1*
X2775903D2*
X2842827D1*
X3079614D2*
X3260747D1*
X3351929D2*
X3424712D1*
X3582837D2*
X3743706D1*
X443725Y1301188D2*
X1077544D1*
X1159839D2*
X1177544D1*
X1259839D2*
X1277544D1*
X1359839D2*
X1377544D1*
X1459839D2*
X1977544D1*
X2059839D2*
X2077544D1*
X2159839D2*
X2177544D1*
X2259839D2*
X2377544D1*
X2459839D2*
X2477544D1*
X2559839D2*
X2577544D1*
X2659839D2*
X2677544D1*
X2759839D2*
X2817973D1*
X3066675D2*
X3285600D1*
X3376831D2*
X3424712D1*
X3607739D2*
X3743706D1*
X443725Y1276319D2*
X2268901D1*
X2368530D2*
X2793071D1*
X2979761D2*
X3000737D1*
X3066675D2*
X3310503D1*
X3401684D2*
X3425200D1*
X3632593D2*
X3743706D1*
X443725Y1251450D2*
X2245757D1*
X2389184D2*
X2768218D1*
X2954907D2*
X3000737D1*
X3066675D2*
X3335356D1*
X3426538D2*
X3434846D1*
X3654077D2*
X3743706D1*
X443725Y1226582D2*
X719097D1*
X1218335D2*
X2209819D1*
X2930005D2*
X2998345D1*
X3069067D2*
X3360210D1*
X3456567D2*
X3479302D1*
X3662231D2*
X3743706D1*
X443725Y1201713D2*
X709282D1*
X1228100D2*
X1913579D1*
X2905151D2*
X2985405D1*
X3082007D2*
X3385063D1*
X3662671D2*
X3743706D1*
X443725Y1176844D2*
X711284D1*
X1226147D2*
X1888432D1*
X2880298D2*
X2987895D1*
X3079516D2*
X3410014D1*
X3662671D2*
X3743706D1*
X443725Y1151975D2*
X726714D1*
X810718D2*
X826714D1*
X910718D2*
X926714D1*
X1010718D2*
X1026714D1*
X1110718D2*
X1126714D1*
X1210718D2*
X1883452D1*
X2855395D2*
X3010698D1*
X3056714D2*
X3414702D1*
X3662671D2*
X3743706D1*
X443725Y1127107D2*
X1880229D1*
X2234448D2*
X2261186D1*
X2870727D2*
X3414702D1*
X3662671D2*
X3743706D1*
X443725Y1102238D2*
X1876958D1*
X1975708D2*
X2112114D1*
X2125286D2*
X2276421D1*
X2871264D2*
X3414702D1*
X3662671D2*
X3743706D1*
X443725Y1077369D2*
X569634D1*
X2867749D2*
X3414702D1*
X3662671D2*
X3743706D1*
X443725Y1052500D2*
X559429D1*
X2904223D2*
X3385600D1*
X3662671D2*
X3743706D1*
X443725Y1027631D2*
X561040D1*
X2947583D2*
X3366850D1*
X3662671D2*
X3743706D1*
X443725Y1002763D2*
X575884D1*
X661548D2*
X675856D1*
X761548D2*
X775856D1*
X861548D2*
X875856D1*
X961548D2*
X975856D1*
X1061548D2*
X1075856D1*
X1161548D2*
X1175856D1*
X1261548D2*
X1275856D1*
X1361548D2*
X1375856D1*
X1461548D2*
X1475856D1*
X1561548D2*
X1575856D1*
X1661548D2*
X1675856D1*
X1761548D2*
X1775856D1*
X1861548D2*
X1875856D1*
X1961548D2*
X1975856D1*
X2990893D2*
X3366020D1*
X3662671D2*
X3743706D1*
X443725Y977894D2*
X585698D1*
X651684D2*
X2017925D1*
X2199438D2*
X2218901D1*
X2382837D2*
X2407329D1*
X2858374D2*
X2906792D1*
X3094702D2*
X3381548D1*
X3662671D2*
X3743706D1*
X443725Y953025D2*
X585698D1*
X651684D2*
X2038286D1*
X2122095D2*
X2131316D1*
X2226538D2*
X2243755D1*
X2393579D2*
X2418804D1*
X3218091D2*
X3432134D1*
X3662671D2*
X3743706D1*
X443725Y928156D2*
X585698D1*
X651684D2*
X2058696D1*
X2142456D2*
X2158452D1*
X2240698D2*
X2268657D1*
X2404272D2*
X2501714D1*
X3221704D2*
X3426567D1*
X3662671D2*
X3743706D1*
X443725Y903288D2*
X585698D1*
X651684D2*
X722124D1*
X1227222D2*
X1322124D1*
X1727222D2*
X2010161D1*
X3221704D2*
X3401665D1*
X3662671D2*
X3743706D1*
X443725Y878419D2*
X585698D1*
X651684D2*
X711040D1*
X1227222D2*
X1311040D1*
X1727222D2*
X2010161D1*
X2874292D2*
X2886009D1*
X3221704D2*
X3376811D1*
X3468042D2*
X3524712D1*
X3662671D2*
X3743706D1*
X443725Y853550D2*
X585698D1*
X654468D2*
X712261D1*
X1227222D2*
X1312261D1*
X1727222D2*
X2010161D1*
X3221704D2*
X3351958D1*
X3443139D2*
X3524712D1*
X3662671D2*
X3743706D1*
X443725Y828681D2*
X589702D1*
X679321D2*
X727007D1*
X810425D2*
X827007D1*
X910425D2*
X927007D1*
X1010425D2*
X1027007D1*
X1227222D2*
X1327007D1*
X1410425D2*
X1427007D1*
X1510425D2*
X1527007D1*
X1727222D2*
X2010161D1*
X3085425D2*
X3102007D1*
X3221704D2*
X3331401D1*
X3418286D2*
X3524712D1*
X3662671D2*
X3743706D1*
X443725Y803813D2*
X612993D1*
X704175D2*
X2095854D1*
X2937231D2*
X2968364D1*
X3075561D2*
X3155718D1*
X3221704D2*
X3333598D1*
X3423218D2*
X3524712D1*
X3662671D2*
X3743706D1*
X443725Y778944D2*
X637847D1*
X729077D2*
X2135356D1*
X3112085D2*
X3155718D1*
X3221704D2*
X3356841D1*
X3662671D2*
X3743706D1*
X443725Y754075D2*
X662700D1*
X889624D2*
X897737D1*
X989624D2*
X997737D1*
X1089624D2*
X1097737D1*
X1189624D2*
X1197737D1*
X1289624D2*
X1297737D1*
X1389624D2*
X1397737D1*
X1489624D2*
X1597759D1*
X1689624D2*
X1697737D1*
X1789624D2*
X1797737D1*
X1889624D2*
X1897737D1*
X2102222D2*
X2189946D1*
X3289624D2*
X3381743D1*
X3662671D2*
X3743706D1*
X443725Y729206D2*
X685161D1*
X1501245D2*
X1586186D1*
X2102222D2*
X2244585D1*
X3301245D2*
X3406597D1*
X3661059D2*
X3743706D1*
X443725Y704337D2*
X685161D1*
X1500366D2*
X1587065D1*
X2102222D2*
X2285161D1*
X3300366D2*
X3447124D1*
X3649780D2*
X3743706D1*
X443725Y679469D2*
X685161D1*
X886206D2*
X901225D1*
X986206D2*
X1001225D1*
X1086206D2*
X1101225D1*
X1186206D2*
X1201225D1*
X1286206D2*
X1301225D1*
X1386206D2*
X1401225D1*
X1486206D2*
X1601225D1*
X1686206D2*
X1701225D1*
X1786206D2*
X1801225D1*
X1886206D2*
X1901225D1*
X2102222D2*
X2285161D1*
X2886206D2*
X2901225D1*
X2986206D2*
X3001225D1*
X3086206D2*
X3101225D1*
X3186206D2*
X3201225D1*
X3286206D2*
X3574077D1*
X3613354D2*
X3743706D1*
X443725Y654600D2*
X698198D1*
X3289184D2*
X3743706D1*
X443725Y629731D2*
X474272D1*
X613110D2*
X686284D1*
X3301147D2*
X3574272D1*
X3713110D2*
X3743706D1*
X636401Y604862D2*
X686919D1*
X3300464D2*
X3550981D1*
X648950Y579994D2*
X700688D1*
X3286694D2*
X3538432D1*
X654614Y555125D2*
X2136772D1*
X2247290D2*
X3532817D1*
X654370Y530256D2*
X3533061D1*
X648218Y505387D2*
X3539165D1*
X635034Y480519D2*
X3552397D1*
X460962Y455650D2*
X476958D1*
X610425D2*
X3576958D1*
X3710425D2*
X3726470D1*
X3370103Y2219799D2*
X3459799D1*
Y2117603D1*
X3357603D1*
Y2219799D1*
X3370103D1*
X2244799Y572270D2*
Y537603D1*
X2142603D1*
Y554253D1*
X2075231Y572221D1*
X2065139Y566946D1*
X2056779Y564229D1*
X2048096Y562854D1*
X2039306D1*
X2030623Y564229D1*
X2022263Y566946D1*
X2014431Y570936D1*
X2012502Y572225D1*
X1975000Y572209D1*
X1969133Y568787D1*
X1961012Y565423D1*
X1952464Y563371D1*
X1943701Y562681D1*
X1934938Y563371D1*
X1926390Y565423D1*
X1918269Y568787D1*
X1912502Y572225D1*
X1875000Y572209D1*
X1869133Y568787D1*
X1861012Y565423D1*
X1852464Y563371D1*
X1843701Y562681D1*
X1834938Y563371D1*
X1826390Y565423D1*
X1818269Y568787D1*
X1812502Y572225D1*
X1775000Y572209D1*
X1769133Y568787D1*
X1761012Y565423D1*
X1752464Y563371D1*
X1743701Y562681D1*
X1734938Y563371D1*
X1726390Y565423D1*
X1718269Y568787D1*
X1712502Y572225D1*
X1675000Y572209D1*
X1669133Y568787D1*
X1661012Y565423D1*
X1652464Y563371D1*
X1643701Y562681D1*
X1634938Y563371D1*
X1626390Y565423D1*
X1618269Y568787D1*
X1612502Y572225D1*
X1475000Y572209D1*
X1469133Y568787D1*
X1461012Y565423D1*
X1452464Y563371D1*
X1443701Y562681D1*
X1434938Y563371D1*
X1426390Y565423D1*
X1418269Y568787D1*
X1412502Y572225D1*
X1375000Y572209D1*
X1369133Y568787D1*
X1361012Y565423D1*
X1352464Y563371D1*
X1343701Y562681D1*
X1334938Y563371D1*
X1326390Y565423D1*
X1318269Y568787D1*
X1312502Y572225D1*
X1275000Y572209D1*
X1269133Y568787D1*
X1261012Y565423D1*
X1252464Y563371D1*
X1243701Y562681D1*
X1234938Y563371D1*
X1226390Y565423D1*
X1218269Y568787D1*
X1212502Y572225D1*
X1175000Y572209D1*
X1169133Y568787D1*
X1161012Y565423D1*
X1152464Y563371D1*
X1143701Y562681D1*
X1134938Y563371D1*
X1126390Y565423D1*
X1118269Y568787D1*
X1112502Y572225D1*
X1075000Y572209D1*
X1069133Y568787D1*
X1061012Y565423D1*
X1052464Y563371D1*
X1043701Y562681D1*
X1034938Y563371D1*
X1026390Y565423D1*
X1018269Y568787D1*
X1012502Y572225D1*
X975000Y572209D1*
X969133Y568787D1*
X961012Y565423D1*
X952464Y563371D1*
X943701Y562681D1*
X934938Y563371D1*
X926390Y565423D1*
X918269Y568787D1*
X912502Y572225D1*
X875000Y572209D1*
X869133Y568787D1*
X861012Y565423D1*
X852464Y563371D1*
X843701Y562681D1*
X834938Y563371D1*
X826390Y565423D1*
X818269Y568787D1*
X812502Y572225D1*
X775000Y572209D1*
X769133Y568787D1*
X761012Y565423D1*
X752464Y563371D1*
X743701Y562681D1*
X734938Y563371D1*
X726390Y565423D1*
X718269Y568787D1*
X710773Y573380D1*
X704089Y579089D1*
X698380Y585773D1*
X693787Y593269D1*
X690423Y601390D1*
X688371Y609938D1*
X687681Y618701D1*
X688371Y627464D1*
X690423Y636012D1*
X693787Y644133D1*
X698380Y651629D1*
X704089Y658313D1*
X709060Y662671D1*
X687681Y662681D1*
Y731578D1*
X595514Y823898D1*
X591532Y829858D1*
X589051Y836583D1*
X588209Y843701D1*
X588222Y844047D1*
X588209Y995019D1*
X581382Y1000007D1*
X575007Y1006382D1*
X569707Y1013677D1*
X565613Y1021711D1*
X562827Y1030287D1*
X561416Y1039193D1*
Y1048209D1*
X562827Y1057115D1*
X565613Y1065691D1*
X569707Y1073725D1*
X575007Y1081020D1*
X581382Y1087395D1*
X588677Y1092695D1*
X596711Y1096789D1*
X605287Y1099575D1*
X614193Y1100986D1*
X623209D1*
X632115Y1099575D1*
X640691Y1096789D1*
X648725Y1092695D1*
X656020Y1087395D1*
X662395Y1081020D1*
X667695Y1073725D1*
X668668Y1071987D1*
X672213Y1077476D1*
X678069Y1084333D1*
X684926Y1090189D1*
X692614Y1094900D1*
X700944Y1098351D1*
X709712Y1100455D1*
X718701Y1101163D1*
X727690Y1100455D1*
X736458Y1098351D1*
X744788Y1094900D1*
X752476Y1090189D1*
X759333Y1084333D1*
X765189Y1077476D1*
X768668Y1071987D1*
X772213Y1077476D1*
X778069Y1084333D1*
X784926Y1090189D1*
X792614Y1094900D1*
X800944Y1098351D1*
X809712Y1100455D1*
X818701Y1101163D1*
X827690Y1100455D1*
X836458Y1098351D1*
X844788Y1094900D1*
X852476Y1090189D1*
X859333Y1084333D1*
X865189Y1077476D1*
X868668Y1071987D1*
X872213Y1077476D1*
X878069Y1084333D1*
X884926Y1090189D1*
X892614Y1094900D1*
X900944Y1098351D1*
X909712Y1100455D1*
X918701Y1101163D1*
X927690Y1100455D1*
X936458Y1098351D1*
X944788Y1094900D1*
X952476Y1090189D1*
X959333Y1084333D1*
X965189Y1077476D1*
X968668Y1071987D1*
X972213Y1077476D1*
X978069Y1084333D1*
X984926Y1090189D1*
X992614Y1094900D1*
X1000944Y1098351D1*
X1009712Y1100455D1*
X1018701Y1101163D1*
X1027690Y1100455D1*
X1036458Y1098351D1*
X1044788Y1094900D1*
X1052476Y1090189D1*
X1059333Y1084333D1*
X1065189Y1077476D1*
X1068668Y1071987D1*
X1072213Y1077476D1*
X1078069Y1084333D1*
X1084926Y1090189D1*
X1092614Y1094900D1*
X1100944Y1098351D1*
X1109712Y1100455D1*
X1118701Y1101163D1*
X1127690Y1100455D1*
X1136458Y1098351D1*
X1144788Y1094900D1*
X1152476Y1090189D1*
X1159333Y1084333D1*
X1165189Y1077476D1*
X1168668Y1071987D1*
X1172213Y1077476D1*
X1178069Y1084333D1*
X1184926Y1090189D1*
X1192614Y1094900D1*
X1200944Y1098351D1*
X1209712Y1100455D1*
X1218701Y1101163D1*
X1227690Y1100455D1*
X1236458Y1098351D1*
X1244788Y1094900D1*
X1252476Y1090189D1*
X1259333Y1084333D1*
X1265189Y1077476D1*
X1268668Y1071987D1*
X1272213Y1077476D1*
X1278069Y1084333D1*
X1284926Y1090189D1*
X1292614Y1094900D1*
X1300944Y1098351D1*
X1309712Y1100455D1*
X1318701Y1101163D1*
X1327690Y1100455D1*
X1336458Y1098351D1*
X1344788Y1094900D1*
X1352476Y1090189D1*
X1359333Y1084333D1*
X1365189Y1077476D1*
X1368668Y1071987D1*
X1372213Y1077476D1*
X1378069Y1084333D1*
X1384926Y1090189D1*
X1392614Y1094900D1*
X1400944Y1098351D1*
X1409712Y1100455D1*
X1418701Y1101163D1*
X1427690Y1100455D1*
X1436458Y1098351D1*
X1444788Y1094900D1*
X1452476Y1090189D1*
X1459333Y1084333D1*
X1465189Y1077476D1*
X1468668Y1071987D1*
X1472213Y1077476D1*
X1478069Y1084333D1*
X1484926Y1090189D1*
X1492614Y1094900D1*
X1500944Y1098351D1*
X1509712Y1100455D1*
X1518701Y1101163D1*
X1527690Y1100455D1*
X1536458Y1098351D1*
X1544788Y1094900D1*
X1552476Y1090189D1*
X1559333Y1084333D1*
X1565189Y1077476D1*
X1568668Y1071987D1*
X1572213Y1077476D1*
X1578069Y1084333D1*
X1584926Y1090189D1*
X1592614Y1094900D1*
X1600944Y1098351D1*
X1609712Y1100455D1*
X1618701Y1101163D1*
X1627690Y1100455D1*
X1636458Y1098351D1*
X1644788Y1094900D1*
X1652476Y1090189D1*
X1659333Y1084333D1*
X1665189Y1077476D1*
X1668668Y1071987D1*
X1672213Y1077476D1*
X1678069Y1084333D1*
X1684926Y1090189D1*
X1692614Y1094900D1*
X1700944Y1098351D1*
X1709712Y1100455D1*
X1718701Y1101163D1*
X1727690Y1100455D1*
X1736458Y1098351D1*
X1744788Y1094900D1*
X1752476Y1090189D1*
X1759333Y1084333D1*
X1765189Y1077476D1*
X1768668Y1071987D1*
X1772213Y1077476D1*
X1778069Y1084333D1*
X1784926Y1090189D1*
X1792614Y1094900D1*
X1800944Y1098351D1*
X1809712Y1100455D1*
X1818701Y1101163D1*
X1827690Y1100455D1*
X1836458Y1098351D1*
X1844788Y1094900D1*
X1852476Y1090189D1*
X1859333Y1084333D1*
X1865189Y1077476D1*
X1868668Y1071987D1*
X1872213Y1077476D1*
X1876981Y1083155D1*
X1888213Y1168313D1*
X1890277Y1175310D1*
X1893410Y1181899D1*
X1897535Y1187916D1*
X1902550Y1193214D1*
X1908333Y1197662D1*
X1914740Y1201151D1*
X1921614Y1203595D1*
X1928786Y1204933D1*
X1946201Y1205193D1*
X2181406D1*
X2264485Y1262714D1*
X2267502Y1269788D1*
X2272213Y1277476D1*
X2278069Y1284333D1*
X2284926Y1290189D1*
X2292614Y1294900D1*
X2300944Y1298351D1*
X2309712Y1300455D1*
X2318701Y1301163D1*
X2327690Y1300455D1*
X2336458Y1298351D1*
X2344788Y1294900D1*
X2352476Y1290189D1*
X2359333Y1284333D1*
X2365189Y1277476D1*
X2369900Y1269788D1*
X2371236Y1266891D1*
X2407945Y1230207D1*
X2749492Y1230193D1*
X2847727Y1328477D1*
X2847704Y1394108D1*
X2840691Y1390613D1*
X2832115Y1387827D1*
X2823209Y1386416D1*
X2814193D1*
X2805287Y1387827D1*
X2799572Y1389558D1*
X2795262Y1384140D1*
X2777504Y1366515D1*
X2773282Y1363506D1*
X2773351Y1361458D1*
X2775455Y1352690D1*
X2776163Y1343701D1*
X2775455Y1334712D1*
X2773351Y1325944D1*
X2769900Y1317614D1*
X2765189Y1309926D1*
X2759333Y1303069D1*
X2752476Y1297213D1*
X2744788Y1292502D1*
X2736458Y1289051D1*
X2727690Y1286947D1*
X2718701Y1286239D1*
X2709712Y1286947D1*
X2700944Y1289051D1*
X2692614Y1292502D1*
X2684926Y1297213D1*
X2678069Y1303069D1*
X2672213Y1309926D1*
X2668734Y1315415D1*
X2665189Y1309926D1*
X2659333Y1303069D1*
X2652476Y1297213D1*
X2644788Y1292502D1*
X2636458Y1289051D1*
X2627690Y1286947D1*
X2618701Y1286239D1*
X2609712Y1286947D1*
X2600944Y1289051D1*
X2592614Y1292502D1*
X2584926Y1297213D1*
X2578069Y1303069D1*
X2572213Y1309926D1*
X2568734Y1315415D1*
X2565189Y1309926D1*
X2559333Y1303069D1*
X2552476Y1297213D1*
X2544788Y1292502D1*
X2536458Y1289051D1*
X2527690Y1286947D1*
X2518701Y1286239D1*
X2509712Y1286947D1*
X2500944Y1289051D1*
X2492614Y1292502D1*
X2484926Y1297213D1*
X2478069Y1303069D1*
X2472213Y1309926D1*
X2470010Y1313223D1*
X2467416Y1313209D1*
X2462395Y1306382D1*
X2456020Y1300007D1*
X2448725Y1294707D1*
X2440691Y1290613D1*
X2432115Y1287827D1*
X2423209Y1286416D1*
X2414193D1*
X2405287Y1287827D1*
X2396711Y1290613D1*
X2388677Y1294707D1*
X2381382Y1300007D1*
X2375007Y1306382D1*
X2369707Y1313677D1*
X2365613Y1321711D1*
X2362827Y1330287D1*
X2361416Y1339193D1*
Y1348209D1*
X2362827Y1357115D1*
X2365613Y1365691D1*
X2369707Y1373725D1*
X2375007Y1381020D1*
X2381382Y1387395D1*
X2388677Y1392695D1*
X2390415Y1393668D1*
X2384926Y1397213D1*
X2378069Y1403069D1*
X2372213Y1409926D1*
X2368734Y1415415D1*
X2365189Y1409926D1*
X2359333Y1403069D1*
X2352476Y1397213D1*
X2344788Y1392502D1*
X2336458Y1389051D1*
X2327690Y1386947D1*
X2318701Y1386239D1*
X2309712Y1386947D1*
X2300944Y1389051D1*
X2292614Y1392502D1*
X2284926Y1397213D1*
X2278069Y1403069D1*
X2272213Y1409926D1*
X2268734Y1415415D1*
X2265189Y1409926D1*
X2259333Y1403069D1*
X2252476Y1397213D1*
X2246987Y1393734D1*
X2252476Y1390189D1*
X2259333Y1384333D1*
X2265189Y1377476D1*
X2269900Y1369788D1*
X2273351Y1361458D1*
X2275455Y1352690D1*
X2276163Y1343701D1*
X2275455Y1334712D1*
X2273351Y1325944D1*
X2269900Y1317614D1*
X2265189Y1309926D1*
X2259333Y1303069D1*
X2252476Y1297213D1*
X2244788Y1292502D1*
X2236458Y1289051D1*
X2227690Y1286947D1*
X2218701Y1286239D1*
X2209712Y1286947D1*
X2200944Y1289051D1*
X2192614Y1292502D1*
X2184926Y1297213D1*
X2178069Y1303069D1*
X2172213Y1309926D1*
X2168734Y1315415D1*
X2165189Y1309926D1*
X2159333Y1303069D1*
X2152476Y1297213D1*
X2144788Y1292502D1*
X2136458Y1289051D1*
X2127690Y1286947D1*
X2118701Y1286239D1*
X2109712Y1286947D1*
X2100944Y1289051D1*
X2092614Y1292502D1*
X2084926Y1297213D1*
X2078069Y1303069D1*
X2072213Y1309926D1*
X2068734Y1315415D1*
X2065189Y1309926D1*
X2059333Y1303069D1*
X2052476Y1297213D1*
X2044788Y1292502D1*
X2036458Y1289051D1*
X2027690Y1286947D1*
X2018701Y1286239D1*
X2009712Y1286947D1*
X2000944Y1289051D1*
X1992614Y1292502D1*
X1984926Y1297213D1*
X1978069Y1303069D1*
X1972213Y1309926D1*
X1967502Y1317614D1*
X1964051Y1325944D1*
X1961947Y1334712D1*
X1961239Y1343701D1*
X1961947Y1352690D1*
X1964051Y1361458D1*
X1967502Y1369788D1*
X1972213Y1377476D1*
X1978069Y1384333D1*
X1984926Y1390189D1*
X1990415Y1393668D1*
X1984926Y1397213D1*
X1978069Y1403069D1*
X1972213Y1409926D1*
X1967502Y1417614D1*
X1964051Y1425944D1*
X1961947Y1434712D1*
X1961239Y1443701D1*
X1961947Y1452690D1*
X1964051Y1461458D1*
X1967502Y1469788D1*
X1972213Y1477476D1*
X1978069Y1484333D1*
X1984926Y1490189D1*
X1992614Y1494900D1*
X2000944Y1498351D1*
X2009712Y1500455D1*
X2018701Y1501163D1*
X2027690Y1500455D1*
X2036458Y1498351D1*
X2044788Y1494900D1*
X2052476Y1490189D1*
X2059333Y1484333D1*
X2065189Y1477476D1*
X2068668Y1471987D1*
X2072213Y1477476D1*
X2078069Y1484333D1*
X2084926Y1490189D1*
X2092614Y1494900D1*
X2100944Y1498351D1*
X2109712Y1500455D1*
X2118701Y1501163D1*
X2127690Y1500455D1*
X2136458Y1498351D1*
X2144788Y1494900D1*
X2152476Y1490189D1*
X2159333Y1484333D1*
X2165189Y1477476D1*
X2168668Y1471987D1*
X2172213Y1477476D1*
X2178069Y1484333D1*
X2184926Y1490189D1*
X2192614Y1494900D1*
X2200944Y1498351D1*
X2209712Y1500455D1*
X2218701Y1501163D1*
X2227690Y1500455D1*
X2236458Y1498351D1*
X2244788Y1494900D1*
X2252476Y1490189D1*
X2259333Y1484333D1*
X2265189Y1477476D1*
X2268668Y1471987D1*
X2272213Y1477476D1*
X2278069Y1484333D1*
X2284926Y1490189D1*
X2290415Y1493668D1*
X2284926Y1497213D1*
X2278069Y1503069D1*
X2272213Y1509926D1*
X2267502Y1517614D1*
X2265058Y1523216D1*
X2165044Y1523303D1*
X2158013Y1524701D1*
X2151504Y1527702D1*
X2145875Y1532140D1*
X2141437Y1537769D1*
X2138436Y1544278D1*
X2137038Y1551309D1*
X2136944Y1589199D1*
X2127690Y1586947D1*
X2118701Y1586239D1*
X2109712Y1586947D1*
X2100944Y1589051D1*
X2092614Y1592502D1*
X2084926Y1597213D1*
X2078069Y1603069D1*
X2072213Y1609926D1*
X2068734Y1615415D1*
X2065189Y1609926D1*
X2059333Y1603069D1*
X2052476Y1597213D1*
X2044788Y1592502D1*
X2036458Y1589051D1*
X2027690Y1586947D1*
X2018701Y1586239D1*
X2009712Y1586947D1*
X2000944Y1589051D1*
X1992614Y1592502D1*
X1984926Y1597213D1*
X1978069Y1603069D1*
X1972213Y1609926D1*
X1967502Y1617614D1*
X1964051Y1625944D1*
X1961947Y1634712D1*
X1961239Y1643701D1*
X1961947Y1652690D1*
X1964051Y1661458D1*
X1967502Y1669788D1*
X1972213Y1677476D1*
X1978069Y1684333D1*
X1984926Y1690189D1*
X1992614Y1694900D1*
X2000944Y1698351D1*
X2009712Y1700455D1*
X2018701Y1701163D1*
X2027690Y1700455D1*
X2036458Y1698351D1*
X2044788Y1694900D1*
X2052476Y1690189D1*
X2059333Y1684333D1*
X2065189Y1677476D1*
X2068668Y1671987D1*
X2072213Y1677476D1*
X2078069Y1684333D1*
X2084926Y1690189D1*
X2092614Y1694900D1*
X2100944Y1698351D1*
X2109712Y1700455D1*
X2118701Y1701163D1*
X2127690Y1700455D1*
X2136970Y1698161D1*
X2136944Y1765762D1*
X2127464Y1763371D1*
X2118701Y1762681D1*
X2109938Y1763371D1*
X2101390Y1765423D1*
X2093269Y1768787D1*
X2085773Y1773380D1*
X2079089Y1779089D1*
X2073380Y1785773D1*
X2068787Y1793269D1*
X2065423Y1801390D1*
X2063371Y1809938D1*
X2062681Y1818701D1*
X2063371Y1827464D1*
X2065423Y1836012D1*
X2068787Y1844133D1*
X2073380Y1851629D1*
X2079089Y1858313D1*
X2085773Y1864022D1*
X2093269Y1868615D1*
X2101390Y1871979D1*
X2109938Y1874031D1*
X2118701Y1874721D1*
X2127464Y1874031D1*
X2136963Y1871628D1*
X2136944Y1936758D1*
X2097276Y1997662D1*
X2089334Y1999484D1*
X2082594Y2002276D1*
X2076374Y2006088D1*
X2070826Y2010826D1*
X2066088Y2016374D1*
X2062276Y2022594D1*
X2059484Y2029334D1*
X2057781Y2036428D1*
X2057209Y2043701D1*
X2057781Y2050974D1*
X2059484Y2058068D1*
X2062276Y2064808D1*
X2066088Y2071028D1*
X2070826Y2076576D1*
X2076374Y2081314D1*
X2082594Y2085126D1*
X2089334Y2087918D1*
X2096428Y2089621D1*
X2103701Y2090193D1*
X2110974Y2089621D1*
X2118068Y2087918D1*
X2124808Y2085126D1*
X2131028Y2081314D1*
X2136576Y2076576D1*
X2141314Y2071028D1*
X2145126Y2064808D1*
X2147918Y2058068D1*
X2149621Y2050974D1*
X2150193Y2043701D1*
X2149621Y2036428D1*
X2148371Y2030940D1*
X2182222Y1978922D1*
X2182352Y2072349D1*
X2183493Y2079554D1*
X2185748Y2086493D1*
X2189060Y2092993D1*
X2193348Y2098895D1*
X2198507Y2104054D1*
X2204409Y2108342D1*
X2210909Y2111654D1*
X2217848Y2113909D1*
X2225053Y2115050D1*
X2252676Y2115193D1*
X2252681Y2124721D1*
X2364721D1*
Y2115199D1*
X2377402Y2115193D1*
X2383269Y2118615D1*
X2391390Y2121979D1*
X2399938Y2124031D1*
X2408701Y2124721D1*
X2417464Y2124031D1*
X2426012Y2121979D1*
X2434133Y2118615D1*
X2439900Y2115177D1*
X2477402Y2115193D1*
X2483269Y2118615D1*
X2491390Y2121979D1*
X2499938Y2124031D1*
X2508701Y2124721D1*
X2517464Y2124031D1*
X2526012Y2121979D1*
X2534133Y2118615D1*
X2539900Y2115177D1*
X2577402Y2115193D1*
X2583269Y2118615D1*
X2591390Y2121979D1*
X2599938Y2124031D1*
X2608701Y2124721D1*
X2617464Y2124031D1*
X2626012Y2121979D1*
X2634133Y2118615D1*
X2641629Y2114022D1*
X2648313Y2108313D1*
X2654022Y2101629D1*
X2658694Y2093962D1*
X2663380Y2101629D1*
X2669089Y2108313D1*
X2675773Y2114022D1*
X2683269Y2118615D1*
X2691390Y2121979D1*
X2699938Y2124031D1*
X2708701Y2124721D1*
X2717464Y2124031D1*
X2726012Y2121979D1*
X2734133Y2118615D1*
X2739900Y2115177D1*
X2777402Y2115193D1*
X2783269Y2118615D1*
X2791390Y2121979D1*
X2799938Y2124031D1*
X2808701Y2124721D1*
X2817464Y2124031D1*
X2826012Y2121979D1*
X2834133Y2118615D1*
X2841629Y2114022D1*
X2848313Y2108313D1*
X2854022Y2101629D1*
X2858694Y2093962D1*
X2863380Y2101629D1*
X2869089Y2108313D1*
X2875773Y2114022D1*
X2883269Y2118615D1*
X2891390Y2121979D1*
X2899938Y2124031D1*
X2908701Y2124721D1*
X2917464Y2124031D1*
X2926012Y2121979D1*
X2934133Y2118615D1*
X2941629Y2114022D1*
X2948313Y2108313D1*
X2954022Y2101629D1*
X2958615Y2094133D1*
X2961979Y2086012D1*
X2964031Y2077464D1*
X2964721Y2068701D1*
X2964031Y2059938D1*
X2961979Y2051390D1*
X2958615Y2043269D1*
X2954022Y2035773D1*
X2948313Y2029089D1*
X2943315Y2024710D1*
X2964721Y2024720D1*
Y1965492D1*
X3051109Y2051837D1*
X3052603Y2055103D1*
Y2069799D1*
X3154799D1*
Y1967603D1*
X3098305D1*
X3010199Y1879449D1*
X3010193Y1774726D1*
X3099721Y1774721D1*
Y1753383D1*
X3104089Y1758313D1*
X3110773Y1764022D1*
X3118269Y1768615D1*
X3126390Y1771979D1*
X3134938Y1774031D1*
X3143701Y1774721D1*
X3152464Y1774031D1*
X3161012Y1771979D1*
X3169133Y1768615D1*
X3176629Y1764022D1*
X3183313Y1758313D1*
X3189022Y1751629D1*
X3193615Y1744133D1*
X3196979Y1736012D1*
X3199031Y1727464D1*
X3199721Y1718701D1*
X3199031Y1709938D1*
X3196979Y1701390D1*
X3193615Y1693269D1*
X3189022Y1685773D1*
X3183313Y1679089D1*
X3178909Y1675178D1*
X3527349Y1675050D1*
X3534554Y1673909D1*
X3541493Y1671654D1*
X3547993Y1668342D1*
X3553895Y1664054D1*
X3591931Y1626221D1*
X3734054Y1483895D1*
X3738342Y1477993D1*
X3741654Y1471493D1*
X3743909Y1464554D1*
X3745050Y1457349D1*
X3745193Y1429531D1*
X3746218Y1424607D1*
X3746201Y2081687D1*
X3740814Y2069220D1*
X3736632Y2061753D1*
X3731877Y2054637D1*
X3726579Y2047916D1*
X3720770Y2041632D1*
X3714486Y2035823D1*
X3707765Y2030525D1*
X3700649Y2025770D1*
X3693182Y2021588D1*
X3685410Y2018005D1*
X3677381Y2015043D1*
X3669145Y2012720D1*
X3660751Y2011051D1*
X3652252Y2010045D1*
X3643701Y2009709D1*
X3635150Y2010045D1*
X3626651Y2011051D1*
X3618257Y2012720D1*
X3610021Y2015043D1*
X3601992Y2018005D1*
X3594220Y2021588D1*
X3586753Y2025770D1*
X3579637Y2030525D1*
X3572916Y2035823D1*
X3566632Y2041632D1*
X3560823Y2047916D1*
X3555525Y2054637D1*
X3550770Y2061753D1*
X3546588Y2069220D1*
X3543005Y2076992D1*
X3540043Y2085021D1*
X3537720Y2093257D1*
X3536051Y2101651D1*
X3535045Y2110150D1*
X3534709Y2118701D1*
X3535045Y2127252D1*
X3536051Y2135751D1*
X3537720Y2144145D1*
X3540043Y2152381D1*
X3543005Y2160410D1*
X3546588Y2168182D1*
X3550770Y2175649D1*
X3555525Y2182765D1*
X3560823Y2189486D1*
X3566632Y2195770D1*
X3572916Y2201579D1*
X3579637Y2206877D1*
X3586753Y2211632D1*
X3594220Y2215814D1*
X3601992Y2219397D1*
X3610021Y2222359D1*
X3618257Y2224682D1*
X3626651Y2226351D1*
X3635150Y2227357D1*
X3643701Y2227693D1*
X3652252Y2227357D1*
X3660751Y2226351D1*
X3669145Y2224682D1*
X3677381Y2222359D1*
X3685410Y2219397D1*
X3693182Y2215814D1*
X3700649Y2211632D1*
X3707765Y2206877D1*
X3714486Y2201579D1*
X3720770Y2195770D1*
X3726579Y2189486D1*
X3731877Y2182765D1*
X3736632Y2175649D1*
X3740814Y2168182D1*
X3746213Y2155486D1*
X3746201Y2190696D1*
X3744010Y2207231D1*
X3738797Y2219783D1*
X3730510Y2230566D1*
X3719716Y2238835D1*
X3707147Y2244030D1*
X3690478Y2246214D1*
X3053664Y2246200D1*
X3055050Y2237895D1*
X3055193Y2223701D1*
X3054621Y2216428D1*
X3052918Y2209334D1*
X3050126Y2202594D1*
X3046314Y2196374D1*
X3041576Y2190826D1*
X3036028Y2186088D1*
X3029808Y2182276D1*
X3023068Y2179484D1*
X3015974Y2177781D1*
X3008701Y2177209D1*
X3001428Y2177781D1*
X2994334Y2179484D1*
X2987594Y2182276D1*
X2981071Y2186326D1*
X2971201Y2187755D1*
X743515D1*
X720213Y2164463D1*
X720193Y2124765D1*
X799721Y2124721D1*
Y2115199D1*
X812402Y2115193D1*
X818269Y2118615D1*
X826390Y2121979D1*
X834938Y2124031D1*
X843701Y2124721D1*
X852464Y2124031D1*
X861012Y2121979D1*
X869133Y2118615D1*
X876629Y2114022D1*
X883313Y2108313D1*
X889022Y2101629D1*
X893694Y2093962D1*
X898380Y2101629D1*
X904089Y2108313D1*
X910773Y2114022D1*
X918269Y2118615D1*
X926390Y2121979D1*
X934938Y2124031D1*
X943701Y2124721D1*
X952464Y2124031D1*
X961012Y2121979D1*
X969133Y2118615D1*
X974900Y2115177D1*
X1012402Y2115193D1*
X1018269Y2118615D1*
X1026390Y2121979D1*
X1034938Y2124031D1*
X1043701Y2124721D1*
X1052464Y2124031D1*
X1061012Y2121979D1*
X1069133Y2118615D1*
X1074900Y2115177D1*
X1112402Y2115193D1*
X1118269Y2118615D1*
X1126390Y2121979D1*
X1134938Y2124031D1*
X1143701Y2124721D1*
X1152464Y2124031D1*
X1161012Y2121979D1*
X1169133Y2118615D1*
X1176629Y2114022D1*
X1183313Y2108313D1*
X1189022Y2101629D1*
X1193694Y2093962D1*
X1198380Y2101629D1*
X1204089Y2108313D1*
X1210773Y2114022D1*
X1218269Y2118615D1*
X1226390Y2121979D1*
X1234938Y2124031D1*
X1243701Y2124721D1*
X1252464Y2124031D1*
X1261012Y2121979D1*
X1269133Y2118615D1*
X1274900Y2115177D1*
X1312402Y2115193D1*
X1318269Y2118615D1*
X1326390Y2121979D1*
X1334938Y2124031D1*
X1343701Y2124721D1*
X1352464Y2124031D1*
X1361012Y2121979D1*
X1369133Y2118615D1*
X1374900Y2115177D1*
X1487695Y2115193D1*
X1487681Y2124721D1*
X1599721D1*
Y2115199D1*
X1612402Y2115193D1*
X1618269Y2118615D1*
X1626390Y2121979D1*
X1634938Y2124031D1*
X1643701Y2124721D1*
X1652464Y2124031D1*
X1661012Y2121979D1*
X1669133Y2118615D1*
X1674900Y2115177D1*
X1712402Y2115193D1*
X1718269Y2118615D1*
X1726390Y2121979D1*
X1734938Y2124031D1*
X1743701Y2124721D1*
X1752464Y2124031D1*
X1761012Y2121979D1*
X1769133Y2118615D1*
X1774900Y2115177D1*
X1812402Y2115193D1*
X1818269Y2118615D1*
X1826390Y2121979D1*
X1834938Y2124031D1*
X1843701Y2124721D1*
X1852464Y2124031D1*
X1861012Y2121979D1*
X1869133Y2118615D1*
X1876629Y2114022D1*
X1883313Y2108313D1*
X1889022Y2101629D1*
X1893615Y2094133D1*
X1896979Y2086012D1*
X1899031Y2077464D1*
X1899721Y2068701D1*
X1899031Y2059938D1*
X1896979Y2051390D1*
X1893615Y2043269D1*
X1889022Y2035773D1*
X1883313Y2029089D1*
X1876629Y2023380D1*
X1868962Y2018708D1*
X1876629Y2014022D1*
X1883313Y2008313D1*
X1889022Y2001629D1*
X1893615Y1994133D1*
X1896979Y1986012D1*
X1899031Y1977464D1*
X1899721Y1968701D1*
X1899031Y1959938D1*
X1896979Y1951390D1*
X1893615Y1943269D1*
X1889022Y1935773D1*
X1883313Y1929089D1*
X1876629Y1923380D1*
X1869133Y1918787D1*
X1861012Y1915423D1*
X1852464Y1913371D1*
X1843701Y1912681D1*
X1834938Y1913371D1*
X1826390Y1915423D1*
X1818269Y1918787D1*
X1810773Y1923380D1*
X1804089Y1929089D1*
X1798380Y1935773D1*
X1793708Y1943440D1*
X1789022Y1935773D1*
X1783313Y1929089D1*
X1776629Y1923380D1*
X1769133Y1918787D1*
X1761012Y1915423D1*
X1752464Y1913371D1*
X1743701Y1912681D1*
X1734938Y1913371D1*
X1726390Y1915423D1*
X1718269Y1918787D1*
X1710773Y1923380D1*
X1704089Y1929089D1*
X1698380Y1935773D1*
X1693708Y1943440D1*
X1689022Y1935773D1*
X1683313Y1929089D1*
X1676629Y1923380D1*
X1669133Y1918787D1*
X1661012Y1915423D1*
X1652464Y1913371D1*
X1643701Y1912681D1*
X1634938Y1913371D1*
X1626390Y1915423D1*
X1618269Y1918787D1*
X1610773Y1923380D1*
X1604089Y1929089D1*
X1599731Y1934060D1*
X1599721Y1912681D1*
X1487682D1*
X1487681Y2022203D1*
X1375000Y2022209D1*
X1369133Y2018615D1*
X1376629Y2014022D1*
X1383313Y2008313D1*
X1389022Y2001629D1*
X1393615Y1994133D1*
X1396979Y1986012D1*
X1399031Y1977464D1*
X1399721Y1968701D1*
X1399031Y1959938D1*
X1396979Y1951390D1*
X1393615Y1943269D1*
X1389022Y1935773D1*
X1383313Y1929089D1*
X1376629Y1923380D1*
X1369133Y1918787D1*
X1361012Y1915423D1*
X1352464Y1913371D1*
X1343701Y1912681D1*
X1334938Y1913371D1*
X1326390Y1915423D1*
X1318269Y1918787D1*
X1310773Y1923380D1*
X1304089Y1929089D1*
X1298380Y1935773D1*
X1293708Y1943440D1*
X1289022Y1935773D1*
X1283313Y1929089D1*
X1276629Y1923380D1*
X1269133Y1918787D1*
X1261012Y1915423D1*
X1252464Y1913371D1*
X1243701Y1912681D1*
X1234938Y1913371D1*
X1226390Y1915423D1*
X1218269Y1918787D1*
X1210773Y1923380D1*
X1204089Y1929089D1*
X1198380Y1935773D1*
X1193708Y1943440D1*
X1189022Y1935773D1*
X1183313Y1929089D1*
X1176629Y1923380D1*
X1169133Y1918787D1*
X1161012Y1915423D1*
X1152464Y1913371D1*
X1143701Y1912681D1*
X1134938Y1913371D1*
X1126390Y1915423D1*
X1118269Y1918787D1*
X1110773Y1923380D1*
X1104089Y1929089D1*
X1098380Y1935773D1*
X1093708Y1943440D1*
X1089022Y1935773D1*
X1083313Y1929089D1*
X1076629Y1923380D1*
X1069133Y1918787D1*
X1061012Y1915423D1*
X1052464Y1913371D1*
X1043701Y1912681D1*
X1034938Y1913371D1*
X1026390Y1915423D1*
X1018269Y1918787D1*
X1010773Y1923380D1*
X1004089Y1929089D1*
X998380Y1935773D1*
X993708Y1943440D1*
X989022Y1935773D1*
X983313Y1929089D1*
X976629Y1923380D1*
X969133Y1918787D1*
X961012Y1915423D1*
X952464Y1913371D1*
X943701Y1912681D1*
X934938Y1913371D1*
X926390Y1915423D1*
X918269Y1918787D1*
X910773Y1923380D1*
X904089Y1929089D1*
X898380Y1935773D1*
X893708Y1943440D1*
X889022Y1935773D1*
X883313Y1929089D1*
X876629Y1923380D1*
X869133Y1918787D1*
X861012Y1915423D1*
X852464Y1913371D1*
X843701Y1912681D1*
X834938Y1913371D1*
X826390Y1915423D1*
X818269Y1918787D1*
X810773Y1923380D1*
X804089Y1929089D1*
X799731Y1934060D1*
X799721Y1912681D1*
X687682D1*
Y1921910D1*
X668700Y1902950D1*
X666979Y1896390D1*
X663615Y1888269D1*
X659022Y1880773D1*
X653313Y1874089D1*
X646629Y1868380D1*
X638962Y1863708D1*
X646629Y1859022D1*
X653313Y1853313D1*
X659022Y1846629D1*
X663615Y1839133D1*
X666979Y1831012D1*
X669031Y1822464D1*
X669721Y1813701D1*
X669031Y1804938D1*
X666979Y1796390D1*
X663615Y1788269D1*
X659022Y1780773D1*
X653313Y1774089D1*
X646629Y1768380D1*
X639133Y1763787D1*
X631012Y1760423D1*
X622464Y1758371D1*
X613701Y1757681D1*
X604938Y1758371D1*
X596390Y1760423D1*
X588269Y1763787D1*
X580773Y1768380D1*
X574089Y1774089D1*
X569731Y1779060D1*
X569721Y1757681D1*
X490180D1*
X490193Y1693567D1*
X496711Y1696789D1*
X505287Y1699575D1*
X514193Y1700986D1*
X523209D1*
X532115Y1699575D1*
X540691Y1696789D1*
X548725Y1692695D1*
X556020Y1687395D1*
X562395Y1681020D1*
X567695Y1673725D1*
X568668Y1671987D1*
X572213Y1677476D1*
X578069Y1684333D1*
X584926Y1690189D1*
X592614Y1694900D1*
X600944Y1698351D1*
X609712Y1700455D1*
X618701Y1701163D1*
X627690Y1700455D1*
X636458Y1698351D1*
X644788Y1694900D1*
X652476Y1690189D1*
X659333Y1684333D1*
X665189Y1677476D1*
X668668Y1671987D1*
X672213Y1677476D1*
X678069Y1684333D1*
X684926Y1690189D1*
X692614Y1694900D1*
X700944Y1698351D1*
X709712Y1700455D1*
X718701Y1701163D1*
X727690Y1700455D1*
X736458Y1698351D1*
X744788Y1694900D1*
X752476Y1690189D1*
X759333Y1684333D1*
X765189Y1677476D1*
X768668Y1671987D1*
X772213Y1677476D1*
X778069Y1684333D1*
X784926Y1690189D1*
X792614Y1694900D1*
X800944Y1698351D1*
X809712Y1700455D1*
X818701Y1701163D1*
X827690Y1700455D1*
X836458Y1698351D1*
X844788Y1694900D1*
X852476Y1690189D1*
X859333Y1684333D1*
X865189Y1677476D1*
X868668Y1671987D1*
X872213Y1677476D1*
X878069Y1684333D1*
X884926Y1690189D1*
X892614Y1694900D1*
X900944Y1698351D1*
X909712Y1700455D1*
X918701Y1701163D1*
X927690Y1700455D1*
X936458Y1698351D1*
X944788Y1694900D1*
X952476Y1690189D1*
X959333Y1684333D1*
X965189Y1677476D1*
X968668Y1671987D1*
X972213Y1677476D1*
X978069Y1684333D1*
X984926Y1690189D1*
X992614Y1694900D1*
X1000944Y1698351D1*
X1009712Y1700455D1*
X1018701Y1701163D1*
X1027690Y1700455D1*
X1036458Y1698351D1*
X1044788Y1694900D1*
X1052476Y1690189D1*
X1059333Y1684333D1*
X1065189Y1677476D1*
X1068668Y1671987D1*
X1072213Y1677476D1*
X1078069Y1684333D1*
X1084926Y1690189D1*
X1092614Y1694900D1*
X1100944Y1698351D1*
X1109712Y1700455D1*
X1118701Y1701163D1*
X1127690Y1700455D1*
X1136458Y1698351D1*
X1144788Y1694900D1*
X1152476Y1690189D1*
X1159333Y1684333D1*
X1165189Y1677476D1*
X1168668Y1671987D1*
X1172213Y1677476D1*
X1178069Y1684333D1*
X1184926Y1690189D1*
X1192614Y1694900D1*
X1200944Y1698351D1*
X1209712Y1700455D1*
X1218701Y1701163D1*
X1227690Y1700455D1*
X1236458Y1698351D1*
X1244788Y1694900D1*
X1252476Y1690189D1*
X1259333Y1684333D1*
X1265189Y1677476D1*
X1268668Y1671987D1*
X1272213Y1677476D1*
X1278069Y1684333D1*
X1284926Y1690189D1*
X1292614Y1694900D1*
X1300944Y1698351D1*
X1309712Y1700455D1*
X1318701Y1701163D1*
X1327690Y1700455D1*
X1336458Y1698351D1*
X1344788Y1694900D1*
X1352476Y1690189D1*
X1359333Y1684333D1*
X1365189Y1677476D1*
X1368668Y1671987D1*
X1372213Y1677476D1*
X1378069Y1684333D1*
X1384926Y1690189D1*
X1392614Y1694900D1*
X1400944Y1698351D1*
X1409712Y1700455D1*
X1418701Y1701163D1*
X1427690Y1700455D1*
X1436458Y1698351D1*
X1444788Y1694900D1*
X1452476Y1690189D1*
X1459333Y1684333D1*
X1465189Y1677476D1*
X1468668Y1671987D1*
X1472213Y1677476D1*
X1478069Y1684333D1*
X1484926Y1690189D1*
X1492614Y1694900D1*
X1500944Y1698351D1*
X1509712Y1700455D1*
X1518701Y1701163D1*
X1527690Y1700455D1*
X1536458Y1698351D1*
X1544788Y1694900D1*
X1552476Y1690189D1*
X1559333Y1684333D1*
X1565189Y1677476D1*
X1568668Y1671987D1*
X1572213Y1677476D1*
X1578069Y1684333D1*
X1584926Y1690189D1*
X1592614Y1694900D1*
X1600944Y1698351D1*
X1609712Y1700455D1*
X1618701Y1701163D1*
X1627690Y1700455D1*
X1636458Y1698351D1*
X1644788Y1694900D1*
X1652476Y1690189D1*
X1659333Y1684333D1*
X1665189Y1677476D1*
X1668668Y1671987D1*
X1672213Y1677476D1*
X1678069Y1684333D1*
X1684926Y1690189D1*
X1692614Y1694900D1*
X1700944Y1698351D1*
X1709712Y1700455D1*
X1718701Y1701163D1*
X1727690Y1700455D1*
X1736458Y1698351D1*
X1744788Y1694900D1*
X1752476Y1690189D1*
X1759333Y1684333D1*
X1765189Y1677476D1*
X1768668Y1671987D1*
X1772213Y1677476D1*
X1778069Y1684333D1*
X1784926Y1690189D1*
X1792614Y1694900D1*
X1800944Y1698351D1*
X1809712Y1700455D1*
X1818701Y1701163D1*
X1827690Y1700455D1*
X1836458Y1698351D1*
X1844788Y1694900D1*
X1852476Y1690189D1*
X1859333Y1684333D1*
X1865189Y1677476D1*
X1869900Y1669788D1*
X1873351Y1661458D1*
X1875455Y1652690D1*
X1876163Y1643701D1*
X1875455Y1634712D1*
X1873351Y1625944D1*
X1869900Y1617614D1*
X1865189Y1609926D1*
X1859333Y1603069D1*
X1852476Y1597213D1*
X1844788Y1592502D1*
X1836458Y1589051D1*
X1827690Y1586947D1*
X1818701Y1586239D1*
X1809712Y1586947D1*
X1800944Y1589051D1*
X1792614Y1592502D1*
X1784926Y1597213D1*
X1778069Y1603069D1*
X1772213Y1609926D1*
X1768734Y1615415D1*
X1765189Y1609926D1*
X1759333Y1603069D1*
X1752476Y1597213D1*
X1744788Y1592502D1*
X1736458Y1589051D1*
X1727690Y1586947D1*
X1718701Y1586239D1*
X1709712Y1586947D1*
X1700944Y1589051D1*
X1692614Y1592502D1*
X1684926Y1597213D1*
X1678069Y1603069D1*
X1672213Y1609926D1*
X1668734Y1615415D1*
X1665189Y1609926D1*
X1659333Y1603069D1*
X1652476Y1597213D1*
X1644788Y1592502D1*
X1636458Y1589051D1*
X1627690Y1586947D1*
X1618701Y1586239D1*
X1609712Y1586947D1*
X1600944Y1589051D1*
X1592614Y1592502D1*
X1584926Y1597213D1*
X1578069Y1603069D1*
X1572213Y1609926D1*
X1568734Y1615415D1*
X1565189Y1609926D1*
X1559333Y1603069D1*
X1552476Y1597213D1*
X1544788Y1592502D1*
X1536458Y1589051D1*
X1527690Y1586947D1*
X1518701Y1586239D1*
X1509712Y1586947D1*
X1500944Y1589051D1*
X1492614Y1592502D1*
X1484926Y1597213D1*
X1478069Y1603069D1*
X1472213Y1609926D1*
X1468734Y1615415D1*
X1465189Y1609926D1*
X1459333Y1603069D1*
X1452476Y1597213D1*
X1444788Y1592502D1*
X1436458Y1589051D1*
X1427690Y1586947D1*
X1418701Y1586239D1*
X1409712Y1586947D1*
X1400944Y1589051D1*
X1392614Y1592502D1*
X1384926Y1597213D1*
X1378069Y1603069D1*
X1372213Y1609926D1*
X1368734Y1615415D1*
X1365189Y1609926D1*
X1359333Y1603069D1*
X1352476Y1597213D1*
X1344788Y1592502D1*
X1336458Y1589051D1*
X1327690Y1586947D1*
X1318701Y1586239D1*
X1309712Y1586947D1*
X1300944Y1589051D1*
X1292614Y1592502D1*
X1284926Y1597213D1*
X1278069Y1603069D1*
X1272213Y1609926D1*
X1268734Y1615415D1*
X1265189Y1609926D1*
X1259333Y1603069D1*
X1252476Y1597213D1*
X1244788Y1592502D1*
X1236458Y1589051D1*
X1227690Y1586947D1*
X1218701Y1586239D1*
X1209712Y1586947D1*
X1200944Y1589051D1*
X1192614Y1592502D1*
X1184926Y1597213D1*
X1178069Y1603069D1*
X1172213Y1609926D1*
X1168734Y1615415D1*
X1165189Y1609926D1*
X1159333Y1603069D1*
X1152476Y1597213D1*
X1144788Y1592502D1*
X1136458Y1589051D1*
X1127690Y1586947D1*
X1118701Y1586239D1*
X1109712Y1586947D1*
X1100944Y1589051D1*
X1092614Y1592502D1*
X1084926Y1597213D1*
X1078069Y1603069D1*
X1072213Y1609926D1*
X1068734Y1615415D1*
X1065189Y1609926D1*
X1059333Y1603069D1*
X1052476Y1597213D1*
X1046987Y1593734D1*
X1052476Y1590189D1*
X1059333Y1584333D1*
X1065189Y1577476D1*
X1069900Y1569788D1*
X1073351Y1561458D1*
X1075455Y1552690D1*
X1076163Y1543701D1*
X1075455Y1534712D1*
X1073351Y1525944D1*
X1069900Y1517614D1*
X1065189Y1509926D1*
X1059333Y1503069D1*
X1052476Y1497213D1*
X1044788Y1492502D1*
X1036458Y1489051D1*
X1027690Y1486947D1*
X1018701Y1486239D1*
X1009712Y1486947D1*
X1000944Y1489051D1*
X992614Y1492502D1*
X984926Y1497213D1*
X978069Y1503069D1*
X972213Y1509926D1*
X968734Y1515415D1*
X965189Y1509926D1*
X959333Y1503069D1*
X952476Y1497213D1*
X944788Y1492502D1*
X936458Y1489051D1*
X927690Y1486947D1*
X918701Y1486239D1*
X909712Y1486947D1*
X900944Y1489051D1*
X892614Y1492502D1*
X884926Y1497213D1*
X878069Y1503069D1*
X872213Y1509926D1*
X868734Y1515415D1*
X865189Y1509926D1*
X859333Y1503069D1*
X852476Y1497213D1*
X844788Y1492502D1*
X836458Y1489051D1*
X827690Y1486947D1*
X818701Y1486239D1*
X809712Y1486947D1*
X800944Y1489051D1*
X792614Y1492502D1*
X784926Y1497213D1*
X778069Y1503069D1*
X772213Y1509926D1*
X767502Y1517614D1*
X764051Y1525944D1*
X761947Y1534712D1*
X761239Y1543701D1*
X761947Y1552690D1*
X764051Y1561458D1*
X767502Y1569788D1*
X772213Y1577476D1*
X778069Y1584333D1*
X784926Y1590189D1*
X790415Y1593668D1*
X784926Y1597213D1*
X778069Y1603069D1*
X772213Y1609926D1*
X768734Y1615415D1*
X765189Y1609926D1*
X759333Y1603069D1*
X752476Y1597213D1*
X744788Y1592502D1*
X736458Y1589051D1*
X727690Y1586947D1*
X718701Y1586239D1*
X709712Y1586947D1*
X700944Y1589051D1*
X692614Y1592502D1*
X684926Y1597213D1*
X678069Y1603069D1*
X672213Y1609926D1*
X668734Y1615415D1*
X665189Y1609926D1*
X659333Y1603069D1*
X652476Y1597213D1*
X646987Y1593734D1*
X652476Y1590189D1*
X659333Y1584333D1*
X665189Y1577476D1*
X669900Y1569788D1*
X673351Y1561458D1*
X675455Y1552690D1*
X676163Y1543701D1*
X675455Y1534712D1*
X673351Y1525944D1*
X669900Y1517614D1*
X665189Y1509926D1*
X659333Y1503069D1*
X652476Y1497213D1*
X644788Y1492502D1*
X636458Y1489051D1*
X627690Y1486947D1*
X618701Y1486239D1*
X609712Y1486947D1*
X600944Y1489051D1*
X592614Y1492502D1*
X584912Y1497224D1*
X443316D1*
X441202Y1491406D1*
X441201Y580712D1*
X446588Y593182D1*
X450770Y600649D1*
X455525Y607765D1*
X460823Y614486D1*
X466632Y620770D1*
X472916Y626579D1*
X479637Y631877D1*
X486753Y636632D1*
X494220Y640814D1*
X501992Y644397D1*
X510021Y647359D1*
X518257Y649682D1*
X526651Y651351D1*
X535150Y652357D1*
X543701Y652693D1*
X552252Y652357D1*
X560751Y651351D1*
X569145Y649682D1*
X577381Y647359D1*
X585410Y644397D1*
X593182Y640814D1*
X600649Y636632D1*
X607765Y631877D1*
X614486Y626579D1*
X620770Y620770D1*
X626579Y614486D1*
X631877Y607765D1*
X636632Y600649D1*
X640814Y593182D1*
X644397Y585410D1*
X647359Y577381D1*
X649682Y569145D1*
X651351Y560751D1*
X652357Y552252D1*
X652693Y543701D1*
X652357Y535150D1*
X651351Y526651D1*
X649682Y518257D1*
X647359Y510021D1*
X644397Y501992D1*
X640814Y494220D1*
X636632Y486753D1*
X631877Y479637D1*
X626579Y472916D1*
X620770Y466632D1*
X614486Y460823D1*
X607765Y455525D1*
X600649Y450770D1*
X593182Y446588D1*
X580486Y441189D1*
X3606688Y441201D1*
X3594220Y446588D1*
X3586753Y450770D1*
X3579637Y455525D1*
X3572916Y460823D1*
X3566632Y466632D1*
X3560823Y472916D1*
X3555525Y479637D1*
X3550770Y486753D1*
X3546588Y494220D1*
X3543005Y501992D1*
X3540043Y510021D1*
X3537720Y518257D1*
X3536051Y526651D1*
X3535045Y535150D1*
X3534709Y543701D1*
X3535045Y552252D1*
X3536051Y560751D1*
X3537720Y569145D1*
X3540043Y577381D1*
X3543005Y585410D1*
X3546588Y593182D1*
X3550770Y600649D1*
X3555525Y607765D1*
X3560823Y614486D1*
X3566632Y620770D1*
X3572916Y626579D1*
X3579637Y631877D1*
X3586753Y636632D1*
X3594220Y640814D1*
X3601992Y644397D1*
X3610021Y647359D1*
X3618257Y649682D1*
X3626651Y651351D1*
X3635150Y652357D1*
X3643701Y652693D1*
X3652252Y652357D1*
X3660751Y651351D1*
X3669145Y649682D1*
X3677381Y647359D1*
X3685410Y644397D1*
X3693182Y640814D1*
X3700649Y636632D1*
X3707765Y631877D1*
X3714486Y626579D1*
X3720770Y620770D1*
X3726579Y614486D1*
X3731877Y607765D1*
X3736632Y600649D1*
X3740814Y593182D1*
X3746213Y580486D1*
X3746202Y1402488D1*
X3744086Y1394081D1*
X3740273Y1384876D1*
X3735067Y1376381D1*
X3728597Y1368805D1*
X3721021Y1362335D1*
X3712526Y1357129D1*
X3703321Y1353316D1*
X3693633Y1350991D1*
X3683701Y1350209D1*
X3673769Y1350991D1*
X3664081Y1353316D1*
X3654876Y1357129D1*
X3646381Y1362335D1*
X3638805Y1368805D1*
X3632335Y1376381D1*
X3627129Y1384876D1*
X3623316Y1394081D1*
X3620991Y1403769D1*
X3620209Y1413701D1*
X3620991Y1423633D1*
X3623316Y1433321D1*
X3627129Y1442526D1*
X3632335Y1451021D1*
X3633794Y1452871D1*
X3504414Y1582238D1*
X3256367Y1582209D1*
X3258909Y1574554D1*
X3260050Y1567349D1*
Y1560053D1*
X3258909Y1552848D1*
X3256654Y1545909D1*
X3253342Y1539409D1*
X3249054Y1533507D1*
X3243895Y1528348D1*
X3237993Y1524060D1*
X3231493Y1520748D1*
X3224554Y1518493D1*
X3217349Y1517352D1*
X3215368Y1517274D1*
X3168723Y1470601D1*
X3139820Y1412967D1*
X3137511Y1409653D1*
X3098620Y1361039D1*
X3064176Y1305042D1*
X3064193Y1228789D1*
X3069054Y1223895D1*
X3073342Y1217993D1*
X3076654Y1211493D1*
X3078909Y1204554D1*
X3080050Y1197349D1*
Y1190053D1*
X3078909Y1182848D1*
X3076654Y1175909D1*
X3073342Y1169409D1*
X3069054Y1163507D1*
X3063895Y1158348D1*
X3057993Y1154060D1*
X3051493Y1150748D1*
X3044554Y1148493D1*
X3037349Y1147352D1*
X3030053D1*
X3022848Y1148493D1*
X3015909Y1150748D1*
X3009409Y1154060D1*
X3003507Y1158348D1*
X2998348Y1163507D1*
X2994060Y1169409D1*
X2990748Y1175909D1*
X2988493Y1182848D1*
X2987352Y1190053D1*
Y1197349D1*
X2988493Y1204554D1*
X2990748Y1211493D1*
X2994060Y1217993D1*
X2998348Y1223895D1*
X3003224Y1228793D1*
X3003209Y1302246D1*
X2851714Y1150763D1*
X2856576Y1146576D1*
X2861314Y1141028D1*
X2865126Y1134808D1*
X2867918Y1128068D1*
X2869621Y1120974D1*
X2870193Y1113701D1*
X2869621Y1106428D1*
X2867918Y1099334D1*
X2865126Y1092594D1*
X2861314Y1086374D1*
X2859539Y1084123D1*
X2865189Y1077476D1*
X2869099Y1071218D1*
X3020657Y984279D1*
X3193781Y968767D1*
X3200659Y966751D1*
X3206877Y963184D1*
X3212090Y958264D1*
X3216011Y952264D1*
X3218422Y945514D1*
X3219192Y938387D1*
X3219193Y773808D1*
X3226390Y771979D1*
X3234938Y774031D1*
X3243701Y774721D1*
X3252464Y774031D1*
X3261012Y771979D1*
X3269133Y768615D1*
X3276629Y764022D1*
X3283313Y758313D1*
X3289022Y751629D1*
X3293615Y744133D1*
X3296979Y736012D1*
X3299031Y727464D1*
X3299721Y718701D1*
X3299031Y709938D1*
X3296979Y701390D1*
X3293615Y693269D1*
X3289022Y685773D1*
X3283313Y679089D1*
X3276629Y673380D1*
X3268962Y668708D1*
X3276629Y664022D1*
X3283313Y658313D1*
X3289022Y651629D1*
X3293615Y644133D1*
X3296979Y636012D1*
X3299031Y627464D1*
X3299721Y618701D1*
X3299031Y609938D1*
X3296979Y601390D1*
X3293615Y593269D1*
X3289022Y585773D1*
X3283313Y579089D1*
X3276629Y573380D1*
X3269133Y568787D1*
X3261012Y565423D1*
X3252464Y563371D1*
X3243701Y562681D1*
X3234938Y563371D1*
X3226390Y565423D1*
X3218269Y568787D1*
X3212502Y572225D1*
X3175000Y572209D1*
X3169133Y568787D1*
X3161012Y565423D1*
X3152464Y563371D1*
X3143701Y562681D1*
X3134938Y563371D1*
X3126390Y565423D1*
X3118269Y568787D1*
X3112502Y572225D1*
X3075000Y572209D1*
X3069133Y568787D1*
X3061012Y565423D1*
X3052464Y563371D1*
X3043701Y562681D1*
X3034938Y563371D1*
X3026390Y565423D1*
X3018269Y568787D1*
X3012502Y572225D1*
X2975000Y572209D1*
X2969133Y568787D1*
X2961012Y565423D1*
X2952464Y563371D1*
X2943701Y562681D1*
X2934938Y563371D1*
X2926390Y565423D1*
X2918269Y568787D1*
X2912502Y572225D1*
X2875000Y572209D1*
X2869133Y568787D1*
X2861012Y565423D1*
X2852464Y563371D1*
X2843701Y562681D1*
X2834938Y563371D1*
X2826390Y565423D1*
X2818269Y568787D1*
X2812502Y572225D1*
X2775000Y572209D1*
X2769133Y568787D1*
X2761012Y565423D1*
X2752464Y563371D1*
X2743701Y562681D1*
X2734938Y563371D1*
X2726390Y565423D1*
X2718269Y568787D1*
X2712502Y572225D1*
X2575000Y572209D1*
X2569133Y568787D1*
X2561012Y565423D1*
X2552464Y563371D1*
X2543701Y562681D1*
X2534938Y563371D1*
X2526390Y565423D1*
X2518269Y568787D1*
X2512502Y572225D1*
X2475000Y572209D1*
X2469133Y568787D1*
X2461012Y565423D1*
X2452464Y563371D1*
X2443701Y562681D1*
X2434938Y563371D1*
X2426390Y565423D1*
X2418269Y568787D1*
X2412502Y572225D1*
X2375000Y572209D1*
X2369133Y568787D1*
X2361012Y565423D1*
X2352464Y563371D1*
X2343701Y562681D1*
X2334938Y563371D1*
X2326390Y565423D1*
X2318269Y568787D1*
X2312502Y572225D1*
X2244824Y572209D1*
X2439900Y2022225D2*
X2434133Y2018615D1*
X2441629Y2014022D1*
X2448313Y2008313D1*
X2454022Y2001629D1*
X2458694Y1993962D1*
X2463380Y2001629D1*
X2469089Y2008313D1*
X2475773Y2014022D1*
X2483440Y2018694D1*
X2477502Y2022225D1*
X2440000Y2022209D1*
X2539900Y2022225D2*
X2534133Y2018615D1*
X2541629Y2014022D1*
X2548313Y2008313D1*
X2554022Y2001629D1*
X2558694Y1993962D1*
X2563380Y2001629D1*
X2569089Y2008313D1*
X2575773Y2014022D1*
X2583440Y2018694D1*
X2577502Y2022225D1*
X2540000Y2022209D1*
X2658694Y2043440D2*
X2654022Y2035773D1*
X2648313Y2029089D1*
X2641629Y2023380D1*
X2633962Y2018708D1*
X2641629Y2014022D1*
X2648313Y2008313D1*
X2654022Y2001629D1*
X2658694Y1993962D1*
X2663380Y2001629D1*
X2669089Y2008313D1*
X2675773Y2014022D1*
X2683440Y2018694D1*
X2675773Y2023380D1*
X2669089Y2029089D1*
X2663380Y2035773D1*
X2658708Y2043440D1*
X2739900Y2022225D2*
X2734133Y2018615D1*
X2741629Y2014022D1*
X2748313Y2008313D1*
X2754022Y2001629D1*
X2758694Y1993962D1*
X2763380Y2001629D1*
X2769089Y2008313D1*
X2775773Y2014022D1*
X2783440Y2018694D1*
X2777502Y2022225D1*
X2740000Y2022209D1*
X1674900Y2022225D2*
X1669133Y2018615D1*
X1676629Y2014022D1*
X1683313Y2008313D1*
X1689022Y2001629D1*
X1693694Y1993962D1*
X1698380Y2001629D1*
X1704089Y2008313D1*
X1710773Y2014022D1*
X1718440Y2018694D1*
X1712502Y2022225D1*
X1675000Y2022209D1*
X1774900Y2022225D2*
X1769133Y2018615D1*
X1776629Y2014022D1*
X1783313Y2008313D1*
X1789022Y2001629D1*
X1793694Y1993962D1*
X1798380Y2001629D1*
X1804089Y2008313D1*
X1810773Y2014022D1*
X1818440Y2018694D1*
X1812502Y2022225D1*
X1775000Y2022209D1*
X893694Y2043440D2*
X889022Y2035773D1*
X883313Y2029089D1*
X876629Y2023380D1*
X868962Y2018708D1*
X876629Y2014022D1*
X883313Y2008313D1*
X889022Y2001629D1*
X893694Y1993962D1*
X898380Y2001629D1*
X904089Y2008313D1*
X910773Y2014022D1*
X918440Y2018694D1*
X910773Y2023380D1*
X904089Y2029089D1*
X898380Y2035773D1*
X893708Y2043440D1*
X974900Y2022225D2*
X969133Y2018615D1*
X976629Y2014022D1*
X983313Y2008313D1*
X989022Y2001629D1*
X993694Y1993962D1*
X998380Y2001629D1*
X1004089Y2008313D1*
X1010773Y2014022D1*
X1018440Y2018694D1*
X1012502Y2022225D1*
X975000Y2022209D1*
X1074900Y2022225D2*
X1069133Y2018615D1*
X1076629Y2014022D1*
X1083313Y2008313D1*
X1089022Y2001629D1*
X1093694Y1993962D1*
X1098380Y2001629D1*
X1104089Y2008313D1*
X1110773Y2014022D1*
X1118440Y2018694D1*
X1112502Y2022225D1*
X1075000Y2022209D1*
X1193694Y2043440D2*
X1189022Y2035773D1*
X1183313Y2029089D1*
X1176629Y2023380D1*
X1168962Y2018708D1*
X1176629Y2014022D1*
X1183313Y2008313D1*
X1189022Y2001629D1*
X1193694Y1993962D1*
X1198380Y2001629D1*
X1204089Y2008313D1*
X1210773Y2014022D1*
X1218440Y2018694D1*
X1210773Y2023380D1*
X1204089Y2029089D1*
X1198380Y2035773D1*
X1193708Y2043440D1*
X1274900Y2022225D2*
X1269133Y2018615D1*
X1276629Y2014022D1*
X1283313Y2008313D1*
X1289022Y2001629D1*
X1293694Y1993962D1*
X1298380Y2001629D1*
X1304089Y2008313D1*
X1310773Y2014022D1*
X1318440Y2018694D1*
X1312502Y2022225D1*
X1275000Y2022209D1*
X868962Y668694D2*
X874900Y665177D1*
X872971Y670936D1*
X868962Y668708D1*
X881201Y665193D1*
X912402D1*
X918269Y668787D1*
X910773Y673380D1*
X904089Y679089D1*
X898380Y685773D1*
X893708Y693440D1*
X889022Y685773D1*
X883313Y679089D1*
X876629Y673380D1*
X872971Y670936D1*
X968962Y668694D2*
X974900Y665177D1*
X972971Y670936D1*
X968962Y668708D1*
X981201Y665193D1*
X1012402D1*
X1018269Y668787D1*
X1010773Y673380D1*
X1004089Y679089D1*
X998380Y685773D1*
X993708Y693440D1*
X989022Y685773D1*
X983313Y679089D1*
X976629Y673380D1*
X972971Y670936D1*
X1068962Y668694D2*
X1074900Y665177D1*
X1072971Y670936D1*
X1068962Y668708D1*
X1081201Y665193D1*
X1112402D1*
X1118269Y668787D1*
X1110773Y673380D1*
X1104089Y679089D1*
X1098380Y685773D1*
X1093708Y693440D1*
X1089022Y685773D1*
X1083313Y679089D1*
X1076629Y673380D1*
X1072971Y670936D1*
X1168962Y668694D2*
X1174900Y665177D1*
X1172971Y670936D1*
X1168962Y668708D1*
X1181201Y665193D1*
X1212402D1*
X1218269Y668787D1*
X1210773Y673380D1*
X1204089Y679089D1*
X1198380Y685773D1*
X1193708Y693440D1*
X1189022Y685773D1*
X1183313Y679089D1*
X1176629Y673380D1*
X1172971Y670936D1*
X1268962Y668694D2*
X1274900Y665177D1*
X1272971Y670936D1*
X1268962Y668708D1*
X1281201Y665193D1*
X1312402D1*
X1318269Y668787D1*
X1310773Y673380D1*
X1304089Y679089D1*
X1298380Y685773D1*
X1293708Y693440D1*
X1289022Y685773D1*
X1283313Y679089D1*
X1276629Y673380D1*
X1272971Y670936D1*
X1368962Y668694D2*
X1374900Y665177D1*
X1372971Y670936D1*
X1368962Y668708D1*
X1381201Y665193D1*
X1412402D1*
X1418269Y668787D1*
X1410773Y673380D1*
X1404089Y679089D1*
X1398380Y685773D1*
X1393708Y693440D1*
X1389022Y685773D1*
X1383313Y679089D1*
X1376629Y673380D1*
X1372971Y670936D1*
X1468962Y668694D2*
X1474900Y665177D1*
X1472971Y670936D1*
X1468962Y668708D1*
X1481201Y665193D1*
X1612402D1*
X1618269Y668787D1*
X1610773Y673380D1*
X1604089Y679089D1*
X1598380Y685773D1*
X1593787Y693269D1*
X1590423Y701390D1*
X1588371Y709938D1*
X1587681Y718701D1*
X1588371Y727464D1*
X1590423Y736012D1*
X1593787Y744133D1*
X1598380Y751629D1*
X1604089Y758313D1*
X1610773Y764022D1*
X1618269Y768615D1*
X1626390Y771979D1*
X1634938Y774031D1*
X1643701Y774721D1*
X1652464Y774031D1*
X1661012Y771979D1*
X1669133Y768615D1*
X1676629Y764022D1*
X1683313Y758313D1*
X1689022Y751629D1*
X1693694Y743962D1*
X1698380Y751629D1*
X1704089Y758313D1*
X1710773Y764022D1*
X1718269Y768615D1*
X1726390Y771979D1*
X1734938Y774031D1*
X1743701Y774721D1*
X1752464Y774031D1*
X1761012Y771979D1*
X1769133Y768615D1*
X1776629Y764022D1*
X1783313Y758313D1*
X1789022Y751629D1*
X1793694Y743962D1*
X1798380Y751629D1*
X1804089Y758313D1*
X1810773Y764022D1*
X1818269Y768615D1*
X1826390Y771979D1*
X1834938Y774031D1*
X1843701Y774721D1*
X1852464Y774031D1*
X1861012Y771979D1*
X1869133Y768615D1*
X1876629Y764022D1*
X1883313Y758313D1*
X1889022Y751629D1*
X1893694Y743962D1*
X1898380Y751629D1*
X1904089Y758313D1*
X1910773Y764022D1*
X1918269Y768615D1*
X1926390Y771979D1*
X1934938Y774031D1*
X1943701Y774721D1*
X1952464Y774031D1*
X1961012Y771979D1*
X1969133Y768615D1*
X1976629Y764022D1*
X1983313Y758313D1*
X1987692Y753315D1*
X1987681Y774721D1*
X2099721D1*
Y665174D1*
X2287680Y665193D1*
X2287681Y710679D1*
X2110458Y791502D1*
X2104640Y795688D1*
X2099959Y801117D1*
X2096675Y807488D1*
X2095239Y812689D1*
X2012682Y812681D1*
Y924720D1*
X2064000D1*
X2013334Y986523D1*
X2005287Y987827D1*
X1996711Y990613D1*
X1988677Y994707D1*
X1981382Y1000007D1*
X1975007Y1006382D1*
X1969707Y1013677D1*
X1968734Y1015415D1*
X1965189Y1009926D1*
X1959333Y1003069D1*
X1952476Y997213D1*
X1944788Y992502D1*
X1936458Y989051D1*
X1927690Y986947D1*
X1918701Y986239D1*
X1909712Y986947D1*
X1900944Y989051D1*
X1892614Y992502D1*
X1884926Y997213D1*
X1878069Y1003069D1*
X1872213Y1009926D1*
X1868734Y1015415D1*
X1865189Y1009926D1*
X1859333Y1003069D1*
X1852476Y997213D1*
X1844788Y992502D1*
X1836458Y989051D1*
X1827690Y986947D1*
X1818701Y986239D1*
X1809712Y986947D1*
X1800944Y989051D1*
X1792614Y992502D1*
X1784926Y997213D1*
X1778069Y1003069D1*
X1772213Y1009926D1*
X1768734Y1015415D1*
X1765189Y1009926D1*
X1759333Y1003069D1*
X1752476Y997213D1*
X1744788Y992502D1*
X1736458Y989051D1*
X1727690Y986947D1*
X1718701Y986239D1*
X1709712Y986947D1*
X1700944Y989051D1*
X1692614Y992502D1*
X1684926Y997213D1*
X1678069Y1003069D1*
X1672213Y1009926D1*
X1668734Y1015415D1*
X1665189Y1009926D1*
X1659333Y1003069D1*
X1652476Y997213D1*
X1644788Y992502D1*
X1636458Y989051D1*
X1627690Y986947D1*
X1618701Y986239D1*
X1609712Y986947D1*
X1600944Y989051D1*
X1592614Y992502D1*
X1584926Y997213D1*
X1578069Y1003069D1*
X1572213Y1009926D1*
X1568734Y1015415D1*
X1565189Y1009926D1*
X1559333Y1003069D1*
X1552476Y997213D1*
X1544788Y992502D1*
X1536458Y989051D1*
X1527690Y986947D1*
X1518701Y986239D1*
X1509712Y986947D1*
X1500944Y989051D1*
X1492614Y992502D1*
X1484926Y997213D1*
X1478069Y1003069D1*
X1472213Y1009926D1*
X1468734Y1015415D1*
X1465189Y1009926D1*
X1459333Y1003069D1*
X1452476Y997213D1*
X1444788Y992502D1*
X1436458Y989051D1*
X1427690Y986947D1*
X1418701Y986239D1*
X1409712Y986947D1*
X1400944Y989051D1*
X1392614Y992502D1*
X1384926Y997213D1*
X1378069Y1003069D1*
X1372213Y1009926D1*
X1368734Y1015415D1*
X1365189Y1009926D1*
X1359333Y1003069D1*
X1352476Y997213D1*
X1344788Y992502D1*
X1336458Y989051D1*
X1327690Y986947D1*
X1318701Y986239D1*
X1309712Y986947D1*
X1300944Y989051D1*
X1292614Y992502D1*
X1284926Y997213D1*
X1278069Y1003069D1*
X1272213Y1009926D1*
X1268734Y1015415D1*
X1265189Y1009926D1*
X1259333Y1003069D1*
X1252476Y997213D1*
X1244788Y992502D1*
X1236458Y989051D1*
X1227690Y986947D1*
X1218701Y986239D1*
X1209712Y986947D1*
X1200944Y989051D1*
X1192614Y992502D1*
X1184926Y997213D1*
X1178069Y1003069D1*
X1172213Y1009926D1*
X1168734Y1015415D1*
X1165189Y1009926D1*
X1159333Y1003069D1*
X1152476Y997213D1*
X1144788Y992502D1*
X1136458Y989051D1*
X1127690Y986947D1*
X1118701Y986239D1*
X1109712Y986947D1*
X1100944Y989051D1*
X1092614Y992502D1*
X1084926Y997213D1*
X1078069Y1003069D1*
X1072213Y1009926D1*
X1068734Y1015415D1*
X1065189Y1009926D1*
X1059333Y1003069D1*
X1052476Y997213D1*
X1044788Y992502D1*
X1036458Y989051D1*
X1027690Y986947D1*
X1018701Y986239D1*
X1009712Y986947D1*
X1000944Y989051D1*
X992614Y992502D1*
X984926Y997213D1*
X978069Y1003069D1*
X972213Y1009926D1*
X968734Y1015415D1*
X965189Y1009926D1*
X959333Y1003069D1*
X952476Y997213D1*
X944788Y992502D1*
X936458Y989051D1*
X927690Y986947D1*
X918701Y986239D1*
X909712Y986947D1*
X900944Y989051D1*
X892614Y992502D1*
X884926Y997213D1*
X878069Y1003069D1*
X872213Y1009926D1*
X868734Y1015415D1*
X865189Y1009926D1*
X859333Y1003069D1*
X852476Y997213D1*
X844788Y992502D1*
X836458Y989051D1*
X827690Y986947D1*
X818701Y986239D1*
X809712Y986947D1*
X800944Y989051D1*
X792614Y992502D1*
X784926Y997213D1*
X778069Y1003069D1*
X772213Y1009926D1*
X768734Y1015415D1*
X765189Y1009926D1*
X759333Y1003069D1*
X752476Y997213D1*
X744788Y992502D1*
X736458Y989051D1*
X727690Y986947D1*
X718701Y986239D1*
X709712Y986947D1*
X700944Y989051D1*
X692614Y992502D1*
X684926Y997213D1*
X678069Y1003069D1*
X672213Y1009926D1*
X668734Y1015415D1*
X665189Y1009926D1*
X659333Y1003069D1*
X652476Y997213D1*
X649179Y995010D1*
X649193Y856347D1*
X730826Y774699D1*
X799721Y774721D1*
Y753383D1*
X804089Y758313D1*
X810773Y764022D1*
X818269Y768615D1*
X826390Y771979D1*
X834938Y774031D1*
X843701Y774721D1*
X852464Y774031D1*
X861012Y771979D1*
X869133Y768615D1*
X876629Y764022D1*
X883313Y758313D1*
X889022Y751629D1*
X893694Y743962D1*
X898380Y751629D1*
X904089Y758313D1*
X910773Y764022D1*
X918269Y768615D1*
X926390Y771979D1*
X934938Y774031D1*
X943701Y774721D1*
X952464Y774031D1*
X961012Y771979D1*
X969133Y768615D1*
X976629Y764022D1*
X983313Y758313D1*
X989022Y751629D1*
X993694Y743962D1*
X998380Y751629D1*
X1004089Y758313D1*
X1010773Y764022D1*
X1018269Y768615D1*
X1026390Y771979D1*
X1034938Y774031D1*
X1043701Y774721D1*
X1052464Y774031D1*
X1061012Y771979D1*
X1069133Y768615D1*
X1076629Y764022D1*
X1083313Y758313D1*
X1089022Y751629D1*
X1093694Y743962D1*
X1098380Y751629D1*
X1104089Y758313D1*
X1110773Y764022D1*
X1118269Y768615D1*
X1126390Y771979D1*
X1134938Y774031D1*
X1143701Y774721D1*
X1152464Y774031D1*
X1161012Y771979D1*
X1169133Y768615D1*
X1176629Y764022D1*
X1183313Y758313D1*
X1189022Y751629D1*
X1193694Y743962D1*
X1198380Y751629D1*
X1204089Y758313D1*
X1210773Y764022D1*
X1218269Y768615D1*
X1226390Y771979D1*
X1234938Y774031D1*
X1243701Y774721D1*
X1252464Y774031D1*
X1261012Y771979D1*
X1269133Y768615D1*
X1276629Y764022D1*
X1283313Y758313D1*
X1289022Y751629D1*
X1293694Y743962D1*
X1298380Y751629D1*
X1304089Y758313D1*
X1310773Y764022D1*
X1318269Y768615D1*
X1326390Y771979D1*
X1334938Y774031D1*
X1343701Y774721D1*
X1352464Y774031D1*
X1361012Y771979D1*
X1369133Y768615D1*
X1376629Y764022D1*
X1383313Y758313D1*
X1389022Y751629D1*
X1393694Y743962D1*
X1398380Y751629D1*
X1404089Y758313D1*
X1410773Y764022D1*
X1418269Y768615D1*
X1426390Y771979D1*
X1434938Y774031D1*
X1443701Y774721D1*
X1452464Y774031D1*
X1461012Y771979D1*
X1469133Y768615D1*
X1476629Y764022D1*
X1483313Y758313D1*
X1489022Y751629D1*
X1493615Y744133D1*
X1496979Y736012D1*
X1499031Y727464D1*
X1499721Y718701D1*
X1499031Y709938D1*
X1496979Y701390D1*
X1493615Y693269D1*
X1489022Y685773D1*
X1483313Y679089D1*
X1476629Y673380D1*
X1472971Y670936D1*
X1668962Y668694D2*
X1674900Y665177D1*
X1672971Y670936D1*
X1668962Y668708D1*
X1681201Y665193D1*
X1712402D1*
X1718269Y668787D1*
X1710773Y673380D1*
X1704089Y679089D1*
X1698380Y685773D1*
X1693708Y693440D1*
X1689022Y685773D1*
X1683313Y679089D1*
X1676629Y673380D1*
X1672971Y670936D1*
X1768962Y668694D2*
X1774900Y665177D1*
X1772971Y670936D1*
X1768962Y668708D1*
X1781201Y665193D1*
X1812402D1*
X1818269Y668787D1*
X1810773Y673380D1*
X1804089Y679089D1*
X1798380Y685773D1*
X1793708Y693440D1*
X1789022Y685773D1*
X1783313Y679089D1*
X1776629Y673380D1*
X1772971Y670936D1*
X1868962Y668694D2*
X1874900Y665177D1*
X1872971Y670936D1*
X1868962Y668708D1*
X1881201Y665193D1*
X1912402D1*
X1918269Y668787D1*
X1910773Y673380D1*
X1904089Y679089D1*
X1898380Y685773D1*
X1893708Y693440D1*
X1889022Y685773D1*
X1883313Y679089D1*
X1876629Y673380D1*
X1872971Y670936D1*
X2868962Y668694D2*
X2874900Y665177D1*
X2872971Y670936D1*
X2868962Y668708D1*
X2881201Y665193D1*
X2912402D1*
X2918269Y668787D1*
X2910773Y673380D1*
X2904089Y679089D1*
X2898380Y685773D1*
X2893708Y693440D1*
X2889022Y685773D1*
X2883313Y679089D1*
X2876629Y673380D1*
X2872971Y670936D1*
X2968962Y668694D2*
X2974900Y665177D1*
X2972971Y670936D1*
X2968962Y668708D1*
X2981201Y665193D1*
X3012402D1*
X3018269Y668787D1*
X3010773Y673380D1*
X3004089Y679089D1*
X2998380Y685773D1*
X2993708Y693440D1*
X2989022Y685773D1*
X2983313Y679089D1*
X2976629Y673380D1*
X2972971Y670936D1*
X3068962Y668694D2*
X3074900Y665177D1*
X3072971Y670936D1*
X3068962Y668708D1*
X3081201Y665193D1*
X3112402D1*
X3118269Y668787D1*
X3110773Y673380D1*
X3104089Y679089D1*
X3098380Y685773D1*
X3093708Y693440D1*
X3089022Y685773D1*
X3083313Y679089D1*
X3076629Y673380D1*
X3072971Y670936D1*
X3168962Y668694D2*
X3174900Y665177D1*
X3172971Y670936D1*
X3168962Y668708D1*
X3181201Y665193D1*
X3212402D1*
X3218269Y668787D1*
X3210773Y673380D1*
X3204089Y679089D1*
X3198380Y685773D1*
X3193708Y693440D1*
X3189022Y685773D1*
X3183313Y679089D1*
X3176629Y673380D1*
X3172971Y670936D1*
X3459849Y1784953D2*
X3458820Y1776260D1*
X3457113Y1767674D1*
X3454736Y1759248D1*
X3451706Y1751035D1*
X3448041Y1743085D1*
X3443764Y1735447D1*
X3438900Y1728168D1*
X3433480Y1721293D1*
X3427538Y1714864D1*
X3421109Y1708922D1*
X3414234Y1703502D1*
X3406955Y1698638D1*
X3399317Y1694361D1*
X3391367Y1690696D1*
X3383154Y1687666D1*
X3374728Y1685289D1*
X3366142Y1683582D1*
X3357449Y1682553D1*
X3348701Y1682209D1*
X3339953Y1682553D1*
X3331260Y1683582D1*
X3322674Y1685289D1*
X3314248Y1687666D1*
X3306035Y1690696D1*
X3298085Y1694361D1*
X3290447Y1698638D1*
X3283168Y1703502D1*
X3276293Y1708922D1*
X3269864Y1714864D1*
X3263922Y1721293D1*
X3258502Y1728168D1*
X3253638Y1735447D1*
X3249361Y1743085D1*
X3245696Y1751035D1*
X3242666Y1759248D1*
X3240289Y1767674D1*
X3238582Y1776260D1*
X3237553Y1784953D1*
X3237209Y1793701D1*
X3237553Y1802449D1*
X3238582Y1811142D1*
X3240289Y1819728D1*
X3242666Y1828154D1*
X3245696Y1836367D1*
X3249361Y1844317D1*
X3253638Y1851955D1*
X3258502Y1859234D1*
X3263922Y1866109D1*
X3269864Y1872538D1*
X3276293Y1878480D1*
X3283168Y1883900D1*
X3290447Y1888764D1*
X3298085Y1893041D1*
X3306035Y1896706D1*
X3314248Y1899736D1*
X3322674Y1902113D1*
X3331260Y1903820D1*
X3339953Y1904849D1*
X3348701Y1905193D1*
X3357449Y1904849D1*
X3366142Y1903820D1*
X3374728Y1902113D1*
X3383154Y1899736D1*
X3391367Y1896706D1*
X3399317Y1893041D1*
X3406955Y1888764D1*
X3414234Y1883900D1*
X3421109Y1878480D1*
X3427538Y1872538D1*
X3433480Y1866109D1*
X3438900Y1859234D1*
X3443764Y1851955D1*
X3448041Y1844317D1*
X3451706Y1836367D1*
X3454736Y1828154D1*
X3457113Y1819728D1*
X3458820Y1811142D1*
X3459849Y1802449D1*
X3460193Y1793701D1*
X3459849Y1784953D1*
X468795Y1947155D2*
X474089Y1953313D1*
X480773Y1959022D1*
X488269Y1963615D1*
X496390Y1966979D1*
X504938Y1969031D1*
X513701Y1969721D1*
X522464Y1969031D1*
X531012Y1966979D1*
X539133Y1963615D1*
X546629Y1959022D1*
X553313Y1953313D1*
X559022Y1946629D1*
X563694Y1938962D1*
X568380Y1946629D1*
X574089Y1953313D1*
X580773Y1959022D1*
X588269Y1963615D1*
X596390Y1966979D1*
X602898Y1968625D1*
X627195Y1992945D1*
X627209Y2073652D1*
X620770Y2066632D1*
X614486Y2060823D1*
X607765Y2055525D1*
X600649Y2050770D1*
X593182Y2046588D1*
X585410Y2043005D1*
X577381Y2040043D1*
X569145Y2037720D1*
X560751Y2036051D1*
X552252Y2035045D1*
X543701Y2034709D1*
X535150Y2035045D1*
X526651Y2036051D1*
X518257Y2037720D1*
X510021Y2040043D1*
X501992Y2043005D1*
X494220Y2046588D1*
X486753Y2050770D1*
X479637Y2055525D1*
X472916Y2060823D1*
X466632Y2066632D1*
X460823Y2072916D1*
X455525Y2079637D1*
X450770Y2086753D1*
X446588Y2094220D1*
X441189Y2106916D1*
X441202Y1937451D1*
X468816Y1947175D1*
X3463221Y1219306D2*
X3471088Y1223295D1*
X3479906Y1226160D1*
X3485771Y1227221D1*
X3474864Y1227904D1*
X3466244Y1229974D1*
X3458054Y1233366D1*
X3450496Y1237998D1*
X3443755Y1243755D1*
X3437998Y1250496D1*
X3433366Y1258054D1*
X3429974Y1266244D1*
X3427904Y1274864D1*
X3427209Y1283701D1*
Y1350254D1*
X3420209Y1350209D1*
Y1477193D1*
X3547193D1*
Y1350209D1*
X3540211D1*
X3544223Y1348356D1*
X3554146Y1345132D1*
X3563443Y1340395D1*
X3571884Y1334262D1*
X3602235Y1304202D1*
X3644262Y1261884D1*
X3650395Y1253443D1*
X3655132Y1244146D1*
X3658356Y1234223D1*
X3659988Y1223918D1*
X3660193Y1193701D1*
X3659988Y738484D1*
X3658356Y728179D1*
X3655132Y718256D1*
X3650395Y708959D1*
X3644262Y700518D1*
X3636884Y693140D1*
X3628443Y687007D1*
X3619146Y682270D1*
X3609223Y679046D1*
X3598918Y677414D1*
X3588484D1*
X3578179Y679046D1*
X3568256Y682270D1*
X3558959Y687007D1*
X3550518Y693140D1*
X3543140Y700518D1*
X3539080Y705856D1*
X3532078Y698767D1*
X3524576Y693317D1*
X3516314Y689107D1*
X3507496Y686242D1*
X3498337Y684791D1*
X3489065D1*
X3479906Y686242D1*
X3471088Y689107D1*
X3462826Y693317D1*
X3455324Y698767D1*
X3448767Y705324D1*
X3443096Y713221D1*
X3432931Y713584D1*
X3426032Y715530D1*
X3419778Y719032D1*
X3416140Y722140D1*
X3339515Y798898D1*
X3335532Y804858D1*
X3333051Y811583D1*
X3332209Y818701D1*
X3333051Y825819D1*
X3335532Y832544D1*
X3339515Y838504D1*
X3437228Y936350D1*
X3435337Y944457D1*
X3434609Y953701D1*
X3435337Y962945D1*
X3437501Y971961D1*
X3437993Y974060D1*
X3431493Y970748D1*
X3424554Y968493D1*
X3417349Y967352D1*
X3410053D1*
X3402848Y968493D1*
X3395909Y970748D1*
X3389409Y974060D1*
X3383507Y978348D1*
X3378348Y983507D1*
X3374060Y989409D1*
X3370748Y995909D1*
X3368493Y1002848D1*
X3367352Y1010053D1*
Y1017349D1*
X3368493Y1024554D1*
X3370748Y1031493D1*
X3374060Y1037993D1*
X3378348Y1043895D1*
X3383507Y1049054D1*
X3389409Y1053342D1*
X3395909Y1056654D1*
X3402848Y1058909D1*
X3410053Y1060050D1*
X3416964Y1060065D1*
X3417209Y1110201D1*
Y1173433D1*
X3412898Y1176514D1*
X3313913Y1275367D1*
X3261950Y1327330D1*
X3255053Y1327352D1*
X3247848Y1328493D1*
X3240909Y1330748D1*
X3234409Y1334060D1*
X3228507Y1338348D1*
X3223348Y1343507D1*
X3219060Y1349409D1*
X3215748Y1355909D1*
X3213493Y1362848D1*
X3212352Y1370053D1*
Y1377349D1*
X3213493Y1384554D1*
X3215748Y1391493D1*
X3219060Y1397993D1*
X3223348Y1403895D1*
X3228507Y1409054D1*
X3234409Y1413342D1*
X3240909Y1416654D1*
X3247848Y1418909D1*
X3255053Y1420050D1*
X3262349D1*
X3269554Y1418909D1*
X3276493Y1416654D1*
X3282993Y1413342D1*
X3288895Y1409054D1*
X3294054Y1403895D1*
X3298342Y1397993D1*
X3301654Y1391493D1*
X3303909Y1384554D1*
X3305050Y1377349D1*
X3305065Y1370438D1*
X3446025Y1229500D1*
X3451370Y1227872D1*
X3457624Y1224370D1*
X3463200Y1219325D1*
X3461484Y1221022D1*
X3466244Y1229974D1*
X3458054Y1233366D1*
X3450496Y1237998D1*
X3443755Y1243755D1*
X3437998Y1250496D1*
X3433366Y1258054D1*
X3429974Y1266244D1*
X3427904Y1274864D1*
X3427222Y1284030D1*
X3527214Y905079D2*
X3520528Y901050D1*
X3511961Y897501D1*
X3502945Y895337D1*
X3493701Y894609D1*
X3484457Y895337D1*
X3482768Y895673D1*
X3405847Y818725D1*
X3445961Y778563D1*
X3451917Y785485D1*
X3458968Y791507D1*
X3466874Y796352D1*
X3475441Y799901D1*
X3484457Y802065D1*
X3493701Y802793D1*
X3502945Y802065D1*
X3511961Y799901D1*
X3520528Y796352D1*
X3527214Y792323D1*
X3527209Y904980D1*
X3122092Y770377D2*
X3130623Y773173D1*
X3139306Y774548D1*
X3148096D1*
X3156779Y773173D1*
X3158217Y772767D1*
X3158209Y814636D1*
X3152464Y813371D1*
X3143701Y812681D1*
X3134938Y813371D1*
X3126390Y815423D1*
X3118269Y818787D1*
X3110773Y823380D1*
X3104089Y829089D1*
X3098380Y835773D1*
X3093708Y843440D1*
X3089022Y835773D1*
X3083313Y829089D1*
X3076629Y823380D1*
X3069133Y818787D1*
X3061012Y815423D1*
X3057324Y814383D1*
X3122120Y770384D1*
X2425181Y924721D2*
X2518748D1*
X2434410Y944659D1*
X2427887Y947630D1*
X2422238Y952042D1*
X2417775Y957651D1*
X2414726Y964210D1*
X2406363Y987587D1*
X2396711Y990613D1*
X2388677Y994707D1*
X2381382Y1000007D1*
X2375007Y1006382D1*
X2369707Y1013677D1*
X2368734Y1015415D1*
X2365982Y1011113D1*
X2412684Y902973D1*
X2412681Y924721D1*
X2425181D1*
X2919360Y1912681D2*
X2886645D1*
X2889414Y1904484D1*
X2890555Y1897278D1*
X2890699Y1818630D1*
Y1752859D1*
X2917236Y1726358D1*
X2917352Y1902349D1*
X2918598Y1909925D1*
X2144657Y919255D2*
X2151390Y921979D1*
X2159938Y924031D1*
X2164872Y924570D1*
X2101226Y983064D1*
X2096990Y988846D1*
X2096096Y990582D1*
X2084926Y997213D1*
X2080282Y1001024D1*
X2140774Y927075D1*
X2144148Y920751D1*
X2144622Y919412D1*
X2243269Y918615D2*
X2251390Y921979D1*
X2259938Y924031D1*
X2268701Y924721D1*
X2274956Y924328D1*
X2212724Y986556D1*
X2205287Y987827D1*
X2196711Y990613D1*
X2188677Y994707D1*
X2181382Y1000007D1*
X2175007Y1006382D1*
X2169707Y1013677D1*
X2168734Y1015415D1*
X2163847Y1008223D1*
X2230041Y947405D1*
X2234277Y941623D1*
X2237045Y935011D1*
X2238061Y929748D1*
X2239431Y916466D1*
X2243269Y918615D1*
X1625182Y1874720D2*
X1724721D1*
Y1853383D1*
X1729089Y1858313D1*
X1735773Y1864022D1*
X1743269Y1868615D1*
X1751390Y1871979D1*
X1759938Y1874031D1*
X1768701Y1874721D1*
X1777464Y1874031D1*
X1786012Y1871979D1*
X1794133Y1868615D1*
X1801629Y1864022D1*
X1808313Y1858313D1*
X1814022Y1851629D1*
X1818694Y1843962D1*
X1823380Y1851629D1*
X1829089Y1858313D1*
X1835773Y1864022D1*
X1843269Y1868615D1*
X1851390Y1871979D1*
X1859938Y1874031D1*
X1868701Y1874721D1*
X1877464Y1874031D1*
X1886012Y1871979D1*
X1894133Y1868615D1*
X1901629Y1864022D1*
X1908313Y1858313D1*
X1912692Y1853315D1*
X1912682Y1874720D1*
X2024721D1*
Y1762681D1*
X1912682D1*
Y1784019D1*
X1908313Y1779089D1*
X1901629Y1773380D1*
X1894133Y1768787D1*
X1886012Y1765423D1*
X1877464Y1763371D1*
X1868701Y1762681D1*
X1859938Y1763371D1*
X1851390Y1765423D1*
X1843269Y1768787D1*
X1835773Y1773380D1*
X1829089Y1779089D1*
X1823380Y1785773D1*
X1818708Y1793440D1*
X1814022Y1785773D1*
X1808313Y1779089D1*
X1801629Y1773380D1*
X1794133Y1768787D1*
X1786012Y1765423D1*
X1777464Y1763371D1*
X1768701Y1762681D1*
X1759938Y1763371D1*
X1751390Y1765423D1*
X1743269Y1768787D1*
X1735773Y1773380D1*
X1729089Y1779089D1*
X1724731Y1784060D1*
X1724721Y1762681D1*
X1612682D1*
Y1784019D1*
X1608313Y1779089D1*
X1601629Y1773380D1*
X1594133Y1768787D1*
X1586012Y1765423D1*
X1577464Y1763371D1*
X1568701Y1762681D1*
X1559938Y1763371D1*
X1551390Y1765423D1*
X1543269Y1768787D1*
X1535773Y1773380D1*
X1529089Y1779089D1*
X1523380Y1785773D1*
X1518708Y1793440D1*
X1514022Y1785773D1*
X1508313Y1779089D1*
X1501629Y1773380D1*
X1494133Y1768787D1*
X1486012Y1765423D1*
X1477464Y1763371D1*
X1468701Y1762681D1*
X1459938Y1763371D1*
X1451390Y1765423D1*
X1443269Y1768787D1*
X1435773Y1773380D1*
X1429089Y1779089D1*
X1423380Y1785773D1*
X1418708Y1793440D1*
X1414022Y1785773D1*
X1408313Y1779089D1*
X1401629Y1773380D1*
X1394133Y1768787D1*
X1386012Y1765423D1*
X1377464Y1763371D1*
X1368701Y1762681D1*
X1359938Y1763371D1*
X1351390Y1765423D1*
X1343269Y1768787D1*
X1335773Y1773380D1*
X1329089Y1779089D1*
X1323380Y1785773D1*
X1318787Y1793269D1*
X1315423Y1801390D1*
X1313371Y1809938D1*
X1312681Y1818701D1*
X1313371Y1827464D1*
X1315423Y1836012D1*
X1318787Y1844133D1*
X1323380Y1851629D1*
X1329089Y1858313D1*
X1335773Y1864022D1*
X1343269Y1868615D1*
X1351390Y1871979D1*
X1359938Y1874031D1*
X1368701Y1874721D1*
X1377464Y1874031D1*
X1386012Y1871979D1*
X1394133Y1868615D1*
X1401629Y1864022D1*
X1408313Y1858313D1*
X1414022Y1851629D1*
X1418694Y1843962D1*
X1423380Y1851629D1*
X1429089Y1858313D1*
X1435773Y1864022D1*
X1443269Y1868615D1*
X1451390Y1871979D1*
X1459938Y1874031D1*
X1468701Y1874721D1*
X1477464Y1874031D1*
X1486012Y1871979D1*
X1494133Y1868615D1*
X1501629Y1864022D1*
X1508313Y1858313D1*
X1514022Y1851629D1*
X1518694Y1843962D1*
X1523380Y1851629D1*
X1529089Y1858313D1*
X1535773Y1864022D1*
X1543269Y1868615D1*
X1551390Y1871979D1*
X1559938Y1874031D1*
X1568701Y1874721D1*
X1577464Y1874031D1*
X1586012Y1871979D1*
X1594133Y1868615D1*
X1601629Y1864022D1*
X1608313Y1858313D1*
X1612692Y1853315D1*
X1612682Y1874720D1*
X1625182D1*
X2724721Y1847133D2*
Y1762681D1*
X2698891D1*
X2698567Y1697500D1*
X2705287Y1699575D1*
X2714193Y1700986D1*
X2723209D1*
X2732115Y1699575D1*
X2740691Y1696789D1*
X2748725Y1692695D1*
X2756020Y1687395D1*
X2762395Y1681020D1*
X2767695Y1673725D1*
X2768668Y1671987D1*
X2772213Y1677476D1*
X2778069Y1684333D1*
X2784926Y1690189D1*
X2792614Y1694900D1*
X2800944Y1698351D1*
X2809712Y1700455D1*
X2811331Y1700763D1*
X2806593Y1706311D1*
X2802781Y1712531D1*
X2799990Y1719271D1*
X2798287Y1726365D1*
X2797714Y1733638D1*
Y1847163D1*
X2724724Y1847138D1*
X2637953Y1762681D2*
X2612682D1*
Y1784019D1*
X2608313Y1779089D1*
X2601629Y1773380D1*
X2597956Y1770928D1*
X2596053Y1696520D1*
X2605287Y1699575D1*
X2614193Y1700986D1*
X2623209D1*
X2632115Y1699575D1*
X2637599Y1697930D1*
X2637919Y1762657D1*
X2537016Y1772550D2*
X2532319Y1776103D1*
X2526103Y1782319D1*
X2520936Y1789431D1*
X2518615Y1793269D1*
X2514022Y1785773D1*
X2508313Y1779089D1*
X2501629Y1773380D1*
X2500271Y1772473D1*
X2501992Y1698691D1*
X2509712Y1700455D1*
X2518701Y1701163D1*
X2527690Y1700455D1*
X2535118Y1698728D1*
X2537007Y1772493D1*
X2439331Y1771003D2*
X2432319Y1776103D1*
X2426103Y1782319D1*
X2420936Y1789431D1*
X2418615Y1793269D1*
X2414022Y1785773D1*
X2408313Y1779089D1*
X2401629Y1773380D1*
X2398928Y1771576D1*
X2398541Y1697494D1*
X2405287Y1699575D1*
X2414193Y1700986D1*
X2423209D1*
X2432115Y1699575D1*
X2441059Y1696619D1*
X2439310Y1770987D1*
X2337959Y1771920D2*
X2332319Y1776103D1*
X2326103Y1782319D1*
X2320936Y1789431D1*
X2316946Y1797263D1*
X2314229Y1805623D1*
X2312854Y1814306D1*
Y1823096D1*
X2314229Y1831779D1*
X2316946Y1840139D1*
X2320475Y1847147D1*
X2274724Y1847138D1*
X2274721Y1762681D1*
X2197914D1*
X2197928Y1697249D1*
X2205287Y1699575D1*
X2214193Y1700986D1*
X2223209D1*
X2232115Y1699575D1*
X2240691Y1696789D1*
X2248725Y1692695D1*
X2256020Y1687395D1*
X2262395Y1681020D1*
X2267695Y1673725D1*
X2268668Y1671987D1*
X2272213Y1677476D1*
X2278069Y1684333D1*
X2284926Y1690189D1*
X2292614Y1694900D1*
X2300944Y1698351D1*
X2309712Y1700455D1*
X2318701Y1701163D1*
X2327690Y1700455D1*
X2337566Y1697942D1*
X2337956Y1771850D1*
X725182Y1874720D2*
X824721D1*
Y1853382D1*
X829089Y1858313D1*
X835773Y1864022D1*
X843269Y1868615D1*
X851390Y1871979D1*
X859938Y1874031D1*
X868701Y1874721D1*
X877464Y1874031D1*
X886012Y1871979D1*
X894133Y1868615D1*
X901629Y1864022D1*
X908313Y1858313D1*
X914022Y1851629D1*
X918694Y1843962D1*
X923380Y1851629D1*
X929089Y1858313D1*
X935773Y1864022D1*
X943269Y1868615D1*
X951390Y1871979D1*
X959938Y1874031D1*
X968701Y1874721D1*
X977464Y1874031D1*
X986012Y1871979D1*
X994133Y1868615D1*
X1001629Y1864022D1*
X1008313Y1858313D1*
X1014022Y1851629D1*
X1018694Y1843962D1*
X1023380Y1851629D1*
X1029089Y1858313D1*
X1035773Y1864022D1*
X1043269Y1868615D1*
X1051390Y1871979D1*
X1059938Y1874031D1*
X1068701Y1874721D1*
X1077464Y1874031D1*
X1086012Y1871979D1*
X1094133Y1868615D1*
X1101629Y1864022D1*
X1108313Y1858313D1*
X1114022Y1851629D1*
X1118615Y1844133D1*
X1121979Y1836012D1*
X1124031Y1827464D1*
X1124721Y1818701D1*
X1124031Y1809938D1*
X1121979Y1801390D1*
X1118615Y1793269D1*
X1114022Y1785773D1*
X1108313Y1779089D1*
X1101629Y1773380D1*
X1094133Y1768787D1*
X1086012Y1765423D1*
X1077464Y1763371D1*
X1068701Y1762681D1*
X1059938Y1763371D1*
X1051390Y1765423D1*
X1043269Y1768787D1*
X1035773Y1773380D1*
X1029089Y1779089D1*
X1023380Y1785773D1*
X1018708Y1793440D1*
X1014022Y1785773D1*
X1008313Y1779089D1*
X1001629Y1773380D1*
X994133Y1768787D1*
X986012Y1765423D1*
X977464Y1763371D1*
X968701Y1762681D1*
X959938Y1763371D1*
X951390Y1765423D1*
X943269Y1768787D1*
X935773Y1773380D1*
X929089Y1779089D1*
X923380Y1785773D1*
X918708Y1793440D1*
X914022Y1785773D1*
X908313Y1779089D1*
X901629Y1773380D1*
X894133Y1768787D1*
X886012Y1765423D1*
X877464Y1763371D1*
X868701Y1762681D1*
X859938Y1763371D1*
X851390Y1765423D1*
X843269Y1768787D1*
X835773Y1773380D1*
X829089Y1779089D1*
X824731Y1784060D1*
X824721Y1762681D1*
X712682D1*
Y1874720D1*
X725182D1*
X1625181Y924721D2*
X1724721D1*
Y812681D1*
X1612681D1*
Y834019D1*
X1608313Y829089D1*
X1601629Y823380D1*
X1594133Y818787D1*
X1586012Y815423D1*
X1577464Y813371D1*
X1568701Y812681D1*
X1559938Y813371D1*
X1551390Y815423D1*
X1543269Y818787D1*
X1535773Y823380D1*
X1529089Y829089D1*
X1523380Y835773D1*
X1518708Y843440D1*
X1514022Y835773D1*
X1508313Y829089D1*
X1501629Y823380D1*
X1494133Y818787D1*
X1486012Y815423D1*
X1477464Y813371D1*
X1468701Y812681D1*
X1459938Y813371D1*
X1451390Y815423D1*
X1443269Y818787D1*
X1435773Y823380D1*
X1429089Y829089D1*
X1423380Y835773D1*
X1418708Y843440D1*
X1414022Y835773D1*
X1408313Y829089D1*
X1401629Y823380D1*
X1394133Y818787D1*
X1386012Y815423D1*
X1377464Y813371D1*
X1368701Y812681D1*
X1359938Y813371D1*
X1351390Y815423D1*
X1343269Y818787D1*
X1335773Y823380D1*
X1329089Y829089D1*
X1323380Y835773D1*
X1318787Y843269D1*
X1315423Y851390D1*
X1313371Y859938D1*
X1312681Y868701D1*
X1313371Y877464D1*
X1315423Y886012D1*
X1318787Y894133D1*
X1323380Y901629D1*
X1329089Y908313D1*
X1335773Y914022D1*
X1343269Y918615D1*
X1351390Y921979D1*
X1359938Y924031D1*
X1368701Y924721D1*
X1377464Y924031D1*
X1386012Y921979D1*
X1394133Y918615D1*
X1401629Y914022D1*
X1408313Y908313D1*
X1414022Y901629D1*
X1418694Y893962D1*
X1423380Y901629D1*
X1429089Y908313D1*
X1435773Y914022D1*
X1443269Y918615D1*
X1451390Y921979D1*
X1459938Y924031D1*
X1468701Y924721D1*
X1477464Y924031D1*
X1486012Y921979D1*
X1494133Y918615D1*
X1501629Y914022D1*
X1508313Y908313D1*
X1514022Y901629D1*
X1518694Y893962D1*
X1523380Y901629D1*
X1529089Y908313D1*
X1535773Y914022D1*
X1543269Y918615D1*
X1551390Y921979D1*
X1559938Y924031D1*
X1568701Y924721D1*
X1577464Y924031D1*
X1586012Y921979D1*
X1594133Y918615D1*
X1601629Y914022D1*
X1608313Y908313D1*
X1612671Y903342D1*
X1612681Y924721D1*
X1625181D1*
X1125181D2*
X1224721D1*
Y812681D1*
X1112681D1*
Y834019D1*
X1108313Y829089D1*
X1101629Y823380D1*
X1094133Y818787D1*
X1086012Y815423D1*
X1077464Y813371D1*
X1068701Y812681D1*
X1059938Y813371D1*
X1051390Y815423D1*
X1043269Y818787D1*
X1035773Y823380D1*
X1029089Y829089D1*
X1023380Y835773D1*
X1018708Y843440D1*
X1014022Y835773D1*
X1008313Y829089D1*
X1001629Y823380D1*
X994133Y818787D1*
X986012Y815423D1*
X977464Y813371D1*
X968701Y812681D1*
X959938Y813371D1*
X951390Y815423D1*
X943269Y818787D1*
X935773Y823380D1*
X929089Y829089D1*
X923380Y835773D1*
X918708Y843440D1*
X914022Y835773D1*
X908313Y829089D1*
X901629Y823380D1*
X894133Y818787D1*
X886012Y815423D1*
X877464Y813371D1*
X868701Y812681D1*
X859938Y813371D1*
X851390Y815423D1*
X843269Y818787D1*
X835773Y823380D1*
X829089Y829089D1*
X823380Y835773D1*
X818708Y843440D1*
X814022Y835773D1*
X808313Y829089D1*
X801629Y823380D1*
X794133Y818787D1*
X786012Y815423D1*
X777464Y813371D1*
X768701Y812681D1*
X759938Y813371D1*
X751390Y815423D1*
X743269Y818787D1*
X735773Y823380D1*
X729089Y829089D1*
X723380Y835773D1*
X718787Y843269D1*
X715423Y851390D1*
X713371Y859938D1*
X712681Y868701D1*
X713371Y877464D1*
X715423Y886012D1*
X718787Y894133D1*
X723380Y901629D1*
X729089Y908313D1*
X735773Y914022D1*
X743269Y918615D1*
X751390Y921979D1*
X759938Y924031D1*
X768701Y924721D1*
X777464Y924031D1*
X786012Y921979D1*
X794133Y918615D1*
X801629Y914022D1*
X808313Y908313D1*
X814022Y901629D1*
X818694Y893962D1*
X823380Y901629D1*
X829089Y908313D1*
X835773Y914022D1*
X843269Y918615D1*
X851390Y921979D1*
X859938Y924031D1*
X868701Y924721D1*
X877464Y924031D1*
X886012Y921979D1*
X894133Y918615D1*
X901629Y914022D1*
X908313Y908313D1*
X914022Y901629D1*
X918694Y893962D1*
X923380Y901629D1*
X929089Y908313D1*
X935773Y914022D1*
X943269Y918615D1*
X951390Y921979D1*
X959938Y924031D1*
X968701Y924721D1*
X977464Y924031D1*
X986012Y921979D1*
X994133Y918615D1*
X1001629Y914022D1*
X1008313Y908313D1*
X1014022Y901629D1*
X1018694Y893962D1*
X1023380Y901629D1*
X1029089Y908313D1*
X1035773Y914022D1*
X1043269Y918615D1*
X1051390Y921979D1*
X1059938Y924031D1*
X1068701Y924721D1*
X1077464Y924031D1*
X1086012Y921979D1*
X1094133Y918615D1*
X1101629Y914022D1*
X1108313Y908313D1*
X1112671Y903342D1*
X1112681Y924721D1*
X1125181D1*
X2290415Y1093734D2*
X2284926Y1097213D1*
X2278069Y1103069D1*
X2272213Y1109926D1*
X2267502Y1117614D1*
X2264051Y1125944D1*
X2261947Y1134712D1*
X2261239Y1143701D1*
X2261388Y1147487D1*
X2219306Y1118517D1*
X2212732Y1115354D1*
X2205744Y1113258D1*
X2198514Y1112281D1*
X1974487Y1112209D1*
X1969707Y1073725D1*
X1975007Y1081020D1*
X1981382Y1087395D1*
X1988677Y1092695D1*
X1996711Y1096789D1*
X2005287Y1099575D1*
X2014193Y1100986D1*
X2023209D1*
X2032115Y1099575D1*
X2040691Y1096789D1*
X2048725Y1092695D1*
X2056020Y1087395D1*
X2062395Y1081020D1*
X2067695Y1073725D1*
X2068668Y1071987D1*
X2072213Y1077476D1*
X2078069Y1084333D1*
X2084926Y1090189D1*
X2092614Y1094900D1*
X2100944Y1098351D1*
X2109278Y1101034D1*
X2116309Y1102433D1*
X2123471Y1102151D1*
X2130370Y1100205D1*
X2136458Y1098351D1*
X2144788Y1094900D1*
X2152476Y1090189D1*
X2159333Y1084333D1*
X2165189Y1077476D1*
X2168668Y1071987D1*
X2172213Y1077476D1*
X2178069Y1084333D1*
X2184926Y1090189D1*
X2192614Y1094900D1*
X2200944Y1098351D1*
X2209712Y1100455D1*
X2218701Y1101163D1*
X2227690Y1100455D1*
X2236458Y1098351D1*
X2244788Y1094900D1*
X2252476Y1090189D1*
X2259333Y1084333D1*
X2265189Y1077476D1*
X2268668Y1071987D1*
X2272213Y1077476D1*
X2278069Y1084333D1*
X2284926Y1090189D1*
X2290415Y1093668D1*
X990415Y1593734D2*
X984926Y1597213D1*
X978069Y1603069D1*
X972213Y1609926D1*
X968734Y1615415D1*
X965189Y1609926D1*
X959333Y1603069D1*
X952476Y1597213D1*
X946987Y1593734D1*
X952476Y1590189D1*
X959333Y1584333D1*
X965189Y1577476D1*
X968668Y1571987D1*
X972213Y1577476D1*
X978069Y1584333D1*
X984926Y1590189D1*
X990415Y1593668D1*
X890415Y1593734D2*
X884926Y1597213D1*
X878069Y1603069D1*
X872213Y1609926D1*
X868734Y1615415D1*
X865189Y1609926D1*
X859333Y1603069D1*
X852476Y1597213D1*
X846987Y1593734D1*
X852476Y1590189D1*
X859333Y1584333D1*
X865189Y1577476D1*
X868668Y1571987D1*
X872213Y1577476D1*
X878069Y1584333D1*
X884926Y1590189D1*
X890415Y1593668D1*
X2861426Y1005334D2*
X2856020Y1000007D1*
X2848725Y994707D1*
X2839616Y990217D1*
X2876642Y962157D1*
X2940592Y959908D1*
X2861472Y1005308D1*
X2847725Y1594147D2*
X2840691Y1590613D1*
X2832115Y1587827D1*
X2823209Y1586416D1*
X2814193D1*
X2805287Y1587827D1*
X2796711Y1590613D1*
X2788677Y1594707D1*
X2781382Y1600007D1*
X2775007Y1606382D1*
X2769707Y1613677D1*
X2768734Y1615415D1*
X2765189Y1609926D1*
X2759333Y1603069D1*
X2752476Y1597213D1*
X2744788Y1592502D1*
X2736458Y1589051D1*
X2727690Y1586947D1*
X2718701Y1586239D1*
X2709712Y1586947D1*
X2700944Y1589051D1*
X2697984Y1590143D1*
X2697758Y1540964D1*
X2720754Y1501129D1*
X2727707Y1500452D1*
X2729484Y1508068D1*
X2732276Y1514808D1*
X2736088Y1521028D1*
X2740826Y1526576D1*
X2746374Y1531314D1*
X2752594Y1535126D1*
X2759334Y1537918D1*
X2766428Y1539621D1*
X2773701Y1540193D1*
X2780974Y1539621D1*
X2788068Y1537918D1*
X2794808Y1535126D1*
X2801028Y1531314D1*
X2806576Y1526576D1*
X2811314Y1521028D1*
X2815126Y1514808D1*
X2817918Y1508068D1*
X2819585Y1501156D1*
X2827690Y1500455D1*
X2836458Y1498351D1*
X2844788Y1494900D1*
X2847725Y1493255D1*
X2847704Y1594140D1*
X2637036Y1589265D2*
X2627690Y1586947D1*
X2618701Y1586239D1*
X2609712Y1586947D1*
X2600944Y1589051D1*
X2593334Y1592170D1*
X2592285Y1550377D1*
X2620778Y1501088D1*
X2627690Y1500455D1*
X2636458Y1498351D1*
X2644788Y1494900D1*
X2652476Y1490189D1*
X2659333Y1484333D1*
X2661044Y1482582D1*
X2639701Y1519737D1*
X2637397Y1526524D1*
X2636748Y1533765D1*
X2637022Y1589222D1*
X2443492Y1591904D2*
X2436458Y1589051D1*
X2427690Y1586947D1*
X2418701Y1586239D1*
X2409712Y1586947D1*
X2400944Y1589051D1*
X2397951Y1590156D1*
X2397698Y1541066D1*
X2420742Y1501150D1*
X2427690Y1500455D1*
X2436458Y1498351D1*
X2444788Y1494900D1*
X2452476Y1490189D1*
X2459333Y1484333D1*
X2461044Y1482581D1*
X2448167Y1505072D1*
X2445863Y1511860D1*
X2445205Y1517491D1*
X2443476Y1591836D1*
X2290415Y1593734D2*
X2284926Y1597213D1*
X2278069Y1603069D1*
X2272213Y1609926D1*
X2268734Y1615415D1*
X2265189Y1609926D1*
X2259333Y1603069D1*
X2252476Y1597213D1*
X2244788Y1592502D1*
X2236458Y1589051D1*
X2227690Y1586947D1*
X2218701Y1586239D1*
X2209712Y1586947D1*
X2200944Y1589051D1*
X2197918Y1590168D1*
X2204936Y1584193D1*
X2278069Y1584333D1*
X2284926Y1590189D1*
X2290415Y1593668D1*
X2532268Y1587870D2*
X2523209Y1586416D1*
X2514193D1*
X2504557Y1588032D1*
X2505993Y1526667D1*
X2520773Y1501097D1*
X2527690Y1500455D1*
X2536458Y1498351D1*
X2544788Y1494900D1*
X2552476Y1490189D1*
X2559333Y1484333D1*
X2561044Y1482582D1*
X2534061Y1529506D1*
X2531757Y1536293D1*
X2531101Y1543431D1*
X2532247Y1587886D1*
X2168734Y1371987D2*
X2172213Y1377476D1*
X2178069Y1384333D1*
X2184926Y1390189D1*
X2190415Y1393668D1*
X2184926Y1397213D1*
X2178069Y1403069D1*
X2172213Y1409926D1*
X2168734Y1415415D1*
X2165189Y1409926D1*
X2159333Y1403069D1*
X2152476Y1397213D1*
X2146987Y1393734D1*
X2152476Y1390189D1*
X2159333Y1384333D1*
X2165189Y1377476D1*
X2168668Y1371987D1*
X2068734D2*
X2072213Y1377476D1*
X2078069Y1384333D1*
X2084926Y1390189D1*
X2090415Y1393668D1*
X2084926Y1397213D1*
X2078069Y1403069D1*
X2072213Y1409926D1*
X2068734Y1415415D1*
X2065189Y1409926D1*
X2059333Y1403069D1*
X2052476Y1397213D1*
X2046987Y1393734D1*
X2052476Y1390189D1*
X2059333Y1384333D1*
X2065189Y1377476D1*
X2068668Y1371987D1*
X1475986Y1339193D2*
X1474575Y1330287D1*
X1471789Y1321711D1*
X1467695Y1313677D1*
X1462395Y1306382D1*
X1456020Y1300007D1*
X1448725Y1294707D1*
X1440691Y1290613D1*
X1432115Y1287827D1*
X1423209Y1286416D1*
X1414193D1*
X1405287Y1287827D1*
X1396711Y1290613D1*
X1388677Y1294707D1*
X1381382Y1300007D1*
X1375007Y1306382D1*
X1369707Y1313677D1*
X1368734Y1315415D1*
X1365189Y1309926D1*
X1359333Y1303069D1*
X1352476Y1297213D1*
X1344788Y1292502D1*
X1336458Y1289051D1*
X1327690Y1286947D1*
X1318701Y1286239D1*
X1309712Y1286947D1*
X1300944Y1289051D1*
X1292614Y1292502D1*
X1284926Y1297213D1*
X1278069Y1303069D1*
X1272213Y1309926D1*
X1268734Y1315415D1*
X1265189Y1309926D1*
X1259333Y1303069D1*
X1252476Y1297213D1*
X1244788Y1292502D1*
X1236458Y1289051D1*
X1227690Y1286947D1*
X1218701Y1286239D1*
X1209712Y1286947D1*
X1200944Y1289051D1*
X1192614Y1292502D1*
X1184926Y1297213D1*
X1178069Y1303069D1*
X1172213Y1309926D1*
X1168734Y1315415D1*
X1165189Y1309926D1*
X1159333Y1303069D1*
X1152476Y1297213D1*
X1144788Y1292502D1*
X1136458Y1289051D1*
X1127690Y1286947D1*
X1118701Y1286239D1*
X1109712Y1286947D1*
X1100944Y1289051D1*
X1092614Y1292502D1*
X1084926Y1297213D1*
X1078069Y1303069D1*
X1072213Y1309926D1*
X1067502Y1317614D1*
X1064051Y1325944D1*
X1061947Y1334712D1*
X1061239Y1343701D1*
X1061947Y1352690D1*
X1064051Y1361458D1*
X1067502Y1369788D1*
X1072213Y1377476D1*
X1078069Y1384333D1*
X1084926Y1390189D1*
X1090415Y1393668D1*
X1084926Y1397213D1*
X1078069Y1403069D1*
X1072213Y1409926D1*
X1067502Y1417614D1*
X1064051Y1425944D1*
X1061947Y1434712D1*
X1061239Y1443701D1*
X1061947Y1452690D1*
X1064051Y1461458D1*
X1067502Y1469788D1*
X1072213Y1477476D1*
X1078069Y1484333D1*
X1084926Y1490189D1*
X1092614Y1494900D1*
X1100944Y1498351D1*
X1109712Y1500455D1*
X1118701Y1501163D1*
X1127690Y1500455D1*
X1136458Y1498351D1*
X1144788Y1494900D1*
X1152476Y1490189D1*
X1159333Y1484333D1*
X1165189Y1477476D1*
X1168668Y1471987D1*
X1172213Y1477476D1*
X1178069Y1484333D1*
X1184926Y1490189D1*
X1192614Y1494900D1*
X1200944Y1498351D1*
X1209712Y1500455D1*
X1218701Y1501163D1*
X1227690Y1500455D1*
X1236458Y1498351D1*
X1244788Y1494900D1*
X1252476Y1490189D1*
X1259333Y1484333D1*
X1265189Y1477476D1*
X1268668Y1471987D1*
X1272213Y1477476D1*
X1278069Y1484333D1*
X1284926Y1490189D1*
X1292614Y1494900D1*
X1300944Y1498351D1*
X1309712Y1500455D1*
X1318701Y1501163D1*
X1327690Y1500455D1*
X1336458Y1498351D1*
X1344788Y1494900D1*
X1352476Y1490189D1*
X1359333Y1484333D1*
X1365189Y1477476D1*
X1368668Y1471987D1*
X1372213Y1477476D1*
X1378069Y1484333D1*
X1384926Y1490189D1*
X1392614Y1494900D1*
X1400944Y1498351D1*
X1409712Y1500455D1*
X1418701Y1501163D1*
X1427690Y1500455D1*
X1436458Y1498351D1*
X1444788Y1494900D1*
X1452476Y1490189D1*
X1459333Y1484333D1*
X1465189Y1477476D1*
X1469900Y1469788D1*
X1473351Y1461458D1*
X1475455Y1452690D1*
X1476163Y1443701D1*
X1475455Y1434712D1*
X1473351Y1425944D1*
X1469900Y1417614D1*
X1465189Y1409926D1*
X1459333Y1403069D1*
X1452476Y1397213D1*
X1446987Y1393734D1*
X1452476Y1390189D1*
X1459333Y1384333D1*
X1465189Y1377476D1*
X1469900Y1369788D1*
X1473351Y1361458D1*
X1475455Y1352690D1*
X1476163Y1343701D1*
X1475986Y1339193D1*
X1368734Y1371987D2*
X1372213Y1377476D1*
X1378069Y1384333D1*
X1384926Y1390189D1*
X1390415Y1393668D1*
X1384926Y1397213D1*
X1378069Y1403069D1*
X1372213Y1409926D1*
X1368734Y1415415D1*
X1365189Y1409926D1*
X1359333Y1403069D1*
X1352476Y1397213D1*
X1346987Y1393734D1*
X1352476Y1390189D1*
X1359333Y1384333D1*
X1365189Y1377476D1*
X1368668Y1371987D1*
X1268734D2*
X1272213Y1377476D1*
X1278069Y1384333D1*
X1284926Y1390189D1*
X1290415Y1393668D1*
X1284926Y1397213D1*
X1278069Y1403069D1*
X1272213Y1409926D1*
X1268734Y1415415D1*
X1265189Y1409926D1*
X1259333Y1403069D1*
X1252476Y1397213D1*
X1246987Y1393734D1*
X1252476Y1390189D1*
X1259333Y1384333D1*
X1265189Y1377476D1*
X1268668Y1371987D1*
X1168734D2*
X1172213Y1377476D1*
X1178069Y1384333D1*
X1184926Y1390189D1*
X1190415Y1393668D1*
X1184926Y1397213D1*
X1178069Y1403069D1*
X1172213Y1409926D1*
X1168734Y1415415D1*
X1165189Y1409926D1*
X1159333Y1403069D1*
X1152476Y1397213D1*
X1146987Y1393734D1*
X1152476Y1390189D1*
X1159333Y1384333D1*
X1165189Y1377476D1*
X1168668Y1371987D1*
X818668Y1165415D2*
X815189Y1159926D1*
X809333Y1153069D1*
X802476Y1147213D1*
X794788Y1142502D1*
X786458Y1139051D1*
X777690Y1136947D1*
X768701Y1136239D1*
X759712Y1136947D1*
X750944Y1139051D1*
X742614Y1142502D1*
X734926Y1147213D1*
X728069Y1153069D1*
X722213Y1159926D1*
X717502Y1167614D1*
X714051Y1175944D1*
X711947Y1184712D1*
X711239Y1193701D1*
X711947Y1202690D1*
X714051Y1211458D1*
X717502Y1219788D1*
X722213Y1227476D1*
X728069Y1234333D1*
X734926Y1240189D1*
X742614Y1244900D1*
X750944Y1248351D1*
X759712Y1250455D1*
X768701Y1251163D1*
X777690Y1250455D1*
X786458Y1248351D1*
X794788Y1244900D1*
X802476Y1240189D1*
X809333Y1234333D1*
X815189Y1227476D1*
X818668Y1221987D1*
X822213Y1227476D1*
X828069Y1234333D1*
X834926Y1240189D1*
X842614Y1244900D1*
X850944Y1248351D1*
X859712Y1250455D1*
X868701Y1251163D1*
X877690Y1250455D1*
X886458Y1248351D1*
X894788Y1244900D1*
X902476Y1240189D1*
X909333Y1234333D1*
X915189Y1227476D1*
X918668Y1221987D1*
X922213Y1227476D1*
X928069Y1234333D1*
X934926Y1240189D1*
X942614Y1244900D1*
X950944Y1248351D1*
X959712Y1250455D1*
X968701Y1251163D1*
X977690Y1250455D1*
X986458Y1248351D1*
X994788Y1244900D1*
X1002476Y1240189D1*
X1009333Y1234333D1*
X1015189Y1227476D1*
X1018668Y1221987D1*
X1022213Y1227476D1*
X1028069Y1234333D1*
X1034926Y1240189D1*
X1042614Y1244900D1*
X1050944Y1248351D1*
X1059712Y1250455D1*
X1068701Y1251163D1*
X1077690Y1250455D1*
X1086458Y1248351D1*
X1094788Y1244900D1*
X1102476Y1240189D1*
X1109333Y1234333D1*
X1115189Y1227476D1*
X1118668Y1221987D1*
X1122213Y1227476D1*
X1128069Y1234333D1*
X1134926Y1240189D1*
X1142614Y1244900D1*
X1150944Y1248351D1*
X1159712Y1250455D1*
X1168701Y1251163D1*
X1177690Y1250455D1*
X1186458Y1248351D1*
X1194788Y1244900D1*
X1202476Y1240189D1*
X1209333Y1234333D1*
X1215189Y1227476D1*
X1219900Y1219788D1*
X1223351Y1211458D1*
X1225455Y1202690D1*
X1226163Y1193701D1*
X1225455Y1184712D1*
X1223351Y1175944D1*
X1219900Y1167614D1*
X1215189Y1159926D1*
X1209333Y1153069D1*
X1202476Y1147213D1*
X1194788Y1142502D1*
X1186458Y1139051D1*
X1177690Y1136947D1*
X1168701Y1136239D1*
X1159712Y1136947D1*
X1150944Y1139051D1*
X1142614Y1142502D1*
X1134926Y1147213D1*
X1128069Y1153069D1*
X1122213Y1159926D1*
X1118734Y1165415D1*
X1115189Y1159926D1*
X1109333Y1153069D1*
X1102476Y1147213D1*
X1094788Y1142502D1*
X1086458Y1139051D1*
X1077690Y1136947D1*
X1068701Y1136239D1*
X1059712Y1136947D1*
X1050944Y1139051D1*
X1042614Y1142502D1*
X1034926Y1147213D1*
X1028069Y1153069D1*
X1022213Y1159926D1*
X1018734Y1165415D1*
X1015189Y1159926D1*
X1009333Y1153069D1*
X1002476Y1147213D1*
X994788Y1142502D1*
X986458Y1139051D1*
X977690Y1136947D1*
X968701Y1136239D1*
X959712Y1136947D1*
X950944Y1139051D1*
X942614Y1142502D1*
X934926Y1147213D1*
X928069Y1153069D1*
X922213Y1159926D1*
X918734Y1165415D1*
X915189Y1159926D1*
X909333Y1153069D1*
X902476Y1147213D1*
X894788Y1142502D1*
X886458Y1139051D1*
X877690Y1136947D1*
X868701Y1136239D1*
X859712Y1136947D1*
X850944Y1139051D1*
X842614Y1142502D1*
X834926Y1147213D1*
X828069Y1153069D1*
X822213Y1159926D1*
X818734Y1165415D1*
X2967589Y818075D2*
X2961012Y815423D1*
X2952464Y813371D1*
X2943701Y812681D1*
X2934938Y813371D1*
X2926390Y815423D1*
X2924278Y816202D1*
X2944492Y792626D1*
X2987538Y787844D1*
X2977371Y795101D1*
X2972729Y800562D1*
X2969491Y806957D1*
X2967834Y813931D1*
X2967590Y818064D1*
X2888676Y858404D2*
X2887854Y864306D1*
Y873096D1*
X2889229Y881779D1*
X2891946Y890139D1*
X2895936Y897971D1*
X2897569Y900414D1*
X2862404Y901757D1*
X2855428Y903405D1*
X2849029Y906635D1*
X2846317Y908614D1*
X2888641Y858464D1*
X3145784Y1582212D2*
Y1533872D1*
X3167888Y1556010D1*
X3167209Y1563701D1*
X3167781Y1570974D1*
X3169484Y1578068D1*
X3171088Y1582231D1*
X3145820Y1582209D1*
X3113997Y1497524D2*
X3076985D1*
X3068810Y1421389D1*
X3087927Y1445295D1*
X3114008Y1497497D1*
X3041618Y1570424D2*
Y1582241D1*
X2960053Y1582352D1*
X2952848Y1583493D1*
X2945909Y1585748D1*
X2942258Y1587464D1*
X2940688Y1583649D1*
Y1497955D1*
X2945865Y1500130D1*
X2951709Y1501533D1*
X2955083Y1501901D1*
X2959409Y1503342D1*
X2965909Y1506654D1*
X2972848Y1508909D1*
X2980053Y1510050D1*
X2987349D1*
X2994554Y1508909D1*
X3001493Y1506654D1*
X3007993Y1503342D1*
X3011958Y1500581D1*
X3016765Y1544687D1*
X3019045Y1551977D1*
X3022963Y1558533D1*
X3028304Y1563993D1*
X3034772Y1568056D1*
X3040484Y1570124D1*
X3746213Y506916D2*
X3740814Y494220D1*
X3736632Y486753D1*
X3731877Y479637D1*
X3726579Y472916D1*
X3720770Y466632D1*
X3714486Y460823D1*
X3707765Y455525D1*
X3700649Y450770D1*
X3693182Y446588D1*
X3680486Y441189D1*
X3690696Y441201D1*
X3707231Y443392D1*
X3719783Y448605D1*
X3730566Y456892D1*
X3738837Y467688D1*
X3744033Y480257D1*
X3746217Y496924D1*
X506916Y441189D2*
X494220Y446588D1*
X486753Y450770D1*
X479637Y455525D1*
X472916Y460823D1*
X466632Y466632D1*
X460823Y472916D1*
X455525Y479637D1*
X450770Y486753D1*
X446588Y494220D1*
X441189Y506916D1*
X441201Y496706D1*
X443392Y480171D1*
X448605Y467619D1*
X456893Y456835D1*
X467689Y448564D1*
X480257Y443369D1*
X496925Y441186D1*
X441189Y2180486D2*
X446588Y2193182D1*
X450770Y2200649D1*
X455525Y2207765D1*
X460823Y2214486D1*
X466632Y2220770D1*
X472916Y2226579D1*
X479637Y2231877D1*
X486753Y2236632D1*
X494220Y2240814D1*
X506916Y2246213D1*
X496706Y2246201D1*
X480171Y2244010D1*
X467619Y2238797D1*
X456836Y2230510D1*
X448565Y2219714D1*
X443372Y2207147D1*
X441188Y2190475D1*
X580486Y2246213D2*
X593182Y2240814D1*
X600649Y2236632D1*
X607765Y2231877D1*
X614486Y2226579D1*
X620770Y2220770D1*
X626579Y2214486D1*
X632973Y2206125D1*
X638348Y2213895D1*
X670485Y2246234D1*
X580715Y2246201D1*
X3003500Y1421673D2*
X2998068Y1419484D1*
X2990974Y1417781D1*
X2983701Y1417209D1*
X2976428Y1417781D1*
X2968090Y1419943D1*
X2962577Y1414575D1*
X2957714Y1411042D1*
X2952359Y1408313D1*
X2946643Y1406456D1*
X2940671Y1405514D1*
X2940688Y1331640D1*
X2963695Y1354646D1*
X3002314Y1410448D1*
X3003480Y1421631D1*
D29*
X3408701Y2168701D3*
D30*
X3487441D3*
D29*
X2193701Y588701D3*
D30*
Y509961D3*
D29*
X3103701Y2018701D3*
D30*
X3182441D3*
D31*
X2308701Y2068701D3*
D32*
Y2168701D3*
X2408701Y2068701D3*
Y2168701D3*
X2508701Y2068701D3*
Y2168701D3*
X2608701Y2068701D3*
Y2168701D3*
X2708701Y2068701D3*
Y2168701D3*
X2808701Y2068701D3*
Y2168701D3*
X2908701Y2068701D3*
Y2168701D3*
D31*
X1543701Y2068701D3*
D32*
Y2168701D3*
X1643701Y2068701D3*
Y2168701D3*
X1743701Y2068701D3*
Y2168701D3*
X1843701Y2068701D3*
Y2168701D3*
D31*
X743701Y2068701D3*
D32*
Y2168701D3*
X843701Y2068701D3*
Y2168701D3*
X943701Y2068701D3*
Y2168701D3*
X1043701Y2068701D3*
Y2168701D3*
X1143701Y2068701D3*
Y2168701D3*
X1243701Y2068701D3*
Y2168701D3*
X1343701Y2068701D3*
Y2168701D3*
D31*
X743701Y518701D3*
D32*
Y618701D3*
X843701Y518701D3*
Y618701D3*
X943701Y518701D3*
Y618701D3*
X1043701Y518701D3*
Y618701D3*
X1143701Y518701D3*
Y618701D3*
X1243701Y518701D3*
Y618701D3*
X1343701Y518701D3*
Y618701D3*
X1443701Y518701D3*
Y618701D3*
D31*
X1643701Y518701D3*
D32*
Y618701D3*
X1743701Y518701D3*
Y618701D3*
X1843701Y518701D3*
Y618701D3*
X1943701Y518701D3*
Y618701D3*
X2043701Y518701D3*
Y618701D3*
D31*
X2743701Y518701D3*
D32*
Y618701D3*
X2843701Y518701D3*
Y618701D3*
X2943701Y518701D3*
Y618701D3*
X3043701Y518701D3*
Y618701D3*
X3143701Y518701D3*
Y618701D3*
X3243701Y518701D3*
Y618701D3*
D31*
X2343701Y518701D3*
D32*
Y618701D3*
X2443701Y518701D3*
Y618701D3*
X2543701Y518701D3*
Y618701D3*
D33*
X3348701Y1793701D3*
X3584921D3*
X3466811Y1978740D3*
D31*
X513701Y1813701D3*
D32*
Y1913701D3*
X613701Y1813701D3*
Y1913701D3*
D35*
X3693701Y1168701D3*
X3593701D3*
X3493701D3*
X3693701Y953701D3*
X3593701D3*
X3493701D3*
X3693701Y743701D3*
X3593701D3*
X3493701D3*
D36*
X3093701Y1543701D3*
D37*
Y1493701D3*
D31*
X743701Y718701D3*
D32*
X843701D3*
X943701D3*
X1043701D3*
X1143701D3*
X1243701D3*
X1343701D3*
X1443701D3*
D31*
X2043701D3*
D32*
X1943701D3*
X1843701D3*
X1743701D3*
X1643701D3*
D31*
X2743701D3*
D32*
X2843701D3*
X2943701D3*
X3043701D3*
X3143701D3*
X3243701D3*
D31*
X2468701Y868701D3*
D32*
X2568701D3*
X2668701D3*
X2768701D3*
D31*
X2908701Y1968701D3*
D32*
X2808701D3*
X2708701D3*
X2608701D3*
X2508701D3*
X2408701D3*
X2308701D3*
D31*
X2068701Y868701D3*
D32*
X2168701D3*
X2268701D3*
D31*
X1543701Y1968701D3*
D32*
X1643701D3*
X1743701D3*
X1843701D3*
D31*
X743701D3*
D32*
X843701D3*
X943701D3*
X1043701D3*
X1143701D3*
X1243701D3*
X1343701D3*
D31*
X1668701Y1818701D3*
D32*
X1568701D3*
X1468701D3*
X1368701D3*
D31*
X1968701D3*
D32*
X1868701D3*
X1768701D3*
D31*
X2668701D3*
D32*
X2568701D3*
X2468701D3*
X2368701D3*
D31*
X768701D3*
D32*
X868701D3*
X968701D3*
X1068701D3*
D31*
X2218701D3*
D32*
X2118701D3*
D31*
X2343701Y718701D3*
D32*
X2443701D3*
X2543701D3*
D31*
X1668701Y868701D3*
D32*
X1568701D3*
X1468701D3*
X1368701D3*
D31*
X3243701D3*
D32*
X3143701D3*
X3043701D3*
X2943701D3*
D31*
X1168701D3*
D32*
X1068701D3*
X968701D3*
X868701D3*
X768701D3*
D31*
X3043701Y1718701D3*
D32*
Y1818701D3*
X3143701Y1718701D3*
Y1818701D3*
D45*
X518701Y1043701D3*
X618701D3*
X718701D3*
X818701D3*
X918701D3*
X1018701D3*
X1118701D3*
X1218701D3*
X1318701D3*
X1418701D3*
X1518701D3*
X1618701D3*
X1718701D3*
X1818701D3*
X2318701Y1143701D3*
Y1243701D3*
Y1343701D3*
Y1443701D3*
X2118701Y1643701D3*
X1818701D3*
X1718701D3*
X1618701D3*
X1518701D3*
X1418701D3*
X1318701D3*
X1218701D3*
X1118701D3*
X1018701D3*
X918701D3*
X818701D3*
X718701D3*
X618701D3*
X518701D3*
X618701Y1543701D3*
X818701D3*
X918701D3*
X1018701D3*
X2418701Y1043701D3*
X2518701D3*
X2318701D3*
X2218701D3*
X2118701D3*
X2018701D3*
X2618701D3*
X2718701D3*
X2818701D3*
Y1643701D3*
X1918701Y1043701D3*
X2718701Y1643701D3*
X1918701D3*
X2618701D3*
X2418701D3*
X2318701D3*
X2218701D3*
X2518701D3*
X2018701D3*
X2318701Y1543701D3*
X2818701Y1343701D3*
X2718701D3*
X2618701D3*
X2818701Y1443701D3*
X2718701D3*
X2618701D3*
X2518701D3*
X2418701D3*
X2518701Y1343701D3*
X2418701D3*
X2218701D3*
X2118701D3*
X2018701D3*
X2218701Y1443701D3*
X2118701D3*
X2018701D3*
X1418701Y1343701D3*
X1318701D3*
X1218701D3*
X1418701Y1443701D3*
X1318701D3*
X1218701D3*
X1118701D3*
Y1343701D3*
X768701Y1193701D3*
X868701D3*
X968701D3*
X1068701D3*
X1168701D3*
D46*
X3483701Y1413701D3*
D47*
X3583701D3*
X3683701D3*
M02*
