M48
INCH
T01C0.0191
T02C0.0276
T03C0.0295
T04C0.0354
T05C0.038
T06C0.04
T07C0.118
T08C0.125
%
T03
X+034087Y+021687
X+034874Y+021687
X+021937Y+005887
X+021937Y+005100
X+031037Y+020187
X+031824Y+020187
T04
X+023087Y+020687
X+023087Y+021687
X+024087Y+020687
X+024087Y+021687
X+025087Y+020687
X+025087Y+021687
X+026087Y+020687
X+026087Y+021687
X+027087Y+020687
X+027087Y+021687
X+028087Y+020687
X+028087Y+021687
X+029087Y+020687
X+029087Y+021687
X+015437Y+020687
X+015437Y+021687
X+016437Y+020687
X+016437Y+021687
X+017437Y+020687
X+017437Y+021687
X+018437Y+020687
X+018437Y+021687
X+007437Y+020687
X+007437Y+021687
X+008437Y+020687
X+008437Y+021687
X+009437Y+020687
X+009437Y+021687
X+010437Y+020687
X+010437Y+021687
X+011437Y+020687
X+011437Y+021687
X+012437Y+020687
X+012437Y+021687
X+013437Y+020687
X+013437Y+021687
X+007437Y+005187
X+007437Y+006187
X+008437Y+005187
X+008437Y+006187
X+009437Y+005187
X+009437Y+006187
X+010437Y+005187
X+010437Y+006187
X+011437Y+005187
X+011437Y+006187
X+012437Y+005187
X+012437Y+006187
X+013437Y+005187
X+013437Y+006187
X+014437Y+005187
X+014437Y+006187
X+016437Y+005187
X+016437Y+006187
X+017437Y+005187
X+017437Y+006187
X+018437Y+005187
X+018437Y+006187
X+019437Y+005187
X+019437Y+006187
X+020437Y+005187
X+020437Y+006187
X+027437Y+005187
X+027437Y+006187
X+028437Y+005187
X+028437Y+006187
X+029437Y+005187
X+029437Y+006187
X+030437Y+005187
X+030437Y+006187
X+031437Y+005187
X+031437Y+006187
X+032437Y+005187
X+032437Y+006187
X+023437Y+005187
X+023437Y+006187
X+024437Y+005187
X+024437Y+006187
X+025437Y+005187
X+025437Y+006187
T07
X+033487Y+017937
X+035849Y+017937
X+034668Y+019787
T04
X+005137Y+018137
X+005137Y+019137
X+006137Y+018137
X+006137Y+019137
T06
X+036937Y+011687
X+035937Y+011687
X+034937Y+011687
X+036937Y+009537
X+035937Y+009537
X+034937Y+009537
X+036937Y+007437
X+035937Y+007437
X+034937Y+007437
T02
X+030937Y+015437
X+030937Y+014937
T04
X+007437Y+007187
X+008437Y+007187
X+009437Y+007187
X+010437Y+007187
X+011437Y+007187
X+012437Y+007187
X+013437Y+007187
X+014437Y+007187
X+020437Y+007187
X+019437Y+007187
X+018437Y+007187
X+017437Y+007187
X+016437Y+007187
X+027437Y+007187
X+028437Y+007187
X+029437Y+007187
X+030437Y+007187
X+031437Y+007187
X+032437Y+007187
X+024687Y+008687
X+025687Y+008687
X+026687Y+008687
X+027687Y+008687
X+029087Y+019687
X+028087Y+019687
X+027087Y+019687
X+026087Y+019687
X+025087Y+019687
X+024087Y+019687
X+023087Y+019687
X+020687Y+008687
X+021687Y+008687
X+022687Y+008687
X+015437Y+019687
X+016437Y+019687
X+017437Y+019687
X+018437Y+019687
X+007437Y+019687
X+008437Y+019687
X+009437Y+019687
X+010437Y+019687
X+011437Y+019687
X+012437Y+019687
X+013437Y+019687
X+016687Y+018187
X+015687Y+018187
X+014687Y+018187
X+013687Y+018187
X+019687Y+018187
X+018687Y+018187
X+017687Y+018187
X+026687Y+018187
X+025687Y+018187
X+024687Y+018187
X+023687Y+018187
X+007687Y+018187
X+008687Y+018187
X+009687Y+018187
X+010687Y+018187
X+022187Y+018187
X+021187Y+018187
X+023437Y+007187
X+024437Y+007187
X+025437Y+007187
X+016687Y+008687
X+015687Y+008687
X+014687Y+008687
X+013687Y+008687
X+032437Y+008687
X+031437Y+008687
X+030437Y+008687
X+029437Y+008687
X+011687Y+008687
X+010687Y+008687
X+009687Y+008687
X+008687Y+008687
X+007687Y+008687
X+030437Y+017187
X+030437Y+018187
X+031437Y+017187
X+031437Y+018187
T08
X+036437Y+005437
X+005437Y+005437
X+005437Y+021437
X+036437Y+021187
T05
X+005187Y+010437
X+006187Y+010437
X+007187Y+010437
X+008187Y+010437
X+009187Y+010437
X+010187Y+010437
X+011187Y+010437
X+012187Y+010437
X+013187Y+010437
X+014187Y+010437
X+015187Y+010437
X+016187Y+010437
X+017187Y+010437
X+018187Y+010437
X+023187Y+011437
X+023187Y+012437
X+023187Y+013437
X+023187Y+014437
X+021187Y+016437
X+018187Y+016437
X+017187Y+016437
X+016187Y+016437
X+015187Y+016437
X+014187Y+016437
X+013187Y+016437
X+012187Y+016437
X+011187Y+016437
X+010187Y+016437
X+009187Y+016437
X+008187Y+016437
X+007187Y+016437
X+006187Y+016437
X+005187Y+016437
X+006187Y+015437
X+008187Y+015437
X+009187Y+015437
X+010187Y+015437
X+024187Y+010437
X+025187Y+010437
X+023187Y+010437
X+022187Y+010437
X+021187Y+010437
X+020187Y+010437
X+026187Y+010437
X+027187Y+010437
X+028187Y+010437
X+028187Y+016437
X+019187Y+010437
X+027187Y+016437
X+019187Y+016437
X+026187Y+016437
X+024187Y+016437
X+023187Y+016437
X+022187Y+016437
X+025187Y+016437
X+020187Y+016437
X+023187Y+015437
X+028187Y+013437
X+027187Y+013437
X+026187Y+013437
X+028187Y+014437
X+027187Y+014437
X+026187Y+014437
X+025187Y+014437
X+024187Y+014437
X+025187Y+013437
X+024187Y+013437
X+022187Y+013437
X+021187Y+013437
X+020187Y+013437
X+022187Y+014437
X+021187Y+014437
X+020187Y+014437
X+014187Y+013437
X+013187Y+013437
X+012187Y+013437
X+014187Y+014437
X+013187Y+014437
X+012187Y+014437
X+011187Y+014437
X+011187Y+013437
X+007687Y+011937
X+008687Y+011937
X+009687Y+011937
X+010687Y+011937
X+011687Y+011937
T06
X+034837Y+014137
X+035837Y+014137
X+036837Y+014137
T01
X+030087Y+022237
X+031337Y+011937
X+029837Y+014637
X+028237Y+011137
X+032587Y+013737
X+034137Y+010137
X+024937Y+006737
X+030337Y+011937
X+032137Y+015637
X+027737Y+014937
X+029387Y+011437
X+031271Y+011037
X+032087Y+014629
X+021037Y+020437
T00
M30
