G04 DipTrace 3.0.0.2*
G04 TeensyArbotixProRPIT3.6.gto*
%MOIN*%
G04 #@! TF.FileFunction,Legend,Top*
G04 #@! TF.Part,Single*
%ADD10C,0.009843*%
%ADD19C,0.008*%
%ADD44C,0.006*%
%ADD45C,0.005*%
%ADD49C,0.011811*%
%ADD54C,0.015401*%
%ADD58C,0.015395*%
%ADD20C,0.007*%
%ADD122C,0.006176*%
%ADD123C,0.00772*%
%ADD124C,0.004632*%
%FSLAX26Y26*%
G04*
G70*
G90*
G75*
G01*
G04 TopSilk*
%LPD*%
X2568722Y1391773D2*
D10*
Y1340631D1*
X709963Y818925D2*
D19*
X641218D1*
X566205D2*
X497460D1*
Y993935D1*
X534966Y1031445D1*
X566205D1*
X709963Y818925D2*
Y993935D1*
X672457Y1031445D1*
X641218D1*
X1296201Y1874949D2*
Y1943694D1*
Y2018708D2*
Y2087453D1*
X1471211D1*
X1508721Y2049946D1*
Y2018708D1*
X1296201Y1874949D2*
X1471211D1*
X1508721Y1912456D1*
Y1943694D1*
X1951890Y1610061D2*
D10*
X2003032D1*
X3171666Y2531988D2*
X3073232D1*
X3171666Y2524540D2*
X3073232D1*
X3171666D2*
Y2548099D1*
X3073232Y2524540D2*
Y2548099D1*
X2568722Y1476773D2*
Y1425631D1*
X1206320Y1656772D2*
Y1605630D1*
X2365532Y802341D2*
X2314390D1*
X2989961Y993701D2*
X2389961D1*
Y793701D1*
X2989961D2*
X2389961D1*
X2989961Y993701D2*
Y793701D1*
X2389961Y993701D2*
X2989961D1*
X2389961Y1093701D2*
X2989961D1*
X2389961Y993701D2*
Y1093701D1*
X2989961Y993701D2*
Y1093701D1*
X3389961Y993701D2*
X2989961D1*
X3389961Y793701D2*
X2989961D1*
X3389961Y993701D2*
Y793701D1*
X2989961Y993701D2*
Y793701D1*
X3389961Y993701D2*
Y1093701D1*
X2989961Y993701D2*
X3389961D1*
X2989961Y1093701D2*
X3389961D1*
X2989961Y993701D2*
Y1093701D1*
X3589961Y2006201D2*
Y2206201D1*
X2789961Y2006201D2*
Y2206201D1*
Y2006201D2*
X3589961D1*
X2789961Y2206201D2*
X3589961D1*
X2564961Y2043701D2*
X1664961D1*
X2564961Y2143701D2*
Y2043701D1*
Y2143701D2*
X1664961D1*
Y2043701D1*
X2764961Y2192095D2*
X2564961D1*
X2764961Y2392095D2*
Y2192095D1*
X2564961Y2392095D2*
Y2192095D1*
X2764961Y2392095D2*
X2564961D1*
X2566142Y2190520D2*
X2163780D1*
Y2393670D1*
X2566142D1*
Y2190520D1*
X1104595Y933074D2*
D19*
X1021918D1*
X1104595Y511813D2*
Y720447D1*
Y933074D2*
Y905498D1*
X750295Y511813D2*
Y933074D1*
X832973D1*
X750295Y511813D2*
X1104595D1*
X1339961Y706201D2*
D10*
X1239961D1*
X1339961Y506201D2*
Y706201D1*
Y506201D2*
X1239961D1*
Y706201D1*
X3464961Y1031201D2*
X3664961D1*
X3464961Y831201D2*
Y1031201D1*
X3664961Y831201D2*
Y1031201D1*
X3464961Y831201D2*
X3664961D1*
X669488Y2485630D2*
D44*
X694488Y2460630D1*
X744488D1*
X769488Y2485630D1*
X794488Y2460630D1*
X844488D1*
X869488Y2485630D1*
X894488Y2460630D1*
X944488D1*
X969488Y2485630D1*
X994488Y2460630D1*
X1044488D1*
X1069488Y2485630D1*
X1094488Y2460630D1*
X1144488D1*
X1169488Y2485630D1*
X1194488Y2460630D1*
X1244488D1*
X1269488Y2485630D1*
X669488D2*
Y2635630D1*
X694488Y2660630D1*
X744488D1*
X769488Y2635630D1*
X794488Y2660630D1*
X844488D1*
X869488Y2635630D1*
X894488Y2660630D1*
X944488D1*
X969488Y2635630D1*
X994488Y2660630D1*
X1044488D1*
X1069488Y2635630D1*
X1094488Y2660630D1*
X1144488D1*
X1169488Y2635630D1*
X1194488Y2660630D1*
X1244488D1*
X1269488Y2635630D1*
X1294488Y2660630D1*
X1344488D1*
X1369488Y2635630D1*
X1394488Y2660630D1*
X1444488D1*
X1469488Y2635630D1*
X1494488Y2660630D1*
X1544488D1*
X1569488Y2635630D1*
X1594488Y2660630D1*
X1644488D1*
X1669488Y2635630D1*
X1694488Y2660630D1*
X1744488D1*
X1769488Y2635630D1*
X1794488Y2660630D1*
X1844488D1*
X1869488Y2635630D2*
X1844488Y2660630D1*
X1869488Y2635630D2*
X1894488Y2660630D1*
X1944488D2*
X1894488D1*
X1944488D2*
X1969488Y2635630D1*
X1994488Y2660630D1*
X2044488D2*
X1994488D1*
X2044488D2*
X2069488Y2635630D1*
X2094488Y2660630D1*
X2144488D2*
X2094488D1*
X2144488D2*
X2169488Y2635630D1*
X2194488Y2660630D1*
X2244488D2*
X2194488D1*
X2244488D2*
X2269488Y2635630D1*
X2294488Y2660630D1*
X2344488D2*
X2294488D1*
X2344488D2*
X2369488Y2635630D1*
X2394488Y2660630D1*
X2444488D2*
X2394488D1*
X2444488D2*
X2469488Y2635630D1*
X2494488Y2660630D1*
X2544488D2*
X2494488D1*
X2544488D2*
X2569488Y2635630D1*
Y2485630D2*
X2544488Y2460630D1*
X2494488D1*
X2469488Y2485630D2*
X2494488Y2460630D1*
X2469488Y2485630D2*
X2444488Y2460630D1*
X2394488D1*
X2369488Y2485630D2*
X2394488Y2460630D1*
X2369488Y2485630D2*
X2344488Y2460630D1*
X2294488D1*
X2269488Y2485630D2*
X2294488Y2460630D1*
X2269488Y2485630D2*
X2244488Y2460630D1*
X2194488D2*
X2244488D1*
X2194488D2*
X2169488Y2485630D1*
X2144488Y2460630D1*
X2094488D2*
X2144488D1*
X2094488D2*
X2069488Y2485630D1*
X2044488Y2460630D1*
X1994488D1*
X1969488Y2485630D2*
X1994488Y2460630D1*
X1969488Y2485630D2*
X1944488Y2460630D1*
X1894488D1*
X1869488Y2485630D2*
X1894488Y2460630D1*
X1869488Y2485630D2*
X1844488Y2460630D1*
X1794488D1*
X1769488Y2485630D2*
X1794488Y2460630D1*
X1769488Y2485630D2*
X1744488Y2460630D1*
X1694488D1*
X1669488Y2485630D2*
X1694488Y2460630D1*
X1669488Y2485630D2*
X1644488Y2460630D1*
X1594488D1*
X1569488Y2485630D2*
X1594488Y2460630D1*
X1569488Y2485630D2*
X1544488Y2460630D1*
X1494488D1*
X1469488Y2485630D2*
X1494488Y2460630D1*
X1469488Y2485630D2*
X1444488Y2460630D1*
X1394488D1*
X1369488Y2485630D2*
X1394488Y2460630D1*
X1369488Y2485630D2*
X1344488Y2460630D1*
X1294488D1*
X1269488Y2485630D2*
X1294488Y2460630D1*
X769488Y2635630D2*
Y2485630D1*
X869488Y2635630D2*
Y2485630D1*
X969488Y2635630D2*
Y2485630D1*
X1069488Y2635630D2*
Y2485630D1*
X1169488Y2635630D2*
Y2485630D1*
X1269488Y2635630D2*
Y2485630D1*
X1369488Y2635630D2*
Y2485630D1*
X1469488Y2635630D2*
Y2485630D1*
X1569488Y2635630D2*
Y2485630D1*
X1669488Y2635630D2*
Y2485630D1*
X1769488Y2635630D2*
Y2485630D1*
X1869488Y2635630D2*
Y2485630D1*
X1969488Y2635630D2*
Y2485630D1*
X2069488Y2635630D2*
Y2485630D1*
X2169488Y2635630D2*
Y2485630D1*
X2269488Y2635630D2*
Y2485630D1*
X2369488Y2635630D2*
Y2485630D1*
X2469488Y2635630D2*
Y2485630D1*
X2569488Y2635630D2*
Y2485630D1*
Y2635630D2*
X2594488Y2660630D1*
X2644488D2*
X2594488D1*
X2644488D2*
X2669488Y2635630D1*
Y2485630D2*
X2644488Y2460630D1*
X2594488D1*
X2569488Y2485630D2*
X2594488Y2460630D1*
X2669488Y2635630D2*
Y2485630D1*
X390701Y1961654D2*
D45*
X780465D1*
Y2154566D1*
X661587Y2154701D2*
X611580D1*
X561573D1*
X511567D1*
X461599D1*
X442267Y2154682D1*
X390701Y2111265D1*
Y1961654D1*
X510592Y2153697D2*
X535576Y2128698D1*
X560599Y2153697D1*
X610567Y2154566D2*
X635590Y2130705D1*
X660573Y2154566D1*
X710580D1*
X777308D1*
X709567Y2152693D2*
X735564Y2127694D1*
X735603Y2033699D1*
X435563D1*
X435602Y2126709D1*
X463587Y2151709D1*
X390701Y1751654D2*
X780465D1*
Y1944566D1*
X661587Y1944701D2*
X611580D1*
X561573D1*
X511567D1*
X461599D1*
X442267Y1944682D1*
X390701Y1901265D1*
Y1751654D1*
X510592Y1943697D2*
X535576Y1918698D1*
X560599Y1943697D1*
X610567Y1944566D2*
X635590Y1920705D1*
X660573Y1944566D1*
X710580D1*
X777308D1*
X709567Y1942693D2*
X735564Y1917694D1*
X735603Y1823699D1*
X435563D1*
X435602Y1916709D1*
X463587Y1941709D1*
X390701Y1541654D2*
X780465D1*
Y1734566D1*
X661587Y1734701D2*
X611580D1*
X561573D1*
X511567D1*
X461599D1*
X442267Y1734682D1*
X390701Y1691265D1*
Y1541654D1*
X510592Y1733697D2*
X535576Y1708698D1*
X560599Y1733697D1*
X610567Y1734566D2*
X635590Y1710705D1*
X660573Y1734566D1*
X710580D1*
X777308D1*
X709567Y1732693D2*
X735564Y1707694D1*
X735603Y1613699D1*
X435563D1*
X435602Y1706709D1*
X463587Y1731709D1*
X390701Y1331654D2*
X780465D1*
Y1524566D1*
X661587Y1524701D2*
X611580D1*
X561573D1*
X511567D1*
X461599D1*
X442267Y1524682D1*
X390701Y1481265D1*
Y1331654D1*
X510592Y1523697D2*
X535576Y1498698D1*
X560599Y1523697D1*
X610567Y1524566D2*
X635590Y1500705D1*
X660573Y1524566D1*
X710580D1*
X777308D1*
X709567Y1522693D2*
X735564Y1497694D1*
X735603Y1403699D1*
X435563D1*
X435602Y1496709D1*
X463587Y1521709D1*
X390701Y1121654D2*
X780465D1*
Y1314566D1*
X661587Y1314701D2*
X611580D1*
X561573D1*
X511567D1*
X461599D1*
X442267Y1314682D1*
X390701Y1271265D1*
Y1121654D1*
X510592Y1313697D2*
X535576Y1288698D1*
X560599Y1313697D1*
X610567Y1314566D2*
X635590Y1290705D1*
X660573Y1314566D1*
X710580D1*
X777308D1*
X709567Y1312693D2*
X735564Y1287694D1*
X735603Y1193699D1*
X435563D1*
X435602Y1286709D1*
X463587Y1311709D1*
X390701Y2171654D2*
X780465D1*
Y2364566D1*
X661587Y2364701D2*
X611580D1*
X561573D1*
X511567D1*
X461599D1*
X442267Y2364682D1*
X390701Y2321265D1*
Y2171654D1*
X510592Y2363697D2*
X535576Y2338698D1*
X560599Y2363697D1*
X610567Y2364566D2*
X635590Y2340705D1*
X660573Y2364566D1*
X710580D1*
X777308D1*
X709567Y2362693D2*
X735564Y2337694D1*
X735603Y2243699D1*
X435563D1*
X435602Y2336709D1*
X463587Y2361709D1*
X1024508Y1673819D2*
Y2063583D1*
X831596D1*
X831461Y1944705D2*
Y1894698D1*
Y1844692D1*
Y1794685D1*
Y1744717D1*
X831480Y1725385D1*
X874896Y1673819D1*
X1024508D1*
X832465Y1793710D2*
X857464Y1818694D1*
X832465Y1843717D1*
X831596Y1893685D2*
X855457Y1918708D1*
X831596Y1943692D1*
Y1993698D1*
Y2060426D1*
X833469Y1992685D2*
X858468Y2018682D1*
X952463Y2018721D1*
Y1718681D1*
X859453Y1718720D1*
X834453Y1746705D1*
X1024508Y1258819D2*
Y1648583D1*
X831596D1*
X831461Y1529705D2*
Y1479698D1*
Y1429692D1*
Y1379685D1*
Y1329717D1*
X831480Y1310385D1*
X874896Y1258819D1*
X1024508D1*
X832465Y1378710D2*
X857464Y1403694D1*
X832465Y1428717D1*
X831596Y1478685D2*
X855457Y1503708D1*
X831596Y1528692D1*
Y1578698D1*
Y1645426D1*
X833469Y1577685D2*
X858468Y1603682D1*
X952463Y1603721D1*
Y1303681D1*
X859453Y1303720D1*
X834453Y1331705D1*
X3589961Y1906201D2*
D10*
X2789961D1*
X3589961Y2006201D2*
Y1906201D1*
Y2006201D2*
X2789961D1*
Y1906201D1*
Y2006201D2*
X2189961D1*
X2789961Y1906201D2*
X2189961D1*
X2789961Y2006201D2*
Y1906201D1*
X2189961Y2006201D2*
Y1906201D1*
X3414961Y2656201D2*
X3314961D1*
X3414961Y2256201D2*
Y2656201D1*
X3314961Y2256201D2*
Y2656201D1*
X3414961Y2256201D2*
X3314961D1*
Y2356201D2*
X3214961D1*
Y2656201D1*
X3314961D2*
X3214961D1*
X3314961Y2356201D2*
Y2656201D1*
G36*
X2381299Y572638D2*
X2389173D1*
Y564764D1*
X2381299D1*
Y572638D1*
G37*
G36*
X3061122Y564764D2*
X3053249D1*
Y572638D1*
X3061122D1*
Y564764D1*
G37*
X3664961Y2368707D2*
D45*
X3619961D1*
X3514961D2*
X3559961D1*
X3520961Y2576713D2*
G02X3658961Y2576713I69000J-97267D01*
G01*
X3577461Y543702D2*
D10*
G02X3577461Y543702I31496J0D01*
G01*
X3549902Y488583D2*
X3668012D1*
X3549902Y598820D2*
X3569587D1*
X3668012D1*
X3526280Y549611D2*
Y537792D1*
X3691634Y549611D2*
Y537792D1*
D49*
X3693603Y606695D3*
G36*
X3023524Y2560040D2*
X3031398D1*
Y2567913D1*
X3023524D1*
Y2560040D1*
G37*
X1211811Y1068540D2*
D10*
X818110D1*
Y1245705D1*
X1211811D1*
Y1068540D1*
Y1103973D2*
X818110D1*
X1521455Y1316138D2*
D19*
X1545076D1*
Y1347638D1*
X1458466Y1316138D2*
X1434846D1*
Y1347638D1*
X2864173Y2337696D2*
D10*
G02X2864173Y2337696I31496J0D01*
G01*
X2954725Y2392815D2*
X2836614D1*
X2954725Y2282578D2*
X2935040D1*
X2836614D1*
X2978347Y2331787D2*
Y2343606D1*
X2812992Y2331787D2*
Y2343606D1*
D49*
X2811024Y2274703D3*
X2552461Y568700D2*
D10*
G02X2552461Y568700I31496J0D01*
G01*
X2643012Y623819D2*
X2524902D1*
X2643012Y513582D2*
X2623327D1*
X2524902D1*
X2666634Y562791D2*
Y574610D1*
X2501280Y562791D2*
Y574610D1*
D49*
X2499311Y505707D3*
X3302756Y568702D2*
D10*
G02X3302756Y568702I31496J0D01*
G01*
X3275197Y513583D2*
X3393307D1*
X3275197Y623820D2*
X3294882D1*
X3393307D1*
X3251575Y574611D2*
Y562792D1*
X3416929Y574611D2*
Y562792D1*
D49*
X3418898Y631695D3*
X1539961Y656201D2*
D10*
X1639961D1*
X1539961Y1056201D2*
Y656201D1*
X1639961Y1056201D2*
Y656201D1*
X1539961Y1056201D2*
X1639961D1*
X1439961Y656201D2*
X1539961D1*
X1439961Y1056201D2*
Y656201D1*
X1539961Y1056201D2*
Y656201D1*
X1439961Y1056201D2*
X1539961D1*
X1666142Y2190520D2*
X1263780D1*
Y2393670D1*
X1666142D1*
Y2190520D1*
X2164961Y2392095D2*
X1664961D1*
X2164961Y2192095D2*
X1664961D1*
X2164961Y2392095D2*
Y2192095D1*
X1664961Y2392095D2*
Y2192095D1*
X1681792Y806201D2*
G02X1681792Y806201I295276J0D01*
G01*
D54*
X2725646Y1323926D3*
X2730908Y1377992D2*
D10*
X2849016D1*
X2730908Y1409482D2*
X2849016D1*
Y1377992D2*
Y1409482D1*
X2730908Y1377992D2*
Y1409482D1*
X1232461Y2096732D2*
X822461D1*
Y2396732D1*
X1232461D1*
Y2096732D1*
D58*
X1073336Y1569812D3*
X1127401Y1564549D2*
D10*
Y1446441D1*
X1158892Y1564549D2*
Y1446441D1*
X1127401D2*
X1158892D1*
X1127401Y1564549D2*
X1158892D1*
X3640041Y1543681D2*
D19*
Y1443721D1*
X3689961D1*
Y1143701D1*
X1289961D1*
Y1843701D1*
X3689961D1*
Y1543681D1*
X3640041D1*
D58*
X1194086Y1704287D3*
X1140021Y1709550D2*
D10*
Y1827658D1*
X1108530Y1709550D2*
Y1827658D1*
X1140021D2*
X1108530D1*
X1140021Y1709550D2*
X1108530D1*
X2259850Y1407774D2*
Y1604628D1*
X2157473Y1407774D2*
Y1604628D1*
X2259850D2*
X2157473D1*
X2228356Y1407774D2*
X2259850D1*
X2188967D2*
X2157473D1*
X2228356D2*
G03X2188967Y1407774I-19694J-9D01*
G01*
D54*
X2925646Y1323926D3*
X2930908Y1377992D2*
D10*
X3049016D1*
X2930908Y1409482D2*
X3049016D1*
Y1377992D2*
Y1409482D1*
X2930908Y1377992D2*
Y1409482D1*
X2591840Y1369577D2*
D122*
X2588037Y1367676D1*
X2584190Y1363829D1*
X2582289Y1360027D1*
Y1352377D1*
X2584190Y1348531D1*
X2588037Y1344728D1*
X2591840Y1342783D1*
X2597588Y1340881D1*
X2607182D1*
X2612886Y1342783D1*
X2616733Y1344728D1*
X2620536Y1348531D1*
X2622481Y1352377D1*
Y1360027D1*
X2620536Y1363829D1*
X2616733Y1367676D1*
X2612886Y1369577D1*
X2589983Y1381929D2*
X2588037Y1385775D1*
X2582333Y1391523D1*
X2622481D1*
X598486Y1111713D2*
X596585Y1115516D1*
X592738Y1119362D1*
X588936Y1121264D1*
X581287D1*
X577440Y1119362D1*
X573637Y1115516D1*
X571692Y1111713D1*
X569790Y1105965D1*
Y1096370D1*
X571692Y1090666D1*
X573637Y1086820D1*
X577440Y1083017D1*
X581287Y1081072D1*
X588936D1*
X592738Y1083017D1*
X596585Y1086820D1*
X598486Y1090666D1*
X612783Y1111669D2*
Y1113570D1*
X614685Y1117417D1*
X616586Y1119318D1*
X620433Y1121219D1*
X628082D1*
X631884Y1119318D1*
X633786Y1117417D1*
X635731Y1113570D1*
Y1109768D1*
X633786Y1105921D1*
X629983Y1100217D1*
X610838Y1081072D1*
X637633D1*
X1397236Y1994156D2*
X1395335Y1997959D1*
X1391488Y2001805D1*
X1387685Y2003707D1*
X1380036D1*
X1376189Y2001805D1*
X1372387Y1997959D1*
X1370441Y1994156D1*
X1368540Y1988408D1*
Y1978813D1*
X1370441Y1973110D1*
X1372387Y1969263D1*
X1376189Y1965460D1*
X1380036Y1963515D1*
X1387685D1*
X1391488Y1965460D1*
X1395335Y1969263D1*
X1397236Y1973110D1*
X1413434Y2003663D2*
X1434436D1*
X1422985Y1988364D1*
X1428733D1*
X1432535Y1986463D1*
X1434436Y1984561D1*
X1436382Y1978813D1*
Y1975011D1*
X1434436Y1969263D1*
X1430634Y1965416D1*
X1424886Y1963515D1*
X1419138D1*
X1413434Y1965416D1*
X1411533Y1967362D1*
X1409587Y1971164D1*
X1898905Y1533008D2*
X1895103Y1531107D1*
X1891256Y1527260D1*
X1889355Y1523458D1*
Y1515808D1*
X1891256Y1511962D1*
X1895103Y1508159D1*
X1898905Y1506214D1*
X1904653Y1504312D1*
X1914248D1*
X1919952Y1506214D1*
X1923799Y1508159D1*
X1927601Y1511962D1*
X1929547Y1515808D1*
Y1523458D1*
X1927601Y1527260D1*
X1923799Y1531107D1*
X1919952Y1533008D1*
X1929547Y1564505D2*
X1889399D1*
X1916150Y1545360D1*
Y1574056D1*
X3117224Y2671961D2*
X3115323Y2675764D1*
X3111476Y2679610D1*
X3107673Y2681512D1*
X3100024D1*
X3096177Y2679610D1*
X3092375Y2675764D1*
X3090429Y2671961D1*
X3088528Y2666213D1*
Y2656618D1*
X3090429Y2650915D1*
X3092375Y2647068D1*
X3096177Y2643265D1*
X3100024Y2641320D1*
X3107673D1*
X3111476Y2643265D1*
X3115323Y2647068D1*
X3117224Y2650915D1*
X3152523Y2681468D2*
X3133422D1*
X3131521Y2664268D1*
X3133422Y2666169D1*
X3139170Y2668114D1*
X3144874D1*
X3150622Y2666169D1*
X3154469Y2662366D1*
X3156370Y2656618D1*
Y2652816D1*
X3154469Y2647068D1*
X3150622Y2643221D1*
X3144874Y2641320D1*
X3139170D1*
X3133422Y2643221D1*
X3131521Y2645166D1*
X3129575Y2648969D1*
X2625506Y1454758D2*
X2623605Y1458560D1*
X2619758Y1462407D1*
X2615955Y1464308D1*
X2608306D1*
X2604459Y1462407D1*
X2600657Y1458560D1*
X2598711Y1454758D1*
X2596810Y1449010D1*
Y1439415D1*
X2598711Y1433711D1*
X2600657Y1429864D1*
X2604459Y1426062D1*
X2608306Y1424116D1*
X2615955D1*
X2619758Y1426062D1*
X2623605Y1429864D1*
X2625506Y1433711D1*
X2660805Y1458560D2*
X2658904Y1462363D1*
X2653156Y1464264D1*
X2649353D1*
X2643605Y1462363D1*
X2639758Y1456615D1*
X2637857Y1447064D1*
Y1437514D1*
X2639758Y1429864D1*
X2643605Y1426018D1*
X2649353Y1424116D1*
X2651255D1*
X2656958Y1426018D1*
X2660805Y1429864D1*
X2662706Y1435612D1*
Y1437514D1*
X2660805Y1443262D1*
X2656958Y1447064D1*
X2651255Y1448966D1*
X2649353D1*
X2643605Y1447064D1*
X2639758Y1443262D1*
X2637857Y1437514D1*
X1229438Y1625976D2*
X1225635Y1624075D1*
X1221789Y1620228D1*
X1219887Y1616425D1*
Y1608776D1*
X1221789Y1604929D1*
X1225635Y1601127D1*
X1229438Y1599181D1*
X1235186Y1597280D1*
X1244781D1*
X1250485Y1599181D1*
X1254331Y1601127D1*
X1258134Y1604929D1*
X1260079Y1608776D1*
Y1616425D1*
X1258134Y1620228D1*
X1254331Y1624075D1*
X1250485Y1625976D1*
X1260079Y1645977D2*
X1219932Y1665122D1*
Y1638327D1*
X2335686Y779224D2*
X2333785Y783026D1*
X2329938Y786873D1*
X2326136Y788774D1*
X2318487D1*
X2314640Y786873D1*
X2310837Y783026D1*
X2308892Y779224D1*
X2306990Y773476D1*
Y763881D1*
X2308892Y758177D1*
X2310837Y754330D1*
X2314640Y750528D1*
X2318487Y748582D1*
X2326136D1*
X2329938Y750528D1*
X2333785Y754330D1*
X2335686Y758177D1*
X2372931Y775377D2*
X2370986Y769629D1*
X2367183Y765782D1*
X2361435Y763881D1*
X2359534D1*
X2353786Y765782D1*
X2349983Y769629D1*
X2348038Y775377D1*
Y777278D1*
X2349983Y783026D1*
X2353786Y786829D1*
X2359534Y788730D1*
X2361435D1*
X2367183Y786829D1*
X2370986Y783026D1*
X2372931Y775377D1*
Y765782D1*
X2370986Y756232D1*
X2367183Y750484D1*
X2361435Y748582D1*
X2357633D1*
X2351885Y750484D1*
X2349983Y754330D1*
X2578528Y2034982D2*
X2618720D1*
Y2048379D1*
X2616774Y2054127D1*
X2612972Y2057974D1*
X2609125Y2059875D1*
X2603421Y2061777D1*
X2593826D1*
X2588078Y2059875D1*
X2584276Y2057974D1*
X2580429Y2054127D1*
X2578528Y2048379D1*
Y2034982D1*
Y2074128D2*
X2618720D1*
X2584276Y2113274D2*
X2580429Y2109472D1*
X2578528Y2103724D1*
Y2096074D1*
X2580429Y2090326D1*
X2584276Y2086479D1*
X2588078D1*
X2591925Y2088425D1*
X2593826Y2090326D1*
X2595728Y2094129D1*
X2599574Y2105625D1*
X2601476Y2109472D1*
X2603421Y2111373D1*
X2607224Y2113274D1*
X2612972D1*
X2616774Y2109471D1*
X2618720Y2103723D1*
Y2096074D1*
X2616774Y2090326D1*
X2612972Y2086479D1*
X2599574Y2125625D2*
Y2142870D1*
X2597673Y2148573D1*
X2595728Y2150519D1*
X2591925Y2152420D1*
X2586177D1*
X2582375Y2150519D1*
X2580429Y2148573D1*
X2578528Y2142870D1*
Y2125625D1*
X2618720D1*
X2257760Y546254D2*
X2297952D1*
Y569202D1*
X2265454Y581553D2*
X2263508Y585400D1*
X2257805Y591148D1*
X2297952D1*
X2937583Y537654D2*
X2977775D1*
Y560602D1*
X2947178Y574899D2*
X2945277D1*
X2941430Y576800D1*
X2939529Y578701D1*
X2937627Y582548D1*
Y590197D1*
X2939529Y594000D1*
X2941430Y595901D1*
X2945277Y597847D1*
X2949079D1*
X2952926Y595901D1*
X2958630Y592099D1*
X2977775Y572953D1*
Y599748D1*
X3563284Y2657279D2*
Y2617087D1*
X3536489Y2657279D1*
Y2617087D1*
X3600484Y2657279D2*
X3575635D1*
Y2617087D1*
X3600484D1*
X3575635Y2638134D2*
X3590934D1*
X3624332Y2657279D2*
X3620485Y2655378D1*
X3616682Y2651531D1*
X3614737Y2647729D1*
X3612836Y2641981D1*
Y2632386D1*
X3614737Y2626682D1*
X3616682Y2622835D1*
X3620485Y2619033D1*
X3624332Y2617087D1*
X3631981D1*
X3635783Y2619033D1*
X3639630Y2622835D1*
X3641532Y2626682D1*
X3643433Y2632386D1*
Y2641981D1*
X3641532Y2647729D1*
X3639630Y2651531D1*
X3635783Y2655378D1*
X3631981Y2657279D1*
X3624332D1*
X3553562Y453969D2*
X3570806D1*
X3576510Y455871D1*
X3578455Y457816D1*
X3580356Y461619D1*
Y467367D1*
X3578455Y471169D1*
X3576510Y473115D1*
X3570806Y475016D1*
X3553562D1*
Y434824D1*
X3621404Y465465D2*
X3619502Y469268D1*
X3615656Y473115D1*
X3611853Y475016D1*
X3604204D1*
X3600357Y473115D1*
X3596554Y469268D1*
X3594609Y465465D1*
X3592708Y459717D1*
Y450123D1*
X3594609Y444419D1*
X3596554Y440572D1*
X3600357Y436769D1*
X3604204Y434824D1*
X3611853D1*
X3615656Y436769D1*
X3619502Y440572D1*
X3621404Y444419D1*
Y450123D1*
X3611853D1*
X3664352Y434824D2*
Y475016D1*
X3649054Y434824D1*
X3633755Y475016D1*
Y434824D1*
X991563Y1124629D2*
X987761Y1122772D1*
X983914Y1118926D1*
X982013Y1115079D1*
X980067Y1109331D1*
Y1099780D1*
X982013Y1094032D1*
X983914Y1090230D1*
X987761Y1086383D1*
X991563Y1084482D1*
X999212D1*
X1003059Y1086383D1*
X1006862Y1090230D1*
X1008763Y1094032D1*
X1010709Y1099780D1*
Y1109331D1*
X1008763Y1115079D1*
X1006862Y1118926D1*
X1003059Y1122772D1*
X999212Y1124629D1*
X991563D1*
X997311Y1092131D2*
X1008763Y1080635D1*
X1025005Y1115035D2*
Y1116936D1*
X1026907Y1120783D1*
X1028808Y1122684D1*
X1032655Y1124585D1*
X1040304D1*
X1044107Y1122684D1*
X1046008Y1120783D1*
X1047953Y1116936D1*
Y1113133D1*
X1046008Y1109287D1*
X1042205Y1103583D1*
X1023060Y1084437D1*
X1049855D1*
X1566999Y1361237D2*
X1563196Y1359380D1*
X1559350Y1355534D1*
X1557448Y1351687D1*
X1555503Y1345939D1*
Y1336388D1*
X1557448Y1330640D1*
X1559350Y1326838D1*
X1563196Y1322991D1*
X1566999Y1321090D1*
X1574648D1*
X1578495Y1322991D1*
X1582297Y1326838D1*
X1584199Y1330640D1*
X1586144Y1336388D1*
Y1345939D1*
X1584199Y1351687D1*
X1582297Y1355534D1*
X1578495Y1359380D1*
X1574648Y1361237D1*
X1566999D1*
X1572747Y1328739D2*
X1584199Y1317243D1*
X1602342Y1361193D2*
X1623345D1*
X1611893Y1345895D1*
X1617641D1*
X1621444Y1343993D1*
X1623345Y1342092D1*
X1625290Y1336344D1*
Y1332542D1*
X1623345Y1326793D1*
X1619542Y1322947D1*
X1613794Y1321045D1*
X1608046D1*
X1602342Y1322947D1*
X1600441Y1324892D1*
X1598496Y1328695D1*
X1235665Y1368528D2*
Y1385727D1*
X1233720Y1391475D1*
X1231819Y1393421D1*
X1228016Y1395322D1*
X1224169D1*
X1220367Y1393421D1*
X1218421Y1391475D1*
X1216520Y1385727D1*
Y1368528D1*
X1256712D1*
X1235665Y1381925D2*
X1256712Y1395322D1*
X1224214Y1407674D2*
X1222268Y1411520D1*
X1216564Y1417268D1*
X1256712D1*
X3302247Y1401236D2*
Y1418436D1*
X3300301Y1424184D1*
X3298400Y1426129D1*
X3294597Y1428031D1*
X3290751D1*
X3286948Y1426129D1*
X3285003Y1424184D1*
X3283101Y1418436D1*
Y1401236D1*
X3323293D1*
X3302247Y1414633D2*
X3323293Y1428031D1*
X3292696Y1442328D2*
X3290795D1*
X3286948Y1444229D1*
X3285047Y1446130D1*
X3283146Y1449977D1*
Y1457626D1*
X3285047Y1461429D1*
X3286948Y1463330D1*
X3290795Y1465275D1*
X3294597D1*
X3298444Y1463330D1*
X3304148Y1459527D1*
X3323293Y1440382D1*
Y1467177D1*
X1210764Y1860731D2*
Y1877931D1*
X1208818Y1883679D1*
X1206917Y1885624D1*
X1203114Y1887525D1*
X1199268D1*
X1195465Y1885624D1*
X1193520Y1883679D1*
X1191618Y1877931D1*
Y1860731D1*
X1231810D1*
X1210764Y1874128D2*
X1231810Y1887525D1*
X1191663Y1903724D2*
Y1924726D1*
X1206961Y1913274D1*
Y1919022D1*
X1208862Y1922825D1*
X1210764Y1924726D1*
X1216512Y1926671D1*
X1220314D1*
X1226062Y1924726D1*
X1229909Y1920923D1*
X1231810Y1915175D1*
Y1909427D1*
X1229909Y1903723D1*
X1227964Y1901822D1*
X1224161Y1899877D1*
X2585665Y1247281D2*
Y1264481D1*
X2583720Y1270229D1*
X2581819Y1272175D1*
X2578016Y1274076D1*
X2574169D1*
X2570367Y1272175D1*
X2568421Y1270229D1*
X2566520Y1264481D1*
Y1247281D1*
X2606712D1*
X2585665Y1260679D2*
X2606712Y1274076D1*
Y1305573D2*
X2566564D1*
X2593315Y1286427D1*
Y1315123D1*
X3056892Y2318961D2*
X3074092D1*
X3079840Y2320907D1*
X3081785Y2322808D1*
X3083687Y2326610D1*
Y2330457D1*
X3081785Y2334260D1*
X3079840Y2336205D1*
X3074092Y2338106D1*
X3056892D1*
Y2297914D1*
X3070289Y2318961D2*
X3083687Y2297914D1*
X3118986Y2338062D2*
X3099885D1*
X3097984Y2320862D1*
X3099885Y2322764D1*
X3105633Y2324709D1*
X3111337D1*
X3117085Y2322764D1*
X3120932Y2318961D1*
X3122833Y2313213D1*
Y2309411D1*
X3120932Y2303663D1*
X3117085Y2299816D1*
X3111337Y2297914D1*
X3105633D1*
X3099885Y2299816D1*
X3097984Y2301761D1*
X3096038Y2305564D1*
X1235665Y1260900D2*
Y1278100D1*
X1233720Y1283848D1*
X1231819Y1285794D1*
X1228016Y1287695D1*
X1224169D1*
X1220367Y1285794D1*
X1218421Y1283848D1*
X1216520Y1278100D1*
Y1260900D1*
X1256712D1*
X1235665Y1274298D2*
X1256712Y1287695D1*
X1222268Y1322994D2*
X1218465Y1321093D1*
X1216564Y1315345D1*
Y1311542D1*
X1218465Y1305794D1*
X1224214Y1301948D1*
X1233764Y1300046D1*
X1243315D1*
X1250964Y1301948D1*
X1254811Y1305794D1*
X1256712Y1311542D1*
Y1313444D1*
X1254811Y1319147D1*
X1250964Y1322994D1*
X1245216Y1324895D1*
X1243315D1*
X1237567Y1322994D1*
X1233764Y1319147D1*
X1231863Y1313444D1*
Y1311542D1*
X1233764Y1305794D1*
X1237567Y1301948D1*
X1243315Y1300046D1*
X1210764Y1960731D2*
Y1977931D1*
X1208818Y1983679D1*
X1206917Y1985624D1*
X1203114Y1987525D1*
X1199268D1*
X1195465Y1985624D1*
X1193520Y1983679D1*
X1191618Y1977931D1*
Y1960731D1*
X1231810D1*
X1210764Y1974128D2*
X1231810Y1987525D1*
Y2007526D2*
X1191663Y2026671D1*
Y1999877D1*
X2281385Y629504D2*
Y646703D1*
X2279439Y652451D1*
X2277538Y654397D1*
X2273735Y656298D1*
X2269889D1*
X2266086Y654397D1*
X2264141Y652451D1*
X2262239Y646703D1*
Y629504D1*
X2302431D1*
X2281385Y642901D2*
X2302431Y656298D1*
X2262284Y678200D2*
X2264185Y672496D1*
X2267987Y670551D1*
X2271834D1*
X2275637Y672496D1*
X2277582Y676299D1*
X2279483Y683948D1*
X2281385Y689696D1*
X2285232Y693499D1*
X2289034Y695400D1*
X2294782D1*
X2298585Y693499D1*
X2300530Y691597D1*
X2302431Y685849D1*
Y678200D1*
X2300530Y672496D1*
X2298585Y670551D1*
X2294782Y668649D1*
X2289034Y668650D1*
X2285232Y670551D1*
X2281385Y674398D1*
X2279483Y680101D1*
X2277582Y687751D1*
X2275637Y691597D1*
X2271834Y693499D1*
X2267987D1*
X2264185Y691597D1*
X2262284Y685849D1*
Y678200D1*
X1454974Y1631482D2*
X1472174D1*
X1477922Y1633428D1*
X1479867Y1635329D1*
X1481769Y1639131D1*
Y1642978D1*
X1479867Y1646781D1*
X1477922Y1648726D1*
X1472174Y1650627D1*
X1454974D1*
Y1610435D1*
X1468371Y1631482D2*
X1481769Y1610435D1*
X1519013Y1637230D2*
X1517068Y1631482D1*
X1513265Y1627635D1*
X1507517Y1625734D1*
X1505616D1*
X1499868Y1627635D1*
X1496065Y1631482D1*
X1494120Y1637230D1*
Y1639131D1*
X1496065Y1644879D1*
X1499868Y1648682D1*
X1505616Y1650583D1*
X1507517D1*
X1513265Y1648682D1*
X1517068Y1644879D1*
X1519013Y1637230D1*
Y1627635D1*
X1517068Y1618085D1*
X1513265Y1612337D1*
X1507517Y1610435D1*
X1503715D1*
X1497967Y1612337D1*
X1496065Y1616184D1*
X1394629Y1444402D2*
Y1461602D1*
X1392683Y1467350D1*
X1390782Y1469295D1*
X1386980Y1471197D1*
X1383133D1*
X1379330Y1469295D1*
X1377385Y1467350D1*
X1375483Y1461602D1*
Y1444402D1*
X1415675D1*
X1394629Y1457799D2*
X1415675Y1471197D1*
X1383177Y1483548D2*
X1381232Y1487395D1*
X1375528Y1493143D1*
X1415675D1*
X1375528Y1509341D2*
Y1530343D1*
X1390826Y1518892D1*
Y1524640D1*
X1392728Y1528442D1*
X1394629Y1530343D1*
X1400377Y1532289D1*
X1404179D1*
X1409927Y1530343D1*
X1413774Y1526541D1*
X1415675Y1520793D1*
Y1515045D1*
X1413774Y1509341D1*
X1411829Y1507440D1*
X1408026Y1505494D1*
X2996017Y1716126D2*
X3013217D1*
X3018965Y1718072D1*
X3020911Y1719973D1*
X3022812Y1723776D1*
Y1727622D1*
X3020911Y1731425D1*
X3018965Y1733370D1*
X3013217Y1735272D1*
X2996017D1*
Y1695080D1*
X3009415Y1716126D2*
X3022812Y1695080D1*
X3035163Y1727578D2*
X3039010Y1729524D1*
X3044758Y1735227D1*
Y1695080D1*
X3080058Y1735227D2*
X3060956D1*
X3059055Y1718027D1*
X3060956Y1719929D1*
X3066704Y1721874D1*
X3072408D1*
X3078156Y1719929D1*
X3082003Y1716126D1*
X3083904Y1710378D1*
Y1706576D1*
X3082003Y1700828D1*
X3078156Y1696981D1*
X3072408Y1695080D1*
X3066704D1*
X3060956Y1696981D1*
X3059055Y1698926D1*
X3057110Y1702729D1*
X2796017Y1716126D2*
X2813217D1*
X2818965Y1718072D1*
X2820911Y1719973D1*
X2822812Y1723776D1*
Y1727622D1*
X2820911Y1731425D1*
X2818965Y1733370D1*
X2813217Y1735272D1*
X2796017D1*
Y1695080D1*
X2809415Y1716126D2*
X2822812Y1695080D1*
X2835163Y1727578D2*
X2839010Y1729524D1*
X2844758Y1735227D1*
Y1695080D1*
X2864759D2*
X2883904Y1735227D1*
X2857110D1*
X2975134Y612280D2*
Y629480D1*
X2973189Y635228D1*
X2971287Y637173D1*
X2967485Y639074D1*
X2963638D1*
X2959835Y637173D1*
X2957890Y635228D1*
X2955989Y629480D1*
Y612280D1*
X2996181D1*
X2975134Y625677D2*
X2996181Y639074D1*
X2963682Y651426D2*
X2961737Y655273D1*
X2956033Y661021D1*
X2996181D1*
X2956033Y682923D2*
X2957934Y677219D1*
X2961737Y675273D1*
X2965584D1*
X2969386Y677219D1*
X2971332Y681021D1*
X2973233Y688671D1*
X2975134Y694419D1*
X2978981Y698221D1*
X2982783Y700122D1*
X2988531D1*
X2992334Y698221D1*
X2994279Y696320D1*
X2996181Y690572D1*
Y682922D1*
X2994279Y677219D1*
X2992334Y675273D1*
X2988531Y673372D1*
X2982783D1*
X2978981Y675273D1*
X2975134Y679120D1*
X2973233Y684824D1*
X2971332Y692473D1*
X2969386Y696320D1*
X2965584Y698221D1*
X2961737D1*
X2957934Y696320D1*
X2956033Y690572D1*
Y682923D1*
X2585665Y1493210D2*
Y1510409D1*
X2583720Y1516157D1*
X2581819Y1518103D1*
X2578016Y1520004D1*
X2574169D1*
X2570367Y1518103D1*
X2568421Y1516158D1*
X2566520Y1510409D1*
Y1493210D1*
X2606712D1*
X2585665Y1506607D2*
X2606712Y1520004D1*
X2574214Y1532356D2*
X2572268Y1536202D1*
X2566564Y1541950D1*
X2606712D1*
X2579917Y1579195D2*
X2585665Y1577250D1*
X2589512Y1573447D1*
X2591413Y1567699D1*
Y1565798D1*
X2589512Y1560050D1*
X2585665Y1556247D1*
X2579917Y1554302D1*
X2578016D1*
X2572268Y1556247D1*
X2568465Y1560050D1*
X2566564Y1565798D1*
Y1567699D1*
X2568465Y1573447D1*
X2572268Y1577250D1*
X2579917Y1579195D1*
X2589512D1*
X2599063Y1577250D1*
X2604811Y1573447D1*
X2606712Y1567699D1*
Y1563897D1*
X2604811Y1558149D1*
X2600964Y1556247D1*
X1860665Y1866158D2*
Y1883358D1*
X1858720Y1889106D1*
X1856819Y1891051D1*
X1853016Y1892952D1*
X1849169D1*
X1845367Y1891051D1*
X1843421Y1889106D1*
X1841520Y1883358D1*
Y1866158D1*
X1881712D1*
X1860665Y1879555D2*
X1881712Y1892952D1*
X1851115Y1907249D2*
X1849214D1*
X1845367Y1909151D1*
X1843465Y1911052D1*
X1841564Y1914899D1*
Y1922548D1*
X1843465Y1926350D1*
X1845367Y1928252D1*
X1849214Y1930197D1*
X1853016D1*
X1856863Y1928252D1*
X1862567Y1924449D1*
X1881712Y1905304D1*
Y1932098D1*
X1841564Y1948297D2*
Y1969299D1*
X1856863Y1957847D1*
Y1963595D1*
X1858764Y1967398D1*
X1860665Y1969299D1*
X1866413Y1971244D1*
X1870216D1*
X1875964Y1969299D1*
X1879811Y1965496D1*
X1881712Y1959748D1*
Y1954000D1*
X1879811Y1948296D1*
X1877865Y1946395D1*
X1874063Y1944450D1*
X2816449Y2432248D2*
X2833649D1*
X2839397Y2434194D1*
X2841342Y2436095D1*
X2843244Y2439898D1*
Y2443744D1*
X2841342Y2447547D1*
X2839397Y2449492D1*
X2833649Y2451394D1*
X2816449D1*
Y2411202D1*
X2829846Y2432248D2*
X2843244Y2411202D1*
X2855595Y2426500D2*
X2878543D1*
Y2430347D1*
X2876642Y2434194D1*
X2874740Y2436095D1*
X2870894Y2437996D1*
X2865145D1*
X2861343Y2436095D1*
X2857496Y2432248D1*
X2855595Y2426500D1*
Y2422698D1*
X2857496Y2416950D1*
X2861343Y2413147D1*
X2865145Y2411202D1*
X2870894D1*
X2874740Y2413147D1*
X2878543Y2416950D1*
X2911941Y2432248D2*
X2910040Y2436095D1*
X2904292Y2437996D1*
X2898544D1*
X2892795Y2436095D1*
X2890894Y2432248D1*
X2892795Y2428446D1*
X2896642Y2426500D1*
X2906193Y2424599D1*
X2910040Y2422698D1*
X2911941Y2418851D1*
Y2416950D1*
X2910040Y2413147D1*
X2904292Y2411202D1*
X2898544D1*
X2892795Y2413147D1*
X2890894Y2416950D1*
X2924292Y2426500D2*
X2947240D1*
Y2430347D1*
X2945339Y2434194D1*
X2943438Y2436095D1*
X2939591Y2437996D1*
X2933843D1*
X2930040Y2436095D1*
X2926194Y2432248D1*
X2924292Y2426500D1*
Y2422698D1*
X2926194Y2416950D1*
X2930040Y2413147D1*
X2933843Y2411202D1*
X2939591D1*
X2943438Y2413147D1*
X2947240Y2416950D1*
X2965340Y2451394D2*
Y2418851D1*
X2967241Y2413147D1*
X2971088Y2411202D1*
X2974890D1*
X2959592Y2437996D2*
X2972989D1*
X2586381Y676650D2*
X2582579Y680496D1*
X2576831Y682398D1*
X2569181D1*
X2563433Y680496D1*
X2559586Y676650D1*
Y672847D1*
X2561532Y669000D1*
X2563433Y667099D1*
X2567236Y665198D1*
X2578732Y661351D1*
X2582579Y659450D1*
X2584480Y657504D1*
X2586381Y653702D1*
Y647954D1*
X2582579Y644151D1*
X2576831Y642206D1*
X2569181D1*
X2563433Y644151D1*
X2559586Y647954D1*
X2598733Y674704D2*
X2602579Y676650D1*
X2608327Y682353D1*
Y642206D1*
X3328076Y690429D2*
X3324274Y694276D1*
X3318526Y696177D1*
X3310877D1*
X3305129Y694276D1*
X3301282Y690429D1*
Y686627D1*
X3303227Y682780D1*
X3305129Y680878D1*
X3308931Y678977D1*
X3320427Y675130D1*
X3324274Y673229D1*
X3326175Y671284D1*
X3328076Y667481D1*
Y661733D1*
X3324274Y657931D1*
X3318526Y655985D1*
X3310877D1*
X3305129Y657931D1*
X3301282Y661733D1*
X3342373Y686582D2*
Y688484D1*
X3344275Y692330D1*
X3346176Y694232D1*
X3350023Y696133D1*
X3357672D1*
X3361475Y694232D1*
X3363376Y692330D1*
X3365321Y688484D1*
Y684681D1*
X3363376Y680834D1*
X3359573Y675130D1*
X3340428Y655985D1*
X3367223D1*
X1582835Y636886D2*
X1579032Y640733D1*
X1573284Y642634D1*
X1565635D1*
X1559887Y640733D1*
X1556040Y636886D1*
Y633083D1*
X1557985Y629237D1*
X1559887Y627335D1*
X1563689Y625434D1*
X1575185Y621587D1*
X1579032Y619686D1*
X1580933Y617741D1*
X1582835Y613938D1*
Y608190D1*
X1579032Y604388D1*
X1573284Y602442D1*
X1565635D1*
X1559887Y604388D1*
X1556040Y608190D1*
X1614331Y602442D2*
Y642590D1*
X1595186Y615839D1*
X1623882D1*
X1483785Y636886D2*
X1479983Y640733D1*
X1474235Y642634D1*
X1466585D1*
X1460837Y640733D1*
X1456990Y636886D1*
Y633083D1*
X1458936Y629237D1*
X1460837Y627335D1*
X1464640Y625434D1*
X1476136Y621587D1*
X1479983Y619686D1*
X1481884Y617741D1*
X1483785Y613938D1*
Y608190D1*
X1479983Y604388D1*
X1474235Y602442D1*
X1466585D1*
X1460837Y604388D1*
X1456990Y608190D1*
X1519084Y642590D2*
X1499983D1*
X1498082Y625390D1*
X1499983Y627291D1*
X1505731Y629237D1*
X1511435D1*
X1517183Y627291D1*
X1521030Y623489D1*
X1522931Y617741D1*
Y613938D1*
X1521030Y608190D1*
X1517183Y604343D1*
X1511435Y602442D1*
X1505731D1*
X1499983Y604343D1*
X1498082Y606289D1*
X1496137Y610091D1*
X1920772Y822959D2*
X1916970Y826805D1*
X1911222Y828707D1*
X1903572D1*
X1897824Y826805D1*
X1893978Y822959D1*
Y819156D1*
X1895923Y815309D1*
X1897824Y813408D1*
X1901627Y811507D1*
X1913123Y807660D1*
X1916970Y805759D1*
X1918871Y803813D1*
X1920772Y800011D1*
Y794263D1*
X1916970Y790460D1*
X1911222Y788515D1*
X1903572D1*
X1897824Y790460D1*
X1893978Y794263D1*
X1933124Y807660D2*
X1950368D1*
X1956072Y809561D1*
X1958017Y811507D1*
X1959918Y815309D1*
Y821057D1*
X1958017Y824860D1*
X1956072Y826805D1*
X1950368Y828707D1*
X1933124D1*
Y788515D1*
X1972270Y828707D2*
Y788515D1*
X1999064Y828707D2*
X1972270Y801912D1*
X1981820Y811507D2*
X1999064Y788515D1*
X2011416Y809561D2*
X2028616D1*
X2034364Y811507D1*
X2036309Y813408D1*
X2038210Y817211D1*
Y821057D1*
X2036309Y824860D1*
X2034364Y826805D1*
X2028616Y828707D1*
X2011416D1*
Y788515D1*
X2024813Y809561D2*
X2038210Y788515D1*
X2050562Y821013D2*
X2054409Y822959D1*
X2060157Y828663D1*
Y788515D1*
X2759110Y1527083D2*
Y1498387D1*
X2761011Y1492639D1*
X2764858Y1488836D1*
X2770606Y1486891D1*
X2774409D1*
X2780157Y1488836D1*
X2784003Y1492639D1*
X2785905Y1498387D1*
Y1527083D1*
X2798256Y1519389D2*
X2802103Y1521335D1*
X2807851Y1527038D1*
Y1486891D1*
X763882Y2213762D2*
X792578D1*
X798326Y2215664D1*
X802129Y2219510D1*
X804074Y2225258D1*
Y2229061D1*
X802129Y2234809D1*
X798326Y2238656D1*
X792578Y2240557D1*
X763882D1*
X773477Y2254854D2*
X771576D1*
X767729Y2256755D1*
X765828Y2258656D1*
X763927Y2262503D1*
Y2270152D1*
X765828Y2273955D1*
X767729Y2275856D1*
X771576Y2277802D1*
X775379D1*
X779225Y2275856D1*
X784929Y2272054D1*
X804074Y2252908D1*
Y2279703D1*
X1231481Y1479006D2*
X1260176D1*
X1265925Y1480908D1*
X1269727Y1484754D1*
X1271673Y1490502D1*
Y1494305D1*
X1269727Y1500053D1*
X1265925Y1503900D1*
X1260177Y1505801D1*
X1231481D1*
X1231525Y1521999D2*
Y1543002D1*
X1246823Y1531550D1*
Y1537298D1*
X1248725Y1541100D1*
X1250626Y1543002D1*
X1256374Y1544947D1*
X1260177D1*
X1265925Y1543001D1*
X1269771Y1539199D1*
X1271673Y1533451D1*
Y1527703D1*
X1269771Y1521999D1*
X1267826Y1520098D1*
X1264023Y1518152D1*
X1215351Y1729152D2*
X1244047D1*
X1249795Y1731053D1*
X1253597Y1734900D1*
X1255543Y1740648D1*
Y1744451D1*
X1253597Y1750199D1*
X1249795Y1754045D1*
X1244047Y1755947D1*
X1215351D1*
X1215395Y1791246D2*
Y1772145D1*
X1232595Y1770244D1*
X1230694Y1772145D1*
X1228748Y1777893D1*
Y1783597D1*
X1230694Y1789345D1*
X1234496Y1793191D1*
X1240244Y1795093D1*
X1244047D1*
X1249795Y1793191D1*
X1253641Y1789345D1*
X1255543Y1783597D1*
Y1777893D1*
X1253641Y1772145D1*
X1251696Y1770243D1*
X1247893Y1768298D1*
X2176664Y1663207D2*
Y1634511D1*
X2178565Y1628763D1*
X2182412Y1624960D1*
X2188160Y1623015D1*
X2191963D1*
X2197711Y1624960D1*
X2201557Y1628763D1*
X2203459Y1634511D1*
Y1663207D1*
X2238758Y1657459D2*
X2236857Y1661261D1*
X2231109Y1663162D1*
X2227306D1*
X2221558Y1661261D1*
X2217711Y1655513D1*
X2215810Y1645963D1*
Y1636412D1*
X2217711Y1628763D1*
X2221558Y1624916D1*
X2227306Y1623015D1*
X2229207D1*
X2234911Y1624916D1*
X2238758Y1628763D1*
X2240659Y1634511D1*
Y1636412D1*
X2238758Y1642160D1*
X2234911Y1645963D1*
X2229207Y1647864D1*
X2227306D1*
X2221558Y1645963D1*
X2217711Y1642160D1*
X2215810Y1636412D1*
X2950510Y1527083D2*
Y1498387D1*
X2952411Y1492639D1*
X2956258Y1488836D1*
X2962006Y1486891D1*
X2965809D1*
X2971557Y1488836D1*
X2975404Y1492639D1*
X2977305Y1498387D1*
Y1527083D1*
X2997306Y1486891D2*
X3016451Y1527038D1*
X2989656D1*
X2436467Y1690163D2*
X2453667D1*
X2459415Y1692108D1*
X2461360Y1694010D1*
X2463261Y1697812D1*
Y1701659D1*
X2461360Y1705462D1*
X2459415Y1707407D1*
X2453667Y1709308D1*
X2436467D1*
Y1669116D1*
X2449864Y1690163D2*
X2463261Y1669116D1*
X2477558Y1699714D2*
Y1701615D1*
X2479460Y1705462D1*
X2481361Y1707363D1*
X2485208Y1709264D1*
X2492857D1*
X2496660Y1707363D1*
X2498561Y1705462D1*
X2500506Y1701615D1*
Y1697812D1*
X2498561Y1693966D1*
X2494758Y1688262D1*
X2475613Y1669116D1*
X2502408D1*
X2533904D2*
Y1709264D1*
X2514759Y1682514D1*
X2543455D1*
X2341169Y985780D2*
Y1006782D1*
X2356468Y995331D1*
Y1001079D1*
X2358369Y1004881D1*
X2360270Y1006782D1*
X2366018Y1008728D1*
X2369821D1*
X2375569Y1006782D1*
X2379416Y1002980D1*
X2381317Y997232D1*
Y991484D1*
X2379416Y985780D1*
X2377470Y983879D1*
X2373668Y981933D1*
X2377470Y1022981D2*
X2379416Y1021079D1*
X2381317Y1022981D1*
X2379416Y1024926D1*
X2377470Y1022981D1*
X2341169Y1041124D2*
Y1062127D1*
X2356468Y1050675D1*
Y1056423D1*
X2358369Y1060225D1*
X2360270Y1062127D1*
X2366018Y1064072D1*
X2369821D1*
X2375569Y1062127D1*
X2379416Y1058324D1*
X2381317Y1052576D1*
Y1046828D1*
X2379416Y1041124D1*
X2377470Y1039223D1*
X2373668Y1037277D1*
X2354522Y1076424D2*
X2381317Y1087920D1*
X2354522Y1099371D1*
X2529550Y770871D2*
D123*
X2534359Y773303D1*
X2541544Y780432D1*
Y730248D1*
X2620982Y769494D2*
Y771871D1*
X2623359Y776679D1*
X2625735Y779056D1*
X2630544Y781432D1*
X2640105D1*
X2644859Y779056D1*
X2647235Y776679D1*
X2649667Y771871D1*
Y767118D1*
X2647235Y762309D1*
X2642482Y755179D1*
X2618550Y731248D1*
X2652044D1*
X2723359Y781432D2*
X2749612D1*
X2735297Y762309D1*
X2742482D1*
X2747235Y759933D1*
X2749612Y757556D1*
X2752044Y750371D1*
Y745618D1*
X2749612Y738433D1*
X2744859Y733624D1*
X2737674Y731248D1*
X2730489D1*
X2723359Y733624D1*
X2720982Y736056D1*
X2718550Y740809D1*
X3059923Y774303D2*
X3057546Y779056D1*
X3050361Y781432D1*
X3045608D1*
X3038423Y779056D1*
X3033615Y771871D1*
X3031238Y759933D1*
Y747994D1*
X3033615Y738433D1*
X3038423Y733624D1*
X3045608Y731248D1*
X3047985D1*
X3055114Y733624D1*
X3059923Y738433D1*
X3062299Y745618D1*
Y747994D1*
X3059923Y755179D1*
X3055114Y759933D1*
X3047985Y762309D1*
X3045608D1*
X3038423Y759933D1*
X3033615Y755179D1*
X3031238Y747994D1*
X3140800Y731248D2*
X3164731Y781432D1*
X3131238D1*
X3243176D2*
X3236046Y779056D1*
X3233615Y774303D1*
Y769494D1*
X3236046Y764741D1*
X3240800Y762309D1*
X3250361Y759933D1*
X3257546Y757556D1*
X3262299Y752748D1*
X3264676Y747994D1*
Y740809D1*
X3262299Y736056D1*
X3259923Y733624D1*
X3252738Y731248D1*
X3243176D1*
X3236046Y733624D1*
X3233615Y736056D1*
X3231238Y740809D1*
Y747994D1*
X3233615Y752748D1*
X3238423Y757556D1*
X3245553Y759933D1*
X3255114Y762309D1*
X3259923Y764741D1*
X3262299Y769494D1*
Y774303D1*
X3259923Y779056D1*
X3252738Y781432D1*
X3243176D1*
X3367355Y764741D2*
X3364923Y757556D1*
X3360170Y752748D1*
X3352985Y750371D1*
X3350608D1*
X3343423Y752748D1*
X3338670Y757556D1*
X3336238Y764741D1*
Y767118D1*
X3338670Y774303D1*
X3343423Y779056D1*
X3350608Y781432D1*
X3352985D1*
X3360170Y779056D1*
X3364923Y774303D1*
X3367355Y764741D1*
Y752748D1*
X3364923Y740809D1*
X3360170Y733624D1*
X3352985Y731248D1*
X3348231D1*
X3341046Y733624D1*
X3338670Y738433D1*
X3651507Y953902D2*
D124*
X3673029D1*
X3677340Y955327D1*
X3680192Y958213D1*
X3681652Y962524D1*
Y965375D1*
X3680192Y969686D1*
X3677340Y972572D1*
X3673029Y973997D1*
X3651507Y973998D1*
X3655819Y1003357D2*
X3652933Y1000505D1*
X3651508Y996194D1*
Y990457D1*
X3652933Y986146D1*
X3655819Y983261D1*
X3658670D1*
X3661556Y984720D1*
X3662981Y986146D1*
X3664407Y988998D1*
X3667292Y997620D1*
X3668718Y1000505D1*
X3670178Y1001931D1*
X3673029Y1003357D1*
X3677340D1*
X3680192Y1000505D1*
X3681651Y996194D1*
Y990457D1*
X3680192Y986146D1*
X3677340Y983261D1*
X3651508Y1012621D2*
X3681651D1*
Y1025554D1*
X3680192Y1029865D1*
X3678766Y1031291D1*
X3675915Y1032717D1*
X3671603D1*
X3668718Y1031291D1*
X3667292Y1029865D1*
X3665867Y1025554D1*
X3664407Y1029865D1*
X3662981Y1031291D1*
X3660130Y1032717D1*
X3657244D1*
X3654393Y1031291D1*
X3652933Y1029865D1*
X3651508Y1025554D1*
Y1012621D1*
X3665867D2*
Y1025554D1*
X3619139Y2031511D2*
D122*
Y2012410D1*
X3636339Y2010509D1*
X3634438Y2012410D1*
X3632492Y2018158D1*
Y2023862D1*
X3634438Y2029610D1*
X3638240Y2033457D1*
X3643988Y2035358D1*
X3647791D1*
X3653539Y2033457D1*
X3657386Y2029610D1*
X3659287Y2023862D1*
Y2018158D1*
X3657385Y2012410D1*
X3655440Y2010509D1*
X3651637Y2008563D1*
X3632492Y2047709D2*
X3659287Y2059205D1*
X3632492Y2070657D1*
X3454334Y816850D2*
D124*
Y786706D1*
X3467268D1*
X3471579Y788165D1*
X3473005Y789591D1*
X3474430Y792443D1*
Y796754D1*
X3473005Y799639D1*
X3471579Y801065D1*
X3467268Y802491D1*
X3471579Y803950D1*
X3473005Y805376D1*
X3474430Y808228D1*
Y811113D1*
X3473005Y813965D1*
X3471579Y815424D1*
X3467268Y816850D1*
X3454334D1*
Y802491D2*
X3467268D1*
X3483694Y806802D2*
Y786706D1*
Y798180D2*
X3485153Y802491D1*
X3488005Y805376D1*
X3490890Y806802D1*
X3495201D1*
X3521676Y816850D2*
Y786706D1*
Y802491D2*
X3518824Y805376D1*
X3515939Y806802D1*
X3511628D1*
X3508776Y805376D1*
X3505891Y802491D1*
X3504465Y798180D1*
Y795328D1*
X3505891Y791017D1*
X3508776Y788165D1*
X3511628Y786706D1*
X3515939D1*
X3518824Y788165D1*
X3521676Y791017D1*
X3560100Y801065D2*
X3573033D1*
X3577311Y802491D1*
X3578770Y803950D1*
X3580196Y806802D1*
Y811113D1*
X3578770Y813965D1*
X3577311Y815424D1*
X3573033Y816850D1*
X3560100D1*
Y786706D1*
X3596622Y806802D2*
X3593770Y805376D1*
X3590885Y802491D1*
X3589459Y798180D1*
Y795328D1*
X3590885Y791017D1*
X3593770Y788165D1*
X3596622Y786706D1*
X3600933D1*
X3603818Y788165D1*
X3606670Y791017D1*
X3608129Y795328D1*
Y798180D1*
X3606670Y802491D1*
X3603818Y805376D1*
X3600933Y806802D1*
X3596622D1*
X3617393D2*
X3623130Y786706D1*
X3628867Y806802D1*
X3634604Y786706D1*
X3640341Y806802D1*
X3649604Y798180D2*
X3666815D1*
Y801065D1*
X3665389Y803950D1*
X3663963Y805376D1*
X3661078Y806802D1*
X3656767D1*
X3653915Y805376D1*
X3651030Y802491D1*
X3649604Y798180D1*
Y795328D1*
X3651030Y791017D1*
X3653915Y788165D1*
X3656767Y786706D1*
X3661078D1*
X3663963Y788165D1*
X3666815Y791017D1*
X3676079Y806802D2*
Y786706D1*
Y798180D2*
X3677538Y802491D1*
X3680390Y805376D1*
X3683275Y806802D1*
X3687586D1*
X2434852Y731248D2*
D123*
X2415674Y781488D1*
X2396550Y731248D1*
X2403735Y747994D2*
X2427667D1*
X2464661Y781432D2*
X2457476Y779056D1*
X2452668Y771871D1*
X2450291Y759933D1*
Y752748D1*
X2452668Y740809D1*
X2457476Y733624D1*
X2464661Y731248D1*
X2469415D1*
X2476600Y733624D1*
X2481353Y740809D1*
X2483785Y752748D1*
Y759933D1*
X2481353Y771871D1*
X2476600Y779056D1*
X2469415Y781432D1*
X2464661D1*
X2481353Y771871D2*
X2452668Y740809D1*
X3414975Y2371111D2*
D122*
X3455167D1*
X3414975Y2344317D1*
X3455167D1*
X3439869Y2383463D2*
Y2406410D1*
X3436022D1*
X3432175Y2404509D1*
X3430274Y2402608D1*
X3428373Y2398761D1*
Y2393013D1*
X3430274Y2389211D1*
X3434121Y2385364D1*
X3439869Y2383463D1*
X3443671D1*
X3449419Y2385364D1*
X3453222Y2389211D1*
X3455167Y2393013D1*
Y2398761D1*
X3453222Y2402608D1*
X3449419Y2406410D1*
X3428373Y2428312D2*
X3430274Y2424510D1*
X3434121Y2420663D1*
X3439869Y2418762D1*
X3443671D1*
X3449419Y2420663D1*
X3453222Y2424510D1*
X3455167Y2428312D1*
Y2434060D1*
X3453222Y2437907D1*
X3449419Y2441710D1*
X3443671Y2443655D1*
X3439869D1*
X3434121Y2441710D1*
X3430274Y2437907D1*
X3428373Y2434060D1*
Y2428312D1*
X3435093Y2456007D2*
Y2478114D1*
X3414975Y2501962D2*
X3416877Y2498115D1*
X3420723Y2494313D1*
X3424526Y2492367D1*
X3430274Y2490466D1*
X3439869D1*
X3445573Y2492367D1*
X3449419Y2494313D1*
X3453222Y2498115D1*
X3455167Y2501962D1*
Y2509611D1*
X3453222Y2513414D1*
X3449419Y2517260D1*
X3445573Y2519162D1*
X3439869Y2521063D1*
X3430274D1*
X3424526Y2519162D1*
X3420723Y2517260D1*
X3416877Y2513414D1*
X3414975Y2509611D1*
Y2501962D1*
X3428373Y2533414D2*
X3447518D1*
X3453222Y2535316D1*
X3455167Y2539162D1*
Y2544910D1*
X3453222Y2548713D1*
X3447518Y2554461D1*
X3428373D2*
X3455167D1*
X3414975Y2572560D2*
X3447518D1*
X3453222Y2574462D1*
X3455167Y2578308D1*
Y2582111D1*
X3428373Y2566812D2*
Y2580210D1*
X2851727Y734614D2*
D123*
Y784799D1*
X2827796Y751361D1*
X2863666D1*
X2957855Y780073D2*
X2933978D1*
X2931602Y758573D1*
X2933978Y760950D1*
X2941163Y763381D1*
X2948293D1*
X2955478Y760950D1*
X2960286Y756196D1*
X2962663Y749011D1*
Y744258D1*
X2960286Y737073D1*
X2955478Y732265D1*
X2948293Y729888D1*
X2941163D1*
X2933978Y732265D1*
X2931602Y734697D1*
X2929170Y739450D1*
X3445580Y1862021D2*
D122*
X3441733Y1860075D1*
X3435985Y1854371D1*
Y1894519D1*
X3351047Y1863944D2*
Y1862043D1*
X3349146Y1858196D1*
X3347244Y1856295D1*
X3343397Y1854394D1*
X3335748D1*
X3331946Y1856295D1*
X3330044Y1858196D1*
X3328099Y1862043D1*
Y1865845D1*
X3330044Y1869692D1*
X3333847Y1875396D1*
X3352992Y1894541D1*
X3326198D1*
X3251411Y1842018D2*
X3230408D1*
X3241860Y1857317D1*
X3236112D1*
X3232310Y1859218D1*
X3230408Y1861119D1*
X3228463Y1866867D1*
Y1870670D1*
X3230408Y1876418D1*
X3234211Y1880265D1*
X3239959Y1882166D1*
X3245707D1*
X3251411Y1880265D1*
X3253312Y1878319D1*
X3255257Y1874517D1*
X2930202Y1848617D2*
X2932103Y1844815D1*
X2937851Y1842913D1*
X2941654D1*
X2947402Y1844815D1*
X2951248Y1850563D1*
X2953150Y1860113D1*
Y1869664D1*
X2951248Y1877313D1*
X2947402Y1881160D1*
X2941654Y1883061D1*
X2939752D1*
X2934049Y1881160D1*
X2930202Y1877313D1*
X2928301Y1871565D1*
Y1869664D1*
X2930202Y1863916D1*
X2934049Y1860113D1*
X2939752Y1858212D1*
X2941654D1*
X2947402Y1860113D1*
X2951248Y1863916D1*
X2953150Y1869664D1*
X2846545Y1895390D2*
X2827400Y1855243D1*
X2854194D1*
X2743564Y1856434D2*
X2749268Y1858335D1*
X2751213Y1862138D1*
Y1865985D1*
X2749268Y1869787D1*
X2745465Y1871733D1*
X2737816Y1873634D1*
X2732068Y1875535D1*
X2728265Y1879382D1*
X2726364Y1883185D1*
Y1888933D1*
X2728265Y1892735D1*
X2730167Y1894681D1*
X2735915Y1896582D1*
X2743564D1*
X2749268Y1894681D1*
X2751213Y1892735D1*
X2753114Y1888933D1*
Y1883185D1*
X2751213Y1879382D1*
X2747366Y1875535D1*
X2741662Y1873634D1*
X2734013Y1871733D1*
X2730166Y1869787D1*
X2728265Y1865985D1*
Y1862138D1*
X2730166Y1858336D1*
X2735914Y1856434D1*
X2743564D1*
X2616873Y1868944D2*
X2618819Y1874692D1*
X2622621Y1878538D1*
X2628369Y1880440D1*
X2630271D1*
X2636019Y1878538D1*
X2639821Y1874692D1*
X2641767Y1868944D1*
Y1867042D1*
X2639821Y1861294D1*
X2636019Y1857492D1*
X2630271Y1855590D1*
X2628369D1*
X2622621Y1857492D1*
X2618819Y1861294D1*
X2616873Y1868944D1*
Y1878538D1*
X2618819Y1888089D1*
X2622621Y1893837D1*
X2628369Y1895738D1*
X2632172D1*
X2637920Y1893837D1*
X2639821Y1889990D1*
X3136109Y1895597D2*
Y1855449D1*
X3155255Y1882199D1*
X3126559D1*
X3029798Y1854720D2*
X3048899D1*
X3050800Y1871920D1*
X3048899Y1870019D1*
X3043151Y1868073D1*
X3037447D1*
X3031699Y1870019D1*
X3027852Y1873822D1*
X3025951Y1879570D1*
Y1883372D1*
X3027852Y1889120D1*
X3031699Y1892967D1*
X3037447Y1894868D1*
X3043151D1*
X3048899Y1892967D1*
X3050800Y1891021D1*
X3052746Y1887219D1*
X3540088Y1853932D2*
X3545836Y1855833D1*
X3549683Y1861581D1*
X3551584Y1871131D1*
Y1876880D1*
X3549683Y1886430D1*
X3545836Y1892178D1*
X3540088Y1894079D1*
X3536286D1*
X3530538Y1892178D1*
X3526735Y1886430D1*
X3524790Y1876880D1*
Y1871132D1*
X3526735Y1861581D1*
X3530538Y1855833D1*
X3536286Y1853932D1*
X3540088D1*
X3526735Y1861581D2*
X3549683Y1886430D1*
X2552095Y1863468D2*
X2548248Y1861523D1*
X2542500Y1855819D1*
Y1895967D1*
X2518652Y1855819D2*
X2524400Y1857720D1*
X2528247Y1863468D1*
X2530148Y1873019D1*
Y1878767D1*
X2528247Y1888317D1*
X2524401Y1894065D1*
X2518653Y1895967D1*
X2514850D1*
X2509102Y1894065D1*
X2505299Y1888317D1*
X2503354Y1878767D1*
Y1873019D1*
X2505299Y1863468D1*
X2509102Y1857720D1*
X2514850Y1855819D1*
X2518652D1*
X2505299Y1863468D2*
X2528247Y1888317D1*
X2445215Y1861291D2*
X2441369Y1859345D1*
X2435621Y1853642D1*
Y1893789D1*
X2423269Y1861291D2*
X2419422Y1859345D1*
X2413674Y1853642D1*
X2413675Y1893789D1*
X2352358Y1861984D2*
X2348512Y1860038D1*
X2342764Y1854335D1*
Y1894482D1*
X2328467Y1863885D2*
Y1861984D1*
X2326566Y1858137D1*
X2324664Y1856236D1*
X2320817Y1854335D1*
X2313168D1*
X2309366Y1856236D1*
X2307464Y1858137D1*
X2305519Y1861984D1*
Y1865786D1*
X2307464Y1869633D1*
X2311267Y1875337D1*
X2330412Y1894482D1*
X2303618D1*
X2254710Y1863329D2*
X2250863Y1861383D1*
X2245115Y1855680D1*
Y1895827D1*
X2228917Y1855680D2*
X2207915D1*
X2219367Y1870978D1*
X2213619D1*
X2209816Y1872880D1*
X2207915Y1874781D1*
X2205969Y1880529D1*
Y1884331D1*
X2207915Y1890079D1*
X2211717Y1893926D1*
X2217465Y1895827D1*
X2223213D1*
X2228917Y1893926D1*
X2230819Y1891981D1*
X2232764Y1888178D1*
X1386637Y2426904D2*
D20*
X1399537D1*
X1403848Y2428363D1*
X1405307Y2429789D1*
X1406733Y2432641D1*
Y2435526D1*
X1405307Y2438378D1*
X1403848Y2439837D1*
X1399537Y2441263D1*
X1386637D1*
Y2411119D1*
X1396685Y2426904D2*
X1406733Y2411119D1*
X1420733Y2441263D2*
X1440829Y2411119D1*
Y2441263D2*
X1420733Y2411119D1*
X1291942Y2434088D2*
Y2403944D1*
X1281894Y2434088D2*
X1301990D1*
X1315990D2*
X1336086Y2403944D1*
Y2434088D2*
X1315990Y2403944D1*
X1271433Y2159336D2*
X1284333D1*
X1288644Y2160795D1*
X1290103Y2162221D1*
X1291529Y2165073D1*
Y2167958D1*
X1290103Y2170810D1*
X1288644Y2172269D1*
X1284333Y2173695D1*
X1271433D1*
Y2143551D1*
X1281481Y2159336D2*
X1291529Y2143551D1*
X1305529Y2173695D2*
X1325625Y2143551D1*
Y2173695D2*
X1305529Y2143551D1*
X1341084Y2166499D2*
Y2167925D1*
X1342510Y2170810D1*
X1343936Y2172236D1*
X1346821Y2173662D1*
X1352558D1*
X1355410Y2172236D1*
X1356836Y2170810D1*
X1358295Y2167925D1*
Y2165073D1*
X1356836Y2162188D1*
X1353984Y2157910D1*
X1339625Y2143551D1*
X1359721D1*
X1379947Y2171633D2*
Y2141489D1*
X1369899Y2171633D2*
X1389995D1*
X1403995D2*
X1424091Y2141489D1*
Y2171633D2*
X1403995Y2141489D1*
X1439550Y2164437D2*
Y2165863D1*
X1440976Y2168748D1*
X1442402Y2170174D1*
X1445287Y2171600D1*
X1451024D1*
X1453876Y2170174D1*
X1455302Y2168748D1*
X1456761Y2165863D1*
Y2163011D1*
X1455302Y2160126D1*
X1452450Y2155848D1*
X1438091Y2141489D1*
X1458187D1*
X1149437Y479612D2*
Y439420D1*
X1176232Y479612D2*
X1149437Y452817D1*
X1158988Y462412D2*
X1176232Y439420D1*
X1190232Y466214D2*
Y447069D1*
X1192133Y441365D1*
X1195980Y439420D1*
X1201728D1*
X1205530Y441365D1*
X1211279Y447069D1*
Y466214D2*
Y439420D1*
X1225279Y466214D2*
Y439420D1*
Y454718D2*
X1227224Y460466D1*
X1231027Y464313D1*
X1234873Y466214D1*
X1240621D1*
X1260369Y479612D2*
Y447069D1*
X1262271Y441365D1*
X1266117Y439420D1*
X1269920D1*
X1254621Y466214D2*
X1268019D1*
X1293515Y479567D2*
X1283920Y468071D1*
X1295416Y477666D1*
X1293515Y479567D1*
X1330463Y460466D2*
X1328561Y464313D1*
X1322813Y466214D1*
X1317065D1*
X1311317Y464313D1*
X1309416Y460466D1*
X1311317Y456664D1*
X1315164Y454718D1*
X1324715Y452817D1*
X1328561Y450916D1*
X1330463Y447069D1*
Y445168D1*
X1328561Y441365D1*
X1322813Y439420D1*
X1317065D1*
X1311317Y441365D1*
X1309416Y445168D1*
X1398389Y479612D2*
Y439420D1*
X1384992Y479612D2*
X1411787D1*
X1425787Y454718D2*
X1448735D1*
Y458565D1*
X1446833Y462412D1*
X1444932Y464313D1*
X1441085Y466214D1*
X1435337D1*
X1431535Y464313D1*
X1427688Y460466D1*
X1425787Y454718D1*
Y450916D1*
X1427688Y445168D1*
X1431535Y441365D1*
X1435337Y439420D1*
X1441085D1*
X1444932Y441365D1*
X1448735Y445168D1*
X1462735Y454718D2*
X1485683D1*
Y458565D1*
X1483781Y462412D1*
X1481880Y464313D1*
X1478033Y466214D1*
X1472285D1*
X1468483Y464313D1*
X1464636Y460466D1*
X1462735Y454718D1*
Y450916D1*
X1464636Y445168D1*
X1468483Y441365D1*
X1472285Y439420D1*
X1478033D1*
X1481880Y441365D1*
X1485683Y445168D1*
X1499683Y466214D2*
Y439420D1*
Y458565D2*
X1505431Y464313D1*
X1509277Y466214D1*
X1514981D1*
X1518828Y464313D1*
X1520729Y458565D1*
Y439420D1*
X1555776Y460466D2*
X1553875Y464313D1*
X1548126Y466214D1*
X1542378D1*
X1536630Y464313D1*
X1534729Y460466D1*
X1536630Y456664D1*
X1540477Y454718D1*
X1550028Y452817D1*
X1553875Y450916D1*
X1555776Y447069D1*
Y445168D1*
X1553875Y441365D1*
X1548126Y439420D1*
X1542378D1*
X1536630Y441365D1*
X1534729Y445168D1*
X1571721Y466214D2*
X1583173Y439420D1*
X1579371Y431770D1*
X1575524Y427924D1*
X1571721Y426022D1*
X1569776D1*
X1594669Y466214D2*
X1583173Y439420D1*
X1649199Y460466D2*
X1666398D1*
X1672146Y462412D1*
X1674092Y464313D1*
X1675993Y468116D1*
Y471962D1*
X1674092Y475765D1*
X1672146Y477710D1*
X1666398Y479612D1*
X1649199D1*
Y439420D1*
X1662596Y460466D2*
X1675993Y439420D1*
X1689993Y458565D2*
X1707237D1*
X1712941Y460466D1*
X1714887Y462412D1*
X1716788Y466214D1*
Y471962D1*
X1714887Y475765D1*
X1712941Y477710D1*
X1707237Y479612D1*
X1689993D1*
Y439420D1*
X1730788Y479612D2*
Y439420D1*
X1785317Y479612D2*
Y439420D1*
X1812112Y479612D2*
Y439420D1*
X1785317Y460466D2*
X1812112D1*
X1849060Y466214D2*
Y439420D1*
Y460466D2*
X1845257Y464313D1*
X1841411Y466214D1*
X1835707D1*
X1831860Y464313D1*
X1828057Y460466D1*
X1826112Y454718D1*
Y450916D1*
X1828057Y445168D1*
X1831860Y441365D1*
X1835707Y439420D1*
X1841411D1*
X1845257Y441365D1*
X1849060Y445168D1*
X1868808Y479612D2*
Y447069D1*
X1870709Y441365D1*
X1874556Y439420D1*
X1878358D1*
X1863060Y466214D2*
X1876457D1*
X1932888Y479612D2*
X1948186Y439420D1*
X1963485Y479612D1*
X1979386Y443266D2*
X1977485Y441321D1*
X1979386Y439420D1*
X1981332Y441321D1*
X1979386Y443266D1*
X1999179Y479567D2*
X2020181D1*
X2008729Y464269D1*
X2014477D1*
X2018280Y462368D1*
X2020181Y460466D1*
X2022126Y454718D1*
Y450916D1*
X2020181Y445168D1*
X2016378Y441321D1*
X2010630Y439420D1*
X2004882D1*
X1999179Y441321D1*
X1997277Y443266D1*
X1995332Y447069D1*
X1168615Y2441316D2*
D124*
Y2411172D1*
X1188711Y2441316D2*
Y2411172D1*
X1168615Y2426957D2*
X1188711D1*
X1205138Y2431268D2*
X1202286Y2429842D1*
X1199401Y2426957D1*
X1197975Y2422646D1*
Y2419794D1*
X1199401Y2415483D1*
X1202286Y2412631D1*
X1205138Y2411172D1*
X1209449D1*
X1212334Y2412631D1*
X1215186Y2415483D1*
X1216645Y2419794D1*
Y2422646D1*
X1215186Y2426957D1*
X1212334Y2429842D1*
X1209449Y2431268D1*
X1205138D1*
X1241693Y2426957D2*
X1240267Y2429842D1*
X1235956Y2431268D1*
X1231645D1*
X1227334Y2429842D1*
X1225908Y2426957D1*
X1227334Y2424105D1*
X1230219Y2422646D1*
X1237382Y2421220D1*
X1240267Y2419794D1*
X1241693Y2416909D1*
Y2415483D1*
X1240267Y2412631D1*
X1235956Y2411172D1*
X1231645D1*
X1227334Y2412631D1*
X1225908Y2415483D1*
X1255268Y2441316D2*
Y2416909D1*
X1256694Y2412631D1*
X1259579Y2411172D1*
X1262431D1*
X1250957Y2431268D2*
X1261005D1*
X1155218Y673558D2*
D20*
X1166692Y643414D1*
X1178166Y673558D1*
X1192166D2*
Y643414D1*
X1226262Y673558D2*
Y643414D1*
X1206166Y673558D1*
Y643414D1*
X3416604Y980338D2*
D122*
Y961237D1*
X3433803Y959336D1*
X3431902Y961237D1*
X3429957Y966985D1*
Y972689D1*
X3431902Y978437D1*
X3435705Y982283D1*
X3441453Y984185D1*
X3445255D1*
X3451003Y982283D1*
X3454850Y978437D1*
X3456751Y972689D1*
Y966985D1*
X3454850Y961237D1*
X3452905Y959336D1*
X3449102Y957390D1*
X3429957Y996536D2*
X3456751Y1008032D1*
X3429957Y1019484D1*
X1509405Y2429734D2*
D20*
X1507979Y2432586D1*
X1505094Y2435471D1*
X1502242Y2436897D1*
X1496505D1*
X1493620Y2435471D1*
X1490768Y2432586D1*
X1489309Y2429734D1*
X1487883Y2425423D1*
Y2418227D1*
X1489309Y2413949D1*
X1490768Y2411064D1*
X1493620Y2408212D1*
X1496505Y2406753D1*
X1502242D1*
X1505094Y2408212D1*
X1507979Y2411064D1*
X1509405Y2413949D1*
X1543501Y2432586D2*
X1540649Y2435471D1*
X1536338Y2436897D1*
X1530601D1*
X1526290Y2435471D1*
X1523405Y2432586D1*
Y2429734D1*
X1524864Y2426849D1*
X1526290Y2425423D1*
X1529142Y2423997D1*
X1537764Y2421112D1*
X1540649Y2419686D1*
X1542075Y2418227D1*
X1543501Y2415375D1*
Y2411064D1*
X1540649Y2408212D1*
X1536338Y2406753D1*
X1530601D1*
X1526290Y2408212D1*
X1523405Y2411064D1*
X1585496Y2420708D2*
X1598396D1*
X1602707Y2422167D1*
X1604166Y2423593D1*
X1605592Y2426445D1*
Y2429330D1*
X1604166Y2432182D1*
X1602707Y2433641D1*
X1598396Y2435067D1*
X1585496D1*
Y2404923D1*
X1595544Y2420708D2*
X1605592Y2404923D1*
X1639688Y2430756D2*
X1636836Y2433641D1*
X1632525Y2435067D1*
X1626788D1*
X1622477Y2433641D1*
X1619592Y2430756D1*
Y2427904D1*
X1621051Y2425019D1*
X1622477Y2423593D1*
X1625329Y2422167D1*
X1633951Y2419282D1*
X1636836Y2417856D1*
X1638262Y2416397D1*
X1639688Y2413545D1*
Y2409234D1*
X1636836Y2406383D1*
X1632525Y2404923D1*
X1626788D1*
X1622477Y2406383D1*
X1619592Y2409234D1*
X1703149Y2403422D2*
Y2433566D1*
X1691675Y2403422D1*
X1680201Y2433566D1*
Y2403422D1*
X1725771Y2433566D2*
X1722886Y2432140D1*
X1720034Y2429255D1*
X1718575Y2426403D1*
X1717149Y2422092D1*
Y2414896D1*
X1718575Y2410618D1*
X1720034Y2407733D1*
X1722886Y2404881D1*
X1725771Y2403422D1*
X1731508D1*
X1734360Y2404881D1*
X1737245Y2407733D1*
X1738671Y2410618D1*
X1740097Y2414896D1*
Y2422092D1*
X1738671Y2426403D1*
X1737245Y2429255D1*
X1734360Y2432140D1*
X1731508Y2433566D1*
X1725771D1*
X1817161Y2405601D2*
Y2435745D1*
X1805687Y2405601D1*
X1794213Y2435745D1*
Y2405601D1*
X1831161Y2435745D2*
Y2405601D1*
X1895837Y2431251D2*
X1894411Y2434103D1*
X1891526Y2436988D1*
X1888674Y2438414D1*
X1882937D1*
X1880052Y2436988D1*
X1877200Y2434103D1*
X1875741Y2431251D1*
X1874315Y2426940D1*
Y2419744D1*
X1875741Y2415466D1*
X1877200Y2412581D1*
X1880052Y2409729D1*
X1882937Y2408270D1*
X1888674D1*
X1891526Y2409729D1*
X1894411Y2412581D1*
X1895837Y2415466D1*
X1909837Y2438414D2*
Y2408270D1*
X1929933Y2438414D2*
X1909837Y2418318D1*
X1917000Y2425514D2*
X1929933Y2408270D1*
X2003281Y2424649D2*
X2001855Y2427500D1*
X1998970Y2430386D1*
X1996118Y2431811D1*
X1990381D1*
X1987496Y2430386D1*
X1984644Y2427500D1*
X1983185Y2424649D1*
X1981759Y2420338D1*
Y2413141D1*
X1983185Y2408864D1*
X1984644Y2405979D1*
X1987496Y2403127D1*
X1990381Y2401667D1*
X1996118D1*
X1998970Y2403127D1*
X2001855Y2405979D1*
X2003281Y2408864D1*
X2025903Y2431778D2*
X2021592Y2430352D1*
X2018707Y2426041D1*
X2017281Y2418878D1*
Y2414567D1*
X2018707Y2407404D1*
X2021592Y2403093D1*
X2025903Y2401667D1*
X2028755D1*
X2033066Y2403093D1*
X2035918Y2407404D1*
X2037377Y2414567D1*
Y2418878D1*
X2035918Y2426041D1*
X2033066Y2430352D1*
X2028755Y2431778D1*
X2025903D1*
X2035918Y2426041D2*
X2018707Y2407404D1*
X2115974Y2423895D2*
X2114548Y2426747D1*
X2111663Y2429632D1*
X2108811Y2431058D1*
X2103074D1*
X2100189Y2429632D1*
X2097337Y2426747D1*
X2095878Y2423895D1*
X2094452Y2419584D1*
Y2412388D1*
X2095878Y2408110D1*
X2097337Y2405225D1*
X2100189Y2402373D1*
X2103074Y2400914D1*
X2108811D1*
X2111663Y2402373D1*
X2114548Y2405225D1*
X2115974Y2408110D1*
X2129974Y2425288D2*
X2132859Y2426747D1*
X2137170Y2431025D1*
Y2400914D1*
X2184314Y2436479D2*
Y2406335D1*
X2194362D1*
X2198673Y2407795D1*
X2201558Y2410646D1*
X2202984Y2413532D1*
X2204410Y2417809D1*
Y2425006D1*
X2202984Y2429317D1*
X2201558Y2432168D1*
X2198673Y2435054D1*
X2194362Y2436479D1*
X2184314D1*
X2227032Y2436446D2*
X2222721Y2435020D1*
X2219836Y2430709D1*
X2218410Y2423546D1*
Y2419235D1*
X2219836Y2412072D1*
X2222721Y2407761D1*
X2227032Y2406335D1*
X2229884D1*
X2234195Y2407761D1*
X2237047Y2412072D1*
X2238506Y2419235D1*
Y2423546D1*
X2237047Y2430709D1*
X2234195Y2435020D1*
X2229884Y2436446D1*
X2227032D1*
X2237047Y2430709D2*
X2219836Y2412072D1*
X2303563Y2428004D2*
X2302137Y2430856D1*
X2299252Y2433741D1*
X2296400Y2435167D1*
X2290663D1*
X2287778Y2433741D1*
X2284926Y2430856D1*
X2283467Y2428004D1*
X2282041Y2423693D1*
Y2416497D1*
X2283467Y2412219D1*
X2284926Y2409334D1*
X2287778Y2406482D1*
X2290663Y2405023D1*
X2296400D1*
X2299252Y2406482D1*
X2302137Y2409334D1*
X2303563Y2412219D1*
X2326185Y2435134D2*
X2321874Y2433708D1*
X2318989Y2429397D1*
X2317563Y2422234D1*
Y2417923D1*
X2318989Y2410760D1*
X2321874Y2406449D1*
X2326185Y2405023D1*
X2329037D1*
X2333348Y2406449D1*
X2336200Y2410760D1*
X2337659Y2417923D1*
Y2422234D1*
X2336200Y2429397D1*
X2333348Y2433708D1*
X2329037Y2435134D1*
X2326185D1*
X2336200Y2429397D2*
X2318989Y2410760D1*
X2388244Y2439928D2*
Y2409784D1*
X2398292D1*
X2402603Y2411243D1*
X2405488Y2414095D1*
X2406914Y2416980D1*
X2408340Y2421258D1*
Y2428454D1*
X2406914Y2432765D1*
X2405488Y2435617D1*
X2402603Y2438502D1*
X2398292Y2439928D1*
X2388244D1*
X2422340Y2434158D2*
X2425225Y2435617D1*
X2429536Y2439895D1*
Y2409784D1*
X2507495Y2431453D2*
X2506069Y2434305D1*
X2503184Y2437190D1*
X2500332Y2438616D1*
X2494595D1*
X2491710Y2437190D1*
X2488858Y2434305D1*
X2487399Y2431453D1*
X2485973Y2427142D1*
Y2419946D1*
X2487399Y2415668D1*
X2488858Y2412783D1*
X2491710Y2409931D1*
X2494595Y2408472D1*
X2500332D1*
X2503184Y2409931D1*
X2506069Y2412783D1*
X2507495Y2415668D1*
X2521495Y2432846D2*
X2524380Y2434305D1*
X2528691Y2438583D1*
Y2408472D1*
X2587230Y2441849D2*
X2602982D1*
X2594393Y2430375D1*
X2598704D1*
X2601556Y2428949D1*
X2602982Y2427523D1*
X2604441Y2423212D1*
Y2420360D1*
X2602982Y2416049D1*
X2600130Y2413164D1*
X2595819Y2411738D1*
X2591508D1*
X2587230Y2413164D1*
X2585804Y2414623D1*
X2584345Y2417475D1*
X2635652Y2441849D2*
X2621326D1*
X2619900Y2428949D1*
X2621326Y2430375D1*
X2625637Y2431834D1*
X2629915D1*
X2634226Y2430375D1*
X2637111Y2427523D1*
X2638537Y2423212D1*
Y2420360D1*
X2637111Y2416049D1*
X2634226Y2413164D1*
X2629915Y2411738D1*
X2625637D1*
X2621326Y2413164D1*
X2619900Y2414623D1*
X2618441Y2417475D1*
X2692274Y2440650D2*
X2708026D1*
X2699437Y2429176D1*
X2703748D1*
X2706600Y2427750D1*
X2708026Y2426324D1*
X2709485Y2422013D1*
Y2419161D1*
X2708026Y2414850D1*
X2705174Y2411965D1*
X2700863Y2410539D1*
X2696552D1*
X2692274Y2411965D1*
X2690848Y2413424D1*
X2689389Y2416276D1*
X2729222Y2410539D2*
X2743581Y2440650D1*
X2723485D1*
X1495297Y2174546D2*
X1511049D1*
X1502460Y2163072D1*
X1506771D1*
X1509623Y2161646D1*
X1511049Y2160220D1*
X1512508Y2155909D1*
Y2153057D1*
X1511049Y2148746D1*
X1508197Y2145861D1*
X1503886Y2144435D1*
X1499575D1*
X1495297Y2145861D1*
X1493871Y2147320D1*
X1492412Y2150172D1*
X1535130Y2174546D2*
X1530819Y2173120D1*
X1527934Y2168809D1*
X1526508Y2161646D1*
Y2157335D1*
X1527934Y2150172D1*
X1530819Y2145861D1*
X1535130Y2144435D1*
X1537982D1*
X1542293Y2145861D1*
X1545145Y2150172D1*
X1546604Y2157335D1*
Y2161646D1*
X1545145Y2168809D1*
X1542293Y2173120D1*
X1537982Y2174546D1*
X1535130D1*
X1545145Y2168809D2*
X1527934Y2150172D1*
X1590511Y2170984D2*
Y2172410D1*
X1591936Y2175295D1*
X1593362Y2176721D1*
X1596247Y2178147D1*
X1601984D1*
X1604836Y2176721D1*
X1606262Y2175295D1*
X1607721Y2172410D1*
Y2169558D1*
X1606262Y2166673D1*
X1603410Y2162395D1*
X1589051Y2148036D1*
X1609147D1*
X1626032Y2178147D2*
X1641784D1*
X1633195Y2166673D1*
X1637506D1*
X1640358Y2165247D1*
X1641784Y2163821D1*
X1643243Y2159510D1*
Y2156658D1*
X1641784Y2152347D1*
X1638932Y2149462D1*
X1634621Y2148036D1*
X1630310D1*
X1626032Y2149462D1*
X1624607Y2150921D1*
X1623147Y2153773D1*
X1714417Y1999028D2*
Y2029172D1*
X1702943Y1999028D1*
X1691469Y2029172D1*
Y1999028D1*
X1728417Y2029172D2*
Y1999028D1*
X1908071Y2021410D2*
X1906645Y2024262D1*
X1903760Y2027147D1*
X1900908Y2028573D1*
X1895171D1*
X1892286Y2027147D1*
X1889434Y2024262D1*
X1887975Y2021410D1*
X1886549Y2017099D1*
Y2009903D1*
X1887975Y2005625D1*
X1889434Y2002740D1*
X1892286Y1999888D1*
X1895171Y1998429D1*
X1900908D1*
X1903760Y1999888D1*
X1906645Y2002740D1*
X1908071Y2005625D1*
X1922071Y2028573D2*
Y1998429D1*
X1942167Y2028573D2*
X1922071Y2008477D1*
X1929234Y2015673D2*
X1942167Y1998429D1*
X2008537Y2002030D2*
Y2032174D1*
X1997063Y2002030D1*
X1985589Y2032174D1*
Y2002030D1*
X2031159Y2032174D2*
X2028274Y2030748D1*
X2025422Y2027863D1*
X2023963Y2025011D1*
X2022537Y2020700D1*
Y2013504D1*
X2023963Y2009226D1*
X2025422Y2006341D1*
X2028274Y2003489D1*
X2031159Y2002030D1*
X2036896D1*
X2039748Y2003489D1*
X2042633Y2006341D1*
X2044059Y2009226D1*
X2045485Y2013504D1*
Y2020700D1*
X2044059Y2025011D1*
X2042633Y2027863D1*
X2039748Y2030748D1*
X2036896Y2032174D1*
X2031159D1*
X2110698Y2024978D2*
Y2026404D1*
X2112124Y2029289D1*
X2113550Y2030715D1*
X2116435Y2032141D1*
X2122172D1*
X2125024Y2030715D1*
X2126450Y2029289D1*
X2127909Y2026404D1*
Y2023552D1*
X2126450Y2020667D1*
X2123598Y2016389D1*
X2109239Y2002030D1*
X2129335D1*
X2215700Y2035691D2*
D45*
X2206149D1*
X2205199Y2027091D1*
X2206149Y2028042D1*
X2209023Y2029015D1*
X2211875D1*
X2214749Y2028042D1*
X2216673Y2026141D1*
X2217623Y2023267D1*
Y2021365D1*
X2216673Y2018491D1*
X2214749Y2016568D1*
X2211875Y2015617D1*
X2209023D1*
X2206149Y2016568D1*
X2205199Y2017541D1*
X2204226Y2019442D1*
X2303110Y2031938D2*
D44*
X2305034Y2032910D1*
X2307908Y2035762D1*
Y2015688D1*
X2331382Y2035762D2*
X2321831D1*
X2320881Y2027162D1*
X2321831Y2028113D1*
X2324705Y2029086D1*
X2327557D1*
X2330431Y2028113D1*
X2332355Y2026212D1*
X2333305Y2023338D1*
Y2021436D1*
X2332355Y2018562D1*
X2330431Y2016639D1*
X2327557Y2015688D1*
X2324705D1*
X2321831Y2016639D1*
X2320881Y2017612D1*
X2319908Y2019513D1*
X2413017Y2031607D2*
X2412067Y2033509D1*
X2410143Y2035432D1*
X2408242Y2036383D1*
X2404418D1*
X2402494Y2035432D1*
X2400593Y2033509D1*
X2399620Y2031607D1*
X2398670Y2028733D1*
Y2023936D1*
X2399620Y2021084D1*
X2400593Y2019161D1*
X2402494Y2017259D1*
X2404418Y2016287D1*
X2408242D1*
X2410143Y2017259D1*
X2412067Y2019161D1*
X2413017Y2021084D1*
Y2023936D1*
X2408242D1*
X2425017Y2029684D2*
Y2016287D1*
Y2025859D2*
X2427891Y2028733D1*
X2429815Y2029684D1*
X2432667D1*
X2434590Y2028733D1*
X2435541Y2025859D1*
Y2016287D1*
X2459015Y2036383D2*
Y2016287D1*
Y2026810D2*
X2457113Y2028733D1*
X2455190Y2029684D1*
X2452316D1*
X2450415Y2028733D1*
X2448491Y2026810D1*
X2447541Y2023936D1*
Y2022035D1*
X2448491Y2019161D1*
X2450415Y2017259D1*
X2452316Y2016287D1*
X2455190D1*
X2457113Y2017259D1*
X2459015Y2019161D1*
X2515431Y2034400D2*
X2505880D1*
X2504930Y2025800D1*
X2505880Y2026751D1*
X2508754Y2027723D1*
X2511606D1*
X2514480Y2026751D1*
X2516404Y2024849D1*
X2517354Y2021975D1*
Y2020074D1*
X2516404Y2017200D1*
X2514480Y2015277D1*
X2511606Y2014326D1*
X2508754D1*
X2505880Y2015277D1*
X2504930Y2016249D1*
X2503957Y2018151D1*
X2529354Y2034422D2*
X2537004Y2014326D1*
X2544653Y2034422D1*
X1771763Y2024251D2*
D20*
Y1994107D1*
X1788974D1*
X1821610Y2024251D2*
X1802974D1*
Y1994107D1*
X1821610D1*
X1802974Y2009892D2*
X1814448D1*
X1835610Y2024251D2*
Y1994107D1*
X1845659D1*
X1849970Y1995566D1*
X1852855Y1998418D1*
X1854281Y2001303D1*
X1855707Y2005581D1*
Y2012777D1*
X1854281Y2017088D1*
X1852855Y2019940D1*
X1849970Y2022825D1*
X1845659Y2024251D1*
X1835610D1*
X1717964Y2161997D2*
D45*
Y2182093D1*
X1710315Y2161997D1*
X1702666Y2182093D1*
Y2161997D1*
X1727964Y2182093D2*
Y2161997D1*
X1910353Y2175109D2*
X1909403Y2177010D1*
X1907479Y2178933D1*
X1905578Y2179884D1*
X1901753D1*
X1899830Y2178933D1*
X1897929Y2177010D1*
X1896956Y2175109D1*
X1896005Y2172235D1*
Y2167437D1*
X1896956Y2164585D1*
X1897929Y2162662D1*
X1899830Y2160761D1*
X1901753Y2159788D1*
X1905578D1*
X1907479Y2160761D1*
X1909403Y2162662D1*
X1910353Y2164585D1*
X1920353Y2179884D2*
Y2159788D1*
X1933751Y2179884D2*
X1920353Y2166487D1*
X1925129Y2171284D2*
X1933751Y2159788D1*
X2018210Y2177461D2*
X2017260Y2179363D1*
X2014386Y2180313D1*
X2012484D1*
X2009610Y2179363D1*
X2007687Y2176489D1*
X2006736Y2171713D1*
Y2166938D1*
X2007687Y2163113D1*
X2009610Y2161190D1*
X2012484Y2160239D1*
X2013435D1*
X2016287Y2161190D1*
X2018210Y2163113D1*
X2019161Y2165987D1*
Y2166938D1*
X2018210Y2169812D1*
X2016287Y2171713D1*
X2013435Y2172664D1*
X2012484D1*
X2009610Y2171713D1*
X2007687Y2169812D1*
X2006736Y2166938D1*
X2107894Y2179932D2*
Y2180882D1*
X2108845Y2182806D1*
X2109795Y2183756D1*
X2111719Y2184707D1*
X2115544D1*
X2117445Y2183756D1*
X2118395Y2182806D1*
X2119368Y2180882D1*
Y2178981D1*
X2118395Y2177058D1*
X2116494Y2174206D1*
X2106921Y2164633D1*
X2120319D1*
X2202320Y2177044D2*
X2204244Y2178017D1*
X2207118Y2180868D1*
Y2160795D1*
X2221893Y2180868D2*
X2219041Y2179918D1*
X2218068Y2178017D1*
Y2176093D1*
X2219041Y2174192D1*
X2220942Y2173219D1*
X2224767Y2172269D1*
X2227641Y2171318D1*
X2229542Y2169395D1*
X2230493Y2167493D1*
Y2164619D1*
X2229542Y2162718D1*
X2228592Y2161745D1*
X2225718Y2160795D1*
X2221893D1*
X2219041Y2161745D1*
X2218068Y2162718D1*
X2217118Y2164619D1*
Y2167493D1*
X2218068Y2169395D1*
X2219992Y2171318D1*
X2222844Y2172269D1*
X2226668Y2173219D1*
X2228592Y2174192D1*
X2229542Y2176093D1*
Y2178017D1*
X2228592Y2179918D1*
X2225718Y2180868D1*
X2221893D1*
X2307302Y2175724D2*
X2309225Y2176696D1*
X2312099Y2179548D1*
Y2159474D1*
X2334546Y2172872D2*
X2333573Y2169998D1*
X2331672Y2168074D1*
X2328798Y2167124D1*
X2327847D1*
X2324973Y2168074D1*
X2323072Y2169998D1*
X2322099Y2172872D1*
Y2173822D1*
X2323072Y2176696D1*
X2324973Y2178598D1*
X2327847Y2179548D1*
X2328798D1*
X2331672Y2178598D1*
X2333573Y2176696D1*
X2334546Y2172872D1*
Y2168074D1*
X2333573Y2163299D1*
X2331672Y2160425D1*
X2328798Y2159474D1*
X2326897D1*
X2324023Y2160425D1*
X2323072Y2162348D1*
X2425160Y2160134D2*
Y2180208D1*
X2415587Y2166833D1*
X2429935D1*
X2517871Y2181529D2*
X2528372D1*
X2522646Y2173879D1*
X2525520D1*
X2527422Y2172929D1*
X2528372Y2171978D1*
X2529345Y2169104D1*
Y2167203D1*
X2528372Y2164329D1*
X2526471Y2162405D1*
X2523597Y2161455D1*
X2520723D1*
X2517871Y2162405D1*
X2516920Y2163378D1*
X2515948Y2165279D1*
X2614640Y2182934D2*
D20*
X2610362Y2181509D1*
X2608903Y2178657D1*
Y2175772D1*
X2610362Y2172920D1*
X2613214Y2171461D1*
X2618951Y2170035D1*
X2623262Y2168609D1*
X2626113Y2165724D1*
X2627539Y2162872D1*
Y2158561D1*
X2626113Y2155709D1*
X2624688Y2154250D1*
X2620376Y2152824D1*
X2614640D1*
X2610362Y2154250D1*
X2608903Y2155709D1*
X2607477Y2158561D1*
Y2162872D1*
X2608903Y2165724D1*
X2611788Y2168609D1*
X2616065Y2170035D1*
X2621802Y2171461D1*
X2624688Y2172920D1*
X2626113Y2175772D1*
Y2178657D1*
X2624688Y2181509D1*
X2620376Y2182934D1*
X2614640D1*
X2720316Y2150182D2*
X2734675Y2180293D1*
X2714579D1*
X1425951Y720698D2*
X1424525Y723550D1*
X1421640Y726435D1*
X1418788Y727861D1*
X1413051D1*
X1410166Y726435D1*
X1407314Y723550D1*
X1405855Y720698D1*
X1404429Y716387D1*
Y709191D1*
X1405855Y704913D1*
X1407314Y702028D1*
X1410166Y699176D1*
X1413051Y697717D1*
X1418788D1*
X1421640Y699176D1*
X1424525Y702028D1*
X1425951Y704913D1*
Y709191D1*
X1418788D1*
X1375428Y808239D2*
X1388328D1*
X1392639Y809698D1*
X1394098Y811124D1*
X1395524Y813976D1*
Y816861D1*
X1394098Y819713D1*
X1392639Y821172D1*
X1388328Y822598D1*
X1375428D1*
Y792454D1*
X1385476Y808239D2*
X1395524Y792454D1*
X1409524Y822598D2*
X1429620Y792454D1*
Y822598D2*
X1409524Y792454D1*
X1380985Y919892D2*
Y889748D1*
X1370937Y919892D2*
X1391033D1*
X1405033D2*
X1425129Y889748D1*
Y919892D2*
X1405033Y889748D1*
X1372091Y1022188D2*
X1387843D1*
X1379254Y1010714D1*
X1383565D1*
X1386417Y1009288D1*
X1387843Y1007862D1*
X1389302Y1003551D1*
Y1000699D1*
X1387843Y996388D1*
X1384991Y993503D1*
X1380680Y992077D1*
X1376369D1*
X1372091Y993503D1*
X1370665Y994962D1*
X1369206Y997814D1*
X1403302Y1022221D2*
X1414776Y992077D1*
X1426250Y1022221D1*
X1157358Y563944D2*
X1155932Y566796D1*
X1153047Y569681D1*
X1150195Y571107D1*
X1144458D1*
X1141573Y569681D1*
X1138721Y566796D1*
X1137262Y563944D1*
X1135836Y559633D1*
Y552437D1*
X1137262Y548159D1*
X1138721Y545274D1*
X1141573Y542422D1*
X1144458Y540963D1*
X1150195D1*
X1153047Y542422D1*
X1155932Y545274D1*
X1157358Y548159D1*
Y552437D1*
X1150195D1*
X1191454Y571107D2*
Y540963D1*
X1171358Y571107D1*
Y540963D1*
X1205454Y571107D2*
Y540963D1*
X1215502D1*
X1219813Y542422D1*
X1222698Y545274D1*
X1224124Y548159D1*
X1225550Y552437D1*
Y559633D1*
X1224124Y563944D1*
X1222698Y566796D1*
X1219813Y569681D1*
X1215502Y571107D1*
X1205454D1*
X3296865Y495666D2*
D123*
X3323118D1*
X3308804Y476543D1*
X3315989D1*
X3320742Y474166D1*
X3323118Y471790D1*
X3325550Y464605D1*
Y459851D1*
X3323118Y452666D1*
X3318365Y447858D1*
X3311180Y445481D1*
X3303995D1*
X3296865Y447858D1*
X3294489Y450290D1*
X3292057Y455043D1*
X3369674Y488536D2*
X3367298Y493289D1*
X3360113Y495666D1*
X3355360D1*
X3348174Y493289D1*
X3343366Y486104D1*
X3340989Y474166D1*
Y462228D1*
X3343366Y452666D1*
X3348174Y447858D1*
X3355360Y445481D1*
X3357736D1*
X3364866Y447858D1*
X3369674Y452666D1*
X3372051Y459851D1*
Y462228D1*
X3369674Y469413D1*
X3364866Y474166D1*
X3357736Y476543D1*
X3355360D1*
X3348174Y474166D1*
X3343366Y469413D1*
X3340989Y462228D1*
X2548546Y493932D2*
X2574799D1*
X2560485Y474809D1*
X2567670D1*
X2572423Y472433D1*
X2574799Y470056D1*
X2577231Y462871D1*
Y458118D1*
X2574799Y450933D1*
X2570046Y446124D1*
X2562861Y443748D1*
X2555676D1*
X2548546Y446124D1*
X2546170Y448556D1*
X2543738Y453309D1*
X2621355Y493932D2*
X2597479D1*
X2595102Y472433D1*
X2597479Y474809D1*
X2604664Y477241D1*
X2611794D1*
X2618979Y474809D1*
X2623787Y470056D1*
X2626164Y462871D1*
Y458118D1*
X2623787Y450933D1*
X2618979Y446124D1*
X2611794Y443748D1*
X2604664D1*
X2597479Y446124D1*
X2595102Y448556D1*
X2592671Y453309D1*
X2346170Y500744D2*
Y503120D1*
X2348546Y507929D1*
X2350923Y510305D1*
X2355731Y512682D1*
X2365293D1*
X2370046Y510305D1*
X2372423Y507929D1*
X2374855Y503120D1*
Y498367D1*
X2372423Y493559D1*
X2367670Y486429D1*
X2343738Y462497D1*
X2377231D1*
X2421355Y512682D2*
X2397479D1*
X2395102Y491182D1*
X2397479Y493559D1*
X2404664Y495990D1*
X2411794D1*
X2418979Y493559D1*
X2423787Y488805D1*
X2426164Y481620D1*
Y476867D1*
X2423787Y469682D1*
X2418979Y464874D1*
X2411794Y462497D1*
X2404664D1*
X2397479Y464874D1*
X2395102Y467306D1*
X2392671Y472059D1*
X3027420Y506994D2*
Y509371D1*
X3029797Y514179D1*
X3032174Y516556D1*
X3036982Y518932D1*
X3046544D1*
X3051297Y516556D1*
X3053674Y514179D1*
X3056105Y509371D1*
Y504618D1*
X3053674Y499809D1*
X3048920Y492679D1*
X3024989Y468748D1*
X3058482D1*
X3097853D2*
Y518932D1*
X3073921Y485494D1*
X3109791D1*
M02*
