G04 DipTrace 3.0.0.2*
G04 TeensyArbotixProRPIT3.6.gbl*
%MOIN*%
G04 #@! TF.FileFunction,Copper,L2,Bot*
G04 #@! TF.Part,Single*
%AMOUTLINE0*5,1,8,0,0,0.065199,-22.499571*%
G04 #@! TA.AperFunction,ViaPad*
%ADD13C,0.04*%
G04 #@! TA.AperFunction,Conductor*
%ADD14C,0.01*%
%ADD15C,0.06*%
%ADD16C,0.023622*%
%ADD17C,0.015*%
%ADD18C,0.018*%
%ADD19C,0.008*%
%ADD21C,0.09*%
%ADD22C,0.056*%
%ADD23C,0.059055*%
%ADD24C,0.07*%
%ADD25C,0.075*%
%ADD26C,0.05*%
%ADD27C,0.051181*%
G04 #@! TA.AperFunction,CopperBalancing*
%ADD28C,0.025*%
G04 #@! TA.AperFunction,Conductor*
%ADD29C,0.02*%
%ADD30C,0.08*%
%ADD31C,0.1*%
G04 #@! TA.AperFunction,CopperBalancing*
%ADD32C,0.013*%
%ADD37R,0.059055X0.051181*%
G04 #@! TA.AperFunction,ComponentPad*
%ADD39R,0.059055X0.059055*%
%ADD40C,0.059055*%
%ADD41R,0.068898X0.068898*%
%ADD42C,0.068898*%
%ADD43C,0.15748*%
%ADD46C,0.065199*%
%ADD48C,0.05315*%
%ADD51R,0.074803X0.074803*%
%ADD52C,0.074803*%
%ADD56R,0.056X0.08*%
%ADD57O,0.056X0.08*%
%ADD60C,0.06194*%
G04 #@! TA.AperFunction,ViaPad*
%ADD63C,0.165*%
G04 #@! TA.AperFunction,ComponentPad*
%ADD125OUTLINE0*%
%FSLAX26Y26*%
G04*
G70*
G90*
G75*
G01*
G04 Bottom*
%LPD*%
X2439961Y943701D2*
D13*
X2539961D1*
X2639961D1*
X2739961D1*
X2839961D1*
X2939961D1*
X3039961D1*
X3139961D1*
X3239961D1*
X3339961D1*
X3414961Y956201D1*
X3439961Y1193701D1*
X1489961Y1006201D2*
X1589961D1*
X1664961Y993701D1*
X1714961Y706201D1*
X2302461D1*
X2352461Y943701D1*
X2439961D1*
X3439961Y1193701D2*
Y1393701D1*
X2939961Y1381201D1*
X2857969D1*
X1839961Y1393701D2*
X1855208Y1408948D1*
X2857969Y1396412D1*
Y1381201D1*
X1839961Y1393701D2*
X1820991D1*
X1808991Y1405701D1*
X1773961D1*
Y1393701D1*
X1269961D1*
X2597415Y1300826D2*
X2492540Y1405701D1*
X1808991D1*
X2224202Y1403988D2*
X2222824Y1402610D1*
X1836659D1*
X1839961Y1393701D1*
X3239961Y1618701D2*
X3329961D1*
X3349961Y1598701D1*
Y1553701D1*
X3139961Y1618701D2*
X3239961D1*
X2839961Y2056201D2*
D15*
X2939961D1*
X3039961D1*
X3139961D1*
X3239961D1*
X3339961D1*
X3390999D1*
X3439961D1*
X3489179D1*
X3539961D1*
X719488Y2610630D2*
D13*
X819488D1*
X1094461Y2246732D2*
D15*
Y2125284D1*
X1114856Y2068701D1*
X1209961D1*
X1489961D1*
X1601608D1*
Y2018701D1*
X1664961D1*
Y2027175D1*
X2463538D1*
X2500131Y2063768D1*
X2763163D1*
X2750655Y2056201D1*
X2839961D1*
X2514961Y2093701D2*
D13*
X2463538Y2027175D1*
X2949961Y1553701D2*
D16*
X2749961D1*
X1209961Y2068701D2*
Y1933701D1*
X2749961Y1553701D2*
X1909961D1*
X1489961Y1981201D2*
D13*
Y2068701D1*
X1664961Y1993701D2*
Y2018701D1*
X3340414Y1726188D2*
D18*
Y1684697D1*
X3489179D1*
Y2056201D1*
X3390999D2*
Y1681110D1*
X3340414Y1726188D1*
X3489179Y1684697D2*
D13*
X3558267Y1688193D1*
X3264961Y2506201D2*
X3364961D1*
X3264961D2*
X3183166Y2493435D1*
Y2227227D1*
X2820154D1*
X2763163Y2170237D1*
Y2063768D1*
X3239961Y1293701D2*
D19*
X3183961Y1237701D1*
Y1007701D1*
X3167961Y991701D1*
X1797961D1*
X1781961Y1007701D1*
Y1083701D1*
X1683961Y1181701D1*
Y1293607D1*
X1341625D1*
Y1306299D1*
X2229961Y773701D2*
X2043961Y959701D1*
X1781961D1*
X1765961Y975701D1*
Y1051701D1*
X1749961Y1067701D1*
X1665961D1*
X1539961Y1193701D1*
X1989961Y893701D2*
X1986131Y889872D1*
X1765961D1*
X1749961Y905872D1*
Y1035701D1*
X1733961Y1051701D1*
X1499961D1*
X1483961Y1067701D1*
Y1237701D1*
X1499961Y1253701D1*
X1579961D1*
X1639961Y1193701D1*
X3439961Y1956201D2*
Y1793701D1*
X3039961Y1956201D2*
Y1793701D1*
Y1664870D1*
X2682389D1*
X2672347Y1674912D1*
X2185755D1*
X2147966Y1688960D1*
X3539961Y1956201D2*
Y1793701D1*
X2539961D2*
Y1895701D1*
Y1956201D1*
Y1895701D2*
X1473961D1*
X1469961Y1913701D1*
X2439961Y1793701D2*
X2393961Y1839701D1*
X2005961D1*
X1989961Y1823701D1*
Y1733701D1*
X2339961Y1956201D2*
X2297461Y1913701D1*
X1671120D1*
X1646513Y1938307D1*
X1633477D1*
X1914961Y2093701D2*
Y2242095D1*
X2439961Y1043701D2*
X1859961D1*
X1849961Y1053701D1*
X2839961Y1193701D2*
Y1306398D1*
X2857969D1*
X2939961Y1193701D2*
Y1306398D1*
X2911744Y1719925D2*
X2737599D1*
X2688987Y1768537D1*
Y1994970D1*
X2613995Y2009331D1*
X2594166Y2005491D1*
X2114961Y2093701D2*
X2158961Y2137701D1*
X2625961D1*
X2629961Y2133701D1*
X3339961Y1956201D2*
Y1793701D1*
X3039961Y1043701D2*
Y1193701D1*
X3139961Y1043701D2*
Y1193701D1*
X3239961Y1043701D2*
Y1193701D1*
X3339961D2*
Y1043701D1*
X1676862Y1677230D2*
X1695914Y1696280D1*
X1783117D1*
Y1647957D1*
X1997999D1*
Y1592086D1*
X2639349D1*
Y1647957D1*
X3005080D1*
X3096516Y1550316D1*
X3289961Y1553701D1*
X1264961Y1756201D2*
X1275461Y1745701D1*
X1567961D1*
X1583961Y1761701D1*
Y1821701D1*
X1599961Y1837701D1*
X1895961D1*
X1939961Y1793701D1*
X1407950Y1680806D2*
X1409344Y1682201D1*
X1611735D1*
X1652177Y1722643D1*
X1768903D1*
X1839961Y1793701D1*
X1264961Y1693701D2*
Y1674110D1*
X1319078Y1619994D1*
X1724729D1*
X1729961Y1638307D1*
X1639961Y1793701D2*
X1601633Y1723768D1*
X1358149D1*
X1340017Y1658364D1*
X3239961Y1956201D2*
Y1793701D1*
Y1693504D1*
X1489961Y906201D2*
X1339961Y1056201D1*
Y1193701D1*
X3139961Y1956201D2*
Y1793701D1*
Y1693504D1*
X2882662Y2283876D2*
X2781246Y2252125D1*
X2734420Y2187175D1*
X2452461D1*
X2414961Y2242095D1*
X2696766Y2123207D2*
X2696455D1*
X2653961Y2165701D1*
X2091355D1*
X2014961Y2242095D1*
X2939961Y1956201D2*
Y1793701D1*
X2839961Y1956201D2*
Y1793701D1*
X2739961Y1956201D2*
Y1793701D1*
X2639961Y1956201D2*
Y1793701D1*
X2583961Y1737701D1*
X2499961D1*
X2483961Y1753701D1*
Y1843701D1*
X2467961Y1859701D1*
X1395961D1*
X1389961Y1853701D1*
X2381281Y1333981D2*
Y1306201D1*
X2152461D1*
X2039961Y1193701D1*
X685583Y1243701D2*
D17*
Y1453701D1*
Y1663701D1*
X902461Y1553701D1*
X685583Y1873701D2*
X902461Y1968701D1*
X685583Y2293701D2*
Y2083701D1*
Y1873701D1*
X485583Y2293701D2*
D21*
Y2083701D1*
Y1873701D1*
Y1663701D1*
Y1453701D1*
Y1243701D1*
X525112Y1014668D1*
X552461Y856201D1*
X927461Y696851D1*
X1112500Y814961D1*
X927461Y696851D2*
X1234465Y577734D1*
X1289961Y556201D1*
X1602461D1*
X1594904Y646879D1*
X1589961Y706201D1*
X1489961D2*
X1589961D1*
X902461Y1768701D2*
D15*
X929511Y1714601D1*
X974721Y1627827D1*
X1002461Y1568701D1*
X1000721Y1540858D1*
X995288Y1453675D1*
X989961Y1368701D1*
X902461Y1353701D1*
X929511Y1714601D2*
X1052461Y1781201D1*
X1044053Y1840059D1*
X1014961Y2043701D1*
X1017449Y2074774D1*
X1023159Y2176865D1*
D22*
X1027461Y2246732D1*
Y2317463D1*
D15*
X1119488Y2510630D1*
X2439961Y843701D2*
D23*
X2539961D1*
X2639961D1*
X2707599D1*
X2739961D1*
X2839961D1*
X2939961D1*
X3039961D1*
X3139961D1*
X3239961D1*
X3339961D1*
X1000721Y1540858D2*
D15*
X1355092Y1520920D1*
X1839961Y1493701D1*
X1602461Y556201D2*
D21*
X1598949Y598344D1*
D15*
X2614961Y606201D1*
X2707599Y843701D1*
X2839961Y2156201D2*
D24*
Y2147698D1*
X2939961D1*
Y2156201D1*
D25*
X3039961D1*
X3139961D1*
X3239961D1*
X3339961D1*
X3439961D1*
X3539961D1*
X3264961Y2606201D2*
D23*
X3364961D1*
X3423528Y2616849D1*
D15*
X3503939Y2652222D1*
X3677461D1*
Y2433701D1*
Y2156201D1*
Y1818701D1*
X3639961Y1793701D1*
X3589961Y2433701D2*
X3677461D1*
X3539961Y2156201D2*
X3677461D1*
X1839961Y1493701D2*
X2605122D1*
X3047372D1*
Y1457024D1*
X3204516D1*
X3669764D1*
X3694764Y1766299D1*
X3639961Y1793701D1*
X2619488Y2510630D2*
X2687286Y2479378D1*
X2770919Y2444113D1*
X2845919Y2431613D1*
X2952461Y2506201D1*
X3208265Y2588058D1*
D23*
X3264961Y2606201D1*
X1314961Y1981201D2*
D26*
Y1926201D1*
D15*
Y1881201D1*
X1214478Y1865941D1*
X1044053Y1840059D1*
X902461Y1353701D2*
X883659Y1312355D1*
X764921Y1193617D1*
X709414Y1087214D1*
X525112Y1014668D1*
X1090158Y1631201D2*
D27*
X1034670Y1627827D1*
D15*
X974721D1*
X3152461Y1506201D2*
D17*
X3204516Y1457024D1*
X1239658Y1806004D2*
D14*
X1214478Y1865941D1*
X2746694Y1614301D2*
D17*
X3002958Y1596282D1*
X3047372Y1493701D1*
X1019588Y1458822D2*
D15*
X995288Y1453675D1*
X485583Y2293701D2*
X524322Y2352870D1*
X577441Y2405990D1*
X639935D1*
X689929D1*
X752423Y2374743D1*
X771171Y2199761D1*
X802418Y2074774D1*
X1017449D1*
X919488Y2610630D2*
D28*
X915265Y2669005D1*
X639935D1*
Y2405990D1*
X915265Y2669005D2*
X2687286D1*
Y2479378D1*
X1355092Y1513977D2*
D29*
Y1520920D1*
X2373345Y1733670D2*
D19*
X2308898D1*
X2296486Y1746082D1*
X2187580D1*
X2139961Y1793701D1*
X2787782Y1282021D2*
X2787009D1*
Y1124524D1*
X1885628D1*
Y1151368D1*
X1883961Y1149701D1*
Y1221701D1*
X1867961Y1237701D1*
X1783961D1*
X1739961Y1193701D1*
X3007368Y1275960D2*
X2990134D1*
Y1099701D1*
X1855961D1*
X1839961Y1115701D1*
Y1193701D1*
X3487315Y2318297D2*
X3408620Y2355263D1*
X3277391D1*
X3264961Y2406201D1*
X2305135Y1642874D2*
X2204328Y1639187D1*
X2057075Y1643702D1*
X2989961Y1913701D2*
Y1723592D1*
X2953998Y1687629D1*
X2705848D1*
X2696994Y1696483D1*
X2298629D1*
X2273637Y1721475D1*
X2086474D1*
X2053345Y1693701D1*
X1839961D1*
X1614961Y2342095D2*
X1597486D1*
X1608583Y2330998D1*
Y2293502D1*
X1219488D1*
Y2510630D1*
X2964961Y2406103D2*
X3114961D1*
X1519488Y2510630D2*
X1527461Y2455327D1*
X2585156Y2460973D1*
X2786355Y2383587D1*
X2891159Y2365441D1*
X2964961Y2406103D1*
X939961Y2331299D2*
X853961D1*
X839961D1*
X1519488Y2510630D2*
X1471097Y2562223D1*
X971150D1*
Y2462234D1*
X1014895Y2430987D1*
X989898Y2362244D1*
X939961Y2331299D1*
X1754760Y2397398D2*
Y2396735D1*
X2060320D1*
X2114961Y2342095D1*
X2414961D2*
Y2343701D1*
X2412399Y2341139D1*
Y2317420D1*
X2440785Y2289034D1*
X2753702D1*
X2783369Y2318701D1*
X2964961D1*
Y2331299D1*
X3052461Y2306201D2*
X3077559Y2331299D1*
X3114961D1*
X819488Y2510630D2*
Y2476410D1*
X839961Y2455937D1*
Y2406103D1*
Y2455984D2*
X771171D1*
X939961Y2406103D2*
Y2510630D1*
X919488D1*
X1252370Y2418488D2*
Y2429914D1*
X1546313D1*
X1545587Y2430639D1*
X2240523D1*
X2314961Y2356201D1*
Y2342095D1*
X2302461Y1343701D2*
X2089961D1*
X1939961Y1193701D1*
X902461Y1868701D2*
D30*
X803121Y1837803D1*
X774819Y1789232D1*
X585583D1*
Y1873701D1*
X927461Y933071D2*
D31*
X914961Y1143701D1*
Y1174839D1*
X927461Y933071D2*
D15*
X956517Y962128D1*
X1221540D1*
X1319465Y864202D1*
Y685705D1*
X1289961Y656201D1*
X914961Y1174839D2*
X846163Y1156121D1*
Y999887D1*
X927461Y933071D1*
X3514961Y981201D2*
D13*
X3614961D1*
Y1041701D1*
X3639961Y1066701D1*
Y1193701D1*
X3572797Y1555802D2*
D29*
X3617782Y1621795D1*
X3612089Y1728253D1*
X3590709Y1736307D1*
Y1834410D1*
X3623714Y1946187D1*
X3617827Y2088307D1*
X3614961Y881201D2*
D17*
X3612663Y878903D1*
Y904436D1*
X3581080Y936019D1*
X3462638D1*
X3502423Y1293701D1*
X3539961D1*
D13*
X1489961Y1981201D3*
X3340414Y1726188D3*
D3*
X3558267Y1688193D3*
X2147966Y1688960D3*
X2911744Y1719925D3*
X2594166Y2005491D3*
X1340017Y1658364D3*
X2882662Y2283876D3*
X1314961Y1981201D3*
X1090158Y1631201D3*
X2605122Y1493701D3*
X3152461Y1506201D3*
X1239658Y1806004D3*
X2746694Y1614301D3*
X1019588Y1458822D3*
X1355092Y1513977D3*
X3487315Y2318297D3*
X2305135Y1642874D3*
X2057075Y1643702D3*
X1252370Y2418488D3*
X3572797Y1555802D3*
X3617827Y2088307D3*
D63*
X2811221Y631496D3*
X527756D3*
Y2560630D3*
X2811221D3*
D13*
X3349961Y1553701D3*
X1269961Y1393701D3*
X2224202Y1403988D3*
X2597415Y1300826D3*
X1664961Y1993701D3*
X1909961Y1553701D3*
X2749961D3*
X2949961D3*
X1209961Y1933701D3*
X1341625Y1306299D3*
X2229961Y773701D3*
X1989961Y893701D3*
Y1733701D3*
X1633477Y1938307D3*
X1849961Y1053701D3*
X2629961Y2133701D3*
X3289961Y1553701D3*
X1676862Y1677230D3*
X1264961Y1756201D3*
X1407950Y1680806D3*
X1729961Y1638307D3*
X1264961Y1693701D3*
X2696766Y2123207D3*
X2381281Y1333981D3*
X2373345Y1733670D3*
X2787782Y1282021D3*
X3007368Y1275960D3*
X2989961Y1913701D3*
X1754760Y2397398D3*
X3052461Y2306201D3*
X771171Y2455984D3*
X2302461Y1343701D3*
X1469961Y1913701D3*
X1389961Y1853701D3*
X605241Y2638332D2*
D28*
X666452D1*
X2672526D2*
X2733688D1*
X2888737D2*
X3217770D1*
X3412126D2*
X3730710D1*
X624430Y2613463D2*
X661374D1*
X2677604D2*
X2714548D1*
X2907927D2*
X3207907D1*
X3421989D2*
X3560837D1*
X3619059D2*
X3730710D1*
X634587Y2588595D2*
X663229D1*
X2675749D2*
X2704391D1*
X2918034D2*
X3210348D1*
X3419597D2*
X3539352D1*
X3640593D2*
X3730710D1*
X638200Y2563726D2*
X685251D1*
X853727D2*
X885251D1*
X2553727D2*
X2585251D1*
X2653727D2*
X2700778D1*
X2921696D2*
X3227487D1*
X3302458D2*
X3327487D1*
X3402458D2*
X3535641D1*
X3644304D2*
X3730710D1*
X636052Y2538857D2*
X666843D1*
X2672136D2*
X2702927D1*
X2919499D2*
X3176706D1*
X3411735D2*
X3544772D1*
X3635124D2*
X3730710D1*
X627653Y2513988D2*
X661374D1*
X2677604D2*
X2711325D1*
X2911149D2*
X3140085D1*
X3421940D2*
X3536423D1*
X3643522D2*
X3730710D1*
X426725Y2489120D2*
X444311D1*
X611198D2*
X663034D1*
X2675944D2*
X2727780D1*
X2894645D2*
X3135202D1*
X3419792D2*
X3537448D1*
X3642448D2*
X3730710D1*
X426725Y2464251D2*
X476511D1*
X578972D2*
X684714D1*
X1054264D2*
X1084714D1*
X1154264D2*
X1184714D1*
X2661296D2*
X2760007D1*
X2862468D2*
X3135202D1*
X3403093D2*
X3545309D1*
X3634636D2*
X3730710D1*
X426725Y2439382D2*
X726315D1*
X1045671D2*
X1187497D1*
X2725944D2*
X2907419D1*
X3022477D2*
X3057419D1*
X3411345D2*
X3535690D1*
X3644206D2*
X3730710D1*
X426725Y2414513D2*
X749948D1*
X1042790D2*
X1187497D1*
X2790593D2*
X2907419D1*
X3421843D2*
X3539059D1*
X3640886D2*
X3730710D1*
X426725Y2389645D2*
X782419D1*
X1033757D2*
X1187497D1*
X3419938D2*
X3539792D1*
X3640153D2*
X3730710D1*
X426725Y2364776D2*
X782419D1*
X1024675D2*
X1187497D1*
X3460222D2*
X3535544D1*
X3644401D2*
X3730710D1*
X426725Y2339907D2*
X447848D1*
X523307D2*
X547848D1*
X623307D2*
X647848D1*
X723307D2*
X782419D1*
X1011638D2*
X1187497D1*
X3231169D2*
X3249704D1*
X3529850D2*
X3544098D1*
X3635856D2*
X3730710D1*
X742106Y2315038D2*
X782419D1*
X997477D2*
X1187497D1*
X3231169D2*
X3307419D1*
X3535222D2*
X3730710D1*
X746061Y2290170D2*
X782419D1*
X3231169D2*
X3307419D1*
X3422477D2*
X3449069D1*
X3525602D2*
X3730710D1*
X738786Y2265301D2*
X837448D1*
X3231169D2*
X3307419D1*
X3422477D2*
X3730710D1*
X426725Y2240432D2*
X459909D1*
X511296D2*
X559909D1*
X611296D2*
X650095D1*
X721061D2*
X837448D1*
X3231169D2*
X3730710D1*
X426725Y2215563D2*
X650095D1*
X721061D2*
X837448D1*
X3229655D2*
X3730710D1*
X426725Y2190694D2*
X650095D1*
X721061D2*
X837448D1*
X3585319D2*
X3730710D1*
X426725Y2165826D2*
X650095D1*
X721061D2*
X1036472D1*
X3596647D2*
X3730710D1*
X426725Y2140957D2*
X473239D1*
X497989D2*
X573239D1*
X597989D2*
X650095D1*
X721061D2*
X1036472D1*
X3595329D2*
X3730710D1*
X736296Y2116088D2*
X1037253D1*
X3656364D2*
X3730710D1*
X745671Y2091219D2*
X1045261D1*
X3665739D2*
X3730710D1*
X743522Y2066351D2*
X1054245D1*
X3660173D2*
X3730710D1*
X426725Y2041482D2*
X443140D1*
X527995D2*
X543136D1*
X627995D2*
X643136D1*
X727995D2*
X1064011D1*
X3657780D2*
X3730710D1*
X426725Y2016613D2*
X650095D1*
X721061D2*
X867087D1*
X937809D2*
X1093210D1*
X3658805D2*
X3730710D1*
X426725Y1991744D2*
X650095D1*
X721061D2*
X846628D1*
X958317D2*
X1170163D1*
X1249772D2*
X1441989D1*
X3659831D2*
X3730710D1*
X426725Y1966876D2*
X650095D1*
X721061D2*
X813571D1*
X963054D2*
X1170163D1*
X1249772D2*
X1444284D1*
X3660856D2*
X3730710D1*
X426725Y1942007D2*
X650095D1*
X721061D2*
X756784D1*
X956559D2*
X1162741D1*
X1257194D2*
X1431833D1*
X3661442D2*
X3730710D1*
X426725Y1917138D2*
X444506D1*
X949040D2*
X1165085D1*
X1254850D2*
X1422067D1*
X3654655D2*
X3730710D1*
X966081Y1892269D2*
X1188669D1*
X1231266D2*
X1363327D1*
X3647282D2*
X3730710D1*
X970427Y1867400D2*
X1344089D1*
X3639958D2*
X3730710D1*
X965007Y1842532D2*
X1309079D1*
X3670817D2*
X3730710D1*
X426725Y1817663D2*
X467722D1*
X503434D2*
X517566D1*
X946013D2*
X1286325D1*
X3693571D2*
X3730710D1*
X426725Y1792794D2*
X517575D1*
X957829D2*
X1235397D1*
X3698942D2*
X3730710D1*
X426725Y1767925D2*
X521139D1*
X963054D2*
X1218503D1*
X3692692D2*
X3730710D1*
X426725Y1743057D2*
X536667D1*
X823747D2*
X847848D1*
X957097D2*
X1218893D1*
X3667448D2*
X3730710D1*
X426725Y1718188D2*
X462936D1*
X508268D2*
X562936D1*
X608268D2*
X662936D1*
X708268D2*
X871237D1*
X933659D2*
X1224118D1*
X3650651D2*
X3730710D1*
X738054Y1693319D2*
X1216940D1*
X3652018D2*
X3730710D1*
X751628Y1668450D2*
X1224606D1*
X3653337D2*
X3730710D1*
X800700Y1643582D2*
X1251266D1*
X3371891D2*
X3467233D1*
X3654655D2*
X3730710D1*
X426725Y1618713D2*
X446360D1*
X524870D2*
X546335D1*
X624870D2*
X646335D1*
X849723D2*
X1276169D1*
X3393327D2*
X3570212D1*
X3655632D2*
X3730710D1*
X426725Y1593844D2*
X650095D1*
X721061D2*
X747897D1*
X946940D2*
X1302975D1*
X1742106D2*
X1781003D1*
X2671354D2*
X2726022D1*
X2773893D2*
X2926022D1*
X2973893D2*
X3012839D1*
X3397966D2*
X3545358D1*
X3644157D2*
X3730710D1*
X426725Y1568975D2*
X650095D1*
X721061D2*
X796921D1*
X961003D2*
X1786716D1*
X2995329D2*
X3036130D1*
X3397966D2*
X3526755D1*
X3627214D2*
X3730710D1*
X426725Y1544107D2*
X650095D1*
X721061D2*
X842673D1*
X962272D2*
X1810446D1*
X2996940D2*
X3059421D1*
X3396940D2*
X3526315D1*
X3619255D2*
X3730710D1*
X426725Y1519238D2*
X650095D1*
X721061D2*
X853171D1*
X951725D2*
X1787106D1*
X2982145D2*
X3257761D1*
X3382145D2*
X3543210D1*
X3602360D2*
X3730710D1*
X426725Y1494369D2*
X441579D1*
X729557D2*
X858444D1*
X946452D2*
X1781003D1*
X1898942D2*
X3730710D1*
X744011Y1469500D2*
X844040D1*
X960856D2*
X1786423D1*
X1893473D2*
X3730710D1*
X745475Y1444631D2*
X842575D1*
X962370D2*
X1747946D1*
X2642204D2*
X3730710D1*
X735222Y1419763D2*
X852780D1*
X952116D2*
X1230173D1*
X3479753D2*
X3730710D1*
X426725Y1394894D2*
X650095D1*
X721061D2*
X858981D1*
X945915D2*
X1221970D1*
X3487956D2*
X3730710D1*
X426725Y1370025D2*
X650095D1*
X721061D2*
X844186D1*
X960710D2*
X1228610D1*
X3487956D2*
X3730710D1*
X426725Y1345156D2*
X650095D1*
X721061D2*
X842477D1*
X962419D2*
X1315475D1*
X2427897D2*
X2486276D1*
X2619889D2*
X2800436D1*
X3487956D2*
X3514206D1*
X3565739D2*
X3730710D1*
X426725Y1320288D2*
X650095D1*
X721061D2*
X852438D1*
X952507D2*
X1295847D1*
X2427165D2*
X2511130D1*
X2641032D2*
X2760690D1*
X3592302D2*
X3730710D1*
X426725Y1295419D2*
X456589D1*
X514567D2*
X556589D1*
X614567D2*
X650095D1*
X721061D2*
X1294968D1*
X2411247D2*
X2535983D1*
X2645085D2*
X2741794D1*
X3598893D2*
X3730710D1*
X739616Y1270550D2*
X1310983D1*
X2161003D2*
X2560886D1*
X2633903D2*
X2741257D1*
X3593962D2*
X3730710D1*
X746159Y1245681D2*
X886374D1*
X943522D2*
X1315378D1*
X1364518D2*
X1415378D1*
X2164518D2*
X2215378D1*
X2264518D2*
X2315378D1*
X2364518D2*
X2415378D1*
X2464518D2*
X2515378D1*
X2564518D2*
X2615378D1*
X2664518D2*
X2715378D1*
X3572184D2*
X3615378D1*
X3664518D2*
X3730710D1*
X741472Y1220813D2*
X852585D1*
X1180339D2*
X1287936D1*
X3692009D2*
X3730710D1*
X426725Y1195944D2*
X449997D1*
X521159D2*
X549997D1*
X621159D2*
X649997D1*
X721159D2*
X805026D1*
X1180339D2*
X1281052D1*
X3698893D2*
X3730710D1*
X426725Y1171075D2*
X790231D1*
X1180339D2*
X1285739D1*
X3694206D2*
X3730710D1*
X426725Y1146206D2*
X788180D1*
X1180339D2*
X1306930D1*
X3687956D2*
X3730710D1*
X426725Y1121337D2*
X788180D1*
X1180339D2*
X1307956D1*
X3687956D2*
X3730710D1*
X426725Y1096469D2*
X788180D1*
X995866D2*
X1307956D1*
X3687956D2*
X3730710D1*
X426725Y1071600D2*
X788180D1*
X997380D2*
X1307956D1*
X3687956D2*
X3730710D1*
X426725Y1046731D2*
X788180D1*
X998845D2*
X1309518D1*
X3683317D2*
X3730710D1*
X426725Y1021862D2*
X788180D1*
X1000309D2*
X1330075D1*
X3662956D2*
X3730710D1*
X426725Y996994D2*
X788229D1*
X1267643D2*
X1354977D1*
X3670182D2*
X3730710D1*
X426725Y972125D2*
X795602D1*
X1292497D2*
X1379831D1*
X3671745D2*
X3730710D1*
X426725Y947256D2*
X820309D1*
X1317399D2*
X1404684D1*
X3660759D2*
X3730710D1*
X426725Y922387D2*
X821286D1*
X1342253D2*
X1429587D1*
X3653972D2*
X3730710D1*
X426725Y897519D2*
X826950D1*
X1027946D2*
X1046376D1*
X1178630D2*
X1205173D1*
X1366325D2*
X1433102D1*
X2391716D2*
X2407576D1*
X2472380D2*
X2507565D1*
X2572380D2*
X2607565D1*
X2672380D2*
X2707565D1*
X2772380D2*
X2807565D1*
X3072380D2*
X3107565D1*
X3172380D2*
X3207565D1*
X3397477D2*
X3457419D1*
X3670036D2*
X3730710D1*
X426725Y872650D2*
X840036D1*
X1201823D2*
X1230026D1*
X1376823D2*
X1443845D1*
X3389274D2*
X3457419D1*
X3671843D2*
X3730710D1*
X426725Y847781D2*
X865036D1*
X989909D2*
X1011081D1*
X1213932D2*
X1254929D1*
X1377458D2*
X1451413D1*
X1628483D2*
X1641667D1*
X3397331D2*
X3457419D1*
X3661198D2*
X3730710D1*
X426725Y822912D2*
X1006052D1*
X1218913D2*
X1261472D1*
X1377458D2*
X1435055D1*
X3393425D2*
X3730710D1*
X426725Y798044D2*
X899948D1*
X954997D2*
X1007126D1*
X1217839D2*
X1261472D1*
X1377458D2*
X1433054D1*
X2370768D2*
X2406735D1*
X2473161D2*
X2506735D1*
X2573161D2*
X2606735D1*
X2673161D2*
X2706735D1*
X2773161D2*
X2806735D1*
X2873161D2*
X2906735D1*
X2973161D2*
X3006735D1*
X3073161D2*
X3106735D1*
X3173161D2*
X3206735D1*
X3273161D2*
X3306735D1*
X3373161D2*
X3730710D1*
X426725Y773175D2*
X853952D1*
X1000944D2*
X1014499D1*
X1210514D2*
X1261472D1*
X1377458D2*
X1443454D1*
X1636491D2*
X1654636D1*
X2365544D2*
X3730710D1*
X426725Y748306D2*
X834323D1*
X1195134D2*
X1261472D1*
X1377458D2*
X1452048D1*
X1527897D2*
X1552048D1*
X1627897D2*
X1658981D1*
X2360319D2*
X3730710D1*
X426725Y723437D2*
X468600D1*
X586930D2*
X824167D1*
X1030729D2*
X1060104D1*
X1164909D2*
X1261472D1*
X1377458D2*
X1435202D1*
X1644743D2*
X1663278D1*
X2355095D2*
X2752048D1*
X2870378D2*
X3730710D1*
X426725Y698568D2*
X440603D1*
X614909D2*
X820749D1*
X1034196D2*
X1251364D1*
X1377458D2*
X1432956D1*
X1646940D2*
X1667624D1*
X2349821D2*
X2724069D1*
X2898356D2*
X3730710D1*
X629655Y673700D2*
X823337D1*
X1031608D2*
X1234811D1*
X1376139D2*
X1443063D1*
X1636882D2*
X1680661D1*
X2336784D2*
X2709323D1*
X2913151D2*
X3730710D1*
X636833Y648831D2*
X832419D1*
X1022477D2*
X1232468D1*
X1363444D2*
X2702145D1*
X2920329D2*
X3730710D1*
X638005Y623962D2*
X850436D1*
X1004460D2*
X1242282D1*
X1338688D2*
X2700973D1*
X2921452D2*
X3730710D1*
X633268Y599093D2*
X888766D1*
X966130D2*
X1232419D1*
X1347477D2*
X2705710D1*
X2916764D2*
X3730710D1*
X621843Y574225D2*
X1232419D1*
X1347477D2*
X2717136D1*
X2905290D2*
X3730710D1*
X426725Y549356D2*
X455124D1*
X600358D2*
X1232419D1*
X1347477D2*
X2738620D1*
X2883854D2*
X3730710D1*
X426725Y524487D2*
X510641D1*
X544841D2*
X1232419D1*
X1347477D2*
X2794138D1*
X2828337D2*
X3730710D1*
X426725Y499618D2*
X3730710D1*
X426725Y474750D2*
X3730710D1*
X426701Y449881D2*
X3730710D1*
X442009Y425012D2*
X3715378D1*
X2989950Y820732D2*
X2985667Y813058D1*
X2981079Y807132D1*
X2975729Y801884D1*
X2969716Y797412D1*
X2963150Y793798D1*
X2956155Y791110D1*
X2948859Y789398D1*
X2941398Y788692D1*
X2933910Y789007D1*
X2926535Y790336D1*
X2919409Y792656D1*
X2912663Y795922D1*
X2906425Y800074D1*
X2900808Y805035D1*
X2895917Y810713D1*
X2891843Y817004D1*
X2889972Y820728D1*
X2885667Y813058D1*
X2881079Y807132D1*
X2875729Y801884D1*
X2869716Y797412D1*
X2863150Y793798D1*
X2856155Y791110D1*
X2848859Y789398D1*
X2841398Y788692D1*
X2833910Y789007D1*
X2826535Y790336D1*
X2819409Y792656D1*
X2812663Y795922D1*
X2806425Y800074D1*
X2800808Y805035D1*
X2795917Y810713D1*
X2791843Y817004D1*
X2789972Y820728D1*
X2785667Y813058D1*
X2781079Y807132D1*
X2775729Y801884D1*
X2769716Y797412D1*
X2763150Y793798D1*
X2756155Y791110D1*
X2748859Y789398D1*
X2741398Y788692D1*
X2733910Y789007D1*
X2726535Y790336D1*
X2719409Y792656D1*
X2712663Y795922D1*
X2706425Y800074D1*
X2700808Y805035D1*
X2695917Y810713D1*
X2691843Y817004D1*
X2689972Y820728D1*
X2685667Y813058D1*
X2681079Y807132D1*
X2675729Y801884D1*
X2669716Y797412D1*
X2663150Y793798D1*
X2656155Y791110D1*
X2648859Y789398D1*
X2641398Y788692D1*
X2633910Y789007D1*
X2626535Y790336D1*
X2619409Y792656D1*
X2612663Y795922D1*
X2606425Y800074D1*
X2600808Y805035D1*
X2595917Y810713D1*
X2591843Y817004D1*
X2589972Y820728D1*
X2585667Y813058D1*
X2581079Y807132D1*
X2575729Y801884D1*
X2569716Y797412D1*
X2563150Y793798D1*
X2556155Y791110D1*
X2548859Y789398D1*
X2541398Y788692D1*
X2533910Y789007D1*
X2526535Y790336D1*
X2519409Y792656D1*
X2512663Y795922D1*
X2506425Y800074D1*
X2500808Y805035D1*
X2495917Y810713D1*
X2491843Y817004D1*
X2489972Y820728D1*
X2485667Y813058D1*
X2481079Y807132D1*
X2475729Y801884D1*
X2469716Y797412D1*
X2463150Y793798D1*
X2456155Y791110D1*
X2448859Y789398D1*
X2441398Y788692D1*
X2433910Y789007D1*
X2426535Y790336D1*
X2419409Y792656D1*
X2412663Y795922D1*
X2406425Y800074D1*
X2400808Y805035D1*
X2395917Y810713D1*
X2391843Y817004D1*
X2388662Y823789D1*
X2386432Y830944D1*
X2385196Y838335D1*
X2384974Y845826D1*
X2385773Y853278D1*
X2387577Y860552D1*
X2390352Y867513D1*
X2394048Y874033D1*
X2398595Y879990D1*
X2403909Y885274D1*
X2409892Y889787D1*
X2416995Y893695D1*
X2409062Y898217D1*
X2389326Y898201D1*
X2346985Y696827D1*
X2344970Y689978D1*
X2341909Y683528D1*
X2337877Y677636D1*
X2332972Y672447D1*
X2327316Y668090D1*
X2321048Y664671D1*
X2314323Y662274D1*
X2307305Y660959D1*
X2289961Y660701D1*
X1711391Y660841D1*
X1704339Y661958D1*
X1697549Y664164D1*
X1691187Y667406D1*
X1685411Y671602D1*
X1680362Y676651D1*
X1676166Y682427D1*
X1672924Y688789D1*
X1670718Y695579D1*
X1644432Y846187D1*
X1638501Y880294D1*
X1634479Y873857D1*
X1628871Y867291D1*
X1622305Y861683D1*
X1614943Y857171D1*
X1612874Y856217D1*
X1618713Y853120D1*
X1625698Y848044D1*
X1631804Y841939D1*
X1636880Y834953D1*
X1640800Y827259D1*
X1643468Y819047D1*
X1644819Y810518D1*
Y801884D1*
X1643468Y793355D1*
X1640800Y785143D1*
X1636880Y777449D1*
X1631804Y770463D1*
X1625698Y764358D1*
X1618713Y759282D1*
X1612874Y756217D1*
X1619083Y752891D1*
X1625157Y748501D1*
X1630578Y743326D1*
X1635246Y737463D1*
X1639073Y731020D1*
X1641990Y724117D1*
X1643942Y716881D1*
X1644893Y709447D1*
X1644761Y701208D1*
X1643575Y693808D1*
X1641394Y686638D1*
X1638259Y679831D1*
X1634228Y673514D1*
X1629376Y667802D1*
X1623793Y662803D1*
X1617583Y658608D1*
X1610860Y655297D1*
X1603749Y652929D1*
X1596383Y651550D1*
X1588898Y651184D1*
X1581432Y651838D1*
X1574125Y653501D1*
X1567111Y656142D1*
X1560522Y659711D1*
X1554478Y664142D1*
X1549092Y669353D1*
X1544464Y675248D1*
X1539972Y683228D1*
X1535667Y675558D1*
X1531079Y669632D1*
X1525729Y664384D1*
X1519716Y659912D1*
X1513150Y656298D1*
X1506155Y653610D1*
X1498859Y651898D1*
X1491398Y651192D1*
X1483910Y651507D1*
X1476535Y652836D1*
X1469409Y655156D1*
X1462663Y658422D1*
X1456425Y662574D1*
X1450808Y667535D1*
X1445917Y673213D1*
X1441843Y679504D1*
X1438662Y686289D1*
X1436432Y693444D1*
X1435196Y700835D1*
X1434974Y708326D1*
X1435773Y715778D1*
X1437577Y723052D1*
X1440352Y730013D1*
X1444048Y736533D1*
X1448595Y742490D1*
X1453909Y747774D1*
X1459892Y752287D1*
X1466995Y756195D1*
X1461209Y759282D1*
X1454223Y764358D1*
X1448118Y770463D1*
X1443042Y777449D1*
X1439122Y785143D1*
X1436454Y793355D1*
X1435103Y801884D1*
Y810518D1*
X1436454Y819047D1*
X1439122Y827259D1*
X1443042Y834953D1*
X1448118Y841939D1*
X1454223Y848044D1*
X1461209Y853120D1*
X1467048Y856185D1*
X1461209Y859282D1*
X1454223Y864358D1*
X1448118Y870463D1*
X1443042Y877449D1*
X1439122Y885143D1*
X1436454Y893355D1*
X1435103Y901884D1*
Y910518D1*
X1436279Y918170D1*
X1317529Y1037042D1*
X1313676Y1042808D1*
X1311276Y1049314D1*
X1310461Y1056201D1*
X1310474Y1056536D1*
X1310455Y1145553D1*
X1303287Y1150761D1*
X1297021Y1157027D1*
X1291812Y1164196D1*
X1287790Y1172091D1*
X1285051Y1180518D1*
X1283665Y1189270D1*
Y1198132D1*
X1285051Y1206884D1*
X1287790Y1215311D1*
X1291812Y1223206D1*
X1297021Y1230375D1*
X1303287Y1236641D1*
X1310455Y1241849D1*
X1318351Y1245872D1*
X1326778Y1248611D1*
X1335530Y1249997D1*
X1344391D1*
X1353143Y1248611D1*
X1361571Y1245872D1*
X1369466Y1241849D1*
X1376635Y1236641D1*
X1382901Y1230375D1*
X1388109Y1223206D1*
X1389946Y1219927D1*
X1394276Y1226893D1*
X1400031Y1233631D1*
X1406769Y1239386D1*
X1414324Y1244016D1*
X1422511Y1247407D1*
X1431127Y1249476D1*
X1439961Y1250171D1*
X1448795Y1249476D1*
X1456227Y1247741D1*
X1458808Y1253115D1*
X1463101Y1258561D1*
X1463347Y1258788D1*
X1468660Y1264120D1*
X1358619Y1264106D1*
X1352247Y1262057D1*
X1345195Y1260940D1*
X1338055D1*
X1331003Y1262057D1*
X1324213Y1264263D1*
X1317851Y1267504D1*
X1312075Y1271701D1*
X1307026Y1276750D1*
X1302830Y1282526D1*
X1299588Y1288887D1*
X1297382Y1295678D1*
X1296265Y1302730D1*
Y1309869D1*
X1297382Y1316921D1*
X1299588Y1323712D1*
X1302830Y1330073D1*
X1307026Y1335849D1*
X1312075Y1340898D1*
X1317851Y1345095D1*
X1323947Y1348213D1*
X1266391Y1348341D1*
X1259339Y1349458D1*
X1252549Y1351664D1*
X1246187Y1354906D1*
X1240411Y1359102D1*
X1235362Y1364151D1*
X1231166Y1369927D1*
X1227924Y1376289D1*
X1225718Y1383079D1*
X1224601Y1390131D1*
Y1397271D1*
X1225718Y1404323D1*
X1227924Y1411113D1*
X1231166Y1417475D1*
X1235362Y1423251D1*
X1240411Y1428300D1*
X1246187Y1432496D1*
X1252549Y1435738D1*
X1259339Y1437944D1*
X1266391Y1439061D1*
X1344961Y1439201D1*
X1743154D1*
X1750187Y1444496D1*
X1756549Y1447738D1*
X1763339Y1449944D1*
X1770391Y1451061D1*
X1802761Y1451201D1*
X1797014Y1457035D1*
X1792536Y1463045D1*
X1788895Y1469595D1*
X1786152Y1476570D1*
X1784358Y1483847D1*
X1783542Y1491297D1*
X1783721Y1498789D1*
X1784890Y1506192D1*
X1787029Y1513374D1*
X1790100Y1520211D1*
X1794050Y1526580D1*
X1798808Y1532370D1*
X1804291Y1537479D1*
X1810403Y1541817D1*
X1813728Y1543692D1*
X1806769Y1548016D1*
X1800031Y1553771D1*
X1794276Y1560509D1*
X1789646Y1568064D1*
X1786255Y1576251D1*
X1784186Y1584867D1*
X1783491Y1593701D1*
X1784186Y1602535D1*
X1786255Y1611151D1*
X1789247Y1618473D1*
X1778502Y1618820D1*
X1773619Y1620042D1*
X1770502Y1617651D1*
X1766771Y1611563D1*
X1762134Y1606134D1*
X1756705Y1601497D1*
X1750617Y1597767D1*
X1744021Y1595034D1*
X1736988Y1593162D1*
X1730385Y1591041D1*
X1724729Y1590494D1*
X1316763Y1590585D1*
X1309962Y1591937D1*
X1303664Y1594841D1*
X1298218Y1599134D1*
X1297991Y1599380D1*
X1244083Y1653271D1*
X1238217Y1656891D1*
X1232787Y1661528D1*
X1228151Y1666957D1*
X1224420Y1673044D1*
X1221688Y1679641D1*
X1220021Y1686583D1*
X1219461Y1693701D1*
X1220021Y1700819D1*
X1221688Y1707761D1*
X1224420Y1714358D1*
X1228151Y1720445D1*
X1231906Y1724921D1*
X1228151Y1729457D1*
X1224420Y1735544D1*
X1221688Y1742141D1*
X1220021Y1749083D1*
X1219461Y1756201D1*
X1220021Y1763319D1*
X1221688Y1770261D1*
X1224420Y1776858D1*
X1228151Y1782945D1*
X1232787Y1788374D1*
X1238217Y1793011D1*
X1244304Y1796742D1*
X1250901Y1799474D1*
X1257843Y1801141D1*
X1264961Y1801701D1*
X1272079Y1801141D1*
X1279021Y1799474D1*
X1283628Y1797659D1*
X1285051Y1806884D1*
X1287790Y1815311D1*
X1291812Y1823206D1*
X1297021Y1830375D1*
X1303287Y1836641D1*
X1310455Y1841849D1*
X1318351Y1845872D1*
X1326778Y1848611D1*
X1335530Y1849997D1*
X1344615Y1849970D1*
X1344601Y1857271D1*
X1345718Y1864323D1*
X1347924Y1871113D1*
X1351166Y1877475D1*
X1355362Y1883251D1*
X1360411Y1888299D1*
X1366187Y1892496D1*
X1372549Y1895738D1*
X1379339Y1897944D1*
X1386391Y1899061D1*
X1393531D1*
X1400583Y1897944D1*
X1407373Y1895738D1*
X1413735Y1892496D1*
X1418382Y1889189D1*
X1431654Y1889201D1*
X1427924Y1896289D1*
X1425718Y1903079D1*
X1424601Y1910131D1*
Y1917271D1*
X1425718Y1924323D1*
X1427924Y1931113D1*
X1431166Y1937475D1*
X1435362Y1943251D1*
X1440411Y1948299D1*
X1446187Y1952496D1*
X1452333Y1955638D1*
X1449420Y1960544D1*
X1446688Y1967141D1*
X1445021Y1974083D1*
X1444461Y1981201D1*
Y2013183D1*
X1247236Y2013201D1*
X1247272Y1959765D1*
X1250502Y1954358D1*
X1253234Y1947761D1*
X1254901Y1940819D1*
X1255461Y1933701D1*
X1254901Y1926583D1*
X1253234Y1919641D1*
X1250502Y1913044D1*
X1246771Y1906957D1*
X1242134Y1901528D1*
X1236705Y1896891D1*
X1230617Y1893160D1*
X1224021Y1890428D1*
X1217079Y1888761D1*
X1209961Y1888201D1*
X1202843Y1888761D1*
X1195901Y1890428D1*
X1189304Y1893160D1*
X1183217Y1896891D1*
X1177787Y1901528D1*
X1173151Y1906957D1*
X1169420Y1913044D1*
X1166688Y1919641D1*
X1165021Y1926583D1*
X1164461Y1933701D1*
X1165021Y1940819D1*
X1166688Y1947761D1*
X1169420Y1954358D1*
X1172662Y1959714D1*
X1172461Y2013201D1*
X1110501Y2013372D1*
X1101900Y2014734D1*
X1093617Y2017426D1*
X1085857Y2021379D1*
X1078811Y2026498D1*
X1072653Y2032657D1*
X1067534Y2039702D1*
X1063457Y2047797D1*
X1042249Y2106464D1*
X1039948Y2114864D1*
X1038992Y2123877D1*
X1038909Y2182472D1*
X1031495Y2181385D1*
X1024001Y2181344D1*
X1016575Y2182352D1*
X1009363Y2184387D1*
X1002506Y2187409D1*
X996138Y2191361D1*
X993959Y2193027D1*
X988415Y2189116D1*
X980934Y2185305D1*
X972950Y2182711D1*
X964658Y2181397D1*
X956263D1*
X946977Y2182991D1*
X946961Y2181232D1*
X839961D1*
Y2280207D1*
X784933Y2280209D1*
Y2412580D1*
X778289Y2411045D1*
X771171Y2410484D1*
X764053Y2411045D1*
X757111Y2412711D1*
X750514Y2415444D1*
X744427Y2419174D1*
X738997Y2423811D1*
X734361Y2429240D1*
X730630Y2435328D1*
X727898Y2441924D1*
X726231Y2448867D1*
X725709Y2455022D1*
X703024Y2455326D1*
X697255Y2456953D1*
X692025Y2459882D1*
X688982Y2462481D1*
X668740Y2483166D1*
X665811Y2488397D1*
X664184Y2494166D1*
X663870Y2498155D1*
X664184Y2527094D1*
X665811Y2532864D1*
X668740Y2538094D1*
X671339Y2541137D1*
X690790Y2560405D1*
X688982Y2562481D1*
X668740Y2583167D1*
X665811Y2588397D1*
X664184Y2594166D1*
X663870Y2598155D1*
X664184Y2627094D1*
X665811Y2632864D1*
X668740Y2638094D1*
X671339Y2641136D1*
X692025Y2661378D1*
X694065Y2662701D1*
X687523Y2663201D1*
X561595D1*
X576787Y2656859D1*
X584186Y2652715D1*
X591237Y2648004D1*
X597897Y2642754D1*
X604124Y2636998D1*
X609880Y2630771D1*
X615130Y2624111D1*
X619841Y2617060D1*
X623985Y2609661D1*
X627535Y2601960D1*
X630470Y2594004D1*
X632772Y2585842D1*
X634426Y2577525D1*
X635423Y2569104D1*
X635756Y2560630D1*
X635423Y2552157D1*
X634426Y2543735D1*
X632772Y2535418D1*
X630470Y2527256D1*
X627535Y2519300D1*
X623985Y2511599D1*
X619841Y2504200D1*
X615130Y2497149D1*
X609880Y2490490D1*
X604124Y2484263D1*
X597897Y2478506D1*
X591237Y2473256D1*
X584186Y2468545D1*
X576787Y2464401D1*
X569086Y2460851D1*
X561130Y2457916D1*
X552968Y2455614D1*
X544651Y2453960D1*
X536230Y2452963D1*
X527756Y2452630D1*
X519283Y2452963D1*
X510861Y2453960D1*
X502544Y2455614D1*
X494382Y2457916D1*
X486426Y2460851D1*
X478725Y2464401D1*
X471326Y2468545D1*
X464275Y2473256D1*
X457616Y2478506D1*
X451389Y2484263D1*
X445632Y2490490D1*
X440382Y2497149D1*
X435671Y2504200D1*
X431527Y2511599D1*
X427977Y2519300D1*
X424188Y2530285D1*
X424201Y662199D1*
X427977Y672826D1*
X431527Y680527D1*
X435671Y687926D1*
X440382Y694977D1*
X445632Y701637D1*
X451389Y707864D1*
X457616Y713620D1*
X464275Y718870D1*
X471326Y723581D1*
X478725Y727725D1*
X486426Y731275D1*
X494382Y734210D1*
X502544Y736512D1*
X510861Y738167D1*
X519283Y739163D1*
X527756Y739496D1*
X536230Y739163D1*
X544651Y738167D1*
X552968Y736512D1*
X561130Y734210D1*
X569086Y731275D1*
X576787Y727725D1*
X584186Y723581D1*
X591237Y718870D1*
X597897Y713620D1*
X604124Y707864D1*
X609880Y701637D1*
X615130Y694977D1*
X619841Y687926D1*
X623985Y680527D1*
X627535Y672826D1*
X630470Y664870D1*
X632772Y656708D1*
X634426Y648391D1*
X635423Y639970D1*
X635756Y631496D1*
X635423Y623023D1*
X634426Y614601D1*
X632772Y606284D1*
X630470Y598122D1*
X627535Y590166D1*
X623985Y582465D1*
X619841Y575066D1*
X615130Y568015D1*
X609880Y561356D1*
X604124Y555129D1*
X597897Y549372D1*
X591237Y544122D1*
X584186Y539411D1*
X576787Y535268D1*
X569086Y531717D1*
X561130Y528782D1*
X552968Y526480D1*
X544651Y524826D1*
X536230Y523829D1*
X527756Y523496D1*
X519283Y523829D1*
X510861Y524826D1*
X502544Y526480D1*
X494382Y528782D1*
X486426Y531717D1*
X478725Y535268D1*
X471326Y539411D1*
X464275Y544122D1*
X457616Y549372D1*
X451389Y555129D1*
X445632Y561356D1*
X440382Y568015D1*
X435671Y575066D1*
X431527Y582465D1*
X427977Y590166D1*
X424188Y601151D1*
X424201Y445633D1*
X425126Y438672D1*
X427062Y434032D1*
X430132Y430055D1*
X434127Y427006D1*
X438773Y425097D1*
X445810Y424186D1*
X3711818Y424201D1*
X3718729Y425126D1*
X3723370Y427062D1*
X3727348Y430132D1*
X3730394Y434125D1*
X3732305Y438774D1*
X3733214Y445787D1*
X3733201Y2641768D1*
X3732276Y2648730D1*
X3730340Y2653370D1*
X3727271Y2657346D1*
X3723277Y2660393D1*
X3718631Y2662302D1*
X3711615Y2663211D1*
X2844993Y2663200D1*
X2852550Y2660409D1*
X2860252Y2656859D1*
X2867651Y2652715D1*
X2874701Y2648004D1*
X2881361Y2642754D1*
X2887588Y2636998D1*
X2893345Y2630771D1*
X2898595Y2624111D1*
X2903306Y2617060D1*
X2907449Y2609661D1*
X2911000Y2601960D1*
X2913935Y2594004D1*
X2916237Y2585842D1*
X2917891Y2577525D1*
X2918888Y2569104D1*
X2919221Y2560630D1*
X2918888Y2552157D1*
X2917891Y2543735D1*
X2916237Y2535418D1*
X2913935Y2527256D1*
X2911000Y2519300D1*
X2907449Y2511599D1*
X2903306Y2504200D1*
X2898595Y2497149D1*
X2893345Y2490490D1*
X2887588Y2484263D1*
X2881361Y2478506D1*
X2874701Y2473256D1*
X2867651Y2468545D1*
X2860252Y2464401D1*
X2852550Y2460851D1*
X2844595Y2457916D1*
X2836433Y2455614D1*
X2828116Y2453960D1*
X2819694Y2452963D1*
X2811221Y2452630D1*
X2802747Y2452963D1*
X2794326Y2453960D1*
X2786009Y2455614D1*
X2777847Y2457916D1*
X2769891Y2460851D1*
X2762190Y2464401D1*
X2754791Y2468545D1*
X2747740Y2473256D1*
X2741080Y2478506D1*
X2734853Y2484263D1*
X2729097Y2490490D1*
X2723847Y2497149D1*
X2719136Y2504200D1*
X2714992Y2511599D1*
X2711442Y2519300D1*
X2708507Y2527256D1*
X2706205Y2535418D1*
X2704550Y2543735D1*
X2703554Y2552157D1*
X2703221Y2560630D1*
X2703554Y2569104D1*
X2704550Y2577525D1*
X2706205Y2585842D1*
X2708507Y2594004D1*
X2711442Y2601960D1*
X2714992Y2609661D1*
X2719136Y2617060D1*
X2723847Y2624111D1*
X2729097Y2630771D1*
X2734853Y2636998D1*
X2741080Y2642754D1*
X2747740Y2648004D1*
X2754791Y2652715D1*
X2762190Y2656859D1*
X2769891Y2660409D1*
X2777505Y2663218D1*
X2644017Y2663200D1*
X2648524Y2660139D1*
X2668997Y2639666D1*
X2672327Y2634682D1*
X2674402Y2629058D1*
X2675093Y2622769D1*
X2674793Y2594166D1*
X2673166Y2588397D1*
X2670237Y2583167D1*
X2667638Y2580124D1*
X2648187Y2560855D1*
X2651763Y2557012D1*
X2670237Y2538094D1*
X2673166Y2532864D1*
X2674793Y2527094D1*
X2675107Y2520605D1*
X2674793Y2494166D1*
X2673166Y2488397D1*
X2670237Y2483166D1*
X2665870Y2478356D1*
X2653710Y2466196D1*
X2794294Y2412140D1*
X2886024Y2396269D1*
X2909897Y2409446D1*
X2909934Y2457193D1*
X3019989D1*
Y2435562D1*
X3059932Y2435603D1*
X3059934Y2457193D1*
X3137717D1*
X3137806Y2497004D1*
X3138923Y2504056D1*
X3141130Y2510847D1*
X3144371Y2517208D1*
X3148568Y2522985D1*
X3153616Y2528033D1*
X3159392Y2532230D1*
X3165754Y2535471D1*
X3172544Y2537678D1*
X3227336Y2546380D1*
X3232616Y2550719D1*
X3239979Y2555231D1*
X3242048Y2556185D1*
X3235522Y2559711D1*
X3229478Y2564142D1*
X3224092Y2569353D1*
X3219464Y2575248D1*
X3215681Y2581717D1*
X3212811Y2588639D1*
X3210908Y2595888D1*
X3210008Y2603328D1*
X3210128Y2610821D1*
X3211264Y2618229D1*
X3213396Y2625413D1*
X3216485Y2632242D1*
X3220473Y2638587D1*
X3225286Y2644331D1*
X3230834Y2649368D1*
X3237016Y2653605D1*
X3243716Y2656962D1*
X3250810Y2659378D1*
X3258167Y2660808D1*
X3265650Y2661224D1*
X3273119Y2660620D1*
X3280438Y2659007D1*
X3287469Y2656415D1*
X3294083Y2652891D1*
X3300157Y2648501D1*
X3305578Y2643326D1*
X3310246Y2637463D1*
X3314073Y2631020D1*
X3314952Y2629178D1*
X3319048Y2636533D1*
X3323595Y2642490D1*
X3328909Y2647774D1*
X3334892Y2652287D1*
X3341433Y2655945D1*
X3348410Y2658680D1*
X3355694Y2660443D1*
X3363150Y2661199D1*
X3370639Y2660935D1*
X3378024Y2659656D1*
X3385166Y2657385D1*
X3391933Y2654165D1*
X3398200Y2650055D1*
X3403850Y2645132D1*
X3408779Y2639487D1*
X3412896Y2633225D1*
X3416123Y2626461D1*
X3418401Y2619322D1*
X3419688Y2611939D1*
X3419932Y2603702D1*
X3419082Y2596256D1*
X3417229Y2588994D1*
X3414406Y2582052D1*
X3410667Y2575558D1*
X3406079Y2569632D1*
X3400729Y2564384D1*
X3394716Y2559912D1*
X3387926Y2556200D1*
X3393713Y2553120D1*
X3400698Y2548044D1*
X3406804Y2541939D1*
X3411880Y2534953D1*
X3415800Y2527259D1*
X3418468Y2519047D1*
X3419819Y2510518D1*
Y2501884D1*
X3418468Y2493355D1*
X3415800Y2485143D1*
X3411880Y2477449D1*
X3406804Y2470463D1*
X3400698Y2464358D1*
X3393713Y2459282D1*
X3387874Y2456217D1*
X3393713Y2453120D1*
X3400698Y2448044D1*
X3406804Y2441939D1*
X3411880Y2434953D1*
X3415800Y2427259D1*
X3418468Y2419047D1*
X3419819Y2410518D1*
Y2401884D1*
X3418468Y2393355D1*
X3415270Y2383993D1*
X3421162Y2381964D1*
X3468495Y2359730D1*
X3476693Y2362540D1*
X3483745Y2363657D1*
X3490885D1*
X3497937Y2362540D1*
X3504727Y2360333D1*
X3511089Y2357092D1*
X3516865Y2352895D1*
X3521914Y2347847D1*
X3526110Y2342070D1*
X3529352Y2335709D1*
X3531558Y2328919D1*
X3532675Y2321867D1*
Y2314727D1*
X3531558Y2307675D1*
X3529352Y2300885D1*
X3526110Y2294523D1*
X3521914Y2288747D1*
X3516865Y2283698D1*
X3511089Y2279502D1*
X3504727Y2276260D1*
X3497937Y2274054D1*
X3490885Y2272937D1*
X3483745D1*
X3476693Y2274054D1*
X3469903Y2276260D1*
X3463541Y2279502D1*
X3457765Y2283698D1*
X3452717Y2288747D1*
X3448520Y2294523D1*
X3445279Y2300885D1*
X3443455Y2306318D1*
X3420015Y2317317D1*
X3419989Y2251173D1*
X3309934D1*
Y2325734D1*
X3275077Y2325853D1*
X3268275Y2327206D1*
X3261978Y2330110D1*
X3256532Y2334403D1*
X3252238Y2339849D1*
X3249335Y2346147D1*
X3248026Y2351163D1*
X3228631Y2351173D1*
X3228526Y2223657D1*
X3227409Y2216605D1*
X3225045Y2209473D1*
X3233167Y2210808D1*
X3240650Y2211224D1*
X3248119Y2210620D1*
X3255438Y2209007D1*
X3262469Y2206415D1*
X3269083Y2202891D1*
X3275157Y2198501D1*
X3280578Y2193326D1*
X3285246Y2187463D1*
X3289073Y2181020D1*
X3289952Y2179178D1*
X3294048Y2186533D1*
X3298595Y2192490D1*
X3303909Y2197774D1*
X3309892Y2202287D1*
X3316433Y2205945D1*
X3323410Y2208680D1*
X3330694Y2210443D1*
X3338150Y2211199D1*
X3345639Y2210935D1*
X3353024Y2209656D1*
X3360166Y2207385D1*
X3366933Y2204165D1*
X3373200Y2200055D1*
X3378850Y2195132D1*
X3383779Y2189487D1*
X3387896Y2183225D1*
X3389952Y2179178D1*
X3394048Y2186533D1*
X3398595Y2192490D1*
X3403909Y2197774D1*
X3409892Y2202287D1*
X3416433Y2205945D1*
X3423410Y2208680D1*
X3430694Y2210443D1*
X3438150Y2211199D1*
X3445639Y2210935D1*
X3453024Y2209656D1*
X3460166Y2207385D1*
X3466933Y2204165D1*
X3473200Y2200055D1*
X3478850Y2195132D1*
X3483779Y2189487D1*
X3487896Y2183225D1*
X3489952Y2179178D1*
X3494048Y2186533D1*
X3498595Y2192490D1*
X3503909Y2197774D1*
X3509892Y2202287D1*
X3516433Y2205945D1*
X3523410Y2208680D1*
X3530694Y2210443D1*
X3538150Y2211199D1*
X3545639Y2210935D1*
X3553024Y2209656D1*
X3560166Y2207385D1*
X3566933Y2204165D1*
X3573200Y2200055D1*
X3578850Y2195132D1*
X3583779Y2189487D1*
X3587896Y2183225D1*
X3591123Y2176461D1*
X3593401Y2169322D1*
X3594688Y2161939D1*
X3594932Y2153702D1*
X3594082Y2146256D1*
X3592229Y2138994D1*
X3589406Y2132052D1*
X3585667Y2125558D1*
X3581079Y2119632D1*
X3575729Y2114384D1*
X3569716Y2109912D1*
X3563474Y2106458D1*
X3568960Y2103523D1*
X3573880Y2100079D1*
X3575790Y2105719D1*
X3579032Y2112081D1*
X3583229Y2117857D1*
X3588277Y2122906D1*
X3594053Y2127102D1*
X3600415Y2130344D1*
X3607205Y2132550D1*
X3614257Y2133667D1*
X3621397D1*
X3628449Y2132550D1*
X3635239Y2130344D1*
X3641601Y2127102D1*
X3647377Y2122906D1*
X3652425Y2117857D1*
X3656622Y2112081D1*
X3659864Y2105719D1*
X3662070Y2098929D1*
X3663187Y2091877D1*
Y2084737D1*
X3662070Y2077686D1*
X3659864Y2070895D1*
X3656622Y2064534D1*
X3654456Y2061333D1*
X3659190Y1944868D1*
X3658547Y1939335D1*
X3643601Y1888180D1*
X3632221Y1849640D1*
X3641353Y1850154D1*
X3648816Y1849472D1*
X3656124Y1847808D1*
X3663147Y1845191D1*
X3669761Y1841668D1*
X3675850Y1837299D1*
X3681308Y1832162D1*
X3686037Y1826348D1*
X3689954Y1819959D1*
X3692991Y1813107D1*
X3695094Y1805914D1*
X3696226Y1798506D1*
X3696375Y1791202D1*
X3695548Y1783753D1*
X3693741Y1776480D1*
X3690987Y1769510D1*
X3687334Y1762966D1*
X3682846Y1756963D1*
X3677604Y1751608D1*
X3671698Y1746993D1*
X3665233Y1743202D1*
X3658323Y1740300D1*
X3651090Y1738339D1*
X3646316Y1737593D1*
X3647539Y1730149D1*
X3653271Y1620904D1*
X3652695Y1615363D1*
X3651259Y1609981D1*
X3648998Y1604890D1*
X3633034Y1581143D1*
X3618155Y1559316D1*
X3618157Y1552232D1*
X3617040Y1545180D1*
X3614833Y1538390D1*
X3611592Y1532028D1*
X3607395Y1526252D1*
X3602347Y1521204D1*
X3596570Y1517007D1*
X3590209Y1513766D1*
X3583419Y1511559D1*
X3576367Y1510442D1*
X3569227D1*
X3562175Y1511559D1*
X3555385Y1513766D1*
X3549023Y1517007D1*
X3543247Y1521204D1*
X3538198Y1526252D1*
X3534002Y1532028D1*
X3530760Y1538390D1*
X3528554Y1545180D1*
X3527437Y1552232D1*
Y1559372D1*
X3528554Y1566424D1*
X3530760Y1573214D1*
X3534002Y1579576D1*
X3538198Y1585352D1*
X3543247Y1590401D1*
X3549023Y1594597D1*
X3555385Y1597839D1*
X3559502Y1599291D1*
X3581720Y1631919D1*
X3580797Y1648619D1*
X3572327Y1644920D1*
X3565384Y1643253D1*
X3548082Y1642119D1*
X3487906Y1639215D1*
X3480806Y1639974D1*
X3473913Y1641834D1*
X3467396Y1644750D1*
X3461415Y1648649D1*
X3459540Y1650214D1*
X3406012Y1650048D1*
X3400968Y1648082D1*
X3395678Y1646929D1*
X3390274Y1646618D1*
X3384887Y1647156D1*
X3379650Y1648530D1*
X3377441Y1649400D1*
X3370973Y1642036D1*
X3384559Y1628251D1*
X3388756Y1622475D1*
X3391997Y1616113D1*
X3394204Y1609323D1*
X3395321Y1602271D1*
X3395461Y1553701D1*
X3394901Y1546583D1*
X3393234Y1539641D1*
X3390502Y1533044D1*
X3386771Y1526957D1*
X3382134Y1521528D1*
X3376705Y1516891D1*
X3370617Y1513160D1*
X3364021Y1510428D1*
X3357079Y1508761D1*
X3349961Y1508201D1*
X3342843Y1508761D1*
X3335901Y1510428D1*
X3329304Y1513160D1*
X3323217Y1516891D1*
X3320134Y1519358D1*
X3313735Y1514906D1*
X3307373Y1511664D1*
X3300583Y1509458D1*
X3293531Y1508341D1*
X3286391D1*
X3279339Y1509458D1*
X3272549Y1511664D1*
X3266187Y1514906D1*
X3260411Y1519103D1*
X3255864Y1523608D1*
X3094716Y1520871D1*
X3087892Y1522105D1*
X3081545Y1524898D1*
X3076024Y1529095D1*
X2992245Y1618505D1*
X2668801Y1618457D1*
X2668833Y1591679D1*
X2672461Y1591012D1*
X2723877D1*
X2729304Y1594242D1*
X2735901Y1596974D1*
X2742843Y1598641D1*
X2749961Y1599201D1*
X2757079Y1598641D1*
X2764021Y1596974D1*
X2770617Y1594242D1*
X2775974Y1591000D1*
X2923935Y1591012D1*
X2929304Y1594242D1*
X2935901Y1596974D1*
X2942843Y1598641D1*
X2949961Y1599201D1*
X2957079Y1598641D1*
X2964021Y1596974D1*
X2970617Y1594242D1*
X2976705Y1590511D1*
X2982134Y1585874D1*
X2986771Y1580445D1*
X2990502Y1574358D1*
X2993234Y1567761D1*
X2994901Y1560819D1*
X2995461Y1553701D1*
X2994901Y1546583D1*
X2993234Y1539641D1*
X2990502Y1533044D1*
X2986771Y1526957D1*
X2982134Y1521528D1*
X2976705Y1516891D1*
X2970617Y1513160D1*
X2964021Y1510428D1*
X2957079Y1508761D1*
X2949961Y1508201D1*
X2942843Y1508761D1*
X2935901Y1510428D1*
X2929304Y1513160D1*
X2923948Y1516402D1*
X2775986Y1516390D1*
X2770617Y1513160D1*
X2764021Y1510428D1*
X2757079Y1508761D1*
X2749961Y1508201D1*
X2742843Y1508761D1*
X2735901Y1510428D1*
X2729304Y1513160D1*
X2723948Y1516402D1*
X1936045Y1516390D1*
X1930617Y1513160D1*
X1924021Y1510428D1*
X1917079Y1508761D1*
X1909961Y1508201D1*
X1902843Y1508761D1*
X1895901Y1510428D1*
X1893635Y1511264D1*
X1895581Y1503462D1*
X1896383Y1496011D1*
X1896209Y1488708D1*
X1895053Y1481303D1*
X1892926Y1474117D1*
X1889866Y1467275D1*
X1885927Y1460899D1*
X1880229Y1454131D1*
X2133991Y1451201D1*
X2496109Y1451061D1*
X2503161Y1449944D1*
X2509952Y1447738D1*
X2513257Y1446208D1*
X2862105Y1441724D1*
X2869143Y1440519D1*
X2875905Y1438228D1*
X2882225Y1434907D1*
X2885009Y1432989D1*
X2890441Y1432291D1*
X2994989D1*
Y1428043D1*
X3442396Y1439136D1*
X3449474Y1438196D1*
X3456317Y1436160D1*
X3462758Y1433078D1*
X3468637Y1429027D1*
X3473810Y1424106D1*
X3478150Y1418437D1*
X3481549Y1412158D1*
X3483925Y1405425D1*
X3485217Y1398403D1*
X3485461Y1381201D1*
Y1321972D1*
X3491158Y1324705D1*
X3492605Y1325193D1*
X3500031Y1333631D1*
X3506769Y1339386D1*
X3514324Y1344016D1*
X3522511Y1347407D1*
X3531127Y1349476D1*
X3539961Y1350171D1*
X3548795Y1349476D1*
X3557411Y1347407D1*
X3565598Y1344016D1*
X3573153Y1339386D1*
X3579891Y1333631D1*
X3585646Y1326893D1*
X3590276Y1319338D1*
X3593667Y1311151D1*
X3595735Y1302535D1*
X3596431Y1293701D1*
X3595735Y1284867D1*
X3593667Y1276251D1*
X3590276Y1268064D1*
X3585646Y1260509D1*
X3579891Y1253771D1*
X3573153Y1248016D1*
X3566187Y1243716D1*
X3573153Y1239386D1*
X3579891Y1233631D1*
X3585646Y1226893D1*
X3589946Y1219927D1*
X3594276Y1226893D1*
X3600031Y1233631D1*
X3606769Y1239386D1*
X3614324Y1244016D1*
X3622511Y1247407D1*
X3631127Y1249476D1*
X3639961Y1250171D1*
X3648795Y1249476D1*
X3657411Y1247407D1*
X3665598Y1244016D1*
X3673153Y1239386D1*
X3679891Y1233631D1*
X3685646Y1226893D1*
X3690276Y1219338D1*
X3693667Y1211151D1*
X3695735Y1202535D1*
X3696431Y1193701D1*
X3695735Y1184867D1*
X3693667Y1176251D1*
X3690276Y1168064D1*
X3685442Y1160250D1*
X3685321Y1063131D1*
X3684204Y1056079D1*
X3681997Y1049289D1*
X3678756Y1042927D1*
X3674559Y1037151D1*
X3660430Y1022823D1*
X3660461Y1012160D1*
X3663991Y1006183D1*
X3667295Y998205D1*
X3669311Y989809D1*
X3669988Y981201D1*
X3669311Y972593D1*
X3667295Y964197D1*
X3663991Y956219D1*
X3659479Y948857D1*
X3653871Y942291D1*
X3647305Y936683D1*
X3639943Y932171D1*
X3637874Y931217D1*
X3643713Y928120D1*
X3650698Y923044D1*
X3656804Y916939D1*
X3661880Y909953D1*
X3665800Y902259D1*
X3668468Y894047D1*
X3669819Y885518D1*
Y876884D1*
X3668468Y868355D1*
X3665800Y860143D1*
X3661880Y852449D1*
X3656804Y845463D1*
X3650698Y839358D1*
X3643713Y834282D1*
X3636019Y830362D1*
X3627807Y827694D1*
X3619278Y826343D1*
X3610643D1*
X3602115Y827694D1*
X3593903Y830362D1*
X3586209Y834282D1*
X3579223Y839358D1*
X3573118Y845463D1*
X3569983Y849544D1*
X3569989Y826173D1*
X3459933D1*
Y903175D1*
X3453904Y904195D1*
X3446716Y907113D1*
X3440409Y911629D1*
X3436633Y915724D1*
X3435944Y915828D1*
X3429370Y913043D1*
X3422441Y911320D1*
X3395036Y906752D1*
X3394988Y888673D1*
X3371697D1*
X3378850Y882632D1*
X3383779Y876987D1*
X3387896Y870725D1*
X3391123Y863961D1*
X3393401Y856822D1*
X3394688Y849439D1*
X3394932Y841202D1*
X3394082Y833756D1*
X3392229Y826494D1*
X3389406Y819552D1*
X3385667Y813058D1*
X3381079Y807132D1*
X3375729Y801884D1*
X3369716Y797412D1*
X3363150Y793798D1*
X3356155Y791110D1*
X3348859Y789398D1*
X3341398Y788692D1*
X3333910Y789007D1*
X3326535Y790336D1*
X3319409Y792656D1*
X3312663Y795922D1*
X3306425Y800074D1*
X3300808Y805035D1*
X3295917Y810713D1*
X3291843Y817004D1*
X3289972Y820728D1*
X3285667Y813058D1*
X3281079Y807132D1*
X3275729Y801884D1*
X3269716Y797412D1*
X3263150Y793798D1*
X3256155Y791110D1*
X3248859Y789398D1*
X3241398Y788692D1*
X3233910Y789007D1*
X3226535Y790336D1*
X3219409Y792656D1*
X3212663Y795922D1*
X3206425Y800074D1*
X3200808Y805035D1*
X3195917Y810713D1*
X3191843Y817004D1*
X3189972Y820728D1*
X3185667Y813058D1*
X3181079Y807132D1*
X3175729Y801884D1*
X3169716Y797412D1*
X3163150Y793798D1*
X3156155Y791110D1*
X3148859Y789398D1*
X3141398Y788692D1*
X3133910Y789007D1*
X3126535Y790336D1*
X3119409Y792656D1*
X3112663Y795922D1*
X3106425Y800074D1*
X3100808Y805035D1*
X3095917Y810713D1*
X3091843Y817004D1*
X3089972Y820728D1*
X3085667Y813058D1*
X3081079Y807132D1*
X3075729Y801884D1*
X3069716Y797412D1*
X3063150Y793798D1*
X3056155Y791110D1*
X3048859Y789398D1*
X3041398Y788692D1*
X3033910Y789007D1*
X3026535Y790336D1*
X3019409Y792656D1*
X3012663Y795922D1*
X3006425Y800074D1*
X3000808Y805035D1*
X2995917Y810713D1*
X2991843Y817004D1*
X2989972Y820728D1*
X2817048Y893717D2*
X2811209Y896782D1*
X2809062Y898217D1*
X2770869Y898201D1*
X2762874Y893717D1*
X2769083Y890391D1*
X2775157Y886001D1*
X2780578Y880826D1*
X2785246Y874963D1*
X2789073Y868520D1*
X2789952Y866678D1*
X2794048Y874033D1*
X2798595Y879990D1*
X2803909Y885274D1*
X2809892Y889787D1*
X2816995Y893695D1*
X2717048Y893717D2*
X2711209Y896782D1*
X2709062Y898217D1*
X2670869Y898201D1*
X2662874Y893717D1*
X2669083Y890391D1*
X2675157Y886001D1*
X2680578Y880826D1*
X2685246Y874963D1*
X2689073Y868520D1*
X2689952Y866678D1*
X2694048Y874033D1*
X2698595Y879990D1*
X2703909Y885274D1*
X2709892Y889787D1*
X2716995Y893695D1*
X2617048Y893717D2*
X2611209Y896782D1*
X2609062Y898217D1*
X2570869Y898201D1*
X2562874Y893717D1*
X2569083Y890391D1*
X2575157Y886001D1*
X2580578Y880826D1*
X2585246Y874963D1*
X2589073Y868520D1*
X2589952Y866678D1*
X2594048Y874033D1*
X2598595Y879990D1*
X2603909Y885274D1*
X2609892Y889787D1*
X2616995Y893695D1*
X2517048Y893717D2*
X2511209Y896782D1*
X2509062Y898217D1*
X2470869Y898201D1*
X2462874Y893717D1*
X2469083Y890391D1*
X2475157Y886001D1*
X2480578Y880826D1*
X2485246Y874963D1*
X2489073Y868520D1*
X2489952Y866678D1*
X2494048Y874033D1*
X2498595Y879990D1*
X2503909Y885274D1*
X2509892Y889787D1*
X2516995Y893695D1*
X3217048Y893717D2*
X3211209Y896782D1*
X3209062Y898217D1*
X3170869Y898201D1*
X3162874Y893717D1*
X3169083Y890391D1*
X3175157Y886001D1*
X3180578Y880826D1*
X3185246Y874963D1*
X3189073Y868520D1*
X3189952Y866678D1*
X3194048Y874033D1*
X3198595Y879990D1*
X3203909Y885274D1*
X3209892Y889787D1*
X3216995Y893695D1*
X3117048Y893717D2*
X3111209Y896782D1*
X3109062Y898217D1*
X3070869Y898201D1*
X3062874Y893717D1*
X3069083Y890391D1*
X3075157Y886001D1*
X3080578Y880826D1*
X3085246Y874963D1*
X3089073Y868520D1*
X3089952Y866678D1*
X3094048Y874033D1*
X3098595Y879990D1*
X3103909Y885274D1*
X3109892Y889787D1*
X3116995Y893695D1*
X1028222Y906613D2*
X1023766Y893180D1*
X1020340Y885747D1*
X1016340Y878606D1*
X1011793Y871800D1*
X1006726Y865373D1*
X1001170Y859362D1*
X995159Y853806D1*
X988732Y848739D1*
X981926Y844192D1*
X974785Y840192D1*
X967352Y836766D1*
X959673Y833933D1*
X951795Y831711D1*
X943768Y830114D1*
X935639Y829152D1*
X927461Y828831D1*
X919282Y829152D1*
X911154Y830114D1*
X903126Y831711D1*
X895249Y833933D1*
X887570Y836766D1*
X880137Y840192D1*
X872996Y844192D1*
X866190Y848739D1*
X859762Y853806D1*
X853752Y859362D1*
X848196Y865373D1*
X843129Y871800D1*
X838581Y878606D1*
X834582Y885747D1*
X831155Y893180D1*
X828323Y900859D1*
X826101Y908737D1*
X824504Y916764D1*
X823542Y924892D1*
X823221Y933071D1*
X824125Y946171D1*
X807668Y959907D1*
X801888Y966421D1*
X797198Y973760D1*
X793713Y981741D1*
X791520Y990170D1*
X790663Y999887D1*
X790834Y1160475D1*
X792196Y1169077D1*
X794888Y1177360D1*
X798841Y1185120D1*
X803960Y1192165D1*
X810119Y1198324D1*
X817164Y1203443D1*
X824924Y1207396D1*
X831593Y1209674D1*
X851051Y1214968D1*
X857550Y1223872D1*
X865927Y1232250D1*
X875512Y1239213D1*
X886068Y1244592D1*
X897336Y1248253D1*
X909037Y1250106D1*
X920885D1*
X932586Y1248253D1*
X943854Y1244592D1*
X954410Y1239213D1*
X963994Y1232250D1*
X972372Y1223872D1*
X973648Y1222254D1*
X982095Y1228471D1*
X990889Y1232952D1*
X1000277Y1236002D1*
X1010026Y1237546D1*
X1019896D1*
X1029645Y1236002D1*
X1039032Y1232952D1*
X1047827Y1228471D1*
X1052070Y1225620D1*
X1052060Y1237740D1*
X1177863D1*
Y1111937D1*
X1052060D1*
X1051933Y1123950D1*
X1043518Y1118793D1*
X1034398Y1115016D1*
X1024801Y1112712D1*
X1014961Y1111937D1*
X1005121Y1112712D1*
X995523Y1115016D1*
X992211Y1116238D1*
X998078Y1017593D1*
X1225894Y1017456D1*
X1234496Y1016094D1*
X1242779Y1013403D1*
X1250538Y1009449D1*
X1257584Y1004330D1*
X1287301Y974855D1*
X1361667Y900247D1*
X1366786Y893201D1*
X1370740Y885441D1*
X1373431Y877159D1*
X1374794Y868557D1*
X1374965Y826702D1*
X1374794Y681350D1*
X1373431Y672749D1*
X1370740Y664466D1*
X1366786Y656706D1*
X1361667Y649661D1*
X1332193Y619944D1*
X1326005Y613998D1*
X1322484Y611234D1*
X1344989Y611228D1*
Y501173D1*
X1234933D1*
Y611228D1*
X1257339Y611301D1*
X1250716Y616957D1*
X1245060Y623579D1*
X1240510Y631005D1*
X1237177Y639051D1*
X1235144Y647519D1*
X1234461Y656201D1*
X1235144Y664883D1*
X1237177Y673351D1*
X1240510Y681397D1*
X1245060Y688823D1*
X1250716Y695445D1*
X1264009Y708738D1*
X1263965Y841223D1*
X1198565Y906614D1*
X1162116Y906628D1*
X1172374Y900290D1*
X1182152Y892515D1*
X1190930Y883625D1*
X1198581Y873750D1*
X1204995Y863030D1*
X1210082Y851620D1*
X1213766Y839683D1*
X1215997Y827391D1*
X1216740Y814961D1*
X1215992Y802491D1*
X1213757Y790200D1*
X1210068Y778264D1*
X1204977Y766856D1*
X1198558Y756139D1*
X1190903Y746266D1*
X1182123Y737380D1*
X1172342Y729609D1*
X1161702Y723063D1*
X1150355Y717837D1*
X1138464Y714006D1*
X1126201Y711625D1*
X1113740Y710728D1*
X1101262Y711328D1*
X1088945Y713417D1*
X1076967Y716964D1*
X1065499Y721918D1*
X1054706Y728209D1*
X1044743Y735746D1*
X1035753Y744420D1*
X1027866Y754108D1*
X1021194Y764670D1*
X1015833Y775954D1*
X1011861Y787798D1*
X1009335Y800032D1*
X1008290Y812481D1*
X1008741Y824965D1*
X1010683Y837306D1*
X1014087Y849326D1*
X1018905Y860852D1*
X1025067Y871719D1*
X1032485Y881771D1*
X1041052Y890863D1*
X1050645Y898865D1*
X1061127Y905662D1*
X1062897Y906637D1*
X1028327Y906628D1*
X1031671Y694351D2*
X1030624Y681902D1*
X1028095Y669668D1*
X1024120Y657825D1*
X1018757Y646542D1*
X1012084Y635982D1*
X1004194Y626296D1*
X995203Y617623D1*
X985238Y610088D1*
X974444Y603799D1*
X962975Y598847D1*
X950996Y595302D1*
X938679Y593216D1*
X926201Y592618D1*
X913741Y593517D1*
X901478Y595901D1*
X889588Y599734D1*
X878242Y604962D1*
X867603Y611510D1*
X857824Y619283D1*
X849045Y628171D1*
X841392Y638045D1*
X834975Y648764D1*
X829886Y660173D1*
X826200Y672109D1*
X823967Y684400D1*
X823221Y696870D1*
X823972Y709340D1*
X826209Y721631D1*
X829900Y733566D1*
X834993Y744973D1*
X841414Y755689D1*
X849071Y765560D1*
X857853Y774444D1*
X867636Y782214D1*
X878277Y788758D1*
X889625Y793982D1*
X901516Y797810D1*
X913780Y800189D1*
X926241Y801084D1*
X938719Y800481D1*
X951035Y798390D1*
X963013Y794841D1*
X974480Y789884D1*
X985272Y783591D1*
X995233Y776053D1*
X1004221Y767376D1*
X1012107Y757687D1*
X1018777Y747124D1*
X1024135Y735839D1*
X1028105Y723994D1*
X1030629Y711760D1*
X1031672Y699311D1*
X1031671Y694351D1*
X858834Y2549941D2*
X869263Y2539328D1*
X871339Y2541136D1*
X890790Y2560405D1*
X888982Y2562481D1*
X869714Y2581932D1*
X867638Y2580124D1*
X848199Y2560865D1*
X849995Y2558780D1*
X858834Y2549941D1*
X1058799Y2471285D2*
X1046952Y2459882D1*
X1041722Y2456953D1*
X1035953Y2455326D1*
X1033534Y2455074D1*
X1033050Y2454239D1*
X1037977Y2449358D1*
X1041628Y2443462D1*
X1043801Y2436877D1*
X1044378Y2429966D1*
X1043325Y2423112D1*
X1016745Y2350019D1*
X1013150Y2344089D1*
X1008269Y2339163D1*
X995019Y2330713D1*
X995213Y2301421D1*
X1001494Y2305508D1*
X1008284Y2308678D1*
X1015451Y2310867D1*
X1022854Y2312034D1*
X1030347Y2312155D1*
X1037783Y2311227D1*
X1045017Y2309270D1*
X1051906Y2306321D1*
X1058316Y2302439D1*
X1060951Y2300437D1*
X1066507Y2304349D1*
X1073987Y2308160D1*
X1081972Y2310754D1*
X1090263Y2312068D1*
X1098658D1*
X1106950Y2310754D1*
X1114934Y2308160D1*
X1122415Y2304349D1*
X1127931Y2300420D1*
X1133507Y2304349D1*
X1140987Y2308160D1*
X1148972Y2310754D1*
X1157263Y2312068D1*
X1165658D1*
X1173950Y2310754D1*
X1181934Y2308160D1*
X1190001Y2303957D1*
X1189988Y2461519D1*
X1169714Y2481932D1*
X1167638Y2480124D1*
X1146952Y2459882D1*
X1141722Y2456953D1*
X1135953Y2455326D1*
X1129463Y2455012D1*
X1103024Y2455326D1*
X1097255Y2456953D1*
X1092025Y2459882D1*
X1087214Y2464249D1*
X1069714Y2481932D1*
X1067638Y2480124D1*
X1058799Y2471285D1*
X2558834Y2549941D2*
X2569253Y2539341D1*
X2571339Y2541137D1*
X2590790Y2560405D1*
X2588982Y2562481D1*
X2569714Y2581932D1*
X2567638Y2580124D1*
X2548187Y2560855D1*
X2549995Y2558780D1*
X2558834Y2549941D1*
X535573Y2054119D2*
X530449Y2046787D1*
X525323Y2041318D1*
X519537Y2036555D1*
X513185Y2032577D1*
X506374Y2029449D1*
X499217Y2027224D1*
X491834Y2025938D1*
X484346Y2025614D1*
X476879Y2026257D1*
X469556Y2027855D1*
X462501Y2030383D1*
X455829Y2033798D1*
X449653Y2038044D1*
X444074Y2043049D1*
X439186Y2048730D1*
X435071Y2054994D1*
X431795Y2061735D1*
X429415Y2068842D1*
X427970Y2076196D1*
X427483Y2083675D1*
X427963Y2091155D1*
X429402Y2098510D1*
X431776Y2105619D1*
X435045Y2112363D1*
X439155Y2118630D1*
X444038Y2124316D1*
X449612Y2129327D1*
X455785Y2133577D1*
X462453Y2136998D1*
X469507Y2139532D1*
X476828Y2141137D1*
X484294Y2141786D1*
X491783Y2141469D1*
X499167Y2140190D1*
X506326Y2137972D1*
X513140Y2134850D1*
X519495Y2130877D1*
X525286Y2126119D1*
X530416Y2120655D1*
X535576Y2113277D1*
X541404Y2121434D1*
X547850Y2127880D1*
X555226Y2133239D1*
X563349Y2137378D1*
X572020Y2140195D1*
X581024Y2141622D1*
X590141D1*
X599146Y2140195D1*
X607817Y2137378D1*
X615940Y2133239D1*
X623316Y2127880D1*
X629762Y2121434D1*
X635565Y2113265D1*
X641404Y2121434D1*
X647850Y2127880D1*
X652603Y2131487D1*
X652583Y2245859D1*
X644500Y2252618D1*
X638579Y2259551D1*
X635601Y2264137D1*
X629762Y2255968D1*
X623316Y2249522D1*
X615940Y2244163D1*
X607817Y2240024D1*
X599146Y2237207D1*
X590141Y2235780D1*
X581024D1*
X572020Y2237207D1*
X563349Y2240024D1*
X555226Y2244163D1*
X547850Y2249522D1*
X541404Y2255968D1*
X535601Y2264137D1*
X530449Y2256787D1*
X525323Y2251318D1*
X519537Y2246555D1*
X513185Y2242577D1*
X506374Y2239449D1*
X499217Y2237224D1*
X491834Y2235938D1*
X484346Y2235614D1*
X476879Y2236257D1*
X469556Y2237855D1*
X462501Y2240383D1*
X455829Y2243798D1*
X449653Y2248044D1*
X444074Y2253049D1*
X439186Y2258730D1*
X435071Y2264994D1*
X431795Y2271735D1*
X429415Y2278842D1*
X427970Y2286196D1*
X427483Y2293675D1*
X427963Y2301155D1*
X429402Y2308510D1*
X431776Y2315619D1*
X435045Y2322363D1*
X439155Y2328630D1*
X444038Y2334316D1*
X449612Y2339327D1*
X455785Y2343577D1*
X462453Y2346998D1*
X469507Y2349532D1*
X476828Y2351137D1*
X484294Y2351786D1*
X491783Y2351469D1*
X499167Y2350190D1*
X506326Y2347972D1*
X513140Y2344850D1*
X519495Y2340877D1*
X525286Y2336119D1*
X530416Y2330655D1*
X535576Y2323277D1*
X541404Y2331434D1*
X547850Y2337880D1*
X555226Y2343239D1*
X563349Y2347378D1*
X572020Y2350195D1*
X581024Y2351622D1*
X590141D1*
X599146Y2350195D1*
X607817Y2347378D1*
X615940Y2343239D1*
X623316Y2337880D1*
X629762Y2331434D1*
X635565Y2323265D1*
X641404Y2331434D1*
X647850Y2337880D1*
X655226Y2343239D1*
X663349Y2347378D1*
X672020Y2350195D1*
X681024Y2351622D1*
X690141D1*
X699146Y2350195D1*
X707817Y2347378D1*
X715940Y2343239D1*
X723316Y2337880D1*
X729762Y2331434D1*
X735121Y2324058D1*
X739260Y2315935D1*
X742077Y2307264D1*
X743504Y2298259D1*
Y2289143D1*
X742077Y2280138D1*
X739260Y2271467D1*
X735121Y2263344D1*
X729762Y2255968D1*
X723316Y2249522D1*
X718563Y2245915D1*
X718583Y2131543D1*
X726666Y2124784D1*
X732587Y2117851D1*
X737350Y2110078D1*
X740839Y2101655D1*
X742967Y2092790D1*
X743683Y2083701D1*
X742967Y2074612D1*
X740839Y2065747D1*
X737350Y2057324D1*
X732587Y2049551D1*
X726666Y2042618D1*
X719733Y2036697D1*
X718563Y2035915D1*
X718583Y1924180D1*
X845385Y1979727D1*
X847205Y1986655D1*
X850694Y1995078D1*
X855457Y2002851D1*
X861378Y2009784D1*
X868311Y2015705D1*
X876084Y2020468D1*
X884507Y2023957D1*
X893372Y2026085D1*
X902461Y2026801D1*
X911550Y2026085D1*
X920415Y2023957D1*
X928838Y2020468D1*
X936611Y2015705D1*
X943544Y2009784D1*
X949465Y2002851D1*
X954228Y1995078D1*
X957717Y1986655D1*
X959845Y1977790D1*
X960561Y1968701D1*
X959845Y1959612D1*
X957717Y1950747D1*
X954228Y1942324D1*
X949465Y1934551D1*
X943544Y1927618D1*
X938640Y1923297D1*
X945625Y1917967D1*
X952800Y1910608D1*
X958736Y1902218D1*
X963286Y1893001D1*
X966339Y1883187D1*
X967819Y1873016D1*
X967689Y1862739D1*
X965953Y1852608D1*
X962654Y1842874D1*
X957873Y1833776D1*
X951727Y1825537D1*
X944368Y1818362D1*
X938656Y1814167D1*
X945663Y1807549D1*
X950304Y1801665D1*
X954150Y1795231D1*
X957135Y1788357D1*
X959210Y1781155D1*
X960341Y1773746D1*
X960507Y1766202D1*
X959702Y1758750D1*
X957945Y1751464D1*
X955264Y1744465D1*
X951705Y1737870D1*
X947327Y1731787D1*
X942201Y1726318D1*
X936415Y1721555D1*
X930063Y1717577D1*
X923252Y1714449D1*
X916095Y1712224D1*
X908712Y1710938D1*
X901224Y1710614D1*
X893757Y1711257D1*
X886434Y1712855D1*
X879379Y1715383D1*
X872707Y1718798D1*
X866531Y1723044D1*
X860952Y1728049D1*
X856064Y1733730D1*
X851949Y1739994D1*
X848673Y1746735D1*
X846293Y1753842D1*
X844848Y1761196D1*
X844361Y1768675D1*
X844841Y1776155D1*
X845611Y1780648D1*
X828651Y1751917D1*
X822151Y1743956D1*
X814485Y1737109D1*
X805843Y1731545D1*
X796437Y1727402D1*
X786498Y1724782D1*
X775931Y1723754D1*
X580444Y1723934D1*
X570292Y1725542D1*
X560517Y1728718D1*
X551359Y1733384D1*
X543044Y1739426D1*
X535776Y1746694D1*
X529735Y1755009D1*
X525069Y1764167D1*
X521893Y1773942D1*
X520285Y1784093D1*
X520083Y1814232D1*
Y1826977D1*
X513185Y1822577D1*
X506374Y1819449D1*
X499217Y1817224D1*
X491834Y1815938D1*
X484346Y1815614D1*
X476879Y1816257D1*
X469556Y1817855D1*
X462501Y1820383D1*
X455829Y1823798D1*
X449653Y1828044D1*
X444074Y1833049D1*
X439186Y1838730D1*
X435071Y1844994D1*
X431795Y1851735D1*
X429415Y1858842D1*
X427970Y1866196D1*
X427483Y1873675D1*
X427963Y1881155D1*
X429402Y1888510D1*
X431776Y1895619D1*
X435045Y1902363D1*
X439155Y1908630D1*
X444038Y1914316D1*
X449612Y1919327D1*
X455785Y1923577D1*
X462453Y1926998D1*
X469507Y1929532D1*
X476828Y1931137D1*
X484294Y1931786D1*
X491783Y1931469D1*
X499167Y1930190D1*
X506326Y1927972D1*
X513140Y1924850D1*
X519495Y1920877D1*
X525286Y1916119D1*
X531015Y1909896D1*
X535776Y1916240D1*
X543044Y1923508D1*
X551359Y1929549D1*
X560517Y1934215D1*
X570292Y1937391D1*
X580444Y1938999D1*
X590722D1*
X600874Y1937391D1*
X610649Y1934215D1*
X619807Y1929549D1*
X628122Y1923508D1*
X635390Y1916240D1*
X640125Y1909879D1*
X644500Y1914784D1*
X651433Y1920705D1*
X652603Y1921487D1*
X652583Y2035859D1*
X644500Y2042618D1*
X638579Y2049551D1*
X635601Y2054137D1*
X629762Y2045968D1*
X623316Y2039522D1*
X615940Y2034163D1*
X607817Y2030024D1*
X599146Y2027207D1*
X590141Y2025780D1*
X581024D1*
X572020Y2027207D1*
X563349Y2030024D1*
X555226Y2034163D1*
X547850Y2039522D1*
X541404Y2045968D1*
X535601Y2054137D1*
X535573Y1634119D2*
X530449Y1626787D1*
X525323Y1621318D1*
X519537Y1616555D1*
X513185Y1612577D1*
X506374Y1609449D1*
X499217Y1607224D1*
X491834Y1605938D1*
X484346Y1605614D1*
X476879Y1606257D1*
X469556Y1607855D1*
X462501Y1610383D1*
X455829Y1613798D1*
X449653Y1618044D1*
X444074Y1623049D1*
X439186Y1628730D1*
X435071Y1634994D1*
X431795Y1641735D1*
X429415Y1648842D1*
X427970Y1656196D1*
X427483Y1663675D1*
X427963Y1671155D1*
X429402Y1678510D1*
X431776Y1685619D1*
X435045Y1692363D1*
X439155Y1698630D1*
X444038Y1704316D1*
X449612Y1709327D1*
X455785Y1713577D1*
X462453Y1716998D1*
X469507Y1719532D1*
X476828Y1721137D1*
X484294Y1721786D1*
X491783Y1721469D1*
X499167Y1720190D1*
X506326Y1717972D1*
X513140Y1714850D1*
X519495Y1710877D1*
X525286Y1706119D1*
X530416Y1700655D1*
X535576Y1693277D1*
X541404Y1701434D1*
X547850Y1707880D1*
X555226Y1713239D1*
X563349Y1717378D1*
X572020Y1720195D1*
X581024Y1721622D1*
X590141D1*
X599146Y1720195D1*
X607817Y1717378D1*
X615940Y1713239D1*
X623316Y1707880D1*
X629762Y1701434D1*
X635565Y1693265D1*
X641404Y1701434D1*
X647850Y1707880D1*
X655226Y1713239D1*
X663349Y1717378D1*
X672020Y1720195D1*
X681024Y1721622D1*
X690141D1*
X699146Y1720195D1*
X707817Y1717378D1*
X715940Y1713239D1*
X723316Y1707880D1*
X729762Y1701434D1*
X735121Y1694058D1*
X739260Y1685935D1*
X742077Y1677264D1*
X743120Y1671498D1*
X874742Y1604762D1*
X884507Y1608957D1*
X893372Y1611085D1*
X902461Y1611801D1*
X911550Y1611085D1*
X920415Y1608957D1*
X928838Y1605468D1*
X936611Y1600705D1*
X943544Y1594784D1*
X949465Y1587851D1*
X954228Y1580078D1*
X957717Y1571655D1*
X959845Y1562790D1*
X960561Y1553701D1*
X959845Y1544612D1*
X957717Y1535747D1*
X954228Y1527324D1*
X949465Y1519551D1*
X943544Y1512618D1*
X936611Y1506697D1*
X932025Y1503719D1*
X940194Y1497880D1*
X946640Y1491434D1*
X951999Y1484058D1*
X956138Y1475935D1*
X958955Y1467264D1*
X960381Y1458259D1*
Y1449143D1*
X958955Y1440138D1*
X956138Y1431467D1*
X951999Y1423344D1*
X946640Y1415968D1*
X940194Y1409522D1*
X932025Y1403719D1*
X938371Y1399374D1*
X943952Y1394372D1*
X948842Y1388692D1*
X952960Y1382430D1*
X956239Y1375690D1*
X958622Y1368585D1*
X960071Y1361231D1*
X960561Y1353701D1*
X960077Y1346222D1*
X958635Y1338867D1*
X956258Y1331759D1*
X952986Y1325016D1*
X948873Y1318751D1*
X943988Y1313067D1*
X938411Y1308060D1*
X932237Y1303811D1*
X925567Y1300393D1*
X918512Y1297863D1*
X911191Y1296261D1*
X903724Y1295615D1*
X896236Y1295936D1*
X888851Y1297218D1*
X881693Y1299440D1*
X874881Y1302564D1*
X868528Y1306540D1*
X862739Y1311301D1*
X857612Y1316767D1*
X853230Y1322848D1*
X849668Y1329442D1*
X846984Y1336440D1*
X845224Y1343725D1*
X844416Y1351176D1*
X844574Y1358669D1*
X845695Y1366080D1*
X847761Y1373284D1*
X850737Y1380163D1*
X854574Y1386601D1*
X859207Y1392492D1*
X864561Y1397737D1*
X870545Y1402249D1*
X872875Y1403698D1*
X864728Y1409522D1*
X858281Y1415968D1*
X852923Y1423344D1*
X848784Y1431467D1*
X845966Y1440138D1*
X844540Y1449143D1*
Y1458259D1*
X845966Y1467264D1*
X848784Y1475935D1*
X852923Y1484058D1*
X858281Y1491434D1*
X864728Y1497880D1*
X872897Y1503683D1*
X864728Y1509522D1*
X858281Y1515968D1*
X852923Y1523344D1*
X848784Y1531467D1*
X845966Y1540138D1*
X844924Y1545904D1*
X718527Y1609990D1*
X718583Y1501543D1*
X726666Y1494784D1*
X732587Y1487851D1*
X737350Y1480078D1*
X740839Y1471655D1*
X742967Y1462790D1*
X743683Y1453701D1*
X742967Y1444612D1*
X740839Y1435747D1*
X737350Y1427324D1*
X732587Y1419551D1*
X726666Y1412618D1*
X719733Y1406697D1*
X718563Y1405915D1*
X718583Y1291543D1*
X726666Y1284784D1*
X732587Y1277851D1*
X737350Y1270078D1*
X740839Y1261655D1*
X742967Y1252790D1*
X743683Y1243701D1*
X742967Y1234612D1*
X740839Y1225747D1*
X737350Y1217324D1*
X732587Y1209551D1*
X726666Y1202618D1*
X719733Y1196697D1*
X711960Y1191934D1*
X703537Y1188445D1*
X694672Y1186317D1*
X685583Y1185601D1*
X676494Y1186317D1*
X667629Y1188445D1*
X659206Y1191934D1*
X651433Y1196697D1*
X644500Y1202618D1*
X638579Y1209551D1*
X635601Y1214137D1*
X629762Y1205968D1*
X623316Y1199522D1*
X615940Y1194163D1*
X607817Y1190024D1*
X599146Y1187207D1*
X590141Y1185780D1*
X581024D1*
X572020Y1187207D1*
X563349Y1190024D1*
X555226Y1194163D1*
X547850Y1199522D1*
X541404Y1205968D1*
X535601Y1214137D1*
X530449Y1206787D1*
X525323Y1201318D1*
X519537Y1196555D1*
X513185Y1192577D1*
X506374Y1189449D1*
X499217Y1187224D1*
X491834Y1185938D1*
X484346Y1185614D1*
X476879Y1186257D1*
X469556Y1187855D1*
X462501Y1190383D1*
X455829Y1193798D1*
X449653Y1198044D1*
X444074Y1203049D1*
X439186Y1208730D1*
X435071Y1214994D1*
X431795Y1221735D1*
X429415Y1228842D1*
X427970Y1236196D1*
X427483Y1243675D1*
X427963Y1251155D1*
X429402Y1258510D1*
X431776Y1265619D1*
X435045Y1272363D1*
X439155Y1278630D1*
X444038Y1284316D1*
X449612Y1289327D1*
X455785Y1293577D1*
X462453Y1296998D1*
X469507Y1299532D1*
X476828Y1301137D1*
X484294Y1301786D1*
X491783Y1301469D1*
X499167Y1300190D1*
X506326Y1297972D1*
X513140Y1294850D1*
X519495Y1290877D1*
X525286Y1286119D1*
X530416Y1280655D1*
X535576Y1273277D1*
X541404Y1281434D1*
X547850Y1287880D1*
X555226Y1293239D1*
X563349Y1297378D1*
X572020Y1300195D1*
X581024Y1301622D1*
X590141D1*
X599146Y1300195D1*
X607817Y1297378D1*
X615940Y1293239D1*
X623316Y1287880D1*
X629762Y1281434D1*
X635565Y1273265D1*
X641404Y1281434D1*
X647850Y1287880D1*
X652603Y1291487D1*
X652583Y1405859D1*
X644500Y1412618D1*
X638579Y1419551D1*
X635601Y1424137D1*
X629762Y1415968D1*
X623316Y1409522D1*
X615940Y1404163D1*
X607817Y1400024D1*
X599146Y1397207D1*
X590141Y1395780D1*
X581024D1*
X572020Y1397207D1*
X563349Y1400024D1*
X555226Y1404163D1*
X547850Y1409522D1*
X541404Y1415968D1*
X535601Y1424137D1*
X530449Y1416787D1*
X525323Y1411318D1*
X519537Y1406555D1*
X513185Y1402577D1*
X506374Y1399449D1*
X499217Y1397224D1*
X491834Y1395938D1*
X484346Y1395614D1*
X476879Y1396257D1*
X469556Y1397855D1*
X462501Y1400383D1*
X455829Y1403798D1*
X449653Y1408044D1*
X444074Y1413049D1*
X439186Y1418730D1*
X435071Y1424994D1*
X431795Y1431735D1*
X429415Y1438842D1*
X427970Y1446196D1*
X427483Y1453675D1*
X427963Y1461155D1*
X429402Y1468510D1*
X431776Y1475619D1*
X435045Y1482363D1*
X439155Y1488630D1*
X444038Y1494316D1*
X449612Y1499327D1*
X455785Y1503577D1*
X462453Y1506998D1*
X469507Y1509532D1*
X476828Y1511137D1*
X484294Y1511786D1*
X491783Y1511469D1*
X499167Y1510190D1*
X506326Y1507972D1*
X513140Y1504850D1*
X519495Y1500877D1*
X525286Y1496119D1*
X530416Y1490655D1*
X535576Y1483277D1*
X541404Y1491434D1*
X547850Y1497880D1*
X555226Y1503239D1*
X563349Y1507378D1*
X572020Y1510195D1*
X581024Y1511622D1*
X590141D1*
X599146Y1510195D1*
X607817Y1507378D1*
X615940Y1503239D1*
X623316Y1497880D1*
X629762Y1491434D1*
X635565Y1483265D1*
X641404Y1491434D1*
X647850Y1497880D1*
X652603Y1501487D1*
X652583Y1615859D1*
X644500Y1622618D1*
X638579Y1629551D1*
X635601Y1634137D1*
X629762Y1625968D1*
X623316Y1619522D1*
X615940Y1614163D1*
X607817Y1610024D1*
X599146Y1607207D1*
X590141Y1605780D1*
X581024D1*
X572020Y1607207D1*
X563349Y1610024D1*
X555226Y1614163D1*
X547850Y1619522D1*
X541404Y1625968D1*
X535601Y1634137D1*
X3334062Y2551685D2*
X3342048Y2556185D1*
X3335522Y2559711D1*
X3329478Y2564142D1*
X3324092Y2569353D1*
X3319464Y2575248D1*
X3314972Y2583228D1*
X3310667Y2575558D1*
X3306079Y2569632D1*
X3300729Y2564384D1*
X3294716Y2559912D1*
X3287926Y2556200D1*
X3295860Y2551685D1*
X3334053Y2551701D1*
X3641875Y2364615D2*
X3640597Y2356544D1*
X3638072Y2348773D1*
X3634362Y2341492D1*
X3629559Y2334881D1*
X3623781Y2329103D1*
X3617170Y2324300D1*
X3609889Y2320590D1*
X3602117Y2318065D1*
X3594047Y2316787D1*
X3585875D1*
X3577804Y2318065D1*
X3570033Y2320590D1*
X3562752Y2324300D1*
X3556141Y2329103D1*
X3550363Y2334881D1*
X3545560Y2341492D1*
X3541850Y2348773D1*
X3539325Y2356544D1*
X3538047Y2364615D1*
Y2372787D1*
X3539325Y2380858D1*
X3541850Y2388629D1*
X3545560Y2395910D1*
X3549305Y2401179D1*
X3544290Y2408682D1*
X3541172Y2415496D1*
X3539064Y2422687D1*
X3538010Y2430106D1*
X3538032Y2437600D1*
X3539129Y2445012D1*
X3541279Y2452191D1*
X3544437Y2458986D1*
X3548537Y2465259D1*
X3551411Y2468696D1*
X3545560Y2476492D1*
X3541850Y2483773D1*
X3539325Y2491544D1*
X3538047Y2499615D1*
Y2507787D1*
X3539325Y2515858D1*
X3541850Y2523629D1*
X3545560Y2530910D1*
X3549305Y2536179D1*
X3545560Y2541492D1*
X3541850Y2548773D1*
X3539325Y2556544D1*
X3538047Y2564615D1*
Y2572787D1*
X3539325Y2580858D1*
X3541850Y2588629D1*
X3545560Y2595910D1*
X3550363Y2602521D1*
X3556141Y2608299D1*
X3562752Y2613102D1*
X3570033Y2616812D1*
X3577804Y2619337D1*
X3585875Y2620615D1*
X3594047D1*
X3602117Y2619337D1*
X3609889Y2616812D1*
X3617170Y2613102D1*
X3623781Y2608299D1*
X3629559Y2602521D1*
X3634362Y2595910D1*
X3638072Y2588629D1*
X3640597Y2580858D1*
X3641875Y2572787D1*
Y2564615D1*
X3640597Y2556544D1*
X3638072Y2548773D1*
X3634362Y2541492D1*
X3630617Y2536223D1*
X3634362Y2530910D1*
X3638072Y2523629D1*
X3640597Y2515858D1*
X3641875Y2507787D1*
Y2499615D1*
X3640597Y2491544D1*
X3638072Y2483773D1*
X3634362Y2476492D1*
X3629559Y2469881D1*
X3628485Y2468720D1*
X3633796Y2461813D1*
X3637377Y2455231D1*
X3639976Y2448202D1*
X3641539Y2440874D1*
X3642036Y2433701D1*
X3641496Y2426227D1*
X3639890Y2418908D1*
X3637250Y2411895D1*
X3633631Y2405333D1*
X3630654Y2401210D1*
X3634362Y2395910D1*
X3638072Y2388629D1*
X3640597Y2380858D1*
X3641875Y2372787D1*
Y2364615D1*
X2802981Y1330110D2*
X2802941Y1351644D1*
X2608542Y1354027D1*
X2632013Y1330376D1*
X2636210Y1324599D1*
X2639451Y1318238D1*
X2641658Y1311447D1*
X2642775Y1304396D1*
Y1297256D1*
X2641658Y1290204D1*
X2639451Y1283414D1*
X2636210Y1277052D1*
X2632013Y1271276D1*
X2626965Y1266227D1*
X2621189Y1262030D1*
X2614827Y1258789D1*
X2608037Y1256583D1*
X2600985Y1255466D1*
X2593845D1*
X2586793Y1256583D1*
X2580003Y1258789D1*
X2573641Y1262030D1*
X2567865Y1266227D1*
X2512208Y1321685D1*
X2478200Y1355694D1*
X2420862Y1356373D1*
X2423318Y1351393D1*
X2425524Y1344602D1*
X2426641Y1337550D1*
Y1330411D1*
X2425524Y1323359D1*
X2423318Y1316568D1*
X2420076Y1310207D1*
X2415880Y1304431D1*
X2409746Y1298527D1*
X2407566Y1292808D1*
X2403713Y1287042D1*
X2398621Y1282335D1*
X2392570Y1278946D1*
X2385896Y1277064D1*
X2381281Y1276701D1*
X2164482Y1276502D1*
X2138138Y1250159D1*
X2148795Y1249476D1*
X2157411Y1247407D1*
X2165598Y1244016D1*
X2173153Y1239386D1*
X2179891Y1233631D1*
X2185646Y1226893D1*
X2189946Y1219927D1*
X2194050Y1226580D1*
X2198808Y1232370D1*
X2204291Y1237479D1*
X2210403Y1241817D1*
X2217035Y1245308D1*
X2224071Y1247889D1*
X2231386Y1249516D1*
X2238853Y1250160D1*
X2246339Y1249809D1*
X2253713Y1248471D1*
X2260845Y1246167D1*
X2267609Y1242939D1*
X2273886Y1238845D1*
X2279565Y1233954D1*
X2284547Y1228355D1*
X2288743Y1222146D1*
X2289959Y1219950D1*
X2294276Y1226893D1*
X2300031Y1233631D1*
X2306769Y1239386D1*
X2314324Y1244016D1*
X2322511Y1247407D1*
X2331127Y1249476D1*
X2339961Y1250171D1*
X2348795Y1249476D1*
X2357411Y1247407D1*
X2365598Y1244016D1*
X2373153Y1239386D1*
X2379891Y1233631D1*
X2385646Y1226893D1*
X2389946Y1219927D1*
X2394276Y1226893D1*
X2400031Y1233631D1*
X2406769Y1239386D1*
X2414324Y1244016D1*
X2422511Y1247407D1*
X2431127Y1249476D1*
X2439961Y1250171D1*
X2448795Y1249476D1*
X2457411Y1247407D1*
X2465598Y1244016D1*
X2473153Y1239386D1*
X2479891Y1233631D1*
X2485646Y1226893D1*
X2489946Y1219927D1*
X2494276Y1226893D1*
X2500031Y1233631D1*
X2506769Y1239386D1*
X2514324Y1244016D1*
X2522511Y1247407D1*
X2531127Y1249476D1*
X2539961Y1250171D1*
X2548795Y1249476D1*
X2557411Y1247407D1*
X2565598Y1244016D1*
X2573153Y1239386D1*
X2579891Y1233631D1*
X2585646Y1226893D1*
X2589946Y1219927D1*
X2594276Y1226893D1*
X2600031Y1233631D1*
X2606769Y1239386D1*
X2614324Y1244016D1*
X2622511Y1247407D1*
X2631127Y1249476D1*
X2639961Y1250171D1*
X2648795Y1249476D1*
X2657411Y1247407D1*
X2665598Y1244016D1*
X2673153Y1239386D1*
X2679891Y1233631D1*
X2685646Y1226893D1*
X2689946Y1219927D1*
X2694276Y1226893D1*
X2700031Y1233631D1*
X2706769Y1239386D1*
X2714324Y1244016D1*
X2722511Y1247407D1*
X2731127Y1249476D1*
X2739961Y1250171D1*
X2748795Y1249476D1*
X2757525Y1247365D1*
X2750972Y1255277D1*
X2747242Y1261365D1*
X2744509Y1267961D1*
X2742843Y1274903D1*
X2742282Y1282021D1*
X2742843Y1289139D1*
X2744509Y1296081D1*
X2747242Y1302678D1*
X2750972Y1308765D1*
X2755609Y1314195D1*
X2761038Y1318831D1*
X2767126Y1322562D1*
X2773722Y1325294D1*
X2780665Y1326961D1*
X2787782Y1327521D1*
X2794900Y1326961D1*
X2802929Y1324893D1*
X2802941Y1351645D1*
X1567048Y756217D2*
X1561209Y759282D1*
X1554223Y764358D1*
X1548118Y770463D1*
X1543042Y777449D1*
X1539977Y783288D1*
X1536880Y777449D1*
X1531804Y770463D1*
X1525698Y764358D1*
X1518713Y759282D1*
X1512874Y756217D1*
X1519083Y752891D1*
X1525157Y748501D1*
X1530578Y743326D1*
X1535246Y737463D1*
X1539073Y731020D1*
X1539952Y729178D1*
X1544048Y736533D1*
X1548595Y742490D1*
X1553909Y747774D1*
X1559892Y752287D1*
X1566995Y756195D1*
X2918888Y623023D2*
X2917891Y614601D1*
X2916237Y606284D1*
X2913935Y598122D1*
X2911000Y590166D1*
X2907449Y582465D1*
X2903306Y575066D1*
X2898595Y568015D1*
X2893345Y561356D1*
X2887588Y555129D1*
X2881361Y549372D1*
X2874701Y544122D1*
X2867651Y539411D1*
X2860252Y535268D1*
X2852550Y531717D1*
X2844595Y528782D1*
X2836433Y526480D1*
X2828116Y524826D1*
X2819694Y523829D1*
X2811221Y523496D1*
X2802747Y523829D1*
X2794326Y524826D1*
X2786009Y526480D1*
X2777847Y528782D1*
X2769891Y531717D1*
X2762190Y535268D1*
X2754791Y539411D1*
X2747740Y544122D1*
X2741080Y549372D1*
X2734853Y555129D1*
X2729097Y561356D1*
X2723847Y568015D1*
X2719136Y575066D1*
X2714992Y582465D1*
X2711442Y590166D1*
X2708507Y598122D1*
X2706205Y606284D1*
X2704550Y614601D1*
X2703554Y623023D1*
X2703221Y631496D1*
X2703554Y639970D1*
X2704550Y648391D1*
X2706205Y656708D1*
X2708507Y664870D1*
X2711442Y672826D1*
X2714992Y680527D1*
X2719136Y687926D1*
X2723847Y694977D1*
X2729097Y701637D1*
X2734853Y707864D1*
X2741080Y713620D1*
X2747740Y718870D1*
X2754791Y723581D1*
X2762190Y727725D1*
X2769891Y731275D1*
X2777847Y734210D1*
X2786009Y736512D1*
X2794326Y738167D1*
X2802747Y739163D1*
X2811221Y739496D1*
X2819694Y739163D1*
X2828116Y738167D1*
X2836433Y736512D1*
X2844595Y734210D1*
X2852550Y731275D1*
X2860252Y727725D1*
X2867651Y723581D1*
X2874701Y718870D1*
X2881361Y713620D1*
X2887588Y707864D1*
X2893345Y701637D1*
X2898595Y694977D1*
X2903306Y687926D1*
X2907449Y680527D1*
X2911000Y672826D1*
X2913935Y664870D1*
X2916237Y656708D1*
X2917891Y648391D1*
X2918888Y639970D1*
X2919221Y631496D1*
X2918888Y623023D1*
X2939961Y843701D2*
D32*
X2978837Y804825D1*
X2939961Y843701D2*
X2901085Y804825D1*
X2801085Y882577D2*
X2878837Y804825D1*
X2839961Y843701D2*
X2801085Y804825D1*
X2701085Y882577D2*
X2778837Y804825D1*
Y882577D2*
X2701085Y804825D1*
X2601085Y882577D2*
X2678837Y804825D1*
Y882577D2*
X2601085Y804825D1*
X2501085Y882577D2*
X2578837Y804825D1*
Y882577D2*
X2501085Y804825D1*
X2401085Y882577D2*
X2478837Y804825D1*
Y882577D2*
X2401085Y804825D1*
X3339961Y843701D2*
X3378837Y804825D1*
Y882577D2*
X3301085Y804825D1*
X3201085Y882577D2*
X3278837Y804825D1*
X3239961Y843701D2*
X3201085Y804825D1*
X3101085Y882577D2*
X3178837Y804825D1*
Y882577D2*
X3101085Y804825D1*
X3039961Y843701D2*
X3078837Y804825D1*
Y882577D2*
X3001085Y804825D1*
X3278837Y2195077D2*
X3239961Y2156201D1*
X3301085Y2195077D2*
X3339961Y2156201D1*
X3378837Y2195077D2*
X3339961Y2156201D1*
X3401085Y2195077D2*
X3439961Y2156201D1*
X3478837Y2195077D2*
X3439961Y2156201D1*
X3501085Y2195077D2*
X3578837Y2117325D1*
Y2195077D2*
X3539961Y2156201D1*
X853786Y770525D2*
X1001135Y623176D1*
Y770525D2*
X853786Y623176D1*
X1038826Y888635D2*
X1186175Y741286D1*
Y888635D2*
X1038826Y741286D1*
X1234968Y611194D2*
X1344954Y501208D1*
Y611194D2*
X1234968Y501208D1*
X919488Y2610630D2*
X880182Y2571324D1*
X1119488Y2510630D2*
X1158795Y2471324D1*
X1119488Y2510630D2*
X1080182Y2471324D1*
X2580182Y2549937D2*
X2658795Y2471324D1*
Y2549937D2*
X2619488Y2510630D1*
X444535Y2124749D2*
X526631Y2042653D1*
Y2124749D2*
X444535Y2042653D1*
Y1914749D2*
X526631Y1832653D1*
Y1914749D2*
X444535Y1832653D1*
Y1704749D2*
X526631Y1622653D1*
Y1704749D2*
X444535Y1622653D1*
Y1494749D2*
X526631Y1412653D1*
Y1494749D2*
X444535Y1412653D1*
Y1284749D2*
X526631Y1202653D1*
Y1284749D2*
X444535Y1202653D1*
Y2334749D2*
X526631Y2252653D1*
Y2334749D2*
X444535Y2252653D1*
X902461Y1768701D2*
X943509Y1727653D1*
Y1809749D2*
X861413Y1727653D1*
Y1394749D2*
X943509Y1312653D1*
Y1394749D2*
X861413Y1312653D1*
X3326085Y2645077D2*
X3403837Y2567325D1*
Y2645077D2*
X3326085Y2567325D1*
X3226085Y2645077D2*
X3303837Y2567325D1*
Y2645077D2*
X3226085Y2567325D1*
X3553173Y2470489D2*
X3626749Y2396913D1*
Y2470489D2*
X3553173Y2396913D1*
X1551085Y745077D2*
X1628837Y667325D1*
Y745077D2*
X1551085Y667325D1*
X1451085Y745077D2*
X1528837Y667325D1*
Y745077D2*
X1451085Y667325D1*
X3639961Y1793701D2*
X3679857Y1753805D1*
Y1833597D2*
X3639961Y1793701D1*
X1800065Y1533597D2*
X1879857Y1453805D1*
X1839961Y1493701D2*
X1800065Y1453805D1*
X2200065Y1233597D2*
X2239961Y1193701D1*
X2279857Y1233597D2*
X2239961Y1193701D1*
D39*
X2939961Y943701D3*
D40*
Y843701D3*
X2839961Y943701D3*
Y843701D3*
X2739961Y943701D3*
Y843701D3*
X2639961Y943701D3*
Y843701D3*
X2539961Y943701D3*
Y843701D3*
X2439961Y943701D3*
Y843701D3*
D39*
Y1043701D3*
D40*
X2539961D3*
X2639961D3*
X2739961D3*
X2839961D3*
X2939961D3*
D39*
X3339961Y943701D3*
D40*
Y843701D3*
X3239961Y943701D3*
Y843701D3*
X3139961Y943701D3*
Y843701D3*
X3039961Y943701D3*
Y843701D3*
D39*
Y1043701D3*
D40*
X3139961D3*
X3239961D3*
X3339961D3*
D39*
X2839961Y2056201D3*
D40*
Y2156201D3*
X2939961Y2056201D3*
Y2156201D3*
X3039961Y2056201D3*
Y2156201D3*
X3139961Y2056201D3*
Y2156201D3*
X3239961Y2056201D3*
Y2156201D3*
X3339961Y2056201D3*
Y2156201D3*
X3439961Y2056201D3*
Y2156201D3*
X3539961Y2056201D3*
Y2156201D3*
D39*
X2514961Y2093701D3*
D40*
X2414961D3*
X2314961D3*
X2214961D3*
X2114961D3*
X2014961D3*
X1914961D3*
X1814961D3*
X1714961D3*
D39*
X2714961Y2342095D3*
D40*
Y2242095D3*
X2614961Y2342095D3*
Y2242095D3*
D41*
X2514961Y2342095D3*
D42*
X2414961D3*
X2314961D3*
X2214961D3*
Y2242095D3*
X2314961D3*
X2414961D3*
X2514961D3*
D43*
X927461Y933071D3*
Y696851D3*
X1112500Y814961D3*
D39*
X1289961Y556201D3*
D40*
Y656201D3*
D39*
X3514961Y881201D3*
D40*
Y981201D3*
X3614961Y881201D3*
Y981201D3*
D125*
X719488Y2510630D3*
Y2610630D3*
X819488Y2510630D3*
Y2610630D3*
X919488Y2510630D3*
Y2610630D3*
X1019488Y2510630D3*
Y2610630D3*
X1119488Y2510630D3*
Y2610630D3*
X1219488Y2510630D3*
Y2610630D3*
X1319488Y2510630D3*
Y2610630D3*
X1419488Y2510630D3*
Y2610630D3*
X1519488Y2510630D3*
Y2610630D3*
X1619488Y2510630D3*
Y2610630D3*
X1719488Y2510630D3*
Y2610630D3*
X1819488Y2510630D3*
Y2610630D3*
X1919488Y2510630D3*
Y2610630D3*
X2019488Y2510630D3*
Y2610630D3*
X2119488Y2510630D3*
Y2610630D3*
X2219488Y2510630D3*
Y2610630D3*
X2319488Y2510630D3*
Y2610630D3*
X2419488Y2510630D3*
Y2610630D3*
X2519488Y2510630D3*
Y2610630D3*
X2619488Y2510630D3*
Y2610630D3*
D46*
X485583Y2083701D3*
X585583D3*
X685583D3*
X485583Y1873701D3*
X585583D3*
X685583D3*
X485583Y1663701D3*
X585583D3*
X685583D3*
X485583Y1453701D3*
X585583D3*
X685583D3*
X485583Y1243701D3*
X585583D3*
X685583D3*
X485583Y2293701D3*
X585583D3*
X685583D3*
X902461Y1768701D3*
Y1868701D3*
Y1968701D3*
Y1353701D3*
Y1453701D3*
Y1553701D3*
D39*
X3539961Y1956201D3*
D40*
X3439961D3*
X3339961D3*
X3239961D3*
X3139961D3*
X3039961D3*
X2939961D3*
X2839961D3*
D39*
X2739961D3*
D40*
X2639961D3*
X2539961D3*
X2439961D3*
X2339961D3*
X2239961D3*
D39*
X3364961Y2306201D3*
D40*
Y2406201D3*
Y2506201D3*
Y2606201D3*
D39*
X3264961Y2406201D3*
D40*
Y2506201D3*
Y2606201D3*
D48*
X3589961Y2368701D3*
Y2433701D3*
Y2503701D3*
Y2568701D3*
D51*
X1114961Y1174839D3*
D52*
X1014961D3*
X914961D3*
D37*
X3114961Y2406103D3*
Y2331299D3*
X2964961Y2406103D3*
Y2331299D3*
X939961D3*
Y2406103D3*
X839961Y2331299D3*
Y2406103D3*
X3239961Y1618701D3*
Y1693504D3*
X3139961Y1618701D3*
Y1693504D3*
X2857969Y1381201D3*
Y1306398D3*
X2939961Y1381201D3*
Y1306398D3*
D39*
X1589961Y1006201D3*
D40*
Y906201D3*
Y806201D3*
Y706201D3*
D39*
X1489961Y1006201D3*
D40*
Y906201D3*
Y806201D3*
Y706201D3*
D41*
X1614961Y2342095D3*
D42*
X1514961D3*
X1414961D3*
X1314961D3*
Y2242095D3*
X1414961D3*
X1514961D3*
X1614961D3*
D39*
X2114961Y2342095D3*
D40*
Y2242095D3*
X2014961Y2342095D3*
Y2242095D3*
X1914961Y2342095D3*
Y2242095D3*
X1814961Y2342095D3*
Y2242095D3*
X1714961Y2342095D3*
Y2242095D3*
D51*
X1827461Y806201D3*
D52*
X2126673D3*
D56*
X893461Y2246732D3*
D57*
X960461D3*
X1027461D3*
X1094461D3*
X1161461D3*
D60*
X3639961Y1793701D3*
X3539961D3*
X3439961D3*
X3339961D3*
X3239961D3*
X3139961D3*
X3039961D3*
X2939961D3*
X2839961D3*
X2739961D3*
X2639961D3*
X2539961D3*
X2439961D3*
X2339961D3*
X1839961Y1293701D3*
Y1393701D3*
Y1493701D3*
Y1593701D3*
X2039961Y1193701D3*
X2339961D3*
X2439961D3*
X2539961D3*
X2639961D3*
X2739961D3*
X2839961D3*
X2939961D3*
X3039961D3*
X3139961D3*
X3239961D3*
X3339961D3*
X3439961D3*
X3539961D3*
X3639961D3*
X3539961Y1293701D3*
X3339961D3*
X3239961D3*
X3139961D3*
X1739961Y1793701D3*
X1639961D3*
X1839961D3*
X1939961D3*
X2039961D3*
X2139961D3*
X1539961D3*
X1439961D3*
X1339961D3*
Y1193701D3*
X2239961Y1793701D3*
X1439961Y1193701D3*
X2239961D3*
X1539961D3*
X1739961D3*
X1839961D3*
X1939961D3*
X1639961D3*
X2139961D3*
X1839961Y1693701D3*
M02*
