G04 DipTrace 3.0.0.2*
G04 TeensyArbotixProRPIT3.6.gbo*
%MOIN*%
G04 #@! TF.FileFunction,Legend,Bot*
G04 #@! TF.Part,Single*
G04 #@! TA.AperFunction,Conductor*
%ADD20C,0.007*%
%ADD122C,0.006176*%
%ADD123C,0.00772*%
%ADD124C,0.004632*%
%FSLAX26Y26*%
G04*
G70*
G90*
G75*
G01*
G04 BotSilk*
%LPD*%
X3046000Y2412644D2*
D122*
Y2395445D1*
X3044055Y2389697D1*
X3042153Y2387751D1*
X3038351Y2385850D1*
X3034504D1*
X3030702Y2387751D1*
X3028756Y2389697D1*
X3026855Y2395445D1*
Y2412645D1*
X3067047Y2412644D1*
X3046000Y2399247D2*
X3067047Y2385850D1*
X3034548Y2373498D2*
X3032603Y2369652D1*
X3026899Y2363904D1*
X3067047D1*
X3026899Y2340056D2*
X3028800Y2345804D1*
X3034548Y2349651D1*
X3044099Y2351552D1*
X3049847D1*
X3059398Y2349651D1*
X3065146Y2345804D1*
X3067047Y2340056D1*
Y2336254D1*
X3065146Y2330506D1*
X3059398Y2326703D1*
X3049847Y2324758D1*
X3044099D1*
X3034548Y2326703D1*
X3028800Y2330506D1*
X3026899Y2336254D1*
Y2340056D1*
X3034548Y2326703D2*
X3059398Y2349651D1*
X2896000Y2404045D2*
Y2386845D1*
X2894055Y2381097D1*
X2892153Y2379151D1*
X2888351Y2377250D1*
X2884504D1*
X2880702Y2379151D1*
X2878756Y2381097D1*
X2876855Y2386845D1*
Y2404045D1*
X2917047D1*
X2896000Y2390647D2*
X2917047Y2377250D1*
X2884548Y2364899D2*
X2882603Y2361052D1*
X2876899Y2355304D1*
X2917047D1*
X2884548Y2342952D2*
X2882603Y2339106D1*
X2876899Y2333358D1*
X2917047D1*
X1002201Y2412644D2*
Y2395445D1*
X1000255Y2389697D1*
X998354Y2387751D1*
X994551Y2385850D1*
X990705D1*
X986902Y2387751D1*
X984957Y2389697D1*
X983055Y2395445D1*
Y2412645D1*
X1023247Y2412644D1*
X1002201Y2399247D2*
X1023247Y2385850D1*
X990749Y2373498D2*
X988803Y2369652D1*
X983100Y2363904D1*
X1023247D1*
X992650Y2349607D2*
X990749D1*
X986902Y2347706D1*
X985001Y2345804D1*
X983100Y2341958D1*
Y2334308D1*
X985001Y2330506D1*
X986902Y2328604D1*
X990749Y2326659D1*
X994551D1*
X998398Y2328604D1*
X1004102Y2332407D1*
X1023247Y2351552D1*
Y2324758D1*
X771000Y2413595D2*
Y2396395D1*
X769055Y2390647D1*
X767153Y2388702D1*
X763351Y2386800D1*
X759504D1*
X755702Y2388702D1*
X753756Y2390647D1*
X751855Y2396395D1*
Y2413595D1*
X792047D1*
X771000Y2400198D2*
X792047Y2386800D1*
X759548Y2374449D2*
X757603Y2370602D1*
X751899Y2364854D1*
X792047D1*
Y2333358D2*
X751899D1*
X778650Y2352503D1*
X778649Y2323807D1*
X3282932Y1560398D2*
X3265732D1*
X3259984Y1562344D1*
X3258038Y1564245D1*
X3256137Y1568047D1*
Y1571894D1*
X3258038Y1575697D1*
X3259984Y1577642D1*
X3265732Y1579543D1*
X3282932D1*
Y1539351D1*
X3269534Y1560398D2*
X3256137Y1539351D1*
X3243785Y1571850D2*
X3239939Y1573795D1*
X3234191Y1579499D1*
Y1539351D1*
X3198891Y1573795D2*
X3200793Y1577598D1*
X3206541Y1579499D1*
X3210343D1*
X3216091Y1577598D1*
X3219938Y1571850D1*
X3221839Y1562299D1*
Y1552749D1*
X3219938Y1545100D1*
X3216091Y1541253D1*
X3210343Y1539351D1*
X3208442D1*
X3202738Y1541253D1*
X3198891Y1545100D1*
X3196990Y1550848D1*
Y1552749D1*
X3198891Y1558497D1*
X3202738Y1562299D1*
X3208442Y1564201D1*
X3210343D1*
X3216091Y1562299D1*
X3219938Y1558497D1*
X3221839Y1552749D1*
X3071000Y1708646D2*
Y1691446D1*
X3069055Y1685698D1*
X3067153Y1683753D1*
X3063351Y1681851D1*
X3059504D1*
X3055702Y1683753D1*
X3053756Y1685698D1*
X3051855Y1691446D1*
Y1708646D1*
X3092047D1*
X3071000Y1695249D2*
X3092047Y1681851D1*
X3061450Y1667554D2*
X3059548D1*
X3055702Y1665653D1*
X3053800Y1663752D1*
X3051899Y1659905D1*
Y1652256D1*
X3053800Y1648453D1*
X3055702Y1646552D1*
X3059548Y1644607D1*
X3063351D1*
X3067198Y1646552D1*
X3072902Y1650355D1*
X3092047Y1669500D1*
Y1642705D1*
X3051899Y1618858D2*
X3053800Y1624606D1*
X3059548Y1628453D1*
X3069099Y1630354D1*
X3074847D1*
X3084398Y1628453D1*
X3090146Y1624606D1*
X3092047Y1618858D1*
Y1615055D1*
X3090146Y1609307D1*
X3084398Y1605505D1*
X3074847Y1603559D1*
X3069099D1*
X3059548Y1605505D1*
X3053800Y1609307D1*
X3051899Y1615055D1*
Y1618858D1*
X3059548Y1605505D2*
X3084398Y1628453D1*
X2789008Y1387743D2*
Y1370543D1*
X2787063Y1364795D1*
X2785161Y1362850D1*
X2781359Y1360948D1*
X2777512D1*
X2773710Y1362850D1*
X2771764Y1364795D1*
X2769863Y1370543D1*
Y1387743D1*
X2810055D1*
X2789008Y1374346D2*
X2810055Y1360948D1*
X2779458Y1346651D2*
X2777556D1*
X2773710Y1344750D1*
X2771808Y1342849D1*
X2769907Y1339002D1*
Y1331353D1*
X2771808Y1327550D1*
X2773710Y1325649D1*
X2777556Y1323704D1*
X2781359D1*
X2785206Y1325649D1*
X2790909Y1329452D1*
X2810055Y1348597D1*
Y1321802D1*
X2777556Y1309451D2*
X2775611Y1305604D1*
X2769907Y1299856D1*
X2810055D1*
X2992504Y1446225D2*
X2975304D1*
X2969556Y1448170D1*
X2967611Y1450071D1*
X2965710Y1453874D1*
Y1457721D1*
X2967611Y1461523D1*
X2969556Y1463469D1*
X2975304Y1465370D1*
X2992504D1*
Y1425178D1*
X2979107Y1446225D2*
X2965710Y1425178D1*
X2951413Y1455775D2*
Y1457676D1*
X2949511Y1461523D1*
X2947610Y1463425D1*
X2943763Y1465326D1*
X2936114D1*
X2932312Y1463425D1*
X2930410Y1461523D1*
X2928465Y1457676D1*
Y1453874D1*
X2930410Y1450027D1*
X2934213Y1444323D1*
X2953358Y1425178D1*
X2926564D1*
X2912267Y1455775D2*
Y1457676D1*
X2910365Y1461523D1*
X2908464Y1463425D1*
X2904617Y1465326D1*
X2896968D1*
X2893165Y1463425D1*
X2891264Y1461523D1*
X2889319Y1457676D1*
Y1453874D1*
X2891264Y1450027D1*
X2895067Y1444323D1*
X2914212Y1425178D1*
X2887417D1*
X2215517Y483257D2*
D20*
Y433017D1*
X2182023Y483257D2*
X2215517Y449764D1*
X2203578Y461757D2*
X2182023Y433017D1*
X2168023Y466510D2*
Y442579D1*
X2165647Y435449D1*
X2160838Y433017D1*
X2153653D1*
X2148900Y435449D1*
X2141715Y442579D1*
Y466510D2*
Y433017D1*
X2127715Y466510D2*
Y433017D1*
Y452140D2*
X2125283Y459325D1*
X2120530Y464134D1*
X2115722Y466510D1*
X2108537D1*
X2087351Y483257D2*
Y442579D1*
X2084975Y435449D1*
X2080166Y433017D1*
X2075413D1*
X2094537Y466510D2*
X2077790D1*
X2049420Y483202D2*
X2061413Y468832D1*
X2047043Y480825D1*
X2049420Y483202D1*
X2006735Y459325D2*
X2009111Y464134D1*
X2016296Y466510D1*
X2023482D1*
X2030667Y464134D1*
X2033043Y459325D1*
X2030667Y454572D1*
X2025858Y452140D1*
X2013920Y449764D1*
X2009111Y447387D1*
X2006735Y442579D1*
Y440202D1*
X2009111Y435449D1*
X2016296Y433017D1*
X2023482D1*
X2030667Y435449D1*
X2033043Y440202D1*
X1928826Y483257D2*
Y433017D1*
X1945573Y483257D2*
X1912080D1*
X1898080Y452140D2*
X1869395D1*
Y456949D1*
X1871772Y461757D1*
X1874148Y464134D1*
X1878957Y466510D1*
X1886142D1*
X1890895Y464134D1*
X1895703Y459325D1*
X1898080Y452140D1*
Y447387D1*
X1895703Y440202D1*
X1890895Y435449D1*
X1886142Y433017D1*
X1878957D1*
X1874148Y435449D1*
X1869395Y440202D1*
X1855395Y452140D2*
X1826710D1*
Y456949D1*
X1829087Y461757D1*
X1831463Y464134D1*
X1836272Y466510D1*
X1843457D1*
X1848210Y464134D1*
X1853018Y459325D1*
X1855395Y452140D1*
Y447387D1*
X1853018Y440202D1*
X1848210Y435449D1*
X1843457Y433017D1*
X1836272D1*
X1831463Y435449D1*
X1826710Y440202D1*
X1812710Y466510D2*
Y433017D1*
Y456949D2*
X1805525Y464134D1*
X1800717Y466510D1*
X1793587D1*
X1788778Y464134D1*
X1786402Y456949D1*
Y433017D1*
X1746093Y459325D2*
X1748470Y464134D1*
X1755655Y466510D1*
X1762840D1*
X1770025Y464134D1*
X1772402Y459325D1*
X1770025Y454572D1*
X1765217Y452140D1*
X1753278Y449764D1*
X1748470Y447387D1*
X1746093Y442579D1*
Y440202D1*
X1748470Y435449D1*
X1755655Y433017D1*
X1762840D1*
X1770025Y435449D1*
X1772402Y440202D1*
X1729662Y466510D2*
X1715347Y433017D1*
X1720100Y423455D1*
X1724908Y418647D1*
X1729662Y416270D1*
X1732093D1*
X1700977Y466510D2*
X1715347Y433017D1*
X1639815Y459325D2*
X1618315D1*
X1611130Y461757D1*
X1608698Y464134D1*
X1606322Y468887D1*
Y473695D1*
X1608698Y478449D1*
X1611130Y480880D1*
X1618315Y483257D1*
X1639815D1*
Y433017D1*
X1623068Y459325D2*
X1606322Y433017D1*
X1592322Y456949D2*
X1570767D1*
X1563637Y459325D1*
X1561205Y461757D1*
X1558828Y466510D1*
Y473695D1*
X1561205Y478449D1*
X1563637Y480880D1*
X1570767Y483257D1*
X1592322D1*
Y433017D1*
X1544828Y483257D2*
Y433017D1*
X1483667Y483257D2*
Y433017D1*
X1450173Y483257D2*
Y433017D1*
X1483667Y459325D2*
X1450173D1*
X1407488Y466510D2*
Y433017D1*
Y459325D2*
X1412242Y464134D1*
X1417050Y466510D1*
X1424180D1*
X1428988Y464134D1*
X1433741Y459325D1*
X1436173Y452140D1*
Y447387D1*
X1433741Y440202D1*
X1428988Y435449D1*
X1424180Y433017D1*
X1417050D1*
X1412242Y435449D1*
X1407488Y440202D1*
X1386303Y483257D2*
Y442579D1*
X1383927Y435449D1*
X1379118Y433017D1*
X1374365D1*
X1393488Y466510D2*
X1376742D1*
X1313203Y483257D2*
X1294080Y433017D1*
X1274957Y483257D1*
X1258580Y437825D2*
X1260957Y435394D1*
X1258580Y433017D1*
X1256148Y435394D1*
X1258580Y437825D1*
X1237340Y483202D2*
X1211087D1*
X1225402Y464078D1*
X1218217D1*
X1213464Y461702D1*
X1211087Y459325D1*
X1208655Y452140D1*
Y447387D1*
X1211087Y440202D1*
X1215840Y435394D1*
X1223025Y433017D1*
X1230210D1*
X1237340Y435394D1*
X1239717Y437825D1*
X1242148Y442579D1*
X2543520Y1131960D2*
D124*
X2540635Y1133419D1*
X2536324Y1137697D1*
Y1107587D1*
X2643961Y1119034D2*
Y1120460D1*
X2642535Y1123345D1*
X2641109Y1124771D1*
X2638224Y1126197D1*
X2632487D1*
X2629635Y1124771D1*
X2628209Y1123345D1*
X2626750Y1120460D1*
Y1117608D1*
X2628209Y1114723D1*
X2631061Y1110446D1*
X2645420Y1096087D1*
X2625324D1*
X2755035Y1126197D2*
X2739283D1*
X2747872Y1114723D1*
X2743561D1*
X2740709Y1113297D1*
X2739283Y1111871D1*
X2737824Y1107560D1*
Y1104709D1*
X2739283Y1100398D1*
X2742135Y1097512D1*
X2746446Y1096087D1*
X2750757D1*
X2755035Y1097512D1*
X2756461Y1098972D1*
X2757920Y1101823D1*
X3026938Y1121919D2*
X3028364Y1124771D1*
X3032675Y1126197D1*
X3035526D1*
X3039838Y1124771D1*
X3042723Y1120460D1*
X3044149Y1113297D1*
Y1106135D1*
X3042723Y1100398D1*
X3039838Y1097512D1*
X3035526Y1096087D1*
X3034101D1*
X3029823Y1097512D1*
X3026938Y1100398D1*
X3025512Y1104709D1*
Y1106135D1*
X3026938Y1110446D1*
X3029823Y1113297D1*
X3034101Y1114723D1*
X3035526D1*
X3039838Y1113297D1*
X3042723Y1110446D1*
X3044149Y1106135D1*
X3139871Y1096087D2*
X3125512Y1126197D1*
X3145608D1*
X3238412D2*
X3242689Y1124771D1*
X3244149Y1121919D1*
Y1119034D1*
X3242689Y1116183D1*
X3239838Y1114723D1*
X3234101Y1113297D1*
X3229789Y1111871D1*
X3226938Y1108986D1*
X3225512Y1106135D1*
Y1101823D1*
X3226938Y1098972D1*
X3228364Y1097512D1*
X3232675Y1096087D1*
X3238412D1*
X3242689Y1097512D1*
X3244149Y1098972D1*
X3245574Y1101823D1*
Y1106135D1*
X3244149Y1108986D1*
X3241263Y1111871D1*
X3236986Y1113297D1*
X3231249Y1114723D1*
X3228364Y1116183D1*
X3226938Y1119034D1*
Y1121919D1*
X3228364Y1124771D1*
X3232675Y1126197D1*
X3238412D1*
X3330512Y1116183D2*
X3331971Y1111871D1*
X3334823Y1108986D1*
X3339134Y1107560D1*
X3340560D1*
X3344871Y1108986D1*
X3347723Y1111871D1*
X3349182Y1116183D1*
Y1117608D1*
X3347723Y1121919D1*
X3344871Y1124771D1*
X3340560Y1126197D1*
X3339134D1*
X3334823Y1124771D1*
X3331971Y1121919D1*
X3330512Y1116183D1*
Y1108986D1*
X3331971Y1101823D1*
X3334823Y1097512D1*
X3339134Y1096087D1*
X3341986D1*
X3346297Y1097512D1*
X3347723Y1100398D1*
X2445184Y1096087D2*
X2456691Y1126231D1*
X2468165Y1096087D1*
X2463854Y1106135D2*
X2449495D1*
X2427298Y1126197D2*
X2431609Y1124771D1*
X2434494Y1120460D1*
X2435920Y1113297D1*
Y1108986D1*
X2434494Y1101823D1*
X2431609Y1097512D1*
X2427298Y1096087D1*
X2424446D1*
X2420135Y1097512D1*
X2417283Y1101823D1*
X2415824Y1108986D1*
Y1113297D1*
X2417283Y1120460D1*
X2420135Y1124771D1*
X2424446Y1126197D1*
X2427298D1*
X2417283Y1120460D2*
X2434494Y1101823D1*
X2841732Y1099453D2*
Y1129563D1*
X2856091Y1109501D1*
X2834569D1*
X2938828Y1124838D2*
X2953154D1*
X2954580Y1111938D1*
X2953154Y1113364D1*
X2948843Y1114823D1*
X2944565D1*
X2940254Y1113364D1*
X2937369Y1110512D1*
X2935943Y1106201D1*
Y1103349D1*
X2937369Y1099038D1*
X2940254Y1096153D1*
X2944565Y1094727D1*
X2948843D1*
X2953154Y1096153D1*
X2954580Y1097612D1*
X2956039Y1100464D1*
X3424359Y1857487D2*
D123*
X3429168Y1855055D1*
X3436353Y1847925D1*
Y1898110D1*
X3319516Y1859572D2*
Y1857195D1*
X3321892Y1852387D1*
X3324269Y1850010D1*
X3329077Y1847634D1*
X3338639D1*
X3343392Y1850010D1*
X3345769Y1852387D1*
X3348201Y1857195D1*
Y1861948D1*
X3345769Y1866757D1*
X3341016Y1873887D1*
X3317084Y1897818D1*
X3350577D1*
X3233828Y1847634D2*
X3260081D1*
X3245766Y1866757D1*
X3252951D1*
X3257705Y1869133D1*
X3260081Y1871510D1*
X3262513Y1878695D1*
Y1883448D1*
X3260081Y1890633D1*
X3255328Y1895442D1*
X3248143Y1897818D1*
X3240958D1*
X3233828Y1895442D1*
X3231452Y1893010D1*
X3229020Y1888257D1*
X2944529Y1857346D2*
X2942152Y1852593D1*
X2934967Y1850216D1*
X2930214D1*
X2923029Y1852593D1*
X2918220Y1859778D1*
X2915844Y1871716D1*
Y1883654D1*
X2918221Y1893216D1*
X2923029Y1898024D1*
X2930214Y1900401D1*
X2932591D1*
X2939720Y1898024D1*
X2944529Y1893216D1*
X2946905Y1886031D1*
Y1883654D1*
X2944529Y1876469D1*
X2939720Y1871716D1*
X2932591Y1869340D1*
X2930214D1*
X2923029Y1871716D1*
X2918221Y1876469D1*
X2915844Y1883654D1*
X2835028Y1902551D2*
X2858959Y1852366D1*
X2825466D1*
X2737253Y1851075D2*
X2730124Y1853451D1*
X2727692Y1858204D1*
Y1863013D1*
X2730124Y1867766D1*
X2734877Y1870198D1*
X2744438Y1872574D1*
X2751623Y1874951D1*
X2756377Y1879759D1*
X2758753Y1884513D1*
Y1891698D1*
X2756377Y1896451D1*
X2754000Y1898883D1*
X2746815Y1901259D1*
X2737253D1*
X2730124Y1898883D1*
X2727692Y1896451D1*
X2725315Y1891698D1*
Y1884513D1*
X2727692Y1879759D1*
X2732500Y1874951D1*
X2739630Y1872574D1*
X2749192Y1870198D1*
X2754000Y1867766D1*
X2756377Y1863013D1*
Y1858204D1*
X2754000Y1853451D1*
X2746815Y1851075D1*
X2737253D1*
X2655471Y1869057D2*
X2653039Y1876242D1*
X2648286Y1881051D1*
X2641101Y1883427D1*
X2638724D1*
X2631539Y1881051D1*
X2626786Y1876242D1*
X2624354Y1869057D1*
Y1866681D1*
X2626786Y1859496D1*
X2631539Y1854743D1*
X2638724Y1852366D1*
X2641101D1*
X2648286Y1854742D1*
X2653039Y1859496D1*
X2655471Y1869057D1*
Y1881051D1*
X2653039Y1892989D1*
X2648286Y1900174D1*
X2641101Y1902551D1*
X2636348D1*
X2629163Y1900174D1*
X2626786Y1895366D1*
X3149134Y1897312D2*
Y1847127D1*
X3125202Y1880565D1*
X3161072D1*
X3049067Y1846274D2*
X3025190D1*
X3022814Y1867774D1*
X3025190Y1865397D1*
X3032375Y1862965D1*
X3039505D1*
X3046690Y1865397D1*
X3051499Y1870150D1*
X3053875Y1877335D1*
Y1882089D1*
X3051499Y1889274D1*
X3046690Y1894082D1*
X3039505Y1896459D1*
X3032375D1*
X3025190Y1894082D1*
X3022814Y1891650D1*
X3020382Y1886897D1*
X3526358Y1841235D2*
X3519173Y1843611D1*
X3514365Y1850796D1*
X3511988Y1862735D1*
Y1869920D1*
X3514365Y1881858D1*
X3519173Y1889043D1*
X3526358Y1891419D1*
X3531111D1*
X3538296Y1889043D1*
X3543050Y1881858D1*
X3545481Y1869920D1*
Y1862734D1*
X3543050Y1850796D1*
X3538296Y1843611D1*
X3531111Y1841235D1*
X3526358D1*
X3543050Y1850796D2*
X3514365Y1881858D1*
X2508399Y1861080D2*
X2513208Y1858648D1*
X2520393Y1851518D1*
Y1901703D1*
X2550202Y1851518D2*
X2543017Y1853895D1*
X2538209Y1861080D1*
X2535832Y1873018D1*
Y1880203D1*
X2538209Y1892141D1*
X2543017Y1899326D1*
X2550202Y1901703D1*
X2554955D1*
X2562140Y1899326D1*
X2566893Y1892141D1*
X2569325Y1880203D1*
Y1873018D1*
X2566893Y1861080D1*
X2562140Y1853895D1*
X2554955Y1851518D1*
X2550202D1*
X2566893Y1861080D2*
X2538209Y1892141D1*
X2416826Y1857514D2*
X2421634Y1855082D1*
X2428819Y1847953D1*
Y1898137D1*
X2444258Y1857514D2*
X2449067Y1855082D1*
X2456252Y1847952D1*
Y1898137D1*
X2309469Y1860823D2*
X2314277Y1858391D1*
X2321462Y1851261D1*
Y1901446D1*
X2339333Y1863199D2*
Y1860823D1*
X2341710Y1856014D1*
X2344087Y1853638D1*
X2348895Y1851261D1*
X2358457D1*
X2363210Y1853637D1*
X2365586Y1856014D1*
X2368018Y1860823D1*
Y1865576D1*
X2365586Y1870384D1*
X2360833Y1877514D1*
X2336902Y1901446D1*
X2370395D1*
X2207529Y1862680D2*
X2212338Y1860248D1*
X2219523Y1853118D1*
Y1903303D1*
X2239770Y1853118D2*
X2266023D1*
X2251709Y1872241D1*
X2258894D1*
X2263647Y1874618D1*
X2266023Y1876994D1*
X2268455Y1884179D1*
Y1888933D1*
X2266023Y1896118D1*
X2261270Y1900926D1*
X2254085Y1903303D1*
X2246900D1*
X2239770Y1900926D1*
X2237394Y1898494D1*
X2234962Y1893741D1*
X2025500Y2158469D2*
X2023123Y2153716D1*
X2015938Y2151340D1*
X2011185D1*
X2004000Y2153716D1*
X1999192Y2160901D1*
X1996815Y2172840D1*
Y2184778D1*
X1999192Y2194339D1*
X2004000Y2199148D1*
X2011185Y2201524D1*
X2013562D1*
X2020691Y2199148D1*
X2025500Y2194339D1*
X2027876Y2187154D1*
Y2184778D1*
X2025500Y2177593D1*
X2020691Y2172840D1*
X2013562Y2170463D1*
X2011185D1*
X2004000Y2172840D1*
X1999192Y2177593D1*
X1996815Y2184778D1*
X1891966Y2154459D2*
X1896775Y2152027D1*
X1903960Y2144897D1*
Y2195082D1*
X1943331D2*
Y2144897D1*
X1919399Y2178336D1*
X1955269Y2178335D1*
X1792242Y2154232D2*
X1797050Y2151800D1*
X1804235Y2144670D1*
Y2194855D1*
X1819674Y2154232D2*
X1824483Y2151800D1*
X1831668Y2144670D1*
Y2194855D1*
X1686601Y2153396D2*
X1691410Y2150964D1*
X1698595Y2143834D1*
Y2194019D1*
X1716466Y2155773D2*
Y2153396D1*
X1718843Y2148588D1*
X1721219Y2146211D1*
X1726028Y2143834D1*
X1735589D1*
X1740342Y2146211D1*
X1742719Y2148588D1*
X1745151Y2153396D1*
Y2158149D1*
X1742719Y2162958D1*
X1737966Y2170087D1*
X1714034Y2194019D1*
X1747527D1*
X2105327Y2158706D2*
Y2156329D1*
X2107703Y2151521D1*
X2110080Y2149144D1*
X2114888Y2146767D1*
X2124450D1*
X2129203Y2149144D1*
X2131580Y2151521D1*
X2134012Y2156329D1*
Y2161082D1*
X2131580Y2165891D1*
X2126827Y2173021D1*
X2102895Y2196952D1*
X2136388D1*
X1577022Y2154816D2*
Y2152439D1*
X1579398Y2147631D1*
X1581775Y2145254D1*
X1586583Y2142878D1*
X1596145D1*
X1600898Y2145254D1*
X1603275Y2147631D1*
X1605706Y2152439D1*
Y2157193D1*
X1603275Y2162001D1*
X1598521Y2169131D1*
X1574590Y2193062D1*
X1608083D1*
X1628331Y2142878D2*
X1654584D1*
X1640269Y2162001D1*
X1647454D1*
X1652207Y2164378D1*
X1654584Y2166754D1*
X1657016Y2173939D1*
Y2178692D1*
X1654584Y2185877D1*
X1649831Y2190686D1*
X1642646Y2193062D1*
X1635461D1*
X1628331Y2190686D1*
X1625954Y2188254D1*
X1623522Y2183501D1*
X1477224Y2139312D2*
X1503477D1*
X1489162Y2158435D1*
X1496347D1*
X1501100Y2160812D1*
X1503477Y2163189D1*
X1505909Y2170374D1*
Y2175127D1*
X1503477Y2182312D1*
X1498724Y2187120D1*
X1491539Y2189497D1*
X1484353D1*
X1477224Y2187120D1*
X1474847Y2184688D1*
X1472415Y2179935D1*
X1535718Y2139312D2*
X1528533Y2141689D1*
X1523724Y2148874D1*
X1521348Y2160812D1*
Y2167997D1*
X1523724Y2179935D1*
X1528533Y2187120D1*
X1535718Y2189497D1*
X1540471D1*
X1547656Y2187120D1*
X1552409Y2179935D1*
X1554841Y2167997D1*
Y2160812D1*
X1552409Y2148874D1*
X1547656Y2141689D1*
X1540471Y2139312D1*
X1535718D1*
X1552409Y2148874D2*
X1523724Y2179935D1*
X1648465Y789006D2*
X1674718D1*
X1660403Y808130D1*
X1667588D1*
X1672341Y810506D1*
X1674718Y812883D1*
X1677150Y820068D1*
Y824821D1*
X1674718Y832006D1*
X1669965Y836815D1*
X1662780Y839191D1*
X1655595D1*
X1648465Y836814D1*
X1646088Y834383D1*
X1643657Y829629D1*
X1692589Y798568D2*
X1697397Y796136D1*
X1704583Y789006D1*
Y839191D1*
X1642897Y886449D2*
X1669150D1*
X1654835Y905572D1*
X1662020D1*
X1666773Y907948D1*
X1669150Y910325D1*
X1671582Y917510D1*
Y922263D1*
X1669150Y929448D1*
X1664397Y934257D1*
X1657212Y936633D1*
X1650027D1*
X1642897Y934257D1*
X1640520Y931825D1*
X1638088Y927072D1*
X1689453Y898387D2*
Y896010D1*
X1691829Y891202D1*
X1694206Y888825D1*
X1699014Y886449D1*
X1708576D1*
X1713329Y888825D1*
X1715706Y891202D1*
X1718138Y896010D1*
Y900763D1*
X1715706Y905572D1*
X1710953Y912702D1*
X1687021Y936633D1*
X1720514D1*
X2102276Y2007258D2*
Y2004882D1*
X2104652Y2000073D1*
X2107029Y1997697D1*
X2111837Y1995320D1*
X2121399D1*
X2126152Y1997697D1*
X2128529Y2000073D1*
X2130961Y2004882D1*
Y2009635D1*
X2128529Y2014443D1*
X2123775Y2021573D1*
X2099844Y2045505D1*
X2133337D1*
X1998811Y2003750D2*
X2003620Y2001319D1*
X2010805Y1994189D1*
Y2044374D1*
X2026244Y2003750D2*
X2031052Y2001318D1*
X2038237Y1994189D1*
Y2044373D1*
X2177357Y2151160D2*
X2182166Y2148728D1*
X2189351Y2141598D1*
Y2191783D1*
X2216728Y2141598D2*
X2209599Y2143975D1*
X2207167Y2148728D1*
Y2153536D1*
X2209599Y2158290D1*
X2214352Y2160721D1*
X2223913Y2163098D1*
X2231098Y2165475D1*
X2235852Y2170283D1*
X2238228Y2175036D1*
Y2182221D1*
X2235852Y2186974D1*
X2233475Y2189406D1*
X2226290Y2191783D1*
X2216728D1*
X2209599Y2189406D1*
X2207167Y2186975D1*
X2204790Y2182221D1*
Y2175036D1*
X2207167Y2170283D1*
X2211975Y2165475D1*
X2219105Y2163098D1*
X2228667Y2160721D1*
X2233475Y2158290D1*
X2235852Y2153536D1*
Y2148728D1*
X2233475Y2143975D1*
X2226290Y2141598D1*
X2216728D1*
X2284449Y2156071D2*
X2289258Y2153639D1*
X2296443Y2146509D1*
Y2196694D1*
X2342999Y2163200D2*
X2340567Y2170385D1*
X2335814Y2175194D1*
X2328628Y2177570D1*
X2326252D1*
X2319067Y2175194D1*
X2314314Y2170385D1*
X2311882Y2163200D1*
Y2160824D1*
X2314314Y2153639D1*
X2319067Y2148886D1*
X2326252Y2146509D1*
X2328628D1*
X2335813Y2148886D1*
X2340567Y2153639D1*
X2342999Y2163200D1*
Y2175194D1*
X2340567Y2187132D1*
X2335814Y2194317D1*
X2328629Y2196694D1*
X2323875D1*
X2316690Y2194317D1*
X2314314Y2189509D1*
X2287529Y2012557D2*
X2292338Y2010126D1*
X2299523Y2002996D1*
Y2053181D1*
X2343647Y2002996D2*
X2319770D1*
X2317394Y2024496D1*
X2319770Y2022119D1*
X2326955Y2019687D1*
X2334085D1*
X2341270Y2022119D1*
X2346079Y2026872D1*
X2348455Y2034057D1*
Y2038810D1*
X2346079Y2045996D1*
X2341270Y2050804D1*
X2334085Y2053181D1*
X2326955D1*
X2319770Y2050804D1*
X2317394Y2048372D1*
X2314962Y2043619D1*
X2402155Y2031695D2*
D124*
X2400729Y2028843D1*
X2397844Y2025958D1*
X2394992Y2024532D1*
X2389255D1*
X2386370Y2025958D1*
X2383518Y2028843D1*
X2382059Y2031695D1*
X2380633Y2036006D1*
Y2043202D1*
X2382059Y2047480D1*
X2383518Y2050365D1*
X2386370Y2053217D1*
X2389255Y2054676D1*
X2394992D1*
X2397844Y2053217D1*
X2400729Y2050365D1*
X2402155Y2047480D1*
Y2043202D1*
X2394992D1*
X2411418Y2034580D2*
Y2054676D1*
Y2040317D2*
X2415729Y2036006D1*
X2418614Y2034580D1*
X2422892D1*
X2425777Y2036006D1*
X2427203Y2040317D1*
Y2054676D1*
X2453678Y2024532D2*
Y2054676D1*
Y2038891D2*
X2450826Y2036006D1*
X2447941Y2034580D1*
X2443630D1*
X2440778Y2036006D1*
X2437893Y2038891D1*
X2436467Y2043202D1*
Y2046054D1*
X2437893Y2050365D1*
X2440778Y2053217D1*
X2443630Y2054676D1*
X2447941D1*
X2450826Y2053217D1*
X2453678Y2050365D1*
X2489038Y2028400D2*
Y2054233D1*
X2476138Y2041333D2*
X2501971D1*
X2528445Y2026261D2*
X2514120D1*
X2512694Y2039161D1*
X2514120Y2037735D1*
X2518431Y2036276D1*
X2522708D1*
X2527019Y2037735D1*
X2529905Y2040587D1*
X2531331Y2044898D1*
Y2047750D1*
X2529905Y2052061D1*
X2527020Y2054946D1*
X2522709Y2056372D1*
X2518431D1*
X2514120Y2054946D1*
X2512694Y2053487D1*
X2511235Y2050635D1*
X2540594Y2036276D2*
X2549216Y2056372D1*
X2557805Y2036276D1*
X2223391Y1995223D2*
D123*
X2199514D1*
X2197138Y2016723D1*
X2199514Y2014346D1*
X2206699Y2011914D1*
X2213829D1*
X2221014Y2014346D1*
X2225823Y2019099D1*
X2228199Y2026284D1*
Y2031037D1*
X2225823Y2038223D1*
X2221014Y2043031D1*
X2213829Y2045408D1*
X2206700D1*
X2199515Y2043031D1*
X2197138Y2040599D1*
X2194706Y2035846D1*
X1883126Y1999989D2*
X1887935Y1997557D1*
X1895120Y1990428D1*
Y2040612D1*
X1934491D2*
Y1990428D1*
X1910559Y2023866D1*
X1946429D1*
X1677003Y2007979D2*
X1681811Y2005547D1*
X1688996Y1998417D1*
X1688997Y2048602D1*
X1706868Y2010355D2*
Y2007979D1*
X1709244Y2003170D1*
X1711621Y2000794D1*
X1716429Y1998417D1*
X1725991D1*
X1730744Y2000794D1*
X1733121Y2003170D1*
X1735552Y2007979D1*
Y2012732D1*
X1733121Y2017540D1*
X1728367Y2024670D1*
X1704436Y2048602D1*
X1737929D1*
X1431941Y2154122D2*
X1429509Y2161307D1*
X1424756Y2166115D1*
X1417571Y2168492D1*
X1415194D1*
X1408009Y2166115D1*
X1403256Y2161307D1*
X1400824Y2154122D1*
Y2151745D1*
X1403256Y2144560D1*
X1408009Y2139807D1*
X1415194Y2137430D1*
X1417571D1*
X1424756Y2139807D1*
X1429509Y2144560D1*
X1431941Y2154122D1*
Y2166115D1*
X1429509Y2178053D1*
X1424756Y2185238D1*
X1417571Y2187615D1*
X1412818D1*
X1405633Y2185238D1*
X1403256Y2180430D1*
X1309776Y2145420D2*
X1302646Y2147796D1*
X1300214Y2152550D1*
Y2157358D1*
X1302646Y2162111D1*
X1307399Y2164543D1*
X1316961Y2166920D1*
X1324146Y2169296D1*
X1328899Y2174105D1*
X1331275Y2178858D1*
Y2186043D1*
X1328899Y2190796D1*
X1326522Y2193228D1*
X1319337Y2195604D1*
X1309776D1*
X1302646Y2193228D1*
X1300214Y2190796D1*
X1297837Y2186043D1*
Y2178858D1*
X1300214Y2174105D1*
X1305022Y2169296D1*
X1312152Y2166920D1*
X1321714Y2164543D1*
X1326522Y2162111D1*
X1328899Y2157358D1*
Y2152549D1*
X1326522Y2147796D1*
X1319337Y2145420D1*
X1309776D1*
X2417369Y2196174D2*
Y2145989D1*
X2393437Y2179427D1*
X2429307D1*
X2503210Y2140533D2*
X2529463D1*
X2515148Y2159656D1*
X2522333D1*
X2527086Y2162032D1*
X2529463Y2164409D1*
X2531895Y2171594D1*
Y2176347D1*
X2529463Y2183532D1*
X2524710Y2188341D1*
X2517525Y2190717D1*
X2510340D1*
X2503210Y2188341D1*
X2500833Y2185909D1*
X2498402Y2181156D1*
X2608071Y2154720D2*
X2600941Y2157097D1*
X2598509Y2161850D1*
Y2166658D1*
X2600941Y2171412D1*
X2605694Y2173844D1*
X2615256Y2176220D1*
X2622441Y2178597D1*
X2627194Y2183405D1*
X2629571Y2188158D1*
Y2195343D1*
X2627194Y2200097D1*
X2624818Y2202528D1*
X2617633Y2204905D1*
X2608071D1*
X2600941Y2202528D1*
X2598509Y2200097D1*
X2596133Y2195343D1*
Y2188158D1*
X2598509Y2183405D1*
X2603318Y2178597D1*
X2610447Y2176220D1*
X2620009Y2173843D1*
X2624818Y2171412D1*
X2627194Y2166658D1*
Y2161850D1*
X2624818Y2157097D1*
X2617633Y2154720D1*
X2608071D1*
X2706589Y2198356D2*
X2730521Y2148172D1*
X2697028D1*
X1364411Y879791D2*
X1390664D1*
X1376350Y898914D1*
X1383535D1*
X1388288Y901291D1*
X1390664Y903668D1*
X1393096Y910853D1*
Y915606D1*
X1390664Y922791D1*
X1385911Y927599D1*
X1378726Y929976D1*
X1371541D1*
X1364411Y927599D1*
X1362035Y925167D1*
X1359603Y920414D1*
X1413344Y879791D2*
X1439597D1*
X1425282Y898914D1*
X1432467D1*
X1437220Y901291D1*
X1439597Y903668D1*
X1442029Y910853D1*
Y915606D1*
X1439597Y922791D1*
X1434844Y927599D1*
X1427659Y929976D1*
X1420474D1*
X1413344Y927599D1*
X1410967Y925167D1*
X1408535Y920414D1*
X1367352Y779833D2*
X1393605D1*
X1379291Y798956D1*
X1386476D1*
X1391229Y801333D1*
X1393605Y803710D1*
X1396037Y810895D1*
Y815648D1*
X1393605Y822833D1*
X1388852Y827641D1*
X1381667Y830018D1*
X1374482D1*
X1367352Y827641D1*
X1364976Y825209D1*
X1362544Y820456D1*
X1435408Y830018D2*
Y779833D1*
X1411476Y813271D1*
X1447346D1*
X1149763Y553879D2*
X1147387Y549126D1*
X1142578Y544317D1*
X1137825Y541941D1*
X1128264D1*
X1123455Y544317D1*
X1118702Y549126D1*
X1116270Y553879D1*
X1113893Y561064D1*
Y573057D1*
X1116270Y580187D1*
X1118702Y584996D1*
X1123455Y589749D1*
X1128264Y592181D1*
X1137825D1*
X1142578Y589749D1*
X1147387Y584996D1*
X1149763Y580187D1*
Y573057D1*
X1137825D1*
X1198696Y541941D2*
Y592181D1*
X1165203Y541941D1*
Y592181D1*
X1214135Y541941D2*
Y592181D1*
X1230882D1*
X1238067Y589749D1*
X1242875Y584996D1*
X1245252Y580187D1*
X1247628Y573057D1*
Y561064D1*
X1245252Y553879D1*
X1242875Y549126D1*
X1238067Y544317D1*
X1230882Y541941D1*
X1214135D1*
X1105791Y630053D2*
X1124915Y680293D1*
X1144038Y630053D1*
X1195347Y641992D2*
X1192970Y637238D1*
X1188162Y632430D1*
X1183409Y630053D1*
X1173847D1*
X1169039Y632430D1*
X1164285Y637238D1*
X1161854Y641992D1*
X1159477Y649177D1*
Y661170D1*
X1161854Y668300D1*
X1164285Y673108D1*
X1169039Y677862D1*
X1173847Y680293D1*
X1183409D1*
X1188162Y677862D1*
X1192970Y673108D1*
X1195347Y668300D1*
X1246656Y641992D2*
X1244279Y637238D1*
X1239471Y632430D1*
X1234718Y630053D1*
X1225156D1*
X1220348Y632430D1*
X1215595Y637238D1*
X1213163Y641992D1*
X1210786Y649177D1*
Y661170D1*
X1213163Y668300D1*
X1215595Y673108D1*
X1220348Y677862D1*
X1225156Y680293D1*
X1234718D1*
X1239471Y677862D1*
X1244279Y673108D1*
X1246656Y668300D1*
X3532378Y708060D2*
X3489323D1*
X3510823Y686560D2*
Y729615D1*
X3535943Y773739D2*
Y749863D1*
X3514443Y747486D1*
X3516820Y749863D1*
X3519251Y757048D1*
Y764178D1*
X3516820Y771363D1*
X3512066Y776171D1*
X3504881Y778548D1*
X3500128D1*
X3492943Y776171D1*
X3488135Y771363D1*
X3485758Y764178D1*
Y757048D1*
X3488135Y749863D1*
X3490567Y747486D1*
X3495320Y745054D1*
X3535998Y793987D2*
X3485758Y813110D1*
X3535998Y832233D1*
X3634687Y650149D2*
X3584447Y669272D1*
X3634687Y688395D1*
Y703834D2*
X3598817D1*
X3591632Y706211D1*
X3586879Y711019D1*
X3584447Y718204D1*
Y722958D1*
X3586879Y730143D1*
X3591632Y734951D1*
X3598817Y737328D1*
X3634687D1*
X3627502Y786260D2*
X3632311Y781507D1*
X3634687Y774322D1*
Y764760D1*
X3632311Y757575D1*
X3627502Y752767D1*
X3622749D1*
X3617940Y755199D1*
X3615564Y757575D1*
X3613187Y762329D1*
X3608379Y776699D1*
X3606002Y781507D1*
X3603570Y783884D1*
X3598817Y786260D1*
X3591632D1*
X3586879Y781507D1*
X3584447Y774322D1*
Y764760D1*
X3586879Y757575D1*
X3591632Y752767D1*
X3634687Y801699D2*
X3584447Y801700D1*
Y823255D1*
X3586879Y830440D1*
X3589256Y832816D1*
X3594009Y835193D1*
X3601194D1*
X3606002Y832816D1*
X3608379Y830440D1*
X3610755Y823255D1*
X3613187Y830440D1*
X3615564Y832816D1*
X3620317Y835193D1*
X3625126D1*
X3629879Y832816D1*
X3632311Y830440D1*
X3634687Y823255D1*
Y801699D1*
X3610755D2*
Y823255D1*
X3411333Y2438086D2*
Y2411833D1*
X3430456Y2426148D1*
Y2418963D1*
X3432833Y2414210D1*
X3435210Y2411833D1*
X3442395Y2409402D1*
X3447148D1*
X3454333Y2411833D1*
X3459141Y2416587D1*
X3461518Y2423772D1*
Y2430957D1*
X3459141Y2438086D1*
X3456709Y2440463D1*
X3451956Y2442895D1*
X3461518Y2384401D2*
X3411333Y2360469D1*
Y2393962D1*
X3175560Y2437585D2*
Y2411332D1*
X3194683Y2425647D1*
Y2418462D1*
X3197060Y2413709D1*
X3199437Y2411332D1*
X3206622Y2408900D1*
X3211375D1*
X3218560Y2411332D1*
X3223368Y2416085D1*
X3225745Y2423270D1*
Y2430455D1*
X3223368Y2437585D1*
X3220936Y2439962D1*
X3216183Y2442393D1*
X3175560Y2381523D2*
X3177937Y2388652D1*
X3182690Y2391084D1*
X3187498D1*
X3192252Y2388652D1*
X3194683Y2383899D1*
X3197060Y2374338D1*
X3199437Y2367153D1*
X3204245Y2362399D1*
X3208998Y2360023D1*
X3216183D1*
X3220936Y2362399D1*
X3223368Y2364776D1*
X3225745Y2371961D1*
Y2381523D1*
X3223368Y2388652D1*
X3220936Y2391084D1*
X3216183Y2393461D1*
X3208998D1*
X3204245Y2391084D1*
X3199437Y2386276D1*
X3197060Y2379146D1*
X3194683Y2369585D1*
X3192252Y2364776D1*
X3187498Y2362399D1*
X3182690D1*
X3177937Y2364776D1*
X3175560Y2371961D1*
Y2381523D1*
M02*
