M48
INCH
T01C0.0191
T02C0.0315
T03C0.0354
T04C0.038
T05C0.04
T06C0.0433
T07C0.0449
T08C0.0984
T09C0.125
%
T01
X+033500Y+015537
X+032900Y+015537
X+031525Y+015062
X+029500Y+015537
X+029117Y+017199
X+027467Y+016143
X+027500Y+015537
X+026051Y+014937
X+025974Y+013008
X+027878Y+012820
X+030074Y+012760
X+033404Y+017262
X+035583Y+016882
X+035728Y+015558
X+036178Y+020883
X+034873Y+023183
X+030525Y+023062
X+028827Y+022839
X+026968Y+021232
X+026300Y+021337
X+025942Y+020055
X+023733Y+017337
X+023051Y+016429
X+021480Y+016890
X+020571Y+016437
X+019900Y+017337
X+019100Y+015537
X+017300Y+016383
X+016769Y+016772
X+016335Y+019383
X+016650Y+019937
X+014900Y+019812
X+014700Y+019137
X+013900Y+018537
X+013150Y+019812
X+012100Y+019337
X+012397Y+018060
X+012650Y+017562
X+012650Y+016937
X+013400Y+016584
X+014080Y+016808
X+013551Y+015140
X+012700Y+013937
X+013416Y+013063
X+010196Y+014588
X+010902Y+016312
X+012524Y+024185
X+007712Y+024560
X+017548Y+023974
X+022242Y+014040
X+023025Y+013437
X+023813Y+013340
X+022300Y+007737
X+019900Y+008937
X+018500Y+010537
X+029900Y+019137
T02
X+035900Y+023687
X+035900Y+024337
X+035900Y+025037
X+035900Y+025687
T03
X+029400Y+009437
X+029400Y+008437
X+028400Y+008437
X+028400Y+009437
X+027400Y+009437
X+027400Y+008437
X+026400Y+008437
X+026400Y+009437
X+025400Y+009437
X+025400Y+008437
X+024400Y+008437
X+024400Y+009437
X+024400Y+010437
X+025400Y+010437
X+026400Y+010437
X+027400Y+010437
X+028400Y+010437
X+029400Y+010437
X+030400Y+010437
X+030400Y+009437
X+031400Y+009437
X+032400Y+009437
X+032400Y+008437
X+031400Y+008437
X+030400Y+008437
X+031400Y+010437
X+032400Y+010437
X+033400Y+010437
X+033400Y+009437
X+033400Y+008437
X+035150Y+008812
X+035150Y+009812
X+036150Y+009812
X+036150Y+008812
X+035400Y+019562
X+035400Y+020562
X+034400Y+020562
X+034400Y+021562
X+035400Y+021562
X+033400Y+021562
X+033400Y+020562
X+032400Y+020562
X+031400Y+020562
X+031400Y+021562
X+030400Y+021562
X+030400Y+020562
X+030400Y+019562
X+031400Y+019562
X+032400Y+019562
X+033400Y+019562
X+034400Y+019562
X+032400Y+021562
X+033650Y+023062
X+033650Y+024062
X+033650Y+025062
X+033650Y+026062
X+032650Y+026062
X+032650Y+025062
X+032650Y+024062
X+029400Y+021562
X+028400Y+021562
X+028400Y+020562
X+029400Y+020562
X+029400Y+019562
X+028400Y+019562
X+027400Y+019562
X+026400Y+019562
X+025400Y+019562
X+024400Y+019562
X+023400Y+019562
X+022400Y+019562
X+022150Y+020937
X+021150Y+020937
X+020150Y+020937
X+019150Y+020937
X+018150Y+020937
X+017150Y+020937
X+017150Y+022421
X+017150Y+023421
X+018150Y+023421
X+019150Y+023421
X+020150Y+023421
X+020150Y+022421
X+019150Y+022421
X+018150Y+022421
X+021150Y+022421
X+021150Y+023421
X+023150Y+020937
X+024150Y+020937
X+025150Y+020937
X+026150Y+022421
X+027150Y+022421
X+027150Y+023421
X+026150Y+023421
X+015900Y+010062
X+015900Y+009062
X+014900Y+009062
X+014900Y+008062
X+014900Y+007062
X+015900Y+007062
X+015900Y+008062
X+014900Y+010062
X+012900Y+006562
X+012900Y+005562
T04
X+036400Y+017937
X+035400Y+017937
X+034400Y+017937
X+033400Y+017937
X+032400Y+017937
X+031400Y+017937
X+030400Y+017937
X+029400Y+017937
X+028400Y+017937
X+027400Y+017937
X+026400Y+017937
X+025400Y+017937
X+024400Y+017937
X+023400Y+017937
X+022400Y+017937
X+021400Y+017937
X+020400Y+017937
X+019400Y+017937
X+018400Y+017937
X+017400Y+017937
X+016400Y+017937
X+015400Y+017937
X+014400Y+017937
X+013400Y+017937
X+018400Y+016937
X+018400Y+015937
X+018400Y+014937
X+018400Y+013937
X+018400Y+012937
X+018400Y+011937
X+017400Y+011937
X+016400Y+011937
X+015400Y+011937
X+014400Y+011937
X+013400Y+011937
X+019400Y+011937
X+020400Y+011937
X+021400Y+011937
X+022400Y+011937
X+023400Y+011937
X+024400Y+011937
X+025400Y+011937
X+026400Y+011937
X+027400Y+011937
X+028400Y+011937
X+029400Y+011937
X+030400Y+011937
X+031400Y+011937
X+031400Y+012937
X+032400Y+012937
X+032400Y+011937
X+033400Y+011937
X+034400Y+011937
X+035400Y+011937
X+035400Y+012937
X+036400Y+011937
X+033400Y+012937
T05
X+007195Y+025106
X+007195Y+026106
X+008195Y+026106
X+008195Y+025106
X+009195Y+025106
X+009195Y+026106
X+010195Y+026106
X+010195Y+025106
X+011195Y+025106
X+011195Y+026106
X+012195Y+026106
X+012195Y+025106
X+013195Y+025106
X+013195Y+026106
X+014195Y+026106
X+014195Y+025106
X+015195Y+025106
X+015195Y+026106
X+016195Y+026106
X+016195Y+025106
X+017195Y+025106
X+017195Y+026106
X+018195Y+026106
X+018195Y+025106
X+019195Y+025106
X+019195Y+026106
X+020195Y+026106
X+020195Y+025106
X+021195Y+025106
X+021195Y+026106
X+022195Y+026106
X+022195Y+025106
X+023195Y+025106
X+023195Y+026106
X+024195Y+026106
X+024195Y+025106
X+025195Y+025106
X+025195Y+026106
X+026195Y+026106
X+026195Y+025106
X+011615Y+022467
X+010945Y+022467
X+010275Y+022467
X+009605Y+022467
X+008935Y+022467
X+006856Y+022937
X+005856Y+022937
X+004856Y+022937
X+004856Y+020837
X+005856Y+020837
X+006856Y+020837
X+006856Y+018737
X+005856Y+018737
X+004856Y+018737
X+004856Y+016637
X+005856Y+016637
X+006856Y+016637
X+006856Y+014537
X+005856Y+014537
X+004856Y+014537
X+004856Y+012437
X+005856Y+012437
X+006856Y+012437
X+009025Y+013537
X+009025Y+014537
X+009025Y+015537
X+009025Y+017687
X+009025Y+018687
X+009025Y+019687
T06
X+011150Y+011748
X+010150Y+011748
X+009150Y+011748
X+018275Y+008062
X+021267Y+008062
T07
X+025150Y+023421
X+024150Y+023421
X+023150Y+023421
X+022150Y+023421
X+022150Y+022421
X+023150Y+022421
X+024150Y+022421
X+025150Y+022421
X+016150Y+022421
X+015150Y+022421
X+014150Y+022421
X+013150Y+022421
X+013150Y+023421
X+014150Y+023421
X+015150Y+023421
X+016150Y+023421
T08
X+009275Y+009331
X+011125Y+008150
X+009275Y+006969
T09
X+028112Y+006315
X+028112Y+025606
X+005278Y+025606
X+005278Y+006315
T00
M30
