G04 DipTrace 3.0.0.2*
G04 TeensyArbotixProRPIT3.6.gts*
%MOIN*%
G04 #@! TF.FileFunction,Soldermask,Top*
G04 #@! TF.Part,Single*
%AMOUTLINE0*5,1,8,0,0,0.065199,-22.499571*%
%ADD13C,0.04*%
%ADD35R,0.05X0.1*%
%ADD36R,0.1X0.05*%
%ADD43C,0.15748*%
%ADD46C,0.065199*%
%ADD47R,0.047244X0.047244*%
%ADD48C,0.05315*%
%ADD53R,0.031496X0.035433*%
%ADD60C,0.06194*%
%ADD72C,0.167*%
%ADD74C,0.042*%
%ADD76R,0.08074X0.025622*%
%ADD80R,0.045307X0.025622*%
%ADD82O,0.058X0.082*%
%ADD84R,0.058X0.082*%
%ADD86R,0.025622X0.045307*%
%ADD90C,0.076803*%
%ADD92R,0.076803X0.076803*%
%ADD94R,0.037433X0.04137*%
%ADD104C,0.070898*%
%ADD106R,0.070898X0.070898*%
%ADD108C,0.061055*%
%ADD110R,0.061055X0.061055*%
%ADD112R,0.108299X0.064992*%
%ADD114R,0.061055X0.053181*%
%ADD120R,0.053181X0.061055*%
%ADD125OUTLINE0*%
%FSLAX26Y26*%
G04*
G70*
G90*
G75*
G01*
G04 TopMask*
%LPD*%
D74*
X1489961Y1981201D3*
X3340414Y1726188D3*
D3*
X3558267Y1688193D3*
X2147966Y1688960D3*
X2911744Y1719925D3*
X2594166Y2005491D3*
X1340017Y1658364D3*
X2882662Y2283876D3*
X1314961Y1981201D3*
X1090158Y1631201D3*
X2605122Y1493701D3*
X3152461Y1506201D3*
X1239658Y1806004D3*
X2746694Y1614301D3*
X1019588Y1458822D3*
X1355092Y1513977D3*
X3487315Y2318297D3*
X2305135Y1642874D3*
X2057075Y1643702D3*
X1252370Y2418488D3*
X3572797Y1555802D3*
X3617827Y2088307D3*
D72*
X2811221Y631496D3*
X527756D3*
Y2560630D3*
X2811221D3*
D13*
X3349961Y1553701D3*
X1269961Y1393701D3*
X2224202Y1403988D3*
X2597415Y1300826D3*
X1664961Y1993701D3*
X1909961Y1553701D3*
X2749961D3*
X2949961D3*
X1209961Y1933701D3*
X1341625Y1306299D3*
X2229961Y773701D3*
X1989961Y893701D3*
Y1733701D3*
X1633477Y1938307D3*
X1849961Y1053701D3*
X2629961Y2133701D3*
X3289961Y1553701D3*
X1676862Y1677230D3*
X1264961Y1756201D3*
X1407950Y1680806D3*
X1729961Y1638307D3*
X1264961Y1693701D3*
X2696766Y2123207D3*
X2381281Y1333981D3*
X2373345Y1733670D3*
X2787782Y1282021D3*
X3007368Y1275960D3*
X2989961Y1913701D3*
X1754760Y2397398D3*
X3052461Y2306201D3*
X771171Y2455984D3*
X2302461Y1343701D3*
X1469961Y1913701D3*
X1389961Y1853701D3*
D120*
X2527362Y1366202D3*
X2452559D3*
D35*
X603711Y1012685D3*
Y837685D3*
D36*
X1489961Y1981201D3*
X1314961D3*
D114*
X1977461Y1568701D3*
Y1493898D3*
D112*
X3122449Y2481201D3*
Y2591437D3*
D120*
X2527362Y1451202D3*
X2452559D3*
X1164961Y1631201D3*
X1090158D3*
D114*
X2339961Y843701D3*
Y918504D3*
D110*
X2939961Y943701D3*
D108*
Y843701D3*
X2839961Y943701D3*
Y843701D3*
X2739961Y943701D3*
Y843701D3*
X2639961Y943701D3*
Y843701D3*
X2539961Y943701D3*
Y843701D3*
X2439961Y943701D3*
Y843701D3*
D110*
Y1043701D3*
D108*
X2539961D3*
X2639961D3*
X2739961D3*
X2839961D3*
X2939961D3*
D110*
X3339961Y943701D3*
D108*
Y843701D3*
X3239961Y943701D3*
Y843701D3*
X3139961Y943701D3*
Y843701D3*
X3039961Y943701D3*
Y843701D3*
D110*
Y1043701D3*
D108*
X3139961D3*
X3239961D3*
X3339961D3*
D110*
X2839961Y2056201D3*
D108*
Y2156201D3*
X2939961Y2056201D3*
Y2156201D3*
X3039961Y2056201D3*
Y2156201D3*
X3139961Y2056201D3*
Y2156201D3*
X3239961Y2056201D3*
Y2156201D3*
X3339961Y2056201D3*
Y2156201D3*
X3439961Y2056201D3*
Y2156201D3*
X3539961Y2056201D3*
Y2156201D3*
D110*
X2514961Y2093701D3*
D108*
X2414961D3*
X2314961D3*
X2214961D3*
X2114961D3*
X2014961D3*
X1914961D3*
X1814961D3*
X1714961D3*
D110*
X2714961Y2342095D3*
D108*
Y2242095D3*
X2614961Y2342095D3*
Y2242095D3*
D106*
X2514961Y2342095D3*
D104*
X2414961D3*
X2314961D3*
X2214961D3*
Y2242095D3*
X2314961D3*
X2414961D3*
X2514961D3*
D43*
X927461Y933071D3*
Y696851D3*
X1112500Y814961D3*
D110*
X1289961Y556201D3*
D108*
Y656201D3*
D110*
X3514961Y881201D3*
D108*
Y981201D3*
X3614961Y881201D3*
Y981201D3*
D125*
X719488Y2510630D3*
Y2610630D3*
X819488Y2510630D3*
Y2610630D3*
X919488Y2510630D3*
Y2610630D3*
X1019488Y2510630D3*
Y2610630D3*
X1119488Y2510630D3*
Y2610630D3*
X1219488Y2510630D3*
Y2610630D3*
X1319488Y2510630D3*
Y2610630D3*
X1419488Y2510630D3*
Y2610630D3*
X1519488Y2510630D3*
Y2610630D3*
X1619488Y2510630D3*
Y2610630D3*
X1719488Y2510630D3*
Y2610630D3*
X1819488Y2510630D3*
Y2610630D3*
X1919488Y2510630D3*
Y2610630D3*
X2019488Y2510630D3*
Y2610630D3*
X2119488Y2510630D3*
Y2610630D3*
X2219488Y2510630D3*
Y2610630D3*
X2319488Y2510630D3*
Y2610630D3*
X2419488Y2510630D3*
Y2610630D3*
X2519488Y2510630D3*
Y2610630D3*
X2619488Y2510630D3*
Y2610630D3*
D46*
X485583Y2083701D3*
X585583D3*
X685583D3*
X485583Y1873701D3*
X585583D3*
X685583D3*
X485583Y1663701D3*
X585583D3*
X685583D3*
X485583Y1453701D3*
X585583D3*
X685583D3*
X485583Y1243701D3*
X585583D3*
X685583D3*
X485583Y2293701D3*
X585583D3*
X685583D3*
X902461Y1768701D3*
Y1868701D3*
Y1968701D3*
Y1353701D3*
Y1453701D3*
Y1553701D3*
D110*
X3539961Y1956201D3*
D108*
X3439961D3*
X3339961D3*
X3239961D3*
X3139961D3*
X3039961D3*
X2939961D3*
X2839961D3*
D110*
X2739961D3*
D108*
X2639961D3*
X2539961D3*
X2439961D3*
X2339961D3*
X2239961D3*
D110*
X3364961Y2306201D3*
D108*
Y2406201D3*
Y2506201D3*
Y2606201D3*
D110*
X3264961Y2406201D3*
D108*
Y2506201D3*
Y2606201D3*
D47*
X2339961Y568701D3*
X2422638D3*
X3102461D3*
X3019784D3*
D48*
X3589961Y2368701D3*
Y2433701D3*
Y2503701D3*
Y2568701D3*
D94*
X3689666Y575197D3*
X3528248D3*
Y512205D3*
X3689666D3*
D47*
X3027461Y2518701D3*
Y2601378D3*
D92*
X1114961Y1174839D3*
D90*
X1014961D3*
X914961D3*
D53*
X1527362Y1383071D3*
X1452559D3*
X1489961Y1300394D3*
D120*
X1177362Y1392898D3*
X1102559D3*
D114*
X3239961Y1468701D3*
Y1393898D3*
D120*
X1152461Y1893701D3*
X1077658D3*
X2527362Y1281202D3*
X2452559D3*
X3052461Y2381201D3*
X3127264D3*
X1177362Y1292898D3*
X1102559D3*
X1152461Y1993701D3*
X1077658D3*
X2421211Y662452D3*
X2346408D3*
X1452559Y1568701D3*
X1527362D3*
X1452559Y1468701D3*
X1527362D3*
D114*
X3039961Y1651103D3*
Y1576299D3*
X2839961Y1651103D3*
Y1576299D3*
D120*
X3114961Y656201D3*
X3040158D3*
X2527362Y1536202D3*
X2452559D3*
X1727559Y1918701D3*
X1802362D3*
D94*
X2814961Y2306201D3*
X2976378D3*
Y2369193D3*
X2814961D3*
X2503248Y537205D3*
X2664666D3*
Y600197D3*
X2503248D3*
X3414961D3*
X3253544D3*
Y537205D3*
X3414961D3*
D110*
X1589961Y1006201D3*
D108*
Y906201D3*
Y806201D3*
Y706201D3*
D110*
X1489961Y1006201D3*
D108*
Y906201D3*
Y806201D3*
Y706201D3*
D106*
X1614961Y2342095D3*
D104*
X1514961D3*
X1414961D3*
X1314961D3*
Y2242095D3*
X1414961D3*
X1514961D3*
X1614961D3*
D110*
X2114961Y2342095D3*
D108*
Y2242095D3*
X2014961Y2342095D3*
Y2242095D3*
X1914961Y2342095D3*
Y2242095D3*
X1814961Y2342095D3*
Y2242095D3*
X1714961Y2342095D3*
Y2242095D3*
D92*
X1827461Y806201D3*
D90*
X2126673D3*
D86*
X2752559Y1340551D3*
X2789961D3*
X2827362D3*
Y1446851D3*
X2752559D3*
D84*
X893461Y2246732D3*
D82*
X960461D3*
X1027461D3*
X1094461D3*
X1161461D3*
D80*
X1089961Y1542898D3*
Y1505496D3*
Y1468095D3*
X1196260D3*
Y1542898D3*
D60*
X3639961Y1793701D3*
X3539961D3*
X3439961D3*
X3339961D3*
X3239961D3*
X3139961D3*
X3039961D3*
X2939961D3*
X2839961D3*
X2739961D3*
X2639961D3*
X2539961D3*
X2439961D3*
X2339961D3*
X1839961Y1293701D3*
Y1393701D3*
Y1493701D3*
Y1593701D3*
X2039961Y1193701D3*
X2339961D3*
X2439961D3*
X2539961D3*
X2639961D3*
X2739961D3*
X2839961D3*
X2939961D3*
X3039961D3*
X3139961D3*
X3239961D3*
X3339961D3*
X3439961D3*
X3539961D3*
X3639961D3*
X3539961Y1293701D3*
X3339961D3*
X3239961D3*
X3139961D3*
X1739961Y1793701D3*
X1639961D3*
X1839961D3*
X1939961D3*
X2039961D3*
X2139961D3*
X1539961D3*
X1439961D3*
X1339961D3*
Y1193701D3*
X2239961Y1793701D3*
X1439961Y1193701D3*
X2239961D3*
X1539961D3*
X1739961D3*
X1839961D3*
X1939961D3*
X1639961D3*
X2139961D3*
X1839961Y1693701D3*
D80*
X1177461Y1731201D3*
Y1768603D3*
Y1806004D3*
X1071162D3*
Y1731201D3*
D76*
X2314961Y1431201D3*
Y1481201D3*
Y1531201D3*
Y1581201D3*
X2102362D3*
Y1531201D3*
Y1481201D3*
Y1431201D3*
D86*
X2952559Y1340551D3*
X2989961D3*
X3027362D3*
Y1446851D3*
X2952559D3*
D120*
X2527362Y1621202D3*
X2452559D3*
M02*
