G04 DipTrace 3.0.0.2*
G04 TeensyArbotixProRPIT3.6.gtp*
%MOIN*%
G04 #@! TF.FileFunction,Paste,Top*
G04 #@! TF.Part,Single*
%ADD35R,0.05X0.1*%
%ADD36R,0.1X0.05*%
%ADD47R,0.047244X0.047244*%
%ADD53R,0.031496X0.035433*%
%ADD77R,0.070866X0.015748*%
%ADD81R,0.035433X0.015748*%
%ADD87R,0.015748X0.035433*%
%ADD95R,0.027559X0.031496*%
%ADD113R,0.098425X0.055118*%
%ADD115R,0.051181X0.043307*%
%ADD121R,0.043307X0.051181*%
%FSLAX26Y26*%
G04*
G70*
G90*
G75*
G01*
G04 TopPaste*
%LPD*%
D121*
X2527362Y1366202D3*
X2452559D3*
D35*
X603711Y1012685D3*
Y837685D3*
D36*
X1489961Y1981201D3*
X1314961D3*
D115*
X1977461Y1568701D3*
Y1493898D3*
D113*
X3122449Y2481201D3*
Y2591437D3*
D121*
X2527362Y1451202D3*
X2452559D3*
X1164961Y1631201D3*
X1090158D3*
D115*
X2339961Y843701D3*
Y918504D3*
D47*
Y568701D3*
X2422638D3*
X3102461D3*
X3019784D3*
D95*
X3689666Y575197D3*
X3528248D3*
Y512205D3*
X3689666D3*
D47*
X3027461Y2518701D3*
Y2601378D3*
D53*
X1527362Y1383071D3*
X1452559D3*
X1489961Y1300394D3*
D121*
X1177362Y1392898D3*
X1102559D3*
D115*
X3239961Y1468701D3*
Y1393898D3*
D121*
X1152461Y1893701D3*
X1077658D3*
X2527362Y1281202D3*
X2452559D3*
X3052461Y2381201D3*
X3127264D3*
X1177362Y1292898D3*
X1102559D3*
X1152461Y1993701D3*
X1077658D3*
X2421211Y662452D3*
X2346408D3*
X1452559Y1568701D3*
X1527362D3*
X1452559Y1468701D3*
X1527362D3*
D115*
X3039961Y1651103D3*
Y1576299D3*
X2839961Y1651103D3*
Y1576299D3*
D121*
X3114961Y656201D3*
X3040158D3*
X2527362Y1536202D3*
X2452559D3*
X1727559Y1918701D3*
X1802362D3*
D95*
X2814961Y2306201D3*
X2976378D3*
Y2369193D3*
X2814961D3*
X2503248Y537205D3*
X2664666D3*
Y600197D3*
X2503248D3*
X3414961D3*
X3253544D3*
Y537205D3*
X3414961D3*
D87*
X2752559Y1340551D3*
X2789961D3*
X2827362D3*
Y1446851D3*
X2752559D3*
D81*
X1089961Y1542898D3*
Y1505496D3*
Y1468095D3*
X1196260D3*
Y1542898D3*
X1177461Y1731201D3*
Y1768603D3*
Y1806004D3*
X1071162D3*
Y1731201D3*
D77*
X2314961Y1431201D3*
Y1481201D3*
Y1531201D3*
Y1581201D3*
X2102362D3*
Y1531201D3*
Y1481201D3*
Y1431201D3*
D87*
X2952559Y1340551D3*
X2989961D3*
X3027362D3*
Y1446851D3*
X2952559D3*
D121*
X2527362Y1621202D3*
X2452559D3*
M02*
