G04 DipTrace 3.3.1.3*
G04 Teensy4RPIlike.gtl*
%MOIN*%
G04 #@! TF.FileFunction,Copper,L1,Top*
G04 #@! TF.Part,Single*
%AMOUTLINE0*
4,1,8,
0.030118,-0.012475,
0.012475,-0.030118,
-0.012475,-0.030118,
-0.030118,-0.012475,
-0.030118,0.012475,
-0.012475,0.030118,
0.012475,0.030118,
0.030118,0.012475,
0.030118,-0.012475,
0*%
%AMOUTLINE1*
4,1,4,
-0.0175,-0.025,
-0.0175,0.025,
0.0175,0.025,
0.0175,-0.025,
-0.0175,-0.025,
0*%
%AMOUTLINE2*
4,1,4,
0.0285,-0.0155,
-0.0285,-0.0155,
-0.0285,0.0155,
0.0285,0.0155,
0.0285,-0.0155,
0*%
G04 #@! TA.AperFunction,Conductor*
%ADD13C,0.02*%
G04 #@! TA.AperFunction,ViaPad*
%ADD14C,0.04*%
G04 #@! TA.AperFunction,Conductor*
%ADD15C,0.023622*%
%ADD16C,0.03*%
%ADD17C,0.008*%
G04 #@! TA.AperFunction,CopperBalancing*
%ADD19C,0.025*%
G04 #@! TA.AperFunction,Conductor*
%ADD20C,0.022*%
%ADD21C,0.031496*%
%ADD22C,0.035*%
%ADD23C,0.029*%
G04 #@! TA.AperFunction,CopperBalancing*
%ADD25C,0.01299*%
%ADD27R,0.05X0.1*%
%ADD28R,0.059055X0.051181*%
%ADD29R,0.051181X0.059055*%
G04 #@! TA.AperFunction,ComponentPad*
%ADD30C,0.17*%
%ADD31R,0.059055X0.059055*%
%ADD32C,0.059055*%
%ADD33C,0.07*%
%ADD34R,0.027559X0.068898*%
%ADD35R,0.03937X0.061024*%
%ADD36R,0.031496X0.055118*%
%ADD37R,0.031496X0.059055*%
%ADD38R,0.057087X0.03937*%
%ADD39R,0.07874X0.023622*%
%ADD40R,0.165354X0.027559*%
%ADD44R,0.047244X0.047244*%
G04 #@! TA.AperFunction,ComponentPad*
%ADD46O,0.102362X0.082677*%
%ADD47C,0.06194*%
%ADD48C,0.074*%
%ADD49R,0.062992X0.062992*%
%ADD50C,0.062992*%
%ADD51C,0.137795*%
G04 #@! TA.AperFunction,ViaPad*
%ADD53C,0.165*%
G04 #@! TA.AperFunction,ComponentPad*
%ADD110OUTLINE0*%
%ADD111OUTLINE1*%
%ADD112OUTLINE2*%
%FSLAX26Y26*%
G04*
G70*
G90*
G75*
G01*
G04 Top*
%LPD*%
X3273073Y1293700D2*
D13*
X3233073Y1253700D1*
X2745073D1*
X2717073Y1225700D1*
Y1101700D1*
X2689073Y1073700D1*
X1665073D1*
X1607073Y1131700D1*
X1055073D1*
X1017073Y1093700D1*
X605561D1*
X722600Y2410629D2*
X771073D1*
Y2379700D1*
X799073Y2351700D1*
X1522600D1*
Y2410629D1*
X605561Y1093700D2*
Y1143700D1*
X580540D1*
Y1212230D1*
X768033Y987388D2*
X611873D1*
X605561Y993700D1*
X2686582Y2124758D2*
X2680333D1*
Y2174758D1*
D15*
X2686582D1*
Y2124758D2*
Y2074758D1*
X2942805Y2368493D2*
D14*
X2949054Y2362243D1*
X2999238D1*
X618073Y1993700D2*
X855692D1*
X936934D1*
X1110934Y2167700D1*
X2212445D1*
X2236445Y2143700D1*
X2480170D1*
D15*
X2511600Y2112270D1*
Y2081023D1*
X2599091D1*
X2686582D1*
Y2124758D1*
X722600Y2510629D2*
D14*
Y2498154D1*
X822600D1*
Y2510629D1*
X2686582Y2124758D2*
D13*
X2767823D1*
Y2268451D1*
X2773073Y2273700D1*
X2599091Y2118708D2*
Y2081023D1*
X722600Y2510629D2*
D14*
X685193D1*
X643046Y2468482D1*
Y2218674D1*
X618073Y2193700D1*
X855692Y1993700D2*
X861773Y1999781D1*
X2949054Y773663D2*
X3009073D1*
X3035317Y799907D1*
X3180280D1*
X2961553Y1362348D2*
D17*
Y1349642D1*
X2860889D1*
X2213073Y533700D2*
X2215002Y531771D1*
Y457985D1*
X2442857Y1393595D2*
Y1273700D1*
X2433073D1*
X2773073Y1493700D2*
X2799020Y1467752D1*
X2860889D1*
X3093073Y693700D2*
X3027073Y627700D1*
X2715073D1*
X2693073Y605700D1*
X2361073D1*
X2344949Y589577D1*
Y457972D1*
X3053073Y1573700D2*
X3253073D1*
X2955304Y1468587D2*
Y1427931D1*
X2916385Y1389012D1*
X2860889D1*
X2253073Y593700D2*
X2258348Y588424D1*
Y457985D1*
X2613073Y1133700D2*
Y1315700D1*
X2629073Y1331700D1*
X2695073D1*
X2711073Y1347700D1*
Y1529700D1*
X2727865Y1546493D1*
X2860889D1*
X2313073Y773700D2*
X2433073D1*
Y533700D2*
X2431550Y532178D1*
Y457972D1*
X2474104Y706167D2*
Y724915D1*
X2230380D1*
Y706167D1*
X2933073Y1573700D2*
X2920910Y1585863D1*
X2860889D1*
X2473073Y573700D2*
X2474871Y571902D1*
Y457972D1*
X3442752Y1262359D2*
Y1537398D1*
X3023375D1*
X2935540Y1625233D1*
X2860889D1*
X2553073Y573700D2*
X2518151Y538779D1*
Y457985D1*
X3568073Y1187417D2*
X3461784Y1081128D1*
X3161532D1*
X3149033Y1068629D1*
X2905309D1*
X2874062Y1037382D1*
Y699918D1*
X2836566Y662422D1*
X2749075Y681170D2*
X2592842D1*
X2555346Y643674D1*
X2111642D1*
X2086645Y618676D1*
X2074146D1*
X2049149Y593679D1*
X1868052D1*
X1818073Y543700D1*
X2522600Y2410629D2*
Y2453700D1*
X2189073D1*
X2173073Y2437700D1*
Y2333700D1*
X2193073Y593700D2*
X2099165D1*
X2080396Y574931D1*
Y456193D1*
X1765073D1*
Y596700D1*
X1718073Y643700D1*
X3073073Y1653700D2*
X3353073D1*
X2273073Y2333700D2*
X2239123Y2299750D1*
X1986655D1*
X1961658Y2324747D1*
X2367865Y2343495D2*
X2851277D1*
X2895073Y2299700D1*
X3111073D1*
X3131073Y2279700D1*
X3405073D1*
X3421073Y2263700D1*
Y1847700D1*
X3405073Y1831700D1*
X3312356D1*
X3268073Y1787417D1*
X2813073Y2093700D2*
Y2291700D1*
X2792524Y2312249D1*
X2580343D1*
X2474104Y2206010D1*
X2267876D1*
X2241574Y2232312D1*
Y2233700D1*
X2213073D1*
X3173073Y1613700D2*
X3313073D1*
X1513073Y873700D2*
X1518073Y868700D1*
Y643700D1*
X2213073Y2233700D2*
X1513073D1*
X2880312Y1887293D2*
Y1918540D1*
X2773151Y2025700D1*
X2163073D1*
X2147073Y2009700D1*
X2017073D1*
X2001073Y2025700D1*
Y2077700D1*
X1985073Y2093700D1*
X1233073D1*
X1213073Y2073700D1*
X1413073Y1093700D2*
X1113073D1*
X2001073Y2077700D2*
X2017073Y2093700D1*
X2073073D1*
X1999154Y1731060D2*
X1952440D1*
Y1718561D1*
X1424214D1*
Y1743558D1*
X2033073Y2053700D2*
X2065073D1*
X2077073Y2041700D1*
X2794648D1*
X2968073Y1868275D1*
Y1787417D1*
X2568073Y1487417D2*
X2555346D1*
Y1474836D1*
X2299123D1*
X2274125Y1449839D1*
X1936934D1*
X1893073Y1493700D1*
Y1833700D2*
X2313073D1*
X1893073Y1493700D2*
Y1487335D1*
X574438D1*
X518073Y1543700D1*
X2668073Y1687417D2*
X2611726Y1631070D1*
X2280847D1*
Y1594046D1*
X2211632Y1524831D1*
X2061648D1*
X1942910Y1643569D1*
X774283D1*
X674151Y1743700D1*
X618073D1*
X1173073Y2313700D2*
X1873073D1*
X1433073Y2033700D2*
X1873073D1*
X1433073Y1933700D2*
X1441073Y1941700D1*
X2688419D1*
X2811073Y1819046D1*
Y1759700D1*
X2827073Y1743700D1*
X3524356D1*
X3568073Y1787417D1*
X1980406Y987388D2*
X2028718Y1035700D1*
X2769073D1*
X2785073Y1051700D1*
Y1131700D1*
X2811073Y1157700D1*
Y1215700D1*
X2827073Y1231700D1*
X3297073D1*
X3313073Y1247700D1*
Y1433700D1*
X1553073Y1093700D2*
X1513073Y1053700D1*
X935073D1*
X918073Y1036700D1*
Y643700D1*
X1553073Y1893700D2*
X1565073Y1905700D1*
X2551073D1*
X2568073Y1888700D1*
Y1787417D1*
X2424109Y1837298D2*
X2395708Y1865700D1*
X1702590D1*
X1662590Y1825700D1*
X1631343D1*
X1611695Y1806052D1*
X813073Y1893700D2*
X845073Y1861700D1*
X1601073D1*
X1613073Y1873700D1*
X1717934Y1812301D2*
X1775585D1*
Y1799802D1*
X1952970D1*
X1947073Y1805700D1*
X2237073D1*
X2255356Y1787417D1*
X2368073D1*
X724288Y1593574D2*
Y1618571D1*
X1711684D1*
Y1593574D1*
X2368073Y1187417D2*
X2127356D1*
X2101073Y1213700D1*
X1813073D1*
X1039073D1*
X995073Y1257700D1*
X475073D1*
X459073Y1241700D1*
Y853700D1*
X475073Y837700D1*
X633073D1*
X649073Y821700D1*
Y612700D1*
X718073Y543700D1*
X1753073Y873700D2*
X2261627D1*
Y874899D1*
X1713073Y833700D2*
X1613073D1*
X1073073Y1173700D2*
X1613073D1*
X1673073D1*
X1751073Y1095700D1*
X2651073D1*
X2668073Y1112700D1*
Y1187417D1*
X1073073Y733700D2*
X1065073Y725700D1*
Y590700D1*
X1018073Y543700D1*
X1133073Y1013700D2*
X1153073Y1033700D1*
X1893073D1*
X1133073Y893700D2*
X1165073Y861700D1*
Y590700D1*
X1118073Y543700D1*
X1974157Y1368598D2*
X1886666D1*
Y1362348D1*
X1893073Y1033700D2*
X1995073D1*
X2013073Y1051700D1*
X2751073D1*
X2768073Y1068700D1*
Y1187417D1*
X1218073Y543700D2*
X1265073Y590700D1*
Y911700D1*
X1281073Y927700D1*
X2789073D1*
X2805073Y943700D1*
Y1080881D1*
X2868073Y1143881D1*
Y1187417D1*
X1133073Y2113700D2*
Y1977700D1*
X1149073Y1961700D1*
X1363073D1*
X1367073Y1965700D1*
X2367073D1*
X2375073Y1957700D1*
X2778658D1*
X2799070Y1937288D1*
X953073Y973700D2*
X1373073D1*
X2699081Y2274752D2*
X2567844D1*
X2474104Y2181012D1*
X2261627D1*
X2240939Y2201700D1*
X1032445D1*
X924267Y2093522D1*
X2880312Y2362243D2*
X2664529D1*
X2661073Y2365700D1*
X2422600D1*
Y2410629D1*
X1533073Y973700D2*
X1681073D1*
X1711073Y943700D1*
X2723073D1*
X2773073Y993700D1*
X1553073Y813700D2*
X1565073Y801700D1*
Y590700D1*
X1518073Y543700D1*
X3213073Y1293700D2*
X3067792Y1438981D1*
Y1443590D1*
X1853073Y793700D2*
X1681073D1*
X1665073Y777700D1*
Y590700D1*
X1618073Y543700D1*
X2568073Y1187417D2*
X2514356Y1133700D1*
X1853073D1*
X973073Y2313700D2*
X725073D1*
X679073Y2359700D1*
Y2439700D1*
X695073Y2455700D1*
X1422600D1*
Y2510629D1*
X1886666Y1762306D2*
X1586697D1*
X1555451Y1793553D1*
X980511D1*
Y1787304D1*
X1618073Y543700D2*
X1570073Y495700D1*
X966073D1*
X918073Y543700D1*
X1473073Y735700D2*
Y891700D1*
X1489073Y907700D1*
X2491073D1*
X2569073Y829700D1*
X2805073D1*
X2821073Y845700D1*
Y1065634D1*
X2867813Y1112375D1*
X3129747D1*
X3135073Y1117700D1*
X3298356D1*
X3368073Y1187417D1*
X2568073Y1287417D2*
X2512356Y1231700D1*
X2247073D1*
X2205073Y1273700D1*
X1053073D1*
X588073D1*
X518073Y1343700D1*
X2293073Y1333700D2*
X1999154D1*
Y1306104D1*
X698669D1*
X661073Y1343700D1*
X618073D1*
X518073Y1443700D2*
X576073Y1385700D1*
X661073D1*
X693073Y1353700D1*
X1392968D1*
Y1374847D1*
X1424214Y1406094D1*
X2299123D1*
X2324729Y1431700D1*
X2473495D1*
X2517779Y1387417D1*
X2568073D1*
X618073Y1443700D2*
X1007073D1*
X1025931Y1424842D1*
X1355472D1*
X1367970D1*
X1390789Y1447661D1*
Y1431091D1*
X2292873D1*
X2315482Y1453700D1*
X2507739D1*
X2529739Y1431700D1*
X2623789D1*
X2668073Y1387417D1*
X618073Y1543700D2*
Y1512333D1*
X1823750D1*
Y1531081D1*
X1936661D1*
X1999154Y1468587D1*
X2255377D1*
X2280375Y1493585D1*
X2467855D1*
X2505351Y1531081D1*
X2624409D1*
X2668073Y1487417D1*
X518073Y1643700D2*
X574356Y1587417D1*
X687877D1*
Y1531081D1*
X1776910D1*
Y1556078D1*
X1961658D1*
X2017902Y1499834D1*
X2242878D1*
X2267876Y1524831D1*
X2436608D1*
X2467855Y1556078D1*
X2568073D1*
Y1587417D1*
X618073Y1643700D2*
Y1687314D1*
X486813D1*
X474314Y1699813D1*
Y1937288D1*
X737730D1*
Y1931039D1*
X993734D1*
X1023073Y1901700D1*
X1469073D1*
X1493073Y1925700D1*
X2610679D1*
X2711073Y1825306D1*
Y1630417D1*
X2668073Y1587417D1*
X2493073Y1693700D2*
X2511073Y1711700D1*
Y1865700D1*
X2495073Y1881700D1*
X1681094D1*
X1641094Y1841700D1*
X1511073D1*
X1507073Y1845700D1*
X712972D1*
Y1849797D1*
X511810D1*
Y1737438D1*
X518073Y1743700D1*
X2530348Y1993532D2*
Y1993700D1*
X1233073D1*
X1173073Y2013700D2*
Y2109700D1*
X1189073Y2125700D1*
X2131073D1*
X2193073Y2063700D1*
X2388039D1*
X2411611Y2087272D1*
X1922600Y2510629D2*
X1967073D1*
Y2381700D1*
X1951073Y2365700D1*
X1921073D1*
X1905073Y2349700D1*
Y2289700D1*
X1889073Y2273700D1*
X837073D1*
X701073Y2137700D1*
X457073D1*
X441073Y2121700D1*
Y765700D1*
X627073Y579700D1*
Y497700D1*
X643073Y481700D1*
X849073D1*
X865073Y497700D1*
Y575700D1*
X881073Y591700D1*
X966073D1*
X1018073Y643700D1*
X1905073Y2289700D2*
X1926270Y2268503D1*
X2388746D1*
Y2249755D1*
X2392863D1*
X3321419Y2453543D2*
D14*
X3201259D1*
X3155073Y2499729D1*
X3100474D1*
X3321419Y1936220D2*
X3303739Y1918540D1*
X3124036D1*
X505561Y1093700D2*
Y1212230D1*
X505737D1*
X3321419Y2453543D2*
X3551432D1*
X3680228Y2324747D1*
Y1799571D1*
X3668073Y1787417D1*
D19*
Y1675159D1*
X3648981Y1656067D1*
X3623983D1*
X3580238Y1612322D1*
Y1562327D1*
X3555241Y1537330D1*
Y1412343D1*
X3573989Y1393595D1*
X3586487D1*
X3680228Y1299855D1*
X3717724D1*
D20*
Y1095396D1*
X3680228D1*
Y812746D1*
Y531186D1*
D19*
X3686477Y524936D1*
X2018073Y643700D2*
D21*
X1999154D1*
Y762079D1*
X2157955D1*
X2117892Y543684D2*
D14*
X2155388D1*
Y462709D1*
X2167797D1*
X3416501Y799907D2*
D22*
X3293073Y676480D1*
Y588894D1*
Y523700D1*
X3185573D1*
X3602755D2*
D13*
X3680228Y531186D1*
X3580238Y518687D2*
D17*
X3597742D1*
X3602755Y523700D1*
D13*
X3570935Y491880D1*
X3534683D1*
X3517745Y474941D1*
Y443695D1*
X3486498Y412448D1*
X3311516D1*
Y570451D1*
X3293073Y588894D1*
X1349222Y2237256D2*
D14*
X1111747D1*
X2614648Y462709D2*
D13*
X2623822D1*
X2674083Y412448D1*
X3311516D1*
X2157955Y762079D2*
D21*
X2193703D1*
D14*
X2223798D1*
X2299123Y837403D1*
X2486603D1*
X2542847Y781159D1*
X2586116D1*
X2592653Y787696D1*
D21*
X2628401D1*
X2599091Y2193511D2*
D13*
Y2231007D1*
X2620962D1*
X2627212Y2224758D1*
X2686582D1*
X2542847Y2193511D2*
X2599091D1*
X861773Y2174781D2*
D14*
Y2212259D1*
X886771Y2237256D1*
X1111747D1*
X574304Y1806052D2*
X568054Y1812301D1*
X811779D1*
X911768Y1712312D1*
X1355472D1*
X1386718Y1681065D1*
X2074146D1*
X1386718D2*
X1361737Y1722480D1*
X3416501Y799907D2*
D23*
X3667389D1*
D16*
X3680228Y812746D1*
X3017797Y2499729D2*
D17*
Y2459700D1*
X3034540Y2442957D1*
X3057074D1*
X3074041Y2425990D1*
Y2362243D1*
X2933073Y573700D2*
X2992800D1*
Y541427D1*
X3000573Y549200D1*
Y523700D1*
X2055398Y706167D2*
X2092894Y668671D1*
X2505351D1*
X2529308Y692628D1*
Y743663D1*
X2755325D1*
X2293073Y1273700D2*
X2325073Y1305700D1*
Y1357700D1*
X2309073Y1373700D1*
X2093073D1*
X3533073Y733700D2*
Y539700D1*
X3517073Y523700D1*
X3417755D1*
X2753073Y1593700D2*
X2851073Y1691700D1*
X3459073D1*
X3475073Y1675700D1*
Y1247700D1*
X3491073Y1231700D1*
X3595073D1*
X3611073Y1215700D1*
Y901644D1*
X3595073Y885644D1*
X3541129D1*
X3533073Y893700D1*
X3049044Y1356099D2*
X3005298Y1399844D1*
Y1507123D1*
X2860889D1*
X2393073Y573700D2*
X2388256Y568884D1*
Y457972D1*
X2301616Y457985D2*
Y605700D1*
X2317616Y621700D1*
X2659073D1*
X2681073Y643700D1*
X2774099D1*
X2799070Y668671D1*
Y763697D1*
X2842815Y807443D1*
Y1053443D1*
X2882999Y1093627D1*
X3142999D1*
X3151073Y1101700D1*
X3395073D1*
X3411073Y1117700D1*
Y1219046D1*
X3374010Y1256109D1*
Y1485700D1*
X3030296D1*
Y1399844D1*
X3067792D1*
X3092789Y1374847D1*
Y1299855D1*
X3068634Y1275700D1*
X2804477D1*
X2774073Y1306104D1*
Y1428382D1*
X2860889D1*
X3214726Y2057086D2*
D13*
X3049233D1*
Y1918540D1*
X2899180Y2124758D2*
Y2175700D1*
X2905309D1*
Y2224758D1*
X2899180D1*
Y2174758D2*
Y2175700D1*
X3049233Y1918540D2*
Y2031028D1*
X2985073D1*
Y2107700D1*
X2968015Y2124758D1*
X2899180D1*
X3049233Y2031028D2*
D17*
X3065401D1*
X3068073Y2033700D1*
X2149138Y1574826D2*
X2261729Y1687417D1*
X2368073D1*
D14*
X768033Y987388D3*
X2836566Y662422D3*
X2749075Y681170D3*
X1349222Y2237256D3*
X1111747D3*
X2542847Y2193511D3*
X574304Y1806052D3*
X2074146Y1681065D3*
X1361737Y1722480D3*
D53*
X2814333Y531495D3*
X530868D3*
Y2460629D3*
X2814333D3*
D14*
X2117892Y543684D3*
X3273073Y1293700D3*
X2773073Y2273700D3*
X2942805Y2368493D3*
X2961553Y1362348D3*
X2213073Y533700D3*
X2433073Y1273700D3*
X2442857Y1393595D3*
X2773073Y1493700D3*
X3093073Y693700D3*
X3253073Y1573700D3*
X3053073D3*
X2955304Y1468587D3*
X2253073Y593700D3*
X2613073Y1133700D3*
X2433073Y533700D3*
Y773700D3*
X2313073D3*
X2933073Y1573700D3*
X2230380Y706167D3*
X2473073Y573700D3*
X2474104Y706167D3*
X3442752Y1262359D3*
X2553073Y573700D3*
X2173073Y2333700D3*
X2193073Y593700D3*
X3353073Y1653700D3*
X3073073D3*
X1961658Y2324747D3*
X2273073Y2333700D3*
X2367865Y2343495D3*
X1513073Y873700D3*
Y2233700D3*
X2813073Y2093700D3*
X3313073Y1613700D3*
X3173073D3*
X2213073Y2233700D3*
X1213073Y2073700D3*
X1113073Y1093700D3*
X1413073D3*
X2880312Y1887293D3*
X2073073Y2093700D3*
X1424214Y1743558D3*
X1999154Y1731060D3*
X2033073Y2053700D3*
X2313073Y1833700D3*
X1893073D3*
Y1493700D3*
X1873073Y2313700D3*
X1173073D3*
X1873073Y2033700D3*
X1433073D3*
Y1933700D3*
X3313073Y1433700D3*
X1980406Y987388D3*
X1553073Y1093700D3*
Y1893700D3*
X1611695Y1806052D3*
X2424109Y1837298D3*
X1613073Y1873700D3*
X813073Y1893700D3*
X1711684Y1593574D3*
X724288D3*
X1717934Y1812301D3*
X1813073Y1213700D3*
X2261627Y874899D3*
X1753073Y873700D3*
X1613073Y833700D3*
X1713073D3*
X1613073Y1173700D3*
X1073073Y733700D3*
Y1173700D3*
X1133073Y893700D3*
Y1013700D3*
X1886666Y1362348D3*
X1974157Y1368598D3*
X1893073Y1033700D3*
X2799070Y1937288D3*
X1133073Y2113700D3*
X1373073Y973700D3*
X953073D3*
X924267Y2093522D3*
X2699081Y2274752D3*
X2880312Y2362243D3*
X2773073Y993700D3*
X1553073Y813700D3*
X1533073Y973700D3*
X3067792Y1443590D3*
X3213073Y1293700D3*
X1853073Y793700D3*
X973073Y2313700D3*
X980511Y1787304D3*
X1886666Y1762306D3*
X1853073Y1133700D3*
X1473073Y735700D3*
X1053073Y1273700D3*
X2293073Y1333700D3*
X1999154Y1306104D3*
X1392968Y1374847D3*
X1355472Y1424842D3*
X2493073Y1693700D3*
X1233073Y1993700D3*
X2530348Y1993532D3*
X2411611Y2087272D3*
X1173073Y2013700D3*
X2392863Y2249755D3*
X2933073Y573700D3*
X2755325Y743663D3*
X2055398Y706167D3*
X2093073Y1373700D3*
X2293073Y1273700D3*
X2393073Y573700D3*
X3049044Y1356099D3*
X3533073Y733700D3*
Y893700D3*
X2753073Y1593700D3*
X2680475Y2531056D2*
D19*
X2728655D1*
X2900014D2*
X2965168D1*
X3153070D2*
X3263330D1*
X3379499D2*
X3674634D1*
X2681695Y2506187D2*
X2712830D1*
X2915839D2*
X2965168D1*
X3153070D2*
X3239359D1*
X3403469D2*
X3689562D1*
X2675666Y2481318D2*
X2704828D1*
X2923841D2*
X2965168D1*
X3153070D2*
X3227661D1*
X3415168D2*
X3694657D1*
X2659339Y2456449D2*
X2702926D1*
X2925743D2*
X2965168D1*
X3153070D2*
X3223570D1*
X3419258D2*
X3695160D1*
X2680331Y2431581D2*
X2706802D1*
X2921868D2*
X3000298D1*
X3106528D2*
X3226082D1*
X3416747D2*
X3695160D1*
X2681695Y2406712D2*
X2717100D1*
X3128632D2*
X3235806D1*
X3407022D2*
X3695160D1*
X438718Y2381843D2*
X453060D1*
X3128632D2*
X3181478D1*
X3386819D2*
X3695160D1*
X438718Y2356974D2*
X494685D1*
X567040D2*
X594048D1*
X3128632D2*
X3159588D1*
X3269873D2*
X3695160D1*
X438718Y2332106D2*
X594048D1*
X3128632D2*
X3154242D1*
X3275219D2*
X3695160D1*
X438718Y2307237D2*
X594048D1*
X3420658D2*
X3695160D1*
X438718Y2282368D2*
X594048D1*
X3447679D2*
X3695160D1*
X438718Y2257499D2*
X594048D1*
X3454066D2*
X3695160D1*
X438718Y2232630D2*
X459555D1*
X915762D2*
X1464096D1*
X3275183D2*
X3388099D1*
X3454066D2*
X3695160D1*
X438718Y2207762D2*
X459555D1*
X915762D2*
X992901D1*
X3268796D2*
X3388099D1*
X3454066D2*
X3695160D1*
X438718Y2182893D2*
X459555D1*
X791890D2*
X807775D1*
X915762D2*
X968033D1*
X2521616D2*
X2540586D1*
X3268330D2*
X3388099D1*
X3454066D2*
X3695160D1*
X767022Y2158024D2*
X807775D1*
X915762D2*
X943166D1*
X2526891D2*
X2540586D1*
X3275148D2*
X3388099D1*
X3454066D2*
X3695160D1*
X742155Y2133155D2*
X807775D1*
X3270734D2*
X3388099D1*
X3454066D2*
X3695160D1*
X711617Y2108287D2*
X807775D1*
X3275219D2*
X3388099D1*
X3454066D2*
X3695160D1*
X675625Y2083418D2*
X876385D1*
X3275219D2*
X3388099D1*
X3454066D2*
X3695160D1*
X664178Y2058549D2*
X807775D1*
X3275219D2*
X3388099D1*
X3454066D2*
X3695160D1*
X2848269Y2033680D2*
X2946077D1*
X3275219D2*
X3388099D1*
X3454066D2*
X3695160D1*
X2873173Y2008812D2*
X2953613D1*
X3120774D2*
X3154242D1*
X3454066D2*
X3695160D1*
X2898041Y1983943D2*
X3010238D1*
X3096301D2*
X3236345D1*
X3454066D2*
X3695160D1*
X2922908Y1959074D2*
X2994665D1*
X3178619D2*
X3226297D1*
X3454066D2*
X3695160D1*
X2947776Y1934205D2*
X2994665D1*
X3178619D2*
X3223570D1*
X3454066D2*
X3695160D1*
X2972644Y1909336D2*
X2994665D1*
X3178619D2*
X3227409D1*
X3454066D2*
X3695160D1*
X3178619Y1884468D2*
X3238785D1*
X3454066D2*
X3695160D1*
X3001064Y1859599D2*
X3262109D1*
X3454066D2*
X3695160D1*
X3003181Y1834730D2*
X3032953D1*
X3103191D2*
X3132962D1*
X3203164D2*
X3232972D1*
X3503192D2*
X3532963D1*
X3603165D2*
X3632973D1*
X544792Y1809861D2*
X937352D1*
X558428Y1784993D2*
X577721D1*
X658437D2*
X931575D1*
X703364Y1760124D2*
X940295D1*
X1020724D2*
X1378261D1*
X2037933D2*
X2239267D1*
X728232Y1735255D2*
X1375965D1*
X2047944D2*
X2333750D1*
X3594660D2*
X3641477D1*
X753099Y1710386D2*
X1389134D1*
X2043279D2*
X2239195D1*
X3486003D2*
X3695160D1*
X777967Y1685518D2*
X1987324D1*
X2010984D2*
X2214219D1*
X3506421D2*
X3695160D1*
X1971439Y1660649D2*
X2189352D1*
X3508072D2*
X3695160D1*
X1996307Y1635780D2*
X2164484D1*
X3508072D2*
X3695160D1*
X2021175Y1610911D2*
X2090634D1*
X3508072D2*
X3695160D1*
X772656Y1586043D2*
X1304340D1*
X1419110D2*
X1663325D1*
X2046042D2*
X2090634D1*
X3508072D2*
X3609576D1*
X3682577D2*
X3695160D1*
X2070910Y1561174D2*
X2090634D1*
X3508072D2*
X3586969D1*
X3508072Y1536305D2*
X3580187D1*
X3508072Y1511436D2*
X3583632D1*
X3508072Y1486567D2*
X3597950D1*
X3508072Y1461699D2*
X3583094D1*
X3508072Y1436830D2*
X3580330D1*
X3508072Y1411961D2*
X3587866D1*
X3508072Y1387092D2*
X3612411D1*
X3679706D2*
X3695160D1*
X3508072Y1362224D2*
X3695160D1*
X3508072Y1337355D2*
X3537162D1*
X3599002D2*
X3695160D1*
X3622291Y1312486D2*
X3695160D1*
X3628033Y1287617D2*
X3695160D1*
X3622471Y1262749D2*
X3695160D1*
X3539829Y1113536D2*
X3578070D1*
X3644073D2*
X3695160D1*
X3514926Y1088667D2*
X3578070D1*
X3644073D2*
X3695160D1*
X3490058Y1063798D2*
X3578070D1*
X3644073D2*
X3695160D1*
X3158416Y1038930D2*
X3198343D1*
X3398446D2*
X3578070D1*
X3644073D2*
X3695160D1*
X3029233Y1014061D2*
X3188260D1*
X3408529D2*
X3578070D1*
X3644073D2*
X3695160D1*
X3024604Y989192D2*
X3184492D1*
X3412297D2*
X3578070D1*
X3644073D2*
X3695160D1*
X3007774Y964323D2*
X3186322D1*
X3410467D2*
X3578070D1*
X3644073D2*
X3695160D1*
X3007559Y939455D2*
X3194109D1*
X3402680D2*
X3522342D1*
X3543812D2*
X3578070D1*
X3644073D2*
X3695160D1*
X3007559Y914586D2*
X3209396D1*
X3387357D2*
X3489041D1*
X3644073D2*
X3695160D1*
X3007559Y889717D2*
X3111719D1*
X3641633D2*
X3695160D1*
X2446582Y864848D2*
X2488303D1*
X3006160D2*
X3087174D1*
X3273389D2*
X3323364D1*
X3619887D2*
X3695160D1*
X1787569Y839980D2*
X1846155D1*
X1859973D2*
X2112990D1*
X2446582D2*
X2513171D1*
X3286810D2*
X3309943D1*
X3523036D2*
X3695160D1*
X1896836Y815111D2*
X2112990D1*
X2228047D2*
X2282328D1*
X2456701D2*
X2538038D1*
X3529459D2*
X3695160D1*
X1901932Y790242D2*
X2112990D1*
X2228047D2*
X2267113D1*
X2479021D2*
X2583647D1*
X2673154D2*
X2780005D1*
X3530069D2*
X3695160D1*
X1892422Y765373D2*
X2113206D1*
X2202677D2*
X2264852D1*
X2481318D2*
X2505384D1*
X3288784D2*
X3308005D1*
X3569613D2*
X3695160D1*
X525629Y740504D2*
X585508D1*
X1698073D2*
X2021557D1*
X2089247D2*
X2113206D1*
X3277121D2*
X3319668D1*
X3581563D2*
X3695160D1*
X536754Y715636D2*
X616081D1*
X1698073D2*
X2007383D1*
X3255770D2*
X3341019D1*
X3578405D2*
X3695160D1*
X561621Y690767D2*
X616081D1*
X1760153D2*
X1776002D1*
X1860126D2*
X1876011D1*
X1960136D2*
X1976020D1*
X3141981D2*
X3154995D1*
X3205532D2*
X3391221D1*
X3441758D2*
X3500093D1*
X3566061D2*
X3695160D1*
X586489Y665898D2*
X616081D1*
X3132831D2*
X3500093D1*
X3566061D2*
X3695160D1*
X3086038Y641029D2*
X3500093D1*
X3566061D2*
X3695160D1*
X3061170Y616161D2*
X3500093D1*
X3566061D2*
X3695160D1*
X3020190Y591292D2*
X3500093D1*
X3566061D2*
X3695160D1*
X2601494Y566423D2*
X2708596D1*
X3040250D2*
X3145881D1*
X3225269D2*
X3378051D1*
X3457439D2*
X3500093D1*
X3642458D2*
X3695160D1*
X2113397Y541554D2*
X2164735D1*
X2589150D2*
X2703321D1*
X3047068D2*
X3139099D1*
X3232051D2*
X3371269D1*
X3649240D2*
X3695160D1*
X2673154Y516686D2*
X2703859D1*
X3047068D2*
X3139099D1*
X3232051D2*
X3371269D1*
X3649240D2*
X3695160D1*
X2673154Y491817D2*
X2710318D1*
X3046171D2*
X3139996D1*
X3231154D2*
X3372166D1*
X3463324D2*
X3557185D1*
X3648343D2*
X3692002D1*
X2673154Y466948D2*
X2724026D1*
X3017463D2*
X3168667D1*
X3283473D2*
X3319847D1*
X3434653D2*
X3585857D1*
X2673154Y442079D2*
X2749504D1*
X3017571D2*
X3168595D1*
X3283580D2*
X3319775D1*
X3434760D2*
X3585749D1*
X819470Y2076271D2*
X881083D1*
X879061Y2082669D1*
X877920Y2089874D1*
Y2097169D1*
X878053Y2098288D1*
X810284Y2098291D1*
Y2203798D1*
X720874Y2114515D1*
X717004Y2111703D1*
X712741Y2109531D1*
X708190Y2108052D1*
X703465Y2107304D1*
X672401Y2107210D1*
X673401Y2102463D1*
X674090Y2093700D1*
X673401Y2084937D1*
X671349Y2076390D1*
X667985Y2068269D1*
X663392Y2060774D1*
X657683Y2054090D1*
X650999Y2048381D1*
X643333Y2043709D1*
X649242Y2040193D1*
X810304Y2040190D1*
X810284Y2076271D1*
X819470D1*
X913264Y2243212D2*
X913414Y2138727D1*
X920619Y2139868D1*
X927501Y2139884D1*
X1012644Y2224885D1*
X1016514Y2227697D1*
X1020777Y2229869D1*
X1025328Y2231348D1*
X1030053Y2232096D1*
X1105936Y2232190D1*
X1466608D1*
X1466726Y2237348D1*
X1467597Y2243196D1*
X913274Y2243210D1*
X2543081Y2141430D2*
X2543074Y2206862D1*
X2513043Y2176573D1*
X2517781Y2171026D1*
X2521593Y2164806D1*
X2524385Y2158066D1*
X2525846Y2152189D1*
X2540725Y2137144D1*
X2542593Y2134773D1*
X2543074Y2141446D1*
X544045Y1156213D2*
X489558D1*
X489563Y1149729D1*
X544055Y1149717D1*
X544050Y1156224D1*
X3085728Y1974557D2*
X3176117D1*
Y1862522D1*
X2998574D1*
X2998563Y1836087D1*
X3005390Y1831109D1*
X3011765Y1824734D1*
X3017065Y1817439D1*
X3018056Y1815671D1*
X3021587Y1821191D1*
X3027442Y1828047D1*
X3034299Y1833903D1*
X3041986Y1838614D1*
X3050317Y1842064D1*
X3059084Y1844169D1*
X3068073Y1844876D1*
X3077061Y1844169D1*
X3085829Y1842064D1*
X3094159Y1838614D1*
X3101847Y1833903D1*
X3108703Y1828047D1*
X3114559Y1821191D1*
X3118056Y1815671D1*
X3121587Y1821191D1*
X3127442Y1828047D1*
X3134299Y1833903D1*
X3141986Y1838614D1*
X3150317Y1842064D1*
X3159084Y1844169D1*
X3168073Y1844876D1*
X3177061Y1844169D1*
X3185829Y1842064D1*
X3194159Y1838614D1*
X3201847Y1833903D1*
X3208703Y1828047D1*
X3214559Y1821191D1*
X3218056Y1815671D1*
X3221587Y1821191D1*
X3227442Y1828047D1*
X3234299Y1833903D1*
X3241986Y1838614D1*
X3250317Y1842064D1*
X3259084Y1844169D1*
X3268073Y1844876D1*
X3277061Y1844169D1*
X3280951Y1843395D1*
X3284816Y1848135D1*
X3276515Y1852062D1*
X3268631Y1856770D1*
X3261236Y1862214D1*
X3254399Y1868344D1*
X3248183Y1875103D1*
X3242645Y1882428D1*
X3237838Y1890252D1*
X3233805Y1898502D1*
X3230584Y1907102D1*
X3228205Y1915971D1*
X3226690Y1925028D1*
X3226053Y1934189D1*
X3226300Y1943368D1*
X3227428Y1952481D1*
X3229427Y1961444D1*
X3232279Y1970173D1*
X3235957Y1978587D1*
X3240427Y1986608D1*
X3245647Y1994163D1*
X3249693Y1999095D1*
X3156740Y1999100D1*
Y2020594D1*
X3122540Y2020596D1*
X3119826Y2012263D1*
X3115836Y2004431D1*
X3110669Y1997320D1*
X3104453Y1991104D1*
X3097342Y1985937D1*
X3089510Y1981947D1*
X3085722Y1980549D1*
X3006339Y1974557D2*
X3012762D1*
X3012743Y1994507D1*
X2982210Y1994651D1*
X2976554Y1995546D1*
X2971109Y1997316D1*
X2966007Y1999915D1*
X2961374Y2003281D1*
X2957325Y2007330D1*
X2953960Y2011962D1*
X2951360Y2017064D1*
X2949591Y2022510D1*
X2948695Y2028165D1*
X2948583Y2036447D1*
X2842998Y2036457D1*
X2991257Y1888076D1*
X2994070Y1884206D1*
X2996242Y1879943D1*
X2997073Y1877688D1*
X2997152Y1974557D1*
X3006339D1*
X3291426Y791160D2*
X3290397Y782466D1*
X3288690Y773881D1*
X3286313Y765455D1*
X3283283Y757242D1*
X3279618Y749292D1*
X3275341Y741654D1*
X3270477Y734375D1*
X3265058Y727500D1*
X3259115Y721072D1*
X3252687Y715130D1*
X3245812Y709710D1*
X3238533Y704846D1*
X3230895Y700569D1*
X3222945Y696904D1*
X3214732Y693874D1*
X3206307Y691498D1*
X3197721Y689790D1*
X3189027Y688761D1*
X3180280Y688417D1*
X3171533Y688761D1*
X3162839Y689790D1*
X3154253Y691498D1*
X3145828Y693874D1*
X3139508Y696206D1*
X3139419Y690052D1*
X3138278Y682847D1*
X3136024Y675909D1*
X3132712Y669409D1*
X3128424Y663507D1*
X3123266Y658349D1*
X3117364Y654061D1*
X3110864Y650749D1*
X3103926Y648495D1*
X3096720Y647353D1*
X3089838Y647337D1*
X3046874Y604515D1*
X3043004Y601703D1*
X3038741Y599531D1*
X3034190Y598052D1*
X3029465Y597304D1*
X3012181Y597210D1*
X3015985Y593502D1*
X3018797Y589631D1*
X3020969Y585368D1*
X3022447Y580818D1*
X3023196Y576083D1*
X3024257Y574458D1*
X3028210Y573174D1*
X3031914Y571287D1*
X3035277Y568843D1*
X3038216Y565904D1*
X3040659Y562541D1*
X3042546Y558837D1*
X3043831Y554884D1*
X3044481Y550778D1*
X3044563Y498700D1*
X3044237Y494556D1*
X3043266Y490514D1*
X3041676Y486674D1*
X3039504Y483129D1*
X3036804Y479969D1*
X3033643Y477269D1*
X3030099Y475097D1*
X3026259Y473506D1*
X3022217Y472536D1*
X3018073Y472210D1*
X3013946D1*
X3014981Y466778D1*
X3015063Y436214D1*
X3171108Y436200D1*
X3171164Y466778D1*
X3171839Y472210D1*
X3164410Y472464D1*
X3159069Y473787D1*
X3154117Y476184D1*
X3149767Y479553D1*
X3146207Y483747D1*
X3143589Y488586D1*
X3142028Y493862D1*
X3141609Y497517D1*
X3141699Y551180D1*
X3142780Y556575D1*
X3144953Y561630D1*
X3148122Y566127D1*
X3152152Y569872D1*
X3156870Y572704D1*
X3162070Y574501D1*
X3167529Y575184D1*
X3205553Y575074D1*
X3210948Y573992D1*
X3216003Y571820D1*
X3220500Y568650D1*
X3224245Y564620D1*
X3227077Y559903D1*
X3228874Y554703D1*
X3229557Y549244D1*
X3229446Y496220D1*
X3228848Y492590D1*
X3234318Y491190D1*
X3256651Y491108D1*
X3260757Y490458D1*
X3264710Y489174D1*
X3268414Y487287D1*
X3271777Y484843D1*
X3274716Y481904D1*
X3277159Y478541D1*
X3279046Y474837D1*
X3280331Y470884D1*
X3280981Y466778D1*
X3281063Y436214D1*
X3322252Y436200D1*
X3322347Y466778D1*
X3322997Y470884D1*
X3324281Y474837D1*
X3326169Y478541D1*
X3328612Y481904D1*
X3331551Y484843D1*
X3334914Y487287D1*
X3338618Y489174D1*
X3342571Y490458D1*
X3346677Y491108D1*
X3374843Y491190D1*
X3373847Y496622D1*
X3373765Y548700D1*
X3374091Y552844D1*
X3375061Y556886D1*
X3376652Y560726D1*
X3378824Y564271D1*
X3381524Y567431D1*
X3384685Y570131D1*
X3388229Y572303D1*
X3392069Y573894D1*
X3396111Y574864D1*
X3400263Y575190D1*
X3437334Y575108D1*
X3441439Y574458D1*
X3445392Y573174D1*
X3449096Y571286D1*
X3452459Y568843D1*
X3455398Y565904D1*
X3457842Y562541D1*
X3459729Y558837D1*
X3461015Y554876D1*
X3463687Y554190D1*
X3502549D1*
X3502583Y698631D1*
X3497721Y703507D1*
X3493433Y709409D1*
X3490048Y716110D1*
X3482318Y709918D1*
X3473113Y703860D1*
X3463355Y698741D1*
X3453140Y694610D1*
X3442566Y691507D1*
X3431738Y689464D1*
X3420761Y688499D1*
X3409743Y688622D1*
X3398791Y689833D1*
X3388011Y692119D1*
X3377510Y695458D1*
X3367390Y699817D1*
X3357749Y705153D1*
X3348683Y711416D1*
X3340278Y718543D1*
X3332619Y726464D1*
X3325779Y735103D1*
X3319825Y744375D1*
X3314815Y754190D1*
X3310799Y764451D1*
X3307815Y775059D1*
X3305893Y785909D1*
X3305051Y796896D1*
X3305298Y807912D1*
X3306632Y818850D1*
X3309038Y829603D1*
X3312494Y840066D1*
X3316967Y850137D1*
X3322411Y859717D1*
X3328775Y868713D1*
X3335995Y877037D1*
X3340962Y881903D1*
X3331540Y878499D1*
X3320870Y875746D1*
X3309980Y874061D1*
X3298978Y873458D1*
X3287969Y873945D1*
X3277063Y875516D1*
X3266364Y878155D1*
X3255979Y881838D1*
X3265058Y872314D1*
X3270477Y865440D1*
X3275341Y858161D1*
X3279618Y850523D1*
X3283283Y842573D1*
X3286313Y834360D1*
X3288690Y825934D1*
X3290397Y817348D1*
X3291426Y808655D1*
X3291770Y799907D1*
X3291426Y791160D1*
X3079038Y846392D2*
X3080942Y850523D1*
X3085219Y858161D1*
X3090083Y865440D1*
X3095502Y872314D1*
X3101445Y878743D1*
X3107873Y884685D1*
X3114748Y890105D1*
X3122027Y894968D1*
X3129665Y899246D1*
X3137615Y902911D1*
X3145828Y905941D1*
X3154253Y908317D1*
X3162839Y910025D1*
X3171533Y911054D1*
X3180280Y911397D1*
X3189027Y911054D1*
X3197721Y910025D1*
X3206307Y908317D1*
X3214732Y905941D1*
X3222849Y902946D1*
X3215730Y910131D1*
X3208749Y918657D1*
X3202643Y927829D1*
X3197472Y937560D1*
X3193287Y947753D1*
X3190129Y958310D1*
X3188028Y969127D1*
X3187006Y980099D1*
X3187071Y991118D1*
X3188224Y1002077D1*
X3190453Y1012868D1*
X3193737Y1023386D1*
X3198042Y1033529D1*
X3203328Y1043198D1*
X3208307Y1050632D1*
X3174172Y1050638D1*
X3168835Y1045444D1*
X3164964Y1042632D1*
X3160701Y1040460D1*
X3156151Y1038981D1*
X3151426Y1038233D1*
X3075543Y1038139D1*
X3022183D1*
X3024851Y1029655D1*
X3026516Y1019143D1*
Y1008499D1*
X3024851Y997986D1*
X3021562Y987864D1*
X3016730Y978380D1*
X3010474Y969770D1*
X3005071Y964206D1*
X3005072Y875126D1*
X3000228D1*
X3002330Y869714D1*
X3004382Y861166D1*
X3005072Y852403D1*
X3004382Y843640D1*
X3002330Y835093D1*
X3000909Y831240D1*
X3005124Y835259D1*
X3011026Y839547D1*
X3017526Y842859D1*
X3024464Y845113D1*
X3031669Y846254D1*
X3062876Y846397D1*
X3078916D1*
X3527975Y798070D2*
X3527250Y787075D1*
X3526138Y779674D1*
X3533073Y780190D1*
X3540345Y779618D1*
X3547439Y777915D1*
X3554179Y775123D1*
X3560399Y771311D1*
X3565946Y766573D1*
X3570684Y761026D1*
X3574496Y754806D1*
X3577287Y748066D1*
X3578990Y740973D1*
X3579563Y733700D1*
X3578990Y726427D1*
X3577287Y719334D1*
X3574496Y712594D1*
X3570684Y706374D1*
X3565946Y700827D1*
X3563569Y698629D1*
X3563563Y563932D1*
X3566560Y567468D1*
X3570840Y570925D1*
X3575742Y573423D1*
X3581055Y574855D1*
X3587092Y575190D1*
X3622735Y575074D1*
X3628130Y573992D1*
X3633185Y571820D1*
X3637682Y568651D1*
X3641427Y564620D1*
X3644259Y559903D1*
X3646056Y554703D1*
X3646740Y549244D1*
X3646629Y496220D1*
X3646031Y492590D1*
X3651501Y491190D1*
X3673834Y491108D1*
X3677939Y490458D1*
X3681892Y489174D1*
X3685596Y487287D1*
X3688959Y484843D1*
X3690492Y483425D1*
X3694723Y492325D1*
X3697655Y514571D1*
X3697657Y1138124D1*
X3690062Y1134331D1*
X3681486Y1131544D1*
X3672581Y1130134D1*
X3663564D1*
X3654659Y1131544D1*
X3646084Y1134331D1*
X3641571Y1136452D1*
X3641469Y899251D1*
X3640720Y894526D1*
X3639242Y889976D1*
X3637070Y885713D1*
X3634257Y881842D1*
X3614874Y862459D1*
X3611004Y859647D1*
X3606741Y857474D1*
X3602190Y855996D1*
X3597465Y855248D1*
X3559081Y855154D1*
X3554179Y852277D1*
X3547439Y849485D1*
X3540345Y847782D1*
X3533073Y847210D1*
X3525800Y847782D1*
X3518707Y849485D1*
X3515830Y850546D1*
X3519887Y841636D1*
X3523501Y831226D1*
X3526070Y820511D1*
X3527569Y809594D1*
X3527991Y799907D1*
X3527975Y798070D1*
X3373928Y902947D2*
X3383984Y906550D1*
X3394670Y909239D1*
X3405570Y910860D1*
X3416576Y911397D1*
X3427581Y910845D1*
X3438478Y909210D1*
X3449160Y906506D1*
X3459524Y902762D1*
X3469467Y898012D1*
X3478892Y892305D1*
X3487203Y886107D1*
X3486583Y893700D1*
X3487155Y900973D1*
X3488858Y908066D1*
X3491650Y914806D1*
X3495462Y921026D1*
X3500199Y926573D1*
X3505747Y931311D1*
X3511967Y935123D1*
X3518707Y937915D1*
X3525800Y939618D1*
X3533073Y940190D1*
X3540345Y939618D1*
X3547439Y937915D1*
X3554179Y935123D1*
X3560399Y931311D1*
X3565946Y926573D1*
X3570684Y921026D1*
X3573750Y916137D1*
X3580566Y916134D1*
X3580583Y1131338D1*
X3572581Y1130134D1*
X3563564D1*
X3555195Y1131438D1*
X3481586Y1057943D1*
X3477715Y1055131D1*
X3473452Y1052959D1*
X3468902Y1051480D1*
X3464176Y1050732D1*
X3388473Y1050638D1*
X3394476Y1041494D1*
X3399588Y1031733D1*
X3403713Y1021515D1*
X3406808Y1010939D1*
X3408844Y1000110D1*
X3409802Y989133D1*
X3409744Y979437D1*
X3408656Y968472D1*
X3406491Y957667D1*
X3403271Y947130D1*
X3399025Y936961D1*
X3393797Y927261D1*
X3387636Y918125D1*
X3380604Y909642D1*
X3373931Y902952D1*
X1968072Y679487D2*
X1972776Y685284D1*
X1978058Y690389D1*
X1983910Y694827D1*
X1990250Y698535D1*
X1996986Y701461D1*
X2004024Y703564D1*
X2008936Y704502D1*
X2009051Y709815D1*
X2010193Y717020D1*
X2012447Y723958D1*
X2015759Y730458D1*
X2020047Y736360D1*
X2025205Y741518D1*
X2031107Y745806D1*
X2037607Y749118D1*
X2044545Y751373D1*
X2051751Y752514D1*
X2059046D1*
X2066251Y751373D1*
X2073189Y749118D1*
X2079689Y745806D1*
X2085591Y741518D1*
X2090749Y736360D1*
X2095037Y730458D1*
X2098349Y723958D1*
X2100604Y717020D1*
X2101745Y709815D1*
X2101761Y702933D1*
X2105504Y699181D1*
X2168789Y699161D1*
X2168810Y706082D1*
X2115717Y706062D1*
Y774952D1*
X2115480Y774959D1*
Y843175D1*
X1788135Y843210D1*
X1783266Y838349D1*
X1777364Y834061D1*
X1770864Y830749D1*
X1763926Y828495D1*
X1759170Y827643D1*
X1758548Y824204D1*
X1817971Y824190D1*
X1822880Y829051D1*
X1828782Y833339D1*
X1835282Y836651D1*
X1842220Y838905D1*
X1849425Y840047D1*
X1856720D1*
X1863926Y838905D1*
X1870864Y836651D1*
X1877364Y833339D1*
X1883266Y829051D1*
X1888424Y823893D1*
X1892712Y817991D1*
X1896024Y811491D1*
X1898278Y804553D1*
X1899419Y797348D1*
Y790052D1*
X1898278Y782847D1*
X1896024Y775909D1*
X1892712Y769409D1*
X1888424Y763507D1*
X1883266Y758349D1*
X1877364Y754061D1*
X1870864Y750749D1*
X1863926Y748495D1*
X1856720Y747353D1*
X1849425D1*
X1842220Y748495D1*
X1835282Y750749D1*
X1828782Y754061D1*
X1822880Y758349D1*
X1818002Y763204D1*
X1695577Y763210D1*
X1695563Y700944D1*
X1703718Y703491D1*
X1713248Y705000D1*
X1722897D1*
X1732427Y703491D1*
X1741604Y700509D1*
X1750201Y696129D1*
X1758007Y690457D1*
X1764830Y683635D1*
X1768060Y679482D1*
X1774593Y687180D1*
X1781930Y693446D1*
X1790157Y698488D1*
X1799071Y702180D1*
X1808454Y704433D1*
X1818073Y705190D1*
X1827692Y704433D1*
X1837074Y702180D1*
X1845989Y698488D1*
X1854216Y693446D1*
X1861553Y687180D1*
X1867819Y679843D1*
X1868060Y679482D1*
X1874593Y687180D1*
X1881930Y693446D1*
X1890157Y698488D1*
X1899071Y702180D1*
X1908454Y704433D1*
X1918073Y705190D1*
X1927692Y704433D1*
X1937074Y702180D1*
X1945989Y698488D1*
X1954216Y693446D1*
X1961553Y687180D1*
X1967819Y679843D1*
X1968060Y679482D1*
X568082Y1768960D2*
X572754Y1776626D1*
X578462Y1783310D1*
X585146Y1789019D1*
X592641Y1793612D1*
X600762Y1796976D1*
X609310Y1799028D1*
X618073Y1799718D1*
X626836Y1799028D1*
X635383Y1796976D1*
X643504Y1793612D1*
X650999Y1789019D1*
X657683Y1783310D1*
X663392Y1776626D1*
X665024Y1774183D1*
X676544Y1774096D1*
X681269Y1773348D1*
X685819Y1771869D1*
X690082Y1769697D1*
X693953Y1766885D1*
X747677Y1713294D1*
X786930Y1674040D1*
X1945302Y1673965D1*
X1950028Y1673216D1*
X1954578Y1671738D1*
X1958841Y1669566D1*
X1962712Y1666754D1*
X2016436Y1613163D1*
X2074263Y1555335D1*
X2093118Y1555321D1*
X2093121Y1630843D1*
X2162055D1*
X2241927Y1710601D1*
X2245798Y1713414D1*
X2250061Y1715586D1*
X2254611Y1717064D1*
X2259337Y1717813D1*
X2319395Y1717907D1*
X2324380Y1724734D1*
X2330756Y1731109D1*
X2338050Y1736409D1*
X2339818Y1737399D1*
X2334299Y1740931D1*
X2327442Y1746786D1*
X2321587Y1753643D1*
X2319384Y1756940D1*
X2252964Y1757021D1*
X2248238Y1757769D1*
X2243688Y1759247D1*
X2239425Y1761420D1*
X2235554Y1764232D1*
X2224433Y1775220D1*
X2013694Y1775210D1*
X2020260Y1772482D1*
X2026480Y1768671D1*
X2032027Y1763933D1*
X2036765Y1758386D1*
X2040577Y1752166D1*
X2043369Y1745426D1*
X2045072Y1738332D1*
X2045644Y1731060D1*
X2045072Y1723787D1*
X2043369Y1716693D1*
X2040577Y1709954D1*
X2036765Y1703733D1*
X2032027Y1698186D1*
X2026480Y1693448D1*
X2020260Y1689637D1*
X2013520Y1686845D1*
X2006427Y1685142D1*
X1999154Y1684570D1*
X1991881Y1685142D1*
X1984788Y1686845D1*
X1978048Y1689637D1*
X1971828Y1693448D1*
X1970831Y1694234D1*
X1966282Y1691394D1*
X1961862Y1689563D1*
X1957210Y1688446D1*
X1952440Y1688071D1*
X1421822Y1688165D1*
X1417097Y1688913D1*
X1412546Y1690392D1*
X1408283Y1692564D1*
X1404413Y1695376D1*
X1401030Y1698759D1*
X1398217Y1702630D1*
X1397044Y1704727D1*
X1391341Y1710685D1*
X1386603Y1716232D1*
X1382792Y1722452D1*
X1380000Y1729192D1*
X1378297Y1736286D1*
X1377724Y1743558D1*
X1378297Y1750831D1*
X1380000Y1757924D1*
X1382057Y1763072D1*
X1020150Y1763013D1*
X1015862Y1757111D1*
X1010704Y1751952D1*
X1004802Y1747664D1*
X998302Y1744353D1*
X991364Y1742098D1*
X984159Y1740957D1*
X976863D1*
X969658Y1742098D1*
X962720Y1744353D1*
X956220Y1747664D1*
X950318Y1751952D1*
X945160Y1757111D1*
X940872Y1763013D1*
X937560Y1769513D1*
X935306Y1776451D1*
X934164Y1783656D1*
Y1790951D1*
X935306Y1798157D1*
X937560Y1805095D1*
X940872Y1811595D1*
X943350Y1815201D1*
X710579Y1815304D1*
X705854Y1816052D1*
X701304Y1817531D1*
X699121Y1818538D1*
X694599Y1819307D1*
X542271D1*
X542300Y1794213D1*
X547342Y1791463D1*
X554453Y1786296D1*
X560669Y1780080D1*
X565836Y1772969D1*
X568064Y1768960D1*
X2548610Y518923D2*
X2558421D1*
X2558630Y443437D1*
Y518727D1*
X2670665D1*
Y436200D1*
X2761454D1*
X2750270Y443321D1*
X2743549Y448619D1*
X2737265Y454428D1*
X2731456Y460712D1*
X2726158Y467433D1*
X2721403Y474548D1*
X2717222Y482015D1*
X2713639Y489787D1*
X2710677Y497816D1*
X2708354Y506052D1*
X2706684Y514445D1*
X2705679Y522944D1*
X2705343Y531495D1*
X2705679Y540047D1*
X2706684Y548545D1*
X2708354Y556938D1*
X2710677Y565175D1*
X2713639Y573204D1*
X2717222Y580976D1*
X2721403Y588442D1*
X2726551Y596057D1*
X2712874Y582515D1*
X2709004Y579703D1*
X2704741Y577531D1*
X2700190Y576052D1*
X2695465Y575304D1*
X2619582Y575210D1*
X2599523D1*
X2599419Y570052D1*
X2598278Y562847D1*
X2596024Y555909D1*
X2592712Y549409D1*
X2588424Y543507D1*
X2583266Y538349D1*
X2577364Y534061D1*
X2570864Y530749D1*
X2563926Y528495D1*
X2556720Y527353D1*
X2549838Y527337D1*
X2548624Y526132D1*
X2548642Y518935D1*
X2117554Y518726D2*
X2169062D1*
X2167155Y526427D1*
X2166583Y533700D1*
X2167155Y540973D1*
X2168858Y548066D1*
X2170772Y552902D1*
X2165747Y556089D1*
X2160199Y560827D1*
X2158002Y563204D1*
X2111795Y563210D1*
X2110886Y556558D1*
X2110792Y453801D1*
X2110043Y449076D1*
X2108565Y444525D1*
X2106393Y440262D1*
X2103574Y436385D1*
X2115682Y436200D1*
X2115717Y518726D1*
X2117554D1*
X2670639Y799208D2*
Y774146D1*
X2720247Y774153D1*
X2725132Y779015D1*
X2731034Y783302D1*
X2737534Y786614D1*
X2744472Y788869D1*
X2751677Y790010D1*
X2758972D1*
X2766178Y788869D1*
X2773116Y786614D1*
X2777015Y784759D1*
X2791441Y799187D1*
X2670615Y799210D1*
X2586163Y774160D2*
Y799207D1*
X2566680Y799304D1*
X2561955Y800052D1*
X2557405Y801531D1*
X2553142Y803703D1*
X2549271Y806515D1*
X2495547Y860106D1*
X2478420Y877233D1*
X2444100Y877210D1*
X2444074Y818866D1*
X2450864Y816651D1*
X2457364Y813339D1*
X2463266Y809051D1*
X2468424Y803893D1*
X2472712Y797991D1*
X2476024Y791491D1*
X2478278Y784553D1*
X2479419Y777348D1*
Y770052D1*
X2478278Y762847D1*
X2477144Y758946D1*
X2502910Y758935D1*
X2506123Y763465D1*
X2509506Y766848D1*
X2513377Y769660D1*
X2517640Y771832D1*
X2522190Y773311D1*
X2526915Y774059D1*
X2586184Y774153D1*
X2200193Y774957D2*
Y758938D1*
X2269016Y758935D1*
X2267155Y766427D1*
X2266583Y773700D1*
X2267155Y780973D1*
X2268858Y788066D1*
X2271650Y794806D1*
X2275462Y801026D1*
X2280199Y806573D1*
X2285153Y810843D1*
X2284820Y815316D1*
Y834586D1*
X2279417Y831948D1*
X2272479Y829694D1*
X2265274Y828553D1*
X2257979D1*
X2250774Y829694D1*
X2243836Y831948D1*
X2237336Y835260D1*
X2231434Y839548D1*
X2227659Y843209D1*
X2225547Y839750D1*
Y774959D1*
X2200177D1*
X2679208Y2398110D2*
X2678946Y2394433D1*
X2679208Y2398233D1*
X2682902Y2392733D1*
X2729085D1*
X2721403Y2403682D1*
X2717222Y2411149D1*
X2713639Y2418920D1*
X2710677Y2426949D1*
X2708354Y2435186D1*
X2706684Y2443579D1*
X2705679Y2452078D1*
X2705343Y2460629D1*
X2705679Y2469180D1*
X2706684Y2477679D1*
X2708354Y2486072D1*
X2710677Y2494309D1*
X2713639Y2502338D1*
X2717222Y2510110D1*
X2721403Y2517576D1*
X2726158Y2524692D1*
X2731456Y2531412D1*
X2737265Y2537697D1*
X2743549Y2543506D1*
X2750270Y2548804D1*
X2757385Y2553558D1*
X2761615Y2555927D1*
X2657345Y2555923D1*
X2672862Y2540308D1*
X2675305Y2536945D1*
X2677192Y2533242D1*
X2678477Y2529288D1*
X2679127Y2525183D1*
Y2496076D1*
X2678477Y2491970D1*
X2677192Y2488017D1*
X2675305Y2484313D1*
X2672862Y2480950D1*
X2653801Y2461774D1*
X2653418Y2459859D1*
X2672737Y2440453D1*
X2675889Y2435944D1*
X2678041Y2430881D1*
X2679101Y2425482D1*
X2679208Y2402894D1*
Y2399220D1*
X1417724Y1572989D2*
X1417003Y1565681D1*
X1416157Y1561570D1*
X1677958Y1561571D1*
X1674073Y1566248D1*
X1670261Y1572468D1*
X1667470Y1579208D1*
X1665767Y1586301D1*
X1665557Y1588071D1*
X1416178Y1588081D1*
X1417370Y1581373D1*
X1417754Y1574826D1*
X1417724Y1572989D1*
X1307317Y1561576D2*
X1306150Y1567888D1*
X1305721Y1575220D1*
X1306253Y1582544D1*
X1307311Y1588075D1*
X770478Y1588081D1*
X769493Y1582721D1*
X767239Y1575783D1*
X763927Y1569283D1*
X759639Y1563381D1*
X757965Y1561570D1*
X1307346Y1561571D1*
X555556Y768445D2*
X552097Y762517D1*
X547618Y756697D1*
X542416Y751514D1*
X536580Y747055D1*
X530212Y743398D1*
X523420Y740605D1*
X516320Y738725D1*
X511845Y738044D1*
X618606Y631286D1*
X618583Y739192D1*
X609956Y737855D1*
X601166D1*
X592484Y739230D1*
X584124Y741947D1*
X576292Y745937D1*
X569180Y751104D1*
X562965Y757320D1*
X557798Y764431D1*
X555570Y768440D1*
X463893Y2249717D2*
X574091D1*
Y2228395D1*
X578462Y2233310D1*
X585146Y2239019D1*
X592641Y2243612D1*
X596558Y2245418D1*
X596556Y2373658D1*
X587815Y2367700D1*
X580348Y2363518D1*
X572577Y2359936D1*
X564548Y2356973D1*
X556311Y2354651D1*
X547918Y2352981D1*
X539419Y2351975D1*
X530868Y2351639D1*
X522317Y2351975D1*
X513818Y2352981D1*
X505425Y2354651D1*
X497188Y2356973D1*
X489159Y2359936D1*
X481388Y2363518D1*
X473921Y2367700D1*
X466805Y2372454D1*
X460085Y2377752D1*
X453800Y2383562D1*
X447991Y2389846D1*
X442693Y2396566D1*
X436191Y2406803D1*
X436201Y2159947D1*
X441142Y2163697D1*
X445405Y2165869D1*
X449955Y2167348D1*
X454680Y2168096D1*
X462055Y2168916D1*
Y2249717D1*
X463893D1*
X3461015Y492524D2*
X3459729Y488563D1*
X3457842Y484859D1*
X3455398Y481496D1*
X3452459Y478557D1*
X3449096Y476114D1*
X3445392Y474226D1*
X3441439Y472942D1*
X3437334Y472292D1*
X3431128Y472210D1*
X3432164Y466778D1*
X3432245Y436214D1*
X3588297Y436200D1*
X3588347Y466778D1*
X3589022Y472210D1*
X3581592Y472464D1*
X3576252Y473787D1*
X3571300Y476184D1*
X3566949Y479553D1*
X3563389Y483747D1*
X3560772Y488586D1*
X3559211Y493862D1*
X3558792Y497517D1*
X3558765Y523281D1*
X3556258Y519898D1*
X3536874Y500515D1*
X3533004Y497703D1*
X3528741Y495531D1*
X3524190Y494052D1*
X3519465Y493304D1*
X3461201Y493210D1*
X2976871Y2549841D2*
X3150586D1*
Y2449617D1*
X3093538D1*
X3098708Y2443912D1*
X3101208Y2439832D1*
X3103039Y2435412D1*
X3104156Y2430760D1*
X3104531Y2425990D1*
X3104638Y2418261D1*
X3126122D1*
Y2326218D1*
X3130874Y2322885D1*
X3143721Y2310171D1*
X3161251Y2310190D1*
X3158664Y2317865D1*
X3157241Y2325070D1*
X3156741Y2332398D1*
X3157171Y2339729D1*
X3158524Y2346948D1*
X3160778Y2353937D1*
X3163898Y2360586D1*
X3167834Y2366786D1*
X3172521Y2372440D1*
X3177886Y2377456D1*
X3183842Y2381753D1*
X3190293Y2385263D1*
X3197136Y2387930D1*
X3204261Y2389710D1*
X3211554Y2390576D1*
X3218898Y2390512D1*
X3226175Y2389521D1*
X3233268Y2387618D1*
X3240064Y2384834D1*
X3246453Y2381213D1*
X3252334Y2376813D1*
X3257611Y2371706D1*
X3262200Y2365972D1*
X3266028Y2359704D1*
X3269033Y2353003D1*
X3271167Y2345975D1*
X3272395Y2338735D1*
X3272683Y2330839D1*
X3271986Y2323528D1*
X3270371Y2316364D1*
X3268170Y2310196D1*
X3407465Y2310096D1*
X3412190Y2309348D1*
X3416741Y2307869D1*
X3421004Y2305697D1*
X3424874Y2302885D1*
X3444258Y2283502D1*
X3447070Y2279631D1*
X3449242Y2275368D1*
X3450720Y2270818D1*
X3451469Y2266092D1*
X3451563Y2190209D1*
X3451469Y1845308D1*
X3451186Y1842921D1*
X3459084Y1844169D1*
X3468073Y1844876D1*
X3477061Y1844169D1*
X3485829Y1842064D1*
X3494159Y1838614D1*
X3501847Y1833903D1*
X3508703Y1828047D1*
X3514559Y1821191D1*
X3518056Y1815671D1*
X3521587Y1821191D1*
X3527442Y1828047D1*
X3534299Y1833903D1*
X3541986Y1838614D1*
X3550317Y1842064D1*
X3559084Y1844169D1*
X3568073Y1844876D1*
X3577061Y1844169D1*
X3585829Y1842064D1*
X3594159Y1838614D1*
X3601847Y1833903D1*
X3608703Y1828047D1*
X3614559Y1821191D1*
X3618056Y1815671D1*
X3621692Y1821336D1*
X3626398Y1826974D1*
X3631784Y1831967D1*
X3637763Y1836232D1*
X3644237Y1839699D1*
X3651100Y1842312D1*
X3658241Y1844029D1*
X3665542Y1844821D1*
X3672885Y1844675D1*
X3680149Y1843593D1*
X3687215Y1841594D1*
X3693969Y1838710D1*
X3697654Y1836670D1*
X3697657Y2477517D1*
X3694728Y2499773D1*
X3687214Y2517926D1*
X3675260Y2533510D1*
X3659679Y2545470D1*
X3641533Y2552989D1*
X3619287Y2555920D1*
X2867196Y2555923D1*
X2878395Y2548804D1*
X2885116Y2543506D1*
X2891400Y2537697D1*
X2897209Y2531412D1*
X2902507Y2524692D1*
X2907262Y2517576D1*
X2911443Y2510110D1*
X2915026Y2502338D1*
X2917988Y2494309D1*
X2920311Y2486072D1*
X2921981Y2477679D1*
X2922987Y2469180D1*
X2923323Y2460629D1*
X2922987Y2452078D1*
X2921981Y2443579D1*
X2920311Y2435186D1*
X2917988Y2426949D1*
X2915026Y2418920D1*
X2911443Y2411149D1*
X2905609Y2401208D1*
X2908142Y2399457D1*
X2912612Y2403844D1*
X2918514Y2408132D1*
X2925014Y2411444D1*
X2931952Y2413698D1*
X2939157Y2414839D1*
X2946467Y2414838D1*
X2947158Y2416462D1*
Y2418261D1*
X3016618Y2418290D1*
X3012974Y2421404D1*
X2994612Y2439898D1*
X2991800Y2443769D1*
X2989625Y2448041D1*
X2985232Y2449617D1*
X2967685D1*
Y2549841D1*
X2976871D1*
X3697661Y1738166D2*
X3691487Y1734944D1*
X3684603Y1732386D1*
X3677448Y1730727D1*
X3670141Y1729994D1*
X3662800Y1730199D1*
X3655545Y1731339D1*
X3648494Y1733395D1*
X3641764Y1736334D1*
X3635463Y1740107D1*
X3629695Y1744652D1*
X3624554Y1749897D1*
X3620123Y1755754D1*
X3618077Y1759103D1*
X3614559Y1753643D1*
X3608703Y1746786D1*
X3601847Y1740931D1*
X3594159Y1736219D1*
X3585829Y1732769D1*
X3577061Y1730664D1*
X3568073Y1729957D1*
X3559084Y1730664D1*
X3555195Y1731438D1*
X3544158Y1720515D1*
X3540287Y1717703D1*
X3536024Y1715531D1*
X3531474Y1714052D1*
X3526748Y1713304D1*
X3480685Y1713210D1*
X3498258Y1695502D1*
X3501070Y1691631D1*
X3503242Y1687368D1*
X3504720Y1682818D1*
X3505469Y1678092D1*
X3505563Y1602209D1*
Y1262207D1*
X3516443Y1262190D1*
X3513425Y1269660D1*
X3511320Y1278428D1*
X3510613Y1287417D1*
X3511320Y1296405D1*
X3513425Y1305173D1*
X3516876Y1313503D1*
X3521587Y1321191D1*
X3527442Y1328047D1*
X3534299Y1333903D1*
X3541986Y1338614D1*
X3550317Y1342064D1*
X3559084Y1344169D1*
X3568073Y1344876D1*
X3577061Y1344169D1*
X3585829Y1342064D1*
X3594159Y1338614D1*
X3601847Y1333903D1*
X3608703Y1328047D1*
X3614559Y1321191D1*
X3619270Y1313503D1*
X3622720Y1305173D1*
X3624825Y1296405D1*
X3625533Y1287417D1*
X3624825Y1278428D1*
X3622720Y1269660D1*
X3619270Y1261330D1*
X3615195Y1254595D1*
X3634263Y1235494D1*
X3638050Y1236409D1*
X3646084Y1240502D1*
X3654659Y1243289D1*
X3663564Y1244699D1*
X3672581D1*
X3681486Y1243289D1*
X3690062Y1240502D1*
X3697649Y1236659D1*
X3697657Y1405390D1*
X3690967Y1397522D1*
X3683391Y1391052D1*
X3674897Y1385847D1*
X3665692Y1382034D1*
X3656005Y1379708D1*
X3646073Y1378927D1*
X3636141Y1379708D1*
X3626453Y1382034D1*
X3617249Y1385847D1*
X3608754Y1391052D1*
X3601178Y1397522D1*
X3594708Y1405098D1*
X3589503Y1413593D1*
X3585690Y1422797D1*
X3583364Y1432485D1*
X3582583Y1442417D1*
X3583364Y1452349D1*
X3585690Y1462036D1*
X3589503Y1471240D1*
X3594708Y1479735D1*
X3601279Y1487403D1*
X3594708Y1495098D1*
X3589503Y1503593D1*
X3585690Y1512797D1*
X3583364Y1522485D1*
X3582583Y1532417D1*
X3583364Y1542349D1*
X3585690Y1552036D1*
X3589503Y1561240D1*
X3594708Y1569735D1*
X3601178Y1577311D1*
X3608754Y1583781D1*
X3617249Y1588987D1*
X3626453Y1592799D1*
X3636141Y1595125D1*
X3646073Y1595907D1*
X3656005Y1595125D1*
X3665692Y1592799D1*
X3674897Y1588987D1*
X3683391Y1583781D1*
X3690967Y1577311D1*
X3697437Y1569735D1*
X3697664Y1569395D1*
X3697657Y1738180D1*
X3256319Y2115072D2*
X3272713D1*
Y2018220D1*
X3281099Y2022666D1*
X3289598Y2026143D1*
X3298392Y2028786D1*
X3307400Y2030571D1*
X3316537Y2031482D1*
X3325720Y2031510D1*
X3334863Y2030655D1*
X3343881Y2028925D1*
X3352691Y2026336D1*
X3361212Y2022911D1*
X3369363Y2018683D1*
X3377070Y2013691D1*
X3384262Y2007980D1*
X3390588Y2001900D1*
X3390583Y2249208D1*
X3270758Y2249210D1*
X3271998Y2243322D1*
X3272712Y2234251D1*
X3271998Y2225180D1*
X3269874Y2216333D1*
X3266392Y2207926D1*
X3261638Y2200168D1*
X3257262Y2194907D1*
X3261638Y2189594D1*
X3266392Y2181836D1*
X3269874Y2173430D1*
X3271998Y2164582D1*
X3272712Y2155511D1*
X3271998Y2146440D1*
X3269874Y2137592D1*
X3266392Y2129186D1*
X3261638Y2121428D1*
X3256248Y2115070D1*
X3416789Y2451705D2*
X3416171Y2442543D1*
X3414674Y2433483D1*
X3412313Y2424609D1*
X3409110Y2416003D1*
X3405094Y2407745D1*
X3400302Y2399912D1*
X3394780Y2392575D1*
X3388577Y2385803D1*
X3381753Y2379660D1*
X3374369Y2374201D1*
X3366494Y2369477D1*
X3358202Y2365532D1*
X3349568Y2362403D1*
X3340674Y2360119D1*
X3331602Y2358700D1*
X3322435Y2358160D1*
X3313258Y2358505D1*
X3304158Y2359730D1*
X3295217Y2361824D1*
X3286519Y2364769D1*
X3278145Y2368536D1*
X3270171Y2373091D1*
X3262673Y2378392D1*
X3255719Y2384389D1*
X3249374Y2391027D1*
X3243696Y2398244D1*
X3238739Y2405974D1*
X3234548Y2414145D1*
X3231162Y2422680D1*
X3228613Y2431502D1*
X3226923Y2440528D1*
X3226110Y2449675D1*
X3226180Y2458858D1*
X3227132Y2467991D1*
X3228958Y2476990D1*
X3231641Y2485772D1*
X3235157Y2494256D1*
X3239471Y2502362D1*
X3244545Y2510015D1*
X3250332Y2517146D1*
X3256777Y2523686D1*
X3263821Y2529577D1*
X3271399Y2534763D1*
X3279441Y2539197D1*
X3287872Y2542836D1*
X3296613Y2545648D1*
X3305585Y2547607D1*
X3314703Y2548693D1*
X3323884Y2548898D1*
X3333041Y2548219D1*
X3342091Y2546663D1*
X3350950Y2544244D1*
X3359534Y2540984D1*
X3367766Y2536914D1*
X3375568Y2532071D1*
X3382868Y2526500D1*
X3389599Y2520254D1*
X3395697Y2513388D1*
X3401108Y2505969D1*
X3405780Y2498063D1*
X3409670Y2489745D1*
X3412742Y2481092D1*
X3414968Y2472183D1*
X3416327Y2463101D1*
X3416807Y2453543D1*
X3416789Y2451705D1*
X2833311Y2051877D2*
X2829298Y2050171D1*
X861773Y2174781D2*
D25*
Y2098327D1*
X810319Y2174781D2*
X913228D1*
X2543109Y2193511D2*
X2599091D1*
X505737Y1212230D2*
Y1156248D1*
X3124036Y1974521D2*
Y1862558D1*
Y1918540D2*
X3176081D1*
X3416501Y911361D2*
Y688453D1*
X3305046Y799907D2*
X3527955D1*
X3298390Y984947D2*
Y873493D1*
X3186936Y984947D2*
X3409844D1*
X2018073Y705154D2*
Y643700D1*
X2167797Y518691D2*
Y462709D1*
X2115753D2*
X2167797D1*
X2614648Y518691D2*
Y462709D1*
X2558666D2*
X2670629D1*
X2586199Y787696D2*
X2670603D1*
X2157955Y762079D2*
Y706098D1*
X2115752Y762079D2*
X2200157D1*
X2622600Y2410629D2*
X2679180D1*
X1305755Y1574826D2*
X1417718D1*
X3185573Y575162D2*
Y523700D1*
X3141611D2*
X3229534D1*
X505561Y1149681D2*
Y1093700D1*
Y793700D2*
Y737718D1*
X518073Y2249681D2*
Y2193700D1*
X462091D2*
X518073D1*
X3602755Y575162D2*
Y523700D1*
X3558793D2*
X3646717D1*
X3100474Y2549805D2*
Y2449653D1*
Y2499729D2*
X3150550D1*
X3668073Y1844840D2*
Y1729993D1*
X3214726Y2390627D2*
Y2332676D1*
X3156776D2*
X3272676D1*
X3321419Y2031571D2*
Y1936220D1*
X3226067D2*
X3321419D1*
Y2548894D2*
Y2358191D1*
X3226067Y2453543D2*
X3416771D1*
D27*
X861773Y1999781D3*
Y2174781D3*
D28*
X2599091Y2193511D3*
Y2118708D3*
D29*
X580540Y1212230D3*
X505737D3*
X3124036Y1918540D3*
X3049233D3*
D30*
X3180280Y799907D3*
X3416501D3*
X3298390Y984947D3*
D31*
X2143073Y993700D3*
D32*
X2243073D3*
X2343073D3*
X2443073D3*
X2543073D3*
X2643073D3*
D33*
X2018073Y643700D3*
X1918073D3*
X1818073D3*
X1718073D3*
X1618073D3*
X1518073D3*
X1418073D3*
X1318073D3*
X1218073D3*
X1118073D3*
X1018073D3*
X918073D3*
X818073D3*
X718073D3*
X2018073Y543700D3*
X1918073D3*
X1818073D3*
X1718073D3*
X1618073D3*
X1518073D3*
X1418073D3*
X1318073D3*
X1218073D3*
X1118073D3*
X1018073D3*
X918073D3*
X818073D3*
X718073D3*
D31*
X618073Y1343700D3*
D32*
X518073D3*
X618073Y1443700D3*
X518073D3*
X618073Y1543700D3*
X518073D3*
X618073Y1643700D3*
X518073D3*
X618073Y1743700D3*
X518073D3*
D31*
X3068073Y2233700D3*
D32*
Y2133700D3*
Y2033700D3*
D34*
X2215002Y457985D3*
X2258348D3*
X2301616D3*
X2344949Y457972D3*
X2388256D3*
X2431550D3*
X2474871D3*
X2518151Y457985D3*
D29*
X2167797Y462709D3*
D31*
X2614648D3*
D35*
X2612272Y883365D3*
D36*
X2628401Y787696D3*
D37*
X2157955Y762079D3*
D38*
X2170514Y821134D3*
D39*
X2860889Y1349642D3*
Y1389012D3*
Y1428382D3*
Y1507123D3*
Y1467752D3*
Y1546493D3*
Y1585863D3*
Y1625233D3*
D40*
X2943566Y1310272D3*
Y1664603D3*
D110*
X722600Y2410629D3*
Y2510629D3*
X822600Y2410629D3*
Y2510629D3*
X922600Y2410629D3*
Y2510629D3*
X1022600Y2410629D3*
Y2510629D3*
X1122600Y2410629D3*
Y2510629D3*
X1222600Y2410629D3*
Y2510629D3*
X1322600Y2410629D3*
Y2510629D3*
X1422600Y2410629D3*
Y2510629D3*
X1522600Y2410629D3*
Y2510629D3*
X1622600Y2410629D3*
Y2510629D3*
X1722600Y2410629D3*
Y2510629D3*
X1822600Y2410629D3*
Y2510629D3*
X1922600Y2410629D3*
Y2510629D3*
X2022600Y2410629D3*
Y2510629D3*
X2122600Y2410629D3*
Y2510629D3*
X2222600Y2410629D3*
Y2510629D3*
X2322600Y2410629D3*
Y2510629D3*
X2422600Y2410629D3*
Y2510629D3*
X2522600Y2410629D3*
Y2510629D3*
X2622600Y2410629D3*
Y2510629D3*
D31*
X2149138Y1574826D3*
D32*
X1361737D3*
D111*
X3000573Y523700D3*
X3185573D3*
D112*
X2960073Y449200D3*
X3226073D3*
D31*
X505561Y1093700D3*
D32*
X605561D3*
X505561Y993700D3*
X605561D3*
X505561Y893700D3*
X605561D3*
X505561Y793700D3*
X605561D3*
D31*
X518073Y2193700D3*
D32*
X618073D3*
X518073Y2093700D3*
X618073D3*
X518073Y1993700D3*
X618073D3*
X518073Y1893700D3*
X618073D3*
D111*
X3417755Y523700D3*
X3602755D3*
D112*
X3377255Y449200D3*
X3643255D3*
D44*
X3017797Y2499729D3*
X3100474D3*
D29*
X3074041Y2362243D3*
X2999238D3*
D31*
X2949054Y931144D3*
D32*
Y852403D3*
Y773663D3*
D46*
Y1013821D3*
Y690986D3*
D47*
X3668073Y1787417D3*
X3568073D3*
X3468073D3*
X3368073D3*
X3268073D3*
X3168073D3*
X3068073D3*
X2968073D3*
X2868073D3*
X2768073D3*
X2668073D3*
X2568073D3*
X2468073D3*
X2368073D3*
Y1687417D3*
Y1387417D3*
Y1287417D3*
Y1187417D3*
X2468073D3*
X2568073D3*
X2668073D3*
X2768073D3*
X2868073D3*
X2968073D3*
X3068073D3*
X3168073D3*
X3268073D3*
X3368073D3*
X3468073D3*
X3568073D3*
X3668073D3*
X3568073Y1287417D3*
D48*
X3646073Y1442417D3*
D47*
X2668073Y1687417D3*
X2568073Y1587417D3*
Y1487417D3*
D48*
X3646073Y1532417D3*
D47*
X2568073Y1687417D3*
X2668073Y1587417D3*
Y1487417D3*
Y1387417D3*
Y1287417D3*
X2568073Y1387417D3*
Y1287417D3*
D39*
X2686582Y2224758D3*
Y2174758D3*
Y2124758D3*
Y2074758D3*
X2899180D3*
Y2124758D3*
Y2174758D3*
Y2224758D3*
D49*
X3214726Y2057086D3*
D50*
Y2155511D3*
Y2234251D3*
Y2332676D3*
D51*
X3321419Y1936220D3*
Y2453543D3*
M02*
