G04 DipTrace 3.3.1.3*
G04 Teensy4RPIlike.gbl*
%MOIN*%
G04 #@! TF.FileFunction,Copper,L2,Bot*
G04 #@! TF.Part,Single*
%AMOUTLINE0*
4,1,8,
0.030118,-0.012475,
0.012475,-0.030118,
-0.012475,-0.030118,
-0.030118,-0.012475,
-0.030118,0.012475,
-0.012475,0.030118,
0.012475,0.030118,
0.030118,0.012475,
0.030118,-0.012475,
0*%
G04 #@! TA.AperFunction,Conductor*
%ADD13C,0.02*%
G04 #@! TA.AperFunction,ViaPad*
%ADD14C,0.04*%
G04 #@! TA.AperFunction,Conductor*
%ADD16C,0.03*%
%ADD17C,0.008*%
%ADD18C,0.015*%
G04 #@! TA.AperFunction,CopperBalancing*
%ADD19C,0.025*%
%ADD24C,0.013*%
G04 #@! TA.AperFunction,ComponentPad*
%ADD30C,0.17*%
%ADD31R,0.059055X0.059055*%
%ADD32C,0.059055*%
%ADD33C,0.07*%
%ADD46O,0.102362X0.082677*%
%ADD47C,0.06194*%
%ADD48C,0.074*%
%ADD49R,0.062992X0.062992*%
%ADD50C,0.062992*%
%ADD51C,0.137795*%
G04 #@! TA.AperFunction,ViaPad*
%ADD53C,0.165*%
G04 #@! TA.AperFunction,ComponentPad*
%ADD110OUTLINE0*%
%FSLAX26Y26*%
G04*
G70*
G90*
G75*
G01*
G04 Bottom*
%LPD*%
X3273073Y1293700D2*
D13*
X3291073Y1311700D1*
X3486498D1*
Y1205842D1*
X3468073Y1187417D1*
X605561Y893700D2*
Y793700D1*
Y993700D2*
Y893700D1*
Y1093700D2*
Y993700D1*
X722600Y2410629D2*
X736787D1*
Y2285886D1*
X730537Y2279637D1*
Y1748102D1*
X768033D1*
Y987388D1*
X2942805Y2368493D2*
D14*
X2967802D1*
X2867813Y2268503D1*
X2773073D1*
Y2273700D1*
X618073Y2193700D2*
Y2093700D1*
X2949054Y852403D2*
X3031073D1*
Y643700D1*
X3617073D1*
X3668073Y694700D1*
Y1187417D1*
X618073Y1893700D2*
D16*
X671073Y1840700D1*
Y719700D1*
X637073Y685700D1*
Y487700D1*
X681078Y443695D1*
X1911892D1*
Y453700D1*
X1980406D1*
Y443695D1*
X2042574D1*
X2036325Y437445D1*
X2599091D1*
X2683073Y521427D1*
Y802403D1*
X2733073Y852403D1*
X2949054D1*
X618073Y1993700D2*
D14*
Y1893700D1*
Y2093700D2*
Y1993700D1*
X1918073Y543700D2*
Y449876D1*
X1911892Y443695D1*
X2961553Y1362348D2*
D17*
X2911073Y1311868D1*
Y1131700D1*
X2895073Y1115700D1*
X2702406D1*
X2638406Y1051700D1*
X2501073D1*
X2485073Y1035700D1*
Y959700D1*
X2345073Y819700D1*
Y549700D1*
X2329073Y533700D1*
X2213073D1*
X2190369D1*
X2155388Y568682D1*
Y993700D1*
X2143073D1*
X2433073Y1273700D2*
X2495073D1*
X2511073Y1257700D1*
Y1161700D1*
X2343073Y993700D1*
X3053073Y1573700D2*
X3005298Y1525926D1*
Y1433700D1*
X2833073D1*
X2773073Y1493700D1*
X3253073Y1573700D2*
Y1356099D1*
X3574674D1*
X3613073Y1317700D1*
Y709700D1*
X3597073Y693700D1*
X3093073D1*
X2773073Y1493700D2*
X2713073Y1433700D1*
X2482962D1*
X2442857Y1393595D1*
X2243073Y993700D2*
X2255377D1*
Y1628004D1*
X2259073Y1631700D1*
X2792191D1*
X2955304Y1468587D1*
X2253073Y593700D2*
X2265073Y605700D1*
Y781700D1*
X2224130Y822642D1*
Y902758D1*
X2243073Y921700D1*
Y993700D1*
X2313073Y773700D2*
Y863700D1*
X2443073Y993700D1*
X2433073Y773700D2*
Y533700D1*
X2443073Y993700D2*
Y1051700D1*
X2459073Y1067700D1*
X2547073D1*
X2613073Y1133700D1*
X2473073Y573700D2*
Y706167D1*
X2474104D1*
X2230380D2*
X2201073Y735474D1*
Y1033073D1*
X2224130Y1056130D1*
Y1731700D1*
X2691073D1*
X2729073Y1693700D1*
X2813073D1*
X2933073Y1573700D1*
X2474104Y706167D2*
X2543073Y775136D1*
Y993700D1*
X2553073Y573700D2*
X2585073Y605700D1*
Y935700D1*
X2643073Y993700D1*
X2686881Y949892D1*
X2799264D1*
X2917073Y1067700D1*
X3098109D1*
X3161532Y1131123D1*
X3411073D1*
Y1230679D1*
X3442752Y1262359D1*
X2836566Y662422D2*
X2767823D1*
X2749075Y681170D1*
X3353073Y1653700D2*
X3368073Y1668700D1*
Y1787417D1*
X2522600Y2410629D2*
X2499102D1*
Y2249755D1*
X2455356Y2206010D1*
Y2012280D1*
X2567844Y1899792D1*
X2736577D1*
X2811073Y1825296D1*
Y1733700D1*
X2827073Y1717700D1*
X3009073D1*
X3073073Y1653700D1*
X2193073Y593700D2*
X2185073Y601700D1*
Y1092065D1*
X2191073Y1098065D1*
Y1837700D1*
X2173073Y1855700D1*
Y2333700D1*
X2322600Y2410629D2*
Y2388760D1*
X2367865Y2343495D1*
X1961658Y2324747D2*
X1940705Y2345700D1*
X1855073D1*
X1839073Y2329700D1*
Y1597700D1*
X1845073Y1591700D1*
Y1197700D1*
X1665073Y1017700D1*
Y690700D1*
X1618073Y643700D1*
X2367865Y2343495D2*
X2273073D1*
Y2333700D1*
X2213073Y2233700D2*
Y2267700D1*
X2222600Y2277228D1*
Y2410629D1*
X1513073Y2233700D2*
X1497073Y2217700D1*
Y889700D1*
X1513073Y873700D1*
X3313073Y1613700D2*
Y1831700D1*
X3297073Y1847700D1*
X3188627D1*
X3124036Y1912291D1*
X3030296D1*
X2848886Y2093700D1*
X2813073D1*
X3173073Y1613700D2*
X3168073Y1618700D1*
Y1787417D1*
X1113073Y1093700D2*
Y2057700D1*
X1129073Y2073700D1*
X1213073D1*
X2073073Y2093700D2*
Y2410629D1*
X2122600D1*
X1413073Y1093700D2*
X1418073Y1088700D1*
Y643700D1*
X2880312Y1887293D2*
X2890718Y1897700D1*
X2926149D1*
X3036432Y1787417D1*
X3068073D1*
X1424214Y1743558D2*
X1436713D1*
Y1289340D1*
X1318073Y1170700D1*
Y643700D1*
X2033073Y2053700D2*
Y2410629D1*
X2022600D1*
X1999154Y1731060D2*
X2001073Y1732978D1*
Y1964204D1*
X2036650Y1999781D1*
Y2053700D1*
X2033073D1*
X2313073Y1833700D2*
Y2219700D1*
X2405361Y2311989D1*
Y2355994D1*
X2367865Y2393490D1*
Y2462233D1*
X2416262Y2510629D1*
X2422600D1*
X1893073Y1493700D2*
X1925073Y1525700D1*
Y1801700D1*
X1893073Y1833700D1*
X1873073Y2313700D2*
Y2033700D1*
X1173073Y2313700D2*
Y2510629D1*
X1122600D1*
X1433073Y1933700D2*
Y2033700D1*
X1873073D2*
X1941073Y1965700D1*
Y991700D1*
X1918073Y968700D1*
Y643700D1*
X1980406Y987388D2*
X1965073Y972054D1*
Y611700D1*
X1949073Y595700D1*
X1883073D1*
X1867073Y579700D1*
Y495700D1*
X1851073Y479700D1*
X781073D1*
X765073Y495700D1*
Y764268D1*
X805529D1*
Y1805226D1*
X765073D1*
Y2453700D1*
X1022600D1*
Y2510629D1*
X3313073Y1433700D2*
X3468073Y1588700D1*
Y1787417D1*
X1883073Y595700D2*
X1866073D1*
X1818073Y643700D1*
X1553073Y1893700D2*
Y1093700D1*
X1601073Y1141700D1*
X1749073D1*
X1765073Y1157700D1*
Y2510629D1*
X1822600D1*
X1622600Y2410629D2*
Y2315228D1*
X1613073Y2305700D1*
Y1873700D1*
X2424109Y1837298D2*
Y1824800D1*
X2461493Y1787417D1*
X2468073D1*
X1613073Y1873700D2*
Y1806052D1*
X1611695D1*
X813073Y1893700D2*
X836776Y1869997D1*
Y643700D1*
X818073D1*
X1722600Y2410629D2*
Y1812301D1*
X1717934D1*
Y1599823D1*
X1711684Y1593574D1*
X724288D2*
X718073Y1587359D1*
Y643700D1*
X1813073Y1213700D2*
Y2410629D1*
X1822600D1*
X818073Y543700D2*
X866073Y495700D1*
X1749073D1*
X1765073Y511700D1*
Y781700D1*
X1713073Y833700D1*
X1613073D2*
Y783700D1*
X1597073Y767700D1*
X1497073D1*
X1481073Y783700D1*
Y2293228D1*
X1422600Y2351700D1*
Y2410629D1*
X2261627Y874899D2*
X2285073Y898346D1*
Y1004417D1*
X2468073Y1187417D1*
X1713073Y833700D2*
Y873700D1*
X1753073D1*
X1613073Y1173700D2*
X1667073Y1227700D1*
Y2510629D1*
X1722600D1*
X1073073Y1173700D2*
Y733700D1*
X1133073Y1013700D2*
Y893700D1*
X1893073Y1033700D2*
Y1362348D1*
X1886666D1*
X1974157Y1368598D2*
X1957073Y1385682D1*
Y1963700D1*
X1999154Y2005781D1*
Y2355994D1*
X1967073Y2388075D1*
Y2510629D1*
X2022600D1*
X1218073Y543700D2*
X1170073Y591700D1*
X881073D1*
X865073Y607700D1*
Y1969700D1*
X822600Y2012172D1*
Y2410629D1*
X1318073Y543700D2*
X1265073Y596700D1*
Y2105700D1*
X1249073Y2121700D1*
X1133073D1*
Y2113700D1*
X2799070Y1937288D2*
X2936556D1*
X3030296Y1843548D1*
X3080291D1*
X3111073Y1812766D1*
Y1424377D1*
X3080291Y1393595D1*
X3024046D1*
X3005298Y1374847D1*
Y1364285D1*
X3012516Y1357067D1*
X2968073Y1312624D1*
Y1187417D1*
X1133073Y2113700D2*
X1101073D1*
X1085073Y2097700D1*
Y1257700D1*
X1069073Y1241700D1*
X939073D1*
X922600Y1258172D1*
Y1826369D1*
X961763D1*
Y2164554D1*
X924267D1*
Y2410629D1*
X922600D1*
X2699081Y2274752D2*
Y1987283D1*
X2924057D1*
X3042794Y1868545D1*
X3111537D1*
X3136535Y1843548D1*
Y1838238D1*
X3143073Y1831700D1*
X3195073D1*
X3211073Y1815700D1*
Y1424388D1*
X3080291Y1293606D1*
Y1187417D1*
X3068073D1*
X2699081Y2274752D2*
X2767823Y2343495D1*
X2880312D1*
Y2362243D1*
X1373073Y973700D2*
X1365073Y965700D1*
Y596700D1*
X1418073Y543700D1*
X924267Y2093522D2*
X881073Y2050327D1*
Y1045700D1*
X953073Y973700D1*
X2773073Y993700D2*
Y1067700D1*
X2789073Y1083700D1*
X3064356D1*
X3168073Y1187417D1*
X1553073Y813700D2*
Y907700D1*
X1533073Y927700D1*
Y973700D1*
Y1035700D1*
X1513073Y1055700D1*
Y2087700D1*
X1565073Y2139700D1*
Y2510629D1*
X1522600D1*
X2568073Y1187417D2*
X2612356Y1231700D1*
X2709073D1*
X2889716Y1412343D1*
X3036545D1*
X3067792Y1443590D1*
X980511Y1787304D2*
X986760D1*
Y2313700D1*
X973073D1*
X1886666Y1762306D2*
X1861073Y1736713D1*
Y1477700D1*
X1925073Y1413700D1*
Y1017700D1*
X1909073Y1001700D1*
X1869073D1*
X1853073Y985700D1*
Y793700D1*
X3213073Y1293700D2*
X3211073Y1291700D1*
Y1244417D1*
X3268073Y1187417D1*
X1853073Y1133700D2*
Y1017700D1*
X1869073Y1001700D1*
X1718073Y543700D2*
X1670073Y591700D1*
X1581073D1*
X1565073Y607700D1*
Y719700D1*
X1549073Y735700D1*
X1473073D1*
X1465073Y743700D1*
Y2215146D1*
X1365073Y2315146D1*
Y2465700D1*
X1222600D1*
Y2510629D1*
X1053073Y1273700D2*
Y1805700D1*
X1022600Y1836172D1*
Y2410629D1*
X2293073Y1333700D2*
X2621789D1*
X2668073Y1287417D1*
X2222600Y2510629D2*
X2167073D1*
Y2365700D1*
X2121073D1*
X2105073Y2349700D1*
Y1967700D1*
X2036650Y1899277D1*
Y1356099D1*
X1999154Y1318603D1*
Y1306104D1*
X1392968Y1374847D2*
Y1462338D1*
X1301304Y1554002D1*
Y2410629D1*
X1322600D1*
X1355472Y1424842D2*
X1367970D1*
X1281073Y1511739D1*
Y2297700D1*
X1222600Y2356172D1*
Y2410629D1*
X518073Y1749821D2*
Y1743700D1*
X2493073Y1693700D2*
X2499356Y1687417D1*
X2568073D1*
X2622600Y2510629D2*
X2667073D1*
Y2373981D1*
X2486603Y2193511D1*
Y2031028D1*
X2524099Y1993532D1*
X2530348D1*
X1233073Y1993700D2*
X1218073Y1978700D1*
Y643700D1*
X2530348Y1993532D2*
X2586592Y1937288D1*
X2749075D1*
X2868073Y1818291D1*
Y1787417D1*
X1173073Y2013700D2*
X1165073Y2005218D1*
Y690700D1*
X1118073Y643700D1*
X2411611Y2087272D2*
X2405361D1*
Y2193511D1*
X2474104Y2262254D1*
Y2352669D1*
X2465073Y2361700D1*
Y2510629D1*
X2522600D1*
X2411611Y2087272D2*
Y1987283D1*
X2530348Y1868545D1*
X2686944D1*
X2768073Y1787417D1*
X2392863Y2249755D2*
X2374115Y2231007D1*
Y1949787D1*
X2492201Y1831700D1*
X2623789D1*
X2668073Y1787417D1*
X922600Y2510629D2*
D16*
Y2568472D1*
X1075040D1*
X1327758D1*
X1615970D1*
X1874167D1*
X2112474D1*
X2315695D1*
X2568440D1*
X2690086D1*
X3299018D1*
Y2475944D1*
X3321419Y2453543D1*
D13*
Y2439369D1*
X3214726Y2332676D1*
X1327758Y2568472D2*
D18*
Y2515787D1*
X1322600Y2510629D1*
X1615970Y2568472D2*
Y2517259D1*
X1622600Y2510629D1*
X2112474Y2568472D2*
Y2520755D1*
X2122600Y2510629D1*
X2315695Y2568472D2*
Y2517535D1*
X2322600Y2510629D1*
X2568440Y2568472D2*
Y2464789D1*
X2622600Y2410629D1*
X1874167Y2568472D2*
Y2459062D1*
X1922600Y2410629D1*
X1075040Y2568472D2*
Y2458190D1*
X1122600Y2410629D1*
X505561Y1093700D2*
D14*
Y993700D1*
Y893700D1*
Y793700D1*
X518073Y2193700D2*
Y2093700D1*
Y1993700D1*
Y1893700D1*
Y1881057D1*
X495330Y1858314D1*
X436818Y1799802D1*
Y1162443D1*
X505561Y1093700D1*
X3298390Y984947D2*
Y918018D1*
X3416501Y799907D1*
X3321419Y2453543D2*
X3563931D1*
X3668073Y2349401D1*
Y1787417D1*
X3321419Y1936220D2*
D16*
Y1949787D1*
X3039703D1*
X2926224Y2120209D1*
X3005298Y2283805D1*
Y2312249D1*
X3030296D1*
X3155283Y2437235D1*
X3305112D1*
X3321419Y2453543D1*
X1361737Y1574826D2*
D14*
Y1722480D1*
Y2224742D1*
X1349222Y2237256D1*
X1111747D2*
Y2399776D1*
X1122600Y2410629D1*
X2018073Y643700D2*
X2042873D1*
X2117892Y568682D1*
Y543684D1*
X2690086Y2568472D2*
D13*
Y2539970D1*
X2699081Y2530976D1*
Y2349745D1*
X2542847Y2193511D1*
X922600Y2568472D2*
D16*
X649296D1*
Y2281002D1*
X536808D1*
X524309Y2268503D1*
Y2199936D1*
X518073Y2193700D1*
X495330Y1858314D2*
D14*
X547592Y1806052D1*
X574304D1*
X2074146Y1681065D2*
Y1474836D1*
X2142889Y1406094D1*
Y1331102D1*
X2105393Y1293606D1*
Y1093627D1*
X2067897Y1056130D1*
Y918645D1*
X2111642Y874899D1*
Y599928D1*
X2105393D1*
Y568682D1*
X2117892D1*
X2755325Y743663D2*
D17*
X2842815D1*
X2874062Y712417D1*
Y627700D1*
X2879073D1*
X2933073Y573700D1*
X2093073Y1373700D2*
X2097997D1*
X2061648Y1337351D1*
Y1124873D1*
X2030401Y1093627D1*
Y706167D1*
X2055398D1*
X2293073Y1273700D2*
X2306789Y1287417D1*
X2368073D1*
X3533073Y893700D2*
Y733700D1*
X2753073Y1593700D2*
X2691073Y1531700D1*
X2512356D1*
X2368073Y1387417D1*
X3049044Y1356099D2*
Y1299855D1*
X3011548Y1262359D1*
Y1114175D1*
X2997073Y1099700D1*
X2743073D1*
X2679073Y1035700D1*
X2517073D1*
X2501073Y1019700D1*
Y937108D1*
X2393073Y829108D1*
Y573700D1*
X3068073Y2233700D2*
X3138025D1*
X3138577Y2234251D1*
X3214726D1*
X3595073D1*
X3611073Y2218251D1*
Y1649700D1*
X3646073Y1614700D1*
Y1532417D1*
X3068073Y2133700D2*
X3105262D1*
X3127073Y2155511D1*
X3214726D1*
X3495073D1*
X3511073Y2139511D1*
Y1577417D1*
X3646073Y1442417D1*
X3568073Y1287417D2*
D19*
Y1268941D1*
X3517745Y1218613D1*
D13*
Y1137372D1*
D19*
X3480249Y1099876D1*
X3180280D1*
Y1024884D1*
X3099039Y943642D1*
X2961553D1*
X2949054Y931144D1*
X2018073Y543700D2*
D16*
X2042884D1*
X2099144Y487440D1*
X2561595D1*
X2636587Y562432D1*
Y874899D1*
X2667834Y906146D1*
X2924057D1*
X2949054Y931144D1*
D14*
X768033Y987388D3*
X2836566Y662422D3*
X2749075Y681170D3*
X1349222Y2237256D3*
X1111747D3*
X2542847Y2193511D3*
X574304Y1806052D3*
X2074146Y1681065D3*
X1361737Y1722480D3*
D53*
X2814333Y531495D3*
X530868D3*
Y2460629D3*
X2814333D3*
D14*
X2117892Y543684D3*
X3273073Y1293700D3*
X2773073Y2273700D3*
X2942805Y2368493D3*
X2961553Y1362348D3*
X2213073Y533700D3*
X2433073Y1273700D3*
X2442857Y1393595D3*
X2773073Y1493700D3*
X3093073Y693700D3*
X3253073Y1573700D3*
X3053073D3*
X2955304Y1468587D3*
X2253073Y593700D3*
X2613073Y1133700D3*
X2433073Y533700D3*
Y773700D3*
X2313073D3*
X2933073Y1573700D3*
X2230380Y706167D3*
X2473073Y573700D3*
X2474104Y706167D3*
X3442752Y1262359D3*
X2553073Y573700D3*
X2173073Y2333700D3*
X2193073Y593700D3*
X3353073Y1653700D3*
X3073073D3*
X1961658Y2324747D3*
X2273073Y2333700D3*
X2367865Y2343495D3*
X1513073Y873700D3*
Y2233700D3*
X2813073Y2093700D3*
X3313073Y1613700D3*
X3173073D3*
X2213073Y2233700D3*
X1213073Y2073700D3*
X1113073Y1093700D3*
X1413073D3*
X2880312Y1887293D3*
X2073073Y2093700D3*
X1424214Y1743558D3*
X1999154Y1731060D3*
X2033073Y2053700D3*
X2313073Y1833700D3*
X1893073D3*
Y1493700D3*
X1873073Y2313700D3*
X1173073D3*
X1873073Y2033700D3*
X1433073D3*
Y1933700D3*
X3313073Y1433700D3*
X1980406Y987388D3*
X1553073Y1093700D3*
Y1893700D3*
X1611695Y1806052D3*
X2424109Y1837298D3*
X1613073Y1873700D3*
X813073Y1893700D3*
X1711684Y1593574D3*
X724288D3*
X1717934Y1812301D3*
X1813073Y1213700D3*
X2261627Y874899D3*
X1753073Y873700D3*
X1613073Y833700D3*
X1713073D3*
X1613073Y1173700D3*
X1073073Y733700D3*
Y1173700D3*
X1133073Y893700D3*
Y1013700D3*
X1886666Y1362348D3*
X1974157Y1368598D3*
X1893073Y1033700D3*
X2799070Y1937288D3*
X1133073Y2113700D3*
X1373073Y973700D3*
X953073D3*
X924267Y2093522D3*
X2699081Y2274752D3*
X2880312Y2362243D3*
X2773073Y993700D3*
X1553073Y813700D3*
X1533073Y973700D3*
X3067792Y1443590D3*
X3213073Y1293700D3*
X1853073Y793700D3*
X973073Y2313700D3*
X980511Y1787304D3*
X1886666Y1762306D3*
X1853073Y1133700D3*
X1473073Y735700D3*
X1053073Y1273700D3*
X2293073Y1333700D3*
X1999154Y1306104D3*
X1392968Y1374847D3*
X1355472Y1424842D3*
X2493073Y1693700D3*
X1233073Y1993700D3*
X2530348Y1993532D3*
X2411611Y2087272D3*
X1173073Y2013700D3*
X2392863Y2249755D3*
X2933073Y573700D3*
X2755325Y743663D3*
X2055398Y706167D3*
X2093073Y1373700D3*
X2293073Y1273700D3*
X2393073Y573700D3*
X3049044Y1356099D3*
X3533073Y733700D3*
Y893700D3*
X2753073Y1593700D3*
X615232Y2531056D2*
D19*
X665745D1*
X2690845D2*
X2729947D1*
X2898722D2*
X3265052D1*
X3377812D2*
X3674634D1*
X631272Y2506187D2*
X664489D1*
X2699063D2*
X2713907D1*
X2914763D2*
X3240579D1*
X3402285D2*
X3689562D1*
X639382Y2481318D2*
X670841D1*
X2922837D2*
X3228701D1*
X3414127D2*
X3694657D1*
X641284Y2456449D2*
X687276D1*
X1057935D2*
X1087277D1*
X1857938D2*
X1887279D1*
X2557930D2*
X2587272D1*
X2924738D2*
X3224575D1*
X3418290D2*
X3695160D1*
X637373Y2431581D2*
X665925D1*
X2920863D2*
X3227122D1*
X3415742D2*
X3695160D1*
X626930Y2406712D2*
X664489D1*
X2699063D2*
X2718249D1*
X2995000D2*
X3236955D1*
X3405874D2*
X3695160D1*
X438718Y2381843D2*
X454495D1*
X607230D2*
X670374D1*
X2699063D2*
X2737949D1*
X3013803D2*
X3183380D1*
X3385312D2*
X3695160D1*
X438718Y2356974D2*
X498058D1*
X563703D2*
X697826D1*
X1054598D2*
X1097827D1*
X2693680D2*
X2737088D1*
X3014305D2*
X3160665D1*
X3268796D2*
X3695160D1*
X438718Y2332106D2*
X698794D1*
X1054598D2*
X1128974D1*
X2669423D2*
X2712220D1*
X2998265D2*
X3155246D1*
X3274215D2*
X3695160D1*
X438718Y2307237D2*
X698794D1*
X1054598D2*
X1125529D1*
X2644555D2*
X2664710D1*
X2973397D2*
X3161239D1*
X3268222D2*
X3695160D1*
X438718Y2282368D2*
X692658D1*
X1054598D2*
X1137586D1*
X1208577D2*
X1249078D1*
X1333311D2*
X1353645D1*
X2619687D2*
X2651720D1*
X2948530D2*
X3010561D1*
X3125618D2*
X3181693D1*
X3247768D2*
X3695160D1*
X438718Y2257499D2*
X692551D1*
X1054598D2*
X1249078D1*
X1333311D2*
X1378513D1*
X2594819D2*
X2654483D1*
X2923662D2*
X3010561D1*
X3615724D2*
X3695160D1*
X438718Y2232630D2*
X460559D1*
X659477D2*
X692551D1*
X1054598D2*
X1249078D1*
X1333311D2*
X1403380D1*
X2569952D2*
X2667078D1*
X2898292D2*
X3010561D1*
X3639336D2*
X3695160D1*
X438718Y2207762D2*
X460559D1*
X673759D2*
X692551D1*
X1054598D2*
X1249078D1*
X1333311D2*
X1428248D1*
X2545084D2*
X2667078D1*
X2731072D2*
X3010561D1*
X3643068D2*
X3695160D1*
X438718Y2182893D2*
X460559D1*
X674513D2*
X692551D1*
X1054598D2*
X1249078D1*
X1333311D2*
X1433057D1*
X2520216D2*
X2667078D1*
X2731072D2*
X3010561D1*
X3643068D2*
X3695160D1*
X438718Y2158024D2*
X460559D1*
X666080D2*
X692551D1*
X1054598D2*
X1120290D1*
X1145852D2*
X1249078D1*
X1333311D2*
X1433057D1*
X2518601D2*
X2667078D1*
X2731072D2*
X3016231D1*
X3643068D2*
X3695160D1*
X438718Y2133155D2*
X477210D1*
X666080D2*
X692551D1*
X1054598D2*
X1076296D1*
X1333311D2*
X1433057D1*
X2518601D2*
X2667078D1*
X2731072D2*
X2787900D1*
X2838222D2*
X3010561D1*
X3643068D2*
X3695160D1*
X438718Y2108287D2*
X462497D1*
X673616D2*
X692551D1*
X1333311D2*
X1433057D1*
X2518601D2*
X2667078D1*
X2731072D2*
X2767482D1*
X2878520D2*
X3016769D1*
X3122747D2*
X3155246D1*
X3274215D2*
X3479065D1*
X3643068D2*
X3695160D1*
X438718Y2083418D2*
X461528D1*
X674621D2*
X692551D1*
X1333311D2*
X1433057D1*
X2518601D2*
X2667078D1*
X2731072D2*
X2766262D1*
X2903387D2*
X3041996D1*
X3094148D2*
X3155246D1*
X3274215D2*
X3479065D1*
X3643068D2*
X3695160D1*
X438718Y2058549D2*
X473226D1*
X666080D2*
X692551D1*
X1333311D2*
X1392472D1*
X2518601D2*
X2667078D1*
X2731072D2*
X2781692D1*
X2928255D2*
X3016482D1*
X3119661D2*
X3155246D1*
X3274215D2*
X3479065D1*
X3643068D2*
X3695160D1*
X438718Y2033680D2*
X477748D1*
X666080D2*
X692551D1*
X1333311D2*
X1385079D1*
X2554270D2*
X2667078D1*
X2731072D2*
X2864692D1*
X2953123D2*
X3010561D1*
X3125618D2*
X3155246D1*
X3274215D2*
X3479065D1*
X3643068D2*
X3695160D1*
X438718Y2008812D2*
X462676D1*
X673472D2*
X692551D1*
X1333311D2*
X1392472D1*
X2575693D2*
X2667078D1*
X2977991D2*
X3016482D1*
X3119661D2*
X3155246D1*
X3384271D2*
X3479065D1*
X3643068D2*
X3695160D1*
X438718Y1983943D2*
X461421D1*
X674728D2*
X692551D1*
X1333311D2*
X1401084D1*
X2584162D2*
X2667257D1*
X3002858D2*
X3042068D1*
X3094076D2*
X3237457D1*
X3405371D2*
X3479065D1*
X3643068D2*
X3695160D1*
X438718Y1959074D2*
X472796D1*
X666080D2*
X692551D1*
X1333311D2*
X1392795D1*
X3027726D2*
X3227338D1*
X3415491D2*
X3479065D1*
X3643068D2*
X3695160D1*
X438718Y1934205D2*
X478322D1*
X666080D2*
X692551D1*
X1333311D2*
X1385079D1*
X2115801D2*
X2141088D1*
X3146287D2*
X3224539D1*
X3418290D2*
X3479065D1*
X3643068D2*
X3695160D1*
X438718Y1909336D2*
X462820D1*
X673329D2*
X692551D1*
X1333311D2*
X1392149D1*
X2090934D2*
X2141088D1*
X3171227D2*
X3228414D1*
X3414414D2*
X3479065D1*
X3643068D2*
X3695160D1*
X438718Y1884468D2*
X461313D1*
X1333311D2*
X1433057D1*
X2068649D2*
X2141088D1*
X3196095D2*
X3239969D1*
X3402859D2*
X3479065D1*
X3643068D2*
X3695160D1*
X438718Y1859599D2*
X472401D1*
X1333311D2*
X1433057D1*
X2068649D2*
X2141088D1*
X3379068D2*
X3479065D1*
X3643068D2*
X3695160D1*
X438718Y1834730D2*
X617266D1*
X1333311D2*
X1433057D1*
X2068649D2*
X2149807D1*
X3401388D2*
X3434748D1*
X438718Y1809861D2*
X628067D1*
X1333311D2*
X1433057D1*
X2068649D2*
X2159066D1*
X438718Y1784993D2*
X479183D1*
X556956D2*
X579192D1*
X1333311D2*
X1402914D1*
X2068649D2*
X2159066D1*
X438718Y1760124D2*
X463071D1*
X1333311D2*
X1379338D1*
X2068649D2*
X2159066D1*
X438718Y1735255D2*
X461205D1*
X1333311D2*
X1376970D1*
X2068649D2*
X2159066D1*
X438718Y1710386D2*
X471791D1*
X1333311D2*
X1390570D1*
X2068649D2*
X2159066D1*
X3643068D2*
X3695160D1*
X438718Y1685518D2*
X479793D1*
X1333311D2*
X1404708D1*
X2068649D2*
X2159066D1*
X3643068D2*
X3695160D1*
X438718Y1660649D2*
X463215D1*
X1333311D2*
X1404708D1*
X2068649D2*
X2159066D1*
X3644360D2*
X3695160D1*
X438718Y1635780D2*
X461133D1*
X1333311D2*
X1404708D1*
X2068649D2*
X2159066D1*
X3669228D2*
X3695160D1*
X438718Y1610911D2*
X471396D1*
X2068649D2*
X2091603D1*
X3678055D2*
X3695160D1*
X438718Y1586043D2*
X480439D1*
X2068649D2*
X2091603D1*
X3680675D2*
X3695160D1*
X438718Y1561174D2*
X463394D1*
X2068649D2*
X2091603D1*
X438718Y1536305D2*
X461062D1*
X2068649D2*
X2091603D1*
X438718Y1511436D2*
X471002D1*
X2068649D2*
X2159066D1*
X438718Y1486567D2*
X481085D1*
X2068649D2*
X2159066D1*
X438718Y1461699D2*
X463574D1*
X2068649D2*
X2159066D1*
X438718Y1436830D2*
X460990D1*
X2068649D2*
X2159066D1*
X438718Y1411961D2*
X470607D1*
X2120179D2*
X2159066D1*
X438718Y1387092D2*
X481731D1*
X2139054D2*
X2159066D1*
X438718Y1362224D2*
X463753D1*
X2139592D2*
X2159066D1*
X438718Y1337355D2*
X460918D1*
X2122942D2*
X2159066D1*
X438718Y1312486D2*
X470248D1*
X2093661D2*
X2159066D1*
X438718Y1287617D2*
X628067D1*
X2093661D2*
X2159066D1*
X438718Y1262749D2*
X628067D1*
X2093661D2*
X2159066D1*
X438718Y1237880D2*
X628067D1*
X2093661D2*
X2159066D1*
X438718Y1213011D2*
X628067D1*
X2093661D2*
X2159066D1*
X438718Y1188142D2*
X628067D1*
X2093661D2*
X2159066D1*
X438718Y1163273D2*
X628067D1*
X2093661D2*
X2159066D1*
X2093661Y1138405D2*
X2159066D1*
X2091400Y1113536D2*
X2159066D1*
X3549841D2*
X3581084D1*
X2069654Y1088667D2*
X2153073D1*
X3525296D2*
X3581084D1*
X2062406Y1063798D2*
X2153073D1*
X3494687D2*
X3581084D1*
X2062406Y1038930D2*
X2085539D1*
X3397297D2*
X3581084D1*
X438718Y1014061D2*
X451965D1*
X2062406D2*
X2085539D1*
X3407488D2*
X3581084D1*
X2062406Y989192D2*
X2085539D1*
X3411292D2*
X3581084D1*
X438718Y964323D2*
X456540D1*
X2062406D2*
X2085539D1*
X3409462D2*
X3581084D1*
X438718Y939455D2*
X472473D1*
X2062406D2*
X2085539D1*
X3151096D2*
X3195186D1*
X3401603D2*
X3581084D1*
X438718Y914586D2*
X452162D1*
X2062406D2*
X2123397D1*
X3126013D2*
X3210687D1*
X3386101D2*
X3490154D1*
X2062406Y889717D2*
X2123397D1*
X3059627D2*
X3113405D1*
X438718Y864848D2*
X456217D1*
X2062406D2*
X2123397D1*
X3272169D2*
X3324584D1*
X438718Y839980D2*
X473298D1*
X2062406D2*
X2123397D1*
X3285769D2*
X3311020D1*
X3565056D2*
X3581084D1*
X438718Y815111D2*
X452378D1*
X2062406D2*
X2123397D1*
X3565056D2*
X3581084D1*
X2062406Y790242D2*
X2123397D1*
X3565056D2*
X3581084D1*
X438718Y765373D2*
X455894D1*
X2062406D2*
X2123397D1*
X3287743D2*
X3309046D1*
X3568250D2*
X3581084D1*
X438718Y740504D2*
X488980D1*
X522149D2*
X588989D1*
X2087740D2*
X2123397D1*
X3275937D2*
X3320816D1*
X438718Y715636D2*
X607218D1*
X2102416D2*
X2123397D1*
X438718Y690767D2*
X594407D1*
X2100730D2*
X2123397D1*
X438718Y665898D2*
X594084D1*
X2079092D2*
X2123397D1*
X438718Y641029D2*
X594084D1*
X2081029D2*
X2123397D1*
X438718Y616161D2*
X461313D1*
X2074427D2*
X2123397D1*
X2057920Y591292D2*
X2123397D1*
X2079953Y566423D2*
X2123468D1*
X2104821Y541554D2*
X2138289D1*
X3290439Y791238D2*
X3289420Y782621D1*
X3287727Y774112D1*
X3285372Y765761D1*
X3282369Y757621D1*
X3278736Y749741D1*
X3274497Y742171D1*
X3269676Y734957D1*
X3264305Y728143D1*
X3259727Y723191D1*
X3336978Y723200D1*
X3330635Y730356D1*
X3324135Y739253D1*
X3318554Y748754D1*
X3313946Y758764D1*
X3310358Y769182D1*
X3307826Y779906D1*
X3306374Y790829D1*
X3306017Y801843D1*
X3306760Y812837D1*
X3308593Y823702D1*
X3311499Y834331D1*
X3315450Y844618D1*
X3320405Y854459D1*
X3326316Y863759D1*
X3333124Y872423D1*
X3340761Y880367D1*
X3346705Y885570D1*
X3337010Y881415D1*
X3326506Y878084D1*
X3315723Y875815D1*
X3304768Y874631D1*
X3293749Y874544D1*
X3282777Y875555D1*
X3271960Y877654D1*
X3261405Y880820D1*
X3251218Y885021D1*
X3250087Y885567D1*
X3258415Y878043D1*
X3264305Y871671D1*
X3269676Y864858D1*
X3274497Y857643D1*
X3278736Y850073D1*
X3282369Y842194D1*
X3285372Y834054D1*
X3287727Y825703D1*
X3289420Y817193D1*
X3290439Y808577D1*
X3290780Y799907D1*
X3290439Y791238D1*
X3076584Y837838D2*
X3078191Y842194D1*
X3081824Y850073D1*
X3086063Y857643D1*
X3090884Y864858D1*
X3096255Y871671D1*
X3102145Y878043D1*
X3108516Y883932D1*
X3115330Y889304D1*
X3122544Y894124D1*
X3130114Y898364D1*
X3137994Y901996D1*
X3146134Y904999D1*
X3154484Y907354D1*
X3162994Y909047D1*
X3171610Y910067D1*
X3180280Y910407D1*
X3188950Y910067D1*
X3197566Y909047D1*
X3206076Y907354D1*
X3214426Y904999D1*
X3222567Y901996D1*
X3228753Y899144D1*
X3221183Y905895D1*
X3213693Y913977D1*
X3207046Y922765D1*
X3201307Y932172D1*
X3196534Y942104D1*
X3192773Y952461D1*
X3190063Y963142D1*
X3188430Y974039D1*
X3188058Y978926D1*
X3123718Y914747D1*
X3118894Y911242D1*
X3113581Y908535D1*
X3107910Y906692D1*
X3102020Y905759D1*
X3053107Y905642D1*
X3004053D1*
X3004172Y897903D1*
X3034643Y897763D1*
X3041694Y896646D1*
X3048485Y894440D1*
X3054846Y891199D1*
X3060623Y887002D1*
X3065671Y881953D1*
X3069868Y876177D1*
X3073109Y869816D1*
X3075316Y863025D1*
X3076433Y855973D1*
X3076573Y838086D1*
X3368193Y899286D2*
X3377973Y903473D1*
X3388479Y906795D1*
X3399264Y909055D1*
X3410221Y910229D1*
X3421239Y910306D1*
X3432211Y909285D1*
X3443026Y907176D1*
X3453578Y904001D1*
X3463761Y899791D1*
X3473474Y894587D1*
X3482621Y888442D1*
X3488721Y883536D1*
X3487713Y890130D1*
Y897270D1*
X3488830Y904322D1*
X3491036Y911112D1*
X3494278Y917474D1*
X3498474Y923250D1*
X3503523Y928298D1*
X3509299Y932495D1*
X3515661Y935737D1*
X3522451Y937943D1*
X3529503Y939060D1*
X3536643D1*
X3543694Y937943D1*
X3550485Y935737D1*
X3556846Y932495D1*
X3562623Y928298D1*
X3567671Y923250D1*
X3571868Y917474D1*
X3575109Y911112D1*
X3577316Y904322D1*
X3578432Y897270D1*
Y890130D1*
X3577316Y883078D1*
X3575109Y876288D1*
X3571868Y869926D1*
X3567671Y864150D1*
X3562568Y859058D1*
X3562623Y768298D1*
X3567671Y763250D1*
X3571868Y757474D1*
X3575109Y751112D1*
X3577316Y744322D1*
X3578432Y737270D1*
Y730130D1*
X3577340Y723201D1*
X3583574Y723200D1*
X3583573Y1133098D1*
X3576907Y1131642D1*
X3568073Y1130947D1*
X3559239Y1131642D1*
X3555417Y1132402D1*
X3553885Y1125629D1*
X3551603Y1120120D1*
X3548487Y1115036D1*
X3544615Y1110502D1*
X3504928Y1070980D1*
X3500104Y1067475D1*
X3494791Y1064768D1*
X3489120Y1062926D1*
X3483230Y1061993D1*
X3434317Y1061876D1*
X3377727D1*
X3384317Y1054422D1*
X3390809Y1045519D1*
X3396383Y1036013D1*
X3400981Y1025999D1*
X3404560Y1015578D1*
X3407083Y1004851D1*
X3408525Y993927D1*
X3408875Y983110D1*
X3408143Y972115D1*
X3406319Y961248D1*
X3403422Y950616D1*
X3399481Y940326D1*
X3394534Y930480D1*
X3388631Y921175D1*
X3381831Y912505D1*
X3374201Y904554D1*
X3368184Y899283D1*
X2097232Y1048728D2*
X2155543D1*
X2155663Y1094379D1*
X2156388Y1098952D1*
X2157818Y1103354D1*
X2159920Y1107479D1*
X2161212Y1109412D1*
X2161573Y1125624D1*
Y1519812D1*
X2094111Y1519798D1*
Y1629853D1*
X2161537D1*
X2161573Y1825473D1*
X2150641Y1836541D1*
X2147920Y1840286D1*
X2145818Y1844411D1*
X2144388Y1848813D1*
X2143664Y1853385D1*
X2143573Y1938377D1*
X2143523Y2299102D1*
X2138474Y2304150D1*
X2134580Y2309474D1*
X2134482Y1965385D1*
X2133758Y1960813D1*
X2132327Y1956411D1*
X2130226Y1952286D1*
X2127505Y1948541D1*
X2066126Y1887034D1*
X2066150Y1410355D1*
X2072416Y1414241D1*
X2079012Y1416973D1*
X2085955Y1418640D1*
X2093073Y1419200D1*
X2100190Y1418640D1*
X2107133Y1416973D1*
X2113729Y1414241D1*
X2119817Y1410510D1*
X2125246Y1405873D1*
X2129883Y1400444D1*
X2133614Y1394357D1*
X2136346Y1387760D1*
X2138013Y1380818D1*
X2138573Y1373700D1*
X2138013Y1366582D1*
X2136346Y1359640D1*
X2133614Y1353043D1*
X2129883Y1346956D1*
X2125246Y1341527D1*
X2119817Y1336890D1*
X2113729Y1333159D1*
X2107133Y1330427D1*
X2100190Y1328760D1*
X2094258Y1328247D1*
X2091123Y1325107D1*
X2091057Y1122559D1*
X2090333Y1117987D1*
X2088902Y1113584D1*
X2086801Y1109459D1*
X2084080Y1105714D1*
X2059899Y1081405D1*
X2059901Y751471D1*
X2066020Y750410D1*
X2072810Y748204D1*
X2079172Y744962D1*
X2084948Y740766D1*
X2089997Y735717D1*
X2094193Y729941D1*
X2097435Y723579D1*
X2099641Y716789D1*
X2100758Y709737D1*
Y702597D1*
X2099641Y695545D1*
X2097435Y688755D1*
X2094193Y682394D1*
X2089997Y676617D1*
X2084948Y671569D1*
X2079172Y667372D1*
X2074699Y665001D1*
X2076840Y658077D1*
X2078149Y650850D1*
X2078573Y643700D1*
X2078127Y636369D1*
X2076796Y629146D1*
X2074600Y622138D1*
X2071570Y615447D1*
X2067753Y609172D1*
X2063203Y603407D1*
X2057988Y598235D1*
X2052131Y593698D1*
X2057364Y589705D1*
X2064077Y582992D1*
X2069657Y575311D1*
X2071522Y572338D1*
X2115901Y527959D1*
X2154441Y527940D1*
X2132956Y549523D1*
X2130235Y553268D1*
X2128133Y557392D1*
X2126703Y561795D1*
X2125979Y566367D1*
X2125888Y651359D1*
Y938683D1*
X2088045Y938672D1*
Y1048728D1*
X2097232D1*
X630578Y1288672D2*
X563045D1*
Y1311961D1*
X556983Y1304790D1*
X550417Y1299182D1*
X543055Y1294670D1*
X535077Y1291366D1*
X526681Y1289350D1*
X518073Y1288672D1*
X509464Y1289350D1*
X501068Y1291366D1*
X493091Y1294670D1*
X485728Y1299182D1*
X479162Y1304790D1*
X473554Y1311356D1*
X469043Y1318718D1*
X465738Y1326696D1*
X463723Y1335092D1*
X463045Y1343700D1*
X463723Y1352308D1*
X465738Y1360704D1*
X469043Y1368682D1*
X473554Y1376044D1*
X479162Y1382610D1*
X485728Y1388218D1*
X493091Y1392730D1*
X495129Y1393670D1*
X489321Y1396781D1*
X482335Y1401857D1*
X476229Y1407962D1*
X471154Y1414948D1*
X467234Y1422642D1*
X464566Y1430854D1*
X463215Y1439383D1*
Y1448017D1*
X464566Y1456546D1*
X467234Y1464758D1*
X471154Y1472452D1*
X476229Y1479438D1*
X482335Y1485543D1*
X489321Y1490619D1*
X495129Y1493670D1*
X489321Y1496781D1*
X482335Y1501857D1*
X476229Y1507962D1*
X471154Y1514948D1*
X467234Y1522642D1*
X464566Y1530854D1*
X463215Y1539383D1*
Y1548017D1*
X464566Y1556546D1*
X467234Y1564758D1*
X471154Y1572452D1*
X476229Y1579438D1*
X482335Y1585543D1*
X489321Y1590619D1*
X495129Y1593670D1*
X489321Y1596781D1*
X482335Y1601857D1*
X476229Y1607962D1*
X471154Y1614948D1*
X467234Y1622642D1*
X464566Y1630854D1*
X463215Y1639383D1*
Y1648017D1*
X464566Y1656546D1*
X467234Y1664758D1*
X471154Y1672452D1*
X476229Y1679438D1*
X482335Y1685543D1*
X489321Y1690619D1*
X495129Y1693670D1*
X489321Y1696781D1*
X482335Y1701857D1*
X476229Y1707962D1*
X471154Y1714948D1*
X467234Y1722642D1*
X464566Y1730854D1*
X463215Y1739383D1*
Y1748017D1*
X464566Y1756546D1*
X467234Y1764758D1*
X471154Y1772452D1*
X476229Y1779438D1*
X482335Y1785543D1*
X489321Y1790619D1*
X497015Y1794539D1*
X505227Y1797207D1*
X513755Y1798558D1*
X522390D1*
X530919Y1797207D1*
X539131Y1794539D1*
X546825Y1790619D1*
X553810Y1785543D1*
X559916Y1779438D1*
X564991Y1772452D1*
X568042Y1766643D1*
X571154Y1772452D1*
X576229Y1779438D1*
X582335Y1785543D1*
X589321Y1790619D1*
X597015Y1794539D1*
X605227Y1797207D1*
X613755Y1798558D1*
X622390D1*
X630571Y1797276D1*
X630573Y1823892D1*
X615767Y1838730D1*
X609464Y1839350D1*
X601068Y1841366D1*
X593091Y1844670D1*
X585728Y1849182D1*
X579162Y1854790D1*
X573554Y1861356D1*
X569043Y1868718D1*
X567998Y1870558D1*
X564472Y1864117D1*
X560119Y1858202D1*
X555018Y1852919D1*
X549259Y1848363D1*
X542944Y1844614D1*
X536187Y1841739D1*
X529106Y1839790D1*
X521830Y1838801D1*
X514486Y1838789D1*
X507206Y1839756D1*
X500120Y1841683D1*
X493354Y1844537D1*
X487027Y1848266D1*
X481254Y1852805D1*
X476137Y1858072D1*
X471766Y1863973D1*
X468220Y1870404D1*
X465562Y1877249D1*
X463839Y1884388D1*
X463082Y1891692D1*
X463304Y1899033D1*
X464502Y1906278D1*
X466654Y1913299D1*
X469721Y1919971D1*
X473650Y1926176D1*
X478370Y1931802D1*
X483797Y1936749D1*
X489835Y1940930D1*
X495009Y1943739D1*
X488561Y1947255D1*
X482640Y1951598D1*
X477349Y1956691D1*
X472784Y1962444D1*
X469025Y1968752D1*
X466140Y1975506D1*
X464180Y1982583D1*
X463179Y1989858D1*
X463157Y1997201D1*
X464112Y2004483D1*
X466028Y2011572D1*
X468871Y2018343D1*
X472591Y2024675D1*
X477120Y2030455D1*
X482379Y2035581D1*
X488274Y2039961D1*
X495098Y2043696D1*
X488561Y2047255D1*
X482640Y2051598D1*
X477349Y2056691D1*
X472784Y2062444D1*
X469025Y2068752D1*
X466140Y2075506D1*
X464180Y2082583D1*
X463179Y2089858D1*
X463157Y2097201D1*
X464112Y2104483D1*
X466028Y2111572D1*
X468871Y2118343D1*
X472591Y2124675D1*
X477120Y2130455D1*
X482379Y2135581D1*
X486367Y2138668D1*
X463045Y2138672D1*
Y2248727D1*
X573100D1*
Y2225410D1*
X576229Y2229438D1*
X582335Y2235543D1*
X589321Y2240619D1*
X597015Y2244539D1*
X605227Y2247207D1*
X613755Y2248558D1*
X622390D1*
X630919Y2247207D1*
X639131Y2244539D1*
X646825Y2240619D1*
X653810Y2235543D1*
X659916Y2229438D1*
X664991Y2222452D1*
X668912Y2214758D1*
X671580Y2206546D1*
X672931Y2198017D1*
Y2189383D1*
X671580Y2180854D1*
X668912Y2172642D1*
X664991Y2164948D1*
X663576Y2162829D1*
X663573Y2124623D1*
X667103Y2118682D1*
X670407Y2110704D1*
X672423Y2102308D1*
X673100Y2093700D1*
X672423Y2085092D1*
X670407Y2076696D1*
X667103Y2068718D1*
X663576Y2062829D1*
X663573Y2024623D1*
X667103Y2018682D1*
X670407Y2010704D1*
X672423Y2002308D1*
X673100Y1993700D1*
X672423Y1985092D1*
X670407Y1976696D1*
X667103Y1968718D1*
X663576Y1962829D1*
X663573Y1924623D1*
X667103Y1918682D1*
X670407Y1910704D1*
X672423Y1902308D1*
X673008Y1896044D1*
X695048Y1874001D1*
X695147Y2282422D1*
X696018Y2287924D1*
X697740Y2293222D1*
X700275Y2298195D1*
X701286Y2304259D1*
Y2356614D1*
X696801Y2358769D1*
X693564Y2361121D1*
X673092Y2381593D1*
X670740Y2384830D1*
X668923Y2388396D1*
X667687Y2392201D1*
X667061Y2396153D1*
Y2425105D1*
X667687Y2429057D1*
X668923Y2432863D1*
X670740Y2436428D1*
X673092Y2439665D1*
X693570Y2460142D1*
X693564Y2461121D1*
X673092Y2481593D1*
X670740Y2484830D1*
X668923Y2488396D1*
X667687Y2492201D1*
X667061Y2496153D1*
Y2525105D1*
X667687Y2529057D1*
X668923Y2532863D1*
X670740Y2536428D1*
X673092Y2539665D1*
X689241Y2555926D1*
X581660Y2555924D1*
X587298Y2552714D1*
X594349Y2548003D1*
X601008Y2542753D1*
X607236Y2536997D1*
X612992Y2530770D1*
X618242Y2524110D1*
X622953Y2517059D1*
X627097Y2509660D1*
X630647Y2501959D1*
X633582Y2494003D1*
X635884Y2485841D1*
X637538Y2477524D1*
X638535Y2469103D1*
X638868Y2460629D1*
X638535Y2452156D1*
X637538Y2443734D1*
X635884Y2435417D1*
X633582Y2427255D1*
X630647Y2419299D1*
X627097Y2411598D1*
X622953Y2404199D1*
X618242Y2397148D1*
X612992Y2390489D1*
X607236Y2384262D1*
X601008Y2378505D1*
X594349Y2373255D1*
X587298Y2368544D1*
X579899Y2364400D1*
X572198Y2360850D1*
X564242Y2357915D1*
X556080Y2355613D1*
X547763Y2353959D1*
X539342Y2352962D1*
X530868Y2352629D1*
X522394Y2352962D1*
X513973Y2353959D1*
X505656Y2355613D1*
X497494Y2357915D1*
X489538Y2360850D1*
X481837Y2364400D1*
X474438Y2368544D1*
X467387Y2373255D1*
X460728Y2378505D1*
X454500Y2384262D1*
X448744Y2390489D1*
X443494Y2397148D1*
X438783Y2404199D1*
X436209Y2408795D1*
X436200Y583483D1*
X443494Y594976D1*
X448744Y601636D1*
X454500Y607863D1*
X460728Y613619D1*
X467387Y618869D1*
X474438Y623580D1*
X481837Y627724D1*
X489538Y631274D1*
X497494Y634209D1*
X505656Y636511D1*
X513973Y638166D1*
X522394Y639162D1*
X530868Y639495D1*
X539342Y639162D1*
X547763Y638166D1*
X556080Y636511D1*
X564242Y634209D1*
X572198Y631274D1*
X579899Y627724D1*
X587298Y623580D1*
X596560Y617126D1*
X596697Y688878D1*
X597692Y695155D1*
X599655Y701199D1*
X602541Y706861D1*
X606276Y712003D1*
X630586Y736489D1*
X630543Y744670D1*
X622565Y741366D1*
X614169Y739350D1*
X605561Y738672D1*
X596953Y739350D1*
X588556Y741366D1*
X580579Y744670D1*
X573217Y749182D1*
X566651Y754790D1*
X561043Y761356D1*
X556531Y768718D1*
X555486Y770558D1*
X551960Y764117D1*
X547607Y758202D1*
X542506Y752919D1*
X536747Y748363D1*
X530432Y744614D1*
X523675Y741739D1*
X516595Y739790D1*
X509318Y738801D1*
X501974Y738789D1*
X494695Y739756D1*
X487608Y741683D1*
X480842Y744537D1*
X474516Y748266D1*
X468742Y752805D1*
X463625Y758072D1*
X459254Y763973D1*
X455708Y770404D1*
X453050Y777249D1*
X451327Y784388D1*
X450570Y791692D1*
X450792Y799033D1*
X451990Y806278D1*
X454142Y813299D1*
X457210Y819971D1*
X461138Y826176D1*
X465858Y831802D1*
X471285Y836749D1*
X477323Y840930D1*
X482497Y843739D1*
X476050Y847255D1*
X470128Y851598D1*
X464837Y856691D1*
X460272Y862444D1*
X456513Y868752D1*
X453628Y875506D1*
X451668Y882583D1*
X450668Y889858D1*
X450645Y897201D1*
X451600Y904483D1*
X453516Y911572D1*
X456360Y918343D1*
X460079Y924675D1*
X464609Y930455D1*
X469867Y935581D1*
X475762Y939961D1*
X482587Y943696D1*
X476050Y947255D1*
X470128Y951598D1*
X464837Y956691D1*
X460272Y962444D1*
X456513Y968752D1*
X453628Y975506D1*
X451668Y982583D1*
X450668Y989858D1*
X450645Y997201D1*
X451600Y1004483D1*
X453516Y1011572D1*
X456360Y1018343D1*
X460079Y1024675D1*
X464609Y1030455D1*
X469867Y1035581D1*
X473855Y1038668D1*
X450533Y1038672D1*
Y1148727D1*
X560589D1*
Y1125410D1*
X563718Y1129438D1*
X569823Y1135543D1*
X576809Y1140619D1*
X584503Y1144539D1*
X592715Y1147207D1*
X601243Y1148558D1*
X609878D1*
X618407Y1147207D1*
X626619Y1144539D1*
X630587Y1142705D1*
X630573Y1288644D1*
X3022232Y2288728D2*
X3123100D1*
X3123191Y2263200D1*
X3133962Y2263388D1*
X3138577Y2263751D1*
X3165956D1*
X3171386Y2271267D1*
X3177710Y2277591D1*
X3184946Y2282848D1*
X3185998Y2283438D1*
X3180078Y2287421D1*
X3174547Y2292252D1*
X3169682Y2297754D1*
X3165566Y2303836D1*
X3162265Y2310396D1*
X3159836Y2317327D1*
X3158318Y2324512D1*
X3157736Y2331833D1*
X3158101Y2339168D1*
X3159406Y2346395D1*
X3161629Y2353395D1*
X3164734Y2360050D1*
X3168669Y2366251D1*
X3173368Y2371895D1*
X3178754Y2376887D1*
X3184738Y2381145D1*
X3191219Y2384599D1*
X3198090Y2387191D1*
X3205238Y2388877D1*
X3212543Y2389631D1*
X3219885Y2389439D1*
X3227141Y2388304D1*
X3234190Y2386246D1*
X3240917Y2383298D1*
X3247209Y2379511D1*
X3252961Y2374945D1*
X3258079Y2369678D1*
X3262477Y2363796D1*
X3266082Y2357398D1*
X3268834Y2350589D1*
X3270688Y2343483D1*
X3271613Y2336198D1*
X3271604Y2329004D1*
X3270660Y2321721D1*
X3268787Y2314620D1*
X3266016Y2307819D1*
X3262394Y2301430D1*
X3257981Y2295560D1*
X3252849Y2290307D1*
X3247085Y2285756D1*
X3243466Y2283464D1*
X3248228Y2280362D1*
X3255029Y2274553D1*
X3260837Y2267753D1*
X3263486Y2263742D1*
X3597387Y2263660D1*
X3601959Y2262936D1*
X3606362Y2261506D1*
X3610486Y2259404D1*
X3614231Y2256683D1*
X3633505Y2237410D1*
X3636226Y2233665D1*
X3638327Y2229540D1*
X3639758Y2225138D1*
X3640482Y2220566D1*
X3640573Y2135574D1*
Y1836766D1*
X3646856Y1839749D1*
X3653827Y1842060D1*
X3661038Y1843447D1*
X3668369Y1843886D1*
X3675695Y1843370D1*
X3682892Y1841907D1*
X3689838Y1839523D1*
X3696416Y1836258D1*
X3697652Y1835514D1*
X3697657Y2477517D1*
X3694728Y2499773D1*
X3687214Y2517925D1*
X3675260Y2533511D1*
X3659679Y2545470D1*
X3641533Y2552989D1*
X3619287Y2555920D1*
X2865186Y2555923D1*
X2870762Y2552714D1*
X2877813Y2548003D1*
X2884473Y2542753D1*
X2890700Y2536997D1*
X2896456Y2530770D1*
X2901706Y2524110D1*
X2906418Y2517059D1*
X2910561Y2509660D1*
X2914112Y2501959D1*
X2917047Y2494003D1*
X2919348Y2485841D1*
X2921003Y2477524D1*
X2922000Y2469103D1*
X2922333Y2460629D1*
X2922000Y2452156D1*
X2921003Y2443734D1*
X2919348Y2435417D1*
X2917047Y2427255D1*
X2914112Y2419299D1*
X2910561Y2411598D1*
X2904228Y2400922D1*
X2908250Y2398112D1*
X2913255Y2403091D1*
X2919031Y2407288D1*
X2925393Y2410529D1*
X2932183Y2412736D1*
X2939235Y2413852D1*
X2967802Y2413993D1*
X2974920Y2413433D1*
X2981863Y2411766D1*
X2988459Y2409033D1*
X2994547Y2405303D1*
X2999976Y2400666D1*
X3004613Y2395237D1*
X3008343Y2389149D1*
X3011075Y2382553D1*
X3012742Y2375610D1*
X3013302Y2368493D1*
X3012742Y2361375D1*
X3011075Y2354432D1*
X3008343Y2347836D1*
X3004613Y2341748D1*
X2999976Y2336319D1*
X2897363Y2233905D1*
X2891587Y2229708D1*
X2885225Y2226467D1*
X2878435Y2224260D1*
X2871383Y2223143D1*
X2840254Y2223003D1*
X2769503Y2223143D1*
X2762451Y2224260D1*
X2755661Y2226467D1*
X2749299Y2229708D1*
X2743523Y2233905D1*
X2738474Y2238953D1*
X2734271Y2244742D1*
X2733679Y2245203D1*
X2728576Y2240111D1*
X2728581Y2016781D1*
X2884064Y2016783D1*
X2842146Y2058721D1*
X2836846Y2054905D1*
X2830485Y2051663D1*
X2823694Y2049457D1*
X2816643Y2048340D1*
X2809503D1*
X2802451Y2049457D1*
X2795661Y2051663D1*
X2789299Y2054905D1*
X2783523Y2059102D1*
X2778474Y2064150D1*
X2774278Y2069926D1*
X2771036Y2076288D1*
X2768830Y2083078D1*
X2767713Y2090130D1*
Y2097270D1*
X2768830Y2104322D1*
X2771036Y2111112D1*
X2774278Y2117474D1*
X2778474Y2123250D1*
X2783523Y2128298D1*
X2789299Y2132495D1*
X2795661Y2135737D1*
X2802451Y2137943D1*
X2809503Y2139060D1*
X2816643D1*
X2823694Y2137943D1*
X2830485Y2135737D1*
X2836846Y2132495D1*
X2842623Y2128298D1*
X2847714Y2123195D1*
X2853501Y2122837D1*
X2858002Y2121756D1*
X2862279Y2119985D1*
X2866226Y2117566D1*
X2869752Y2114553D1*
X3042517Y1941788D1*
X3126351Y1941700D1*
X3130923Y1940976D1*
X3135325Y1939545D1*
X3139450Y1937443D1*
X3143195Y1934723D1*
X3200845Y1877201D1*
X3247728Y1877200D1*
X3242071Y1885084D1*
X3237478Y1893036D1*
X3233680Y1901396D1*
X3230711Y1910085D1*
X3228601Y1919022D1*
X3227369Y1928122D1*
X3227028Y1937299D1*
X3227579Y1946465D1*
X3229019Y1955534D1*
X3231332Y1964420D1*
X3234499Y1973040D1*
X3238487Y1981311D1*
X3243261Y1989156D1*
X3248774Y1996499D1*
X3251916Y2000090D1*
X3157730D1*
Y2114082D1*
X3175565D1*
X3171386Y2118495D1*
X3165967Y2126020D1*
X3139262Y2126011D1*
X3124420Y2111268D1*
X3120675Y2108547D1*
X3116542Y2106442D1*
X3114991Y2104948D1*
X3109916Y2097962D1*
X3103810Y2091857D1*
X3096825Y2086781D1*
X3091016Y2083730D1*
X3096825Y2080619D1*
X3103810Y2075543D1*
X3109916Y2069438D1*
X3114991Y2062452D1*
X3118912Y2054758D1*
X3121580Y2046546D1*
X3122931Y2038017D1*
Y2029383D1*
X3121580Y2020854D1*
X3118912Y2012642D1*
X3114991Y2004948D1*
X3109916Y1997962D1*
X3103810Y1991857D1*
X3096825Y1986781D1*
X3089131Y1982861D1*
X3080919Y1980193D1*
X3072390Y1978842D1*
X3063755D1*
X3055227Y1980193D1*
X3047015Y1982861D1*
X3039321Y1986781D1*
X3032335Y1991857D1*
X3026229Y1997962D1*
X3021154Y2004948D1*
X3017234Y2012642D1*
X3014566Y2020854D1*
X3013215Y2029383D1*
Y2038017D1*
X3014566Y2046546D1*
X3017234Y2054758D1*
X3021154Y2062452D1*
X3026229Y2069438D1*
X3032335Y2075543D1*
X3039321Y2080619D1*
X3045129Y2083670D1*
X3039321Y2086781D1*
X3032335Y2091857D1*
X3026229Y2097962D1*
X3021154Y2104948D1*
X3017234Y2112642D1*
X3014566Y2120854D1*
X3013215Y2129383D1*
Y2138017D1*
X3014566Y2146546D1*
X3017234Y2154758D1*
X3021154Y2162452D1*
X3026229Y2169438D1*
X3032335Y2175543D1*
X3036416Y2178678D1*
X3013045Y2178672D1*
Y2288728D1*
X3022232D1*
X1070724Y2380097D2*
X1053101Y2362474D1*
X1052100Y2355511D1*
Y1848360D1*
X1055573Y1845627D1*
X1055664Y2100015D1*
X1056388Y2104587D1*
X1057818Y2108989D1*
X1059920Y2113114D1*
X1062641Y2116859D1*
X1081914Y2136132D1*
X1085659Y2138853D1*
X1089784Y2140954D1*
X1094186Y2142385D1*
X1098474Y2143250D1*
X1103523Y2148298D1*
X1109299Y2152495D1*
X1115661Y2155737D1*
X1122451Y2157943D1*
X1129503Y2159060D1*
X1136643D1*
X1143694Y2157943D1*
X1150485Y2155737D1*
X1156846Y2152495D1*
X1158784Y2151200D1*
X1251396Y2151108D1*
X1251573Y2173157D1*
Y2285510D1*
X1218270Y2318783D1*
X1218573Y2313700D1*
X1218013Y2306582D1*
X1216346Y2299640D1*
X1213614Y2293043D1*
X1209883Y2286956D1*
X1205246Y2281527D1*
X1199817Y2276890D1*
X1193729Y2273159D1*
X1187133Y2270427D1*
X1180190Y2268760D1*
X1173073Y2268200D1*
X1165955Y2268760D1*
X1159012Y2270427D1*
X1152416Y2273159D1*
X1146328Y2276890D1*
X1140899Y2281527D1*
X1136262Y2286956D1*
X1132532Y2293043D1*
X1129800Y2299640D1*
X1128133Y2306582D1*
X1127573Y2313700D1*
X1128133Y2320818D1*
X1129800Y2327760D1*
X1132532Y2334357D1*
X1136262Y2340444D1*
X1140899Y2345873D1*
X1143578Y2348342D1*
X1143378Y2356401D1*
X1138014Y2355181D1*
X1127726Y2355011D1*
X1107744Y2355122D1*
X1102355Y2356224D1*
X1097327Y2358455D1*
X1092894Y2361714D1*
X1072842Y2381891D1*
X1072109Y2381593D1*
X1066093Y2375467D1*
X1075205Y2379369D1*
X1074466Y2380108D1*
X1059602Y2452283D2*
X1072114Y2439659D1*
X1073685Y2440335D1*
X1093862Y2460388D1*
X1093564Y2461121D1*
X1073087Y2481599D1*
X1072109Y2481593D1*
X1053101Y2462474D1*
X1053107Y2458779D1*
X1059602Y2452283D1*
X1079067Y2375507D2*
X1075205Y2379369D1*
X1335083Y2355011D2*
X1330805D1*
X1330804Y1620352D1*
X1336713Y1623835D1*
X1343462Y1626730D1*
X1350536Y1628702D1*
X1357809Y1629713D1*
X1365153Y1629747D1*
X1372436Y1628803D1*
X1379528Y1626898D1*
X1386303Y1624065D1*
X1392641Y1620356D1*
X1398428Y1615835D1*
X1403562Y1610584D1*
X1407212Y1605800D1*
X1407213Y1701327D1*
X1400441Y1704763D1*
X1394665Y1708960D1*
X1389616Y1714008D1*
X1385419Y1719785D1*
X1382178Y1726146D1*
X1379972Y1732937D1*
X1378855Y1739988D1*
Y1747128D1*
X1379972Y1754180D1*
X1382178Y1760970D1*
X1385419Y1767332D1*
X1389616Y1773108D1*
X1394665Y1778157D1*
X1400441Y1782353D1*
X1406802Y1785595D1*
X1413593Y1787801D1*
X1420645Y1788918D1*
X1427784D1*
X1435575Y1787593D1*
X1435573Y1888298D1*
X1429503Y1888340D1*
X1422451Y1889457D1*
X1415661Y1891663D1*
X1409299Y1894905D1*
X1403523Y1899102D1*
X1398474Y1904150D1*
X1394278Y1909926D1*
X1391036Y1916288D1*
X1388830Y1923078D1*
X1387713Y1930130D1*
Y1937270D1*
X1388830Y1944322D1*
X1391036Y1951112D1*
X1394278Y1957474D1*
X1398474Y1963250D1*
X1403578Y1968342D1*
X1403523Y1999102D1*
X1398474Y2004150D1*
X1394278Y2009926D1*
X1391036Y2016288D1*
X1388830Y2023078D1*
X1387713Y2030130D1*
Y2037270D1*
X1388830Y2044322D1*
X1391036Y2051112D1*
X1394278Y2057474D1*
X1398474Y2063250D1*
X1403523Y2068298D1*
X1409299Y2072495D1*
X1415661Y2075737D1*
X1422451Y2077943D1*
X1429503Y2079060D1*
X1435569Y2079102D1*
X1435573Y2202930D1*
X1342641Y2295987D1*
X1339920Y2299732D1*
X1337818Y2303857D1*
X1336388Y2308260D1*
X1335664Y2312832D1*
X1335573Y2355014D1*
X1859602Y2452283D2*
X1872114Y2439659D1*
X1873684Y2440335D1*
X1893862Y2460387D1*
X1893564Y2461121D1*
X1873087Y2481599D1*
X1872109Y2481593D1*
X1851630Y2461116D1*
X1851636Y2460138D1*
X1859602Y2452283D1*
X2559602D2*
X2572114Y2439659D1*
X2573685Y2440335D1*
X2593862Y2460387D1*
X2593564Y2461121D1*
X2573087Y2481599D1*
X2572109Y2481593D1*
X2551630Y2461116D1*
X2551636Y2460138D1*
X2559602Y2452283D1*
X2655974Y2555911D2*
X2670755Y2541130D1*
X2673959Y2539314D1*
X2678362Y2537884D1*
X2682486Y2535782D1*
X2686231Y2533061D1*
X2689505Y2529788D1*
X2692226Y2526043D1*
X2694327Y2521918D1*
X2695758Y2517516D1*
X2696482Y2512944D1*
X2696573Y2427952D1*
X2696482Y2371666D1*
X2695758Y2367094D1*
X2694327Y2362692D1*
X2692226Y2358567D1*
X2689505Y2354822D1*
X2629471Y2294660D1*
X2516125Y2181314D1*
X2516103Y2043264D1*
X2521241Y2038110D1*
X2526778Y2038892D1*
X2533918D1*
X2540970Y2037775D1*
X2547760Y2035569D1*
X2554122Y2032327D1*
X2559898Y2028130D1*
X2564947Y2023082D1*
X2569143Y2017306D1*
X2572385Y2010944D1*
X2574591Y2004154D1*
X2575708Y1997102D1*
X2575700Y1989893D1*
X2598835Y1966765D1*
X2677846Y1966788D1*
X2673928Y1971869D1*
X2671826Y1975993D1*
X2670396Y1980396D1*
X2669671Y1984968D1*
X2669580Y2069960D1*
X2669531Y2240154D1*
X2664482Y2245203D1*
X2660285Y2250979D1*
X2657044Y2257340D1*
X2654838Y2264131D1*
X2653721Y2271183D1*
Y2278322D1*
X2654838Y2285374D1*
X2657044Y2292165D1*
X2660285Y2298526D1*
X2664482Y2304302D1*
X2669531Y2309351D1*
X2675307Y2313548D1*
X2681668Y2316789D1*
X2688459Y2318995D1*
X2695511Y2320112D1*
X2702720Y2320104D1*
X2748665Y2365927D1*
X2752410Y2368648D1*
X2754439Y2369784D1*
X2750852Y2373255D1*
X2744192Y2378505D1*
X2737965Y2384262D1*
X2732209Y2390489D1*
X2726959Y2397148D1*
X2722247Y2404199D1*
X2718104Y2411598D1*
X2714554Y2419299D1*
X2711618Y2427255D1*
X2709317Y2435417D1*
X2707662Y2443734D1*
X2706665Y2452156D1*
X2706333Y2460629D1*
X2706665Y2469103D1*
X2707662Y2477524D1*
X2709317Y2485841D1*
X2711618Y2494003D1*
X2714554Y2501959D1*
X2718104Y2509660D1*
X2722247Y2517059D1*
X2726959Y2524110D1*
X2732209Y2530770D1*
X2737965Y2536997D1*
X2744192Y2542753D1*
X2750852Y2548003D1*
X2757903Y2552714D1*
X2763654Y2555935D1*
X2655981Y2555923D1*
X3697652Y1739322D2*
X3691719Y1736136D1*
X3684864Y1733501D1*
X3677725Y1731778D1*
X3670423Y1730996D1*
X3663081Y1731168D1*
X3655824Y1732291D1*
X3648773Y1734347D1*
X3642049Y1737300D1*
X3640578Y1738095D1*
X3640573Y1661939D1*
X3668505Y1633859D1*
X3671226Y1630114D1*
X3673327Y1625989D1*
X3674758Y1621587D1*
X3675482Y1617015D1*
X3675573Y1587536D1*
X3682809Y1582980D1*
X3690267Y1576611D1*
X3696636Y1569153D1*
X3697648Y1567639D1*
X3697657Y1739327D1*
X3418088Y1813643D2*
X3422388Y1820609D1*
X3428143Y1827347D1*
X3434881Y1833102D1*
X3442436Y1837732D1*
X3450623Y1841123D1*
X3459239Y1843191D1*
X3468073Y1843886D1*
X3476907Y1843191D1*
X3481572Y1842237D1*
X3481573Y2125978D1*
X3263512Y2126011D1*
X3258066Y2118495D1*
X3253809Y2114081D1*
X3271722Y2114082D1*
Y2016441D1*
X3278715Y2020406D1*
X3287097Y2024157D1*
X3295804Y2027075D1*
X3304753Y2029134D1*
X3313859Y2030314D1*
X3323037Y2030603D1*
X3332200Y2030000D1*
X3341261Y2028508D1*
X3350134Y2026144D1*
X3358735Y2022928D1*
X3366984Y2018892D1*
X3374801Y2014074D1*
X3382113Y2008519D1*
X3388850Y2002280D1*
X3394950Y1995416D1*
X3400353Y1987991D1*
X3405010Y1980077D1*
X3408876Y1971747D1*
X3411914Y1963082D1*
X3414096Y1954162D1*
X3415401Y1945073D1*
X3415817Y1936220D1*
X3415370Y1927048D1*
X3414034Y1917963D1*
X3411822Y1909050D1*
X3408755Y1900395D1*
X3404861Y1892079D1*
X3400177Y1884181D1*
X3394748Y1876774D1*
X3388626Y1869931D1*
X3381867Y1863715D1*
X3374536Y1858184D1*
X3366703Y1853393D1*
X3358441Y1849385D1*
X3349829Y1846199D1*
X3340026Y1843679D1*
X3341759Y1838578D1*
X3342436Y1837732D1*
X3350623Y1841123D1*
X3359239Y1843191D1*
X3368073Y1843886D1*
X3376907Y1843191D1*
X3385523Y1841123D1*
X3393709Y1837732D1*
X3401265Y1833102D1*
X3408003Y1827347D1*
X3413758Y1820609D1*
X3418058Y1813643D1*
X3415799Y2451705D2*
X3415174Y2442544D1*
X3413662Y2433487D1*
X3411277Y2424619D1*
X3408041Y2416025D1*
X3403986Y2407786D1*
X3399150Y2399980D1*
X3393578Y2392681D1*
X3387323Y2385958D1*
X3380444Y2379875D1*
X3373007Y2374488D1*
X3365082Y2369850D1*
X3356744Y2366004D1*
X3348071Y2362985D1*
X3339147Y2360824D1*
X3330054Y2359541D1*
X3320880Y2359146D1*
X3311711Y2359645D1*
X3302633Y2361033D1*
X3293734Y2363296D1*
X3285096Y2366413D1*
X3276802Y2370354D1*
X3268931Y2375083D1*
X3261556Y2380554D1*
X3254747Y2386716D1*
X3248570Y2393510D1*
X3243082Y2400872D1*
X3238335Y2408733D1*
X3234374Y2417018D1*
X3231237Y2425648D1*
X3228953Y2434542D1*
X3227545Y2443616D1*
X3227025Y2452784D1*
X3227398Y2461959D1*
X3228660Y2471055D1*
X3230801Y2479985D1*
X3233798Y2488664D1*
X3237626Y2497011D1*
X3242246Y2504947D1*
X3247615Y2512397D1*
X3253682Y2519289D1*
X3260391Y2525560D1*
X3267677Y2531148D1*
X3275472Y2536003D1*
X3283701Y2540077D1*
X3292287Y2543333D1*
X3301149Y2545738D1*
X3310203Y2547271D1*
X3319363Y2547918D1*
X3328542Y2547671D1*
X3337655Y2546534D1*
X3346613Y2544516D1*
X3355333Y2541638D1*
X3363732Y2537926D1*
X3371731Y2533415D1*
X3379253Y2528149D1*
X3386228Y2522177D1*
X3392590Y2515555D1*
X3398279Y2508347D1*
X3403240Y2500619D1*
X3407427Y2492447D1*
X3410800Y2483906D1*
X3413327Y2475078D1*
X3414985Y2466046D1*
X3415757Y2456896D1*
X3415799Y2451705D1*
X3416501Y910371D2*
D24*
Y799907D1*
X3306036D2*
X3416501D1*
X3298390Y984947D2*
Y874483D1*
X3187926Y984947D2*
X3408854D1*
X2018073Y643700D2*
X2078537D1*
X1122600Y2410629D2*
Y2355025D1*
X1361737Y1629818D2*
Y1574826D1*
X505561Y1148692D2*
Y1093700D1*
X450569D2*
X505561D1*
X450569Y993700D2*
X505561D1*
X450569Y893700D2*
X505561D1*
Y793700D2*
Y738708D1*
X450569Y793700D2*
X505561D1*
X518073Y2248692D2*
Y2193700D1*
X463081D2*
X518073D1*
X463081Y2093700D2*
X518073D1*
X463081Y1993700D2*
X518073D1*
Y1893700D2*
Y1838708D1*
X463081Y1893700D2*
X518073D1*
X3668073Y1843850D2*
Y1730983D1*
X3214726Y2389637D2*
Y2332676D1*
X3157766D2*
X3271686D1*
X3321419Y2030581D2*
Y1936220D1*
X3227057D2*
X3415781D1*
X3321419Y2547904D2*
Y2359181D1*
X3227057Y2453543D2*
X3415781D1*
D30*
X3180280Y799907D3*
X3416501D3*
X3298390Y984947D3*
D31*
X2143073Y993700D3*
D32*
X2243073D3*
X2343073D3*
X2443073D3*
X2543073D3*
X2643073D3*
D33*
X2018073Y643700D3*
X1918073D3*
X1818073D3*
X1718073D3*
X1618073D3*
X1518073D3*
X1418073D3*
X1318073D3*
X1218073D3*
X1118073D3*
X1018073D3*
X918073D3*
X818073D3*
X718073D3*
X2018073Y543700D3*
X1918073D3*
X1818073D3*
X1718073D3*
X1618073D3*
X1518073D3*
X1418073D3*
X1318073D3*
X1218073D3*
X1118073D3*
X1018073D3*
X918073D3*
X818073D3*
X718073D3*
D31*
X618073Y1343700D3*
D32*
X518073D3*
X618073Y1443700D3*
X518073D3*
X618073Y1543700D3*
X518073D3*
X618073Y1643700D3*
X518073D3*
X618073Y1743700D3*
X518073D3*
D31*
X3068073Y2233700D3*
D32*
Y2133700D3*
Y2033700D3*
D110*
X722600Y2410629D3*
Y2510629D3*
X822600Y2410629D3*
Y2510629D3*
X922600Y2410629D3*
Y2510629D3*
X1022600Y2410629D3*
Y2510629D3*
X1122600Y2410629D3*
Y2510629D3*
X1222600Y2410629D3*
Y2510629D3*
X1322600Y2410629D3*
Y2510629D3*
X1422600Y2410629D3*
Y2510629D3*
X1522600Y2410629D3*
Y2510629D3*
X1622600Y2410629D3*
Y2510629D3*
X1722600Y2410629D3*
Y2510629D3*
X1822600Y2410629D3*
Y2510629D3*
X1922600Y2410629D3*
Y2510629D3*
X2022600Y2410629D3*
Y2510629D3*
X2122600Y2410629D3*
Y2510629D3*
X2222600Y2410629D3*
Y2510629D3*
X2322600Y2410629D3*
Y2510629D3*
X2422600Y2410629D3*
Y2510629D3*
X2522600Y2410629D3*
Y2510629D3*
X2622600Y2410629D3*
Y2510629D3*
D31*
X2149138Y1574826D3*
D32*
X1361737D3*
D31*
X505561Y1093700D3*
D32*
X605561D3*
X505561Y993700D3*
X605561D3*
X505561Y893700D3*
X605561D3*
X505561Y793700D3*
X605561D3*
D31*
X518073Y2193700D3*
D32*
X618073D3*
X518073Y2093700D3*
X618073D3*
X518073Y1993700D3*
X618073D3*
X518073Y1893700D3*
X618073D3*
D31*
X2949054Y931144D3*
D32*
Y852403D3*
Y773663D3*
D46*
Y1013821D3*
Y690986D3*
D47*
X3668073Y1787417D3*
X3568073D3*
X3468073D3*
X3368073D3*
X3268073D3*
X3168073D3*
X3068073D3*
X2968073D3*
X2868073D3*
X2768073D3*
X2668073D3*
X2568073D3*
X2468073D3*
X2368073D3*
Y1687417D3*
Y1387417D3*
Y1287417D3*
Y1187417D3*
X2468073D3*
X2568073D3*
X2668073D3*
X2768073D3*
X2868073D3*
X2968073D3*
X3068073D3*
X3168073D3*
X3268073D3*
X3368073D3*
X3468073D3*
X3568073D3*
X3668073D3*
X3568073Y1287417D3*
D48*
X3646073Y1442417D3*
D47*
X2668073Y1687417D3*
X2568073Y1587417D3*
Y1487417D3*
D48*
X3646073Y1532417D3*
D47*
X2568073Y1687417D3*
X2668073Y1587417D3*
Y1487417D3*
Y1387417D3*
Y1287417D3*
X2568073Y1387417D3*
Y1287417D3*
D49*
X3214726Y2057086D3*
D50*
Y2155511D3*
Y2234251D3*
Y2332676D3*
D51*
X3321419Y1936220D3*
Y2453543D3*
M02*
