G04 DipTrace 3.3.1.3*
G04 Teensy4RPIlike.gbo*
%MOIN*%
G04 #@! TF.FileFunction,Legend,Bot*
G04 #@! TF.Part,Single*
%ADD109C,0.007*%
%FSLAX26Y26*%
G04*
G70*
G90*
G75*
G01*
G04 BotSilk*
%LPD*%
X734333Y480060D2*
D109*
X731448Y481519D1*
X727137Y485797D1*
Y455686D1*
X710252Y485797D2*
X694500D1*
X703089Y474323D1*
X698778D1*
X695926Y472897D1*
X694500Y471471D1*
X693041Y467160D1*
Y464308D1*
X694500Y459997D1*
X697352Y457112D1*
X701663Y455686D1*
X705974D1*
X710252Y457112D1*
X711678Y458571D1*
X713137Y461423D1*
X846556Y480060D2*
X843671Y481519D1*
X839360Y485797D1*
Y455686D1*
X811001D2*
Y485797D1*
X825360Y465734D1*
X803838D1*
X938604Y480060D2*
X935719Y481519D1*
X931408Y485797D1*
Y455686D1*
X900197Y485797D2*
X914522D1*
X915948Y472897D1*
X914522Y474323D1*
X910211Y475782D1*
X905934D1*
X901623Y474323D1*
X898738Y471471D1*
X897312Y467160D1*
Y464308D1*
X898738Y459997D1*
X901623Y457112D1*
X905934Y455686D1*
X910211D1*
X914522Y457112D1*
X915948Y458571D1*
X917408Y461423D1*
X1035442Y480060D2*
X1032557Y481519D1*
X1028246Y485797D1*
Y455686D1*
X997035Y481519D2*
X998461Y484371D1*
X1002772Y485797D1*
X1005624D1*
X1009935Y484371D1*
X1012820Y480060D1*
X1014246Y472897D1*
Y465734D1*
X1012820Y459997D1*
X1009935Y457112D1*
X1005624Y455686D1*
X1004198D1*
X999920Y457112D1*
X997035Y459997D1*
X995609Y464308D1*
Y465734D1*
X997035Y470045D1*
X999920Y472897D1*
X1004198Y474323D1*
X1005624D1*
X1009935Y472897D1*
X1012820Y470045D1*
X1014246Y465734D1*
X1133740Y480060D2*
X1130855Y481519D1*
X1126544Y485797D1*
Y455686D1*
X1106807D2*
X1092448Y485797D1*
X1112544D1*
X1238254Y480060D2*
X1235369Y481519D1*
X1231058Y485797D1*
Y455686D1*
X1209895Y485797D2*
X1214173Y484371D1*
X1215632Y481519D1*
Y478634D1*
X1214173Y475782D1*
X1211321Y474323D1*
X1205584Y472897D1*
X1201273Y471471D1*
X1198421Y468586D1*
X1196995Y465734D1*
Y461423D1*
X1198421Y458571D1*
X1199847Y457112D1*
X1204158Y455686D1*
X1209895D1*
X1214173Y457112D1*
X1215632Y458571D1*
X1217058Y461423D1*
Y465734D1*
X1215632Y468586D1*
X1212747Y471471D1*
X1208469Y472897D1*
X1202732Y474323D1*
X1199847Y475782D1*
X1198421Y478634D1*
Y481519D1*
X1199847Y484371D1*
X1204158Y485797D1*
X1209895D1*
X1328876Y480060D2*
X1325991Y481519D1*
X1321680Y485797D1*
Y455686D1*
X1289010Y475782D2*
X1290469Y471471D1*
X1293321Y468586D1*
X1297632Y467160D1*
X1299058D1*
X1303369Y468586D1*
X1306221Y471471D1*
X1307680Y475782D1*
Y477208D1*
X1306221Y481519D1*
X1303369Y484371D1*
X1299058Y485797D1*
X1297632D1*
X1293321Y484371D1*
X1290469Y481519D1*
X1289010Y475782D1*
Y468586D1*
X1290469Y461423D1*
X1293321Y457112D1*
X1297632Y455686D1*
X1300484D1*
X1304795Y457112D1*
X1306221Y459997D1*
X1438614Y478634D2*
Y480060D1*
X1437188Y482945D1*
X1435762Y484371D1*
X1432877Y485797D1*
X1427140D1*
X1424288Y484371D1*
X1422862Y482945D1*
X1421403Y480060D1*
Y477208D1*
X1422862Y474323D1*
X1425714Y470045D1*
X1440073Y455686D1*
X1419977D1*
X1397355Y485797D2*
X1401666Y484371D1*
X1404551Y480060D1*
X1405977Y472897D1*
Y468586D1*
X1404551Y461423D1*
X1401666Y457112D1*
X1397355Y455686D1*
X1394503D1*
X1390192Y457112D1*
X1387340Y461423D1*
X1385881Y468586D1*
Y472897D1*
X1387340Y480060D1*
X1390192Y484371D1*
X1394503Y485797D1*
X1397355D1*
X1387340Y480060D2*
X1404551Y461423D1*
X1530662Y478634D2*
Y480060D1*
X1529236Y482945D1*
X1527810Y484371D1*
X1524925Y485797D1*
X1519188D1*
X1516336Y484371D1*
X1514910Y482945D1*
X1513451Y480060D1*
Y477208D1*
X1514910Y474323D1*
X1517762Y470045D1*
X1532121Y455686D1*
X1512025D1*
X1498025Y480060D2*
X1495140Y481519D1*
X1490829Y485797D1*
Y455686D1*
X1635610Y478634D2*
Y480060D1*
X1634184Y482945D1*
X1632758Y484371D1*
X1629873Y485797D1*
X1624136D1*
X1621284Y484371D1*
X1619858Y482945D1*
X1618399Y480060D1*
Y477208D1*
X1619858Y474323D1*
X1622710Y470045D1*
X1637069Y455686D1*
X1616973D1*
X1601514Y478634D2*
Y480060D1*
X1600088Y482945D1*
X1598662Y484371D1*
X1595777Y485797D1*
X1590040D1*
X1587188Y484371D1*
X1585762Y482945D1*
X1584303Y480060D1*
Y477208D1*
X1585762Y474323D1*
X1588614Y470045D1*
X1602973Y455686D1*
X1582877D1*
X2054036Y481543D2*
Y467195D1*
X2053086Y464321D1*
X2051162Y462420D1*
X2048288Y461447D1*
X2046387D1*
X2043513Y462420D1*
X2041590Y464321D1*
X2040639Y467195D1*
Y481543D1*
X2013242Y478669D2*
X2015143Y480592D1*
X2018017Y481543D1*
X2021842D1*
X2024716Y480592D1*
X2026639Y478669D1*
Y476768D1*
X2025666Y474844D1*
X2024716Y473894D1*
X2022814Y472943D1*
X2017066Y471020D1*
X2015143Y470069D1*
X2014192Y469096D1*
X2013242Y467195D1*
Y464321D1*
X2015143Y462420D1*
X2018017Y461447D1*
X2021842D1*
X2024716Y462420D1*
X2026639Y464321D1*
X1999242Y481543D2*
Y461447D1*
X1990620D1*
X1987746Y462420D1*
X1986795Y463371D1*
X1985844Y465272D1*
Y468146D1*
X1986795Y470069D1*
X1987746Y471020D1*
X1990620Y471970D1*
X1987746Y472943D1*
X1986795Y473894D1*
X1985844Y475795D1*
Y477718D1*
X1986795Y479620D1*
X1987746Y480592D1*
X1990620Y481543D1*
X1999242D1*
Y471970D2*
X1990620D1*
X1804487Y483641D2*
X1796816Y463545D1*
X1789166Y483641D1*
X1792040Y476942D2*
X1801613D1*
X1832835Y468320D2*
X1831884Y466419D1*
X1829961Y464495D1*
X1828060Y463545D1*
X1824235D1*
X1822312Y464495D1*
X1820410Y466419D1*
X1819438Y468320D1*
X1818487Y471194D1*
Y475991D1*
X1819438Y478843D1*
X1820411Y480767D1*
X1822312Y482668D1*
X1824235Y483641D1*
X1828060D1*
X1829961Y482668D1*
X1831884Y480767D1*
X1832835Y478843D1*
Y475991D1*
X1828060D1*
X1734308Y478634D2*
Y480060D1*
X1732882Y482945D1*
X1731456Y484371D1*
X1728571Y485797D1*
X1722834D1*
X1719982Y484371D1*
X1718556Y482945D1*
X1717097Y480060D1*
Y477208D1*
X1718556Y474323D1*
X1721408Y470045D1*
X1735767Y455686D1*
X1715671D1*
X1698786Y485797D2*
X1683034D1*
X1691623Y474323D1*
X1687312D1*
X1684460Y472897D1*
X1683034Y471471D1*
X1681575Y467160D1*
Y464308D1*
X1683034Y459997D1*
X1685886Y457112D1*
X1690197Y455686D1*
X1694508D1*
X1698786Y457112D1*
X1700212Y458571D1*
X1701671Y461423D1*
X1945060Y493251D2*
Y476029D1*
X1953660Y484629D2*
X1936438D1*
X1910964Y494677D2*
X1920515D1*
X1921465Y486077D1*
X1920515Y487028D1*
X1917641Y488001D1*
X1914789D1*
X1911915Y487028D1*
X1909991Y485127D1*
X1909041Y482253D1*
Y480351D1*
X1909991Y477477D1*
X1911915Y475554D1*
X1914789Y474603D1*
X1917641D1*
X1920515Y475554D1*
X1921465Y476527D1*
X1922438Y478428D1*
X1895041Y494699D2*
X1887391Y474603D1*
X1879742Y494699D1*
X1492385Y699411D2*
Y729521D1*
X1506744Y709459D1*
X1485222D1*
X1388026Y729521D2*
X1402352D1*
X1403778Y716622D1*
X1402352Y718047D1*
X1398041Y719507D1*
X1393763D1*
X1389452Y718047D1*
X1386567Y715196D1*
X1385141Y710885D1*
Y708033D1*
X1386567Y703722D1*
X1389452Y700837D1*
X1393763Y699411D1*
X1398041D1*
X1402352Y700837D1*
X1403778Y702296D1*
X1405237Y705148D1*
X1287945Y725244D2*
X1289371Y728095D1*
X1293682Y729521D1*
X1296534D1*
X1300845Y728095D1*
X1303730Y723784D1*
X1305156Y716622D1*
Y709459D1*
X1303730Y703722D1*
X1300845Y700837D1*
X1296534Y699411D1*
X1295108D1*
X1290830Y700837D1*
X1287945Y703722D1*
X1286519Y708033D1*
Y709459D1*
X1287945Y713770D1*
X1290830Y716622D1*
X1295108Y718047D1*
X1296534D1*
X1300845Y716622D1*
X1303730Y713770D1*
X1305156Y709459D1*
X1200795Y699411D2*
X1186436Y729521D1*
X1206532D1*
X1099288D2*
X1103565Y728095D1*
X1105025Y725244D1*
Y722358D1*
X1103565Y719507D1*
X1100714Y718047D1*
X1094977Y716622D1*
X1090666Y715196D1*
X1087814Y712310D1*
X1086388Y709459D1*
Y705148D1*
X1087814Y702296D1*
X1089240Y700837D1*
X1093551Y699411D1*
X1099288D1*
X1103565Y700837D1*
X1105025Y702296D1*
X1106451Y705148D1*
Y709459D1*
X1105025Y712310D1*
X1102139Y715196D1*
X1097862Y716622D1*
X1092125Y718047D1*
X1089240Y719507D1*
X1087814Y722358D1*
Y725244D1*
X1089240Y728095D1*
X1093551Y729521D1*
X1099288D1*
X987731Y719507D2*
X989191Y715196D1*
X992043Y712310D1*
X996354Y710885D1*
X997779D1*
X1002091Y712310D1*
X1004942Y715196D1*
X1006402Y719507D1*
Y720933D1*
X1004942Y725244D1*
X1002091Y728095D1*
X997779Y729521D1*
X996354D1*
X992043Y728095D1*
X989191Y725244D1*
X987731Y719507D1*
Y712310D1*
X989191Y705148D1*
X992043Y700837D1*
X996354Y699411D1*
X999205D1*
X1003516Y700837D1*
X1004942Y703722D1*
X920244Y723784D2*
X917359Y725244D1*
X913048Y729521D1*
Y699411D1*
X890426Y729521D2*
X894737Y728095D1*
X897622Y723784D1*
X899048Y716622D1*
Y712310D1*
X897622Y705148D1*
X894737Y700837D1*
X890426Y699411D1*
X887574D1*
X883263Y700837D1*
X880411Y705148D1*
X878952Y712310D1*
Y716622D1*
X880411Y723784D1*
X883263Y728095D1*
X887574Y729521D1*
X890426D1*
X880411Y723784D2*
X897622Y705148D1*
X811465Y723784D2*
X808580Y725244D1*
X804269Y729521D1*
Y699411D1*
X790269Y723784D2*
X787384Y725244D1*
X783073Y729521D1*
Y699411D1*
X715585Y723784D2*
X712700Y725244D1*
X708389Y729521D1*
Y699411D1*
X692930Y722358D2*
Y723784D1*
X691504Y726670D1*
X690078Y728095D1*
X687193Y729521D1*
X681456D1*
X678604Y728095D1*
X677178Y726670D1*
X675719Y723784D1*
Y720933D1*
X677178Y718047D1*
X680030Y713770D1*
X694389Y699411D1*
X674293D1*
X1610190Y729521D2*
X1594439D1*
X1603028Y718047D1*
X1598717D1*
X1595865Y716622D1*
X1594439Y715196D1*
X1592980Y710885D1*
Y708033D1*
X1594439Y703722D1*
X1597291Y700837D1*
X1601602Y699411D1*
X1605913D1*
X1610190Y700837D1*
X1611616Y702296D1*
X1613076Y705148D1*
X1705448Y722358D2*
Y723784D1*
X1704022Y726670D1*
X1702597Y728095D1*
X1699711Y729521D1*
X1693974D1*
X1691123Y728095D1*
X1689697Y726670D1*
X1688238Y723784D1*
Y720933D1*
X1689697Y718047D1*
X1692549Y713770D1*
X1706908Y699411D1*
X1686812D1*
X1800338Y723784D2*
X1797453Y725244D1*
X1793142Y729521D1*
Y699411D1*
X1898048Y729521D2*
X1902359Y728095D1*
X1905244Y723784D1*
X1906670Y716622D1*
Y712310D1*
X1905244Y705148D1*
X1902359Y700837D1*
X1898048Y699411D1*
X1895196D1*
X1890885Y700837D1*
X1888033Y705148D1*
X1886574Y712310D1*
Y716622D1*
X1888033Y723784D1*
X1890885Y728095D1*
X1895196Y729521D1*
X1898048D1*
X1888033Y723784D2*
X1905244Y705148D1*
X2023601Y722392D2*
X2025027Y725244D1*
X2027912Y728129D1*
X2030764Y729555D1*
X2036501D1*
X2039386Y728129D1*
X2042238Y725244D1*
X2043697Y722392D1*
X2045123Y718081D1*
Y710885D1*
X2043697Y706607D1*
X2042238Y703722D1*
X2039386Y700870D1*
X2036501Y699411D1*
X2030764D1*
X2027912Y700870D1*
X2025027Y703722D1*
X2023601Y706607D1*
Y710885D1*
X2030764D1*
X1989505Y729555D2*
Y699411D1*
X2009601Y729555D1*
Y699411D1*
X1975505Y729555D2*
Y699411D1*
X1965457D1*
X1961146Y700870D1*
X1958261Y703722D1*
X1956835Y706607D1*
X1955409Y710885D1*
Y718081D1*
X1956835Y722392D1*
X1958261Y725244D1*
X1961146Y728129D1*
X1965457Y729555D1*
X1975505D1*
X459707Y1347251D2*
Y1348677D1*
X458281Y1351562D1*
X456855Y1352988D1*
X453970Y1354414D1*
X448233D1*
X445381Y1352988D1*
X443955Y1351562D1*
X442496Y1348677D1*
Y1345825D1*
X443955Y1342940D1*
X446807Y1338662D1*
X461166Y1324303D1*
X441070D1*
X412711D2*
Y1354414D1*
X427070Y1334351D1*
X405548D1*
X720753Y1353500D2*
Y1354926D1*
X719327Y1357811D1*
X717901Y1359237D1*
X715016Y1360663D1*
X709279D1*
X706427Y1359237D1*
X705001Y1357811D1*
X703542Y1354926D1*
Y1352074D1*
X705001Y1349189D1*
X707853Y1344911D1*
X722212Y1330552D1*
X702116D1*
X670905Y1360663D2*
X685231D1*
X686657Y1347763D1*
X685231Y1349189D1*
X680920Y1350648D1*
X676642D1*
X672331Y1349189D1*
X669446Y1346337D1*
X668020Y1342026D1*
Y1339174D1*
X669446Y1334863D1*
X672331Y1331978D1*
X676642Y1330552D1*
X680920D1*
X685231Y1331978D1*
X686657Y1333437D1*
X688116Y1336289D1*
X463071Y1453490D2*
Y1454916D1*
X461645Y1457801D1*
X460219Y1459227D1*
X457334Y1460653D1*
X451597D1*
X448745Y1459227D1*
X447319Y1457801D1*
X445860Y1454916D1*
Y1452064D1*
X447319Y1449179D1*
X450171Y1444901D1*
X464530Y1430542D1*
X444434D1*
X413223Y1456375D2*
X414649Y1459227D1*
X418960Y1460653D1*
X421812D1*
X426123Y1459227D1*
X429008Y1454916D1*
X430434Y1447753D1*
Y1440590D1*
X429008Y1434853D1*
X426123Y1431968D1*
X421812Y1430542D1*
X420386D1*
X416108Y1431968D1*
X413223Y1434853D1*
X411797Y1439164D1*
Y1440590D1*
X413223Y1444901D1*
X416108Y1447753D1*
X420386Y1449179D1*
X421812D1*
X426123Y1447753D1*
X429008Y1444901D1*
X430434Y1440590D1*
X714504Y1453490D2*
Y1454916D1*
X713078Y1457801D1*
X711652Y1459227D1*
X708767Y1460653D1*
X703030D1*
X700178Y1459227D1*
X698752Y1457801D1*
X697293Y1454916D1*
Y1452064D1*
X698752Y1449179D1*
X701604Y1444901D1*
X715963Y1430542D1*
X695867D1*
X676130D2*
X661771Y1460653D1*
X681867D1*
X706427Y1660632D2*
X690675D1*
X699264Y1649158D1*
X694953D1*
X692101Y1647732D1*
X690675Y1646306D1*
X689216Y1641995D1*
Y1639143D1*
X690675Y1634832D1*
X693527Y1631947D1*
X697838Y1630521D1*
X702149D1*
X706427Y1631947D1*
X707853Y1633406D1*
X709312Y1636258D1*
X675216Y1654895D2*
X672331Y1656354D1*
X668020Y1660632D1*
Y1630521D1*
X457508Y1760540D2*
X441756D1*
X450345Y1749066D1*
X446034D1*
X443182Y1747640D1*
X441756Y1746214D1*
X440297Y1741903D1*
Y1739051D1*
X441756Y1734740D1*
X444608Y1731855D1*
X448919Y1730429D1*
X453230D1*
X457508Y1731855D1*
X458934Y1733314D1*
X460393Y1736166D1*
X424838Y1753377D2*
Y1754803D1*
X423412Y1757688D1*
X421986Y1759114D1*
X419101Y1760540D1*
X413364D1*
X410512Y1759114D1*
X409086Y1757688D1*
X407627Y1754803D1*
Y1751951D1*
X409086Y1749066D1*
X411938Y1744788D1*
X426297Y1730429D1*
X406201D1*
X713078Y1760621D2*
X697326D1*
X705915Y1749147D1*
X701604D1*
X698752Y1747721D1*
X697326Y1746295D1*
X695867Y1741984D1*
Y1739132D1*
X697326Y1734821D1*
X700178Y1731936D1*
X704489Y1730510D1*
X708800D1*
X713078Y1731936D1*
X714504Y1733395D1*
X715963Y1736247D1*
X678982Y1760621D2*
X663230D1*
X671819Y1749147D1*
X667508D1*
X664656Y1747721D1*
X663230Y1746295D1*
X661771Y1741984D1*
Y1739132D1*
X663230Y1734821D1*
X666082Y1731936D1*
X670393Y1730510D1*
X674704D1*
X678982Y1731936D1*
X680408Y1733395D1*
X681867Y1736247D1*
X458733Y1553479D2*
Y1554905D1*
X457307Y1557790D1*
X455881Y1559216D1*
X452996Y1560642D1*
X447259D1*
X444407Y1559216D1*
X442981Y1557790D1*
X441522Y1554905D1*
Y1552053D1*
X442981Y1549168D1*
X445833Y1544890D1*
X460192Y1530531D1*
X440096D1*
X418933Y1560642D2*
X423211Y1559216D1*
X424670Y1556364D1*
Y1553479D1*
X423211Y1550627D1*
X420359Y1549168D1*
X414622Y1547742D1*
X410311Y1546316D1*
X407459Y1543431D1*
X406033Y1540579D1*
Y1536268D1*
X407459Y1533416D1*
X408885Y1531957D1*
X413196Y1530531D1*
X418933D1*
X423211Y1531957D1*
X424670Y1533416D1*
X426096Y1536268D1*
Y1540579D1*
X424670Y1543431D1*
X421785Y1546316D1*
X417507Y1547742D1*
X411770Y1549168D1*
X408885Y1550627D1*
X407459Y1553479D1*
Y1556364D1*
X408885Y1559216D1*
X413196Y1560642D1*
X418933D1*
X714017Y1553479D2*
Y1554905D1*
X712591Y1557790D1*
X711166Y1559216D1*
X708280Y1560642D1*
X702543D1*
X699692Y1559216D1*
X698266Y1557790D1*
X696807Y1554905D1*
Y1552053D1*
X698266Y1549168D1*
X701118Y1544890D1*
X715477Y1530531D1*
X695381D1*
X662710Y1550627D2*
X664170Y1546316D1*
X667022Y1543431D1*
X671333Y1542005D1*
X672758D1*
X677070Y1543431D1*
X679921Y1546316D1*
X681381Y1550627D1*
Y1552053D1*
X679921Y1556364D1*
X677070Y1559216D1*
X672758Y1560642D1*
X671333D1*
X667022Y1559216D1*
X664170Y1556364D1*
X662710Y1550627D1*
Y1543431D1*
X664170Y1536268D1*
X667022Y1531957D1*
X671333Y1530531D1*
X674184D1*
X678495Y1531957D1*
X679921Y1534842D1*
X457508Y1660550D2*
X441756D1*
X450345Y1649076D1*
X446034D1*
X443182Y1647650D1*
X441756Y1646224D1*
X440297Y1641913D1*
Y1639061D1*
X441756Y1634750D1*
X444608Y1631865D1*
X448919Y1630439D1*
X453230D1*
X457508Y1631865D1*
X458934Y1633325D1*
X460393Y1636176D1*
X417675Y1660550D2*
X421986Y1659124D1*
X424871Y1654813D1*
X426297Y1647650D1*
Y1643339D1*
X424871Y1636176D1*
X421986Y1631865D1*
X417675Y1630439D1*
X414823D1*
X410512Y1631865D1*
X407660Y1636176D1*
X406201Y1643339D1*
Y1647650D1*
X407660Y1654813D1*
X410512Y1659124D1*
X414823Y1660550D1*
X417675D1*
X407660Y1654813D2*
X424871Y1636176D1*
X2510027Y1298245D2*
X2512912Y1296819D1*
X2515764Y1293934D1*
X2517223Y1291082D1*
X2518649Y1286771D1*
Y1279575D1*
X2517223Y1275297D1*
X2515764Y1272412D1*
X2512912Y1269560D1*
X2510027Y1268101D1*
X2504290D1*
X2501438Y1269560D1*
X2498553Y1272412D1*
X2497127Y1275297D1*
X2495702Y1279575D1*
Y1286771D1*
X2497127Y1291082D1*
X2498553Y1293934D1*
X2501438Y1296819D1*
X2504290Y1298245D1*
X2510027D1*
X2461606D2*
Y1268101D1*
X2481702Y1298245D1*
Y1268101D1*
X2516675Y1388699D2*
X2503742D1*
X2499464Y1390125D1*
X2498005Y1391584D1*
X2496579Y1394436D1*
Y1398747D1*
X2498005Y1401599D1*
X2499464Y1403058D1*
X2503742Y1404484D1*
X2516675D1*
Y1374340D1*
X2461057Y1397321D2*
X2462483Y1400173D1*
X2465368Y1403058D1*
X2468220Y1404484D1*
X2473957D1*
X2476842Y1403058D1*
X2479694Y1400173D1*
X2481153Y1397321D1*
X2482579Y1393010D1*
Y1385814D1*
X2481153Y1381536D1*
X2479694Y1378651D1*
X2476842Y1375799D1*
X2473957Y1374340D1*
X2468220D1*
X2465368Y1375799D1*
X2462483Y1378651D1*
X2461057Y1381536D1*
Y1385814D1*
X2468220D1*
X2424109Y1374340D2*
Y1404484D1*
X2435583Y1374340D1*
X2447057Y1404484D1*
Y1374340D1*
X2516751Y1598180D2*
X2500999D1*
X2509588Y1586706D1*
X2505277D1*
X2502425Y1585280D1*
X2500999Y1583854D1*
X2499540Y1579543D1*
Y1576691D1*
X2500999Y1572380D1*
X2503851Y1569495D1*
X2508162Y1568069D1*
X2512473D1*
X2516751Y1569495D1*
X2518177Y1570954D1*
X2519636Y1573806D1*
X2484114Y1570954D2*
X2485540Y1569495D1*
X2484114Y1568069D1*
X2482655Y1569495D1*
X2484114Y1570954D1*
X2465770Y1598180D2*
X2450018D1*
X2458607Y1586706D1*
X2454296D1*
X2451444Y1585280D1*
X2450018Y1583854D1*
X2448559Y1579543D1*
Y1576691D1*
X2450018Y1572380D1*
X2452870Y1569495D1*
X2457181Y1568069D1*
X2461492D1*
X2465770Y1569495D1*
X2467196Y1570954D1*
X2468655Y1573806D1*
X2434559Y1598213D2*
X2423085Y1568069D1*
X2411611Y1598213D1*
X2515249Y1704452D2*
X2503775Y1674308D1*
X2492301Y1704452D1*
X2478301D2*
Y1674308D1*
X2465368D1*
X2461057Y1675767D1*
X2459631Y1677193D1*
X2458205Y1680045D1*
Y1684356D1*
X2459631Y1687241D1*
X2461057Y1688667D1*
X2465368Y1690093D1*
X2461057Y1691552D1*
X2459631Y1692978D1*
X2458205Y1695830D1*
Y1698715D1*
X2459631Y1701567D1*
X2461057Y1703026D1*
X2465368Y1704452D1*
X2478301D1*
Y1690093D2*
X2465368D1*
X2434157Y1704452D2*
Y1674308D1*
X2444205Y1704452D2*
X2424109D1*
X2499490Y1491061D2*
X2500916Y1493913D1*
X2503801Y1496798D1*
X2506653Y1498224D1*
X2512390D1*
X2515275Y1496798D1*
X2518127Y1493913D1*
X2519586Y1491061D1*
X2521012Y1486750D1*
Y1479554D1*
X2519586Y1475276D1*
X2518127Y1472391D1*
X2515275Y1469539D1*
X2512390Y1468080D1*
X2506653D1*
X2503801Y1469539D1*
X2500916Y1472391D1*
X2499490Y1475276D1*
Y1479554D1*
X2506653D1*
X2465394Y1498224D2*
Y1468080D1*
X2485490Y1498224D1*
Y1468080D1*
X2451394Y1498224D2*
Y1468080D1*
X2441346D1*
X2437035Y1469539D1*
X2434150Y1472391D1*
X2432724Y1475276D1*
X2431298Y1479554D1*
Y1486750D1*
X2432724Y1491061D1*
X2434150Y1493913D1*
X2437035Y1496798D1*
X2441346Y1498224D1*
X2451394D1*
X2119215Y1042679D2*
X2134967D1*
X2126378Y1054153D1*
X2130689D1*
X2133541Y1055579D1*
X2134967Y1057005D1*
X2136426Y1061316D1*
Y1064168D1*
X2134967Y1068479D1*
X2132115Y1071364D1*
X2127804Y1072790D1*
X2123493D1*
X2119215Y1071364D1*
X2117789Y1069905D1*
X2116330Y1067053D1*
X2164785Y1072790D2*
Y1042679D1*
X2150426Y1062742D1*
X2171948D1*
X2219111Y1042679D2*
X2234863D1*
X2226274Y1054153D1*
X2230585D1*
X2233437Y1055579D1*
X2234863Y1057005D1*
X2236322Y1061316D1*
Y1064168D1*
X2234863Y1068479D1*
X2232011Y1071364D1*
X2227700Y1072790D1*
X2223389D1*
X2219111Y1071364D1*
X2217685Y1069905D1*
X2216226Y1067053D1*
X2267533Y1042679D2*
X2253207D1*
X2251781Y1055579D1*
X2253207Y1054153D1*
X2257518Y1052694D1*
X2261796D1*
X2266107Y1054153D1*
X2268992Y1057005D1*
X2270418Y1061316D1*
Y1064168D1*
X2268992Y1068479D1*
X2266107Y1071364D1*
X2261796Y1072790D1*
X2257518D1*
X2253207Y1071364D1*
X2251781Y1069905D1*
X2250322Y1067053D1*
X2316654Y1042679D2*
X2332406D1*
X2323817Y1054153D1*
X2328128D1*
X2330980Y1055579D1*
X2332406Y1057005D1*
X2333865Y1061316D1*
Y1064168D1*
X2332406Y1068479D1*
X2329554Y1071364D1*
X2325243Y1072790D1*
X2320932D1*
X2316654Y1071364D1*
X2315228Y1069905D1*
X2313769Y1067053D1*
X2365076Y1046957D2*
X2363650Y1044105D1*
X2359339Y1042679D1*
X2356487D1*
X2352176Y1044105D1*
X2349291Y1048416D1*
X2347865Y1055579D1*
Y1062742D1*
X2349291Y1068479D1*
X2352176Y1071364D1*
X2356487Y1072790D1*
X2357913D1*
X2362191Y1071364D1*
X2365076Y1068479D1*
X2366502Y1064168D1*
Y1062742D1*
X2365076Y1058431D1*
X2362191Y1055579D1*
X2357913Y1054153D1*
X2356487D1*
X2352176Y1055579D1*
X2349291Y1058431D1*
X2347865Y1062742D1*
X2420364Y1042679D2*
X2436116D1*
X2427527Y1054153D1*
X2431838D1*
X2434690Y1055579D1*
X2436116Y1057005D1*
X2437575Y1061316D1*
Y1064168D1*
X2436116Y1068479D1*
X2433264Y1071364D1*
X2428953Y1072790D1*
X2424642D1*
X2420364Y1071364D1*
X2418938Y1069905D1*
X2417479Y1067053D1*
X2457312Y1072790D2*
X2471671Y1042679D1*
X2451575D1*
X2511564D2*
X2527316D1*
X2518727Y1054153D1*
X2523038D1*
X2525890Y1055579D1*
X2527316Y1057005D1*
X2528775Y1061316D1*
Y1064168D1*
X2527316Y1068479D1*
X2524464Y1071364D1*
X2520153Y1072790D1*
X2515842D1*
X2511564Y1071364D1*
X2510138Y1069905D1*
X2508679Y1067053D1*
X2549938Y1042679D2*
X2545660Y1044105D1*
X2544201Y1046957D1*
Y1049842D1*
X2545660Y1052694D1*
X2548512Y1054153D1*
X2554249Y1055579D1*
X2558560Y1057005D1*
X2561412Y1059890D1*
X2562838Y1062742D1*
Y1067053D1*
X2561412Y1069905D1*
X2559986Y1071364D1*
X2555675Y1072790D1*
X2549938D1*
X2545660Y1071364D1*
X2544201Y1069905D1*
X2542775Y1067053D1*
Y1062742D1*
X2544201Y1059890D1*
X2547086Y1057005D1*
X2551364Y1055579D1*
X2557101Y1054153D1*
X2559986Y1052694D1*
X2561412Y1049842D1*
Y1046957D1*
X2559986Y1044105D1*
X2555675Y1042679D1*
X2549938D1*
X2615664D2*
X2631416D1*
X2622827Y1054153D1*
X2627138D1*
X2629990Y1055579D1*
X2631416Y1057005D1*
X2632875Y1061316D1*
Y1064168D1*
X2631416Y1068479D1*
X2628564Y1071364D1*
X2624253Y1072790D1*
X2619942D1*
X2615664Y1071364D1*
X2614238Y1069905D1*
X2612779Y1067053D1*
X2665545Y1052694D2*
X2664086Y1057005D1*
X2661234Y1059890D1*
X2656923Y1061316D1*
X2655497D1*
X2651186Y1059890D1*
X2648334Y1057005D1*
X2646875Y1052694D1*
Y1051268D1*
X2648334Y1046957D1*
X2651186Y1044105D1*
X2655497Y1042679D1*
X2656923D1*
X2661234Y1044105D1*
X2664086Y1046957D1*
X2665545Y1052694D1*
Y1059890D1*
X2664086Y1067053D1*
X2661234Y1071364D1*
X2656923Y1072790D1*
X2654071D1*
X2649760Y1071364D1*
X2648334Y1068479D1*
X2223558Y2267996D2*
Y2298107D1*
X2237917Y2278044D1*
X2216396D1*
X2119199Y2298107D2*
X2133525D1*
X2134951Y2285207D1*
X2133525Y2286633D1*
X2129214Y2288092D1*
X2124936D1*
X2120625Y2286633D1*
X2117740Y2283781D1*
X2116314Y2279470D1*
Y2276618D1*
X2117740Y2272307D1*
X2120625Y2269422D1*
X2124936Y2267996D1*
X2129214D1*
X2133525Y2269422D1*
X2134951Y2270881D1*
X2136410Y2273733D1*
X2019118Y2293829D2*
X2020544Y2296681D1*
X2024855Y2298107D1*
X2027707D1*
X2032018Y2296681D1*
X2034903Y2292370D1*
X2036329Y2285207D1*
Y2278044D1*
X2034903Y2272307D1*
X2032018Y2269422D1*
X2027707Y2267996D1*
X2026281D1*
X2022003Y2269422D1*
X2019118Y2272307D1*
X2017692Y2276618D1*
Y2278044D1*
X2019118Y2282355D1*
X2022003Y2285207D1*
X2026281Y2286633D1*
X2027707D1*
X2032018Y2285207D1*
X2034903Y2282355D1*
X2036329Y2278044D1*
X2631895Y2324240D2*
X2617536Y2354351D1*
X2637632D1*
X2526160D2*
X2530438Y2352925D1*
X2531897Y2350073D1*
Y2347188D1*
X2530438Y2344336D1*
X2527586Y2342877D1*
X2521849Y2341451D1*
X2517538Y2340025D1*
X2514686Y2337140D1*
X2513260Y2334288D1*
Y2329977D1*
X2514686Y2327125D1*
X2516112Y2325666D1*
X2520423Y2324240D1*
X2526160D1*
X2530438Y2325666D1*
X2531897Y2327125D1*
X2533323Y2329977D1*
Y2334288D1*
X2531897Y2337140D1*
X2529012Y2340025D1*
X2524734Y2341451D1*
X2518997Y2342877D1*
X2516112Y2344336D1*
X2514686Y2347188D1*
Y2350073D1*
X2516112Y2352925D1*
X2520423Y2354351D1*
X2526160D1*
X1920112Y2344336D2*
X1921571Y2340025D1*
X1924423Y2337140D1*
X1928734Y2335714D1*
X1930160D1*
X1934471Y2337140D1*
X1937323Y2340025D1*
X1938782Y2344336D1*
Y2345762D1*
X1937323Y2350073D1*
X1934471Y2352925D1*
X1930160Y2354351D1*
X1928734D1*
X1924423Y2352925D1*
X1921571Y2350073D1*
X1920112Y2344336D1*
Y2337140D1*
X1921571Y2329977D1*
X1924423Y2325666D1*
X1928734Y2324240D1*
X1931586D1*
X1935897Y2325666D1*
X1937323Y2328551D1*
X1848398Y2348614D2*
X1845513Y2350073D1*
X1841202Y2354351D1*
Y2324240D1*
X1818579Y2354351D2*
X1822890Y2352925D1*
X1825776Y2348614D1*
X1827202Y2341451D1*
Y2337140D1*
X1825776Y2329977D1*
X1822890Y2325666D1*
X1818579Y2324240D1*
X1815728D1*
X1811417Y2325666D1*
X1808565Y2329977D1*
X1807106Y2337140D1*
Y2341451D1*
X1808565Y2348614D1*
X1811417Y2352925D1*
X1815728Y2354351D1*
X1818579D1*
X1808565Y2348614D2*
X1825776Y2329977D1*
X1648877Y2292370D2*
X1645992Y2293829D1*
X1641681Y2298107D1*
Y2267996D1*
X1627681Y2292370D2*
X1624796Y2293829D1*
X1620485Y2298107D1*
Y2267996D1*
X1752976Y2292370D2*
X1750091Y2293829D1*
X1745780Y2298107D1*
Y2267996D1*
X1730321Y2290944D2*
Y2292370D1*
X1728895Y2295255D1*
X1727469Y2296681D1*
X1724584Y2298107D1*
X1718847D1*
X1715995Y2296681D1*
X1714569Y2295255D1*
X1713110Y2292370D1*
Y2289518D1*
X1714569Y2286633D1*
X1717421Y2282355D1*
X1731780Y2267996D1*
X1711684D1*
X2335114Y2298107D2*
X2319363D1*
X2327951Y2286633D1*
X2323640D1*
X2320788Y2285207D1*
X2319363Y2283781D1*
X2317903Y2279470D1*
Y2276618D1*
X2319363Y2272307D1*
X2322214Y2269422D1*
X2326525Y2267996D1*
X2330836D1*
X2335114Y2269422D1*
X2336540Y2270881D1*
X2337999Y2273733D1*
X2530362Y2290944D2*
Y2292370D1*
X2528936Y2295255D1*
X2527510Y2296681D1*
X2524625Y2298107D1*
X2518888D1*
X2516036Y2296681D1*
X2514610Y2295255D1*
X2513151Y2292370D1*
Y2289518D1*
X2514610Y2286633D1*
X2517462Y2282355D1*
X2531821Y2267996D1*
X2511725D1*
X1031693Y2348614D2*
X1028808Y2350073D1*
X1024497Y2354351D1*
Y2324240D1*
X1133628Y2354351D2*
X1137939Y2352925D1*
X1140824Y2348614D1*
X1142250Y2341451D1*
Y2337140D1*
X1140824Y2329977D1*
X1137939Y2325666D1*
X1133628Y2324240D1*
X1130776D1*
X1126465Y2325666D1*
X1123613Y2329977D1*
X1122154Y2337140D1*
Y2341451D1*
X1123613Y2348614D1*
X1126465Y2352925D1*
X1130776Y2354351D1*
X1133628D1*
X1123613Y2348614D2*
X1140824Y2329977D1*
X2648535Y2290977D2*
X2649961Y2293829D1*
X2652846Y2296714D1*
X2655698Y2298140D1*
X2661435D1*
X2664320Y2296714D1*
X2667172Y2293829D1*
X2668631Y2290977D1*
X2670057Y2286666D1*
Y2279470D1*
X2668631Y2275192D1*
X2667172Y2272307D1*
X2664320Y2269455D1*
X2661435Y2267996D1*
X2655698D1*
X2652846Y2269455D1*
X2649961Y2272307D1*
X2648535Y2275192D1*
Y2279470D1*
X2655698D1*
X2614439Y2298140D2*
Y2267996D1*
X2634535Y2298140D1*
Y2267996D1*
X2600439Y2298140D2*
Y2267996D1*
X2590391D1*
X2586080Y2269455D1*
X2583195Y2272307D1*
X2581769Y2275192D1*
X2580343Y2279470D1*
Y2286666D1*
X2581769Y2290977D1*
X2583195Y2293829D1*
X2586080Y2296714D1*
X2590391Y2298140D1*
X2600439D1*
X1852966Y2292370D2*
X1850081Y2293829D1*
X1845770Y2298107D1*
Y2267996D1*
X1828885Y2298107D2*
X1813133D1*
X1821722Y2286633D1*
X1817411D1*
X1814559Y2285207D1*
X1813133Y2283781D1*
X1811674Y2279470D1*
Y2276618D1*
X1813133Y2272307D1*
X1815985Y2269422D1*
X1820296Y2267996D1*
X1824607D1*
X1828885Y2269422D1*
X1830311Y2270881D1*
X1831770Y2273733D1*
X1452742Y2292370D2*
X1449857Y2293829D1*
X1445546Y2298107D1*
Y2267996D1*
X1417187D2*
Y2298107D1*
X1431546Y2278044D1*
X1410024D1*
X1747890Y2348614D2*
X1745005Y2350073D1*
X1740694Y2354351D1*
Y2324240D1*
X1709483Y2350073D2*
X1710909Y2352925D1*
X1715220Y2354351D1*
X1718072D1*
X1722383Y2352925D1*
X1725268Y2348614D1*
X1726694Y2341451D1*
Y2334288D1*
X1725268Y2328551D1*
X1722383Y2325666D1*
X1718072Y2324240D1*
X1716646D1*
X1712368Y2325666D1*
X1709483Y2328551D1*
X1708057Y2332862D1*
Y2334288D1*
X1709483Y2338599D1*
X1712368Y2341451D1*
X1716646Y2342877D1*
X1718072D1*
X1722383Y2341451D1*
X1725268Y2338599D1*
X1726694Y2334288D1*
X2051789Y2348614D2*
X2048904Y2350073D1*
X2044593Y2354351D1*
Y2324240D1*
X2024856D2*
X2010497Y2354351D1*
X2030593D1*
X844546Y2292370D2*
X841660Y2293829D1*
X837349Y2298107D1*
Y2267996D1*
X816187Y2298107D2*
X820464Y2296681D1*
X821924Y2293829D1*
Y2290944D1*
X820464Y2288092D1*
X817612Y2286633D1*
X811875Y2285207D1*
X807564Y2283781D1*
X804713Y2280896D1*
X803287Y2278044D1*
Y2273733D1*
X804713Y2270881D1*
X806139Y2269422D1*
X810450Y2267996D1*
X816187D1*
X820464Y2269422D1*
X821924Y2270881D1*
X823349Y2273733D1*
Y2278044D1*
X821924Y2280896D1*
X819038Y2283781D1*
X814761Y2285207D1*
X809024Y2286633D1*
X806139Y2288092D1*
X804713Y2290944D1*
Y2293829D1*
X806139Y2296681D1*
X810450Y2298107D1*
X816187D1*
X941417Y2292370D2*
X938531Y2293829D1*
X934220Y2298107D1*
Y2267996D1*
X901550Y2288092D2*
X903010Y2283781D1*
X905861Y2280896D1*
X910172Y2279470D1*
X911598D1*
X915909Y2280896D1*
X918761Y2283781D1*
X920220Y2288092D1*
Y2289518D1*
X918761Y2293829D1*
X915909Y2296681D1*
X911598Y2298107D1*
X910172D1*
X905861Y2296681D1*
X903010Y2293829D1*
X901550Y2288092D1*
Y2280896D1*
X903010Y2273733D1*
X905861Y2269422D1*
X910172Y2267996D1*
X913024D1*
X917335Y2269422D1*
X918761Y2272307D1*
X2466048Y2290944D2*
Y2292370D1*
X2464622Y2295255D1*
X2463196Y2296681D1*
X2460311Y2298107D1*
X2454574D1*
X2451723Y2296681D1*
X2450297Y2295255D1*
X2448837Y2292370D1*
Y2289518D1*
X2450297Y2286633D1*
X2453148Y2282355D1*
X2467507Y2267996D1*
X2447411D1*
X2424789Y2298107D2*
X2429100Y2296681D1*
X2431986Y2292370D1*
X2433411Y2285207D1*
Y2280896D1*
X2431986Y2273733D1*
X2429100Y2269422D1*
X2424789Y2267996D1*
X2421938D1*
X2417627Y2269422D1*
X2414775Y2273733D1*
X2413315Y2280896D1*
Y2285207D1*
X2414775Y2292370D1*
X2417627Y2296681D1*
X2421938Y2298107D1*
X2424789D1*
X2414775Y2292370D2*
X2431986Y2273733D1*
X1546475Y2347188D2*
Y2348614D1*
X1545049Y2351499D1*
X1543623Y2352925D1*
X1540738Y2354351D1*
X1535001D1*
X1532149Y2352925D1*
X1530723Y2351499D1*
X1529264Y2348614D1*
Y2345762D1*
X1530723Y2342877D1*
X1533575Y2338599D1*
X1547934Y2324240D1*
X1527838D1*
X1513838Y2348614D2*
X1510953Y2350073D1*
X1506642Y2354351D1*
Y2324240D1*
X1464716Y2347188D2*
Y2348614D1*
X1463290Y2351499D1*
X1461864Y2352925D1*
X1458979Y2354351D1*
X1453242D1*
X1450390Y2352925D1*
X1448965Y2351499D1*
X1447505Y2348614D1*
Y2345762D1*
X1448965Y2342877D1*
X1451816Y2338599D1*
X1466175Y2324240D1*
X1446079D1*
X1430620Y2347188D2*
Y2348614D1*
X1429194Y2351499D1*
X1427768Y2352925D1*
X1424883Y2354351D1*
X1419146D1*
X1416294Y2352925D1*
X1414869Y2351499D1*
X1413409Y2348614D1*
Y2345762D1*
X1414869Y2342877D1*
X1417720Y2338599D1*
X1432079Y2324240D1*
X1411983D1*
X1247949Y2347188D2*
Y2348614D1*
X1246523Y2351499D1*
X1245097Y2352925D1*
X1242212Y2354351D1*
X1236475D1*
X1233623Y2352925D1*
X1232197Y2351499D1*
X1230738Y2348614D1*
Y2345762D1*
X1232197Y2342877D1*
X1235049Y2338599D1*
X1249408Y2324240D1*
X1229312D1*
X1212427Y2354351D2*
X1196675D1*
X1205264Y2342877D1*
X1200953D1*
X1198101Y2341451D1*
X1196675Y2340025D1*
X1195216Y2335714D1*
Y2332862D1*
X1196675Y2328551D1*
X1199527Y2325666D1*
X1203838Y2324240D1*
X1208149D1*
X1212427Y2325666D1*
X1213853Y2327125D1*
X1215312Y2329977D1*
X751435Y2355556D2*
Y2338334D1*
X760035Y2346934D2*
X742813D1*
X717339Y2356982D2*
X726890D1*
X727841Y2348382D1*
X726890Y2349332D1*
X724016Y2350305D1*
X721164D1*
X718290Y2349332D1*
X716367Y2347431D1*
X715416Y2344557D1*
Y2342656D1*
X716367Y2339782D1*
X718290Y2337858D1*
X721164Y2336908D1*
X724016D1*
X726890Y2337858D1*
X727841Y2338831D1*
X728813Y2340732D1*
X701416Y2357004D2*
X693767Y2336908D1*
X686117Y2357004D1*
X853321Y2355556D2*
Y2338334D1*
X861921Y2346934D2*
X844699D1*
X819225Y2356982D2*
X828776D1*
X829726Y2348382D1*
X828776Y2349332D1*
X825902Y2350305D1*
X823050D1*
X820176Y2349332D1*
X818252Y2347431D1*
X817302Y2344557D1*
Y2342656D1*
X818252Y2339782D1*
X820176Y2337858D1*
X823050Y2336908D1*
X825902D1*
X828776Y2337858D1*
X829726Y2338831D1*
X830699Y2340732D1*
X803302Y2357004D2*
X795652Y2336908D1*
X788003Y2357004D1*
X1357168Y2352228D2*
X1358119Y2354130D1*
X1360042Y2356053D1*
X1361943Y2357004D1*
X1365768D1*
X1367691Y2356053D1*
X1369592Y2354130D1*
X1370565Y2352228D1*
X1371516Y2349354D1*
Y2344557D1*
X1370565Y2341705D1*
X1369592Y2339782D1*
X1367691Y2337880D1*
X1365768Y2336908D1*
X1361943D1*
X1360042Y2337880D1*
X1358119Y2339782D1*
X1357168Y2341705D1*
Y2344557D1*
X1361943D1*
X1329771Y2357004D2*
Y2336908D1*
X1343168Y2357004D1*
Y2336908D1*
X1315771Y2357004D2*
Y2336908D1*
X1309072D1*
X1306198Y2337880D1*
X1304275Y2339782D1*
X1303324Y2341705D1*
X1302373Y2344557D1*
Y2349354D1*
X1303324Y2352228D1*
X1304275Y2354130D1*
X1306198Y2356053D1*
X1309072Y2357004D1*
X1315771D1*
X2140802Y2352228D2*
X2141752Y2354130D1*
X2143676Y2356053D1*
X2145577Y2357004D1*
X2149402D1*
X2151325Y2356053D1*
X2153226Y2354130D1*
X2154199Y2352228D1*
X2155150Y2349354D1*
Y2344557D1*
X2154199Y2341705D1*
X2153226Y2339782D1*
X2151325Y2337880D1*
X2149402Y2336908D1*
X2145577D1*
X2143676Y2337880D1*
X2141752Y2339782D1*
X2140802Y2341705D1*
Y2344557D1*
X2145577D1*
X2113404Y2357004D2*
Y2336908D1*
X2126802Y2357004D1*
Y2336908D1*
X2099404Y2357004D2*
Y2336908D1*
X2092706D1*
X2089832Y2337880D1*
X2087908Y2339782D1*
X2086958Y2341705D1*
X2086007Y2344557D1*
Y2349354D1*
X2086958Y2352228D1*
X2087908Y2354130D1*
X2089832Y2356053D1*
X2092706Y2357004D1*
X2099404D1*
X1960209Y2295984D2*
X1961159Y2297886D1*
X1963083Y2299809D1*
X1964984Y2300760D1*
X1968809D1*
X1970732Y2299809D1*
X1972633Y2297886D1*
X1973606Y2295984D1*
X1974557Y2293110D1*
Y2288313D1*
X1973606Y2285461D1*
X1972633Y2283538D1*
X1970732Y2281636D1*
X1968809Y2280664D1*
X1964984D1*
X1963083Y2281636D1*
X1961159Y2283538D1*
X1960209Y2285461D1*
Y2288313D1*
X1964984D1*
X1932811Y2300760D2*
Y2280664D1*
X1946209Y2300760D1*
Y2280664D1*
X1918811Y2300760D2*
Y2280664D1*
X1912113D1*
X1909239Y2281636D1*
X1907315Y2283538D1*
X1906365Y2285461D1*
X1905414Y2288313D1*
Y2293110D1*
X1906365Y2295984D1*
X1907315Y2297886D1*
X1909239Y2299809D1*
X1912113Y2300760D1*
X1918811D1*
X944684Y2352228D2*
X945634Y2354130D1*
X947558Y2356053D1*
X949459Y2357004D1*
X953284D1*
X955207Y2356053D1*
X957108Y2354130D1*
X958081Y2352228D1*
X959032Y2349354D1*
Y2344557D1*
X958081Y2341705D1*
X957108Y2339782D1*
X955207Y2337880D1*
X953284Y2336908D1*
X949459D1*
X947558Y2337880D1*
X945634Y2339782D1*
X944684Y2341705D1*
Y2344557D1*
X949459D1*
X917286Y2357004D2*
Y2336908D1*
X930684Y2357004D1*
Y2336908D1*
X903286Y2357004D2*
Y2336908D1*
X896588D1*
X893714Y2337880D1*
X891790Y2339782D1*
X890840Y2341705D1*
X889889Y2344557D1*
Y2349354D1*
X890840Y2352228D1*
X891790Y2354130D1*
X893714Y2356053D1*
X896588Y2357004D1*
X903286D1*
X2254600Y2347188D2*
Y2348614D1*
X2253174Y2351499D1*
X2251748Y2352925D1*
X2248863Y2354351D1*
X2243126D1*
X2240274Y2352925D1*
X2238848Y2351499D1*
X2237389Y2348614D1*
Y2345762D1*
X2238848Y2342877D1*
X2241700Y2338599D1*
X2256059Y2324240D1*
X2235963D1*
X2204752Y2354351D2*
X2219078D1*
X2220504Y2341451D1*
X2219078Y2342877D1*
X2214767Y2344336D1*
X2210489D1*
X2206178Y2342877D1*
X2203293Y2340025D1*
X2201867Y2335714D1*
Y2332862D1*
X2203293Y2328551D1*
X2206178Y2325666D1*
X2210489Y2324240D1*
X2214767D1*
X2219078Y2325666D1*
X2220504Y2327125D1*
X2221963Y2329977D1*
X2357569Y2352228D2*
X2358520Y2354130D1*
X2360443Y2356053D1*
X2362345Y2357004D1*
X2366169D1*
X2368093Y2356053D1*
X2369994Y2354130D1*
X2370967Y2352228D1*
X2371917Y2349354D1*
Y2344557D1*
X2370967Y2341705D1*
X2369994Y2339782D1*
X2368093Y2337880D1*
X2366169Y2336908D1*
X2362345D1*
X2360443Y2337880D1*
X2358520Y2339782D1*
X2357569Y2341705D1*
Y2344557D1*
X2362345D1*
X2330172Y2357004D2*
Y2336908D1*
X2343569Y2357004D1*
Y2336908D1*
X2316172Y2357004D2*
Y2336908D1*
X2309473D1*
X2306599Y2337880D1*
X2304676Y2339782D1*
X2303725Y2341705D1*
X2302775Y2344557D1*
Y2349354D1*
X2303725Y2352228D1*
X2304676Y2354130D1*
X2306599Y2356053D1*
X2309473Y2357004D1*
X2316172D1*
X2465085Y2347188D2*
Y2348614D1*
X2463659Y2351499D1*
X2462233Y2352925D1*
X2459348Y2354351D1*
X2453611D1*
X2450759Y2352925D1*
X2449333Y2351499D1*
X2447874Y2348614D1*
Y2345762D1*
X2449333Y2342877D1*
X2452185Y2338599D1*
X2466544Y2324240D1*
X2446448D1*
X2425285Y2354351D2*
X2429563Y2352925D1*
X2431022Y2350073D1*
Y2347188D1*
X2429563Y2344336D1*
X2426711Y2342877D1*
X2420974Y2341451D1*
X2416663Y2340025D1*
X2413811Y2337140D1*
X2412385Y2334288D1*
Y2329977D1*
X2413811Y2327125D1*
X2415237Y2325666D1*
X2419548Y2324240D1*
X2425285D1*
X2429563Y2325666D1*
X2431022Y2327125D1*
X2432448Y2329977D1*
Y2334288D1*
X2431022Y2337140D1*
X2428137Y2340025D1*
X2423859Y2341451D1*
X2418122Y2342877D1*
X2415237Y2344336D1*
X2413811Y2347188D1*
Y2350073D1*
X2415237Y2352925D1*
X2419548Y2354351D1*
X2425285D1*
X772635Y2300738D2*
X762134D1*
X767860Y2293088D1*
X764986D1*
X763085Y2292138D1*
X762134Y2291187D1*
X761161Y2288313D1*
Y2286412D1*
X762134Y2283538D1*
X764035Y2281614D1*
X766909Y2280664D1*
X769783D1*
X772635Y2281614D1*
X773586Y2282587D1*
X774559Y2284488D1*
X746211Y2282587D2*
X747161Y2281614D1*
X746211Y2280664D1*
X745238Y2281614D1*
X746211Y2282587D1*
X729315Y2300738D2*
X718813D1*
X724539Y2293088D1*
X721665D1*
X719764Y2292138D1*
X718813Y2291187D1*
X717841Y2288313D1*
Y2286412D1*
X718813Y2283538D1*
X720715Y2281614D1*
X723589Y2280664D1*
X726463D1*
X729315Y2281614D1*
X730265Y2282587D1*
X731238Y2284488D1*
X703841Y2294061D2*
X698093Y2280664D1*
X692367Y2294061D1*
X1053394Y2290944D2*
Y2292370D1*
X1051968Y2295255D1*
X1050542Y2296681D1*
X1047657Y2298107D1*
X1041920D1*
X1039068Y2296681D1*
X1037642Y2295255D1*
X1036183Y2292370D1*
Y2289518D1*
X1037642Y2286633D1*
X1040494Y2282355D1*
X1054853Y2267996D1*
X1034757D1*
X1006398D2*
Y2298107D1*
X1020757Y2278044D1*
X999235D1*
X1147794Y2295984D2*
X1148745Y2297886D1*
X1150668Y2299809D1*
X1152569Y2300760D1*
X1156394D1*
X1158317Y2299809D1*
X1160218Y2297886D1*
X1161191Y2295984D1*
X1162142Y2293110D1*
Y2288313D1*
X1161191Y2285461D1*
X1160218Y2283538D1*
X1158317Y2281636D1*
X1156394Y2280664D1*
X1152569D1*
X1150668Y2281636D1*
X1148745Y2283538D1*
X1147794Y2285461D1*
Y2288313D1*
X1152569D1*
X1120397Y2300760D2*
Y2280664D1*
X1133794Y2300760D1*
Y2280664D1*
X1106397Y2300760D2*
Y2280664D1*
X1099698D1*
X1096824Y2281636D1*
X1094900Y2283538D1*
X1093950Y2285461D1*
X1092999Y2288313D1*
Y2293110D1*
X1093950Y2295984D1*
X1094900Y2297886D1*
X1096824Y2299809D1*
X1099698Y2300760D1*
X1106397D1*
X1251947Y2290944D2*
Y2292370D1*
X1250521Y2295255D1*
X1249095Y2296681D1*
X1246210Y2298107D1*
X1240473D1*
X1237621Y2296681D1*
X1236196Y2295255D1*
X1234736Y2292370D1*
Y2289518D1*
X1236196Y2286633D1*
X1239047Y2282355D1*
X1253406Y2267996D1*
X1233310D1*
X1213573D2*
X1199214Y2298107D1*
X1219310D1*
X1350478Y2290944D2*
Y2292370D1*
X1349052Y2295255D1*
X1347626Y2296681D1*
X1344741Y2298107D1*
X1339004D1*
X1336152Y2296681D1*
X1334726Y2295255D1*
X1333267Y2292370D1*
Y2289518D1*
X1334726Y2286633D1*
X1337578Y2282355D1*
X1351937Y2267996D1*
X1331841D1*
X1300630Y2293829D2*
X1302056Y2296681D1*
X1306367Y2298107D1*
X1309219D1*
X1313530Y2296681D1*
X1316415Y2292370D1*
X1317841Y2285207D1*
Y2278044D1*
X1316415Y2272307D1*
X1313530Y2269422D1*
X1309219Y2267996D1*
X1307793D1*
X1303515Y2269422D1*
X1300630Y2272307D1*
X1299204Y2276618D1*
Y2278044D1*
X1300630Y2282355D1*
X1303515Y2285207D1*
X1307793Y2286633D1*
X1309219D1*
X1313530Y2285207D1*
X1316415Y2282355D1*
X1317841Y2278044D1*
X1572551Y2300738D2*
X1562050D1*
X1567776Y2293088D1*
X1564902D1*
X1563001Y2292138D1*
X1562050Y2291187D1*
X1561077Y2288313D1*
Y2286412D1*
X1562050Y2283538D1*
X1563951Y2281614D1*
X1566825Y2280664D1*
X1569699D1*
X1572551Y2281614D1*
X1573502Y2282587D1*
X1574475Y2284488D1*
X1546127Y2282587D2*
X1547077Y2281614D1*
X1546127Y2280664D1*
X1545154Y2281614D1*
X1546127Y2282587D1*
X1529231Y2300738D2*
X1518729D1*
X1524455Y2293088D1*
X1521581D1*
X1519680Y2292138D1*
X1518729Y2291187D1*
X1517757Y2288313D1*
Y2286412D1*
X1518729Y2283538D1*
X1520631Y2281614D1*
X1523505Y2280664D1*
X1526379D1*
X1529231Y2281614D1*
X1530181Y2282587D1*
X1531154Y2284488D1*
X1503757Y2294061D2*
X1498009Y2280664D1*
X1492283Y2294061D1*
X1660240Y2352228D2*
X1661191Y2354130D1*
X1663114Y2356053D1*
X1665015Y2357004D1*
X1668840D1*
X1670763Y2356053D1*
X1672665Y2354130D1*
X1673637Y2352228D1*
X1674588Y2349354D1*
Y2344557D1*
X1673637Y2341705D1*
X1672665Y2339782D1*
X1670763Y2337880D1*
X1668840Y2336908D1*
X1665015D1*
X1663114Y2337880D1*
X1661191Y2339782D1*
X1660240Y2341705D1*
Y2344557D1*
X1665015D1*
X1632843Y2357004D2*
Y2336908D1*
X1646240Y2357004D1*
Y2336908D1*
X1618843Y2357004D2*
Y2336908D1*
X1612144D1*
X1609270Y2337880D1*
X1607347Y2339782D1*
X1606396Y2341705D1*
X1605445Y2344557D1*
Y2349354D1*
X1606396Y2352228D1*
X1607347Y2354130D1*
X1609270Y2356053D1*
X1612144Y2357004D1*
X1618843D1*
X458106Y2013986D2*
X460957Y2012560D1*
X463842Y2009675D1*
X465268Y2006823D1*
Y2001086D1*
X463842Y1998201D1*
X460957Y1995349D1*
X458106Y1993890D1*
X453794Y1992464D1*
X446598D1*
X442321Y1993890D1*
X439435Y1995349D1*
X436584Y1998201D1*
X435124Y2001086D1*
Y2006823D1*
X436584Y2009675D1*
X439435Y2012560D1*
X442321Y2013986D1*
X446598D1*
Y2006823D1*
X465268Y2048082D2*
X435124D1*
X465268Y2027986D1*
X435124D1*
X465268Y2062082D2*
X435124D1*
Y2072130D1*
X436584Y2076441D1*
X439435Y2079326D1*
X442321Y2080752D1*
X446598Y2082178D1*
X453795D1*
X458106Y2080752D1*
X460957Y2079326D1*
X463843Y2076441D1*
X465268Y2072130D1*
Y2062082D1*
X696178Y2002901D2*
X670345D1*
X683245Y1990002D2*
Y2015835D1*
X698317Y2047045D2*
Y2032720D1*
X685417Y2031294D1*
X686843Y2032720D1*
X688302Y2037031D1*
Y2041308D1*
X686843Y2045619D1*
X683991Y2048505D1*
X679680Y2049931D1*
X676828D1*
X672517Y2048505D1*
X669632Y2045620D1*
X668206Y2041309D1*
Y2037031D1*
X669632Y2032720D1*
X671091Y2031294D1*
X673943Y2029835D1*
X698350Y2063930D2*
X668206Y2075404D1*
X698350Y2086878D1*
X451856Y926600D2*
X454708Y925174D1*
X457593Y922289D1*
X459019Y919437D1*
Y913700D1*
X457593Y910815D1*
X454708Y907963D1*
X451856Y906504D1*
X447545Y905078D1*
X440349D1*
X436071Y906504D1*
X433186Y907963D1*
X430334Y910815D1*
X428875Y913700D1*
Y919437D1*
X430334Y922289D1*
X433186Y925174D1*
X436071Y926600D1*
X440349D1*
Y919437D1*
X459019Y960696D2*
X428875D1*
X459019Y940600D1*
X428875D1*
X459019Y974696D2*
X428875D1*
Y984744D1*
X430334Y989055D1*
X433186Y991940D1*
X436071Y993366D1*
X440349Y994792D1*
X447545D1*
X451856Y993366D1*
X454708Y991940D1*
X457593Y989055D1*
X459019Y984744D1*
Y974696D1*
X692067Y893840D2*
Y909592D1*
X680593Y901003D1*
Y905314D1*
X679167Y908166D1*
X677741Y909592D1*
X673430Y911051D1*
X670579D1*
X666268Y909592D1*
X663382Y906740D1*
X661956Y902429D1*
Y898118D1*
X663382Y893840D1*
X664842Y892414D1*
X667693Y890955D1*
X664842Y926477D2*
X663382Y925051D1*
X661956Y926477D1*
X663382Y927936D1*
X664842Y926477D1*
X692067Y944821D2*
Y960573D1*
X680593Y951984D1*
Y956295D1*
X679167Y959147D1*
X677741Y960573D1*
X673430Y962032D1*
X670578D1*
X666267Y960573D1*
X663382Y957721D1*
X661956Y953410D1*
Y949099D1*
X663382Y944821D1*
X664842Y943395D1*
X667693Y941936D1*
X682052Y976032D2*
X661956Y984654D1*
X682053Y993243D1*
M02*
