M48
INCH
T01C0.0191
T02C0.0315
T03C0.0354
T04C0.0362
T05C0.038
T06C0.04
T07C0.0591
T08C0.0906
T09C0.118
T10C0.125
%
T01
X+021179Y+005437
X+021931Y+005937
X+022531Y+005937
X+022131Y+005337
X+022304Y+007062
X+023131Y+007737
X+022616Y+008749
X+024331Y+007737
X+024741Y+007062
X+024731Y+005737
X+024331Y+005337
X+023931Y+005737
X+025531Y+005737
X+027491Y+006812
X+027553Y+007437
X+028366Y+006624
X+029331Y+005737
X+030931Y+006937
X+027731Y+009937
X+026131Y+011337
X+024331Y+012737
X+024429Y+013936
X+022931Y+013337
X+022931Y+012737
X+020931Y+013737
X+019992Y+013061
X+019742Y+013686
X+018867Y+013623
X+018931Y+014937
X+017117Y+015936
X+017179Y+018123
X+016117Y+018061
X+016131Y+018737
X+015531Y+018937
X+014331Y+019337
X+014331Y+020337
X+012331Y+019937
X+011731Y+020137
X+012131Y+020737
X+011331Y+021137
X+011117Y+022373
X+011731Y+023137
X+013492Y+022373
X+015131Y+022337
X+018731Y+023137
X+019617Y+023247
X+021731Y+023337
X+022731Y+023337
X+023679Y+023435
X+023929Y+022498
X+025428Y+021935
X+024116Y+020873
X+025303Y+019935
X+024241Y+018373
X+023131Y+018337
X+024931Y+016937
X+027531Y+015937
X+027731Y+014937
X+029331Y+015737
X+029553Y+014686
X+029616Y+013623
X+030490Y+013561
X+030678Y+014436
X+030531Y+015737
X+030731Y+016537
X+031731Y+016137
X+032531Y+015737
X+033131Y+016137
X+033531Y+016537
X+033131Y+014337
X+032731Y+012937
X+032131Y+012937
X+034428Y+012624
X+035331Y+008937
X+035331Y+007337
X+028803Y+018873
X+027991Y+019373
X+028131Y+020937
X+027731Y+022737
X+026991Y+022748
X+028803Y+023622
X+029428Y+023685
X+022131Y+022337
X+020731Y+020937
X+020331Y+020537
X+018731Y+020337
X+018931Y+018337
X+018867Y+017623
X+019992Y+017311
X+020741Y+016811
X+018131Y+012137
X+018531Y+011337
X+018931Y+010337
X+019804Y+009874
X+018531Y+007937
X+017531Y+008737
X+017131Y+008337
X+016131Y+008337
X+015531Y+008137
X+015131Y+008737
X+015331Y+009737
X+015531Y+010937
X+016131Y+011737
X+014131Y+010937
X+013731Y+009737
X+011331Y+010137
X+011131Y+010937
X+010731Y+011737
X+010531Y+012737
X+009531Y+009737
X+007680Y+009874
X+011331Y+008937
X+010731Y+007337
X+014731Y+007357
X+020554Y+007062
X+013930Y+013748
X+013555Y+014248
X+013617Y+017225
X+014242Y+017436
X+009805Y+017873
X+008131Y+018937
X+009243Y+020935
X+009731Y+023137
X+005743Y+018061
X+007243Y+015936
T02
X+029491Y+009311
X+029491Y+008524
X+029491Y+007737
T03
X+021431Y+009937
X+022431Y+009937
X+023431Y+009937
X+024431Y+009937
X+025431Y+009937
X+026431Y+009937
X+021491Y+015748
X+013617Y+015748
X+006181Y+015437
X+006181Y+014437
X+005181Y+014437
X+005181Y+015437
X+005181Y+016437
X+006181Y+016437
X+006181Y+017437
X+005181Y+017437
X+005181Y+018937
X+005181Y+019937
X+005181Y+020937
X+005181Y+021937
X+006181Y+021937
X+006181Y+020937
X+006181Y+019937
X+006181Y+018937
X+006181Y+013437
X+005181Y+013437
X+005056Y+010937
X+006056Y+010937
X+006056Y+009937
X+006056Y+008937
X+005056Y+008937
X+005056Y+007937
X+006056Y+007937
X+005056Y+009937
X+030681Y+020337
X+030681Y+021337
X+030681Y+022337
T04
X+032147Y+020571
X+032147Y+021555
X+032147Y+022343
X+032147Y+023327
T05
X+036681Y+017874
X+035681Y+017874
X+034681Y+017874
X+033681Y+017874
X+032681Y+017874
X+031681Y+017874
X+030681Y+017874
X+029681Y+017874
X+028681Y+017874
X+027681Y+017874
X+026681Y+017874
X+025681Y+017874
X+025681Y+016874
X+026681Y+016874
X+026681Y+015874
X+025681Y+015874
X+025681Y+014874
X+026681Y+014874
X+026681Y+013874
X+025681Y+013874
X+025681Y+012874
X+026681Y+012874
X+026681Y+011874
X+027681Y+011874
X+028681Y+011874
X+029681Y+011874
X+030681Y+011874
X+031681Y+011874
X+032681Y+011874
X+033681Y+011874
X+034681Y+011874
X+035681Y+011874
X+035681Y+012874
X+036681Y+011874
X+025681Y+011874
X+024681Y+011874
X+023681Y+011874
X+023681Y+012874
X+023681Y+013874
X+023681Y+016874
X+023681Y+017874
X+024681Y+017874
T06
X+020181Y+006437
X+019181Y+006437
X+018181Y+006437
X+017181Y+006437
X+016181Y+006437
X+015181Y+006437
X+014181Y+006437
X+013181Y+006437
X+012181Y+006437
X+011181Y+006437
X+010181Y+006437
X+009181Y+006437
X+008181Y+006437
X+007181Y+006437
X+007181Y+005437
X+008181Y+005437
X+009181Y+005437
X+010181Y+005437
X+011181Y+005437
X+012181Y+005437
X+013181Y+005437
X+014181Y+005437
X+015181Y+005437
X+016181Y+005437
X+017181Y+005437
X+018181Y+005437
X+019181Y+005437
X+020181Y+005437
X+036461Y+014424
X+036461Y+015324
X+026226Y+024106
X+025226Y+024106
X+025226Y+025106
X+026226Y+025106
X+024226Y+025106
X+023226Y+025106
X+022226Y+025106
X+022226Y+024106
X+023226Y+024106
X+024226Y+024106
X+021226Y+024106
X+020226Y+024106
X+019226Y+024106
X+019226Y+025106
X+020226Y+025106
X+021226Y+025106
X+018226Y+025106
X+017226Y+025106
X+017226Y+024106
X+018226Y+024106
X+016226Y+024106
X+016226Y+025106
X+015226Y+025106
X+015226Y+024106
X+014226Y+024106
X+014226Y+025106
X+013226Y+025106
X+013226Y+024106
X+012226Y+024106
X+012226Y+025106
X+011226Y+025106
X+010226Y+025106
X+010226Y+024106
X+011226Y+024106
X+009226Y+024106
X+009226Y+025106
X+008226Y+025106
X+008226Y+024106
X+007226Y+024106
X+007226Y+025106
T07
X+029491Y+010138
X+029491Y+006910
T08
X+033214Y+019362
X+033214Y+024535
T09
X+031803Y+007999
X+032984Y+009849
X+034165Y+007999
T10
X+028143Y+005315
X+028143Y+024606
X+005309Y+024606
X+005309Y+005315
T00
M30
