G04 DipTrace 3.3.1.3*
G04 Teensy4RPIlike.gts*
%MOIN*%
G04 #@! TF.FileFunction,Soldermask,Top*
G04 #@! TF.Part,Single*
%AMOUTLINE0*
4,1,8,
0.030118,-0.012475,
0.012475,-0.030118,
-0.012475,-0.030118,
-0.030118,-0.012475,
-0.030118,0.012475,
-0.012475,0.030118,
0.012475,0.030118,
0.030118,0.012475,
0.030118,-0.012475,
0*%
%AMOUTLINE1*
4,1,4,
-0.0175,-0.025,
-0.0175,0.025,
0.0175,0.025,
0.0175,-0.025,
-0.0175,-0.025,
0*%
%AMOUTLINE2*
4,1,4,
0.0285,-0.0155,
-0.0285,-0.0155,
-0.0285,0.0155,
0.0285,0.0155,
0.0285,-0.0155,
0*%
%AMOUTLINE3*
4,1,4,
-0.0185,-0.026,
-0.0185,0.026,
0.0185,0.026,
0.0185,-0.026,
-0.0185,-0.026,
0*%
%ADD14C,0.04*%
%ADD27R,0.05X0.1*%
%ADD30C,0.17*%
%ADD31R,0.059055X0.059055*%
%ADD32C,0.059055*%
%ADD33C,0.07*%
%ADD39R,0.07874X0.023622*%
%ADD40R,0.165354X0.027559*%
%ADD44R,0.047244X0.047244*%
%ADD47C,0.06194*%
%ADD48C,0.074*%
%ADD62C,0.167*%
%ADD64C,0.042*%
%ADD66C,0.139795*%
%ADD68C,0.064992*%
%ADD70R,0.064992X0.064992*%
%ADD76O,0.104362X0.084677*%
%ADD82R,0.08074X0.025622*%
%ADD84R,0.059087X0.04137*%
%ADD86R,0.033496X0.061055*%
%ADD88R,0.033496X0.057118*%
%ADD90R,0.04137X0.063024*%
%ADD92R,0.029559X0.070898*%
%ADD94C,0.072*%
%ADD96C,0.061055*%
%ADD98R,0.061055X0.061055*%
%ADD102R,0.053181X0.061055*%
%ADD104R,0.061055X0.053181*%
%ADD110OUTLINE0*%
%ADD111OUTLINE1*%
%ADD112OUTLINE2*%
%ADD113OUTLINE3*%
%FSLAX26Y26*%
G04*
G70*
G90*
G75*
G01*
G04 TopMask*
%LPD*%
D64*
X768033Y987388D3*
X2836566Y662422D3*
X2749075Y681170D3*
X1349222Y2237256D3*
X1111747D3*
X2542847Y2193511D3*
X574304Y1806052D3*
X2074146Y1681065D3*
X1361737Y1722480D3*
D62*
X2814333Y531495D3*
X530868D3*
Y2460629D3*
X2814333D3*
D14*
X2117892Y543684D3*
X3273073Y1293700D3*
X2773073Y2273700D3*
X2942805Y2368493D3*
X2961553Y1362348D3*
X2213073Y533700D3*
X2433073Y1273700D3*
X2442857Y1393595D3*
X2773073Y1493700D3*
X3093073Y693700D3*
X3253073Y1573700D3*
X3053073D3*
X2955304Y1468587D3*
X2253073Y593700D3*
X2613073Y1133700D3*
X2433073Y533700D3*
Y773700D3*
X2313073D3*
X2933073Y1573700D3*
X2230380Y706167D3*
X2473073Y573700D3*
X2474104Y706167D3*
X3442752Y1262359D3*
X2553073Y573700D3*
X2173073Y2333700D3*
X2193073Y593700D3*
X3353073Y1653700D3*
X3073073D3*
X1961658Y2324747D3*
X2273073Y2333700D3*
X2367865Y2343495D3*
X1513073Y873700D3*
Y2233700D3*
X2813073Y2093700D3*
X3313073Y1613700D3*
X3173073D3*
X2213073Y2233700D3*
X1213073Y2073700D3*
X1113073Y1093700D3*
X1413073D3*
X2880312Y1887293D3*
X2073073Y2093700D3*
X1424214Y1743558D3*
X1999154Y1731060D3*
X2033073Y2053700D3*
X2313073Y1833700D3*
X1893073D3*
Y1493700D3*
X1873073Y2313700D3*
X1173073D3*
X1873073Y2033700D3*
X1433073D3*
Y1933700D3*
X3313073Y1433700D3*
X1980406Y987388D3*
X1553073Y1093700D3*
Y1893700D3*
X1611695Y1806052D3*
X2424109Y1837298D3*
X1613073Y1873700D3*
X813073Y1893700D3*
X1711684Y1593574D3*
X724288D3*
X1717934Y1812301D3*
X1813073Y1213700D3*
X2261627Y874899D3*
X1753073Y873700D3*
X1613073Y833700D3*
X1713073D3*
X1613073Y1173700D3*
X1073073Y733700D3*
Y1173700D3*
X1133073Y893700D3*
Y1013700D3*
X1886666Y1362348D3*
X1974157Y1368598D3*
X1893073Y1033700D3*
X2799070Y1937288D3*
X1133073Y2113700D3*
X1373073Y973700D3*
X953073D3*
X924267Y2093522D3*
X2699081Y2274752D3*
X2880312Y2362243D3*
X2773073Y993700D3*
X1553073Y813700D3*
X1533073Y973700D3*
X3067792Y1443590D3*
X3213073Y1293700D3*
X1853073Y793700D3*
X973073Y2313700D3*
X980511Y1787304D3*
X1886666Y1762306D3*
X1853073Y1133700D3*
X1473073Y735700D3*
X1053073Y1273700D3*
X2293073Y1333700D3*
X1999154Y1306104D3*
X1392968Y1374847D3*
X1355472Y1424842D3*
X2493073Y1693700D3*
X1233073Y1993700D3*
X2530348Y1993532D3*
X2411611Y2087272D3*
X1173073Y2013700D3*
X2392863Y2249755D3*
X2933073Y573700D3*
X2755325Y743663D3*
X2055398Y706167D3*
X2093073Y1373700D3*
X2293073Y1273700D3*
X2393073Y573700D3*
X3049044Y1356099D3*
X3533073Y733700D3*
Y893700D3*
X2753073Y1593700D3*
D27*
X861773Y1999781D3*
Y2174781D3*
D104*
X2599091Y2193511D3*
Y2118708D3*
D102*
X580540Y1212230D3*
X505737D3*
X3124036Y1918540D3*
X3049233D3*
D30*
X3180280Y799907D3*
X3416501D3*
X3298390Y984947D3*
D98*
X2143073Y993700D3*
D96*
X2243073D3*
X2343073D3*
X2443073D3*
X2543073D3*
X2643073D3*
D33*
X2018073Y643700D3*
X1918073D3*
X1818073D3*
X1718073D3*
X1618073D3*
X1518073D3*
X1418073D3*
X1318073D3*
X1218073D3*
X1118073D3*
X1018073D3*
X918073D3*
X818073D3*
X718073D3*
D94*
X2018073Y543700D3*
X1918073D3*
X1818073D3*
X1718073D3*
X1618073D3*
X1518073D3*
X1418073D3*
X1318073D3*
X1218073D3*
X1118073D3*
X1018073D3*
X918073D3*
X818073D3*
X718073D3*
D98*
X618073Y1343700D3*
D96*
X518073D3*
X618073Y1443700D3*
X518073D3*
X618073Y1543700D3*
X518073D3*
X618073Y1643700D3*
X518073D3*
X618073Y1743700D3*
X518073D3*
D31*
X3068073Y2233700D3*
D32*
Y2133700D3*
D96*
Y2033700D3*
D92*
X2215002Y457985D3*
X2258348D3*
X2301616D3*
X2344949Y457972D3*
X2388256D3*
X2431550D3*
X2474871D3*
X2518151Y457985D3*
D102*
X2167797Y462709D3*
D98*
X2614648D3*
D90*
X2612272Y883365D3*
D88*
X2628401Y787696D3*
D86*
X2157955Y762079D3*
D84*
X2170514Y821134D3*
D39*
X2860889Y1349642D3*
Y1389012D3*
Y1428382D3*
Y1507123D3*
Y1467752D3*
Y1546493D3*
Y1585863D3*
Y1625233D3*
D40*
X2943566Y1310272D3*
Y1664603D3*
D110*
X722600Y2410629D3*
Y2510629D3*
X822600Y2410629D3*
Y2510629D3*
X922600Y2410629D3*
Y2510629D3*
X1022600Y2410629D3*
Y2510629D3*
X1122600Y2410629D3*
Y2510629D3*
X1222600Y2410629D3*
Y2510629D3*
X1322600Y2410629D3*
Y2510629D3*
X1422600Y2410629D3*
Y2510629D3*
X1522600Y2410629D3*
Y2510629D3*
X1622600Y2410629D3*
Y2510629D3*
X1722600Y2410629D3*
Y2510629D3*
X1822600Y2410629D3*
Y2510629D3*
X1922600Y2410629D3*
Y2510629D3*
X2022600Y2410629D3*
Y2510629D3*
X2122600Y2410629D3*
Y2510629D3*
X2222600Y2410629D3*
Y2510629D3*
X2322600Y2410629D3*
Y2510629D3*
X2422600Y2410629D3*
Y2510629D3*
X2522600Y2410629D3*
Y2510629D3*
X2622600Y2410629D3*
Y2510629D3*
D98*
X2149138Y1574826D3*
D96*
X1361737D3*
D111*
X3000573Y523700D3*
X3185573D3*
D112*
X2960073Y449200D3*
X3226073D3*
D98*
X505561Y1093700D3*
D96*
X605561D3*
X505561Y993700D3*
X605561D3*
X505561Y893700D3*
X605561D3*
X505561Y793700D3*
X605561D3*
D98*
X518073Y2193700D3*
D96*
X618073D3*
X518073Y2093700D3*
X618073D3*
X518073Y1993700D3*
X618073D3*
X518073Y1893700D3*
X618073D3*
D113*
X3417755Y523700D3*
X3602755D3*
D112*
X3377255Y449200D3*
X3643255D3*
D44*
X3017797Y2499729D3*
X3100474D3*
D102*
X3074041Y2362243D3*
X2999238D3*
D98*
X2949054Y931144D3*
D96*
Y852403D3*
Y773663D3*
D76*
Y1013821D3*
Y690986D3*
D47*
X3668073Y1787417D3*
X3568073D3*
X3468073D3*
X3368073D3*
X3268073D3*
X3168073D3*
X3068073D3*
X2968073D3*
X2868073D3*
X2768073D3*
X2668073D3*
X2568073D3*
X2468073D3*
X2368073D3*
Y1687417D3*
Y1387417D3*
Y1287417D3*
Y1187417D3*
X2468073D3*
X2568073D3*
X2668073D3*
X2768073D3*
X2868073D3*
X2968073D3*
X3068073D3*
X3168073D3*
X3268073D3*
X3368073D3*
X3468073D3*
X3568073D3*
X3668073D3*
X3568073Y1287417D3*
D48*
X3646073Y1442417D3*
D47*
X2668073Y1687417D3*
X2568073Y1587417D3*
Y1487417D3*
D48*
X3646073Y1532417D3*
D47*
X2568073Y1687417D3*
X2668073Y1587417D3*
Y1487417D3*
Y1387417D3*
Y1287417D3*
X2568073Y1387417D3*
Y1287417D3*
D82*
X2686582Y2224758D3*
Y2174758D3*
Y2124758D3*
Y2074758D3*
X2899180D3*
Y2124758D3*
Y2174758D3*
Y2224758D3*
D70*
X3214726Y2057086D3*
D68*
Y2155511D3*
Y2234251D3*
Y2332676D3*
D66*
X3321419Y1936220D3*
Y2453543D3*
M02*
