G04 DipTrace 3.3.1.3*
G04 T4-T36-Breakout.gbo*
%MOIN*%
G04 #@! TF.FileFunction,Legend,Bot*
G04 #@! TF.Part,Single*
%ADD22C,0.008*%
%ADD129C,0.006176*%
%ADD130C,0.004632*%
%ADD131C,0.006562*%
%ADD132C,0.00772*%
%ADD133C,0.007*%
%FSLAX26Y26*%
G04*
G70*
G90*
G75*
G01*
G04 BotSilk*
%LPD*%
X1867911Y2033070D2*
D22*
X1804922D1*
X1867911Y1954330D2*
G03X1875793Y1966141I-1971J9850D01*
G01*
X1797040D2*
G03X1804922Y1954330I9852J-1961D01*
G01*
X1797040Y2021259D2*
G02X1804922Y2033070I9852J1961D01*
G01*
X1867911D2*
G02X1875793Y2021259I-1971J-9850D01*
G01*
X1804922Y1954330D2*
X1867911D1*
X519330Y2322478D2*
Y2259489D1*
X598070Y2322478D2*
G03X586259Y2330360I-9850J-1971D01*
G01*
Y2251607D2*
G03X598070Y2259489I1961J9852D01*
G01*
X531141Y2251607D2*
G02X519330Y2259489I-1961J9852D01*
G01*
Y2322478D2*
G02X531141Y2330360I9850J-1971D01*
G01*
X598070Y2259489D2*
Y2322478D1*
X2147911Y2033070D2*
X2084922D1*
X2147911Y1954330D2*
G03X2155793Y1966141I-1971J9850D01*
G01*
X2077040D2*
G03X2084922Y1954330I9852J-1961D01*
G01*
X2077040Y2021259D2*
G02X2084922Y2033070I9852J1961D01*
G01*
X2147911D2*
G02X2155793Y2021259I-1971J-9850D01*
G01*
X2084922Y1954330D2*
X2147911D1*
X599489Y1104330D2*
X662478D1*
X599489Y1183070D2*
G03X591607Y1171259I1971J-9850D01*
G01*
X670360D2*
G03X662478Y1183070I-9852J1961D01*
G01*
X670360Y1116141D2*
G02X662478Y1104330I-9852J-1961D01*
G01*
X599489D2*
G02X591607Y1116141I1971J9850D01*
G01*
X662478Y1183070D2*
X599489D1*
X589489Y1199330D2*
X652478D1*
X589489Y1278070D2*
G03X581607Y1266259I1971J-9850D01*
G01*
X660360D2*
G03X652478Y1278070I-9852J1961D01*
G01*
X660360Y1211141D2*
G02X652478Y1199330I-9852J-1961D01*
G01*
X589489D2*
G02X581607Y1211141I1971J9850D01*
G01*
X652478Y1278070D2*
X589489D1*
X1895143Y2085901D2*
D129*
X1898946Y2089747D1*
X1904694Y2091649D1*
X1912343D1*
X1918091Y2089747D1*
X1921938Y2085901D1*
Y2082098D1*
X1919992Y2078251D1*
X1918091Y2076350D1*
X1914289Y2074449D1*
X1902793Y2070602D1*
X1898946Y2068701D1*
X1897045Y2066755D1*
X1895143Y2062953D1*
Y2057205D1*
X1898946Y2053402D1*
X1904694Y2051457D1*
X1912343D1*
X1918091Y2053402D1*
X1921938Y2057205D1*
X1863646Y2091649D2*
Y2061051D1*
X1865548Y2055303D1*
X1867493Y2053402D1*
X1871296Y2051457D1*
X1875143D1*
X1878945Y2053402D1*
X1880846Y2055303D1*
X1882792Y2061051D1*
Y2064854D1*
X1847448Y2091604D2*
X1826446D1*
X1837898Y2076306D1*
X1832150D1*
X1828347Y2074404D1*
X1826446Y2072503D1*
X1824500Y2066755D1*
Y2062953D1*
X1826446Y2057205D1*
X1830248Y2053358D1*
X1835996Y2051457D1*
X1841745D1*
X1847448Y2053358D1*
X1849350Y2055303D1*
X1851295Y2059106D1*
X1812149Y2071530D2*
X1790041D1*
X1754742Y2091604D2*
X1773843D1*
X1775744Y2074404D1*
X1773843Y2076306D1*
X1768095Y2078251D1*
X1762391D1*
X1756643Y2076306D1*
X1752796Y2072503D1*
X1750895Y2066755D1*
Y2062953D1*
X1752796Y2057205D1*
X1756643Y2053358D1*
X1762391Y2051457D1*
X1768095D1*
X1773843Y2053358D1*
X1775744Y2055303D1*
X1777690Y2059106D1*
X466500Y2369283D2*
X462653Y2373086D1*
X460751Y2378834D1*
Y2386483D1*
X462653Y2392231D1*
X466500Y2396078D1*
X470302D1*
X474149Y2394132D1*
X476050Y2392231D1*
X477951Y2388429D1*
X481798Y2376933D1*
X483699Y2373086D1*
X485645Y2371184D1*
X489447Y2369283D1*
X495195D1*
X498998Y2373086D1*
X500943Y2378834D1*
Y2386483D1*
X498998Y2392231D1*
X495195Y2396078D1*
X460752Y2337786D2*
X491349D1*
X497097Y2339688D1*
X498998Y2341633D1*
X500943Y2345436D1*
Y2349283D1*
X498998Y2353085D1*
X497097Y2354986D1*
X491349Y2356932D1*
X487546D1*
X460796Y2321588D2*
Y2300586D1*
X476094Y2312038D1*
Y2306290D1*
X477996Y2302487D1*
X479897Y2300586D1*
X485645Y2298640D1*
X489447D1*
X495195Y2300586D1*
X499042Y2304388D1*
X500943Y2310136D1*
Y2315884D1*
X499042Y2321588D1*
X497097Y2323490D1*
X493294Y2325435D1*
X480870Y2286289D2*
Y2264181D1*
X460796Y2247983D2*
Y2226981D1*
X476094Y2238432D1*
Y2232684D1*
X477996Y2228882D1*
X479897Y2226981D1*
X485645Y2225035D1*
X489447D1*
X495195Y2226981D1*
X499042Y2230783D1*
X500944Y2236531D1*
X500943Y2242279D1*
X499042Y2247983D1*
X497097Y2249884D1*
X493294Y2251830D1*
X460751Y2199287D2*
X500944Y2199286D1*
X460752Y2212684D2*
X460751Y2185889D1*
X2177045Y2085901D2*
X2180847Y2089747D1*
X2186595Y2091649D1*
X2194244D1*
X2199992Y2089747D1*
X2203839Y2085901D1*
Y2082098D1*
X2201894Y2078251D1*
X2199992Y2076350D1*
X2196190Y2074449D1*
X2184694Y2070602D1*
X2180847Y2068701D1*
X2178946Y2066755D1*
X2177045Y2062953D1*
Y2057205D1*
X2180847Y2053402D1*
X2186595Y2051457D1*
X2194244D1*
X2199992Y2053402D1*
X2203839Y2057205D1*
X2145548Y2091649D2*
Y2061051D1*
X2147449Y2055303D1*
X2149395Y2053402D1*
X2153197Y2051457D1*
X2157044D1*
X2160846Y2053402D1*
X2162748Y2055303D1*
X2164693Y2061051D1*
Y2064854D1*
X2129350Y2091604D2*
X2108347D1*
X2119799Y2076306D1*
X2114051D1*
X2110248Y2074404D1*
X2108347Y2072503D1*
X2106402Y2066755D1*
Y2062953D1*
X2108347Y2057205D1*
X2112150Y2053358D1*
X2117898Y2051457D1*
X2123646D1*
X2129350Y2053358D1*
X2131251Y2055303D1*
X2133196Y2059106D1*
X2094050Y2071530D2*
X2071942D1*
X2059591Y2091649D2*
X2044292Y2051457D1*
X2028994Y2091649D1*
X678108Y1080015D2*
X681910Y1083862D1*
X687658Y1085763D1*
X695308D1*
X701056Y1083862D1*
X704903Y1080015D1*
Y1076212D1*
X702957Y1072366D1*
X701056Y1070464D1*
X697253Y1068563D1*
X685757Y1064716D1*
X681910Y1062815D1*
X680009Y1060870D1*
X678108Y1057067D1*
Y1051319D1*
X681910Y1047516D1*
X687658Y1045571D1*
X695308D1*
X701056Y1047516D1*
X704903Y1051319D1*
X646611Y1085763D2*
Y1055166D1*
X648512Y1049418D1*
X650458Y1047516D1*
X654260Y1045571D1*
X658107D1*
X661910Y1047516D1*
X663811Y1049418D1*
X665756Y1055166D1*
Y1058968D1*
X634260Y1085763D2*
Y1057067D1*
X632358Y1051319D1*
X628512Y1047516D1*
X622764Y1045571D1*
X618961D1*
X613213Y1047516D1*
X609366Y1051319D1*
X607465Y1057067D1*
Y1085763D1*
X595114Y1065645D2*
X573006D1*
X560654Y1064716D2*
X543410D1*
X537707Y1066618D1*
X535761Y1068563D1*
X533860Y1072366D1*
Y1078114D1*
X535761Y1081916D1*
X537707Y1083862D1*
X543410Y1085763D1*
X560654D1*
Y1045571D1*
X504308Y1082867D2*
Y1048423D1*
X521508Y1065623D2*
X487064D1*
X691940Y1330901D2*
X695742Y1334747D1*
X701490Y1336649D1*
X709140D1*
X714888Y1334747D1*
X718734Y1330901D1*
Y1327098D1*
X716789Y1323251D1*
X714888Y1321350D1*
X711085Y1319449D1*
X699589Y1315602D1*
X695742Y1313701D1*
X693841Y1311755D1*
X691940Y1307953D1*
Y1302205D1*
X695742Y1298402D1*
X701490Y1296457D1*
X709140D1*
X714888Y1298402D1*
X718734Y1302205D1*
X660443Y1336649D2*
Y1306051D1*
X662344Y1300303D1*
X664290Y1298402D1*
X668092Y1296457D1*
X671939D1*
X675742Y1298402D1*
X677643Y1300303D1*
X679588Y1306051D1*
Y1309854D1*
X648092Y1336649D2*
Y1307953D1*
X646190Y1302205D1*
X642344Y1298402D1*
X636596Y1296457D1*
X632793D1*
X627045Y1298402D1*
X623198Y1302205D1*
X621297Y1307953D1*
Y1336649D1*
X608946Y1316530D2*
X586838D1*
X574486Y1315602D2*
X557242D1*
X551538Y1317503D1*
X549593Y1319449D1*
X547692Y1323251D1*
Y1328999D1*
X549593Y1332802D1*
X551538Y1334747D1*
X557242Y1336649D1*
X574486D1*
Y1296457D1*
X535340Y1316530D2*
X513232D1*
X1965969Y814299D2*
X1962122Y816245D1*
X1956374Y821948D1*
Y781801D1*
X1944023Y814299D2*
X1940176Y816245D1*
X1934428Y821948D1*
Y781801D1*
X2071669Y813799D2*
X2067822Y815745D1*
X2062074Y821448D1*
Y781301D1*
X2047777Y811898D2*
Y813799D1*
X2045876Y817646D1*
X2043975Y819547D1*
X2040128Y821448D1*
X2032479D1*
X2028676Y819547D1*
X2026775Y817646D1*
X2024830Y813799D1*
Y809997D1*
X2026775Y806150D1*
X2030578Y800446D1*
X2049723Y781301D1*
X2022928D1*
X2391928Y2265031D2*
X2395774Y2263086D1*
X2401522Y2257382D1*
Y2297530D1*
X2417721Y2257382D2*
X2438723D1*
X2427271Y2272681D1*
X2433019D1*
X2436822Y2274582D1*
X2438723Y2276483D1*
X2440668Y2282231D1*
Y2286034D1*
X2438723Y2291782D1*
X2434920Y2295629D1*
X2429172Y2297530D1*
X2423424D1*
X2417721Y2295629D1*
X2415819Y2293683D1*
X2413874Y2289881D1*
X1337257Y2588025D2*
X1358260D1*
X1346808Y2603324D1*
X1352556D1*
X1356358Y2605225D1*
X1358260Y2607126D1*
X1360205Y2612874D1*
Y2616677D1*
X1358260Y2622425D1*
X1354457Y2626272D1*
X1348709Y2628173D1*
X1342961D1*
X1337257Y2626272D1*
X1335356Y2624326D1*
X1333411Y2620524D1*
X2321059Y2628173D2*
X2305716Y2587981D1*
X2290418Y2628173D1*
X2296166Y2614776D2*
X2315311D1*
X2344907Y2588025D2*
X2339159Y2589926D1*
X2335312Y2595674D1*
X2333411Y2605225D1*
Y2610973D1*
X2335312Y2620524D1*
X2339159Y2626272D1*
X2344907Y2628173D1*
X2348709D1*
X2354457Y2626272D1*
X2358260Y2620524D1*
X2360205Y2610973D1*
Y2605225D1*
X2358260Y2595674D1*
X2354457Y2589926D1*
X2348709Y2588025D1*
X2344907D1*
X2358260Y2595674D2*
X2335312Y2620524D1*
X1013157Y2278213D2*
D131*
Y2276788D1*
X1014583Y2273902D1*
X1016009Y2272477D1*
X1018894Y2271051D1*
X1024631D1*
X1027483Y2272477D1*
X1028909Y2273902D1*
X1030368Y2276788D1*
Y2279639D1*
X1028909Y2282525D1*
X1026057Y2286802D1*
X1011698Y2301161D1*
X1031794D1*
X1053540Y2271051D2*
X1049229Y2272476D1*
X1046343Y2276788D1*
X1044918Y2283950D1*
Y2288261D1*
X1046344Y2295424D1*
X1049229Y2299735D1*
X1053540Y2301161D1*
X1056392D1*
X1060703Y2299735D1*
X1063554Y2295424D1*
X1065014Y2288261D1*
Y2283950D1*
X1063554Y2276787D1*
X1060702Y2272476D1*
X1056391Y2271051D1*
X1053540D1*
X1063554Y2276787D2*
X1046344Y2295424D1*
X916057Y2278213D2*
Y2276788D1*
X917483Y2273902D1*
X918909Y2272477D1*
X921794Y2271051D1*
X927531D1*
X930383Y2272477D1*
X931809Y2273902D1*
X933268Y2276788D1*
Y2279639D1*
X931809Y2282525D1*
X928957Y2286802D1*
X914598Y2301161D1*
X934694D1*
X947817Y2276787D2*
X950702Y2275328D1*
X955014Y2271050D1*
Y2301161D1*
X815157Y2278213D2*
Y2276788D1*
X816583Y2273902D1*
X818009Y2272477D1*
X820894Y2271051D1*
X826631D1*
X829483Y2272477D1*
X830909Y2273902D1*
X832368Y2276788D1*
Y2279639D1*
X830909Y2282525D1*
X828057Y2286802D1*
X813698Y2301161D1*
X833794D1*
X848377Y2278213D2*
Y2276788D1*
X849803Y2273902D1*
X851229Y2272476D1*
X854114Y2271051D1*
X859851D1*
X862702Y2272476D1*
X864128Y2273902D1*
X865588Y2276787D1*
Y2279639D1*
X864128Y2282524D1*
X861277Y2286802D1*
X846918Y2301161D1*
X867014D1*
X716157Y2278213D2*
Y2276788D1*
X717583Y2273902D1*
X719009Y2272477D1*
X721894Y2271051D1*
X727631D1*
X730483Y2272477D1*
X731909Y2273902D1*
X733368Y2276788D1*
Y2279639D1*
X731909Y2282525D1*
X729057Y2286802D1*
X714698Y2301161D1*
X734794D1*
X750803Y2271051D2*
X766554Y2271050D1*
X757966Y2282524D1*
X762277D1*
X765128Y2283950D1*
X766554Y2285376D1*
X768014Y2289687D1*
Y2292539D1*
X766554Y2296850D1*
X763703Y2299735D1*
X759392Y2301161D1*
X755081D1*
X750803Y2299735D1*
X749377Y2298276D1*
X747918Y2295424D1*
X1121024Y2276788D2*
X1123909Y2275328D1*
X1128220Y2271051D1*
Y2301161D1*
X1160014Y2281065D2*
X1158554Y2285376D1*
X1155702Y2288261D1*
X1151391Y2289687D1*
X1149966D1*
X1145655Y2288261D1*
X1142803Y2285376D1*
X1141344Y2281065D1*
Y2279639D1*
X1142803Y2275328D1*
X1145655Y2272476D1*
X1149966Y2271051D1*
X1151391D1*
X1155702Y2272476D1*
X1158554Y2275328D1*
X1160014Y2281065D1*
Y2288261D1*
X1158554Y2295424D1*
X1155703Y2299735D1*
X1151392Y2301161D1*
X1148540D1*
X1144229Y2299735D1*
X1142803Y2296850D1*
X1320598Y2276788D2*
X1323483Y2275328D1*
X1327794Y2271051D1*
Y2301161D1*
X1346655D2*
X1361014Y2271050D1*
X1340918Y2271051D1*
X1218631Y2276788D2*
X1221516Y2275328D1*
X1225827Y2271051D1*
Y2301161D1*
X1246114Y2271051D2*
X1241836Y2272476D1*
X1240377Y2275328D1*
Y2278213D1*
X1241836Y2281065D1*
X1244688Y2282525D1*
X1250425Y2283950D1*
X1254736Y2285376D1*
X1257588Y2288261D1*
X1259014Y2291113D1*
Y2295424D1*
X1257588Y2298276D1*
X1256162Y2299735D1*
X1251851Y2301161D1*
X1246114D1*
X1241836Y2299735D1*
X1240377Y2298276D1*
X1238951Y2295424D1*
Y2291113D1*
X1240377Y2288261D1*
X1243262Y2285376D1*
X1247540Y2283950D1*
X1253277Y2282524D1*
X1256162Y2281065D1*
X1257588Y2278213D1*
Y2275328D1*
X1256162Y2272476D1*
X1251851Y2271051D1*
X1246114D1*
X653743Y657025D2*
D132*
X696798D1*
X675299Y678525D2*
Y635470D1*
X650179Y591346D2*
Y615222D1*
X671678Y617598D1*
X669302Y615222D1*
X666870Y608037D1*
Y600907D1*
X669302Y593722D1*
X674055Y588914D1*
X681240Y586537D1*
X685993D1*
X693178Y588914D1*
X697987Y593722D1*
X700363Y600907D1*
Y608037D1*
X697987Y615222D1*
X695555Y617598D1*
X690802Y620030D1*
X666870Y571098D2*
X700363Y556728D1*
X666870Y542413D1*
X639218Y2429084D2*
D129*
X673662D1*
X656462Y2446284D2*
Y2411840D1*
X636366Y2395642D2*
Y2374639D1*
X651665Y2386091D1*
Y2380343D1*
X653566Y2376541D1*
X655467Y2374639D1*
X661216Y2372694D1*
X665018D1*
X670766Y2374639D1*
X674613Y2378442D1*
X676514Y2384190D1*
Y2389938D1*
X674613Y2395642D1*
X672667Y2397543D1*
X668865Y2399489D1*
X672667Y2358441D2*
X674613Y2360342D1*
X676514Y2358441D1*
X674613Y2356496D1*
X672667Y2358441D1*
X636366Y2340298D2*
Y2319295D1*
X651665Y2330747D1*
Y2324999D1*
X653566Y2321196D1*
X655468Y2319295D1*
X661216Y2317350D1*
X665018D1*
X670766Y2319295D1*
X674613Y2323098D1*
X676514Y2328846D1*
Y2334594D1*
X674613Y2340298D1*
X672667Y2342199D1*
X668865Y2344144D1*
X649719Y2304998D2*
X676514Y2293502D1*
X649719Y2282050D1*
X2097057Y2276788D2*
D131*
X2099942Y2275328D1*
X2104253Y2271051D1*
Y2301161D1*
X2134588Y2275328D2*
X2133162Y2272476D1*
X2128851Y2271051D1*
X2125999D1*
X2121688Y2272476D1*
X2118803Y2276788D1*
X2117377Y2283950D1*
Y2291113D1*
X2118803Y2296850D1*
X2121688Y2299735D1*
X2125999Y2301161D1*
X2127425D1*
X2131703Y2299735D1*
X2134588Y2296850D1*
X2136014Y2292539D1*
Y2291113D1*
X2134588Y2286802D1*
X2131702Y2283950D1*
X2127425Y2282524D1*
X2125999D1*
X2121688Y2283950D1*
X2118803Y2286802D1*
X2117377Y2291113D1*
X2195598Y2276788D2*
X2198483Y2275328D1*
X2202794Y2271051D1*
Y2301161D1*
X2233128Y2271051D2*
X2218803D1*
X2217377Y2283950D1*
X2218803Y2282525D1*
X2223114Y2281065D1*
X2227391D1*
X2231702Y2282524D1*
X2234588Y2285376D1*
X2236014Y2289687D1*
Y2292539D1*
X2234588Y2296850D1*
X2231703Y2299735D1*
X2227392Y2301161D1*
X2223114D1*
X2218803Y2299735D1*
X2217377Y2298276D1*
X2215918Y2295424D1*
X2295155Y2276788D2*
X2298040Y2275328D1*
X2302351Y2271051D1*
Y2301161D1*
X2329834D2*
Y2271051D1*
X2315475Y2291113D1*
X2336996D1*
X2378825Y811898D2*
D129*
Y813799D1*
X2376924Y817646D1*
X2375022Y819547D1*
X2371175Y821448D1*
X2363526D1*
X2359724Y819547D1*
X2357822Y817646D1*
X2355877Y813799D1*
Y809997D1*
X2357822Y806150D1*
X2361625Y800446D1*
X2380770Y781301D1*
X2353976D1*
X2322479D2*
Y821448D1*
X2341624Y794698D1*
X2312928D1*
X2471924Y811898D2*
Y813799D1*
X2470022Y817646D1*
X2468121Y819547D1*
X2464274Y821448D1*
X2456625D1*
X2452822Y819547D1*
X2450921Y817646D1*
X2448976Y813799D1*
Y809997D1*
X2450921Y806150D1*
X2454724Y800446D1*
X2473869Y781301D1*
X2447074D1*
X2411775Y821448D2*
X2430876D1*
X2432777Y804249D1*
X2430876Y806150D1*
X2425128Y808095D1*
X2419424D1*
X2413676Y806150D1*
X2409830Y802347D1*
X2407928Y796599D1*
Y792797D1*
X2409830Y787049D1*
X2413676Y783202D1*
X2419424Y781301D1*
X2425128D1*
X2430876Y783202D1*
X2432777Y785147D1*
X2434723Y788950D1*
X2569978Y801898D2*
Y803799D1*
X2568077Y807646D1*
X2566175Y809547D1*
X2562329Y811448D1*
X2554679D1*
X2550877Y809547D1*
X2548976Y807646D1*
X2547030Y803799D1*
Y799997D1*
X2548976Y796150D1*
X2552778Y790446D1*
X2571924Y771301D1*
X2545129D1*
X2509830Y805745D2*
X2511731Y809547D1*
X2517479Y811448D1*
X2521281D1*
X2527029Y809547D1*
X2530876Y803799D1*
X2532777Y794249D1*
Y784698D1*
X2530876Y777049D1*
X2527029Y773202D1*
X2521281Y771301D1*
X2519380D1*
X2513676Y773202D1*
X2509830Y777049D1*
X2507928Y782797D1*
Y784698D1*
X2509830Y790446D1*
X2513676Y794249D1*
X2519380Y796150D1*
X2521281D1*
X2527029Y794249D1*
X2530876Y790446D1*
X2532777Y784698D1*
X2772924Y803398D2*
Y805299D1*
X2771022Y809146D1*
X2769121Y811047D1*
X2765274Y812948D1*
X2757625D1*
X2753822Y811047D1*
X2751921Y809146D1*
X2749976Y805299D1*
Y801497D1*
X2751921Y797650D1*
X2755724Y791946D1*
X2774869Y772801D1*
X2748074D1*
X2728074D2*
X2708928Y812948D1*
X2735723D1*
X2876879Y802398D2*
Y804299D1*
X2874978Y808146D1*
X2873077Y810047D1*
X2869230Y811948D1*
X2861581D1*
X2857778Y810047D1*
X2855877Y808146D1*
X2853931Y804299D1*
Y800497D1*
X2855877Y796650D1*
X2859679Y790946D1*
X2878825Y771801D1*
X2852030D1*
X2830128Y811948D2*
X2835832Y810047D1*
X2837777Y806245D1*
Y802398D1*
X2835832Y798595D1*
X2832029Y796650D1*
X2824380Y794749D1*
X2818632Y792847D1*
X2814830Y789001D1*
X2812928Y785198D1*
Y779450D1*
X2814830Y775647D1*
X2816731Y773702D1*
X2822479Y771801D1*
X2830128D1*
X2835832Y773702D1*
X2837777Y775647D1*
X2839679Y779450D1*
Y785198D1*
X2837777Y789001D1*
X2833931Y792847D1*
X2828227Y794749D1*
X2820578Y796650D1*
X2816731Y798595D1*
X2814830Y802398D1*
Y806245D1*
X2816731Y810047D1*
X2822479Y811948D1*
X2830128D1*
X2978522Y802898D2*
Y804799D1*
X2976621Y808646D1*
X2974720Y810547D1*
X2970873Y812448D1*
X2963224D1*
X2959421Y810547D1*
X2957520Y808646D1*
X2955574Y804799D1*
Y800997D1*
X2957520Y797150D1*
X2961322Y791446D1*
X2980468Y772301D1*
X2953673D1*
X2916428Y799095D2*
X2918374Y793347D1*
X2922176Y789501D1*
X2927924Y787599D1*
X2929826D1*
X2935574Y789501D1*
X2939376Y793347D1*
X2941322Y799095D1*
Y800997D1*
X2939376Y806745D1*
X2935574Y810547D1*
X2929826Y812448D1*
X2927924D1*
X2922176Y810547D1*
X2918374Y806745D1*
X2916428Y799095D1*
Y789501D1*
X2918374Y779950D1*
X2922176Y774202D1*
X2927924Y772301D1*
X2931727D1*
X2937475Y774202D1*
X2939376Y778049D1*
X3265022Y811448D2*
X3244020D1*
X3255472Y796150D1*
X3249724D1*
X3245921Y794249D1*
X3244020Y792347D1*
X3242074Y786599D1*
Y782797D1*
X3244020Y777049D1*
X3247822Y773202D1*
X3253570Y771301D1*
X3259318D1*
X3265022Y773202D1*
X3266924Y775147D1*
X3268869Y778950D1*
X3227777Y801898D2*
Y803799D1*
X3225876Y807646D1*
X3223975Y809547D1*
X3220128Y811448D1*
X3212479D1*
X3208676Y809547D1*
X3206775Y807646D1*
X3204830Y803799D1*
Y799997D1*
X3206775Y796150D1*
X3210578Y790446D1*
X3229723Y771301D1*
X3202928D1*
X3352675Y2628173D2*
X3337332Y2587981D1*
X3322034Y2628173D1*
X3327782Y2614776D2*
X3346927D1*
X3365026Y2595674D2*
X3368873Y2593729D1*
X3374621Y2588025D1*
Y2628173D1*
X3406118D2*
Y2588025D1*
X3386973Y2614776D1*
X3415668D1*
X3148410Y2595674D2*
X3152257Y2593729D1*
X3158005Y2588025D1*
Y2628173D1*
X3193304Y2593729D2*
X3191403Y2589926D1*
X3185655Y2588025D1*
X3181852D1*
X3176104Y2589926D1*
X3172257Y2595674D1*
X3170356Y2605225D1*
Y2614776D1*
X3172257Y2622425D1*
X3176104Y2626272D1*
X3181852Y2628173D1*
X3183753D1*
X3189457Y2626272D1*
X3193304Y2622425D1*
X3195205Y2616677D1*
Y2614776D1*
X3193304Y2609028D1*
X3189457Y2605225D1*
X3183753Y2603324D1*
X3181852D1*
X3176104Y2605225D1*
X3172257Y2609028D1*
X3170356Y2614776D1*
X3041464Y2595674D2*
X3045311Y2593729D1*
X3051059Y2588025D1*
Y2628173D1*
X3071060D2*
X3090205Y2588025D1*
X3063411D1*
X3246464Y2595674D2*
X3250311Y2593729D1*
X3256059Y2588025D1*
Y2628173D1*
X3291358Y2588025D2*
X3272257D1*
X3270356Y2605225D1*
X3272257Y2603324D1*
X3278005Y2601378D1*
X3283709D1*
X3289457Y2603324D1*
X3293304Y2607126D1*
X3295205Y2612874D1*
Y2616677D1*
X3293304Y2622425D1*
X3289457Y2626272D1*
X3283709Y2628173D1*
X3278005D1*
X3272257Y2626272D1*
X3270356Y2624326D1*
X3268411Y2620524D1*
X2946972Y2595674D2*
X2950819Y2593729D1*
X2956567Y2588025D1*
Y2628173D1*
X2978469Y2588025D2*
X2972765Y2589926D1*
X2970819Y2593729D1*
Y2597576D1*
X2972765Y2601378D1*
X2976567Y2603324D1*
X2984217Y2605225D1*
X2989965Y2607126D1*
X2993767Y2610973D1*
X2995668Y2614776D1*
Y2620524D1*
X2993767Y2624326D1*
X2991866Y2626272D1*
X2986118Y2628173D1*
X2978469D1*
X2972765Y2626272D1*
X2970819Y2624326D1*
X2968918Y2620524D1*
Y2614776D1*
X2970819Y2610973D1*
X2974666Y2607126D1*
X2980370Y2605225D1*
X2988019Y2603324D1*
X2991866Y2601378D1*
X2993767Y2597576D1*
Y2593729D1*
X2991866Y2589926D1*
X2986118Y2588025D1*
X2978469D1*
X2731210Y2597576D2*
Y2595674D1*
X2733111Y2591828D1*
X2735013Y2589926D1*
X2738859Y2588025D1*
X2746509D1*
X2750311Y2589926D1*
X2752212Y2591828D1*
X2754158Y2595674D1*
Y2599477D1*
X2752212Y2603324D1*
X2748410Y2609028D1*
X2729265Y2628173D1*
X2756059D1*
X2779907Y2588025D2*
X2774159Y2589926D1*
X2770312Y2595674D1*
X2768411Y2605225D1*
Y2610973D1*
X2770312Y2620524D1*
X2774159Y2626272D1*
X2779907Y2628173D1*
X2783709D1*
X2789457Y2626272D1*
X2793260Y2620524D1*
X2795205Y2610973D1*
Y2605225D1*
X2793260Y2595674D1*
X2789457Y2589926D1*
X2783709Y2588025D1*
X2779907D1*
X2793260Y2595674D2*
X2770312Y2620524D1*
X2848366Y2595674D2*
X2852212Y2593729D1*
X2857960Y2588025D1*
X2857961Y2628173D1*
X2895205Y2601378D2*
X2893260Y2607126D1*
X2889457Y2610973D1*
X2883709Y2612874D1*
X2881808D1*
X2876060Y2610973D1*
X2872257Y2607126D1*
X2870312Y2601378D1*
Y2599477D1*
X2872257Y2593729D1*
X2876060Y2589926D1*
X2881808Y2588025D1*
X2883709D1*
X2889457Y2589926D1*
X2893260Y2593729D1*
X2895205Y2601378D1*
Y2610973D1*
X2893260Y2620524D1*
X2889457Y2626272D1*
X2883709Y2628173D1*
X2879907D1*
X2874159Y2626272D1*
X2872257Y2622425D1*
X2622930Y1665093D2*
D130*
X2644452D1*
X2648763Y1663668D1*
X2651615Y1660782D1*
X2653074Y1656471D1*
Y1653620D1*
X2651615Y1649308D1*
X2648763Y1646423D1*
X2644452Y1644997D1*
X2622930D1*
X2627241Y1615638D2*
X2624356Y1618490D1*
X2622930Y1622801D1*
Y1628538D1*
X2624356Y1632849D1*
X2627241Y1635734D1*
X2630093D1*
X2632978Y1634275D1*
X2634404Y1632849D1*
X2635830Y1629997D1*
X2638715Y1621375D1*
X2640141Y1618490D1*
X2641600Y1617064D1*
X2644452Y1615638D1*
X2648763D1*
X2651615Y1618490D1*
X2653074Y1622801D1*
Y1628538D1*
X2651615Y1632849D1*
X2648763Y1635734D1*
X2622930Y1606374D2*
X2653074D1*
Y1593441D1*
X2651615Y1589130D1*
X2650189Y1587704D1*
X2647337Y1586278D1*
X2643026D1*
X2640141Y1587704D1*
X2638715Y1589130D1*
X2637289Y1593441D1*
X2635830Y1589130D1*
X2634404Y1587704D1*
X2631552Y1586278D1*
X2628667D1*
X2625815Y1587704D1*
X2624356Y1589130D1*
X2622930Y1593441D1*
Y1606374D1*
X2637289D2*
Y1593441D1*
X2210610Y2595674D2*
D129*
X2214457Y2593729D1*
X2220205Y2588025D1*
Y2628173D1*
X2100356Y2597576D2*
Y2595674D1*
X2102257Y2591828D1*
X2104159Y2589926D1*
X2108005Y2588025D1*
X2115655D1*
X2119457Y2589926D1*
X2121358Y2591828D1*
X2123304Y2595674D1*
Y2599477D1*
X2121358Y2603324D1*
X2117556Y2609028D1*
X2098411Y2628173D1*
X2125205D1*
X1245655D2*
Y2588025D1*
X1226509Y2614776D1*
X1255205D1*
X1151358Y2588025D2*
X1132257D1*
X1130356Y2605225D1*
X1132257Y2603324D1*
X1138005Y2601378D1*
X1143709D1*
X1149457Y2603324D1*
X1153304Y2607126D1*
X1155205Y2612874D1*
Y2616677D1*
X1153304Y2622425D1*
X1149457Y2626272D1*
X1143709Y2628173D1*
X1138005D1*
X1132257Y2626272D1*
X1130356Y2624326D1*
X1128411Y2620524D1*
X1048304Y2593729D2*
X1046403Y2589926D1*
X1040655Y2588025D1*
X1036852D1*
X1031104Y2589926D1*
X1027257Y2595674D1*
X1025356Y2605225D1*
Y2614776D1*
X1027257Y2622425D1*
X1031104Y2626272D1*
X1036852Y2628173D1*
X1038753D1*
X1044457Y2626272D1*
X1048304Y2622425D1*
X1050205Y2616677D1*
Y2614776D1*
X1048304Y2609028D1*
X1044457Y2605225D1*
X1038753Y2603324D1*
X1036852D1*
X1031104Y2605225D1*
X1027257Y2609028D1*
X1025356Y2614776D1*
X941060Y2628173D2*
X960205Y2588025D1*
X933411D1*
X843005D2*
X837302Y2589926D1*
X835356Y2593729D1*
Y2597576D1*
X837302Y2601378D1*
X841104Y2603324D1*
X848753Y2605225D1*
X854501Y2607126D1*
X858304Y2610973D1*
X860205Y2614776D1*
Y2620524D1*
X858304Y2624326D1*
X856403Y2626272D1*
X850655Y2628173D1*
X843005D1*
X837302Y2626272D1*
X835356Y2624326D1*
X833455Y2620524D1*
Y2614776D1*
X835356Y2610973D1*
X839203Y2607126D1*
X844907Y2605225D1*
X852556Y2603324D1*
X856403Y2601378D1*
X858304Y2597576D1*
Y2593729D1*
X856403Y2589926D1*
X850655Y2588025D1*
X843005D1*
X745205Y2601378D2*
X743260Y2607126D1*
X739457Y2610973D1*
X733709Y2612874D1*
X731808D1*
X726060Y2610973D1*
X722257Y2607126D1*
X720312Y2601378D1*
Y2599477D1*
X722257Y2593729D1*
X726060Y2589926D1*
X731808Y2588025D1*
X733709D1*
X739457Y2589926D1*
X743260Y2593729D1*
X745205Y2601378D1*
Y2610973D1*
X743260Y2620524D1*
X739457Y2626272D1*
X733709Y2628173D1*
X729907D1*
X724159Y2626272D1*
X722257Y2622425D1*
X3070022Y811948D2*
X3049020D1*
X3060472Y796650D1*
X3054724D1*
X3050921Y794749D1*
X3049020Y792847D1*
X3047074Y787099D1*
Y783297D1*
X3049020Y777549D1*
X3052822Y773702D1*
X3058570Y771801D1*
X3064318D1*
X3070022Y773702D1*
X3071924Y775647D1*
X3073869Y779450D1*
X3023227Y811948D2*
X3028975Y810047D1*
X3032822Y804299D1*
X3034723Y794749D1*
Y789001D1*
X3032822Y779450D1*
X3028975Y773702D1*
X3023227Y771801D1*
X3019424D1*
X3013676Y773702D1*
X3009874Y779450D1*
X3007928Y789001D1*
Y794749D1*
X3009874Y804299D1*
X3013676Y810047D1*
X3019424Y811948D1*
X3023227D1*
X3009874Y804299D2*
X3032822Y779450D1*
X3161322Y812448D2*
X3140320D1*
X3151772Y797150D1*
X3146024D1*
X3142221Y795249D1*
X3140320Y793347D1*
X3138374Y787599D1*
Y783797D1*
X3140320Y778049D1*
X3144122Y774202D1*
X3149871Y772301D1*
X3155619D1*
X3161322Y774202D1*
X3163224Y776147D1*
X3165169Y779950D1*
X3126023Y804799D2*
X3122176Y806745D1*
X3116428Y812448D1*
Y772301D1*
X1641628Y821948D2*
X1647332Y820047D1*
X1649277Y816245D1*
Y812398D1*
X1647332Y808595D1*
X1643529Y806650D1*
X1635880Y804749D1*
X1630132Y802847D1*
X1626330Y799001D1*
X1624428Y795198D1*
Y789450D1*
X1626330Y785647D1*
X1628231Y783702D1*
X1633979Y781801D1*
X1641628D1*
X1647332Y783702D1*
X1649277Y785647D1*
X1651179Y789450D1*
Y795198D1*
X1649277Y799001D1*
X1645431Y802847D1*
X1639727Y804749D1*
X1632078Y806650D1*
X1628231Y808595D1*
X1626330Y812398D1*
Y816245D1*
X1628231Y820047D1*
X1633979Y821948D1*
X1641628D1*
X1722928Y808095D2*
X1724874Y802347D1*
X1728676Y798501D1*
X1734424Y796599D1*
X1736326D1*
X1742074Y798501D1*
X1745876Y802347D1*
X1747822Y808095D1*
Y809997D1*
X1745876Y815745D1*
X1742074Y819547D1*
X1736326Y821448D1*
X1734424D1*
X1728676Y819547D1*
X1724874Y815745D1*
X1722928Y808095D1*
Y798501D1*
X1724874Y788950D1*
X1728676Y783202D1*
X1734424Y781301D1*
X1738227D1*
X1743975Y783202D1*
X1745876Y787049D1*
X1866669Y813799D2*
X1862822Y815745D1*
X1857074Y821448D1*
Y781301D1*
X1833227Y821448D2*
X1838975Y819547D1*
X1842822Y813799D1*
X1844723Y804249D1*
Y798501D1*
X1842822Y788950D1*
X1838975Y783202D1*
X1833227Y781301D1*
X1829424D1*
X1823676Y783202D1*
X1819874Y788950D1*
X1817928Y798501D1*
Y804249D1*
X1819874Y813799D1*
X1823676Y819547D1*
X1829424Y821448D1*
X1833227D1*
X1819874Y813799D2*
X1842822Y788950D1*
X1047376Y821948D2*
X1026374D1*
X1037826Y806650D1*
X1032078D1*
X1028275Y804749D1*
X1026374Y802847D1*
X1024428Y797099D1*
Y793297D1*
X1026374Y787549D1*
X1030176Y783702D1*
X1035924Y781801D1*
X1041672D1*
X1047376Y783702D1*
X1049277Y785647D1*
X1051223Y789450D1*
X1132479Y781301D2*
Y821448D1*
X1151624Y794698D1*
X1122928D1*
X734727Y821948D2*
X740475Y820047D1*
X744322Y814299D1*
X746223Y804749D1*
Y799001D1*
X744322Y789450D1*
X740475Y783702D1*
X734727Y781801D1*
X730924D1*
X725176Y783702D1*
X721374Y789450D1*
X719428Y799001D1*
Y804749D1*
X721374Y814299D1*
X725176Y820047D1*
X730924Y821948D1*
X734727D1*
X721374Y814299D2*
X744322Y789450D1*
X842523Y813799D2*
X838676Y815745D1*
X832928Y821448D1*
Y781301D1*
X942777Y811898D2*
Y813799D1*
X940876Y817646D1*
X938975Y819547D1*
X935128Y821448D1*
X927479D1*
X923676Y819547D1*
X921775Y817646D1*
X919830Y813799D1*
Y809997D1*
X921775Y806150D1*
X925578Y800446D1*
X944723Y781301D1*
X917928D1*
X1331330Y816245D2*
X1333231Y820047D1*
X1338979Y821948D1*
X1342781D1*
X1348529Y820047D1*
X1352376Y814299D1*
X1354277Y804749D1*
Y795198D1*
X1352376Y787549D1*
X1348529Y783702D1*
X1342781Y781801D1*
X1340880D1*
X1335176Y783702D1*
X1331330Y787549D1*
X1329428Y793297D1*
Y795198D1*
X1331330Y800946D1*
X1335176Y804749D1*
X1340880Y806650D1*
X1342781D1*
X1348529Y804749D1*
X1352376Y800946D1*
X1354277Y795198D1*
X1447074Y781301D2*
X1427928Y821448D1*
X1454723D1*
X1226775D2*
X1245876D1*
X1247777Y804249D1*
X1245876Y806150D1*
X1240128Y808095D1*
X1234424D1*
X1228676Y806150D1*
X1224830Y802347D1*
X1222928Y796599D1*
Y792797D1*
X1224830Y787049D1*
X1228676Y783202D1*
X1234424Y781301D1*
X1240128D1*
X1245876Y783202D1*
X1247777Y785147D1*
X1249723Y788950D1*
X1412104Y1012082D2*
D133*
Y1042226D1*
X1432200Y1012082D2*
X1412104Y1032178D1*
X1419267Y1024982D2*
X1432200Y1042226D1*
X1446200Y1022130D2*
Y1036489D1*
X1447626Y1040767D1*
X1450511Y1042226D1*
X1454822D1*
X1457674Y1040767D1*
X1461985Y1036489D1*
Y1022130D2*
Y1042226D1*
X1475985Y1022130D2*
Y1042226D1*
Y1030752D2*
X1477444Y1026441D1*
X1480296Y1023556D1*
X1483181Y1022130D1*
X1487492D1*
X1505803Y1012082D2*
Y1036489D1*
X1507229Y1040767D1*
X1510114Y1042226D1*
X1512966D1*
X1501492Y1022130D2*
X1511540D1*
X1534162Y1012115D2*
X1526966Y1020737D1*
X1535588Y1013541D1*
X1534162Y1012115D1*
X1565373Y1026441D2*
X1563947Y1023556D1*
X1559636Y1022130D1*
X1555325D1*
X1551014Y1023556D1*
X1549588Y1026441D1*
X1551014Y1029293D1*
X1553899Y1030752D1*
X1561062Y1032178D1*
X1563947Y1033604D1*
X1565373Y1036489D1*
Y1037915D1*
X1563947Y1040767D1*
X1559636Y1042226D1*
X1555325D1*
X1551014Y1040767D1*
X1549588Y1037915D1*
X1623318Y1012082D2*
Y1042226D1*
X1613270Y1012082D2*
X1633366D1*
X1661725Y1042226D2*
Y1012115D1*
X1647366Y1032178D1*
X1668888D1*
X1682888Y1042226D2*
X1702984Y1012115D1*
X1727032Y1012082D2*
Y1042226D1*
X1716984Y1012082D2*
X1737080D1*
X1753965Y1012115D2*
X1769717D1*
X1761128Y1023589D1*
X1765439D1*
X1768291Y1025015D1*
X1769717Y1026441D1*
X1771176Y1030752D1*
Y1033604D1*
X1769717Y1037915D1*
X1766865Y1040800D1*
X1762554Y1042226D1*
X1758243D1*
X1753965Y1040800D1*
X1752539Y1039341D1*
X1751080Y1036489D1*
X1786602Y1039341D2*
X1785176Y1040800D1*
X1786602Y1042226D1*
X1788061Y1040800D1*
X1786602Y1039341D1*
X1819272Y1012115D2*
X1804946D1*
X1803520Y1025015D1*
X1804946Y1023589D1*
X1809257Y1022130D1*
X1813535D1*
X1817846Y1023589D1*
X1820731Y1026441D1*
X1822157Y1030752D1*
Y1033604D1*
X1820731Y1037915D1*
X1817846Y1040800D1*
X1813535Y1042226D1*
X1809257D1*
X1804946Y1040800D1*
X1803520Y1039341D1*
X1802061Y1036489D1*
X1853368Y1016393D2*
X1851942Y1013541D1*
X1847631Y1012115D1*
X1844779D1*
X1840468Y1013541D1*
X1837583Y1017852D1*
X1836157Y1025015D1*
Y1032178D1*
X1837583Y1037915D1*
X1840468Y1040800D1*
X1844779Y1042226D1*
X1846205D1*
X1850483Y1040800D1*
X1853368Y1037915D1*
X1854794Y1033604D1*
Y1032178D1*
X1853368Y1027867D1*
X1850483Y1025015D1*
X1846205Y1023589D1*
X1844779D1*
X1840468Y1025015D1*
X1837583Y1027867D1*
X1836157Y1032178D1*
X1902691Y1012082D2*
Y1042226D1*
X1915624D1*
X1919935Y1040767D1*
X1921361Y1039341D1*
X1922787Y1036489D1*
Y1032178D1*
X1921361Y1029293D1*
X1919935Y1027867D1*
X1915624Y1026441D1*
X1919935Y1024982D1*
X1921361Y1023556D1*
X1922787Y1020704D1*
Y1017819D1*
X1921361Y1014967D1*
X1919935Y1013508D1*
X1915624Y1012082D1*
X1902691D1*
Y1026441D2*
X1915624D1*
X1936787Y1022130D2*
Y1042226D1*
Y1030752D2*
X1938246Y1026441D1*
X1941098Y1023556D1*
X1943983Y1022130D1*
X1948294D1*
X1962294Y1030752D2*
X1979505D1*
Y1027867D1*
X1978079Y1024982D1*
X1976653Y1023556D1*
X1973768Y1022130D1*
X1969457D1*
X1966605Y1023556D1*
X1963720Y1026441D1*
X1962294Y1030752D1*
Y1033604D1*
X1963720Y1037915D1*
X1966605Y1040767D1*
X1969457Y1042226D1*
X1973768D1*
X1976653Y1040767D1*
X1979505Y1037915D1*
X2010716Y1022130D2*
Y1042226D1*
Y1026441D2*
X2007864Y1023556D1*
X2004979Y1022130D1*
X2000701D1*
X1997816Y1023556D1*
X1994964Y1026441D1*
X1993505Y1030752D1*
Y1033604D1*
X1994964Y1037915D1*
X1997816Y1040767D1*
X2000701Y1042226D1*
X2004979D1*
X2007864Y1040767D1*
X2010716Y1037915D1*
X2024716Y1012082D2*
Y1042226D1*
X2039075Y1022130D2*
X2024716Y1036489D1*
X2030453Y1030752D2*
X2040501Y1042226D1*
X2061664Y1022130D2*
X2058812Y1023556D1*
X2055927Y1026441D1*
X2054501Y1030752D1*
Y1033604D1*
X2055927Y1037915D1*
X2058812Y1040767D1*
X2061664Y1042226D1*
X2065975D1*
X2068860Y1040767D1*
X2071712Y1037915D1*
X2073171Y1033604D1*
Y1030752D1*
X2071712Y1026441D1*
X2068860Y1023556D1*
X2065975Y1022130D1*
X2061664D1*
X2087171D2*
Y1036489D1*
X2088597Y1040767D1*
X2091482Y1042226D1*
X2095793D1*
X2098645Y1040767D1*
X2102956Y1036489D1*
Y1022130D2*
Y1042226D1*
X2121267Y1012082D2*
Y1036489D1*
X2122693Y1040767D1*
X2125578Y1042226D1*
X2128430D1*
X2116956Y1022130D2*
X2127004D1*
X3189870Y2169622D2*
D130*
X3205622D1*
X3197033Y2181096D1*
X3201344D1*
X3204196Y2182522D1*
X3205622Y2183948D1*
X3207081Y2188259D1*
Y2191111D1*
X3205622Y2195422D1*
X3202770Y2198307D1*
X3198459Y2199733D1*
X3194148D1*
X3189870Y2198307D1*
X3188444Y2196848D1*
X3186985Y2193996D1*
X3219229Y2169622D2*
X3234981D1*
X3226392Y2181096D1*
X3230703D1*
X3233555Y2182522D1*
X3234981Y2183948D1*
X3236440Y2188259D1*
Y2191111D1*
X3234981Y2195422D1*
X3232129Y2198307D1*
X3227818Y2199733D1*
X3223507D1*
X3219230Y2198307D1*
X3217804Y2196848D1*
X3216344Y2193996D1*
X3144407Y2272016D2*
X3160159D1*
X3151570Y2283490D1*
X3155881D1*
X3158733Y2284916D1*
X3160159Y2286342D1*
X3161618Y2290653D1*
Y2293505D1*
X3160159Y2297816D1*
X3157307Y2300701D1*
X3152996Y2302127D1*
X3148685D1*
X3144407Y2300701D1*
X3142981Y2299242D1*
X3141522Y2296390D1*
X3188092Y2272016D2*
X3173766D1*
X3172340Y2284916D1*
X3173766Y2283490D1*
X3178077Y2282031D1*
X3182355D1*
X3186666Y2283490D1*
X3189551Y2286342D1*
X3190977Y2290653D1*
Y2293505D1*
X3189551Y2297816D1*
X3186666Y2300701D1*
X3182355Y2302127D1*
X3178077D1*
X3173766Y2300701D1*
X3172340Y2299242D1*
X3170881Y2296390D1*
X3040866Y2272016D2*
X3056618D1*
X3048029Y2283490D1*
X3052340D1*
X3055192Y2284916D1*
X3056618Y2286342D1*
X3058077Y2290653D1*
Y2293505D1*
X3056618Y2297816D1*
X3053766Y2300701D1*
X3049455Y2302127D1*
X3045144D1*
X3040866Y2300701D1*
X3039440Y2299242D1*
X3037981Y2296390D1*
X3084551Y2276294D2*
X3083125Y2273442D1*
X3078814Y2272016D1*
X3075962D1*
X3071651Y2273442D1*
X3068766Y2277753D1*
X3067340Y2284916D1*
Y2292079D1*
X3068766Y2297816D1*
X3071651Y2300701D1*
X3075962Y2302127D1*
X3077388D1*
X3081666Y2300701D1*
X3084551Y2297816D1*
X3085977Y2293505D1*
Y2292079D1*
X3084551Y2287768D1*
X3081666Y2284916D1*
X3077388Y2283490D1*
X3075962D1*
X3071651Y2284916D1*
X3068766Y2287768D1*
X3067340Y2292079D1*
X3242981Y2272016D2*
X3258733D1*
X3250144Y2283490D1*
X3254455D1*
X3257307Y2284916D1*
X3258733Y2286342D1*
X3260192Y2290653D1*
Y2293505D1*
X3258733Y2297816D1*
X3255881Y2300701D1*
X3251570Y2302127D1*
X3247259D1*
X3242981Y2300701D1*
X3241555Y2299242D1*
X3240096Y2296390D1*
X3283814Y2302127D2*
Y2272016D1*
X3269455Y2292079D1*
X3290977D1*
X2944870Y2272016D2*
X2960622D1*
X2952033Y2283490D1*
X2956344D1*
X2959196Y2284916D1*
X2960622Y2286342D1*
X2962081Y2290653D1*
Y2293505D1*
X2960622Y2297816D1*
X2957770Y2300701D1*
X2953459Y2302127D1*
X2949148D1*
X2944870Y2300701D1*
X2943444Y2299242D1*
X2941985Y2296390D1*
X2977081Y2302127D2*
X2991440Y2272016D1*
X2971344D1*
X2745833D2*
X2761584D1*
X2752996Y2283490D1*
X2757307D1*
X2760159Y2284916D1*
X2761585Y2286342D1*
X2763044Y2290653D1*
Y2293505D1*
X2761585Y2297816D1*
X2758733Y2300701D1*
X2754422Y2302127D1*
X2750111D1*
X2745833Y2300701D1*
X2744407Y2299242D1*
X2742948Y2296390D1*
X2790977Y2282031D2*
X2789518Y2286342D1*
X2786666Y2289227D1*
X2782355Y2290653D1*
X2780929D1*
X2776618Y2289227D1*
X2773766Y2286342D1*
X2772307Y2282031D1*
Y2280605D1*
X2773766Y2276294D1*
X2776618Y2273442D1*
X2780929Y2272016D1*
X2782355D1*
X2786666Y2273442D1*
X2789518Y2276294D1*
X2790977Y2282031D1*
Y2289227D1*
X2789518Y2296390D1*
X2786666Y2300701D1*
X2782355Y2302127D1*
X2779503D1*
X2775192Y2300701D1*
X2773766Y2297816D1*
X2844440Y2272016D2*
X2860192D1*
X2851603Y2283490D1*
X2855914D1*
X2858766Y2284916D1*
X2860192Y2286342D1*
X2861651Y2290653D1*
Y2293505D1*
X2860192Y2297816D1*
X2857340Y2300701D1*
X2853029Y2302127D1*
X2848718D1*
X2844440Y2300701D1*
X2843014Y2299242D1*
X2841555Y2296390D1*
X2878077Y2272016D2*
X2873799Y2273442D1*
X2872340Y2276294D1*
Y2279179D1*
X2873799Y2282031D1*
X2876651Y2283490D1*
X2882388Y2284916D1*
X2886699Y2286342D1*
X2889551Y2289227D1*
X2890977Y2292079D1*
Y2296390D1*
X2889551Y2299242D1*
X2888125Y2300701D1*
X2883814Y2302127D1*
X2878077D1*
X2873799Y2300701D1*
X2872340Y2299242D1*
X2870914Y2296390D1*
Y2292079D1*
X2872340Y2289227D1*
X2875225Y2286342D1*
X2879503Y2284916D1*
X2885240Y2283490D1*
X2888125Y2282031D1*
X2889551Y2279179D1*
Y2276294D1*
X2888125Y2273442D1*
X2883814Y2272016D1*
X2878077D1*
X2954396Y1646488D2*
X2980229D1*
X2967329Y1659388D2*
X2967330Y1633555D1*
X2952258Y1607081D2*
Y1621407D1*
X2965157Y1622833D1*
X2963731Y1621407D1*
X2962272Y1617096D1*
Y1612818D1*
X2963731Y1608507D1*
X2966583Y1605622D1*
X2970894Y1604196D1*
X2973746D1*
X2978057Y1605622D1*
X2980942Y1608507D1*
X2982368Y1612818D1*
Y1617096D1*
X2980942Y1621407D1*
X2979483Y1622833D1*
X2976631Y1624292D1*
X2952224Y1594932D2*
X2982368Y1583458D1*
X2952224Y1571985D1*
X1358152Y1742532D2*
Y1716700D1*
X1371052Y1729599D2*
X1345219D1*
X1318744Y1744671D2*
X1333070D1*
X1334496Y1731772D1*
X1333070Y1733197D1*
X1328759Y1734657D1*
X1324481D1*
X1320170Y1733197D1*
X1317285Y1730346D1*
X1315859Y1726035D1*
Y1723183D1*
X1317285Y1718872D1*
X1320170Y1715987D1*
X1324481Y1714561D1*
X1328759D1*
X1333070Y1715987D1*
X1334496Y1717446D1*
X1335955Y1720298D1*
X1306596Y1734657D2*
X1297974Y1714561D1*
X1289385Y1734657D1*
X1568945Y1737542D2*
X1570371Y1740394D1*
X1573256Y1743279D1*
X1576108Y1744705D1*
X1581845D1*
X1584730Y1743279D1*
X1587582Y1740394D1*
X1589041Y1737542D1*
X1590467Y1733231D1*
Y1726035D1*
X1589041Y1721757D1*
X1587582Y1718872D1*
X1584730Y1716020D1*
X1581845Y1714561D1*
X1576108D1*
X1573256Y1716020D1*
X1570371Y1718872D1*
X1568945Y1721757D1*
Y1726035D1*
X1576108D1*
X1539585Y1744705D2*
Y1714561D1*
X1559681Y1744705D1*
Y1714561D1*
X1530322Y1744705D2*
Y1714561D1*
X1520274D1*
X1515963Y1716020D1*
X1513078Y1718872D1*
X1511652Y1721757D1*
X1510226Y1726035D1*
Y1733231D1*
X1511652Y1737542D1*
X1513078Y1740394D1*
X1515963Y1743279D1*
X1520274Y1744705D1*
X1530322D1*
X1671141D2*
Y1714561D1*
X1661093D1*
X1656782Y1716020D1*
X1653897Y1718872D1*
X1652471Y1721757D1*
X1651045Y1726035D1*
Y1733231D1*
X1652471Y1737542D1*
X1653897Y1740394D1*
X1656782Y1743279D1*
X1661093Y1744705D1*
X1671141D1*
X1641782Y1738934D2*
X1638896Y1740394D1*
X1634585Y1744671D1*
Y1714561D1*
X1622437Y1744671D2*
X1606685D1*
X1615274Y1733197D1*
X1610963D1*
X1608111Y1731772D1*
X1606685Y1730346D1*
X1605226Y1726035D1*
Y1723183D1*
X1606685Y1718872D1*
X1609537Y1715987D1*
X1613848Y1714561D1*
X1618159D1*
X1622437Y1715987D1*
X1623863Y1717446D1*
X1625322Y1720298D1*
X1766141Y1744705D2*
Y1714561D1*
X1756093D1*
X1751782Y1716020D1*
X1748897Y1718872D1*
X1747471Y1721757D1*
X1746045Y1726035D1*
Y1733231D1*
X1747471Y1737542D1*
X1748897Y1740394D1*
X1751782Y1743279D1*
X1756093Y1744705D1*
X1766141D1*
X1736782Y1738934D2*
X1733896Y1740394D1*
X1729585Y1744671D1*
Y1714561D1*
X1718863Y1737508D2*
Y1738934D1*
X1717437Y1741820D1*
X1716011Y1743245D1*
X1713126Y1744671D1*
X1707389D1*
X1704537Y1743245D1*
X1703111Y1741820D1*
X1701652Y1738934D1*
Y1736083D1*
X1703111Y1733197D1*
X1705963Y1728920D1*
X1720322Y1714561D1*
X1700226D1*
X1868241Y1744705D2*
Y1714561D1*
X1858193D1*
X1853882Y1716020D1*
X1850997Y1718872D1*
X1849571Y1721757D1*
X1848145Y1726035D1*
Y1733231D1*
X1849571Y1737542D1*
X1850997Y1740394D1*
X1853882Y1743279D1*
X1858193Y1744705D1*
X1868241D1*
X1838882Y1738934D2*
X1835997Y1740394D1*
X1831686Y1744671D1*
Y1714561D1*
X1822422Y1738934D2*
X1819537Y1740394D1*
X1815226Y1744671D1*
Y1714561D1*
X1971141Y1744705D2*
Y1714561D1*
X1961093D1*
X1956782Y1716020D1*
X1953897Y1718872D1*
X1952471Y1721757D1*
X1951045Y1726035D1*
Y1733231D1*
X1952471Y1737542D1*
X1953897Y1740394D1*
X1956782Y1743279D1*
X1961093Y1744705D1*
X1971141D1*
X1941782Y1738934D2*
X1938896Y1740394D1*
X1934585Y1744671D1*
Y1714561D1*
X1916700Y1744671D2*
X1921011Y1743245D1*
X1923896Y1738934D1*
X1925322Y1731772D1*
Y1727460D1*
X1923896Y1720298D1*
X1921011Y1715987D1*
X1916700Y1714561D1*
X1913848D1*
X1909537Y1715987D1*
X1906685Y1720298D1*
X1905226Y1727460D1*
Y1731772D1*
X1906685Y1738934D1*
X1909537Y1743245D1*
X1913848Y1744671D1*
X1916700D1*
X1906685Y1738934D2*
X1923896Y1720298D1*
X2079008Y1744705D2*
Y1714561D1*
X2068960D1*
X2064649Y1716020D1*
X2061764Y1718872D1*
X2060338Y1721757D1*
X2058912Y1726035D1*
Y1733231D1*
X2060338Y1737542D1*
X2061764Y1740394D1*
X2064649Y1743279D1*
X2068960Y1744705D1*
X2079008D1*
X2048189Y1737508D2*
Y1738934D1*
X2046763Y1741820D1*
X2045337Y1743245D1*
X2042452Y1744671D1*
X2036715D1*
X2033863Y1743245D1*
X2032437Y1741820D1*
X2030978Y1738934D1*
Y1736083D1*
X2032437Y1733197D1*
X2035289Y1728920D1*
X2049648Y1714561D1*
X2029552D1*
X2013126Y1744671D2*
X2017404Y1743245D1*
X2018863Y1740394D1*
Y1737508D1*
X2017404Y1734657D1*
X2014552Y1733197D1*
X2008815Y1731772D1*
X2004504Y1730346D1*
X2001652Y1727460D1*
X2000226Y1724609D1*
Y1720298D1*
X2001652Y1717446D1*
X2003078Y1715987D1*
X2007389Y1714561D1*
X2013126D1*
X2017404Y1715987D1*
X2018863Y1717446D1*
X2020289Y1720298D1*
Y1724609D1*
X2018863Y1727460D1*
X2015978Y1730346D1*
X2011700Y1731772D1*
X2005963Y1733197D1*
X2003078Y1734657D1*
X2001652Y1737508D1*
Y1740394D1*
X2003078Y1743245D1*
X2007389Y1744671D1*
X2013126D1*
X2163255Y1744705D2*
Y1714561D1*
X2153207D1*
X2148896Y1716020D1*
X2146011Y1718872D1*
X2144585Y1721757D1*
X2143159Y1726035D1*
Y1733231D1*
X2144585Y1737542D1*
X2146011Y1740394D1*
X2148896Y1743279D1*
X2153207Y1744705D1*
X2163255D1*
X2115226Y1734657D2*
X2116685Y1730346D1*
X2119537Y1727460D1*
X2123848Y1726035D1*
X2125274D1*
X2129585Y1727460D1*
X2132437Y1730346D1*
X2133896Y1734657D1*
Y1736083D1*
X2132437Y1740394D1*
X2129585Y1743245D1*
X2125274Y1744671D1*
X2123848D1*
X2119537Y1743245D1*
X2116685Y1740394D1*
X2115226Y1734657D1*
Y1727460D1*
X2116685Y1720298D1*
X2119537Y1715987D1*
X2123848Y1714561D1*
X2126700D1*
X2131011Y1715987D1*
X2132437Y1718872D1*
X2372615Y1744705D2*
Y1714561D1*
X2362567D1*
X2358256Y1716020D1*
X2355371Y1718872D1*
X2353945Y1721757D1*
X2352519Y1726035D1*
Y1733231D1*
X2353945Y1737542D1*
X2355371Y1740394D1*
X2358256Y1743279D1*
X2362567Y1744705D1*
X2372615D1*
X2341796Y1737508D2*
Y1738934D1*
X2340370Y1741820D1*
X2338944Y1743245D1*
X2336059Y1744671D1*
X2330322D1*
X2327470Y1743245D1*
X2326045Y1741820D1*
X2324585Y1738934D1*
Y1736083D1*
X2326045Y1733197D1*
X2328896Y1728920D1*
X2343255Y1714561D1*
X2323159D1*
X2295226Y1734657D2*
X2296685Y1730346D1*
X2299537Y1727460D1*
X2303848Y1726035D1*
X2305274D1*
X2309585Y1727460D1*
X2312437Y1730346D1*
X2313896Y1734657D1*
Y1736083D1*
X2312437Y1740394D1*
X2309585Y1743245D1*
X2305274Y1744671D1*
X2303848D1*
X2299537Y1743245D1*
X2296685Y1740394D1*
X2295226Y1734657D1*
Y1727460D1*
X2296685Y1720298D1*
X2299537Y1715987D1*
X2303848Y1714561D1*
X2306700D1*
X2311011Y1715987D1*
X2312437Y1718872D1*
X1660371Y1585394D2*
X1663223Y1588279D1*
X1667534Y1589705D1*
X1673271D1*
X1677582Y1588279D1*
X1680467Y1585394D1*
Y1582542D1*
X1679008Y1579657D1*
X1677582Y1578231D1*
X1674730Y1576805D1*
X1666108Y1573920D1*
X1663223Y1572494D1*
X1661797Y1571035D1*
X1660371Y1568183D1*
Y1563872D1*
X1663223Y1561020D1*
X1667534Y1559561D1*
X1673271D1*
X1677582Y1561020D1*
X1680467Y1563872D1*
X1629585Y1582542D2*
X1631011Y1585394D1*
X1633896Y1588279D1*
X1636748Y1589705D1*
X1642485D1*
X1645370Y1588279D1*
X1648222Y1585394D1*
X1649681Y1582542D1*
X1651107Y1578231D1*
Y1571035D1*
X1649681Y1566757D1*
X1648222Y1563872D1*
X1645370Y1561020D1*
X1642485Y1559561D1*
X1636748D1*
X1633896Y1561020D1*
X1631011Y1563872D1*
X1629585Y1566757D1*
X1620322Y1589705D2*
Y1559561D1*
X1600226Y1589705D2*
X1620322Y1569609D1*
X1613159Y1576805D2*
X1600226Y1559561D1*
X1753849D2*
Y1589705D1*
X1765323Y1559561D1*
X1776797Y1589705D1*
Y1559561D1*
X1744585Y1589705D2*
Y1559561D1*
X1715226Y1585394D2*
X1718078Y1588279D1*
X1722389Y1589705D1*
X1728126D1*
X1732437Y1588279D1*
X1735322Y1585394D1*
Y1582542D1*
X1733863Y1579657D1*
X1732437Y1578231D1*
X1729585Y1576805D1*
X1720963Y1573920D1*
X1718078Y1572494D1*
X1716652Y1571035D1*
X1715226Y1568183D1*
Y1563872D1*
X1718078Y1561020D1*
X1722389Y1559561D1*
X1728126D1*
X1732437Y1561020D1*
X1735322Y1563872D1*
X1856797Y1559561D2*
Y1589705D1*
X1868271Y1559561D1*
X1879745Y1589705D1*
Y1559561D1*
X1838911Y1589705D2*
X1841796Y1588279D1*
X1844648Y1585394D1*
X1846107Y1582542D1*
X1847533Y1578231D1*
Y1571035D1*
X1846107Y1566757D1*
X1844648Y1563872D1*
X1841796Y1561020D1*
X1838911Y1559561D1*
X1833174D1*
X1830322Y1561020D1*
X1827437Y1563872D1*
X1826011Y1566757D1*
X1824585Y1571035D1*
Y1578231D1*
X1826011Y1582542D1*
X1827437Y1585394D1*
X1830322Y1588279D1*
X1833174Y1589705D1*
X1838911D1*
X1795226Y1585394D2*
X1798078Y1588279D1*
X1802389Y1589705D1*
X1808126D1*
X1812437Y1588279D1*
X1815322Y1585394D1*
Y1582542D1*
X1813863Y1579657D1*
X1812437Y1578231D1*
X1809585Y1576805D1*
X1800963Y1573920D1*
X1798078Y1572494D1*
X1796652Y1571035D1*
X1795226Y1568183D1*
Y1563872D1*
X1798078Y1561020D1*
X1802389Y1559561D1*
X1808126D1*
X1812437Y1561020D1*
X1815322Y1563872D1*
X1944585Y1582542D2*
X1946011Y1585394D1*
X1948896Y1588279D1*
X1951748Y1589705D1*
X1957485D1*
X1960370Y1588279D1*
X1963222Y1585394D1*
X1964681Y1582542D1*
X1966107Y1578231D1*
Y1571035D1*
X1964681Y1566757D1*
X1963222Y1563872D1*
X1960370Y1561020D1*
X1957485Y1559561D1*
X1951748D1*
X1948896Y1561020D1*
X1946011Y1563872D1*
X1944585Y1566757D1*
X1915226Y1585394D2*
X1918078Y1588279D1*
X1922389Y1589705D1*
X1928126D1*
X1932437Y1588279D1*
X1935322Y1585394D1*
Y1582542D1*
X1933863Y1579657D1*
X1932437Y1578231D1*
X1929585Y1576805D1*
X1920963Y1573920D1*
X1918078Y1572494D1*
X1916652Y1571035D1*
X1915226Y1568183D1*
Y1563872D1*
X1918078Y1561020D1*
X1922389Y1559561D1*
X1928126D1*
X1932437Y1561020D1*
X1935322Y1563872D1*
X2079041Y1575346D2*
X2066141D1*
X2061830Y1576805D1*
X2060371Y1578231D1*
X2058945Y1581083D1*
Y1583968D1*
X2060371Y1586820D1*
X2061830Y1588279D1*
X2066141Y1589705D1*
X2079041D1*
Y1559561D1*
X2068993Y1575346D2*
X2058945Y1559561D1*
X2029585Y1585394D2*
X2032437Y1588279D1*
X2036748Y1589705D1*
X2042485D1*
X2046796Y1588279D1*
X2049681Y1585394D1*
Y1582542D1*
X2048222Y1579657D1*
X2046796Y1578231D1*
X2043944Y1576805D1*
X2035322Y1573920D1*
X2032437Y1572494D1*
X2031011Y1571035D1*
X2029585Y1568183D1*
Y1563872D1*
X2032437Y1561020D1*
X2036748Y1559561D1*
X2042485D1*
X2046796Y1561020D1*
X2049681Y1563872D1*
X2010274Y1589705D2*
Y1559561D1*
X2020322Y1589705D2*
X2000226D1*
X2161107D2*
Y1559561D1*
X2151059D1*
X2146748Y1561020D1*
X2143863Y1563872D1*
X2142437Y1566757D1*
X2141011Y1571035D1*
Y1578231D1*
X2142437Y1582542D1*
X2143863Y1585394D1*
X2146748Y1588279D1*
X2151059Y1589705D1*
X2161107D1*
X2110226Y1582542D2*
X2111652Y1585394D1*
X2114537Y1588279D1*
X2117389Y1589705D1*
X2123126D1*
X2126011Y1588279D1*
X2128863Y1585394D1*
X2130322Y1582542D1*
X2131748Y1578231D1*
Y1571035D1*
X2130322Y1566757D1*
X2128863Y1563872D1*
X2126011Y1561020D1*
X2123126Y1559561D1*
X2117389D1*
X2114537Y1561020D1*
X2111652Y1563872D1*
X2110226Y1566757D1*
X2366796Y1589705D2*
Y1559561D1*
X2353863D1*
X2349552Y1561020D1*
X2348126Y1562446D1*
X2346700Y1565298D1*
Y1569609D1*
X2348126Y1572494D1*
X2349552Y1573920D1*
X2353863Y1575346D1*
X2349552Y1576805D1*
X2348126Y1578231D1*
X2346700Y1581083D1*
Y1583968D1*
X2348126Y1586820D1*
X2349552Y1588279D1*
X2353863Y1589705D1*
X2366796D1*
Y1575346D2*
X2353863D1*
X2337437Y1589705D2*
Y1559561D1*
X2320226D1*
X2266141Y1744705D2*
Y1714561D1*
X2256093D1*
X2251782Y1716020D1*
X2248897Y1718872D1*
X2247471Y1721757D1*
X2246045Y1726035D1*
Y1733231D1*
X2247471Y1737542D1*
X2248897Y1740394D1*
X2251782Y1743279D1*
X2256093Y1744705D1*
X2266141D1*
X2236782Y1738934D2*
X2233896Y1740394D1*
X2229585Y1744671D1*
Y1714561D1*
X2203111Y1744671D2*
X2217437D1*
X2218863Y1731772D1*
X2217437Y1733197D1*
X2213126Y1734657D1*
X2208848D1*
X2204537Y1733197D1*
X2201652Y1730346D1*
X2200226Y1726035D1*
Y1723183D1*
X2201652Y1718872D1*
X2204537Y1715987D1*
X2208848Y1714561D1*
X2213126D1*
X2217437Y1715987D1*
X2218863Y1717446D1*
X2220322Y1720298D1*
X2260371Y1585394D2*
X2263223Y1588279D1*
X2267534Y1589705D1*
X2273271D1*
X2277582Y1588279D1*
X2280467Y1585394D1*
Y1582542D1*
X2279008Y1579657D1*
X2277582Y1578231D1*
X2274730Y1576805D1*
X2266108Y1573920D1*
X2263223Y1572494D1*
X2261797Y1571035D1*
X2260371Y1568183D1*
Y1563872D1*
X2263223Y1561020D1*
X2267534Y1559561D1*
X2273271D1*
X2277582Y1561020D1*
X2280467Y1563872D1*
X2251107Y1589705D2*
Y1559561D1*
X2241059D1*
X2236748Y1561020D1*
X2233863Y1563872D1*
X2232437Y1566757D1*
X2231011Y1571035D1*
Y1578231D1*
X2232437Y1582542D1*
X2233863Y1585394D1*
X2236748Y1588279D1*
X2241059Y1589705D1*
X2251107D1*
X2200226Y1582542D2*
X2201652Y1585394D1*
X2204537Y1588279D1*
X2207389Y1589705D1*
X2213126D1*
X2216011Y1588279D1*
X2218863Y1585394D1*
X2220322Y1582542D1*
X2221748Y1578231D1*
Y1571035D1*
X2220322Y1566757D1*
X2218863Y1563872D1*
X2216011Y1561020D1*
X2213126Y1559561D1*
X2207389D1*
X2204537Y1561020D1*
X2201652Y1563872D1*
X2200226Y1566757D1*
X3210672Y1286097D2*
D129*
Y1251653D1*
X3227872Y1268852D2*
X3193428D1*
X3212095Y1327541D2*
Y1305434D1*
X3313950Y1392406D2*
Y1352214D1*
X3296706D1*
X3290958Y1354159D1*
X3289056Y1356061D1*
X3287155Y1359863D1*
Y1365611D1*
X3289056Y1369458D1*
X3290958Y1371359D1*
X3296706Y1373261D1*
X3290958Y1375206D1*
X3289056Y1377107D1*
X3287155Y1380910D1*
Y1384757D1*
X3289056Y1388559D1*
X3290958Y1390505D1*
X3296706Y1392406D1*
X3313950D1*
Y1373261D2*
X3296706D1*
X3244162Y1352214D2*
X3259505Y1392406D1*
X3274804Y1352214D1*
X3269056Y1365611D2*
X3249910D1*
X3218414Y1392406D2*
Y1352214D1*
X3231811Y1392406D2*
X3205016D1*
X2987116Y1831533D2*
X3027308Y1816235D1*
X2987116Y1800936D1*
Y1788585D2*
X3027308D1*
X2987116Y1749439D2*
X3027308D1*
X2987116Y1776234D1*
X3027308Y1776233D1*
X3234219Y1785285D2*
X3230417Y1787186D1*
X3226570Y1791033D1*
X3224669Y1794835D1*
Y1802485D1*
X3226570Y1806331D1*
X3230417Y1810134D1*
X3234219Y1812079D1*
X3239967Y1813981D1*
X3249562D1*
X3255266Y1812079D1*
X3259113Y1810134D1*
X3262915Y1806331D1*
X3264861Y1802485D1*
Y1794835D1*
X3262915Y1791033D1*
X3259113Y1787186D1*
X3255266Y1785285D1*
X3249562D1*
Y1794835D1*
X3224669Y1746139D2*
X3264861D1*
X3224669Y1772933D1*
X3264861D1*
X3224669Y1733787D2*
X3264861D1*
Y1720390D1*
X3262915Y1714642D1*
X3259113Y1710795D1*
X3255266Y1708894D1*
X3249562Y1706993D1*
X3239967D1*
X3234219Y1708894D1*
X3230417Y1710795D1*
X3226570Y1714642D1*
X3224669Y1720390D1*
Y1733787D1*
X2616522Y2264589D2*
D130*
Y2294733D1*
X2626570D1*
X2630881Y2293274D1*
X2633766Y2290422D1*
X2635192Y2287537D1*
X2636618Y2283259D1*
Y2276063D1*
X2635192Y2271752D1*
X2633766Y2268900D1*
X2630881Y2266015D1*
X2626570Y2264589D1*
X2616522D1*
X2654503Y2264622D2*
X2650192Y2266048D1*
X2647307Y2270359D1*
X2645881Y2277522D1*
Y2281833D1*
X2647307Y2288996D1*
X2650192Y2293307D1*
X2654503Y2294733D1*
X2657355D1*
X2661666Y2293307D1*
X2664518Y2288996D1*
X2665977Y2281833D1*
Y2277522D1*
X2664518Y2270359D1*
X2661666Y2266048D1*
X2657355Y2264622D1*
X2654503D1*
X2664518Y2270359D2*
X2647307Y2288996D1*
X2524422Y2264589D2*
Y2294733D1*
X2534470D1*
X2538781Y2293274D1*
X2541666Y2290422D1*
X2543092Y2287537D1*
X2544518Y2283259D1*
Y2276063D1*
X2543092Y2271752D1*
X2541666Y2268900D1*
X2538781Y2266015D1*
X2534470Y2264589D1*
X2524422D1*
X2553781Y2270359D2*
X2556666Y2268900D1*
X2560977Y2264622D1*
Y2294733D1*
X1075418Y1659705D2*
Y1629561D1*
X1065370D1*
X1061059Y1631020D1*
X1058174Y1633872D1*
X1056748Y1636757D1*
X1055322Y1641035D1*
Y1648231D1*
X1056748Y1652542D1*
X1058174Y1655394D1*
X1061059Y1658279D1*
X1065370Y1659705D1*
X1075418D1*
X1033159Y1657532D2*
Y1631700D1*
X1046059Y1644599D2*
X1020226D1*
X1070792Y1919705D2*
Y1889561D1*
X1060744D1*
X1056433Y1891020D1*
X1053548Y1893872D1*
X1052122Y1896757D1*
X1050696Y1901035D1*
Y1908231D1*
X1052122Y1912542D1*
X1053548Y1915394D1*
X1056433Y1918279D1*
X1060744Y1919705D1*
X1070792D1*
X1041433Y1904616D2*
X1024852D1*
M02*
