G04 DipTrace 3.3.1.3*
G04 T4-T36-Breakout.gtl*
%MOIN*%
G04 #@! TF.FileFunction,Copper,L1,Top*
G04 #@! TF.Part,Single*
%AMOUTLINE0*
4,1,10,
0.019685,-0.100394,
0.019685,-0.033465,
0.043307,-0.009843,
0.043307,0.076772,
0.019685,0.100394,
-0.019685,0.100394,
-0.043307,0.076772,
-0.043307,-0.009843,
-0.019685,-0.033465,
-0.019685,-0.100394,
0.019685,-0.100394,
0*%
G04 #@! TA.AperFunction,ViaPad*
%ADD13C,0.04*%
G04 #@! TA.AperFunction,Conductor*
%ADD14C,0.015*%
%ADD15C,0.023622*%
%ADD16C,0.03937*%
%ADD18C,0.015748*%
%ADD19C,0.02*%
%ADD20C,0.03*%
%ADD21C,0.01*%
%ADD22C,0.008*%
%ADD24C,0.033465*%
%ADD25C,0.059055*%
G04 #@! TA.AperFunction,ComponentPad*
%ADD26C,0.06*%
G04 #@! TA.AperFunction,Conductor*
%ADD27C,0.051181*%
%ADD28R,0.059055X0.051181*%
%ADD29R,0.051181X0.059055*%
G04 #@! TA.AperFunction,ComponentPad*
%ADD30R,0.059055X0.059055*%
%ADD31C,0.059055*%
%ADD32R,0.031496X0.062992*%
G04 #@! TA.AperFunction,ComponentPad*
%ADD33C,0.17*%
%ADD34R,0.062992X0.062992*%
%ADD35C,0.062992*%
%ADD36C,0.137795*%
%ADD38C,0.065199*%
%ADD39R,0.03937X0.051181*%
%ADD40O,0.03937X0.051181*%
%ADD41R,0.047244X0.07874*%
%ADD42R,0.023622X0.05315*%
%ADD43R,0.07874X0.047244*%
%ADD44R,0.05315X0.023622*%
%ADD46R,0.047244X0.047244*%
%ADD47R,0.033465X0.051181*%
%ADD50R,0.07874X0.023622*%
G04 #@! TA.AperFunction,ComponentPad*
%ADD51R,0.074X0.074*%
%ADD52C,0.074*%
%ADD53C,0.06194*%
%ADD54C,0.074*%
%ADD56R,0.03937X0.059055*%
%ADD57R,0.055118X0.015748*%
G04 #@! TA.AperFunction,ViaPad*
%ADD59C,0.165*%
%ADD136OUTLINE0*%
%FSLAX26Y26*%
G04*
G70*
G90*
G75*
G01*
G04 Top*
%LPD*%
X2868700Y2443700D2*
D13*
X2768700D1*
X843700D2*
X943700D1*
X1143700D2*
X1243700D1*
X3068700D2*
X3168700D1*
X3268700D2*
X3368700D1*
X1343700D2*
X1418700Y2368700D1*
X1448700D1*
X2418700Y2443700D2*
X2768700D1*
X1518700Y2363700D2*
D14*
Y2348700D1*
X1643149D1*
Y2423700D1*
X3518700Y2443700D2*
Y2367401D1*
X3683700D1*
Y2199015D1*
X3614015D1*
X3368700Y2443700D2*
D13*
X3518700D1*
X1626810Y1918700D2*
D16*
Y1869172D1*
D13*
Y1821810D1*
X1588700Y1783700D1*
X1626810Y1918700D2*
D16*
X1648700D1*
D13*
X1688700Y1958700D1*
Y2248700D1*
X1517212D1*
X1478700D1*
X1443700Y2283700D1*
Y2363700D1*
X1448700Y2368700D1*
X1928149Y2423700D2*
D14*
Y2373700D1*
X2033700D1*
Y2433700D1*
X2108700D1*
X2118700Y2443700D1*
X743700D2*
D13*
X673700D1*
X628700Y2398700D1*
X583700D1*
X553700Y2368700D1*
X2643700Y611102D2*
X2736102D1*
X2743700Y618700D1*
X2543700D2*
X2551298Y611102D1*
X2643700D1*
X1543700Y613700D2*
X1638700D1*
X1643700Y618700D1*
X1443700D2*
X1448700Y613700D1*
X1543700D1*
X743700Y618700D2*
X741838Y627100D1*
X456836Y681899D1*
X423296Y960609D1*
X428700Y1035947D1*
Y1433700D1*
X488700Y1493700D1*
X493700D1*
X2930472Y998700D2*
D18*
X2963700D1*
Y948700D1*
X3333700D1*
Y943700D1*
X1283700Y2003700D2*
D15*
Y2053700D1*
X3243700Y618700D2*
D13*
X3253228Y628228D1*
X3372893D1*
X3388897D1*
Y568700D1*
X1283700Y2103700D2*
D19*
X1303700D1*
Y2148700D1*
Y2163700D1*
X1283700Y2183700D1*
X938700D1*
X793700Y2038700D1*
X678700D1*
X1283700Y2053700D2*
D15*
Y2103700D1*
X3333700Y943700D2*
D19*
X3363700D1*
X3388893Y918507D1*
Y644228D1*
X3372893Y628228D1*
X2358700Y2058503D2*
X2343734Y2143503D1*
X2418897D1*
X2428700Y2133700D1*
X1303700Y2148700D2*
D20*
X1358700D1*
X1568700D1*
X1618700Y2198700D1*
X1567755Y1989566D2*
D13*
X1568700Y2148700D1*
X1423700Y2018700D2*
X1538621D1*
X1567755Y1989566D1*
X2043700Y618700D2*
X2168700D1*
X2188700Y598700D1*
X1358700Y2143700D2*
Y2148700D1*
X2923700Y883700D2*
D21*
X2928700D1*
Y972598D1*
X2930472Y970826D1*
Y998700D1*
X1858700Y1923700D2*
D20*
Y2198700D1*
X1868700Y2208700D1*
X2893700Y1618700D2*
D13*
X2983700D1*
X3043700Y1558700D1*
X3598700D1*
Y1628700D1*
X3593700Y1633700D1*
X1693700Y1493700D2*
D22*
Y1713700D1*
X1773700Y1913700D1*
X1783700Y2223700D1*
X1838700Y2273700D1*
X2273700Y2268700D1*
X2318700Y2343700D1*
X793700Y1493700D2*
Y1523700D1*
X638700Y1678700D1*
Y2133755D1*
X743700Y2343700D1*
X3093700Y2093700D2*
Y2018700D1*
X3093897D1*
X3093700Y2093700D2*
Y2089231D1*
X3088700Y2084231D1*
Y2138700D1*
X3408700D1*
X3478700Y2208700D1*
X3528700D1*
X743700Y2343700D2*
X787228Y2387228D1*
Y2577700D1*
X803228Y2593700D1*
X1201606D1*
X693700Y893700D2*
X721200D1*
Y818700D1*
X843700Y718700D1*
X793700Y893700D2*
X818700Y808222D1*
X943700Y718700D1*
X893700Y893700D2*
X921200D1*
Y818478D1*
X1043700Y718700D1*
X993700Y893700D2*
X1021200D1*
Y818200D1*
X1143700Y718700D1*
X1093700Y893700D2*
X1121200D1*
Y818645D1*
X1243700Y718700D1*
X3053700Y808897D2*
Y808700D1*
X3143700Y718700D1*
X3243700D2*
X3298700D1*
X3323700Y743700D1*
Y793897D1*
X3333700Y803897D1*
X2498700Y1788700D2*
X2753700D1*
X2868700Y1903700D1*
Y2343700D1*
X2543700Y2228700D2*
X2563700D1*
X2588700Y2253700D1*
X2768700D1*
Y2343700D1*
X1593700Y893700D2*
X1588700D1*
X1682413Y799987D1*
X1812413Y775638D1*
X1843700Y718700D1*
X1608700Y1368700D2*
Y908700D1*
X1593700Y893700D1*
X1693700D2*
X1698700D1*
Y837182D1*
X1922896Y782468D1*
X1943700Y718700D1*
X1843700Y1643700D2*
Y1448700D1*
X1698700D1*
X1673700Y1423700D1*
Y913700D1*
X1693700Y893700D1*
X1793700D2*
X1863700Y858700D1*
X1938700Y818700D1*
X2033700Y773700D1*
X2043700Y718700D1*
X1738700Y1413700D2*
Y948700D1*
X1793700Y893700D1*
Y1493700D2*
Y1667735D1*
X1788700Y1783700D1*
X1804419Y2219234D1*
X1853700Y2253700D1*
X2294973Y2245998D1*
X2418700Y2343700D1*
X1593700Y1493700D2*
Y1653552D1*
X1748700Y1923700D1*
X1763700Y2238700D1*
X1828700Y2298700D1*
X2183700D1*
X2218700Y2343700D1*
X2101228Y1586172D2*
X2243700D1*
Y1643700D1*
X2118700Y2343700D2*
X2113700Y2338700D1*
Y2323700D1*
X1848700D1*
X1849409Y2324914D1*
Y2423700D1*
X1493700Y1493700D2*
X1499684Y1487716D1*
Y1706191D1*
X1618700Y1733700D1*
X1723700Y1923700D1*
X1731200Y2241200D1*
X1814914Y2324914D1*
X1849409D1*
X1883700Y2358700D2*
X1888779D1*
Y2423700D1*
X1243700Y2343700D2*
X1287228Y2387228D1*
Y2623700D1*
X1603779D1*
Y2423700D1*
X1558700Y2488700D2*
Y2473913D1*
X1564409Y2468204D1*
Y2423700D1*
X2343700Y718700D2*
X2468700Y843700D1*
X2548700D1*
Y1093700D1*
X2543700Y1088700D1*
Y1678922D1*
X2738922D1*
X2963700Y1903700D1*
Y2083700D1*
X3073700Y2193700D1*
X3398700D1*
X3443700Y2238700D1*
Y2278700D1*
X3618700D1*
X3614015Y2274015D1*
Y2277755D1*
X2043700Y1643700D2*
Y1158700D1*
X2138700Y1063700D1*
X2353700D1*
X2383700Y1033700D1*
Y903700D1*
X2393700Y893700D1*
X2343700Y1643700D2*
Y1258700D1*
X2338700Y1253700D1*
Y1198700D1*
X2483700Y1053700D1*
Y903700D1*
X2493700Y893700D1*
X2978700Y1863700D2*
X3008700D1*
Y2088700D1*
X3088700Y2168700D1*
X3408700D1*
X3488700Y2248700D1*
X3614015D1*
Y2238385D1*
X2443700Y718700D2*
Y728700D1*
X2538700Y823700D1*
X2838700D1*
Y1148700D1*
X2973700D1*
Y1143700D1*
X1193700Y893700D2*
X1223700D1*
Y828700D1*
X1343700Y718700D1*
X2868700Y1238700D2*
X2886512D1*
Y1291512D1*
X2943700Y1348700D1*
X2981298D1*
Y1363700D1*
X2893700Y948700D2*
X2878700D1*
Y1024291D1*
X2930472D1*
X2931062Y1023700D1*
X3023700D1*
X3046103Y1001297D1*
Y993700D1*
X3103700D1*
Y998700D1*
X1293700Y893700D2*
X1318700Y808222D1*
X1443700Y718700D1*
X2588700Y1123700D2*
Y1193700D1*
X2981298D1*
Y1213700D1*
X1293700Y893700D2*
X1363700Y963700D1*
Y1138700D1*
X2981298Y1213700D2*
Y1288700D1*
X1393700Y893700D2*
X1421200D1*
Y818200D1*
X1643700Y718700D1*
X1700172Y662228D1*
X2643700D1*
Y798700D1*
X2858700D1*
Y1075472D1*
X2930472D1*
X1493700Y893700D2*
X1523700D1*
Y823644D1*
X1613700Y788700D1*
X1698700Y773700D1*
X1743700Y718700D1*
X1478700Y1333700D2*
Y908700D1*
X1493700Y893700D1*
X3493700Y953700D2*
X3428897Y1018503D1*
X3333700D1*
X3331102Y1098700D2*
Y1178700D1*
X3333700Y1018503D2*
Y1098700D1*
X3331102D1*
X1443700Y518700D2*
D13*
Y513700D1*
X1543700D1*
Y538897D1*
X1893700Y1228700D2*
Y1493700D1*
X2543700Y518700D2*
X2561298Y536298D1*
X2643700D1*
X3243700Y518700D2*
X3303228D1*
Y473700D1*
X3391220D1*
Y468700D1*
X3506810Y2078739D2*
D14*
X3614015D1*
Y2159645D1*
X1343700Y2543700D2*
D13*
X1388700D1*
X1448700Y2483700D1*
Y2443503D1*
X1682519Y2423700D2*
D14*
Y2543700D1*
X1653700D1*
X1452700Y1848700D2*
X1296978D1*
X1283700D1*
Y1953700D1*
X3043700Y1143700D2*
D13*
Y1213700D1*
X3056102D1*
X3183700Y1923700D2*
Y2018700D1*
X3168700D1*
X3368700Y2543700D2*
X3518700D1*
Y2518503D1*
X1043700Y1018700D2*
X1143700D1*
X1967519Y2423700D2*
D21*
Y2477519D1*
X1973700Y2483700D1*
X2058700D1*
X2118700Y2543700D1*
X3103700Y1075472D2*
D14*
X3128700D1*
Y1333700D1*
X3098700Y1363700D1*
D13*
X3056102D1*
X2503503Y2133700D2*
D19*
X2513797Y2123406D1*
X2498645Y2169422D1*
X2493645Y2199422D1*
X2478700Y2238700D1*
X2188700Y523897D2*
D13*
X2338503D1*
X2343700Y518700D1*
X2188700Y523897D2*
X2048897D1*
X2043700Y518700D1*
X1423700Y1943897D2*
Y1912023D1*
Y1877700D1*
X1452700Y1848700D1*
X1513897Y1783700D2*
Y1787503D1*
X1452700Y1848700D1*
X1508700Y1918700D2*
D16*
X1469015D1*
D13*
X1430377D1*
X1423700Y1912023D1*
X1208700Y1863700D2*
D14*
X1281978D1*
X1296978Y1848700D1*
X2268503Y1843700D2*
D24*
Y1853700D1*
X2328700Y1868700D1*
X3143700Y802361D2*
D21*
X3193700D1*
X3243700D1*
X3193700D2*
Y533700D1*
X3208700Y518700D1*
X3243700D1*
X3043700Y1463700D2*
D16*
Y1418109D1*
D13*
Y1376102D1*
X3056102Y1363700D1*
X3493700Y1633700D2*
Y1762480D1*
X3624920Y1893700D1*
X3183700Y1823700D2*
Y1733897D1*
X3178503Y1728700D1*
X2923700Y808897D2*
D21*
Y793700D1*
X2943700Y773700D1*
X2983700D1*
X2988700Y768700D1*
Y563700D1*
X2943700Y518700D1*
X2758700Y1863700D2*
D14*
Y1848700D1*
X2499842D1*
X2483700Y1864842D1*
X2231102Y1930314D2*
Y1913839D1*
X2319212D1*
X2472892Y1864842D1*
X2483700D1*
X3103700Y1024291D2*
D22*
X3249291D1*
X3256298Y1031298D1*
Y1098700D1*
X2483700Y1998700D2*
D14*
X2637747D1*
X2758700Y2119653D1*
X2483700Y1998700D2*
X2373700D1*
X2358700Y1983700D1*
X3053700Y883700D2*
D22*
X3142361D1*
X3143700Y885039D1*
X3243700D2*
X3327361D1*
X3333700Y878700D1*
X2343700Y1773700D2*
X2193700D1*
Y1843700D1*
X3473897Y468700D2*
X3463700Y478897D1*
Y568700D1*
X3103700Y1049881D2*
Y1048700D1*
X3183700D1*
Y1133700D1*
X3228700Y1178700D1*
X3256298D1*
X3056102Y1288700D2*
X3095692D1*
Y1110363D1*
X3085363D1*
X3024881Y1049881D1*
X2930472D1*
X2643700Y2343700D2*
X2585700Y2285700D1*
X2410699D1*
X2352226Y2227228D1*
X2085968D1*
X2069968Y2211228D1*
Y1717228D1*
X2085968Y1701228D1*
X2269228D1*
X2285228Y1685228D1*
Y1570169D1*
X2269228Y1554169D1*
X2154169D1*
X2093700Y1493700D1*
X3368700Y2243700D2*
X3088700D1*
X2923700Y2078700D1*
Y1918700D1*
X2753700Y1748700D1*
X2398700D1*
X2408700Y1783700D1*
X2433503Y1788700D1*
X2418503Y1773700D1*
X943700Y1018700D2*
D14*
Y1048700D1*
X1043700Y1148700D1*
Y1713700D1*
X1048700Y1718700D1*
Y1818700D2*
X1003700D1*
X978700Y1793700D1*
Y1568700D1*
X943700Y1533700D1*
Y1118700D1*
X843700Y1018700D1*
X2853700Y1343700D2*
X2983700Y1473700D1*
X2993700Y1463700D1*
X3168503Y2093700D2*
D21*
X3318700D1*
Y1963700D1*
X3388700Y1893700D1*
D26*
Y1638700D1*
X3393700Y1633700D1*
X3103700Y1728700D2*
D27*
Y1802978D1*
D26*
X3083700Y1782978D1*
D25*
Y1823700D1*
X2438469Y1938239D2*
D20*
X2692512D1*
X2743700Y1968700D1*
X2588700Y1388700D2*
X2788700D1*
X2858700Y1458700D1*
Y1523700D1*
X2823700Y1558700D1*
X2698700D1*
Y1613700D1*
X2693700Y1618700D1*
X1133897Y1863700D2*
D14*
X1148700D1*
Y1848700D1*
X1133700D1*
X913700Y2068700D1*
X1071102Y2003700D2*
X1148700D1*
Y2053700D1*
X1071102D1*
Y1953700D2*
X1148700D1*
Y2003700D1*
X913700Y2068700D2*
X918700D1*
X1058700Y1928700D1*
Y1898700D1*
X1071102D1*
Y1953700D1*
X913700Y2068700D2*
D19*
Y2058700D1*
X968700Y2003700D1*
X1071102D1*
X743700Y1018700D2*
Y953700D1*
X1198700D1*
X1253700Y1008700D1*
Y1263700D1*
X1363700Y1373700D1*
Y1423700D1*
X1343700Y1443700D1*
Y1548700D1*
X1323700Y1568700D1*
X1283700D1*
X1238700Y1613700D1*
Y1808700D1*
X1138700D1*
Y1863700D1*
X1133897D1*
D13*
X1517212Y2248700D3*
X553700Y2368700D3*
X1618700Y2198700D3*
X2343734Y2143503D3*
X1358700Y2143700D3*
X1858700Y1923700D3*
X1868700Y2208700D3*
X1608700Y1368700D3*
X1738700Y1413700D3*
X1478700Y1333700D3*
X1893700Y1228700D3*
X2478700Y2238700D3*
X2328700Y1868700D3*
X2853700Y1343700D3*
X2438469Y1938239D3*
X2743700Y1968700D3*
X2588700Y1388700D3*
D59*
X3700787Y551180D3*
X551180D3*
Y2519684D3*
X3700787D3*
D13*
X1653700Y2543700D3*
X1452700Y1848700D3*
X3043700Y1143700D3*
X1518700Y2363700D3*
X678700Y2038700D3*
X2498700Y1788700D3*
X2543700Y2228700D3*
X1883700Y2358700D3*
X1558700Y2488700D3*
X2978700Y1863700D3*
X2868700Y1238700D3*
X2893700Y948700D3*
X2588700Y1123700D3*
X1363700Y1138700D3*
X2973700Y1143700D3*
X3528700Y2208700D3*
X1201606Y2593700D3*
X2101228Y1586172D3*
D28*
X3518700Y2443700D3*
Y2518503D3*
X2923700Y883700D3*
Y808897D3*
X2188700Y598700D3*
Y523897D3*
D29*
X1208700Y1863700D3*
X1133897D3*
X2428700Y2133700D3*
X2503503D3*
D28*
X1448700Y2368700D3*
Y2443503D3*
X1543700Y613700D3*
Y538897D3*
X2643700Y611102D3*
Y536298D3*
D29*
X3103700Y1728700D3*
X3178503D3*
D28*
X1423700Y2018700D3*
Y1943897D3*
D29*
X1588700Y1783700D3*
X1513897D3*
D30*
X2768700Y2443700D3*
D31*
Y2543700D3*
X2868700Y2443700D3*
Y2543700D3*
X2968700Y2443700D3*
Y2543700D3*
X3068700Y2443700D3*
Y2543700D3*
X3168700Y2443700D3*
Y2543700D3*
X3268700Y2443700D3*
Y2543700D3*
X3368700Y2443700D3*
Y2543700D3*
D30*
X2118700Y2443700D3*
D31*
Y2543700D3*
X2218700Y2443700D3*
Y2543700D3*
X2318700Y2443700D3*
Y2543700D3*
X2418700Y2443700D3*
Y2543700D3*
D30*
X743700Y2443700D3*
D31*
Y2543700D3*
X843700Y2443700D3*
Y2543700D3*
X943700Y2443700D3*
Y2543700D3*
X1043700Y2443700D3*
Y2543700D3*
X1143700Y2443700D3*
Y2543700D3*
X1243700Y2443700D3*
Y2543700D3*
X1343700Y2443700D3*
Y2543700D3*
D30*
X743700Y518700D3*
D31*
Y618700D3*
X843700Y518700D3*
Y618700D3*
X943700Y518700D3*
Y618700D3*
X1043700Y518700D3*
Y618700D3*
X1143700Y518700D3*
Y618700D3*
X1243700Y518700D3*
Y618700D3*
X1343700Y518700D3*
Y618700D3*
X1443700Y518700D3*
Y618700D3*
D30*
X1643700Y518700D3*
D31*
Y618700D3*
X1743700Y518700D3*
Y618700D3*
X1843700Y518700D3*
Y618700D3*
X1943700Y518700D3*
Y618700D3*
X2043700Y518700D3*
Y618700D3*
D30*
X2743700Y518700D3*
D31*
Y618700D3*
X2843700Y518700D3*
Y618700D3*
X2943700Y518700D3*
Y618700D3*
X3043700Y518700D3*
Y618700D3*
X3143700Y518700D3*
Y618700D3*
X3243700Y518700D3*
Y618700D3*
D30*
X2343700Y518700D3*
D31*
Y618700D3*
X2443700Y518700D3*
Y618700D3*
X2543700Y518700D3*
Y618700D3*
D32*
X2483700Y1998700D3*
Y1864842D3*
D33*
X3388700Y1893700D3*
X3624920D3*
X3506810Y2078739D3*
D34*
X913700Y2068700D3*
D35*
Y1970275D3*
Y1891535D3*
Y1793109D3*
D36*
X807007Y2189566D3*
Y1672243D3*
D30*
X1343700Y1643700D3*
D31*
X1443700D3*
X1543700D3*
X1643700D3*
X1743700D3*
X1843700D3*
X1943700D3*
X2043700D3*
X2143700D3*
X2243700D3*
X2343700D3*
D38*
X3693700Y1143700D3*
X3593700D3*
X3493700D3*
X3693700Y953700D3*
X3593700D3*
X3493700D3*
X3693700Y743700D3*
X3593700D3*
X3493700D3*
D39*
X2993700Y1463700D3*
D40*
X3043700D3*
D30*
X743700Y718700D3*
D31*
X843700D3*
X943700D3*
X1043700D3*
X1143700D3*
X1243700D3*
X1343700D3*
X1443700D3*
D30*
X2043700D3*
D31*
X1943700D3*
X1843700D3*
X1743700D3*
X1643700D3*
D30*
X2743700D3*
D31*
X2843700D3*
X2943700D3*
X3043700D3*
X3143700D3*
X3243700D3*
D30*
X3368700Y2343700D3*
D31*
X3268700D3*
X3168700D3*
X3068700D3*
X2968700D3*
X2868700D3*
X2768700D3*
D30*
X2118700D3*
D31*
X2218700D3*
X2318700D3*
X2418700D3*
D30*
X743700D3*
D31*
X843700D3*
X943700D3*
X1043700D3*
X1143700D3*
X1243700D3*
X1343700D3*
D30*
X2343700Y718700D3*
D31*
X2443700D3*
X2543700D3*
D30*
X2643700Y2343700D3*
D31*
X2543700D3*
D41*
X1733700Y2568385D3*
X1513228D3*
D42*
X1682519Y2423700D3*
X1643149D3*
X1603779D3*
X1564409D3*
D41*
X2018700Y2568385D3*
X1798228D3*
D42*
X1967519Y2423700D3*
X1928149D3*
X1888779D3*
X1849409D3*
D43*
X3758700Y2108464D3*
Y2328936D3*
D44*
X3614015Y2159645D3*
Y2199015D3*
Y2238385D3*
Y2277755D3*
D30*
X3368700Y2243700D3*
X1048700Y1718700D3*
D31*
Y1818700D3*
D30*
X3083700Y1923700D3*
D31*
X3183700D3*
X3083700Y1823700D3*
X3183700D3*
D46*
X3143700Y885039D3*
Y802361D3*
X3243700Y885039D3*
Y802361D3*
X3391220Y468700D3*
X3473897D3*
D47*
X2193700Y1843700D3*
X2268503D3*
X2231102Y1930314D3*
D29*
X3093700Y2093700D3*
X3168503D3*
X3168700Y2018700D3*
X3093897D3*
X2343700Y1773700D3*
X2418503D3*
D28*
X2358700Y1983700D3*
Y2058503D3*
D29*
X3463700Y568700D3*
X3388897D3*
X3056102Y1363700D3*
X2981298D3*
D28*
X3053700Y883700D3*
Y808897D3*
X3333700Y943700D3*
Y1018503D3*
D29*
X3056102Y1288700D3*
X2981298D3*
X3256298Y1178700D3*
X3331102D3*
X3256298Y1098700D3*
X3331102D3*
X3056102Y1213700D3*
X2981298D3*
D28*
X3333700Y878700D3*
Y803897D3*
D26*
X2758700Y1863700D3*
D31*
Y2119653D3*
D50*
X1283700Y1953700D3*
Y2003700D3*
Y2053700D3*
Y2103700D3*
X1071102D3*
Y2053700D3*
Y2003700D3*
Y1953700D3*
D51*
X3593700Y1633700D3*
D52*
X3493700D3*
X3393700D3*
X3193700D3*
X3293700D3*
D53*
X493700Y893700D3*
X593700D3*
X693700D3*
X793700D3*
X893700D3*
X993700D3*
X1093700D3*
X1193700D3*
X1293700D3*
X1393700D3*
X1493700D3*
X1593700D3*
X1693700D3*
X1793700D3*
X2293700Y993700D3*
X593700Y1393700D3*
D54*
X515700Y1238700D3*
Y1148700D3*
D53*
X2093700Y1493700D3*
X1793700D3*
X1693700D3*
X1593700D3*
X1493700D3*
X1393700D3*
X1293700D3*
X1193700D3*
X1093700D3*
X993700D3*
X893700D3*
X793700D3*
X693700D3*
X593700D3*
X493700D3*
X743700Y1018700D3*
X843700D3*
X943700D3*
X2393700Y893700D3*
X2493700D3*
X2293700D3*
X2193700D3*
X2093700D3*
X1993700D3*
X2593700D3*
X2693700D3*
X2793700D3*
Y1493700D3*
X1893700Y893700D3*
X2693700Y1493700D3*
X1893700D3*
X2593700D3*
X2393700D3*
X2293700D3*
X2193700D3*
X2493700D3*
X1993700D3*
X1043700Y1018700D3*
X1143700D3*
D51*
X1973700Y2193700D3*
D52*
Y2093700D3*
Y1993700D3*
Y1793700D3*
Y1893700D3*
D56*
X1508700Y1918700D3*
D136*
X1567755Y1989566D3*
D56*
X1626810Y1918700D3*
D30*
X2543700Y2443700D3*
D31*
Y2543700D3*
X2643700Y2443700D3*
Y2543700D3*
D57*
X3103700Y998700D3*
Y1024291D3*
Y1049881D3*
Y1075472D3*
X2930472D3*
Y1049881D3*
Y1024291D3*
Y998700D3*
D30*
X2693700Y1618700D3*
D31*
X2793700D3*
X2893700D3*
M02*
