G04 DipTrace 3.3.1.3*
G04 T4-T36-Breakout.gbs*
%MOIN*%
G04 #@! TF.FileFunction,Soldermask,Bot*
G04 #@! TF.Part,Single*
%ADD13C,0.04*%
%ADD33C,0.17*%
%ADD38C,0.065199*%
%ADD48R,0.025X0.05*%
%ADD49R,0.05X0.025*%
%ADD51R,0.074X0.074*%
%ADD52C,0.074*%
%ADD53C,0.06194*%
%ADD54C,0.074*%
%ADD69C,0.167*%
%ADD71C,0.042*%
%ADD87C,0.062*%
%ADD105O,0.04137X0.053181*%
%ADD107R,0.04137X0.053181*%
%ADD111C,0.139795*%
%ADD113C,0.064992*%
%ADD115R,0.064992X0.064992*%
%ADD121C,0.061055*%
%ADD123R,0.061055X0.061055*%
%FSLAX26Y26*%
G04*
G70*
G90*
G75*
G01*
G04 BotMask*
%LPD*%
D71*
X1517212Y2248700D3*
X553700Y2368700D3*
X1618700Y2198700D3*
X2343734Y2143503D3*
X1358700Y2143700D3*
X1858700Y1923700D3*
X1868700Y2208700D3*
X1608700Y1368700D3*
X1738700Y1413700D3*
X1478700Y1333700D3*
X1893700Y1228700D3*
X2478700Y2238700D3*
X2328700Y1868700D3*
X2853700Y1343700D3*
X2438469Y1938239D3*
X2743700Y1968700D3*
X2588700Y1388700D3*
D69*
X3700787Y551180D3*
X551180D3*
Y2519684D3*
X3700787D3*
D13*
X1653700Y2543700D3*
X1452700Y1848700D3*
X3043700Y1143700D3*
X1518700Y2363700D3*
X678700Y2038700D3*
X2498700Y1788700D3*
X2543700Y2228700D3*
X1883700Y2358700D3*
X1558700Y2488700D3*
X2978700Y1863700D3*
X2868700Y1238700D3*
X2893700Y948700D3*
X2588700Y1123700D3*
X1363700Y1138700D3*
X2973700Y1143700D3*
X3528700Y2208700D3*
X1201606Y2593700D3*
X2101228Y1586172D3*
D123*
X2768700Y2443700D3*
D121*
Y2543700D3*
X2868700Y2443700D3*
Y2543700D3*
X2968700Y2443700D3*
Y2543700D3*
X3068700Y2443700D3*
Y2543700D3*
X3168700Y2443700D3*
Y2543700D3*
X3268700Y2443700D3*
Y2543700D3*
X3368700Y2443700D3*
Y2543700D3*
D123*
X2118700Y2443700D3*
D121*
Y2543700D3*
X2218700Y2443700D3*
Y2543700D3*
X2318700Y2443700D3*
Y2543700D3*
X2418700Y2443700D3*
Y2543700D3*
D123*
X743700Y2443700D3*
D121*
Y2543700D3*
X843700Y2443700D3*
Y2543700D3*
X943700Y2443700D3*
Y2543700D3*
X1043700Y2443700D3*
Y2543700D3*
X1143700Y2443700D3*
Y2543700D3*
X1243700Y2443700D3*
Y2543700D3*
X1343700Y2443700D3*
Y2543700D3*
D123*
X743700Y518700D3*
D121*
Y618700D3*
X843700Y518700D3*
Y618700D3*
X943700Y518700D3*
Y618700D3*
X1043700Y518700D3*
Y618700D3*
X1143700Y518700D3*
Y618700D3*
X1243700Y518700D3*
Y618700D3*
X1343700Y518700D3*
Y618700D3*
X1443700Y518700D3*
Y618700D3*
D123*
X1643700Y518700D3*
D121*
Y618700D3*
X1743700Y518700D3*
Y618700D3*
X1843700Y518700D3*
Y618700D3*
X1943700Y518700D3*
Y618700D3*
X2043700Y518700D3*
Y618700D3*
D123*
X2743700Y518700D3*
D121*
Y618700D3*
X2843700Y518700D3*
Y618700D3*
X2943700Y518700D3*
Y618700D3*
X3043700Y518700D3*
Y618700D3*
X3143700Y518700D3*
Y618700D3*
X3243700Y518700D3*
Y618700D3*
D123*
X2343700Y518700D3*
D121*
Y618700D3*
X2443700Y518700D3*
Y618700D3*
X2543700Y518700D3*
Y618700D3*
D33*
X3388700Y1893700D3*
X3624920D3*
X3506810Y2078739D3*
D115*
X913700Y2068700D3*
D113*
Y1970275D3*
Y1891535D3*
Y1793109D3*
D111*
X807007Y2189566D3*
Y1672243D3*
D123*
X1343700Y1643700D3*
D121*
X1443700D3*
X1543700D3*
X1643700D3*
X1743700D3*
X1843700D3*
X1943700D3*
X2043700D3*
X2143700D3*
X2243700D3*
X2343700D3*
D38*
X3693700Y1143700D3*
X3593700D3*
X3493700D3*
X3693700Y953700D3*
X3593700D3*
X3493700D3*
X3693700Y743700D3*
X3593700D3*
X3493700D3*
D107*
X2993700Y1463700D3*
D105*
X3043700D3*
D123*
X743700Y718700D3*
D121*
X843700D3*
X943700D3*
X1043700D3*
X1143700D3*
X1243700D3*
X1343700D3*
X1443700D3*
D123*
X2043700D3*
D121*
X1943700D3*
X1843700D3*
X1743700D3*
X1643700D3*
D123*
X2743700D3*
D121*
X2843700D3*
X2943700D3*
X3043700D3*
X3143700D3*
X3243700D3*
D123*
X3368700Y2343700D3*
D121*
X3268700D3*
X3168700D3*
X3068700D3*
X2968700D3*
X2868700D3*
X2768700D3*
D123*
X2118700D3*
D121*
X2218700D3*
X2318700D3*
X2418700D3*
D123*
X743700D3*
D121*
X843700D3*
X943700D3*
X1043700D3*
X1143700D3*
X1243700D3*
X1343700D3*
D123*
X2343700Y718700D3*
D121*
X2443700D3*
X2543700D3*
D123*
X2643700Y2343700D3*
D121*
X2543700D3*
D123*
X3368700Y2243700D3*
X1048700Y1718700D3*
D121*
Y1818700D3*
D123*
X3083700Y1923700D3*
D121*
X3183700D3*
X3083700Y1823700D3*
X3183700D3*
D48*
X1818700Y1993700D3*
X1854133D3*
D49*
X558700Y2273267D3*
Y2308700D3*
D48*
X2098700Y1993700D3*
X2134133D3*
X648700Y1143700D3*
X613267D3*
X638700Y1238700D3*
X603267D3*
D87*
X2758700Y1863700D3*
D121*
Y2119653D3*
D51*
X3593700Y1633700D3*
D52*
X3493700D3*
X3393700D3*
X3193700D3*
X3293700D3*
D53*
X493700Y893700D3*
X593700D3*
X693700D3*
X793700D3*
X893700D3*
X993700D3*
X1093700D3*
X1193700D3*
X1293700D3*
X1393700D3*
X1493700D3*
X1593700D3*
X1693700D3*
X1793700D3*
X2293700Y993700D3*
X593700Y1393700D3*
D54*
X515700Y1238700D3*
Y1148700D3*
D53*
X2093700Y1493700D3*
X1793700D3*
X1693700D3*
X1593700D3*
X1493700D3*
X1393700D3*
X1293700D3*
X1193700D3*
X1093700D3*
X993700D3*
X893700D3*
X793700D3*
X693700D3*
X593700D3*
X493700D3*
X743700Y1018700D3*
X843700D3*
X943700D3*
X2393700Y893700D3*
X2493700D3*
X2293700D3*
X2193700D3*
X2093700D3*
X1993700D3*
X2593700D3*
X2693700D3*
X2793700D3*
Y1493700D3*
X1893700Y893700D3*
X2693700Y1493700D3*
X1893700D3*
X2593700D3*
X2393700D3*
X2293700D3*
X2193700D3*
X2493700D3*
X1993700D3*
X1043700Y1018700D3*
X1143700D3*
D51*
X1973700Y2193700D3*
D52*
Y2093700D3*
Y1993700D3*
Y1793700D3*
Y1893700D3*
D123*
X2543700Y2443700D3*
D121*
Y2543700D3*
X2643700Y2443700D3*
Y2543700D3*
D123*
X2693700Y1618700D3*
D121*
X2793700D3*
X2893700D3*
M02*
