G04 DipTrace 3.3.1.3*
G04 T4-T36-Breakout.gtp*
%MOIN*%
G04 #@! TF.FileFunction,Paste,Top*
G04 #@! TF.Part,Single*
%AMOUTLINE2*
4,1,10,
0.015745,-0.096454,
0.015745,-0.031833,
0.039367,-0.008211,
0.039367,0.07514,
0.018053,0.096454,
-0.018053,0.096454,
-0.039367,0.07514,
-0.039367,-0.008211,
-0.015745,-0.031833,
-0.015745,-0.096454,
0.015745,-0.096454,
0*%
%ADD46R,0.047244X0.047244*%
%ADD74R,0.047238X0.007868*%
%ADD76R,0.03149X0.051175*%
%ADD86R,0.07086X0.015742*%
%ADD94R,0.025585X0.043301*%
%ADD98R,0.04527X0.015742*%
%ADD100R,0.07086X0.039364*%
%ADD102R,0.015742X0.04527*%
%ADD104R,0.039364X0.07086*%
%ADD120R,0.023616X0.055112*%
%ADD126R,0.043301X0.051175*%
%ADD128R,0.051175X0.043301*%
%ADD138OUTLINE2*%
%FSLAX26Y26*%
G04*
G70*
G90*
G75*
G01*
G04 TopPaste*
%LPD*%
D128*
X3518700Y2443700D3*
Y2518503D3*
X2923700Y883700D3*
Y808897D3*
X2188700Y598700D3*
Y523897D3*
D126*
X1208700Y1863700D3*
X1133897D3*
X2428700Y2133700D3*
X2503503D3*
D128*
X1448700Y2368700D3*
Y2443503D3*
X1543700Y613700D3*
Y538897D3*
X2643700Y611102D3*
Y536298D3*
D126*
X3103700Y1728700D3*
X3178503D3*
D128*
X1423700Y2018700D3*
Y1943897D3*
D126*
X1588700Y1783700D3*
X1513897D3*
D120*
X2483700Y1998700D3*
Y1864842D3*
D104*
X1733700Y2568385D3*
X1513228D3*
D102*
X1682519Y2423700D3*
X1643149D3*
X1603779D3*
X1564409D3*
D104*
X2018700Y2568385D3*
X1798228D3*
D102*
X1967519Y2423700D3*
X1928149D3*
X1888779D3*
X1849409D3*
D100*
X3758700Y2108464D3*
Y2328936D3*
D98*
X3614015Y2159645D3*
Y2199015D3*
Y2238385D3*
Y2277755D3*
D46*
X3143700Y885039D3*
Y802361D3*
X3243700Y885039D3*
Y802361D3*
X3391220Y468700D3*
X3473897D3*
D94*
X2193700Y1843700D3*
X2268503D3*
X2231102Y1930314D3*
D126*
X3093700Y2093700D3*
X3168503D3*
X3168700Y2018700D3*
X3093897D3*
X2343700Y1773700D3*
X2418503D3*
D128*
X2358700Y1983700D3*
Y2058503D3*
D126*
X3463700Y568700D3*
X3388897D3*
X3056102Y1363700D3*
X2981298D3*
D128*
X3053700Y883700D3*
Y808897D3*
X3333700Y943700D3*
Y1018503D3*
D126*
X3056102Y1288700D3*
X2981298D3*
X3256298Y1178700D3*
X3331102D3*
X3256298Y1098700D3*
X3331102D3*
X3056102Y1213700D3*
X2981298D3*
D128*
X3333700Y878700D3*
Y803897D3*
D86*
X1283700Y1953700D3*
Y2003700D3*
Y2053700D3*
Y2103700D3*
X1071102D3*
Y2053700D3*
Y2003700D3*
Y1953700D3*
D76*
X1508700Y1918700D3*
D138*
X1567755Y1989566D3*
D76*
X1626810Y1918700D3*
D74*
X3103700Y998700D3*
Y1024291D3*
Y1049881D3*
Y1075472D3*
X2930472D3*
Y1049881D3*
Y1024291D3*
Y998700D3*
M02*
