M48
INCH
T01C0.0191
T02C0.0276
T03C0.0354
T04C0.0362
T05C0.038
T06C0.04
T07C0.0906
T08C0.118
T09C0.125
%
T01
X+016537Y+025437
X+015587Y+024887
X+015187Y+023637
X+015172Y+022487
X+016187Y+021987
X+018687Y+022087
X+018837Y+023587
X+018587Y+019237
X+014527Y+018487
X+013587Y+021437
X+012016Y+025937
X+005537Y+023687
X+006787Y+020387
X+014787Y+013337
X+016087Y+013687
X+017387Y+014137
X+018937Y+012287
X+021012Y+015862
X+023287Y+018687
X+024385Y+019382
X+024987Y+017887
X+027437Y+019687
X+029787Y+018637
X+028537Y+013437
X+028687Y+012387
X+029737Y+011437
X+030437Y+011437
X+028937Y+009487
X+025887Y+011237
X+025887Y+013887
X+023437Y+021435
X+024787Y+022387
X+025437Y+022287
X+035287Y+022087
X+013637Y+011387
T02
X+029937Y+014637
X+030437Y+014637
T03
X+027687Y+024437
X+027687Y+025437
X+028687Y+025437
X+028687Y+024437
X+029687Y+024437
X+029687Y+025437
X+030687Y+025437
X+030687Y+024437
X+031687Y+024437
X+031687Y+025437
X+032687Y+025437
X+032687Y+024437
X+033687Y+024437
X+033687Y+025437
X+033687Y+023437
X+032687Y+023437
X+031687Y+023437
X+030687Y+023437
X+029687Y+023437
X+028687Y+023437
X+027687Y+023437
X+026437Y+023437
X+025437Y+023437
X+025437Y+024437
X+025437Y+025437
X+026437Y+025437
X+026437Y+024437
X+024187Y+024437
X+023187Y+024437
X+022187Y+024437
X+021187Y+024437
X+021187Y+025437
X+022187Y+025437
X+023187Y+025437
X+024187Y+025437
X+024187Y+023437
X+023187Y+023437
X+022187Y+023437
X+021187Y+023437
X+027587Y+021197
X+030837Y+019237
X+031837Y+019237
X+031837Y+018237
X+030837Y+018237
X+028937Y+016187
X+027937Y+016187
X+026937Y+016187
X+023437Y+016437
X+022437Y+016437
X+021437Y+016437
X+020437Y+016437
X+019437Y+016437
X+018437Y+016437
X+017437Y+016437
X+016437Y+016437
X+015437Y+016437
X+014437Y+016437
X+013437Y+016437
X+010487Y+017187
X+010487Y+018187
X+010437Y+023437
X+009437Y+023437
X+008437Y+023437
X+007437Y+023437
X+007437Y+024437
X+007437Y+025437
X+008437Y+025437
X+008437Y+024437
X+009437Y+024437
X+010437Y+024437
X+011437Y+024437
X+011437Y+025437
X+010437Y+025437
X+009437Y+025437
X+011437Y+023437
X+012437Y+023437
X+013437Y+023437
X+013437Y+024437
X+012437Y+024437
X+012437Y+025437
X+013437Y+025437
X+013437Y+007187
X+013437Y+006187
X+014437Y+006187
X+014437Y+005187
X+013437Y+005187
X+012437Y+005187
X+012437Y+006187
X+012437Y+007187
X+011437Y+007187
X+010437Y+007187
X+009437Y+007187
X+009437Y+006187
X+009437Y+005187
X+010437Y+005187
X+010437Y+006187
X+011437Y+006187
X+011437Y+005187
X+008437Y+005187
X+007437Y+005187
X+007437Y+006187
X+007437Y+007187
X+008437Y+007187
X+008437Y+006187
X+014437Y+007187
X+016437Y+007187
X+016437Y+006187
X+016437Y+005187
X+017437Y+005187
X+017437Y+006187
X+018437Y+006187
X+019437Y+006187
X+019437Y+007187
X+018437Y+007187
X+017437Y+007187
X+018437Y+005187
X+019437Y+005187
X+020437Y+005187
X+020437Y+006187
X+020437Y+007187
X+023437Y+007187
X+023437Y+006187
X+023437Y+005187
X+024437Y+005187
X+024437Y+006187
X+024437Y+007187
X+025437Y+007187
X+025437Y+006187
X+025437Y+005187
X+027437Y+005187
X+027437Y+006187
X+027437Y+007187
X+028437Y+007187
X+029437Y+007187
X+030437Y+007187
X+030437Y+006187
X+031437Y+006187
X+031437Y+005187
X+030437Y+005187
X+029437Y+005187
X+028437Y+005187
X+028437Y+006187
X+029437Y+006187
X+031437Y+007187
X+032437Y+007187
X+032437Y+006187
X+032437Y+005187
X+033687Y+022437
T04
X+009137Y+020687
X+009137Y+019703
X+009137Y+018915
X+009137Y+017931
T05
X+027587Y+018637
X+027937Y+014937
X+026937Y+014937
X+025937Y+014937
X+024937Y+014937
X+023937Y+014937
X+022937Y+014937
X+021937Y+014937
X+020937Y+014937
X+019937Y+014937
X+018937Y+014937
X+017937Y+014937
X+016937Y+014937
X+015937Y+014937
X+014937Y+014937
X+013937Y+014937
X+012937Y+014937
X+011937Y+014937
X+010937Y+014937
X+009937Y+014937
X+008937Y+014937
X+007937Y+014937
X+006937Y+014937
X+005937Y+014937
X+004937Y+014937
X+005937Y+013937
X+007437Y+010187
X+008437Y+010187
X+009437Y+010187
X+010437Y+010187
X+011437Y+010187
X+011937Y+008937
X+010937Y+008937
X+009937Y+008937
X+008937Y+008937
X+007937Y+008937
X+006937Y+008937
X+005937Y+008937
X+004937Y+008937
X+012937Y+008937
X+013937Y+008937
X+014937Y+008937
X+015937Y+008937
X+016937Y+008937
X+017937Y+008937
X+018937Y+008937
X+019937Y+008937
X+020937Y+008937
X+021937Y+008937
X+022937Y+008937
X+022937Y+009937
X+023937Y+008937
X+024937Y+008937
X+025937Y+008937
X+026937Y+008937
X+027937Y+008937
T06
X+036937Y+011437
X+035937Y+011437
X+034937Y+011437
X+034937Y+009537
X+035937Y+009537
X+036937Y+009537
X+036937Y+007437
X+035937Y+007437
X+034937Y+007437
X+034937Y+016337
X+035937Y+016337
X+033937Y+016337
X+032937Y+016337
X+031937Y+016337
X+019737Y+017937
X+019737Y+018937
X+019737Y+019937
X+019737Y+020937
X+019737Y+021937
X+005157Y+012387
X+005157Y+011487
T07
X+008070Y+021896
X+008070Y+016722
T08
X+033887Y+018937
X+035068Y+020787
X+036249Y+018937
T09
X+037008Y+005512
X+037008Y+025197
X+005512Y+025197
X+005512Y+005512
T00
M30
