G04 DipTrace 3.3.1.3*
G04 T4-T36-Breakout.gbl*
%MOIN*%
G04 #@! TF.FileFunction,Copper,L2,Bot*
G04 #@! TF.Part,Single*
G04 #@! TA.AperFunction,ViaPad*
%ADD13C,0.04*%
G04 #@! TA.AperFunction,Conductor*
%ADD14C,0.015*%
%ADD15C,0.023622*%
%ADD16C,0.03937*%
G04 #@! TA.AperFunction,CopperBalancing*
%ADD17C,0.025*%
G04 #@! TA.AperFunction,Conductor*
%ADD19C,0.02*%
%ADD20C,0.03*%
%ADD22C,0.008*%
%ADD23C,0.08*%
%ADD25C,0.059055*%
G04 #@! TA.AperFunction,ComponentPad*
%ADD26C,0.06*%
%ADD30R,0.059055X0.059055*%
%ADD31C,0.059055*%
%ADD33C,0.17*%
%ADD34R,0.062992X0.062992*%
%ADD35C,0.062992*%
%ADD36C,0.137795*%
%ADD38C,0.065199*%
%ADD39R,0.03937X0.051181*%
%ADD40O,0.03937X0.051181*%
%ADD48R,0.025X0.05*%
%ADD49R,0.05X0.025*%
G04 #@! TA.AperFunction,ComponentPad*
%ADD51R,0.074X0.074*%
%ADD52C,0.074*%
%ADD53C,0.06194*%
%ADD54C,0.074*%
G04 #@! TA.AperFunction,ViaPad*
%ADD59C,0.165*%
%FSLAX26Y26*%
G04*
G70*
G90*
G75*
G01*
G04 Bottom*
%LPD*%
X2418700Y2443700D2*
D13*
X2318700D1*
X743700D2*
X843700D1*
X943700D2*
X1043700D1*
X2868700D2*
X2968700D1*
X3168700D2*
X3268700D1*
X1343700D2*
X1243700D1*
X2118700D2*
X2008700D1*
Y2433700D1*
X1493700D1*
X1343700D1*
Y2443700D1*
X2218700D2*
X2118700D1*
X2318700D2*
X2218700D1*
X1043700D2*
X1143700D1*
X2968700D2*
X3068700D1*
X2768700D2*
X2868700D1*
X2418700D2*
D3*
X1493700Y2433700D2*
D15*
Y2363700D1*
X1518700D1*
X1973700Y2193700D2*
D13*
X1933700D1*
X1893700Y2153700D1*
X1668700D1*
X1593700Y2078700D1*
X1553700D1*
X1498700Y2133700D1*
Y2230188D1*
X1517212Y2248700D1*
X2543700Y2443700D2*
X2643700D1*
X2768700D1*
X553700Y2368700D2*
Y2346200D1*
X558700Y2341200D1*
D17*
Y2308700D1*
X2743700Y618700D2*
D13*
X2843700D1*
X2943700D1*
X3043700D1*
X3143700D1*
X3243700D1*
X743700D2*
X843700D1*
X943700D1*
X1043700D1*
X1143700D1*
X1243700D1*
X1343700D1*
X1443700D1*
X1643700D2*
X1743700D1*
X1843700D1*
X1943700D1*
X2043700D1*
X2343700D1*
X2443700D1*
X2543700D1*
X2743700D1*
X1443700D2*
X1643700D1*
X493700Y1493700D2*
Y1965511D1*
X566889Y2038700D1*
X678700D1*
X1618700Y2198700D2*
D20*
X1638700Y2203700D1*
X1706003Y2218700D1*
X1868700D1*
X1913700Y2263700D1*
X2163700D1*
X2308700Y2215367D1*
X2326318Y2182641D1*
X2316318Y2147641D1*
X2343734Y2143503D1*
X2793700Y1618700D2*
D13*
Y1613700D1*
X2918700Y1488700D1*
Y1023700D1*
X2938700Y1003700D1*
X3163700D1*
X3348700Y818700D1*
Y668700D1*
X3328700Y648700D1*
X3273700D1*
X3243700Y618700D1*
X1343700Y1643700D2*
Y2128700D1*
X1358700Y2143700D1*
X1818700Y1993700D2*
D19*
X1773700D1*
Y1923700D1*
D20*
X1858700D1*
X1868700Y2208700D2*
Y2218700D1*
X1093700Y1493700D2*
D22*
X1118700Y1513073D1*
X1193700Y1588073D1*
Y2108209D1*
X1043700Y2343700D1*
X993700Y1493700D2*
X1148700Y1603700D1*
Y2103700D1*
X943700Y2343700D1*
X893700Y1493700D2*
X918700D1*
X983700Y1573700D1*
X1113700Y1623700D1*
Y2093700D1*
X843700Y2343700D1*
X1201606Y2593700D2*
X1206525Y2605578D1*
X3528700D1*
Y2208700D1*
X743700Y718700D2*
X593700Y868700D1*
Y893700D1*
X2593700D2*
X2656533Y855187D1*
X2699701Y848001D1*
X2933524Y771692D1*
X3018700Y753700D1*
X3043700Y718700D1*
X2693700Y893700D2*
X2720071D1*
X2771312Y842460D1*
X3004415Y799264D1*
X3031804Y790504D1*
X3143700Y718700D1*
X2793700Y893700D2*
X3068700D1*
X3243700Y718700D1*
X3368700Y2343700D2*
X3203700Y2178700D1*
X2738700D1*
X2703700Y2143700D1*
Y1697712D1*
X2748700Y1693700D1*
Y1548700D1*
X2803700Y1493700D1*
X2793700D1*
X3268700Y2343700D2*
X3128700Y2203700D1*
X2713700D1*
X2673700Y2163700D1*
Y1688700D1*
X2638700Y1653700D1*
Y1538700D1*
X2678700Y1498700D1*
X2688700D1*
X2683700Y1493700D1*
X2693700D1*
X2593700D2*
X2578700D1*
Y1658700D1*
X2648700Y1728700D1*
Y2178700D1*
X2698010Y2228010D1*
X2781764D1*
X2921764Y2223010D1*
X3098133D1*
X3165334Y2304844D1*
X3168700Y2343700D1*
X2493700Y1493700D2*
Y1675688D1*
X2588700Y1770688D1*
Y2178700D1*
X2703700Y2303700D1*
Y2388700D1*
X3023700D1*
X3068700Y2343700D1*
X2393700Y1493700D2*
Y1483700D1*
X2453700Y1423700D1*
X2523700D1*
X2538700Y1438700D1*
Y1663700D1*
X2613700Y1738700D1*
Y2178700D1*
X2693700Y2258700D1*
X2883700D1*
X2968700Y2343700D1*
X2498700Y1788700D2*
X2423700D1*
X2288700Y1653700D1*
Y1493700D1*
X2293700D1*
X2543700Y2228700D2*
Y1869196D1*
X2439027Y1828025D1*
X2288700Y1718700D1*
X2193700Y1673700D1*
Y1493700D1*
X515700Y1148700D2*
D14*
X608267D1*
X613267Y1143700D1*
X515700Y1238700D2*
X603267D1*
X1943700Y1643700D2*
D22*
Y1583700D1*
X1848700D1*
X1843700Y1493700D1*
Y1368700D1*
X1608700D1*
X1743700Y1643700D2*
Y1418700D1*
X1738700Y1413700D1*
X1643700Y1643700D2*
Y1698700D1*
X1793700D1*
Y1493700D1*
X1593700D2*
Y1698700D1*
X1609700Y1714700D1*
X2085228D1*
X2101228Y1698700D1*
Y1586172D1*
X1393700Y1493700D2*
X1418700Y2108755D1*
X1343700Y2343700D1*
X1338700Y2338700D1*
X1453700D1*
X1468700Y2323700D1*
X1848700D1*
X1883700Y2358700D1*
X1293700Y1493700D2*
Y1509510D1*
X1287638Y1576839D1*
Y2164762D1*
X1243700Y2343700D1*
X1193700Y1493700D2*
X1170640Y1503476D1*
X1245640Y1553476D1*
X1253700Y2053700D1*
X1143700Y2343700D1*
X1187228Y2387228D1*
Y2488700D1*
X1558700D1*
X1993700Y893700D2*
X2043700D1*
X2073700Y813700D1*
X2123306Y795502D1*
X2343700Y695150D1*
Y718700D1*
X2193700Y893700D2*
X2227024Y877024D1*
X2286914Y839985D1*
X2308700Y823700D1*
X2323800D1*
X2512309Y773190D1*
X2543700Y718700D1*
X2743700D2*
X2575767Y748025D1*
X2543700Y788700D1*
X2413700Y823700D1*
X2293700Y893700D1*
X2843700Y718700D2*
X2783700Y773700D1*
X2613700Y783700D1*
X2468246Y846066D1*
X2448700Y873700D1*
X2393700Y893700D1*
X2943700Y718700D2*
X2793700Y798700D1*
X2688700Y808700D1*
X2633700Y818700D1*
X2493700Y893700D1*
X2093700D2*
X2118700D1*
X2115789Y905340D1*
X2163700Y833700D1*
X2217936Y800953D1*
X2308700Y783700D1*
X2388768Y786111D1*
X2443700Y718700D1*
X2978700Y1863700D2*
Y1819023D1*
X2952700Y1793023D1*
Y1164700D1*
X2973700Y1143700D1*
X1193700Y893700D2*
X1238672Y938672D1*
X2568672D1*
X2868700Y1238700D1*
Y948700D1*
X2893700D1*
X1363700Y1138700D2*
X2588700D1*
Y1123700D1*
X2143700Y1643700D2*
Y1543700D1*
X1943700D1*
Y1333700D1*
X1478700D1*
X3493700Y953700D2*
Y1143700D1*
Y953700D2*
Y743700D1*
X743700Y518700D2*
D13*
X843700D1*
X943700D1*
X1043700D1*
X1143700D1*
X1243700D1*
X1343700D1*
X1443700D1*
X1643700D1*
X743700Y2543700D2*
X843700D1*
X943700D1*
X1043700D1*
X1143700D1*
X1243700D1*
X1343700D1*
X1675216D1*
X2118700D1*
X2218700D1*
X2318700D1*
X2418700D1*
X2478700D1*
X2768700D1*
X2868700D1*
X2968700D1*
X3068700D1*
X3168700D1*
X3268700D1*
X3368700D1*
X3446493D1*
X3432448Y2116243D1*
X3483700Y2018700D1*
X3493700Y2023700D1*
X3506810Y2078739D1*
X3526810Y1793700D1*
X3535210Y1808157D1*
X3624920Y1893700D1*
X493700Y893700D2*
X518700Y738045D1*
X650596Y661894D1*
X678989Y555934D1*
X743700Y518700D1*
X493700Y893700D2*
X443700D1*
Y1379700D1*
X463700Y1383700D1*
X476200Y1376200D1*
X646821Y1303700D1*
X1052228D1*
Y1328700D1*
X1228700D1*
X1328700Y1228700D1*
X1893700D1*
X2543700Y518700D2*
X2743700D1*
X2843700D1*
X2943700D1*
X3043700D1*
X3143700D1*
X3243700D1*
X3693700Y1143700D2*
D23*
Y953700D1*
Y743700D1*
X1643700Y518700D2*
D13*
X1743700D1*
X1843700D1*
X1943700D1*
X2043700D1*
X2343700D1*
X2443700D1*
X2488700Y523700D1*
X2543700Y518700D1*
X3243700D2*
X3369377D1*
X3390922Y602184D1*
X3437846Y649108D1*
X3563700Y658700D1*
X3638700D1*
X3693700Y713700D1*
Y743700D1*
X3183700Y1923700D2*
Y1823700D1*
X913700Y1793109D2*
Y1793700D1*
X788700Y1918700D1*
Y2171259D1*
X807007Y2189566D1*
X1452700Y1848700D2*
X1523700D1*
X1676171Y2001171D1*
X1797504Y2088700D1*
X2163700D1*
X2213700Y2038700D1*
Y1958700D1*
X2353700D1*
X2478700Y2083700D1*
Y2238700D1*
Y2543700D1*
X743700D2*
Y2563700D1*
X673700Y2493700D1*
Y2233700D1*
X748700Y2158700D1*
X776141D1*
X807007Y2189566D1*
X1653700Y2543700D2*
X1675216D1*
X3043700Y1143700D2*
X3038700D1*
X3085250Y1097150D1*
Y1068700D1*
X3308700D1*
X3408700Y968700D1*
Y678254D1*
X3437846Y649108D1*
X593700Y1493700D2*
X476200Y1376200D1*
X1052228Y1303700D2*
Y1027228D1*
X1043700Y1018700D1*
X593700Y1493700D2*
Y1588700D1*
X643700Y1638700D1*
X773464D1*
X807007Y1672243D1*
X1523700Y1848700D2*
Y1663700D1*
X1543700Y1643700D1*
X2328700Y1868700D2*
X2208700Y1958700D1*
X2213700D1*
X3183700Y1823700D2*
Y1763700D1*
X3198700Y1748700D1*
X3475754D1*
X3535210Y1808157D1*
X3693700Y1143700D2*
Y1363700D1*
X3633700Y1423700D1*
X3603700D1*
X3483700Y1543700D1*
Y1623700D1*
X3493700Y1633700D1*
Y1730754D1*
X3475754Y1748700D1*
X3043700Y1463700D2*
D16*
Y1418109D1*
D13*
Y1143700D1*
X1973700Y2093700D2*
X2163700Y2088700D1*
X2543700Y2543700D2*
X2643700D1*
X2768700D1*
X1993700Y1493700D2*
D22*
Y1423700D1*
X2018700Y1398700D1*
X2333700D1*
X2343700Y1408700D1*
Y1568700D1*
X2348700Y1573700D1*
X2408700D1*
X2453700Y1618700D1*
Y1688700D1*
X2563700Y1798700D1*
Y2178700D1*
X2583700Y2213700D1*
X2596301Y2234397D1*
X2603766Y2246280D1*
X2593700Y2293700D1*
X2543700Y2343700D1*
X1973700Y1993700D2*
D20*
D3*
D19*
X2098700D1*
X1854133D2*
X1973700D1*
X693700Y1493700D2*
D20*
Y1518700D1*
X733700Y1558700D1*
X888700D1*
Y1608700D1*
X918700Y1638700D1*
Y1698700D1*
X793700Y1823700D1*
Y1828700D1*
X728700Y1893700D1*
Y2098700D1*
X643700D1*
X563700Y2253700D1*
D19*
X558700Y2273267D1*
X648700Y1143700D2*
D14*
Y948700D1*
X933700D1*
Y1008700D1*
X943700Y1018700D1*
X913700Y1891535D2*
X915865D1*
X988700Y1818700D1*
Y1778700D1*
X1048700Y1718700D1*
X638700Y1238700D2*
X733700D1*
Y1128700D1*
X843700Y1018700D1*
X913700Y1970275D2*
X982125D1*
X1033700Y1918700D1*
Y1833700D1*
X1048700Y1818700D1*
X2293700Y993700D2*
X2548700D1*
X2828700Y1273700D1*
Y1318700D1*
X2853700Y1343700D1*
X3593700Y1143700D2*
D23*
Y953700D1*
Y743700D1*
X3083700Y1923700D2*
D25*
Y1823700D1*
X3593700Y1143700D2*
D23*
Y1218700D1*
X3528700Y1283700D1*
D26*
X3483700D1*
X3353700Y1153700D1*
X3328700D1*
X3308700Y1133700D1*
X3184172D1*
X3133700Y1184172D1*
D25*
Y1533700D1*
X3083700Y1583700D1*
Y1823700D1*
Y1923700D2*
Y1981780D1*
Y2013700D1*
D26*
X3268700D1*
X3388700Y1893700D1*
X2134133Y1993700D2*
D19*
X2158700Y1883700D1*
D20*
X2218700Y1838700D1*
Y1786966D1*
X2328700Y1793700D1*
X2418700Y1858700D1*
X2438469Y1938239D1*
X2743700Y1968700D2*
X3070620D1*
X3083700Y1981780D1*
X593700Y1393700D2*
Y1388700D1*
X1298700D1*
X1398700Y1288700D1*
X2448700D1*
X2588700Y1388700D1*
D13*
X1517212Y2248700D3*
X553700Y2368700D3*
X1618700Y2198700D3*
X2343734Y2143503D3*
X1358700Y2143700D3*
X1858700Y1923700D3*
X1868700Y2208700D3*
X1608700Y1368700D3*
X1738700Y1413700D3*
X1478700Y1333700D3*
X1893700Y1228700D3*
X2478700Y2238700D3*
X2328700Y1868700D3*
X2853700Y1343700D3*
X2438469Y1938239D3*
X2743700Y1968700D3*
X2588700Y1388700D3*
D59*
X3700787Y551180D3*
X551180D3*
Y2519684D3*
X3700787D3*
D13*
X1653700Y2543700D3*
X1452700Y1848700D3*
X3043700Y1143700D3*
X1518700Y2363700D3*
X678700Y2038700D3*
X2498700Y1788700D3*
X2543700Y2228700D3*
X1883700Y2358700D3*
X1558700Y2488700D3*
X2978700Y1863700D3*
X2868700Y1238700D3*
X2893700Y948700D3*
X2588700Y1123700D3*
X1363700Y1138700D3*
X2973700Y1143700D3*
X3528700Y2208700D3*
X1201606Y2593700D3*
X2101228Y1586172D3*
X621775Y2604796D2*
D17*
X1153962D1*
X3561695D2*
X3630186D1*
X644526Y2579927D2*
X1154715D1*
X3561695D2*
X3607471D1*
X656762Y2555058D2*
X1173267D1*
X1229940D2*
X3495692D1*
X3561695D2*
X3595199D1*
X662181Y2530190D2*
X1535231D1*
X1582180D2*
X3495692D1*
X3561695D2*
X3589816D1*
X661714Y2505321D2*
X1159165D1*
X1604607D2*
X3495692D1*
X3561695D2*
X3590247D1*
X655363Y2480452D2*
X685171D1*
X888467D2*
X898933D1*
X1606940D2*
X1977719D1*
X2463495D2*
X2485193D1*
X3113466D2*
X3123932D1*
X3313484D2*
X3323914D1*
X3413493D2*
X3495692D1*
X3561695D2*
X3596598D1*
X443718Y2455583D2*
X460536D1*
X641835D2*
X685171D1*
X2475947D2*
X2485186D1*
X3425945D2*
X3495692D1*
X3561695D2*
X3610126D1*
X3791425D2*
X3808279D1*
X443718Y2430714D2*
X485726D1*
X616644D2*
X685171D1*
X2475696D2*
X2485154D1*
X3425694D2*
X3495692D1*
X3561695D2*
X3635317D1*
X3766235D2*
X3808279D1*
X443718Y2405846D2*
X523225D1*
X584169D2*
X685171D1*
X887498D2*
X899901D1*
X2462490D2*
X2485193D1*
X3112497D2*
X3124900D1*
X3312479D2*
X3324919D1*
X3412488D2*
X3495692D1*
X3561695D2*
X3808279D1*
X443718Y2380977D2*
X506360D1*
X601034D2*
X685171D1*
X888000D2*
X899399D1*
X988009D2*
X999372D1*
X1088018D2*
X1099416D1*
X1288001D2*
X1299400D1*
X1388010D2*
X1452913D1*
X1564345D2*
X1840390D1*
X1926991D2*
X2060181D1*
X2263010D2*
X2274392D1*
X2363020D2*
X2374383D1*
X2463029D2*
X2499367D1*
X3112999D2*
X3124398D1*
X3213008D2*
X3224371D1*
X3427237D2*
X3495692D1*
X3561695D2*
X3808279D1*
X443718Y2356108D2*
X504709D1*
X605233D2*
X685171D1*
X1567072D2*
X1834792D1*
X1932625D2*
X2060181D1*
X2475839D2*
X2486583D1*
X3427237D2*
X3495692D1*
X3561695D2*
X3808279D1*
X443718Y2331239D2*
X504709D1*
X612697D2*
X685171D1*
X1923725D2*
X2060181D1*
X2475804D2*
X2486582D1*
X3427237D2*
X3495692D1*
X3561695D2*
X3808279D1*
X443718Y2306371D2*
X504709D1*
X612697D2*
X685171D1*
X1287965D2*
X1299436D1*
X1390127D2*
X1440389D1*
X1877004D2*
X2060181D1*
X2262974D2*
X2274459D1*
X2362984D2*
X2374419D1*
X2462957D2*
X2499439D1*
X2812971D2*
X2824442D1*
X3012954D2*
X3024425D1*
X3112963D2*
X3124434D1*
X3427237D2*
X3495692D1*
X3561695D2*
X3808279D1*
X443718Y2281502D2*
X504709D1*
X612697D2*
X863479D1*
X1121965D2*
X1132180D1*
X1202417D2*
X1225084D1*
X1292881D2*
X1329040D1*
X1398058D2*
X1481764D1*
X1552647D2*
X1870318D1*
X2243992D2*
X2560263D1*
X2952130D2*
X3104195D1*
X3252122D2*
X3260866D1*
X3427237D2*
X3495692D1*
X3561695D2*
X3808279D1*
X443718Y2256633D2*
X504709D1*
X612697D2*
X890356D1*
X1211855D2*
X1231184D1*
X1298982D2*
X1336971D1*
X1405988D2*
X1457972D1*
X1565529D2*
X1682966D1*
X2318595D2*
X2504032D1*
X2927262D2*
X3083777D1*
X3227254D2*
X3236002D1*
X3427237D2*
X3495692D1*
X3561695D2*
X3808279D1*
X443718Y2231764D2*
X525845D1*
X624215D2*
X917198D1*
X1221256D2*
X1237285D1*
X1305082D2*
X1344937D1*
X1413955D2*
X1449719D1*
X1563017D2*
X1583531D1*
X2349491D2*
X2494810D1*
X3202387D2*
X3211121D1*
X3302396D2*
X3310162D1*
X3427237D2*
X3485824D1*
X3571563D2*
X3808279D1*
X443718Y2206896D2*
X538655D1*
X637062D2*
X944075D1*
X1230694D2*
X1243385D1*
X1311182D2*
X1352868D1*
X1421885D2*
X1449719D1*
X1547695D2*
X1570433D1*
X2039703D2*
X2200416D1*
X2362876D2*
X2500121D1*
X3277528D2*
X3310171D1*
X3427237D2*
X3479759D1*
X3577663D2*
X3808279D1*
X443718Y2182027D2*
X551502D1*
X649873D2*
X970916D1*
X1240132D2*
X1249485D1*
X1317283D2*
X1329866D1*
X1429815D2*
X1449719D1*
X1547695D2*
X1572802D1*
X2039703D2*
X2275019D1*
X2372278D2*
X2510707D1*
X3252660D2*
X3488120D1*
X3569266D2*
X3808279D1*
X443718Y2157158D2*
X564348D1*
X662719D2*
X997794D1*
X1437746D2*
X1449719D1*
X1547695D2*
X1595337D1*
X2039703D2*
X2273440D1*
X2390686D2*
X2510707D1*
X3227793D2*
X3808279D1*
X443718Y2132289D2*
X577159D1*
X755552D2*
X1024635D1*
X1568364D2*
X1579046D1*
X2039703D2*
X2275271D1*
X2391368D2*
X2510707D1*
X2815770D2*
X3808279D1*
X443718Y2107420D2*
X590006D1*
X771771D2*
X853216D1*
X974194D2*
X1051512D1*
X1900652D2*
X2303619D1*
X2375543D2*
X2510707D1*
X2815878D2*
X3808279D1*
X443718Y2082552D2*
X548954D1*
X772704D2*
X853216D1*
X974194D2*
X1078354D1*
X1450664D2*
X1481584D1*
X1665790D2*
X2510707D1*
X2803175D2*
X3808279D1*
X443718Y2057683D2*
X517627D1*
X772704D2*
X853216D1*
X974194D2*
X1080722D1*
X1449659D2*
X1506452D1*
X1640922D2*
X2510707D1*
X2736682D2*
X3045740D1*
X3306666D2*
X3808279D1*
X443718Y2032814D2*
X492760D1*
X772704D2*
X853216D1*
X974194D2*
X1080722D1*
X1448619D2*
X1543700D1*
X1603674D2*
X1777198D1*
X1895628D2*
X1921201D1*
X2026211D2*
X2057202D1*
X2175632D2*
X2510707D1*
X2736682D2*
X3028049D1*
X3331964D2*
X3808279D1*
X443718Y2007945D2*
X467892D1*
X772704D2*
X867103D1*
X960271D2*
X1080722D1*
X1447614D2*
X1737618D1*
X2175632D2*
X2510707D1*
X3356832D2*
X3808279D1*
X579504Y1983077D2*
X684704D1*
X772704D2*
X854652D1*
X1019910D2*
X1080722D1*
X1446609D2*
X1734711D1*
X2176386D2*
X2423688D1*
X2453268D2*
X2510707D1*
X3457846D2*
X3808279D1*
X554636Y1958208D2*
X684704D1*
X772704D2*
X854472D1*
X1044778D2*
X1080722D1*
X1445604D2*
X1734711D1*
X2181948D2*
X2393975D1*
X2482944D2*
X2510707D1*
X3482140D2*
X3808279D1*
X542687Y1933339D2*
X684704D1*
X772704D2*
X866493D1*
X960917D2*
X968494D1*
X1066883D2*
X1080722D1*
X1444600D2*
X1730836D1*
X1906680D2*
X1921596D1*
X2025816D2*
X2107727D1*
X2187510D2*
X2389741D1*
X2487215D2*
X2510707D1*
X3142209D2*
X3266679D1*
X3495417D2*
X3808279D1*
X542687Y1908470D2*
X684704D1*
X775108D2*
X855728D1*
X971646D2*
X993344D1*
X1070184D2*
X1080677D1*
X1443559D2*
X1732594D1*
X2037945D2*
X2113289D1*
X2197342D2*
X2385830D1*
X2476665D2*
X2510707D1*
X2795639D2*
X2963673D1*
X2993720D2*
X3025178D1*
X3142209D2*
X3275686D1*
X3501697D2*
X3808279D1*
X542687Y1883602D2*
X685960D1*
X799976D2*
X853754D1*
X974373D2*
X997219D1*
X1070184D2*
X1080677D1*
X1442554D2*
X1760548D1*
X1884719D2*
X1908498D1*
X2038878D2*
X2114725D1*
X2230499D2*
X2379622D1*
X2470134D2*
X2494523D1*
X2814084D2*
X2934176D1*
X3142209D2*
X3275183D1*
X3502235D2*
X3808279D1*
X542687Y1858733D2*
X702503D1*
X824844D2*
X863371D1*
X1441549D2*
X1918187D1*
X2029189D2*
X2123050D1*
X2257520D2*
X2345388D1*
X2817457D2*
X2929978D1*
X3142209D2*
X3280351D1*
X3497067D2*
X3808279D1*
X542687Y1833864D2*
X727370D1*
X844724D2*
X905141D1*
X1440545D2*
X1922027D1*
X2025385D2*
X2153480D1*
X2262687D2*
X2303224D1*
X2809168D2*
X2940528D1*
X3016865D2*
X3025210D1*
X3142209D2*
X3292121D1*
X3485262D2*
X3808279D1*
X542687Y1808995D2*
X752238D1*
X869591D2*
X947843D1*
X1439540D2*
X1909575D1*
X2037837D2*
X2174723D1*
X2775293D2*
X2924236D1*
X3010011D2*
X3025178D1*
X3142209D2*
X3313687D1*
X3463695D2*
X3808279D1*
X542687Y1784127D2*
X772082D1*
X894459D2*
X952221D1*
X1438535D2*
X1908427D1*
X2038949D2*
X2174795D1*
X2736682D2*
X2919715D1*
X2989414D2*
X3025178D1*
X3142209D2*
X3365612D1*
X3411807D2*
X3808279D1*
X542687Y1759258D2*
X796950D1*
X919327D2*
X958321D1*
X1437495D2*
X1917864D1*
X2029548D2*
X2185309D1*
X2736682D2*
X2919715D1*
X2985682D2*
X3025178D1*
X3142209D2*
X3808279D1*
X542687Y1734389D2*
X821817D1*
X944195D2*
X982435D1*
X1436490D2*
X1583782D1*
X2111148D2*
X2248106D1*
X2415016D2*
X2453759D1*
X2736682D2*
X2919715D1*
X2985682D2*
X3025178D1*
X3142209D2*
X3808279D1*
X542687Y1709520D2*
X846685D1*
X961240D2*
X990186D1*
X1435485D2*
X1562682D1*
X2132248D2*
X2195608D1*
X2390148D2*
X2428927D1*
X2777267D2*
X2919715D1*
X2985682D2*
X3025178D1*
X3142209D2*
X3808279D1*
X542687Y1684651D2*
X871553D1*
X962675D2*
X990186D1*
X1484431D2*
X1560709D1*
X2384442D2*
X2420709D1*
X2781680D2*
X2919715D1*
X2985682D2*
X3025178D1*
X3142209D2*
X3153321D1*
X3234072D2*
X3253330D1*
X3334081D2*
X3353303D1*
X3434091D2*
X3527700D1*
X3659695D2*
X3808279D1*
X542687Y1659783D2*
X874711D1*
X962675D2*
X1080722D1*
X1499861D2*
X1560709D1*
X2399873D2*
X2420709D1*
X2834287D2*
X2853114D1*
X2985682D2*
X3025178D1*
X3454078D2*
X3527700D1*
X3659695D2*
X3808279D1*
X542687Y1634914D2*
X854041D1*
X962531D2*
X1055424D1*
X1501512D2*
X1560709D1*
X2401523D2*
X2420709D1*
X2985682D2*
X3025178D1*
X3459676D2*
X3527700D1*
X3659695D2*
X3808279D1*
X542687Y1610045D2*
X844747D1*
X951192D2*
X990760D1*
X1490998D2*
X1560709D1*
X2390973D2*
X2399430D1*
X2985682D2*
X3025178D1*
X3455119D2*
X3527700D1*
X3659695D2*
X3808279D1*
X542687Y1585176D2*
X698986D1*
X932676D2*
X951252D1*
X1320620D2*
X1364386D1*
X1430425D2*
X1560709D1*
X1626676D2*
X1710705D1*
X1976690D2*
X2052250D1*
X2226695D2*
X2255714D1*
X2985682D2*
X3025178D1*
X3237158D2*
X3250244D1*
X3337132D2*
X3350253D1*
X3437141D2*
X3527700D1*
X3659695D2*
X3808279D1*
X542687Y1560308D2*
X674118D1*
X1322235D2*
X1363382D1*
X1429421D2*
X1560709D1*
X1626676D2*
X1710705D1*
X2226695D2*
X2255714D1*
X2440924D2*
X2460720D1*
X2671695D2*
X2715713D1*
X2985682D2*
X3030310D1*
X3185485D2*
X3808279D1*
X542687Y1535439D2*
X651691D1*
X1335691D2*
X1351719D1*
X1435700D2*
X1451693D1*
X1535710D2*
X1551702D1*
X1635683D2*
X1651711D1*
X1879049D2*
X1910723D1*
X2235702D2*
X2251695D1*
X2435685D2*
X2451713D1*
X2985682D2*
X3050225D1*
X3192195D2*
X3808279D1*
X551119Y1510570D2*
X636260D1*
X1877686D2*
X1910723D1*
X3042379D2*
X3075093D1*
X3192231D2*
X3808279D1*
X553093Y1485701D2*
X634287D1*
X1876681D2*
X1910723D1*
X3042379D2*
X3075165D1*
X3192231D2*
X3808279D1*
X543332Y1460833D2*
X644083D1*
X1876681D2*
X1910723D1*
X2843329D2*
X2869692D1*
X3042379D2*
X3075165D1*
X3192231D2*
X3808279D1*
X443718Y1435964D2*
X552255D1*
X635124D2*
X1695382D1*
X1782019D2*
X1810714D1*
X1876681D2*
X1910723D1*
X2027072D2*
X2310724D1*
X2376691D2*
X2395806D1*
X2571578D2*
X2869692D1*
X3042379D2*
X3075165D1*
X3192231D2*
X3808279D1*
X443718Y1411095D2*
X536431D1*
X1337485D2*
X1587120D1*
X1630300D2*
X1689784D1*
X1787617D2*
X1810714D1*
X1876681D2*
X1910723D1*
X2376691D2*
X2420673D1*
X2631936D2*
X2869692D1*
X2985682D2*
X3075165D1*
X3192231D2*
X3808279D1*
X443718Y1386226D2*
X534242D1*
X1362353D2*
X1563149D1*
X1876681D2*
X1910723D1*
X1976690D2*
X1985542D1*
X2366859D2*
X2511353D1*
X2637641D2*
X2832408D1*
X2985682D2*
X3075165D1*
X3192231D2*
X3808279D1*
X443718Y1361357D2*
X543715D1*
X1387221D2*
X1438846D1*
X1976690D2*
X2476545D1*
X2628814D2*
X2808187D1*
X2985682D2*
X3075165D1*
X3192231D2*
X3808279D1*
X443718Y1336489D2*
X585843D1*
X601549D2*
X1289747D1*
X1412089D2*
X1429803D1*
X1976690D2*
X2441701D1*
X2589485D2*
X2797242D1*
X2985682D2*
X3075165D1*
X3192231D2*
X3461099D1*
X3571635D2*
X3808279D1*
X443718Y1311620D2*
X1314615D1*
X2554677D2*
X2792218D1*
X2985682D2*
X3075165D1*
X3192231D2*
X3429234D1*
X3597328D2*
X3808279D1*
X443718Y1286751D2*
X471695D1*
X680195D2*
X1339483D1*
X2519869D2*
X2791178D1*
X2985682D2*
X3075165D1*
X3192231D2*
X3404367D1*
X3622196D2*
X3808279D1*
X443718Y1261882D2*
X454097D1*
X761078D2*
X1364351D1*
X2485026D2*
X2766310D1*
X2985682D2*
X3075165D1*
X3192231D2*
X3379499D1*
X3646776D2*
X3808279D1*
X770192Y1237014D2*
X2741442D1*
X2985682D2*
X3075165D1*
X3192231D2*
X3354631D1*
X3660125D2*
X3808279D1*
X443718Y1212145D2*
X455531D1*
X770192D2*
X2716574D1*
X2985682D2*
X3075165D1*
X3192231D2*
X3329763D1*
X3494520D2*
X3503709D1*
X3662709D2*
X3808279D1*
X443718Y1187276D2*
X462760D1*
X770192D2*
X2691707D1*
X2992392D2*
X3074806D1*
X3662709D2*
X3808279D1*
X443718Y1162407D2*
X451229D1*
X770192D2*
X1321218D1*
X2616936D2*
X2666839D1*
X3018767D2*
X3079076D1*
X3662709D2*
X3808279D1*
X775431Y1137539D2*
X1314723D1*
X2813151D2*
X2835710D1*
X3022284D2*
X3097951D1*
X3419916D2*
X3432428D1*
X3662709D2*
X3808279D1*
X443718Y1112670D2*
X460930D1*
X690206D2*
X701211D1*
X800299D2*
X1322689D1*
X2788283D2*
X2835710D1*
X3010837D2*
X3122819D1*
X3395049D2*
X3440897D1*
X3662709D2*
X3808279D1*
X443718Y1087801D2*
X495236D1*
X536156D2*
X612218D1*
X685183D2*
X724033D1*
X825167D2*
X2556674D1*
X2763415D2*
X2835710D1*
X2967704D2*
X3148728D1*
X3344129D2*
X3460705D1*
X3662709D2*
X3808279D1*
X443718Y1062932D2*
X612218D1*
X685183D2*
X704512D1*
X882869D2*
X904531D1*
X982878D2*
X2567368D1*
X2738548D2*
X2835710D1*
X2967704D2*
X3460705D1*
X3662709D2*
X3808279D1*
X443718Y1038064D2*
X612218D1*
X1000318D2*
X2254673D1*
X2332733D2*
X2542500D1*
X2713680D2*
X2835710D1*
X3197506D2*
X3460705D1*
X3662709D2*
X3808279D1*
X443718Y1013195D2*
X612218D1*
X1003404D2*
X2237162D1*
X2688812D2*
X2835710D1*
X3222446D2*
X3460705D1*
X3662709D2*
X3808279D1*
X443718Y988326D2*
X612218D1*
X994971D2*
X2234004D1*
X2663944D2*
X2835710D1*
X3247314D2*
X3443301D1*
X3662709D2*
X3808279D1*
X443718Y963457D2*
X612218D1*
X970175D2*
X1218410D1*
X2639077D2*
X2835710D1*
X3272181D2*
X3432930D1*
X3662709D2*
X3808279D1*
X443718Y938588D2*
X555342D1*
X1032075D2*
X1055316D1*
X1132084D2*
X1155325D1*
X2632079D2*
X2655320D1*
X2732088D2*
X2755329D1*
X2941580D2*
X3160569D1*
X3297049D2*
X3434079D1*
X3662709D2*
X3808279D1*
X443718Y913720D2*
X537328D1*
X3094303D2*
X3185437D1*
X3321917D2*
X3447679D1*
X3662709D2*
X3808279D1*
X443718Y888851D2*
X533955D1*
X3119171D2*
X3210305D1*
X3346784D2*
X3460705D1*
X3662709D2*
X3808279D1*
X443718Y863982D2*
X542028D1*
X3144039D2*
X3235173D1*
X3371652D2*
X3460705D1*
X3662709D2*
X3808279D1*
X443718Y839113D2*
X573248D1*
X714141D2*
X773266D1*
X814150D2*
X873240D1*
X914160D2*
X973249D1*
X1014133D2*
X1073258D1*
X1114142D2*
X1173267D1*
X1214151D2*
X1273241D1*
X1314161D2*
X1373250D1*
X1414134D2*
X1473259D1*
X1514143D2*
X1573268D1*
X1614152D2*
X1673242D1*
X1714162D2*
X1773251D1*
X1814135D2*
X1873260D1*
X1914144D2*
X1973233D1*
X2014153D2*
X2029105D1*
X2959235D2*
X3077677D1*
X3168907D2*
X3260040D1*
X3392967D2*
X3460705D1*
X3662709D2*
X3808279D1*
X443718Y814245D2*
X602529D1*
X693795D2*
X2038435D1*
X3053754D2*
X3102545D1*
X3193774D2*
X3284908D1*
X3397704D2*
X3460705D1*
X3662709D2*
X3808279D1*
X443718Y789376D2*
X627397D1*
X718663D2*
X2052825D1*
X3092509D2*
X3127412D1*
X3218642D2*
X3299692D1*
X3397704D2*
X3453707D1*
X3662709D2*
X3808279D1*
X443718Y764507D2*
X652265D1*
X878455D2*
X908944D1*
X978464D2*
X1008954D1*
X1078437D2*
X1108963D1*
X1178447D2*
X1208936D1*
X1278456D2*
X1308945D1*
X1378465D2*
X1408955D1*
X1478438D2*
X1608937D1*
X1678457D2*
X1708946D1*
X1778430D2*
X1808956D1*
X1878439D2*
X1908965D1*
X2102213D2*
X2115299D1*
X3278461D2*
X3299692D1*
X3397704D2*
X3435909D1*
X3662709D2*
X3808279D1*
X443718Y739638D2*
X677132D1*
X1498175D2*
X1589237D1*
X2102213D2*
X2169915D1*
X3397704D2*
X3432249D1*
X3662565D2*
X3808279D1*
X443718Y714770D2*
X685171D1*
X1502086D2*
X1585325D1*
X2102213D2*
X2224530D1*
X3397704D2*
X3439677D1*
X3656070D2*
X3808279D1*
X443718Y689901D2*
X685171D1*
X1494263D2*
X1593148D1*
X2102213D2*
X2279146D1*
X2594257D2*
X2685176D1*
X3397704D2*
X3466769D1*
X3520643D2*
X3552138D1*
X3635257D2*
X3808279D1*
X443718Y665032D2*
X685171D1*
X3397561D2*
X3808279D1*
X443718Y640163D2*
X485726D1*
X616608D2*
X689441D1*
X3387908D2*
X3635353D1*
X3766235D2*
X3808279D1*
X443718Y615295D2*
X460536D1*
X641835D2*
X685278D1*
X3363542D2*
X3610162D1*
X3791425D2*
X3808279D1*
X655363Y590426D2*
X692850D1*
X3294573D2*
X3596598D1*
X661714Y565557D2*
X723495D1*
X763913D2*
X823468D1*
X863922D2*
X923477D1*
X963931D2*
X1023487D1*
X1063904D2*
X1123496D1*
X1163914D2*
X1223469D1*
X1263923D2*
X1323478D1*
X1363932D2*
X1423488D1*
X1463905D2*
X1623470D1*
X1663924D2*
X1723479D1*
X1763933D2*
X1823489D1*
X1863906D2*
X1923462D1*
X1963916D2*
X2023471D1*
X2063925D2*
X2323463D1*
X2363917D2*
X2423472D1*
X2463926D2*
X2523482D1*
X2563935D2*
X2723464D1*
X2763918D2*
X2823473D1*
X2863927D2*
X2923483D1*
X2963936D2*
X3023492D1*
X3063909D2*
X3123465D1*
X3163919D2*
X3223474D1*
X3263928D2*
X3590247D1*
X662181Y540688D2*
X3589816D1*
X656762Y515819D2*
X3595199D1*
X644526Y490951D2*
X3607435D1*
X621775Y466082D2*
X3630186D1*
X556215Y441213D2*
X3695746D1*
X3118693Y2418439D2*
X3114021Y2410772D1*
X3108312Y2404088D1*
X3101628Y2398379D1*
X3093961Y2393707D1*
X3101628Y2389021D1*
X3108312Y2383312D1*
X3114021Y2376628D1*
X3118693Y2368961D1*
X3123379Y2376628D1*
X3129088Y2383312D1*
X3135772Y2389021D1*
X3143439Y2393693D1*
X3135772Y2398379D1*
X3129088Y2404088D1*
X3123379Y2410772D1*
X3118707Y2418439D1*
X3199870Y2397205D2*
X3193961Y2393707D1*
X3201628Y2389021D1*
X3208312Y2383312D1*
X3214021Y2376628D1*
X3218693Y2368961D1*
X3223379Y2376628D1*
X3229088Y2383312D1*
X3235772Y2389021D1*
X3243439Y2393693D1*
X3237530Y2397205D1*
X3199982Y2397208D1*
X3318693Y2418439D2*
X3314021Y2410772D1*
X3308312Y2404088D1*
X3301628Y2398379D1*
X3293961Y2393707D1*
X3301628Y2389021D1*
X3308312Y2383312D1*
X3312670Y2378341D1*
X3312681Y2399719D1*
X3334032D1*
X3329088Y2404088D1*
X3323379Y2410772D1*
X3318707Y2418439D1*
X2071867Y2499720D2*
X2174720D1*
Y2490210D1*
X2187418Y2490192D1*
X2193268Y2493614D1*
X2201389Y2496978D1*
X2209937Y2499030D1*
X2218700Y2499720D1*
X2227463Y2499030D1*
X2236011Y2496978D1*
X2244132Y2493614D1*
X2249870Y2490195D1*
X2287418Y2490192D1*
X2293268Y2493614D1*
X2301389Y2496978D1*
X2309937Y2499030D1*
X2318700Y2499720D1*
X2327463Y2499030D1*
X2336011Y2496978D1*
X2344132Y2493614D1*
X2349870Y2490195D1*
X2387418Y2490192D1*
X2393268Y2493614D1*
X2401389Y2496978D1*
X2409937Y2499030D1*
X2418700Y2499720D1*
X2427463Y2499030D1*
X2436011Y2496978D1*
X2444132Y2493614D1*
X2451628Y2489021D1*
X2458312Y2483312D1*
X2464021Y2476628D1*
X2468614Y2469132D1*
X2471978Y2461011D1*
X2474030Y2452463D1*
X2474720Y2443700D1*
X2474030Y2434937D1*
X2471978Y2426389D1*
X2468614Y2418268D1*
X2464021Y2410772D1*
X2458312Y2404088D1*
X2451628Y2398379D1*
X2443961Y2393707D1*
X2451628Y2389021D1*
X2458312Y2383312D1*
X2464021Y2376628D1*
X2468614Y2369132D1*
X2471978Y2361011D1*
X2474030Y2352463D1*
X2474720Y2343700D1*
X2474030Y2334937D1*
X2471978Y2326389D1*
X2468614Y2318268D1*
X2464021Y2310772D1*
X2458312Y2304088D1*
X2451628Y2298379D1*
X2444132Y2293786D1*
X2436011Y2290422D1*
X2427463Y2288370D1*
X2418700Y2287680D1*
X2409937Y2288370D1*
X2401389Y2290422D1*
X2393268Y2293786D1*
X2385772Y2298379D1*
X2379088Y2304088D1*
X2373379Y2310772D1*
X2368707Y2318439D1*
X2364021Y2310772D1*
X2358312Y2304088D1*
X2351628Y2298379D1*
X2344132Y2293786D1*
X2336011Y2290422D1*
X2327463Y2288370D1*
X2318700Y2287680D1*
X2309937Y2288370D1*
X2301389Y2290422D1*
X2293268Y2293786D1*
X2285772Y2298379D1*
X2279088Y2304088D1*
X2273379Y2310772D1*
X2268707Y2318439D1*
X2264021Y2310772D1*
X2258312Y2304088D1*
X2251628Y2298379D1*
X2244132Y2293786D1*
X2236011Y2290422D1*
X2227463Y2288370D1*
X2222529Y2287831D1*
X2323707Y2254050D1*
X2329574Y2251226D1*
X2334926Y2247519D1*
X2339633Y2243020D1*
X2343579Y2237841D1*
X2362841Y2202331D1*
X2365295Y2196869D1*
X2367040Y2190597D1*
X2367784Y2184116D1*
X2368026Y2183144D1*
X2373928Y2178856D1*
X2379087Y2173697D1*
X2383375Y2167795D1*
X2386687Y2161295D1*
X2388942Y2154357D1*
X2390083Y2147151D1*
Y2139855D1*
X2388942Y2132650D1*
X2386687Y2125711D1*
X2383375Y2119211D1*
X2379087Y2113309D1*
X2373928Y2108150D1*
X2368026Y2103862D1*
X2361526Y2100550D1*
X2354587Y2098296D1*
X2347382Y2097154D1*
X2340086D1*
X2332881Y2098296D1*
X2325942Y2100550D1*
X2319442Y2103862D1*
X2316845Y2105597D1*
X2306926Y2107226D1*
X2300719Y2109192D1*
X2294897Y2112106D1*
X2289602Y2115895D1*
X2284964Y2120465D1*
X2281099Y2125704D1*
X2278101Y2131484D1*
X2276044Y2137661D1*
X2274979Y2144084D1*
X2274931Y2150595D1*
X2275906Y2157045D1*
X2281795Y2177844D1*
X2279969Y2181204D1*
X2156991Y2222200D1*
X2037208Y2222208D1*
X2037192Y2130208D1*
X1935963D1*
X1923894Y2118347D1*
X1917992Y2114059D1*
X1911492Y2110747D1*
X1904553Y2108492D1*
X1897348Y2107351D1*
X1866141Y2107208D1*
X1687976D1*
X1623894Y2043347D1*
X1617992Y2039059D1*
X1611492Y2035747D1*
X1604553Y2033492D1*
X1597348Y2032351D1*
X1566141Y2032208D1*
X1550052Y2032351D1*
X1542847Y2033492D1*
X1535908Y2035747D1*
X1529408Y2039059D1*
X1523506Y2043347D1*
X1501338Y2065312D1*
X1463347Y2103506D1*
X1459059Y2109408D1*
X1455747Y2115908D1*
X1453492Y2122847D1*
X1452351Y2130052D1*
X1452208Y2161259D1*
X1452351Y2233836D1*
X1453492Y2241042D1*
X1455747Y2247980D1*
X1459059Y2254480D1*
X1463347Y2260383D1*
X1484337Y2281575D1*
X1489884Y2286313D1*
X1496105Y2290125D1*
X1502859Y2292921D1*
X1490432Y2293208D1*
X1466308Y2293302D1*
X1461582Y2294050D1*
X1457031Y2295529D1*
X1452768Y2297701D1*
X1448897Y2300514D1*
X1447132Y2302146D1*
X1435327Y2308208D1*
X1387063D1*
X1448386Y2115720D1*
X1449110Y2110991D1*
X1448421Y2089159D1*
X1432546Y1698595D1*
X1439305Y1699547D1*
X1448095D1*
X1456778Y1698172D1*
X1465138Y1695455D1*
X1472970Y1691465D1*
X1480082Y1686298D1*
X1486298Y1680082D1*
X1491465Y1672970D1*
X1495455Y1665138D1*
X1498172Y1656778D1*
X1499547Y1648095D1*
Y1639305D1*
X1498172Y1630622D1*
X1495455Y1622262D1*
X1491465Y1614430D1*
X1486298Y1607318D1*
X1480082Y1601102D1*
X1472970Y1595935D1*
X1465138Y1591945D1*
X1456778Y1589228D1*
X1448095Y1587853D1*
X1439305D1*
X1430622Y1589228D1*
X1428125Y1589932D1*
X1426145Y1541122D1*
X1431019Y1537394D1*
X1437394Y1531019D1*
X1442694Y1523724D1*
X1443667Y1521986D1*
X1447212Y1527475D1*
X1453068Y1534332D1*
X1459925Y1540188D1*
X1467613Y1544899D1*
X1475943Y1548350D1*
X1484711Y1550454D1*
X1493700Y1551162D1*
X1502689Y1550454D1*
X1511457Y1548350D1*
X1519787Y1544899D1*
X1527475Y1540188D1*
X1534332Y1534332D1*
X1540188Y1527475D1*
X1543667Y1521986D1*
X1547212Y1527475D1*
X1553068Y1534332D1*
X1559925Y1540188D1*
X1563222Y1542391D1*
X1563302Y1701092D1*
X1564050Y1705818D1*
X1565529Y1710369D1*
X1567701Y1714632D1*
X1570514Y1718503D1*
X1589897Y1737886D1*
X1593768Y1740699D1*
X1598031Y1742871D1*
X1602582Y1744350D1*
X1607308Y1745098D1*
X1683191Y1745192D1*
X1932465Y1745420D1*
X1925420Y1752465D1*
X1919564Y1760525D1*
X1915041Y1769403D1*
X1911962Y1778878D1*
X1910404Y1788718D1*
Y1798682D1*
X1911962Y1808522D1*
X1915041Y1817997D1*
X1919564Y1826875D1*
X1925420Y1834935D1*
X1932465Y1841980D1*
X1934622Y1843680D1*
X1928804Y1848804D1*
X1922334Y1856380D1*
X1917128Y1864875D1*
X1913315Y1874080D1*
X1910990Y1883768D1*
X1910208Y1893700D1*
X1910990Y1903632D1*
X1913315Y1913320D1*
X1917128Y1922525D1*
X1922334Y1931020D1*
X1928804Y1938596D1*
X1934622Y1943680D1*
X1928804Y1948804D1*
X1922334Y1956380D1*
X1921782Y1957206D1*
X1893140Y1957208D1*
X1894053Y1953894D1*
X1898341Y1947992D1*
X1901653Y1941492D1*
X1903908Y1934553D1*
X1905049Y1927348D1*
Y1920052D1*
X1903908Y1912847D1*
X1901653Y1905908D1*
X1898341Y1899408D1*
X1894053Y1893506D1*
X1888894Y1888347D1*
X1882992Y1884059D1*
X1876492Y1880747D1*
X1869553Y1878492D1*
X1862348Y1877351D1*
X1855052D1*
X1847847Y1878492D1*
X1840908Y1880747D1*
X1837735Y1882210D1*
X1770445Y1882336D1*
X1764014Y1883354D1*
X1757822Y1885366D1*
X1752020Y1888322D1*
X1746753Y1892149D1*
X1742149Y1896753D1*
X1738322Y1902020D1*
X1735366Y1907822D1*
X1733354Y1914014D1*
X1732336Y1920445D1*
Y1926955D1*
X1733354Y1933386D1*
X1735366Y1939578D1*
X1737209Y1943392D1*
X1737320Y1996563D1*
X1738216Y2002219D1*
X1739986Y2007665D1*
X1742585Y2012767D1*
X1745951Y2017400D1*
X1750000Y2021449D1*
X1754633Y2024815D1*
X1759735Y2027414D1*
X1765181Y2029184D1*
X1770837Y2030080D1*
X1773711Y2030192D1*
X1779708Y2034071D1*
Y2045192D1*
X1893126D1*
Y2030156D1*
X1921775Y2030192D1*
X1925420Y2034935D1*
X1932465Y2041980D1*
X1940525Y2047836D1*
X1949403Y2052359D1*
X1958878Y2055438D1*
X1968718Y2056996D1*
X1978682D1*
X1988522Y2055438D1*
X1997997Y2052359D1*
X2006875Y2047836D1*
X2014935Y2041980D1*
X2021980Y2034935D1*
X2025618Y2030194D1*
X2059714Y2030192D1*
X2059708Y2045192D1*
X2173125D1*
Y1986521D1*
X2189701Y1912314D1*
X2245647Y1870251D1*
X2250251Y1865647D1*
X2254078Y1860380D1*
X2257034Y1854578D1*
X2259046Y1848386D1*
X2260064Y1841955D1*
X2260192Y1831057D1*
X2314125Y1834378D1*
X2382108Y1883454D1*
X2393138Y1927875D1*
X2392120Y1934592D1*
Y1941887D1*
X2393261Y1949093D1*
X2395516Y1956031D1*
X2398828Y1962531D1*
X2403116Y1968434D1*
X2408275Y1973592D1*
X2414177Y1977880D1*
X2420677Y1981192D1*
X2427616Y1983447D1*
X2434821Y1984588D1*
X2442117D1*
X2449322Y1983447D1*
X2456261Y1981192D1*
X2462761Y1977880D1*
X2468663Y1973592D1*
X2473822Y1968434D1*
X2478110Y1962531D1*
X2481422Y1956031D1*
X2483677Y1949093D1*
X2484818Y1941887D1*
Y1934592D1*
X2483677Y1927386D1*
X2481422Y1920448D1*
X2478110Y1913947D1*
X2473677Y1907888D1*
X2464463Y1870805D1*
X2513187Y1889961D1*
X2513208Y2193625D1*
X2508347Y2198506D1*
X2504059Y2204408D1*
X2500747Y2210908D1*
X2498492Y2217847D1*
X2497351Y2225052D1*
Y2232348D1*
X2498492Y2239553D1*
X2500747Y2246492D1*
X2504059Y2252992D1*
X2508347Y2258894D1*
X2513506Y2264053D1*
X2519408Y2268341D1*
X2525908Y2271653D1*
X2532847Y2273908D1*
X2540052Y2275049D1*
X2547348D1*
X2554553Y2273908D1*
X2561492Y2271653D1*
X2567905Y2268390D1*
X2565643Y2278635D1*
X2555367Y2288911D1*
X2548095Y2287853D1*
X2539305D1*
X2530622Y2289228D1*
X2522262Y2291945D1*
X2514430Y2295935D1*
X2507318Y2301102D1*
X2501102Y2307318D1*
X2495935Y2314430D1*
X2491945Y2322262D1*
X2489228Y2330622D1*
X2487853Y2339305D1*
Y2348095D1*
X2489228Y2356778D1*
X2491945Y2365138D1*
X2495935Y2372970D1*
X2501102Y2380082D1*
X2507318Y2386298D1*
X2509059Y2387670D1*
X2487680Y2387680D1*
Y2499720D1*
X2599720D1*
Y2490210D1*
X2612418Y2490192D1*
X2618268Y2493614D1*
X2626389Y2496978D1*
X2634937Y2499030D1*
X2643700Y2499720D1*
X2652463Y2499030D1*
X2661011Y2496978D1*
X2669132Y2493614D1*
X2674870Y2490195D1*
X2712680Y2490201D1*
Y2499720D1*
X2824720D1*
Y2490210D1*
X2837418Y2490192D1*
X2843268Y2493614D1*
X2851389Y2496978D1*
X2859937Y2499030D1*
X2868700Y2499720D1*
X2877463Y2499030D1*
X2886011Y2496978D1*
X2894132Y2493614D1*
X2899870Y2490195D1*
X2937418Y2490192D1*
X2943268Y2493614D1*
X2951389Y2496978D1*
X2959937Y2499030D1*
X2968700Y2499720D1*
X2977463Y2499030D1*
X2986011Y2496978D1*
X2994132Y2493614D1*
X2999870Y2490195D1*
X3037418Y2490192D1*
X3043268Y2493614D1*
X3051389Y2496978D1*
X3059937Y2499030D1*
X3068700Y2499720D1*
X3077463Y2499030D1*
X3086011Y2496978D1*
X3094132Y2493614D1*
X3101628Y2489021D1*
X3108312Y2483312D1*
X3114021Y2476628D1*
X3118693Y2468961D1*
X3123379Y2476628D1*
X3129088Y2483312D1*
X3135772Y2489021D1*
X3143268Y2493614D1*
X3151389Y2496978D1*
X3159937Y2499030D1*
X3168700Y2499720D1*
X3177463Y2499030D1*
X3186011Y2496978D1*
X3194132Y2493614D1*
X3199870Y2490195D1*
X3237418Y2490192D1*
X3243268Y2493614D1*
X3251389Y2496978D1*
X3259937Y2499030D1*
X3268700Y2499720D1*
X3277463Y2499030D1*
X3286011Y2496978D1*
X3294132Y2493614D1*
X3301628Y2489021D1*
X3308312Y2483312D1*
X3314021Y2476628D1*
X3318693Y2468961D1*
X3323379Y2476628D1*
X3329088Y2483312D1*
X3335772Y2489021D1*
X3343268Y2493614D1*
X3351389Y2496978D1*
X3359937Y2499030D1*
X3368700Y2499720D1*
X3377463Y2499030D1*
X3386011Y2496978D1*
X3394132Y2493614D1*
X3401628Y2489021D1*
X3408312Y2483312D1*
X3414021Y2476628D1*
X3418614Y2469132D1*
X3421978Y2461011D1*
X3424030Y2452463D1*
X3424720Y2443700D1*
X3424030Y2434937D1*
X3421978Y2426389D1*
X3418614Y2418268D1*
X3414021Y2410772D1*
X3408312Y2404088D1*
X3403341Y2399730D1*
X3424720Y2399719D1*
Y2187680D1*
X3312681D1*
Y2244556D1*
X3223503Y2155513D1*
X3219632Y2152701D1*
X3215369Y2150529D1*
X3210818Y2149050D1*
X3206092Y2148302D1*
X3130209Y2148208D1*
X2806929D1*
X2810455Y2141091D1*
X2813172Y2132730D1*
X2814547Y2124048D1*
Y2115258D1*
X2813172Y2106575D1*
X2810455Y2098215D1*
X2806465Y2090383D1*
X2801298Y2083271D1*
X2795082Y2077055D1*
X2787970Y2071888D1*
X2780138Y2067897D1*
X2771778Y2065181D1*
X2763095Y2063806D1*
X2754305D1*
X2745622Y2065181D1*
X2737262Y2067897D1*
X2734188Y2069314D1*
X2734192Y2014194D1*
X2740052Y2015049D1*
X2747348D1*
X2754553Y2013908D1*
X2761492Y2011653D1*
X2764665Y2010190D1*
X3027293Y2010192D1*
X3027382Y2018132D1*
X3028769Y2026888D1*
X3031508Y2035319D1*
X3035532Y2043217D1*
X3040743Y2050389D1*
X3047011Y2056657D1*
X3054183Y2061868D1*
X3062081Y2065892D1*
X3070512Y2068631D1*
X3079268Y2070018D1*
X3102073Y2070192D1*
X3273132Y2070018D1*
X3281888Y2068631D1*
X3290319Y2065892D1*
X3298217Y2061868D1*
X3305389Y2056657D1*
X3321638Y2040655D1*
X3360688Y2001604D1*
X3371259Y2003819D1*
X3379952Y2004848D1*
X3388700Y2005192D1*
X3397448Y2004848D1*
X3406141Y2003819D1*
X3414727Y2002112D1*
X3423153Y1999735D1*
X3431366Y1996705D1*
X3439316Y1993040D1*
X3446954Y1988763D1*
X3454233Y1983899D1*
X3461108Y1978479D1*
X3467537Y1972537D1*
X3473479Y1966108D1*
X3478899Y1959233D1*
X3483763Y1951954D1*
X3488040Y1944316D1*
X3491705Y1936366D1*
X3494735Y1928153D1*
X3497112Y1919727D1*
X3498819Y1911141D1*
X3499848Y1902448D1*
X3500192Y1893700D1*
X3499848Y1884952D1*
X3498819Y1876259D1*
X3497112Y1867673D1*
X3494735Y1859247D1*
X3491705Y1851034D1*
X3488040Y1843084D1*
X3483763Y1835446D1*
X3478899Y1828167D1*
X3473479Y1821292D1*
X3467537Y1814863D1*
X3461108Y1808921D1*
X3454233Y1803501D1*
X3446954Y1798637D1*
X3439316Y1794360D1*
X3431366Y1790695D1*
X3423153Y1787665D1*
X3414727Y1785288D1*
X3406141Y1783581D1*
X3397448Y1782552D1*
X3388700Y1782208D1*
X3379952Y1782552D1*
X3371259Y1783581D1*
X3362673Y1785288D1*
X3354247Y1787665D1*
X3346034Y1790695D1*
X3338084Y1794360D1*
X3330446Y1798637D1*
X3323167Y1803501D1*
X3316292Y1808921D1*
X3309863Y1814863D1*
X3303921Y1821292D1*
X3298501Y1828167D1*
X3293637Y1835446D1*
X3289360Y1843084D1*
X3285695Y1851034D1*
X3282665Y1859247D1*
X3280288Y1867673D1*
X3278581Y1876259D1*
X3277552Y1884952D1*
X3277208Y1893700D1*
X3277552Y1902448D1*
X3278581Y1911141D1*
X3280836Y1921669D1*
X3245304Y1957204D1*
X3139696Y1957208D1*
X3139720Y1667137D1*
X3145420Y1674935D1*
X3152465Y1681980D1*
X3160525Y1687836D1*
X3169403Y1692359D1*
X3178878Y1695438D1*
X3188718Y1696996D1*
X3198682D1*
X3208522Y1695438D1*
X3217997Y1692359D1*
X3226875Y1687836D1*
X3234935Y1681980D1*
X3241980Y1674935D1*
X3243680Y1672778D1*
X3248804Y1678596D1*
X3256380Y1685066D1*
X3264875Y1690272D1*
X3274080Y1694085D1*
X3283768Y1696410D1*
X3293700Y1697192D1*
X3303632Y1696410D1*
X3313320Y1694085D1*
X3322525Y1690272D1*
X3331020Y1685066D1*
X3338596Y1678596D1*
X3343680Y1672778D1*
X3348804Y1678596D1*
X3356380Y1685066D1*
X3364875Y1690272D1*
X3374080Y1694085D1*
X3383768Y1696410D1*
X3393700Y1697192D1*
X3403632Y1696410D1*
X3413320Y1694085D1*
X3422525Y1690272D1*
X3431020Y1685066D1*
X3438596Y1678596D1*
X3445066Y1671020D1*
X3450272Y1662525D1*
X3454085Y1653320D1*
X3456410Y1643632D1*
X3457192Y1633700D1*
X3456410Y1623768D1*
X3454085Y1614080D1*
X3450272Y1604875D1*
X3445066Y1596380D1*
X3438596Y1588804D1*
X3431020Y1582334D1*
X3422525Y1577128D1*
X3413320Y1573315D1*
X3403632Y1570990D1*
X3393700Y1570208D1*
X3383768Y1570990D1*
X3374080Y1573315D1*
X3364875Y1577128D1*
X3356380Y1582334D1*
X3348804Y1588804D1*
X3343720Y1594622D1*
X3338596Y1588804D1*
X3331020Y1582334D1*
X3322525Y1577128D1*
X3313320Y1573315D1*
X3303632Y1570990D1*
X3293700Y1570208D1*
X3283768Y1570990D1*
X3274080Y1573315D1*
X3264875Y1577128D1*
X3256380Y1582334D1*
X3248804Y1588804D1*
X3243720Y1594622D1*
X3238596Y1588804D1*
X3231020Y1582334D1*
X3222525Y1577128D1*
X3213320Y1573315D1*
X3203632Y1570990D1*
X3193700Y1570208D1*
X3183768Y1570990D1*
X3174080Y1573315D1*
X3172856Y1573767D1*
X3179021Y1566628D1*
X3183614Y1559132D1*
X3186978Y1551011D1*
X3189030Y1542463D1*
X3189719Y1533683D1*
X3189720Y1208051D1*
X3207571Y1190193D1*
X3285330Y1190192D1*
X3292011Y1196657D1*
X3299183Y1201867D1*
X3307081Y1205892D1*
X3315512Y1208631D1*
X3324268Y1210018D1*
X3328717Y1210191D1*
X3333241Y1213133D1*
X3447011Y1326657D1*
X3454183Y1331867D1*
X3462081Y1335892D1*
X3470512Y1338631D1*
X3479268Y1340018D1*
X3493640Y1340192D1*
X3498513Y1342945D1*
X3508153Y1346938D1*
X3518298Y1349373D1*
X3528700Y1350192D1*
X3539102Y1349373D1*
X3549247Y1346938D1*
X3558887Y1342945D1*
X3567783Y1337493D1*
X3575717Y1330717D1*
X3644261Y1261883D1*
X3650394Y1253442D1*
X3655131Y1244145D1*
X3658355Y1234222D1*
X3659987Y1223917D1*
X3660192Y1200327D1*
X3659987Y738483D1*
X3658355Y728178D1*
X3655131Y718255D1*
X3650394Y708958D1*
X3644261Y700517D1*
X3636883Y693139D1*
X3628442Y687006D1*
X3619145Y682269D1*
X3609222Y679045D1*
X3598917Y677413D1*
X3588483D1*
X3578178Y679045D1*
X3568255Y682269D1*
X3558958Y687006D1*
X3550517Y693139D1*
X3543139Y700517D1*
X3539080Y705855D1*
X3535484Y701916D1*
X3528433Y695894D1*
X3520527Y691049D1*
X3511960Y687500D1*
X3502944Y685336D1*
X3493700Y684608D1*
X3484456Y685336D1*
X3475440Y687500D1*
X3466873Y691049D1*
X3458967Y695894D1*
X3451916Y701916D1*
X3445894Y708967D1*
X3441049Y716873D1*
X3437500Y725440D1*
X3435336Y734456D1*
X3434608Y743700D1*
X3435336Y752944D1*
X3437500Y761960D1*
X3441049Y770527D1*
X3445894Y778433D1*
X3451916Y785484D1*
X3458967Y791506D1*
X3463220Y794305D1*
X3463208Y903062D1*
X3455323Y908766D1*
X3448766Y915323D1*
X3443316Y922825D1*
X3439106Y931087D1*
X3436241Y939905D1*
X3434790Y949064D1*
Y958336D1*
X3436241Y967495D1*
X3439106Y976313D1*
X3443316Y984575D1*
X3448766Y992077D1*
X3455323Y998634D1*
X3462825Y1004084D1*
X3463220Y1004305D1*
X3463208Y1093110D1*
X3458967Y1095894D1*
X3451916Y1101916D1*
X3445894Y1108967D1*
X3441049Y1116873D1*
X3437500Y1125440D1*
X3435336Y1134456D1*
X3434608Y1143700D1*
X3435336Y1152944D1*
X3435954Y1156055D1*
X3390389Y1110743D1*
X3383217Y1105533D1*
X3375319Y1101508D1*
X3366888Y1098769D1*
X3358132Y1097382D1*
X3352085Y1097208D1*
X3345389Y1090743D1*
X3338217Y1085533D1*
X3330319Y1081508D1*
X3321888Y1078769D1*
X3313132Y1077382D1*
X3290327Y1077208D1*
X3179740Y1077382D1*
X3170985Y1078769D1*
X3162554Y1081508D1*
X3154655Y1085533D1*
X3147484Y1090743D1*
X3131235Y1106745D1*
X3090743Y1147484D1*
X3085533Y1154655D1*
X3081508Y1162554D1*
X3078769Y1170985D1*
X3077382Y1179740D1*
Y1188605D1*
X3077680Y1193359D1*
Y1510467D1*
X3041102Y1547318D1*
X3035935Y1554430D1*
X3031944Y1562262D1*
X3029228Y1570622D1*
X3027853Y1579305D1*
X3027680Y1602073D1*
X3027681Y1923717D1*
X3024688Y1927208D1*
X2764707D1*
X2758067Y1924483D1*
X2750973Y1922780D1*
X2743700Y1922208D1*
X2736427Y1922780D1*
X2734203Y1923223D1*
X2737081Y1915892D1*
X2745512Y1918631D1*
X2754268Y1920018D1*
X2763132D1*
X2771888Y1918631D1*
X2780319Y1915892D1*
X2788217Y1911867D1*
X2795389Y1906657D1*
X2801657Y1900389D1*
X2806867Y1893217D1*
X2810892Y1885319D1*
X2813631Y1876888D1*
X2815018Y1868132D1*
Y1859268D1*
X2813631Y1850512D1*
X2810892Y1842081D1*
X2806867Y1834183D1*
X2801657Y1827011D1*
X2795389Y1820743D1*
X2788217Y1815533D1*
X2780319Y1811508D1*
X2771888Y1808769D1*
X2763132Y1807382D1*
X2754268D1*
X2745512Y1808769D1*
X2737081Y1811508D1*
X2734202Y1812836D1*
X2734192Y1725613D1*
X2753470Y1723817D1*
X2758123Y1722700D1*
X2762543Y1720869D1*
X2766623Y1718369D1*
X2770261Y1715261D1*
X2773369Y1711623D1*
X2775869Y1707543D1*
X2777700Y1703123D1*
X2778817Y1698470D1*
X2779192Y1693700D1*
Y1672780D1*
X2784937Y1674030D1*
X2793700Y1674720D1*
X2802463Y1674030D1*
X2811011Y1671978D1*
X2819132Y1668614D1*
X2826628Y1664021D1*
X2833312Y1658312D1*
X2839021Y1651628D1*
X2843693Y1643961D1*
X2848379Y1651628D1*
X2854088Y1658312D1*
X2860772Y1664021D1*
X2868268Y1668614D1*
X2876389Y1671978D1*
X2884937Y1674030D1*
X2893700Y1674720D1*
X2902463Y1674030D1*
X2911011Y1671978D1*
X2919132Y1668614D1*
X2922206Y1666893D1*
X2922302Y1795415D1*
X2923050Y1800141D1*
X2924529Y1804692D1*
X2926701Y1808955D1*
X2929514Y1812826D1*
X2946591Y1830037D1*
X2941087Y1836373D1*
X2937275Y1842593D1*
X2934483Y1849333D1*
X2932780Y1856427D1*
X2932208Y1863700D1*
X2932780Y1870973D1*
X2934483Y1878067D1*
X2937275Y1884807D1*
X2941087Y1891027D1*
X2945825Y1896575D1*
X2951373Y1901313D1*
X2957593Y1905125D1*
X2964333Y1907917D1*
X2971427Y1909620D1*
X2978700Y1910192D1*
X2985973Y1909620D1*
X2993067Y1907917D1*
X2999807Y1905125D1*
X3006027Y1901313D1*
X3011575Y1896575D1*
X3016313Y1891027D1*
X3020125Y1884807D1*
X3022917Y1878067D1*
X3024620Y1870973D1*
X3025192Y1863700D1*
X3024620Y1856427D1*
X3022917Y1849333D1*
X3020125Y1842593D1*
X3016313Y1836373D1*
X3011575Y1830825D1*
X3009198Y1828628D1*
X3009098Y1816630D1*
X3008350Y1811905D1*
X3006871Y1807354D1*
X3004699Y1803091D1*
X3001886Y1799220D1*
X2983185Y1780385D1*
X2983192Y1515817D1*
X3039877Y1515783D1*
Y1411617D1*
X2983216D1*
X2983192Y1189200D1*
X2988067Y1187917D1*
X2994807Y1185125D1*
X3001027Y1181313D1*
X3006575Y1176575D1*
X3011313Y1171027D1*
X3015125Y1164807D1*
X3017917Y1158067D1*
X3019620Y1150973D1*
X3020192Y1143700D1*
X3019620Y1136427D1*
X3017917Y1129333D1*
X3015125Y1122593D1*
X3011313Y1116373D1*
X3006575Y1110825D1*
X3001027Y1106087D1*
X2994807Y1102275D1*
X2988067Y1099483D1*
X2980973Y1097780D1*
X2973700Y1097208D1*
X2966427Y1097780D1*
X2965182Y1098028D1*
X2965192Y1050159D1*
X3163700Y1050192D1*
X3170973Y1049620D1*
X3178067Y1047917D1*
X3184807Y1045125D1*
X3191027Y1041313D1*
X3196575Y1036575D1*
X3384053Y848894D1*
X3388341Y842992D1*
X3391653Y836492D1*
X3393908Y829553D1*
X3395049Y822348D1*
X3395192Y791141D1*
X3395049Y665052D1*
X3393908Y657847D1*
X3391653Y650908D1*
X3388341Y644408D1*
X3384053Y638506D1*
X3361575Y615825D1*
X3356027Y611087D1*
X3349807Y607275D1*
X3343067Y604483D1*
X3335973Y602780D1*
X3328700Y602208D1*
X3297230D1*
X3295455Y597262D1*
X3291465Y589430D1*
X3286298Y582318D1*
X3280082Y576102D1*
X3272970Y570935D1*
X3265138Y566945D1*
X3256778Y564228D1*
X3248095Y562853D1*
X3239305D1*
X3230622Y564228D1*
X3222262Y566945D1*
X3214430Y570935D1*
X3212530Y572205D1*
X3174982Y572208D1*
X3169132Y568786D1*
X3161011Y565422D1*
X3152463Y563370D1*
X3143700Y562680D1*
X3134937Y563370D1*
X3126389Y565422D1*
X3118268Y568786D1*
X3112530Y572205D1*
X3074982Y572208D1*
X3069132Y568786D1*
X3061011Y565422D1*
X3052463Y563370D1*
X3043700Y562680D1*
X3034937Y563370D1*
X3026389Y565422D1*
X3018268Y568786D1*
X3012530Y572205D1*
X2974982Y572208D1*
X2969132Y568786D1*
X2961011Y565422D1*
X2952463Y563370D1*
X2943700Y562680D1*
X2934937Y563370D1*
X2926389Y565422D1*
X2918268Y568786D1*
X2912530Y572205D1*
X2874982Y572208D1*
X2869132Y568786D1*
X2861011Y565422D1*
X2852463Y563370D1*
X2843700Y562680D1*
X2834937Y563370D1*
X2826389Y565422D1*
X2818268Y568786D1*
X2812530Y572205D1*
X2774982Y572208D1*
X2769132Y568786D1*
X2761011Y565422D1*
X2752463Y563370D1*
X2743700Y562680D1*
X2734937Y563370D1*
X2726389Y565422D1*
X2718268Y568786D1*
X2712530Y572205D1*
X2574937Y572208D1*
X2569132Y568786D1*
X2561011Y565422D1*
X2552463Y563370D1*
X2543700Y562680D1*
X2534937Y563370D1*
X2526389Y565422D1*
X2518268Y568786D1*
X2512530Y572205D1*
X2474982Y572208D1*
X2469132Y568786D1*
X2461011Y565422D1*
X2452463Y563370D1*
X2443700Y562680D1*
X2434937Y563370D1*
X2426389Y565422D1*
X2418268Y568786D1*
X2412530Y572205D1*
X2374982Y572208D1*
X2369132Y568786D1*
X2361011Y565422D1*
X2352463Y563370D1*
X2343700Y562680D1*
X2334937Y563370D1*
X2326389Y565422D1*
X2318268Y568786D1*
X2312530Y572205D1*
X2074963Y572208D1*
X2069132Y568786D1*
X2061011Y565422D1*
X2052463Y563370D1*
X2043700Y562680D1*
X2034937Y563370D1*
X2026389Y565422D1*
X2018268Y568786D1*
X2012530Y572205D1*
X1974982Y572208D1*
X1969132Y568786D1*
X1961011Y565422D1*
X1952463Y563370D1*
X1943700Y562680D1*
X1934937Y563370D1*
X1926389Y565422D1*
X1918268Y568786D1*
X1912530Y572205D1*
X1874982Y572208D1*
X1869132Y568786D1*
X1861011Y565422D1*
X1852463Y563370D1*
X1843700Y562680D1*
X1834937Y563370D1*
X1826389Y565422D1*
X1818268Y568786D1*
X1812530Y572205D1*
X1774982Y572208D1*
X1769132Y568786D1*
X1761011Y565422D1*
X1752463Y563370D1*
X1743700Y562680D1*
X1734937Y563370D1*
X1726389Y565422D1*
X1718268Y568786D1*
X1712530Y572205D1*
X1674982Y572208D1*
X1669132Y568786D1*
X1661011Y565422D1*
X1652463Y563370D1*
X1643700Y562680D1*
X1634937Y563370D1*
X1626389Y565422D1*
X1618268Y568786D1*
X1612530Y572205D1*
X1474937Y572208D1*
X1469132Y568786D1*
X1461011Y565422D1*
X1452463Y563370D1*
X1443700Y562680D1*
X1434937Y563370D1*
X1426389Y565422D1*
X1418268Y568786D1*
X1412530Y572205D1*
X1374982Y572208D1*
X1369132Y568786D1*
X1361011Y565422D1*
X1352463Y563370D1*
X1343700Y562680D1*
X1334937Y563370D1*
X1326389Y565422D1*
X1318268Y568786D1*
X1312530Y572205D1*
X1274982Y572208D1*
X1269132Y568786D1*
X1261011Y565422D1*
X1252463Y563370D1*
X1243700Y562680D1*
X1234937Y563370D1*
X1226389Y565422D1*
X1218268Y568786D1*
X1212530Y572205D1*
X1174982Y572208D1*
X1169132Y568786D1*
X1161011Y565422D1*
X1152463Y563370D1*
X1143700Y562680D1*
X1134937Y563370D1*
X1126389Y565422D1*
X1118268Y568786D1*
X1112530Y572205D1*
X1074982Y572208D1*
X1069132Y568786D1*
X1061011Y565422D1*
X1052463Y563370D1*
X1043700Y562680D1*
X1034937Y563370D1*
X1026389Y565422D1*
X1018268Y568786D1*
X1012530Y572205D1*
X974982Y572208D1*
X969132Y568786D1*
X961011Y565422D1*
X952463Y563370D1*
X943700Y562680D1*
X934937Y563370D1*
X926389Y565422D1*
X918268Y568786D1*
X912530Y572205D1*
X874982Y572208D1*
X869132Y568786D1*
X861011Y565422D1*
X852463Y563370D1*
X843700Y562680D1*
X834937Y563370D1*
X826389Y565422D1*
X818268Y568786D1*
X812530Y572205D1*
X774982Y572208D1*
X769132Y568786D1*
X761011Y565422D1*
X752463Y563370D1*
X743700Y562680D1*
X734937Y563370D1*
X726389Y565422D1*
X718268Y568786D1*
X710772Y573379D1*
X704088Y579088D1*
X698379Y585772D1*
X693786Y593268D1*
X690422Y601389D1*
X688370Y609937D1*
X687680Y618700D1*
X688370Y627463D1*
X690422Y636011D1*
X693786Y644132D1*
X698379Y651628D1*
X704088Y658312D1*
X709059Y662670D1*
X687680Y662680D1*
Y731614D1*
X581795Y837482D1*
X575943Y839050D1*
X567613Y842501D1*
X559925Y847212D1*
X553068Y853068D1*
X547212Y859925D1*
X542501Y867613D1*
X539050Y875943D1*
X536946Y884711D1*
X536238Y893700D1*
X536946Y902689D1*
X539050Y911457D1*
X542501Y919787D1*
X547212Y927475D1*
X553068Y934332D1*
X559925Y940188D1*
X567613Y944899D1*
X575943Y948350D1*
X584711Y950454D1*
X593700Y951162D1*
X602689Y950454D1*
X611457Y948350D1*
X614747Y947136D1*
X614708Y1092201D1*
X574275Y1092208D1*
Y1114707D1*
X569333Y1114708D1*
X563980Y1107465D1*
X556935Y1100420D1*
X548875Y1094564D1*
X539997Y1090041D1*
X530522Y1086962D1*
X520682Y1085404D1*
X510718D1*
X500878Y1086962D1*
X491403Y1090041D1*
X482525Y1094564D1*
X474465Y1100420D1*
X467420Y1107465D1*
X461564Y1115525D1*
X457041Y1124403D1*
X453962Y1133878D1*
X452404Y1143718D1*
Y1153682D1*
X453962Y1163522D1*
X457041Y1172997D1*
X461564Y1181875D1*
X467420Y1189935D1*
X470804Y1193804D1*
X464334Y1201380D1*
X459128Y1209875D1*
X455315Y1219080D1*
X452990Y1228768D1*
X452208Y1238700D1*
X452990Y1248632D1*
X455315Y1258320D1*
X459128Y1267525D1*
X464334Y1276020D1*
X470804Y1283596D1*
X478380Y1290066D1*
X486875Y1295272D1*
X496080Y1299085D1*
X505768Y1301410D1*
X515700Y1302192D1*
X525632Y1301410D1*
X535320Y1299085D1*
X544525Y1295272D1*
X553020Y1290066D1*
X560596Y1283596D1*
X564281Y1279553D1*
X573461Y1290192D1*
X677692D1*
Y1272716D1*
X736367Y1272587D1*
X741635Y1271753D1*
X746708Y1270105D1*
X751461Y1267683D1*
X755776Y1264548D1*
X759548Y1260776D1*
X762683Y1256461D1*
X765105Y1251708D1*
X766753Y1246635D1*
X767587Y1241367D1*
X767692Y1183582D1*
Y1142782D1*
X835000Y1075472D1*
X843700Y1076162D1*
X852689Y1075454D1*
X861457Y1073350D1*
X869787Y1069899D1*
X877475Y1065188D1*
X884332Y1059332D1*
X890188Y1052475D1*
X893667Y1046986D1*
X897212Y1052475D1*
X903068Y1059332D1*
X909925Y1065188D1*
X917613Y1069899D1*
X925943Y1073350D1*
X934711Y1075454D1*
X943700Y1076162D1*
X952689Y1075454D1*
X961457Y1073350D1*
X969787Y1069899D1*
X977475Y1065188D1*
X984332Y1059332D1*
X990188Y1052475D1*
X994899Y1044787D1*
X998350Y1036457D1*
X1000454Y1027689D1*
X1001162Y1018700D1*
X1000454Y1009711D1*
X998350Y1000943D1*
X994899Y992613D1*
X990188Y984925D1*
X984332Y978068D1*
X977475Y972212D1*
X969787Y967501D1*
X967690Y966534D1*
X967613Y944899D1*
X975943Y948350D1*
X984711Y950454D1*
X993700Y951162D1*
X1002689Y950454D1*
X1011457Y948350D1*
X1019787Y944899D1*
X1027475Y940188D1*
X1034332Y934332D1*
X1040188Y927475D1*
X1043667Y921986D1*
X1047212Y927475D1*
X1053068Y934332D1*
X1059925Y940188D1*
X1067613Y944899D1*
X1075943Y948350D1*
X1084711Y950454D1*
X1093700Y951162D1*
X1102689Y950454D1*
X1111457Y948350D1*
X1119787Y944899D1*
X1127475Y940188D1*
X1134332Y934332D1*
X1140188Y927475D1*
X1143667Y921986D1*
X1147212Y927475D1*
X1153068Y934332D1*
X1159925Y940188D1*
X1167613Y944899D1*
X1175943Y948350D1*
X1184711Y950454D1*
X1193700Y951162D1*
X1202689Y950454D1*
X1206578Y949681D1*
X1218869Y961859D1*
X1222740Y964671D1*
X1227004Y966844D1*
X1231554Y968322D1*
X1236280Y969071D1*
X1312163Y969165D1*
X2241743D1*
X2239050Y975943D1*
X2236946Y984711D1*
X2236238Y993700D1*
X2236946Y1002689D1*
X2239050Y1011457D1*
X2242501Y1019787D1*
X2247212Y1027475D1*
X2253068Y1034332D1*
X2259925Y1040188D1*
X2267613Y1044899D1*
X2275943Y1048350D1*
X2284711Y1050454D1*
X2293700Y1051162D1*
X2302689Y1050454D1*
X2311457Y1048350D1*
X2319787Y1044899D1*
X2327475Y1040188D1*
X2334332Y1034332D1*
X2340024Y1027683D1*
X2534591Y1027692D1*
X2584318Y1077390D1*
X2577847Y1078492D1*
X2570908Y1080747D1*
X2564408Y1084059D1*
X2558506Y1088347D1*
X2553347Y1093506D1*
X2549059Y1099408D1*
X2545747Y1105908D1*
X2544903Y1108196D1*
X1398816Y1108208D1*
X1393894Y1103347D1*
X1387992Y1099059D1*
X1381492Y1095747D1*
X1374553Y1093492D1*
X1367348Y1092351D1*
X1360052D1*
X1352847Y1093492D1*
X1345908Y1095747D1*
X1339408Y1099059D1*
X1333506Y1103347D1*
X1328347Y1108506D1*
X1324059Y1114408D1*
X1320747Y1120908D1*
X1318492Y1127847D1*
X1317351Y1135052D1*
Y1142348D1*
X1318492Y1149553D1*
X1320747Y1156492D1*
X1324059Y1162992D1*
X1328347Y1168894D1*
X1333506Y1174053D1*
X1339408Y1178341D1*
X1345908Y1181653D1*
X1352847Y1183908D1*
X1360052Y1185049D1*
X1367348D1*
X1374553Y1183908D1*
X1381492Y1181653D1*
X1387992Y1178341D1*
X1393894Y1174053D1*
X1398772Y1169198D1*
X2579133Y1169192D1*
X2585052Y1170049D1*
X2592348D1*
X2599553Y1168908D1*
X2606492Y1166653D1*
X2612992Y1163341D1*
X2618894Y1159053D1*
X2624053Y1153894D1*
X2628341Y1147992D1*
X2631653Y1141492D1*
X2633908Y1134553D1*
X2634967Y1128042D1*
X2794719Y1287791D1*
X2794813Y1321367D1*
X2795647Y1326635D1*
X2797295Y1331708D1*
X2799717Y1336461D1*
X2802852Y1340776D1*
X2807227Y1345299D1*
X2807780Y1350973D1*
X2809483Y1358067D1*
X2812275Y1364807D1*
X2816087Y1371027D1*
X2820825Y1376575D1*
X2826373Y1381313D1*
X2832593Y1385125D1*
X2839333Y1387917D1*
X2846427Y1389620D1*
X2853700Y1390192D1*
X2860973Y1389620D1*
X2868067Y1387917D1*
X2872204Y1386325D1*
X2872208Y1469417D1*
X2851088Y1490562D1*
X2850454Y1484711D1*
X2848350Y1475943D1*
X2844899Y1467613D1*
X2840188Y1459925D1*
X2834332Y1453068D1*
X2827475Y1447212D1*
X2819787Y1442501D1*
X2811457Y1439050D1*
X2802689Y1436946D1*
X2793700Y1436238D1*
X2784711Y1436946D1*
X2775943Y1439050D1*
X2767613Y1442501D1*
X2759925Y1447212D1*
X2753068Y1453068D1*
X2747212Y1459925D1*
X2743733Y1465414D1*
X2740188Y1459925D1*
X2734332Y1453068D1*
X2727475Y1447212D1*
X2719787Y1442501D1*
X2711457Y1439050D1*
X2702689Y1436946D1*
X2693700Y1436238D1*
X2684711Y1436946D1*
X2675943Y1439050D1*
X2667613Y1442501D1*
X2659925Y1447212D1*
X2653068Y1453068D1*
X2647212Y1459925D1*
X2643733Y1465414D1*
X2640188Y1459925D1*
X2634332Y1453068D1*
X2627475Y1447212D1*
X2619787Y1442501D1*
X2611457Y1439050D1*
X2602689Y1436946D1*
X2593700Y1436238D1*
X2584711Y1436946D1*
X2575943Y1439050D1*
X2569197Y1441771D1*
X2568817Y1433930D1*
X2568347Y1431573D1*
X2570908Y1431653D1*
X2577847Y1433908D1*
X2585052Y1435049D1*
X2592348D1*
X2599553Y1433908D1*
X2606492Y1431653D1*
X2612992Y1428341D1*
X2618894Y1424053D1*
X2624053Y1418894D1*
X2628341Y1412992D1*
X2631653Y1406492D1*
X2633908Y1399553D1*
X2635049Y1392348D1*
Y1385052D1*
X2633908Y1377847D1*
X2631653Y1370908D1*
X2628341Y1364408D1*
X2624053Y1358506D1*
X2618894Y1353347D1*
X2612992Y1349059D1*
X2606492Y1345747D1*
X2599553Y1343492D1*
X2595761Y1342755D1*
X2470093Y1253148D1*
X2464269Y1250239D1*
X2458060Y1248277D1*
X2451609Y1247310D1*
X2301718Y1247208D1*
X1395445Y1247336D1*
X1389014Y1248354D1*
X1382822Y1250366D1*
X1377020Y1253322D1*
X1371753Y1257149D1*
X1343378Y1285344D1*
X1281491Y1347231D1*
X627486Y1347208D1*
X619787Y1342501D1*
X611457Y1339050D1*
X602689Y1336946D1*
X593700Y1336238D1*
X584711Y1336946D1*
X575943Y1339050D1*
X567613Y1342501D1*
X559925Y1347212D1*
X553068Y1353068D1*
X547212Y1359925D1*
X542501Y1367613D1*
X539050Y1375943D1*
X536946Y1384711D1*
X536238Y1393700D1*
X536946Y1402689D1*
X539050Y1411457D1*
X542501Y1419787D1*
X547212Y1427475D1*
X553068Y1434332D1*
X559925Y1440188D1*
X567613Y1444899D1*
X575943Y1448350D1*
X584711Y1450454D1*
X593700Y1451162D1*
X602689Y1450454D1*
X611457Y1448350D1*
X619787Y1444899D1*
X627475Y1440188D1*
X634332Y1434332D1*
X638038Y1430202D1*
X1301955Y1430064D1*
X1308386Y1429046D1*
X1314578Y1427034D1*
X1320380Y1424078D1*
X1325647Y1420251D1*
X1354022Y1392056D1*
X1415909Y1330169D1*
X1432323Y1330192D1*
X1432351Y1337348D1*
X1433492Y1344553D1*
X1435747Y1351492D1*
X1439059Y1357992D1*
X1443347Y1363894D1*
X1448506Y1369053D1*
X1454408Y1373341D1*
X1460908Y1376653D1*
X1467847Y1378908D1*
X1475052Y1380049D1*
X1482348D1*
X1489553Y1378908D1*
X1496492Y1376653D1*
X1502992Y1373341D1*
X1508894Y1369053D1*
X1513772Y1364198D1*
X1562418Y1364192D1*
X1562351Y1372348D1*
X1563492Y1379553D1*
X1565747Y1386492D1*
X1569059Y1392992D1*
X1573347Y1398894D1*
X1578506Y1404053D1*
X1584408Y1408341D1*
X1590908Y1411653D1*
X1597847Y1413908D1*
X1605052Y1415049D1*
X1612348D1*
X1619553Y1413908D1*
X1626492Y1411653D1*
X1632992Y1408341D1*
X1638894Y1404053D1*
X1643772Y1399198D1*
X1694483Y1399333D1*
X1692780Y1406427D1*
X1692208Y1413700D1*
X1692780Y1420973D1*
X1694483Y1428067D1*
X1697275Y1434807D1*
X1698174Y1436412D1*
X1689192Y1436415D1*
X1680286Y1437826D1*
X1671710Y1440612D1*
X1663676Y1444706D1*
X1656381Y1450006D1*
X1650006Y1456381D1*
X1644706Y1463676D1*
X1643733Y1465414D1*
X1640188Y1459925D1*
X1634332Y1453068D1*
X1627475Y1447212D1*
X1619787Y1442501D1*
X1611457Y1439050D1*
X1602689Y1436946D1*
X1593700Y1436238D1*
X1584711Y1436946D1*
X1575943Y1439050D1*
X1567613Y1442501D1*
X1559925Y1447212D1*
X1553068Y1453068D1*
X1547212Y1459925D1*
X1543733Y1465414D1*
X1540188Y1459925D1*
X1534332Y1453068D1*
X1527475Y1447212D1*
X1519787Y1442501D1*
X1511457Y1439050D1*
X1502689Y1436946D1*
X1493700Y1436238D1*
X1484711Y1436946D1*
X1475943Y1439050D1*
X1467613Y1442501D1*
X1459925Y1447212D1*
X1453068Y1453068D1*
X1447212Y1459925D1*
X1443733Y1465414D1*
X1440188Y1459925D1*
X1434332Y1453068D1*
X1427475Y1447212D1*
X1419787Y1442501D1*
X1411457Y1439050D1*
X1402689Y1436946D1*
X1393700Y1436238D1*
X1384711Y1436946D1*
X1375943Y1439050D1*
X1367613Y1442501D1*
X1359925Y1447212D1*
X1353068Y1453068D1*
X1347212Y1459925D1*
X1343733Y1465414D1*
X1340188Y1459925D1*
X1334332Y1453068D1*
X1327475Y1447212D1*
X1319787Y1442501D1*
X1311457Y1439050D1*
X1302689Y1436946D1*
X1293700Y1436238D1*
X1284711Y1436946D1*
X1275943Y1439050D1*
X1267613Y1442501D1*
X1259925Y1447212D1*
X1253068Y1453068D1*
X1247212Y1459925D1*
X1243733Y1465414D1*
X1240188Y1459925D1*
X1234332Y1453068D1*
X1227475Y1447212D1*
X1219787Y1442501D1*
X1211457Y1439050D1*
X1202689Y1436946D1*
X1193700Y1436238D1*
X1184711Y1436946D1*
X1175943Y1439050D1*
X1167613Y1442501D1*
X1159925Y1447212D1*
X1153068Y1453068D1*
X1147212Y1459925D1*
X1143733Y1465414D1*
X1140188Y1459925D1*
X1134332Y1453068D1*
X1127475Y1447212D1*
X1119787Y1442501D1*
X1111457Y1439050D1*
X1102689Y1436946D1*
X1093700Y1436238D1*
X1084711Y1436946D1*
X1075943Y1439050D1*
X1067613Y1442501D1*
X1059925Y1447212D1*
X1053068Y1453068D1*
X1047212Y1459925D1*
X1043733Y1465414D1*
X1040188Y1459925D1*
X1034332Y1453068D1*
X1027475Y1447212D1*
X1019787Y1442501D1*
X1011457Y1439050D1*
X1002689Y1436946D1*
X993700Y1436238D1*
X984711Y1436946D1*
X975943Y1439050D1*
X967613Y1442501D1*
X959925Y1447212D1*
X953068Y1453068D1*
X947212Y1459925D1*
X943733Y1465414D1*
X940188Y1459925D1*
X934332Y1453068D1*
X927475Y1447212D1*
X919787Y1442501D1*
X911457Y1439050D1*
X902689Y1436946D1*
X893700Y1436238D1*
X884711Y1436946D1*
X875943Y1439050D1*
X867613Y1442501D1*
X859925Y1447212D1*
X853068Y1453068D1*
X847212Y1459925D1*
X843733Y1465414D1*
X840188Y1459925D1*
X834332Y1453068D1*
X827475Y1447212D1*
X819787Y1442501D1*
X811457Y1439050D1*
X802689Y1436946D1*
X793700Y1436238D1*
X784711Y1436946D1*
X775943Y1439050D1*
X767613Y1442501D1*
X759925Y1447212D1*
X753068Y1453068D1*
X747212Y1459925D1*
X743733Y1465414D1*
X740188Y1459925D1*
X734332Y1453068D1*
X727475Y1447212D1*
X719787Y1442501D1*
X711457Y1439050D1*
X702689Y1436946D1*
X693700Y1436238D1*
X684711Y1436946D1*
X675943Y1439050D1*
X667613Y1442501D1*
X659925Y1447212D1*
X653068Y1453068D1*
X647212Y1459925D1*
X642501Y1467613D1*
X639050Y1475943D1*
X636946Y1484711D1*
X636238Y1493700D1*
X636946Y1502689D1*
X639050Y1511457D1*
X642501Y1519787D1*
X647212Y1527475D1*
X653068Y1534332D1*
X656838Y1537754D1*
X660132Y1543088D1*
X664361Y1548039D1*
X706753Y1590251D1*
X712020Y1594078D1*
X717822Y1597034D1*
X724014Y1599046D1*
X730445Y1600064D1*
X770445Y1600192D1*
X847202D1*
X847336Y1611955D1*
X848354Y1618386D1*
X850366Y1624578D1*
X853322Y1630380D1*
X857149Y1635647D1*
X877198Y1655877D1*
X877208Y1681510D1*
X762149Y1796753D1*
X758322Y1802020D1*
X755362Y1807834D1*
X744873Y1818848D1*
X697149Y1866753D1*
X693322Y1872020D1*
X690366Y1877822D1*
X688354Y1884014D1*
X687336Y1890445D1*
X687208Y1930445D1*
Y1992992D1*
X682348Y1992351D1*
X651141Y1992208D1*
X586155D1*
X540211Y1946272D1*
X540192Y1527473D1*
X544899Y1519787D1*
X548350Y1511457D1*
X550454Y1502689D1*
X551162Y1493700D1*
X550454Y1484711D1*
X548350Y1475943D1*
X544899Y1467613D1*
X540188Y1459925D1*
X534332Y1453068D1*
X527475Y1447212D1*
X519787Y1442501D1*
X511457Y1439050D1*
X502689Y1436946D1*
X493700Y1436238D1*
X484711Y1436946D1*
X475943Y1439050D1*
X467613Y1442501D1*
X459925Y1447212D1*
X453068Y1453068D1*
X447212Y1459925D1*
X442501Y1467613D1*
X441195Y1470446D1*
X441200Y553854D1*
X444250Y526776D1*
X452351Y503623D1*
X465412Y482824D1*
X482773Y465452D1*
X503564Y452379D1*
X526743Y444261D1*
X553855Y441199D1*
X3698128Y441200D1*
X3725191Y444250D1*
X3748343Y452351D1*
X3769142Y465411D1*
X3786514Y482772D1*
X3799587Y503563D1*
X3807706Y526742D1*
X3810767Y553841D1*
Y2517011D1*
X3807717Y2544089D1*
X3799616Y2567241D1*
X3786556Y2588040D1*
X3769196Y2605411D1*
X3748405Y2618483D1*
X3725226Y2626602D1*
X3698127Y2629663D1*
X3547427D1*
X3551886Y2625381D1*
X3554699Y2621510D1*
X3556871Y2617247D1*
X3558350Y2612696D1*
X3559098Y2607970D1*
X3559192Y2532087D1*
Y2243829D1*
X3564053Y2238894D1*
X3568341Y2232992D1*
X3571653Y2226492D1*
X3573908Y2219553D1*
X3575049Y2212348D1*
Y2205052D1*
X3573908Y2197847D1*
X3571653Y2190908D1*
X3568341Y2184408D1*
X3564053Y2178506D1*
X3558894Y2173347D1*
X3552992Y2169059D1*
X3546492Y2165747D1*
X3539553Y2163492D1*
X3532348Y2162351D1*
X3525052D1*
X3517847Y2163492D1*
X3510908Y2165747D1*
X3504408Y2169059D1*
X3498506Y2173347D1*
X3493347Y2178506D1*
X3489059Y2184408D1*
X3485747Y2190908D1*
X3483492Y2197847D1*
X3482351Y2205052D1*
Y2212348D1*
X3483492Y2219553D1*
X3485747Y2226492D1*
X3489059Y2232992D1*
X3493347Y2238894D1*
X3498202Y2243772D1*
X3498208Y2575113D1*
X1244205Y2575086D1*
X1241247Y2569408D1*
X1236958Y2563506D1*
X1231800Y2558347D1*
X1225898Y2554059D1*
X1219397Y2550747D1*
X1212459Y2548492D1*
X1205253Y2547351D1*
X1197958D1*
X1190752Y2548492D1*
X1183814Y2550747D1*
X1177313Y2554059D1*
X1171411Y2558347D1*
X1166253Y2563506D1*
X1161964Y2569408D1*
X1158652Y2575908D1*
X1156398Y2582847D1*
X1155257Y2590052D1*
Y2597348D1*
X1156398Y2604553D1*
X1158652Y2611492D1*
X1161964Y2617992D1*
X1166253Y2623894D1*
X1171411Y2629053D1*
X1172184Y2629662D1*
X553839Y2629665D1*
X526776Y2626615D1*
X503623Y2618514D1*
X482824Y2605454D1*
X465453Y2588092D1*
X452380Y2567301D1*
X444262Y2544122D1*
X441202Y2517023D1*
X441201Y1517087D1*
X444706Y1523724D1*
X447203Y1527461D1*
X447351Y1969159D1*
X448492Y1976364D1*
X450747Y1983303D1*
X454059Y1989803D1*
X458347Y1995705D1*
X480312Y2017873D1*
X536695Y2074053D1*
X542597Y2078341D1*
X549097Y2081653D1*
X556036Y2083908D1*
X563241Y2085049D1*
X594448Y2085192D1*
X603957D1*
X527040Y2234260D1*
X507208Y2234275D1*
X507351Y2372348D1*
X508492Y2379553D1*
X510747Y2386492D1*
X514059Y2392992D1*
X518347Y2398894D1*
X523506Y2404053D1*
X529408Y2408341D1*
X535922Y2411658D1*
X525737Y2413704D1*
X517500Y2416027D1*
X509471Y2418989D1*
X501699Y2422572D1*
X494232Y2426753D1*
X487116Y2431508D1*
X480396Y2436806D1*
X474111Y2442615D1*
X468302Y2448900D1*
X463004Y2455620D1*
X458249Y2462736D1*
X454068Y2470203D1*
X450485Y2477975D1*
X447523Y2486004D1*
X445200Y2494241D1*
X443530Y2502634D1*
X442524Y2511133D1*
X442188Y2519684D1*
X442524Y2528236D1*
X443530Y2536734D1*
X445200Y2545128D1*
X447523Y2553365D1*
X450485Y2561394D1*
X454068Y2569166D1*
X458249Y2576632D1*
X463004Y2583748D1*
X468302Y2590469D1*
X474136Y2596776D1*
X480396Y2602563D1*
X487116Y2607861D1*
X494232Y2612615D1*
X501699Y2616797D1*
X509471Y2620380D1*
X517500Y2623342D1*
X525737Y2625665D1*
X534130Y2627335D1*
X542629Y2628340D1*
X551180Y2628676D1*
X559732Y2628340D1*
X568230Y2627335D1*
X576624Y2625665D1*
X584861Y2623342D1*
X592890Y2620380D1*
X600662Y2616797D1*
X608129Y2612615D1*
X615244Y2607861D1*
X621965Y2602563D1*
X628249Y2596753D1*
X634059Y2590469D1*
X639357Y2583748D1*
X644111Y2576632D1*
X648293Y2569166D1*
X651876Y2561394D1*
X654838Y2553365D1*
X657161Y2545128D1*
X658831Y2536734D1*
X659836Y2528236D1*
X660172Y2519684D1*
X659836Y2511133D1*
X658831Y2502634D1*
X657161Y2494241D1*
X654838Y2486004D1*
X651876Y2477975D1*
X648293Y2470203D1*
X644111Y2462736D1*
X639357Y2455620D1*
X634059Y2448900D1*
X628249Y2442615D1*
X621965Y2436806D1*
X615244Y2431508D1*
X608129Y2426753D1*
X600662Y2422572D1*
X592890Y2418989D1*
X584861Y2416027D1*
X576624Y2413704D1*
X569771Y2412341D1*
X574807Y2410125D1*
X581027Y2406313D1*
X586575Y2401575D1*
X591313Y2396027D1*
X595125Y2389807D1*
X597917Y2383067D1*
X599620Y2375973D1*
X600192Y2368700D1*
Y2362205D1*
X602917Y2355567D1*
X604712Y2347694D1*
X610192Y2347692D1*
Y2254091D1*
X668987Y2140174D1*
X731955Y2140064D1*
X738386Y2139046D1*
X744578Y2137034D1*
X750380Y2134078D1*
X755647Y2130251D1*
X760251Y2125647D1*
X764078Y2120380D1*
X767034Y2114578D1*
X769046Y2108386D1*
X770064Y2101955D1*
X770192Y2061955D1*
Y1910918D1*
X825251Y1855647D1*
X829078Y1850380D1*
X832038Y1844566D1*
X842527Y1833552D1*
X950251Y1725647D1*
X954078Y1720380D1*
X957034Y1714578D1*
X959046Y1708386D1*
X960064Y1701955D1*
X960192Y1661955D1*
X960064Y1635445D1*
X959046Y1629014D1*
X957034Y1622822D1*
X954078Y1617020D1*
X950251Y1611753D1*
X930202Y1591523D1*
X930192Y1558687D1*
X935584Y1562836D1*
X961026Y1594088D1*
X964495Y1597384D1*
X968437Y1600097D1*
X972754Y1602160D1*
X1083178Y1644631D1*
X1083225Y1662680D1*
X992680D1*
Y1726662D1*
X962852Y1756624D1*
X959717Y1760939D1*
X957295Y1765692D1*
X955647Y1770765D1*
X954813Y1776033D1*
X954708Y1804644D1*
X924673Y1834639D1*
X918250Y1833725D1*
X909150D1*
X900163Y1835149D1*
X891509Y1837961D1*
X883401Y1842092D1*
X876040Y1847440D1*
X869605Y1853874D1*
X864257Y1861236D1*
X860126Y1869344D1*
X857314Y1877998D1*
X855891Y1886985D1*
Y1896084D1*
X857314Y1905072D1*
X860126Y1913726D1*
X864257Y1921833D1*
X869605Y1929195D1*
X871163Y1930930D1*
X866787Y1936190D1*
X862032Y1943949D1*
X858550Y1952355D1*
X856426Y1961203D1*
X855712Y1970275D1*
X856426Y1979346D1*
X858550Y1988194D1*
X862032Y1996601D1*
X866787Y2004359D1*
X872110Y2010712D1*
X855712D1*
Y2126688D1*
X971688D1*
Y2010712D1*
X955289D1*
X960683Y2004256D1*
X984792Y2004162D1*
X990061Y2003328D1*
X995133Y2001680D1*
X999886Y1999258D1*
X1004201Y1996123D1*
X1045136Y1955337D1*
X1059548Y1940776D1*
X1062683Y1936461D1*
X1065105Y1931708D1*
X1066753Y1926635D1*
X1067587Y1921367D1*
X1067692Y1871369D1*
X1074132Y1868614D1*
X1081628Y1864021D1*
X1083206Y1862776D1*
X1083208Y2080398D1*
X857458Y2289405D1*
X852463Y2288370D1*
X843700Y2287680D1*
X834937Y2288370D1*
X826389Y2290422D1*
X818268Y2293786D1*
X810772Y2298379D1*
X804088Y2304088D1*
X799730Y2309059D1*
X799720Y2287680D1*
X687681D1*
X687680Y2499720D1*
X799720D1*
Y2490210D1*
X812418Y2490192D1*
X818268Y2493614D1*
X826389Y2496978D1*
X834937Y2499030D1*
X843700Y2499720D1*
X852463Y2499030D1*
X861011Y2496978D1*
X869132Y2493614D1*
X876628Y2489021D1*
X883312Y2483312D1*
X889021Y2476628D1*
X893693Y2468961D1*
X898379Y2476628D1*
X904088Y2483312D1*
X910772Y2489021D1*
X918268Y2493614D1*
X926389Y2496978D1*
X934937Y2499030D1*
X943700Y2499720D1*
X952463Y2499030D1*
X961011Y2496978D1*
X969132Y2493614D1*
X974870Y2490195D1*
X1012418Y2490192D1*
X1018268Y2493614D1*
X1026389Y2496978D1*
X1034937Y2499030D1*
X1043700Y2499720D1*
X1052463Y2499030D1*
X1061011Y2496978D1*
X1069132Y2493614D1*
X1074870Y2490195D1*
X1112418Y2490192D1*
X1118268Y2493614D1*
X1126389Y2496978D1*
X1134937Y2499030D1*
X1143700Y2499720D1*
X1152463Y2499030D1*
X1158117Y2497794D1*
X1160059Y2502543D1*
X1162559Y2506623D1*
X1165666Y2510261D1*
X1169305Y2513369D1*
X1173384Y2515869D1*
X1177805Y2517700D1*
X1182458Y2518817D1*
X1187228Y2519192D1*
X1523570D1*
X1528506Y2524053D1*
X1534408Y2528341D1*
X1540908Y2531653D1*
X1547847Y2533908D1*
X1555052Y2535049D1*
X1562348D1*
X1569553Y2533908D1*
X1576492Y2531653D1*
X1582992Y2528341D1*
X1588894Y2524053D1*
X1594053Y2518894D1*
X1598341Y2512992D1*
X1601653Y2506492D1*
X1603908Y2499553D1*
X1605049Y2492348D1*
Y2485052D1*
X1604372Y2480182D1*
X1979895Y2480192D1*
X1984408Y2483341D1*
X1990908Y2486653D1*
X1997847Y2488908D1*
X2005052Y2490049D1*
X2036259Y2490192D1*
X2062680Y2490201D1*
Y2499720D1*
X2071867D1*
X2062687Y2387680D2*
X2062680Y2397190D1*
X2037494Y2397208D1*
X2032992Y2394059D1*
X2026492Y2390747D1*
X2019553Y2388492D1*
X2012348Y2387351D1*
X1981141Y2387208D1*
X1920461D1*
X1925125Y2379807D1*
X1927917Y2373067D1*
X1929620Y2365973D1*
X1930192Y2358700D1*
X1929620Y2351427D1*
X1927917Y2344333D1*
X1925125Y2337593D1*
X1921313Y2331373D1*
X1916575Y2325825D1*
X1911027Y2321087D1*
X1904807Y2317275D1*
X1898067Y2314483D1*
X1890973Y2312780D1*
X1883700Y2312208D1*
X1880465Y2312335D1*
X1868503Y2300514D1*
X1864632Y2297701D1*
X1860369Y2295529D1*
X1855818Y2294050D1*
X1851092Y2293302D1*
X1775209Y2293208D1*
X1530658D1*
X1538319Y2290125D1*
X1544539Y2286313D1*
X1550087Y2281575D1*
X1554825Y2276027D1*
X1558637Y2269807D1*
X1561429Y2263067D1*
X1563132Y2255973D1*
X1563704Y2248700D1*
X1563132Y2241427D1*
X1561429Y2234333D1*
X1558637Y2227593D1*
X1554825Y2221373D1*
X1550087Y2215825D1*
X1545190Y2210928D1*
X1545192Y2152930D1*
X1572960Y2125190D1*
X1580312Y2131062D1*
X1603885Y2154635D1*
X1597593Y2157275D1*
X1591373Y2161087D1*
X1585825Y2165825D1*
X1581087Y2171373D1*
X1577275Y2177593D1*
X1574483Y2184333D1*
X1572780Y2191427D1*
X1572208Y2198700D1*
X1572780Y2205973D1*
X1574483Y2213067D1*
X1577275Y2219807D1*
X1581087Y2226027D1*
X1585825Y2231575D1*
X1591373Y2236313D1*
X1597593Y2240125D1*
X1604333Y2242917D1*
X1611427Y2244620D1*
X1618700Y2245192D1*
X1625973Y2244620D1*
X1628952Y2244027D1*
X1699512Y2259681D1*
X1706003Y2260192D1*
X1851514D1*
X1886753Y2295251D1*
X1892020Y2299078D1*
X1897822Y2302034D1*
X1904014Y2304046D1*
X1910445Y2305064D1*
X1950445Y2305192D1*
X2062655D1*
X2062681Y2387689D1*
X2249870Y2397205D2*
X2243961Y2393707D1*
X2251628Y2389021D1*
X2258312Y2383312D1*
X2264021Y2376628D1*
X2268693Y2368961D1*
X2273379Y2376628D1*
X2279088Y2383312D1*
X2285772Y2389021D1*
X2293439Y2393693D1*
X2287530Y2397205D1*
X2249982Y2397208D1*
X2349870Y2397205D2*
X2343961Y2393707D1*
X2351628Y2389021D1*
X2358312Y2383312D1*
X2364021Y2376628D1*
X2368693Y2368961D1*
X2373379Y2376628D1*
X2379088Y2383312D1*
X2385772Y2389021D1*
X2393439Y2393693D1*
X2387530Y2397205D1*
X2349982Y2397208D1*
X893693Y2418439D2*
X889021Y2410772D1*
X883312Y2404088D1*
X876628Y2398379D1*
X868961Y2393707D1*
X876628Y2389021D1*
X883312Y2383312D1*
X889021Y2376628D1*
X893693Y2368961D1*
X898379Y2376628D1*
X904088Y2383312D1*
X910772Y2389021D1*
X918439Y2393693D1*
X910772Y2398379D1*
X904088Y2404088D1*
X898379Y2410772D1*
X893707Y2418439D1*
X974870Y2397205D2*
X968961Y2393707D1*
X976628Y2389021D1*
X983312Y2383312D1*
X989021Y2376628D1*
X993693Y2368961D1*
X998379Y2376628D1*
X1004088Y2383312D1*
X1010772Y2389021D1*
X1018439Y2393693D1*
X1012530Y2397205D1*
X974982Y2397208D1*
X1074870Y2397205D2*
X1068961Y2393707D1*
X1076628Y2389021D1*
X1083312Y2383312D1*
X1089021Y2376628D1*
X1093693Y2368961D1*
X1098379Y2376628D1*
X1104088Y2383312D1*
X1110772Y2389021D1*
X1118439Y2393693D1*
X1112530Y2397205D1*
X1074982Y2397208D1*
X1274870Y2397205D2*
X1268961Y2393707D1*
X1276628Y2389021D1*
X1283312Y2383312D1*
X1289021Y2376628D1*
X1293693Y2368961D1*
X1298379Y2376628D1*
X1304088Y2383312D1*
X1310772Y2389021D1*
X1318439Y2393693D1*
X1312530Y2397205D1*
X1274982Y2397208D1*
X868961Y668693D2*
X874870Y665195D1*
X912418Y665192D1*
X918439Y668693D1*
X910772Y673379D1*
X904088Y679088D1*
X898379Y685772D1*
X893707Y693439D1*
X889021Y685772D1*
X883312Y679088D1*
X876628Y673379D1*
X868961Y668707D1*
X968961Y668693D2*
X974870Y665195D1*
X1012418Y665192D1*
X1018439Y668693D1*
X1010772Y673379D1*
X1004088Y679088D1*
X998379Y685772D1*
X993707Y693439D1*
X989021Y685772D1*
X983312Y679088D1*
X976628Y673379D1*
X968961Y668707D1*
X1068961Y668693D2*
X1074870Y665195D1*
X1112418Y665192D1*
X1118439Y668693D1*
X1110772Y673379D1*
X1104088Y679088D1*
X1098379Y685772D1*
X1093707Y693439D1*
X1089021Y685772D1*
X1083312Y679088D1*
X1076628Y673379D1*
X1068961Y668707D1*
X1168961Y668693D2*
X1174870Y665195D1*
X1212418Y665192D1*
X1218439Y668693D1*
X1210772Y673379D1*
X1204088Y679088D1*
X1198379Y685772D1*
X1193707Y693439D1*
X1189021Y685772D1*
X1183312Y679088D1*
X1176628Y673379D1*
X1168961Y668707D1*
X1268961Y668693D2*
X1274870Y665195D1*
X1312418Y665192D1*
X1318439Y668693D1*
X1310772Y673379D1*
X1304088Y679088D1*
X1298379Y685772D1*
X1293707Y693439D1*
X1289021Y685772D1*
X1283312Y679088D1*
X1276628Y673379D1*
X1268961Y668707D1*
X1368961Y668693D2*
X1374870Y665195D1*
X1412418Y665192D1*
X1418439Y668693D1*
X1410772Y673379D1*
X1404088Y679088D1*
X1398379Y685772D1*
X1393707Y693439D1*
X1389021Y685772D1*
X1383312Y679088D1*
X1376628Y673379D1*
X1368961Y668707D1*
X1468961Y668693D2*
X1474870Y665195D1*
X1612463Y665192D1*
X1618439Y668693D1*
X1610772Y673379D1*
X1604088Y679088D1*
X1598379Y685772D1*
X1593786Y693268D1*
X1590422Y701389D1*
X1588370Y709937D1*
X1587680Y718700D1*
X1588370Y727463D1*
X1590422Y736011D1*
X1593786Y744132D1*
X1598379Y751628D1*
X1604088Y758312D1*
X1610772Y764021D1*
X1618268Y768614D1*
X1626389Y771978D1*
X1634937Y774030D1*
X1643700Y774720D1*
X1652463Y774030D1*
X1661011Y771978D1*
X1669132Y768614D1*
X1676628Y764021D1*
X1683312Y758312D1*
X1689021Y751628D1*
X1693693Y743961D1*
X1698379Y751628D1*
X1704088Y758312D1*
X1710772Y764021D1*
X1718268Y768614D1*
X1726389Y771978D1*
X1734937Y774030D1*
X1743700Y774720D1*
X1752463Y774030D1*
X1761011Y771978D1*
X1769132Y768614D1*
X1776628Y764021D1*
X1783312Y758312D1*
X1789021Y751628D1*
X1793693Y743961D1*
X1798379Y751628D1*
X1804088Y758312D1*
X1810772Y764021D1*
X1818268Y768614D1*
X1826389Y771978D1*
X1834937Y774030D1*
X1843700Y774720D1*
X1852463Y774030D1*
X1861011Y771978D1*
X1869132Y768614D1*
X1876628Y764021D1*
X1883312Y758312D1*
X1889021Y751628D1*
X1893693Y743961D1*
X1898379Y751628D1*
X1904088Y758312D1*
X1910772Y764021D1*
X1918268Y768614D1*
X1926389Y771978D1*
X1934937Y774030D1*
X1943700Y774720D1*
X1952463Y774030D1*
X1961011Y771978D1*
X1969132Y768614D1*
X1976628Y764021D1*
X1983312Y758312D1*
X1987670Y753341D1*
X1987680Y774720D1*
X2091422D1*
X2060985Y785986D1*
X2056806Y788316D1*
X2053043Y791271D1*
X2049788Y794779D1*
X2047123Y798752D1*
X2041924Y811595D1*
X2028329Y847849D1*
X2023724Y844706D1*
X2015690Y840612D1*
X2007114Y837826D1*
X1998208Y836415D1*
X1989192D1*
X1980286Y837826D1*
X1971710Y840612D1*
X1963676Y844706D1*
X1956381Y850006D1*
X1950006Y856381D1*
X1944706Y863676D1*
X1943733Y865414D1*
X1940188Y859925D1*
X1934332Y853068D1*
X1927475Y847212D1*
X1919787Y842501D1*
X1911457Y839050D1*
X1902689Y836946D1*
X1893700Y836238D1*
X1884711Y836946D1*
X1875943Y839050D1*
X1867613Y842501D1*
X1859925Y847212D1*
X1853068Y853068D1*
X1847212Y859925D1*
X1843733Y865414D1*
X1840188Y859925D1*
X1834332Y853068D1*
X1827475Y847212D1*
X1819787Y842501D1*
X1811457Y839050D1*
X1802689Y836946D1*
X1793700Y836238D1*
X1784711Y836946D1*
X1775943Y839050D1*
X1767613Y842501D1*
X1759925Y847212D1*
X1753068Y853068D1*
X1747212Y859925D1*
X1743733Y865414D1*
X1740188Y859925D1*
X1734332Y853068D1*
X1727475Y847212D1*
X1719787Y842501D1*
X1711457Y839050D1*
X1702689Y836946D1*
X1693700Y836238D1*
X1684711Y836946D1*
X1675943Y839050D1*
X1667613Y842501D1*
X1659925Y847212D1*
X1653068Y853068D1*
X1647212Y859925D1*
X1643733Y865414D1*
X1640188Y859925D1*
X1634332Y853068D1*
X1627475Y847212D1*
X1619787Y842501D1*
X1611457Y839050D1*
X1602689Y836946D1*
X1593700Y836238D1*
X1584711Y836946D1*
X1575943Y839050D1*
X1567613Y842501D1*
X1559925Y847212D1*
X1553068Y853068D1*
X1547212Y859925D1*
X1543733Y865414D1*
X1540188Y859925D1*
X1534332Y853068D1*
X1527475Y847212D1*
X1519787Y842501D1*
X1511457Y839050D1*
X1502689Y836946D1*
X1493700Y836238D1*
X1484711Y836946D1*
X1475943Y839050D1*
X1467613Y842501D1*
X1459925Y847212D1*
X1453068Y853068D1*
X1447212Y859925D1*
X1443733Y865414D1*
X1440188Y859925D1*
X1434332Y853068D1*
X1427475Y847212D1*
X1419787Y842501D1*
X1411457Y839050D1*
X1402689Y836946D1*
X1393700Y836238D1*
X1384711Y836946D1*
X1375943Y839050D1*
X1367613Y842501D1*
X1359925Y847212D1*
X1353068Y853068D1*
X1347212Y859925D1*
X1343733Y865414D1*
X1340188Y859925D1*
X1334332Y853068D1*
X1327475Y847212D1*
X1319787Y842501D1*
X1311457Y839050D1*
X1302689Y836946D1*
X1293700Y836238D1*
X1284711Y836946D1*
X1275943Y839050D1*
X1267613Y842501D1*
X1259925Y847212D1*
X1253068Y853068D1*
X1247212Y859925D1*
X1243733Y865414D1*
X1240188Y859925D1*
X1234332Y853068D1*
X1227475Y847212D1*
X1219787Y842501D1*
X1211457Y839050D1*
X1202689Y836946D1*
X1193700Y836238D1*
X1184711Y836946D1*
X1175943Y839050D1*
X1167613Y842501D1*
X1159925Y847212D1*
X1153068Y853068D1*
X1147212Y859925D1*
X1143733Y865414D1*
X1140188Y859925D1*
X1134332Y853068D1*
X1127475Y847212D1*
X1119787Y842501D1*
X1111457Y839050D1*
X1102689Y836946D1*
X1093700Y836238D1*
X1084711Y836946D1*
X1075943Y839050D1*
X1067613Y842501D1*
X1059925Y847212D1*
X1053068Y853068D1*
X1047212Y859925D1*
X1043733Y865414D1*
X1040188Y859925D1*
X1034332Y853068D1*
X1027475Y847212D1*
X1019787Y842501D1*
X1011457Y839050D1*
X1002689Y836946D1*
X993700Y836238D1*
X984711Y836946D1*
X975943Y839050D1*
X967613Y842501D1*
X959925Y847212D1*
X953068Y853068D1*
X947212Y859925D1*
X943733Y865414D1*
X940188Y859925D1*
X934332Y853068D1*
X927475Y847212D1*
X919787Y842501D1*
X911457Y839050D1*
X902689Y836946D1*
X893700Y836238D1*
X884711Y836946D1*
X875943Y839050D1*
X867613Y842501D1*
X859925Y847212D1*
X853068Y853068D1*
X847212Y859925D1*
X843733Y865414D1*
X840188Y859925D1*
X834332Y853068D1*
X827475Y847212D1*
X819787Y842501D1*
X811457Y839050D1*
X802689Y836946D1*
X793700Y836238D1*
X784711Y836946D1*
X775943Y839050D1*
X767613Y842501D1*
X759925Y847212D1*
X753068Y853068D1*
X747212Y859925D1*
X743733Y865414D1*
X740188Y859925D1*
X734332Y853068D1*
X727475Y847212D1*
X719787Y842501D1*
X711457Y839050D1*
X702689Y836946D1*
X693700Y836238D1*
X684711Y836946D1*
X675943Y839050D1*
X667613Y842501D1*
X659925Y847212D1*
X653068Y853068D1*
X647212Y859925D1*
X643733Y865414D1*
X642352Y863163D1*
X730789Y774734D1*
X799720Y774720D1*
Y753368D1*
X804088Y758312D1*
X810772Y764021D1*
X818268Y768614D1*
X826389Y771978D1*
X834937Y774030D1*
X843700Y774720D1*
X852463Y774030D1*
X861011Y771978D1*
X869132Y768614D1*
X876628Y764021D1*
X883312Y758312D1*
X889021Y751628D1*
X893693Y743961D1*
X898379Y751628D1*
X904088Y758312D1*
X910772Y764021D1*
X918268Y768614D1*
X926389Y771978D1*
X934937Y774030D1*
X943700Y774720D1*
X952463Y774030D1*
X961011Y771978D1*
X969132Y768614D1*
X976628Y764021D1*
X983312Y758312D1*
X989021Y751628D1*
X993693Y743961D1*
X998379Y751628D1*
X1004088Y758312D1*
X1010772Y764021D1*
X1018268Y768614D1*
X1026389Y771978D1*
X1034937Y774030D1*
X1043700Y774720D1*
X1052463Y774030D1*
X1061011Y771978D1*
X1069132Y768614D1*
X1076628Y764021D1*
X1083312Y758312D1*
X1089021Y751628D1*
X1093693Y743961D1*
X1098379Y751628D1*
X1104088Y758312D1*
X1110772Y764021D1*
X1118268Y768614D1*
X1126389Y771978D1*
X1134937Y774030D1*
X1143700Y774720D1*
X1152463Y774030D1*
X1161011Y771978D1*
X1169132Y768614D1*
X1176628Y764021D1*
X1183312Y758312D1*
X1189021Y751628D1*
X1193693Y743961D1*
X1198379Y751628D1*
X1204088Y758312D1*
X1210772Y764021D1*
X1218268Y768614D1*
X1226389Y771978D1*
X1234937Y774030D1*
X1243700Y774720D1*
X1252463Y774030D1*
X1261011Y771978D1*
X1269132Y768614D1*
X1276628Y764021D1*
X1283312Y758312D1*
X1289021Y751628D1*
X1293693Y743961D1*
X1298379Y751628D1*
X1304088Y758312D1*
X1310772Y764021D1*
X1318268Y768614D1*
X1326389Y771978D1*
X1334937Y774030D1*
X1343700Y774720D1*
X1352463Y774030D1*
X1361011Y771978D1*
X1369132Y768614D1*
X1376628Y764021D1*
X1383312Y758312D1*
X1389021Y751628D1*
X1393693Y743961D1*
X1398379Y751628D1*
X1404088Y758312D1*
X1410772Y764021D1*
X1418268Y768614D1*
X1426389Y771978D1*
X1434937Y774030D1*
X1443700Y774720D1*
X1452463Y774030D1*
X1461011Y771978D1*
X1469132Y768614D1*
X1476628Y764021D1*
X1483312Y758312D1*
X1489021Y751628D1*
X1493614Y744132D1*
X1496978Y736011D1*
X1499030Y727463D1*
X1499720Y718700D1*
X1499030Y709937D1*
X1496978Y701389D1*
X1493614Y693268D1*
X1489021Y685772D1*
X1483312Y679088D1*
X1476628Y673379D1*
X1468961Y668707D1*
X1668961Y668693D2*
X1674870Y665195D1*
X1712418Y665192D1*
X1718439Y668693D1*
X1710772Y673379D1*
X1704088Y679088D1*
X1698379Y685772D1*
X1693707Y693439D1*
X1689021Y685772D1*
X1683312Y679088D1*
X1676628Y673379D1*
X1668961Y668707D1*
X1768961Y668693D2*
X1774870Y665195D1*
X1812418Y665192D1*
X1818439Y668693D1*
X1810772Y673379D1*
X1804088Y679088D1*
X1798379Y685772D1*
X1793707Y693439D1*
X1789021Y685772D1*
X1783312Y679088D1*
X1776628Y673379D1*
X1768961Y668707D1*
X1868961Y668693D2*
X1874870Y665195D1*
X1912418Y665192D1*
X1918439Y668693D1*
X1910772Y673379D1*
X1904088Y679088D1*
X1898379Y685772D1*
X1893707Y693439D1*
X1889021Y685772D1*
X1883312Y679088D1*
X1876628Y673379D1*
X1868961Y668707D1*
X2868961Y668693D2*
X2874870Y665195D1*
X2912418Y665192D1*
X2918439Y668693D1*
X2910772Y673379D1*
X2904088Y679088D1*
X2898379Y685772D1*
X2893707Y693439D1*
X2889021Y685772D1*
X2883312Y679088D1*
X2876628Y673379D1*
X2868961Y668707D1*
X2968961Y668693D2*
X2974870Y665195D1*
X3012418Y665192D1*
X3018439Y668693D1*
X3010772Y673379D1*
X3004088Y679088D1*
X2998379Y685772D1*
X2993707Y693439D1*
X2989021Y685772D1*
X2983312Y679088D1*
X2976628Y673379D1*
X2968961Y668707D1*
X3068961Y668693D2*
X3074870Y665195D1*
X3112418Y665192D1*
X3118439Y668693D1*
X3110772Y673379D1*
X3104088Y679088D1*
X3098379Y685772D1*
X3093707Y693439D1*
X3089021Y685772D1*
X3083312Y679088D1*
X3076628Y673379D1*
X3068961Y668707D1*
X3168961Y668693D2*
X3174870Y665195D1*
X3212418Y665192D1*
X3218439Y668693D1*
X3210772Y673379D1*
X3204088Y679088D1*
X3198379Y685772D1*
X3193707Y693439D1*
X3189021Y685772D1*
X3183312Y679088D1*
X3176628Y673379D1*
X3168961Y668707D1*
X2468961Y668693D2*
X2474870Y665195D1*
X2512418Y665192D1*
X2518439Y668693D1*
X2510772Y673379D1*
X2504088Y679088D1*
X2498379Y685772D1*
X2493707Y693439D1*
X2489021Y685772D1*
X2483312Y679088D1*
X2476628Y673379D1*
X2468961Y668707D1*
X2568961Y668693D2*
X2574870Y665195D1*
X2687703Y665192D1*
X2687680Y697524D1*
X2599426Y712940D1*
X2598172Y705622D1*
X2595455Y697262D1*
X2591465Y689430D1*
X2586298Y682318D1*
X2580082Y676102D1*
X2572970Y670935D1*
X2568961Y668707D1*
X960683Y1936294D2*
X956237Y1930930D1*
X960613Y1925619D1*
X965368Y1917861D1*
X968850Y1909454D1*
X970974Y1900606D1*
X971688Y1891535D1*
X971190Y1884283D1*
X999708Y1855764D1*
Y1904643D1*
X968025Y1936303D1*
X960702Y1936283D1*
X1367029Y1587680D2*
X1318155D1*
X1318131Y1578238D1*
X1321196Y1544155D1*
X1327475Y1540188D1*
X1334332Y1534332D1*
X1340188Y1527475D1*
X1343667Y1521986D1*
X1347212Y1527475D1*
X1353068Y1534332D1*
X1359925Y1540188D1*
X1365199Y1543547D1*
X1367003Y1587694D1*
X1693693Y1618439D2*
X1689021Y1610772D1*
X1683312Y1604088D1*
X1676628Y1598379D1*
X1669132Y1593786D1*
X1661011Y1590422D1*
X1652463Y1588370D1*
X1643700Y1587680D1*
X1634937Y1588370D1*
X1626389Y1590422D1*
X1624180Y1591237D1*
X1624192Y1542424D1*
X1631019Y1537394D1*
X1637394Y1531019D1*
X1642694Y1523724D1*
X1643667Y1521986D1*
X1647212Y1527475D1*
X1653068Y1534332D1*
X1659925Y1540188D1*
X1667613Y1544899D1*
X1675943Y1548350D1*
X1684711Y1550454D1*
X1693700Y1551162D1*
X1702689Y1550454D1*
X1711457Y1548350D1*
X1713193Y1547709D1*
X1713208Y1596721D1*
X1707318Y1601102D1*
X1701102Y1607318D1*
X1695935Y1614430D1*
X1693707Y1618439D1*
X1993693D2*
X1989021Y1610772D1*
X1983312Y1604088D1*
X1976628Y1598379D1*
X1974185Y1596747D1*
X1974098Y1581308D1*
X1973350Y1576582D1*
X1972697Y1574269D1*
X2056340Y1574192D1*
X2055308Y1578899D1*
X2054735Y1586172D1*
X2054839Y1588808D1*
X2048095Y1587853D1*
X2039305D1*
X2030622Y1589228D1*
X2022262Y1591945D1*
X2014430Y1595935D1*
X2007318Y1601102D1*
X2001102Y1607318D1*
X1995935Y1614430D1*
X1993707Y1618439D1*
X2131718Y1698390D2*
X2139305Y1699547D1*
X2148095D1*
X2156778Y1698172D1*
X2165138Y1695455D1*
X2170137Y1693051D1*
X2173897Y1696886D1*
X2177768Y1699699D1*
X2197251Y1709122D1*
X2273075Y1745039D1*
X2278630Y1749080D1*
X2217978Y1745480D1*
X2211497Y1746104D1*
X2205193Y1747734D1*
X2199222Y1750330D1*
X2193731Y1753828D1*
X2188854Y1758142D1*
X2184713Y1763166D1*
X2181408Y1768775D1*
X2179021Y1774833D1*
X2177612Y1781190D1*
X2177285Y1784444D1*
X2177208Y1817934D1*
X2131277Y1852562D1*
X2126744Y1857235D1*
X2122997Y1862560D1*
X2120130Y1868405D1*
X2118212Y1874627D1*
X2117291Y1881073D1*
X2117390Y1887583D1*
X2118506Y1893998D1*
X2118793Y1894961D1*
X2108248Y1942182D1*
X2059708Y1942208D1*
Y1957243D1*
X2025676Y1957208D1*
X2021980Y1952465D1*
X2014935Y1945420D1*
X2012778Y1943720D1*
X2018596Y1938596D1*
X2025066Y1931020D1*
X2030272Y1922525D1*
X2034085Y1913320D1*
X2036410Y1903632D1*
X2037192Y1893700D1*
X2036410Y1883768D1*
X2034085Y1874080D1*
X2030272Y1864875D1*
X2025066Y1856380D1*
X2018596Y1848804D1*
X2012778Y1843720D1*
X2018596Y1838596D1*
X2025066Y1831020D1*
X2030272Y1822525D1*
X2034085Y1813320D1*
X2036410Y1803632D1*
X2037192Y1793700D1*
X2036410Y1783768D1*
X2034085Y1774080D1*
X2030272Y1764875D1*
X2025066Y1756380D1*
X2018596Y1748804D1*
X2014644Y1745191D1*
X2087620Y1745098D1*
X2092346Y1744350D1*
X2096896Y1742871D1*
X2101160Y1740699D1*
X2105031Y1737886D1*
X2124414Y1718503D1*
X2127226Y1714632D1*
X2129399Y1710369D1*
X2130877Y1705818D1*
X2131626Y1701092D1*
X2131720Y1698449D1*
X2258216Y1589634D2*
X2252463Y1588370D1*
X2243700Y1587680D1*
X2234937Y1588370D1*
X2226389Y1590422D1*
X2224192Y1591023D1*
Y1542400D1*
X2231019Y1537394D1*
X2237394Y1531019D1*
X2242694Y1523724D1*
X2243667Y1521986D1*
X2247212Y1527475D1*
X2253068Y1534332D1*
X2258195Y1538824D1*
X2258208Y1589618D1*
X2399547Y1639305D2*
X2398172Y1630622D1*
X2395455Y1622262D1*
X2391465Y1614430D1*
X2386298Y1607318D1*
X2383417Y1604202D1*
X2396103Y1604192D1*
X2423195Y1631318D1*
X2423302Y1691092D1*
X2424050Y1695818D1*
X2425529Y1700369D1*
X2427701Y1704632D1*
X2430513Y1708503D1*
X2472306Y1750428D1*
X2468506Y1753347D1*
X2463628Y1758202D1*
X2436297Y1758208D1*
X2370839Y1692717D1*
X2376628Y1689021D1*
X2383312Y1683312D1*
X2389021Y1676628D1*
X2393614Y1669132D1*
X2396978Y1661011D1*
X2399030Y1652463D1*
X2399720Y1643700D1*
X2399547Y1639305D1*
X677709Y1195192D2*
X687692D1*
Y1092208D1*
X682704D1*
X682692Y982688D1*
X698902Y982692D1*
X694706Y988676D1*
X690612Y996710D1*
X687826Y1005286D1*
X686415Y1014192D1*
Y1023208D1*
X687826Y1032114D1*
X690612Y1040690D1*
X694706Y1048724D1*
X700006Y1056019D1*
X706381Y1062394D1*
X713676Y1067694D1*
X721710Y1071788D1*
X730286Y1074574D1*
X738439Y1075896D1*
X707852Y1106624D1*
X704717Y1110939D1*
X702295Y1115692D1*
X700647Y1120765D1*
X699813Y1126033D1*
X699708Y1183818D1*
Y1204739D1*
X677685Y1204708D1*
X677692Y1195207D1*
X3527213Y1095078D2*
X3524180Y1093095D1*
X3524192Y1004290D1*
X3527213Y1002322D1*
X3527208Y1095048D1*
X3481345Y1201446D2*
X3489064Y1202610D1*
X3498336D1*
X3507495Y1201159D1*
X3516313Y1198294D1*
X3523895Y1194465D1*
X3499107Y1219259D1*
X3481398Y1201506D1*
X3527213Y905078D2*
X3524180Y903095D1*
X3524192Y794338D1*
X3527213Y792322D1*
X3527208Y904999D1*
X2099720Y771669D2*
Y665165D1*
X2287677Y665192D1*
X2287681Y687189D1*
X2111721Y767273D1*
X2099700Y771683D1*
X3120655Y769715D2*
X3126389Y771978D1*
X3134937Y774030D1*
X3143700Y774720D1*
X3144610Y774684D1*
X3056066Y863211D1*
X2842378Y863208D1*
X2849128Y859051D1*
X3011397Y828946D1*
X3041826Y819303D1*
X3046207Y817380D1*
X3110123Y776477D1*
X3120603Y769752D1*
X3299547Y714305D2*
X3298172Y705622D1*
X3295455Y697262D1*
X3294499Y695187D1*
X3302228Y695192D1*
X3302208Y799426D1*
X3144424Y957226D1*
X2939390Y957208D1*
X2940049Y952348D1*
Y945052D1*
X2938908Y937847D1*
X2936653Y930908D1*
X2933191Y924183D1*
X3071092Y924098D1*
X3075818Y923350D1*
X3080369Y921871D1*
X3084632Y919699D1*
X3088503Y916886D1*
X3142227Y863295D1*
X3232026Y773497D1*
X3239305Y774547D1*
X3248095D1*
X3256778Y773172D1*
X3265138Y770455D1*
X3272970Y766465D1*
X3280082Y761298D1*
X3286298Y755082D1*
X3291465Y747970D1*
X3295455Y740138D1*
X3298172Y731778D1*
X3299547Y723095D1*
Y714305D1*
X3269610Y2287716D2*
X3264305Y2287853D1*
X3257055Y2288943D1*
X3177322Y2209199D1*
X3191092Y2209192D1*
X3269552Y2287675D1*
X3127070Y2306271D2*
X3123379Y2310772D1*
X3118707Y2318439D1*
X3114021Y2310772D1*
X3108312Y2304088D1*
X3101628Y2298379D1*
X3094132Y2293786D1*
X3086011Y2290422D1*
X3077463Y2288370D1*
X3068700Y2287680D1*
X3059937Y2288370D1*
X3051389Y2290422D1*
X3043268Y2293786D1*
X3035772Y2298379D1*
X3029088Y2304088D1*
X3023379Y2310772D1*
X3018707Y2318439D1*
X3014021Y2310772D1*
X3008312Y2304088D1*
X3001628Y2298379D1*
X2994132Y2293786D1*
X2986011Y2290422D1*
X2977463Y2288370D1*
X2968700Y2287680D1*
X2959937Y2288370D1*
X2957055Y2288943D1*
X2921625Y2253502D1*
X3083710D1*
X3127014Y2306228D1*
X2855808Y2289191D2*
X2847262Y2291945D1*
X2839430Y2295935D1*
X2832318Y2301102D1*
X2826102Y2307318D1*
X2820935Y2314430D1*
X2818614Y2318268D1*
X2814021Y2310772D1*
X2808312Y2304088D1*
X2801628Y2298379D1*
X2794132Y2293786D1*
X2786011Y2290422D1*
X2781592Y2289191D1*
X2855789Y2289192D1*
X1043202Y2287700D2*
X1034937Y2288370D1*
X1030242Y2289335D1*
X1077194Y2234363D1*
X1043232Y2287678D1*
X1193693Y2318439D2*
X1188883Y2310597D1*
X1257134Y2130624D1*
X1257146Y2161067D1*
X1225295Y2290788D1*
X1218268Y2293786D1*
X1210772Y2298379D1*
X1204088Y2304088D1*
X1198379Y2310772D1*
X1193707Y2318439D1*
X1131853Y2288983D2*
X1126389Y2290422D1*
X1118268Y2293786D1*
X1110772Y2298379D1*
X1106498Y2301860D1*
X1156772Y2223259D1*
X1131867Y2288920D1*
X1293693Y2318439D2*
X1289021Y2310772D1*
X1284513Y2305388D1*
X1317731Y2169678D1*
X1325825Y2176575D1*
X1331373Y2181313D1*
X1337593Y2185125D1*
X1344333Y2187917D1*
X1351427Y2189620D1*
X1358714Y2190192D1*
X1358922Y2195746D1*
X1328945Y2289652D1*
X1322262Y2291945D1*
X1314430Y2295935D1*
X1307318Y2301102D1*
X1301102Y2307318D1*
X1295935Y2314430D1*
X1293707Y2318439D1*
X1378935Y2387202D2*
X1383312Y2383312D1*
X1389021Y2376628D1*
X1393589Y2369177D1*
X1453709Y2369192D1*
X1455397Y2372886D1*
Y2387204D1*
X1378978Y2387208D1*
X3539394Y1697192D2*
X3657192D1*
Y1570208D1*
X3530208D1*
Y1697192D1*
X3539394D1*
X2143667Y1465414D2*
X2140188Y1459925D1*
X2134332Y1453068D1*
X2127475Y1447212D1*
X2119787Y1442501D1*
X2111457Y1439050D1*
X2102689Y1436946D1*
X2093700Y1436238D1*
X2084711Y1436946D1*
X2075943Y1439050D1*
X2067613Y1442501D1*
X2059925Y1447212D1*
X2053068Y1453068D1*
X2047212Y1459925D1*
X2043733Y1465414D1*
X2040188Y1459925D1*
X2034332Y1453068D1*
X2027475Y1447212D1*
X2024178Y1445009D1*
X2024192Y1436321D1*
X2031323Y1429200D1*
X2313202Y1429192D1*
X2313208Y1439668D1*
X2307114Y1437826D1*
X2298208Y1436415D1*
X2289192D1*
X2280286Y1437826D1*
X2271710Y1440612D1*
X2263676Y1444706D1*
X2256381Y1450006D1*
X2250006Y1456381D1*
X2244706Y1463676D1*
X2243733Y1465414D1*
X2240188Y1459925D1*
X2234332Y1453068D1*
X2227475Y1447212D1*
X2219787Y1442501D1*
X2211457Y1439050D1*
X2202689Y1436946D1*
X2193700Y1436238D1*
X2184711Y1436946D1*
X2175943Y1439050D1*
X2167613Y1442501D1*
X2159925Y1447212D1*
X2153068Y1453068D1*
X2147212Y1459925D1*
X2143733Y1465414D1*
X1813193Y1439691D2*
X1807114Y1437826D1*
X1798208Y1436415D1*
X1789192D1*
X1780286Y1437826D1*
X1778064Y1438452D1*
X1781653Y1431492D1*
X1783908Y1424553D1*
X1785049Y1417348D1*
Y1410052D1*
X1783908Y1402847D1*
X1782862Y1399186D1*
X1813204Y1399192D1*
X1813208Y1439643D1*
X2618587Y945452D2*
X2623724Y942694D1*
X2631019Y937394D1*
X2637394Y931019D1*
X2642694Y923724D1*
X2643667Y921986D1*
X2647212Y927475D1*
X2653068Y934332D1*
X2659925Y940188D1*
X2667613Y944899D1*
X2675943Y948350D1*
X2684711Y950454D1*
X2693700Y951162D1*
X2702689Y950454D1*
X2711457Y948350D1*
X2719787Y944899D1*
X2727475Y940188D1*
X2734332Y934332D1*
X2740188Y927475D1*
X2743667Y921986D1*
X2747212Y927475D1*
X2753068Y934332D1*
X2759925Y940188D1*
X2767613Y944899D1*
X2775943Y948350D1*
X2784711Y950454D1*
X2793700Y951162D1*
X2802689Y950454D1*
X2811457Y948350D1*
X2819787Y944899D1*
X2827475Y940188D1*
X2834332Y934332D1*
X2840188Y927475D1*
X2842391Y924178D1*
X2850576Y924192D1*
X2847139Y927139D1*
X2844031Y930777D1*
X2841531Y934857D1*
X2839700Y939277D1*
X2838583Y943930D1*
X2838208Y948700D1*
Y1165118D1*
X2618582Y945460D1*
X2673182Y1547331D2*
X2680286Y1549574D1*
X2689192Y1550985D1*
X2698208D1*
X2707114Y1549574D1*
X2715690Y1546788D1*
X2718363Y1545556D1*
X2718208Y1562659D1*
X2669160Y1562680D1*
X2669192Y1551322D1*
X2397874Y1436402D2*
X2389192Y1436415D1*
X2380286Y1437826D1*
X2374207Y1439691D1*
X2374098Y1406308D1*
X2373350Y1401582D1*
X2371871Y1397031D1*
X2369699Y1392768D1*
X2366886Y1388897D1*
X2355261Y1377139D1*
X2351623Y1374031D1*
X2347543Y1371531D1*
X2343123Y1369700D1*
X2338470Y1368583D1*
X2333691Y1368208D1*
X2016308Y1368302D1*
X2011582Y1369050D1*
X2007031Y1370529D1*
X2002768Y1372701D1*
X1998897Y1375514D1*
X1974185Y1400093D1*
X1974097Y1331298D1*
X1977440Y1330192D1*
X2435430D1*
X2523601Y1393191D1*
X2451308Y1393302D1*
X2446582Y1394050D1*
X2442031Y1395529D1*
X2437768Y1397701D1*
X2433897Y1400514D1*
X2397909Y1436368D1*
X2419323Y1545113D2*
X2423724Y1542694D1*
X2431019Y1537394D1*
X2437394Y1531019D1*
X2442694Y1523724D1*
X2443667Y1521986D1*
X2447212Y1527475D1*
X2453068Y1534332D1*
X2459925Y1540188D1*
X2463222Y1542391D1*
X2463208Y1585097D1*
X2428503Y1550514D1*
X2424632Y1547701D1*
X2420360Y1545526D1*
X564275Y1279609D2*
Y1290192D1*
X573461D1*
X3809443Y542629D2*
X3808437Y534130D1*
X3806767Y525737D1*
X3804444Y517500D1*
X3801482Y509471D1*
X3797899Y501699D1*
X3793718Y494232D1*
X3788963Y487116D1*
X3783665Y480396D1*
X3777831Y474089D1*
X3771571Y468302D1*
X3764851Y463004D1*
X3757735Y458249D1*
X3750268Y454068D1*
X3742496Y450485D1*
X3734467Y447523D1*
X3726230Y445200D1*
X3717837Y443530D1*
X3709338Y442524D1*
X3700787Y442188D1*
X3692235Y442524D1*
X3683736Y443530D1*
X3675343Y445200D1*
X3667106Y447523D1*
X3659077Y450485D1*
X3651305Y454068D1*
X3643838Y458249D1*
X3636723Y463004D1*
X3630002Y468302D1*
X3623718Y474111D1*
X3617908Y480396D1*
X3612610Y487116D1*
X3607856Y494232D1*
X3603674Y501699D1*
X3600091Y509471D1*
X3597129Y517500D1*
X3594806Y525737D1*
X3593136Y534130D1*
X3592130Y542629D1*
X3591794Y551180D1*
X3592130Y559732D1*
X3593136Y568230D1*
X3594806Y576624D1*
X3597129Y584861D1*
X3600091Y592890D1*
X3603674Y600662D1*
X3607856Y608129D1*
X3612610Y615244D1*
X3617908Y621965D1*
X3623718Y628249D1*
X3630002Y634059D1*
X3636723Y639357D1*
X3643838Y644111D1*
X3651305Y648293D1*
X3659077Y651876D1*
X3667106Y654838D1*
X3675343Y657161D1*
X3683736Y658831D1*
X3692235Y659836D1*
X3700787Y660172D1*
X3709338Y659836D1*
X3717837Y658831D1*
X3726230Y657161D1*
X3734467Y654838D1*
X3742496Y651876D1*
X3750268Y648293D1*
X3757735Y644111D1*
X3764851Y639357D1*
X3771571Y634059D1*
X3777856Y628249D1*
X3783665Y621965D1*
X3788963Y615244D1*
X3793718Y608129D1*
X3797899Y600662D1*
X3801482Y592890D1*
X3804444Y584861D1*
X3806767Y576624D1*
X3808437Y568230D1*
X3809443Y559732D1*
X3809779Y551180D1*
X3809443Y542629D1*
X659836D2*
X658831Y534130D1*
X657161Y525737D1*
X654838Y517500D1*
X651876Y509471D1*
X648293Y501699D1*
X644111Y494232D1*
X639357Y487116D1*
X634059Y480396D1*
X628249Y474111D1*
X621965Y468302D1*
X615244Y463004D1*
X608129Y458249D1*
X600662Y454068D1*
X592890Y450485D1*
X584861Y447523D1*
X576624Y445200D1*
X568230Y443530D1*
X559732Y442524D1*
X551180Y442188D1*
X542629Y442524D1*
X534130Y443530D1*
X525737Y445200D1*
X517500Y447523D1*
X509471Y450485D1*
X501699Y454068D1*
X494232Y458249D1*
X487116Y463004D1*
X480396Y468302D1*
X474089Y474136D1*
X468302Y480396D1*
X463004Y487116D1*
X458249Y494232D1*
X454068Y501699D1*
X450485Y509471D1*
X447523Y517500D1*
X445200Y525737D1*
X443530Y534130D1*
X442524Y542629D1*
X442188Y551180D1*
X442524Y559732D1*
X443530Y568230D1*
X445200Y576624D1*
X447523Y584861D1*
X450485Y592890D1*
X454068Y600662D1*
X458249Y608129D1*
X463004Y615244D1*
X468302Y621965D1*
X474111Y628249D1*
X480396Y634059D1*
X487116Y639357D1*
X494232Y644111D1*
X501699Y648293D1*
X509471Y651876D1*
X517500Y654838D1*
X525737Y657161D1*
X534130Y658831D1*
X542629Y659836D1*
X551180Y660172D1*
X559732Y659836D1*
X568230Y658831D1*
X576624Y657161D1*
X584861Y654838D1*
X592890Y651876D1*
X600662Y648293D1*
X608129Y644111D1*
X615244Y639357D1*
X621965Y634059D1*
X628249Y628249D1*
X634059Y621965D1*
X639357Y615244D1*
X644111Y608129D1*
X648293Y600662D1*
X651876Y592890D1*
X654838Y584861D1*
X657161Y576624D1*
X658831Y568230D1*
X659836Y559732D1*
X660172Y551180D1*
X659836Y542629D1*
X3809443Y2511133D2*
X3808437Y2502634D1*
X3806767Y2494241D1*
X3804444Y2486004D1*
X3801482Y2477975D1*
X3797899Y2470203D1*
X3793718Y2462736D1*
X3788963Y2455620D1*
X3783665Y2448900D1*
X3777856Y2442615D1*
X3771571Y2436806D1*
X3764851Y2431508D1*
X3757735Y2426753D1*
X3750268Y2422572D1*
X3742496Y2418989D1*
X3734467Y2416027D1*
X3726230Y2413704D1*
X3717837Y2412034D1*
X3709338Y2411028D1*
X3700787Y2410692D1*
X3692235Y2411028D1*
X3683736Y2412034D1*
X3675343Y2413704D1*
X3667106Y2416027D1*
X3659077Y2418989D1*
X3651305Y2422572D1*
X3643838Y2426753D1*
X3636723Y2431508D1*
X3630002Y2436806D1*
X3623718Y2442615D1*
X3617908Y2448900D1*
X3612610Y2455620D1*
X3607856Y2462736D1*
X3603674Y2470203D1*
X3600091Y2477975D1*
X3597129Y2486004D1*
X3594806Y2494241D1*
X3593136Y2502634D1*
X3592130Y2511133D1*
X3591794Y2519684D1*
X3592130Y2528236D1*
X3593136Y2536734D1*
X3594806Y2545128D1*
X3597129Y2553365D1*
X3600091Y2561394D1*
X3603674Y2569166D1*
X3607856Y2576632D1*
X3612610Y2583748D1*
X3617908Y2590469D1*
X3623718Y2596753D1*
X3630002Y2602563D1*
X3636723Y2607861D1*
X3643838Y2612615D1*
X3651305Y2616797D1*
X3659077Y2620380D1*
X3667106Y2623342D1*
X3675343Y2625665D1*
X3683736Y2627335D1*
X3692235Y2628340D1*
X3700787Y2628676D1*
X3709338Y2628340D1*
X3717837Y2627335D1*
X3726230Y2625665D1*
X3734467Y2623342D1*
X3742496Y2620380D1*
X3750268Y2616797D1*
X3757735Y2612615D1*
X3764851Y2607861D1*
X3771571Y2602563D1*
X3777878Y2596729D1*
X3783665Y2590469D1*
X3788963Y2583748D1*
X3793718Y2576632D1*
X3797899Y2569166D1*
X3801482Y2561394D1*
X3804444Y2553365D1*
X3806767Y2545128D1*
X3808437Y2536734D1*
X3809443Y2528236D1*
X3809779Y2519684D1*
X3809443Y2511133D1*
X1565049Y2360052D2*
X1564177Y2354203D1*
X1836046Y2354192D1*
X1837208Y2358700D1*
X1837780Y2365973D1*
X1839483Y2373067D1*
X1842275Y2379807D1*
X1846087Y2386027D1*
X1847014Y2387203D1*
X1558820Y2387208D1*
X1561653Y2381492D1*
X1563908Y2374553D1*
X1565049Y2367348D1*
Y2360052D1*
X507208Y2368686D2*
X507780Y2375973D1*
X509483Y2383067D1*
X512275Y2389807D1*
X516087Y2396027D1*
X520825Y2401575D1*
X526373Y2406313D1*
X532593Y2410125D1*
X535908Y2411653D1*
X571478Y2411658D2*
X577992Y2408341D1*
X583894Y2404053D1*
X589053Y2398894D1*
X593341Y2392992D1*
X596653Y2386492D1*
X598908Y2379553D1*
X600049Y2372348D1*
X600192Y2368686D1*
X1914741Y1553208D2*
X1877565D1*
X1874192Y1492853D1*
X1874097Y1366298D1*
X1882899Y1364192D1*
X1913222D1*
X1913302Y1546092D1*
X1914050Y1550818D1*
X1914703Y1553131D1*
D30*
X2768700Y2443700D3*
D31*
Y2543700D3*
X2868700Y2443700D3*
Y2543700D3*
X2968700Y2443700D3*
Y2543700D3*
X3068700Y2443700D3*
Y2543700D3*
X3168700Y2443700D3*
Y2543700D3*
X3268700Y2443700D3*
Y2543700D3*
X3368700Y2443700D3*
Y2543700D3*
D30*
X2118700Y2443700D3*
D31*
Y2543700D3*
X2218700Y2443700D3*
Y2543700D3*
X2318700Y2443700D3*
Y2543700D3*
X2418700Y2443700D3*
Y2543700D3*
D30*
X743700Y2443700D3*
D31*
Y2543700D3*
X843700Y2443700D3*
Y2543700D3*
X943700Y2443700D3*
Y2543700D3*
X1043700Y2443700D3*
Y2543700D3*
X1143700Y2443700D3*
Y2543700D3*
X1243700Y2443700D3*
Y2543700D3*
X1343700Y2443700D3*
Y2543700D3*
D30*
X743700Y518700D3*
D31*
Y618700D3*
X843700Y518700D3*
Y618700D3*
X943700Y518700D3*
Y618700D3*
X1043700Y518700D3*
Y618700D3*
X1143700Y518700D3*
Y618700D3*
X1243700Y518700D3*
Y618700D3*
X1343700Y518700D3*
Y618700D3*
X1443700Y518700D3*
Y618700D3*
D30*
X1643700Y518700D3*
D31*
Y618700D3*
X1743700Y518700D3*
Y618700D3*
X1843700Y518700D3*
Y618700D3*
X1943700Y518700D3*
Y618700D3*
X2043700Y518700D3*
Y618700D3*
D30*
X2743700Y518700D3*
D31*
Y618700D3*
X2843700Y518700D3*
Y618700D3*
X2943700Y518700D3*
Y618700D3*
X3043700Y518700D3*
Y618700D3*
X3143700Y518700D3*
Y618700D3*
X3243700Y518700D3*
Y618700D3*
D30*
X2343700Y518700D3*
D31*
Y618700D3*
X2443700Y518700D3*
Y618700D3*
X2543700Y518700D3*
Y618700D3*
D33*
X3388700Y1893700D3*
X3624920D3*
X3506810Y2078739D3*
D34*
X913700Y2068700D3*
D35*
Y1970275D3*
Y1891535D3*
Y1793109D3*
D36*
X807007Y2189566D3*
Y1672243D3*
D30*
X1343700Y1643700D3*
D31*
X1443700D3*
X1543700D3*
X1643700D3*
X1743700D3*
X1843700D3*
X1943700D3*
X2043700D3*
X2143700D3*
X2243700D3*
X2343700D3*
D38*
X3693700Y1143700D3*
X3593700D3*
X3493700D3*
X3693700Y953700D3*
X3593700D3*
X3493700D3*
X3693700Y743700D3*
X3593700D3*
X3493700D3*
D39*
X2993700Y1463700D3*
D40*
X3043700D3*
D30*
X743700Y718700D3*
D31*
X843700D3*
X943700D3*
X1043700D3*
X1143700D3*
X1243700D3*
X1343700D3*
X1443700D3*
D30*
X2043700D3*
D31*
X1943700D3*
X1843700D3*
X1743700D3*
X1643700D3*
D30*
X2743700D3*
D31*
X2843700D3*
X2943700D3*
X3043700D3*
X3143700D3*
X3243700D3*
D30*
X3368700Y2343700D3*
D31*
X3268700D3*
X3168700D3*
X3068700D3*
X2968700D3*
X2868700D3*
X2768700D3*
D30*
X2118700D3*
D31*
X2218700D3*
X2318700D3*
X2418700D3*
D30*
X743700D3*
D31*
X843700D3*
X943700D3*
X1043700D3*
X1143700D3*
X1243700D3*
X1343700D3*
D30*
X2343700Y718700D3*
D31*
X2443700D3*
X2543700D3*
D30*
X2643700Y2343700D3*
D31*
X2543700D3*
D30*
X3368700Y2243700D3*
X1048700Y1718700D3*
D31*
Y1818700D3*
D30*
X3083700Y1923700D3*
D31*
X3183700D3*
X3083700Y1823700D3*
X3183700D3*
D48*
X1818700Y1993700D3*
X1854133D3*
D49*
X558700Y2273267D3*
Y2308700D3*
D48*
X2098700Y1993700D3*
X2134133D3*
X648700Y1143700D3*
X613267D3*
X638700Y1238700D3*
X603267D3*
D26*
X2758700Y1863700D3*
D31*
Y2119653D3*
D51*
X3593700Y1633700D3*
D52*
X3493700D3*
X3393700D3*
X3193700D3*
X3293700D3*
D53*
X493700Y893700D3*
X593700D3*
X693700D3*
X793700D3*
X893700D3*
X993700D3*
X1093700D3*
X1193700D3*
X1293700D3*
X1393700D3*
X1493700D3*
X1593700D3*
X1693700D3*
X1793700D3*
X2293700Y993700D3*
X593700Y1393700D3*
D54*
X515700Y1238700D3*
Y1148700D3*
D53*
X2093700Y1493700D3*
X1793700D3*
X1693700D3*
X1593700D3*
X1493700D3*
X1393700D3*
X1293700D3*
X1193700D3*
X1093700D3*
X993700D3*
X893700D3*
X793700D3*
X693700D3*
X593700D3*
X493700D3*
X743700Y1018700D3*
X843700D3*
X943700D3*
X2393700Y893700D3*
X2493700D3*
X2293700D3*
X2193700D3*
X2093700D3*
X1993700D3*
X2593700D3*
X2693700D3*
X2793700D3*
Y1493700D3*
X1893700Y893700D3*
X2693700Y1493700D3*
X1893700D3*
X2593700D3*
X2393700D3*
X2293700D3*
X2193700D3*
X2493700D3*
X1993700D3*
X1043700Y1018700D3*
X1143700D3*
D51*
X1973700Y2193700D3*
D52*
Y2093700D3*
Y1993700D3*
Y1793700D3*
Y1893700D3*
D30*
X2543700Y2443700D3*
D31*
Y2543700D3*
X2643700Y2443700D3*
Y2543700D3*
D30*
X2693700Y1618700D3*
D31*
X2793700D3*
X2893700D3*
M02*
